<?xml version="1.0" encoding="UTF-8" standalone="no"?>
<!DOCTYPE svg PUBLIC "-//W3C//DTD SVG 1.1//EN"
 "http://www.w3.org/Graphics/SVG/1.1/DTD/svg11.dtd">
<!-- Generated by graphviz version 2.43.0 (0)
 -->
<!-- Title: BlackMisc::CLogPattern Pages: 1 -->
<svg width="354pt" height="382pt"
 viewBox="0.00 0.00 354.00 382.00" xmlns="http://www.w3.org/2000/svg" xmlns:xlink="http://www.w3.org/1999/xlink">
<g id="graph0" class="graph" transform="scale(1 1) rotate(0) translate(4 378)">
<title>BlackMisc::CLogPattern</title>
<!-- Node1 -->
<g id="node1" class="node">
<title>Node1</title>
<g id="a_node1"><a xlink:title="Value class for matching log messages based on their categories.">
<polygon fill="#bfbfbf" stroke="black" points="215,-177 215,-196 346,-196 346,-177 215,-177"/>
<text text-anchor="middle" x="280.5" y="-184" font-family="Helvetica,sans-Serif" font-size="10.00">BlackMisc::CLogPattern</text>
</a>
</g>
</g>
<!-- Node2 -->
<g id="node2" class="node">
<title>Node2</title>
<g id="a_node2"><a xlink:href="class_black_misc_1_1_mixin_1_1_meta_type.html" target="_top" xlink:title=" ">
<polygon fill="none" stroke="black" points="13.5,-343.5 13.5,-373.5 165.5,-373.5 165.5,-343.5 13.5,-343.5"/>
<text text-anchor="start" x="21.5" y="-361.5" font-family="Helvetica,sans-Serif" font-size="10.00">BlackMisc::Mixin::MetaType</text>
<text text-anchor="middle" x="89.5" y="-350.5" font-family="Helvetica,sans-Serif" font-size="10.00">&lt; CLogPattern &gt;</text>
</a>
</g>
</g>
<!-- Node2&#45;&gt;Node1 -->
<g id="edge1" class="edge">
<title>Node2&#45;&gt;Node1</title>
<path fill="none" stroke="midnightblue" d="M172.46,-338.72C174.72,-337.4 176.9,-336 179,-334.5 231.6,-296.99 265.07,-222.73 275.77,-196.2"/>
<polygon fill="midnightblue" stroke="midnightblue" points="170.74,-335.67 163.46,-343.37 173.95,-341.88 170.74,-335.67"/>
</g>
<!-- Node3 -->
<g id="node3" class="node">
<title>Node3</title>
<g id="a_node3"><a xlink:href="class_black_misc_1_1_mixin_1_1_hash_by_meta_class.html" target="_top" xlink:title=" ">
<polygon fill="none" stroke="black" points="15,-294.5 15,-324.5 164,-324.5 164,-294.5 15,-294.5"/>
<text text-anchor="start" x="23" y="-312.5" font-family="Helvetica,sans-Serif" font-size="10.00">BlackMisc::Mixin::HashBy</text>
<text text-anchor="middle" x="89.5" y="-301.5" font-family="Helvetica,sans-Serif" font-size="10.00">MetaClass&lt; CLogPattern &gt;</text>
</a>
</g>
</g>
<!-- Node3&#45;&gt;Node1 -->
<g id="edge2" class="edge">
<title>Node3&#45;&gt;Node1</title>
<path fill="none" stroke="midnightblue" d="M169.46,-290.41C172.74,-288.89 175.94,-287.26 179,-285.5 220.84,-261.47 257.8,-215.8 272.61,-196.02"/>
<polygon fill="midnightblue" stroke="midnightblue" points="167.88,-287.28 160.02,-294.38 170.59,-293.73 167.88,-287.28"/>
</g>
<!-- Node4 -->
<g id="node4" class="node">
<title>Node4</title>
<g id="a_node4"><a xlink:href="class_black_misc_1_1_mixin_1_1_equals_by_meta_class.html" target="_top" xlink:title=" ">
<polygon fill="none" stroke="black" points="9,-245.5 9,-275.5 170,-275.5 170,-245.5 9,-245.5"/>
<text text-anchor="start" x="17" y="-263.5" font-family="Helvetica,sans-Serif" font-size="10.00">BlackMisc::Mixin::Equals</text>
<text text-anchor="middle" x="89.5" y="-252.5" font-family="Helvetica,sans-Serif" font-size="10.00">ByMetaClass&lt; CLogPattern &gt;</text>
</a>
</g>
</g>
<!-- Node4&#45;&gt;Node1 -->
<g id="edge3" class="edge">
<title>Node4&#45;&gt;Node1</title>
<path fill="none" stroke="midnightblue" d="M162.13,-242.38C167.88,-240.53 173.57,-238.57 179,-236.5 209.6,-224.87 243.32,-206.97 262.89,-196.04"/>
<polygon fill="midnightblue" stroke="midnightblue" points="160.93,-239.09 152.42,-245.38 163,-245.77 160.93,-239.09"/>
</g>
<!-- Node5 -->
<g id="node5" class="node">
<title>Node5</title>
<g id="a_node5"><a xlink:href="class_black_misc_1_1_mixin_1_1_d_bus_operators.html" target="_top" xlink:title=" ">
<polygon fill="none" stroke="black" points="0,-196.5 0,-226.5 179,-226.5 179,-196.5 0,-196.5"/>
<text text-anchor="start" x="8" y="-214.5" font-family="Helvetica,sans-Serif" font-size="10.00">BlackMisc::Mixin::DBusOperators</text>
<text text-anchor="middle" x="89.5" y="-203.5" font-family="Helvetica,sans-Serif" font-size="10.00">&lt; CLogPattern &gt;</text>
</a>
</g>
</g>
<!-- Node5&#45;&gt;Node1 -->
<g id="edge4" class="edge">
<title>Node5&#45;&gt;Node1</title>
<path fill="none" stroke="midnightblue" d="M189.32,-198.43C197.94,-197.29 206.52,-196.15 214.75,-195.06"/>
<polygon fill="midnightblue" stroke="midnightblue" points="188.64,-194.99 179.19,-199.77 189.56,-201.93 188.64,-194.99"/>
</g>
<!-- Node6 -->
<g id="node6" class="node">
<title>Node6</title>
<g id="a_node6"><a xlink:href="class_black_misc_1_1_mixin_1_1_data_stream_operators.html" target="_top" xlink:title=" ">
<polygon fill="none" stroke="black" points="7.5,-147.5 7.5,-177.5 171.5,-177.5 171.5,-147.5 7.5,-147.5"/>
<text text-anchor="start" x="15.5" y="-165.5" font-family="Helvetica,sans-Serif" font-size="10.00">BlackMisc::Mixin::DataStream</text>
<text text-anchor="middle" x="89.5" y="-154.5" font-family="Helvetica,sans-Serif" font-size="10.00">Operators&lt; CLogPattern &gt;</text>
</a>
</g>
</g>
<!-- Node6&#45;&gt;Node1 -->
<g id="edge5" class="edge">
<title>Node6&#45;&gt;Node1</title>
<path fill="none" stroke="midnightblue" d="M181.93,-174.11C193.05,-175.52 204.23,-176.94 214.85,-178.29"/>
<polygon fill="midnightblue" stroke="midnightblue" points="182.11,-170.61 171.75,-172.82 181.23,-177.55 182.11,-170.61"/>
</g>
<!-- Node7 -->
<g id="node7" class="node">
<title>Node7</title>
<g id="a_node7"><a xlink:href="class_black_misc_1_1_mixin_1_1_index.html" target="_top" xlink:title=" ">
<polygon fill="none" stroke="black" points="23.5,-98.5 23.5,-128.5 155.5,-128.5 155.5,-98.5 23.5,-98.5"/>
<text text-anchor="start" x="31.5" y="-116.5" font-family="Helvetica,sans-Serif" font-size="10.00">BlackMisc::Mixin::Index</text>
<text text-anchor="middle" x="89.5" y="-105.5" font-family="Helvetica,sans-Serif" font-size="10.00">&lt; CLogPattern &gt;</text>
</a>
</g>
</g>
<!-- Node7&#45;&gt;Node1 -->
<g id="edge6" class="edge">
<title>Node7&#45;&gt;Node1</title>
<path fill="none" stroke="midnightblue" d="M159.01,-131.59C165.81,-133.77 172.58,-136.08 179,-138.5 208.85,-149.75 241.97,-166.44 261.75,-176.88"/>
<polygon fill="midnightblue" stroke="midnightblue" points="159.62,-128.12 149.04,-128.51 157.56,-134.81 159.62,-128.12"/>
</g>
<!-- Node8 -->
<g id="node8" class="node">
<title>Node8</title>
<g id="a_node8"><a xlink:href="class_black_misc_1_1_mixin_1_1_string.html" target="_top" xlink:title=" ">
<polygon fill="none" stroke="black" points="22.5,-49.5 22.5,-79.5 156.5,-79.5 156.5,-49.5 22.5,-49.5"/>
<text text-anchor="start" x="30.5" y="-67.5" font-family="Helvetica,sans-Serif" font-size="10.00">BlackMisc::Mixin::String</text>
<text text-anchor="middle" x="89.5" y="-56.5" font-family="Helvetica,sans-Serif" font-size="10.00">&lt; CLogPattern &gt;</text>
</a>
</g>
</g>
<!-- Node8&#45;&gt;Node1 -->
<g id="edge7" class="edge">
<title>Node8&#45;&gt;Node1</title>
<path fill="none" stroke="midnightblue" d="M166.07,-83.03C170.54,-84.99 174.89,-87.14 179,-89.5 220.21,-113.18 257.23,-157.46 272.32,-176.91"/>
<polygon fill="midnightblue" stroke="midnightblue" points="167.33,-79.77 156.74,-79.29 164.72,-86.26 167.33,-79.77"/>
</g>
<!-- Node9 -->
<g id="node9" class="node">
<title>Node9</title>
<g id="a_node9"><a xlink:href="class_black_misc_1_1_mixin_1_1_icon.html" target="_top" xlink:title=" ">
<polygon fill="none" stroke="black" points="27,-0.5 27,-30.5 152,-30.5 152,-0.5 27,-0.5"/>
<text text-anchor="start" x="35" y="-18.5" font-family="Helvetica,sans-Serif" font-size="10.00">BlackMisc::Mixin::Icon</text>
<text text-anchor="middle" x="89.5" y="-7.5" font-family="Helvetica,sans-Serif" font-size="10.00">&lt; CLogPattern &gt;</text>
</a>
</g>
</g>
<!-- Node9&#45;&gt;Node1 -->
<g id="edge8" class="edge">
<title>Node9&#45;&gt;Node1</title>
<path fill="none" stroke="midnightblue" d="M161.8,-30.78C167.88,-33.5 173.72,-36.72 179,-40.5 231.03,-77.77 264.86,-150.86 275.71,-176.96"/>
<polygon fill="midnightblue" stroke="midnightblue" points="162.66,-27.35 152.08,-26.88 160.06,-33.85 162.66,-27.35"/>
</g>
</g>
</svg>
