<?xml version="1.0" encoding="UTF-8" standalone="no"?>
<!DOCTYPE svg PUBLIC "-//W3C//DTD SVG 1.1//EN"
 "http://www.w3.org/Graphics/SVG/1.1/DTD/svg11.dtd">
<!-- Generated by graphviz version 2.43.0 (0)
 -->
<!-- Title: BlackGui::Components::CCopyModelsFromOtherSwiftVersionsDialog Pages: 1 -->
<svg width="176pt" height="218pt"
 viewBox="0.00 0.00 175.50 218.00" xmlns="http://www.w3.org/2000/svg" xmlns:xlink="http://www.w3.org/1999/xlink">
<g id="graph0" class="graph" transform="scale(1 1) rotate(0) translate(4 214)">
<title>BlackGui::Components::CCopyModelsFromOtherSwiftVersionsDialog</title>
<!-- Node1 -->
<g id="node1" class="node">
<title>Node1</title>
<g id="a_node1"><a xlink:title="Copy models from other swift versions as dialog.">
<polygon fill="#bfbfbf" stroke="black" points="0,-0.5 0,-41.5 165,-41.5 165,-0.5 0,-0.5"/>
<text text-anchor="start" x="8" y="-29.5" font-family="Helvetica,sans-Serif" font-size="10.00">BlackGui::Components</text>
<text text-anchor="start" x="8" y="-18.5" font-family="Helvetica,sans-Serif" font-size="10.00">::CCopyModelsFromOtherSwift</text>
<text text-anchor="middle" x="82.5" y="-7.5" font-family="Helvetica,sans-Serif" font-size="10.00">VersionsDialog</text>
</a>
</g>
</g>
<!-- Node2 -->
<g id="node2" class="node">
<title>Node2</title>
<g id="a_node2"><a target="_parent" xlink:href="http://doc.qt.io/qt-5/qdialog.html" xlink:title=" ">
<polygon fill="none" stroke="black" points="54.5,-78.5 54.5,-97.5 110.5,-97.5 110.5,-78.5 54.5,-78.5"/>
<text text-anchor="middle" x="82.5" y="-85.5" font-family="Helvetica,sans-Serif" font-size="10.00">QDialog</text>
</a>
</g>
</g>
<!-- Node2&#45;&gt;Node1 -->
<g id="edge1" class="edge">
<title>Node2&#45;&gt;Node1</title>
<path fill="none" stroke="midnightblue" d="M82.5,-68.04C82.5,-59.71 82.5,-49.94 82.5,-41.54"/>
<polygon fill="midnightblue" stroke="midnightblue" points="79,-68.23 82.5,-78.23 86,-68.23 79,-68.23"/>
</g>
<!-- Node3 -->
<g id="node3" class="node">
<title>Node3</title>
<g id="a_node3"><a target="_parent" xlink:href="http://doc.qt.io/qt-5/qwidget.html" xlink:title=" ">
<polygon fill="none" stroke="black" points="53,-134.5 53,-153.5 112,-153.5 112,-134.5 53,-134.5"/>
<text text-anchor="middle" x="82.5" y="-141.5" font-family="Helvetica,sans-Serif" font-size="10.00">QWidget</text>
</a>
</g>
</g>
<!-- Node3&#45;&gt;Node2 -->
<g id="edge2" class="edge">
<title>Node3&#45;&gt;Node2</title>
<path fill="none" stroke="midnightblue" d="M82.5,-123.8C82.5,-114.91 82.5,-104.78 82.5,-97.75"/>
<polygon fill="midnightblue" stroke="midnightblue" points="79,-124.08 82.5,-134.08 86,-124.08 79,-124.08"/>
</g>
<!-- Node4 -->
<g id="node4" class="node">
<title>Node4</title>
<g id="a_node4"><a target="_parent" xlink:href="http://doc.qt.io/qt-5/qobject.html" xlink:title=" ">
<polygon fill="none" stroke="black" points="11.5,-190.5 11.5,-209.5 67.5,-209.5 67.5,-190.5 11.5,-190.5"/>
<text text-anchor="middle" x="39.5" y="-197.5" font-family="Helvetica,sans-Serif" font-size="10.00">QObject</text>
</a>
</g>
</g>
<!-- Node4&#45;&gt;Node3 -->
<g id="edge3" class="edge">
<title>Node4&#45;&gt;Node3</title>
<path fill="none" stroke="midnightblue" d="M52.92,-182.14C60.41,-172.74 69.44,-161.4 75.53,-153.75"/>
<polygon fill="midnightblue" stroke="midnightblue" points="50.09,-180.08 46.6,-190.08 55.57,-184.44 50.09,-180.08"/>
</g>
<!-- Node5 -->
<g id="node5" class="node">
<title>Node5</title>
<g id="a_node5"><a target="_parent" xlink:href="http://doc.qt.io/qt-5/qpaintdevice.html" xlink:title=" ">
<polygon fill="none" stroke="black" points="85.5,-190.5 85.5,-209.5 167.5,-209.5 167.5,-190.5 85.5,-190.5"/>
<text text-anchor="middle" x="126.5" y="-197.5" font-family="Helvetica,sans-Serif" font-size="10.00">QPaintDevice</text>
</a>
</g>
</g>
<!-- Node5&#45;&gt;Node3 -->
<g id="edge4" class="edge">
<title>Node5&#45;&gt;Node3</title>
<path fill="none" stroke="midnightblue" d="M112.77,-182.14C105.1,-172.74 95.87,-161.4 89.63,-153.75"/>
<polygon fill="midnightblue" stroke="midnightblue" points="110.2,-184.54 119.23,-190.08 115.63,-180.12 110.2,-184.54"/>
</g>
</g>
</svg>
