<?xml version="1.0" encoding="UTF-8" standalone="no"?>
<!DOCTYPE svg PUBLIC "-//W3C//DTD SVG 1.1//EN"
 "http://www.w3.org/Graphics/SVG/1.1/DTD/svg11.dtd">
<!-- Generated by graphviz version 2.43.0 (0)
 -->
<!-- Title: BlackSimPlugin::Emulated::CSimulatorEmulatedConfigWidget Pages: 1 -->
<svg width="196pt" height="397pt"
 viewBox="0.00 0.00 196.00 397.00" xmlns="http://www.w3.org/2000/svg" xmlns:xlink="http://www.w3.org/1999/xlink">
<g id="graph0" class="graph" transform="scale(1 1) rotate(0) translate(4 393)">
<title>BlackSimPlugin::Emulated::CSimulatorEmulatedConfigWidget</title>
<!-- Node1 -->
<g id="node1" class="node">
<title>Node1</title>
<g id="a_node1"><a xlink:title="Configuration window for CSimulatorEmulatedConfig.">
<polygon fill="#bfbfbf" stroke="black" points="0,-0.5 0,-30.5 188,-30.5 188,-0.5 0,-0.5"/>
<text text-anchor="start" x="8" y="-18.5" font-family="Helvetica,sans-Serif" font-size="10.00">BlackSimPlugin::Emulated</text>
<text text-anchor="middle" x="94" y="-7.5" font-family="Helvetica,sans-Serif" font-size="10.00">::CSimulatorEmulatedConfigWidget</text>
</a>
</g>
</g>
<!-- Node2 -->
<g id="node2" class="node">
<title>Node2</title>
<g id="a_node2"><a xlink:href="class_black_gui_1_1_c_plugin_config_window.html" target="_top" xlink:title="Base class for plugin config window.">
<polygon fill="none" stroke="black" points="7.5,-67.5 7.5,-86.5 180.5,-86.5 180.5,-67.5 7.5,-67.5"/>
<text text-anchor="middle" x="94" y="-74.5" font-family="Helvetica,sans-Serif" font-size="10.00">BlackGui::CPluginConfigWindow</text>
</a>
</g>
</g>
<!-- Node2&#45;&gt;Node1 -->
<g id="edge1" class="edge">
<title>Node2&#45;&gt;Node1</title>
<path fill="none" stroke="midnightblue" d="M94,-57.23C94,-48.59 94,-38.5 94,-30.52"/>
<polygon fill="midnightblue" stroke="midnightblue" points="90.5,-57.48 94,-67.48 97.5,-57.48 90.5,-57.48"/>
</g>
<!-- Node3 -->
<g id="node3" class="node">
<title>Node3</title>
<g id="a_node3"><a xlink:href="class_black_gui_1_1_c_overlay_messages_frame.html" target="_top" xlink:title="Using this class provides a QFrame with the overlay functionality already integrated.">
<polygon fill="none" stroke="black" points="14,-123.5 14,-153.5 174,-153.5 174,-123.5 14,-123.5"/>
<text text-anchor="start" x="22" y="-141.5" font-family="Helvetica,sans-Serif" font-size="10.00">BlackGui::COverlayMessages</text>
<text text-anchor="middle" x="94" y="-130.5" font-family="Helvetica,sans-Serif" font-size="10.00">Frame</text>
</a>
</g>
</g>
<!-- Node3&#45;&gt;Node2 -->
<g id="edge2" class="edge">
<title>Node3&#45;&gt;Node2</title>
<path fill="none" stroke="midnightblue" d="M94,-113.29C94,-103.86 94,-93.65 94,-86.66"/>
<polygon fill="midnightblue" stroke="midnightblue" points="90.5,-113.4 94,-123.4 97.5,-113.4 90.5,-113.4"/>
</g>
<!-- Node4 -->
<g id="node4" class="node">
<title>Node4</title>
<g id="a_node4"><a xlink:href="class_black_gui_1_1_c_overlay_messages_base.html" target="_top" xlink:title=" ">
<polygon fill="none" stroke="black" points="14,-190.5 14,-220.5 174,-220.5 174,-190.5 14,-190.5"/>
<text text-anchor="start" x="22" y="-208.5" font-family="Helvetica,sans-Serif" font-size="10.00">BlackGui::COverlayMessages</text>
<text text-anchor="middle" x="94" y="-197.5" font-family="Helvetica,sans-Serif" font-size="10.00">Base&lt; QFrame &gt;</text>
</a>
</g>
</g>
<!-- Node4&#45;&gt;Node3 -->
<g id="edge3" class="edge">
<title>Node4&#45;&gt;Node3</title>
<path fill="none" stroke="midnightblue" d="M94,-180.11C94,-171.15 94,-161.32 94,-153.58"/>
<polygon fill="midnightblue" stroke="midnightblue" points="90.5,-180.4 94,-190.4 97.5,-180.4 90.5,-180.4"/>
</g>
<!-- Node5 -->
<g id="node5" class="node">
<title>Node5</title>
<g id="a_node5"><a target="_parent" xlink:href="http://doc.qt.io/qt-5/qframe.html" xlink:title=" ">
<polygon fill="none" stroke="black" points="66.5,-257.5 66.5,-276.5 121.5,-276.5 121.5,-257.5 66.5,-257.5"/>
<text text-anchor="middle" x="94" y="-264.5" font-family="Helvetica,sans-Serif" font-size="10.00">QFrame</text>
</a>
</g>
</g>
<!-- Node5&#45;&gt;Node4 -->
<g id="edge4" class="edge">
<title>Node5&#45;&gt;Node4</title>
<path fill="none" stroke="midnightblue" d="M94,-247.23C94,-238.59 94,-228.5 94,-220.52"/>
<polygon fill="midnightblue" stroke="midnightblue" points="90.5,-247.48 94,-257.48 97.5,-247.48 90.5,-247.48"/>
</g>
<!-- Node6 -->
<g id="node6" class="node">
<title>Node6</title>
<g id="a_node6"><a target="_parent" xlink:href="http://doc.qt.io/qt-5/qwidget.html" xlink:title=" ">
<polygon fill="none" stroke="black" points="64.5,-313.5 64.5,-332.5 123.5,-332.5 123.5,-313.5 64.5,-313.5"/>
<text text-anchor="middle" x="94" y="-320.5" font-family="Helvetica,sans-Serif" font-size="10.00">QWidget</text>
</a>
</g>
</g>
<!-- Node6&#45;&gt;Node5 -->
<g id="edge5" class="edge">
<title>Node6&#45;&gt;Node5</title>
<path fill="none" stroke="midnightblue" d="M94,-302.8C94,-293.91 94,-283.78 94,-276.75"/>
<polygon fill="midnightblue" stroke="midnightblue" points="90.5,-303.08 94,-313.08 97.5,-303.08 90.5,-303.08"/>
</g>
<!-- Node7 -->
<g id="node7" class="node">
<title>Node7</title>
<g id="a_node7"><a target="_parent" xlink:href="http://doc.qt.io/qt-5/qobject.html" xlink:title=" ">
<polygon fill="none" stroke="black" points="23,-369.5 23,-388.5 79,-388.5 79,-369.5 23,-369.5"/>
<text text-anchor="middle" x="51" y="-376.5" font-family="Helvetica,sans-Serif" font-size="10.00">QObject</text>
</a>
</g>
</g>
<!-- Node7&#45;&gt;Node6 -->
<g id="edge6" class="edge">
<title>Node7&#45;&gt;Node6</title>
<path fill="none" stroke="midnightblue" d="M64.42,-361.14C71.91,-351.74 80.94,-340.4 87.03,-332.75"/>
<polygon fill="midnightblue" stroke="midnightblue" points="61.59,-359.08 58.1,-369.08 67.07,-363.44 61.59,-359.08"/>
</g>
<!-- Node8 -->
<g id="node8" class="node">
<title>Node8</title>
<g id="a_node8"><a target="_parent" xlink:href="http://doc.qt.io/qt-5/qpaintdevice.html" xlink:title=" ">
<polygon fill="none" stroke="black" points="97,-369.5 97,-388.5 179,-388.5 179,-369.5 97,-369.5"/>
<text text-anchor="middle" x="138" y="-376.5" font-family="Helvetica,sans-Serif" font-size="10.00">QPaintDevice</text>
</a>
</g>
</g>
<!-- Node8&#45;&gt;Node6 -->
<g id="edge7" class="edge">
<title>Node8&#45;&gt;Node6</title>
<path fill="none" stroke="midnightblue" d="M124.27,-361.14C116.6,-351.74 107.37,-340.4 101.13,-332.75"/>
<polygon fill="midnightblue" stroke="midnightblue" points="121.7,-363.54 130.73,-369.08 127.13,-359.12 121.7,-363.54"/>
</g>
</g>
</svg>
