<?xml version="1.0" encoding="UTF-8" standalone="no"?>
<!DOCTYPE svg PUBLIC "-//W3C//DTD SVG 1.1//EN"
 "http://www.w3.org/Graphics/SVG/1.1/DTD/svg11.dtd">
<!-- Generated by graphviz version 2.43.0 (0)
 -->
<!-- Title: BlackGui::Components::CSettingsTextMessageStyle Pages: 1 -->
<svg width="172pt" height="207pt"
 viewBox="0.00 0.00 172.00 207.00" xmlns="http://www.w3.org/2000/svg" xmlns:xlink="http://www.w3.org/1999/xlink">
<g id="graph0" class="graph" transform="scale(1 1) rotate(0) translate(4 203)">
<title>BlackGui::Components::CSettingsTextMessageStyle</title>
<!-- Node1 -->
<g id="node1" class="node">
<title>Node1</title>
<g id="a_node1"><a xlink:title="Text message style.">
<polygon fill="#bfbfbf" stroke="black" points="0,-0.5 0,-30.5 158,-30.5 158,-0.5 0,-0.5"/>
<text text-anchor="start" x="8" y="-18.5" font-family="Helvetica,sans-Serif" font-size="10.00">BlackGui::Components</text>
<text text-anchor="middle" x="79" y="-7.5" font-family="Helvetica,sans-Serif" font-size="10.00">::CSettingsTextMessageStyle</text>
</a>
</g>
</g>
<!-- Node2 -->
<g id="node2" class="node">
<title>Node2</title>
<g id="a_node2"><a target="_parent" xlink:href="http://doc.qt.io/qt-5/qframe.html" xlink:title=" ">
<polygon fill="none" stroke="black" points="51.5,-67.5 51.5,-86.5 106.5,-86.5 106.5,-67.5 51.5,-67.5"/>
<text text-anchor="middle" x="79" y="-74.5" font-family="Helvetica,sans-Serif" font-size="10.00">QFrame</text>
</a>
</g>
</g>
<!-- Node2&#45;&gt;Node1 -->
<g id="edge1" class="edge">
<title>Node2&#45;&gt;Node1</title>
<path fill="none" stroke="midnightblue" d="M79,-57.23C79,-48.59 79,-38.5 79,-30.52"/>
<polygon fill="midnightblue" stroke="midnightblue" points="75.5,-57.48 79,-67.48 82.5,-57.48 75.5,-57.48"/>
</g>
<!-- Node3 -->
<g id="node3" class="node">
<title>Node3</title>
<g id="a_node3"><a target="_parent" xlink:href="http://doc.qt.io/qt-5/qwidget.html" xlink:title=" ">
<polygon fill="none" stroke="black" points="49.5,-123.5 49.5,-142.5 108.5,-142.5 108.5,-123.5 49.5,-123.5"/>
<text text-anchor="middle" x="79" y="-130.5" font-family="Helvetica,sans-Serif" font-size="10.00">QWidget</text>
</a>
</g>
</g>
<!-- Node3&#45;&gt;Node2 -->
<g id="edge2" class="edge">
<title>Node3&#45;&gt;Node2</title>
<path fill="none" stroke="midnightblue" d="M79,-112.8C79,-103.91 79,-93.78 79,-86.75"/>
<polygon fill="midnightblue" stroke="midnightblue" points="75.5,-113.08 79,-123.08 82.5,-113.08 75.5,-113.08"/>
</g>
<!-- Node4 -->
<g id="node4" class="node">
<title>Node4</title>
<g id="a_node4"><a target="_parent" xlink:href="http://doc.qt.io/qt-5/qobject.html" xlink:title=" ">
<polygon fill="none" stroke="black" points="8,-179.5 8,-198.5 64,-198.5 64,-179.5 8,-179.5"/>
<text text-anchor="middle" x="36" y="-186.5" font-family="Helvetica,sans-Serif" font-size="10.00">QObject</text>
</a>
</g>
</g>
<!-- Node4&#45;&gt;Node3 -->
<g id="edge3" class="edge">
<title>Node4&#45;&gt;Node3</title>
<path fill="none" stroke="midnightblue" d="M49.42,-171.14C56.91,-161.74 65.94,-150.4 72.03,-142.75"/>
<polygon fill="midnightblue" stroke="midnightblue" points="46.59,-169.08 43.1,-179.08 52.07,-173.44 46.59,-169.08"/>
</g>
<!-- Node5 -->
<g id="node5" class="node">
<title>Node5</title>
<g id="a_node5"><a target="_parent" xlink:href="http://doc.qt.io/qt-5/qpaintdevice.html" xlink:title=" ">
<polygon fill="none" stroke="black" points="82,-179.5 82,-198.5 164,-198.5 164,-179.5 82,-179.5"/>
<text text-anchor="middle" x="123" y="-186.5" font-family="Helvetica,sans-Serif" font-size="10.00">QPaintDevice</text>
</a>
</g>
</g>
<!-- Node5&#45;&gt;Node3 -->
<g id="edge4" class="edge">
<title>Node5&#45;&gt;Node3</title>
<path fill="none" stroke="midnightblue" d="M109.27,-171.14C101.6,-161.74 92.37,-150.4 86.13,-142.75"/>
<polygon fill="midnightblue" stroke="midnightblue" points="106.7,-173.54 115.73,-179.08 112.13,-169.12 106.7,-173.54"/>
</g>
</g>
</svg>
