<?xml version="1.0" encoding="UTF-8" standalone="no"?>
<!DOCTYPE svg PUBLIC "-//W3C//DTD SVG 1.1//EN"
 "http://www.w3.org/Graphics/SVG/1.1/DTD/svg11.dtd">
<!-- Generated by graphviz version 2.43.0 (0)
 -->
<!-- Title: BlackMisc::PhysicalQuantities::CAngle Pages: 1 -->
<svg width="985pt" height="333pt"
 viewBox="0.00 0.00 985.00 333.00" xmlns="http://www.w3.org/2000/svg" xmlns:xlink="http://www.w3.org/1999/xlink">
<g id="graph0" class="graph" transform="scale(1 1) rotate(0) translate(4 329)">
<title>BlackMisc::PhysicalQuantities::CAngle</title>
<!-- Node1 -->
<g id="node1" class="node">
<title>Node1</title>
<g id="a_node1"><a xlink:title="Physical unit angle (radians, degrees)">
<polygon fill="#bfbfbf" stroke="black" points="432,-147.5 432,-177.5 595,-177.5 595,-147.5 432,-147.5"/>
<text text-anchor="start" x="440" y="-165.5" font-family="Helvetica,sans-Serif" font-size="10.00">BlackMisc::PhysicalQuantities</text>
<text text-anchor="middle" x="513.5" y="-154.5" font-family="Helvetica,sans-Serif" font-size="10.00">::CAngle</text>
</a>
</g>
</g>
<!-- Node10 -->
<g id="node10" class="node">
<title>Node10</title>
<g id="a_node10"><a xlink:href="class_black_misc_1_1_geo_1_1_c_earth_angle.html" target="_top" xlink:title=" ">
<polygon fill="none" stroke="black" points="631,-245.5 631,-275.5 789,-275.5 789,-245.5 631,-245.5"/>
<text text-anchor="start" x="639" y="-263.5" font-family="Helvetica,sans-Serif" font-size="10.00">BlackMisc::Geo::CEarthAngle</text>
<text text-anchor="middle" x="710" y="-252.5" font-family="Helvetica,sans-Serif" font-size="10.00">&lt; CLongitude &gt;</text>
</a>
</g>
</g>
<!-- Node1&#45;&gt;Node10 -->
<g id="edge9" class="edge">
<title>Node1&#45;&gt;Node10</title>
<path fill="none" stroke="midnightblue" d="M542.8,-183.53C565.67,-199.75 599.17,-221.82 631,-236.5 638.08,-239.76 645.71,-242.73 653.34,-245.38"/>
<polygon fill="midnightblue" stroke="midnightblue" points="544.75,-180.62 534.59,-177.63 540.67,-186.3 544.75,-180.62"/>
</g>
<!-- Node12 -->
<g id="node12" class="node">
<title>Node12</title>
<g id="a_node12"><a xlink:href="class_black_misc_1_1_geo_1_1_c_earth_angle.html" target="_top" xlink:title=" ">
<polygon fill="none" stroke="black" points="631,-196.5 631,-226.5 789,-226.5 789,-196.5 631,-196.5"/>
<text text-anchor="start" x="639" y="-214.5" font-family="Helvetica,sans-Serif" font-size="10.00">BlackMisc::Geo::CEarthAngle</text>
<text text-anchor="middle" x="710" y="-203.5" font-family="Helvetica,sans-Serif" font-size="10.00">&lt; CLatitude &gt;</text>
</a>
</g>
</g>
<!-- Node1&#45;&gt;Node12 -->
<g id="edge11" class="edge">
<title>Node1&#45;&gt;Node12</title>
<path fill="none" stroke="midnightblue" d="M584.16,-180.05C605.52,-185.43 628.81,-191.3 649.43,-196.49"/>
<polygon fill="midnightblue" stroke="midnightblue" points="584.73,-176.58 574.18,-177.53 583.02,-183.37 584.73,-176.58"/>
</g>
<!-- Node14 -->
<g id="node14" class="node">
<title>Node14</title>
<g id="a_node14"><a xlink:href="class_black_misc_1_1_aviation_1_1_c_heading.html" target="_top" xlink:title="Heading as used in aviation, can be true or magnetic heading.">
<polygon fill="none" stroke="black" points="654,-147.5 654,-177.5 766,-177.5 766,-147.5 654,-147.5"/>
<text text-anchor="start" x="662" y="-165.5" font-family="Helvetica,sans-Serif" font-size="10.00">BlackMisc::Aviation</text>
<text text-anchor="middle" x="710" y="-154.5" font-family="Helvetica,sans-Serif" font-size="10.00">::CHeading</text>
</a>
</g>
</g>
<!-- Node1&#45;&gt;Node14 -->
<g id="edge13" class="edge">
<title>Node1&#45;&gt;Node14</title>
<path fill="none" stroke="midnightblue" d="M605.27,-162.5C621.81,-162.5 638.61,-162.5 653.73,-162.5"/>
<polygon fill="midnightblue" stroke="midnightblue" points="605.01,-159 595.01,-162.5 605.01,-166 605.01,-159"/>
</g>
<!-- Node15 -->
<g id="node15" class="node">
<title>Node15</title>
<g id="a_node15"><a xlink:href="class_black_misc_1_1_aviation_1_1_c_track.html" target="_top" xlink:title="Track as used in aviation, can be true or magnetic Track.">
<polygon fill="none" stroke="black" points="654,-98.5 654,-128.5 766,-128.5 766,-98.5 654,-98.5"/>
<text text-anchor="start" x="662" y="-116.5" font-family="Helvetica,sans-Serif" font-size="10.00">BlackMisc::Aviation</text>
<text text-anchor="middle" x="710" y="-105.5" font-family="Helvetica,sans-Serif" font-size="10.00">::CTrack</text>
</a>
</g>
</g>
<!-- Node1&#45;&gt;Node15 -->
<g id="edge14" class="edge">
<title>Node1&#45;&gt;Node15</title>
<path fill="none" stroke="midnightblue" d="M584.16,-144.95C607.02,-139.19 632.1,-132.87 653.75,-127.42"/>
<polygon fill="midnightblue" stroke="midnightblue" points="583.02,-141.63 574.18,-147.47 584.73,-148.42 583.02,-141.63"/>
</g>
<!-- Node16 -->
<g id="node16" class="node">
<title>Node16</title>
<g id="a_node16"><a xlink:href="class_black_misc_1_1_geo_1_1_c_earth_angle.html" target="_top" xlink:title="Base class for latitude / longitude.">
<polygon fill="none" stroke="black" points="631,-49.5 631,-79.5 789,-79.5 789,-49.5 631,-49.5"/>
<text text-anchor="start" x="639" y="-67.5" font-family="Helvetica,sans-Serif" font-size="10.00">BlackMisc::Geo::CEarthAngle</text>
<text text-anchor="middle" x="710" y="-56.5" font-family="Helvetica,sans-Serif" font-size="10.00">&lt; LATorLON &gt;</text>
</a>
</g>
</g>
<!-- Node1&#45;&gt;Node16 -->
<g id="edge15" class="edge">
<title>Node1&#45;&gt;Node16</title>
<path fill="none" stroke="midnightblue" d="M542.8,-141.47C565.67,-125.25 599.17,-103.18 631,-88.5 638.08,-85.24 645.71,-82.27 653.34,-79.62"/>
<polygon fill="midnightblue" stroke="midnightblue" points="540.67,-138.7 534.59,-147.37 544.75,-144.38 540.67,-138.7"/>
</g>
<!-- Node2 -->
<g id="node2" class="node">
<title>Node2</title>
<g id="a_node2"><a xlink:href="class_black_misc_1_1_physical_quantities_1_1_c_physical_quantity.html" target="_top" xlink:title=" ">
<polygon fill="none" stroke="black" points="215,-142 215,-183 396,-183 396,-142 215,-142"/>
<text text-anchor="start" x="223" y="-171" font-family="Helvetica,sans-Serif" font-size="10.00">BlackMisc::PhysicalQuantities</text>
<text text-anchor="start" x="223" y="-160" font-family="Helvetica,sans-Serif" font-size="10.00">::CPhysicalQuantity&lt; CAngleUnit,</text>
<text text-anchor="middle" x="305.5" y="-149" font-family="Helvetica,sans-Serif" font-size="10.00"> CAngle &gt;</text>
</a>
</g>
</g>
<!-- Node2&#45;&gt;Node1 -->
<g id="edge1" class="edge">
<title>Node2&#45;&gt;Node1</title>
<path fill="none" stroke="midnightblue" d="M406.27,-162.5C414.82,-162.5 423.41,-162.5 431.78,-162.5"/>
<polygon fill="midnightblue" stroke="midnightblue" points="406.26,-159 396.26,-162.5 406.26,-166 406.26,-159"/>
</g>
<!-- Node3 -->
<g id="node3" class="node">
<title>Node3</title>
<g id="a_node3"><a xlink:href="class_black_misc_1_1_mixin_1_1_d_bus_operators.html" target="_top" xlink:title="CRTP class template which will generate marshalling operators for a derived class with its own marsha...">
<polygon fill="none" stroke="black" points="0,-294.5 0,-324.5 179,-324.5 179,-294.5 0,-294.5"/>
<text text-anchor="start" x="8" y="-312.5" font-family="Helvetica,sans-Serif" font-size="10.00">BlackMisc::Mixin::DBusOperators</text>
<text text-anchor="middle" x="89.5" y="-301.5" font-family="Helvetica,sans-Serif" font-size="10.00">&lt; Derived,... &gt;</text>
</a>
</g>
</g>
<!-- Node3&#45;&gt;Node2 -->
<g id="edge2" class="edge">
<title>Node3&#45;&gt;Node2</title>
<path fill="none" stroke="midnightblue" d="M169.46,-290.4C172.74,-288.88 175.94,-287.25 179,-285.5 225.59,-258.82 267.44,-210.69 289.04,-183.21"/>
<polygon fill="midnightblue" stroke="midnightblue" points="167.87,-287.27 160.01,-294.37 170.59,-293.72 167.87,-287.27"/>
</g>
<!-- Node4 -->
<g id="node4" class="node">
<title>Node4</title>
<g id="a_node4"><a xlink:href="class_black_misc_1_1_mixin_1_1_data_stream_operators.html" target="_top" xlink:title="CRTP class template to generate non&#45;member QDataStream streaming operators.">
<polygon fill="none" stroke="black" points="7.5,-245.5 7.5,-275.5 171.5,-275.5 171.5,-245.5 7.5,-245.5"/>
<text text-anchor="start" x="15.5" y="-263.5" font-family="Helvetica,sans-Serif" font-size="10.00">BlackMisc::Mixin::DataStream</text>
<text text-anchor="middle" x="89.5" y="-252.5" font-family="Helvetica,sans-Serif" font-size="10.00">Operators&lt; Derived &gt;</text>
</a>
</g>
</g>
<!-- Node4&#45;&gt;Node2 -->
<g id="edge3" class="edge">
<title>Node4&#45;&gt;Node2</title>
<path fill="none" stroke="midnightblue" d="M163.6,-242.36C168.86,-240.54 174.05,-238.59 179,-236.5 213.5,-221.96 250.05,-199.5 274.76,-183.14"/>
<polygon fill="midnightblue" stroke="midnightblue" points="162.46,-239.05 154.05,-245.49 164.64,-245.7 162.46,-239.05"/>
</g>
<!-- Node5 -->
<g id="node5" class="node">
<title>Node5</title>
<g id="a_node5"><a xlink:href="class_black_misc_1_1_mixin_1_1_json_operators.html" target="_top" xlink:title="CRTP class template which will generate marshalling operators for a derived class with its own marsha...">
<polygon fill="none" stroke="black" points="3,-196.5 3,-226.5 176,-226.5 176,-196.5 3,-196.5"/>
<text text-anchor="start" x="11" y="-214.5" font-family="Helvetica,sans-Serif" font-size="10.00">BlackMisc::Mixin::JsonOperators</text>
<text text-anchor="middle" x="89.5" y="-203.5" font-family="Helvetica,sans-Serif" font-size="10.00">&lt; Derived &gt;</text>
</a>
</g>
</g>
<!-- Node5&#45;&gt;Node2 -->
<g id="edge4" class="edge">
<title>Node5&#45;&gt;Node2</title>
<path fill="none" stroke="midnightblue" d="M166.34,-194.14C182.06,-190.54 198.77,-186.71 214.93,-183.01"/>
<polygon fill="midnightblue" stroke="midnightblue" points="165.13,-190.82 156.16,-196.47 166.69,-197.65 165.13,-190.82"/>
</g>
<!-- Node6 -->
<g id="node6" class="node">
<title>Node6</title>
<g id="a_node6"><a xlink:href="class_black_misc_1_1_mixin_1_1_index.html" target="_top" xlink:title="CRTP class template from which a derived class can inherit property indexing functions.">
<polygon fill="none" stroke="black" points="23.5,-147.5 23.5,-177.5 155.5,-177.5 155.5,-147.5 23.5,-147.5"/>
<text text-anchor="start" x="31.5" y="-165.5" font-family="Helvetica,sans-Serif" font-size="10.00">BlackMisc::Mixin::Index</text>
<text text-anchor="middle" x="89.5" y="-154.5" font-family="Helvetica,sans-Serif" font-size="10.00">&lt; Derived &gt;</text>
</a>
</g>
</g>
<!-- Node6&#45;&gt;Node2 -->
<g id="edge5" class="edge">
<title>Node6&#45;&gt;Node2</title>
<path fill="none" stroke="midnightblue" d="M165.83,-162.5C181.69,-162.5 198.56,-162.5 214.88,-162.5"/>
<polygon fill="midnightblue" stroke="midnightblue" points="165.58,-159 155.58,-162.5 165.58,-166 165.58,-159"/>
</g>
<!-- Node7 -->
<g id="node7" class="node">
<title>Node7</title>
<g id="a_node7"><a xlink:href="class_black_misc_1_1_mixin_1_1_meta_type.html" target="_top" xlink:title="CRTP class template from which a derived class can inherit common methods dealing with the metatype o...">
<polygon fill="none" stroke="black" points="13.5,-98.5 13.5,-128.5 165.5,-128.5 165.5,-98.5 13.5,-98.5"/>
<text text-anchor="start" x="21.5" y="-116.5" font-family="Helvetica,sans-Serif" font-size="10.00">BlackMisc::Mixin::MetaType</text>
<text text-anchor="middle" x="89.5" y="-105.5" font-family="Helvetica,sans-Serif" font-size="10.00">&lt; Derived &gt;</text>
</a>
</g>
</g>
<!-- Node7&#45;&gt;Node2 -->
<g id="edge6" class="edge">
<title>Node7&#45;&gt;Node2</title>
<path fill="none" stroke="midnightblue" d="M166.34,-130.86C182.06,-134.46 198.77,-138.29 214.93,-141.99"/>
<polygon fill="midnightblue" stroke="midnightblue" points="166.69,-127.35 156.16,-128.53 165.13,-134.18 166.69,-127.35"/>
</g>
<!-- Node8 -->
<g id="node8" class="node">
<title>Node8</title>
<g id="a_node8"><a xlink:href="class_black_misc_1_1_mixin_1_1_string.html" target="_top" xlink:title="CRTP class template from which a derived class can inherit string streaming operations.">
<polygon fill="none" stroke="black" points="22.5,-49.5 22.5,-79.5 156.5,-79.5 156.5,-49.5 22.5,-49.5"/>
<text text-anchor="start" x="30.5" y="-67.5" font-family="Helvetica,sans-Serif" font-size="10.00">BlackMisc::Mixin::String</text>
<text text-anchor="middle" x="89.5" y="-56.5" font-family="Helvetica,sans-Serif" font-size="10.00">&lt; Derived &gt;</text>
</a>
</g>
</g>
<!-- Node8&#45;&gt;Node2 -->
<g id="edge7" class="edge">
<title>Node8&#45;&gt;Node2</title>
<path fill="none" stroke="midnightblue" d="M163.6,-82.64C168.86,-84.46 174.05,-86.41 179,-88.5 213.5,-103.04 250.05,-125.5 274.76,-141.86"/>
<polygon fill="midnightblue" stroke="midnightblue" points="164.64,-79.3 154.05,-79.51 162.46,-85.95 164.64,-79.3"/>
</g>
<!-- Node9 -->
<g id="node9" class="node">
<title>Node9</title>
<g id="a_node9"><a xlink:href="class_black_misc_1_1_mixin_1_1_icon.html" target="_top" xlink:title="CRTP class template from which a derived class can inherit icon&#45;related functions.">
<polygon fill="none" stroke="black" points="24,-0.5 24,-30.5 155,-30.5 155,-0.5 24,-0.5"/>
<text text-anchor="start" x="32" y="-18.5" font-family="Helvetica,sans-Serif" font-size="10.00">BlackMisc::Mixin::Icon</text>
<text text-anchor="middle" x="89.5" y="-7.5" font-family="Helvetica,sans-Serif" font-size="10.00">&lt; Derived, IconIndex &gt;</text>
</a>
</g>
</g>
<!-- Node9&#45;&gt;Node2 -->
<g id="edge8" class="edge">
<title>Node9&#45;&gt;Node2</title>
<path fill="none" stroke="midnightblue" d="M164.91,-32.6C169.79,-34.65 174.54,-36.94 179,-39.5 225.59,-66.18 267.44,-114.31 289.04,-141.79"/>
<polygon fill="midnightblue" stroke="midnightblue" points="165.97,-29.26 155.38,-28.93 163.46,-35.79 165.97,-29.26"/>
</g>
<!-- Node11 -->
<g id="node11" class="node">
<title>Node11</title>
<g id="a_node11"><a xlink:href="class_black_misc_1_1_geo_1_1_c_longitude.html" target="_top" xlink:title="Longitude.">
<polygon fill="none" stroke="black" points="825,-251 825,-270 977,-270 977,-251 825,-251"/>
<text text-anchor="middle" x="901" y="-258" font-family="Helvetica,sans-Serif" font-size="10.00">BlackMisc::Geo::CLongitude</text>
</a>
</g>
</g>
<!-- Node10&#45;&gt;Node11 -->
<g id="edge10" class="edge">
<title>Node10&#45;&gt;Node11</title>
<path fill="none" stroke="midnightblue" d="M799.24,-260.5C807.81,-260.5 816.44,-260.5 824.86,-260.5"/>
<polygon fill="midnightblue" stroke="midnightblue" points="799.24,-257 789.24,-260.5 799.24,-264 799.24,-257"/>
</g>
<!-- Node13 -->
<g id="node13" class="node">
<title>Node13</title>
<g id="a_node13"><a xlink:href="class_black_misc_1_1_geo_1_1_c_latitude.html" target="_top" xlink:title="Latitude.">
<polygon fill="none" stroke="black" points="829,-202 829,-221 973,-221 973,-202 829,-202"/>
<text text-anchor="middle" x="901" y="-209" font-family="Helvetica,sans-Serif" font-size="10.00">BlackMisc::Geo::CLatitude</text>
</a>
</g>
</g>
<!-- Node12&#45;&gt;Node13 -->
<g id="edge12" class="edge">
<title>Node12&#45;&gt;Node13</title>
<path fill="none" stroke="midnightblue" d="M799.44,-211.5C809.27,-211.5 819.2,-211.5 828.78,-211.5"/>
<polygon fill="midnightblue" stroke="midnightblue" points="799.24,-208 789.24,-211.5 799.24,-215 799.24,-208"/>
</g>
</g>
</svg>
