<?xml version="1.0" encoding="UTF-8" standalone="no"?>
<!DOCTYPE svg PUBLIC "-//W3C//DTD SVG 1.1//EN"
 "http://www.w3.org/Graphics/SVG/1.1/DTD/svg11.dtd">
<!-- Generated by graphviz version 2.43.0 (0)
 -->
<!-- Title: BlackMisc::PhysicalQuantities::CMass Pages: 1 -->
<svg width="601pt" height="333pt"
 viewBox="0.00 0.00 601.00 333.00" xmlns="http://www.w3.org/2000/svg" xmlns:xlink="http://www.w3.org/1999/xlink">
<g id="graph0" class="graph" transform="scale(1 1) rotate(0) translate(4 329)">
<title>BlackMisc::PhysicalQuantities::CMass</title>
<!-- Node1 -->
<g id="node1" class="node">
<title>Node1</title>
<g id="a_node1"><a xlink:title="Mass.">
<polygon fill="#bfbfbf" stroke="black" points="430,-147.5 430,-177.5 593,-177.5 593,-147.5 430,-147.5"/>
<text text-anchor="start" x="438" y="-165.5" font-family="Helvetica,sans-Serif" font-size="10.00">BlackMisc::PhysicalQuantities</text>
<text text-anchor="middle" x="511.5" y="-154.5" font-family="Helvetica,sans-Serif" font-size="10.00">::CMass</text>
</a>
</g>
</g>
<!-- Node2 -->
<g id="node2" class="node">
<title>Node2</title>
<g id="a_node2"><a xlink:href="class_black_misc_1_1_physical_quantities_1_1_c_physical_quantity.html" target="_top" xlink:title=" ">
<polygon fill="none" stroke="black" points="215,-142 215,-183 394,-183 394,-142 215,-142"/>
<text text-anchor="start" x="223" y="-171" font-family="Helvetica,sans-Serif" font-size="10.00">BlackMisc::PhysicalQuantities</text>
<text text-anchor="start" x="223" y="-160" font-family="Helvetica,sans-Serif" font-size="10.00">::CPhysicalQuantity&lt; CMassUnit,</text>
<text text-anchor="middle" x="304.5" y="-149" font-family="Helvetica,sans-Serif" font-size="10.00"> CMass &gt;</text>
</a>
</g>
</g>
<!-- Node2&#45;&gt;Node1 -->
<g id="edge1" class="edge">
<title>Node2&#45;&gt;Node1</title>
<path fill="none" stroke="midnightblue" d="M404.5,-162.5C412.95,-162.5 421.43,-162.5 429.71,-162.5"/>
<polygon fill="midnightblue" stroke="midnightblue" points="404.22,-159 394.22,-162.5 404.22,-166 404.22,-159"/>
</g>
<!-- Node3 -->
<g id="node3" class="node">
<title>Node3</title>
<g id="a_node3"><a xlink:href="class_black_misc_1_1_mixin_1_1_d_bus_operators.html" target="_top" xlink:title="CRTP class template which will generate marshalling operators for a derived class with its own marsha...">
<polygon fill="none" stroke="black" points="0,-294.5 0,-324.5 179,-324.5 179,-294.5 0,-294.5"/>
<text text-anchor="start" x="8" y="-312.5" font-family="Helvetica,sans-Serif" font-size="10.00">BlackMisc::Mixin::DBusOperators</text>
<text text-anchor="middle" x="89.5" y="-301.5" font-family="Helvetica,sans-Serif" font-size="10.00">&lt; Derived,... &gt;</text>
</a>
</g>
</g>
<!-- Node3&#45;&gt;Node2 -->
<g id="edge2" class="edge">
<title>Node3&#45;&gt;Node2</title>
<path fill="none" stroke="midnightblue" d="M169.47,-290.41C172.75,-288.9 175.94,-287.26 179,-285.5 225.35,-258.83 266.82,-210.7 288.2,-183.22"/>
<polygon fill="midnightblue" stroke="midnightblue" points="167.88,-287.28 160.03,-294.39 170.6,-293.73 167.88,-287.28"/>
</g>
<!-- Node4 -->
<g id="node4" class="node">
<title>Node4</title>
<g id="a_node4"><a xlink:href="class_black_misc_1_1_mixin_1_1_data_stream_operators.html" target="_top" xlink:title="CRTP class template to generate non&#45;member QDataStream streaming operators.">
<polygon fill="none" stroke="black" points="7.5,-245.5 7.5,-275.5 171.5,-275.5 171.5,-245.5 7.5,-245.5"/>
<text text-anchor="start" x="15.5" y="-263.5" font-family="Helvetica,sans-Serif" font-size="10.00">BlackMisc::Mixin::DataStream</text>
<text text-anchor="middle" x="89.5" y="-252.5" font-family="Helvetica,sans-Serif" font-size="10.00">Operators&lt; Derived &gt;</text>
</a>
</g>
</g>
<!-- Node4&#45;&gt;Node2 -->
<g id="edge3" class="edge">
<title>Node4&#45;&gt;Node2</title>
<path fill="none" stroke="midnightblue" d="M164.28,-242.14C169.32,-240.39 174.27,-238.5 179,-236.5 213.27,-221.99 249.53,-199.52 274.02,-183.15"/>
<polygon fill="midnightblue" stroke="midnightblue" points="162.93,-238.9 154.53,-245.37 165.13,-245.55 162.93,-238.9"/>
</g>
<!-- Node5 -->
<g id="node5" class="node">
<title>Node5</title>
<g id="a_node5"><a xlink:href="class_black_misc_1_1_mixin_1_1_json_operators.html" target="_top" xlink:title="CRTP class template which will generate marshalling operators for a derived class with its own marsha...">
<polygon fill="none" stroke="black" points="3,-196.5 3,-226.5 176,-226.5 176,-196.5 3,-196.5"/>
<text text-anchor="start" x="11" y="-214.5" font-family="Helvetica,sans-Serif" font-size="10.00">BlackMisc::Mixin::JsonOperators</text>
<text text-anchor="middle" x="89.5" y="-203.5" font-family="Helvetica,sans-Serif" font-size="10.00">&lt; Derived &gt;</text>
</a>
</g>
</g>
<!-- Node5&#45;&gt;Node2 -->
<g id="edge4" class="edge">
<title>Node5&#45;&gt;Node2</title>
<path fill="none" stroke="midnightblue" d="M166.05,-194.12C181.81,-190.5 198.55,-186.64 214.74,-182.92"/>
<polygon fill="midnightblue" stroke="midnightblue" points="164.82,-190.81 155.85,-196.47 166.38,-197.63 164.82,-190.81"/>
</g>
<!-- Node6 -->
<g id="node6" class="node">
<title>Node6</title>
<g id="a_node6"><a xlink:href="class_black_misc_1_1_mixin_1_1_index.html" target="_top" xlink:title="CRTP class template from which a derived class can inherit property indexing functions.">
<polygon fill="none" stroke="black" points="23.5,-147.5 23.5,-177.5 155.5,-177.5 155.5,-147.5 23.5,-147.5"/>
<text text-anchor="start" x="31.5" y="-165.5" font-family="Helvetica,sans-Serif" font-size="10.00">BlackMisc::Mixin::Index</text>
<text text-anchor="middle" x="89.5" y="-154.5" font-family="Helvetica,sans-Serif" font-size="10.00">&lt; Derived &gt;</text>
</a>
</g>
</g>
<!-- Node6&#45;&gt;Node2 -->
<g id="edge5" class="edge">
<title>Node6&#45;&gt;Node2</title>
<path fill="none" stroke="midnightblue" d="M165.83,-162.5C181.71,-162.5 198.6,-162.5 214.91,-162.5"/>
<polygon fill="midnightblue" stroke="midnightblue" points="165.56,-159 155.56,-162.5 165.56,-166 165.56,-159"/>
</g>
<!-- Node7 -->
<g id="node7" class="node">
<title>Node7</title>
<g id="a_node7"><a xlink:href="class_black_misc_1_1_mixin_1_1_meta_type.html" target="_top" xlink:title="CRTP class template from which a derived class can inherit common methods dealing with the metatype o...">
<polygon fill="none" stroke="black" points="13.5,-98.5 13.5,-128.5 165.5,-128.5 165.5,-98.5 13.5,-98.5"/>
<text text-anchor="start" x="21.5" y="-116.5" font-family="Helvetica,sans-Serif" font-size="10.00">BlackMisc::Mixin::MetaType</text>
<text text-anchor="middle" x="89.5" y="-105.5" font-family="Helvetica,sans-Serif" font-size="10.00">&lt; Derived &gt;</text>
</a>
</g>
</g>
<!-- Node7&#45;&gt;Node2 -->
<g id="edge6" class="edge">
<title>Node7&#45;&gt;Node2</title>
<path fill="none" stroke="midnightblue" d="M166.05,-130.88C181.81,-134.5 198.55,-138.36 214.74,-142.08"/>
<polygon fill="midnightblue" stroke="midnightblue" points="166.38,-127.37 155.85,-128.53 164.82,-134.19 166.38,-127.37"/>
</g>
<!-- Node8 -->
<g id="node8" class="node">
<title>Node8</title>
<g id="a_node8"><a xlink:href="class_black_misc_1_1_mixin_1_1_string.html" target="_top" xlink:title="CRTP class template from which a derived class can inherit string streaming operations.">
<polygon fill="none" stroke="black" points="22.5,-49.5 22.5,-79.5 156.5,-79.5 156.5,-49.5 22.5,-49.5"/>
<text text-anchor="start" x="30.5" y="-67.5" font-family="Helvetica,sans-Serif" font-size="10.00">BlackMisc::Mixin::String</text>
<text text-anchor="middle" x="89.5" y="-56.5" font-family="Helvetica,sans-Serif" font-size="10.00">&lt; Derived &gt;</text>
</a>
</g>
</g>
<!-- Node8&#45;&gt;Node2 -->
<g id="edge7" class="edge">
<title>Node8&#45;&gt;Node2</title>
<path fill="none" stroke="midnightblue" d="M161.25,-82.72C167.32,-84.81 173.31,-87.08 179,-89.5 212.88,-103.94 248.91,-125.87 273.44,-141.92"/>
<polygon fill="midnightblue" stroke="midnightblue" points="162.26,-79.37 151.67,-79.57 160.07,-86.02 162.26,-79.37"/>
</g>
<!-- Node9 -->
<g id="node9" class="node">
<title>Node9</title>
<g id="a_node9"><a xlink:href="class_black_misc_1_1_mixin_1_1_icon.html" target="_top" xlink:title="CRTP class template from which a derived class can inherit icon&#45;related functions.">
<polygon fill="none" stroke="black" points="24,-0.5 24,-30.5 155,-30.5 155,-0.5 24,-0.5"/>
<text text-anchor="start" x="32" y="-18.5" font-family="Helvetica,sans-Serif" font-size="10.00">BlackMisc::Mixin::Icon</text>
<text text-anchor="middle" x="89.5" y="-7.5" font-family="Helvetica,sans-Serif" font-size="10.00">&lt; Derived, IconIndex &gt;</text>
</a>
</g>
</g>
<!-- Node9&#45;&gt;Node2 -->
<g id="edge8" class="edge">
<title>Node9&#45;&gt;Node2</title>
<path fill="none" stroke="midnightblue" d="M164.91,-33.48C169.79,-35.58 174.54,-37.91 179,-40.5 224.82,-67.06 266.17,-114.32 287.76,-141.56"/>
<polygon fill="midnightblue" stroke="midnightblue" points="165.97,-30.14 155.38,-29.72 163.4,-36.65 165.97,-30.14"/>
</g>
</g>
</svg>
