<?xml version="1.0" encoding="UTF-8" standalone="no"?>
<!DOCTYPE svg PUBLIC "-//W3C//DTD SVG 1.1//EN"
 "http://www.w3.org/Graphics/SVG/1.1/DTD/svg11.dtd">
<!-- Generated by graphviz version 2.43.0 (0)
 -->
<!-- Title: BlackGui::Components::CDataMainInfoAreaComponent Pages: 1 -->
<svg width="312pt" height="274pt"
 viewBox="0.00 0.00 311.50 274.00" xmlns="http://www.w3.org/2000/svg" xmlns:xlink="http://www.w3.org/1999/xlink">
<g id="graph0" class="graph" transform="scale(1 1) rotate(0) translate(4 270)">
<title>BlackGui::Components::CDataMainInfoAreaComponent</title>
<!-- Node1 -->
<g id="node1" class="node">
<title>Node1</title>
<g id="a_node1"><a xlink:title="Main info area for data entry tool.">
<polygon fill="#bfbfbf" stroke="black" points="57,-0.5 57,-30.5 231,-30.5 231,-0.5 57,-0.5"/>
<text text-anchor="start" x="65" y="-18.5" font-family="Helvetica,sans-Serif" font-size="10.00">BlackGui::Components</text>
<text text-anchor="middle" x="144" y="-7.5" font-family="Helvetica,sans-Serif" font-size="10.00">::CDataMainInfoAreaComponent</text>
</a>
</g>
</g>
<!-- Node2 -->
<g id="node2" class="node">
<title>Node2</title>
<g id="a_node2"><a xlink:href="class_black_gui_1_1_c_info_area.html" target="_top" xlink:title="Info area, hosting dockable widgets.">
<polygon fill="none" stroke="black" points="87,-67.5 87,-86.5 201,-86.5 201,-67.5 87,-67.5"/>
<text text-anchor="middle" x="144" y="-74.5" font-family="Helvetica,sans-Serif" font-size="10.00">BlackGui::CInfoArea</text>
</a>
</g>
</g>
<!-- Node2&#45;&gt;Node1 -->
<g id="edge1" class="edge">
<title>Node2&#45;&gt;Node1</title>
<path fill="none" stroke="midnightblue" d="M144,-57.23C144,-48.59 144,-38.5 144,-30.52"/>
<polygon fill="midnightblue" stroke="midnightblue" points="140.5,-57.48 144,-67.48 147.5,-57.48 140.5,-57.48"/>
</g>
<!-- Node3 -->
<g id="node3" class="node">
<title>Node3</title>
<g id="a_node3"><a target="_parent" xlink:href="http://doc.qt.io/qt-5/qmainwindow.html" xlink:title=" ">
<polygon fill="none" stroke="black" points="27.5,-129 27.5,-148 114.5,-148 114.5,-129 27.5,-129"/>
<text text-anchor="middle" x="71" y="-136" font-family="Helvetica,sans-Serif" font-size="10.00">QMainWindow</text>
</a>
</g>
</g>
<!-- Node3&#45;&gt;Node2 -->
<g id="edge2" class="edge">
<title>Node3&#45;&gt;Node2</title>
<path fill="none" stroke="midnightblue" d="M89.44,-122.47C103.4,-111.09 122.08,-95.87 133.56,-86.51"/>
<polygon fill="midnightblue" stroke="midnightblue" points="87,-119.94 81.46,-128.98 91.42,-125.37 87,-119.94"/>
</g>
<!-- Node4 -->
<g id="node4" class="node">
<title>Node4</title>
<g id="a_node4"><a target="_parent" xlink:href="http://doc.qt.io/qt-5/qwidget.html" xlink:title=" ">
<polygon fill="none" stroke="black" points="41.5,-190.5 41.5,-209.5 100.5,-209.5 100.5,-190.5 41.5,-190.5"/>
<text text-anchor="middle" x="71" y="-197.5" font-family="Helvetica,sans-Serif" font-size="10.00">QWidget</text>
</a>
</g>
</g>
<!-- Node4&#45;&gt;Node3 -->
<g id="edge3" class="edge">
<title>Node4&#45;&gt;Node3</title>
<path fill="none" stroke="midnightblue" d="M71,-180.32C71,-169.5 71,-156.4 71,-148.01"/>
<polygon fill="midnightblue" stroke="midnightblue" points="67.5,-180.48 71,-190.48 74.5,-180.48 67.5,-180.48"/>
</g>
<!-- Node5 -->
<g id="node5" class="node">
<title>Node5</title>
<g id="a_node5"><a target="_parent" xlink:href="http://doc.qt.io/qt-5/qobject.html" xlink:title=" ">
<polygon fill="none" stroke="black" points="0,-246.5 0,-265.5 56,-265.5 56,-246.5 0,-246.5"/>
<text text-anchor="middle" x="28" y="-253.5" font-family="Helvetica,sans-Serif" font-size="10.00">QObject</text>
</a>
</g>
</g>
<!-- Node5&#45;&gt;Node4 -->
<g id="edge4" class="edge">
<title>Node5&#45;&gt;Node4</title>
<path fill="none" stroke="midnightblue" d="M41.42,-238.14C48.91,-228.74 57.94,-217.4 64.03,-209.75"/>
<polygon fill="midnightblue" stroke="midnightblue" points="38.59,-236.08 35.1,-246.08 44.07,-240.44 38.59,-236.08"/>
</g>
<!-- Node6 -->
<g id="node6" class="node">
<title>Node6</title>
<g id="a_node6"><a target="_parent" xlink:href="http://doc.qt.io/qt-5/qpaintdevice.html" xlink:title=" ">
<polygon fill="none" stroke="black" points="74,-246.5 74,-265.5 156,-265.5 156,-246.5 74,-246.5"/>
<text text-anchor="middle" x="115" y="-253.5" font-family="Helvetica,sans-Serif" font-size="10.00">QPaintDevice</text>
</a>
</g>
</g>
<!-- Node6&#45;&gt;Node4 -->
<g id="edge5" class="edge">
<title>Node6&#45;&gt;Node4</title>
<path fill="none" stroke="midnightblue" d="M101.27,-238.14C93.6,-228.74 84.37,-217.4 78.13,-209.75"/>
<polygon fill="midnightblue" stroke="midnightblue" points="98.7,-240.54 107.73,-246.08 104.13,-236.12 98.7,-240.54"/>
</g>
<!-- Node7 -->
<g id="node7" class="node">
<title>Node7</title>
<g id="a_node7"><a xlink:href="class_black_gui_1_1_c_enable_for_frameless_window.html" target="_top" xlink:title="Main window which can be frameless.">
<polygon fill="none" stroke="black" points="132.5,-123.5 132.5,-153.5 303.5,-153.5 303.5,-123.5 132.5,-123.5"/>
<text text-anchor="start" x="140.5" y="-141.5" font-family="Helvetica,sans-Serif" font-size="10.00">BlackGui::CEnableForFrameless</text>
<text text-anchor="middle" x="218" y="-130.5" font-family="Helvetica,sans-Serif" font-size="10.00">Window</text>
</a>
</g>
</g>
<!-- Node7&#45;&gt;Node2 -->
<g id="edge6" class="edge">
<title>Node7&#45;&gt;Node2</title>
<path fill="none" stroke="#8b1a1a" d="M192.37,-116.89C179.5,-106.54 164.59,-94.56 154.77,-86.66"/>
<polygon fill="#8b1a1a" stroke="#8b1a1a" points="190.48,-119.86 200.46,-123.4 194.86,-114.41 190.48,-119.86"/>
</g>
</g>
</svg>
