<?xml version="1.0" encoding="UTF-8" standalone="no"?>
<!DOCTYPE svg PUBLIC "-//W3C//DTD SVG 1.1//EN"
 "http://www.w3.org/Graphics/SVG/1.1/DTD/svg11.dtd">
<!-- Generated by graphviz version 2.43.0 (0)
 -->
<!-- Title: BlackInput::IJoystick Pages: 1 -->
<svg width="508pt" height="140pt"
 viewBox="0.00 0.00 508.00 140.00" xmlns="http://www.w3.org/2000/svg" xmlns:xlink="http://www.w3.org/1999/xlink">
<g id="graph0" class="graph" transform="scale(1 1) rotate(0) translate(4 136)">
<title>BlackInput::IJoystick</title>
<!-- Node1 -->
<g id="node1" class="node">
<title>Node1</title>
<g id="a_node1"><a xlink:title="Abstract interface for native joystick handling.">
<polygon fill="#bfbfbf" stroke="black" points="183,-56.5 183,-75.5 299,-75.5 299,-56.5 183,-56.5"/>
<text text-anchor="middle" x="241" y="-63.5" font-family="Helvetica,sans-Serif" font-size="10.00">BlackInput::IJoystick</text>
</a>
</g>
</g>
<!-- Node3 -->
<g id="node3" class="node">
<title>Node3</title>
<g id="a_node3"><a xlink:href="class_black_input_1_1_c_joystick_linux.html" target="_top" xlink:title="Linux implemenation of IJoystick.">
<polygon fill="none" stroke="black" points="0,-0.5 0,-19.5 146,-19.5 146,-0.5 0,-0.5"/>
<text text-anchor="middle" x="73" y="-7.5" font-family="Helvetica,sans-Serif" font-size="10.00">BlackInput::CJoystickLinux</text>
</a>
</g>
</g>
<!-- Node1&#45;&gt;Node3 -->
<g id="edge2" class="edge">
<title>Node1&#45;&gt;Node3</title>
<path fill="none" stroke="midnightblue" d="M204.61,-53.3C172.96,-43.13 127.83,-28.62 99.5,-19.52"/>
<polygon fill="midnightblue" stroke="midnightblue" points="203.79,-56.72 214.38,-56.44 205.93,-50.05 203.79,-56.72"/>
</g>
<!-- Node4 -->
<g id="node4" class="node">
<title>Node4</title>
<g id="a_node4"><a xlink:href="class_black_input_1_1_c_joystick_mac_o_s.html" target="_top" xlink:title="MacOS implemenation of IJoystick.">
<polygon fill="none" stroke="black" points="164.5,-0.5 164.5,-19.5 317.5,-19.5 317.5,-0.5 164.5,-0.5"/>
<text text-anchor="middle" x="241" y="-7.5" font-family="Helvetica,sans-Serif" font-size="10.00">BlackInput::CJoystickMacOS</text>
</a>
</g>
</g>
<!-- Node1&#45;&gt;Node4 -->
<g id="edge3" class="edge">
<title>Node1&#45;&gt;Node4</title>
<path fill="none" stroke="midnightblue" d="M241,-45.8C241,-36.91 241,-26.78 241,-19.75"/>
<polygon fill="midnightblue" stroke="midnightblue" points="237.5,-46.08 241,-56.08 244.5,-46.08 237.5,-46.08"/>
</g>
<!-- Node5 -->
<g id="node5" class="node">
<title>Node5</title>
<g id="a_node5"><a xlink:href="class_black_input_1_1_c_joystick_windows.html" target="_top" xlink:title="Windows implemenation of IJoystick with DirectInput.">
<polygon fill="none" stroke="black" points="336,-0.5 336,-19.5 500,-19.5 500,-0.5 336,-0.5"/>
<text text-anchor="middle" x="418" y="-7.5" font-family="Helvetica,sans-Serif" font-size="10.00">BlackInput::CJoystickWindows</text>
</a>
</g>
</g>
<!-- Node1&#45;&gt;Node5 -->
<g id="edge4" class="edge">
<title>Node1&#45;&gt;Node5</title>
<path fill="none" stroke="midnightblue" d="M278.9,-53.44C312.28,-43.26 360.1,-28.66 390.09,-19.52"/>
<polygon fill="midnightblue" stroke="midnightblue" points="277.59,-50.18 269.05,-56.44 279.63,-56.87 277.59,-50.18"/>
</g>
<!-- Node2 -->
<g id="node2" class="node">
<title>Node2</title>
<g id="a_node2"><a target="_parent" xlink:href="http://doc.qt.io/qt-5/qobject.html" xlink:title=" ">
<polygon fill="none" stroke="black" points="213,-112.5 213,-131.5 269,-131.5 269,-112.5 213,-112.5"/>
<text text-anchor="middle" x="241" y="-119.5" font-family="Helvetica,sans-Serif" font-size="10.00">QObject</text>
</a>
</g>
</g>
<!-- Node2&#45;&gt;Node1 -->
<g id="edge1" class="edge">
<title>Node2&#45;&gt;Node1</title>
<path fill="none" stroke="midnightblue" d="M241,-101.8C241,-92.91 241,-82.78 241,-75.75"/>
<polygon fill="midnightblue" stroke="midnightblue" points="237.5,-102.08 241,-112.08 244.5,-102.08 237.5,-102.08"/>
</g>
</g>
</svg>
