<?xml version="1.0" encoding="UTF-8" standalone="no"?>
<!DOCTYPE svg PUBLIC "-//W3C//DTD SVG 1.1//EN"
 "http://www.w3.org/Graphics/SVG/1.1/DTD/svg11.dtd">
<!-- Generated by graphviz version 2.43.0 (0)
 -->
<!-- Title: BlackMisc::Aviation::CAircraftSituationChangeList Pages: 1 -->
<svg width="831pt" height="328pt"
 viewBox="0.00 0.00 831.00 328.00" xmlns="http://www.w3.org/2000/svg" xmlns:xlink="http://www.w3.org/1999/xlink">
<g id="graph0" class="graph" transform="scale(1 1) rotate(0) translate(4 324)">
<title>BlackMisc::Aviation::CAircraftSituationChangeList</title>
<!-- Node1 -->
<g id="node1" class="node">
<title>Node1</title>
<g id="a_node1"><a xlink:title="Value object encapsulating a list of aircraft parts.">
<polygon fill="#bfbfbf" stroke="black" points="661,-55.5 661,-85.5 823,-85.5 823,-55.5 661,-55.5"/>
<text text-anchor="start" x="669" y="-73.5" font-family="Helvetica,sans-Serif" font-size="10.00">BlackMisc::Aviation</text>
<text text-anchor="middle" x="742" y="-62.5" font-family="Helvetica,sans-Serif" font-size="10.00">::CAircraftSituationChangeList</text>
</a>
</g>
</g>
<!-- Node2 -->
<g id="node2" class="node">
<title>Node2</title>
<g id="a_node2"><a xlink:href="class_black_misc_1_1_c_sequence.html" target="_top" xlink:title=" ">
<polygon fill="none" stroke="black" points="439.5,-131.5 439.5,-161.5 600.5,-161.5 600.5,-131.5 439.5,-131.5"/>
<text text-anchor="start" x="447.5" y="-149.5" font-family="Helvetica,sans-Serif" font-size="10.00">BlackMisc::CSequence</text>
<text text-anchor="middle" x="520" y="-138.5" font-family="Helvetica,sans-Serif" font-size="10.00">&lt; CAircraftSituationChange &gt;</text>
</a>
</g>
</g>
<!-- Node2&#45;&gt;Node1 -->
<g id="edge1" class="edge">
<title>Node2&#45;&gt;Node1</title>
<path fill="none" stroke="midnightblue" d="M574.26,-128.1C611.95,-115.08 661.88,-97.83 697.25,-85.61"/>
<polygon fill="midnightblue" stroke="midnightblue" points="572.77,-124.91 564.46,-131.48 575.06,-131.53 572.77,-124.91"/>
</g>
<!-- Node3 -->
<g id="node3" class="node">
<title>Node3</title>
<g id="a_node3"><a xlink:href="class_black_misc_1_1_c_container_base.html" target="_top" xlink:title="Base class for CCollection and CSequence adding mutating operations and CValueObject facility on top ...">
<polygon fill="none" stroke="black" points="222,-191.5 222,-221.5 372,-221.5 372,-191.5 222,-191.5"/>
<text text-anchor="start" x="230" y="-209.5" font-family="Helvetica,sans-Serif" font-size="10.00">BlackMisc::CContainerBase</text>
<text text-anchor="middle" x="297" y="-198.5" font-family="Helvetica,sans-Serif" font-size="10.00">&lt; Derived &gt;</text>
</a>
</g>
</g>
<!-- Node3&#45;&gt;Node2 -->
<g id="edge2" class="edge">
<title>Node3&#45;&gt;Node2</title>
<path fill="none" stroke="midnightblue" d="M363.17,-188.81C395.05,-180.15 433.02,-169.84 463.49,-161.57"/>
<polygon fill="midnightblue" stroke="midnightblue" points="362.22,-185.44 353.48,-191.44 364.05,-192.19 362.22,-185.44"/>
</g>
<!-- Node4 -->
<g id="node4" class="node">
<title>Node4</title>
<g id="a_node4"><a xlink:href="class_black_misc_1_1_c_range_base.html" target="_top" xlink:title="Any container class with begin and end iterators can inherit from this CRTP class to gain some useful...">
<polygon fill="none" stroke="black" points="22.5,-289.5 22.5,-319.5 156.5,-319.5 156.5,-289.5 22.5,-289.5"/>
<text text-anchor="start" x="30.5" y="-307.5" font-family="Helvetica,sans-Serif" font-size="10.00">BlackMisc::CRangeBase</text>
<text text-anchor="middle" x="89.5" y="-296.5" font-family="Helvetica,sans-Serif" font-size="10.00">&lt; Derived &gt;</text>
</a>
</g>
</g>
<!-- Node4&#45;&gt;Node3 -->
<g id="edge3" class="edge">
<title>Node4&#45;&gt;Node3</title>
<path fill="none" stroke="midnightblue" d="M164.63,-286.19C169.55,-284.43 174.38,-282.53 179,-280.5 215.52,-264.44 253.87,-238.09 276.33,-221.55"/>
<polygon fill="midnightblue" stroke="midnightblue" points="163.44,-282.9 155.09,-289.42 165.69,-289.53 163.44,-282.9"/>
</g>
<!-- Node5 -->
<g id="node5" class="node">
<title>Node5</title>
<g id="a_node5"><a xlink:href="class_black_misc_1_1_mixin_1_1_meta_type.html" target="_top" xlink:title="CRTP class template from which a derived class can inherit common methods dealing with the metatype o...">
<polygon fill="none" stroke="black" points="13.5,-240.5 13.5,-270.5 165.5,-270.5 165.5,-240.5 13.5,-240.5"/>
<text text-anchor="start" x="21.5" y="-258.5" font-family="Helvetica,sans-Serif" font-size="10.00">BlackMisc::Mixin::MetaType</text>
<text text-anchor="middle" x="89.5" y="-247.5" font-family="Helvetica,sans-Serif" font-size="10.00">&lt; Derived &gt;</text>
</a>
</g>
</g>
<!-- Node5&#45;&gt;Node3 -->
<g id="edge4" class="edge">
<title>Node5&#45;&gt;Node3</title>
<path fill="none" stroke="midnightblue" d="M163.49,-238.1C186.22,-232.68 211.08,-226.75 233.07,-221.51"/>
<polygon fill="midnightblue" stroke="midnightblue" points="162.47,-234.74 153.55,-240.47 164.09,-241.55 162.47,-234.74"/>
</g>
<!-- Node6 -->
<g id="node6" class="node">
<title>Node6</title>
<g id="a_node6"><a xlink:href="class_black_misc_1_1_mixin_1_1_d_bus_operators.html" target="_top" xlink:title=" ">
<polygon fill="none" stroke="black" points="0,-191.5 0,-221.5 179,-221.5 179,-191.5 0,-191.5"/>
<text text-anchor="start" x="8" y="-209.5" font-family="Helvetica,sans-Serif" font-size="10.00">BlackMisc::Mixin::DBusOperators</text>
<text text-anchor="middle" x="89.5" y="-198.5" font-family="Helvetica,sans-Serif" font-size="10.00">&lt; Derived &gt;</text>
</a>
</g>
</g>
<!-- Node6&#45;&gt;Node3 -->
<g id="edge5" class="edge">
<title>Node6&#45;&gt;Node3</title>
<path fill="none" stroke="midnightblue" d="M189.19,-206.5C200.17,-206.5 211.22,-206.5 221.82,-206.5"/>
<polygon fill="midnightblue" stroke="midnightblue" points="189.14,-203 179.14,-206.5 189.14,-210 189.14,-203"/>
</g>
<!-- Node7 -->
<g id="node7" class="node">
<title>Node7</title>
<g id="a_node7"><a xlink:href="class_black_misc_1_1_mixin_1_1_json_operators.html" target="_top" xlink:title="CRTP class template which will generate marshalling operators for a derived class with its own marsha...">
<polygon fill="none" stroke="black" points="3,-142.5 3,-172.5 176,-172.5 176,-142.5 3,-142.5"/>
<text text-anchor="start" x="11" y="-160.5" font-family="Helvetica,sans-Serif" font-size="10.00">BlackMisc::Mixin::JsonOperators</text>
<text text-anchor="middle" x="89.5" y="-149.5" font-family="Helvetica,sans-Serif" font-size="10.00">&lt; Derived &gt;</text>
</a>
</g>
</g>
<!-- Node7&#45;&gt;Node3 -->
<g id="edge6" class="edge">
<title>Node7&#45;&gt;Node3</title>
<path fill="none" stroke="midnightblue" d="M163.49,-174.9C186.22,-180.32 211.08,-186.25 233.07,-191.49"/>
<polygon fill="midnightblue" stroke="midnightblue" points="164.09,-171.45 153.55,-172.53 162.47,-178.26 164.09,-171.45"/>
</g>
<!-- Node8 -->
<g id="node8" class="node">
<title>Node8</title>
<g id="a_node8"><a xlink:href="class_black_misc_1_1_mixin_1_1_string.html" target="_top" xlink:title="CRTP class template from which a derived class can inherit string streaming operations.">
<polygon fill="none" stroke="black" points="22.5,-93.5 22.5,-123.5 156.5,-123.5 156.5,-93.5 22.5,-93.5"/>
<text text-anchor="start" x="30.5" y="-111.5" font-family="Helvetica,sans-Serif" font-size="10.00">BlackMisc::Mixin::String</text>
<text text-anchor="middle" x="89.5" y="-100.5" font-family="Helvetica,sans-Serif" font-size="10.00">&lt; Derived &gt;</text>
</a>
</g>
</g>
<!-- Node8&#45;&gt;Node3 -->
<g id="edge7" class="edge">
<title>Node8&#45;&gt;Node3</title>
<path fill="none" stroke="midnightblue" d="M166.05,-125.98C170.59,-128.2 174.95,-130.69 179,-133.5 201.21,-148.9 192.89,-166.96 215,-182.5 219.92,-185.96 225.34,-188.92 230.98,-191.47"/>
<polygon fill="midnightblue" stroke="midnightblue" points="167.1,-122.62 156.53,-121.81 164.29,-129.03 167.1,-122.62"/>
</g>
<!-- Node9 -->
<g id="node9" class="node">
<title>Node9</title>
<g id="a_node9"><a xlink:href="class_black_misc_1_1_mixin_1_1_data_stream_operators.html" target="_top" xlink:title="CRTP class template to generate non&#45;member QDataStream streaming operators.">
<polygon fill="none" stroke="black" points="215,-142.5 215,-172.5 379,-172.5 379,-142.5 215,-142.5"/>
<text text-anchor="start" x="223" y="-160.5" font-family="Helvetica,sans-Serif" font-size="10.00">BlackMisc::Mixin::DataStream</text>
<text text-anchor="middle" x="297" y="-149.5" font-family="Helvetica,sans-Serif" font-size="10.00">Operators&lt; Derived &gt;</text>
</a>
</g>
</g>
<!-- Node9&#45;&gt;Node2 -->
<g id="edge8" class="edge">
<title>Node9&#45;&gt;Node2</title>
<path fill="none" stroke="midnightblue" d="M389.31,-152.96C405.95,-152.13 423.18,-151.27 439.45,-150.46"/>
<polygon fill="midnightblue" stroke="midnightblue" points="388.85,-149.47 379.04,-153.47 389.2,-156.46 388.85,-149.47"/>
</g>
<!-- Node10 -->
<g id="node10" class="node">
<title>Node10</title>
<g id="a_node10"><a xlink:href="class_black_misc_1_1_mixin_1_1_icon.html" target="_top" xlink:title="CRTP class template from which a derived class can inherit icon&#45;related functions.">
<polygon fill="none" stroke="black" points="231.5,-93.5 231.5,-123.5 362.5,-123.5 362.5,-93.5 231.5,-93.5"/>
<text text-anchor="start" x="239.5" y="-111.5" font-family="Helvetica,sans-Serif" font-size="10.00">BlackMisc::Mixin::Icon</text>
<text text-anchor="middle" x="297" y="-100.5" font-family="Helvetica,sans-Serif" font-size="10.00">&lt; Derived, IconIndex &gt;</text>
</a>
</g>
</g>
<!-- Node10&#45;&gt;Node2 -->
<g id="edge9" class="edge">
<title>Node10&#45;&gt;Node2</title>
<path fill="none" stroke="midnightblue" d="M372.58,-121.32C394.11,-125.02 417.68,-129.08 439.49,-132.83"/>
<polygon fill="midnightblue" stroke="midnightblue" points="372.96,-117.84 362.52,-119.59 371.78,-124.74 372.96,-117.84"/>
</g>
<!-- Node11 -->
<g id="node11" class="node">
<title>Node11</title>
<g id="a_node11"><a xlink:href="class_black_misc_1_1_i_timestamp_with_offset_object_list.html" target="_top" xlink:title=" ">
<polygon fill="none" stroke="black" points="415,-50 415,-91 625,-91 625,-50 415,-50"/>
<text text-anchor="start" x="423" y="-79" font-family="Helvetica,sans-Serif" font-size="10.00">BlackMisc::ITimestampWith</text>
<text text-anchor="start" x="423" y="-68" font-family="Helvetica,sans-Serif" font-size="10.00">OffsetObjectList&lt; CAircraftSituation</text>
<text text-anchor="middle" x="520" y="-57" font-family="Helvetica,sans-Serif" font-size="10.00">Change, CAircraftSituationChangeList &gt;</text>
</a>
</g>
</g>
<!-- Node11&#45;&gt;Node1 -->
<g id="edge10" class="edge">
<title>Node11&#45;&gt;Node1</title>
<path fill="none" stroke="midnightblue" d="M635.33,-70.5C643.96,-70.5 652.55,-70.5 660.89,-70.5"/>
<polygon fill="midnightblue" stroke="midnightblue" points="635.2,-67 625.2,-70.5 635.2,-74 635.2,-67"/>
</g>
<!-- Node12 -->
<g id="node12" class="node">
<title>Node12</title>
<g id="a_node12"><a xlink:href="class_black_misc_1_1_i_timestamp_object_list.html" target="_top" xlink:title="List of objects with timestamp. Such objects should implement.">
<polygon fill="none" stroke="black" points="216,-44.5 216,-74.5 378,-74.5 378,-44.5 216,-44.5"/>
<text text-anchor="start" x="224" y="-62.5" font-family="Helvetica,sans-Serif" font-size="10.00">BlackMisc::ITimestampObject</text>
<text text-anchor="middle" x="297" y="-51.5" font-family="Helvetica,sans-Serif" font-size="10.00">List&lt; OBJ, CONTAINER &gt;</text>
</a>
</g>
</g>
<!-- Node12&#45;&gt;Node11 -->
<g id="edge11" class="edge">
<title>Node12&#45;&gt;Node11</title>
<path fill="none" stroke="midnightblue" d="M388.32,-64C397.1,-64.43 406.06,-64.88 414.97,-65.32"/>
<polygon fill="midnightblue" stroke="midnightblue" points="388.26,-60.49 378.1,-63.49 387.91,-67.48 388.26,-60.49"/>
</g>
<!-- Node13 -->
<g id="node13" class="node">
<title>Node13</title>
<g id="a_node13"><a xlink:href="class_black_misc_1_1_mixin_1_1_meta_type.html" target="_top" xlink:title=" ">
<polygon fill="none" stroke="black" points="430.5,-0.5 430.5,-30.5 609.5,-30.5 609.5,-0.5 430.5,-0.5"/>
<text text-anchor="start" x="438.5" y="-18.5" font-family="Helvetica,sans-Serif" font-size="10.00">BlackMisc::Mixin::MetaType</text>
<text text-anchor="middle" x="520" y="-7.5" font-family="Helvetica,sans-Serif" font-size="10.00">&lt; CAircraftSituationChangeList &gt;</text>
</a>
</g>
</g>
<!-- Node13&#45;&gt;Node1 -->
<g id="edge12" class="edge">
<title>Node13&#45;&gt;Node1</title>
<path fill="none" stroke="midnightblue" d="M594.15,-32.92C604.52,-35.43 615.03,-38.01 625,-40.5 644.07,-45.26 664.87,-50.59 683.52,-55.43"/>
<polygon fill="midnightblue" stroke="midnightblue" points="594.83,-29.48 584.29,-30.53 593.19,-36.28 594.83,-29.48"/>
</g>
</g>
</svg>
