<?xml version="1.0" encoding="UTF-8" standalone="no"?>
<!DOCTYPE svg PUBLIC "-//W3C//DTD SVG 1.1//EN"
 "http://www.w3.org/Graphics/SVG/1.1/DTD/svg11.dtd">
<!-- Generated by graphviz version 2.43.0 (0)
 -->
<!-- Title: BlackMisc::SharedState::CGenericListMutator Pages: 1 -->
<svg width="644pt" height="160pt"
 viewBox="0.00 0.00 644.00 159.50" xmlns="http://www.w3.org/2000/svg" xmlns:xlink="http://www.w3.org/1999/xlink">
<g id="graph0" class="graph" transform="scale(1 1) rotate(0) translate(4 155.5)">
<title>BlackMisc::SharedState::CGenericListMutator</title>
<!-- Node1 -->
<g id="node1" class="node">
<title>Node1</title>
<g id="a_node1"><a xlink:title="Non&#45;template base class for CListMutator.">
<polygon fill="#bfbfbf" stroke="black" points="92,-55.5 92,-85.5 223,-85.5 223,-55.5 92,-55.5"/>
<text text-anchor="start" x="100" y="-73.5" font-family="Helvetica,sans-Serif" font-size="10.00">BlackMisc::SharedState</text>
<text text-anchor="middle" x="157.5" y="-62.5" font-family="Helvetica,sans-Serif" font-size="10.00">::CGenericListMutator</text>
</a>
</g>
</g>
<!-- Node3 -->
<g id="node3" class="node">
<title>Node3</title>
<g id="a_node3"><a xlink:href="class_black_misc_1_1_shared_state_1_1_c_list_mutator.html" target="_top" xlink:title=" ">
<polygon fill="none" stroke="black" points="282,-110 282,-151 413,-151 413,-110 282,-110"/>
<text text-anchor="start" x="290" y="-139" font-family="Helvetica,sans-Serif" font-size="10.00">BlackMisc::SharedState</text>
<text text-anchor="start" x="290" y="-128" font-family="Helvetica,sans-Serif" font-size="10.00">::CListMutator&lt; QList</text>
<text text-anchor="middle" x="347.5" y="-117" font-family="Helvetica,sans-Serif" font-size="10.00">&lt; int &gt; &gt;</text>
</a>
</g>
</g>
<!-- Node1&#45;&gt;Node3 -->
<g id="edge2" class="edge">
<title>Node1&#45;&gt;Node3</title>
<path fill="none" stroke="midnightblue" d="M215.66,-88.74C236.62,-95.43 260.48,-103.05 282.03,-109.92"/>
<polygon fill="midnightblue" stroke="midnightblue" points="216.53,-85.35 205.94,-85.64 214.4,-92.02 216.53,-85.35"/>
</g>
<!-- Node5 -->
<g id="node5" class="node">
<title>Node5</title>
<g id="a_node5"><a xlink:href="class_black_misc_1_1_shared_state_1_1_c_list_mutator.html" target="_top" xlink:title=" ">
<polygon fill="none" stroke="black" points="259,-50 259,-91 436,-91 436,-50 259,-50"/>
<text text-anchor="start" x="267" y="-79" font-family="Helvetica,sans-Serif" font-size="10.00">BlackMisc::SharedState</text>
<text text-anchor="start" x="267" y="-68" font-family="Helvetica,sans-Serif" font-size="10.00">::CListMutator&lt; CStatusMessage</text>
<text text-anchor="middle" x="347.5" y="-57" font-family="Helvetica,sans-Serif" font-size="10.00">List &gt;</text>
</a>
</g>
</g>
<!-- Node1&#45;&gt;Node5 -->
<g id="edge4" class="edge">
<title>Node1&#45;&gt;Node5</title>
<path fill="none" stroke="midnightblue" d="M233.29,-70.5C241.66,-70.5 250.25,-70.5 258.77,-70.5"/>
<polygon fill="midnightblue" stroke="midnightblue" points="233.2,-67 223.2,-70.5 233.2,-74 233.2,-67"/>
</g>
<!-- Node7 -->
<g id="node7" class="node">
<title>Node7</title>
<g id="a_node7"><a xlink:href="class_black_misc_1_1_shared_state_1_1_c_list_mutator.html" target="_top" xlink:title="Base class for an object that shares state with a corresponding CListObserver subclass object.">
<polygon fill="none" stroke="black" points="282,-0.5 282,-30.5 413,-30.5 413,-0.5 282,-0.5"/>
<text text-anchor="start" x="290" y="-18.5" font-family="Helvetica,sans-Serif" font-size="10.00">BlackMisc::SharedState</text>
<text text-anchor="middle" x="347.5" y="-7.5" font-family="Helvetica,sans-Serif" font-size="10.00">::CListMutator&lt; T &gt;</text>
</a>
</g>
</g>
<!-- Node1&#45;&gt;Node7 -->
<g id="edge6" class="edge">
<title>Node1&#45;&gt;Node7</title>
<path fill="none" stroke="midnightblue" d="M218.18,-52.56C231.6,-48.56 245.78,-44.36 259,-40.5 270.07,-37.27 281.94,-33.84 293.26,-30.6"/>
<polygon fill="midnightblue" stroke="midnightblue" points="217.14,-49.22 208.56,-55.43 219.15,-55.92 217.14,-49.22"/>
</g>
<!-- Node2 -->
<g id="node2" class="node">
<title>Node2</title>
<g id="a_node2"><a target="_parent" xlink:href="http://doc.qt.io/qt-5/qobject.html" xlink:title=" ">
<polygon fill="none" stroke="black" points="0,-61 0,-80 56,-80 56,-61 0,-61"/>
<text text-anchor="middle" x="28" y="-68" font-family="Helvetica,sans-Serif" font-size="10.00">QObject</text>
</a>
</g>
</g>
<!-- Node2&#45;&gt;Node1 -->
<g id="edge1" class="edge">
<title>Node2&#45;&gt;Node1</title>
<path fill="none" stroke="midnightblue" d="M66.24,-70.5C74.35,-70.5 83.16,-70.5 91.99,-70.5"/>
<polygon fill="midnightblue" stroke="midnightblue" points="66.04,-67 56.04,-70.5 66.04,-74 66.04,-67"/>
</g>
<!-- Node4 -->
<g id="node4" class="node">
<title>Node4</title>
<g id="a_node4"><a xlink:href="class_black_misc_test_1_1_c_test_list_mutator.html" target="_top" xlink:title="List mutator subclass.">
<polygon fill="none" stroke="black" points="486.5,-115.5 486.5,-145.5 621.5,-145.5 621.5,-115.5 486.5,-115.5"/>
<text text-anchor="start" x="494.5" y="-133.5" font-family="Helvetica,sans-Serif" font-size="10.00">BlackMiscTest::CTestList</text>
<text text-anchor="middle" x="554" y="-122.5" font-family="Helvetica,sans-Serif" font-size="10.00">Mutator</text>
</a>
</g>
</g>
<!-- Node3&#45;&gt;Node4 -->
<g id="edge3" class="edge">
<title>Node3&#45;&gt;Node4</title>
<path fill="none" stroke="midnightblue" d="M423.47,-130.5C444.04,-130.5 466.18,-130.5 486.25,-130.5"/>
<polygon fill="midnightblue" stroke="midnightblue" points="423.21,-127 413.21,-130.5 423.21,-134 423.21,-127"/>
</g>
<!-- Node6 -->
<g id="node6" class="node">
<title>Node6</title>
<g id="a_node6"><a xlink:href="class_black_misc_1_1_c_log_history_source.html" target="_top" xlink:title="Allows distributed insertion of log messages into a central CLogHistory.">
<polygon fill="none" stroke="black" points="472,-61 472,-80 636,-80 636,-61 472,-61"/>
<text text-anchor="middle" x="554" y="-68" font-family="Helvetica,sans-Serif" font-size="10.00">BlackMisc::CLogHistorySource</text>
</a>
</g>
</g>
<!-- Node5&#45;&gt;Node6 -->
<g id="edge5" class="edge">
<title>Node5&#45;&gt;Node6</title>
<path fill="none" stroke="midnightblue" d="M446.14,-70.5C454.7,-70.5 463.31,-70.5 471.72,-70.5"/>
<polygon fill="midnightblue" stroke="midnightblue" points="446.12,-67 436.12,-70.5 446.12,-74 446.12,-67"/>
</g>
</g>
</svg>
