<?xml version="1.0" encoding="UTF-8" standalone="no"?>
<!DOCTYPE svg PUBLIC "-//W3C//DTD SVG 1.1//EN"
 "http://www.w3.org/Graphics/SVG/1.1/DTD/svg11.dtd">
<!-- Generated by graphviz version 2.43.0 (0)
 -->
<!-- Title: BlackCore::CThreadedReader Pages: 1 -->
<svg width="1007pt" height="357pt"
 viewBox="0.00 0.00 1007.00 357.00" xmlns="http://www.w3.org/2000/svg" xmlns:xlink="http://www.w3.org/1999/xlink">
<g id="graph0" class="graph" transform="scale(1 1) rotate(0) translate(4 353)">
<title>BlackCore::CThreadedReader</title>
<!-- Node1 -->
<g id="node1" class="node">
<title>Node1</title>
<g id="a_node1"><a xlink:title="Support for threaded based reading and parsing tasks such as data files via http, or file system and ...">
<polygon fill="#bfbfbf" stroke="black" points="468,-128 468,-147 627,-147 627,-128 468,-128"/>
<text text-anchor="middle" x="547.5" y="-135" font-family="Helvetica,sans-Serif" font-size="10.00">BlackCore::CThreadedReader</text>
</a>
</g>
</g>
<!-- Node5 -->
<g id="node5" class="node">
<title>Node5</title>
<g id="a_node5"><a xlink:href="class_black_core_1_1_db_1_1_c_database_reader.html" target="_top" xlink:title="Specialized version of threaded reader for DB data.">
<polygon fill="none" stroke="black" points="663,-245.5 663,-275.5 808,-275.5 808,-245.5 663,-245.5"/>
<text text-anchor="start" x="671" y="-263.5" font-family="Helvetica,sans-Serif" font-size="10.00">BlackCore::Db::CDatabase</text>
<text text-anchor="middle" x="735.5" y="-252.5" font-family="Helvetica,sans-Serif" font-size="10.00">Reader</text>
</a>
</g>
</g>
<!-- Node1&#45;&gt;Node5 -->
<g id="edge4" class="edge">
<title>Node1&#45;&gt;Node5</title>
<path fill="none" stroke="midnightblue" d="M564.46,-154.64C585.31,-176.14 623.79,-212.94 663,-235.5 669.5,-239.24 676.65,-242.55 683.83,-245.44"/>
<polygon fill="midnightblue" stroke="midnightblue" points="566.81,-152.03 557.37,-147.21 561.74,-156.86 566.81,-152.03"/>
</g>
<!-- Node10 -->
<g id="node10" class="node">
<title>Node10</title>
<g id="a_node10"><a xlink:href="class_black_core_1_1_vatsim_1_1_c_vatsim_booking_reader.html" target="_top" xlink:title="Read bookings from VATSIM.">
<polygon fill="none" stroke="black" points="670,-196.5 670,-226.5 801,-226.5 801,-196.5 670,-196.5"/>
<text text-anchor="start" x="678" y="-214.5" font-family="Helvetica,sans-Serif" font-size="10.00">BlackCore::Vatsim::</text>
<text text-anchor="middle" x="735.5" y="-203.5" font-family="Helvetica,sans-Serif" font-size="10.00">CVatsimBookingReader</text>
</a>
</g>
</g>
<!-- Node1&#45;&gt;Node10 -->
<g id="edge9" class="edge">
<title>Node1&#45;&gt;Node10</title>
<path fill="none" stroke="midnightblue" d="M579.07,-151.25C602,-161.4 634.25,-175.34 663,-186.5 671.7,-189.88 681.08,-193.31 690.08,-196.5"/>
<polygon fill="midnightblue" stroke="midnightblue" points="580.41,-148.02 569.85,-147.15 577.56,-154.41 580.41,-148.02"/>
</g>
<!-- Node11 -->
<g id="node11" class="node">
<title>Node11</title>
<g id="a_node11"><a xlink:href="class_black_core_1_1_vatsim_1_1_c_vatsim_data_file_reader.html" target="_top" xlink:title="Read vatsim data file.">
<polygon fill="none" stroke="black" points="669.5,-147.5 669.5,-177.5 801.5,-177.5 801.5,-147.5 669.5,-147.5"/>
<text text-anchor="start" x="677.5" y="-165.5" font-family="Helvetica,sans-Serif" font-size="10.00">BlackCore::Vatsim::</text>
<text text-anchor="middle" x="735.5" y="-154.5" font-family="Helvetica,sans-Serif" font-size="10.00">CVatsimDataFileReader</text>
</a>
</g>
</g>
<!-- Node1&#45;&gt;Node11 -->
<g id="edge10" class="edge">
<title>Node1&#45;&gt;Node11</title>
<path fill="none" stroke="midnightblue" d="M629.46,-148.38C642.8,-150.17 656.46,-152.01 669.35,-153.74"/>
<polygon fill="midnightblue" stroke="midnightblue" points="629.73,-144.89 619.35,-147.02 628.79,-151.82 629.73,-144.89"/>
</g>
<!-- Node12 -->
<g id="node12" class="node">
<title>Node12</title>
<g id="a_node12"><a xlink:href="class_black_core_1_1_vatsim_1_1_c_vatsim_metar_reader.html" target="_top" xlink:title="Read METARs from VATSIM.">
<polygon fill="none" stroke="black" points="675.5,-98.5 675.5,-128.5 795.5,-128.5 795.5,-98.5 675.5,-98.5"/>
<text text-anchor="start" x="683.5" y="-116.5" font-family="Helvetica,sans-Serif" font-size="10.00">BlackCore::Vatsim::</text>
<text text-anchor="middle" x="735.5" y="-105.5" font-family="Helvetica,sans-Serif" font-size="10.00">CVatsimMetarReader</text>
</a>
</g>
</g>
<!-- Node1&#45;&gt;Node12 -->
<g id="edge11" class="edge">
<title>Node1&#45;&gt;Node12</title>
<path fill="none" stroke="midnightblue" d="M632.29,-126.69C646.85,-124.81 661.71,-122.89 675.43,-121.12"/>
<polygon fill="midnightblue" stroke="midnightblue" points="631.75,-123.23 622.28,-127.98 632.64,-130.17 631.75,-123.23"/>
</g>
<!-- Node13 -->
<g id="node13" class="node">
<title>Node13</title>
<g id="a_node13"><a xlink:href="class_black_core_1_1_vatsim_1_1_c_vatsim_server_file_reader.html" target="_top" xlink:title="Read VATSIM server file.">
<polygon fill="none" stroke="black" points="665.5,-49.5 665.5,-79.5 805.5,-79.5 805.5,-49.5 665.5,-49.5"/>
<text text-anchor="start" x="673.5" y="-67.5" font-family="Helvetica,sans-Serif" font-size="10.00">BlackCore::Vatsim::</text>
<text text-anchor="middle" x="735.5" y="-56.5" font-family="Helvetica,sans-Serif" font-size="10.00">CVatsimServerFileReader</text>
</a>
</g>
</g>
<!-- Node1&#45;&gt;Node13 -->
<g id="edge12" class="edge">
<title>Node1&#45;&gt;Node13</title>
<path fill="none" stroke="midnightblue" d="M578.6,-123.83C601.54,-113.61 634.01,-99.55 663,-88.5 670.95,-85.47 679.48,-82.43 687.77,-79.58"/>
<polygon fill="midnightblue" stroke="midnightblue" points="577.09,-120.67 569.4,-127.96 579.95,-127.06 577.09,-120.67"/>
</g>
<!-- Node14 -->
<g id="node14" class="node">
<title>Node14</title>
<g id="a_node14"><a xlink:href="class_black_core_1_1_vatsim_1_1_c_vatsim_status_file_reader.html" target="_top" xlink:title="Sole purpose is to read the URLs where VATSIM data can be downloaded.">
<polygon fill="none" stroke="black" points="665.5,-0.5 665.5,-30.5 805.5,-30.5 805.5,-0.5 665.5,-0.5"/>
<text text-anchor="start" x="673.5" y="-18.5" font-family="Helvetica,sans-Serif" font-size="10.00">BlackCore::Vatsim::</text>
<text text-anchor="middle" x="735.5" y="-7.5" font-family="Helvetica,sans-Serif" font-size="10.00">CVatsimStatusFileReader</text>
</a>
</g>
</g>
<!-- Node1&#45;&gt;Node14 -->
<g id="edge13" class="edge">
<title>Node1&#45;&gt;Node14</title>
<path fill="none" stroke="midnightblue" d="M564.42,-120.28C585.22,-98.7 623.65,-61.82 663,-39.5 668.92,-36.14 675.39,-33.16 681.93,-30.53"/>
<polygon fill="midnightblue" stroke="midnightblue" points="561.68,-118.08 557.35,-127.75 566.76,-122.9 561.68,-118.08"/>
</g>
<!-- Node2 -->
<g id="node2" class="node">
<title>Node2</title>
<g id="a_node2"><a xlink:href="class_black_misc_1_1_c_continuous_worker.html" target="_top" xlink:title="Base class for a long&#45;lived worker object which lives in its own thread.">
<polygon fill="none" stroke="black" points="265,-128 265,-147 432,-147 432,-128 265,-128"/>
<text text-anchor="middle" x="348.5" y="-135" font-family="Helvetica,sans-Serif" font-size="10.00">BlackMisc::CContinuousWorker</text>
</a>
</g>
</g>
<!-- Node2&#45;&gt;Node1 -->
<g id="edge1" class="edge">
<title>Node2&#45;&gt;Node1</title>
<path fill="none" stroke="midnightblue" d="M442.2,-137.5C450.76,-137.5 459.38,-137.5 467.8,-137.5"/>
<polygon fill="midnightblue" stroke="midnightblue" points="442.19,-134 432.19,-137.5 442.19,-141 442.19,-134"/>
</g>
<!-- Node3 -->
<g id="node3" class="node">
<title>Node3</title>
<g id="a_node3"><a xlink:href="class_black_misc_1_1_c_worker_base.html" target="_top" xlink:title="Base class for CWorker and CContinuousWorker.">
<polygon fill="none" stroke="black" points="92,-128 92,-147 229,-147 229,-128 92,-128"/>
<text text-anchor="middle" x="160.5" y="-135" font-family="Helvetica,sans-Serif" font-size="10.00">BlackMisc::CWorkerBase</text>
</a>
</g>
</g>
<!-- Node3&#45;&gt;Node2 -->
<g id="edge2" class="edge">
<title>Node3&#45;&gt;Node2</title>
<path fill="none" stroke="midnightblue" d="M239.39,-137.5C247.85,-137.5 256.48,-137.5 264.99,-137.5"/>
<polygon fill="midnightblue" stroke="midnightblue" points="239.18,-134 229.18,-137.5 239.18,-141 239.18,-134"/>
</g>
<!-- Node4 -->
<g id="node4" class="node">
<title>Node4</title>
<g id="a_node4"><a target="_parent" xlink:href="http://doc.qt.io/qt-5/qobject.html" xlink:title=" ">
<polygon fill="none" stroke="black" points="0,-128 0,-147 56,-147 56,-128 0,-128"/>
<text text-anchor="middle" x="28" y="-135" font-family="Helvetica,sans-Serif" font-size="10.00">QObject</text>
</a>
</g>
</g>
<!-- Node4&#45;&gt;Node3 -->
<g id="edge3" class="edge">
<title>Node4&#45;&gt;Node3</title>
<path fill="none" stroke="midnightblue" d="M66.18,-137.5C74.24,-137.5 83.01,-137.5 91.84,-137.5"/>
<polygon fill="midnightblue" stroke="midnightblue" points="66.04,-134 56.04,-137.5 66.04,-141 66.04,-134"/>
</g>
<!-- Node6 -->
<g id="node6" class="node">
<title>Node6</title>
<g id="a_node6"><a xlink:href="class_black_core_1_1_db_1_1_c_airport_data_reader.html" target="_top" xlink:title="Reader for airport database data.">
<polygon fill="none" stroke="black" points="844,-318.5 844,-348.5 999,-348.5 999,-318.5 844,-318.5"/>
<text text-anchor="start" x="852" y="-336.5" font-family="Helvetica,sans-Serif" font-size="10.00">BlackCore::Db::CAirportData</text>
<text text-anchor="middle" x="921.5" y="-325.5" font-family="Helvetica,sans-Serif" font-size="10.00">Reader</text>
</a>
</g>
</g>
<!-- Node5&#45;&gt;Node6 -->
<g id="edge5" class="edge">
<title>Node5&#45;&gt;Node6</title>
<path fill="none" stroke="midnightblue" d="M776.26,-280.05C796.32,-289.54 821.18,-300.76 844,-309.5 852.19,-312.64 860.98,-315.68 869.58,-318.49"/>
<polygon fill="midnightblue" stroke="midnightblue" points="777.65,-276.83 767.12,-275.68 774.63,-283.15 777.65,-276.83"/>
</g>
<!-- Node7 -->
<g id="node7" class="node">
<title>Node7</title>
<g id="a_node7"><a xlink:href="class_black_core_1_1_db_1_1_c_icao_data_reader.html" target="_top" xlink:title="Read ICAO data from Database.">
<polygon fill="none" stroke="black" points="850.5,-269.5 850.5,-299.5 992.5,-299.5 992.5,-269.5 850.5,-269.5"/>
<text text-anchor="start" x="858.5" y="-287.5" font-family="Helvetica,sans-Serif" font-size="10.00">BlackCore::Db::CIcaoData</text>
<text text-anchor="middle" x="921.5" y="-276.5" font-family="Helvetica,sans-Serif" font-size="10.00">Reader</text>
</a>
</g>
</g>
<!-- Node5&#45;&gt;Node7 -->
<g id="edge6" class="edge">
<title>Node5&#45;&gt;Node7</title>
<path fill="none" stroke="midnightblue" d="M818.3,-271.17C828.96,-272.56 839.8,-273.97 850.24,-275.34"/>
<polygon fill="midnightblue" stroke="midnightblue" points="818.53,-267.67 808.17,-269.85 817.63,-274.61 818.53,-267.67"/>
</g>
<!-- Node8 -->
<g id="node8" class="node">
<title>Node8</title>
<g id="a_node8"><a xlink:href="class_black_core_1_1_db_1_1_c_info_data_reader.html" target="_top" xlink:title="Read information about data from Database or shared files such as when updated and number of entries.">
<polygon fill="none" stroke="black" points="851.5,-220.5 851.5,-250.5 991.5,-250.5 991.5,-220.5 851.5,-220.5"/>
<text text-anchor="start" x="859.5" y="-238.5" font-family="Helvetica,sans-Serif" font-size="10.00">BlackCore::Db::CInfoData</text>
<text text-anchor="middle" x="921.5" y="-227.5" font-family="Helvetica,sans-Serif" font-size="10.00">Reader</text>
</a>
</g>
</g>
<!-- Node5&#45;&gt;Node8 -->
<g id="edge7" class="edge">
<title>Node5&#45;&gt;Node8</title>
<path fill="none" stroke="midnightblue" d="M818.26,-249.39C829.34,-247.89 840.62,-246.35 851.44,-244.88"/>
<polygon fill="midnightblue" stroke="midnightblue" points="817.6,-245.95 808.17,-250.76 818.55,-252.88 817.6,-245.95"/>
</g>
<!-- Node9 -->
<g id="node9" class="node">
<title>Node9</title>
<g id="a_node9"><a xlink:href="class_black_core_1_1_db_1_1_c_model_data_reader.html" target="_top" xlink:title="Read model related data from Database.">
<polygon fill="none" stroke="black" points="845.5,-171.5 845.5,-201.5 997.5,-201.5 997.5,-171.5 845.5,-171.5"/>
<text text-anchor="start" x="853.5" y="-189.5" font-family="Helvetica,sans-Serif" font-size="10.00">BlackCore::Db::CModelData</text>
<text text-anchor="middle" x="921.5" y="-178.5" font-family="Helvetica,sans-Serif" font-size="10.00">Reader</text>
</a>
</g>
</g>
<!-- Node5&#45;&gt;Node9 -->
<g id="edge8" class="edge">
<title>Node5&#45;&gt;Node9</title>
<path fill="none" stroke="midnightblue" d="M794.73,-241.64C799.28,-239.72 803.76,-237.66 808,-235.5 825.35,-226.65 826.51,-219.07 844,-210.5 850.75,-207.19 858.06,-204.21 865.38,-201.57"/>
<polygon fill="midnightblue" stroke="midnightblue" points="793.29,-238.45 785.32,-245.43 795.9,-244.95 793.29,-238.45"/>
</g>
</g>
</svg>
