<?xml version="1.0" encoding="UTF-8" standalone="no"?>
<!DOCTYPE svg PUBLIC "-//W3C//DTD SVG 1.1//EN"
 "http://www.w3.org/Graphics/SVG/1.1/DTD/svg11.dtd">
<!-- Generated by graphviz version 2.43.0 (0)
 -->
<!-- Title: BlackGui::Views::CAtcStationTreeView Pages: 1 -->
<svg width="173pt" height="509pt"
 viewBox="0.00 0.00 173.00 509.00" xmlns="http://www.w3.org/2000/svg" xmlns:xlink="http://www.w3.org/1999/xlink">
<g id="graph0" class="graph" transform="scale(1 1) rotate(0) translate(4 505)">
<title>BlackGui::Views::CAtcStationTreeView</title>
<!-- Node1 -->
<g id="node1" class="node">
<title>Node1</title>
<g id="a_node1"><a xlink:title="ATC stations view.">
<polygon fill="#bfbfbf" stroke="black" points="1,-0.5 1,-30.5 159,-30.5 159,-0.5 1,-0.5"/>
<text text-anchor="start" x="9" y="-18.5" font-family="Helvetica,sans-Serif" font-size="10.00">BlackGui::Views::CAtcStation</text>
<text text-anchor="middle" x="80" y="-7.5" font-family="Helvetica,sans-Serif" font-size="10.00">TreeView</text>
</a>
</g>
</g>
<!-- Node2 -->
<g id="node2" class="node">
<title>Node2</title>
<g id="a_node2"><a xlink:href="class_black_gui_1_1_c_overlay_messages_tree_view.html" target="_top" xlink:title="Using this class provides a QTableView with the overlay functionality already integrated.">
<polygon fill="none" stroke="black" points="0,-67.5 0,-97.5 160,-97.5 160,-67.5 0,-67.5"/>
<text text-anchor="start" x="8" y="-85.5" font-family="Helvetica,sans-Serif" font-size="10.00">BlackGui::COverlayMessages</text>
<text text-anchor="middle" x="80" y="-74.5" font-family="Helvetica,sans-Serif" font-size="10.00">TreeView</text>
</a>
</g>
</g>
<!-- Node2&#45;&gt;Node1 -->
<g id="edge1" class="edge">
<title>Node2&#45;&gt;Node1</title>
<path fill="none" stroke="midnightblue" d="M80,-57.11C80,-48.15 80,-38.32 80,-30.58"/>
<polygon fill="midnightblue" stroke="midnightblue" points="76.5,-57.4 80,-67.4 83.5,-57.4 76.5,-57.4"/>
</g>
<!-- Node3 -->
<g id="node3" class="node">
<title>Node3</title>
<g id="a_node3"><a xlink:href="class_black_gui_1_1_c_overlay_messages_base.html" target="_top" xlink:title=" ">
<polygon fill="none" stroke="black" points="0,-134.5 0,-164.5 160,-164.5 160,-134.5 0,-134.5"/>
<text text-anchor="start" x="8" y="-152.5" font-family="Helvetica,sans-Serif" font-size="10.00">BlackGui::COverlayMessages</text>
<text text-anchor="middle" x="80" y="-141.5" font-family="Helvetica,sans-Serif" font-size="10.00">Base&lt; QTreeView &gt;</text>
</a>
</g>
</g>
<!-- Node3&#45;&gt;Node2 -->
<g id="edge2" class="edge">
<title>Node3&#45;&gt;Node2</title>
<path fill="none" stroke="midnightblue" d="M80,-124.11C80,-115.15 80,-105.32 80,-97.58"/>
<polygon fill="midnightblue" stroke="midnightblue" points="76.5,-124.4 80,-134.4 83.5,-124.4 76.5,-124.4"/>
</g>
<!-- Node4 -->
<g id="node4" class="node">
<title>Node4</title>
<g id="a_node4"><a target="_parent" xlink:href="http://doc.qt.io/qt-5/qtreeview.html" xlink:title=" ">
<polygon fill="none" stroke="black" points="46,-201.5 46,-220.5 114,-220.5 114,-201.5 46,-201.5"/>
<text text-anchor="middle" x="80" y="-208.5" font-family="Helvetica,sans-Serif" font-size="10.00">QTreeView</text>
</a>
</g>
</g>
<!-- Node4&#45;&gt;Node3 -->
<g id="edge3" class="edge">
<title>Node4&#45;&gt;Node3</title>
<path fill="none" stroke="midnightblue" d="M80,-191.23C80,-182.59 80,-172.5 80,-164.52"/>
<polygon fill="midnightblue" stroke="midnightblue" points="76.5,-191.48 80,-201.48 83.5,-191.48 76.5,-191.48"/>
</g>
<!-- Node5 -->
<g id="node5" class="node">
<title>Node5</title>
<g id="a_node5"><a target="_parent" xlink:href="http://doc.qt.io/qt-5/qabstractitemview.html" xlink:title=" ">
<polygon fill="none" stroke="black" points="24.5,-257.5 24.5,-276.5 135.5,-276.5 135.5,-257.5 24.5,-257.5"/>
<text text-anchor="middle" x="80" y="-264.5" font-family="Helvetica,sans-Serif" font-size="10.00">QAbstractItemView</text>
</a>
</g>
</g>
<!-- Node5&#45;&gt;Node4 -->
<g id="edge4" class="edge">
<title>Node5&#45;&gt;Node4</title>
<path fill="none" stroke="midnightblue" d="M80,-246.8C80,-237.91 80,-227.78 80,-220.75"/>
<polygon fill="midnightblue" stroke="midnightblue" points="76.5,-247.08 80,-257.08 83.5,-247.08 76.5,-247.08"/>
</g>
<!-- Node6 -->
<g id="node6" class="node">
<title>Node6</title>
<g id="a_node6"><a target="_parent" xlink:href="http://doc.qt.io/qt-5/qabstractscrollarea.html" xlink:title=" ">
<polygon fill="none" stroke="black" points="23,-313.5 23,-332.5 137,-332.5 137,-313.5 23,-313.5"/>
<text text-anchor="middle" x="80" y="-320.5" font-family="Helvetica,sans-Serif" font-size="10.00">QAbstractScrollArea</text>
</a>
</g>
</g>
<!-- Node6&#45;&gt;Node5 -->
<g id="edge5" class="edge">
<title>Node6&#45;&gt;Node5</title>
<path fill="none" stroke="midnightblue" d="M80,-302.8C80,-293.91 80,-283.78 80,-276.75"/>
<polygon fill="midnightblue" stroke="midnightblue" points="76.5,-303.08 80,-313.08 83.5,-303.08 76.5,-303.08"/>
</g>
<!-- Node7 -->
<g id="node7" class="node">
<title>Node7</title>
<g id="a_node7"><a target="_parent" xlink:href="http://doc.qt.io/qt-5/qframe.html" xlink:title=" ">
<polygon fill="none" stroke="black" points="52.5,-369.5 52.5,-388.5 107.5,-388.5 107.5,-369.5 52.5,-369.5"/>
<text text-anchor="middle" x="80" y="-376.5" font-family="Helvetica,sans-Serif" font-size="10.00">QFrame</text>
</a>
</g>
</g>
<!-- Node7&#45;&gt;Node6 -->
<g id="edge6" class="edge">
<title>Node7&#45;&gt;Node6</title>
<path fill="none" stroke="midnightblue" d="M80,-358.8C80,-349.91 80,-339.78 80,-332.75"/>
<polygon fill="midnightblue" stroke="midnightblue" points="76.5,-359.08 80,-369.08 83.5,-359.08 76.5,-359.08"/>
</g>
<!-- Node8 -->
<g id="node8" class="node">
<title>Node8</title>
<g id="a_node8"><a target="_parent" xlink:href="http://doc.qt.io/qt-5/qwidget.html" xlink:title=" ">
<polygon fill="none" stroke="black" points="50.5,-425.5 50.5,-444.5 109.5,-444.5 109.5,-425.5 50.5,-425.5"/>
<text text-anchor="middle" x="80" y="-432.5" font-family="Helvetica,sans-Serif" font-size="10.00">QWidget</text>
</a>
</g>
</g>
<!-- Node8&#45;&gt;Node7 -->
<g id="edge7" class="edge">
<title>Node8&#45;&gt;Node7</title>
<path fill="none" stroke="midnightblue" d="M80,-414.8C80,-405.91 80,-395.78 80,-388.75"/>
<polygon fill="midnightblue" stroke="midnightblue" points="76.5,-415.08 80,-425.08 83.5,-415.08 76.5,-415.08"/>
</g>
<!-- Node9 -->
<g id="node9" class="node">
<title>Node9</title>
<g id="a_node9"><a target="_parent" xlink:href="http://doc.qt.io/qt-5/qobject.html" xlink:title=" ">
<polygon fill="none" stroke="black" points="9,-481.5 9,-500.5 65,-500.5 65,-481.5 9,-481.5"/>
<text text-anchor="middle" x="37" y="-488.5" font-family="Helvetica,sans-Serif" font-size="10.00">QObject</text>
</a>
</g>
</g>
<!-- Node9&#45;&gt;Node8 -->
<g id="edge8" class="edge">
<title>Node9&#45;&gt;Node8</title>
<path fill="none" stroke="midnightblue" d="M50.42,-473.14C57.91,-463.74 66.94,-452.4 73.03,-444.75"/>
<polygon fill="midnightblue" stroke="midnightblue" points="47.59,-471.08 44.1,-481.08 53.07,-475.44 47.59,-471.08"/>
</g>
<!-- Node10 -->
<g id="node10" class="node">
<title>Node10</title>
<g id="a_node10"><a target="_parent" xlink:href="http://doc.qt.io/qt-5/qpaintdevice.html" xlink:title=" ">
<polygon fill="none" stroke="black" points="83,-481.5 83,-500.5 165,-500.5 165,-481.5 83,-481.5"/>
<text text-anchor="middle" x="124" y="-488.5" font-family="Helvetica,sans-Serif" font-size="10.00">QPaintDevice</text>
</a>
</g>
</g>
<!-- Node10&#45;&gt;Node8 -->
<g id="edge9" class="edge">
<title>Node10&#45;&gt;Node8</title>
<path fill="none" stroke="midnightblue" d="M110.27,-473.14C102.6,-463.74 93.37,-452.4 87.13,-444.75"/>
<polygon fill="midnightblue" stroke="midnightblue" points="107.7,-475.54 116.73,-481.08 113.13,-471.12 107.7,-475.54"/>
</g>
</g>
</svg>
