<?xml version="1.0" encoding="UTF-8" standalone="no"?>
<!DOCTYPE svg PUBLIC "-//W3C//DTD SVG 1.1//EN"
 "http://www.w3.org/Graphics/SVG/1.1/DTD/svg11.dtd">
<!-- Generated by graphviz version 2.43.0 (0)
 -->
<!-- Title: BlackGui::CDropBase Pages: 1 -->
<svg width="857pt" height="1552pt"
 viewBox="0.00 0.00 857.00 1552.00" xmlns="http://www.w3.org/2000/svg" xmlns:xlink="http://www.w3.org/1999/xlink">
<g id="graph0" class="graph" transform="scale(1 1) rotate(0) translate(4 1548)">
<title>BlackGui::CDropBase</title>
<!-- Node1 -->
<g id="node1" class="node">
<title>Node1</title>
<g id="a_node1"><a xlink:title="Utilities for dropping swift value objects.">
<polygon fill="#bfbfbf" stroke="black" points="0,-1382.5 0,-1401.5 120,-1401.5 120,-1382.5 0,-1382.5"/>
<text text-anchor="middle" x="60" y="-1389.5" font-family="Helvetica,sans-Serif" font-size="10.00">BlackGui::CDropBase</text>
</a>
</g>
</g>
<!-- Node2 -->
<g id="node2" class="node">
<title>Node2</title>
<g id="a_node2"><a xlink:href="class_black_gui_1_1_c_drop_site.html" target="_top" xlink:title="Area where items can be dropped.">
<polygon fill="none" stroke="black" points="195.5,-1524.5 195.5,-1543.5 310.5,-1543.5 310.5,-1524.5 195.5,-1524.5"/>
<text text-anchor="middle" x="253" y="-1531.5" font-family="Helvetica,sans-Serif" font-size="10.00">BlackGui::CDropSite</text>
</a>
</g>
</g>
<!-- Node1&#45;&gt;Node2 -->
<g id="edge1" class="edge">
<title>Node1&#45;&gt;Node2</title>
<path fill="none" stroke="midnightblue" d="M69.83,-1410.55C83.95,-1438.07 114.32,-1489.2 156,-1515 167.77,-1522.29 181.78,-1526.86 195.41,-1529.71"/>
<polygon fill="midnightblue" stroke="midnightblue" points="72.96,-1408.98 65.37,-1401.58 66.69,-1412.09 72.96,-1408.98"/>
</g>
<!-- Node3 -->
<g id="node3" class="node">
<title>Node3</title>
<g id="a_node3"><a xlink:href="class_black_gui_1_1_components_1_1_c_db_aircraft_icao_selector_component.html" target="_top" xlink:title="Aircraft ICAO selector.">
<polygon fill="none" stroke="black" points="156,-1475 156,-1505 350,-1505 350,-1475 156,-1475"/>
<text text-anchor="start" x="164" y="-1493" font-family="Helvetica,sans-Serif" font-size="10.00">BlackGui::Components</text>
<text text-anchor="middle" x="253" y="-1482" font-family="Helvetica,sans-Serif" font-size="10.00">::CDbAircraftIcaoSelectorComponent</text>
</a>
</g>
</g>
<!-- Node1&#45;&gt;Node3 -->
<g id="edge2" class="edge">
<title>Node1&#45;&gt;Node3</title>
<path fill="none" stroke="midnightblue" d="M77.94,-1408.82C95.86,-1425.7 125.69,-1451.23 156,-1466 163.03,-1469.42 170.59,-1472.39 178.27,-1474.95"/>
<polygon fill="midnightblue" stroke="midnightblue" points="80.22,-1406.16 70.58,-1401.75 75.37,-1411.21 80.22,-1406.16"/>
</g>
<!-- Node4 -->
<g id="node4" class="node">
<title>Node4</title>
<g id="a_node4"><a xlink:href="class_black_gui_1_1_components_1_1_c_db_airline_icao_selector_base.html" target="_top" xlink:title="Airline ICAO selector base class.">
<polygon fill="none" stroke="black" points="174,-1426 174,-1456 332,-1456 332,-1426 174,-1426"/>
<text text-anchor="start" x="182" y="-1444" font-family="Helvetica,sans-Serif" font-size="10.00">BlackGui::Components</text>
<text text-anchor="middle" x="253" y="-1433" font-family="Helvetica,sans-Serif" font-size="10.00">::CDbAirlineIcaoSelectorBase</text>
</a>
</g>
</g>
<!-- Node1&#45;&gt;Node4 -->
<g id="edge3" class="edge">
<title>Node1&#45;&gt;Node4</title>
<path fill="none" stroke="midnightblue" d="M106.97,-1404.22C122.53,-1408.32 140.01,-1412.9 156,-1417 167.4,-1419.92 179.57,-1423 191.29,-1425.94"/>
<polygon fill="midnightblue" stroke="midnightblue" points="107.62,-1400.77 97.06,-1401.6 105.84,-1407.54 107.62,-1400.77"/>
</g>
<!-- Node7 -->
<g id="node7" class="node">
<title>Node7</title>
<g id="a_node7"><a xlink:href="class_black_gui_1_1_components_1_1_c_db_country_selector_component.html" target="_top" xlink:title="Country selector.">
<polygon fill="none" stroke="black" points="164.5,-1377 164.5,-1407 341.5,-1407 341.5,-1377 164.5,-1377"/>
<text text-anchor="start" x="172.5" y="-1395" font-family="Helvetica,sans-Serif" font-size="10.00">BlackGui::Components</text>
<text text-anchor="middle" x="253" y="-1384" font-family="Helvetica,sans-Serif" font-size="10.00">::CDbCountrySelectorComponent</text>
</a>
</g>
</g>
<!-- Node1&#45;&gt;Node7 -->
<g id="edge6" class="edge">
<title>Node1&#45;&gt;Node7</title>
<path fill="none" stroke="midnightblue" d="M130.17,-1392C141.29,-1392 152.92,-1392 164.4,-1392"/>
<polygon fill="midnightblue" stroke="midnightblue" points="130.13,-1388.5 120.13,-1392 130.13,-1395.5 130.13,-1388.5"/>
</g>
<!-- Node8 -->
<g id="node8" class="node">
<title>Node8</title>
<g id="a_node8"><a xlink:href="class_black_gui_1_1_components_1_1_c_db_distributor_selector_component.html" target="_top" xlink:title="Distributor selector.">
<polygon fill="none" stroke="black" points="157.5,-1328 157.5,-1358 348.5,-1358 348.5,-1328 157.5,-1328"/>
<text text-anchor="start" x="165.5" y="-1346" font-family="Helvetica,sans-Serif" font-size="10.00">BlackGui::Components</text>
<text text-anchor="middle" x="253" y="-1335" font-family="Helvetica,sans-Serif" font-size="10.00">::CDbDistributorSelectorComponent</text>
</a>
</g>
</g>
<!-- Node1&#45;&gt;Node8 -->
<g id="edge7" class="edge">
<title>Node1&#45;&gt;Node8</title>
<path fill="none" stroke="midnightblue" d="M108.17,-1379.9C133.92,-1373.29 166.04,-1365.05 193.39,-1358.04"/>
<polygon fill="midnightblue" stroke="midnightblue" points="107.1,-1376.56 98.28,-1382.44 108.84,-1383.34 107.1,-1376.56"/>
</g>
<!-- Node9 -->
<g id="node9" class="node">
<title>Node9</title>
<g id="a_node9"><a xlink:href="class_black_gui_1_1_components_1_1_c_db_livery_selector_component.html" target="_top" xlink:title="Selector for liveries.">
<polygon fill="none" stroke="black" points="168.5,-1279 168.5,-1309 337.5,-1309 337.5,-1279 168.5,-1279"/>
<text text-anchor="start" x="176.5" y="-1297" font-family="Helvetica,sans-Serif" font-size="10.00">BlackGui::Components</text>
<text text-anchor="middle" x="253" y="-1286" font-family="Helvetica,sans-Serif" font-size="10.00">::CDbLiverySelectorComponent</text>
</a>
</g>
</g>
<!-- Node1&#45;&gt;Node9 -->
<g id="edge8" class="edge">
<title>Node1&#45;&gt;Node9</title>
<path fill="none" stroke="midnightblue" d="M78.01,-1375.47C95.99,-1358.89 125.86,-1333.74 156,-1319 163.81,-1315.18 172.28,-1311.89 180.84,-1309.08"/>
<polygon fill="midnightblue" stroke="midnightblue" points="75.51,-1373.02 70.63,-1382.42 80.31,-1378.12 75.51,-1373.02"/>
</g>
<!-- Node10 -->
<g id="node10" class="node">
<title>Node10</title>
<g id="a_node10"><a xlink:href="class_black_gui_1_1_models_1_1_c_list_model_base_non_template.html" target="_top" xlink:title="Non templated base class, allows Q_OBJECT and signals to be used.">
<polygon fill="none" stroke="black" points="172.5,-1010 172.5,-1040 333.5,-1040 333.5,-1010 172.5,-1010"/>
<text text-anchor="start" x="180.5" y="-1028" font-family="Helvetica,sans-Serif" font-size="10.00">BlackGui::Models::CListModel</text>
<text text-anchor="middle" x="253" y="-1017" font-family="Helvetica,sans-Serif" font-size="10.00">BaseNonTemplate</text>
</a>
</g>
</g>
<!-- Node1&#45;&gt;Node10 -->
<g id="edge9" class="edge">
<title>Node1&#45;&gt;Node10</title>
<path fill="none" stroke="midnightblue" d="M70.8,-1373.17C104.24,-1308.91 213.45,-1099.07 244,-1040.38"/>
<polygon fill="midnightblue" stroke="midnightblue" points="67.62,-1371.7 66.11,-1382.18 73.83,-1374.93 67.62,-1371.7"/>
</g>
<!-- Node5 -->
<g id="node5" class="node">
<title>Node5</title>
<g id="a_node5"><a xlink:href="class_black_gui_1_1_components_1_1_c_db_airline_icao_selector_component.html" target="_top" xlink:title="Airline ICAO selector.">
<polygon fill="none" stroke="black" points="390.5,-1475 390.5,-1505 581.5,-1505 581.5,-1475 390.5,-1475"/>
<text text-anchor="start" x="398.5" y="-1493" font-family="Helvetica,sans-Serif" font-size="10.00">BlackGui::Components</text>
<text text-anchor="middle" x="486" y="-1482" font-family="Helvetica,sans-Serif" font-size="10.00">::CDbAirlineIcaoSelectorComponent</text>
</a>
</g>
</g>
<!-- Node4&#45;&gt;Node5 -->
<g id="edge4" class="edge">
<title>Node4&#45;&gt;Node5</title>
<path fill="none" stroke="midnightblue" d="M334.67,-1458.11C360.6,-1463.61 389.1,-1469.66 414.26,-1474.99"/>
<polygon fill="midnightblue" stroke="midnightblue" points="335.39,-1454.69 324.88,-1456.03 333.93,-1461.53 335.39,-1454.69"/>
</g>
<!-- Node6 -->
<g id="node6" class="node">
<title>Node6</title>
<g id="a_node6"><a xlink:href="class_black_gui_1_1_components_1_1_c_db_airline_name_selector_component.html" target="_top" xlink:title="Select airline by name.">
<polygon fill="none" stroke="black" points="386,-1426 386,-1456 586,-1456 586,-1426 386,-1426"/>
<text text-anchor="start" x="394" y="-1444" font-family="Helvetica,sans-Serif" font-size="10.00">BlackGui::Components</text>
<text text-anchor="middle" x="486" y="-1433" font-family="Helvetica,sans-Serif" font-size="10.00">::CDbAirlineNameSelectorComponent</text>
</a>
</g>
</g>
<!-- Node4&#45;&gt;Node6 -->
<g id="edge5" class="edge">
<title>Node4&#45;&gt;Node6</title>
<path fill="none" stroke="midnightblue" d="M342.46,-1441C356.7,-1441 371.52,-1441 385.99,-1441"/>
<polygon fill="midnightblue" stroke="midnightblue" points="342.21,-1437.5 332.21,-1441 342.21,-1444.5 342.21,-1437.5"/>
</g>
<!-- Node11 -->
<g id="node11" class="node">
<title>Node11</title>
<g id="a_node11"><a xlink:href="class_black_gui_1_1_models_1_1_c_list_model_base.html" target="_top" xlink:title=" ">
<polygon fill="none" stroke="black" points="393,-1377 393,-1407 579,-1407 579,-1377 393,-1377"/>
<text text-anchor="start" x="401" y="-1395" font-family="Helvetica,sans-Serif" font-size="10.00">BlackGui::Models::CListModel</text>
<text text-anchor="middle" x="486" y="-1384" font-family="Helvetica,sans-Serif" font-size="10.00">Base&lt; BlackMisc::CIdentifierList &gt;</text>
</a>
</g>
</g>
<!-- Node10&#45;&gt;Node11 -->
<g id="edge10" class="edge">
<title>Node10&#45;&gt;Node11</title>
<path fill="none" stroke="midnightblue" d="M263.76,-1049.48C281.28,-1093.51 319.11,-1189.02 350,-1270 366.39,-1312.96 351.78,-1336.29 386,-1367 390.22,-1370.79 394.94,-1374.02 399.95,-1376.78"/>
<polygon fill="midnightblue" stroke="midnightblue" points="267,-1048.15 260.05,-1040.16 260.5,-1050.74 267,-1048.15"/>
</g>
<!-- Node13 -->
<g id="node13" class="node">
<title>Node13</title>
<g id="a_node13"><a xlink:href="class_black_gui_1_1_models_1_1_c_list_model_base.html" target="_top" xlink:title=" ">
<polygon fill="none" stroke="black" points="405.5,-1316.5 405.5,-1357.5 566.5,-1357.5 566.5,-1316.5 405.5,-1316.5"/>
<text text-anchor="start" x="413.5" y="-1345.5" font-family="Helvetica,sans-Serif" font-size="10.00">BlackGui::Models::CListModel</text>
<text text-anchor="start" x="413.5" y="-1334.5" font-family="Helvetica,sans-Serif" font-size="10.00">Base&lt; BlackMisc::Aviation</text>
<text text-anchor="middle" x="486" y="-1323.5" font-family="Helvetica,sans-Serif" font-size="10.00">::CAirportList, true &gt;</text>
</a>
</g>
</g>
<!-- Node10&#45;&gt;Node13 -->
<g id="edge12" class="edge">
<title>Node10&#45;&gt;Node13</title>
<path fill="none" stroke="midnightblue" d="M258.59,-1050.06C269.95,-1104.95 304.59,-1236.51 386,-1307 391.7,-1311.94 398.2,-1316.06 405.07,-1319.51"/>
<polygon fill="midnightblue" stroke="midnightblue" points="262,-1049.27 256.62,-1040.15 255.13,-1050.64 262,-1049.27"/>
</g>
<!-- Node15 -->
<g id="node15" class="node">
<title>Node15</title>
<g id="a_node15"><a xlink:href="class_black_gui_1_1_models_1_1_c_list_model_base.html" target="_top" xlink:title=" ">
<polygon fill="none" stroke="black" points="405.5,-1256.5 405.5,-1297.5 566.5,-1297.5 566.5,-1256.5 405.5,-1256.5"/>
<text text-anchor="start" x="413.5" y="-1285.5" font-family="Helvetica,sans-Serif" font-size="10.00">BlackGui::Models::CListModel</text>
<text text-anchor="start" x="413.5" y="-1274.5" font-family="Helvetica,sans-Serif" font-size="10.00">Base&lt; BlackMisc::Weather</text>
<text text-anchor="middle" x="486" y="-1263.5" font-family="Helvetica,sans-Serif" font-size="10.00">::CCloudLayerList, false &gt;</text>
</a>
</g>
</g>
<!-- Node10&#45;&gt;Node15 -->
<g id="edge14" class="edge">
<title>Node10&#45;&gt;Node15</title>
<path fill="none" stroke="midnightblue" d="M262.02,-1050.04C278.04,-1096.02 318.36,-1194.04 386,-1247 391.8,-1251.54 398.28,-1255.39 405.07,-1258.67"/>
<polygon fill="midnightblue" stroke="midnightblue" points="265.24,-1048.64 258.72,-1040.29 258.61,-1050.88 265.24,-1048.64"/>
</g>
<!-- Node17 -->
<g id="node17" class="node">
<title>Node17</title>
<g id="a_node17"><a xlink:href="class_black_gui_1_1_models_1_1_c_list_model_base.html" target="_top" xlink:title=" ">
<polygon fill="none" stroke="black" points="405.5,-1196.5 405.5,-1237.5 566.5,-1237.5 566.5,-1196.5 405.5,-1196.5"/>
<text text-anchor="start" x="413.5" y="-1225.5" font-family="Helvetica,sans-Serif" font-size="10.00">BlackGui::Models::CListModel</text>
<text text-anchor="start" x="413.5" y="-1214.5" font-family="Helvetica,sans-Serif" font-size="10.00">Base&lt; BlackMisc::Audio::</text>
<text text-anchor="middle" x="486" y="-1203.5" font-family="Helvetica,sans-Serif" font-size="10.00">CAudioDeviceInfoList, true &gt;</text>
</a>
</g>
</g>
<!-- Node10&#45;&gt;Node17 -->
<g id="edge16" class="edge">
<title>Node10&#45;&gt;Node17</title>
<path fill="none" stroke="midnightblue" d="M267.05,-1048.71C287.69,-1084.04 331.23,-1150.28 386,-1187 392.04,-1191.05 398.65,-1194.57 405.49,-1197.63"/>
<polygon fill="midnightblue" stroke="midnightblue" points="270.08,-1046.95 262.07,-1040.02 264,-1050.43 270.08,-1046.95"/>
</g>
<!-- Node19 -->
<g id="node19" class="node">
<title>Node19</title>
<g id="a_node19"><a xlink:href="class_black_gui_1_1_models_1_1_c_list_model_base.html" target="_top" xlink:title=" ">
<polygon fill="none" stroke="black" points="405.5,-1136.5 405.5,-1177.5 566.5,-1177.5 566.5,-1136.5 405.5,-1136.5"/>
<text text-anchor="start" x="413.5" y="-1165.5" font-family="Helvetica,sans-Serif" font-size="10.00">BlackGui::Models::CListModel</text>
<text text-anchor="start" x="413.5" y="-1154.5" font-family="Helvetica,sans-Serif" font-size="10.00">Base&lt; BlackMisc::Network</text>
<text text-anchor="middle" x="486" y="-1143.5" font-family="Helvetica,sans-Serif" font-size="10.00">::CUserList, true &gt;</text>
</a>
</g>
</g>
<!-- Node10&#45;&gt;Node19 -->
<g id="edge18" class="edge">
<title>Node10&#45;&gt;Node19</title>
<path fill="none" stroke="midnightblue" d="M277.26,-1047.28C302.3,-1070.18 344.19,-1105.44 386,-1127 392.7,-1130.46 399.87,-1133.59 407.17,-1136.4"/>
<polygon fill="midnightblue" stroke="midnightblue" points="279.46,-1044.55 269.74,-1040.31 274.7,-1049.68 279.46,-1044.55"/>
</g>
<!-- Node21 -->
<g id="node21" class="node">
<title>Node21</title>
<g id="a_node21"><a xlink:href="class_black_gui_1_1_models_1_1_c_list_model_base.html" target="_top" xlink:title=" ">
<polygon fill="none" stroke="black" points="405.5,-1065 405.5,-1117 566.5,-1117 566.5,-1065 405.5,-1065"/>
<text text-anchor="start" x="413.5" y="-1105" font-family="Helvetica,sans-Serif" font-size="10.00">BlackGui::Models::CListModel</text>
<text text-anchor="start" x="413.5" y="-1094" font-family="Helvetica,sans-Serif" font-size="10.00">Base&lt; BlackMisc::Weather</text>
<text text-anchor="start" x="413.5" y="-1083" font-family="Helvetica,sans-Serif" font-size="10.00">::CTemperatureLayerList,</text>
<text text-anchor="middle" x="486" y="-1072" font-family="Helvetica,sans-Serif" font-size="10.00"> false &gt;</text>
</a>
</g>
</g>
<!-- Node10&#45;&gt;Node21 -->
<g id="edge20" class="edge">
<title>Node10&#45;&gt;Node21</title>
<path fill="none" stroke="midnightblue" d="M316.54,-1042.87C343.88,-1050.68 376.27,-1059.93 405.31,-1068.23"/>
<polygon fill="midnightblue" stroke="midnightblue" points="317.28,-1039.44 306.71,-1040.06 315.36,-1046.17 317.28,-1039.44"/>
</g>
<!-- Node23 -->
<g id="node23" class="node">
<title>Node23</title>
<g id="a_node23"><a xlink:href="class_black_gui_1_1_models_1_1_c_list_model_base.html" target="_top" xlink:title=" ">
<polygon fill="none" stroke="black" points="405.5,-1004.5 405.5,-1045.5 566.5,-1045.5 566.5,-1004.5 405.5,-1004.5"/>
<text text-anchor="start" x="413.5" y="-1033.5" font-family="Helvetica,sans-Serif" font-size="10.00">BlackGui::Models::CListModel</text>
<text text-anchor="start" x="413.5" y="-1022.5" font-family="Helvetica,sans-Serif" font-size="10.00">Base&lt; BlackMisc::Simulation</text>
<text text-anchor="middle" x="486" y="-1011.5" font-family="Helvetica,sans-Serif" font-size="10.00">::CMatchingStatistics, true &gt;</text>
</a>
</g>
</g>
<!-- Node10&#45;&gt;Node23 -->
<g id="edge22" class="edge">
<title>Node10&#45;&gt;Node23</title>
<path fill="none" stroke="midnightblue" d="M343.95,-1025C364.14,-1025 385.43,-1025 405.18,-1025"/>
<polygon fill="midnightblue" stroke="midnightblue" points="343.82,-1021.5 333.82,-1025 343.82,-1028.5 343.82,-1021.5"/>
</g>
<!-- Node25 -->
<g id="node25" class="node">
<title>Node25</title>
<g id="a_node25"><a xlink:href="class_black_gui_1_1_models_1_1_c_list_model_base.html" target="_top" xlink:title=" ">
<polygon fill="none" stroke="black" points="388,-944.5 388,-985.5 584,-985.5 584,-944.5 388,-944.5"/>
<text text-anchor="start" x="396" y="-973.5" font-family="Helvetica,sans-Serif" font-size="10.00">BlackGui::Models::CListModel</text>
<text text-anchor="start" x="396" y="-962.5" font-family="Helvetica,sans-Serif" font-size="10.00">Base&lt; BlackMisc::CNameVariantPair</text>
<text text-anchor="middle" x="486" y="-951.5" font-family="Helvetica,sans-Serif" font-size="10.00">List &gt;</text>
</a>
</g>
</g>
<!-- Node10&#45;&gt;Node25 -->
<g id="edge24" class="edge">
<title>Node10&#45;&gt;Node25</title>
<path fill="none" stroke="midnightblue" d="M321.89,-1007.37C348.28,-1000.51 378.68,-992.62 406.03,-985.51"/>
<polygon fill="midnightblue" stroke="midnightblue" points="320.79,-1004.04 311.99,-1009.94 322.55,-1010.81 320.79,-1004.04"/>
</g>
<!-- Node27 -->
<g id="node27" class="node">
<title>Node27</title>
<g id="a_node27"><a xlink:href="class_black_gui_1_1_models_1_1_c_list_model_base.html" target="_top" xlink:title=" ">
<polygon fill="none" stroke="black" points="392,-884.5 392,-925.5 580,-925.5 580,-884.5 392,-884.5"/>
<text text-anchor="start" x="400" y="-913.5" font-family="Helvetica,sans-Serif" font-size="10.00">BlackGui::Models::CListModel</text>
<text text-anchor="start" x="400" y="-902.5" font-family="Helvetica,sans-Serif" font-size="10.00">Base&lt; BlackMisc::CApplicationInfo</text>
<text text-anchor="middle" x="486" y="-891.5" font-family="Helvetica,sans-Serif" font-size="10.00">List, true &gt;</text>
</a>
</g>
</g>
<!-- Node10&#45;&gt;Node27 -->
<g id="edge26" class="edge">
<title>Node10&#45;&gt;Node27</title>
<path fill="none" stroke="midnightblue" d="M280.22,-1003.55C305.85,-983.47 346.66,-953.82 386,-935 393.21,-931.55 400.9,-928.39 408.7,-925.53"/>
<polygon fill="midnightblue" stroke="midnightblue" points="277.79,-1001.01 272.13,-1009.96 282.14,-1006.49 277.79,-1001.01"/>
</g>
<!-- Node29 -->
<g id="node29" class="node">
<title>Node29</title>
<g id="a_node29"><a xlink:href="class_black_gui_1_1_models_1_1_c_list_model_base.html" target="_top" xlink:title=" ">
<polygon fill="none" stroke="black" points="405.5,-824.5 405.5,-865.5 566.5,-865.5 566.5,-824.5 405.5,-824.5"/>
<text text-anchor="start" x="413.5" y="-853.5" font-family="Helvetica,sans-Serif" font-size="10.00">BlackGui::Models::CListModel</text>
<text text-anchor="start" x="413.5" y="-842.5" font-family="Helvetica,sans-Serif" font-size="10.00">Base&lt; BlackMisc::Weather</text>
<text text-anchor="middle" x="486" y="-831.5" font-family="Helvetica,sans-Serif" font-size="10.00">::CWindLayerList, false &gt;</text>
</a>
</g>
</g>
<!-- Node10&#45;&gt;Node29 -->
<g id="edge28" class="edge">
<title>Node10&#45;&gt;Node29</title>
<path fill="none" stroke="midnightblue" d="M268.74,-1001.15C290.42,-968.04 334,-908.45 386,-875 392.04,-871.11 398.61,-867.71 405.4,-864.73"/>
<polygon fill="midnightblue" stroke="midnightblue" points="265.68,-999.44 263.22,-1009.74 271.57,-1003.22 265.68,-999.44"/>
</g>
<!-- Node31 -->
<g id="node31" class="node">
<title>Node31</title>
<g id="a_node31"><a xlink:href="class_black_gui_1_1_models_1_1_c_list_model_base.html" target="_top" xlink:title=" ">
<polygon fill="none" stroke="black" points="405.5,-764.5 405.5,-805.5 566.5,-805.5 566.5,-764.5 405.5,-764.5"/>
<text text-anchor="start" x="413.5" y="-793.5" font-family="Helvetica,sans-Serif" font-size="10.00">BlackGui::Models::CListModel</text>
<text text-anchor="start" x="413.5" y="-782.5" font-family="Helvetica,sans-Serif" font-size="10.00">Base&lt; BlackMisc::Network</text>
<text text-anchor="middle" x="486" y="-771.5" font-family="Helvetica,sans-Serif" font-size="10.00">::CServerList, true &gt;</text>
</a>
</g>
</g>
<!-- Node10&#45;&gt;Node31 -->
<g id="edge30" class="edge">
<title>Node10&#45;&gt;Node31</title>
<path fill="none" stroke="midnightblue" d="M262.76,-1000.39C279.65,-956.51 320.88,-864.71 386,-815 391.85,-810.53 398.37,-806.73 405.19,-803.48"/>
<polygon fill="midnightblue" stroke="midnightblue" points="259.4,-999.38 259.17,-1009.98 265.96,-1001.84 259.4,-999.38"/>
</g>
<!-- Node33 -->
<g id="node33" class="node">
<title>Node33</title>
<g id="a_node33"><a xlink:href="class_black_gui_1_1_models_1_1_c_list_model_base.html" target="_top" xlink:title=" ">
<polygon fill="none" stroke="black" points="405.5,-707 405.5,-737 566.5,-737 566.5,-707 405.5,-707"/>
<text text-anchor="start" x="413.5" y="-725" font-family="Helvetica,sans-Serif" font-size="10.00">BlackGui::Models::CListModel</text>
<text text-anchor="middle" x="486" y="-714" font-family="Helvetica,sans-Serif" font-size="10.00">Base&lt; T, false &gt;</text>
</a>
</g>
</g>
<!-- Node10&#45;&gt;Node33 -->
<g id="edge32" class="edge">
<title>Node10&#45;&gt;Node33</title>
<path fill="none" stroke="midnightblue" d="M259.31,-1000.07C271.86,-947.18 308.31,-822.99 386,-755 394.66,-747.42 405.11,-741.58 415.94,-737.06"/>
<polygon fill="midnightblue" stroke="midnightblue" points="255.87,-999.42 257.05,-1009.95 262.69,-1000.98 255.87,-999.42"/>
</g>
<!-- Node47 -->
<g id="node37" class="node">
<title>Node47</title>
<g id="a_node37"><a xlink:href="class_black_gui_1_1_models_1_1_c_list_model_base.html" target="_top" xlink:title=" ">
<polygon fill="none" stroke="black" points="405.5,-617.5 405.5,-658.5 566.5,-658.5 566.5,-617.5 405.5,-617.5"/>
<text text-anchor="start" x="413.5" y="-646.5" font-family="Helvetica,sans-Serif" font-size="10.00">BlackGui::Models::CListModel</text>
<text text-anchor="start" x="413.5" y="-635.5" font-family="Helvetica,sans-Serif" font-size="10.00">Base&lt; BlackMisc::Network</text>
<text text-anchor="middle" x="486" y="-624.5" font-family="Helvetica,sans-Serif" font-size="10.00">::CClientList &gt;</text>
</a>
</g>
</g>
<!-- Node10&#45;&gt;Node47 -->
<g id="edge36" class="edge">
<title>Node10&#45;&gt;Node47</title>
<path fill="none" stroke="midnightblue" d="M258.46,-1000C270.04,-941.24 305.91,-792.17 386,-698 400,-681.54 419.7,-668.33 437.84,-658.53"/>
<polygon fill="midnightblue" stroke="midnightblue" points="255.01,-999.41 256.57,-1009.89 261.88,-1000.72 255.01,-999.41"/>
</g>
<!-- Node49 -->
<g id="node39" class="node">
<title>Node49</title>
<g id="a_node39"><a xlink:href="class_black_gui_1_1_models_1_1_c_list_model_base.html" target="_top" xlink:title="List model.">
<polygon fill="none" stroke="red" points="405.5,-306 405.5,-336 566.5,-336 566.5,-306 405.5,-306"/>
<text text-anchor="start" x="413.5" y="-324" font-family="Helvetica,sans-Serif" font-size="10.00">BlackGui::Models::CListModel</text>
<text text-anchor="middle" x="486" y="-313" font-family="Helvetica,sans-Serif" font-size="10.00">Base&lt; T, UseCompare &gt;</text>
</a>
</g>
</g>
<!-- Node10&#45;&gt;Node49 -->
<g id="edge38" class="edge">
<title>Node10&#45;&gt;Node49</title>
<path fill="none" stroke="midnightblue" d="M261.65,-1000.07C281.58,-935.26 336.99,-756.2 386,-608 420.5,-503.66 464.47,-378.9 479.6,-336.2"/>
<polygon fill="midnightblue" stroke="midnightblue" points="258.25,-999.22 258.66,-1009.81 264.94,-1001.28 258.25,-999.22"/>
</g>
<!-- Node12 -->
<g id="node12" class="node">
<title>Node12</title>
<g id="a_node12"><a xlink:href="class_black_gui_1_1_models_1_1_c_identifier_list_model.html" target="_top" xlink:title="Originator list model.">
<polygon fill="none" stroke="black" points="656.5,-1377 656.5,-1407 814.5,-1407 814.5,-1377 656.5,-1377"/>
<text text-anchor="start" x="664.5" y="-1395" font-family="Helvetica,sans-Serif" font-size="10.00">BlackGui::Models::CIdentifier</text>
<text text-anchor="middle" x="735.5" y="-1384" font-family="Helvetica,sans-Serif" font-size="10.00">ListModel</text>
</a>
</g>
</g>
<!-- Node11&#45;&gt;Node12 -->
<g id="edge11" class="edge">
<title>Node11&#45;&gt;Node12</title>
<path fill="none" stroke="midnightblue" d="M589.38,-1392C611.8,-1392 635.18,-1392 656.46,-1392"/>
<polygon fill="midnightblue" stroke="midnightblue" points="589.16,-1388.5 579.16,-1392 589.16,-1395.5 589.16,-1388.5"/>
</g>
<!-- Node14 -->
<g id="node14" class="node">
<title>Node14</title>
<g id="a_node14"><a xlink:href="class_black_gui_1_1_models_1_1_c_airport_list_model.html" target="_top" xlink:title="Airport list model.">
<polygon fill="none" stroke="black" points="662,-1322 662,-1352 809,-1352 809,-1322 662,-1322"/>
<text text-anchor="start" x="670" y="-1340" font-family="Helvetica,sans-Serif" font-size="10.00">BlackGui::Models::CAirport</text>
<text text-anchor="middle" x="735.5" y="-1329" font-family="Helvetica,sans-Serif" font-size="10.00">ListModel</text>
</a>
</g>
</g>
<!-- Node13&#45;&gt;Node14 -->
<g id="edge13" class="edge">
<title>Node13&#45;&gt;Node14</title>
<path fill="none" stroke="midnightblue" d="M576.82,-1337C604.72,-1337 635.1,-1337 661.68,-1337"/>
<polygon fill="midnightblue" stroke="midnightblue" points="576.67,-1333.5 566.67,-1337 576.67,-1340.5 576.67,-1333.5"/>
</g>
<!-- Node16 -->
<g id="node16" class="node">
<title>Node16</title>
<g id="a_node16"><a xlink:href="class_black_gui_1_1_models_1_1_c_cloud_layer_list_model.html" target="_top" xlink:title="Cloud layer list model.">
<polygon fill="none" stroke="black" points="664.5,-1262 664.5,-1292 806.5,-1292 806.5,-1262 664.5,-1262"/>
<text text-anchor="start" x="672.5" y="-1280" font-family="Helvetica,sans-Serif" font-size="10.00">BlackGui::Models::CCloud</text>
<text text-anchor="middle" x="735.5" y="-1269" font-family="Helvetica,sans-Serif" font-size="10.00">LayerListModel</text>
</a>
</g>
</g>
<!-- Node15&#45;&gt;Node16 -->
<g id="edge15" class="edge">
<title>Node15&#45;&gt;Node16</title>
<path fill="none" stroke="midnightblue" d="M576.73,-1277C605.52,-1277 636.97,-1277 664.16,-1277"/>
<polygon fill="midnightblue" stroke="midnightblue" points="576.67,-1273.5 566.67,-1277 576.67,-1280.5 576.67,-1273.5"/>
</g>
<!-- Node18 -->
<g id="node18" class="node">
<title>Node18</title>
<g id="a_node18"><a xlink:href="class_black_gui_1_1_models_1_1_c_audio_device_info_list_model.html" target="_top" xlink:title="Audio device list model.">
<polygon fill="none" stroke="black" points="664.5,-1202 664.5,-1232 806.5,-1232 806.5,-1202 664.5,-1202"/>
<text text-anchor="start" x="672.5" y="-1220" font-family="Helvetica,sans-Serif" font-size="10.00">BlackGui::Models::CAudio</text>
<text text-anchor="middle" x="735.5" y="-1209" font-family="Helvetica,sans-Serif" font-size="10.00">DeviceInfoListModel</text>
</a>
</g>
</g>
<!-- Node17&#45;&gt;Node18 -->
<g id="edge17" class="edge">
<title>Node17&#45;&gt;Node18</title>
<path fill="none" stroke="midnightblue" d="M576.73,-1217C605.52,-1217 636.97,-1217 664.16,-1217"/>
<polygon fill="midnightblue" stroke="midnightblue" points="576.67,-1213.5 566.67,-1217 576.67,-1220.5 576.67,-1213.5"/>
</g>
<!-- Node20 -->
<g id="node20" class="node">
<title>Node20</title>
<g id="a_node20"><a xlink:href="class_black_gui_1_1_models_1_1_c_user_list_model.html" target="_top" xlink:title="User list model.">
<polygon fill="none" stroke="black" points="658.5,-1142 658.5,-1172 812.5,-1172 812.5,-1142 658.5,-1142"/>
<text text-anchor="start" x="666.5" y="-1160" font-family="Helvetica,sans-Serif" font-size="10.00">BlackGui::Models::CUserList</text>
<text text-anchor="middle" x="735.5" y="-1149" font-family="Helvetica,sans-Serif" font-size="10.00">Model</text>
</a>
</g>
</g>
<!-- Node19&#45;&gt;Node20 -->
<g id="edge19" class="edge">
<title>Node19&#45;&gt;Node20</title>
<path fill="none" stroke="midnightblue" d="M576.8,-1157C603.54,-1157 632.57,-1157 658.35,-1157"/>
<polygon fill="midnightblue" stroke="midnightblue" points="576.67,-1153.5 566.67,-1157 576.67,-1160.5 576.67,-1153.5"/>
</g>
<!-- Node22 -->
<g id="node22" class="node">
<title>Node22</title>
<g id="a_node22"><a xlink:href="class_black_gui_1_1_models_1_1_c_temperature_layer_list_model.html" target="_top" xlink:title="Temperature layer list model.">
<polygon fill="none" stroke="black" points="647.5,-1076 647.5,-1106 823.5,-1106 823.5,-1076 647.5,-1076"/>
<text text-anchor="start" x="655.5" y="-1094" font-family="Helvetica,sans-Serif" font-size="10.00">BlackGui::Models::CTemperature</text>
<text text-anchor="middle" x="735.5" y="-1083" font-family="Helvetica,sans-Serif" font-size="10.00">LayerListModel</text>
</a>
</g>
</g>
<!-- Node21&#45;&gt;Node22 -->
<g id="edge21" class="edge">
<title>Node21&#45;&gt;Node22</title>
<path fill="none" stroke="midnightblue" d="M576.75,-1091C599.74,-1091 624.41,-1091 647.27,-1091"/>
<polygon fill="midnightblue" stroke="midnightblue" points="576.67,-1087.5 566.67,-1091 576.67,-1094.5 576.67,-1087.5"/>
</g>
<!-- Node24 -->
<g id="node24" class="node">
<title>Node24</title>
<g id="a_node24"><a xlink:href="class_black_gui_1_1_models_1_1_c_matching_statistics_model.html" target="_top" xlink:title="Matching statistics entry.">
<polygon fill="none" stroke="black" points="656,-1010 656,-1040 815,-1040 815,-1010 656,-1010"/>
<text text-anchor="start" x="664" y="-1028" font-family="Helvetica,sans-Serif" font-size="10.00">BlackGui::Models::CMatching</text>
<text text-anchor="middle" x="735.5" y="-1017" font-family="Helvetica,sans-Serif" font-size="10.00">StatisticsModel</text>
</a>
</g>
</g>
<!-- Node23&#45;&gt;Node24 -->
<g id="edge23" class="edge">
<title>Node23&#45;&gt;Node24</title>
<path fill="none" stroke="midnightblue" d="M576.84,-1025C602.7,-1025 630.7,-1025 655.82,-1025"/>
<polygon fill="midnightblue" stroke="midnightblue" points="576.67,-1021.5 566.67,-1025 576.67,-1028.5 576.67,-1021.5"/>
</g>
<!-- Node26 -->
<g id="node26" class="node">
<title>Node26</title>
<g id="a_node26"><a xlink:href="class_black_gui_1_1_models_1_1_c_name_variant_pair_model.html" target="_top" xlink:title="Simple model displaying name / variant values.">
<polygon fill="none" stroke="black" points="646.5,-950 646.5,-980 824.5,-980 824.5,-950 646.5,-950"/>
<text text-anchor="start" x="654.5" y="-968" font-family="Helvetica,sans-Serif" font-size="10.00">BlackGui::Models::CNameVariant</text>
<text text-anchor="middle" x="735.5" y="-957" font-family="Helvetica,sans-Serif" font-size="10.00">PairModel</text>
</a>
</g>
</g>
<!-- Node25&#45;&gt;Node26 -->
<g id="edge25" class="edge">
<title>Node25&#45;&gt;Node26</title>
<path fill="none" stroke="midnightblue" d="M594.24,-965C611.57,-965 629.32,-965 646.13,-965"/>
<polygon fill="midnightblue" stroke="midnightblue" points="594.11,-961.5 584.11,-965 594.11,-968.5 594.11,-961.5"/>
</g>
<!-- Node28 -->
<g id="node28" class="node">
<title>Node28</title>
<g id="a_node28"><a xlink:href="class_black_gui_1_1_models_1_1_c_application_info_list_model.html" target="_top" xlink:title="Application info list model.">
<polygon fill="none" stroke="black" points="651,-896 651,-926 820,-926 820,-896 651,-896"/>
<text text-anchor="start" x="659" y="-914" font-family="Helvetica,sans-Serif" font-size="10.00">BlackGui::Models::CApplication</text>
<text text-anchor="middle" x="735.5" y="-903" font-family="Helvetica,sans-Serif" font-size="10.00">InfoListModel</text>
</a>
</g>
</g>
<!-- Node27&#45;&gt;Node28 -->
<g id="edge27" class="edge">
<title>Node27&#45;&gt;Node28</title>
<path fill="none" stroke="midnightblue" d="M590.34,-907.51C610.47,-907.99 631.33,-908.5 650.73,-908.97"/>
<polygon fill="midnightblue" stroke="midnightblue" points="590.3,-904 580.22,-907.26 590.13,-911 590.3,-904"/>
</g>
<!-- Node30 -->
<g id="node30" class="node">
<title>Node30</title>
<g id="a_node30"><a xlink:href="class_black_gui_1_1_models_1_1_c_wind_layer_list_model.html" target="_top" xlink:title="Wind layer list model.">
<polygon fill="none" stroke="black" points="652.5,-847 652.5,-877 818.5,-877 818.5,-847 652.5,-847"/>
<text text-anchor="start" x="660.5" y="-865" font-family="Helvetica,sans-Serif" font-size="10.00">BlackGui::Models::CWindLayer</text>
<text text-anchor="middle" x="735.5" y="-854" font-family="Helvetica,sans-Serif" font-size="10.00">ListModel</text>
</a>
</g>
</g>
<!-- Node29&#45;&gt;Node30 -->
<g id="edge29" class="edge">
<title>Node29&#45;&gt;Node30</title>
<path fill="none" stroke="midnightblue" d="M576.77,-851.17C601.49,-852.86 628.16,-854.7 652.42,-856.36"/>
<polygon fill="midnightblue" stroke="midnightblue" points="576.89,-847.67 566.67,-850.47 576.41,-854.65 576.89,-847.67"/>
</g>
<!-- Node32 -->
<g id="node32" class="node">
<title>Node32</title>
<g id="a_node32"><a xlink:href="class_black_gui_1_1_models_1_1_c_server_list_model.html" target="_top" xlink:title="Server list model.">
<polygon fill="none" stroke="black" points="662.5,-798 662.5,-828 808.5,-828 808.5,-798 662.5,-798"/>
<text text-anchor="start" x="670.5" y="-816" font-family="Helvetica,sans-Serif" font-size="10.00">BlackGui::Models::CServer</text>
<text text-anchor="middle" x="735.5" y="-805" font-family="Helvetica,sans-Serif" font-size="10.00">ListModel</text>
</a>
</g>
</g>
<!-- Node31&#45;&gt;Node32 -->
<g id="edge31" class="edge">
<title>Node31&#45;&gt;Node32</title>
<path fill="none" stroke="midnightblue" d="M576.87,-795.17C604.9,-798.34 635.43,-801.79 662.1,-804.81"/>
<polygon fill="midnightblue" stroke="midnightblue" points="577,-791.66 566.67,-794.01 576.22,-798.62 577,-791.66"/>
</g>
<!-- Node34 -->
<g id="node34" class="node">
<title>Node34</title>
<g id="a_node34"><a xlink:href="class_black_gui_1_1_models_1_1_c_list_model_callsign_objects.html" target="_top" xlink:title="List model for callsign based objects (callsign is unique key)">
<polygon fill="none" stroke="black" points="640.5,-749 640.5,-779 830.5,-779 830.5,-749 640.5,-749"/>
<text text-anchor="start" x="648.5" y="-767" font-family="Helvetica,sans-Serif" font-size="10.00">BlackGui::Models::CListModel</text>
<text text-anchor="middle" x="735.5" y="-756" font-family="Helvetica,sans-Serif" font-size="10.00">CallsignObjects&lt; T, UseCompare &gt;</text>
</a>
</g>
</g>
<!-- Node33&#45;&gt;Node34 -->
<g id="edge33" class="edge">
<title>Node33&#45;&gt;Node34</title>
<path fill="none" stroke="midnightblue" d="M576.58,-737.2C599.18,-741.04 623.43,-745.15 645.97,-748.98"/>
<polygon fill="midnightblue" stroke="midnightblue" points="577.12,-733.74 566.67,-735.52 575.95,-740.64 577.12,-733.74"/>
</g>
<!-- Node35 -->
<g id="node35" class="node">
<title>Node35</title>
<g id="a_node35"><a xlink:href="class_black_gui_1_1_models_1_1_c_list_model_db_objects.html" target="_top" xlink:title="List model for DB objects.">
<polygon fill="none" stroke="red" points="647,-700 647,-730 824,-730 824,-700 647,-700"/>
<text text-anchor="start" x="655" y="-718" font-family="Helvetica,sans-Serif" font-size="10.00">BlackGui::Models::CListModel</text>
<text text-anchor="middle" x="735.5" y="-707" font-family="Helvetica,sans-Serif" font-size="10.00">DbObjects&lt; T, K, UseCompare &gt;</text>
</a>
</g>
</g>
<!-- Node33&#45;&gt;Node35 -->
<g id="edge34" class="edge">
<title>Node33&#45;&gt;Node35</title>
<path fill="none" stroke="midnightblue" d="M576.7,-719.46C599.55,-718.82 624.08,-718.12 646.84,-717.48"/>
<polygon fill="midnightblue" stroke="midnightblue" points="576.57,-715.97 566.67,-719.75 576.77,-722.96 576.57,-715.97"/>
</g>
<!-- Node40 -->
<g id="node36" class="node">
<title>Node40</title>
<g id="a_node36"><a xlink:href="class_black_gui_1_1_models_1_1_c_list_model_timestamp_objects.html" target="_top" xlink:title="List model for timestamp based objects with offset.">
<polygon fill="none" stroke="red" points="632.5,-651 632.5,-681 838.5,-681 838.5,-651 632.5,-651"/>
<text text-anchor="start" x="640.5" y="-669" font-family="Helvetica,sans-Serif" font-size="10.00">BlackGui::Models::CListModel</text>
<text text-anchor="middle" x="735.5" y="-658" font-family="Helvetica,sans-Serif" font-size="10.00">TimestampObjects&lt; T, UseCompare &gt;</text>
</a>
</g>
</g>
<!-- Node33&#45;&gt;Node40 -->
<g id="edge35" class="edge">
<title>Node33&#45;&gt;Node40</title>
<path fill="none" stroke="midnightblue" d="M561.97,-704.69C581.51,-700.2 602.54,-695.4 622,-691 636.34,-687.76 651.73,-684.32 666.37,-681.06"/>
<polygon fill="midnightblue" stroke="midnightblue" points="561.17,-701.28 552.21,-706.93 562.74,-708.1 561.17,-701.28"/>
</g>
<!-- Node48 -->
<g id="node38" class="node">
<title>Node48</title>
<g id="a_node38"><a xlink:href="class_black_gui_1_1_models_1_1_c_client_list_model.html" target="_top" xlink:title="Client list model.">
<polygon fill="none" stroke="black" points="664,-602 664,-632 807,-632 807,-602 664,-602"/>
<text text-anchor="start" x="672" y="-620" font-family="Helvetica,sans-Serif" font-size="10.00">BlackGui::Models::CClient</text>
<text text-anchor="middle" x="735.5" y="-609" font-family="Helvetica,sans-Serif" font-size="10.00">ListModel</text>
</a>
</g>
</g>
<!-- Node47&#45;&gt;Node48 -->
<g id="edge37" class="edge">
<title>Node47&#45;&gt;Node48</title>
<path fill="none" stroke="midnightblue" d="M576.69,-630.39C605.34,-627.96 636.64,-625.3 663.75,-623"/>
<polygon fill="midnightblue" stroke="midnightblue" points="576.34,-626.91 566.67,-631.24 576.93,-633.88 576.34,-626.91"/>
</g>
<!-- Node50 -->
<g id="node40" class="node">
<title>Node50</title>
<g id="a_node40"><a xlink:href="class_black_gui_1_1_models_1_1_c_list_model_callsign_objects.html" target="_top" xlink:title=" ">
<polygon fill="none" stroke="red" points="622,-541.5 622,-582.5 849,-582.5 849,-541.5 622,-541.5"/>
<text text-anchor="start" x="630" y="-570.5" font-family="Helvetica,sans-Serif" font-size="10.00">BlackGui::Models::CListModel</text>
<text text-anchor="start" x="630" y="-559.5" font-family="Helvetica,sans-Serif" font-size="10.00">CallsignObjects&lt; BlackMisc</text>
<text text-anchor="middle" x="735.5" y="-548.5" font-family="Helvetica,sans-Serif" font-size="10.00">::Simulation::CSimulatedAircraftList, true &gt;</text>
</a>
</g>
</g>
<!-- Node49&#45;&gt;Node50 -->
<g id="edge39" class="edge">
<title>Node49&#45;&gt;Node50</title>
<path fill="none" stroke="midnightblue" d="M495.81,-345.67C512.95,-390 555.06,-483.08 622,-532 626.81,-535.52 632.01,-538.62 637.44,-541.37"/>
<polygon fill="midnightblue" stroke="midnightblue" points="499.06,-344.36 492.26,-336.24 492.51,-346.83 499.06,-344.36"/>
</g>
<!-- Node52 -->
<g id="node41" class="node">
<title>Node52</title>
<g id="a_node41"><a xlink:href="class_black_gui_1_1_models_1_1_c_list_model_callsign_objects.html" target="_top" xlink:title=" ">
<polygon fill="none" stroke="red" points="646,-481.5 646,-522.5 825,-522.5 825,-481.5 646,-481.5"/>
<text text-anchor="start" x="654" y="-510.5" font-family="Helvetica,sans-Serif" font-size="10.00">BlackGui::Models::CListModel</text>
<text text-anchor="start" x="654" y="-499.5" font-family="Helvetica,sans-Serif" font-size="10.00">CallsignObjects&lt; BlackMisc</text>
<text text-anchor="middle" x="735.5" y="-488.5" font-family="Helvetica,sans-Serif" font-size="10.00">::Aviation::CAtcStationList, true &gt;</text>
</a>
</g>
</g>
<!-- Node49&#45;&gt;Node52 -->
<g id="edge40" class="edge">
<title>Node49&#45;&gt;Node52</title>
<path fill="none" stroke="midnightblue" d="M501.68,-344.73C523.66,-378.25 568.32,-439.02 622,-472 629.41,-476.55 637.5,-480.42 645.84,-483.7"/>
<polygon fill="midnightblue" stroke="midnightblue" points="504.45,-342.57 496.09,-336.05 498.56,-346.35 504.45,-342.57"/>
</g>
<!-- Node54 -->
<g id="node42" class="node">
<title>Node54</title>
<g id="a_node42"><a xlink:href="class_black_gui_1_1_models_1_1_c_list_model_callsign_objects.html" target="_top" xlink:title=" ">
<polygon fill="none" stroke="red" points="636.5,-410 636.5,-462 834.5,-462 834.5,-410 636.5,-410"/>
<text text-anchor="start" x="644.5" y="-450" font-family="Helvetica,sans-Serif" font-size="10.00">BlackGui::Models::CListModel</text>
<text text-anchor="start" x="644.5" y="-439" font-family="Helvetica,sans-Serif" font-size="10.00">CallsignObjects&lt; BlackMisc</text>
<text text-anchor="start" x="644.5" y="-428" font-family="Helvetica,sans-Serif" font-size="10.00">::Simulation::CInterpolationSetupList,</text>
<text text-anchor="middle" x="735.5" y="-417" font-family="Helvetica,sans-Serif" font-size="10.00"> false &gt;</text>
</a>
</g>
</g>
<!-- Node49&#45;&gt;Node54 -->
<g id="edge41" class="edge">
<title>Node49&#45;&gt;Node54</title>
<path fill="none" stroke="midnightblue" d="M517.56,-341.92C544.23,-359.48 584.42,-384.3 622,-401 629.1,-404.16 636.58,-407.15 644.15,-409.95"/>
<polygon fill="midnightblue" stroke="midnightblue" points="519.33,-338.89 509.06,-336.27 515.45,-344.72 519.33,-338.89"/>
</g>
<!-- Node56 -->
<g id="node43" class="node">
<title>Node56</title>
<g id="a_node43"><a xlink:href="class_black_gui_1_1_models_1_1_c_list_model_db_objects.html" target="_top" xlink:title=" ">
<polygon fill="none" stroke="red" points="655,-361 655,-391 816,-391 816,-361 655,-361"/>
<text text-anchor="start" x="663" y="-379" font-family="Helvetica,sans-Serif" font-size="10.00">BlackGui::Models::CListModel</text>
<text text-anchor="middle" x="735.5" y="-368" font-family="Helvetica,sans-Serif" font-size="10.00">DbObjects&lt; T, K, false &gt;</text>
</a>
</g>
</g>
<!-- Node49&#45;&gt;Node56 -->
<g id="edge42" class="edge">
<title>Node49&#45;&gt;Node56</title>
<path fill="none" stroke="midnightblue" d="M564.64,-338.25C597.45,-345.55 635.31,-353.96 666.95,-360.99"/>
<polygon fill="midnightblue" stroke="midnightblue" points="565.15,-334.78 554.63,-336.03 563.63,-341.62 565.15,-334.78"/>
</g>
<!-- Node58 -->
<g id="node44" class="node">
<title>Node58</title>
<g id="a_node44"><a xlink:href="class_black_gui_1_1_models_1_1_c_list_model_db_objects.html" target="_top" xlink:title=" ">
<polygon fill="none" stroke="red" points="636,-300.5 636,-341.5 835,-341.5 835,-300.5 636,-300.5"/>
<text text-anchor="start" x="644" y="-329.5" font-family="Helvetica,sans-Serif" font-size="10.00">BlackGui::Models::CListModel</text>
<text text-anchor="start" x="644" y="-318.5" font-family="Helvetica,sans-Serif" font-size="10.00">DbObjects&lt; BlackMisc::CCountryList,</text>
<text text-anchor="middle" x="735.5" y="-307.5" font-family="Helvetica,sans-Serif" font-size="10.00"> QString, true &gt;</text>
</a>
</g>
</g>
<!-- Node49&#45;&gt;Node58 -->
<g id="edge43" class="edge">
<title>Node49&#45;&gt;Node58</title>
<path fill="none" stroke="midnightblue" d="M576.89,-321C596.06,-321 616.41,-321 635.89,-321"/>
<polygon fill="midnightblue" stroke="midnightblue" points="576.67,-317.5 566.67,-321 576.67,-324.5 576.67,-317.5"/>
</g>
<!-- Node60 -->
<g id="node45" class="node">
<title>Node60</title>
<g id="a_node45"><a xlink:href="class_black_gui_1_1_models_1_1_c_list_model_db_objects.html" target="_top" xlink:title=" ">
<polygon fill="none" stroke="red" points="646,-240.5 646,-281.5 825,-281.5 825,-240.5 646,-240.5"/>
<text text-anchor="start" x="654" y="-269.5" font-family="Helvetica,sans-Serif" font-size="10.00">BlackGui::Models::CListModel</text>
<text text-anchor="start" x="654" y="-258.5" font-family="Helvetica,sans-Serif" font-size="10.00">DbObjects&lt; BlackMisc::Aviation</text>
<text text-anchor="middle" x="735.5" y="-247.5" font-family="Helvetica,sans-Serif" font-size="10.00">::CAirlineIcaoCodeList, int, true &gt;</text>
</a>
</g>
</g>
<!-- Node49&#45;&gt;Node60 -->
<g id="edge44" class="edge">
<title>Node49&#45;&gt;Node60</title>
<path fill="none" stroke="midnightblue" d="M559,-303.55C587.44,-296.65 620.32,-288.68 649.89,-281.51"/>
<polygon fill="midnightblue" stroke="midnightblue" points="558.03,-300.18 549.14,-305.94 559.68,-306.98 558.03,-300.18"/>
</g>
<!-- Node62 -->
<g id="node46" class="node">
<title>Node62</title>
<g id="a_node46"><a xlink:href="class_black_gui_1_1_models_1_1_c_list_model_db_objects.html" target="_top" xlink:title=" ">
<polygon fill="none" stroke="red" points="644.5,-180.5 644.5,-221.5 826.5,-221.5 826.5,-180.5 644.5,-180.5"/>
<text text-anchor="start" x="652.5" y="-209.5" font-family="Helvetica,sans-Serif" font-size="10.00">BlackGui::Models::CListModel</text>
<text text-anchor="start" x="652.5" y="-198.5" font-family="Helvetica,sans-Serif" font-size="10.00">DbObjects&lt; BlackMisc::Aviation</text>
<text text-anchor="middle" x="735.5" y="-187.5" font-family="Helvetica,sans-Serif" font-size="10.00">::CAircraftIcaoCodeList, int, true &gt;</text>
</a>
</g>
</g>
<!-- Node49&#45;&gt;Node62 -->
<g id="edge45" class="edge">
<title>Node49&#45;&gt;Node62</title>
<path fill="none" stroke="midnightblue" d="M513.42,-299.55C539.57,-279.28 581.46,-249.31 622,-231 629.74,-227.5 637.96,-224.35 646.31,-221.52"/>
<polygon fill="midnightblue" stroke="midnightblue" points="511.21,-296.84 505.5,-305.77 515.53,-302.34 511.21,-296.84"/>
</g>
<!-- Node64 -->
<g id="node47" class="node">
<title>Node64</title>
<g id="a_node47"><a xlink:href="class_black_gui_1_1_models_1_1_c_list_model_db_objects.html" target="_top" xlink:title=" ">
<polygon fill="none" stroke="red" points="649,-120.5 649,-161.5 822,-161.5 822,-120.5 649,-120.5"/>
<text text-anchor="start" x="657" y="-149.5" font-family="Helvetica,sans-Serif" font-size="10.00">BlackGui::Models::CListModel</text>
<text text-anchor="start" x="657" y="-138.5" font-family="Helvetica,sans-Serif" font-size="10.00">DbObjects&lt; BlackMisc::Aviation</text>
<text text-anchor="middle" x="735.5" y="-127.5" font-family="Helvetica,sans-Serif" font-size="10.00">::CLiveryList, int, true &gt;</text>
</a>
</g>
</g>
<!-- Node49&#45;&gt;Node64 -->
<g id="edge46" class="edge">
<title>Node49&#45;&gt;Node64</title>
<path fill="none" stroke="midnightblue" d="M502.06,-296.91C524.2,-263.52 568.74,-203.6 622,-171 630.28,-165.93 639.4,-161.71 648.77,-158.2"/>
<polygon fill="midnightblue" stroke="midnightblue" points="498.94,-295.29 496.42,-305.58 504.8,-299.11 498.94,-295.29"/>
</g>
<!-- Node66 -->
<g id="node48" class="node">
<title>Node66</title>
<g id="a_node48"><a xlink:href="class_black_gui_1_1_models_1_1_c_list_model_db_objects.html" target="_top" xlink:title=" ">
<polygon fill="none" stroke="red" points="644.5,-60.5 644.5,-101.5 826.5,-101.5 826.5,-60.5 644.5,-60.5"/>
<text text-anchor="start" x="652.5" y="-89.5" font-family="Helvetica,sans-Serif" font-size="10.00">BlackGui::Models::CListModel</text>
<text text-anchor="start" x="652.5" y="-78.5" font-family="Helvetica,sans-Serif" font-size="10.00">DbObjects&lt; BlackMisc::Aviation</text>
<text text-anchor="middle" x="735.5" y="-67.5" font-family="Helvetica,sans-Serif" font-size="10.00">::CAircraftCategoryList, int, true &gt;</text>
</a>
</g>
</g>
<!-- Node49&#45;&gt;Node66 -->
<g id="edge47" class="edge">
<title>Node49&#45;&gt;Node66</title>
<path fill="none" stroke="midnightblue" d="M495.85,-296.45C513.04,-252.32 555.23,-159.68 622,-111 628.86,-106 636.5,-101.83 644.47,-98.36"/>
<polygon fill="midnightblue" stroke="midnightblue" points="492.56,-295.24 492.29,-305.83 499.11,-297.73 492.56,-295.24"/>
</g>
<!-- Node68 -->
<g id="node49" class="node">
<title>Node68</title>
<g id="a_node49"><a xlink:href="class_black_gui_1_1_models_1_1_c_list_model_timestamp_objects.html" target="_top" xlink:title=" ">
<polygon fill="none" stroke="red" points="650.5,-0.5 650.5,-41.5 820.5,-41.5 820.5,-0.5 650.5,-0.5"/>
<text text-anchor="start" x="658.5" y="-29.5" font-family="Helvetica,sans-Serif" font-size="10.00">BlackGui::Models::CListModel</text>
<text text-anchor="start" x="658.5" y="-18.5" font-family="Helvetica,sans-Serif" font-size="10.00">TimestampObjects&lt; BlackMisc</text>
<text text-anchor="middle" x="735.5" y="-7.5" font-family="Helvetica,sans-Serif" font-size="10.00">::CStatusMessageList, true &gt;</text>
</a>
</g>
</g>
<!-- Node49&#45;&gt;Node68 -->
<g id="edge48" class="edge">
<title>Node49&#45;&gt;Node68</title>
<path fill="none" stroke="midnightblue" d="M492.29,-295.69C504.84,-242.06 541.62,-116.52 622,-51 630.38,-44.17 640.17,-38.88 650.42,-34.79"/>
<polygon fill="midnightblue" stroke="midnightblue" points="488.81,-295.18 490.03,-305.71 495.64,-296.72 488.81,-295.18"/>
</g>
</g>
</svg>
