<?xml version="1.0" encoding="UTF-8" standalone="no"?>
<!DOCTYPE svg PUBLIC "-//W3C//DTD SVG 1.1//EN"
 "http://www.w3.org/Graphics/SVG/1.1/DTD/svg11.dtd">
<!-- Generated by graphviz version 2.43.0 (0)
 -->
<!-- Title: BlackMisc::CStatusMessage Pages: 1 -->
<svg width="773pt" height="568pt"
 viewBox="0.00 0.00 773.00 567.50" xmlns="http://www.w3.org/2000/svg" xmlns:xlink="http://www.w3.org/1999/xlink">
<g id="graph0" class="graph" transform="scale(1 1) rotate(0) translate(4 563.5)">
<title>BlackMisc::CStatusMessage</title>
<!-- Node1 -->
<g id="node1" class="node">
<title>Node1</title>
<g id="a_node1"><a xlink:title="Streamable status message, e.g.">
<polygon fill="#bfbfbf" stroke="black" points="612,-204 612,-223 765,-223 765,-204 612,-204"/>
<text text-anchor="middle" x="688.5" y="-211" font-family="Helvetica,sans-Serif" font-size="10.00">BlackMisc::CStatusMessage</text>
</a>
</g>
</g>
<!-- Node2 -->
<g id="node2" class="node">
<title>Node2</title>
<g id="a_node2"><a xlink:href="class_black_misc_1_1_c_value_object.html" target="_top" xlink:title=" ">
<polygon fill="none" stroke="black" points="427,-269.5 427,-299.5 564,-299.5 564,-269.5 427,-269.5"/>
<text text-anchor="start" x="435" y="-287.5" font-family="Helvetica,sans-Serif" font-size="10.00">BlackMisc::CValueObject</text>
<text text-anchor="middle" x="495.5" y="-276.5" font-family="Helvetica,sans-Serif" font-size="10.00">&lt; CStatusMessage &gt;</text>
</a>
</g>
</g>
<!-- Node2&#45;&gt;Node1 -->
<g id="edge1" class="edge">
<title>Node2&#45;&gt;Node1</title>
<path fill="none" stroke="midnightblue" d="M559.04,-266.3C564.8,-264.42 570.53,-262.47 576,-260.5 608.21,-248.89 644.61,-233.01 666.8,-223"/>
<polygon fill="midnightblue" stroke="midnightblue" points="557.82,-263.02 549.36,-269.4 559.95,-269.69 557.82,-263.02"/>
</g>
<!-- Node3 -->
<g id="node3" class="node">
<title>Node3</title>
<g id="a_node3"><a xlink:href="class_black_misc_1_1_c_empty.html" target="_top" xlink:title="Default base class for CValueObject.">
<polygon fill="none" stroke="black" points="242,-540 242,-559 352,-559 352,-540 242,-540"/>
<text text-anchor="middle" x="297" y="-547" font-family="Helvetica,sans-Serif" font-size="10.00">BlackMisc::CEmpty</text>
</a>
</g>
</g>
<!-- Node3&#45;&gt;Node2 -->
<g id="edge2" class="edge">
<title>Node3&#45;&gt;Node2</title>
<path fill="none" stroke="midnightblue" d="M361.97,-540.44C368.1,-537.87 373.92,-534.62 379,-530.5 455.79,-468.26 484.25,-343.14 492.05,-299.74"/>
<polygon fill="midnightblue" stroke="midnightblue" points="360.37,-537.29 352.12,-543.94 362.72,-543.89 360.37,-537.29"/>
</g>
<!-- Node4 -->
<g id="node4" class="node">
<title>Node4</title>
<g id="a_node4"><a xlink:href="class_black_misc_1_1_mixin_1_1_meta_type.html" target="_top" xlink:title="CRTP class template from which a derived class can inherit common methods dealing with the metatype o...">
<polygon fill="none" stroke="black" points="221,-490.5 221,-520.5 373,-520.5 373,-490.5 221,-490.5"/>
<text text-anchor="start" x="229" y="-508.5" font-family="Helvetica,sans-Serif" font-size="10.00">BlackMisc::Mixin::MetaType</text>
<text text-anchor="middle" x="297" y="-497.5" font-family="Helvetica,sans-Serif" font-size="10.00">&lt; Derived &gt;</text>
</a>
</g>
</g>
<!-- Node4&#45;&gt;Node2 -->
<g id="edge3" class="edge">
<title>Node4&#45;&gt;Node2</title>
<path fill="none" stroke="midnightblue" d="M373.43,-485.45C375.36,-484.21 377.22,-482.9 379,-481.5 442.52,-431.76 478.04,-336.61 489.93,-299.68"/>
<polygon fill="midnightblue" stroke="midnightblue" points="371.63,-482.45 364.63,-490.4 375.06,-488.55 371.63,-482.45"/>
</g>
<!-- Node5 -->
<g id="node5" class="node">
<title>Node5</title>
<g id="a_node5"><a xlink:href="class_black_misc_1_1_mixin_1_1_hash_by_meta_class.html" target="_top" xlink:title="CRTP class template from which a derived class can inherit common methods dealing with hashing instan...">
<polygon fill="none" stroke="black" points="225.5,-441.5 225.5,-471.5 368.5,-471.5 368.5,-441.5 225.5,-441.5"/>
<text text-anchor="start" x="233.5" y="-459.5" font-family="Helvetica,sans-Serif" font-size="10.00">BlackMisc::Mixin::HashBy</text>
<text text-anchor="middle" x="297" y="-448.5" font-family="Helvetica,sans-Serif" font-size="10.00">MetaClass&lt; Derived &gt;</text>
</a>
</g>
</g>
<!-- Node5&#45;&gt;Node2 -->
<g id="edge4" class="edge">
<title>Node5&#45;&gt;Node2</title>
<path fill="none" stroke="midnightblue" d="M371.54,-437.06C374.12,-435.64 376.61,-434.13 379,-432.5 431.52,-396.71 471.05,-329.57 486.9,-299.61"/>
<polygon fill="midnightblue" stroke="midnightblue" points="369.94,-433.95 362.5,-441.5 373.02,-440.23 369.94,-433.95"/>
</g>
<!-- Node6 -->
<g id="node6" class="node">
<title>Node6</title>
<g id="a_node6"><a xlink:href="class_black_misc_1_1_mixin_1_1_d_bus_by_meta_class.html" target="_top" xlink:title="CRTP class template from which a derived class can inherit common methods dealing with marshalling in...">
<polygon fill="none" stroke="black" points="219,-392.5 219,-422.5 375,-422.5 375,-392.5 219,-392.5"/>
<text text-anchor="start" x="227" y="-410.5" font-family="Helvetica,sans-Serif" font-size="10.00">BlackMisc::Mixin::DBusBy</text>
<text text-anchor="middle" x="297" y="-399.5" font-family="Helvetica,sans-Serif" font-size="10.00">MetaClass&lt; Derived, Tags &gt;</text>
</a>
</g>
</g>
<!-- Node6&#45;&gt;Node2 -->
<g id="edge5" class="edge">
<title>Node6&#45;&gt;Node2</title>
<path fill="none" stroke="midnightblue" d="M368.76,-388.51C372.28,-386.96 375.71,-385.29 379,-383.5 420.52,-360.9 460.45,-321.51 480.71,-299.85"/>
<polygon fill="midnightblue" stroke="midnightblue" points="367.22,-385.36 359.28,-392.38 369.86,-391.85 367.22,-385.36"/>
</g>
<!-- Node7 -->
<g id="node7" class="node">
<title>Node7</title>
<g id="a_node7"><a xlink:href="class_black_misc_1_1_mixin_1_1_d_bus_operators.html" target="_top" xlink:title=" ">
<polygon fill="none" stroke="black" points="0,-392.5 0,-422.5 179,-422.5 179,-392.5 0,-392.5"/>
<text text-anchor="start" x="8" y="-410.5" font-family="Helvetica,sans-Serif" font-size="10.00">BlackMisc::Mixin::DBusOperators</text>
<text text-anchor="middle" x="89.5" y="-399.5" font-family="Helvetica,sans-Serif" font-size="10.00">&lt; Derived, Tags... &gt;</text>
</a>
</g>
</g>
<!-- Node7&#45;&gt;Node6 -->
<g id="edge6" class="edge">
<title>Node7&#45;&gt;Node6</title>
<path fill="none" stroke="midnightblue" d="M189.44,-407.5C199.35,-407.5 209.31,-407.5 218.95,-407.5"/>
<polygon fill="midnightblue" stroke="midnightblue" points="189.14,-404 179.14,-407.5 189.14,-411 189.14,-404"/>
</g>
<!-- Node8 -->
<g id="node8" class="node">
<title>Node8</title>
<g id="a_node8"><a xlink:href="class_black_misc_1_1_mixin_1_1_data_stream_by_meta_class.html" target="_top" xlink:title="CRTP class template to generate QDataStream marshalling methods using CMetaClass.">
<polygon fill="none" stroke="black" points="215,-343.5 215,-373.5 379,-373.5 379,-343.5 215,-343.5"/>
<text text-anchor="start" x="223" y="-361.5" font-family="Helvetica,sans-Serif" font-size="10.00">BlackMisc::Mixin::DataStream</text>
<text text-anchor="middle" x="297" y="-350.5" font-family="Helvetica,sans-Serif" font-size="10.00">ByMetaClass&lt; Derived &gt;</text>
</a>
</g>
</g>
<!-- Node8&#45;&gt;Node2 -->
<g id="edge7" class="edge">
<title>Node8&#45;&gt;Node2</title>
<path fill="none" stroke="midnightblue" d="M362.03,-340.31C367.8,-338.44 373.52,-336.49 379,-334.5 407.75,-324.06 439.6,-310.08 462.56,-299.56"/>
<polygon fill="midnightblue" stroke="midnightblue" points="360.8,-337.03 352.32,-343.39 362.91,-343.7 360.8,-337.03"/>
</g>
<!-- Node9 -->
<g id="node9" class="node">
<title>Node9</title>
<g id="a_node9"><a xlink:href="class_black_misc_1_1_mixin_1_1_data_stream_operators.html" target="_top" xlink:title="CRTP class template to generate non&#45;member QDataStream streaming operators.">
<polygon fill="none" stroke="black" points="7.5,-343.5 7.5,-373.5 171.5,-373.5 171.5,-343.5 7.5,-343.5"/>
<text text-anchor="start" x="15.5" y="-361.5" font-family="Helvetica,sans-Serif" font-size="10.00">BlackMisc::Mixin::DataStream</text>
<text text-anchor="middle" x="89.5" y="-350.5" font-family="Helvetica,sans-Serif" font-size="10.00">Operators&lt; Derived &gt;</text>
</a>
</g>
</g>
<!-- Node9&#45;&gt;Node8 -->
<g id="edge8" class="edge">
<title>Node9&#45;&gt;Node8</title>
<path fill="none" stroke="midnightblue" d="M181.74,-358.5C192.72,-358.5 203.87,-358.5 214.7,-358.5"/>
<polygon fill="midnightblue" stroke="midnightblue" points="181.72,-355 171.72,-358.5 181.72,-362 181.72,-355"/>
</g>
<!-- Node10 -->
<g id="node10" class="node">
<title>Node10</title>
<g id="a_node10"><a xlink:href="class_black_misc_1_1_mixin_1_1_json_by_meta_class.html" target="_top" xlink:title="CRTP class template from which a derived class can inherit common methods dealing with JSON by metatu...">
<polygon fill="none" stroke="black" points="228,-294.5 228,-324.5 366,-324.5 366,-294.5 228,-294.5"/>
<text text-anchor="start" x="236" y="-312.5" font-family="Helvetica,sans-Serif" font-size="10.00">BlackMisc::Mixin::JsonBy</text>
<text text-anchor="middle" x="297" y="-301.5" font-family="Helvetica,sans-Serif" font-size="10.00">MetaClass&lt; Derived &gt;</text>
</a>
</g>
</g>
<!-- Node10&#45;&gt;Node2 -->
<g id="edge9" class="edge">
<title>Node10&#45;&gt;Node2</title>
<path fill="none" stroke="midnightblue" d="M376.43,-299.52C393.09,-297.4 410.55,-295.18 426.78,-293.12"/>
<polygon fill="midnightblue" stroke="midnightblue" points="375.65,-296.09 366.17,-300.83 376.54,-303.04 375.65,-296.09"/>
</g>
<!-- Node11 -->
<g id="node11" class="node">
<title>Node11</title>
<g id="a_node11"><a xlink:href="class_black_misc_1_1_mixin_1_1_json_operators.html" target="_top" xlink:title="CRTP class template which will generate marshalling operators for a derived class with its own marsha...">
<polygon fill="none" stroke="black" points="3,-294.5 3,-324.5 176,-324.5 176,-294.5 3,-294.5"/>
<text text-anchor="start" x="11" y="-312.5" font-family="Helvetica,sans-Serif" font-size="10.00">BlackMisc::Mixin::JsonOperators</text>
<text text-anchor="middle" x="89.5" y="-301.5" font-family="Helvetica,sans-Serif" font-size="10.00">&lt; Derived &gt;</text>
</a>
</g>
</g>
<!-- Node11&#45;&gt;Node10 -->
<g id="edge10" class="edge">
<title>Node11&#45;&gt;Node10</title>
<path fill="none" stroke="midnightblue" d="M186.35,-309.5C200.41,-309.5 214.65,-309.5 227.99,-309.5"/>
<polygon fill="midnightblue" stroke="midnightblue" points="186.16,-306 176.16,-309.5 186.16,-313 186.16,-306"/>
</g>
<!-- Node12 -->
<g id="node12" class="node">
<title>Node12</title>
<g id="a_node12"><a xlink:href="class_black_misc_1_1_mixin_1_1_equals_by_meta_class.html" target="_top" xlink:title="CRTP class template from which a derived class can inherit operator== implemented by metaclass.">
<polygon fill="none" stroke="black" points="226.5,-245.5 226.5,-275.5 367.5,-275.5 367.5,-245.5 226.5,-245.5"/>
<text text-anchor="start" x="234.5" y="-263.5" font-family="Helvetica,sans-Serif" font-size="10.00">BlackMisc::Mixin::Equals</text>
<text text-anchor="middle" x="297" y="-252.5" font-family="Helvetica,sans-Serif" font-size="10.00">ByMetaClass&lt; Derived &gt;</text>
</a>
</g>
</g>
<!-- Node12&#45;&gt;Node2 -->
<g id="edge11" class="edge">
<title>Node12&#45;&gt;Node2</title>
<path fill="none" stroke="midnightblue" d="M377.59,-270.22C393.87,-272.21 410.86,-274.28 426.69,-276.22"/>
<polygon fill="midnightblue" stroke="midnightblue" points="377.91,-266.73 367.56,-269 377.06,-273.68 377.91,-266.73"/>
</g>
<!-- Node13 -->
<g id="node13" class="node">
<title>Node13</title>
<g id="a_node13"><a xlink:href="class_black_misc_1_1_mixin_1_1_less_than_by_meta_class.html" target="_top" xlink:title="CRTP class template from which a derived class can inherit operator&lt; implemented by metaclass.">
<polygon fill="none" stroke="black" points="221.5,-196.5 221.5,-226.5 372.5,-226.5 372.5,-196.5 221.5,-196.5"/>
<text text-anchor="start" x="229.5" y="-214.5" font-family="Helvetica,sans-Serif" font-size="10.00">BlackMisc::Mixin::LessThan</text>
<text text-anchor="middle" x="297" y="-203.5" font-family="Helvetica,sans-Serif" font-size="10.00">ByMetaClass&lt; Derived &gt;</text>
</a>
</g>
</g>
<!-- Node13&#45;&gt;Node2 -->
<g id="edge12" class="edge">
<title>Node13&#45;&gt;Node2</title>
<path fill="none" stroke="midnightblue" d="M363.67,-229.97C368.93,-231.99 374.1,-234.17 379,-236.5 396.37,-244.75 397.61,-252.3 415,-260.5 422.04,-263.82 429.65,-266.81 437.27,-269.45"/>
<polygon fill="midnightblue" stroke="midnightblue" points="364.74,-226.64 354.14,-226.51 362.34,-233.22 364.74,-226.64"/>
</g>
<!-- Node14 -->
<g id="node14" class="node">
<title>Node14</title>
<g id="a_node14"><a xlink:href="class_black_misc_1_1_mixin_1_1_compare_by_meta_class.html" target="_top" xlink:title="CRTP class template from which a derived class can inherit non&#45;member compare() implemented by metacl...">
<polygon fill="none" stroke="black" points="222.5,-147.5 222.5,-177.5 371.5,-177.5 371.5,-147.5 222.5,-147.5"/>
<text text-anchor="start" x="230.5" y="-165.5" font-family="Helvetica,sans-Serif" font-size="10.00">BlackMisc::Mixin::Compare</text>
<text text-anchor="middle" x="297" y="-154.5" font-family="Helvetica,sans-Serif" font-size="10.00">ByMetaClass&lt; Derived &gt;</text>
</a>
</g>
</g>
<!-- Node14&#45;&gt;Node2 -->
<g id="edge13" class="edge">
<title>Node14&#45;&gt;Node2</title>
<path fill="none" stroke="midnightblue" d="M372.81,-182.81C374.97,-184.27 377.04,-185.83 379,-187.5 406.53,-210.97 387.4,-237.11 415,-260.5 419.07,-263.95 423.62,-266.9 428.44,-269.43"/>
<polygon fill="midnightblue" stroke="midnightblue" points="374.51,-179.75 364.12,-177.7 370.96,-185.79 374.51,-179.75"/>
</g>
<!-- Node15 -->
<g id="node15" class="node">
<title>Node15</title>
<g id="a_node15"><a xlink:href="class_black_misc_1_1_mixin_1_1_string.html" target="_top" xlink:title="CRTP class template from which a derived class can inherit string streaming operations.">
<polygon fill="none" stroke="black" points="230,-98.5 230,-128.5 364,-128.5 364,-98.5 230,-98.5"/>
<text text-anchor="start" x="238" y="-116.5" font-family="Helvetica,sans-Serif" font-size="10.00">BlackMisc::Mixin::String</text>
<text text-anchor="middle" x="297" y="-105.5" font-family="Helvetica,sans-Serif" font-size="10.00">&lt; Derived &gt;</text>
</a>
</g>
</g>
<!-- Node15&#45;&gt;Node2 -->
<g id="edge14" class="edge">
<title>Node15&#45;&gt;Node2</title>
<path fill="none" stroke="midnightblue" d="M372.9,-133.16C375.05,-134.8 377.1,-136.58 379,-138.5 418.73,-178.72 375.15,-220.4 415,-260.5 418.46,-263.98 422.4,-266.95 426.63,-269.5"/>
<polygon fill="midnightblue" stroke="midnightblue" points="374.37,-129.95 364.07,-127.48 370.59,-135.84 374.37,-129.95"/>
</g>
<!-- Node16 -->
<g id="node16" class="node">
<title>Node16</title>
<g id="a_node16"><a xlink:href="class_black_misc_1_1_mixin_1_1_index.html" target="_top" xlink:title="CRTP class template from which a derived class can inherit property indexing functions.">
<polygon fill="none" stroke="black" points="231,-49.5 231,-79.5 363,-79.5 363,-49.5 231,-49.5"/>
<text text-anchor="start" x="239" y="-67.5" font-family="Helvetica,sans-Serif" font-size="10.00">BlackMisc::Mixin::Index</text>
<text text-anchor="middle" x="297" y="-56.5" font-family="Helvetica,sans-Serif" font-size="10.00">&lt; Derived &gt;</text>
</a>
</g>
</g>
<!-- Node16&#45;&gt;Node2 -->
<g id="edge15" class="edge">
<title>Node16&#45;&gt;Node2</title>
<path fill="none" stroke="midnightblue" d="M372.15,-82.29C374.6,-84.16 376.9,-86.22 379,-88.5 431.92,-145.94 362.22,-202.93 415,-260.5 418.41,-264.22 422.37,-267.37 426.68,-270.04"/>
<polygon fill="midnightblue" stroke="midnightblue" points="373.57,-79.05 363.26,-76.64 369.82,-84.96 373.57,-79.05"/>
</g>
<!-- Node17 -->
<g id="node17" class="node">
<title>Node17</title>
<g id="a_node17"><a xlink:href="class_black_misc_1_1_mixin_1_1_icon.html" target="_top" xlink:title="CRTP class template from which a derived class can inherit icon&#45;related functions.">
<polygon fill="none" stroke="black" points="231.5,-0.5 231.5,-30.5 362.5,-30.5 362.5,-0.5 231.5,-0.5"/>
<text text-anchor="start" x="239.5" y="-18.5" font-family="Helvetica,sans-Serif" font-size="10.00">BlackMisc::Mixin::Icon</text>
<text text-anchor="middle" x="297" y="-7.5" font-family="Helvetica,sans-Serif" font-size="10.00">&lt; Derived, IconIndex &gt;</text>
</a>
</g>
</g>
<!-- Node17&#45;&gt;Node2 -->
<g id="edge16" class="edge">
<title>Node17&#45;&gt;Node2</title>
<path fill="none" stroke="midnightblue" d="M371.18,-32.34C374.02,-34.46 376.65,-36.83 379,-39.5 444.78,-114.18 349.41,-185.65 415,-260.5 418.42,-264.4 422.45,-267.68 426.85,-270.44"/>
<polygon fill="midnightblue" stroke="midnightblue" points="373.03,-29.37 362.7,-27.03 369.32,-35.3 373.03,-29.37"/>
</g>
<!-- Node18 -->
<g id="node18" class="node">
<title>Node18</title>
<g id="a_node18"><a xlink:href="class_black_misc_1_1_c_message_base.html" target="_top" xlink:title=" ">
<polygon fill="none" stroke="black" points="422.5,-220.5 422.5,-250.5 568.5,-250.5 568.5,-220.5 422.5,-220.5"/>
<text text-anchor="start" x="430.5" y="-238.5" font-family="Helvetica,sans-Serif" font-size="10.00">BlackMisc::CMessageBase</text>
<text text-anchor="middle" x="495.5" y="-227.5" font-family="Helvetica,sans-Serif" font-size="10.00">&lt; CStatusMessage &gt;</text>
</a>
</g>
</g>
<!-- Node18&#45;&gt;Node1 -->
<g id="edge17" class="edge">
<title>Node18&#45;&gt;Node1</title>
<path fill="none" stroke="midnightblue" d="M578.69,-226.03C589.65,-224.77 600.84,-223.48 611.69,-222.23"/>
<polygon fill="midnightblue" stroke="midnightblue" points="578.24,-222.56 568.71,-227.18 579.04,-229.52 578.24,-222.56"/>
</g>
<!-- Node19 -->
<g id="node19" class="node">
<title>Node19</title>
<g id="a_node19"><a xlink:href="class_black_misc_1_1_i_timestamp_based.html" target="_top" xlink:title="Entity with timestamp.">
<polygon fill="none" stroke="black" points="415,-182 415,-201 576,-201 576,-182 415,-182"/>
<text text-anchor="middle" x="495.5" y="-189" font-family="Helvetica,sans-Serif" font-size="10.00">BlackMisc::ITimestampBased</text>
</a>
</g>
</g>
<!-- Node19&#45;&gt;Node1 -->
<g id="edge18" class="edge">
<title>Node19&#45;&gt;Node1</title>
<path fill="none" stroke="midnightblue" d="M586.2,-201.83C594.83,-202.83 603.52,-203.83 611.99,-204.8"/>
<polygon fill="midnightblue" stroke="midnightblue" points="586.45,-198.34 576.12,-200.67 585.65,-205.29 586.45,-198.34"/>
</g>
<!-- Node20 -->
<g id="node20" class="node">
<title>Node20</title>
<g id="a_node20"><a xlink:href="class_black_misc_1_1_i_orderable.html" target="_top" xlink:title="Entity with order attribute (can be manually ordered in views)">
<polygon fill="none" stroke="black" points="434,-144 434,-163 557,-163 557,-144 434,-144"/>
<text text-anchor="middle" x="495.5" y="-151" font-family="Helvetica,sans-Serif" font-size="10.00">BlackMisc::IOrderable</text>
</a>
</g>
</g>
<!-- Node20&#45;&gt;Node1 -->
<g id="edge19" class="edge">
<title>Node20&#45;&gt;Node1</title>
<path fill="none" stroke="midnightblue" d="M550.45,-165.49C559.04,-167.66 567.8,-170.02 576,-172.5 606.8,-181.81 641.47,-195 663.85,-203.88"/>
<polygon fill="midnightblue" stroke="midnightblue" points="551.03,-162.02 540.49,-163.04 549.36,-168.82 551.03,-162.02"/>
</g>
</g>
</svg>
