<?xml version="1.0" encoding="UTF-8" standalone="no"?>
<!DOCTYPE svg PUBLIC "-//W3C//DTD SVG 1.1//EN"
 "http://www.w3.org/Graphics/SVG/1.1/DTD/svg11.dtd">
<!-- Generated by graphviz version 2.43.0 (0)
 -->
<!-- Title: BlackGui::Views::CViewBaseNonTemplate Pages: 1 -->
<svg width="1760pt" height="1146pt"
 viewBox="0.00 0.00 1760.00 1145.50" xmlns="http://www.w3.org/2000/svg" xmlns:xlink="http://www.w3.org/1999/xlink">
<g id="graph0" class="graph" transform="scale(1 1) rotate(0) translate(4 1141.5)">
<title>BlackGui::Views::CViewBaseNonTemplate</title>
<!-- Node1 -->
<g id="node1" class="node">
<title>Node1</title>
<g id="a_node1"><a xlink:title="Non templated base class, allows Q_OBJECT and signals / slots to be used.">
<polygon fill="#bfbfbf" stroke="black" points="1103,-727 1103,-757 1259,-757 1259,-727 1103,-727"/>
<text text-anchor="start" x="1111" y="-745" font-family="Helvetica,sans-Serif" font-size="10.00">BlackGui::Views::CViewBase</text>
<text text-anchor="middle" x="1181" y="-734" font-family="Helvetica,sans-Serif" font-size="10.00">NonTemplate</text>
</a>
</g>
</g>
<!-- Node12 -->
<g id="node12" class="node">
<title>Node12</title>
<g id="a_node12"><a xlink:href="class_black_gui_1_1_views_1_1_c_view_base.html" target="_top" xlink:title=" ">
<polygon fill="none" stroke="black" points="1309.5,-1107 1309.5,-1137 1495.5,-1137 1495.5,-1107 1309.5,-1107"/>
<text text-anchor="start" x="1317.5" y="-1125" font-family="Helvetica,sans-Serif" font-size="10.00">BlackGui::Views::CViewBase</text>
<text text-anchor="middle" x="1402.5" y="-1114" font-family="Helvetica,sans-Serif" font-size="10.00">&lt; Models::CWindLayerListModel &gt;</text>
</a>
</g>
</g>
<!-- Node1&#45;&gt;Node12 -->
<g id="edge11" class="edge">
<title>Node1&#45;&gt;Node12</title>
<path fill="none" stroke="midnightblue" d="M1181.99,-767.47C1183.44,-832.87 1196.77,-1007.85 1295,-1098 1299.33,-1101.97 1304.17,-1105.34 1309.34,-1108.18"/>
<polygon fill="midnightblue" stroke="midnightblue" points="1185.49,-767.21 1181.85,-757.26 1178.49,-767.31 1185.49,-767.21"/>
</g>
<!-- Node14 -->
<g id="node14" class="node">
<title>Node14</title>
<g id="a_node14"><a xlink:href="class_black_gui_1_1_views_1_1_c_view_base.html" target="_top" xlink:title=" ">
<polygon fill="none" stroke="black" points="1319.5,-1058 1319.5,-1088 1485.5,-1088 1485.5,-1058 1319.5,-1058"/>
<text text-anchor="start" x="1327.5" y="-1076" font-family="Helvetica,sans-Serif" font-size="10.00">BlackGui::Views::CViewBase</text>
<text text-anchor="middle" x="1402.5" y="-1065" font-family="Helvetica,sans-Serif" font-size="10.00">&lt; Models::CServerListModel &gt;</text>
</a>
</g>
</g>
<!-- Node1&#45;&gt;Node14 -->
<g id="edge13" class="edge">
<title>Node1&#45;&gt;Node14</title>
<path fill="none" stroke="midnightblue" d="M1183.48,-767.55C1188.35,-826.66 1208.95,-973.55 1295,-1049 1302.13,-1055.25 1310.53,-1059.97 1319.44,-1063.53"/>
<polygon fill="midnightblue" stroke="midnightblue" points="1186.95,-766.97 1182.72,-757.26 1179.97,-767.49 1186.95,-766.97"/>
</g>
<!-- Node16 -->
<g id="node16" class="node">
<title>Node16</title>
<g id="a_node16"><a xlink:href="class_black_gui_1_1_views_1_1_c_view_base.html" target="_top" xlink:title=" ">
<polygon fill="none" stroke="black" points="1319,-1009 1319,-1039 1486,-1039 1486,-1009 1319,-1009"/>
<text text-anchor="start" x="1327" y="-1027" font-family="Helvetica,sans-Serif" font-size="10.00">BlackGui::Views::CViewBase</text>
<text text-anchor="middle" x="1402.5" y="-1016" font-family="Helvetica,sans-Serif" font-size="10.00">&lt; Models::CAirportListModel &gt;</text>
</a>
</g>
</g>
<!-- Node1&#45;&gt;Node16 -->
<g id="edge15" class="edge">
<title>Node1&#45;&gt;Node16</title>
<path fill="none" stroke="midnightblue" d="M1185.4,-767.04C1193.84,-818.97 1220.7,-938.7 1295,-1000 1302.09,-1005.85 1310.32,-1010.34 1318.99,-1013.79"/>
<polygon fill="midnightblue" stroke="midnightblue" points="1188.84,-766.38 1183.87,-757.03 1181.92,-767.44 1188.84,-766.38"/>
</g>
<!-- Node18 -->
<g id="node18" class="node">
<title>Node18</title>
<g id="a_node18"><a xlink:href="class_black_gui_1_1_views_1_1_c_view_base.html" target="_top" xlink:title=" ">
<polygon fill="none" stroke="black" points="1298,-960 1298,-990 1507,-990 1507,-960 1298,-960"/>
<text text-anchor="start" x="1306" y="-978" font-family="Helvetica,sans-Serif" font-size="10.00">BlackGui::Views::CViewBase</text>
<text text-anchor="middle" x="1402.5" y="-967" font-family="Helvetica,sans-Serif" font-size="10.00">&lt; Models::CStatusMessageListModel &gt;</text>
</a>
</g>
</g>
<!-- Node1&#45;&gt;Node18 -->
<g id="edge17" class="edge">
<title>Node1&#45;&gt;Node18</title>
<path fill="none" stroke="midnightblue" d="M1188.16,-766.9C1200.46,-811.23 1232.45,-903.61 1295,-951 1299.53,-954.43 1304.46,-957.39 1309.64,-959.94"/>
<polygon fill="midnightblue" stroke="midnightblue" points="1191.53,-765.97 1185.57,-757.21 1184.77,-767.78 1191.53,-765.97"/>
</g>
<!-- Node20 -->
<g id="node20" class="node">
<title>Node20</title>
<g id="a_node20"><a xlink:href="class_black_gui_1_1_views_1_1_c_view_base.html" target="_top" xlink:title=" ">
<polygon fill="none" stroke="black" points="1308,-911 1308,-941 1497,-941 1497,-911 1308,-911"/>
<text text-anchor="start" x="1316" y="-929" font-family="Helvetica,sans-Serif" font-size="10.00">BlackGui::Views::CViewBase</text>
<text text-anchor="middle" x="1402.5" y="-918" font-family="Helvetica,sans-Serif" font-size="10.00">&lt; Models::CCloudLayerListModel &gt;</text>
</a>
</g>
</g>
<!-- Node1&#45;&gt;Node20 -->
<g id="edge19" class="edge">
<title>Node1&#45;&gt;Node20</title>
<path fill="none" stroke="midnightblue" d="M1192.32,-766.15C1208.71,-801.49 1244.13,-866.81 1295,-901 1300.75,-904.87 1307.03,-908.14 1313.57,-910.91"/>
<polygon fill="midnightblue" stroke="midnightblue" points="1195.51,-764.7 1188.2,-757.03 1189.12,-767.58 1195.51,-764.7"/>
</g>
<!-- Node22 -->
<g id="node22" class="node">
<title>Node22</title>
<g id="a_node22"><a xlink:href="class_black_gui_1_1_views_1_1_c_view_base.html" target="_top" xlink:title=" ">
<polygon fill="none" stroke="black" points="1311.5,-850.5 1311.5,-891.5 1493.5,-891.5 1493.5,-850.5 1311.5,-850.5"/>
<text text-anchor="start" x="1319.5" y="-879.5" font-family="Helvetica,sans-Serif" font-size="10.00">BlackGui::Views::CViewBase</text>
<text text-anchor="start" x="1319.5" y="-868.5" font-family="Helvetica,sans-Serif" font-size="10.00">&lt; Models::CTemperatureLayerList</text>
<text text-anchor="middle" x="1402.5" y="-857.5" font-family="Helvetica,sans-Serif" font-size="10.00">Model &gt;</text>
</a>
</g>
</g>
<!-- Node1&#45;&gt;Node22 -->
<g id="edge21" class="edge">
<title>Node1&#45;&gt;Node22</title>
<path fill="none" stroke="midnightblue" d="M1201.88,-764.5C1222.9,-786.98 1258.08,-820.98 1295,-841 1301.5,-844.53 1308.45,-847.67 1315.58,-850.47"/>
<polygon fill="midnightblue" stroke="midnightblue" points="1204.4,-762.07 1195.05,-757.08 1199.24,-766.81 1204.4,-762.07"/>
</g>
<!-- Node24 -->
<g id="node24" class="node">
<title>Node24</title>
<g id="a_node24"><a xlink:href="class_black_gui_1_1_views_1_1_c_view_base.html" target="_top" xlink:title=" ">
<polygon fill="none" stroke="black" points="1313.5,-801 1313.5,-831 1491.5,-831 1491.5,-801 1313.5,-801"/>
<text text-anchor="start" x="1321.5" y="-819" font-family="Helvetica,sans-Serif" font-size="10.00">BlackGui::Views::CViewBase</text>
<text text-anchor="middle" x="1402.5" y="-808" font-family="Helvetica,sans-Serif" font-size="10.00">&lt; Models::CIdentifierListModel &gt;</text>
</a>
</g>
</g>
<!-- Node1&#45;&gt;Node24 -->
<g id="edge23" class="edge">
<title>Node1&#45;&gt;Node24</title>
<path fill="none" stroke="midnightblue" d="M1221.16,-761.59C1242.57,-771.72 1269.8,-783.67 1295,-792 1304.99,-795.3 1315.65,-798.3 1326.23,-800.97"/>
<polygon fill="midnightblue" stroke="midnightblue" points="1222.59,-758.39 1212.06,-757.23 1219.57,-764.71 1222.59,-758.39"/>
</g>
<!-- Node26 -->
<g id="node26" class="node">
<title>Node26</title>
<g id="a_node26"><a xlink:href="class_black_gui_1_1_views_1_1_c_view_base.html" target="_top" xlink:title=" ">
<polygon fill="none" stroke="black" points="1299,-752 1299,-782 1506,-782 1506,-752 1299,-752"/>
<text text-anchor="start" x="1307" y="-770" font-family="Helvetica,sans-Serif" font-size="10.00">BlackGui::Views::CViewBase</text>
<text text-anchor="middle" x="1402.5" y="-759" font-family="Helvetica,sans-Serif" font-size="10.00">&lt; Models::CMatchingStatisticsModel &gt;</text>
</a>
</g>
</g>
<!-- Node1&#45;&gt;Node26 -->
<g id="edge25" class="edge">
<title>Node1&#45;&gt;Node26</title>
<path fill="none" stroke="midnightblue" d="M1269.13,-751.92C1278.88,-753.03 1288.88,-754.17 1298.79,-755.3"/>
<polygon fill="midnightblue" stroke="midnightblue" points="1269.41,-748.43 1259.08,-750.78 1268.62,-755.39 1269.41,-748.43"/>
</g>
<!-- Node28 -->
<g id="node28" class="node">
<title>Node28</title>
<g id="a_node28"><a xlink:href="class_black_gui_1_1_views_1_1_c_view_base.html" target="_top" xlink:title=" ">
<polygon fill="none" stroke="black" points="1295,-703 1295,-733 1510,-733 1510,-703 1295,-703"/>
<text text-anchor="start" x="1303" y="-721" font-family="Helvetica,sans-Serif" font-size="10.00">BlackGui::Views::CViewBase</text>
<text text-anchor="middle" x="1402.5" y="-710" font-family="Helvetica,sans-Serif" font-size="10.00">&lt; Models::CAudioDeviceInfoListModel &gt;</text>
</a>
</g>
</g>
<!-- Node1&#45;&gt;Node28 -->
<g id="edge27" class="edge">
<title>Node1&#45;&gt;Node28</title>
<path fill="none" stroke="midnightblue" d="M1269.27,-732.46C1277.71,-731.54 1286.34,-730.59 1294.94,-729.65"/>
<polygon fill="midnightblue" stroke="midnightblue" points="1268.64,-729.01 1259.08,-733.57 1269.4,-735.96 1268.64,-729.01"/>
</g>
<!-- Node30 -->
<g id="node30" class="node">
<title>Node30</title>
<g id="a_node30"><a xlink:href="class_black_gui_1_1_views_1_1_c_view_base.html" target="_top" xlink:title=" ">
<polygon fill="none" stroke="black" points="1298.5,-654 1298.5,-684 1506.5,-684 1506.5,-654 1298.5,-654"/>
<text text-anchor="start" x="1306.5" y="-672" font-family="Helvetica,sans-Serif" font-size="10.00">BlackGui::Views::CViewBase</text>
<text text-anchor="middle" x="1402.5" y="-661" font-family="Helvetica,sans-Serif" font-size="10.00">&lt; Models::CApplicationInfoListModel &gt;</text>
</a>
</g>
</g>
<!-- Node1&#45;&gt;Node30 -->
<g id="edge29" class="edge">
<title>Node1&#45;&gt;Node30</title>
<path fill="none" stroke="midnightblue" d="M1221.65,-722.63C1243.01,-712.76 1270.03,-701.15 1295,-693 1305.09,-689.71 1315.86,-686.71 1326.53,-684.03"/>
<polygon fill="midnightblue" stroke="midnightblue" points="1220.14,-719.47 1212.57,-726.88 1223.11,-725.81 1220.14,-719.47"/>
</g>
<!-- Node32 -->
<g id="node32" class="node">
<title>Node32</title>
<g id="a_node32"><a xlink:href="class_black_gui_1_1_views_1_1_c_view_base.html" target="_top" xlink:title=" ">
<polygon fill="none" stroke="black" points="1324,-605 1324,-635 1481,-635 1481,-605 1324,-605"/>
<text text-anchor="start" x="1332" y="-623" font-family="Helvetica,sans-Serif" font-size="10.00">BlackGui::Views::CViewBase</text>
<text text-anchor="middle" x="1402.5" y="-612" font-family="Helvetica,sans-Serif" font-size="10.00">&lt; Models::CUserListModel &gt;</text>
</a>
</g>
</g>
<!-- Node1&#45;&gt;Node32 -->
<g id="edge31" class="edge">
<title>Node1&#45;&gt;Node32</title>
<path fill="none" stroke="midnightblue" d="M1201.71,-719.33C1222.61,-696.77 1257.68,-662.86 1295,-644 1304.05,-639.43 1313.97,-635.71 1324,-632.71"/>
<polygon fill="midnightblue" stroke="midnightblue" points="1199.07,-717.04 1194.93,-726.79 1204.25,-721.74 1199.07,-717.04"/>
</g>
<!-- Node34 -->
<g id="node34" class="node">
<title>Node34</title>
<g id="a_node34"><a xlink:href="class_black_gui_1_1_views_1_1_c_view_base.html" target="_top" xlink:title=" ">
<polygon fill="none" stroke="black" points="1303,-556 1303,-586 1502,-586 1502,-556 1303,-556"/>
<text text-anchor="start" x="1311" y="-574" font-family="Helvetica,sans-Serif" font-size="10.00">BlackGui::Views::CViewBase</text>
<text text-anchor="middle" x="1402.5" y="-563" font-family="Helvetica,sans-Serif" font-size="10.00">&lt; Models::CNameVariantPairModel &gt;</text>
</a>
</g>
</g>
<!-- Node1&#45;&gt;Node34 -->
<g id="edge33" class="edge">
<title>Node1&#45;&gt;Node34</title>
<path fill="none" stroke="midnightblue" d="M1193.78,-717.68C1211.15,-684.52 1246.86,-625.76 1295,-595 1300.43,-591.53 1306.3,-588.56 1312.39,-586.02"/>
<polygon fill="midnightblue" stroke="midnightblue" points="1190.61,-716.2 1189.18,-726.7 1196.84,-719.38 1190.61,-716.2"/>
</g>
<!-- Node36 -->
<g id="node36" class="node">
<title>Node36</title>
<g id="a_node36"><a xlink:href="class_black_gui_1_1_views_1_1_c_view_base.html" target="_top" xlink:title=" ">
<polygon fill="none" stroke="black" points="1316,-507 1316,-537 1489,-537 1489,-507 1316,-507"/>
<text text-anchor="start" x="1324" y="-525" font-family="Helvetica,sans-Serif" font-size="10.00">BlackGui::Views::CViewBase</text>
<text text-anchor="middle" x="1402.5" y="-514" font-family="Helvetica,sans-Serif" font-size="10.00">&lt; Models::CCountryListModel &gt;</text>
</a>
</g>
</g>
<!-- Node1&#45;&gt;Node36 -->
<g id="edge35" class="edge">
<title>Node1&#45;&gt;Node36</title>
<path fill="none" stroke="midnightblue" d="M1189.08,-717.17C1202.45,-675.02 1235.52,-589.8 1295,-546 1301.33,-541.34 1308.41,-537.55 1315.83,-534.49"/>
<polygon fill="midnightblue" stroke="midnightblue" points="1185.68,-716.32 1186.11,-726.91 1192.38,-718.37 1185.68,-716.32"/>
</g>
<!-- Node38 -->
<g id="node38" class="node">
<title>Node38</title>
<g id="a_node38"><a xlink:href="class_black_gui_1_1_views_1_1_c_view_base.html" target="_top" xlink:title=" ">
<polygon fill="none" stroke="black" points="1321,-458 1321,-488 1484,-488 1484,-458 1321,-458"/>
<text text-anchor="start" x="1329" y="-476" font-family="Helvetica,sans-Serif" font-size="10.00">BlackGui::Views::CViewBase</text>
<text text-anchor="middle" x="1402.5" y="-465" font-family="Helvetica,sans-Serif" font-size="10.00">&lt; Models::CClientListModel &gt;</text>
</a>
</g>
</g>
<!-- Node1&#45;&gt;Node38 -->
<g id="edge37" class="edge">
<title>Node1&#45;&gt;Node38</title>
<path fill="none" stroke="midnightblue" d="M1186.07,-716.82C1195.54,-666.73 1223.92,-554.5 1295,-497 1302.66,-490.8 1311.61,-486.13 1320.99,-482.62"/>
<polygon fill="midnightblue" stroke="midnightblue" points="1182.6,-716.33 1184.28,-726.8 1189.49,-717.57 1182.6,-716.33"/>
</g>
<!-- Node40 -->
<g id="node40" class="node">
<title>Node40</title>
<g id="a_node40"><a xlink:href="class_black_gui_1_1_views_1_1_c_view_base.html" target="_top" xlink:title=" ">
<polygon fill="none" stroke="black" points="1303.5,-409 1303.5,-439 1501.5,-439 1501.5,-409 1303.5,-409"/>
<text text-anchor="start" x="1311.5" y="-427" font-family="Helvetica,sans-Serif" font-size="10.00">BlackGui::Views::CViewBase</text>
<text text-anchor="middle" x="1402.5" y="-416" font-family="Helvetica,sans-Serif" font-size="10.00">&lt; Models::CTextMessageListModel &gt;</text>
</a>
</g>
</g>
<!-- Node1&#45;&gt;Node40 -->
<g id="edge39" class="edge">
<title>Node1&#45;&gt;Node40</title>
<path fill="none" stroke="midnightblue" d="M1183.93,-716.71C1189.7,-659.53 1212.02,-519.72 1295,-448 1298.87,-444.65 1303.11,-441.75 1307.6,-439.22"/>
<polygon fill="midnightblue" stroke="midnightblue" points="1180.44,-716.41 1183.01,-726.69 1187.41,-717.06 1180.44,-716.41"/>
</g>
<!-- Node42 -->
<g id="node42" class="node">
<title>Node42</title>
<g id="a_node42"><a xlink:href="class_black_gui_1_1_views_1_1_c_view_base.html" target="_top" xlink:title="Base class for views.">
<polygon fill="none" stroke="red" points="1310,-221.5 1310,-240.5 1495,-240.5 1495,-221.5 1310,-221.5"/>
<text text-anchor="middle" x="1402.5" y="-228.5" font-family="Helvetica,sans-Serif" font-size="10.00">BlackGui::Views::CViewBase&lt; T &gt;</text>
</a>
</g>
</g>
<!-- Node1&#45;&gt;Node42 -->
<g id="edge41" class="edge">
<title>Node1&#45;&gt;Node42</title>
<path fill="none" stroke="midnightblue" d="M1188.04,-716.71C1202.36,-658.78 1241.25,-512.69 1295,-399 1325.26,-335 1375.35,-265.77 1394.11,-240.73"/>
<polygon fill="midnightblue" stroke="midnightblue" points="1184.55,-716.24 1185.58,-726.78 1191.35,-717.9 1184.55,-716.24"/>
</g>
<!-- Node2 -->
<g id="node2" class="node">
<title>Node2</title>
<g id="a_node2"><a xlink:href="class_black_gui_1_1_c_overlay_messages_table_view.html" target="_top" xlink:title="Using this class provides a QTableView with the overlay functionality already integrated.">
<polygon fill="none" stroke="black" points="907,-752 907,-782 1067,-782 1067,-752 907,-752"/>
<text text-anchor="start" x="915" y="-770" font-family="Helvetica,sans-Serif" font-size="10.00">BlackGui::COverlayMessages</text>
<text text-anchor="middle" x="987" y="-759" font-family="Helvetica,sans-Serif" font-size="10.00">TableView</text>
</a>
</g>
</g>
<!-- Node2&#45;&gt;Node1 -->
<g id="edge1" class="edge">
<title>Node2&#45;&gt;Node1</title>
<path fill="none" stroke="midnightblue" d="M1077.2,-755.38C1085.77,-754.27 1094.4,-753.15 1102.84,-752.05"/>
<polygon fill="midnightblue" stroke="midnightblue" points="1076.67,-751.93 1067.2,-756.69 1077.57,-758.87 1076.67,-751.93"/>
</g>
<!-- Node3 -->
<g id="node3" class="node">
<title>Node3</title>
<g id="a_node3"><a xlink:href="class_black_gui_1_1_c_overlay_messages_base.html" target="_top" xlink:title=" ">
<polygon fill="none" stroke="black" points="711,-752 711,-782 871,-782 871,-752 711,-752"/>
<text text-anchor="start" x="719" y="-770" font-family="Helvetica,sans-Serif" font-size="10.00">BlackGui::COverlayMessages</text>
<text text-anchor="middle" x="791" y="-759" font-family="Helvetica,sans-Serif" font-size="10.00">Base&lt; QTableView &gt;</text>
</a>
</g>
</g>
<!-- Node3&#45;&gt;Node2 -->
<g id="edge2" class="edge">
<title>Node3&#45;&gt;Node2</title>
<path fill="none" stroke="midnightblue" d="M881.44,-767C889.88,-767 898.41,-767 906.75,-767"/>
<polygon fill="midnightblue" stroke="midnightblue" points="881.19,-763.5 871.19,-767 881.19,-770.5 881.19,-763.5"/>
</g>
<!-- Node4 -->
<g id="node4" class="node">
<title>Node4</title>
<g id="a_node4"><a target="_parent" xlink:href="http://doc.qt.io/qt-5/qtableview.html" xlink:title=" ">
<polygon fill="none" stroke="black" points="601,-757.5 601,-776.5 675,-776.5 675,-757.5 601,-757.5"/>
<text text-anchor="middle" x="638" y="-764.5" font-family="Helvetica,sans-Serif" font-size="10.00">QTableView</text>
</a>
</g>
</g>
<!-- Node4&#45;&gt;Node3 -->
<g id="edge3" class="edge">
<title>Node4&#45;&gt;Node3</title>
<path fill="none" stroke="midnightblue" d="M685.44,-767C693.5,-767 702.09,-767 710.75,-767"/>
<polygon fill="midnightblue" stroke="midnightblue" points="685.17,-763.5 675.17,-767 685.17,-770.5 685.17,-763.5"/>
</g>
<!-- Node5 -->
<g id="node5" class="node">
<title>Node5</title>
<g id="a_node5"><a target="_parent" xlink:href="http://doc.qt.io/qt-5/qabstractitemview.html" xlink:title=" ">
<polygon fill="none" stroke="black" points="454,-757.5 454,-776.5 565,-776.5 565,-757.5 454,-757.5"/>
<text text-anchor="middle" x="509.5" y="-764.5" font-family="Helvetica,sans-Serif" font-size="10.00">QAbstractItemView</text>
</a>
</g>
</g>
<!-- Node5&#45;&gt;Node4 -->
<g id="edge4" class="edge">
<title>Node5&#45;&gt;Node4</title>
<path fill="none" stroke="midnightblue" d="M575.45,-767C584.16,-767 592.82,-767 600.78,-767"/>
<polygon fill="midnightblue" stroke="midnightblue" points="575.25,-763.5 565.25,-767 575.25,-770.5 575.25,-763.5"/>
</g>
<!-- Node6 -->
<g id="node6" class="node">
<title>Node6</title>
<g id="a_node6"><a target="_parent" xlink:href="http://doc.qt.io/qt-5/qabstractscrollarea.html" xlink:title=" ">
<polygon fill="none" stroke="black" points="304,-757.5 304,-776.5 418,-776.5 418,-757.5 304,-757.5"/>
<text text-anchor="middle" x="361" y="-764.5" font-family="Helvetica,sans-Serif" font-size="10.00">QAbstractScrollArea</text>
</a>
</g>
</g>
<!-- Node6&#45;&gt;Node5 -->
<g id="edge5" class="edge">
<title>Node6&#45;&gt;Node5</title>
<path fill="none" stroke="midnightblue" d="M428.42,-767C436.85,-767 445.41,-767 453.64,-767"/>
<polygon fill="midnightblue" stroke="midnightblue" points="428.22,-763.5 418.22,-767 428.22,-770.5 428.22,-763.5"/>
</g>
<!-- Node7 -->
<g id="node7" class="node">
<title>Node7</title>
<g id="a_node7"><a target="_parent" xlink:href="http://doc.qt.io/qt-5/qframe.html" xlink:title=" ">
<polygon fill="none" stroke="black" points="213,-757.5 213,-776.5 268,-776.5 268,-757.5 213,-757.5"/>
<text text-anchor="middle" x="240.5" y="-764.5" font-family="Helvetica,sans-Serif" font-size="10.00">QFrame</text>
</a>
</g>
</g>
<!-- Node7&#45;&gt;Node6 -->
<g id="edge6" class="edge">
<title>Node7&#45;&gt;Node6</title>
<path fill="none" stroke="midnightblue" d="M278.33,-767C286.45,-767 295.24,-767 303.93,-767"/>
<polygon fill="midnightblue" stroke="midnightblue" points="278.09,-763.5 268.09,-767 278.09,-770.5 278.09,-763.5"/>
</g>
<!-- Node8 -->
<g id="node8" class="node">
<title>Node8</title>
<g id="a_node8"><a target="_parent" xlink:href="http://doc.qt.io/qt-5/qwidget.html" xlink:title=" ">
<polygon fill="none" stroke="black" points="118,-757.5 118,-776.5 177,-776.5 177,-757.5 118,-757.5"/>
<text text-anchor="middle" x="147.5" y="-764.5" font-family="Helvetica,sans-Serif" font-size="10.00">QWidget</text>
</a>
</g>
</g>
<!-- Node8&#45;&gt;Node7 -->
<g id="edge7" class="edge">
<title>Node8&#45;&gt;Node7</title>
<path fill="none" stroke="midnightblue" d="M187.46,-767C195.99,-767 204.83,-767 212.75,-767"/>
<polygon fill="midnightblue" stroke="midnightblue" points="187.29,-763.5 177.29,-767 187.29,-770.5 187.29,-763.5"/>
</g>
<!-- Node9 -->
<g id="node9" class="node">
<title>Node9</title>
<g id="a_node9"><a target="_parent" xlink:href="http://doc.qt.io/qt-5/qobject.html" xlink:title=" ">
<polygon fill="none" stroke="black" points="13,-776.5 13,-795.5 69,-795.5 69,-776.5 13,-776.5"/>
<text text-anchor="middle" x="41" y="-783.5" font-family="Helvetica,sans-Serif" font-size="10.00">QObject</text>
</a>
</g>
</g>
<!-- Node9&#45;&gt;Node8 -->
<g id="edge8" class="edge">
<title>Node9&#45;&gt;Node8</title>
<path fill="none" stroke="midnightblue" d="M79.09,-779.26C91.88,-776.93 106,-774.36 117.99,-772.18"/>
<polygon fill="midnightblue" stroke="midnightblue" points="78.4,-775.83 69.18,-781.06 79.65,-782.71 78.4,-775.83"/>
</g>
<!-- Node10 -->
<g id="node10" class="node">
<title>Node10</title>
<g id="a_node10"><a target="_parent" xlink:href="http://doc.qt.io/qt-5/qpaintdevice.html" xlink:title=" ">
<polygon fill="none" stroke="black" points="0,-738.5 0,-757.5 82,-757.5 82,-738.5 0,-738.5"/>
<text text-anchor="middle" x="41" y="-745.5" font-family="Helvetica,sans-Serif" font-size="10.00">QPaintDevice</text>
</a>
</g>
</g>
<!-- Node10&#45;&gt;Node8 -->
<g id="edge9" class="edge">
<title>Node10&#45;&gt;Node8</title>
<path fill="none" stroke="midnightblue" d="M91.97,-757.09C100.8,-758.69 109.71,-760.31 117.69,-761.76"/>
<polygon fill="midnightblue" stroke="midnightblue" points="92.57,-753.64 82.1,-755.29 91.32,-760.52 92.57,-753.64"/>
</g>
<!-- Node11 -->
<g id="node11" class="node">
<title>Node11</title>
<g id="a_node11"><a xlink:href="class_black_gui_1_1_c_enable_for_dock_widget_info_area.html" target="_top" xlink:title="Helper class: If a component is residing in an dockable widget. This class provides access to its inf...">
<polygon fill="none" stroke="black" points="914,-703 914,-733 1060,-733 1060,-703 914,-703"/>
<text text-anchor="start" x="922" y="-721" font-family="Helvetica,sans-Serif" font-size="10.00">BlackGui::CEnableForDock</text>
<text text-anchor="middle" x="987" y="-710" font-family="Helvetica,sans-Serif" font-size="10.00">WidgetInfoArea</text>
</a>
</g>
</g>
<!-- Node11&#45;&gt;Node1 -->
<g id="edge10" class="edge">
<title>Node11&#45;&gt;Node1</title>
<path fill="none" stroke="midnightblue" d="M1070.28,-728.28C1081.05,-729.63 1092.05,-731.01 1102.74,-732.34"/>
<polygon fill="midnightblue" stroke="midnightblue" points="1070.4,-724.77 1060.04,-727 1069.53,-731.72 1070.4,-724.77"/>
</g>
<!-- Node13 -->
<g id="node13" class="node">
<title>Node13</title>
<g id="a_node13"><a xlink:href="class_black_gui_1_1_views_1_1_c_wind_layer_view.html" target="_top" xlink:title="Wind layer view.">
<polygon fill="none" stroke="black" points="1557,-1112.5 1557,-1131.5 1741,-1131.5 1741,-1112.5 1557,-1112.5"/>
<text text-anchor="middle" x="1649" y="-1119.5" font-family="Helvetica,sans-Serif" font-size="10.00">BlackGui::Views::CWindLayerView</text>
</a>
</g>
</g>
<!-- Node12&#45;&gt;Node13 -->
<g id="edge12" class="edge">
<title>Node12&#45;&gt;Node13</title>
<path fill="none" stroke="midnightblue" d="M1506.01,-1122C1522.87,-1122 1540.25,-1122 1556.81,-1122"/>
<polygon fill="midnightblue" stroke="midnightblue" points="1505.59,-1118.5 1495.59,-1122 1505.59,-1125.5 1505.59,-1118.5"/>
</g>
<!-- Node15 -->
<g id="node15" class="node">
<title>Node15</title>
<g id="a_node15"><a xlink:href="class_black_gui_1_1_views_1_1_c_server_view.html" target="_top" xlink:title="Network servers.">
<polygon fill="none" stroke="black" points="1567,-1063.5 1567,-1082.5 1731,-1082.5 1731,-1063.5 1567,-1063.5"/>
<text text-anchor="middle" x="1649" y="-1070.5" font-family="Helvetica,sans-Serif" font-size="10.00">BlackGui::Views::CServerView</text>
</a>
</g>
</g>
<!-- Node14&#45;&gt;Node15 -->
<g id="edge14" class="edge">
<title>Node14&#45;&gt;Node15</title>
<path fill="none" stroke="midnightblue" d="M1495.86,-1073C1519.24,-1073 1544.18,-1073 1566.95,-1073"/>
<polygon fill="midnightblue" stroke="midnightblue" points="1495.6,-1069.5 1485.6,-1073 1495.6,-1076.5 1495.6,-1069.5"/>
</g>
<!-- Node17 -->
<g id="node17" class="node">
<title>Node17</title>
<g id="a_node17"><a xlink:href="class_black_gui_1_1_views_1_1_c_airport_view.html" target="_top" xlink:title="Airports view.">
<polygon fill="none" stroke="black" points="1566.5,-1014.5 1566.5,-1033.5 1731.5,-1033.5 1731.5,-1014.5 1566.5,-1014.5"/>
<text text-anchor="middle" x="1649" y="-1021.5" font-family="Helvetica,sans-Serif" font-size="10.00">BlackGui::Views::CAirportView</text>
</a>
</g>
</g>
<!-- Node16&#45;&gt;Node17 -->
<g id="edge16" class="edge">
<title>Node16&#45;&gt;Node17</title>
<path fill="none" stroke="midnightblue" d="M1496.36,-1024C1519.32,-1024 1543.75,-1024 1566.14,-1024"/>
<polygon fill="midnightblue" stroke="midnightblue" points="1496.28,-1020.5 1486.28,-1024 1496.28,-1027.5 1496.28,-1020.5"/>
</g>
<!-- Node19 -->
<g id="node19" class="node">
<title>Node19</title>
<g id="a_node19"><a xlink:href="class_black_gui_1_1_views_1_1_c_status_message_view.html" target="_top" xlink:title="Status message view.">
<polygon fill="none" stroke="black" points="1579.5,-960 1579.5,-990 1718.5,-990 1718.5,-960 1579.5,-960"/>
<text text-anchor="start" x="1587.5" y="-978" font-family="Helvetica,sans-Serif" font-size="10.00">BlackGui::Views::CStatus</text>
<text text-anchor="middle" x="1649" y="-967" font-family="Helvetica,sans-Serif" font-size="10.00">MessageView</text>
</a>
</g>
</g>
<!-- Node18&#45;&gt;Node19 -->
<g id="edge18" class="edge">
<title>Node18&#45;&gt;Node19</title>
<path fill="none" stroke="midnightblue" d="M1517.22,-975C1538.4,-975 1559.93,-975 1579.24,-975"/>
<polygon fill="midnightblue" stroke="midnightblue" points="1517.19,-971.5 1507.19,-975 1517.19,-978.5 1517.19,-971.5"/>
</g>
<!-- Node21 -->
<g id="node21" class="node">
<title>Node21</title>
<g id="a_node21"><a xlink:href="class_black_gui_1_1_views_1_1_c_cloud_layer_view.html" target="_top" xlink:title="Airports view.">
<polygon fill="none" stroke="black" points="1555.5,-916.5 1555.5,-935.5 1742.5,-935.5 1742.5,-916.5 1555.5,-916.5"/>
<text text-anchor="middle" x="1649" y="-923.5" font-family="Helvetica,sans-Serif" font-size="10.00">BlackGui::Views::CCloudLayerView</text>
</a>
</g>
</g>
<!-- Node20&#45;&gt;Node21 -->
<g id="edge20" class="edge">
<title>Node20&#45;&gt;Node21</title>
<path fill="none" stroke="midnightblue" d="M1507.65,-926C1523.46,-926 1539.68,-926 1555.23,-926"/>
<polygon fill="midnightblue" stroke="midnightblue" points="1507.33,-922.5 1497.33,-926 1507.33,-929.5 1507.33,-922.5"/>
</g>
<!-- Node23 -->
<g id="node23" class="node">
<title>Node23</title>
<g id="a_node23"><a xlink:href="class_black_gui_1_1_views_1_1_c_temperature_layer_view.html" target="_top" xlink:title="Airports view.">
<polygon fill="none" stroke="black" points="1564,-856 1564,-886 1734,-886 1734,-856 1564,-856"/>
<text text-anchor="start" x="1572" y="-874" font-family="Helvetica,sans-Serif" font-size="10.00">BlackGui::Views::CTemperature</text>
<text text-anchor="middle" x="1649" y="-863" font-family="Helvetica,sans-Serif" font-size="10.00">LayerView</text>
</a>
</g>
</g>
<!-- Node22&#45;&gt;Node23 -->
<g id="edge22" class="edge">
<title>Node22&#45;&gt;Node23</title>
<path fill="none" stroke="midnightblue" d="M1503.57,-871C1523.6,-871 1544.45,-871 1563.87,-871"/>
<polygon fill="midnightblue" stroke="midnightblue" points="1503.5,-867.5 1493.5,-871 1503.5,-874.5 1503.5,-867.5"/>
</g>
<!-- Node25 -->
<g id="node25" class="node">
<title>Node25</title>
<g id="a_node25"><a xlink:href="class_black_gui_1_1_views_1_1_c_identifier_view.html" target="_top" xlink:title="Originator servers.">
<polygon fill="none" stroke="black" points="1561,-806.5 1561,-825.5 1737,-825.5 1737,-806.5 1561,-806.5"/>
<text text-anchor="middle" x="1649" y="-813.5" font-family="Helvetica,sans-Serif" font-size="10.00">BlackGui::Views::CIdentifierView</text>
</a>
</g>
</g>
<!-- Node24&#45;&gt;Node25 -->
<g id="edge24" class="edge">
<title>Node24&#45;&gt;Node25</title>
<path fill="none" stroke="midnightblue" d="M1501.86,-816C1521.32,-816 1541.62,-816 1560.68,-816"/>
<polygon fill="midnightblue" stroke="midnightblue" points="1501.77,-812.5 1491.77,-816 1501.77,-819.5 1501.77,-812.5"/>
</g>
<!-- Node27 -->
<g id="node27" class="node">
<title>Node27</title>
<g id="a_node27"><a xlink:href="class_black_gui_1_1_views_1_1_c_matching_statistics_view.html" target="_top" xlink:title="Matching statistics.">
<polygon fill="none" stroke="black" points="1572.5,-752 1572.5,-782 1725.5,-782 1725.5,-752 1572.5,-752"/>
<text text-anchor="start" x="1580.5" y="-770" font-family="Helvetica,sans-Serif" font-size="10.00">BlackGui::Views::CMatching</text>
<text text-anchor="middle" x="1649" y="-759" font-family="Helvetica,sans-Serif" font-size="10.00">StatisticsView</text>
</a>
</g>
</g>
<!-- Node26&#45;&gt;Node27 -->
<g id="edge26" class="edge">
<title>Node26&#45;&gt;Node27</title>
<path fill="none" stroke="midnightblue" d="M1516.33,-767C1535.33,-767 1554.64,-767 1572.4,-767"/>
<polygon fill="midnightblue" stroke="midnightblue" points="1516.13,-763.5 1506.13,-767 1516.13,-770.5 1516.13,-763.5"/>
</g>
<!-- Node29 -->
<g id="node29" class="node">
<title>Node29</title>
<g id="a_node29"><a xlink:href="class_black_gui_1_1_views_1_1_c_audio_device_info_view.html" target="_top" xlink:title="Audio device view.">
<polygon fill="none" stroke="black" points="1564,-703 1564,-733 1734,-733 1734,-703 1564,-703"/>
<text text-anchor="start" x="1572" y="-721" font-family="Helvetica,sans-Serif" font-size="10.00">BlackGui::Views::CAudioDevice</text>
<text text-anchor="middle" x="1649" y="-710" font-family="Helvetica,sans-Serif" font-size="10.00">InfoView</text>
</a>
</g>
</g>
<!-- Node28&#45;&gt;Node29 -->
<g id="edge28" class="edge">
<title>Node28&#45;&gt;Node29</title>
<path fill="none" stroke="midnightblue" d="M1520.2,-718C1534.94,-718 1549.78,-718 1563.87,-718"/>
<polygon fill="midnightblue" stroke="midnightblue" points="1520.03,-714.5 1510.03,-718 1520.03,-721.5 1520.03,-714.5"/>
</g>
<!-- Node31 -->
<g id="node31" class="node">
<title>Node31</title>
<g id="a_node31"><a xlink:href="class_black_gui_1_1_views_1_1_c_application_info_view.html" target="_top" xlink:title="Network servers.">
<polygon fill="none" stroke="black" points="1567.5,-654 1567.5,-684 1730.5,-684 1730.5,-654 1567.5,-654"/>
<text text-anchor="start" x="1575.5" y="-672" font-family="Helvetica,sans-Serif" font-size="10.00">BlackGui::Views::CApplication</text>
<text text-anchor="middle" x="1649" y="-661" font-family="Helvetica,sans-Serif" font-size="10.00">InfoView</text>
</a>
</g>
</g>
<!-- Node30&#45;&gt;Node31 -->
<g id="edge30" class="edge">
<title>Node30&#45;&gt;Node31</title>
<path fill="none" stroke="midnightblue" d="M1517.3,-669C1534.18,-669 1551.27,-669 1567.28,-669"/>
<polygon fill="midnightblue" stroke="midnightblue" points="1516.84,-665.5 1506.84,-669 1516.84,-672.5 1516.84,-665.5"/>
</g>
<!-- Node33 -->
<g id="node33" class="node">
<title>Node33</title>
<g id="a_node33"><a xlink:href="class_black_gui_1_1_views_1_1_c_user_view.html" target="_top" xlink:title="User view.">
<polygon fill="none" stroke="black" points="1571.5,-610.5 1571.5,-629.5 1726.5,-629.5 1726.5,-610.5 1571.5,-610.5"/>
<text text-anchor="middle" x="1649" y="-617.5" font-family="Helvetica,sans-Serif" font-size="10.00">BlackGui::Views::CUserView</text>
</a>
</g>
</g>
<!-- Node32&#45;&gt;Node33 -->
<g id="edge32" class="edge">
<title>Node32&#45;&gt;Node33</title>
<path fill="none" stroke="midnightblue" d="M1491.47,-620C1517.6,-620 1546,-620 1571.34,-620"/>
<polygon fill="midnightblue" stroke="midnightblue" points="1491.2,-616.5 1481.2,-620 1491.2,-623.5 1491.2,-616.5"/>
</g>
<!-- Node35 -->
<g id="node35" class="node">
<title>Node35</title>
<g id="a_node35"><a xlink:href="class_black_gui_1_1_views_1_1_c_name_variant_pair_view.html" target="_top" xlink:title="User view.">
<polygon fill="none" stroke="black" points="1563,-556 1563,-586 1735,-586 1735,-556 1563,-556"/>
<text text-anchor="start" x="1571" y="-574" font-family="Helvetica,sans-Serif" font-size="10.00">BlackGui::Views::CNameVariant</text>
<text text-anchor="middle" x="1649" y="-563" font-family="Helvetica,sans-Serif" font-size="10.00">PairView</text>
</a>
</g>
</g>
<!-- Node34&#45;&gt;Node35 -->
<g id="edge34" class="edge">
<title>Node34&#45;&gt;Node35</title>
<path fill="none" stroke="midnightblue" d="M1512.63,-571C1529.39,-571 1546.49,-571 1562.65,-571"/>
<polygon fill="midnightblue" stroke="midnightblue" points="1512.24,-567.5 1502.24,-571 1512.24,-574.5 1512.24,-567.5"/>
</g>
<!-- Node37 -->
<g id="node37" class="node">
<title>Node37</title>
<g id="a_node37"><a xlink:href="class_black_gui_1_1_views_1_1_c_country_view.html" target="_top" xlink:title="Countries.">
<polygon fill="none" stroke="black" points="1564,-512.5 1564,-531.5 1734,-531.5 1734,-512.5 1564,-512.5"/>
<text text-anchor="middle" x="1649" y="-519.5" font-family="Helvetica,sans-Serif" font-size="10.00">BlackGui::Views::CCountryView</text>
</a>
</g>
</g>
<!-- Node36&#45;&gt;Node37 -->
<g id="edge36" class="edge">
<title>Node36&#45;&gt;Node37</title>
<path fill="none" stroke="midnightblue" d="M1499.06,-522C1520.42,-522 1542.91,-522 1563.77,-522"/>
<polygon fill="midnightblue" stroke="midnightblue" points="1499.01,-518.5 1489.01,-522 1499.01,-525.5 1499.01,-518.5"/>
</g>
<!-- Node39 -->
<g id="node39" class="node">
<title>Node39</title>
<g id="a_node39"><a xlink:href="class_black_gui_1_1_views_1_1_c_client_view.html" target="_top" xlink:title="Client view.">
<polygon fill="none" stroke="black" points="1568.5,-463.5 1568.5,-482.5 1729.5,-482.5 1729.5,-463.5 1568.5,-463.5"/>
<text text-anchor="middle" x="1649" y="-470.5" font-family="Helvetica,sans-Serif" font-size="10.00">BlackGui::Views::CClientView</text>
</a>
</g>
</g>
<!-- Node38&#45;&gt;Node39 -->
<g id="edge38" class="edge">
<title>Node38&#45;&gt;Node39</title>
<path fill="none" stroke="midnightblue" d="M1494.49,-473C1518.68,-473 1544.63,-473 1568.18,-473"/>
<polygon fill="midnightblue" stroke="midnightblue" points="1494.24,-469.5 1484.24,-473 1494.24,-476.5 1494.24,-469.5"/>
</g>
<!-- Node41 -->
<g id="node41" class="node">
<title>Node41</title>
<g id="a_node41"><a xlink:href="class_black_gui_1_1_views_1_1_c_text_message_view.html" target="_top" xlink:title="Airports view.">
<polygon fill="none" stroke="black" points="1551,-420.5 1551,-439.5 1747,-439.5 1747,-420.5 1551,-420.5"/>
<text text-anchor="middle" x="1649" y="-427.5" font-family="Helvetica,sans-Serif" font-size="10.00">BlackGui::Views::CTextMessageView</text>
</a>
</g>
</g>
<!-- Node40&#45;&gt;Node41 -->
<g id="edge40" class="edge">
<title>Node40&#45;&gt;Node41</title>
<path fill="none" stroke="midnightblue" d="M1511.86,-426.66C1524.81,-426.98 1537.96,-427.3 1550.74,-427.61"/>
<polygon fill="midnightblue" stroke="midnightblue" points="1511.62,-423.15 1501.54,-426.41 1511.45,-430.15 1511.62,-423.15"/>
</g>
<!-- Node43 -->
<g id="node43" class="node">
<title>Node43</title>
<g id="a_node43"><a xlink:href="class_black_gui_1_1_views_1_1_c_view_with_callsign_objects.html" target="_top" xlink:title=" ">
<polygon fill="none" stroke="red" points="1560,-360.5 1560,-401.5 1738,-401.5 1738,-360.5 1560,-360.5"/>
<text text-anchor="start" x="1568" y="-389.5" font-family="Helvetica,sans-Serif" font-size="10.00">BlackGui::Views::CViewWith</text>
<text text-anchor="start" x="1568" y="-378.5" font-family="Helvetica,sans-Serif" font-size="10.00">CallsignObjects&lt; Models</text>
<text text-anchor="middle" x="1649" y="-367.5" font-family="Helvetica,sans-Serif" font-size="10.00">::CInterpolationSetupListModel &gt;</text>
</a>
</g>
</g>
<!-- Node42&#45;&gt;Node43 -->
<g id="edge42" class="edge">
<title>Node42&#45;&gt;Node43</title>
<path fill="none" stroke="midnightblue" d="M1419.23,-248.18C1443.85,-274.1 1494.07,-323.1 1546,-351 1552.5,-354.49 1559.47,-357.63 1566.58,-360.43"/>
<polygon fill="midnightblue" stroke="midnightblue" points="1421.55,-245.55 1412.16,-240.64 1416.44,-250.33 1421.55,-245.55"/>
</g>
<!-- Node45 -->
<g id="node44" class="node">
<title>Node45</title>
<g id="a_node44"><a xlink:href="class_black_gui_1_1_views_1_1_c_view_with_callsign_objects.html" target="_top" xlink:title=" ">
<polygon fill="none" stroke="red" points="1562.5,-300.5 1562.5,-341.5 1735.5,-341.5 1735.5,-300.5 1562.5,-300.5"/>
<text text-anchor="start" x="1570.5" y="-329.5" font-family="Helvetica,sans-Serif" font-size="10.00">BlackGui::Views::CViewWith</text>
<text text-anchor="start" x="1570.5" y="-318.5" font-family="Helvetica,sans-Serif" font-size="10.00">CallsignObjects&lt; Models</text>
<text text-anchor="middle" x="1649" y="-307.5" font-family="Helvetica,sans-Serif" font-size="10.00">::CSimulatedAircraftListModel &gt;</text>
</a>
</g>
</g>
<!-- Node42&#45;&gt;Node45 -->
<g id="edge43" class="edge">
<title>Node42&#45;&gt;Node45</title>
<path fill="none" stroke="midnightblue" d="M1433.88,-244.97C1462.47,-257.83 1506.64,-276.98 1546,-291 1555.13,-294.25 1564.8,-297.43 1574.41,-300.43"/>
<polygon fill="midnightblue" stroke="midnightblue" points="1435.01,-241.63 1424.45,-240.7 1432.12,-248.01 1435.01,-241.63"/>
</g>
<!-- Node47 -->
<g id="node45" class="node">
<title>Node47</title>
<g id="a_node45"><a xlink:href="class_black_gui_1_1_views_1_1_c_view_with_callsign_objects.html" target="_top" xlink:title=" ">
<polygon fill="none" stroke="red" points="1559.5,-240.5 1559.5,-281.5 1738.5,-281.5 1738.5,-240.5 1559.5,-240.5"/>
<text text-anchor="start" x="1567.5" y="-269.5" font-family="Helvetica,sans-Serif" font-size="10.00">BlackGui::Views::CViewWith</text>
<text text-anchor="start" x="1567.5" y="-258.5" font-family="Helvetica,sans-Serif" font-size="10.00">CallsignObjects&lt; BlackGui</text>
<text text-anchor="middle" x="1649" y="-247.5" font-family="Helvetica,sans-Serif" font-size="10.00">::Models::CAtcStationListModel &gt;</text>
</a>
</g>
</g>
<!-- Node42&#45;&gt;Node47 -->
<g id="edge44" class="edge">
<title>Node42&#45;&gt;Node47</title>
<path fill="none" stroke="midnightblue" d="M1491.25,-241.77C1513.42,-244.49 1537.23,-247.41 1559.44,-250.13"/>
<polygon fill="midnightblue" stroke="midnightblue" points="1491.55,-238.28 1481.2,-240.53 1490.7,-245.23 1491.55,-238.28"/>
</g>
<!-- Node49 -->
<g id="node46" class="node">
<title>Node49</title>
<g id="a_node46"><a xlink:href="class_black_gui_1_1_views_1_1_c_view_with_db_objects.html" target="_top" xlink:title=" ">
<polygon fill="none" stroke="red" points="1560,-180.5 1560,-221.5 1738,-221.5 1738,-180.5 1560,-180.5"/>
<text text-anchor="start" x="1568" y="-209.5" font-family="Helvetica,sans-Serif" font-size="10.00">BlackGui::Views::CViewWith</text>
<text text-anchor="start" x="1568" y="-198.5" font-family="Helvetica,sans-Serif" font-size="10.00">DbObjects&lt; Models::CAirlineIcao</text>
<text text-anchor="middle" x="1649" y="-187.5" font-family="Helvetica,sans-Serif" font-size="10.00">CodeListModel &gt;</text>
</a>
</g>
</g>
<!-- Node42&#45;&gt;Node49 -->
<g id="edge45" class="edge">
<title>Node42&#45;&gt;Node49</title>
<path fill="none" stroke="midnightblue" d="M1491.31,-220.23C1513.6,-217.49 1537.56,-214.55 1559.87,-211.81"/>
<polygon fill="midnightblue" stroke="midnightblue" points="1490.7,-216.77 1481.2,-221.47 1491.55,-223.72 1490.7,-216.77"/>
</g>
<!-- Node51 -->
<g id="node47" class="node">
<title>Node51</title>
<g id="a_node47"><a xlink:href="class_black_gui_1_1_views_1_1_c_view_with_db_objects.html" target="_top" xlink:title=" ">
<polygon fill="none" stroke="red" points="1546,-120.5 1546,-161.5 1752,-161.5 1752,-120.5 1546,-120.5"/>
<text text-anchor="start" x="1554" y="-149.5" font-family="Helvetica,sans-Serif" font-size="10.00">BlackGui::Views::CViewWith</text>
<text text-anchor="start" x="1554" y="-138.5" font-family="Helvetica,sans-Serif" font-size="10.00">DbObjects&lt; Models::CAircraftCategory</text>
<text text-anchor="middle" x="1649" y="-127.5" font-family="Helvetica,sans-Serif" font-size="10.00">ListModel &gt;</text>
</a>
</g>
</g>
<!-- Node42&#45;&gt;Node51 -->
<g id="edge46" class="edge">
<title>Node42&#45;&gt;Node51</title>
<path fill="none" stroke="midnightblue" d="M1433.88,-217.03C1462.47,-204.17 1506.64,-185.02 1546,-171 1555.13,-167.75 1564.8,-164.57 1574.41,-161.57"/>
<polygon fill="midnightblue" stroke="midnightblue" points="1432.12,-213.99 1424.45,-221.3 1435.01,-220.37 1432.12,-213.99"/>
</g>
<!-- Node53 -->
<g id="node48" class="node">
<title>Node53</title>
<g id="a_node48"><a xlink:href="class_black_gui_1_1_views_1_1_c_view_with_db_objects.html" target="_top" xlink:title=" ">
<polygon fill="none" stroke="red" points="1558,-60.5 1558,-101.5 1740,-101.5 1740,-60.5 1558,-60.5"/>
<text text-anchor="start" x="1566" y="-89.5" font-family="Helvetica,sans-Serif" font-size="10.00">BlackGui::Views::CViewWith</text>
<text text-anchor="start" x="1566" y="-78.5" font-family="Helvetica,sans-Serif" font-size="10.00">DbObjects&lt; Models::CAircraftIcao</text>
<text text-anchor="middle" x="1649" y="-67.5" font-family="Helvetica,sans-Serif" font-size="10.00">CodeListModel &gt;</text>
</a>
</g>
</g>
<!-- Node42&#45;&gt;Node53 -->
<g id="edge47" class="edge">
<title>Node42&#45;&gt;Node53</title>
<path fill="none" stroke="midnightblue" d="M1419.23,-213.82C1443.85,-187.9 1494.07,-138.9 1546,-111 1552.5,-107.51 1559.47,-104.37 1566.58,-101.57"/>
<polygon fill="midnightblue" stroke="midnightblue" points="1416.44,-211.67 1412.16,-221.36 1421.55,-216.45 1416.44,-211.67"/>
</g>
<!-- Node55 -->
<g id="node49" class="node">
<title>Node55</title>
<g id="a_node49"><a xlink:href="class_black_gui_1_1_views_1_1_c_view_with_db_objects.html" target="_top" xlink:title=" ">
<polygon fill="none" stroke="red" points="1562.5,-0.5 1562.5,-41.5 1735.5,-41.5 1735.5,-0.5 1562.5,-0.5"/>
<text text-anchor="start" x="1570.5" y="-29.5" font-family="Helvetica,sans-Serif" font-size="10.00">BlackGui::Views::CViewWith</text>
<text text-anchor="start" x="1570.5" y="-18.5" font-family="Helvetica,sans-Serif" font-size="10.00">DbObjects&lt; Models::CLiveryList</text>
<text text-anchor="middle" x="1649" y="-7.5" font-family="Helvetica,sans-Serif" font-size="10.00">Model &gt;</text>
</a>
</g>
</g>
<!-- Node42&#45;&gt;Node55 -->
<g id="edge48" class="edge">
<title>Node42&#45;&gt;Node55</title>
<path fill="none" stroke="midnightblue" d="M1413.04,-212.44C1432.77,-175.9 1481.67,-94.41 1546,-51 1551.28,-47.44 1556.99,-44.29 1562.91,-41.51"/>
<polygon fill="midnightblue" stroke="midnightblue" points="1409.83,-211.01 1408.25,-221.49 1416.02,-214.28 1409.83,-211.01"/>
</g>
</g>
</svg>
