<?xml version="1.0" encoding="UTF-8" standalone="no"?>
<!DOCTYPE svg PUBLIC "-//W3C//DTD SVG 1.1//EN"
 "http://www.w3.org/Graphics/SVG/1.1/DTD/svg11.dtd">
<!-- Generated by graphviz version 2.43.0 (0)
 -->
<!-- Title: BlackMisc::Aviation::CAircraftParts Pages: 1 -->
<svg width="724pt" height="606pt"
 viewBox="0.00 0.00 724.00 606.00" xmlns="http://www.w3.org/2000/svg" xmlns:xlink="http://www.w3.org/1999/xlink">
<g id="graph0" class="graph" transform="scale(1 1) rotate(0) translate(4 602)">
<title>BlackMisc::Aviation::CAircraftParts</title>
<!-- Node1 -->
<g id="node1" class="node">
<title>Node1</title>
<g id="a_node1"><a xlink:title="Value object encapsulating information of aircraft&#39;s parts.">
<polygon fill="#bfbfbf" stroke="black" points="604,-139 604,-169 716,-169 716,-139 604,-139"/>
<text text-anchor="start" x="612" y="-157" font-family="Helvetica,sans-Serif" font-size="10.00">BlackMisc::Aviation</text>
<text text-anchor="middle" x="660" y="-146" font-family="Helvetica,sans-Serif" font-size="10.00">::CAircraftParts</text>
</a>
</g>
</g>
<!-- Node2 -->
<g id="node2" class="node">
<title>Node2</title>
<g id="a_node2"><a xlink:href="class_black_misc_1_1_c_value_object.html" target="_top" xlink:title=" ">
<polygon fill="none" stroke="black" points="423,-284 423,-314 560,-314 560,-284 423,-284"/>
<text text-anchor="start" x="431" y="-302" font-family="Helvetica,sans-Serif" font-size="10.00">BlackMisc::CValueObject</text>
<text text-anchor="middle" x="491.5" y="-291" font-family="Helvetica,sans-Serif" font-size="10.00">&lt; CAircraftParts &gt;</text>
</a>
</g>
</g>
<!-- Node2&#45;&gt;Node1 -->
<g id="edge1" class="edge">
<title>Node2&#45;&gt;Node1</title>
<path fill="none" stroke="midnightblue" d="M517.7,-277.05C551.93,-247.25 612.21,-194.75 641.73,-169.04"/>
<polygon fill="midnightblue" stroke="midnightblue" points="515.25,-274.55 510,-283.76 519.84,-279.83 515.25,-274.55"/>
</g>
<!-- Node3 -->
<g id="node3" class="node">
<title>Node3</title>
<g id="a_node3"><a xlink:href="class_black_misc_1_1_c_empty.html" target="_top" xlink:title="Default base class for CValueObject.">
<polygon fill="none" stroke="black" points="242,-578.5 242,-597.5 352,-597.5 352,-578.5 242,-578.5"/>
<text text-anchor="middle" x="297" y="-585.5" font-family="Helvetica,sans-Serif" font-size="10.00">BlackMisc::CEmpty</text>
</a>
</g>
</g>
<!-- Node3&#45;&gt;Node2 -->
<g id="edge2" class="edge">
<title>Node3&#45;&gt;Node2</title>
<path fill="none" stroke="midnightblue" d="M362.17,-579.19C368.26,-576.57 374.02,-573.24 379,-569 460.9,-499.34 483.62,-359.89 489.01,-314.01"/>
<polygon fill="midnightblue" stroke="midnightblue" points="360.58,-576.04 352.37,-582.73 362.96,-582.62 360.58,-576.04"/>
</g>
<!-- Node4 -->
<g id="node4" class="node">
<title>Node4</title>
<g id="a_node4"><a xlink:href="class_black_misc_1_1_mixin_1_1_meta_type.html" target="_top" xlink:title="CRTP class template from which a derived class can inherit common methods dealing with the metatype o...">
<polygon fill="none" stroke="black" points="221,-529 221,-559 373,-559 373,-529 221,-529"/>
<text text-anchor="start" x="229" y="-547" font-family="Helvetica,sans-Serif" font-size="10.00">BlackMisc::Mixin::MetaType</text>
<text text-anchor="middle" x="297" y="-536" font-family="Helvetica,sans-Serif" font-size="10.00">&lt; Derived &gt;</text>
</a>
</g>
</g>
<!-- Node4&#45;&gt;Node2 -->
<g id="edge3" class="edge">
<title>Node4&#45;&gt;Node2</title>
<path fill="none" stroke="midnightblue" d="M374.12,-523.7C375.81,-522.54 377.44,-521.3 379,-520 447.11,-463.12 477.89,-354.2 487.25,-314.21"/>
<polygon fill="midnightblue" stroke="midnightblue" points="372.06,-520.86 365.27,-529 375.65,-526.87 372.06,-520.86"/>
</g>
<!-- Node5 -->
<g id="node5" class="node">
<title>Node5</title>
<g id="a_node5"><a xlink:href="class_black_misc_1_1_mixin_1_1_hash_by_meta_class.html" target="_top" xlink:title="CRTP class template from which a derived class can inherit common methods dealing with hashing instan...">
<polygon fill="none" stroke="black" points="225.5,-480 225.5,-510 368.5,-510 368.5,-480 225.5,-480"/>
<text text-anchor="start" x="233.5" y="-498" font-family="Helvetica,sans-Serif" font-size="10.00">BlackMisc::Mixin::HashBy</text>
<text text-anchor="middle" x="297" y="-487" font-family="Helvetica,sans-Serif" font-size="10.00">MetaClass&lt; Derived &gt;</text>
</a>
</g>
</g>
<!-- Node5&#45;&gt;Node2 -->
<g id="edge4" class="edge">
<title>Node5&#45;&gt;Node2</title>
<path fill="none" stroke="midnightblue" d="M373.19,-474.94C375.2,-473.7 377.14,-472.39 379,-471 435.87,-428.5 471.82,-347.78 484.91,-314.23"/>
<polygon fill="midnightblue" stroke="midnightblue" points="371.19,-472.04 364.06,-479.88 374.52,-478.2 371.19,-472.04"/>
</g>
<!-- Node6 -->
<g id="node6" class="node">
<title>Node6</title>
<g id="a_node6"><a xlink:href="class_black_misc_1_1_mixin_1_1_d_bus_by_meta_class.html" target="_top" xlink:title="CRTP class template from which a derived class can inherit common methods dealing with marshalling in...">
<polygon fill="none" stroke="black" points="219,-431 219,-461 375,-461 375,-431 219,-431"/>
<text text-anchor="start" x="227" y="-449" font-family="Helvetica,sans-Serif" font-size="10.00">BlackMisc::Mixin::DBusBy</text>
<text text-anchor="middle" x="297" y="-438" font-family="Helvetica,sans-Serif" font-size="10.00">MetaClass&lt; Derived, Tags &gt;</text>
</a>
</g>
</g>
<!-- Node6&#45;&gt;Node2 -->
<g id="edge5" class="edge">
<title>Node6&#45;&gt;Node2</title>
<path fill="none" stroke="midnightblue" d="M370.74,-426.67C373.59,-425.22 376.35,-423.66 379,-422 424.87,-393.16 463.5,-340.34 480.79,-314.32"/>
<polygon fill="midnightblue" stroke="midnightblue" points="369.03,-423.6 361.4,-430.95 371.95,-429.96 369.03,-423.6"/>
</g>
<!-- Node7 -->
<g id="node7" class="node">
<title>Node7</title>
<g id="a_node7"><a xlink:href="class_black_misc_1_1_mixin_1_1_d_bus_operators.html" target="_top" xlink:title=" ">
<polygon fill="none" stroke="black" points="0,-431 0,-461 179,-461 179,-431 0,-431"/>
<text text-anchor="start" x="8" y="-449" font-family="Helvetica,sans-Serif" font-size="10.00">BlackMisc::Mixin::DBusOperators</text>
<text text-anchor="middle" x="89.5" y="-438" font-family="Helvetica,sans-Serif" font-size="10.00">&lt; Derived, Tags... &gt;</text>
</a>
</g>
</g>
<!-- Node7&#45;&gt;Node6 -->
<g id="edge6" class="edge">
<title>Node7&#45;&gt;Node6</title>
<path fill="none" stroke="midnightblue" d="M189.44,-446C199.35,-446 209.31,-446 218.95,-446"/>
<polygon fill="midnightblue" stroke="midnightblue" points="189.14,-442.5 179.14,-446 189.14,-449.5 189.14,-442.5"/>
</g>
<!-- Node8 -->
<g id="node8" class="node">
<title>Node8</title>
<g id="a_node8"><a xlink:href="class_black_misc_1_1_mixin_1_1_data_stream_by_meta_class.html" target="_top" xlink:title="CRTP class template to generate QDataStream marshalling methods using CMetaClass.">
<polygon fill="none" stroke="black" points="215,-382 215,-412 379,-412 379,-382 215,-382"/>
<text text-anchor="start" x="223" y="-400" font-family="Helvetica,sans-Serif" font-size="10.00">BlackMisc::Mixin::DataStream</text>
<text text-anchor="middle" x="297" y="-389" font-family="Helvetica,sans-Serif" font-size="10.00">ByMetaClass&lt; Derived &gt;</text>
</a>
</g>
</g>
<!-- Node8&#45;&gt;Node2 -->
<g id="edge7" class="edge">
<title>Node8&#45;&gt;Node2</title>
<path fill="none" stroke="midnightblue" d="M366.33,-378.37C370.67,-376.69 374.93,-374.9 379,-373 413.73,-356.78 450.01,-330.72 471.42,-314.25"/>
<polygon fill="midnightblue" stroke="midnightblue" points="364.93,-375.15 356.74,-381.87 367.33,-381.73 364.93,-375.15"/>
</g>
<!-- Node9 -->
<g id="node9" class="node">
<title>Node9</title>
<g id="a_node9"><a xlink:href="class_black_misc_1_1_mixin_1_1_data_stream_operators.html" target="_top" xlink:title="CRTP class template to generate non&#45;member QDataStream streaming operators.">
<polygon fill="none" stroke="black" points="7.5,-382 7.5,-412 171.5,-412 171.5,-382 7.5,-382"/>
<text text-anchor="start" x="15.5" y="-400" font-family="Helvetica,sans-Serif" font-size="10.00">BlackMisc::Mixin::DataStream</text>
<text text-anchor="middle" x="89.5" y="-389" font-family="Helvetica,sans-Serif" font-size="10.00">Operators&lt; Derived &gt;</text>
</a>
</g>
</g>
<!-- Node9&#45;&gt;Node8 -->
<g id="edge8" class="edge">
<title>Node9&#45;&gt;Node8</title>
<path fill="none" stroke="midnightblue" d="M181.74,-397C192.72,-397 203.87,-397 214.7,-397"/>
<polygon fill="midnightblue" stroke="midnightblue" points="181.72,-393.5 171.72,-397 181.72,-400.5 181.72,-393.5"/>
</g>
<!-- Node10 -->
<g id="node10" class="node">
<title>Node10</title>
<g id="a_node10"><a xlink:href="class_black_misc_1_1_mixin_1_1_json_by_meta_class.html" target="_top" xlink:title="CRTP class template from which a derived class can inherit common methods dealing with JSON by metatu...">
<polygon fill="none" stroke="black" points="228,-333 228,-363 366,-363 366,-333 228,-333"/>
<text text-anchor="start" x="236" y="-351" font-family="Helvetica,sans-Serif" font-size="10.00">BlackMisc::Mixin::JsonBy</text>
<text text-anchor="middle" x="297" y="-340" font-family="Helvetica,sans-Serif" font-size="10.00">MetaClass&lt; Derived &gt;</text>
</a>
</g>
</g>
<!-- Node10&#45;&gt;Node2 -->
<g id="edge9" class="edge">
<title>Node10&#45;&gt;Node2</title>
<path fill="none" stroke="midnightblue" d="M366.95,-330.45C388.08,-325.07 411.14,-319.2 431.55,-314.01"/>
<polygon fill="midnightblue" stroke="midnightblue" points="365.89,-327.11 357.06,-332.97 367.62,-333.89 365.89,-327.11"/>
</g>
<!-- Node11 -->
<g id="node11" class="node">
<title>Node11</title>
<g id="a_node11"><a xlink:href="class_black_misc_1_1_mixin_1_1_json_operators.html" target="_top" xlink:title="CRTP class template which will generate marshalling operators for a derived class with its own marsha...">
<polygon fill="none" stroke="black" points="3,-333 3,-363 176,-363 176,-333 3,-333"/>
<text text-anchor="start" x="11" y="-351" font-family="Helvetica,sans-Serif" font-size="10.00">BlackMisc::Mixin::JsonOperators</text>
<text text-anchor="middle" x="89.5" y="-340" font-family="Helvetica,sans-Serif" font-size="10.00">&lt; Derived &gt;</text>
</a>
</g>
</g>
<!-- Node11&#45;&gt;Node10 -->
<g id="edge10" class="edge">
<title>Node11&#45;&gt;Node10</title>
<path fill="none" stroke="midnightblue" d="M186.35,-348C200.41,-348 214.65,-348 227.99,-348"/>
<polygon fill="midnightblue" stroke="midnightblue" points="186.16,-344.5 176.16,-348 186.16,-351.5 186.16,-344.5"/>
</g>
<!-- Node12 -->
<g id="node12" class="node">
<title>Node12</title>
<g id="a_node12"><a xlink:href="class_black_misc_1_1_mixin_1_1_equals_by_meta_class.html" target="_top" xlink:title="CRTP class template from which a derived class can inherit operator== implemented by metaclass.">
<polygon fill="none" stroke="black" points="226.5,-284 226.5,-314 367.5,-314 367.5,-284 226.5,-284"/>
<text text-anchor="start" x="234.5" y="-302" font-family="Helvetica,sans-Serif" font-size="10.00">BlackMisc::Mixin::Equals</text>
<text text-anchor="middle" x="297" y="-291" font-family="Helvetica,sans-Serif" font-size="10.00">ByMetaClass&lt; Derived &gt;</text>
</a>
</g>
</g>
<!-- Node12&#45;&gt;Node2 -->
<g id="edge11" class="edge">
<title>Node12&#45;&gt;Node2</title>
<path fill="none" stroke="midnightblue" d="M378,-299C392.93,-299 408.39,-299 422.9,-299"/>
<polygon fill="midnightblue" stroke="midnightblue" points="377.77,-295.5 367.77,-299 377.77,-302.5 377.77,-295.5"/>
</g>
<!-- Node13 -->
<g id="node13" class="node">
<title>Node13</title>
<g id="a_node13"><a xlink:href="class_black_misc_1_1_mixin_1_1_less_than_by_meta_class.html" target="_top" xlink:title="CRTP class template from which a derived class can inherit operator&lt; implemented by metaclass.">
<polygon fill="none" stroke="black" points="221.5,-235 221.5,-265 372.5,-265 372.5,-235 221.5,-235"/>
<text text-anchor="start" x="229.5" y="-253" font-family="Helvetica,sans-Serif" font-size="10.00">BlackMisc::Mixin::LessThan</text>
<text text-anchor="middle" x="297" y="-242" font-family="Helvetica,sans-Serif" font-size="10.00">ByMetaClass&lt; Derived &gt;</text>
</a>
</g>
</g>
<!-- Node13&#45;&gt;Node2 -->
<g id="edge12" class="edge">
<title>Node13&#45;&gt;Node2</title>
<path fill="none" stroke="midnightblue" d="M366.95,-267.55C388.08,-272.93 411.14,-278.8 431.55,-283.99"/>
<polygon fill="midnightblue" stroke="midnightblue" points="367.62,-264.11 357.06,-265.03 365.89,-270.89 367.62,-264.11"/>
</g>
<!-- Node14 -->
<g id="node14" class="node">
<title>Node14</title>
<g id="a_node14"><a xlink:href="class_black_misc_1_1_mixin_1_1_compare_by_meta_class.html" target="_top" xlink:title="CRTP class template from which a derived class can inherit non&#45;member compare() implemented by metacl...">
<polygon fill="none" stroke="black" points="222.5,-186 222.5,-216 371.5,-216 371.5,-186 222.5,-186"/>
<text text-anchor="start" x="230.5" y="-204" font-family="Helvetica,sans-Serif" font-size="10.00">BlackMisc::Mixin::Compare</text>
<text text-anchor="middle" x="297" y="-193" font-family="Helvetica,sans-Serif" font-size="10.00">ByMetaClass&lt; Derived &gt;</text>
</a>
</g>
</g>
<!-- Node14&#45;&gt;Node2 -->
<g id="edge13" class="edge">
<title>Node14&#45;&gt;Node2</title>
<path fill="none" stroke="midnightblue" d="M363.65,-219.52C368.91,-221.53 374.09,-223.69 379,-226 413.34,-242.15 449.44,-267.56 470.95,-283.75"/>
<polygon fill="midnightblue" stroke="midnightblue" points="364.71,-216.18 354.12,-216.06 362.33,-222.76 364.71,-216.18"/>
</g>
<!-- Node15 -->
<g id="node15" class="node">
<title>Node15</title>
<g id="a_node15"><a xlink:href="class_black_misc_1_1_mixin_1_1_string.html" target="_top" xlink:title="CRTP class template from which a derived class can inherit string streaming operations.">
<polygon fill="none" stroke="black" points="230,-137 230,-167 364,-167 364,-137 230,-137"/>
<text text-anchor="start" x="238" y="-155" font-family="Helvetica,sans-Serif" font-size="10.00">BlackMisc::Mixin::String</text>
<text text-anchor="middle" x="297" y="-144" font-family="Helvetica,sans-Serif" font-size="10.00">&lt; Derived &gt;</text>
</a>
</g>
</g>
<!-- Node15&#45;&gt;Node2 -->
<g id="edge14" class="edge">
<title>Node15&#45;&gt;Node2</title>
<path fill="none" stroke="midnightblue" d="M368.51,-171.16C372.15,-172.95 375.67,-174.89 379,-177 424.57,-205.88 463.34,-258.14 480.72,-283.86"/>
<polygon fill="midnightblue" stroke="midnightblue" points="369.84,-167.92 359.29,-167.03 366.98,-174.31 369.84,-167.92"/>
</g>
<!-- Node16 -->
<g id="node16" class="node">
<title>Node16</title>
<g id="a_node16"><a xlink:href="class_black_misc_1_1_mixin_1_1_index.html" target="_top" xlink:title="CRTP class template from which a derived class can inherit property indexing functions.">
<polygon fill="none" stroke="black" points="231,-88 231,-118 363,-118 363,-88 231,-88"/>
<text text-anchor="start" x="239" y="-106" font-family="Helvetica,sans-Serif" font-size="10.00">BlackMisc::Mixin::Index</text>
<text text-anchor="middle" x="297" y="-95" font-family="Helvetica,sans-Serif" font-size="10.00">&lt; Derived &gt;</text>
</a>
</g>
</g>
<!-- Node16&#45;&gt;Node2 -->
<g id="edge15" class="edge">
<title>Node16&#45;&gt;Node2</title>
<path fill="none" stroke="midnightblue" d="M371.1,-122.75C373.85,-124.36 376.5,-126.11 379,-128 435.45,-170.57 471.63,-250.64 484.85,-283.91"/>
<polygon fill="midnightblue" stroke="midnightblue" points="372.49,-119.53 362.01,-118.02 369.26,-125.74 372.49,-119.53"/>
</g>
<!-- Node17 -->
<g id="node17" class="node">
<title>Node17</title>
<g id="a_node17"><a xlink:href="class_black_misc_1_1_mixin_1_1_icon.html" target="_top" xlink:title="CRTP class template from which a derived class can inherit icon&#45;related functions.">
<polygon fill="none" stroke="black" points="231.5,-39 231.5,-69 362.5,-69 362.5,-39 231.5,-39"/>
<text text-anchor="start" x="239.5" y="-57" font-family="Helvetica,sans-Serif" font-size="10.00">BlackMisc::Mixin::Icon</text>
<text text-anchor="middle" x="297" y="-46" font-family="Helvetica,sans-Serif" font-size="10.00">&lt; Derived, IconIndex &gt;</text>
</a>
</g>
</g>
<!-- Node17&#45;&gt;Node2 -->
<g id="edge16" class="edge">
<title>Node17&#45;&gt;Node2</title>
<path fill="none" stroke="midnightblue" d="M371.43,-73.33C374.09,-75.06 376.63,-76.95 379,-79 407.25,-103.47 398.32,-121.55 415,-155 438.68,-202.49 468.3,-257.89 482.36,-283.97"/>
<polygon fill="midnightblue" stroke="midnightblue" points="373,-70.2 362.57,-68.31 369.55,-76.29 373,-70.2"/>
</g>
<!-- Node18 -->
<g id="node18" class="node">
<title>Node18</title>
<g id="a_node18"><a xlink:href="class_black_misc_1_1_i_timestamp_with_offset_based.html" target="_top" xlink:title="Entity with timestamp.">
<polygon fill="none" stroke="black" points="415,-115 415,-145 568,-145 568,-115 415,-115"/>
<text text-anchor="start" x="423" y="-133" font-family="Helvetica,sans-Serif" font-size="10.00">BlackMisc::ITimestampWith</text>
<text text-anchor="middle" x="491.5" y="-122" font-family="Helvetica,sans-Serif" font-size="10.00">OffsetBased</text>
</a>
</g>
</g>
<!-- Node18&#45;&gt;Node1 -->
<g id="edge17" class="edge">
<title>Node18&#45;&gt;Node1</title>
<path fill="none" stroke="midnightblue" d="M578.45,-142.39C586.99,-143.62 595.48,-144.84 603.58,-146.01"/>
<polygon fill="midnightblue" stroke="midnightblue" points="578.84,-138.91 568.44,-140.95 577.84,-145.84 578.84,-138.91"/>
</g>
<!-- Node19 -->
<g id="node19" class="node">
<title>Node19</title>
<g id="a_node19"><a xlink:href="class_black_misc_1_1_i_timestamp_based.html" target="_top" xlink:title="Entity with timestamp.">
<polygon fill="none" stroke="black" points="216.5,-0.5 216.5,-19.5 377.5,-19.5 377.5,-0.5 216.5,-0.5"/>
<text text-anchor="middle" x="297" y="-7.5" font-family="Helvetica,sans-Serif" font-size="10.00">BlackMisc::ITimestampBased</text>
</a>
</g>
</g>
<!-- Node19&#45;&gt;Node18 -->
<g id="edge18" class="edge">
<title>Node19&#45;&gt;Node18</title>
<path fill="none" stroke="midnightblue" d="M364.72,-22.73C369.66,-24.55 374.48,-26.63 379,-29 420.86,-50.97 459.27,-92.36 478.18,-114.73"/>
<polygon fill="midnightblue" stroke="midnightblue" points="365.69,-19.36 355.1,-19.53 363.48,-26 365.69,-19.36"/>
</g>
</g>
</svg>
