<?xml version="1.0" encoding="UTF-8" standalone="no"?>
<!DOCTYPE svg PUBLIC "-//W3C//DTD SVG 1.1//EN"
 "http://www.w3.org/Graphics/SVG/1.1/DTD/svg11.dtd">
<!-- Generated by graphviz version 2.43.0 (0)
 -->
<!-- Title: XSwiftBus::IDispatchable Pages: 1 -->
<svg width="320pt" height="84pt"
 viewBox="0.00 0.00 319.50 84.00" xmlns="http://www.w3.org/2000/svg" xmlns:xlink="http://www.w3.org/1999/xlink">
<g id="graph0" class="graph" transform="scale(1 1) rotate(0) translate(4 80)">
<title>XSwiftBus::IDispatchable</title>
<!-- Node1 -->
<g id="node1" class="node">
<title>Node1</title>
<g id="a_node1"><a xlink:title="Dispatchable Interface.">
<polygon fill="#bfbfbf" stroke="black" points="92,-56.5 92,-75.5 230,-75.5 230,-56.5 92,-56.5"/>
<text text-anchor="middle" x="161" y="-63.5" font-family="Helvetica,sans-Serif" font-size="10.00">XSwiftBus::IDispatchable</text>
</a>
</g>
</g>
<!-- Node2 -->
<g id="node2" class="node">
<title>Node2</title>
<g id="a_node2"><a xlink:href="class_x_swift_bus_1_1_c_d_bus_connection.html" target="_top" xlink:title="DBus connection.">
<polygon fill="none" stroke="black" points="0,-0.5 0,-19.5 158,-19.5 158,-0.5 0,-0.5"/>
<text text-anchor="middle" x="79" y="-7.5" font-family="Helvetica,sans-Serif" font-size="10.00">XSwiftBus::CDBusConnection</text>
</a>
</g>
</g>
<!-- Node1&#45;&gt;Node2 -->
<g id="edge1" class="edge">
<title>Node1&#45;&gt;Node2</title>
<path fill="none" stroke="midnightblue" d="M139.17,-50.62C124.19,-40.76 104.8,-27.99 92.14,-19.65"/>
<polygon fill="midnightblue" stroke="midnightblue" points="137.55,-53.75 147.83,-56.32 141.4,-47.9 137.55,-53.75"/>
</g>
<!-- Node3 -->
<g id="node3" class="node">
<title>Node3</title>
<g id="a_node3"><a xlink:href="class_x_swift_bus_1_1_c_d_bus_server.html" target="_top" xlink:title="DBus connection.">
<polygon fill="none" stroke="black" points="176.5,-0.5 176.5,-19.5 311.5,-19.5 311.5,-0.5 176.5,-0.5"/>
<text text-anchor="middle" x="244" y="-7.5" font-family="Helvetica,sans-Serif" font-size="10.00">XSwiftBus::CDBusServer</text>
</a>
</g>
</g>
<!-- Node1&#45;&gt;Node3 -->
<g id="edge2" class="edge">
<title>Node1&#45;&gt;Node3</title>
<path fill="none" stroke="midnightblue" d="M183.1,-50.62C198.26,-40.76 217.88,-27.99 230.7,-19.65"/>
<polygon fill="midnightblue" stroke="midnightblue" points="180.81,-47.94 174.34,-56.32 184.63,-53.8 180.81,-47.94"/>
</g>
</g>
</svg>
