<?xml version="1.0" encoding="UTF-8" standalone="no"?>
<!DOCTYPE svg PUBLIC "-//W3C//DTD SVG 1.1//EN"
 "http://www.w3.org/Graphics/SVG/1.1/DTD/svg11.dtd">
<!-- Generated by graphviz version 2.43.0 (0)
 -->
<!-- Title: BlackGui::Components::COwnAircraftComponent Pages: 1 -->
<svg width="165pt" height="207pt"
 viewBox="0.00 0.00 164.50 207.00" xmlns="http://www.w3.org/2000/svg" xmlns:xlink="http://www.w3.org/1999/xlink">
<g id="graph0" class="graph" transform="scale(1 1) rotate(0) translate(4 203)">
<title>BlackGui::Components::COwnAircraftComponent</title>
<!-- Node1 -->
<g id="node1" class="node">
<title>Node1</title>
<g id="a_node1"><a xlink:title="Own aircraft.">
<polygon fill="#bfbfbf" stroke="black" points="0,-0.5 0,-30.5 143,-30.5 143,-0.5 0,-0.5"/>
<text text-anchor="start" x="8" y="-18.5" font-family="Helvetica,sans-Serif" font-size="10.00">BlackGui::Components</text>
<text text-anchor="middle" x="71.5" y="-7.5" font-family="Helvetica,sans-Serif" font-size="10.00">::COwnAircraftComponent</text>
</a>
</g>
</g>
<!-- Node2 -->
<g id="node2" class="node">
<title>Node2</title>
<g id="a_node2"><a target="_parent" xlink:href="http://doc.qt.io/qt-5/qframe.html" xlink:title=" ">
<polygon fill="none" stroke="black" points="44,-67.5 44,-86.5 99,-86.5 99,-67.5 44,-67.5"/>
<text text-anchor="middle" x="71.5" y="-74.5" font-family="Helvetica,sans-Serif" font-size="10.00">QFrame</text>
</a>
</g>
</g>
<!-- Node2&#45;&gt;Node1 -->
<g id="edge1" class="edge">
<title>Node2&#45;&gt;Node1</title>
<path fill="none" stroke="midnightblue" d="M71.5,-57.23C71.5,-48.59 71.5,-38.5 71.5,-30.52"/>
<polygon fill="midnightblue" stroke="midnightblue" points="68,-57.48 71.5,-67.48 75,-57.48 68,-57.48"/>
</g>
<!-- Node3 -->
<g id="node3" class="node">
<title>Node3</title>
<g id="a_node3"><a target="_parent" xlink:href="http://doc.qt.io/qt-5/qwidget.html" xlink:title=" ">
<polygon fill="none" stroke="black" points="42,-123.5 42,-142.5 101,-142.5 101,-123.5 42,-123.5"/>
<text text-anchor="middle" x="71.5" y="-130.5" font-family="Helvetica,sans-Serif" font-size="10.00">QWidget</text>
</a>
</g>
</g>
<!-- Node3&#45;&gt;Node2 -->
<g id="edge2" class="edge">
<title>Node3&#45;&gt;Node2</title>
<path fill="none" stroke="midnightblue" d="M71.5,-112.8C71.5,-103.91 71.5,-93.78 71.5,-86.75"/>
<polygon fill="midnightblue" stroke="midnightblue" points="68,-113.08 71.5,-123.08 75,-113.08 68,-113.08"/>
</g>
<!-- Node4 -->
<g id="node4" class="node">
<title>Node4</title>
<g id="a_node4"><a target="_parent" xlink:href="http://doc.qt.io/qt-5/qobject.html" xlink:title=" ">
<polygon fill="none" stroke="black" points="0.5,-179.5 0.5,-198.5 56.5,-198.5 56.5,-179.5 0.5,-179.5"/>
<text text-anchor="middle" x="28.5" y="-186.5" font-family="Helvetica,sans-Serif" font-size="10.00">QObject</text>
</a>
</g>
</g>
<!-- Node4&#45;&gt;Node3 -->
<g id="edge3" class="edge">
<title>Node4&#45;&gt;Node3</title>
<path fill="none" stroke="midnightblue" d="M41.92,-171.14C49.41,-161.74 58.44,-150.4 64.53,-142.75"/>
<polygon fill="midnightblue" stroke="midnightblue" points="39.09,-169.08 35.6,-179.08 44.57,-173.44 39.09,-169.08"/>
</g>
<!-- Node5 -->
<g id="node5" class="node">
<title>Node5</title>
<g id="a_node5"><a target="_parent" xlink:href="http://doc.qt.io/qt-5/qpaintdevice.html" xlink:title=" ">
<polygon fill="none" stroke="black" points="74.5,-179.5 74.5,-198.5 156.5,-198.5 156.5,-179.5 74.5,-179.5"/>
<text text-anchor="middle" x="115.5" y="-186.5" font-family="Helvetica,sans-Serif" font-size="10.00">QPaintDevice</text>
</a>
</g>
</g>
<!-- Node5&#45;&gt;Node3 -->
<g id="edge4" class="edge">
<title>Node5&#45;&gt;Node3</title>
<path fill="none" stroke="midnightblue" d="M101.77,-171.14C94.1,-161.74 84.87,-150.4 78.63,-142.75"/>
<polygon fill="midnightblue" stroke="midnightblue" points="99.2,-173.54 108.23,-179.08 104.63,-169.12 99.2,-173.54"/>
</g>
</g>
</svg>
