<?xml version="1.0" encoding="UTF-8" standalone="no"?>
<!DOCTYPE svg PUBLIC "-//W3C//DTD SVG 1.1//EN"
 "http://www.w3.org/Graphics/SVG/1.1/DTD/svg11.dtd">
<!-- Generated by graphviz version 2.43.0 (0)
 -->
<!-- Title: BlackMisc::Network::CEcosystemAware Pages: 1 -->
<svg width="479pt" height="186pt"
 viewBox="0.00 0.00 479.00 186.00" xmlns="http://www.w3.org/2000/svg" xmlns:xlink="http://www.w3.org/1999/xlink">
<g id="graph0" class="graph" transform="scale(1 1) rotate(0) translate(4 182)">
<title>BlackMisc::Network::CEcosystemAware</title>
<!-- Node1 -->
<g id="node1" class="node">
<title>Node1</title>
<g id="a_node1"><a xlink:title="Delegating class which can be directly used to access an.">
<polygon fill="#bfbfbf" stroke="black" points="182,-73.5 182,-103.5 295,-103.5 295,-73.5 182,-73.5"/>
<text text-anchor="start" x="190" y="-91.5" font-family="Helvetica,sans-Serif" font-size="10.00">BlackMisc::Network</text>
<text text-anchor="middle" x="238.5" y="-80.5" font-family="Helvetica,sans-Serif" font-size="10.00">::CEcosystemAware</text>
</a>
</g>
</g>
<!-- Node3 -->
<g id="node3" class="node">
<title>Node3</title>
<g id="a_node3"><a xlink:href="class_black_core_1_1_vatsim_1_1_c_vatsim_booking_reader.html" target="_top" xlink:title="Read bookings from VATSIM.">
<polygon fill="none" stroke="black" points="335.5,-147.5 335.5,-177.5 466.5,-177.5 466.5,-147.5 335.5,-147.5"/>
<text text-anchor="start" x="343.5" y="-165.5" font-family="Helvetica,sans-Serif" font-size="10.00">BlackCore::Vatsim::</text>
<text text-anchor="middle" x="401" y="-154.5" font-family="Helvetica,sans-Serif" font-size="10.00">CVatsimBookingReader</text>
</a>
</g>
</g>
<!-- Node1&#45;&gt;Node3 -->
<g id="edge2" class="edge">
<title>Node1&#45;&gt;Node3</title>
<path fill="none" stroke="midnightblue" d="M273.52,-108.84C290.46,-118.52 311.45,-129.83 331,-138.5 338.07,-141.64 345.69,-144.64 353.2,-147.4"/>
<polygon fill="midnightblue" stroke="midnightblue" points="274.97,-105.64 264.56,-103.67 271.47,-111.7 274.97,-105.64"/>
</g>
<!-- Node4 -->
<g id="node4" class="node">
<title>Node4</title>
<g id="a_node4"><a xlink:href="class_black_core_1_1_vatsim_1_1_c_vatsim_data_file_reader.html" target="_top" xlink:title="Read vatsim data file.">
<polygon fill="none" stroke="black" points="335,-98.5 335,-128.5 467,-128.5 467,-98.5 335,-98.5"/>
<text text-anchor="start" x="343" y="-116.5" font-family="Helvetica,sans-Serif" font-size="10.00">BlackCore::Vatsim::</text>
<text text-anchor="middle" x="401" y="-105.5" font-family="Helvetica,sans-Serif" font-size="10.00">CVatsimDataFileReader</text>
</a>
</g>
</g>
<!-- Node1&#45;&gt;Node4 -->
<g id="edge3" class="edge">
<title>Node1&#45;&gt;Node4</title>
<path fill="none" stroke="midnightblue" d="M305.22,-98.74C314.97,-100.26 325.02,-101.82 334.76,-103.34"/>
<polygon fill="midnightblue" stroke="midnightblue" points="305.6,-95.25 295.18,-97.17 304.53,-102.17 305.6,-95.25"/>
</g>
<!-- Node5 -->
<g id="node5" class="node">
<title>Node5</title>
<g id="a_node5"><a xlink:href="class_black_core_1_1_vatsim_1_1_c_vatsim_metar_reader.html" target="_top" xlink:title="Read METARs from VATSIM.">
<polygon fill="none" stroke="black" points="341,-49.5 341,-79.5 461,-79.5 461,-49.5 341,-49.5"/>
<text text-anchor="start" x="349" y="-67.5" font-family="Helvetica,sans-Serif" font-size="10.00">BlackCore::Vatsim::</text>
<text text-anchor="middle" x="401" y="-56.5" font-family="Helvetica,sans-Serif" font-size="10.00">CVatsimMetarReader</text>
</a>
</g>
</g>
<!-- Node1&#45;&gt;Node5 -->
<g id="edge4" class="edge">
<title>Node1&#45;&gt;Node5</title>
<path fill="none" stroke="midnightblue" d="M305.38,-78.65C317.13,-76.89 329.31,-75.07 340.86,-73.34"/>
<polygon fill="midnightblue" stroke="midnightblue" points="304.56,-75.23 295.18,-80.17 305.59,-82.16 304.56,-75.23"/>
</g>
<!-- Node6 -->
<g id="node6" class="node">
<title>Node6</title>
<g id="a_node6"><a xlink:href="class_black_core_1_1_vatsim_1_1_c_vatsim_server_file_reader.html" target="_top" xlink:title="Read VATSIM server file.">
<polygon fill="none" stroke="black" points="331,-0.5 331,-30.5 471,-30.5 471,-0.5 331,-0.5"/>
<text text-anchor="start" x="339" y="-18.5" font-family="Helvetica,sans-Serif" font-size="10.00">BlackCore::Vatsim::</text>
<text text-anchor="middle" x="401" y="-7.5" font-family="Helvetica,sans-Serif" font-size="10.00">CVatsimServerFileReader</text>
</a>
</g>
</g>
<!-- Node1&#45;&gt;Node6 -->
<g id="edge5" class="edge">
<title>Node1&#45;&gt;Node6</title>
<path fill="none" stroke="midnightblue" d="M273.93,-68.4C290.82,-58.98 311.64,-47.99 331,-39.5 338.2,-36.34 345.96,-33.31 353.59,-30.52"/>
<polygon fill="midnightblue" stroke="midnightblue" points="271.98,-65.49 264.99,-73.45 275.42,-71.58 271.98,-65.49"/>
</g>
<!-- Node2 -->
<g id="node2" class="node">
<title>Node2</title>
<g id="a_node2"><a xlink:href="class_black_misc_1_1_i_provider_aware.html" target="_top" xlink:title=" ">
<polygon fill="none" stroke="black" points="0,-73.5 0,-103.5 146,-103.5 146,-73.5 0,-73.5"/>
<text text-anchor="start" x="8" y="-91.5" font-family="Helvetica,sans-Serif" font-size="10.00">BlackMisc::IProviderAware</text>
<text text-anchor="middle" x="73" y="-80.5" font-family="Helvetica,sans-Serif" font-size="10.00">&lt; IEcosystemProvider &gt;</text>
</a>
</g>
</g>
<!-- Node2&#45;&gt;Node1 -->
<g id="edge1" class="edge">
<title>Node2&#45;&gt;Node1</title>
<path fill="none" stroke="midnightblue" d="M156.34,-88.5C165,-88.5 173.65,-88.5 181.9,-88.5"/>
<polygon fill="midnightblue" stroke="midnightblue" points="156.19,-85 146.19,-88.5 156.19,-92 156.19,-85"/>
</g>
</g>
</svg>
