<?xml version="1.0" encoding="UTF-8" standalone="no"?>
<!DOCTYPE svg PUBLIC "-//W3C//DTD SVG 1.1//EN"
 "http://www.w3.org/Graphics/SVG/1.1/DTD/svg11.dtd">
<!-- Generated by graphviz version 2.43.0 (0)
 -->
<!-- Title: BlackGui::Components::CModelConverterXSetupComponent Pages: 1 -->
<svg width="206pt" height="207pt"
 viewBox="0.00 0.00 206.00 207.00" xmlns="http://www.w3.org/2000/svg" xmlns:xlink="http://www.w3.org/1999/xlink">
<g id="graph0" class="graph" transform="scale(1 1) rotate(0) translate(4 203)">
<title>BlackGui::Components::CModelConverterXSetupComponent</title>
<!-- Node1 -->
<g id="node1" class="node">
<title>Node1</title>
<g id="a_node1"><a xlink:title="Setup to start ModelConverterX.">
<polygon fill="#bfbfbf" stroke="black" points="0,-0.5 0,-30.5 198,-30.5 198,-0.5 0,-0.5"/>
<text text-anchor="start" x="8" y="-18.5" font-family="Helvetica,sans-Serif" font-size="10.00">BlackGui::Components</text>
<text text-anchor="middle" x="99" y="-7.5" font-family="Helvetica,sans-Serif" font-size="10.00">::CModelConverterXSetupComponent</text>
</a>
</g>
</g>
<!-- Node2 -->
<g id="node2" class="node">
<title>Node2</title>
<g id="a_node2"><a target="_parent" xlink:href="http://doc.qt.io/qt-5/qframe.html" xlink:title=" ">
<polygon fill="none" stroke="black" points="71.5,-67.5 71.5,-86.5 126.5,-86.5 126.5,-67.5 71.5,-67.5"/>
<text text-anchor="middle" x="99" y="-74.5" font-family="Helvetica,sans-Serif" font-size="10.00">QFrame</text>
</a>
</g>
</g>
<!-- Node2&#45;&gt;Node1 -->
<g id="edge1" class="edge">
<title>Node2&#45;&gt;Node1</title>
<path fill="none" stroke="midnightblue" d="M99,-57.23C99,-48.59 99,-38.5 99,-30.52"/>
<polygon fill="midnightblue" stroke="midnightblue" points="95.5,-57.48 99,-67.48 102.5,-57.48 95.5,-57.48"/>
</g>
<!-- Node3 -->
<g id="node3" class="node">
<title>Node3</title>
<g id="a_node3"><a target="_parent" xlink:href="http://doc.qt.io/qt-5/qwidget.html" xlink:title=" ">
<polygon fill="none" stroke="black" points="69.5,-123.5 69.5,-142.5 128.5,-142.5 128.5,-123.5 69.5,-123.5"/>
<text text-anchor="middle" x="99" y="-130.5" font-family="Helvetica,sans-Serif" font-size="10.00">QWidget</text>
</a>
</g>
</g>
<!-- Node3&#45;&gt;Node2 -->
<g id="edge2" class="edge">
<title>Node3&#45;&gt;Node2</title>
<path fill="none" stroke="midnightblue" d="M99,-112.8C99,-103.91 99,-93.78 99,-86.75"/>
<polygon fill="midnightblue" stroke="midnightblue" points="95.5,-113.08 99,-123.08 102.5,-113.08 95.5,-113.08"/>
</g>
<!-- Node4 -->
<g id="node4" class="node">
<title>Node4</title>
<g id="a_node4"><a target="_parent" xlink:href="http://doc.qt.io/qt-5/qobject.html" xlink:title=" ">
<polygon fill="none" stroke="black" points="28,-179.5 28,-198.5 84,-198.5 84,-179.5 28,-179.5"/>
<text text-anchor="middle" x="56" y="-186.5" font-family="Helvetica,sans-Serif" font-size="10.00">QObject</text>
</a>
</g>
</g>
<!-- Node4&#45;&gt;Node3 -->
<g id="edge3" class="edge">
<title>Node4&#45;&gt;Node3</title>
<path fill="none" stroke="midnightblue" d="M69.42,-171.14C76.91,-161.74 85.94,-150.4 92.03,-142.75"/>
<polygon fill="midnightblue" stroke="midnightblue" points="66.59,-169.08 63.1,-179.08 72.07,-173.44 66.59,-169.08"/>
</g>
<!-- Node5 -->
<g id="node5" class="node">
<title>Node5</title>
<g id="a_node5"><a target="_parent" xlink:href="http://doc.qt.io/qt-5/qpaintdevice.html" xlink:title=" ">
<polygon fill="none" stroke="black" points="102,-179.5 102,-198.5 184,-198.5 184,-179.5 102,-179.5"/>
<text text-anchor="middle" x="143" y="-186.5" font-family="Helvetica,sans-Serif" font-size="10.00">QPaintDevice</text>
</a>
</g>
</g>
<!-- Node5&#45;&gt;Node3 -->
<g id="edge4" class="edge">
<title>Node5&#45;&gt;Node3</title>
<path fill="none" stroke="midnightblue" d="M129.27,-171.14C121.6,-161.74 112.37,-150.4 106.13,-142.75"/>
<polygon fill="midnightblue" stroke="midnightblue" points="126.7,-173.54 135.73,-179.08 132.13,-169.12 126.7,-173.54"/>
</g>
</g>
</svg>
