<?xml version="1.0" encoding="UTF-8" standalone="no"?>
<!DOCTYPE svg PUBLIC "-//W3C//DTD SVG 1.1//EN"
 "http://www.w3.org/Graphics/SVG/1.1/DTD/svg11.dtd">
<!-- Generated by graphviz version 2.43.0 (0)
 -->
<!-- Title: BlackSimPlugin::Msfs::CSimulatorMsFsListener Pages: 1 -->
<svg width="185pt" height="218pt"
 viewBox="0.00 0.00 185.00 218.00" xmlns="http://www.w3.org/2000/svg" xmlns:xlink="http://www.w3.org/1999/xlink">
<g id="graph0" class="graph" transform="scale(1 1) rotate(0) translate(4 214)">
<title>BlackSimPlugin::Msfs::CSimulatorMsFsListener</title>
<!-- Node1 -->
<g id="node1" class="node">
<title>Node1</title>
<g id="a_node1"><a xlink:title="Listener for MSFS.">
<polygon fill="#bfbfbf" stroke="black" points="18,-0.5 18,-30.5 159,-30.5 159,-0.5 18,-0.5"/>
<text text-anchor="start" x="26" y="-18.5" font-family="Helvetica,sans-Serif" font-size="10.00">BlackSimPlugin::Msfs</text>
<text text-anchor="middle" x="88.5" y="-7.5" font-family="Helvetica,sans-Serif" font-size="10.00">::CSimulatorMsFsListener</text>
</a>
</g>
</g>
<!-- Node2 -->
<g id="node2" class="node">
<title>Node2</title>
<g id="a_node2"><a xlink:href="class_black_sim_plugin_1_1_fsx_common_1_1_c_simulator_fsx_common_listener.html" target="_top" xlink:title="Listener for FSX.">
<polygon fill="none" stroke="black" points="0,-67.5 0,-97.5 177,-97.5 177,-67.5 0,-67.5"/>
<text text-anchor="start" x="8" y="-85.5" font-family="Helvetica,sans-Serif" font-size="10.00">BlackSimPlugin::FsxCommon</text>
<text text-anchor="middle" x="88.5" y="-74.5" font-family="Helvetica,sans-Serif" font-size="10.00">::CSimulatorFsxCommonListener</text>
</a>
</g>
</g>
<!-- Node2&#45;&gt;Node1 -->
<g id="edge1" class="edge">
<title>Node2&#45;&gt;Node1</title>
<path fill="none" stroke="midnightblue" d="M88.5,-57.11C88.5,-48.15 88.5,-38.32 88.5,-30.58"/>
<polygon fill="midnightblue" stroke="midnightblue" points="85,-57.4 88.5,-67.4 92,-57.4 85,-57.4"/>
</g>
<!-- Node3 -->
<g id="node3" class="node">
<title>Node3</title>
<g id="a_node3"><a xlink:href="class_black_core_1_1_i_simulator_listener.html" target="_top" xlink:title="Interface to a simulator listener.">
<polygon fill="none" stroke="black" points="8,-134.5 8,-153.5 169,-153.5 169,-134.5 8,-134.5"/>
<text text-anchor="middle" x="88.5" y="-141.5" font-family="Helvetica,sans-Serif" font-size="10.00">BlackCore::ISimulatorListener</text>
</a>
</g>
</g>
<!-- Node3&#45;&gt;Node2 -->
<g id="edge2" class="edge">
<title>Node3&#45;&gt;Node2</title>
<path fill="none" stroke="midnightblue" d="M88.5,-124.23C88.5,-115.59 88.5,-105.5 88.5,-97.52"/>
<polygon fill="midnightblue" stroke="midnightblue" points="85,-124.48 88.5,-134.48 92,-124.48 85,-124.48"/>
</g>
<!-- Node4 -->
<g id="node4" class="node">
<title>Node4</title>
<g id="a_node4"><a target="_parent" xlink:href="http://doc.qt.io/qt-5/qobject.html" xlink:title=" ">
<polygon fill="none" stroke="black" points="60.5,-190.5 60.5,-209.5 116.5,-209.5 116.5,-190.5 60.5,-190.5"/>
<text text-anchor="middle" x="88.5" y="-197.5" font-family="Helvetica,sans-Serif" font-size="10.00">QObject</text>
</a>
</g>
</g>
<!-- Node4&#45;&gt;Node3 -->
<g id="edge3" class="edge">
<title>Node4&#45;&gt;Node3</title>
<path fill="none" stroke="midnightblue" d="M88.5,-179.8C88.5,-170.91 88.5,-160.78 88.5,-153.75"/>
<polygon fill="midnightblue" stroke="midnightblue" points="85,-180.08 88.5,-190.08 92,-180.08 85,-180.08"/>
</g>
</g>
</svg>
