<?xml version="1.0" encoding="UTF-8" standalone="no"?>
<!DOCTYPE svg PUBLIC "-//W3C//DTD SVG 1.1//EN"
 "http://www.w3.org/Graphics/SVG/1.1/DTD/svg11.dtd">
<!-- Generated by graphviz version 2.43.0 (0)
 -->
<!-- Title: BlackMisc::Geo::ICoordinateWithRelativePosition Pages: 1 -->
<svg width="513pt" height="137pt"
 viewBox="0.00 0.00 513.00 137.00" xmlns="http://www.w3.org/2000/svg" xmlns:xlink="http://www.w3.org/1999/xlink">
<g id="graph0" class="graph" transform="scale(1 1) rotate(0) translate(4 133)">
<title>BlackMisc::Geo::ICoordinateWithRelativePosition</title>
<!-- Node1 -->
<g id="node1" class="node">
<title>Node1</title>
<g id="a_node1"><a xlink:title="Interface (actually more an abstract class) of coordinates and relative position to something (normal...">
<polygon fill="#bfbfbf" stroke="black" points="190,-49.5 190,-79.5 344,-79.5 344,-49.5 190,-49.5"/>
<text text-anchor="start" x="198" y="-67.5" font-family="Helvetica,sans-Serif" font-size="10.00">BlackMisc::Geo::ICoordinate</text>
<text text-anchor="middle" x="267" y="-56.5" font-family="Helvetica,sans-Serif" font-size="10.00">WithRelativePosition</text>
</a>
</g>
</g>
<!-- Node3 -->
<g id="node3" class="node">
<title>Node3</title>
<g id="a_node3"><a xlink:href="class_black_misc_1_1_aviation_1_1_c_airport.html" target="_top" xlink:title="Value object encapsulating information about an airpot.">
<polygon fill="none" stroke="black" points="386.5,-98.5 386.5,-128.5 498.5,-128.5 498.5,-98.5 386.5,-98.5"/>
<text text-anchor="start" x="394.5" y="-116.5" font-family="Helvetica,sans-Serif" font-size="10.00">BlackMisc::Aviation</text>
<text text-anchor="middle" x="442.5" y="-105.5" font-family="Helvetica,sans-Serif" font-size="10.00">::CAirport</text>
</a>
</g>
</g>
<!-- Node1&#45;&gt;Node3 -->
<g id="edge2" class="edge">
<title>Node1&#45;&gt;Node3</title>
<path fill="none" stroke="midnightblue" d="M331.1,-82.32C349.83,-87.61 370.16,-93.35 388.21,-98.45"/>
<polygon fill="midnightblue" stroke="midnightblue" points="332.05,-78.95 321.47,-79.6 330.14,-85.69 332.05,-78.95"/>
</g>
<!-- Node4 -->
<g id="node4" class="node">
<title>Node4</title>
<g id="a_node4"><a xlink:href="class_black_misc_1_1_aviation_1_1_c_atc_station.html" target="_top" xlink:title="Value object encapsulating information about an ATC station.">
<polygon fill="none" stroke="black" points="386.5,-49.5 386.5,-79.5 498.5,-79.5 498.5,-49.5 386.5,-49.5"/>
<text text-anchor="start" x="394.5" y="-67.5" font-family="Helvetica,sans-Serif" font-size="10.00">BlackMisc::Aviation</text>
<text text-anchor="middle" x="442.5" y="-56.5" font-family="Helvetica,sans-Serif" font-size="10.00">::CAtcStation</text>
</a>
</g>
</g>
<!-- Node1&#45;&gt;Node4 -->
<g id="edge3" class="edge">
<title>Node1&#45;&gt;Node4</title>
<path fill="none" stroke="midnightblue" d="M354.13,-64.5C365.08,-64.5 376.04,-64.5 386.32,-64.5"/>
<polygon fill="midnightblue" stroke="midnightblue" points="354.1,-61 344.1,-64.5 354.1,-68 354.1,-61"/>
</g>
<!-- Node5 -->
<g id="node5" class="node">
<title>Node5</title>
<g id="a_node5"><a xlink:href="class_black_misc_1_1_simulation_1_1_c_simulated_aircraft.html" target="_top" xlink:title="Comprehensive information of an aircraft.">
<polygon fill="none" stroke="black" points="380,-0.5 380,-30.5 505,-30.5 505,-0.5 380,-0.5"/>
<text text-anchor="start" x="388" y="-18.5" font-family="Helvetica,sans-Serif" font-size="10.00">BlackMisc::Simulation</text>
<text text-anchor="middle" x="442.5" y="-7.5" font-family="Helvetica,sans-Serif" font-size="10.00">::CSimulatedAircraft</text>
</a>
</g>
</g>
<!-- Node1&#45;&gt;Node5 -->
<g id="edge4" class="edge">
<title>Node1&#45;&gt;Node5</title>
<path fill="none" stroke="midnightblue" d="M331.1,-46.68C349.83,-41.39 370.16,-35.65 388.21,-30.55"/>
<polygon fill="midnightblue" stroke="midnightblue" points="330.14,-43.31 321.47,-49.4 332.05,-50.05 330.14,-43.31"/>
</g>
<!-- Node2 -->
<g id="node2" class="node">
<title>Node2</title>
<g id="a_node2"><a xlink:href="class_black_misc_1_1_geo_1_1_i_coordinate_geodetic.html" target="_top" xlink:title="Geodetic coordinate, a position in 3D space relative to the reference geoid.">
<polygon fill="none" stroke="black" points="0,-49.5 0,-79.5 154,-79.5 154,-49.5 0,-49.5"/>
<text text-anchor="start" x="8" y="-67.5" font-family="Helvetica,sans-Serif" font-size="10.00">BlackMisc::Geo::ICoordinate</text>
<text text-anchor="middle" x="77" y="-56.5" font-family="Helvetica,sans-Serif" font-size="10.00">Geodetic</text>
</a>
</g>
</g>
<!-- Node2&#45;&gt;Node1 -->
<g id="edge1" class="edge">
<title>Node2&#45;&gt;Node1</title>
<path fill="none" stroke="midnightblue" d="M164.42,-64.5C172.86,-64.5 181.37,-64.5 189.7,-64.5"/>
<polygon fill="midnightblue" stroke="midnightblue" points="164.2,-61 154.2,-64.5 164.2,-68 164.2,-61"/>
</g>
</g>
</svg>
