<?xml version="1.0" encoding="UTF-8" standalone="no"?>
<!DOCTYPE svg PUBLIC "-//W3C//DTD SVG 1.1//EN"
 "http://www.w3.org/Graphics/SVG/1.1/DTD/svg11.dtd">
<!-- Generated by graphviz version 2.43.0 (0)
 -->
<!-- Title: BlackGui::Models::CAudioDeviceInfoListModel Pages: 1 -->
<svg width="266pt" height="352pt"
 viewBox="0.00 0.00 266.00 352.00" xmlns="http://www.w3.org/2000/svg" xmlns:xlink="http://www.w3.org/1999/xlink">
<g id="graph0" class="graph" transform="scale(1 1) rotate(0) translate(4 348)">
<title>BlackGui::Models::CAudioDeviceInfoListModel</title>
<!-- Node1 -->
<g id="node1" class="node">
<title>Node1</title>
<g id="a_node1"><a xlink:title="Audio device list model.">
<polygon fill="#bfbfbf" stroke="black" points="58,-0.5 58,-30.5 200,-30.5 200,-0.5 58,-0.5"/>
<text text-anchor="start" x="66" y="-18.5" font-family="Helvetica,sans-Serif" font-size="10.00">BlackGui::Models::CAudio</text>
<text text-anchor="middle" x="129" y="-7.5" font-family="Helvetica,sans-Serif" font-size="10.00">DeviceInfoListModel</text>
</a>
</g>
</g>
<!-- Node2 -->
<g id="node2" class="node">
<title>Node2</title>
<g id="a_node2"><a xlink:href="class_black_gui_1_1_models_1_1_c_list_model_base.html" target="_top" xlink:title=" ">
<polygon fill="none" stroke="black" points="48.5,-67.5 48.5,-108.5 209.5,-108.5 209.5,-67.5 48.5,-67.5"/>
<text text-anchor="start" x="56.5" y="-96.5" font-family="Helvetica,sans-Serif" font-size="10.00">BlackGui::Models::CListModel</text>
<text text-anchor="start" x="56.5" y="-85.5" font-family="Helvetica,sans-Serif" font-size="10.00">Base&lt; BlackMisc::Audio::</text>
<text text-anchor="middle" x="129" y="-74.5" font-family="Helvetica,sans-Serif" font-size="10.00">CAudioDeviceInfoList, true &gt;</text>
</a>
</g>
</g>
<!-- Node2&#45;&gt;Node1 -->
<g id="edge1" class="edge">
<title>Node2&#45;&gt;Node1</title>
<path fill="none" stroke="midnightblue" d="M129,-57.08C129,-48.01 129,-38.45 129,-30.89"/>
<polygon fill="midnightblue" stroke="midnightblue" points="125.5,-57.36 129,-67.36 132.5,-57.36 125.5,-57.36"/>
</g>
<!-- Node3 -->
<g id="node3" class="node">
<title>Node3</title>
<g id="a_node3"><a xlink:href="class_black_gui_1_1_models_1_1_c_list_model_base_non_template.html" target="_top" xlink:title="Non templated base class, allows Q_OBJECT and signals to be used.">
<polygon fill="none" stroke="black" points="48.5,-145.5 48.5,-175.5 209.5,-175.5 209.5,-145.5 48.5,-145.5"/>
<text text-anchor="start" x="56.5" y="-163.5" font-family="Helvetica,sans-Serif" font-size="10.00">BlackGui::Models::CListModel</text>
<text text-anchor="middle" x="129" y="-152.5" font-family="Helvetica,sans-Serif" font-size="10.00">BaseNonTemplate</text>
</a>
</g>
</g>
<!-- Node3&#45;&gt;Node2 -->
<g id="edge2" class="edge">
<title>Node3&#45;&gt;Node2</title>
<path fill="none" stroke="midnightblue" d="M129,-134.98C129,-126.35 129,-116.76 129,-108.59"/>
<polygon fill="midnightblue" stroke="midnightblue" points="125.5,-135.23 129,-145.23 132.5,-135.23 125.5,-135.23"/>
</g>
<!-- Node4 -->
<g id="node4" class="node">
<title>Node4</title>
<g id="a_node4"><a target="_parent" xlink:href="http://doc.qt.io/qt-5/qstandarditemmodel.html" xlink:title=" ">
<polygon fill="none" stroke="black" points="0,-212.5 0,-231.5 120,-231.5 120,-212.5 0,-212.5"/>
<text text-anchor="middle" x="60" y="-219.5" font-family="Helvetica,sans-Serif" font-size="10.00">QStandardItemModel</text>
</a>
</g>
</g>
<!-- Node4&#45;&gt;Node3 -->
<g id="edge3" class="edge">
<title>Node4&#45;&gt;Node3</title>
<path fill="none" stroke="midnightblue" d="M77.49,-205.92C88.32,-196.58 102.14,-184.66 112.74,-175.52"/>
<polygon fill="midnightblue" stroke="midnightblue" points="75.17,-203.29 69.89,-212.48 79.74,-208.6 75.17,-203.29"/>
</g>
<!-- Node5 -->
<g id="node5" class="node">
<title>Node5</title>
<g id="a_node5"><a target="_parent" xlink:href="http://doc.qt.io/qt-5/qabstractitemmodel.html" xlink:title=" ">
<polygon fill="none" stroke="black" points="1.5,-268.5 1.5,-287.5 118.5,-287.5 118.5,-268.5 1.5,-268.5"/>
<text text-anchor="middle" x="60" y="-275.5" font-family="Helvetica,sans-Serif" font-size="10.00">QAbstractItemModel</text>
</a>
</g>
</g>
<!-- Node5&#45;&gt;Node4 -->
<g id="edge4" class="edge">
<title>Node5&#45;&gt;Node4</title>
<path fill="none" stroke="midnightblue" d="M60,-257.8C60,-248.91 60,-238.78 60,-231.75"/>
<polygon fill="midnightblue" stroke="midnightblue" points="56.5,-258.08 60,-268.08 63.5,-258.08 56.5,-258.08"/>
</g>
<!-- Node6 -->
<g id="node6" class="node">
<title>Node6</title>
<g id="a_node6"><a target="_parent" xlink:href="http://doc.qt.io/qt-5/qobject.html" xlink:title=" ">
<polygon fill="none" stroke="black" points="32,-324.5 32,-343.5 88,-343.5 88,-324.5 32,-324.5"/>
<text text-anchor="middle" x="60" y="-331.5" font-family="Helvetica,sans-Serif" font-size="10.00">QObject</text>
</a>
</g>
</g>
<!-- Node6&#45;&gt;Node5 -->
<g id="edge5" class="edge">
<title>Node6&#45;&gt;Node5</title>
<path fill="none" stroke="midnightblue" d="M60,-313.8C60,-304.91 60,-294.78 60,-287.75"/>
<polygon fill="midnightblue" stroke="midnightblue" points="56.5,-314.08 60,-324.08 63.5,-314.08 56.5,-314.08"/>
</g>
<!-- Node7 -->
<g id="node7" class="node">
<title>Node7</title>
<g id="a_node7"><a xlink:href="class_black_gui_1_1_c_drop_base.html" target="_top" xlink:title="Utilities for dropping swift value objects.">
<polygon fill="none" stroke="black" points="138,-212.5 138,-231.5 258,-231.5 258,-212.5 138,-212.5"/>
<text text-anchor="middle" x="198" y="-219.5" font-family="Helvetica,sans-Serif" font-size="10.00">BlackGui::CDropBase</text>
</a>
</g>
</g>
<!-- Node7&#45;&gt;Node3 -->
<g id="edge6" class="edge">
<title>Node7&#45;&gt;Node3</title>
<path fill="none" stroke="midnightblue" d="M180.51,-205.92C169.68,-196.58 155.86,-184.66 145.26,-175.52"/>
<polygon fill="midnightblue" stroke="midnightblue" points="178.26,-208.6 188.11,-212.48 182.83,-203.29 178.26,-208.6"/>
</g>
</g>
</svg>
