<?xml version="1.0" encoding="UTF-8" standalone="no"?>
<!DOCTYPE svg PUBLIC "-//W3C//DTD SVG 1.1//EN"
 "http://www.w3.org/Graphics/SVG/1.1/DTD/svg11.dtd">
<!-- Generated by graphviz version 2.43.0 (0)
 -->
<!-- Title: BlackGui::Components::CTransponderCodeSpinBox Pages: 1 -->
<svg width="170pt" height="263pt"
 viewBox="0.00 0.00 169.50 263.00" xmlns="http://www.w3.org/2000/svg" xmlns:xlink="http://www.w3.org/1999/xlink">
<g id="graph0" class="graph" transform="scale(1 1) rotate(0) translate(4 259)">
<title>BlackGui::Components::CTransponderCodeSpinBox</title>
<!-- Node1 -->
<g id="node1" class="node">
<title>Node1</title>
<g id="a_node1"><a xlink:title="Specialized spin box for Transponder codes.">
<polygon fill="#bfbfbf" stroke="black" points="0,-0.5 0,-30.5 153,-30.5 153,-0.5 0,-0.5"/>
<text text-anchor="start" x="8" y="-18.5" font-family="Helvetica,sans-Serif" font-size="10.00">BlackGui::Components</text>
<text text-anchor="middle" x="76.5" y="-7.5" font-family="Helvetica,sans-Serif" font-size="10.00">::CTransponderCodeSpinBox</text>
</a>
</g>
</g>
<!-- Node2 -->
<g id="node2" class="node">
<title>Node2</title>
<g id="a_node2"><a target="_parent" xlink:href="http://doc.qt.io/qt-5/qspinbox.html" xlink:title=" ">
<polygon fill="none" stroke="black" points="44.5,-67.5 44.5,-86.5 108.5,-86.5 108.5,-67.5 44.5,-67.5"/>
<text text-anchor="middle" x="76.5" y="-74.5" font-family="Helvetica,sans-Serif" font-size="10.00">QSpinBox</text>
</a>
</g>
</g>
<!-- Node2&#45;&gt;Node1 -->
<g id="edge1" class="edge">
<title>Node2&#45;&gt;Node1</title>
<path fill="none" stroke="midnightblue" d="M76.5,-57.23C76.5,-48.59 76.5,-38.5 76.5,-30.52"/>
<polygon fill="midnightblue" stroke="midnightblue" points="73,-57.48 76.5,-67.48 80,-57.48 73,-57.48"/>
</g>
<!-- Node3 -->
<g id="node3" class="node">
<title>Node3</title>
<g id="a_node3"><a target="_parent" xlink:href="http://doc.qt.io/qt-5/qabstractspinbox.html" xlink:title=" ">
<polygon fill="none" stroke="black" points="24.5,-123.5 24.5,-142.5 128.5,-142.5 128.5,-123.5 24.5,-123.5"/>
<text text-anchor="middle" x="76.5" y="-130.5" font-family="Helvetica,sans-Serif" font-size="10.00">QAbstractSpinBox</text>
</a>
</g>
</g>
<!-- Node3&#45;&gt;Node2 -->
<g id="edge2" class="edge">
<title>Node3&#45;&gt;Node2</title>
<path fill="none" stroke="midnightblue" d="M76.5,-112.8C76.5,-103.91 76.5,-93.78 76.5,-86.75"/>
<polygon fill="midnightblue" stroke="midnightblue" points="73,-113.08 76.5,-123.08 80,-113.08 73,-113.08"/>
</g>
<!-- Node4 -->
<g id="node4" class="node">
<title>Node4</title>
<g id="a_node4"><a target="_parent" xlink:href="http://doc.qt.io/qt-5/qwidget.html" xlink:title=" ">
<polygon fill="none" stroke="black" points="47,-179.5 47,-198.5 106,-198.5 106,-179.5 47,-179.5"/>
<text text-anchor="middle" x="76.5" y="-186.5" font-family="Helvetica,sans-Serif" font-size="10.00">QWidget</text>
</a>
</g>
</g>
<!-- Node4&#45;&gt;Node3 -->
<g id="edge3" class="edge">
<title>Node4&#45;&gt;Node3</title>
<path fill="none" stroke="midnightblue" d="M76.5,-168.8C76.5,-159.91 76.5,-149.78 76.5,-142.75"/>
<polygon fill="midnightblue" stroke="midnightblue" points="73,-169.08 76.5,-179.08 80,-169.08 73,-169.08"/>
</g>
<!-- Node5 -->
<g id="node5" class="node">
<title>Node5</title>
<g id="a_node5"><a target="_parent" xlink:href="http://doc.qt.io/qt-5/qobject.html" xlink:title=" ">
<polygon fill="none" stroke="black" points="5.5,-235.5 5.5,-254.5 61.5,-254.5 61.5,-235.5 5.5,-235.5"/>
<text text-anchor="middle" x="33.5" y="-242.5" font-family="Helvetica,sans-Serif" font-size="10.00">QObject</text>
</a>
</g>
</g>
<!-- Node5&#45;&gt;Node4 -->
<g id="edge4" class="edge">
<title>Node5&#45;&gt;Node4</title>
<path fill="none" stroke="midnightblue" d="M46.92,-227.14C54.41,-217.74 63.44,-206.4 69.53,-198.75"/>
<polygon fill="midnightblue" stroke="midnightblue" points="44.09,-225.08 40.6,-235.08 49.57,-229.44 44.09,-225.08"/>
</g>
<!-- Node6 -->
<g id="node6" class="node">
<title>Node6</title>
<g id="a_node6"><a target="_parent" xlink:href="http://doc.qt.io/qt-5/qpaintdevice.html" xlink:title=" ">
<polygon fill="none" stroke="black" points="79.5,-235.5 79.5,-254.5 161.5,-254.5 161.5,-235.5 79.5,-235.5"/>
<text text-anchor="middle" x="120.5" y="-242.5" font-family="Helvetica,sans-Serif" font-size="10.00">QPaintDevice</text>
</a>
</g>
</g>
<!-- Node6&#45;&gt;Node4 -->
<g id="edge5" class="edge">
<title>Node6&#45;&gt;Node4</title>
<path fill="none" stroke="midnightblue" d="M106.77,-227.14C99.1,-217.74 89.87,-206.4 83.63,-198.75"/>
<polygon fill="midnightblue" stroke="midnightblue" points="104.2,-229.54 113.23,-235.08 109.63,-225.12 104.2,-229.54"/>
</g>
</g>
</svg>
