<?xml version="1.0" encoding="UTF-8" standalone="no"?>
<!DOCTYPE svg PUBLIC "-//W3C//DTD SVG 1.1//EN"
 "http://www.w3.org/Graphics/SVG/1.1/DTD/svg11.dtd">
<!-- Generated by graphviz version 2.43.0 (0)
 -->
<!-- Title: BlackGui::CLoadIndicatorEnabled Pages: 1 -->
<svg width="352pt" height="186pt"
 viewBox="0.00 0.00 352.00 186.00" xmlns="http://www.w3.org/2000/svg" xmlns:xlink="http://www.w3.org/1999/xlink">
<g id="graph0" class="graph" transform="scale(1 1) rotate(0) translate(4 182)">
<title>BlackGui::CLoadIndicatorEnabled</title>
<!-- Node1 -->
<g id="node1" class="node">
<title>Node1</title>
<g id="a_node1"><a xlink:title="Enable widget class for load indicator.">
<polygon fill="#bfbfbf" stroke="black" points="0,-73.5 0,-103.5 139,-103.5 139,-73.5 0,-73.5"/>
<text text-anchor="start" x="8" y="-91.5" font-family="Helvetica,sans-Serif" font-size="10.00">BlackGui::CLoadIndicator</text>
<text text-anchor="middle" x="69.5" y="-80.5" font-family="Helvetica,sans-Serif" font-size="10.00">Enabled</text>
</a>
</g>
</g>
<!-- Node2 -->
<g id="node2" class="node">
<title>Node2</title>
<g id="a_node2"><a xlink:href="class_black_gui_1_1_components_1_1_c_db_load_overview_component.html" target="_top" xlink:title="Overview about load state of DB data.">
<polygon fill="none" stroke="black" points="175,-147.5 175,-177.5 344,-177.5 344,-147.5 175,-147.5"/>
<text text-anchor="start" x="183" y="-165.5" font-family="Helvetica,sans-Serif" font-size="10.00">BlackGui::Components</text>
<text text-anchor="middle" x="259.5" y="-154.5" font-family="Helvetica,sans-Serif" font-size="10.00">::CDbLoadOverviewComponent</text>
</a>
</g>
</g>
<!-- Node1&#45;&gt;Node2 -->
<g id="edge1" class="edge">
<title>Node1&#45;&gt;Node2</title>
<path fill="none" stroke="midnightblue" d="M107.7,-108.16C127.37,-118.08 152.11,-129.81 175,-138.5 183.46,-141.71 192.54,-144.74 201.49,-147.49"/>
<polygon fill="midnightblue" stroke="midnightblue" points="109.27,-105.03 98.77,-103.61 106.09,-111.27 109.27,-105.03"/>
</g>
<!-- Node3 -->
<g id="node3" class="node">
<title>Node3</title>
<g id="a_node3"><a xlink:href="class_black_gui_1_1_components_1_1_c_db_login_component.html" target="_top" xlink:title="Login to DB.">
<polygon fill="none" stroke="black" points="195.5,-98.5 195.5,-128.5 323.5,-128.5 323.5,-98.5 195.5,-98.5"/>
<text text-anchor="start" x="203.5" y="-116.5" font-family="Helvetica,sans-Serif" font-size="10.00">BlackGui::Components</text>
<text text-anchor="middle" x="259.5" y="-105.5" font-family="Helvetica,sans-Serif" font-size="10.00">::CDbLoginComponent</text>
</a>
</g>
</g>
<!-- Node1&#45;&gt;Node3 -->
<g id="edge2" class="edge">
<title>Node1&#45;&gt;Node3</title>
<path fill="none" stroke="midnightblue" d="M149.18,-98.96C164.57,-101.01 180.52,-103.13 195.32,-105.1"/>
<polygon fill="midnightblue" stroke="midnightblue" points="149.54,-95.48 139.17,-97.63 148.62,-102.42 149.54,-95.48"/>
</g>
<!-- Node4 -->
<g id="node4" class="node">
<title>Node4</title>
<g id="a_node4"><a xlink:href="class_black_gui_1_1_components_1_1_c_download_component.html" target="_top" xlink:title="Download a file.">
<polygon fill="none" stroke="black" points="192.5,-49.5 192.5,-79.5 326.5,-79.5 326.5,-49.5 192.5,-49.5"/>
<text text-anchor="start" x="200.5" y="-67.5" font-family="Helvetica,sans-Serif" font-size="10.00">BlackGui::Components</text>
<text text-anchor="middle" x="259.5" y="-56.5" font-family="Helvetica,sans-Serif" font-size="10.00">::CDownloadComponent</text>
</a>
</g>
</g>
<!-- Node1&#45;&gt;Node4 -->
<g id="edge3" class="edge">
<title>Node1&#45;&gt;Node4</title>
<path fill="none" stroke="midnightblue" d="M149.43,-78.42C163.67,-76.61 178.38,-74.73 192.21,-72.96"/>
<polygon fill="midnightblue" stroke="midnightblue" points="148.65,-75 139.17,-79.73 149.53,-81.94 148.65,-75"/>
</g>
<!-- Node5 -->
<g id="node5" class="node">
<title>Node5</title>
<g id="a_node5"><a xlink:href="class_black_gui_1_1_components_1_1_c_install_x_swift_bus_component.html" target="_top" xlink:title="Download and install XSwiftBus.">
<polygon fill="none" stroke="black" points="177.5,-0.5 177.5,-30.5 341.5,-30.5 341.5,-0.5 177.5,-0.5"/>
<text text-anchor="start" x="185.5" y="-18.5" font-family="Helvetica,sans-Serif" font-size="10.00">BlackGui::Components</text>
<text text-anchor="middle" x="259.5" y="-7.5" font-family="Helvetica,sans-Serif" font-size="10.00">::CInstallXSwiftBusComponent</text>
</a>
</g>
</g>
<!-- Node1&#45;&gt;Node5 -->
<g id="edge4" class="edge">
<title>Node1&#45;&gt;Node5</title>
<path fill="none" stroke="midnightblue" d="M109.78,-68.88C129.14,-59.61 153.01,-48.8 175,-40.5 184.34,-36.97 194.42,-33.61 204.23,-30.55"/>
<polygon fill="midnightblue" stroke="midnightblue" points="108.14,-65.78 100.66,-73.29 111.19,-72.09 108.14,-65.78"/>
</g>
</g>
</svg>
