<?xml version="1.0" encoding="UTF-8" standalone="no"?>
<!DOCTYPE svg PUBLIC "-//W3C//DTD SVG 1.1//EN"
 "http://www.w3.org/Graphics/SVG/1.1/DTD/svg11.dtd">
<!-- Generated by graphviz version 2.43.0 (0)
 -->
<!-- Title: BlackGui::Models::CBoolLedFormatter Pages: 1 -->
<svg width="164pt" height="173pt"
 viewBox="0.00 0.00 164.00 173.00" xmlns="http://www.w3.org/2000/svg" xmlns:xlink="http://www.w3.org/1999/xlink">
<g id="graph0" class="graph" transform="scale(1 1) rotate(0) translate(4 169)">
<title>BlackGui::Models::CBoolLedFormatter</title>
<!-- Node1 -->
<g id="node1" class="node">
<title>Node1</title>
<g id="a_node1"><a xlink:title="Format as bool LED value.">
<polygon fill="#bfbfbf" stroke="black" points="1.5,-0.5 1.5,-30.5 154.5,-30.5 154.5,-0.5 1.5,-0.5"/>
<text text-anchor="start" x="9.5" y="-18.5" font-family="Helvetica,sans-Serif" font-size="10.00">BlackGui::Models::CBoolLed</text>
<text text-anchor="middle" x="78" y="-7.5" font-family="Helvetica,sans-Serif" font-size="10.00">Formatter</text>
</a>
</g>
</g>
<!-- Node2 -->
<g id="node2" class="node">
<title>Node2</title>
<g id="a_node2"><a xlink:href="class_black_gui_1_1_models_1_1_c_bool_text_formatter.html" target="_top" xlink:title="Bool value, format as text.">
<polygon fill="none" stroke="black" points="0,-67.5 0,-97.5 156,-97.5 156,-67.5 0,-67.5"/>
<text text-anchor="start" x="8" y="-85.5" font-family="Helvetica,sans-Serif" font-size="10.00">BlackGui::Models::CBoolText</text>
<text text-anchor="middle" x="78" y="-74.5" font-family="Helvetica,sans-Serif" font-size="10.00">Formatter</text>
</a>
</g>
</g>
<!-- Node2&#45;&gt;Node1 -->
<g id="edge1" class="edge">
<title>Node2&#45;&gt;Node1</title>
<path fill="none" stroke="midnightblue" d="M78,-57.11C78,-48.15 78,-38.32 78,-30.58"/>
<polygon fill="midnightblue" stroke="midnightblue" points="74.5,-57.4 78,-67.4 81.5,-57.4 74.5,-57.4"/>
</g>
<!-- Node3 -->
<g id="node3" class="node">
<title>Node3</title>
<g id="a_node3"><a xlink:href="class_black_gui_1_1_models_1_1_c_default_formatter.html" target="_top" xlink:title="Column formatter default implementation, also serving as interface.">
<polygon fill="none" stroke="black" points="3,-134.5 3,-164.5 153,-164.5 153,-134.5 3,-134.5"/>
<text text-anchor="start" x="11" y="-152.5" font-family="Helvetica,sans-Serif" font-size="10.00">BlackGui::Models::CDefault</text>
<text text-anchor="middle" x="78" y="-141.5" font-family="Helvetica,sans-Serif" font-size="10.00">Formatter</text>
</a>
</g>
</g>
<!-- Node3&#45;&gt;Node2 -->
<g id="edge2" class="edge">
<title>Node3&#45;&gt;Node2</title>
<path fill="none" stroke="midnightblue" d="M78,-124.11C78,-115.15 78,-105.32 78,-97.58"/>
<polygon fill="midnightblue" stroke="midnightblue" points="74.5,-124.4 78,-134.4 81.5,-124.4 74.5,-124.4"/>
</g>
</g>
</svg>
