<?xml version="1.0" encoding="UTF-8" standalone="no"?>
<!DOCTYPE svg PUBLIC "-//W3C//DTD SVG 1.1//EN"
 "http://www.w3.org/Graphics/SVG/1.1/DTD/svg11.dtd">
<!-- Generated by graphviz version 2.43.0 (0)
 -->
<!-- Title: BlackSample::Client Pages: 1 -->
<svg width="360pt" height="162pt"
 viewBox="0.00 0.00 360.00 162.00" xmlns="http://www.w3.org/2000/svg" xmlns:xlink="http://www.w3.org/1999/xlink">
<g id="graph0" class="graph" transform="scale(1 1) rotate(0) translate(4 158)">
<title>BlackSample::Client</title>
<!-- Node1 -->
<g id="node1" class="node">
<title>Node1</title>
<g id="a_node1"><a xlink:title="Simple command line interface client.">
<polygon fill="#bfbfbf" stroke="black" points="79.5,-0.5 79.5,-19.5 194.5,-19.5 194.5,-0.5 79.5,-0.5"/>
<text text-anchor="middle" x="137" y="-7.5" font-family="Helvetica,sans-Serif" font-size="10.00">BlackSample::Client</text>
</a>
</g>
</g>
<!-- Node2 -->
<g id="node2" class="node">
<title>Node2</title>
<g id="a_node2"><a target="_parent" xlink:href="http://doc.qt.io/qt-5/qobject.html" xlink:title=" ">
<polygon fill="none" stroke="black" points="0,-62 0,-81 56,-81 56,-62 0,-62"/>
<text text-anchor="middle" x="28" y="-69" font-family="Helvetica,sans-Serif" font-size="10.00">QObject</text>
</a>
</g>
</g>
<!-- Node2&#45;&gt;Node1 -->
<g id="edge1" class="edge">
<title>Node2&#45;&gt;Node1</title>
<path fill="none" stroke="midnightblue" d="M52.63,-57.06C73.72,-45.54 103.46,-29.31 121.41,-19.51"/>
<polygon fill="midnightblue" stroke="midnightblue" points="50.72,-54.11 43.62,-61.98 54.07,-60.26 50.72,-54.11"/>
</g>
<!-- Node3 -->
<g id="node3" class="node">
<title>Node3</title>
<g id="a_node3"><a xlink:href="class_black_misc_1_1_simulation_1_1_c_own_aircraft_aware.html" target="_top" xlink:title="Delegating class which can be directly used to access an.">
<polygon fill="none" stroke="black" points="74.5,-56.5 74.5,-86.5 199.5,-86.5 199.5,-56.5 74.5,-56.5"/>
<text text-anchor="start" x="82.5" y="-74.5" font-family="Helvetica,sans-Serif" font-size="10.00">BlackMisc::Simulation</text>
<text text-anchor="middle" x="137" y="-63.5" font-family="Helvetica,sans-Serif" font-size="10.00">::COwnAircraftAware</text>
</a>
</g>
</g>
<!-- Node3&#45;&gt;Node1 -->
<g id="edge2" class="edge">
<title>Node3&#45;&gt;Node1</title>
<path fill="none" stroke="midnightblue" d="M137,-46.29C137,-36.86 137,-26.65 137,-19.66"/>
<polygon fill="midnightblue" stroke="midnightblue" points="133.5,-46.4 137,-56.4 140.5,-46.4 133.5,-46.4"/>
</g>
<!-- Node4 -->
<g id="node4" class="node">
<title>Node4</title>
<g id="a_node4"><a xlink:href="class_black_misc_1_1_i_provider_aware.html" target="_top" xlink:title=" ">
<polygon fill="none" stroke="black" points="64,-123.5 64,-153.5 210,-153.5 210,-123.5 64,-123.5"/>
<text text-anchor="start" x="72" y="-141.5" font-family="Helvetica,sans-Serif" font-size="10.00">BlackMisc::IProviderAware</text>
<text text-anchor="middle" x="137" y="-130.5" font-family="Helvetica,sans-Serif" font-size="10.00">&lt; IOwnAircraftProvider &gt;</text>
</a>
</g>
</g>
<!-- Node4&#45;&gt;Node3 -->
<g id="edge3" class="edge">
<title>Node4&#45;&gt;Node3</title>
<path fill="none" stroke="midnightblue" d="M137,-113.11C137,-104.15 137,-94.32 137,-86.58"/>
<polygon fill="midnightblue" stroke="midnightblue" points="133.5,-113.4 137,-123.4 140.5,-113.4 133.5,-113.4"/>
</g>
<!-- Node5 -->
<g id="node5" class="node">
<title>Node5</title>
<g id="a_node5"><a xlink:href="class_black_misc_1_1_c_identifiable.html" target="_top" xlink:title="Base class with a member CIdentifier to be inherited by a class which has an identity in the environm...">
<polygon fill="none" stroke="black" points="218,-62 218,-81 352,-81 352,-62 218,-62"/>
<text text-anchor="middle" x="285" y="-69" font-family="Helvetica,sans-Serif" font-size="10.00">BlackMisc::CIdentifiable</text>
</a>
</g>
</g>
<!-- Node5&#45;&gt;Node1 -->
<g id="edge4" class="edge">
<title>Node5&#45;&gt;Node1</title>
<path fill="none" stroke="midnightblue" d="M254.23,-58.13C225.48,-46.57 183.32,-29.62 158.17,-19.51"/>
<polygon fill="midnightblue" stroke="midnightblue" points="253.21,-61.49 263.8,-61.98 255.82,-55 253.21,-61.49"/>
</g>
</g>
</svg>
