<?xml version="1.0" encoding="UTF-8" standalone="no"?>
<!DOCTYPE svg PUBLIC "-//W3C//DTD SVG 1.1//EN"
 "http://www.w3.org/Graphics/SVG/1.1/DTD/svg11.dtd">
<!-- Generated by graphviz version 2.43.0 (0)
 -->
<!-- Title: BlackGui::Models::CListModelDbObjects&lt; T, K, UseCompare &gt; Pages: 1 -->
<svg width="1393pt" height="132pt"
 viewBox="0.00 0.00 1393.00 132.00" xmlns="http://www.w3.org/2000/svg" xmlns:xlink="http://www.w3.org/1999/xlink">
<g id="graph0" class="graph" transform="scale(1 1) rotate(0) translate(4 128)">
<title>BlackGui::Models::CListModelDbObjects&lt; T, K, UseCompare &gt;</title>
<!-- Node1 -->
<g id="node1" class="node">
<title>Node1</title>
<g id="a_node1"><a xlink:title="List model for DB objects.">
<polygon fill="#bfbfbf" stroke="black" points="795,-46.5 795,-76.5 972,-76.5 972,-46.5 795,-46.5"/>
<text text-anchor="start" x="803" y="-64.5" font-family="Helvetica,sans-Serif" font-size="10.00">BlackGui::Models::CListModel</text>
<text text-anchor="middle" x="883.5" y="-53.5" font-family="Helvetica,sans-Serif" font-size="10.00">DbObjects&lt; T, K, UseCompare &gt;</text>
</a>
</g>
</g>
<!-- Node8 -->
<g id="node8" class="node">
<title>Node8</title>
<g id="a_node8"><a xlink:href="class_black_gui_1_1_models_1_1_c_orderable_list_model_db_objects.html" target="_top" xlink:title=" ">
<polygon fill="none" stroke="black" points="1008,-71.5 1008,-123.5 1183,-123.5 1183,-71.5 1008,-71.5"/>
<text text-anchor="start" x="1016" y="-111.5" font-family="Helvetica,sans-Serif" font-size="10.00">BlackGui::Models::COrderable</text>
<text text-anchor="start" x="1016" y="-100.5" font-family="Helvetica,sans-Serif" font-size="10.00">ListModelDbObjects&lt; BlackMisc</text>
<text text-anchor="start" x="1016" y="-89.5" font-family="Helvetica,sans-Serif" font-size="10.00">::Simulation::CDistributorList,</text>
<text text-anchor="middle" x="1095.5" y="-78.5" font-family="Helvetica,sans-Serif" font-size="10.00"> QString, true &gt;</text>
</a>
</g>
</g>
<!-- Node1&#45;&gt;Node8 -->
<g id="edge7" class="edge">
<title>Node1&#45;&gt;Node8</title>
<path fill="none" stroke="midnightblue" d="M982.07,-78.23C990.65,-79.7 999.3,-81.18 1007.78,-82.63"/>
<polygon fill="midnightblue" stroke="midnightblue" points="982.49,-74.75 972.04,-76.51 981.3,-81.65 982.49,-74.75"/>
</g>
<!-- Node10 -->
<g id="node10" class="node">
<title>Node10</title>
<g id="a_node10"><a xlink:href="class_black_gui_1_1_models_1_1_c_orderable_list_model_db_objects.html" target="_top" xlink:title=" ">
<polygon fill="none" stroke="black" points="1008,-0.5 1008,-52.5 1183,-52.5 1183,-0.5 1008,-0.5"/>
<text text-anchor="start" x="1016" y="-40.5" font-family="Helvetica,sans-Serif" font-size="10.00">BlackGui::Models::COrderable</text>
<text text-anchor="start" x="1016" y="-29.5" font-family="Helvetica,sans-Serif" font-size="10.00">ListModelDbObjects&lt; BlackMisc</text>
<text text-anchor="start" x="1016" y="-18.5" font-family="Helvetica,sans-Serif" font-size="10.00">::Simulation::CAircraftModelList,</text>
<text text-anchor="middle" x="1095.5" y="-7.5" font-family="Helvetica,sans-Serif" font-size="10.00"> int, true &gt;</text>
</a>
</g>
</g>
<!-- Node1&#45;&gt;Node10 -->
<g id="edge9" class="edge">
<title>Node1&#45;&gt;Node10</title>
<path fill="none" stroke="midnightblue" d="M982.07,-45.24C990.65,-43.81 999.3,-42.37 1007.78,-40.95"/>
<polygon fill="midnightblue" stroke="midnightblue" points="981.33,-41.81 972.04,-46.91 982.48,-48.72 981.33,-41.81"/>
</g>
<!-- Node2 -->
<g id="node2" class="node">
<title>Node2</title>
<g id="a_node2"><a xlink:href="class_black_gui_1_1_models_1_1_c_list_model_base.html" target="_top" xlink:title=" ">
<polygon fill="none" stroke="black" points="598,-46.5 598,-76.5 759,-76.5 759,-46.5 598,-46.5"/>
<text text-anchor="start" x="606" y="-64.5" font-family="Helvetica,sans-Serif" font-size="10.00">BlackGui::Models::CListModel</text>
<text text-anchor="middle" x="678.5" y="-53.5" font-family="Helvetica,sans-Serif" font-size="10.00">Base&lt; T, false &gt;</text>
</a>
</g>
</g>
<!-- Node2&#45;&gt;Node1 -->
<g id="edge1" class="edge">
<title>Node2&#45;&gt;Node1</title>
<path fill="none" stroke="midnightblue" d="M769.35,-61.5C777.77,-61.5 786.29,-61.5 794.69,-61.5"/>
<polygon fill="midnightblue" stroke="midnightblue" points="769.15,-58 759.15,-61.5 769.15,-65 769.15,-58"/>
</g>
<!-- Node3 -->
<g id="node3" class="node">
<title>Node3</title>
<g id="a_node3"><a xlink:href="class_black_gui_1_1_models_1_1_c_list_model_base_non_template.html" target="_top" xlink:title="Non templated base class, allows Q_OBJECT and signals to be used.">
<polygon fill="none" stroke="black" points="401,-46.5 401,-76.5 562,-76.5 562,-46.5 401,-46.5"/>
<text text-anchor="start" x="409" y="-64.5" font-family="Helvetica,sans-Serif" font-size="10.00">BlackGui::Models::CListModel</text>
<text text-anchor="middle" x="481.5" y="-53.5" font-family="Helvetica,sans-Serif" font-size="10.00">BaseNonTemplate</text>
</a>
</g>
</g>
<!-- Node3&#45;&gt;Node2 -->
<g id="edge2" class="edge">
<title>Node3&#45;&gt;Node2</title>
<path fill="none" stroke="midnightblue" d="M572.12,-61.5C580.7,-61.5 589.36,-61.5 597.84,-61.5"/>
<polygon fill="midnightblue" stroke="midnightblue" points="572.1,-58 562.1,-61.5 572.1,-65 572.1,-58"/>
</g>
<!-- Node4 -->
<g id="node4" class="node">
<title>Node4</title>
<g id="a_node4"><a target="_parent" xlink:href="http://doc.qt.io/qt-5/qstandarditemmodel.html" xlink:title=" ">
<polygon fill="none" stroke="black" points="245,-71 245,-90 365,-90 365,-71 245,-71"/>
<text text-anchor="middle" x="305" y="-78" font-family="Helvetica,sans-Serif" font-size="10.00">QStandardItemModel</text>
</a>
</g>
</g>
<!-- Node4&#45;&gt;Node3 -->
<g id="edge3" class="edge">
<title>Node4&#45;&gt;Node3</title>
<path fill="none" stroke="midnightblue" d="M375.18,-72.97C383.58,-72.05 392.21,-71.11 400.75,-70.18"/>
<polygon fill="midnightblue" stroke="midnightblue" points="374.64,-69.51 365.08,-74.07 375.4,-76.46 374.64,-69.51"/>
</g>
<!-- Node5 -->
<g id="node5" class="node">
<title>Node5</title>
<g id="a_node5"><a target="_parent" xlink:href="http://doc.qt.io/qt-5/qabstractitemmodel.html" xlink:title=" ">
<polygon fill="none" stroke="black" points="92,-71 92,-90 209,-90 209,-71 92,-71"/>
<text text-anchor="middle" x="150.5" y="-78" font-family="Helvetica,sans-Serif" font-size="10.00">QAbstractItemModel</text>
</a>
</g>
</g>
<!-- Node5&#45;&gt;Node4 -->
<g id="edge4" class="edge">
<title>Node5&#45;&gt;Node4</title>
<path fill="none" stroke="midnightblue" d="M219.17,-80.5C227.78,-80.5 236.54,-80.5 245,-80.5"/>
<polygon fill="midnightblue" stroke="midnightblue" points="219.15,-77 209.15,-80.5 219.15,-84 219.15,-77"/>
</g>
<!-- Node6 -->
<g id="node6" class="node">
<title>Node6</title>
<g id="a_node6"><a target="_parent" xlink:href="http://doc.qt.io/qt-5/qobject.html" xlink:title=" ">
<polygon fill="none" stroke="black" points="0,-71 0,-90 56,-90 56,-71 0,-71"/>
<text text-anchor="middle" x="28" y="-78" font-family="Helvetica,sans-Serif" font-size="10.00">QObject</text>
</a>
</g>
</g>
<!-- Node6&#45;&gt;Node5 -->
<g id="edge5" class="edge">
<title>Node6&#45;&gt;Node5</title>
<path fill="none" stroke="midnightblue" d="M66.31,-80.5C74.46,-80.5 83.27,-80.5 91.99,-80.5"/>
<polygon fill="midnightblue" stroke="midnightblue" points="66.04,-77 56.04,-80.5 66.04,-84 66.04,-77"/>
</g>
<!-- Node7 -->
<g id="node7" class="node">
<title>Node7</title>
<g id="a_node7"><a xlink:href="class_black_gui_1_1_c_drop_base.html" target="_top" xlink:title="Utilities for dropping swift value objects.">
<polygon fill="none" stroke="black" points="245,-33 245,-52 365,-52 365,-33 245,-33"/>
<text text-anchor="middle" x="305" y="-40" font-family="Helvetica,sans-Serif" font-size="10.00">BlackGui::CDropBase</text>
</a>
</g>
</g>
<!-- Node7&#45;&gt;Node3 -->
<g id="edge6" class="edge">
<title>Node7&#45;&gt;Node3</title>
<path fill="none" stroke="midnightblue" d="M375.18,-50.03C383.58,-50.95 392.21,-51.89 400.75,-52.82"/>
<polygon fill="midnightblue" stroke="midnightblue" points="375.4,-46.54 365.08,-48.93 374.64,-53.49 375.4,-46.54"/>
</g>
<!-- Node9 -->
<g id="node9" class="node">
<title>Node9</title>
<g id="a_node9"><a xlink:href="class_black_gui_1_1_models_1_1_c_distributor_list_model.html" target="_top" xlink:title="Distributor list model.">
<polygon fill="none" stroke="black" points="1219,-82.5 1219,-112.5 1385,-112.5 1385,-82.5 1219,-82.5"/>
<text text-anchor="start" x="1227" y="-100.5" font-family="Helvetica,sans-Serif" font-size="10.00">BlackGui::Models::CDistributor</text>
<text text-anchor="middle" x="1302" y="-89.5" font-family="Helvetica,sans-Serif" font-size="10.00">ListModel</text>
</a>
</g>
</g>
<!-- Node8&#45;&gt;Node9 -->
<g id="edge8" class="edge">
<title>Node8&#45;&gt;Node9</title>
<path fill="none" stroke="midnightblue" d="M1193.48,-97.5C1201.91,-97.5 1210.4,-97.5 1218.7,-97.5"/>
<polygon fill="midnightblue" stroke="midnightblue" points="1193.23,-94 1183.23,-97.5 1193.23,-101 1193.23,-94"/>
</g>
<!-- Node11 -->
<g id="node11" class="node">
<title>Node11</title>
<g id="a_node11"><a xlink:href="class_black_gui_1_1_models_1_1_c_aircraft_model_list_model.html" target="_top" xlink:title="Aircraft model list model.">
<polygon fill="none" stroke="black" points="1227.5,-11.5 1227.5,-41.5 1376.5,-41.5 1376.5,-11.5 1227.5,-11.5"/>
<text text-anchor="start" x="1235.5" y="-29.5" font-family="Helvetica,sans-Serif" font-size="10.00">BlackGui::Models::CAircraft</text>
<text text-anchor="middle" x="1302" y="-18.5" font-family="Helvetica,sans-Serif" font-size="10.00">ModelListModel</text>
</a>
</g>
</g>
<!-- Node10&#45;&gt;Node11 -->
<g id="edge10" class="edge">
<title>Node10&#45;&gt;Node11</title>
<path fill="none" stroke="midnightblue" d="M1193.27,-26.5C1204.74,-26.5 1216.3,-26.5 1227.38,-26.5"/>
<polygon fill="midnightblue" stroke="midnightblue" points="1193.23,-23 1183.23,-26.5 1193.23,-30 1193.23,-23"/>
</g>
</g>
</svg>
