<?xml version="1.0" encoding="UTF-8" standalone="no"?>
<!DOCTYPE svg PUBLIC "-//W3C//DTD SVG 1.1//EN"
 "http://www.w3.org/Graphics/SVG/1.1/DTD/svg11.dtd">
<!-- Generated by graphviz version 2.43.0 (0)
 -->
<!-- Title: BlackCore::Context::IContextNetwork Pages: 1 -->
<svg width="532pt" height="137pt"
 viewBox="0.00 0.00 532.00 137.00" xmlns="http://www.w3.org/2000/svg" xmlns:xlink="http://www.w3.org/1999/xlink">
<g id="graph0" class="graph" transform="scale(1 1) rotate(0) translate(4 133)">
<title>BlackCore::Context::IContextNetwork</title>
<!-- Node1 -->
<g id="node1" class="node">
<title>Node1</title>
<g id="a_node1"><a xlink:title="Network context proxy.">
<polygon fill="#bfbfbf" stroke="black" points="238,-49.5 238,-79.5 348,-79.5 348,-49.5 238,-49.5"/>
<text text-anchor="start" x="246" y="-67.5" font-family="Helvetica,sans-Serif" font-size="10.00">BlackCore::Context</text>
<text text-anchor="middle" x="293" y="-56.5" font-family="Helvetica,sans-Serif" font-size="10.00">::IContextNetwork</text>
</a>
</g>
</g>
<!-- Node4 -->
<g id="node4" class="node">
<title>Node4</title>
<g id="a_node4"><a xlink:href="class_black_core_1_1_context_1_1_c_context_network.html" target="_top" xlink:title="Network context implementation.">
<polygon fill="none" stroke="black" points="399,-98.5 399,-128.5 509,-128.5 509,-98.5 399,-98.5"/>
<text text-anchor="start" x="407" y="-116.5" font-family="Helvetica,sans-Serif" font-size="10.00">BlackCore::Context</text>
<text text-anchor="middle" x="454" y="-105.5" font-family="Helvetica,sans-Serif" font-size="10.00">::CContextNetwork</text>
</a>
</g>
</g>
<!-- Node1&#45;&gt;Node4 -->
<g id="edge3" class="edge">
<title>Node1&#45;&gt;Node4</title>
<path fill="none" stroke="midnightblue" d="M352.77,-82.61C369.68,-87.82 387.93,-93.45 404.16,-98.45"/>
<polygon fill="midnightblue" stroke="midnightblue" points="353.59,-79.2 343,-79.6 351.53,-85.89 353.59,-79.2"/>
</g>
<!-- Node5 -->
<g id="node5" class="node">
<title>Node5</title>
<g id="a_node5"><a xlink:href="class_black_core_1_1_context_1_1_c_context_network_empty.html" target="_top" xlink:title="Empty context, used during shutdown/initialization.">
<polygon fill="none" stroke="black" points="384,-49.5 384,-79.5 524,-79.5 524,-49.5 384,-49.5"/>
<text text-anchor="start" x="392" y="-67.5" font-family="Helvetica,sans-Serif" font-size="10.00">BlackCore::Context</text>
<text text-anchor="middle" x="454" y="-56.5" font-family="Helvetica,sans-Serif" font-size="10.00">::CContextNetworkEmpty</text>
</a>
</g>
</g>
<!-- Node1&#45;&gt;Node5 -->
<g id="edge4" class="edge">
<title>Node1&#45;&gt;Node5</title>
<path fill="none" stroke="midnightblue" d="M358.35,-64.5C366.73,-64.5 375.34,-64.5 383.79,-64.5"/>
<polygon fill="midnightblue" stroke="midnightblue" points="358.27,-61 348.27,-64.5 358.27,-68 358.27,-61"/>
</g>
<!-- Node6 -->
<g id="node6" class="node">
<title>Node6</title>
<g id="a_node6"><a xlink:href="class_black_core_1_1_context_1_1_c_context_network_proxy.html" target="_top" xlink:title="Network context proxy.">
<polygon fill="none" stroke="black" points="385.5,-0.5 385.5,-30.5 522.5,-30.5 522.5,-0.5 385.5,-0.5"/>
<text text-anchor="start" x="393.5" y="-18.5" font-family="Helvetica,sans-Serif" font-size="10.00">BlackCore::Context</text>
<text text-anchor="middle" x="454" y="-7.5" font-family="Helvetica,sans-Serif" font-size="10.00">::CContextNetworkProxy</text>
</a>
</g>
</g>
<!-- Node1&#45;&gt;Node6 -->
<g id="edge5" class="edge">
<title>Node1&#45;&gt;Node6</title>
<path fill="none" stroke="midnightblue" d="M352.77,-46.39C369.68,-41.18 387.93,-35.55 404.16,-30.55"/>
<polygon fill="midnightblue" stroke="midnightblue" points="351.53,-43.11 343,-49.4 353.59,-49.8 351.53,-43.11"/>
</g>
<!-- Node2 -->
<g id="node2" class="node">
<title>Node2</title>
<g id="a_node2"><a xlink:href="class_black_core_1_1_context_1_1_i_context.html" target="_top" xlink:title="Base for all context classes.">
<polygon fill="none" stroke="black" points="92,-49.5 92,-79.5 202,-79.5 202,-49.5 92,-49.5"/>
<text text-anchor="start" x="100" y="-67.5" font-family="Helvetica,sans-Serif" font-size="10.00">BlackCore::Context</text>
<text text-anchor="middle" x="147" y="-56.5" font-family="Helvetica,sans-Serif" font-size="10.00">::IContext</text>
</a>
</g>
</g>
<!-- Node2&#45;&gt;Node1 -->
<g id="edge1" class="edge">
<title>Node2&#45;&gt;Node1</title>
<path fill="none" stroke="midnightblue" d="M212.27,-64.5C220.75,-64.5 229.38,-64.5 237.67,-64.5"/>
<polygon fill="midnightblue" stroke="midnightblue" points="212.03,-61 202.03,-64.5 212.03,-68 212.03,-61"/>
</g>
<!-- Node3 -->
<g id="node3" class="node">
<title>Node3</title>
<g id="a_node3"><a target="_parent" xlink:href="http://doc.qt.io/qt-5/qobject.html" xlink:title=" ">
<polygon fill="none" stroke="black" points="0,-55 0,-74 56,-74 56,-55 0,-55"/>
<text text-anchor="middle" x="28" y="-62" font-family="Helvetica,sans-Serif" font-size="10.00">QObject</text>
</a>
</g>
</g>
<!-- Node3&#45;&gt;Node2 -->
<g id="edge2" class="edge">
<title>Node3&#45;&gt;Node2</title>
<path fill="none" stroke="midnightblue" d="M66.37,-64.5C74.48,-64.5 83.22,-64.5 91.82,-64.5"/>
<polygon fill="midnightblue" stroke="midnightblue" points="66.14,-61 56.14,-64.5 66.14,-68 66.14,-61"/>
</g>
</g>
</svg>
