<?xml version="1.0" encoding="UTF-8" standalone="no"?>
<!DOCTYPE svg PUBLIC "-//W3C//DTD SVG 1.1//EN"
 "http://www.w3.org/Graphics/SVG/1.1/DTD/svg11.dtd">
<!-- Generated by graphviz version 2.43.0 (0)
 -->
<!-- Title: BlackMisc::CWorkerBase Pages: 1 -->
<svg width="1036pt" height="491pt"
 viewBox="0.00 0.00 1036.00 491.00" xmlns="http://www.w3.org/2000/svg" xmlns:xlink="http://www.w3.org/1999/xlink">
<g id="graph0" class="graph" transform="scale(1 1) rotate(0) translate(4 487)">
<title>BlackMisc::CWorkerBase</title>
<!-- Node1 -->
<g id="node1" class="node">
<title>Node1</title>
<g id="a_node1"><a xlink:title="Base class for CWorker and CContinuousWorker.">
<polygon fill="#bfbfbf" stroke="black" points="92,-156 92,-175 229,-175 229,-156 92,-156"/>
<text text-anchor="middle" x="160.5" y="-163" font-family="Helvetica,sans-Serif" font-size="10.00">BlackMisc::CWorkerBase</text>
</a>
</g>
</g>
<!-- Node3 -->
<g id="node3" class="node">
<title>Node3</title>
<g id="a_node3"><a xlink:href="class_black_misc_1_1_c_continuous_worker.html" target="_top" xlink:title="Base class for a long&#45;lived worker object which lives in its own thread.">
<polygon fill="none" stroke="black" points="265,-175 265,-194 432,-194 432,-175 265,-175"/>
<text text-anchor="middle" x="348.5" y="-182" font-family="Helvetica,sans-Serif" font-size="10.00">BlackMisc::CContinuousWorker</text>
</a>
</g>
</g>
<!-- Node1&#45;&gt;Node3 -->
<g id="edge2" class="edge">
<title>Node1&#45;&gt;Node3</title>
<path fill="none" stroke="midnightblue" d="M239.39,-173.46C247.85,-174.32 256.48,-175.2 264.99,-176.07"/>
<polygon fill="midnightblue" stroke="midnightblue" points="239.48,-169.95 229.18,-172.41 238.77,-176.91 239.48,-169.95"/>
</g>
<!-- Node23 -->
<g id="node23" class="node">
<title>Node23</title>
<g id="a_node23"><a xlink:href="class_black_misc_1_1_c_worker.html" target="_top" xlink:title="Class for doing some arbitrary parcel of work in its own thread.">
<polygon fill="none" stroke="black" points="292,-137 292,-156 405,-156 405,-137 292,-137"/>
<text text-anchor="middle" x="348.5" y="-144" font-family="Helvetica,sans-Serif" font-size="10.00">BlackMisc::CWorker</text>
</a>
</g>
</g>
<!-- Node1&#45;&gt;Node23 -->
<g id="edge22" class="edge">
<title>Node1&#45;&gt;Node23</title>
<path fill="none" stroke="midnightblue" d="M239.42,-157.54C257.01,-155.74 275.33,-153.87 291.78,-152.19"/>
<polygon fill="midnightblue" stroke="midnightblue" points="238.77,-154.09 229.18,-158.59 239.48,-161.05 238.77,-154.09"/>
</g>
<!-- Node2 -->
<g id="node2" class="node">
<title>Node2</title>
<g id="a_node2"><a target="_parent" xlink:href="http://doc.qt.io/qt-5/qobject.html" xlink:title=" ">
<polygon fill="none" stroke="black" points="0,-156 0,-175 56,-175 56,-156 0,-156"/>
<text text-anchor="middle" x="28" y="-163" font-family="Helvetica,sans-Serif" font-size="10.00">QObject</text>
</a>
</g>
</g>
<!-- Node2&#45;&gt;Node1 -->
<g id="edge1" class="edge">
<title>Node2&#45;&gt;Node1</title>
<path fill="none" stroke="midnightblue" d="M66.18,-165.5C74.24,-165.5 83.01,-165.5 91.84,-165.5"/>
<polygon fill="midnightblue" stroke="midnightblue" points="66.04,-162 56.04,-165.5 66.04,-169 66.04,-162"/>
</g>
<!-- Node4 -->
<g id="node4" class="node">
<title>Node4</title>
<g id="a_node4"><a xlink:href="class_black_core_1_1_afv_1_1_clients_1_1_c_afv_client.html" target="_top" xlink:title="AFV client.">
<polygon fill="none" stroke="black" points="498,-339.5 498,-369.5 626,-369.5 626,-339.5 498,-339.5"/>
<text text-anchor="start" x="506" y="-357.5" font-family="Helvetica,sans-Serif" font-size="10.00">BlackCore::Afv::Clients</text>
<text text-anchor="middle" x="562" y="-346.5" font-family="Helvetica,sans-Serif" font-size="10.00">::CAfvClient</text>
</a>
</g>
</g>
<!-- Node3&#45;&gt;Node4 -->
<g id="edge3" class="edge">
<title>Node3&#45;&gt;Node4</title>
<path fill="none" stroke="midnightblue" d="M359.37,-202.89C376.96,-233.87 416.76,-296.36 468,-329.5 476.98,-335.31 487.29,-339.78 497.69,-343.21"/>
<polygon fill="midnightblue" stroke="midnightblue" points="362.36,-201.06 354.45,-194.01 356.23,-204.45 362.36,-201.06"/>
</g>
<!-- Node5 -->
<g id="node5" class="node">
<title>Node5</title>
<g id="a_node5"><a xlink:href="class_black_core_1_1_c_airspace_analyzer.html" target="_top" xlink:title="Class monitoring and analyzing (closest aircraft, outdated aircraft / watchdog) airspace in backgroun...">
<polygon fill="none" stroke="black" points="480,-301 480,-320 644,-320 644,-301 480,-301"/>
<text text-anchor="middle" x="562" y="-308" font-family="Helvetica,sans-Serif" font-size="10.00">BlackCore::CAirspaceAnalyzer</text>
</a>
</g>
</g>
<!-- Node3&#45;&gt;Node5 -->
<g id="edge4" class="edge">
<title>Node3&#45;&gt;Node5</title>
<path fill="none" stroke="midnightblue" d="M363.49,-202C383.82,-226.15 423.93,-269.23 468,-291.5 475.65,-295.37 484.03,-298.44 492.52,-300.9"/>
<polygon fill="midnightblue" stroke="midnightblue" points="365.99,-199.52 356.93,-194.03 360.59,-203.97 365.99,-199.52"/>
</g>
<!-- Node6 -->
<g id="node6" class="node">
<title>Node6</title>
<g id="a_node6"><a xlink:href="class_black_core_1_1_c_threaded_reader.html" target="_top" xlink:title="Support for threaded based reading and parsing tasks such as data files via http, or file system and ...">
<polygon fill="none" stroke="black" points="482.5,-263 482.5,-282 641.5,-282 641.5,-263 482.5,-263"/>
<text text-anchor="middle" x="562" y="-270" font-family="Helvetica,sans-Serif" font-size="10.00">BlackCore::CThreadedReader</text>
</a>
</g>
</g>
<!-- Node3&#45;&gt;Node6 -->
<g id="edge5" class="edge">
<title>Node3&#45;&gt;Node6</title>
<path fill="none" stroke="midnightblue" d="M371.38,-199.83C394.41,-215.29 432.22,-238.77 468,-252.5 479.1,-256.76 491.31,-260.21 503.14,-262.96"/>
<polygon fill="midnightblue" stroke="midnightblue" points="373.26,-196.88 363.03,-194.14 369.32,-202.66 373.26,-196.88"/>
</g>
<!-- Node17 -->
<g id="node17" class="node">
<title>Node17</title>
<g id="a_node17"><a xlink:href="class_black_core_1_1_db_1_1_c_background_data_updater.html" target="_top" xlink:title="Update and consolidation of DB data.">
<polygon fill="none" stroke="black" points="484,-213.5 484,-243.5 640,-243.5 640,-213.5 484,-213.5"/>
<text text-anchor="start" x="492" y="-231.5" font-family="Helvetica,sans-Serif" font-size="10.00">BlackCore::Db::CBackground</text>
<text text-anchor="middle" x="562" y="-220.5" font-family="Helvetica,sans-Serif" font-size="10.00">DataUpdater</text>
</a>
</g>
</g>
<!-- Node3&#45;&gt;Node17 -->
<g id="edge16" class="edge">
<title>Node3&#45;&gt;Node17</title>
<path fill="none" stroke="midnightblue" d="M405.27,-196.1C430.78,-201.41 461.33,-207.76 488.58,-213.43"/>
<polygon fill="midnightblue" stroke="midnightblue" points="405.9,-192.66 395.39,-194.05 404.47,-199.51 405.9,-192.66"/>
</g>
<!-- Node18 -->
<g id="node18" class="node">
<title>Node18</title>
<g id="a_node18"><a xlink:href="class_black_core_1_1_db_1_1_c_network_watchdog.html" target="_top" xlink:title="Monitoring the swift DB, internet access, shared URLs.">
<polygon fill="none" stroke="black" points="468,-175 468,-194 656,-194 656,-175 468,-175"/>
<text text-anchor="middle" x="562" y="-182" font-family="Helvetica,sans-Serif" font-size="10.00">BlackCore::Db::CNetworkWatchdog</text>
</a>
</g>
</g>
<!-- Node3&#45;&gt;Node18 -->
<g id="edge17" class="edge">
<title>Node3&#45;&gt;Node18</title>
<path fill="none" stroke="midnightblue" d="M442.41,-184.5C450.86,-184.5 459.41,-184.5 467.86,-184.5"/>
<polygon fill="midnightblue" stroke="midnightblue" points="442.18,-181 432.18,-184.5 442.18,-188 442.18,-181"/>
</g>
<!-- Node19 -->
<g id="node19" class="node">
<title>Node19</title>
<g id="a_node19"><a xlink:href="class_black_core_1_1_fsd_1_1_c_f_s_d_client.html" target="_top" xlink:title="FSD client Todo: Send (interim) data updates automatically Todo Check &#39;:&#39; in FSD messages....">
<polygon fill="none" stroke="black" points="487.5,-137 487.5,-156 636.5,-156 636.5,-137 487.5,-137"/>
<text text-anchor="middle" x="562" y="-144" font-family="Helvetica,sans-Serif" font-size="10.00">BlackCore::Fsd::CFSDClient</text>
</a>
</g>
</g>
<!-- Node3&#45;&gt;Node19 -->
<g id="edge18" class="edge">
<title>Node3&#45;&gt;Node19</title>
<path fill="none" stroke="midnightblue" d="M412.65,-173.15C443,-167.7 478.96,-161.24 507.88,-156.04"/>
<polygon fill="midnightblue" stroke="midnightblue" points="411.82,-169.75 402.6,-174.96 413.06,-176.64 411.82,-169.75"/>
</g>
<!-- Node20 -->
<g id="node20" class="node">
<title>Node20</title>
<g id="a_node20"><a xlink:href="class_black_misc_1_1_c_data_cache_serializer.html" target="_top" xlink:title="Worker which performs (de)serialization on behalf of CDataCache, in a separate thread so that the mai...">
<polygon fill="none" stroke="black" points="473,-99 473,-118 651,-118 651,-99 473,-99"/>
<text text-anchor="middle" x="562" y="-106" font-family="Helvetica,sans-Serif" font-size="10.00">BlackMisc::CDataCacheSerializer</text>
</a>
</g>
</g>
<!-- Node3&#45;&gt;Node20 -->
<g id="edge19" class="edge">
<title>Node3&#45;&gt;Node20</title>
<path fill="none" stroke="midnightblue" d="M419.65,-171.45C423.93,-169.71 428.09,-167.74 432,-165.5 452.2,-153.95 447.66,-138.8 468,-127.5 474.92,-123.66 482.51,-120.59 490.28,-118.14"/>
<polygon fill="midnightblue" stroke="midnightblue" points="418.31,-168.21 410.1,-174.9 420.69,-174.79 418.31,-168.21"/>
</g>
<!-- Node21 -->
<g id="node21" class="node">
<title>Node21</title>
<g id="a_node21"><a xlink:href="class_black_misc_1_1_simulation_1_1_c_background_validation.html" target="_top" xlink:title="Validate model files from the sets and check if the model still exists.">
<polygon fill="none" stroke="black" points="494,-49.5 494,-79.5 630,-79.5 630,-49.5 494,-49.5"/>
<text text-anchor="start" x="502" y="-67.5" font-family="Helvetica,sans-Serif" font-size="10.00">BlackMisc::Simulation</text>
<text text-anchor="middle" x="562" y="-56.5" font-family="Helvetica,sans-Serif" font-size="10.00">::CBackgroundValidation</text>
</a>
</g>
</g>
<!-- Node3&#45;&gt;Node21 -->
<g id="edge20" class="edge">
<title>Node3&#45;&gt;Node21</title>
<path fill="none" stroke="midnightblue" d="M425.35,-170.15C427.67,-168.74 429.9,-167.19 432,-165.5 461.12,-142.07 439.31,-113.45 468,-89.5 475.57,-83.18 484.6,-78.44 494,-74.9"/>
<polygon fill="midnightblue" stroke="midnightblue" points="423.27,-167.29 415.98,-174.98 426.48,-173.51 423.27,-167.29"/>
</g>
<!-- Node22 -->
<g id="node22" class="node">
<title>Node22</title>
<g id="a_node22"><a xlink:href="class_black_sound_1_1_c_threaded_tone_pair_player.html" target="_top" xlink:title="Threaded tone player. Don&#39;t use it directly but use.">
<polygon fill="none" stroke="black" points="484.5,-0.5 484.5,-30.5 639.5,-30.5 639.5,-0.5 484.5,-0.5"/>
<text text-anchor="start" x="492.5" y="-18.5" font-family="Helvetica,sans-Serif" font-size="10.00">BlackSound::CThreadedTone</text>
<text text-anchor="middle" x="562" y="-7.5" font-family="Helvetica,sans-Serif" font-size="10.00">PairPlayer</text>
</a>
</g>
</g>
<!-- Node3&#45;&gt;Node22 -->
<g id="edge21" class="edge">
<title>Node3&#45;&gt;Node22</title>
<path fill="none" stroke="midnightblue" d="M427.2,-169.53C428.88,-168.28 430.48,-166.94 432,-165.5 474.24,-125.4 426.29,-80.15 468,-39.5 472.78,-34.84 478.33,-31.06 484.3,-27.98"/>
<polygon fill="midnightblue" stroke="midnightblue" points="424.97,-166.79 418.27,-175 428.63,-172.76 424.97,-166.79"/>
</g>
<!-- Node7 -->
<g id="node7" class="node">
<title>Node7</title>
<g id="a_node7"><a xlink:href="class_black_core_1_1_db_1_1_c_database_reader.html" target="_top" xlink:title="Specialized version of threaded reader for DB data.">
<polygon fill="none" stroke="black" points="692,-379.5 692,-409.5 837,-409.5 837,-379.5 692,-379.5"/>
<text text-anchor="start" x="700" y="-397.5" font-family="Helvetica,sans-Serif" font-size="10.00">BlackCore::Db::CDatabase</text>
<text text-anchor="middle" x="764.5" y="-386.5" font-family="Helvetica,sans-Serif" font-size="10.00">Reader</text>
</a>
</g>
</g>
<!-- Node6&#45;&gt;Node7 -->
<g id="edge6" class="edge">
<title>Node6&#45;&gt;Node7</title>
<path fill="none" stroke="midnightblue" d="M649.44,-286.91C651.72,-288.31 653.91,-289.84 656,-291.5 686.19,-315.53 663.34,-344.67 692,-370.5 695.79,-373.92 700.09,-376.85 704.65,-379.37"/>
<polygon fill="midnightblue" stroke="midnightblue" points="650.74,-283.64 640.26,-282.09 647.49,-289.84 650.74,-283.64"/>
</g>
<!-- Node12 -->
<g id="node12" class="node">
<title>Node12</title>
<g id="a_node12"><a xlink:href="class_black_core_1_1_vatsim_1_1_c_vatsim_booking_reader.html" target="_top" xlink:title="Read bookings from VATSIM.">
<polygon fill="none" stroke="black" points="699,-330.5 699,-360.5 830,-360.5 830,-330.5 699,-330.5"/>
<text text-anchor="start" x="707" y="-348.5" font-family="Helvetica,sans-Serif" font-size="10.00">BlackCore::Vatsim::</text>
<text text-anchor="middle" x="764.5" y="-337.5" font-family="Helvetica,sans-Serif" font-size="10.00">CVatsimBookingReader</text>
</a>
</g>
</g>
<!-- Node6&#45;&gt;Node12 -->
<g id="edge11" class="edge">
<title>Node6&#45;&gt;Node12</title>
<path fill="none" stroke="midnightblue" d="M639.48,-285C645.18,-286.88 650.75,-289.03 656,-291.5 674.59,-300.25 674.04,-310.52 692,-320.5 698.67,-324.2 705.98,-327.51 713.31,-330.42"/>
<polygon fill="midnightblue" stroke="midnightblue" points="640.38,-281.62 629.8,-282.11 638.38,-288.33 640.38,-281.62"/>
</g>
<!-- Node13 -->
<g id="node13" class="node">
<title>Node13</title>
<g id="a_node13"><a xlink:href="class_black_core_1_1_vatsim_1_1_c_vatsim_data_file_reader.html" target="_top" xlink:title="Read vatsim data file.">
<polygon fill="none" stroke="black" points="698.5,-281.5 698.5,-311.5 830.5,-311.5 830.5,-281.5 698.5,-281.5"/>
<text text-anchor="start" x="706.5" y="-299.5" font-family="Helvetica,sans-Serif" font-size="10.00">BlackCore::Vatsim::</text>
<text text-anchor="middle" x="764.5" y="-288.5" font-family="Helvetica,sans-Serif" font-size="10.00">CVatsimDataFileReader</text>
</a>
</g>
</g>
<!-- Node6&#45;&gt;Node13 -->
<g id="edge12" class="edge">
<title>Node6&#45;&gt;Node13</title>
<path fill="none" stroke="midnightblue" d="M651.87,-283.14C667.49,-285.01 683.49,-286.92 698.32,-288.7"/>
<polygon fill="midnightblue" stroke="midnightblue" points="652.01,-279.63 641.67,-281.92 651.18,-286.58 652.01,-279.63"/>
</g>
<!-- Node14 -->
<g id="node14" class="node">
<title>Node14</title>
<g id="a_node14"><a xlink:href="class_black_core_1_1_vatsim_1_1_c_vatsim_metar_reader.html" target="_top" xlink:title="Read METARs from VATSIM.">
<polygon fill="none" stroke="black" points="704.5,-232.5 704.5,-262.5 824.5,-262.5 824.5,-232.5 704.5,-232.5"/>
<text text-anchor="start" x="712.5" y="-250.5" font-family="Helvetica,sans-Serif" font-size="10.00">BlackCore::Vatsim::</text>
<text text-anchor="middle" x="764.5" y="-239.5" font-family="Helvetica,sans-Serif" font-size="10.00">CVatsimMetarReader</text>
</a>
</g>
</g>
<!-- Node6&#45;&gt;Node14 -->
<g id="edge13" class="edge">
<title>Node6&#45;&gt;Node14</title>
<path fill="none" stroke="midnightblue" d="M649.33,-261.74C667.94,-259.42 687.21,-257.01 704.49,-254.86"/>
<polygon fill="midnightblue" stroke="midnightblue" points="648.86,-258.27 639.37,-262.98 649.73,-265.21 648.86,-258.27"/>
</g>
<!-- Node15 -->
<g id="node15" class="node">
<title>Node15</title>
<g id="a_node15"><a xlink:href="class_black_core_1_1_vatsim_1_1_c_vatsim_server_file_reader.html" target="_top" xlink:title="Read VATSIM server file.">
<polygon fill="none" stroke="black" points="694.5,-183.5 694.5,-213.5 834.5,-213.5 834.5,-183.5 694.5,-183.5"/>
<text text-anchor="start" x="702.5" y="-201.5" font-family="Helvetica,sans-Serif" font-size="10.00">BlackCore::Vatsim::</text>
<text text-anchor="middle" x="764.5" y="-190.5" font-family="Helvetica,sans-Serif" font-size="10.00">CVatsimServerFileReader</text>
</a>
</g>
</g>
<!-- Node6&#45;&gt;Node15 -->
<g id="edge14" class="edge">
<title>Node6&#45;&gt;Node15</title>
<path fill="none" stroke="midnightblue" d="M637.06,-260.04C643.61,-257.91 650.01,-255.42 656,-252.5 674.72,-243.38 673.82,-232.65 692,-222.5 697.94,-219.18 704.42,-216.22 710.98,-213.61"/>
<polygon fill="midnightblue" stroke="midnightblue" points="635.99,-256.71 627.4,-262.91 637.99,-263.42 635.99,-256.71"/>
</g>
<!-- Node16 -->
<g id="node16" class="node">
<title>Node16</title>
<g id="a_node16"><a xlink:href="class_black_core_1_1_vatsim_1_1_c_vatsim_status_file_reader.html" target="_top" xlink:title="Sole purpose is to read the URLs where VATSIM data can be downloaded.">
<polygon fill="none" stroke="black" points="694.5,-134.5 694.5,-164.5 834.5,-164.5 834.5,-134.5 694.5,-134.5"/>
<text text-anchor="start" x="702.5" y="-152.5" font-family="Helvetica,sans-Serif" font-size="10.00">BlackCore::Vatsim::</text>
<text text-anchor="middle" x="764.5" y="-141.5" font-family="Helvetica,sans-Serif" font-size="10.00">CVatsimStatusFileReader</text>
</a>
</g>
</g>
<!-- Node6&#45;&gt;Node16 -->
<g id="edge15" class="edge">
<title>Node6&#45;&gt;Node16</title>
<path fill="none" stroke="midnightblue" d="M647.61,-258.25C650.55,-256.53 653.36,-254.62 656,-252.5 686.06,-228.31 663.34,-199.33 692,-173.5 695.79,-170.08 700.09,-167.15 704.65,-164.63"/>
<polygon fill="midnightblue" stroke="midnightblue" points="645.81,-255.24 638.44,-262.86 648.95,-261.49 645.81,-255.24"/>
</g>
<!-- Node8 -->
<g id="node8" class="node">
<title>Node8</title>
<g id="a_node8"><a xlink:href="class_black_core_1_1_db_1_1_c_airport_data_reader.html" target="_top" xlink:title="Reader for airport database data.">
<polygon fill="none" stroke="black" points="873,-452.5 873,-482.5 1028,-482.5 1028,-452.5 873,-452.5"/>
<text text-anchor="start" x="881" y="-470.5" font-family="Helvetica,sans-Serif" font-size="10.00">BlackCore::Db::CAirportData</text>
<text text-anchor="middle" x="950.5" y="-459.5" font-family="Helvetica,sans-Serif" font-size="10.00">Reader</text>
</a>
</g>
</g>
<!-- Node7&#45;&gt;Node8 -->
<g id="edge7" class="edge">
<title>Node7&#45;&gt;Node8</title>
<path fill="none" stroke="midnightblue" d="M805.26,-414.05C825.32,-423.54 850.18,-434.76 873,-443.5 881.19,-446.64 889.98,-449.68 898.58,-452.49"/>
<polygon fill="midnightblue" stroke="midnightblue" points="806.65,-410.83 796.12,-409.68 803.63,-417.15 806.65,-410.83"/>
</g>
<!-- Node9 -->
<g id="node9" class="node">
<title>Node9</title>
<g id="a_node9"><a xlink:href="class_black_core_1_1_db_1_1_c_icao_data_reader.html" target="_top" xlink:title="Read ICAO data from Database.">
<polygon fill="none" stroke="black" points="879.5,-403.5 879.5,-433.5 1021.5,-433.5 1021.5,-403.5 879.5,-403.5"/>
<text text-anchor="start" x="887.5" y="-421.5" font-family="Helvetica,sans-Serif" font-size="10.00">BlackCore::Db::CIcaoData</text>
<text text-anchor="middle" x="950.5" y="-410.5" font-family="Helvetica,sans-Serif" font-size="10.00">Reader</text>
</a>
</g>
</g>
<!-- Node7&#45;&gt;Node9 -->
<g id="edge8" class="edge">
<title>Node7&#45;&gt;Node9</title>
<path fill="none" stroke="midnightblue" d="M847.3,-405.17C857.96,-406.56 868.8,-407.97 879.24,-409.34"/>
<polygon fill="midnightblue" stroke="midnightblue" points="847.53,-401.67 837.17,-403.85 846.63,-408.61 847.53,-401.67"/>
</g>
<!-- Node10 -->
<g id="node10" class="node">
<title>Node10</title>
<g id="a_node10"><a xlink:href="class_black_core_1_1_db_1_1_c_info_data_reader.html" target="_top" xlink:title="Read information about data from Database or shared files such as when updated and number of entries.">
<polygon fill="none" stroke="black" points="880.5,-354.5 880.5,-384.5 1020.5,-384.5 1020.5,-354.5 880.5,-354.5"/>
<text text-anchor="start" x="888.5" y="-372.5" font-family="Helvetica,sans-Serif" font-size="10.00">BlackCore::Db::CInfoData</text>
<text text-anchor="middle" x="950.5" y="-361.5" font-family="Helvetica,sans-Serif" font-size="10.00">Reader</text>
</a>
</g>
</g>
<!-- Node7&#45;&gt;Node10 -->
<g id="edge9" class="edge">
<title>Node7&#45;&gt;Node10</title>
<path fill="none" stroke="midnightblue" d="M847.26,-383.39C858.34,-381.89 869.62,-380.35 880.44,-378.88"/>
<polygon fill="midnightblue" stroke="midnightblue" points="846.6,-379.95 837.17,-384.76 847.55,-386.88 846.6,-379.95"/>
</g>
<!-- Node11 -->
<g id="node11" class="node">
<title>Node11</title>
<g id="a_node11"><a xlink:href="class_black_core_1_1_db_1_1_c_model_data_reader.html" target="_top" xlink:title="Read model related data from Database.">
<polygon fill="none" stroke="black" points="874.5,-305.5 874.5,-335.5 1026.5,-335.5 1026.5,-305.5 874.5,-305.5"/>
<text text-anchor="start" x="882.5" y="-323.5" font-family="Helvetica,sans-Serif" font-size="10.00">BlackCore::Db::CModelData</text>
<text text-anchor="middle" x="950.5" y="-312.5" font-family="Helvetica,sans-Serif" font-size="10.00">Reader</text>
</a>
</g>
</g>
<!-- Node7&#45;&gt;Node11 -->
<g id="edge10" class="edge">
<title>Node7&#45;&gt;Node11</title>
<path fill="none" stroke="midnightblue" d="M825.84,-375.63C829.67,-374.01 833.42,-372.3 837,-370.5 854.41,-361.76 855.56,-354.17 873,-345.5 880.38,-341.83 888.42,-338.52 896.43,-335.61"/>
<polygon fill="midnightblue" stroke="midnightblue" points="824.22,-372.51 816.23,-379.47 826.82,-379.01 824.22,-372.51"/>
</g>
</g>
</svg>
