<?xml version="1.0" encoding="UTF-8" standalone="no"?>
<!DOCTYPE svg PUBLIC "-//W3C//DTD SVG 1.1//EN"
 "http://www.w3.org/Graphics/SVG/1.1/DTD/svg11.dtd">
<!-- Generated by graphviz version 2.43.0 (0)
 -->
<!-- Title: BlackMisc::Weather::CWeatherDataPluginInfo Pages: 1 -->
<svg width="759pt" height="568pt"
 viewBox="0.00 0.00 759.00 567.50" xmlns="http://www.w3.org/2000/svg" xmlns:xlink="http://www.w3.org/1999/xlink">
<g id="graph0" class="graph" transform="scale(1 1) rotate(0) translate(4 563.5)">
<title>BlackMisc::Weather::CWeatherDataPluginInfo</title>
<!-- Node1 -->
<g id="node1" class="node">
<title>Node1</title>
<g id="a_node1"><a xlink:title="Describing a weather data plugin.">
<polygon fill="#bfbfbf" stroke="black" points="609,-269.5 609,-299.5 751,-299.5 751,-269.5 609,-269.5"/>
<text text-anchor="start" x="617" y="-287.5" font-family="Helvetica,sans-Serif" font-size="10.00">BlackMisc::Weather</text>
<text text-anchor="middle" x="680" y="-276.5" font-family="Helvetica,sans-Serif" font-size="10.00">::CWeatherDataPluginInfo</text>
</a>
</g>
</g>
<!-- Node2 -->
<g id="node2" class="node">
<title>Node2</title>
<g id="a_node2"><a xlink:href="class_black_misc_1_1_c_value_object.html" target="_top" xlink:title=" ">
<polygon fill="none" stroke="black" points="415,-269.5 415,-299.5 573,-299.5 573,-269.5 415,-269.5"/>
<text text-anchor="start" x="423" y="-287.5" font-family="Helvetica,sans-Serif" font-size="10.00">BlackMisc::CValueObject</text>
<text text-anchor="middle" x="494" y="-276.5" font-family="Helvetica,sans-Serif" font-size="10.00">&lt; CWeatherDataPluginInfo &gt;</text>
</a>
</g>
</g>
<!-- Node2&#45;&gt;Node1 -->
<g id="edge1" class="edge">
<title>Node2&#45;&gt;Node1</title>
<path fill="none" stroke="midnightblue" d="M583.09,-284.5C591.69,-284.5 600.34,-284.5 608.73,-284.5"/>
<polygon fill="midnightblue" stroke="midnightblue" points="583.03,-281 573.03,-284.5 583.03,-288 583.03,-281"/>
</g>
<!-- Node3 -->
<g id="node3" class="node">
<title>Node3</title>
<g id="a_node3"><a xlink:href="class_black_misc_1_1_c_empty.html" target="_top" xlink:title="Default base class for CValueObject.">
<polygon fill="none" stroke="black" points="242,-540 242,-559 352,-559 352,-540 242,-540"/>
<text text-anchor="middle" x="297" y="-547" font-family="Helvetica,sans-Serif" font-size="10.00">BlackMisc::CEmpty</text>
</a>
</g>
</g>
<!-- Node3&#45;&gt;Node2 -->
<g id="edge2" class="edge">
<title>Node3&#45;&gt;Node2</title>
<path fill="none" stroke="midnightblue" d="M361.99,-540.47C368.12,-537.9 373.93,-534.63 379,-530.5 455.45,-468.21 483.12,-343.12 490.65,-299.74"/>
<polygon fill="midnightblue" stroke="midnightblue" points="360.4,-537.32 352.15,-543.97 362.74,-543.92 360.4,-537.32"/>
</g>
<!-- Node4 -->
<g id="node4" class="node">
<title>Node4</title>
<g id="a_node4"><a xlink:href="class_black_misc_1_1_mixin_1_1_meta_type.html" target="_top" xlink:title="CRTP class template from which a derived class can inherit common methods dealing with the metatype o...">
<polygon fill="none" stroke="black" points="221,-490.5 221,-520.5 373,-520.5 373,-490.5 221,-490.5"/>
<text text-anchor="start" x="229" y="-508.5" font-family="Helvetica,sans-Serif" font-size="10.00">BlackMisc::Mixin::MetaType</text>
<text text-anchor="middle" x="297" y="-497.5" font-family="Helvetica,sans-Serif" font-size="10.00">&lt; Derived &gt;</text>
</a>
</g>
</g>
<!-- Node4&#45;&gt;Node2 -->
<g id="edge3" class="edge">
<title>Node4&#45;&gt;Node2</title>
<path fill="none" stroke="midnightblue" d="M373.44,-485.46C375.36,-484.22 377.22,-482.9 379,-481.5 442.17,-431.75 476.95,-336.61 488.55,-299.68"/>
<polygon fill="midnightblue" stroke="midnightblue" points="371.63,-482.46 364.65,-490.43 375.08,-488.56 371.63,-482.46"/>
</g>
<!-- Node5 -->
<g id="node5" class="node">
<title>Node5</title>
<g id="a_node5"><a xlink:href="class_black_misc_1_1_mixin_1_1_hash_by_meta_class.html" target="_top" xlink:title="CRTP class template from which a derived class can inherit common methods dealing with hashing instan...">
<polygon fill="none" stroke="black" points="225.5,-441.5 225.5,-471.5 368.5,-471.5 368.5,-441.5 225.5,-441.5"/>
<text text-anchor="start" x="233.5" y="-459.5" font-family="Helvetica,sans-Serif" font-size="10.00">BlackMisc::Mixin::HashBy</text>
<text text-anchor="middle" x="297" y="-448.5" font-family="Helvetica,sans-Serif" font-size="10.00">MetaClass&lt; Derived &gt;</text>
</a>
</g>
</g>
<!-- Node5&#45;&gt;Node2 -->
<g id="edge4" class="edge">
<title>Node5&#45;&gt;Node2</title>
<path fill="none" stroke="midnightblue" d="M371.98,-436.84C374.41,-435.49 376.75,-434.04 379,-432.5 431.15,-396.72 470,-329.58 485.55,-299.61"/>
<polygon fill="midnightblue" stroke="midnightblue" points="370.33,-433.75 362.94,-441.35 373.45,-440.02 370.33,-433.75"/>
</g>
<!-- Node6 -->
<g id="node6" class="node">
<title>Node6</title>
<g id="a_node6"><a xlink:href="class_black_misc_1_1_mixin_1_1_d_bus_by_meta_class.html" target="_top" xlink:title="CRTP class template from which a derived class can inherit common methods dealing with marshalling in...">
<polygon fill="none" stroke="black" points="219,-392.5 219,-422.5 375,-422.5 375,-392.5 219,-392.5"/>
<text text-anchor="start" x="227" y="-410.5" font-family="Helvetica,sans-Serif" font-size="10.00">BlackMisc::Mixin::DBusBy</text>
<text text-anchor="middle" x="297" y="-399.5" font-family="Helvetica,sans-Serif" font-size="10.00">MetaClass&lt; Derived, Tags &gt;</text>
</a>
</g>
</g>
<!-- Node6&#45;&gt;Node2 -->
<g id="edge5" class="edge">
<title>Node6&#45;&gt;Node2</title>
<path fill="none" stroke="midnightblue" d="M368.77,-388.54C372.29,-386.98 375.72,-385.3 379,-383.5 420.14,-360.94 459.48,-321.53 479.43,-299.86"/>
<polygon fill="midnightblue" stroke="midnightblue" points="367.23,-385.39 359.3,-392.42 369.88,-391.87 367.23,-385.39"/>
</g>
<!-- Node7 -->
<g id="node7" class="node">
<title>Node7</title>
<g id="a_node7"><a xlink:href="class_black_misc_1_1_mixin_1_1_d_bus_operators.html" target="_top" xlink:title=" ">
<polygon fill="none" stroke="black" points="0,-392.5 0,-422.5 179,-422.5 179,-392.5 0,-392.5"/>
<text text-anchor="start" x="8" y="-410.5" font-family="Helvetica,sans-Serif" font-size="10.00">BlackMisc::Mixin::DBusOperators</text>
<text text-anchor="middle" x="89.5" y="-399.5" font-family="Helvetica,sans-Serif" font-size="10.00">&lt; Derived, Tags... &gt;</text>
</a>
</g>
</g>
<!-- Node7&#45;&gt;Node6 -->
<g id="edge6" class="edge">
<title>Node7&#45;&gt;Node6</title>
<path fill="none" stroke="midnightblue" d="M189.44,-407.5C199.35,-407.5 209.31,-407.5 218.95,-407.5"/>
<polygon fill="midnightblue" stroke="midnightblue" points="189.14,-404 179.14,-407.5 189.14,-411 189.14,-404"/>
</g>
<!-- Node8 -->
<g id="node8" class="node">
<title>Node8</title>
<g id="a_node8"><a xlink:href="class_black_misc_1_1_mixin_1_1_data_stream_by_meta_class.html" target="_top" xlink:title="CRTP class template to generate QDataStream marshalling methods using CMetaClass.">
<polygon fill="none" stroke="black" points="215,-343.5 215,-373.5 379,-373.5 379,-343.5 215,-343.5"/>
<text text-anchor="start" x="223" y="-361.5" font-family="Helvetica,sans-Serif" font-size="10.00">BlackMisc::Mixin::DataStream</text>
<text text-anchor="middle" x="297" y="-350.5" font-family="Helvetica,sans-Serif" font-size="10.00">ByMetaClass&lt; Derived &gt;</text>
</a>
</g>
</g>
<!-- Node8&#45;&gt;Node2 -->
<g id="edge7" class="edge">
<title>Node8&#45;&gt;Node2</title>
<path fill="none" stroke="midnightblue" d="M362.04,-340.34C367.81,-338.46 373.53,-336.5 379,-334.5 407.41,-324.11 438.85,-310.13 461.49,-299.59"/>
<polygon fill="midnightblue" stroke="midnightblue" points="360.81,-337.06 352.34,-343.42 362.93,-343.73 360.81,-337.06"/>
</g>
<!-- Node9 -->
<g id="node9" class="node">
<title>Node9</title>
<g id="a_node9"><a xlink:href="class_black_misc_1_1_mixin_1_1_data_stream_operators.html" target="_top" xlink:title="CRTP class template to generate non&#45;member QDataStream streaming operators.">
<polygon fill="none" stroke="black" points="7.5,-343.5 7.5,-373.5 171.5,-373.5 171.5,-343.5 7.5,-343.5"/>
<text text-anchor="start" x="15.5" y="-361.5" font-family="Helvetica,sans-Serif" font-size="10.00">BlackMisc::Mixin::DataStream</text>
<text text-anchor="middle" x="89.5" y="-350.5" font-family="Helvetica,sans-Serif" font-size="10.00">Operators&lt; Derived &gt;</text>
</a>
</g>
</g>
<!-- Node9&#45;&gt;Node8 -->
<g id="edge8" class="edge">
<title>Node9&#45;&gt;Node8</title>
<path fill="none" stroke="midnightblue" d="M181.74,-358.5C192.72,-358.5 203.87,-358.5 214.7,-358.5"/>
<polygon fill="midnightblue" stroke="midnightblue" points="181.72,-355 171.72,-358.5 181.72,-362 181.72,-355"/>
</g>
<!-- Node10 -->
<g id="node10" class="node">
<title>Node10</title>
<g id="a_node10"><a xlink:href="class_black_misc_1_1_mixin_1_1_json_by_meta_class.html" target="_top" xlink:title="CRTP class template from which a derived class can inherit common methods dealing with JSON by metatu...">
<polygon fill="none" stroke="black" points="228,-294.5 228,-324.5 366,-324.5 366,-294.5 228,-294.5"/>
<text text-anchor="start" x="236" y="-312.5" font-family="Helvetica,sans-Serif" font-size="10.00">BlackMisc::Mixin::JsonBy</text>
<text text-anchor="middle" x="297" y="-301.5" font-family="Helvetica,sans-Serif" font-size="10.00">MetaClass&lt; Derived &gt;</text>
</a>
</g>
</g>
<!-- Node10&#45;&gt;Node2 -->
<g id="edge9" class="edge">
<title>Node10&#45;&gt;Node2</title>
<path fill="none" stroke="midnightblue" d="M376.27,-299.47C388.97,-297.84 402.13,-296.15 414.82,-294.52"/>
<polygon fill="midnightblue" stroke="midnightblue" points="375.68,-296.01 366.2,-300.76 376.57,-302.96 375.68,-296.01"/>
</g>
<!-- Node11 -->
<g id="node11" class="node">
<title>Node11</title>
<g id="a_node11"><a xlink:href="class_black_misc_1_1_mixin_1_1_json_operators.html" target="_top" xlink:title="CRTP class template which will generate marshalling operators for a derived class with its own marsha...">
<polygon fill="none" stroke="black" points="3,-294.5 3,-324.5 176,-324.5 176,-294.5 3,-294.5"/>
<text text-anchor="start" x="11" y="-312.5" font-family="Helvetica,sans-Serif" font-size="10.00">BlackMisc::Mixin::JsonOperators</text>
<text text-anchor="middle" x="89.5" y="-301.5" font-family="Helvetica,sans-Serif" font-size="10.00">&lt; Derived &gt;</text>
</a>
</g>
</g>
<!-- Node11&#45;&gt;Node10 -->
<g id="edge10" class="edge">
<title>Node11&#45;&gt;Node10</title>
<path fill="none" stroke="midnightblue" d="M186.35,-309.5C200.41,-309.5 214.65,-309.5 227.99,-309.5"/>
<polygon fill="midnightblue" stroke="midnightblue" points="186.16,-306 176.16,-309.5 186.16,-313 186.16,-306"/>
</g>
<!-- Node12 -->
<g id="node12" class="node">
<title>Node12</title>
<g id="a_node12"><a xlink:href="class_black_misc_1_1_mixin_1_1_equals_by_meta_class.html" target="_top" xlink:title="CRTP class template from which a derived class can inherit operator== implemented by metaclass.">
<polygon fill="none" stroke="black" points="226.5,-245.5 226.5,-275.5 367.5,-275.5 367.5,-245.5 226.5,-245.5"/>
<text text-anchor="start" x="234.5" y="-263.5" font-family="Helvetica,sans-Serif" font-size="10.00">BlackMisc::Mixin::Equals</text>
<text text-anchor="middle" x="297" y="-252.5" font-family="Helvetica,sans-Serif" font-size="10.00">ByMetaClass&lt; Derived &gt;</text>
</a>
</g>
</g>
<!-- Node12&#45;&gt;Node2 -->
<g id="edge11" class="edge">
<title>Node12&#45;&gt;Node2</title>
<path fill="none" stroke="midnightblue" d="M377.75,-270.32C389.99,-271.82 402.62,-273.38 414.83,-274.88"/>
<polygon fill="midnightblue" stroke="midnightblue" points="377.93,-266.81 367.57,-269.06 377.07,-273.76 377.93,-266.81"/>
</g>
<!-- Node13 -->
<g id="node13" class="node">
<title>Node13</title>
<g id="a_node13"><a xlink:href="class_black_misc_1_1_mixin_1_1_less_than_by_meta_class.html" target="_top" xlink:title="CRTP class template from which a derived class can inherit operator&lt; implemented by metaclass.">
<polygon fill="none" stroke="black" points="221.5,-196.5 221.5,-226.5 372.5,-226.5 372.5,-196.5 221.5,-196.5"/>
<text text-anchor="start" x="229.5" y="-214.5" font-family="Helvetica,sans-Serif" font-size="10.00">BlackMisc::Mixin::LessThan</text>
<text text-anchor="middle" x="297" y="-203.5" font-family="Helvetica,sans-Serif" font-size="10.00">ByMetaClass&lt; Derived &gt;</text>
</a>
</g>
</g>
<!-- Node13&#45;&gt;Node2 -->
<g id="edge12" class="edge">
<title>Node13&#45;&gt;Node2</title>
<path fill="none" stroke="midnightblue" d="M362.02,-229.7C367.79,-231.57 373.52,-233.52 379,-235.5 406.96,-245.61 437.9,-259.06 460.49,-269.31"/>
<polygon fill="midnightblue" stroke="midnightblue" points="362.91,-226.31 352.32,-226.63 360.79,-232.99 362.91,-226.31"/>
</g>
<!-- Node14 -->
<g id="node14" class="node">
<title>Node14</title>
<g id="a_node14"><a xlink:href="class_black_misc_1_1_mixin_1_1_compare_by_meta_class.html" target="_top" xlink:title="CRTP class template from which a derived class can inherit non&#45;member compare() implemented by metacl...">
<polygon fill="none" stroke="black" points="222.5,-147.5 222.5,-177.5 371.5,-177.5 371.5,-147.5 222.5,-147.5"/>
<text text-anchor="start" x="230.5" y="-165.5" font-family="Helvetica,sans-Serif" font-size="10.00">BlackMisc::Mixin::Compare</text>
<text text-anchor="middle" x="297" y="-154.5" font-family="Helvetica,sans-Serif" font-size="10.00">ByMetaClass&lt; Derived &gt;</text>
</a>
</g>
</g>
<!-- Node14&#45;&gt;Node2 -->
<g id="edge13" class="edge">
<title>Node14&#45;&gt;Node2</title>
<path fill="none" stroke="midnightblue" d="M368.76,-181.48C372.28,-183.04 375.72,-184.71 379,-186.5 420.02,-208.86 459.41,-247.86 479.4,-269.3"/>
<polygon fill="midnightblue" stroke="midnightblue" points="369.86,-178.15 359.28,-177.61 367.22,-184.63 369.86,-178.15"/>
</g>
<!-- Node15 -->
<g id="node15" class="node">
<title>Node15</title>
<g id="a_node15"><a xlink:href="class_black_misc_1_1_mixin_1_1_string.html" target="_top" xlink:title="CRTP class template from which a derived class can inherit string streaming operations.">
<polygon fill="none" stroke="black" points="230,-98.5 230,-128.5 364,-128.5 364,-98.5 230,-98.5"/>
<text text-anchor="start" x="238" y="-116.5" font-family="Helvetica,sans-Serif" font-size="10.00">BlackMisc::Mixin::String</text>
<text text-anchor="middle" x="297" y="-105.5" font-family="Helvetica,sans-Serif" font-size="10.00">&lt; Derived &gt;</text>
</a>
</g>
</g>
<!-- Node15&#45;&gt;Node2 -->
<g id="edge14" class="edge">
<title>Node15&#45;&gt;Node2</title>
<path fill="none" stroke="midnightblue" d="M371.98,-133.17C374.4,-134.52 376.75,-135.96 379,-137.5 430.99,-173.04 469.92,-239.73 485.52,-269.49"/>
<polygon fill="midnightblue" stroke="midnightblue" points="373.44,-129.99 362.93,-128.67 370.32,-136.26 373.44,-129.99"/>
</g>
<!-- Node16 -->
<g id="node16" class="node">
<title>Node16</title>
<g id="a_node16"><a xlink:href="class_black_misc_1_1_mixin_1_1_index.html" target="_top" xlink:title="CRTP class template from which a derived class can inherit property indexing functions.">
<polygon fill="none" stroke="black" points="231,-49.5 231,-79.5 363,-79.5 363,-49.5 231,-49.5"/>
<text text-anchor="start" x="239" y="-67.5" font-family="Helvetica,sans-Serif" font-size="10.00">BlackMisc::Mixin::Index</text>
<text text-anchor="middle" x="297" y="-56.5" font-family="Helvetica,sans-Serif" font-size="10.00">&lt; Derived &gt;</text>
</a>
</g>
</g>
<!-- Node16&#45;&gt;Node2 -->
<g id="edge15" class="edge">
<title>Node16&#45;&gt;Node2</title>
<path fill="none" stroke="midnightblue" d="M371.83,-83.54C374.33,-85.06 376.73,-86.72 379,-88.5 441.99,-138 476.87,-232.65 488.53,-269.4"/>
<polygon fill="midnightblue" stroke="midnightblue" points="373.49,-80.45 363.02,-78.8 370.17,-86.61 373.49,-80.45"/>
</g>
<!-- Node17 -->
<g id="node17" class="node">
<title>Node17</title>
<g id="a_node17"><a xlink:href="class_black_misc_1_1_mixin_1_1_icon.html" target="_top" xlink:title="CRTP class template from which a derived class can inherit icon&#45;related functions.">
<polygon fill="none" stroke="black" points="231.5,-0.5 231.5,-30.5 362.5,-30.5 362.5,-0.5 231.5,-0.5"/>
<text text-anchor="start" x="239.5" y="-18.5" font-family="Helvetica,sans-Serif" font-size="10.00">BlackMisc::Mixin::Icon</text>
<text text-anchor="middle" x="297" y="-7.5" font-family="Helvetica,sans-Serif" font-size="10.00">&lt; Derived, IconIndex &gt;</text>
</a>
</g>
</g>
<!-- Node17&#45;&gt;Node2 -->
<g id="edge16" class="edge">
<title>Node17&#45;&gt;Node2</title>
<path fill="none" stroke="midnightblue" d="M371.44,-33.88C374.1,-35.59 376.63,-37.46 379,-39.5 453.25,-103.54 482.25,-226.31 490.39,-269.23"/>
<polygon fill="midnightblue" stroke="midnightblue" points="373.03,-30.76 362.59,-28.95 369.62,-36.87 373.03,-30.76"/>
</g>
</g>
</svg>
