<?xml version="1.0" encoding="UTF-8" standalone="no"?>
<!DOCTYPE svg PUBLIC "-//W3C//DTD SVG 1.1//EN"
 "http://www.w3.org/Graphics/SVG/1.1/DTD/svg11.dtd">
<!-- Generated by graphviz version 2.43.0 (0)
 -->
<!-- Title: BlackMisc::Simulation::Data::CCentralMultiSimulatorModelCachesProvider Pages: 1 -->
<svg width="863pt" height="127pt"
 viewBox="0.00 0.00 863.00 126.50" xmlns="http://www.w3.org/2000/svg" xmlns:xlink="http://www.w3.org/1999/xlink">
<g id="graph0" class="graph" transform="scale(1 1) rotate(0) translate(4 122.5)">
<title>BlackMisc::Simulation::Data::CCentralMultiSimulatorModelCachesProvider</title>
<!-- Node1 -->
<g id="node1" class="node">
<title>Node1</title>
<g id="a_node1"><a xlink:title="One central instance of the model caches.">
<polygon fill="#bfbfbf" stroke="black" points="689,-44 689,-85 855,-85 855,-44 689,-44"/>
<text text-anchor="start" x="697" y="-73" font-family="Helvetica,sans-Serif" font-size="10.00">BlackMisc::Simulation</text>
<text text-anchor="start" x="697" y="-62" font-family="Helvetica,sans-Serif" font-size="10.00">::Data::CCentralMultiSimulator</text>
<text text-anchor="middle" x="772" y="-51" font-family="Helvetica,sans-Serif" font-size="10.00">ModelCachesProvider</text>
</a>
</g>
</g>
<!-- Node2 -->
<g id="node2" class="node">
<title>Node2</title>
<g id="a_node2"><a xlink:href="class_black_misc_1_1_simulation_1_1_data_1_1_c_central_multi_simulator_model_caches_provider_base.html" target="_top" xlink:title=" ">
<polygon fill="none" stroke="black" points="402,-38.5 402,-90.5 653,-90.5 653,-38.5 402,-38.5"/>
<text text-anchor="start" x="410" y="-78.5" font-family="Helvetica,sans-Serif" font-size="10.00">BlackMisc::Simulation</text>
<text text-anchor="start" x="410" y="-67.5" font-family="Helvetica,sans-Serif" font-size="10.00">::Data::CCentralMultiSimulator</text>
<text text-anchor="start" x="410" y="-56.5" font-family="Helvetica,sans-Serif" font-size="10.00">ModelCachesProviderBase&lt; CModelCaches,</text>
<text text-anchor="middle" x="527.5" y="-45.5" font-family="Helvetica,sans-Serif" font-size="10.00"> CCentralMultiSimulatorModelCachesProvider &gt;</text>
</a>
</g>
</g>
<!-- Node2&#45;&gt;Node1 -->
<g id="edge1" class="edge">
<title>Node2&#45;&gt;Node1</title>
<path fill="none" stroke="midnightblue" d="M663.46,-64.5C672.09,-64.5 680.63,-64.5 688.89,-64.5"/>
<polygon fill="midnightblue" stroke="midnightblue" points="663.3,-61 653.3,-64.5 663.3,-68 663.3,-61"/>
</g>
<!-- Node3 -->
<g id="node3" class="node">
<title>Node3</title>
<g id="a_node3"><a xlink:href="class_black_misc_1_1_simulation_1_1_data_1_1_i_multi_simulator_model_caches.html" target="_top" xlink:title="Cache for multiple simulators specified by CSimulatorInfo.">
<polygon fill="none" stroke="black" points="209,-44 209,-85 366,-85 366,-44 209,-44"/>
<text text-anchor="start" x="217" y="-73" font-family="Helvetica,sans-Serif" font-size="10.00">BlackMisc::Simulation</text>
<text text-anchor="start" x="217" y="-62" font-family="Helvetica,sans-Serif" font-size="10.00">::Data::IMultiSimulatorModel</text>
<text text-anchor="middle" x="287.5" y="-51" font-family="Helvetica,sans-Serif" font-size="10.00">Caches</text>
</a>
</g>
</g>
<!-- Node3&#45;&gt;Node2 -->
<g id="edge2" class="edge">
<title>Node3&#45;&gt;Node2</title>
<path fill="none" stroke="midnightblue" d="M376.24,-64.5C384.65,-64.5 393.28,-64.5 401.95,-64.5"/>
<polygon fill="midnightblue" stroke="midnightblue" points="376.1,-61 366.1,-64.5 376.1,-68 376.1,-61"/>
</g>
<!-- Node4 -->
<g id="node4" class="node">
<title>Node4</title>
<g id="a_node4"><a target="_parent" xlink:href="http://doc.qt.io/qt-5/qobject.html" xlink:title=" ">
<polygon fill="none" stroke="black" points="58.5,-99 58.5,-118 114.5,-118 114.5,-99 58.5,-99"/>
<text text-anchor="middle" x="86.5" y="-106" font-family="Helvetica,sans-Serif" font-size="10.00">QObject</text>
</a>
</g>
</g>
<!-- Node4&#45;&gt;Node3 -->
<g id="edge3" class="edge">
<title>Node4&#45;&gt;Node3</title>
<path fill="none" stroke="midnightblue" d="M124.72,-100.27C148.43,-95.03 180.02,-88.04 209,-81.64"/>
<polygon fill="midnightblue" stroke="midnightblue" points="123.76,-96.9 114.75,-102.47 125.27,-103.73 123.76,-96.9"/>
</g>
<!-- Node5 -->
<g id="node5" class="node">
<title>Node5</title>
<g id="a_node5"><a xlink:href="class_black_misc_1_1_simulation_1_1_i_models_for_simulator_setable.html" target="_top" xlink:title="Interface to &quot;something&quot; backing models, which can be set.">
<polygon fill="none" stroke="black" points="6.5,-49.5 6.5,-79.5 166.5,-79.5 166.5,-49.5 6.5,-49.5"/>
<text text-anchor="start" x="14.5" y="-67.5" font-family="Helvetica,sans-Serif" font-size="10.00">BlackMisc::Simulation</text>
<text text-anchor="middle" x="86.5" y="-56.5" font-family="Helvetica,sans-Serif" font-size="10.00">::IModelsForSimulatorSetable</text>
</a>
</g>
</g>
<!-- Node5&#45;&gt;Node3 -->
<g id="edge4" class="edge">
<title>Node5&#45;&gt;Node3</title>
<path fill="none" stroke="midnightblue" d="M176.88,-64.5C187.55,-64.5 198.37,-64.5 208.85,-64.5"/>
<polygon fill="midnightblue" stroke="midnightblue" points="176.72,-61 166.72,-64.5 176.72,-68 176.72,-61"/>
</g>
<!-- Node6 -->
<g id="node6" class="node">
<title>Node6</title>
<g id="a_node6"><a xlink:href="class_black_misc_1_1_simulation_1_1_i_models_for_simulator_updatable.html" target="_top" xlink:title="Interface to &quot;something&quot; backing models, which can be modified (updated)">
<polygon fill="none" stroke="black" points="0,-0.5 0,-30.5 173,-30.5 173,-0.5 0,-0.5"/>
<text text-anchor="start" x="8" y="-18.5" font-family="Helvetica,sans-Serif" font-size="10.00">BlackMisc::Simulation</text>
<text text-anchor="middle" x="86.5" y="-7.5" font-family="Helvetica,sans-Serif" font-size="10.00">::IModelsForSimulatorUpdatable</text>
</a>
</g>
</g>
<!-- Node6&#45;&gt;Node3 -->
<g id="edge5" class="edge">
<title>Node6&#45;&gt;Node3</title>
<path fill="none" stroke="midnightblue" d="M158.52,-32.99C174.77,-36.99 192.12,-41.26 208.64,-45.33"/>
<polygon fill="midnightblue" stroke="midnightblue" points="159.11,-29.53 148.56,-30.53 157.43,-36.32 159.11,-29.53"/>
</g>
</g>
</svg>
