<?xml version="1.0" encoding="UTF-8" standalone="no"?>
<!DOCTYPE svg PUBLIC "-//W3C//DTD SVG 1.1//EN"
 "http://www.w3.org/Graphics/SVG/1.1/DTD/svg11.dtd">
<!-- Generated by graphviz version 2.43.0 (0)
 -->
<!-- Title: BlackGui::Components::CDbOwnModelSetComponent Pages: 1 -->
<svg width="710pt" height="305pt"
 viewBox="0.00 0.00 710.00 304.50" xmlns="http://www.w3.org/2000/svg" xmlns:xlink="http://www.w3.org/1999/xlink">
<g id="graph0" class="graph" transform="scale(1 1) rotate(0) translate(4 300.5)">
<title>BlackGui::Components::CDbOwnModelSetComponent</title>
<!-- Node1 -->
<g id="node1" class="node">
<title>Node1</title>
<g id="a_node1"><a xlink:title="Handling of the own model set.">
<polygon fill="#bfbfbf" stroke="black" points="535,-125.5 535,-155.5 702,-155.5 702,-125.5 535,-125.5"/>
<text text-anchor="start" x="543" y="-143.5" font-family="Helvetica,sans-Serif" font-size="10.00">BlackGui::Components</text>
<text text-anchor="middle" x="618.5" y="-132.5" font-family="Helvetica,sans-Serif" font-size="10.00">::CDbOwnModelSetComponent</text>
</a>
</g>
</g>
<!-- Node2 -->
<g id="node2" class="node">
<title>Node2</title>
<g id="a_node2"><a target="_parent" xlink:href="http://doc.qt.io/qt-5/qframe.html" xlink:title=" ">
<polygon fill="none" stroke="black" points="385.5,-258 385.5,-277 440.5,-277 440.5,-258 385.5,-258"/>
<text text-anchor="middle" x="413" y="-265" font-family="Helvetica,sans-Serif" font-size="10.00">QFrame</text>
</a>
</g>
</g>
<!-- Node2&#45;&gt;Node1 -->
<g id="edge1" class="edge">
<title>Node2&#45;&gt;Node1</title>
<path fill="none" stroke="midnightblue" d="M451.13,-262.93C466.56,-260 484.27,-255.22 499,-247.5 544.17,-223.82 585.63,-178.91 605.37,-155.51"/>
<polygon fill="midnightblue" stroke="midnightblue" points="450.14,-259.55 440.87,-264.69 451.32,-266.45 450.14,-259.55"/>
</g>
<!-- Node3 -->
<g id="node3" class="node">
<title>Node3</title>
<g id="a_node3"><a target="_parent" xlink:href="http://doc.qt.io/qt-5/qwidget.html" xlink:title=" ">
<polygon fill="none" stroke="black" points="175,-258 175,-277 234,-277 234,-258 175,-258"/>
<text text-anchor="middle" x="204.5" y="-265" font-family="Helvetica,sans-Serif" font-size="10.00">QWidget</text>
</a>
</g>
</g>
<!-- Node3&#45;&gt;Node2 -->
<g id="edge2" class="edge">
<title>Node3&#45;&gt;Node2</title>
<path fill="none" stroke="midnightblue" d="M244.44,-267.5C285.69,-267.5 349.71,-267.5 385.49,-267.5"/>
<polygon fill="midnightblue" stroke="midnightblue" points="244.21,-264 234.21,-267.5 244.21,-271 244.21,-264"/>
</g>
<!-- Node4 -->
<g id="node4" class="node">
<title>Node4</title>
<g id="a_node4"><a target="_parent" xlink:href="http://doc.qt.io/qt-5/qobject.html" xlink:title=" ">
<polygon fill="none" stroke="black" points="13,-277 13,-296 69,-296 69,-277 13,-277"/>
<text text-anchor="middle" x="41" y="-284" font-family="Helvetica,sans-Serif" font-size="10.00">QObject</text>
</a>
</g>
</g>
<!-- Node4&#45;&gt;Node3 -->
<g id="edge3" class="edge">
<title>Node4&#45;&gt;Node3</title>
<path fill="none" stroke="midnightblue" d="M79.21,-282.12C108.28,-278.7 148.09,-274.02 174.74,-270.88"/>
<polygon fill="midnightblue" stroke="midnightblue" points="78.55,-278.68 69.03,-283.32 79.37,-285.63 78.55,-278.68"/>
</g>
<!-- Node5 -->
<g id="node5" class="node">
<title>Node5</title>
<g id="a_node5"><a target="_parent" xlink:href="http://doc.qt.io/qt-5/qpaintdevice.html" xlink:title=" ">
<polygon fill="none" stroke="black" points="0,-239 0,-258 82,-258 82,-239 0,-239"/>
<text text-anchor="middle" x="41" y="-246" font-family="Helvetica,sans-Serif" font-size="10.00">QPaintDevice</text>
</a>
</g>
</g>
<!-- Node5&#45;&gt;Node3 -->
<g id="edge4" class="edge">
<title>Node5&#45;&gt;Node3</title>
<path fill="none" stroke="midnightblue" d="M92.44,-254.43C119.56,-257.63 152.03,-261.44 174.83,-264.13"/>
<polygon fill="midnightblue" stroke="midnightblue" points="92.68,-250.94 82.34,-253.25 91.86,-257.89 92.68,-250.94"/>
</g>
<!-- Node6 -->
<g id="node6" class="node">
<title>Node6</title>
<g id="a_node6"><a xlink:href="class_black_gui_1_1_components_1_1_c_db_mapping_component_aware.html" target="_top" xlink:title="Allows subcomponents to gain access to model component.">
<polygon fill="none" stroke="black" points="327,-208.5 327,-238.5 499,-238.5 499,-208.5 327,-208.5"/>
<text text-anchor="start" x="335" y="-226.5" font-family="Helvetica,sans-Serif" font-size="10.00">BlackGui::Components</text>
<text text-anchor="middle" x="413" y="-215.5" font-family="Helvetica,sans-Serif" font-size="10.00">::CDbMappingComponentAware</text>
</a>
</g>
</g>
<!-- Node6&#45;&gt;Node1 -->
<g id="edge5" class="edge">
<title>Node6&#45;&gt;Node1</title>
<path fill="none" stroke="midnightblue" d="M479.81,-205.35C486.34,-203.19 492.83,-200.9 499,-198.5 531.02,-186.06 566.2,-168.28 589.85,-155.7"/>
<polygon fill="midnightblue" stroke="midnightblue" points="478.69,-202.04 470.23,-208.42 480.83,-208.7 478.69,-202.04"/>
</g>
<!-- Node7 -->
<g id="node7" class="node">
<title>Node7</title>
<g id="a_node7"><a xlink:href="class_black_misc_1_1_simulation_1_1_data_1_1_c_central_multi_simulator_model_set_caches_aware.html" target="_top" xlink:title="Basically a QObject free (delegate based) version of CCentralMultiSimulatorModelSetCachesProvider.">
<polygon fill="none" stroke="black" points="330,-148 330,-189 496,-189 496,-148 330,-148"/>
<text text-anchor="start" x="338" y="-177" font-family="Helvetica,sans-Serif" font-size="10.00">BlackMisc::Simulation</text>
<text text-anchor="start" x="338" y="-166" font-family="Helvetica,sans-Serif" font-size="10.00">::Data::CCentralMultiSimulator</text>
<text text-anchor="middle" x="413" y="-155" font-family="Helvetica,sans-Serif" font-size="10.00">ModelSetCachesAware</text>
</a>
</g>
</g>
<!-- Node7&#45;&gt;Node1 -->
<g id="edge6" class="edge">
<title>Node7&#45;&gt;Node1</title>
<path fill="none" stroke="midnightblue" d="M506.37,-155.79C515.8,-154.49 525.35,-153.18 534.68,-151.9"/>
<polygon fill="midnightblue" stroke="midnightblue" points="505.61,-152.36 496.18,-157.19 506.57,-159.3 505.61,-152.36"/>
</g>
<!-- Node8 -->
<g id="node8" class="node">
<title>Node8</title>
<g id="a_node8"><a xlink:href="class_black_misc_1_1_simulation_1_1_i_models_for_simulator_setable.html" target="_top" xlink:title="Interface to &quot;something&quot; backing models, which can be set.">
<polygon fill="none" stroke="black" points="124.5,-178.5 124.5,-208.5 284.5,-208.5 284.5,-178.5 124.5,-178.5"/>
<text text-anchor="start" x="132.5" y="-196.5" font-family="Helvetica,sans-Serif" font-size="10.00">BlackMisc::Simulation</text>
<text text-anchor="middle" x="204.5" y="-185.5" font-family="Helvetica,sans-Serif" font-size="10.00">::IModelsForSimulatorSetable</text>
</a>
</g>
</g>
<!-- Node8&#45;&gt;Node7 -->
<g id="edge7" class="edge">
<title>Node8&#45;&gt;Node7</title>
<path fill="none" stroke="midnightblue" d="M294.89,-182.68C306.52,-181.27 318.38,-179.83 329.89,-178.44"/>
<polygon fill="midnightblue" stroke="midnightblue" points="294.25,-179.23 284.75,-183.91 295.1,-186.18 294.25,-179.23"/>
</g>
<!-- Node9 -->
<g id="node9" class="node">
<title>Node9</title>
<g id="a_node9"><a xlink:href="class_black_misc_1_1_simulation_1_1_i_models_for_simulator_updatable.html" target="_top" xlink:title="Interface to &quot;something&quot; backing models, which can be modified (updated)">
<polygon fill="none" stroke="black" points="118,-129.5 118,-159.5 291,-159.5 291,-129.5 118,-129.5"/>
<text text-anchor="start" x="126" y="-147.5" font-family="Helvetica,sans-Serif" font-size="10.00">BlackMisc::Simulation</text>
<text text-anchor="middle" x="204.5" y="-136.5" font-family="Helvetica,sans-Serif" font-size="10.00">::IModelsForSimulatorUpdatable</text>
</a>
</g>
</g>
<!-- Node9&#45;&gt;Node7 -->
<g id="edge8" class="edge">
<title>Node9&#45;&gt;Node7</title>
<path fill="none" stroke="midnightblue" d="M301.5,-155.66C310.96,-156.76 320.5,-157.87 329.8,-158.95"/>
<polygon fill="midnightblue" stroke="midnightblue" points="301.62,-152.15 291.28,-154.47 300.81,-159.1 301.62,-152.15"/>
</g>
<!-- Node10 -->
<g id="node10" class="node">
<title>Node10</title>
<g id="a_node10"><a xlink:href="class_black_misc_1_1_simulation_1_1_i_models_setable.html" target="_top" xlink:title="Interface to &quot;something&quot; backing models, which can be set.">
<polygon fill="none" stroke="black" points="350.5,-98.5 350.5,-128.5 475.5,-128.5 475.5,-98.5 350.5,-98.5"/>
<text text-anchor="start" x="358.5" y="-116.5" font-family="Helvetica,sans-Serif" font-size="10.00">BlackMisc::Simulation</text>
<text text-anchor="middle" x="413" y="-105.5" font-family="Helvetica,sans-Serif" font-size="10.00">::IModelsSetable</text>
</a>
</g>
</g>
<!-- Node10&#45;&gt;Node1 -->
<g id="edge9" class="edge">
<title>Node10&#45;&gt;Node1</title>
<path fill="none" stroke="midnightblue" d="M485.82,-123.03C501.63,-125.13 518.49,-127.36 534.69,-129.51"/>
<polygon fill="midnightblue" stroke="midnightblue" points="485.98,-119.52 475.61,-121.67 485.06,-126.46 485.98,-119.52"/>
</g>
<!-- Node11 -->
<g id="node11" class="node">
<title>Node11</title>
<g id="a_node11"><a xlink:href="class_black_misc_1_1_simulation_1_1_i_models_updatable.html" target="_top" xlink:title="Interface to &quot;something&quot; backing models, which can be modified (updated)">
<polygon fill="none" stroke="black" points="350.5,-49.5 350.5,-79.5 475.5,-79.5 475.5,-49.5 350.5,-49.5"/>
<text text-anchor="start" x="358.5" y="-67.5" font-family="Helvetica,sans-Serif" font-size="10.00">BlackMisc::Simulation</text>
<text text-anchor="middle" x="413" y="-56.5" font-family="Helvetica,sans-Serif" font-size="10.00">::IModelsUpdatable</text>
</a>
</g>
</g>
<!-- Node11&#45;&gt;Node1 -->
<g id="edge10" class="edge">
<title>Node11&#45;&gt;Node1</title>
<path fill="none" stroke="midnightblue" d="M481.08,-82.5C487.17,-84.42 493.22,-86.43 499,-88.5 529.24,-99.35 562.67,-114.3 586.29,-125.39"/>
<polygon fill="midnightblue" stroke="midnightblue" points="482.08,-79.15 471.5,-79.56 480.03,-85.84 482.08,-79.15"/>
</g>
<!-- Node12 -->
<g id="node12" class="node">
<title>Node12</title>
<g id="a_node12"><a xlink:href="class_black_misc_1_1_simulation_1_1_i_simulator_selectable.html" target="_top" xlink:title="Interface to &quot;something&quot; allowing a simulator selection.">
<polygon fill="none" stroke="black" points="350.5,-0.5 350.5,-30.5 475.5,-30.5 475.5,-0.5 350.5,-0.5"/>
<text text-anchor="start" x="358.5" y="-18.5" font-family="Helvetica,sans-Serif" font-size="10.00">BlackMisc::Simulation</text>
<text text-anchor="middle" x="413" y="-7.5" font-family="Helvetica,sans-Serif" font-size="10.00">::ISimulatorSelectable</text>
</a>
</g>
</g>
<!-- Node12&#45;&gt;Node1 -->
<g id="edge11" class="edge">
<title>Node12&#45;&gt;Node1</title>
<path fill="none" stroke="midnightblue" d="M485.01,-33C489.84,-34.96 494.55,-37.12 499,-39.5 541.92,-62.42 583.07,-103.04 603.72,-125.14"/>
<polygon fill="midnightblue" stroke="midnightblue" points="486.2,-29.71 475.61,-29.46 483.73,-36.26 486.2,-29.71"/>
</g>
</g>
</svg>
