<?xml version="1.0" encoding="UTF-8" standalone="no"?>
<!DOCTYPE svg PUBLIC "-//W3C//DTD SVG 1.1//EN"
 "http://www.w3.org/Graphics/SVG/1.1/DTD/svg11.dtd">
<!-- Generated by graphviz version 2.43.0 (0)
 -->
<!-- Title: BlackSimPlugin::FsxCommon::CSimConnectSettingsComponent Pages: 1 -->
<svg width="192pt" height="341pt"
 viewBox="0.00 0.00 192.00 341.00" xmlns="http://www.w3.org/2000/svg" xmlns:xlink="http://www.w3.org/1999/xlink">
<g id="graph0" class="graph" transform="scale(1 1) rotate(0) translate(4 337)">
<title>BlackSimPlugin::FsxCommon::CSimConnectSettingsComponent</title>
<!-- Node1 -->
<g id="node1" class="node">
<title>Node1</title>
<g id="a_node1"><a xlink:title="A component that gathers all SimConnect related settings.">
<polygon fill="#bfbfbf" stroke="black" points="0,-0.5 0,-30.5 184,-30.5 184,-0.5 0,-0.5"/>
<text text-anchor="start" x="8" y="-18.5" font-family="Helvetica,sans-Serif" font-size="10.00">BlackSimPlugin::FsxCommon</text>
<text text-anchor="middle" x="92" y="-7.5" font-family="Helvetica,sans-Serif" font-size="10.00">::CSimConnectSettingsComponent</text>
</a>
</g>
</g>
<!-- Node2 -->
<g id="node2" class="node">
<title>Node2</title>
<g id="a_node2"><a xlink:href="class_black_gui_1_1_c_overlay_messages_frame.html" target="_top" xlink:title="Using this class provides a QFrame with the overlay functionality already integrated.">
<polygon fill="none" stroke="black" points="12,-67.5 12,-97.5 172,-97.5 172,-67.5 12,-67.5"/>
<text text-anchor="start" x="20" y="-85.5" font-family="Helvetica,sans-Serif" font-size="10.00">BlackGui::COverlayMessages</text>
<text text-anchor="middle" x="92" y="-74.5" font-family="Helvetica,sans-Serif" font-size="10.00">Frame</text>
</a>
</g>
</g>
<!-- Node2&#45;&gt;Node1 -->
<g id="edge1" class="edge">
<title>Node2&#45;&gt;Node1</title>
<path fill="none" stroke="midnightblue" d="M92,-57.11C92,-48.15 92,-38.32 92,-30.58"/>
<polygon fill="midnightblue" stroke="midnightblue" points="88.5,-57.4 92,-67.4 95.5,-57.4 88.5,-57.4"/>
</g>
<!-- Node3 -->
<g id="node3" class="node">
<title>Node3</title>
<g id="a_node3"><a xlink:href="class_black_gui_1_1_c_overlay_messages_base.html" target="_top" xlink:title=" ">
<polygon fill="none" stroke="black" points="12,-134.5 12,-164.5 172,-164.5 172,-134.5 12,-134.5"/>
<text text-anchor="start" x="20" y="-152.5" font-family="Helvetica,sans-Serif" font-size="10.00">BlackGui::COverlayMessages</text>
<text text-anchor="middle" x="92" y="-141.5" font-family="Helvetica,sans-Serif" font-size="10.00">Base&lt; QFrame &gt;</text>
</a>
</g>
</g>
<!-- Node3&#45;&gt;Node2 -->
<g id="edge2" class="edge">
<title>Node3&#45;&gt;Node2</title>
<path fill="none" stroke="midnightblue" d="M92,-124.11C92,-115.15 92,-105.32 92,-97.58"/>
<polygon fill="midnightblue" stroke="midnightblue" points="88.5,-124.4 92,-134.4 95.5,-124.4 88.5,-124.4"/>
</g>
<!-- Node4 -->
<g id="node4" class="node">
<title>Node4</title>
<g id="a_node4"><a target="_parent" xlink:href="http://doc.qt.io/qt-5/qframe.html" xlink:title=" ">
<polygon fill="none" stroke="black" points="64.5,-201.5 64.5,-220.5 119.5,-220.5 119.5,-201.5 64.5,-201.5"/>
<text text-anchor="middle" x="92" y="-208.5" font-family="Helvetica,sans-Serif" font-size="10.00">QFrame</text>
</a>
</g>
</g>
<!-- Node4&#45;&gt;Node3 -->
<g id="edge3" class="edge">
<title>Node4&#45;&gt;Node3</title>
<path fill="none" stroke="midnightblue" d="M92,-191.23C92,-182.59 92,-172.5 92,-164.52"/>
<polygon fill="midnightblue" stroke="midnightblue" points="88.5,-191.48 92,-201.48 95.5,-191.48 88.5,-191.48"/>
</g>
<!-- Node5 -->
<g id="node5" class="node">
<title>Node5</title>
<g id="a_node5"><a target="_parent" xlink:href="http://doc.qt.io/qt-5/qwidget.html" xlink:title=" ">
<polygon fill="none" stroke="black" points="62.5,-257.5 62.5,-276.5 121.5,-276.5 121.5,-257.5 62.5,-257.5"/>
<text text-anchor="middle" x="92" y="-264.5" font-family="Helvetica,sans-Serif" font-size="10.00">QWidget</text>
</a>
</g>
</g>
<!-- Node5&#45;&gt;Node4 -->
<g id="edge4" class="edge">
<title>Node5&#45;&gt;Node4</title>
<path fill="none" stroke="midnightblue" d="M92,-246.8C92,-237.91 92,-227.78 92,-220.75"/>
<polygon fill="midnightblue" stroke="midnightblue" points="88.5,-247.08 92,-257.08 95.5,-247.08 88.5,-247.08"/>
</g>
<!-- Node6 -->
<g id="node6" class="node">
<title>Node6</title>
<g id="a_node6"><a target="_parent" xlink:href="http://doc.qt.io/qt-5/qobject.html" xlink:title=" ">
<polygon fill="none" stroke="black" points="21,-313.5 21,-332.5 77,-332.5 77,-313.5 21,-313.5"/>
<text text-anchor="middle" x="49" y="-320.5" font-family="Helvetica,sans-Serif" font-size="10.00">QObject</text>
</a>
</g>
</g>
<!-- Node6&#45;&gt;Node5 -->
<g id="edge5" class="edge">
<title>Node6&#45;&gt;Node5</title>
<path fill="none" stroke="midnightblue" d="M62.42,-305.14C69.91,-295.74 78.94,-284.4 85.03,-276.75"/>
<polygon fill="midnightblue" stroke="midnightblue" points="59.59,-303.08 56.1,-313.08 65.07,-307.44 59.59,-303.08"/>
</g>
<!-- Node7 -->
<g id="node7" class="node">
<title>Node7</title>
<g id="a_node7"><a target="_parent" xlink:href="http://doc.qt.io/qt-5/qpaintdevice.html" xlink:title=" ">
<polygon fill="none" stroke="black" points="95,-313.5 95,-332.5 177,-332.5 177,-313.5 95,-313.5"/>
<text text-anchor="middle" x="136" y="-320.5" font-family="Helvetica,sans-Serif" font-size="10.00">QPaintDevice</text>
</a>
</g>
</g>
<!-- Node7&#45;&gt;Node5 -->
<g id="edge6" class="edge">
<title>Node7&#45;&gt;Node5</title>
<path fill="none" stroke="midnightblue" d="M122.27,-305.14C114.6,-295.74 105.37,-284.4 99.13,-276.75"/>
<polygon fill="midnightblue" stroke="midnightblue" points="119.7,-307.54 128.73,-313.08 125.13,-303.12 119.7,-307.54"/>
</g>
</g>
</svg>
