<?xml version="1.0" encoding="UTF-8" standalone="no"?>
<!DOCTYPE svg PUBLIC "-//W3C//DTD SVG 1.1//EN"
 "http://www.w3.org/Graphics/SVG/1.1/DTD/svg11.dtd">
<!-- Generated by graphviz version 2.43.0 (0)
 -->
<!-- Title: BlackGui::Components::CCockpitTransponderModeLedsComponent Pages: 1 -->
<svg width="259pt" height="218pt"
 viewBox="0.00 0.00 259.00 218.00" xmlns="http://www.w3.org/2000/svg" xmlns:xlink="http://www.w3.org/1999/xlink">
<g id="graph0" class="graph" transform="scale(1 1) rotate(0) translate(4 214)">
<title>BlackGui::Components::CCockpitTransponderModeLedsComponent</title>
<!-- Node1 -->
<g id="node1" class="node">
<title>Node1</title>
<g id="a_node1"><a xlink:title="LEDs representing transponder mode state.">
<polygon fill="#bfbfbf" stroke="black" points="39.5,-0.5 39.5,-41.5 214.5,-41.5 214.5,-0.5 39.5,-0.5"/>
<text text-anchor="start" x="47.5" y="-29.5" font-family="Helvetica,sans-Serif" font-size="10.00">BlackGui::Components</text>
<text text-anchor="start" x="47.5" y="-18.5" font-family="Helvetica,sans-Serif" font-size="10.00">::CCockpitTransponderModeLeds</text>
<text text-anchor="middle" x="127" y="-7.5" font-family="Helvetica,sans-Serif" font-size="10.00">Component</text>
</a>
</g>
</g>
<!-- Node2 -->
<g id="node2" class="node">
<title>Node2</title>
<g id="a_node2"><a target="_parent" xlink:href="http://doc.qt.io/qt-5/qframe.html" xlink:title=" ">
<polygon fill="none" stroke="black" points="43.5,-78.5 43.5,-97.5 98.5,-97.5 98.5,-78.5 43.5,-78.5"/>
<text text-anchor="middle" x="71" y="-85.5" font-family="Helvetica,sans-Serif" font-size="10.00">QFrame</text>
</a>
</g>
</g>
<!-- Node2&#45;&gt;Node1 -->
<g id="edge1" class="edge">
<title>Node2&#45;&gt;Node1</title>
<path fill="none" stroke="midnightblue" d="M85.18,-70.54C92.78,-61.72 102.19,-50.79 110.16,-41.54"/>
<polygon fill="midnightblue" stroke="midnightblue" points="82.43,-68.37 78.55,-78.23 87.73,-72.94 82.43,-68.37"/>
</g>
<!-- Node3 -->
<g id="node3" class="node">
<title>Node3</title>
<g id="a_node3"><a target="_parent" xlink:href="http://doc.qt.io/qt-5/qwidget.html" xlink:title=" ">
<polygon fill="none" stroke="black" points="41.5,-134.5 41.5,-153.5 100.5,-153.5 100.5,-134.5 41.5,-134.5"/>
<text text-anchor="middle" x="71" y="-141.5" font-family="Helvetica,sans-Serif" font-size="10.00">QWidget</text>
</a>
</g>
</g>
<!-- Node3&#45;&gt;Node2 -->
<g id="edge2" class="edge">
<title>Node3&#45;&gt;Node2</title>
<path fill="none" stroke="midnightblue" d="M71,-123.8C71,-114.91 71,-104.78 71,-97.75"/>
<polygon fill="midnightblue" stroke="midnightblue" points="67.5,-124.08 71,-134.08 74.5,-124.08 67.5,-124.08"/>
</g>
<!-- Node4 -->
<g id="node4" class="node">
<title>Node4</title>
<g id="a_node4"><a target="_parent" xlink:href="http://doc.qt.io/qt-5/qobject.html" xlink:title=" ">
<polygon fill="none" stroke="black" points="0,-190.5 0,-209.5 56,-209.5 56,-190.5 0,-190.5"/>
<text text-anchor="middle" x="28" y="-197.5" font-family="Helvetica,sans-Serif" font-size="10.00">QObject</text>
</a>
</g>
</g>
<!-- Node4&#45;&gt;Node3 -->
<g id="edge3" class="edge">
<title>Node4&#45;&gt;Node3</title>
<path fill="none" stroke="midnightblue" d="M41.42,-182.14C48.91,-172.74 57.94,-161.4 64.03,-153.75"/>
<polygon fill="midnightblue" stroke="midnightblue" points="38.59,-180.08 35.1,-190.08 44.07,-184.44 38.59,-180.08"/>
</g>
<!-- Node5 -->
<g id="node5" class="node">
<title>Node5</title>
<g id="a_node5"><a target="_parent" xlink:href="http://doc.qt.io/qt-5/qpaintdevice.html" xlink:title=" ">
<polygon fill="none" stroke="black" points="74,-190.5 74,-209.5 156,-209.5 156,-190.5 74,-190.5"/>
<text text-anchor="middle" x="115" y="-197.5" font-family="Helvetica,sans-Serif" font-size="10.00">QPaintDevice</text>
</a>
</g>
</g>
<!-- Node5&#45;&gt;Node3 -->
<g id="edge4" class="edge">
<title>Node5&#45;&gt;Node3</title>
<path fill="none" stroke="midnightblue" d="M101.27,-182.14C93.6,-172.74 84.37,-161.4 78.13,-153.75"/>
<polygon fill="midnightblue" stroke="midnightblue" points="98.7,-184.54 107.73,-190.08 104.13,-180.12 98.7,-184.54"/>
</g>
<!-- Node6 -->
<g id="node6" class="node">
<title>Node6</title>
<g id="a_node6"><a xlink:href="class_black_misc_1_1_c_identifiable.html" target="_top" xlink:title="Base class with a member CIdentifier to be inherited by a class which has an identity in the environm...">
<polygon fill="none" stroke="black" points="117,-78.5 117,-97.5 251,-97.5 251,-78.5 117,-78.5"/>
<text text-anchor="middle" x="184" y="-85.5" font-family="Helvetica,sans-Serif" font-size="10.00">BlackMisc::CIdentifiable</text>
</a>
</g>
</g>
<!-- Node6&#45;&gt;Node1 -->
<g id="edge5" class="edge">
<title>Node6&#45;&gt;Node1</title>
<path fill="none" stroke="midnightblue" d="M169.57,-70.54C161.83,-61.72 152.25,-50.79 144.14,-41.54"/>
<polygon fill="midnightblue" stroke="midnightblue" points="167.09,-73.02 176.31,-78.23 172.35,-68.41 167.09,-73.02"/>
</g>
</g>
</svg>
