<?xml version="1.0" encoding="UTF-8" standalone="no"?>
<!DOCTYPE svg PUBLIC "-//W3C//DTD SVG 1.1//EN"
 "http://www.w3.org/Graphics/SVG/1.1/DTD/svg11.dtd">
<!-- Generated by graphviz version 2.43.0 (0)
 -->
<!-- Title: BlackMisc::Aviation::CAtcStationList Pages: 1 -->
<svg width="747pt" height="356pt"
 viewBox="0.00 0.00 747.00 356.00" xmlns="http://www.w3.org/2000/svg" xmlns:xlink="http://www.w3.org/1999/xlink">
<g id="graph0" class="graph" transform="scale(1 1) rotate(0) translate(4 352)">
<title>BlackMisc::Aviation::CAtcStationList</title>
<!-- Node1 -->
<g id="node1" class="node">
<title>Node1</title>
<g id="a_node1"><a xlink:title="Value object for a list of ATC stations.">
<polygon fill="#bfbfbf" stroke="black" points="627,-85.5 627,-115.5 739,-115.5 739,-85.5 627,-85.5"/>
<text text-anchor="start" x="635" y="-103.5" font-family="Helvetica,sans-Serif" font-size="10.00">BlackMisc::Aviation</text>
<text text-anchor="middle" x="683" y="-92.5" font-family="Helvetica,sans-Serif" font-size="10.00">::CAtcStationList</text>
</a>
</g>
</g>
<!-- Node2 -->
<g id="node2" class="node">
<title>Node2</title>
<g id="a_node2"><a xlink:href="class_black_misc_1_1_c_sequence.html" target="_top" xlink:title=" ">
<polygon fill="none" stroke="black" points="440,-170.5 440,-200.5 566,-200.5 566,-170.5 440,-170.5"/>
<text text-anchor="start" x="448" y="-188.5" font-family="Helvetica,sans-Serif" font-size="10.00">BlackMisc::CSequence</text>
<text text-anchor="middle" x="503" y="-177.5" font-family="Helvetica,sans-Serif" font-size="10.00">&lt; CAtcStation &gt;</text>
</a>
</g>
</g>
<!-- Node2&#45;&gt;Node1 -->
<g id="edge1" class="edge">
<title>Node2&#45;&gt;Node1</title>
<path fill="none" stroke="midnightblue" d="M574.7,-167.17C580.29,-165.12 585.79,-162.9 591,-160.5 617.47,-148.32 645.03,-129.08 662.78,-115.68"/>
<polygon fill="midnightblue" stroke="midnightblue" points="573.53,-163.87 565.23,-170.46 575.83,-170.49 573.53,-163.87"/>
</g>
<!-- Node3 -->
<g id="node3" class="node">
<title>Node3</title>
<g id="a_node3"><a xlink:href="class_black_misc_1_1_c_container_base.html" target="_top" xlink:title="Base class for CCollection and CSequence adding mutating operations and CValueObject facility on top ...">
<polygon fill="none" stroke="black" points="222,-219.5 222,-249.5 372,-249.5 372,-219.5 222,-219.5"/>
<text text-anchor="start" x="230" y="-237.5" font-family="Helvetica,sans-Serif" font-size="10.00">BlackMisc::CContainerBase</text>
<text text-anchor="middle" x="297" y="-226.5" font-family="Helvetica,sans-Serif" font-size="10.00">&lt; Derived &gt;</text>
</a>
</g>
</g>
<!-- Node3&#45;&gt;Node2 -->
<g id="edge2" class="edge">
<title>Node3&#45;&gt;Node2</title>
<path fill="none" stroke="midnightblue" d="M370.5,-217.08C393.18,-211.64 417.98,-205.68 439.88,-200.42"/>
<polygon fill="midnightblue" stroke="midnightblue" points="369.5,-213.73 360.59,-219.47 371.13,-220.53 369.5,-213.73"/>
</g>
<!-- Node4 -->
<g id="node4" class="node">
<title>Node4</title>
<g id="a_node4"><a xlink:href="class_black_misc_1_1_c_range_base.html" target="_top" xlink:title="Any container class with begin and end iterators can inherit from this CRTP class to gain some useful...">
<polygon fill="none" stroke="black" points="22.5,-317.5 22.5,-347.5 156.5,-347.5 156.5,-317.5 22.5,-317.5"/>
<text text-anchor="start" x="30.5" y="-335.5" font-family="Helvetica,sans-Serif" font-size="10.00">BlackMisc::CRangeBase</text>
<text text-anchor="middle" x="89.5" y="-324.5" font-family="Helvetica,sans-Serif" font-size="10.00">&lt; Derived &gt;</text>
</a>
</g>
</g>
<!-- Node4&#45;&gt;Node3 -->
<g id="edge3" class="edge">
<title>Node4&#45;&gt;Node3</title>
<path fill="none" stroke="midnightblue" d="M164.63,-314.19C169.55,-312.43 174.38,-310.53 179,-308.5 215.52,-292.44 253.87,-266.09 276.33,-249.55"/>
<polygon fill="midnightblue" stroke="midnightblue" points="163.44,-310.9 155.09,-317.42 165.69,-317.53 163.44,-310.9"/>
</g>
<!-- Node5 -->
<g id="node5" class="node">
<title>Node5</title>
<g id="a_node5"><a xlink:href="class_black_misc_1_1_mixin_1_1_meta_type.html" target="_top" xlink:title="CRTP class template from which a derived class can inherit common methods dealing with the metatype o...">
<polygon fill="none" stroke="black" points="13.5,-268.5 13.5,-298.5 165.5,-298.5 165.5,-268.5 13.5,-268.5"/>
<text text-anchor="start" x="21.5" y="-286.5" font-family="Helvetica,sans-Serif" font-size="10.00">BlackMisc::Mixin::MetaType</text>
<text text-anchor="middle" x="89.5" y="-275.5" font-family="Helvetica,sans-Serif" font-size="10.00">&lt; Derived &gt;</text>
</a>
</g>
</g>
<!-- Node5&#45;&gt;Node3 -->
<g id="edge4" class="edge">
<title>Node5&#45;&gt;Node3</title>
<path fill="none" stroke="midnightblue" d="M163.49,-266.1C186.22,-260.68 211.08,-254.75 233.07,-249.51"/>
<polygon fill="midnightblue" stroke="midnightblue" points="162.47,-262.74 153.55,-268.47 164.09,-269.55 162.47,-262.74"/>
</g>
<!-- Node6 -->
<g id="node6" class="node">
<title>Node6</title>
<g id="a_node6"><a xlink:href="class_black_misc_1_1_mixin_1_1_d_bus_operators.html" target="_top" xlink:title=" ">
<polygon fill="none" stroke="black" points="0,-219.5 0,-249.5 179,-249.5 179,-219.5 0,-219.5"/>
<text text-anchor="start" x="8" y="-237.5" font-family="Helvetica,sans-Serif" font-size="10.00">BlackMisc::Mixin::DBusOperators</text>
<text text-anchor="middle" x="89.5" y="-226.5" font-family="Helvetica,sans-Serif" font-size="10.00">&lt; Derived &gt;</text>
</a>
</g>
</g>
<!-- Node6&#45;&gt;Node3 -->
<g id="edge5" class="edge">
<title>Node6&#45;&gt;Node3</title>
<path fill="none" stroke="midnightblue" d="M189.19,-234.5C200.17,-234.5 211.22,-234.5 221.82,-234.5"/>
<polygon fill="midnightblue" stroke="midnightblue" points="189.14,-231 179.14,-234.5 189.14,-238 189.14,-231"/>
</g>
<!-- Node7 -->
<g id="node7" class="node">
<title>Node7</title>
<g id="a_node7"><a xlink:href="class_black_misc_1_1_mixin_1_1_json_operators.html" target="_top" xlink:title="CRTP class template which will generate marshalling operators for a derived class with its own marsha...">
<polygon fill="none" stroke="black" points="3,-170.5 3,-200.5 176,-200.5 176,-170.5 3,-170.5"/>
<text text-anchor="start" x="11" y="-188.5" font-family="Helvetica,sans-Serif" font-size="10.00">BlackMisc::Mixin::JsonOperators</text>
<text text-anchor="middle" x="89.5" y="-177.5" font-family="Helvetica,sans-Serif" font-size="10.00">&lt; Derived &gt;</text>
</a>
</g>
</g>
<!-- Node7&#45;&gt;Node3 -->
<g id="edge6" class="edge">
<title>Node7&#45;&gt;Node3</title>
<path fill="none" stroke="midnightblue" d="M163.49,-202.9C186.22,-208.32 211.08,-214.25 233.07,-219.49"/>
<polygon fill="midnightblue" stroke="midnightblue" points="164.09,-199.45 153.55,-200.53 162.47,-206.26 164.09,-199.45"/>
</g>
<!-- Node8 -->
<g id="node8" class="node">
<title>Node8</title>
<g id="a_node8"><a xlink:href="class_black_misc_1_1_mixin_1_1_string.html" target="_top" xlink:title="CRTP class template from which a derived class can inherit string streaming operations.">
<polygon fill="none" stroke="black" points="22.5,-121.5 22.5,-151.5 156.5,-151.5 156.5,-121.5 22.5,-121.5"/>
<text text-anchor="start" x="30.5" y="-139.5" font-family="Helvetica,sans-Serif" font-size="10.00">BlackMisc::Mixin::String</text>
<text text-anchor="middle" x="89.5" y="-128.5" font-family="Helvetica,sans-Serif" font-size="10.00">&lt; Derived &gt;</text>
</a>
</g>
</g>
<!-- Node8&#45;&gt;Node3 -->
<g id="edge7" class="edge">
<title>Node8&#45;&gt;Node3</title>
<path fill="none" stroke="midnightblue" d="M166.05,-153.98C170.59,-156.2 174.95,-158.69 179,-161.5 201.21,-176.9 192.89,-194.96 215,-210.5 219.92,-213.96 225.34,-216.92 230.98,-219.47"/>
<polygon fill="midnightblue" stroke="midnightblue" points="167.1,-150.62 156.53,-149.81 164.29,-157.03 167.1,-150.62"/>
</g>
<!-- Node9 -->
<g id="node9" class="node">
<title>Node9</title>
<g id="a_node9"><a xlink:href="class_black_misc_1_1_mixin_1_1_data_stream_operators.html" target="_top" xlink:title="CRTP class template to generate non&#45;member QDataStream streaming operators.">
<polygon fill="none" stroke="black" points="215,-170.5 215,-200.5 379,-200.5 379,-170.5 215,-170.5"/>
<text text-anchor="start" x="223" y="-188.5" font-family="Helvetica,sans-Serif" font-size="10.00">BlackMisc::Mixin::DataStream</text>
<text text-anchor="middle" x="297" y="-177.5" font-family="Helvetica,sans-Serif" font-size="10.00">Operators&lt; Derived &gt;</text>
</a>
</g>
</g>
<!-- Node9&#45;&gt;Node2 -->
<g id="edge8" class="edge">
<title>Node9&#45;&gt;Node2</title>
<path fill="none" stroke="midnightblue" d="M389.24,-185.5C406.38,-185.5 423.93,-185.5 439.93,-185.5"/>
<polygon fill="midnightblue" stroke="midnightblue" points="389.21,-182 379.21,-185.5 389.21,-189 389.21,-182"/>
</g>
<!-- Node10 -->
<g id="node10" class="node">
<title>Node10</title>
<g id="a_node10"><a xlink:href="class_black_misc_1_1_mixin_1_1_icon.html" target="_top" xlink:title="CRTP class template from which a derived class can inherit icon&#45;related functions.">
<polygon fill="none" stroke="black" points="231.5,-121.5 231.5,-151.5 362.5,-151.5 362.5,-121.5 231.5,-121.5"/>
<text text-anchor="start" x="239.5" y="-139.5" font-family="Helvetica,sans-Serif" font-size="10.00">BlackMisc::Mixin::Icon</text>
<text text-anchor="middle" x="297" y="-128.5" font-family="Helvetica,sans-Serif" font-size="10.00">&lt; Derived, IconIndex &gt;</text>
</a>
</g>
</g>
<!-- Node10&#45;&gt;Node2 -->
<g id="edge9" class="edge">
<title>Node10&#45;&gt;Node2</title>
<path fill="none" stroke="midnightblue" d="M370.5,-153.92C393.18,-159.36 417.98,-165.32 439.88,-170.58"/>
<polygon fill="midnightblue" stroke="midnightblue" points="371.13,-150.47 360.59,-151.53 369.5,-157.27 371.13,-150.47"/>
</g>
<!-- Node11 -->
<g id="node11" class="node">
<title>Node11</title>
<g id="a_node11"><a xlink:href="class_black_misc_1_1_aviation_1_1_i_callsign_object_list.html" target="_top" xlink:title=" ">
<polygon fill="none" stroke="black" points="415,-110 415,-151 591,-151 591,-110 415,-110"/>
<text text-anchor="start" x="423" y="-139" font-family="Helvetica,sans-Serif" font-size="10.00">BlackMisc::Aviation</text>
<text text-anchor="start" x="423" y="-128" font-family="Helvetica,sans-Serif" font-size="10.00">::ICallsignObjectList</text>
<text text-anchor="middle" x="503" y="-117" font-family="Helvetica,sans-Serif" font-size="10.00">&lt; CAtcStation, CAtcStationList &gt;</text>
</a>
</g>
</g>
<!-- Node11&#45;&gt;Node1 -->
<g id="edge10" class="edge">
<title>Node11&#45;&gt;Node1</title>
<path fill="none" stroke="midnightblue" d="M601.14,-114.13C609.94,-112.65 618.63,-111.18 626.87,-109.79"/>
<polygon fill="midnightblue" stroke="midnightblue" points="600.45,-110.69 591.17,-115.81 601.62,-117.6 600.45,-110.69"/>
</g>
<!-- Node12 -->
<g id="node12" class="node">
<title>Node12</title>
<g id="a_node12"><a xlink:href="class_black_misc_1_1_geo_1_1_i_geo_object_with_relative_position_list.html" target="_top" xlink:title=" ">
<polygon fill="none" stroke="black" points="415,-50 415,-91 591,-91 591,-50 415,-50"/>
<text text-anchor="start" x="423" y="-79" font-family="Helvetica,sans-Serif" font-size="10.00">BlackMisc::Geo::IGeoObject</text>
<text text-anchor="start" x="423" y="-68" font-family="Helvetica,sans-Serif" font-size="10.00">WithRelativePositionList</text>
<text text-anchor="middle" x="503" y="-57" font-family="Helvetica,sans-Serif" font-size="10.00">&lt; CAtcStation, CAtcStationList &gt;</text>
</a>
</g>
</g>
<!-- Node12&#45;&gt;Node1 -->
<g id="edge11" class="edge">
<title>Node12&#45;&gt;Node1</title>
<path fill="none" stroke="midnightblue" d="M601.14,-86.87C609.94,-88.35 618.63,-89.82 626.87,-91.21"/>
<polygon fill="midnightblue" stroke="midnightblue" points="601.62,-83.4 591.17,-85.19 600.45,-90.31 601.62,-83.4"/>
</g>
<!-- Node13 -->
<g id="node13" class="node">
<title>Node13</title>
<g id="a_node13"><a xlink:href="class_black_misc_1_1_geo_1_1_i_geo_object_list.html" target="_top" xlink:title="List of objects with geo coordinates.">
<polygon fill="none" stroke="black" points="221,-55.5 221,-85.5 373,-85.5 373,-55.5 221,-55.5"/>
<text text-anchor="start" x="229" y="-73.5" font-family="Helvetica,sans-Serif" font-size="10.00">BlackMisc::Geo::IGeoObject</text>
<text text-anchor="middle" x="297" y="-62.5" font-family="Helvetica,sans-Serif" font-size="10.00">List&lt; OBJ, CONTAINER &gt;</text>
</a>
</g>
</g>
<!-- Node13&#45;&gt;Node12 -->
<g id="edge12" class="edge">
<title>Node13&#45;&gt;Node12</title>
<path fill="none" stroke="midnightblue" d="M383.1,-70.5C393.64,-70.5 404.43,-70.5 414.99,-70.5"/>
<polygon fill="midnightblue" stroke="midnightblue" points="383.09,-67 373.09,-70.5 383.09,-74 383.09,-67"/>
</g>
<!-- Node14 -->
<g id="node14" class="node">
<title>Node14</title>
<g id="a_node14"><a xlink:href="class_black_misc_1_1_mixin_1_1_meta_type.html" target="_top" xlink:title=" ">
<polygon fill="none" stroke="black" points="427,-0.5 427,-30.5 579,-30.5 579,-0.5 427,-0.5"/>
<text text-anchor="start" x="435" y="-18.5" font-family="Helvetica,sans-Serif" font-size="10.00">BlackMisc::Mixin::MetaType</text>
<text text-anchor="middle" x="503" y="-7.5" font-family="Helvetica,sans-Serif" font-size="10.00">&lt; CAtcStationList &gt;</text>
</a>
</g>
</g>
<!-- Node14&#45;&gt;Node1 -->
<g id="edge13" class="edge">
<title>Node14&#45;&gt;Node1</title>
<path fill="none" stroke="midnightblue" d="M574.7,-33.83C580.29,-35.88 585.79,-38.1 591,-40.5 617.47,-52.68 645.03,-71.92 662.78,-85.32"/>
<polygon fill="midnightblue" stroke="midnightblue" points="575.83,-30.51 565.23,-30.54 573.53,-37.13 575.83,-30.51"/>
</g>
</g>
</svg>
