<?xml version="1.0" encoding="UTF-8" standalone="no"?>
<!DOCTYPE svg PUBLIC "-//W3C//DTD SVG 1.1//EN"
 "http://www.w3.org/Graphics/SVG/1.1/DTD/svg11.dtd">
<!-- Generated by graphviz version 2.43.0 (0)
 -->
<!-- Title: BlackMisc::Geo::ICoordinateGeodetic Pages: 1 -->
<svg width="545pt" height="210pt"
 viewBox="0.00 0.00 545.00 210.00" xmlns="http://www.w3.org/2000/svg" xmlns:xlink="http://www.w3.org/1999/xlink">
<g id="graph0" class="graph" transform="scale(1 1) rotate(0) translate(4 206)">
<title>BlackMisc::Geo::ICoordinateGeodetic</title>
<!-- Node1 -->
<g id="node1" class="node">
<title>Node1</title>
<g id="a_node1"><a xlink:title="Geodetic coordinate, a position in 3D space relative to the reference geoid.">
<polygon fill="#bfbfbf" stroke="black" points="0,-97.5 0,-127.5 154,-127.5 154,-97.5 0,-97.5"/>
<text text-anchor="start" x="8" y="-115.5" font-family="Helvetica,sans-Serif" font-size="10.00">BlackMisc::Geo::ICoordinate</text>
<text text-anchor="middle" x="77" y="-104.5" font-family="Helvetica,sans-Serif" font-size="10.00">Geodetic</text>
</a>
</g>
</g>
<!-- Node2 -->
<g id="node2" class="node">
<title>Node2</title>
<g id="a_node2"><a xlink:href="class_black_misc_1_1_aviation_1_1_c_aircraft_situation.html" target="_top" xlink:title="Value object encapsulating information of an aircraft&#39;s situation.">
<polygon fill="none" stroke="black" points="214.5,-171.5 214.5,-201.5 326.5,-201.5 326.5,-171.5 214.5,-171.5"/>
<text text-anchor="start" x="222.5" y="-189.5" font-family="Helvetica,sans-Serif" font-size="10.00">BlackMisc::Aviation</text>
<text text-anchor="middle" x="270.5" y="-178.5" font-family="Helvetica,sans-Serif" font-size="10.00">::CAircraftSituation</text>
</a>
</g>
</g>
<!-- Node1&#45;&gt;Node2 -->
<g id="edge1" class="edge">
<title>Node1&#45;&gt;Node2</title>
<path fill="none" stroke="midnightblue" d="M118.23,-131.95C139.34,-141.77 165.77,-153.48 190,-162.5 198.38,-165.62 207.36,-168.64 216.16,-171.42"/>
<polygon fill="midnightblue" stroke="midnightblue" points="119.48,-128.67 108.94,-127.59 116.51,-135 119.48,-128.67"/>
</g>
<!-- Node3 -->
<g id="node3" class="node">
<title>Node3</title>
<g id="a_node3"><a xlink:href="class_black_misc_1_1_geo_1_1_c_coordinate_geodetic.html" target="_top" xlink:title="Geodetic coordinate.">
<polygon fill="none" stroke="black" points="191.5,-122.5 191.5,-152.5 349.5,-152.5 349.5,-122.5 191.5,-122.5"/>
<text text-anchor="start" x="199.5" y="-140.5" font-family="Helvetica,sans-Serif" font-size="10.00">BlackMisc::Geo::CCoordinate</text>
<text text-anchor="middle" x="270.5" y="-129.5" font-family="Helvetica,sans-Serif" font-size="10.00">Geodetic</text>
</a>
</g>
</g>
<!-- Node1&#45;&gt;Node3 -->
<g id="edge2" class="edge">
<title>Node1&#45;&gt;Node3</title>
<path fill="none" stroke="midnightblue" d="M164.33,-123.77C173.33,-124.94 182.43,-126.13 191.33,-127.3"/>
<polygon fill="midnightblue" stroke="midnightblue" points="164.61,-120.28 154.24,-122.45 163.7,-127.22 164.61,-120.28"/>
</g>
<!-- Node5 -->
<g id="node5" class="node">
<title>Node5</title>
<g id="a_node5"><a xlink:href="class_black_misc_1_1_geo_1_1_i_coordinate_with_relative_position.html" target="_top" xlink:title="Interface (actually more an abstract class) of coordinates and relative position to something (normal...">
<polygon fill="none" stroke="black" points="193.5,-73.5 193.5,-103.5 347.5,-103.5 347.5,-73.5 193.5,-73.5"/>
<text text-anchor="start" x="201.5" y="-91.5" font-family="Helvetica,sans-Serif" font-size="10.00">BlackMisc::Geo::ICoordinate</text>
<text text-anchor="middle" x="270.5" y="-80.5" font-family="Helvetica,sans-Serif" font-size="10.00">WithRelativePosition</text>
</a>
</g>
</g>
<!-- Node1&#45;&gt;Node5 -->
<g id="edge4" class="edge">
<title>Node1&#45;&gt;Node5</title>
<path fill="none" stroke="midnightblue" d="M164.24,-101.69C173.9,-100.48 183.69,-99.25 193.21,-98.06"/>
<polygon fill="midnightblue" stroke="midnightblue" points="163.72,-98.23 154.24,-102.95 164.59,-105.17 163.72,-98.23"/>
</g>
<!-- Node9 -->
<g id="node9" class="node">
<title>Node9</title>
<g id="a_node9"><a xlink:href="class_black_misc_1_1_simulation_1_1_x_plane_1_1_c_nav_data_reference.html" target="_top" xlink:title="Reference to an entry in X&#45;Plane&#39;s navigation data (airport, navaid, fix, etc.) with its position.">
<polygon fill="none" stroke="black" points="190,-24.5 190,-54.5 351,-54.5 351,-24.5 190,-24.5"/>
<text text-anchor="start" x="198" y="-42.5" font-family="Helvetica,sans-Serif" font-size="10.00">BlackMisc::Simulation</text>
<text text-anchor="middle" x="270.5" y="-31.5" font-family="Helvetica,sans-Serif" font-size="10.00">::XPlane::CNavDataReference</text>
</a>
</g>
</g>
<!-- Node1&#45;&gt;Node9 -->
<g id="edge8" class="edge">
<title>Node1&#45;&gt;Node9</title>
<path fill="none" stroke="midnightblue" d="M120.18,-93.24C140.99,-84.04 166.6,-73.17 190,-64.5 199.23,-61.08 209.16,-57.72 218.77,-54.62"/>
<polygon fill="midnightblue" stroke="midnightblue" points="118.69,-90.07 110.97,-97.34 121.53,-96.47 118.69,-90.07"/>
</g>
<!-- Node4 -->
<g id="node4" class="node">
<title>Node4</title>
<g id="a_node4"><a xlink:href="class_black_misc_1_1_geo_1_1_c_elevation_plane.html" target="_top" xlink:title="Plane of same elevation, can be a single point or larger area (e.g. airport)">
<polygon fill="none" stroke="black" points="387,-147.5 387,-177.5 537,-177.5 537,-147.5 387,-147.5"/>
<text text-anchor="start" x="395" y="-165.5" font-family="Helvetica,sans-Serif" font-size="10.00">BlackMisc::Geo::CElevation</text>
<text text-anchor="middle" x="462" y="-154.5" font-family="Helvetica,sans-Serif" font-size="10.00">Plane</text>
</a>
</g>
</g>
<!-- Node3&#45;&gt;Node4 -->
<g id="edge3" class="edge">
<title>Node3&#45;&gt;Node4</title>
<path fill="none" stroke="midnightblue" d="M359.86,-149.16C368.93,-150.35 378.08,-151.56 386.97,-152.73"/>
<polygon fill="midnightblue" stroke="midnightblue" points="360.04,-145.65 349.67,-147.81 359.13,-152.59 360.04,-145.65"/>
</g>
<!-- Node6 -->
<g id="node6" class="node">
<title>Node6</title>
<g id="a_node6"><a xlink:href="class_black_misc_1_1_aviation_1_1_c_airport.html" target="_top" xlink:title="Value object encapsulating information about an airpot.">
<polygon fill="none" stroke="black" points="406,-98.5 406,-128.5 518,-128.5 518,-98.5 406,-98.5"/>
<text text-anchor="start" x="414" y="-116.5" font-family="Helvetica,sans-Serif" font-size="10.00">BlackMisc::Aviation</text>
<text text-anchor="middle" x="462" y="-105.5" font-family="Helvetica,sans-Serif" font-size="10.00">::CAirport</text>
</a>
</g>
</g>
<!-- Node5&#45;&gt;Node6 -->
<g id="edge5" class="edge">
<title>Node5&#45;&gt;Node6</title>
<path fill="none" stroke="midnightblue" d="M357.86,-99.89C374.18,-102.05 390.83,-104.24 405.87,-106.23"/>
<polygon fill="midnightblue" stroke="midnightblue" points="358.13,-96.4 347.76,-98.56 357.21,-103.34 358.13,-96.4"/>
</g>
<!-- Node7 -->
<g id="node7" class="node">
<title>Node7</title>
<g id="a_node7"><a xlink:href="class_black_misc_1_1_aviation_1_1_c_atc_station.html" target="_top" xlink:title="Value object encapsulating information about an ATC station.">
<polygon fill="none" stroke="black" points="406,-49.5 406,-79.5 518,-79.5 518,-49.5 406,-49.5"/>
<text text-anchor="start" x="414" y="-67.5" font-family="Helvetica,sans-Serif" font-size="10.00">BlackMisc::Aviation</text>
<text text-anchor="middle" x="462" y="-56.5" font-family="Helvetica,sans-Serif" font-size="10.00">::CAtcStation</text>
</a>
</g>
</g>
<!-- Node5&#45;&gt;Node7 -->
<g id="edge6" class="edge">
<title>Node5&#45;&gt;Node7</title>
<path fill="none" stroke="midnightblue" d="M357.86,-77.56C374.18,-75.5 390.83,-73.39 405.87,-71.48"/>
<polygon fill="midnightblue" stroke="midnightblue" points="357.24,-74.11 347.76,-78.84 358.12,-81.06 357.24,-74.11"/>
</g>
<!-- Node8 -->
<g id="node8" class="node">
<title>Node8</title>
<g id="a_node8"><a xlink:href="class_black_misc_1_1_simulation_1_1_c_simulated_aircraft.html" target="_top" xlink:title="Comprehensive information of an aircraft.">
<polygon fill="none" stroke="black" points="399.5,-0.5 399.5,-30.5 524.5,-30.5 524.5,-0.5 399.5,-0.5"/>
<text text-anchor="start" x="407.5" y="-18.5" font-family="Helvetica,sans-Serif" font-size="10.00">BlackMisc::Simulation</text>
<text text-anchor="middle" x="462" y="-7.5" font-family="Helvetica,sans-Serif" font-size="10.00">::CSimulatedAircraft</text>
</a>
</g>
</g>
<!-- Node5&#45;&gt;Node8 -->
<g id="edge7" class="edge">
<title>Node5&#45;&gt;Node8</title>
<path fill="none" stroke="midnightblue" d="M338.33,-69.92C342.67,-68.23 346.93,-66.42 351,-64.5 368.39,-56.3 369.74,-48.98 387,-40.5 394.42,-36.85 402.51,-33.52 410.52,-30.57"/>
<polygon fill="midnightblue" stroke="midnightblue" points="336.9,-66.72 328.73,-73.45 339.32,-73.29 336.9,-66.72"/>
</g>
</g>
</svg>
