<?xml version="1.0" encoding="UTF-8" standalone="no"?>
<!DOCTYPE svg PUBLIC "-//W3C//DTD SVG 1.1//EN"
 "http://www.w3.org/Graphics/SVG/1.1/DTD/svg11.dtd">
<!-- Generated by graphviz version 2.43.0 (0)
 -->
<!-- Title: BlackMisc::Simulation::COwnAircraftAware Pages: 1 -->
<svg width="1246pt" height="246pt"
 viewBox="0.00 0.00 1246.00 245.50" xmlns="http://www.w3.org/2000/svg" xmlns:xlink="http://www.w3.org/1999/xlink">
<g id="graph0" class="graph" transform="scale(1 1) rotate(0) translate(4 241.5)">
<title>BlackMisc::Simulation::COwnAircraftAware</title>
<!-- Node1 -->
<g id="node1" class="node">
<title>Node1</title>
<g id="a_node1"><a xlink:title="Delegating class which can be directly used to access an.">
<polygon fill="#bfbfbf" stroke="black" points="182,-136.5 182,-166.5 307,-166.5 307,-136.5 182,-136.5"/>
<text text-anchor="start" x="190" y="-154.5" font-family="Helvetica,sans-Serif" font-size="10.00">BlackMisc::Simulation</text>
<text text-anchor="middle" x="244.5" y="-143.5" font-family="Helvetica,sans-Serif" font-size="10.00">::COwnAircraftAware</text>
</a>
</g>
</g>
<!-- Node3 -->
<g id="node3" class="node">
<title>Node3</title>
<g id="a_node3"><a xlink:href="class_black_core_1_1_c_airspace_analyzer.html" target="_top" xlink:title="Class monitoring and analyzing (closest aircraft, outdated aircraft / watchdog) airspace in backgroun...">
<polygon fill="none" stroke="black" points="343,-218 343,-237 507,-237 507,-218 343,-218"/>
<text text-anchor="middle" x="425" y="-225" font-family="Helvetica,sans-Serif" font-size="10.00">BlackCore::CAirspaceAnalyzer</text>
</a>
</g>
</g>
<!-- Node1&#45;&gt;Node3 -->
<g id="edge2" class="edge">
<title>Node1&#45;&gt;Node3</title>
<path fill="none" stroke="midnightblue" d="M275.38,-172.13C294.09,-184.23 319.1,-198.96 343,-208.5 352.39,-212.25 362.7,-215.37 372.73,-217.92"/>
<polygon fill="midnightblue" stroke="midnightblue" points="277.27,-169.18 266.99,-166.61 273.42,-175.03 277.27,-169.18"/>
</g>
<!-- Node4 -->
<g id="node4" class="node">
<title>Node4</title>
<g id="a_node4"><a xlink:href="class_black_core_1_1_c_airspace_monitor.html" target="_top" xlink:title="Keeps track of other entities in the airspace: aircraft, ATC stations, etc. Central instance of data ...">
<polygon fill="none" stroke="black" points="346,-180 346,-199 504,-199 504,-180 346,-180"/>
<text text-anchor="middle" x="425" y="-187" font-family="Helvetica,sans-Serif" font-size="10.00">BlackCore::CAirspaceMonitor</text>
</a>
</g>
</g>
<!-- Node1&#45;&gt;Node4 -->
<g id="edge3" class="edge">
<title>Node1&#45;&gt;Node4</title>
<path fill="none" stroke="midnightblue" d="M317.03,-166.73C338.03,-171.2 360.39,-175.96 379.21,-179.97"/>
<polygon fill="midnightblue" stroke="midnightblue" points="317.69,-163.29 307.18,-164.63 316.23,-170.14 317.69,-163.29"/>
</g>
<!-- Node5 -->
<g id="node5" class="node">
<title>Node5</title>
<g id="a_node5"><a xlink:href="class_black_core_1_1_fsd_1_1_c_f_s_d_client.html" target="_top" xlink:title="FSD client Todo: Send (interim) data updates automatically Todo Check &#39;:&#39; in FSD messages....">
<polygon fill="none" stroke="black" points="350.5,-142 350.5,-161 499.5,-161 499.5,-142 350.5,-142"/>
<text text-anchor="middle" x="425" y="-149" font-family="Helvetica,sans-Serif" font-size="10.00">BlackCore::Fsd::CFSDClient</text>
</a>
</g>
</g>
<!-- Node1&#45;&gt;Node5 -->
<g id="edge4" class="edge">
<title>Node1&#45;&gt;Node5</title>
<path fill="none" stroke="midnightblue" d="M317.44,-151.5C328.27,-151.5 339.46,-151.5 350.33,-151.5"/>
<polygon fill="midnightblue" stroke="midnightblue" points="317.18,-148 307.18,-151.5 317.18,-155 317.18,-148"/>
</g>
<!-- Node6 -->
<g id="node6" class="node">
<title>Node6</title>
<g id="a_node6"><a xlink:href="class_black_core_1_1_i_simulator.html" target="_top" xlink:title="Interface to a simulator.">
<polygon fill="none" stroke="black" points="364,-104 364,-123 486,-123 486,-104 364,-104"/>
<text text-anchor="middle" x="425" y="-111" font-family="Helvetica,sans-Serif" font-size="10.00">BlackCore::ISimulator</text>
</a>
</g>
</g>
<!-- Node1&#45;&gt;Node6 -->
<g id="edge5" class="edge">
<title>Node1&#45;&gt;Node6</title>
<path fill="none" stroke="midnightblue" d="M317.03,-136.27C338.03,-131.8 360.39,-127.04 379.21,-123.03"/>
<polygon fill="midnightblue" stroke="midnightblue" points="316.23,-132.86 307.18,-138.37 317.69,-139.71 316.23,-132.86"/>
</g>
<!-- Node17 -->
<g id="node17" class="node">
<title>Node17</title>
<g id="a_node17"><a xlink:href="class_black_sample_1_1_client.html" target="_top" xlink:title="Simple command line interface client.">
<polygon fill="none" stroke="black" points="367.5,-66 367.5,-85 482.5,-85 482.5,-66 367.5,-66"/>
<text text-anchor="middle" x="425" y="-73" font-family="Helvetica,sans-Serif" font-size="10.00">BlackSample::Client</text>
</a>
</g>
</g>
<!-- Node1&#45;&gt;Node17 -->
<g id="edge16" class="edge">
<title>Node1&#45;&gt;Node17</title>
<path fill="none" stroke="midnightblue" d="M275.38,-130.87C294.09,-118.77 319.1,-104.04 343,-94.5 352.39,-90.75 362.7,-87.63 372.73,-85.08"/>
<polygon fill="midnightblue" stroke="midnightblue" points="273.42,-127.97 266.99,-136.39 277.27,-133.82 273.42,-127.97"/>
</g>
<!-- Node2 -->
<g id="node2" class="node">
<title>Node2</title>
<g id="a_node2"><a xlink:href="class_black_misc_1_1_i_provider_aware.html" target="_top" xlink:title=" ">
<polygon fill="none" stroke="black" points="0,-136.5 0,-166.5 146,-166.5 146,-136.5 0,-136.5"/>
<text text-anchor="start" x="8" y="-154.5" font-family="Helvetica,sans-Serif" font-size="10.00">BlackMisc::IProviderAware</text>
<text text-anchor="middle" x="73" y="-143.5" font-family="Helvetica,sans-Serif" font-size="10.00">&lt; IOwnAircraftProvider &gt;</text>
</a>
</g>
</g>
<!-- Node2&#45;&gt;Node1 -->
<g id="edge1" class="edge">
<title>Node2&#45;&gt;Node1</title>
<path fill="none" stroke="midnightblue" d="M156.38,-151.5C164.93,-151.5 173.51,-151.5 181.78,-151.5"/>
<polygon fill="midnightblue" stroke="midnightblue" points="156.37,-148 146.37,-151.5 156.37,-155 156.37,-148"/>
</g>
<!-- Node7 -->
<g id="node7" class="node">
<title>Node7</title>
<g id="a_node7"><a xlink:href="class_black_sim_plugin_1_1_common_1_1_c_simulator_plugin_common.html" target="_top" xlink:title="Common base class for simulator plugins.">
<polygon fill="none" stroke="black" points="543,-98.5 543,-128.5 694,-128.5 694,-98.5 543,-98.5"/>
<text text-anchor="start" x="551" y="-116.5" font-family="Helvetica,sans-Serif" font-size="10.00">BlackSimPlugin::Common</text>
<text text-anchor="middle" x="618.5" y="-105.5" font-family="Helvetica,sans-Serif" font-size="10.00">::CSimulatorPluginCommon</text>
</a>
</g>
</g>
<!-- Node6&#45;&gt;Node7 -->
<g id="edge6" class="edge">
<title>Node6&#45;&gt;Node7</title>
<path fill="none" stroke="midnightblue" d="M496.37,-113.5C511.5,-113.5 527.53,-113.5 542.81,-113.5"/>
<polygon fill="midnightblue" stroke="midnightblue" points="496.07,-110 486.07,-113.5 496.07,-117 496.07,-110"/>
</g>
<!-- Node8 -->
<g id="node8" class="node">
<title>Node8</title>
<g id="a_node8"><a xlink:href="class_black_sim_plugin_1_1_emulated_1_1_c_simulator_emulated.html" target="_top" xlink:title="swift simulator implementation">
<polygon fill="none" stroke="black" points="734.5,-172.5 734.5,-202.5 879.5,-202.5 879.5,-172.5 734.5,-172.5"/>
<text text-anchor="start" x="742.5" y="-190.5" font-family="Helvetica,sans-Serif" font-size="10.00">BlackSimPlugin::Emulated</text>
<text text-anchor="middle" x="807" y="-179.5" font-family="Helvetica,sans-Serif" font-size="10.00">::CSimulatorEmulated</text>
</a>
</g>
</g>
<!-- Node7&#45;&gt;Node8 -->
<g id="edge7" class="edge">
<title>Node7&#45;&gt;Node8</title>
<path fill="none" stroke="midnightblue" d="M660.2,-132.71C680.89,-142.18 706.56,-153.47 730,-162.5 738.94,-165.94 748.59,-169.35 757.9,-172.48"/>
<polygon fill="midnightblue" stroke="midnightblue" points="661.61,-129.51 651.06,-128.5 658.68,-135.86 661.61,-129.51"/>
</g>
<!-- Node9 -->
<g id="node9" class="node">
<title>Node9</title>
<g id="a_node9"><a xlink:href="class_black_sim_plugin_1_1_flightgear_1_1_c_simulator_flightgear.html" target="_top" xlink:title="Flightgear ISimulator implementation.">
<polygon fill="none" stroke="black" points="733,-123.5 733,-153.5 881,-153.5 881,-123.5 733,-123.5"/>
<text text-anchor="start" x="741" y="-141.5" font-family="Helvetica,sans-Serif" font-size="10.00">BlackSimPlugin::Flightgear</text>
<text text-anchor="middle" x="807" y="-130.5" font-family="Helvetica,sans-Serif" font-size="10.00">::CSimulatorFlightgear</text>
</a>
</g>
</g>
<!-- Node7&#45;&gt;Node9 -->
<g id="edge8" class="edge">
<title>Node7&#45;&gt;Node9</title>
<path fill="none" stroke="midnightblue" d="M703.98,-124.82C713.61,-126.11 723.36,-127.42 732.82,-128.69"/>
<polygon fill="midnightblue" stroke="midnightblue" points="704.39,-121.35 694.01,-123.49 703.46,-128.29 704.39,-121.35"/>
</g>
<!-- Node10 -->
<g id="node10" class="node">
<title>Node10</title>
<g id="a_node10"><a xlink:href="class_black_sim_plugin_1_1_fs_common_1_1_c_simulator_fs_common.html" target="_top" xlink:title="Common base class for MS flight simulators.">
<polygon fill="none" stroke="black" points="730,-74.5 730,-104.5 884,-104.5 884,-74.5 730,-74.5"/>
<text text-anchor="start" x="738" y="-92.5" font-family="Helvetica,sans-Serif" font-size="10.00">BlackSimPlugin::FsCommon</text>
<text text-anchor="middle" x="807" y="-81.5" font-family="Helvetica,sans-Serif" font-size="10.00">::CSimulatorFsCommon</text>
</a>
</g>
</g>
<!-- Node7&#45;&gt;Node10 -->
<g id="edge9" class="edge">
<title>Node7&#45;&gt;Node10</title>
<path fill="none" stroke="midnightblue" d="M704.03,-102.62C712.61,-101.52 721.29,-100.4 729.78,-99.31"/>
<polygon fill="midnightblue" stroke="midnightblue" points="703.49,-99.16 694.01,-103.91 704.38,-106.11 703.49,-99.16"/>
</g>
<!-- Node16 -->
<g id="node16" class="node">
<title>Node16</title>
<g id="a_node16"><a xlink:href="class_black_sim_plugin_1_1_x_plane_1_1_c_simulator_x_plane.html" target="_top" xlink:title="X&#45;Plane ISimulator implementation.">
<polygon fill="none" stroke="black" points="741,-25.5 741,-55.5 873,-55.5 873,-25.5 741,-25.5"/>
<text text-anchor="start" x="749" y="-43.5" font-family="Helvetica,sans-Serif" font-size="10.00">BlackSimPlugin::XPlane</text>
<text text-anchor="middle" x="807" y="-32.5" font-family="Helvetica,sans-Serif" font-size="10.00">::CSimulatorXPlane</text>
</a>
</g>
</g>
<!-- Node7&#45;&gt;Node16 -->
<g id="edge15" class="edge">
<title>Node7&#45;&gt;Node16</title>
<path fill="none" stroke="midnightblue" d="M660.15,-94.17C680.83,-84.67 706.51,-73.39 730,-64.5 738.15,-61.42 746.9,-58.4 755.45,-55.6"/>
<polygon fill="midnightblue" stroke="midnightblue" points="658.63,-91.02 651.02,-98.4 661.57,-97.37 658.63,-91.02"/>
</g>
<!-- Node11 -->
<g id="node11" class="node">
<title>Node11</title>
<g id="a_node11"><a xlink:href="class_black_sim_plugin_1_1_fs9_1_1_c_simulator_fs9.html" target="_top" xlink:title="FS9 Simulator Implementation.">
<polygon fill="none" stroke="black" points="942,-98.5 942,-128.5 1058,-128.5 1058,-98.5 942,-98.5"/>
<text text-anchor="start" x="950" y="-116.5" font-family="Helvetica,sans-Serif" font-size="10.00">BlackSimPlugin::Fs9</text>
<text text-anchor="middle" x="1000" y="-105.5" font-family="Helvetica,sans-Serif" font-size="10.00">::CSimulatorFs9</text>
</a>
</g>
</g>
<!-- Node10&#45;&gt;Node11 -->
<g id="edge10" class="edge">
<title>Node10&#45;&gt;Node11</title>
<path fill="none" stroke="midnightblue" d="M894.04,-100.31C910.21,-102.34 926.75,-104.42 941.77,-106.31"/>
<polygon fill="midnightblue" stroke="midnightblue" points="894.4,-96.83 884.04,-99.05 893.52,-103.77 894.4,-96.83"/>
</g>
<!-- Node12 -->
<g id="node12" class="node">
<title>Node12</title>
<g id="a_node12"><a xlink:href="class_black_sim_plugin_1_1_fsx_common_1_1_c_simulator_fsx_common.html" target="_top" xlink:title="FSX Simulator Implementation.">
<polygon fill="none" stroke="black" points="920,-49.5 920,-79.5 1080,-79.5 1080,-49.5 920,-49.5"/>
<text text-anchor="start" x="928" y="-67.5" font-family="Helvetica,sans-Serif" font-size="10.00">BlackSimPlugin::FsxCommon</text>
<text text-anchor="middle" x="1000" y="-56.5" font-family="Helvetica,sans-Serif" font-size="10.00">::CSimulatorFsxCommon</text>
</a>
</g>
</g>
<!-- Node10&#45;&gt;Node12 -->
<g id="edge11" class="edge">
<title>Node10&#45;&gt;Node12</title>
<path fill="none" stroke="midnightblue" d="M894.04,-78.24C902.61,-77.12 911.28,-75.98 919.78,-74.87"/>
<polygon fill="midnightblue" stroke="midnightblue" points="893.5,-74.78 884.04,-79.55 894.41,-81.72 893.5,-74.78"/>
</g>
<!-- Node13 -->
<g id="node13" class="node">
<title>Node13</title>
<g id="a_node13"><a xlink:href="class_black_sim_plugin_1_1_fsx_1_1_c_simulator_fsx.html" target="_top" xlink:title="FSX simulator implementation.">
<polygon fill="none" stroke="black" points="1119,-98.5 1119,-128.5 1235,-128.5 1235,-98.5 1119,-98.5"/>
<text text-anchor="start" x="1127" y="-116.5" font-family="Helvetica,sans-Serif" font-size="10.00">BlackSimPlugin::Fsx</text>
<text text-anchor="middle" x="1177" y="-105.5" font-family="Helvetica,sans-Serif" font-size="10.00">::CSimulatorFsx</text>
</a>
</g>
</g>
<!-- Node12&#45;&gt;Node13 -->
<g id="edge12" class="edge">
<title>Node12&#45;&gt;Node13</title>
<path fill="none" stroke="midnightblue" d="M1064.65,-82.32C1083.54,-87.61 1104.04,-93.35 1122.24,-98.45"/>
<polygon fill="midnightblue" stroke="midnightblue" points="1065.51,-78.93 1054.93,-79.6 1063.62,-85.67 1065.51,-78.93"/>
</g>
<!-- Node14 -->
<g id="node14" class="node">
<title>Node14</title>
<g id="a_node14"><a xlink:href="class_black_sim_plugin_1_1_msfs_1_1_c_simulator_ms_fs.html" target="_top" xlink:title="FSX simulator implementation.">
<polygon fill="none" stroke="black" points="1116,-49.5 1116,-79.5 1238,-79.5 1238,-49.5 1116,-49.5"/>
<text text-anchor="start" x="1124" y="-67.5" font-family="Helvetica,sans-Serif" font-size="10.00">BlackSimPlugin::Msfs</text>
<text text-anchor="middle" x="1177" y="-56.5" font-family="Helvetica,sans-Serif" font-size="10.00">::CSimulatorMsFs</text>
</a>
</g>
</g>
<!-- Node12&#45;&gt;Node14 -->
<g id="edge13" class="edge">
<title>Node12&#45;&gt;Node14</title>
<path fill="none" stroke="midnightblue" d="M1090.25,-64.5C1098.94,-64.5 1107.61,-64.5 1115.92,-64.5"/>
<polygon fill="midnightblue" stroke="midnightblue" points="1090.05,-61 1080.05,-64.5 1090.05,-68 1090.05,-61"/>
</g>
<!-- Node15 -->
<g id="node15" class="node">
<title>Node15</title>
<g id="a_node15"><a xlink:href="class_black_sim_plugin_1_1_p3_d_1_1_c_simulator_p3_d.html" target="_top" xlink:title="P3D Simulator Implementation.">
<polygon fill="none" stroke="black" points="1118,-0.5 1118,-30.5 1236,-30.5 1236,-0.5 1118,-0.5"/>
<text text-anchor="start" x="1126" y="-18.5" font-family="Helvetica,sans-Serif" font-size="10.00">BlackSimPlugin::P3D</text>
<text text-anchor="middle" x="1177" y="-7.5" font-family="Helvetica,sans-Serif" font-size="10.00">::CSimulatorP3D</text>
</a>
</g>
</g>
<!-- Node12&#45;&gt;Node15 -->
<g id="edge14" class="edge">
<title>Node12&#45;&gt;Node15</title>
<path fill="none" stroke="midnightblue" d="M1064.65,-46.68C1083.54,-41.39 1104.04,-35.65 1122.24,-30.55"/>
<polygon fill="midnightblue" stroke="midnightblue" points="1063.62,-43.33 1054.93,-49.4 1065.51,-50.07 1063.62,-43.33"/>
</g>
</g>
</svg>
