<?xml version="1.0" encoding="UTF-8" standalone="no"?>
<!DOCTYPE svg PUBLIC "-//W3C//DTD SVG 1.1//EN"
 "http://www.w3.org/Graphics/SVG/1.1/DTD/svg11.dtd">
<!-- Generated by graphviz version 2.43.0 (0)
 -->
<!-- Title: BlackGui::Components::CDbReduceModelDuplicates Pages: 1 -->
<svg width="285pt" height="207pt"
 viewBox="0.00 0.00 285.00 207.00" xmlns="http://www.w3.org/2000/svg" xmlns:xlink="http://www.w3.org/1999/xlink">
<g id="graph0" class="graph" transform="scale(1 1) rotate(0) translate(4 203)">
<title>BlackGui::Components::CDbReduceModelDuplicates</title>
<!-- Node1 -->
<g id="node1" class="node">
<title>Node1</title>
<g id="a_node1"><a xlink:title="Reduce modelss.">
<polygon fill="#bfbfbf" stroke="black" points="53.5,-0.5 53.5,-30.5 214.5,-30.5 214.5,-0.5 53.5,-0.5"/>
<text text-anchor="start" x="61.5" y="-18.5" font-family="Helvetica,sans-Serif" font-size="10.00">BlackGui::Components</text>
<text text-anchor="middle" x="134" y="-7.5" font-family="Helvetica,sans-Serif" font-size="10.00">::CDbReduceModelDuplicates</text>
</a>
</g>
</g>
<!-- Node2 -->
<g id="node2" class="node">
<title>Node2</title>
<g id="a_node2"><a target="_parent" xlink:href="http://doc.qt.io/qt-5/qdialog.html" xlink:title=" ">
<polygon fill="none" stroke="black" points="43,-67.5 43,-86.5 99,-86.5 99,-67.5 43,-67.5"/>
<text text-anchor="middle" x="71" y="-74.5" font-family="Helvetica,sans-Serif" font-size="10.00">QDialog</text>
</a>
</g>
</g>
<!-- Node2&#45;&gt;Node1 -->
<g id="edge1" class="edge">
<title>Node2&#45;&gt;Node1</title>
<path fill="none" stroke="midnightblue" d="M87.55,-60.37C97.35,-51.11 109.67,-39.48 119.15,-30.52"/>
<polygon fill="midnightblue" stroke="midnightblue" points="84.89,-58.06 80.03,-67.48 89.7,-63.15 84.89,-58.06"/>
</g>
<!-- Node3 -->
<g id="node3" class="node">
<title>Node3</title>
<g id="a_node3"><a target="_parent" xlink:href="http://doc.qt.io/qt-5/qwidget.html" xlink:title=" ">
<polygon fill="none" stroke="black" points="41.5,-123.5 41.5,-142.5 100.5,-142.5 100.5,-123.5 41.5,-123.5"/>
<text text-anchor="middle" x="71" y="-130.5" font-family="Helvetica,sans-Serif" font-size="10.00">QWidget</text>
</a>
</g>
</g>
<!-- Node3&#45;&gt;Node2 -->
<g id="edge2" class="edge">
<title>Node3&#45;&gt;Node2</title>
<path fill="none" stroke="midnightblue" d="M71,-112.8C71,-103.91 71,-93.78 71,-86.75"/>
<polygon fill="midnightblue" stroke="midnightblue" points="67.5,-113.08 71,-123.08 74.5,-113.08 67.5,-113.08"/>
</g>
<!-- Node4 -->
<g id="node4" class="node">
<title>Node4</title>
<g id="a_node4"><a target="_parent" xlink:href="http://doc.qt.io/qt-5/qobject.html" xlink:title=" ">
<polygon fill="none" stroke="black" points="0,-179.5 0,-198.5 56,-198.5 56,-179.5 0,-179.5"/>
<text text-anchor="middle" x="28" y="-186.5" font-family="Helvetica,sans-Serif" font-size="10.00">QObject</text>
</a>
</g>
</g>
<!-- Node4&#45;&gt;Node3 -->
<g id="edge3" class="edge">
<title>Node4&#45;&gt;Node3</title>
<path fill="none" stroke="midnightblue" d="M41.42,-171.14C48.91,-161.74 57.94,-150.4 64.03,-142.75"/>
<polygon fill="midnightblue" stroke="midnightblue" points="38.59,-169.08 35.1,-179.08 44.07,-173.44 38.59,-169.08"/>
</g>
<!-- Node5 -->
<g id="node5" class="node">
<title>Node5</title>
<g id="a_node5"><a target="_parent" xlink:href="http://doc.qt.io/qt-5/qpaintdevice.html" xlink:title=" ">
<polygon fill="none" stroke="black" points="74,-179.5 74,-198.5 156,-198.5 156,-179.5 74,-179.5"/>
<text text-anchor="middle" x="115" y="-186.5" font-family="Helvetica,sans-Serif" font-size="10.00">QPaintDevice</text>
</a>
</g>
</g>
<!-- Node5&#45;&gt;Node3 -->
<g id="edge4" class="edge">
<title>Node5&#45;&gt;Node3</title>
<path fill="none" stroke="midnightblue" d="M101.27,-171.14C93.6,-161.74 84.37,-150.4 78.13,-142.75"/>
<polygon fill="midnightblue" stroke="midnightblue" points="98.7,-173.54 107.73,-179.08 104.13,-169.12 98.7,-173.54"/>
</g>
<!-- Node6 -->
<g id="node6" class="node">
<title>Node6</title>
<g id="a_node6"><a xlink:href="class_black_core_1_1_i_progress_indicator.html" target="_top" xlink:title="Implementing class features a progress bar or something similar.">
<polygon fill="none" stroke="black" points="117,-67.5 117,-86.5 277,-86.5 277,-67.5 117,-67.5"/>
<text text-anchor="middle" x="197" y="-74.5" font-family="Helvetica,sans-Serif" font-size="10.00">BlackCore::IProgressIndicator</text>
</a>
</g>
</g>
<!-- Node6&#45;&gt;Node1 -->
<g id="edge5" class="edge">
<title>Node6&#45;&gt;Node1</title>
<path fill="none" stroke="midnightblue" d="M180.45,-60.37C170.65,-51.11 158.33,-39.48 148.85,-30.52"/>
<polygon fill="midnightblue" stroke="midnightblue" points="178.3,-63.15 187.97,-67.48 183.11,-58.06 178.3,-63.15"/>
</g>
</g>
</svg>
