<?xml version="1.0" encoding="UTF-8" standalone="no"?>
<!DOCTYPE svg PUBLIC "-//W3C//DTD SVG 1.1//EN"
 "http://www.w3.org/Graphics/SVG/1.1/DTD/svg11.dtd">
<!-- Generated by graphviz version 2.43.0 (0)
 -->
<!-- Title: BlackMisc::Db::IDatastoreObjectWithIntegerKey Pages: 1 -->
<svg width="718pt" height="497pt"
 viewBox="0.00 0.00 718.00 497.00" xmlns="http://www.w3.org/2000/svg" xmlns:xlink="http://www.w3.org/1999/xlink">
<g id="graph0" class="graph" transform="scale(1 1) rotate(0) translate(4 493)">
<title>BlackMisc::Db::IDatastoreObjectWithIntegerKey</title>
<!-- Node1 -->
<g id="node1" class="node">
<title>Node1</title>
<g id="a_node1"><a xlink:title="Class from which a derived class can inherit datastore&#45;related functions.">
<polygon fill="#bfbfbf" stroke="black" points="376,-218.5 376,-248.5 519,-248.5 519,-218.5 376,-218.5"/>
<text text-anchor="start" x="384" y="-236.5" font-family="Helvetica,sans-Serif" font-size="10.00">BlackMisc::Db::IDatastore</text>
<text text-anchor="middle" x="447.5" y="-225.5" font-family="Helvetica,sans-Serif" font-size="10.00">ObjectWithIntegerKey</text>
</a>
</g>
</g>
<!-- Node4 -->
<g id="node4" class="node">
<title>Node4</title>
<g id="a_node4"><a xlink:href="class_black_misc_1_1_aviation_1_1_c_aircraft_category.html" target="_top" xlink:title="Value object for aircraft categories.">
<polygon fill="none" stroke="black" points="576.5,-458.5 576.5,-488.5 688.5,-488.5 688.5,-458.5 576.5,-458.5"/>
<text text-anchor="start" x="584.5" y="-476.5" font-family="Helvetica,sans-Serif" font-size="10.00">BlackMisc::Aviation</text>
<text text-anchor="middle" x="632.5" y="-465.5" font-family="Helvetica,sans-Serif" font-size="10.00">::CAircraftCategory</text>
</a>
</g>
</g>
<!-- Node1&#45;&gt;Node4 -->
<g id="edge3" class="edge">
<title>Node1&#45;&gt;Node4</title>
<path fill="none" stroke="midnightblue" d="M453.93,-258.36C465.01,-303.17 494.45,-397.62 555,-449.5 561.24,-454.84 568.66,-459 576.4,-462.23"/>
<polygon fill="midnightblue" stroke="midnightblue" points="457.33,-257.51 451.62,-248.59 450.52,-259.13 457.33,-257.51"/>
</g>
<!-- Node5 -->
<g id="node5" class="node">
<title>Node5</title>
<g id="a_node5"><a xlink:href="class_black_misc_1_1_aviation_1_1_c_aircraft_icao_code.html" target="_top" xlink:title="Value object for ICAO classification.">
<polygon fill="none" stroke="black" points="576.5,-409.5 576.5,-439.5 688.5,-439.5 688.5,-409.5 576.5,-409.5"/>
<text text-anchor="start" x="584.5" y="-427.5" font-family="Helvetica,sans-Serif" font-size="10.00">BlackMisc::Aviation</text>
<text text-anchor="middle" x="632.5" y="-416.5" font-family="Helvetica,sans-Serif" font-size="10.00">::CAircraftIcaoCode</text>
</a>
</g>
</g>
<!-- Node1&#45;&gt;Node5 -->
<g id="edge4" class="edge">
<title>Node1&#45;&gt;Node5</title>
<path fill="none" stroke="midnightblue" d="M457.85,-258.37C472.81,-294.86 505.59,-362.66 555,-400.5 561.3,-405.32 568.59,-409.19 576.11,-412.28"/>
<polygon fill="midnightblue" stroke="midnightblue" points="461.05,-256.95 454.1,-248.96 454.55,-259.54 461.05,-256.95"/>
</g>
<!-- Node6 -->
<g id="node6" class="node">
<title>Node6</title>
<g id="a_node6"><a xlink:href="class_black_misc_1_1_aviation_1_1_c_airline_icao_code.html" target="_top" xlink:title="Value object for ICAO classification.">
<polygon fill="none" stroke="black" points="576.5,-360.5 576.5,-390.5 688.5,-390.5 688.5,-360.5 576.5,-360.5"/>
<text text-anchor="start" x="584.5" y="-378.5" font-family="Helvetica,sans-Serif" font-size="10.00">BlackMisc::Aviation</text>
<text text-anchor="middle" x="632.5" y="-367.5" font-family="Helvetica,sans-Serif" font-size="10.00">::CAirlineIcaoCode</text>
</a>
</g>
</g>
<!-- Node1&#45;&gt;Node6 -->
<g id="edge5" class="edge">
<title>Node1&#45;&gt;Node6</title>
<path fill="none" stroke="midnightblue" d="M463.77,-256.87C482.3,-283.47 515.97,-326.47 555,-351.5 561.56,-355.71 568.91,-359.22 576.39,-362.15"/>
<polygon fill="midnightblue" stroke="midnightblue" points="466.6,-254.81 458.07,-248.52 460.82,-258.76 466.6,-254.81"/>
</g>
<!-- Node7 -->
<g id="node7" class="node">
<title>Node7</title>
<g id="a_node7"><a xlink:href="class_black_misc_1_1_aviation_1_1_c_airport.html" target="_top" xlink:title="Value object encapsulating information about an airpot.">
<polygon fill="none" stroke="black" points="576.5,-311.5 576.5,-341.5 688.5,-341.5 688.5,-311.5 576.5,-311.5"/>
<text text-anchor="start" x="584.5" y="-329.5" font-family="Helvetica,sans-Serif" font-size="10.00">BlackMisc::Aviation</text>
<text text-anchor="middle" x="632.5" y="-318.5" font-family="Helvetica,sans-Serif" font-size="10.00">::CAirport</text>
</a>
</g>
</g>
<!-- Node1&#45;&gt;Node7 -->
<g id="edge6" class="edge">
<title>Node1&#45;&gt;Node7</title>
<path fill="none" stroke="midnightblue" d="M476.7,-254.8C497.49,-269.73 526.91,-289.3 555,-302.5 561.93,-305.76 569.41,-308.72 576.89,-311.37"/>
<polygon fill="midnightblue" stroke="midnightblue" points="478.5,-251.78 468.35,-248.72 474.37,-257.44 478.5,-251.78"/>
</g>
<!-- Node8 -->
<g id="node8" class="node">
<title>Node8</title>
<g id="a_node8"><a xlink:href="class_black_misc_1_1_aviation_1_1_c_livery.html" target="_top" xlink:title="Value object encapsulating information about an airpot.">
<polygon fill="none" stroke="black" points="576.5,-262.5 576.5,-292.5 688.5,-292.5 688.5,-262.5 576.5,-262.5"/>
<text text-anchor="start" x="584.5" y="-280.5" font-family="Helvetica,sans-Serif" font-size="10.00">BlackMisc::Aviation</text>
<text text-anchor="middle" x="632.5" y="-269.5" font-family="Helvetica,sans-Serif" font-size="10.00">::CLivery</text>
</a>
</g>
</g>
<!-- Node1&#45;&gt;Node8 -->
<g id="edge7" class="edge">
<title>Node1&#45;&gt;Node8</title>
<path fill="none" stroke="midnightblue" d="M520.81,-250.89C539.3,-255.33 558.88,-260.04 576.36,-264.24"/>
<polygon fill="midnightblue" stroke="midnightblue" points="521.51,-247.45 510.97,-248.52 519.87,-254.26 521.51,-247.45"/>
</g>
<!-- Node9 -->
<g id="node9" class="node">
<title>Node9</title>
<g id="a_node9"><a xlink:href="class_black_misc_1_1_db_1_1_c_artifact.html" target="_top" xlink:title="Artifacts (&quot;our software&quot; products)">
<polygon fill="none" stroke="black" points="565.5,-224 565.5,-243 699.5,-243 699.5,-224 565.5,-224"/>
<text text-anchor="middle" x="632.5" y="-231" font-family="Helvetica,sans-Serif" font-size="10.00">BlackMisc::Db::CArtifact</text>
</a>
</g>
</g>
<!-- Node1&#45;&gt;Node9 -->
<g id="edge8" class="edge">
<title>Node1&#45;&gt;Node9</title>
<path fill="none" stroke="midnightblue" d="M529.32,-233.5C541.39,-233.5 553.71,-233.5 565.43,-233.5"/>
<polygon fill="midnightblue" stroke="midnightblue" points="529.25,-230 519.25,-233.5 529.25,-237 529.25,-230"/>
</g>
<!-- Node10 -->
<g id="node10" class="node">
<title>Node10</title>
<g id="a_node10"><a xlink:href="class_black_misc_1_1_db_1_1_c_db_info.html" target="_top" xlink:title="Info about the latest models.">
<polygon fill="none" stroke="black" points="567,-186 567,-205 698,-205 698,-186 567,-186"/>
<text text-anchor="middle" x="632.5" y="-193" font-family="Helvetica,sans-Serif" font-size="10.00">BlackMisc::Db::CDbInfo</text>
</a>
</g>
</g>
<!-- Node1&#45;&gt;Node10 -->
<g id="edge9" class="edge">
<title>Node1&#45;&gt;Node10</title>
<path fill="none" stroke="midnightblue" d="M529.25,-216.73C548.51,-212.73 568.41,-208.6 585.48,-205.06"/>
<polygon fill="midnightblue" stroke="midnightblue" points="528.33,-213.35 519.25,-218.81 529.76,-220.2 528.33,-213.35"/>
</g>
<!-- Node11 -->
<g id="node11" class="node">
<title>Node11</title>
<g id="a_node11"><a xlink:href="class_black_misc_1_1_db_1_1_c_distribution.html" target="_top" xlink:title="Distributions for channel.">
<polygon fill="none" stroke="black" points="555,-148 555,-167 710,-167 710,-148 555,-148"/>
<text text-anchor="middle" x="632.5" y="-155" font-family="Helvetica,sans-Serif" font-size="10.00">BlackMisc::Db::CDistribution</text>
</a>
</g>
</g>
<!-- Node1&#45;&gt;Node11 -->
<g id="edge10" class="edge">
<title>Node1&#45;&gt;Node11</title>
<path fill="none" stroke="midnightblue" d="M481.29,-213.21C501.85,-201.18 529.26,-186.41 555,-176.5 564.58,-172.81 575.11,-169.66 585.22,-167.03"/>
<polygon fill="midnightblue" stroke="midnightblue" points="479.45,-210.23 472.64,-218.34 483.02,-216.25 479.45,-210.23"/>
</g>
<!-- Node12 -->
<g id="node12" class="node">
<title>Node12</title>
<g id="a_node12"><a xlink:href="class_black_misc_1_1_network_1_1_c_authenticated_user.html" target="_top" xlink:title="Value object encapsulating information of an authentiated user.">
<polygon fill="none" stroke="black" points="572.5,-98.5 572.5,-128.5 692.5,-128.5 692.5,-98.5 572.5,-98.5"/>
<text text-anchor="start" x="580.5" y="-116.5" font-family="Helvetica,sans-Serif" font-size="10.00">BlackMisc::Network</text>
<text text-anchor="middle" x="632.5" y="-105.5" font-family="Helvetica,sans-Serif" font-size="10.00">::CAuthenticatedUser</text>
</a>
</g>
</g>
<!-- Node1&#45;&gt;Node12 -->
<g id="edge11" class="edge">
<title>Node1&#45;&gt;Node12</title>
<path fill="none" stroke="midnightblue" d="M468.59,-210.83C488.6,-189.49 521.15,-157.98 555,-138.5 561.54,-134.74 568.72,-131.45 575.99,-128.6"/>
<polygon fill="midnightblue" stroke="midnightblue" points="466.01,-208.47 461.81,-218.19 471.16,-213.21 466.01,-208.47"/>
</g>
<!-- Node13 -->
<g id="node13" class="node">
<title>Node13</title>
<g id="a_node13"><a xlink:href="class_black_misc_1_1_network_1_1_c_role.html" target="_top" xlink:title="Role.">
<polygon fill="none" stroke="black" points="576,-49.5 576,-79.5 689,-79.5 689,-49.5 576,-49.5"/>
<text text-anchor="start" x="584" y="-67.5" font-family="Helvetica,sans-Serif" font-size="10.00">BlackMisc::Network</text>
<text text-anchor="middle" x="632.5" y="-56.5" font-family="Helvetica,sans-Serif" font-size="10.00">::CRole</text>
</a>
</g>
</g>
<!-- Node1&#45;&gt;Node13 -->
<g id="edge12" class="edge">
<title>Node1&#45;&gt;Node13</title>
<path fill="none" stroke="midnightblue" d="M460.15,-209.13C476.78,-176.9 510.33,-120.44 555,-88.5 561.34,-83.97 568.57,-80.27 575.99,-77.26"/>
<polygon fill="midnightblue" stroke="midnightblue" points="456.91,-207.8 455.54,-218.31 463.16,-210.94 456.91,-207.8"/>
</g>
<!-- Node14 -->
<g id="node14" class="node">
<title>Node14</title>
<g id="a_node14"><a xlink:href="class_black_misc_1_1_simulation_1_1_c_aircraft_model.html" target="_top" xlink:title="Aircraft model (used by another pilot, my models on disk)">
<polygon fill="none" stroke="black" points="570,-0.5 570,-30.5 695,-30.5 695,-0.5 570,-0.5"/>
<text text-anchor="start" x="578" y="-18.5" font-family="Helvetica,sans-Serif" font-size="10.00">BlackMisc::Simulation</text>
<text text-anchor="middle" x="632.5" y="-7.5" font-family="Helvetica,sans-Serif" font-size="10.00">::CAircraftModel</text>
</a>
</g>
</g>
<!-- Node1&#45;&gt;Node14 -->
<g id="edge13" class="edge">
<title>Node1&#45;&gt;Node14</title>
<path fill="none" stroke="midnightblue" d="M455.48,-208.57C468.3,-167.33 499.5,-84.97 555,-39.5 559.52,-35.8 564.62,-32.66 569.98,-30.01"/>
<polygon fill="midnightblue" stroke="midnightblue" points="452.07,-207.77 452.55,-218.35 458.77,-209.78 452.07,-207.77"/>
</g>
<!-- Node2 -->
<g id="node2" class="node">
<title>Node2</title>
<g id="a_node2"><a xlink:href="class_black_misc_1_1_db_1_1_i_datastore_object.html" target="_top" xlink:title="Supposed to be used only in filter operations.">
<polygon fill="none" stroke="black" points="197,-218.5 197,-248.5 340,-248.5 340,-218.5 197,-218.5"/>
<text text-anchor="start" x="205" y="-236.5" font-family="Helvetica,sans-Serif" font-size="10.00">BlackMisc::Db::IDatastore</text>
<text text-anchor="middle" x="268.5" y="-225.5" font-family="Helvetica,sans-Serif" font-size="10.00">Object</text>
</a>
</g>
</g>
<!-- Node2&#45;&gt;Node1 -->
<g id="edge1" class="edge">
<title>Node2&#45;&gt;Node1</title>
<path fill="none" stroke="midnightblue" d="M350.49,-233.5C358.97,-233.5 367.54,-233.5 375.89,-233.5"/>
<polygon fill="midnightblue" stroke="midnightblue" points="350.22,-230 340.22,-233.5 350.22,-237 350.22,-230"/>
</g>
<!-- Node3 -->
<g id="node3" class="node">
<title>Node3</title>
<g id="a_node3"><a xlink:href="class_black_misc_1_1_i_timestamp_based.html" target="_top" xlink:title="Entity with timestamp.">
<polygon fill="none" stroke="black" points="0,-224 0,-243 161,-243 161,-224 0,-224"/>
<text text-anchor="middle" x="80.5" y="-231" font-family="Helvetica,sans-Serif" font-size="10.00">BlackMisc::ITimestampBased</text>
</a>
</g>
</g>
<!-- Node3&#45;&gt;Node2 -->
<g id="edge2" class="edge">
<title>Node3&#45;&gt;Node2</title>
<path fill="none" stroke="midnightblue" d="M171.23,-233.5C179.8,-233.5 188.42,-233.5 196.78,-233.5"/>
<polygon fill="midnightblue" stroke="midnightblue" points="171.19,-230 161.19,-233.5 171.19,-237 171.19,-230"/>
</g>
</g>
</svg>
