<?xml version="1.0" encoding="UTF-8" standalone="no"?>
<!DOCTYPE svg PUBLIC "-//W3C//DTD SVG 1.1//EN"
 "http://www.w3.org/Graphics/SVG/1.1/DTD/svg11.dtd">
<!-- Generated by graphviz version 2.43.0 (0)
 -->
<!-- Title: BlackGui::Components::CDbAirlineIcaoSelectorBase Pages: 1 -->
<svg width="771pt" height="96pt"
 viewBox="0.00 0.00 771.00 95.50" xmlns="http://www.w3.org/2000/svg" xmlns:xlink="http://www.w3.org/1999/xlink">
<g id="graph0" class="graph" transform="scale(1 1) rotate(0) translate(4 91.5)">
<title>BlackGui::Components::CDbAirlineIcaoSelectorBase</title>
<!-- Node1 -->
<g id="node1" class="node">
<title>Node1</title>
<g id="a_node1"><a xlink:title="Airline ICAO selector base class.">
<polygon fill="#bfbfbf" stroke="black" points="369,-24.5 369,-54.5 527,-54.5 527,-24.5 369,-24.5"/>
<text text-anchor="start" x="377" y="-42.5" font-family="Helvetica,sans-Serif" font-size="10.00">BlackGui::Components</text>
<text text-anchor="middle" x="448" y="-31.5" font-family="Helvetica,sans-Serif" font-size="10.00">::CDbAirlineIcaoSelectorBase</text>
</a>
</g>
</g>
<!-- Node7 -->
<g id="node7" class="node">
<title>Node7</title>
<g id="a_node7"><a xlink:href="class_black_gui_1_1_components_1_1_c_db_airline_icao_selector_component.html" target="_top" xlink:title="Airline ICAO selector.">
<polygon fill="none" stroke="black" points="567.5,-49.5 567.5,-79.5 758.5,-79.5 758.5,-49.5 567.5,-49.5"/>
<text text-anchor="start" x="575.5" y="-67.5" font-family="Helvetica,sans-Serif" font-size="10.00">BlackGui::Components</text>
<text text-anchor="middle" x="663" y="-56.5" font-family="Helvetica,sans-Serif" font-size="10.00">::CDbAirlineIcaoSelectorComponent</text>
</a>
</g>
</g>
<!-- Node1&#45;&gt;Node7 -->
<g id="edge6" class="edge">
<title>Node1&#45;&gt;Node7</title>
<path fill="none" stroke="midnightblue" d="M537.31,-49.87C547.2,-51.03 557.3,-52.21 567.26,-53.38"/>
<polygon fill="midnightblue" stroke="midnightblue" points="537.44,-46.36 527.1,-48.67 536.63,-53.31 537.44,-46.36"/>
</g>
<!-- Node8 -->
<g id="node8" class="node">
<title>Node8</title>
<g id="a_node8"><a xlink:href="class_black_gui_1_1_components_1_1_c_db_airline_name_selector_component.html" target="_top" xlink:title="Select airline by name.">
<polygon fill="none" stroke="black" points="563,-0.5 563,-30.5 763,-30.5 763,-0.5 563,-0.5"/>
<text text-anchor="start" x="571" y="-18.5" font-family="Helvetica,sans-Serif" font-size="10.00">BlackGui::Components</text>
<text text-anchor="middle" x="663" y="-7.5" font-family="Helvetica,sans-Serif" font-size="10.00">::CDbAirlineNameSelectorComponent</text>
</a>
</g>
</g>
<!-- Node1&#45;&gt;Node8 -->
<g id="edge7" class="edge">
<title>Node1&#45;&gt;Node8</title>
<path fill="none" stroke="midnightblue" d="M537.3,-29.55C545.74,-28.6 554.33,-27.63 562.86,-26.67"/>
<polygon fill="midnightblue" stroke="midnightblue" points="536.65,-26.1 527.1,-30.7 537.43,-33.06 536.65,-26.1"/>
</g>
<!-- Node2 -->
<g id="node2" class="node">
<title>Node2</title>
<g id="a_node2"><a target="_parent" xlink:href="http://doc.qt.io/qt-5/qframe.html" xlink:title=" ">
<polygon fill="none" stroke="black" points="245.5,-49 245.5,-68 300.5,-68 300.5,-49 245.5,-49"/>
<text text-anchor="middle" x="273" y="-56" font-family="Helvetica,sans-Serif" font-size="10.00">QFrame</text>
</a>
</g>
</g>
<!-- Node2&#45;&gt;Node1 -->
<g id="edge1" class="edge">
<title>Node2&#45;&gt;Node1</title>
<path fill="none" stroke="midnightblue" d="M310.67,-54.47C327.61,-52.61 348.44,-50.32 368.66,-48.1"/>
<polygon fill="midnightblue" stroke="midnightblue" points="310.21,-51 300.65,-55.57 310.97,-57.96 310.21,-51"/>
</g>
<!-- Node3 -->
<g id="node3" class="node">
<title>Node3</title>
<g id="a_node3"><a target="_parent" xlink:href="http://doc.qt.io/qt-5/qwidget.html" xlink:title=" ">
<polygon fill="none" stroke="black" points="118,-49 118,-68 177,-68 177,-49 118,-49"/>
<text text-anchor="middle" x="147.5" y="-56" font-family="Helvetica,sans-Serif" font-size="10.00">QWidget</text>
</a>
</g>
</g>
<!-- Node3&#45;&gt;Node2 -->
<g id="edge2" class="edge">
<title>Node3&#45;&gt;Node2</title>
<path fill="none" stroke="midnightblue" d="M187.22,-58.5C206.06,-58.5 228.25,-58.5 245.2,-58.5"/>
<polygon fill="midnightblue" stroke="midnightblue" points="187.14,-55 177.14,-58.5 187.14,-62 187.14,-55"/>
</g>
<!-- Node4 -->
<g id="node4" class="node">
<title>Node4</title>
<g id="a_node4"><a target="_parent" xlink:href="http://doc.qt.io/qt-5/qobject.html" xlink:title=" ">
<polygon fill="none" stroke="black" points="13,-68 13,-87 69,-87 69,-68 13,-68"/>
<text text-anchor="middle" x="41" y="-75" font-family="Helvetica,sans-Serif" font-size="10.00">QObject</text>
</a>
</g>
</g>
<!-- Node4&#45;&gt;Node3 -->
<g id="edge3" class="edge">
<title>Node4&#45;&gt;Node3</title>
<path fill="none" stroke="midnightblue" d="M79.09,-70.76C91.88,-68.43 106,-65.86 117.99,-63.68"/>
<polygon fill="midnightblue" stroke="midnightblue" points="78.4,-67.33 69.18,-72.56 79.65,-74.21 78.4,-67.33"/>
</g>
<!-- Node5 -->
<g id="node5" class="node">
<title>Node5</title>
<g id="a_node5"><a target="_parent" xlink:href="http://doc.qt.io/qt-5/qpaintdevice.html" xlink:title=" ">
<polygon fill="none" stroke="black" points="0,-30 0,-49 82,-49 82,-30 0,-30"/>
<text text-anchor="middle" x="41" y="-37" font-family="Helvetica,sans-Serif" font-size="10.00">QPaintDevice</text>
</a>
</g>
</g>
<!-- Node5&#45;&gt;Node3 -->
<g id="edge4" class="edge">
<title>Node5&#45;&gt;Node3</title>
<path fill="none" stroke="midnightblue" d="M91.97,-48.59C100.8,-50.19 109.71,-51.81 117.69,-53.26"/>
<polygon fill="midnightblue" stroke="midnightblue" points="92.57,-45.14 82.1,-46.79 91.32,-52.02 92.57,-45.14"/>
</g>
<!-- Node6 -->
<g id="node6" class="node">
<title>Node6</title>
<g id="a_node6"><a xlink:href="class_black_gui_1_1_c_drop_base.html" target="_top" xlink:title="Utilities for dropping swift value objects.">
<polygon fill="none" stroke="black" points="213,-11 213,-30 333,-30 333,-11 213,-11"/>
<text text-anchor="middle" x="273" y="-18" font-family="Helvetica,sans-Serif" font-size="10.00">BlackGui::CDropBase</text>
</a>
</g>
</g>
<!-- Node6&#45;&gt;Node1 -->
<g id="edge5" class="edge">
<title>Node6&#45;&gt;Node1</title>
<path fill="none" stroke="midnightblue" d="M343.23,-28.1C351.68,-29.03 360.37,-29.99 368.94,-30.93"/>
<polygon fill="midnightblue" stroke="midnightblue" points="343.38,-24.6 333.05,-26.99 342.61,-31.56 343.38,-24.6"/>
</g>
</g>
</svg>
