<?xml version="1.0" encoding="UTF-8" standalone="no"?>
<!DOCTYPE svg PUBLIC "-//W3C//DTD SVG 1.1//EN"
 "http://www.w3.org/Graphics/SVG/1.1/DTD/svg11.dtd">
<!-- Generated by graphviz version 2.43.0 (0)
 -->
<!-- Title: BlackGui::Models::CListModelBase&lt; T, UseCompare &gt; Pages: 1 -->
<svg width="1244pt" height="706pt"
 viewBox="0.00 0.00 1244.00 706.00" xmlns="http://www.w3.org/2000/svg" xmlns:xlink="http://www.w3.org/1999/xlink">
<g id="graph0" class="graph" transform="scale(1 1) rotate(0) translate(4 702)">
<title>BlackGui::Models::CListModelBase&lt; T, UseCompare &gt;</title>
<!-- Node1 -->
<g id="node1" class="node">
<title>Node1</title>
<g id="a_node1"><a xlink:title="List model.">
<polygon fill="#bfbfbf" stroke="black" points="598,-331 598,-361 759,-361 759,-331 598,-331"/>
<text text-anchor="start" x="606" y="-349" font-family="Helvetica,sans-Serif" font-size="10.00">BlackGui::Models::CListModel</text>
<text text-anchor="middle" x="678.5" y="-338" font-family="Helvetica,sans-Serif" font-size="10.00">Base&lt; T, UseCompare &gt;</text>
</a>
</g>
</g>
<!-- Node7 -->
<g id="node7" class="node">
<title>Node7</title>
<g id="a_node7"><a xlink:href="class_black_gui_1_1_models_1_1_c_list_model_callsign_objects.html" target="_top" xlink:title=" ">
<polygon fill="none" stroke="black" points="795,-656.5 795,-697.5 1022,-697.5 1022,-656.5 795,-656.5"/>
<text text-anchor="start" x="803" y="-685.5" font-family="Helvetica,sans-Serif" font-size="10.00">BlackGui::Models::CListModel</text>
<text text-anchor="start" x="803" y="-674.5" font-family="Helvetica,sans-Serif" font-size="10.00">CallsignObjects&lt; BlackMisc</text>
<text text-anchor="middle" x="908.5" y="-663.5" font-family="Helvetica,sans-Serif" font-size="10.00">::Simulation::CSimulatedAircraftList, true &gt;</text>
</a>
</g>
</g>
<!-- Node1&#45;&gt;Node7 -->
<g id="edge6" class="edge">
<title>Node1&#45;&gt;Node7</title>
<path fill="none" stroke="midnightblue" d="M681.62,-371.26C687.85,-429.05 711.34,-571.75 795,-647 798.91,-650.51 803.18,-653.62 807.71,-656.38"/>
<polygon fill="midnightblue" stroke="midnightblue" points="685.09,-370.78 680.62,-361.18 678.12,-371.48 685.09,-370.78"/>
</g>
<!-- Node9 -->
<g id="node9" class="node">
<title>Node9</title>
<g id="a_node9"><a xlink:href="class_black_gui_1_1_models_1_1_c_list_model_callsign_objects.html" target="_top" xlink:title=" ">
<polygon fill="none" stroke="black" points="819,-596.5 819,-637.5 998,-637.5 998,-596.5 819,-596.5"/>
<text text-anchor="start" x="827" y="-625.5" font-family="Helvetica,sans-Serif" font-size="10.00">BlackGui::Models::CListModel</text>
<text text-anchor="start" x="827" y="-614.5" font-family="Helvetica,sans-Serif" font-size="10.00">CallsignObjects&lt; BlackMisc</text>
<text text-anchor="middle" x="908.5" y="-603.5" font-family="Helvetica,sans-Serif" font-size="10.00">::Aviation::CAtcStationList, true &gt;</text>
</a>
</g>
</g>
<!-- Node1&#45;&gt;Node9 -->
<g id="edge8" class="edge">
<title>Node1&#45;&gt;Node9</title>
<path fill="none" stroke="midnightblue" d="M684.3,-371.22C695.01,-420.43 725.6,-529.46 795,-587 802.08,-592.87 810.2,-597.6 818.76,-601.41"/>
<polygon fill="midnightblue" stroke="midnightblue" points="687.66,-370.21 682.2,-361.13 680.81,-371.63 687.66,-370.21"/>
</g>
<!-- Node11 -->
<g id="node11" class="node">
<title>Node11</title>
<g id="a_node11"><a xlink:href="class_black_gui_1_1_models_1_1_c_list_model_callsign_objects.html" target="_top" xlink:title=" ">
<polygon fill="none" stroke="black" points="809.5,-525 809.5,-577 1007.5,-577 1007.5,-525 809.5,-525"/>
<text text-anchor="start" x="817.5" y="-565" font-family="Helvetica,sans-Serif" font-size="10.00">BlackGui::Models::CListModel</text>
<text text-anchor="start" x="817.5" y="-554" font-family="Helvetica,sans-Serif" font-size="10.00">CallsignObjects&lt; BlackMisc</text>
<text text-anchor="start" x="817.5" y="-543" font-family="Helvetica,sans-Serif" font-size="10.00">::Simulation::CInterpolationSetupList,</text>
<text text-anchor="middle" x="908.5" y="-532" font-family="Helvetica,sans-Serif" font-size="10.00"> false &gt;</text>
</a>
</g>
</g>
<!-- Node1&#45;&gt;Node11 -->
<g id="edge10" class="edge">
<title>Node1&#45;&gt;Node11</title>
<path fill="none" stroke="midnightblue" d="M689.82,-370.77C706.5,-407.8 742.86,-477.35 795,-516 799.52,-519.35 804.37,-522.38 809.42,-525.13"/>
<polygon fill="midnightblue" stroke="midnightblue" points="692.87,-368.99 685.64,-361.24 686.46,-371.81 692.87,-368.99"/>
</g>
<!-- Node13 -->
<g id="node13" class="node">
<title>Node13</title>
<g id="a_node13"><a xlink:href="class_black_gui_1_1_models_1_1_c_list_model_db_objects.html" target="_top" xlink:title=" ">
<polygon fill="none" stroke="black" points="828,-476 828,-506 989,-506 989,-476 828,-476"/>
<text text-anchor="start" x="836" y="-494" font-family="Helvetica,sans-Serif" font-size="10.00">BlackGui::Models::CListModel</text>
<text text-anchor="middle" x="908.5" y="-483" font-family="Helvetica,sans-Serif" font-size="10.00">DbObjects&lt; T, K, false &gt;</text>
</a>
</g>
</g>
<!-- Node1&#45;&gt;Node13 -->
<g id="edge12" class="edge">
<title>Node1&#45;&gt;Node13</title>
<path fill="none" stroke="midnightblue" d="M695.46,-369.56C715.42,-397.1 752.23,-441.99 795,-466 805.12,-471.68 816.43,-476.07 827.87,-479.46"/>
<polygon fill="midnightblue" stroke="midnightblue" points="698.22,-367.4 689.59,-361.27 692.51,-371.45 698.22,-367.4"/>
</g>
<!-- Node15 -->
<g id="node15" class="node">
<title>Node15</title>
<g id="a_node15"><a xlink:href="class_black_gui_1_1_models_1_1_c_list_model_db_objects.html" target="_top" xlink:title=" ">
<polygon fill="none" stroke="black" points="809,-415.5 809,-456.5 1008,-456.5 1008,-415.5 809,-415.5"/>
<text text-anchor="start" x="817" y="-444.5" font-family="Helvetica,sans-Serif" font-size="10.00">BlackGui::Models::CListModel</text>
<text text-anchor="start" x="817" y="-433.5" font-family="Helvetica,sans-Serif" font-size="10.00">DbObjects&lt; BlackMisc::CCountryList,</text>
<text text-anchor="middle" x="908.5" y="-422.5" font-family="Helvetica,sans-Serif" font-size="10.00"> QString, true &gt;</text>
</a>
</g>
</g>
<!-- Node1&#45;&gt;Node15 -->
<g id="edge14" class="edge">
<title>Node1&#45;&gt;Node15</title>
<path fill="none" stroke="midnightblue" d="M713.72,-366.3C736.23,-379.02 766.67,-395.02 795,-406 803.76,-409.4 813.06,-412.55 822.39,-415.44"/>
<polygon fill="midnightblue" stroke="midnightblue" points="715.31,-363.18 704.89,-361.25 711.84,-369.26 715.31,-363.18"/>
</g>
<!-- Node17 -->
<g id="node17" class="node">
<title>Node17</title>
<g id="a_node17"><a xlink:href="class_black_gui_1_1_models_1_1_c_list_model_db_objects.html" target="_top" xlink:title=" ">
<polygon fill="none" stroke="black" points="819,-355.5 819,-396.5 998,-396.5 998,-355.5 819,-355.5"/>
<text text-anchor="start" x="827" y="-384.5" font-family="Helvetica,sans-Serif" font-size="10.00">BlackGui::Models::CListModel</text>
<text text-anchor="start" x="827" y="-373.5" font-family="Helvetica,sans-Serif" font-size="10.00">DbObjects&lt; BlackMisc::Aviation</text>
<text text-anchor="middle" x="908.5" y="-362.5" font-family="Helvetica,sans-Serif" font-size="10.00">::CAirlineIcaoCodeList, int, true &gt;</text>
</a>
</g>
</g>
<!-- Node1&#45;&gt;Node17 -->
<g id="edge16" class="edge">
<title>Node1&#45;&gt;Node17</title>
<path fill="none" stroke="midnightblue" d="M769.29,-357.81C785.59,-359.96 802.58,-362.2 818.85,-364.34"/>
<polygon fill="midnightblue" stroke="midnightblue" points="769.61,-354.33 759.24,-356.49 768.7,-361.27 769.61,-354.33"/>
</g>
<!-- Node19 -->
<g id="node19" class="node">
<title>Node19</title>
<g id="a_node19"><a xlink:href="class_black_gui_1_1_models_1_1_c_list_model_db_objects.html" target="_top" xlink:title=" ">
<polygon fill="none" stroke="black" points="817.5,-295.5 817.5,-336.5 999.5,-336.5 999.5,-295.5 817.5,-295.5"/>
<text text-anchor="start" x="825.5" y="-324.5" font-family="Helvetica,sans-Serif" font-size="10.00">BlackGui::Models::CListModel</text>
<text text-anchor="start" x="825.5" y="-313.5" font-family="Helvetica,sans-Serif" font-size="10.00">DbObjects&lt; BlackMisc::Aviation</text>
<text text-anchor="middle" x="908.5" y="-302.5" font-family="Helvetica,sans-Serif" font-size="10.00">::CAircraftIcaoCodeList, int, true &gt;</text>
</a>
</g>
</g>
<!-- Node1&#45;&gt;Node19 -->
<g id="edge18" class="edge">
<title>Node1&#45;&gt;Node19</title>
<path fill="none" stroke="midnightblue" d="M769.47,-334.16C785.19,-332.09 801.55,-329.94 817.28,-327.87"/>
<polygon fill="midnightblue" stroke="midnightblue" points="768.7,-330.73 759.24,-335.51 769.61,-337.67 768.7,-330.73"/>
</g>
<!-- Node21 -->
<g id="node21" class="node">
<title>Node21</title>
<g id="a_node21"><a xlink:href="class_black_gui_1_1_models_1_1_c_list_model_db_objects.html" target="_top" xlink:title=" ">
<polygon fill="none" stroke="black" points="822,-235.5 822,-276.5 995,-276.5 995,-235.5 822,-235.5"/>
<text text-anchor="start" x="830" y="-264.5" font-family="Helvetica,sans-Serif" font-size="10.00">BlackGui::Models::CListModel</text>
<text text-anchor="start" x="830" y="-253.5" font-family="Helvetica,sans-Serif" font-size="10.00">DbObjects&lt; BlackMisc::Aviation</text>
<text text-anchor="middle" x="908.5" y="-242.5" font-family="Helvetica,sans-Serif" font-size="10.00">::CLiveryList, int, true &gt;</text>
</a>
</g>
</g>
<!-- Node1&#45;&gt;Node21 -->
<g id="edge20" class="edge">
<title>Node1&#45;&gt;Node21</title>
<path fill="none" stroke="midnightblue" d="M713.72,-325.7C736.23,-312.98 766.67,-296.98 795,-286 803.76,-282.6 813.06,-279.45 822.39,-276.56"/>
<polygon fill="midnightblue" stroke="midnightblue" points="711.84,-322.74 704.89,-330.75 715.31,-328.82 711.84,-322.74"/>
</g>
<!-- Node23 -->
<g id="node23" class="node">
<title>Node23</title>
<g id="a_node23"><a xlink:href="class_black_gui_1_1_models_1_1_c_list_model_db_objects.html" target="_top" xlink:title=" ">
<polygon fill="none" stroke="black" points="817.5,-175.5 817.5,-216.5 999.5,-216.5 999.5,-175.5 817.5,-175.5"/>
<text text-anchor="start" x="825.5" y="-204.5" font-family="Helvetica,sans-Serif" font-size="10.00">BlackGui::Models::CListModel</text>
<text text-anchor="start" x="825.5" y="-193.5" font-family="Helvetica,sans-Serif" font-size="10.00">DbObjects&lt; BlackMisc::Aviation</text>
<text text-anchor="middle" x="908.5" y="-182.5" font-family="Helvetica,sans-Serif" font-size="10.00">::CAircraftCategoryList, int, true &gt;</text>
</a>
</g>
</g>
<!-- Node1&#45;&gt;Node23 -->
<g id="edge22" class="edge">
<title>Node1&#45;&gt;Node23</title>
<path fill="none" stroke="midnightblue" d="M695.64,-322.75C715.77,-295.5 752.74,-250.91 795,-226 801.97,-221.89 809.5,-218.34 817.26,-215.26"/>
<polygon fill="midnightblue" stroke="midnightblue" points="692.73,-320.79 689.71,-330.94 698.4,-324.89 692.73,-320.79"/>
</g>
<!-- Node25 -->
<g id="node25" class="node">
<title>Node25</title>
<g id="a_node25"><a xlink:href="class_black_gui_1_1_models_1_1_c_list_model_timestamp_objects.html" target="_top" xlink:title=" ">
<polygon fill="none" stroke="black" points="823.5,-115.5 823.5,-156.5 993.5,-156.5 993.5,-115.5 823.5,-115.5"/>
<text text-anchor="start" x="831.5" y="-144.5" font-family="Helvetica,sans-Serif" font-size="10.00">BlackGui::Models::CListModel</text>
<text text-anchor="start" x="831.5" y="-133.5" font-family="Helvetica,sans-Serif" font-size="10.00">TimestampObjects&lt; BlackMisc</text>
<text text-anchor="middle" x="908.5" y="-122.5" font-family="Helvetica,sans-Serif" font-size="10.00">::CStatusMessageList, true &gt;</text>
</a>
</g>
</g>
<!-- Node1&#45;&gt;Node25 -->
<g id="edge24" class="edge">
<title>Node1&#45;&gt;Node25</title>
<path fill="none" stroke="midnightblue" d="M688.43,-321.47C703.92,-282.44 739.52,-206.49 795,-166 803.49,-159.8 813.17,-154.89 823.21,-150.99"/>
<polygon fill="midnightblue" stroke="midnightblue" points="685.09,-320.41 684.76,-331 691.62,-322.92 685.09,-320.41"/>
</g>
<!-- Node27 -->
<g id="node27" class="node">
<title>Node27</title>
<g id="a_node27"><a xlink:href="class_black_gui_1_1_models_1_1_c_list_model_timestamp_objects.html" target="_top" xlink:title=" ">
<polygon fill="none" stroke="black" points="811.5,-55.5 811.5,-96.5 1005.5,-96.5 1005.5,-55.5 811.5,-55.5"/>
<text text-anchor="start" x="819.5" y="-84.5" font-family="Helvetica,sans-Serif" font-size="10.00">BlackGui::Models::CListModel</text>
<text text-anchor="start" x="819.5" y="-73.5" font-family="Helvetica,sans-Serif" font-size="10.00">TimestampObjects&lt; BlackMisc</text>
<text text-anchor="middle" x="908.5" y="-62.5" font-family="Helvetica,sans-Serif" font-size="10.00">::Network::CTextMessageList, true &gt;</text>
</a>
</g>
</g>
<!-- Node1&#45;&gt;Node27 -->
<g id="edge26" class="edge">
<title>Node1&#45;&gt;Node27</title>
<path fill="none" stroke="midnightblue" d="M684.33,-320.88C695.1,-271.87 725.79,-163.29 795,-106 799.98,-101.88 805.48,-98.31 811.28,-95.24"/>
<polygon fill="midnightblue" stroke="midnightblue" points="680.85,-320.43 682.22,-330.93 687.7,-321.87 680.85,-320.43"/>
</g>
<!-- Node29 -->
<g id="node29" class="node">
<title>Node29</title>
<g id="a_node29"><a xlink:href="class_black_gui_1_1_models_1_1_c_list_model_timestamp_objects.html" target="_top" xlink:title=" ">
<polygon fill="none" stroke="black" points="825,-6 825,-36 992,-36 992,-6 825,-6"/>
<text text-anchor="start" x="833" y="-24" font-family="Helvetica,sans-Serif" font-size="10.00">BlackGui::Models::CListModel</text>
<text text-anchor="middle" x="908.5" y="-13" font-family="Helvetica,sans-Serif" font-size="10.00">TimestampObjects&lt; T, false &gt;</text>
</a>
</g>
</g>
<!-- Node1&#45;&gt;Node29 -->
<g id="edge28" class="edge">
<title>Node1&#45;&gt;Node29</title>
<path fill="none" stroke="midnightblue" d="M681.43,-320.58C687.26,-262.46 709.98,-119.22 795,-46 803.64,-38.56 814.01,-33.19 824.91,-29.34"/>
<polygon fill="midnightblue" stroke="midnightblue" points="677.93,-320.44 680.5,-330.72 684.9,-321.08 677.93,-320.44"/>
</g>
<!-- Node2 -->
<g id="node2" class="node">
<title>Node2</title>
<g id="a_node2"><a xlink:href="class_black_gui_1_1_models_1_1_c_list_model_base_non_template.html" target="_top" xlink:title="Non templated base class, allows Q_OBJECT and signals to be used.">
<polygon fill="none" stroke="black" points="401,-331 401,-361 562,-361 562,-331 401,-331"/>
<text text-anchor="start" x="409" y="-349" font-family="Helvetica,sans-Serif" font-size="10.00">BlackGui::Models::CListModel</text>
<text text-anchor="middle" x="481.5" y="-338" font-family="Helvetica,sans-Serif" font-size="10.00">BaseNonTemplate</text>
</a>
</g>
</g>
<!-- Node2&#45;&gt;Node1 -->
<g id="edge1" class="edge">
<title>Node2&#45;&gt;Node1</title>
<path fill="none" stroke="midnightblue" d="M572.12,-346C580.7,-346 589.36,-346 597.84,-346"/>
<polygon fill="midnightblue" stroke="midnightblue" points="572.1,-342.5 562.1,-346 572.1,-349.5 572.1,-342.5"/>
</g>
<!-- Node3 -->
<g id="node3" class="node">
<title>Node3</title>
<g id="a_node3"><a target="_parent" xlink:href="http://doc.qt.io/qt-5/qstandarditemmodel.html" xlink:title=" ">
<polygon fill="none" stroke="black" points="245,-355.5 245,-374.5 365,-374.5 365,-355.5 245,-355.5"/>
<text text-anchor="middle" x="305" y="-362.5" font-family="Helvetica,sans-Serif" font-size="10.00">QStandardItemModel</text>
</a>
</g>
</g>
<!-- Node3&#45;&gt;Node2 -->
<g id="edge2" class="edge">
<title>Node3&#45;&gt;Node2</title>
<path fill="none" stroke="midnightblue" d="M375.18,-357.47C383.58,-356.55 392.21,-355.61 400.75,-354.68"/>
<polygon fill="midnightblue" stroke="midnightblue" points="374.64,-354.01 365.08,-358.57 375.4,-360.96 374.64,-354.01"/>
</g>
<!-- Node4 -->
<g id="node4" class="node">
<title>Node4</title>
<g id="a_node4"><a target="_parent" xlink:href="http://doc.qt.io/qt-5/qabstractitemmodel.html" xlink:title=" ">
<polygon fill="none" stroke="black" points="92,-355.5 92,-374.5 209,-374.5 209,-355.5 92,-355.5"/>
<text text-anchor="middle" x="150.5" y="-362.5" font-family="Helvetica,sans-Serif" font-size="10.00">QAbstractItemModel</text>
</a>
</g>
</g>
<!-- Node4&#45;&gt;Node3 -->
<g id="edge3" class="edge">
<title>Node4&#45;&gt;Node3</title>
<path fill="none" stroke="midnightblue" d="M219.17,-365C227.78,-365 236.54,-365 245,-365"/>
<polygon fill="midnightblue" stroke="midnightblue" points="219.15,-361.5 209.15,-365 219.15,-368.5 219.15,-361.5"/>
</g>
<!-- Node5 -->
<g id="node5" class="node">
<title>Node5</title>
<g id="a_node5"><a target="_parent" xlink:href="http://doc.qt.io/qt-5/qobject.html" xlink:title=" ">
<polygon fill="none" stroke="black" points="0,-355.5 0,-374.5 56,-374.5 56,-355.5 0,-355.5"/>
<text text-anchor="middle" x="28" y="-362.5" font-family="Helvetica,sans-Serif" font-size="10.00">QObject</text>
</a>
</g>
</g>
<!-- Node5&#45;&gt;Node4 -->
<g id="edge4" class="edge">
<title>Node5&#45;&gt;Node4</title>
<path fill="none" stroke="midnightblue" d="M66.31,-365C74.46,-365 83.27,-365 91.99,-365"/>
<polygon fill="midnightblue" stroke="midnightblue" points="66.04,-361.5 56.04,-365 66.04,-368.5 66.04,-361.5"/>
</g>
<!-- Node6 -->
<g id="node6" class="node">
<title>Node6</title>
<g id="a_node6"><a xlink:href="class_black_gui_1_1_c_drop_base.html" target="_top" xlink:title="Utilities for dropping swift value objects.">
<polygon fill="none" stroke="black" points="245,-317.5 245,-336.5 365,-336.5 365,-317.5 245,-317.5"/>
<text text-anchor="middle" x="305" y="-324.5" font-family="Helvetica,sans-Serif" font-size="10.00">BlackGui::CDropBase</text>
</a>
</g>
</g>
<!-- Node6&#45;&gt;Node2 -->
<g id="edge5" class="edge">
<title>Node6&#45;&gt;Node2</title>
<path fill="none" stroke="midnightblue" d="M375.18,-334.53C383.58,-335.45 392.21,-336.39 400.75,-337.32"/>
<polygon fill="midnightblue" stroke="midnightblue" points="375.4,-331.04 365.08,-333.43 374.64,-337.99 375.4,-331.04"/>
</g>
<!-- Node8 -->
<g id="node8" class="node">
<title>Node8</title>
<g id="a_node8"><a xlink:href="class_black_gui_1_1_models_1_1_c_simulated_aircraft_list_model.html" target="_top" xlink:title="Aircraft list model.">
<polygon fill="none" stroke="black" points="1065,-662 1065,-692 1229,-692 1229,-662 1065,-662"/>
<text text-anchor="start" x="1073" y="-680" font-family="Helvetica,sans-Serif" font-size="10.00">BlackGui::Models::CSimulated</text>
<text text-anchor="middle" x="1147" y="-669" font-family="Helvetica,sans-Serif" font-size="10.00">AircraftListModel</text>
</a>
</g>
</g>
<!-- Node7&#45;&gt;Node8 -->
<g id="edge7" class="edge">
<title>Node7&#45;&gt;Node8</title>
<path fill="none" stroke="midnightblue" d="M1032.34,-677C1043.36,-677 1054.33,-677 1064.87,-677"/>
<polygon fill="midnightblue" stroke="midnightblue" points="1032.21,-673.5 1022.21,-677 1032.21,-680.5 1032.21,-673.5"/>
</g>
<!-- Node10 -->
<g id="node10" class="node">
<title>Node10</title>
<g id="a_node10"><a xlink:href="class_black_gui_1_1_models_1_1_c_atc_station_list_model.html" target="_top" xlink:title="ATC list model.">
<polygon fill="none" stroke="black" points="1065,-602 1065,-632 1229,-632 1229,-602 1065,-602"/>
<text text-anchor="start" x="1073" y="-620" font-family="Helvetica,sans-Serif" font-size="10.00">BlackGui::Models::CAtcStation</text>
<text text-anchor="middle" x="1147" y="-609" font-family="Helvetica,sans-Serif" font-size="10.00">ListModel</text>
</a>
</g>
</g>
<!-- Node9&#45;&gt;Node10 -->
<g id="edge9" class="edge">
<title>Node9&#45;&gt;Node10</title>
<path fill="none" stroke="midnightblue" d="M1008.33,-617C1027.19,-617 1046.73,-617 1064.96,-617"/>
<polygon fill="midnightblue" stroke="midnightblue" points="1008.24,-613.5 998.24,-617 1008.24,-620.5 1008.24,-613.5"/>
</g>
<!-- Node12 -->
<g id="node12" class="node">
<title>Node12</title>
<g id="a_node12"><a xlink:href="class_black_gui_1_1_models_1_1_c_interpolation_setup_list_model.html" target="_top" xlink:title="Country list model.">
<polygon fill="none" stroke="black" points="1059,-536 1059,-566 1235,-566 1235,-536 1059,-536"/>
<text text-anchor="start" x="1067" y="-554" font-family="Helvetica,sans-Serif" font-size="10.00">BlackGui::Models::CInterpolation</text>
<text text-anchor="middle" x="1147" y="-543" font-family="Helvetica,sans-Serif" font-size="10.00">SetupListModel</text>
</a>
</g>
</g>
<!-- Node11&#45;&gt;Node12 -->
<g id="edge11" class="edge">
<title>Node11&#45;&gt;Node12</title>
<path fill="none" stroke="midnightblue" d="M1018.09,-551C1031.67,-551 1045.43,-551 1058.63,-551"/>
<polygon fill="midnightblue" stroke="midnightblue" points="1017.74,-547.5 1007.74,-551 1017.74,-554.5 1017.74,-547.5"/>
</g>
<!-- Node14 -->
<g id="node14" class="node">
<title>Node14</title>
<g id="a_node14"><a xlink:href="class_black_gui_1_1_models_1_1_c_orderable_list_model_db_objects.html" target="_top" xlink:title="List model for DB objects.">
<polygon fill="none" stroke="black" points="1066,-470.5 1066,-511.5 1228,-511.5 1228,-470.5 1066,-470.5"/>
<text text-anchor="start" x="1074" y="-499.5" font-family="Helvetica,sans-Serif" font-size="10.00">BlackGui::Models::COrderable</text>
<text text-anchor="start" x="1074" y="-488.5" font-family="Helvetica,sans-Serif" font-size="10.00">ListModelDbObjects&lt; T, K,</text>
<text text-anchor="middle" x="1147" y="-477.5" font-family="Helvetica,sans-Serif" font-size="10.00"> UseCompare &gt;</text>
</a>
</g>
</g>
<!-- Node13&#45;&gt;Node14 -->
<g id="edge13" class="edge">
<title>Node13&#45;&gt;Node14</title>
<path fill="none" stroke="midnightblue" d="M999.49,-491C1021.3,-491 1044.48,-491 1065.8,-491"/>
<polygon fill="midnightblue" stroke="midnightblue" points="999.24,-487.5 989.24,-491 999.24,-494.5 999.24,-487.5"/>
</g>
<!-- Node16 -->
<g id="node16" class="node">
<title>Node16</title>
<g id="a_node16"><a xlink:href="class_black_gui_1_1_models_1_1_c_country_list_model.html" target="_top" xlink:title="Country list model.">
<polygon fill="none" stroke="black" points="1071,-421 1071,-451 1223,-451 1223,-421 1071,-421"/>
<text text-anchor="start" x="1079" y="-439" font-family="Helvetica,sans-Serif" font-size="10.00">BlackGui::Models::CCountry</text>
<text text-anchor="middle" x="1147" y="-428" font-family="Helvetica,sans-Serif" font-size="10.00">ListModel</text>
</a>
</g>
</g>
<!-- Node15&#45;&gt;Node16 -->
<g id="edge15" class="edge">
<title>Node15&#45;&gt;Node16</title>
<path fill="none" stroke="midnightblue" d="M1018.43,-436C1036.09,-436 1054.02,-436 1070.64,-436"/>
<polygon fill="midnightblue" stroke="midnightblue" points="1018.08,-432.5 1008.08,-436 1018.08,-439.5 1018.08,-432.5"/>
</g>
<!-- Node18 -->
<g id="node18" class="node">
<title>Node18</title>
<g id="a_node18"><a xlink:href="class_black_gui_1_1_models_1_1_c_airline_icao_code_list_model.html" target="_top" xlink:title="Airport list model.">
<polygon fill="none" stroke="black" points="1074,-361 1074,-391 1220,-391 1220,-361 1074,-361"/>
<text text-anchor="start" x="1082" y="-379" font-family="Helvetica,sans-Serif" font-size="10.00">BlackGui::Models::CAirline</text>
<text text-anchor="middle" x="1147" y="-368" font-family="Helvetica,sans-Serif" font-size="10.00">IcaoCodeListModel</text>
</a>
</g>
</g>
<!-- Node17&#45;&gt;Node18 -->
<g id="edge17" class="edge">
<title>Node17&#45;&gt;Node18</title>
<path fill="none" stroke="midnightblue" d="M1008.25,-376C1030.2,-376 1053.07,-376 1073.73,-376"/>
<polygon fill="midnightblue" stroke="midnightblue" points="1008.24,-372.5 998.24,-376 1008.24,-379.5 1008.24,-372.5"/>
</g>
<!-- Node20 -->
<g id="node20" class="node">
<title>Node20</title>
<g id="a_node20"><a xlink:href="class_black_gui_1_1_models_1_1_c_aircraft_icao_code_list_model.html" target="_top" xlink:title="Airport list model.">
<polygon fill="none" stroke="black" points="1072.5,-301 1072.5,-331 1221.5,-331 1221.5,-301 1072.5,-301"/>
<text text-anchor="start" x="1080.5" y="-319" font-family="Helvetica,sans-Serif" font-size="10.00">BlackGui::Models::CAircraft</text>
<text text-anchor="middle" x="1147" y="-308" font-family="Helvetica,sans-Serif" font-size="10.00">IcaoCodeListModel</text>
</a>
</g>
</g>
<!-- Node19&#45;&gt;Node20 -->
<g id="edge19" class="edge">
<title>Node19&#45;&gt;Node20</title>
<path fill="none" stroke="midnightblue" d="M1009.8,-316C1030.77,-316 1052.51,-316 1072.29,-316"/>
<polygon fill="midnightblue" stroke="midnightblue" points="1009.59,-312.5 999.59,-316 1009.59,-319.5 1009.59,-312.5"/>
</g>
<!-- Node22 -->
<g id="node22" class="node">
<title>Node22</title>
<g id="a_node22"><a xlink:href="class_black_gui_1_1_models_1_1_c_livery_list_model.html" target="_top" xlink:title="Distributor list model.">
<polygon fill="none" stroke="black" points="1075,-241 1075,-271 1219,-271 1219,-241 1075,-241"/>
<text text-anchor="start" x="1083" y="-259" font-family="Helvetica,sans-Serif" font-size="10.00">BlackGui::Models::CLivery</text>
<text text-anchor="middle" x="1147" y="-248" font-family="Helvetica,sans-Serif" font-size="10.00">ListModel</text>
</a>
</g>
</g>
<!-- Node21&#45;&gt;Node22 -->
<g id="edge21" class="edge">
<title>Node21&#45;&gt;Node22</title>
<path fill="none" stroke="midnightblue" d="M1005.44,-256C1028.68,-256 1053.1,-256 1074.96,-256"/>
<polygon fill="midnightblue" stroke="midnightblue" points="1005.22,-252.5 995.22,-256 1005.22,-259.5 1005.22,-252.5"/>
</g>
<!-- Node24 -->
<g id="node24" class="node">
<title>Node24</title>
<g id="a_node24"><a xlink:href="class_black_gui_1_1_models_1_1_c_aircraft_category_list_model.html" target="_top" xlink:title="Airport list model.">
<polygon fill="none" stroke="black" points="1072.5,-181 1072.5,-211 1221.5,-211 1221.5,-181 1072.5,-181"/>
<text text-anchor="start" x="1080.5" y="-199" font-family="Helvetica,sans-Serif" font-size="10.00">BlackGui::Models::CAircraft</text>
<text text-anchor="middle" x="1147" y="-188" font-family="Helvetica,sans-Serif" font-size="10.00">CategoryListModel</text>
</a>
</g>
</g>
<!-- Node23&#45;&gt;Node24 -->
<g id="edge23" class="edge">
<title>Node23&#45;&gt;Node24</title>
<path fill="none" stroke="midnightblue" d="M1009.8,-196C1030.77,-196 1052.51,-196 1072.29,-196"/>
<polygon fill="midnightblue" stroke="midnightblue" points="1009.59,-192.5 999.59,-196 1009.59,-199.5 1009.59,-192.5"/>
</g>
<!-- Node26 -->
<g id="node26" class="node">
<title>Node26</title>
<g id="a_node26"><a xlink:href="class_black_gui_1_1_models_1_1_c_status_message_list_model.html" target="_top" xlink:title="Status message list model.">
<polygon fill="none" stroke="black" points="1074.5,-121 1074.5,-151 1219.5,-151 1219.5,-121 1074.5,-121"/>
<text text-anchor="start" x="1082.5" y="-139" font-family="Helvetica,sans-Serif" font-size="10.00">BlackGui::Models::CStatus</text>
<text text-anchor="middle" x="1147" y="-128" font-family="Helvetica,sans-Serif" font-size="10.00">MessageListModel</text>
</a>
</g>
</g>
<!-- Node25&#45;&gt;Node26 -->
<g id="edge25" class="edge">
<title>Node25&#45;&gt;Node26</title>
<path fill="none" stroke="midnightblue" d="M1003.56,-136C1027.14,-136 1052.07,-136 1074.36,-136"/>
<polygon fill="midnightblue" stroke="midnightblue" points="1003.55,-132.5 993.55,-136 1003.55,-139.5 1003.55,-132.5"/>
</g>
<!-- Node28 -->
<g id="node28" class="node">
<title>Node28</title>
<g id="a_node28"><a xlink:href="class_black_gui_1_1_models_1_1_c_text_message_list_model.html" target="_top" xlink:title="Text message list model.">
<polygon fill="none" stroke="black" points="1058,-61 1058,-91 1236,-91 1236,-61 1058,-61"/>
<text text-anchor="start" x="1066" y="-79" font-family="Helvetica,sans-Serif" font-size="10.00">BlackGui::Models::CTextMessage</text>
<text text-anchor="middle" x="1147" y="-68" font-family="Helvetica,sans-Serif" font-size="10.00">ListModel</text>
</a>
</g>
</g>
<!-- Node27&#45;&gt;Node28 -->
<g id="edge27" class="edge">
<title>Node27&#45;&gt;Node28</title>
<path fill="none" stroke="midnightblue" d="M1015.87,-76C1029.92,-76 1044.2,-76 1057.89,-76"/>
<polygon fill="midnightblue" stroke="midnightblue" points="1015.69,-72.5 1005.69,-76 1015.69,-79.5 1015.69,-72.5"/>
</g>
<!-- Node30 -->
<g id="node30" class="node">
<title>Node30</title>
<g id="a_node30"><a xlink:href="class_black_gui_1_1_models_1_1_c_list_model_timestamp_with_offset_objects.html" target="_top" xlink:title="List model for timestamp based objects with offset.">
<polygon fill="none" stroke="black" points="1066.5,-0.5 1066.5,-41.5 1227.5,-41.5 1227.5,-0.5 1066.5,-0.5"/>
<text text-anchor="start" x="1074.5" y="-29.5" font-family="Helvetica,sans-Serif" font-size="10.00">BlackGui::Models::CListModel</text>
<text text-anchor="start" x="1074.5" y="-18.5" font-family="Helvetica,sans-Serif" font-size="10.00">TimestampWithOffsetObjects</text>
<text text-anchor="middle" x="1147" y="-7.5" font-family="Helvetica,sans-Serif" font-size="10.00">&lt; T, UseCompare &gt;</text>
</a>
</g>
</g>
<!-- Node29&#45;&gt;Node30 -->
<g id="edge29" class="edge">
<title>Node29&#45;&gt;Node30</title>
<path fill="none" stroke="midnightblue" d="M1002.45,-21C1023.49,-21 1045.66,-21 1066.12,-21"/>
<polygon fill="midnightblue" stroke="midnightblue" points="1002.22,-17.5 992.22,-21 1002.22,-24.5 1002.22,-17.5"/>
</g>
</g>
</svg>
