<?xml version="1.0" encoding="UTF-8" standalone="no"?>
<!DOCTYPE svg PUBLIC "-//W3C//DTD SVG 1.1//EN"
 "http://www.w3.org/Graphics/SVG/1.1/DTD/svg11.dtd">
<!-- Generated by graphviz version 2.43.0 (0)
 -->
<!-- Title: BlackCore::Db::CDatabaseReader Pages: 1 -->
<svg width="1007pt" height="186pt"
 viewBox="0.00 0.00 1007.00 186.00" xmlns="http://www.w3.org/2000/svg" xmlns:xlink="http://www.w3.org/1999/xlink">
<g id="graph0" class="graph" transform="scale(1 1) rotate(0) translate(4 182)">
<title>BlackCore::Db::CDatabaseReader</title>
<!-- Node1 -->
<g id="node1" class="node">
<title>Node1</title>
<g id="a_node1"><a xlink:title="Specialized version of threaded reader for DB data.">
<polygon fill="#bfbfbf" stroke="black" points="663,-73.5 663,-103.5 808,-103.5 808,-73.5 663,-73.5"/>
<text text-anchor="start" x="671" y="-91.5" font-family="Helvetica,sans-Serif" font-size="10.00">BlackCore::Db::CDatabase</text>
<text text-anchor="middle" x="735.5" y="-80.5" font-family="Helvetica,sans-Serif" font-size="10.00">Reader</text>
</a>
</g>
</g>
<!-- Node6 -->
<g id="node6" class="node">
<title>Node6</title>
<g id="a_node6"><a xlink:href="class_black_core_1_1_db_1_1_c_airport_data_reader.html" target="_top" xlink:title="Reader for airport database data.">
<polygon fill="none" stroke="black" points="844,-147.5 844,-177.5 999,-177.5 999,-147.5 844,-147.5"/>
<text text-anchor="start" x="852" y="-165.5" font-family="Helvetica,sans-Serif" font-size="10.00">BlackCore::Db::CAirportData</text>
<text text-anchor="middle" x="921.5" y="-154.5" font-family="Helvetica,sans-Serif" font-size="10.00">Reader</text>
</a>
</g>
</g>
<!-- Node1&#45;&gt;Node6 -->
<g id="edge5" class="edge">
<title>Node1&#45;&gt;Node6</title>
<path fill="none" stroke="midnightblue" d="M775.35,-108.08C795.55,-117.87 820.8,-129.51 844,-138.5 852.05,-141.62 860.68,-144.63 869.15,-147.41"/>
<polygon fill="midnightblue" stroke="midnightblue" points="776.68,-104.83 766.16,-103.58 773.61,-111.12 776.68,-104.83"/>
</g>
<!-- Node7 -->
<g id="node7" class="node">
<title>Node7</title>
<g id="a_node7"><a xlink:href="class_black_core_1_1_db_1_1_c_icao_data_reader.html" target="_top" xlink:title="Read ICAO data from Database.">
<polygon fill="none" stroke="black" points="850.5,-98.5 850.5,-128.5 992.5,-128.5 992.5,-98.5 850.5,-98.5"/>
<text text-anchor="start" x="858.5" y="-116.5" font-family="Helvetica,sans-Serif" font-size="10.00">BlackCore::Db::CIcaoData</text>
<text text-anchor="middle" x="921.5" y="-105.5" font-family="Helvetica,sans-Serif" font-size="10.00">Reader</text>
</a>
</g>
</g>
<!-- Node1&#45;&gt;Node7 -->
<g id="edge6" class="edge">
<title>Node1&#45;&gt;Node7</title>
<path fill="none" stroke="midnightblue" d="M818.3,-99.61C828.96,-101.06 839.8,-102.53 850.24,-103.95"/>
<polygon fill="midnightblue" stroke="midnightblue" points="818.55,-96.12 808.17,-98.24 817.6,-103.05 818.55,-96.12"/>
</g>
<!-- Node8 -->
<g id="node8" class="node">
<title>Node8</title>
<g id="a_node8"><a xlink:href="class_black_core_1_1_db_1_1_c_info_data_reader.html" target="_top" xlink:title="Read information about data from Database or shared files such as when updated and number of entries.">
<polygon fill="none" stroke="black" points="851.5,-49.5 851.5,-79.5 991.5,-79.5 991.5,-49.5 851.5,-49.5"/>
<text text-anchor="start" x="859.5" y="-67.5" font-family="Helvetica,sans-Serif" font-size="10.00">BlackCore::Db::CInfoData</text>
<text text-anchor="middle" x="921.5" y="-56.5" font-family="Helvetica,sans-Serif" font-size="10.00">Reader</text>
</a>
</g>
</g>
<!-- Node1&#45;&gt;Node8 -->
<g id="edge7" class="edge">
<title>Node1&#45;&gt;Node8</title>
<path fill="none" stroke="midnightblue" d="M818.26,-77.84C829.34,-76.39 840.62,-74.92 851.44,-73.51"/>
<polygon fill="midnightblue" stroke="midnightblue" points="817.63,-74.39 808.17,-79.15 818.53,-81.33 817.63,-74.39"/>
</g>
<!-- Node9 -->
<g id="node9" class="node">
<title>Node9</title>
<g id="a_node9"><a xlink:href="class_black_core_1_1_db_1_1_c_model_data_reader.html" target="_top" xlink:title="Read model related data from Database.">
<polygon fill="none" stroke="black" points="845.5,-0.5 845.5,-30.5 997.5,-30.5 997.5,-0.5 845.5,-0.5"/>
<text text-anchor="start" x="853.5" y="-18.5" font-family="Helvetica,sans-Serif" font-size="10.00">BlackCore::Db::CModelData</text>
<text text-anchor="middle" x="921.5" y="-7.5" font-family="Helvetica,sans-Serif" font-size="10.00">Reader</text>
</a>
</g>
</g>
<!-- Node1&#45;&gt;Node9 -->
<g id="edge8" class="edge">
<title>Node1&#45;&gt;Node9</title>
<path fill="none" stroke="midnightblue" d="M776.26,-68.95C796.32,-59.46 821.18,-48.24 844,-39.5 852.19,-36.36 860.98,-33.32 869.58,-30.51"/>
<polygon fill="midnightblue" stroke="midnightblue" points="774.63,-65.85 767.12,-73.32 777.65,-72.17 774.63,-65.85"/>
</g>
<!-- Node2 -->
<g id="node2" class="node">
<title>Node2</title>
<g id="a_node2"><a xlink:href="class_black_core_1_1_c_threaded_reader.html" target="_top" xlink:title="Support for threaded based reading and parsing tasks such as data files via http, or file system and ...">
<polygon fill="none" stroke="black" points="468,-79 468,-98 627,-98 627,-79 468,-79"/>
<text text-anchor="middle" x="547.5" y="-86" font-family="Helvetica,sans-Serif" font-size="10.00">BlackCore::CThreadedReader</text>
</a>
</g>
</g>
<!-- Node2&#45;&gt;Node1 -->
<g id="edge1" class="edge">
<title>Node2&#45;&gt;Node1</title>
<path fill="none" stroke="midnightblue" d="M637.21,-88.5C645.84,-88.5 654.53,-88.5 662.97,-88.5"/>
<polygon fill="midnightblue" stroke="midnightblue" points="637.11,-85 627.11,-88.5 637.11,-92 637.11,-85"/>
</g>
<!-- Node3 -->
<g id="node3" class="node">
<title>Node3</title>
<g id="a_node3"><a xlink:href="class_black_misc_1_1_c_continuous_worker.html" target="_top" xlink:title="Base class for a long&#45;lived worker object which lives in its own thread.">
<polygon fill="none" stroke="black" points="265,-79 265,-98 432,-98 432,-79 265,-79"/>
<text text-anchor="middle" x="348.5" y="-86" font-family="Helvetica,sans-Serif" font-size="10.00">BlackMisc::CContinuousWorker</text>
</a>
</g>
</g>
<!-- Node3&#45;&gt;Node2 -->
<g id="edge2" class="edge">
<title>Node3&#45;&gt;Node2</title>
<path fill="none" stroke="midnightblue" d="M442.2,-88.5C450.76,-88.5 459.38,-88.5 467.8,-88.5"/>
<polygon fill="midnightblue" stroke="midnightblue" points="442.19,-85 432.19,-88.5 442.19,-92 442.19,-85"/>
</g>
<!-- Node4 -->
<g id="node4" class="node">
<title>Node4</title>
<g id="a_node4"><a xlink:href="class_black_misc_1_1_c_worker_base.html" target="_top" xlink:title="Base class for CWorker and CContinuousWorker.">
<polygon fill="none" stroke="black" points="92,-79 92,-98 229,-98 229,-79 92,-79"/>
<text text-anchor="middle" x="160.5" y="-86" font-family="Helvetica,sans-Serif" font-size="10.00">BlackMisc::CWorkerBase</text>
</a>
</g>
</g>
<!-- Node4&#45;&gt;Node3 -->
<g id="edge3" class="edge">
<title>Node4&#45;&gt;Node3</title>
<path fill="none" stroke="midnightblue" d="M239.39,-88.5C247.85,-88.5 256.48,-88.5 264.99,-88.5"/>
<polygon fill="midnightblue" stroke="midnightblue" points="239.18,-85 229.18,-88.5 239.18,-92 239.18,-85"/>
</g>
<!-- Node5 -->
<g id="node5" class="node">
<title>Node5</title>
<g id="a_node5"><a target="_parent" xlink:href="http://doc.qt.io/qt-5/qobject.html" xlink:title=" ">
<polygon fill="none" stroke="black" points="0,-79 0,-98 56,-98 56,-79 0,-79"/>
<text text-anchor="middle" x="28" y="-86" font-family="Helvetica,sans-Serif" font-size="10.00">QObject</text>
</a>
</g>
</g>
<!-- Node5&#45;&gt;Node4 -->
<g id="edge4" class="edge">
<title>Node5&#45;&gt;Node4</title>
<path fill="none" stroke="midnightblue" d="M66.18,-88.5C74.24,-88.5 83.01,-88.5 91.84,-88.5"/>
<polygon fill="midnightblue" stroke="midnightblue" points="66.04,-85 56.04,-88.5 66.04,-92 66.04,-85"/>
</g>
</g>
</svg>
