<?xml version="1.0" encoding="UTF-8" standalone="no"?>
<!DOCTYPE svg PUBLIC "-//W3C//DTD SVG 1.1//EN"
 "http://www.w3.org/Graphics/SVG/1.1/DTD/svg11.dtd">
<!-- Generated by graphviz version 2.43.0 (0)
 -->
<!-- Title: BlackGui::Menus::CConsolidateWithSimulatorModels Pages: 1 -->
<svg width="187pt" height="218pt"
 viewBox="0.00 0.00 187.00 218.00" xmlns="http://www.w3.org/2000/svg" xmlns:xlink="http://www.w3.org/1999/xlink">
<g id="graph0" class="graph" transform="scale(1 1) rotate(0) translate(4 214)">
<title>BlackGui::Menus::CConsolidateWithSimulatorModels</title>
<!-- Node1 -->
<g id="node1" class="node">
<title>Node1</title>
<g id="a_node1"><a xlink:title="Merge/update with simulator models (e.g. remove no longer existing models)">
<polygon fill="#bfbfbf" stroke="black" points="5,-0.5 5,-30.5 174,-30.5 174,-0.5 5,-0.5"/>
<text text-anchor="start" x="13" y="-18.5" font-family="Helvetica,sans-Serif" font-size="10.00">BlackGui::Menus::CConsolidate</text>
<text text-anchor="middle" x="89.5" y="-7.5" font-family="Helvetica,sans-Serif" font-size="10.00">WithSimulatorModels</text>
</a>
</g>
</g>
<!-- Node2 -->
<g id="node2" class="node">
<title>Node2</title>
<g id="a_node2"><a xlink:href="class_black_gui_1_1_menus_1_1_i_aircraft_model_view_menu.html" target="_top" xlink:title="Menu base class for aircraft model view menus.">
<polygon fill="none" stroke="black" points="18,-67.5 18,-97.5 161,-97.5 161,-67.5 18,-67.5"/>
<text text-anchor="start" x="26" y="-85.5" font-family="Helvetica,sans-Serif" font-size="10.00">BlackGui::Menus::IAircraft</text>
<text text-anchor="middle" x="89.5" y="-74.5" font-family="Helvetica,sans-Serif" font-size="10.00">ModelViewMenu</text>
</a>
</g>
</g>
<!-- Node2&#45;&gt;Node1 -->
<g id="edge1" class="edge">
<title>Node2&#45;&gt;Node1</title>
<path fill="none" stroke="midnightblue" d="M89.5,-57.11C89.5,-48.15 89.5,-38.32 89.5,-30.58"/>
<polygon fill="midnightblue" stroke="midnightblue" points="86,-57.4 89.5,-67.4 93,-57.4 86,-57.4"/>
</g>
<!-- Node3 -->
<g id="node3" class="node">
<title>Node3</title>
<g id="a_node3"><a xlink:href="class_black_gui_1_1_menus_1_1_i_menu_delegate.html" target="_top" xlink:title="Interface to implement a custom menu.">
<polygon fill="none" stroke="black" points="0,-134.5 0,-153.5 179,-153.5 179,-134.5 0,-134.5"/>
<text text-anchor="middle" x="89.5" y="-141.5" font-family="Helvetica,sans-Serif" font-size="10.00">BlackGui::Menus::IMenuDelegate</text>
</a>
</g>
</g>
<!-- Node3&#45;&gt;Node2 -->
<g id="edge2" class="edge">
<title>Node3&#45;&gt;Node2</title>
<path fill="none" stroke="midnightblue" d="M89.5,-124.23C89.5,-115.59 89.5,-105.5 89.5,-97.52"/>
<polygon fill="midnightblue" stroke="midnightblue" points="86,-124.48 89.5,-134.48 93,-124.48 86,-124.48"/>
</g>
<!-- Node4 -->
<g id="node4" class="node">
<title>Node4</title>
<g id="a_node4"><a target="_parent" xlink:href="http://doc.qt.io/qt-5/qobject.html" xlink:title=" ">
<polygon fill="none" stroke="black" points="61.5,-190.5 61.5,-209.5 117.5,-209.5 117.5,-190.5 61.5,-190.5"/>
<text text-anchor="middle" x="89.5" y="-197.5" font-family="Helvetica,sans-Serif" font-size="10.00">QObject</text>
</a>
</g>
</g>
<!-- Node4&#45;&gt;Node3 -->
<g id="edge3" class="edge">
<title>Node4&#45;&gt;Node3</title>
<path fill="none" stroke="midnightblue" d="M89.5,-179.8C89.5,-170.91 89.5,-160.78 89.5,-153.75"/>
<polygon fill="midnightblue" stroke="midnightblue" points="86,-180.08 89.5,-190.08 93,-180.08 86,-180.08"/>
</g>
</g>
</svg>
