<?xml version="1.0" encoding="UTF-8" standalone="no"?>
<!DOCTYPE svg PUBLIC "-//W3C//DTD SVG 1.1//EN"
 "http://www.w3.org/Graphics/SVG/1.1/DTD/svg11.dtd">
<!-- Generated by graphviz version 2.43.0 (0)
 -->
<!-- Title: BlackSound::Wav::CWavFile Pages: 1 -->
<svg width="159pt" height="252pt"
 viewBox="0.00 0.00 159.00 252.00" xmlns="http://www.w3.org/2000/svg" xmlns:xlink="http://www.w3.org/1999/xlink">
<g id="graph0" class="graph" transform="scale(1 1) rotate(0) translate(4 248)">
<title>BlackSound::Wav::CWavFile</title>
<!-- Node1 -->
<g id="node1" class="node">
<title>Node1</title>
<g id="a_node1"><a xlink:title=" ">
<polygon fill="#bfbfbf" stroke="black" points="0,-0.5 0,-19.5 151,-19.5 151,-0.5 0,-0.5"/>
<text text-anchor="middle" x="75.5" y="-7.5" font-family="Helvetica,sans-Serif" font-size="10.00">BlackSound::Wav::CWavFile</text>
</a>
</g>
</g>
<!-- Node2 -->
<g id="node2" class="node">
<title>Node2</title>
<g id="a_node2"><a target="_parent" xlink:href="http://doc.qt.io/qt-5/qfile.html" xlink:title=" ">
<polygon fill="none" stroke="black" points="55,-56.5 55,-75.5 96,-75.5 96,-56.5 55,-56.5"/>
<text text-anchor="middle" x="75.5" y="-63.5" font-family="Helvetica,sans-Serif" font-size="10.00">QFile</text>
</a>
</g>
</g>
<!-- Node2&#45;&gt;Node1 -->
<g id="edge1" class="edge">
<title>Node2&#45;&gt;Node1</title>
<path fill="none" stroke="midnightblue" d="M75.5,-45.8C75.5,-36.91 75.5,-26.78 75.5,-19.75"/>
<polygon fill="midnightblue" stroke="midnightblue" points="72,-46.08 75.5,-56.08 79,-46.08 72,-46.08"/>
</g>
<!-- Node3 -->
<g id="node3" class="node">
<title>Node3</title>
<g id="a_node3"><a target="_parent" xlink:href="http://doc.qt.io/qt-5/qfiledevice.html" xlink:title=" ">
<polygon fill="none" stroke="black" points="38,-112.5 38,-131.5 113,-131.5 113,-112.5 38,-112.5"/>
<text text-anchor="middle" x="75.5" y="-119.5" font-family="Helvetica,sans-Serif" font-size="10.00">QFileDevice</text>
</a>
</g>
</g>
<!-- Node3&#45;&gt;Node2 -->
<g id="edge2" class="edge">
<title>Node3&#45;&gt;Node2</title>
<path fill="none" stroke="midnightblue" d="M75.5,-101.8C75.5,-92.91 75.5,-82.78 75.5,-75.75"/>
<polygon fill="midnightblue" stroke="midnightblue" points="72,-102.08 75.5,-112.08 79,-102.08 72,-102.08"/>
</g>
<!-- Node4 -->
<g id="node4" class="node">
<title>Node4</title>
<g id="a_node4"><a target="_parent" xlink:href="http://doc.qt.io/qt-5/qiodevice.html" xlink:title=" ">
<polygon fill="none" stroke="black" points="41.5,-168.5 41.5,-187.5 109.5,-187.5 109.5,-168.5 41.5,-168.5"/>
<text text-anchor="middle" x="75.5" y="-175.5" font-family="Helvetica,sans-Serif" font-size="10.00">QIODevice</text>
</a>
</g>
</g>
<!-- Node4&#45;&gt;Node3 -->
<g id="edge3" class="edge">
<title>Node4&#45;&gt;Node3</title>
<path fill="none" stroke="midnightblue" d="M75.5,-157.8C75.5,-148.91 75.5,-138.78 75.5,-131.75"/>
<polygon fill="midnightblue" stroke="midnightblue" points="72,-158.08 75.5,-168.08 79,-158.08 72,-158.08"/>
</g>
<!-- Node5 -->
<g id="node5" class="node">
<title>Node5</title>
<g id="a_node5"><a target="_parent" xlink:href="http://doc.qt.io/qt-5/qobject.html" xlink:title=" ">
<polygon fill="none" stroke="black" points="47.5,-224.5 47.5,-243.5 103.5,-243.5 103.5,-224.5 47.5,-224.5"/>
<text text-anchor="middle" x="75.5" y="-231.5" font-family="Helvetica,sans-Serif" font-size="10.00">QObject</text>
</a>
</g>
</g>
<!-- Node5&#45;&gt;Node4 -->
<g id="edge4" class="edge">
<title>Node5&#45;&gt;Node4</title>
<path fill="none" stroke="midnightblue" d="M75.5,-213.8C75.5,-204.91 75.5,-194.78 75.5,-187.75"/>
<polygon fill="midnightblue" stroke="midnightblue" points="72,-214.08 75.5,-224.08 79,-214.08 72,-214.08"/>
</g>
</g>
</svg>
