<?xml version="1.0" encoding="UTF-8" standalone="no"?>
<!DOCTYPE svg PUBLIC "-//W3C//DTD SVG 1.1//EN"
 "http://www.w3.org/Graphics/SVG/1.1/DTD/svg11.dtd">
<!-- Generated by graphviz version 2.43.0 (0)
 -->
<!-- Title: XSwiftBus::CDBusObject Pages: 1 -->
<svg width="385pt" height="140pt"
 viewBox="0.00 0.00 384.50 140.00" xmlns="http://www.w3.org/2000/svg" xmlns:xlink="http://www.w3.org/1999/xlink">
<g id="graph0" class="graph" transform="scale(1 1) rotate(0) translate(4 136)">
<title>XSwiftBus::CDBusObject</title>
<!-- Node1 -->
<g id="node1" class="node">
<title>Node1</title>
<g id="a_node1"><a xlink:title="DBus base object.">
<polygon fill="#bfbfbf" stroke="black" points="118.5,-56.5 118.5,-75.5 253.5,-75.5 253.5,-56.5 118.5,-56.5"/>
<text text-anchor="middle" x="186" y="-63.5" font-family="Helvetica,sans-Serif" font-size="10.00">XSwiftBus::CDBusObject</text>
</a>
</g>
</g>
<!-- Node3 -->
<g id="node3" class="node">
<title>Node3</title>
<g id="a_node3"><a xlink:href="class_x_swift_bus_1_1_c_service.html" target="_top" xlink:title="XSwiftBus service object which is accessible through DBus.">
<polygon fill="none" stroke="black" points="0,-0.5 0,-19.5 114,-19.5 114,-0.5 0,-0.5"/>
<text text-anchor="middle" x="57" y="-7.5" font-family="Helvetica,sans-Serif" font-size="10.00">XSwiftBus::CService</text>
</a>
</g>
</g>
<!-- Node1&#45;&gt;Node3 -->
<g id="edge2" class="edge">
<title>Node1&#45;&gt;Node3</title>
<path fill="none" stroke="midnightblue" d="M156.15,-52.5C131.96,-42.38 98.54,-28.39 77.34,-19.52"/>
<polygon fill="midnightblue" stroke="midnightblue" points="154.98,-55.81 165.56,-56.44 157.69,-49.35 154.98,-55.81"/>
</g>
<!-- Node4 -->
<g id="node4" class="node">
<title>Node4</title>
<g id="a_node4"><a xlink:href="class_x_swift_bus_1_1_c_traffic.html" target="_top" xlink:title="XSwiftBus service object for traffic aircraft which is accessible through DBus.">
<polygon fill="none" stroke="black" points="132.5,-0.5 132.5,-19.5 239.5,-19.5 239.5,-0.5 132.5,-0.5"/>
<text text-anchor="middle" x="186" y="-7.5" font-family="Helvetica,sans-Serif" font-size="10.00">XSwiftBus::CTraffic</text>
</a>
</g>
</g>
<!-- Node1&#45;&gt;Node4 -->
<g id="edge3" class="edge">
<title>Node1&#45;&gt;Node4</title>
<path fill="none" stroke="midnightblue" d="M186,-45.8C186,-36.91 186,-26.78 186,-19.75"/>
<polygon fill="midnightblue" stroke="midnightblue" points="182.5,-46.08 186,-56.08 189.5,-46.08 182.5,-46.08"/>
</g>
<!-- Node5 -->
<g id="node5" class="node">
<title>Node5</title>
<g id="a_node5"><a xlink:href="class_x_swift_bus_1_1_c_weather.html" target="_top" xlink:title="XSwiftBus weather object which is accessible through DBus.">
<polygon fill="none" stroke="black" points="257.5,-0.5 257.5,-19.5 376.5,-19.5 376.5,-0.5 257.5,-0.5"/>
<text text-anchor="middle" x="317" y="-7.5" font-family="Helvetica,sans-Serif" font-size="10.00">XSwiftBus::CWeather</text>
</a>
</g>
</g>
<!-- Node1&#45;&gt;Node5 -->
<g id="edge4" class="edge">
<title>Node1&#45;&gt;Node5</title>
<path fill="none" stroke="midnightblue" d="M216.32,-52.5C240.88,-42.38 274.82,-28.39 296.34,-19.52"/>
<polygon fill="midnightblue" stroke="midnightblue" points="214.67,-49.4 206.76,-56.44 217.34,-55.87 214.67,-49.4"/>
</g>
<!-- Node2 -->
<g id="node2" class="node">
<title>Node2</title>
<g id="a_node2"><a xlink:href="class_x_swift_bus_1_1_c_settings_aware.html" target="_top" xlink:title="Something having access to the settings.">
<polygon fill="none" stroke="black" points="111.5,-112.5 111.5,-131.5 260.5,-131.5 260.5,-112.5 111.5,-112.5"/>
<text text-anchor="middle" x="186" y="-119.5" font-family="Helvetica,sans-Serif" font-size="10.00">XSwiftBus::CSettingsAware</text>
</a>
</g>
</g>
<!-- Node2&#45;&gt;Node1 -->
<g id="edge1" class="edge">
<title>Node2&#45;&gt;Node1</title>
<path fill="none" stroke="midnightblue" d="M186,-101.8C186,-92.91 186,-82.78 186,-75.75"/>
<polygon fill="midnightblue" stroke="midnightblue" points="182.5,-102.08 186,-112.08 189.5,-102.08 182.5,-102.08"/>
</g>
</g>
</svg>
