<?xml version="1.0" encoding="UTF-8" standalone="no"?>
<!DOCTYPE svg PUBLIC "-//W3C//DTD SVG 1.1//EN"
 "http://www.w3.org/Graphics/SVG/1.1/DTD/svg11.dtd">
<!-- Generated by graphviz version 2.43.0 (0)
 -->
<!-- Title: BlackGui::Components::CSimulatorComponent Pages: 1 -->
<svg width="281pt" height="218pt"
 viewBox="0.00 0.00 281.00 218.00" xmlns="http://www.w3.org/2000/svg" xmlns:xlink="http://www.w3.org/1999/xlink">
<g id="graph0" class="graph" transform="scale(1 1) rotate(0) translate(4 214)">
<title>BlackGui::Components::CSimulatorComponent</title>
<!-- Node1 -->
<g id="node1" class="node">
<title>Node1</title>
<g id="a_node1"><a xlink:title="Simulator component.">
<polygon fill="#bfbfbf" stroke="black" points="68.5,-0.5 68.5,-30.5 201.5,-30.5 201.5,-0.5 68.5,-0.5"/>
<text text-anchor="start" x="76.5" y="-18.5" font-family="Helvetica,sans-Serif" font-size="10.00">BlackGui::Components</text>
<text text-anchor="middle" x="135" y="-7.5" font-family="Helvetica,sans-Serif" font-size="10.00">::CSimulatorComponent</text>
</a>
</g>
</g>
<!-- Node2 -->
<g id="node2" class="node">
<title>Node2</title>
<g id="a_node2"><a target="_parent" xlink:href="http://doc.qt.io/qt-5/qtabwidget.html" xlink:title=" ">
<polygon fill="none" stroke="black" points="33.5,-73 33.5,-92 108.5,-92 108.5,-73 33.5,-73"/>
<text text-anchor="middle" x="71" y="-80" font-family="Helvetica,sans-Serif" font-size="10.00">QTabWidget</text>
</a>
</g>
</g>
<!-- Node2&#45;&gt;Node1 -->
<g id="edge1" class="edge">
<title>Node2&#45;&gt;Node1</title>
<path fill="none" stroke="midnightblue" d="M86.95,-65.3C97.45,-54.63 111.07,-40.8 121.13,-30.59"/>
<polygon fill="midnightblue" stroke="midnightblue" points="84.15,-63.15 79.63,-72.73 89.14,-68.06 84.15,-63.15"/>
</g>
<!-- Node3 -->
<g id="node3" class="node">
<title>Node3</title>
<g id="a_node3"><a target="_parent" xlink:href="http://doc.qt.io/qt-5/qwidget.html" xlink:title=" ">
<polygon fill="none" stroke="black" points="41.5,-134.5 41.5,-153.5 100.5,-153.5 100.5,-134.5 41.5,-134.5"/>
<text text-anchor="middle" x="71" y="-141.5" font-family="Helvetica,sans-Serif" font-size="10.00">QWidget</text>
</a>
</g>
</g>
<!-- Node3&#45;&gt;Node2 -->
<g id="edge2" class="edge">
<title>Node3&#45;&gt;Node2</title>
<path fill="none" stroke="midnightblue" d="M71,-124.32C71,-113.5 71,-100.4 71,-92.01"/>
<polygon fill="midnightblue" stroke="midnightblue" points="67.5,-124.48 71,-134.48 74.5,-124.48 67.5,-124.48"/>
</g>
<!-- Node4 -->
<g id="node4" class="node">
<title>Node4</title>
<g id="a_node4"><a target="_parent" xlink:href="http://doc.qt.io/qt-5/qobject.html" xlink:title=" ">
<polygon fill="none" stroke="black" points="0,-190.5 0,-209.5 56,-209.5 56,-190.5 0,-190.5"/>
<text text-anchor="middle" x="28" y="-197.5" font-family="Helvetica,sans-Serif" font-size="10.00">QObject</text>
</a>
</g>
</g>
<!-- Node4&#45;&gt;Node3 -->
<g id="edge3" class="edge">
<title>Node4&#45;&gt;Node3</title>
<path fill="none" stroke="midnightblue" d="M41.42,-182.14C48.91,-172.74 57.94,-161.4 64.03,-153.75"/>
<polygon fill="midnightblue" stroke="midnightblue" points="38.59,-180.08 35.1,-190.08 44.07,-184.44 38.59,-180.08"/>
</g>
<!-- Node5 -->
<g id="node5" class="node">
<title>Node5</title>
<g id="a_node5"><a target="_parent" xlink:href="http://doc.qt.io/qt-5/qpaintdevice.html" xlink:title=" ">
<polygon fill="none" stroke="black" points="74,-190.5 74,-209.5 156,-209.5 156,-190.5 74,-190.5"/>
<text text-anchor="middle" x="115" y="-197.5" font-family="Helvetica,sans-Serif" font-size="10.00">QPaintDevice</text>
</a>
</g>
</g>
<!-- Node5&#45;&gt;Node3 -->
<g id="edge4" class="edge">
<title>Node5&#45;&gt;Node3</title>
<path fill="none" stroke="midnightblue" d="M101.27,-182.14C93.6,-172.74 84.37,-161.4 78.13,-153.75"/>
<polygon fill="midnightblue" stroke="midnightblue" points="98.7,-184.54 107.73,-190.08 104.13,-180.12 98.7,-184.54"/>
</g>
<!-- Node6 -->
<g id="node6" class="node">
<title>Node6</title>
<g id="a_node6"><a xlink:href="class_black_gui_1_1_c_enable_for_dock_widget_info_area.html" target="_top" xlink:title="Helper class: If a component is residing in an dockable widget. This class provides access to its inf...">
<polygon fill="none" stroke="black" points="127,-67.5 127,-97.5 273,-97.5 273,-67.5 127,-67.5"/>
<text text-anchor="start" x="135" y="-85.5" font-family="Helvetica,sans-Serif" font-size="10.00">BlackGui::CEnableForDock</text>
<text text-anchor="middle" x="200" y="-74.5" font-family="Helvetica,sans-Serif" font-size="10.00">WidgetInfoArea</text>
</a>
</g>
</g>
<!-- Node6&#45;&gt;Node1 -->
<g id="edge5" class="edge">
<title>Node6&#45;&gt;Node1</title>
<path fill="none" stroke="midnightblue" d="M178.81,-60.31C169.06,-50.56 157.76,-39.26 149.08,-30.58"/>
<polygon fill="midnightblue" stroke="midnightblue" points="176.35,-62.8 185.9,-67.4 181.3,-57.85 176.35,-62.8"/>
</g>
</g>
</svg>
