<?xml version="1.0" encoding="UTF-8" standalone="no"?>
<!DOCTYPE svg PUBLIC "-//W3C//DTD SVG 1.1//EN"
 "http://www.w3.org/Graphics/SVG/1.1/DTD/svg11.dtd">
<!-- Generated by graphviz version 2.43.0 (0)
 -->
<!-- Title: BlackMisc::SharedState::CGenericListObserver Pages: 1 -->
<svg width="653pt" height="160pt"
 viewBox="0.00 0.00 653.00 159.50" xmlns="http://www.w3.org/2000/svg" xmlns:xlink="http://www.w3.org/1999/xlink">
<g id="graph0" class="graph" transform="scale(1 1) rotate(0) translate(4 155.5)">
<title>BlackMisc::SharedState::CGenericListObserver</title>
<!-- Node1 -->
<g id="node1" class="node">
<title>Node1</title>
<g id="a_node1"><a xlink:title="Non&#45;template base class for CListObserver.">
<polygon fill="#bfbfbf" stroke="black" points="92,-55.5 92,-85.5 223,-85.5 223,-55.5 92,-55.5"/>
<text text-anchor="start" x="100" y="-73.5" font-family="Helvetica,sans-Serif" font-size="10.00">BlackMisc::SharedState</text>
<text text-anchor="middle" x="157.5" y="-62.5" font-family="Helvetica,sans-Serif" font-size="10.00">::CGenericListObserver</text>
</a>
</g>
</g>
<!-- Node3 -->
<g id="node3" class="node">
<title>Node3</title>
<g id="a_node3"><a xlink:href="class_black_misc_1_1_shared_state_1_1_c_list_observer.html" target="_top" xlink:title=" ">
<polygon fill="none" stroke="black" points="259,-110 259,-151 442,-151 442,-110 259,-110"/>
<text text-anchor="start" x="267" y="-139" font-family="Helvetica,sans-Serif" font-size="10.00">BlackMisc::SharedState</text>
<text text-anchor="start" x="267" y="-128" font-family="Helvetica,sans-Serif" font-size="10.00">::CListObserver&lt; CStatusMessage</text>
<text text-anchor="middle" x="350.5" y="-117" font-family="Helvetica,sans-Serif" font-size="10.00">List, CLogPattern &gt;</text>
</a>
</g>
</g>
<!-- Node1&#45;&gt;Node3 -->
<g id="edge2" class="edge">
<title>Node1&#45;&gt;Node3</title>
<path fill="none" stroke="midnightblue" d="M216.28,-88.65C237.64,-95.36 262,-103.01 284,-109.92"/>
<polygon fill="midnightblue" stroke="midnightblue" points="217.29,-85.3 206.7,-85.64 215.19,-91.98 217.29,-85.3"/>
</g>
<!-- Node5 -->
<g id="node5" class="node">
<title>Node5</title>
<g id="a_node5"><a xlink:href="class_black_misc_1_1_shared_state_1_1_c_list_observer.html" target="_top" xlink:title=" ">
<polygon fill="none" stroke="black" points="285,-50 285,-91 416,-91 416,-50 285,-50"/>
<text text-anchor="start" x="293" y="-79" font-family="Helvetica,sans-Serif" font-size="10.00">BlackMisc::SharedState</text>
<text text-anchor="start" x="293" y="-68" font-family="Helvetica,sans-Serif" font-size="10.00">::CListObserver&lt; QList</text>
<text text-anchor="middle" x="350.5" y="-57" font-family="Helvetica,sans-Serif" font-size="10.00">&lt; int &gt;, CTestFilter &gt;</text>
</a>
</g>
</g>
<!-- Node1&#45;&gt;Node5 -->
<g id="edge4" class="edge">
<title>Node1&#45;&gt;Node5</title>
<path fill="none" stroke="midnightblue" d="M233.59,-70.5C250.55,-70.5 268.42,-70.5 284.9,-70.5"/>
<polygon fill="midnightblue" stroke="midnightblue" points="233.16,-67 223.16,-70.5 233.16,-74 233.16,-67"/>
</g>
<!-- Node7 -->
<g id="node7" class="node">
<title>Node7</title>
<g id="a_node7"><a xlink:href="class_black_misc_1_1_shared_state_1_1_c_list_observer.html" target="_top" xlink:title="Base class for an object that shares state with a corresponding CListMutator subclass object.">
<polygon fill="none" stroke="black" points="284,-0.5 284,-30.5 417,-30.5 417,-0.5 284,-0.5"/>
<text text-anchor="start" x="292" y="-18.5" font-family="Helvetica,sans-Serif" font-size="10.00">BlackMisc::SharedState</text>
<text text-anchor="middle" x="350.5" y="-7.5" font-family="Helvetica,sans-Serif" font-size="10.00">::CListObserver&lt; T, U &gt;</text>
</a>
</g>
</g>
<!-- Node1&#45;&gt;Node7 -->
<g id="edge6" class="edge">
<title>Node1&#45;&gt;Node7</title>
<path fill="none" stroke="midnightblue" d="M217.72,-52.6C231.27,-48.57 245.62,-44.34 259,-40.5 270.44,-37.21 282.71,-33.77 294.41,-30.52"/>
<polygon fill="midnightblue" stroke="midnightblue" points="216.61,-49.28 208.02,-55.5 218.61,-55.99 216.61,-49.28"/>
</g>
<!-- Node2 -->
<g id="node2" class="node">
<title>Node2</title>
<g id="a_node2"><a target="_parent" xlink:href="http://doc.qt.io/qt-5/qobject.html" xlink:title=" ">
<polygon fill="none" stroke="black" points="0,-61 0,-80 56,-80 56,-61 0,-61"/>
<text text-anchor="middle" x="28" y="-68" font-family="Helvetica,sans-Serif" font-size="10.00">QObject</text>
</a>
</g>
</g>
<!-- Node2&#45;&gt;Node1 -->
<g id="edge1" class="edge">
<title>Node2&#45;&gt;Node1</title>
<path fill="none" stroke="midnightblue" d="M66.24,-70.5C74.35,-70.5 83.16,-70.5 91.99,-70.5"/>
<polygon fill="midnightblue" stroke="midnightblue" points="66.04,-67 56.04,-70.5 66.04,-74 66.04,-67"/>
</g>
<!-- Node4 -->
<g id="node4" class="node">
<title>Node4</title>
<g id="a_node4"><a xlink:href="class_black_misc_1_1_c_log_history_replica.html" target="_top" xlink:title="Allows distributed access to the log messages of a central CLogHistory.">
<polygon fill="none" stroke="black" points="478,-121 478,-140 645,-140 645,-121 478,-121"/>
<text text-anchor="middle" x="561.5" y="-128" font-family="Helvetica,sans-Serif" font-size="10.00">BlackMisc::CLogHistoryReplica</text>
</a>
</g>
</g>
<!-- Node3&#45;&gt;Node4 -->
<g id="edge3" class="edge">
<title>Node3&#45;&gt;Node4</title>
<path fill="none" stroke="midnightblue" d="M452.53,-130.5C460.97,-130.5 469.44,-130.5 477.72,-130.5"/>
<polygon fill="midnightblue" stroke="midnightblue" points="452.26,-127 442.26,-130.5 452.26,-134 452.26,-127"/>
</g>
<!-- Node6 -->
<g id="node6" class="node">
<title>Node6</title>
<g id="a_node6"><a xlink:href="class_black_misc_test_1_1_c_test_list_observer.html" target="_top" xlink:title="List observer subclass.">
<polygon fill="none" stroke="black" points="494,-55.5 494,-85.5 629,-85.5 629,-55.5 494,-55.5"/>
<text text-anchor="start" x="502" y="-73.5" font-family="Helvetica,sans-Serif" font-size="10.00">BlackMiscTest::CTestList</text>
<text text-anchor="middle" x="561.5" y="-62.5" font-family="Helvetica,sans-Serif" font-size="10.00">Observer</text>
</a>
</g>
</g>
<!-- Node5&#45;&gt;Node6 -->
<g id="edge5" class="edge">
<title>Node5&#45;&gt;Node6</title>
<path fill="none" stroke="midnightblue" d="M426.21,-70.5C448.32,-70.5 472.38,-70.5 493.94,-70.5"/>
<polygon fill="midnightblue" stroke="midnightblue" points="426.2,-67 416.2,-70.5 426.2,-74 426.2,-67"/>
</g>
</g>
</svg>
