<?xml version="1.0" encoding="UTF-8" standalone="no"?>
<!DOCTYPE svg PUBLIC "-//W3C//DTD SVG 1.1//EN"
 "http://www.w3.org/Graphics/SVG/1.1/DTD/svg11.dtd">
<!-- Generated by graphviz version 2.43.0 (0)
 -->
<!-- Title: BlackCore::ISimulatorFactory Pages: 1 -->
<svg width="363pt" height="333pt"
 viewBox="0.00 0.00 363.00 333.00" xmlns="http://www.w3.org/2000/svg" xmlns:xlink="http://www.w3.org/1999/xlink">
<g id="graph0" class="graph" transform="scale(1 1) rotate(0) translate(4 329)">
<title>BlackCore::ISimulatorFactory</title>
<!-- Node1 -->
<g id="node1" class="node">
<title>Node1</title>
<g id="a_node1"><a xlink:title="Factory pattern class to create instances of ISimulator.">
<polygon fill="#bfbfbf" stroke="black" points="0,-153 0,-172 158,-172 158,-153 0,-153"/>
<text text-anchor="middle" x="79" y="-160" font-family="Helvetica,sans-Serif" font-size="10.00">BlackCore::ISimulatorFactory</text>
</a>
</g>
</g>
<!-- Node2 -->
<g id="node2" class="node">
<title>Node2</title>
<g id="a_node2"><a xlink:href="class_black_sim_plugin_1_1_emulated_1_1_c_simulator_emulated_factory.html" target="_top" xlink:title="Factory implementation to create CSimulatorEmulated instances.">
<polygon fill="none" stroke="black" points="195.5,-294.5 195.5,-324.5 353.5,-324.5 353.5,-294.5 195.5,-294.5"/>
<text text-anchor="start" x="203.5" y="-312.5" font-family="Helvetica,sans-Serif" font-size="10.00">BlackSimPlugin::Emulated</text>
<text text-anchor="middle" x="274.5" y="-301.5" font-family="Helvetica,sans-Serif" font-size="10.00">::CSimulatorEmulatedFactory</text>
</a>
</g>
</g>
<!-- Node1&#45;&gt;Node2 -->
<g id="edge1" class="edge">
<title>Node1&#45;&gt;Node2</title>
<path fill="none" stroke="midnightblue" d="M91.93,-180.54C110.57,-207.33 149.16,-257.49 194,-285.5 199.5,-288.94 205.53,-291.91 211.72,-294.47"/>
<polygon fill="midnightblue" stroke="midnightblue" points="94.71,-178.4 86.19,-172.11 88.93,-182.34 94.71,-178.4"/>
</g>
<!-- Node3 -->
<g id="node3" class="node">
<title>Node3</title>
<g id="a_node3"><a xlink:href="class_black_sim_plugin_1_1_flightgear_1_1_c_simulator_flightgear_factory.html" target="_top" xlink:title="Factory for creating CSimulatorFlightgear instance.">
<polygon fill="none" stroke="black" points="194,-245.5 194,-275.5 355,-275.5 355,-245.5 194,-245.5"/>
<text text-anchor="start" x="202" y="-263.5" font-family="Helvetica,sans-Serif" font-size="10.00">BlackSimPlugin::Flightgear</text>
<text text-anchor="middle" x="274.5" y="-252.5" font-family="Helvetica,sans-Serif" font-size="10.00">::CSimulatorFlightgearFactory</text>
</a>
</g>
</g>
<!-- Node1&#45;&gt;Node3 -->
<g id="edge2" class="edge">
<title>Node1&#45;&gt;Node3</title>
<path fill="none" stroke="midnightblue" d="M100.55,-178.41C122.62,-194.86 159.2,-220.35 194,-236.5 201.06,-239.78 208.68,-242.74 216.31,-245.37"/>
<polygon fill="midnightblue" stroke="midnightblue" points="102.39,-175.42 92.31,-172.18 98.17,-181 102.39,-175.42"/>
</g>
<!-- Node4 -->
<g id="node4" class="node">
<title>Node4</title>
<g id="a_node4"><a xlink:href="class_black_sim_plugin_1_1_fs9_1_1_c_simulator_fs9_factory.html" target="_top" xlink:title="Factory implementation to create CSimulatorFs9 instances.">
<polygon fill="none" stroke="black" points="210,-196.5 210,-226.5 339,-226.5 339,-196.5 210,-196.5"/>
<text text-anchor="start" x="218" y="-214.5" font-family="Helvetica,sans-Serif" font-size="10.00">BlackSimPlugin::Fs9</text>
<text text-anchor="middle" x="274.5" y="-203.5" font-family="Helvetica,sans-Serif" font-size="10.00">::CSimulatorFs9Factory</text>
</a>
</g>
</g>
<!-- Node1&#45;&gt;Node4 -->
<g id="edge3" class="edge">
<title>Node1&#45;&gt;Node4</title>
<path fill="none" stroke="midnightblue" d="M127.79,-174.6C153.88,-181.21 186.41,-189.45 214.12,-196.46"/>
<polygon fill="midnightblue" stroke="midnightblue" points="128.32,-171.13 117.77,-172.06 126.6,-177.91 128.32,-171.13"/>
</g>
<!-- Node5 -->
<g id="node5" class="node">
<title>Node5</title>
<g id="a_node5"><a xlink:href="class_black_sim_plugin_1_1_fsx_1_1_c_simulator_fsx_factory.html" target="_top" xlink:title="Factory implementation to create CSimulatorFsx instances.">
<polygon fill="none" stroke="black" points="210,-147.5 210,-177.5 339,-177.5 339,-147.5 210,-147.5"/>
<text text-anchor="start" x="218" y="-165.5" font-family="Helvetica,sans-Serif" font-size="10.00">BlackSimPlugin::Fsx</text>
<text text-anchor="middle" x="274.5" y="-154.5" font-family="Helvetica,sans-Serif" font-size="10.00">::CSimulatorFsxFactory</text>
</a>
</g>
</g>
<!-- Node1&#45;&gt;Node5 -->
<g id="edge4" class="edge">
<title>Node1&#45;&gt;Node5</title>
<path fill="none" stroke="midnightblue" d="M168.3,-162.5C182.33,-162.5 196.6,-162.5 209.91,-162.5"/>
<polygon fill="midnightblue" stroke="midnightblue" points="168.15,-159 158.15,-162.5 168.15,-166 168.15,-159"/>
</g>
<!-- Node6 -->
<g id="node6" class="node">
<title>Node6</title>
<g id="a_node6"><a xlink:href="class_black_sim_plugin_1_1_msfs_1_1_c_simulator_ms_fs_factory.html" target="_top" xlink:title="Factory implementation to create CSimulatorFsx instances.">
<polygon fill="none" stroke="black" points="206,-98.5 206,-128.5 343,-128.5 343,-98.5 206,-98.5"/>
<text text-anchor="start" x="214" y="-116.5" font-family="Helvetica,sans-Serif" font-size="10.00">BlackSimPlugin::Msfs</text>
<text text-anchor="middle" x="274.5" y="-105.5" font-family="Helvetica,sans-Serif" font-size="10.00">::CSimulatorMsFsFactory</text>
</a>
</g>
</g>
<!-- Node1&#45;&gt;Node6 -->
<g id="edge5" class="edge">
<title>Node1&#45;&gt;Node6</title>
<path fill="none" stroke="midnightblue" d="M127.79,-150.4C153.88,-143.79 186.41,-135.55 214.12,-128.54"/>
<polygon fill="midnightblue" stroke="midnightblue" points="126.6,-147.09 117.77,-152.94 128.32,-153.87 126.6,-147.09"/>
</g>
<!-- Node7 -->
<g id="node7" class="node">
<title>Node7</title>
<g id="a_node7"><a xlink:href="class_black_sim_plugin_1_1_p3_d_1_1_c_simulator_p3_d_factory.html" target="_top" xlink:title="Factory implementation to create CSimulatorP3D instances.">
<polygon fill="none" stroke="black" points="209,-49.5 209,-79.5 340,-79.5 340,-49.5 209,-49.5"/>
<text text-anchor="start" x="217" y="-67.5" font-family="Helvetica,sans-Serif" font-size="10.00">BlackSimPlugin::P3D</text>
<text text-anchor="middle" x="274.5" y="-56.5" font-family="Helvetica,sans-Serif" font-size="10.00">::CSimulatorP3DFactory</text>
</a>
</g>
</g>
<!-- Node1&#45;&gt;Node7 -->
<g id="edge6" class="edge">
<title>Node1&#45;&gt;Node7</title>
<path fill="none" stroke="midnightblue" d="M100.99,-146.64C123.14,-130.48 159.57,-105.59 194,-89.5 201.86,-85.83 210.41,-82.5 218.88,-79.56"/>
<polygon fill="midnightblue" stroke="midnightblue" points="98.65,-144.01 92.68,-152.77 102.81,-149.64 98.65,-144.01"/>
</g>
<!-- Node8 -->
<g id="node8" class="node">
<title>Node8</title>
<g id="a_node8"><a xlink:href="class_black_sim_plugin_1_1_x_plane_1_1_c_simulator_x_plane_factory.html" target="_top" xlink:title="Factory for creating CSimulatorXPlane instance.">
<polygon fill="none" stroke="black" points="201.5,-0.5 201.5,-30.5 347.5,-30.5 347.5,-0.5 201.5,-0.5"/>
<text text-anchor="start" x="209.5" y="-18.5" font-family="Helvetica,sans-Serif" font-size="10.00">BlackSimPlugin::XPlane</text>
<text text-anchor="middle" x="274.5" y="-7.5" font-family="Helvetica,sans-Serif" font-size="10.00">::CSimulatorXPlaneFactory</text>
</a>
</g>
</g>
<!-- Node1&#45;&gt;Node8 -->
<g id="edge7" class="edge">
<title>Node1&#45;&gt;Node8</title>
<path fill="none" stroke="midnightblue" d="M92.28,-144.29C111.13,-117.7 149.68,-68.41 194,-40.5 200.12,-36.65 206.88,-33.34 213.81,-30.52"/>
<polygon fill="midnightblue" stroke="midnightblue" points="89.29,-142.46 86.46,-152.67 95.04,-146.45 89.29,-142.46"/>
</g>
</g>
</svg>
