<?xml version="1.0" encoding="UTF-8" standalone="no"?>
<!DOCTYPE svg PUBLIC "-//W3C//DTD SVG 1.1//EN"
 "http://www.w3.org/Graphics/SVG/1.1/DTD/svg11.dtd">
<!-- Generated by graphviz version 2.43.0 (0)
 -->
<!-- Title: BlackGui::Components::CDbModelWorkbenchComponent Pages: 1 -->
<svg width="900pt" height="249pt"
 viewBox="0.00 0.00 900.00 248.50" xmlns="http://www.w3.org/2000/svg" xmlns:xlink="http://www.w3.org/1999/xlink">
<g id="graph0" class="graph" transform="scale(1 1) rotate(0) translate(4 244.5)">
<title>BlackGui::Components::CDbModelWorkbenchComponent</title>
<!-- Node1 -->
<g id="node1" class="node">
<title>Node1</title>
<g id="a_node1"><a xlink:title="Handling of own models on disk (the models installed for the simulator)">
<polygon fill="#bfbfbf" stroke="black" points="709,-98.5 709,-128.5 892,-128.5 892,-98.5 709,-98.5"/>
<text text-anchor="start" x="717" y="-116.5" font-family="Helvetica,sans-Serif" font-size="10.00">BlackGui::Components</text>
<text text-anchor="middle" x="800.5" y="-105.5" font-family="Helvetica,sans-Serif" font-size="10.00">::CDbModelWorkbenchComponent</text>
</a>
</g>
</g>
<!-- Node2 -->
<g id="node2" class="node">
<title>Node2</title>
<g id="a_node2"><a xlink:href="class_black_gui_1_1_c_overlay_messages_frame.html" target="_top" xlink:title="Using this class provides a QFrame with the overlay functionality already integrated.">
<polygon fill="none" stroke="black" points="506.5,-196.5 506.5,-226.5 666.5,-226.5 666.5,-196.5 506.5,-196.5"/>
<text text-anchor="start" x="514.5" y="-214.5" font-family="Helvetica,sans-Serif" font-size="10.00">BlackGui::COverlayMessages</text>
<text text-anchor="middle" x="586.5" y="-203.5" font-family="Helvetica,sans-Serif" font-size="10.00">Frame</text>
</a>
</g>
</g>
<!-- Node2&#45;&gt;Node1 -->
<g id="edge1" class="edge">
<title>Node2&#45;&gt;Node1</title>
<path fill="none" stroke="midnightblue" d="M655.95,-193.08C661.78,-191.03 667.53,-188.84 673,-186.5 711.24,-170.16 752.4,-144.79 777.05,-128.68"/>
<polygon fill="midnightblue" stroke="midnightblue" points="654.47,-189.89 646.11,-196.39 656.7,-196.52 654.47,-189.89"/>
</g>
<!-- Node3 -->
<g id="node3" class="node">
<title>Node3</title>
<g id="a_node3"><a xlink:href="class_black_gui_1_1_c_overlay_messages_base.html" target="_top" xlink:title=" ">
<polygon fill="none" stroke="black" points="304,-196.5 304,-226.5 464,-226.5 464,-196.5 304,-196.5"/>
<text text-anchor="start" x="312" y="-214.5" font-family="Helvetica,sans-Serif" font-size="10.00">BlackGui::COverlayMessages</text>
<text text-anchor="middle" x="384" y="-203.5" font-family="Helvetica,sans-Serif" font-size="10.00">Base&lt; QFrame &gt;</text>
</a>
</g>
</g>
<!-- Node3&#45;&gt;Node2 -->
<g id="edge2" class="edge">
<title>Node3&#45;&gt;Node2</title>
<path fill="none" stroke="midnightblue" d="M474.35,-211.5C484.95,-211.5 495.72,-211.5 506.18,-211.5"/>
<polygon fill="midnightblue" stroke="midnightblue" points="474.24,-208 464.24,-211.5 474.24,-215 474.24,-208"/>
</g>
<!-- Node4 -->
<g id="node4" class="node">
<title>Node4</title>
<g id="a_node4"><a target="_parent" xlink:href="http://doc.qt.io/qt-5/qframe.html" xlink:title=" ">
<polygon fill="none" stroke="black" points="213,-202 213,-221 268,-221 268,-202 213,-202"/>
<text text-anchor="middle" x="240.5" y="-209" font-family="Helvetica,sans-Serif" font-size="10.00">QFrame</text>
</a>
</g>
</g>
<!-- Node4&#45;&gt;Node3 -->
<g id="edge3" class="edge">
<title>Node4&#45;&gt;Node3</title>
<path fill="none" stroke="midnightblue" d="M278.17,-211.5C286.19,-211.5 294.98,-211.5 303.95,-211.5"/>
<polygon fill="midnightblue" stroke="midnightblue" points="278.12,-208 268.12,-211.5 278.12,-215 278.12,-208"/>
</g>
<!-- Node5 -->
<g id="node5" class="node">
<title>Node5</title>
<g id="a_node5"><a target="_parent" xlink:href="http://doc.qt.io/qt-5/qwidget.html" xlink:title=" ">
<polygon fill="none" stroke="black" points="118,-202 118,-221 177,-221 177,-202 118,-202"/>
<text text-anchor="middle" x="147.5" y="-209" font-family="Helvetica,sans-Serif" font-size="10.00">QWidget</text>
</a>
</g>
</g>
<!-- Node5&#45;&gt;Node4 -->
<g id="edge4" class="edge">
<title>Node5&#45;&gt;Node4</title>
<path fill="none" stroke="midnightblue" d="M187.46,-211.5C195.99,-211.5 204.83,-211.5 212.75,-211.5"/>
<polygon fill="midnightblue" stroke="midnightblue" points="187.29,-208 177.29,-211.5 187.29,-215 187.29,-208"/>
</g>
<!-- Node6 -->
<g id="node6" class="node">
<title>Node6</title>
<g id="a_node6"><a target="_parent" xlink:href="http://doc.qt.io/qt-5/qobject.html" xlink:title=" ">
<polygon fill="none" stroke="black" points="13,-221 13,-240 69,-240 69,-221 13,-221"/>
<text text-anchor="middle" x="41" y="-228" font-family="Helvetica,sans-Serif" font-size="10.00">QObject</text>
</a>
</g>
</g>
<!-- Node6&#45;&gt;Node5 -->
<g id="edge5" class="edge">
<title>Node6&#45;&gt;Node5</title>
<path fill="none" stroke="midnightblue" d="M79.09,-223.76C91.88,-221.43 106,-218.86 117.99,-216.68"/>
<polygon fill="midnightblue" stroke="midnightblue" points="78.4,-220.33 69.18,-225.56 79.65,-227.21 78.4,-220.33"/>
</g>
<!-- Node7 -->
<g id="node7" class="node">
<title>Node7</title>
<g id="a_node7"><a target="_parent" xlink:href="http://doc.qt.io/qt-5/qpaintdevice.html" xlink:title=" ">
<polygon fill="none" stroke="black" points="0,-183 0,-202 82,-202 82,-183 0,-183"/>
<text text-anchor="middle" x="41" y="-190" font-family="Helvetica,sans-Serif" font-size="10.00">QPaintDevice</text>
</a>
</g>
</g>
<!-- Node7&#45;&gt;Node5 -->
<g id="edge6" class="edge">
<title>Node7&#45;&gt;Node5</title>
<path fill="none" stroke="midnightblue" d="M91.97,-201.59C100.8,-203.19 109.71,-204.81 117.69,-206.26"/>
<polygon fill="midnightblue" stroke="midnightblue" points="92.57,-198.14 82.1,-199.79 91.32,-205.02 92.57,-198.14"/>
</g>
<!-- Node8 -->
<g id="node8" class="node">
<title>Node8</title>
<g id="a_node8"><a xlink:href="class_black_misc_1_1_simulation_1_1_i_models_setable.html" target="_top" xlink:title="Interface to &quot;something&quot; backing models, which can be set.">
<polygon fill="none" stroke="black" points="524,-147.5 524,-177.5 649,-177.5 649,-147.5 524,-147.5"/>
<text text-anchor="start" x="532" y="-165.5" font-family="Helvetica,sans-Serif" font-size="10.00">BlackMisc::Simulation</text>
<text text-anchor="middle" x="586.5" y="-154.5" font-family="Helvetica,sans-Serif" font-size="10.00">::IModelsSetable</text>
</a>
</g>
</g>
<!-- Node8&#45;&gt;Node1 -->
<g id="edge7" class="edge">
<title>Node8&#45;&gt;Node1</title>
<path fill="none" stroke="midnightblue" d="M659.02,-145.97C683.42,-140.33 710.55,-134.06 734.42,-128.54"/>
<polygon fill="midnightblue" stroke="midnightblue" points="658.06,-142.6 649.1,-148.26 659.64,-149.42 658.06,-142.6"/>
</g>
<!-- Node9 -->
<g id="node9" class="node">
<title>Node9</title>
<g id="a_node9"><a xlink:href="class_black_misc_1_1_simulation_1_1_i_models_updatable.html" target="_top" xlink:title="Interface to &quot;something&quot; backing models, which can be modified (updated)">
<polygon fill="none" stroke="black" points="524,-98.5 524,-128.5 649,-128.5 649,-98.5 524,-98.5"/>
<text text-anchor="start" x="532" y="-116.5" font-family="Helvetica,sans-Serif" font-size="10.00">BlackMisc::Simulation</text>
<text text-anchor="middle" x="586.5" y="-105.5" font-family="Helvetica,sans-Serif" font-size="10.00">::IModelsUpdatable</text>
</a>
</g>
</g>
<!-- Node9&#45;&gt;Node1 -->
<g id="edge8" class="edge">
<title>Node9&#45;&gt;Node1</title>
<path fill="none" stroke="midnightblue" d="M659.39,-113.5C675.31,-113.5 692.39,-113.5 708.96,-113.5"/>
<polygon fill="midnightblue" stroke="midnightblue" points="659.1,-110 649.1,-113.5 659.1,-117 659.1,-110"/>
</g>
<!-- Node10 -->
<g id="node10" class="node">
<title>Node10</title>
<g id="a_node10"><a xlink:href="class_black_misc_1_1_simulation_1_1_i_models_for_simulator_setable.html" target="_top" xlink:title="Interface to &quot;something&quot; backing models, which can be set.">
<polygon fill="none" stroke="black" points="506.5,-49.5 506.5,-79.5 666.5,-79.5 666.5,-49.5 506.5,-49.5"/>
<text text-anchor="start" x="514.5" y="-67.5" font-family="Helvetica,sans-Serif" font-size="10.00">BlackMisc::Simulation</text>
<text text-anchor="middle" x="586.5" y="-56.5" font-family="Helvetica,sans-Serif" font-size="10.00">::IModelsForSimulatorSetable</text>
</a>
</g>
</g>
<!-- Node10&#45;&gt;Node1 -->
<g id="edge9" class="edge">
<title>Node10&#45;&gt;Node1</title>
<path fill="none" stroke="midnightblue" d="M662.48,-81.83C686.02,-87.27 711.79,-93.23 734.58,-98.49"/>
<polygon fill="midnightblue" stroke="midnightblue" points="663.08,-78.38 652.55,-79.53 661.5,-85.2 663.08,-78.38"/>
</g>
<!-- Node11 -->
<g id="node11" class="node">
<title>Node11</title>
<g id="a_node11"><a xlink:href="class_black_misc_1_1_simulation_1_1_i_models_for_simulator_updatable.html" target="_top" xlink:title="Interface to &quot;something&quot; backing models, which can be modified (updated)">
<polygon fill="none" stroke="black" points="500,-0.5 500,-30.5 673,-30.5 673,-0.5 500,-0.5"/>
<text text-anchor="start" x="508" y="-18.5" font-family="Helvetica,sans-Serif" font-size="10.00">BlackMisc::Simulation</text>
<text text-anchor="middle" x="586.5" y="-7.5" font-family="Helvetica,sans-Serif" font-size="10.00">::IModelsForSimulatorUpdatable</text>
</a>
</g>
</g>
<!-- Node11&#45;&gt;Node1 -->
<g id="edge10" class="edge">
<title>Node11&#45;&gt;Node1</title>
<path fill="none" stroke="midnightblue" d="M658.21,-33.8C663.27,-35.58 668.24,-37.48 673,-39.5 711.64,-55.91 753.02,-81.9 777.56,-98.32"/>
<polygon fill="midnightblue" stroke="midnightblue" points="659.01,-30.38 648.42,-30.52 656.79,-37.02 659.01,-30.38"/>
</g>
</g>
</svg>
