<?xml version="1.0" encoding="UTF-8" standalone="no"?>
<!DOCTYPE svg PUBLIC "-//W3C//DTD SVG 1.1//EN"
 "http://www.w3.org/Graphics/SVG/1.1/DTD/svg11.dtd">
<!-- Generated by graphviz version 2.43.0 (0)
 -->
<!-- Title: BlackGui::Filters::CAirlineIcaoFilterBar Pages: 1 -->
<svg width="644pt" height="113pt"
 viewBox="0.00 0.00 644.00 113.00" xmlns="http://www.w3.org/2000/svg" xmlns:xlink="http://www.w3.org/1999/xlink">
<g id="graph0" class="graph" transform="scale(1 1) rotate(0) translate(4 109)">
<title>BlackGui::Filters::CAirlineIcaoFilterBar</title>
<!-- Node1 -->
<g id="node1" class="node">
<title>Node1</title>
<g id="a_node1"><a xlink:title="Airline ICAO filter bar.">
<polygon fill="#bfbfbf" stroke="black" points="520,-33 520,-63 636,-63 636,-33 520,-33"/>
<text text-anchor="start" x="528" y="-51" font-family="Helvetica,sans-Serif" font-size="10.00">BlackGui::Filters::</text>
<text text-anchor="middle" x="578" y="-40" font-family="Helvetica,sans-Serif" font-size="10.00">CAirlineIcaoFilterBar</text>
</a>
</g>
</g>
<!-- Node2 -->
<g id="node2" class="node">
<title>Node2</title>
<g id="a_node2"><a xlink:href="class_black_gui_1_1_filters_1_1_c_filter_widget.html" target="_top" xlink:title="Base for filter dialog.">
<polygon fill="none" stroke="black" points="343,-61 343,-91 445,-91 445,-61 343,-61"/>
<text text-anchor="start" x="351" y="-79" font-family="Helvetica,sans-Serif" font-size="10.00">BlackGui::Filters::</text>
<text text-anchor="middle" x="394" y="-68" font-family="Helvetica,sans-Serif" font-size="10.00">CFilterWidget</text>
</a>
</g>
</g>
<!-- Node2&#45;&gt;Node1 -->
<g id="edge1" class="edge">
<title>Node2&#45;&gt;Node1</title>
<path fill="none" stroke="midnightblue" d="M455.22,-66.74C476.05,-63.53 499.31,-59.95 519.89,-56.79"/>
<polygon fill="midnightblue" stroke="midnightblue" points="454.57,-63.29 445.21,-68.27 455.63,-70.21 454.57,-63.29"/>
</g>
<!-- Node3 -->
<g id="node3" class="node">
<title>Node3</title>
<g id="a_node3"><a target="_parent" xlink:href="http://doc.qt.io/qt-5/qframe.html" xlink:title=" ">
<polygon fill="none" stroke="black" points="213,-66.5 213,-85.5 268,-85.5 268,-66.5 213,-66.5"/>
<text text-anchor="middle" x="240.5" y="-73.5" font-family="Helvetica,sans-Serif" font-size="10.00">QFrame</text>
</a>
</g>
</g>
<!-- Node3&#45;&gt;Node2 -->
<g id="edge2" class="edge">
<title>Node3&#45;&gt;Node2</title>
<path fill="none" stroke="midnightblue" d="M278.49,-76C297.89,-76 321.93,-76 342.96,-76"/>
<polygon fill="midnightblue" stroke="midnightblue" points="278.24,-72.5 268.24,-76 278.24,-79.5 278.24,-72.5"/>
</g>
<!-- Node4 -->
<g id="node4" class="node">
<title>Node4</title>
<g id="a_node4"><a target="_parent" xlink:href="http://doc.qt.io/qt-5/qwidget.html" xlink:title=" ">
<polygon fill="none" stroke="black" points="118,-66.5 118,-85.5 177,-85.5 177,-66.5 118,-66.5"/>
<text text-anchor="middle" x="147.5" y="-73.5" font-family="Helvetica,sans-Serif" font-size="10.00">QWidget</text>
</a>
</g>
</g>
<!-- Node4&#45;&gt;Node3 -->
<g id="edge3" class="edge">
<title>Node4&#45;&gt;Node3</title>
<path fill="none" stroke="midnightblue" d="M187.46,-76C195.99,-76 204.83,-76 212.75,-76"/>
<polygon fill="midnightblue" stroke="midnightblue" points="187.29,-72.5 177.29,-76 187.29,-79.5 187.29,-72.5"/>
</g>
<!-- Node5 -->
<g id="node5" class="node">
<title>Node5</title>
<g id="a_node5"><a target="_parent" xlink:href="http://doc.qt.io/qt-5/qobject.html" xlink:title=" ">
<polygon fill="none" stroke="black" points="13,-85.5 13,-104.5 69,-104.5 69,-85.5 13,-85.5"/>
<text text-anchor="middle" x="41" y="-92.5" font-family="Helvetica,sans-Serif" font-size="10.00">QObject</text>
</a>
</g>
</g>
<!-- Node5&#45;&gt;Node4 -->
<g id="edge4" class="edge">
<title>Node5&#45;&gt;Node4</title>
<path fill="none" stroke="midnightblue" d="M79.09,-88.26C91.88,-85.93 106,-83.36 117.99,-81.18"/>
<polygon fill="midnightblue" stroke="midnightblue" points="78.4,-84.83 69.18,-90.06 79.65,-91.71 78.4,-84.83"/>
</g>
<!-- Node6 -->
<g id="node6" class="node">
<title>Node6</title>
<g id="a_node6"><a target="_parent" xlink:href="http://doc.qt.io/qt-5/qpaintdevice.html" xlink:title=" ">
<polygon fill="none" stroke="black" points="0,-47.5 0,-66.5 82,-66.5 82,-47.5 0,-47.5"/>
<text text-anchor="middle" x="41" y="-54.5" font-family="Helvetica,sans-Serif" font-size="10.00">QPaintDevice</text>
</a>
</g>
</g>
<!-- Node6&#45;&gt;Node4 -->
<g id="edge5" class="edge">
<title>Node6&#45;&gt;Node4</title>
<path fill="none" stroke="midnightblue" d="M91.97,-66.09C100.8,-67.69 109.71,-69.31 117.69,-70.76"/>
<polygon fill="midnightblue" stroke="midnightblue" points="92.57,-62.64 82.1,-64.29 91.32,-69.52 92.57,-62.64"/>
</g>
<!-- Node7 -->
<g id="node7" class="node">
<title>Node7</title>
<g id="a_node7"><a xlink:href="class_black_gui_1_1_models_1_1_i_model_filter_provider.html" target="_top" xlink:title=" ">
<polygon fill="none" stroke="black" points="304,-0.5 304,-41.5 484,-41.5 484,-0.5 304,-0.5"/>
<text text-anchor="start" x="312" y="-29.5" font-family="Helvetica,sans-Serif" font-size="10.00">BlackGui::Models::IModel</text>
<text text-anchor="start" x="312" y="-18.5" font-family="Helvetica,sans-Serif" font-size="10.00">FilterProvider&lt; BlackMisc</text>
<text text-anchor="middle" x="394" y="-7.5" font-family="Helvetica,sans-Serif" font-size="10.00">::Aviation::CAirlineIcaoCodeList &gt;</text>
</a>
</g>
</g>
<!-- Node7&#45;&gt;Node1 -->
<g id="edge6" class="edge">
<title>Node7&#45;&gt;Node1</title>
<path fill="none" stroke="midnightblue" d="M494.1,-35.7C502.9,-37.01 511.61,-38.3 519.87,-39.53"/>
<polygon fill="midnightblue" stroke="midnightblue" points="494.54,-32.23 484.13,-34.22 493.51,-39.15 494.54,-32.23"/>
</g>
</g>
</svg>
