<?xml version="1.0" encoding="UTF-8" standalone="no"?>
<!DOCTYPE svg PUBLIC "-//W3C//DTD SVG 1.1//EN"
 "http://www.w3.org/Graphics/SVG/1.1/DTD/svg11.dtd">
<!-- Generated by graphviz version 2.43.0 (0)
 -->
<!-- Title: BlackMisc::Simulation::CRemoteAircraftAware Pages: 1 -->
<svg width="1265pt" height="378pt"
 viewBox="0.00 0.00 1265.00 377.50" xmlns="http://www.w3.org/2000/svg" xmlns:xlink="http://www.w3.org/1999/xlink">
<g id="graph0" class="graph" transform="scale(1 1) rotate(0) translate(4 373.5)">
<title>BlackMisc::Simulation::CRemoteAircraftAware</title>
<!-- Node1 -->
<g id="node1" class="node">
<title>Node1</title>
<g id="a_node1"><a xlink:title="Class which can be directly used to access an.">
<polygon fill="#bfbfbf" stroke="black" points="192,-180.5 192,-210.5 326,-210.5 326,-180.5 192,-180.5"/>
<text text-anchor="start" x="200" y="-198.5" font-family="Helvetica,sans-Serif" font-size="10.00">BlackMisc::Simulation</text>
<text text-anchor="middle" x="259" y="-187.5" font-family="Helvetica,sans-Serif" font-size="10.00">::CRemoteAircraftAware</text>
</a>
</g>
</g>
<!-- Node3 -->
<g id="node3" class="node">
<title>Node3</title>
<g id="a_node3"><a xlink:href="class_black_misc_1_1_simulation_1_1_c_interpolator.html" target="_top" xlink:title=" ">
<polygon fill="none" stroke="black" points="363.5,-328 363.5,-369 524.5,-369 524.5,-328 363.5,-328"/>
<text text-anchor="start" x="371.5" y="-357" font-family="Helvetica,sans-Serif" font-size="10.00">BlackMisc::Simulation</text>
<text text-anchor="start" x="371.5" y="-346" font-family="Helvetica,sans-Serif" font-size="10.00">::CInterpolator&lt; CInterpolator</text>
<text text-anchor="middle" x="444" y="-335" font-family="Helvetica,sans-Serif" font-size="10.00">Spline &gt;</text>
</a>
</g>
</g>
<!-- Node1&#45;&gt;Node3 -->
<g id="edge2" class="edge">
<title>Node1&#45;&gt;Node3</title>
<path fill="none" stroke="darkgreen" d="M274.11,-219.11C291.59,-246.52 323.77,-291.4 362,-318.5 366.89,-321.97 372.24,-325.09 377.77,-327.88"/>
<polygon fill="darkgreen" stroke="darkgreen" points="277.02,-217.17 268.76,-210.54 271.09,-220.88 277.02,-217.17"/>
</g>
<!-- Node5 -->
<g id="node5" class="node">
<title>Node5</title>
<g id="a_node5"><a xlink:href="class_black_misc_1_1_simulation_1_1_c_interpolator.html" target="_top" xlink:title=" ">
<polygon fill="none" stroke="black" points="363.5,-268 363.5,-309 524.5,-309 524.5,-268 363.5,-268"/>
<text text-anchor="start" x="371.5" y="-297" font-family="Helvetica,sans-Serif" font-size="10.00">BlackMisc::Simulation</text>
<text text-anchor="start" x="371.5" y="-286" font-family="Helvetica,sans-Serif" font-size="10.00">::CInterpolator&lt; CInterpolator</text>
<text text-anchor="middle" x="444" y="-275" font-family="Helvetica,sans-Serif" font-size="10.00">Linear &gt;</text>
</a>
</g>
</g>
<!-- Node1&#45;&gt;Node5 -->
<g id="edge4" class="edge">
<title>Node1&#45;&gt;Node5</title>
<path fill="none" stroke="darkgreen" d="M289.89,-216.15C309.76,-229.33 336.74,-246.18 362,-258.5 368.74,-261.79 375.93,-264.94 383.15,-267.87"/>
<polygon fill="darkgreen" stroke="darkgreen" points="291.82,-213.23 281.56,-210.57 287.92,-219.05 291.82,-213.23"/>
</g>
<!-- Node7 -->
<g id="node7" class="node">
<title>Node7</title>
<g id="a_node7"><a xlink:href="class_black_core_1_1_c_airspace_analyzer.html" target="_top" xlink:title="Class monitoring and analyzing (closest aircraft, outdated aircraft / watchdog) airspace in backgroun...">
<polygon fill="none" stroke="black" points="362,-230 362,-249 526,-249 526,-230 362,-230"/>
<text text-anchor="middle" x="444" y="-237" font-family="Helvetica,sans-Serif" font-size="10.00">BlackCore::CAirspaceAnalyzer</text>
</a>
</g>
</g>
<!-- Node1&#45;&gt;Node7 -->
<g id="edge6" class="edge">
<title>Node1&#45;&gt;Node7</title>
<path fill="none" stroke="midnightblue" d="M332.35,-212.9C356.58,-218.72 382.67,-225 403.44,-229.99"/>
<polygon fill="midnightblue" stroke="midnightblue" points="333.01,-209.45 322.47,-210.52 331.37,-216.26 333.01,-209.45"/>
</g>
<!-- Node8 -->
<g id="node8" class="node">
<title>Node8</title>
<g id="a_node8"><a xlink:href="class_black_core_1_1_context_1_1_c_context_simulator.html" target="_top" xlink:title="Network simulator concrete implementation.">
<polygon fill="none" stroke="black" points="386.5,-180.5 386.5,-210.5 501.5,-210.5 501.5,-180.5 386.5,-180.5"/>
<text text-anchor="start" x="394.5" y="-198.5" font-family="Helvetica,sans-Serif" font-size="10.00">BlackCore::Context</text>
<text text-anchor="middle" x="444" y="-187.5" font-family="Helvetica,sans-Serif" font-size="10.00">::CContextSimulator</text>
</a>
</g>
</g>
<!-- Node1&#45;&gt;Node8 -->
<g id="edge7" class="edge">
<title>Node1&#45;&gt;Node8</title>
<path fill="none" stroke="midnightblue" d="M336.39,-195.5C353.14,-195.5 370.59,-195.5 386.4,-195.5"/>
<polygon fill="midnightblue" stroke="midnightblue" points="336.07,-192 326.07,-195.5 336.07,-199 336.07,-192"/>
</g>
<!-- Node9 -->
<g id="node9" class="node">
<title>Node9</title>
<g id="a_node9"><a xlink:href="class_black_core_1_1_fsd_1_1_c_f_s_d_client.html" target="_top" xlink:title="FSD client Todo: Send (interim) data updates automatically Todo Check &#39;:&#39; in FSD messages....">
<polygon fill="none" stroke="black" points="369.5,-142 369.5,-161 518.5,-161 518.5,-142 369.5,-142"/>
<text text-anchor="middle" x="444" y="-149" font-family="Helvetica,sans-Serif" font-size="10.00">BlackCore::Fsd::CFSDClient</text>
</a>
</g>
</g>
<!-- Node1&#45;&gt;Node9 -->
<g id="edge8" class="edge">
<title>Node1&#45;&gt;Node9</title>
<path fill="none" stroke="midnightblue" d="M330.85,-178.04C341.29,-175.49 351.92,-172.92 362,-170.5 374.92,-167.4 389.02,-164.08 401.77,-161.09"/>
<polygon fill="midnightblue" stroke="midnightblue" points="329.81,-174.69 320.92,-180.46 331.47,-181.49 329.81,-174.69"/>
</g>
<!-- Node10 -->
<g id="node10" class="node">
<title>Node10</title>
<g id="a_node10"><a xlink:href="class_black_core_1_1_i_simulator.html" target="_top" xlink:title="Interface to a simulator.">
<polygon fill="none" stroke="black" points="383,-104 383,-123 505,-123 505,-104 383,-104"/>
<text text-anchor="middle" x="444" y="-111" font-family="Helvetica,sans-Serif" font-size="10.00">BlackCore::ISimulator</text>
</a>
</g>
</g>
<!-- Node1&#45;&gt;Node10 -->
<g id="edge9" class="edge">
<title>Node1&#45;&gt;Node10</title>
<path fill="none" stroke="midnightblue" d="M288.27,-174.57C308.03,-160.83 335.52,-143.44 362,-132.5 371.21,-128.69 381.34,-125.56 391.23,-123.01"/>
<polygon fill="midnightblue" stroke="midnightblue" points="286.18,-171.76 280.04,-180.39 290.22,-177.47 286.18,-171.76"/>
</g>
<!-- Node21 -->
<g id="node21" class="node">
<title>Node21</title>
<g id="a_node21"><a xlink:href="class_black_misc_1_1_simulation_1_1_c_interpolator.html" target="_top" xlink:title="Interpolator, calculation inbetween positions.">
<polygon fill="none" stroke="black" points="370.5,-54.5 370.5,-84.5 517.5,-84.5 517.5,-54.5 370.5,-54.5"/>
<text text-anchor="start" x="378.5" y="-72.5" font-family="Helvetica,sans-Serif" font-size="10.00">BlackMisc::Simulation</text>
<text text-anchor="middle" x="444" y="-61.5" font-family="Helvetica,sans-Serif" font-size="10.00">::CInterpolator&lt; Derived &gt;</text>
</a>
</g>
</g>
<!-- Node1&#45;&gt;Node21 -->
<g id="edge20" class="edge">
<title>Node1&#45;&gt;Node21</title>
<path fill="none" stroke="darkgreen" d="M277.74,-172.32C296.38,-149.46 327.73,-115.04 362,-94.5 368.31,-90.72 375.25,-87.46 382.32,-84.66"/>
<polygon fill="darkgreen" stroke="darkgreen" points="274.97,-170.18 271.46,-180.18 280.44,-174.55 274.97,-170.18"/>
</g>
<!-- Node2 -->
<g id="node2" class="node">
<title>Node2</title>
<g id="a_node2"><a xlink:href="class_black_misc_1_1_i_provider_aware.html" target="_top" xlink:title=" ">
<polygon fill="none" stroke="black" points="0,-180.5 0,-210.5 156,-210.5 156,-180.5 0,-180.5"/>
<text text-anchor="start" x="8" y="-198.5" font-family="Helvetica,sans-Serif" font-size="10.00">BlackMisc::IProviderAware</text>
<text text-anchor="middle" x="78" y="-187.5" font-family="Helvetica,sans-Serif" font-size="10.00">&lt; IRemoteAircraftProvider &gt;</text>
</a>
</g>
</g>
<!-- Node2&#45;&gt;Node1 -->
<g id="edge1" class="edge">
<title>Node2&#45;&gt;Node1</title>
<path fill="none" stroke="midnightblue" d="M166.32,-195.5C174.96,-195.5 183.63,-195.5 192,-195.5"/>
<polygon fill="midnightblue" stroke="midnightblue" points="166.21,-192 156.21,-195.5 166.21,-199 166.21,-192"/>
</g>
<!-- Node4 -->
<g id="node4" class="node">
<title>Node4</title>
<g id="a_node4"><a xlink:href="class_black_misc_1_1_simulation_1_1_c_interpolator_spline.html" target="_top" xlink:title="Cubic spline interpolator.">
<polygon fill="none" stroke="black" points="575,-333.5 575,-363.5 700,-363.5 700,-333.5 575,-333.5"/>
<text text-anchor="start" x="583" y="-351.5" font-family="Helvetica,sans-Serif" font-size="10.00">BlackMisc::Simulation</text>
<text text-anchor="middle" x="637.5" y="-340.5" font-family="Helvetica,sans-Serif" font-size="10.00">::CInterpolatorSpline</text>
</a>
</g>
</g>
<!-- Node3&#45;&gt;Node4 -->
<g id="edge3" class="edge">
<title>Node3&#45;&gt;Node4</title>
<path fill="none" stroke="midnightblue" d="M534.82,-348.5C548.32,-348.5 561.98,-348.5 574.71,-348.5"/>
<polygon fill="midnightblue" stroke="midnightblue" points="534.55,-345 524.55,-348.5 534.55,-352 534.55,-345"/>
</g>
<!-- Node6 -->
<g id="node6" class="node">
<title>Node6</title>
<g id="a_node6"><a xlink:href="class_black_misc_1_1_simulation_1_1_c_interpolator_linear.html" target="_top" xlink:title="Linear interpolator, calculation inbetween positions.">
<polygon fill="none" stroke="black" points="575,-273.5 575,-303.5 700,-303.5 700,-273.5 575,-273.5"/>
<text text-anchor="start" x="583" y="-291.5" font-family="Helvetica,sans-Serif" font-size="10.00">BlackMisc::Simulation</text>
<text text-anchor="middle" x="637.5" y="-280.5" font-family="Helvetica,sans-Serif" font-size="10.00">::CInterpolatorLinear</text>
</a>
</g>
</g>
<!-- Node5&#45;&gt;Node6 -->
<g id="edge5" class="edge">
<title>Node5&#45;&gt;Node6</title>
<path fill="none" stroke="midnightblue" d="M534.82,-288.5C548.32,-288.5 561.98,-288.5 574.71,-288.5"/>
<polygon fill="midnightblue" stroke="midnightblue" points="534.55,-285 524.55,-288.5 534.55,-292 534.55,-285"/>
</g>
<!-- Node11 -->
<g id="node11" class="node">
<title>Node11</title>
<g id="a_node11"><a xlink:href="class_black_sim_plugin_1_1_common_1_1_c_simulator_plugin_common.html" target="_top" xlink:title="Common base class for simulator plugins.">
<polygon fill="none" stroke="black" points="562,-98.5 562,-128.5 713,-128.5 713,-98.5 562,-98.5"/>
<text text-anchor="start" x="570" y="-116.5" font-family="Helvetica,sans-Serif" font-size="10.00">BlackSimPlugin::Common</text>
<text text-anchor="middle" x="637.5" y="-105.5" font-family="Helvetica,sans-Serif" font-size="10.00">::CSimulatorPluginCommon</text>
</a>
</g>
</g>
<!-- Node10&#45;&gt;Node11 -->
<g id="edge10" class="edge">
<title>Node10&#45;&gt;Node11</title>
<path fill="none" stroke="midnightblue" d="M515.37,-113.5C530.5,-113.5 546.53,-113.5 561.81,-113.5"/>
<polygon fill="midnightblue" stroke="midnightblue" points="515.07,-110 505.07,-113.5 515.07,-117 515.07,-110"/>
</g>
<!-- Node12 -->
<g id="node12" class="node">
<title>Node12</title>
<g id="a_node12"><a xlink:href="class_black_sim_plugin_1_1_emulated_1_1_c_simulator_emulated.html" target="_top" xlink:title="swift simulator implementation">
<polygon fill="none" stroke="black" points="753.5,-172.5 753.5,-202.5 898.5,-202.5 898.5,-172.5 753.5,-172.5"/>
<text text-anchor="start" x="761.5" y="-190.5" font-family="Helvetica,sans-Serif" font-size="10.00">BlackSimPlugin::Emulated</text>
<text text-anchor="middle" x="826" y="-179.5" font-family="Helvetica,sans-Serif" font-size="10.00">::CSimulatorEmulated</text>
</a>
</g>
</g>
<!-- Node11&#45;&gt;Node12 -->
<g id="edge11" class="edge">
<title>Node11&#45;&gt;Node12</title>
<path fill="none" stroke="midnightblue" d="M679.2,-132.71C699.89,-142.18 725.56,-153.47 749,-162.5 757.94,-165.94 767.59,-169.35 776.9,-172.48"/>
<polygon fill="midnightblue" stroke="midnightblue" points="680.61,-129.51 670.06,-128.5 677.68,-135.86 680.61,-129.51"/>
</g>
<!-- Node13 -->
<g id="node13" class="node">
<title>Node13</title>
<g id="a_node13"><a xlink:href="class_black_sim_plugin_1_1_flightgear_1_1_c_simulator_flightgear.html" target="_top" xlink:title="Flightgear ISimulator implementation.">
<polygon fill="none" stroke="black" points="752,-123.5 752,-153.5 900,-153.5 900,-123.5 752,-123.5"/>
<text text-anchor="start" x="760" y="-141.5" font-family="Helvetica,sans-Serif" font-size="10.00">BlackSimPlugin::Flightgear</text>
<text text-anchor="middle" x="826" y="-130.5" font-family="Helvetica,sans-Serif" font-size="10.00">::CSimulatorFlightgear</text>
</a>
</g>
</g>
<!-- Node11&#45;&gt;Node13 -->
<g id="edge12" class="edge">
<title>Node11&#45;&gt;Node13</title>
<path fill="none" stroke="midnightblue" d="M722.98,-124.82C732.61,-126.11 742.36,-127.42 751.82,-128.69"/>
<polygon fill="midnightblue" stroke="midnightblue" points="723.39,-121.35 713.01,-123.49 722.46,-128.29 723.39,-121.35"/>
</g>
<!-- Node14 -->
<g id="node14" class="node">
<title>Node14</title>
<g id="a_node14"><a xlink:href="class_black_sim_plugin_1_1_fs_common_1_1_c_simulator_fs_common.html" target="_top" xlink:title="Common base class for MS flight simulators.">
<polygon fill="none" stroke="black" points="749,-74.5 749,-104.5 903,-104.5 903,-74.5 749,-74.5"/>
<text text-anchor="start" x="757" y="-92.5" font-family="Helvetica,sans-Serif" font-size="10.00">BlackSimPlugin::FsCommon</text>
<text text-anchor="middle" x="826" y="-81.5" font-family="Helvetica,sans-Serif" font-size="10.00">::CSimulatorFsCommon</text>
</a>
</g>
</g>
<!-- Node11&#45;&gt;Node14 -->
<g id="edge13" class="edge">
<title>Node11&#45;&gt;Node14</title>
<path fill="none" stroke="midnightblue" d="M723.03,-102.62C731.61,-101.52 740.29,-100.4 748.78,-99.31"/>
<polygon fill="midnightblue" stroke="midnightblue" points="722.49,-99.16 713.01,-103.91 723.38,-106.11 722.49,-99.16"/>
</g>
<!-- Node20 -->
<g id="node20" class="node">
<title>Node20</title>
<g id="a_node20"><a xlink:href="class_black_sim_plugin_1_1_x_plane_1_1_c_simulator_x_plane.html" target="_top" xlink:title="X&#45;Plane ISimulator implementation.">
<polygon fill="none" stroke="black" points="760,-25.5 760,-55.5 892,-55.5 892,-25.5 760,-25.5"/>
<text text-anchor="start" x="768" y="-43.5" font-family="Helvetica,sans-Serif" font-size="10.00">BlackSimPlugin::XPlane</text>
<text text-anchor="middle" x="826" y="-32.5" font-family="Helvetica,sans-Serif" font-size="10.00">::CSimulatorXPlane</text>
</a>
</g>
</g>
<!-- Node11&#45;&gt;Node20 -->
<g id="edge19" class="edge">
<title>Node11&#45;&gt;Node20</title>
<path fill="none" stroke="midnightblue" d="M679.15,-94.17C699.83,-84.67 725.51,-73.39 749,-64.5 757.15,-61.42 765.9,-58.4 774.45,-55.6"/>
<polygon fill="midnightblue" stroke="midnightblue" points="677.63,-91.02 670.02,-98.4 680.57,-97.37 677.63,-91.02"/>
</g>
<!-- Node15 -->
<g id="node15" class="node">
<title>Node15</title>
<g id="a_node15"><a xlink:href="class_black_sim_plugin_1_1_fs9_1_1_c_simulator_fs9.html" target="_top" xlink:title="FS9 Simulator Implementation.">
<polygon fill="none" stroke="black" points="961,-98.5 961,-128.5 1077,-128.5 1077,-98.5 961,-98.5"/>
<text text-anchor="start" x="969" y="-116.5" font-family="Helvetica,sans-Serif" font-size="10.00">BlackSimPlugin::Fs9</text>
<text text-anchor="middle" x="1019" y="-105.5" font-family="Helvetica,sans-Serif" font-size="10.00">::CSimulatorFs9</text>
</a>
</g>
</g>
<!-- Node14&#45;&gt;Node15 -->
<g id="edge14" class="edge">
<title>Node14&#45;&gt;Node15</title>
<path fill="none" stroke="midnightblue" d="M913.04,-100.31C929.21,-102.34 945.75,-104.42 960.77,-106.31"/>
<polygon fill="midnightblue" stroke="midnightblue" points="913.4,-96.83 903.04,-99.05 912.52,-103.77 913.4,-96.83"/>
</g>
<!-- Node16 -->
<g id="node16" class="node">
<title>Node16</title>
<g id="a_node16"><a xlink:href="class_black_sim_plugin_1_1_fsx_common_1_1_c_simulator_fsx_common.html" target="_top" xlink:title="FSX Simulator Implementation.">
<polygon fill="none" stroke="black" points="939,-49.5 939,-79.5 1099,-79.5 1099,-49.5 939,-49.5"/>
<text text-anchor="start" x="947" y="-67.5" font-family="Helvetica,sans-Serif" font-size="10.00">BlackSimPlugin::FsxCommon</text>
<text text-anchor="middle" x="1019" y="-56.5" font-family="Helvetica,sans-Serif" font-size="10.00">::CSimulatorFsxCommon</text>
</a>
</g>
</g>
<!-- Node14&#45;&gt;Node16 -->
<g id="edge15" class="edge">
<title>Node14&#45;&gt;Node16</title>
<path fill="none" stroke="midnightblue" d="M913.04,-78.24C921.61,-77.12 930.28,-75.98 938.78,-74.87"/>
<polygon fill="midnightblue" stroke="midnightblue" points="912.5,-74.78 903.04,-79.55 913.41,-81.72 912.5,-74.78"/>
</g>
<!-- Node17 -->
<g id="node17" class="node">
<title>Node17</title>
<g id="a_node17"><a xlink:href="class_black_sim_plugin_1_1_fsx_1_1_c_simulator_fsx.html" target="_top" xlink:title="FSX simulator implementation.">
<polygon fill="none" stroke="black" points="1138,-98.5 1138,-128.5 1254,-128.5 1254,-98.5 1138,-98.5"/>
<text text-anchor="start" x="1146" y="-116.5" font-family="Helvetica,sans-Serif" font-size="10.00">BlackSimPlugin::Fsx</text>
<text text-anchor="middle" x="1196" y="-105.5" font-family="Helvetica,sans-Serif" font-size="10.00">::CSimulatorFsx</text>
</a>
</g>
</g>
<!-- Node16&#45;&gt;Node17 -->
<g id="edge16" class="edge">
<title>Node16&#45;&gt;Node17</title>
<path fill="none" stroke="midnightblue" d="M1083.65,-82.32C1102.54,-87.61 1123.04,-93.35 1141.24,-98.45"/>
<polygon fill="midnightblue" stroke="midnightblue" points="1084.51,-78.93 1073.93,-79.6 1082.62,-85.67 1084.51,-78.93"/>
</g>
<!-- Node18 -->
<g id="node18" class="node">
<title>Node18</title>
<g id="a_node18"><a xlink:href="class_black_sim_plugin_1_1_msfs_1_1_c_simulator_ms_fs.html" target="_top" xlink:title="FSX simulator implementation.">
<polygon fill="none" stroke="black" points="1135,-49.5 1135,-79.5 1257,-79.5 1257,-49.5 1135,-49.5"/>
<text text-anchor="start" x="1143" y="-67.5" font-family="Helvetica,sans-Serif" font-size="10.00">BlackSimPlugin::Msfs</text>
<text text-anchor="middle" x="1196" y="-56.5" font-family="Helvetica,sans-Serif" font-size="10.00">::CSimulatorMsFs</text>
</a>
</g>
</g>
<!-- Node16&#45;&gt;Node18 -->
<g id="edge17" class="edge">
<title>Node16&#45;&gt;Node18</title>
<path fill="none" stroke="midnightblue" d="M1109.25,-64.5C1117.94,-64.5 1126.61,-64.5 1134.92,-64.5"/>
<polygon fill="midnightblue" stroke="midnightblue" points="1109.05,-61 1099.05,-64.5 1109.05,-68 1109.05,-61"/>
</g>
<!-- Node19 -->
<g id="node19" class="node">
<title>Node19</title>
<g id="a_node19"><a xlink:href="class_black_sim_plugin_1_1_p3_d_1_1_c_simulator_p3_d.html" target="_top" xlink:title="P3D Simulator Implementation.">
<polygon fill="none" stroke="black" points="1137,-0.5 1137,-30.5 1255,-30.5 1255,-0.5 1137,-0.5"/>
<text text-anchor="start" x="1145" y="-18.5" font-family="Helvetica,sans-Serif" font-size="10.00">BlackSimPlugin::P3D</text>
<text text-anchor="middle" x="1196" y="-7.5" font-family="Helvetica,sans-Serif" font-size="10.00">::CSimulatorP3D</text>
</a>
</g>
</g>
<!-- Node16&#45;&gt;Node19 -->
<g id="edge18" class="edge">
<title>Node16&#45;&gt;Node19</title>
<path fill="none" stroke="midnightblue" d="M1083.65,-46.68C1102.54,-41.39 1123.04,-35.65 1141.24,-30.55"/>
<polygon fill="midnightblue" stroke="midnightblue" points="1082.62,-43.33 1073.93,-49.4 1084.51,-50.07 1082.62,-43.33"/>
</g>
</g>
</svg>
