<?xml version="1.0" encoding="UTF-8" standalone="no"?>
<!DOCTYPE svg PUBLIC "-//W3C//DTD SVG 1.1//EN"
 "http://www.w3.org/Graphics/SVG/1.1/DTD/svg11.dtd">
<!-- Generated by graphviz version 2.43.0 (0)
 -->
<!-- Title: BlackCore::IPluginManager Pages: 1 -->
<svg width="330pt" height="151pt"
 viewBox="0.00 0.00 330.00 151.00" xmlns="http://www.w3.org/2000/svg" xmlns:xlink="http://www.w3.org/1999/xlink">
<g id="graph0" class="graph" transform="scale(1 1) rotate(0) translate(4 147)">
<title>BlackCore::IPluginManager</title>
<!-- Node1 -->
<g id="node1" class="node">
<title>Node1</title>
<g id="a_node1"><a xlink:title="Base class for all contexts that provide plugin support.">
<polygon fill="#bfbfbf" stroke="black" points="87,-67.5 87,-86.5 235,-86.5 235,-67.5 87,-67.5"/>
<text text-anchor="middle" x="161" y="-74.5" font-family="Helvetica,sans-Serif" font-size="10.00">BlackCore::IPluginManager</text>
</a>
</g>
</g>
<!-- Node3 -->
<g id="node3" class="node">
<title>Node3</title>
<g id="a_node3"><a xlink:href="class_black_core_1_1_c_plugin_manager_simulator.html" target="_top" xlink:title="Manages plugins for the simulator context.">
<polygon fill="none" stroke="black" points="0,-0.5 0,-30.5 152,-30.5 152,-0.5 0,-0.5"/>
<text text-anchor="start" x="8" y="-18.5" font-family="Helvetica,sans-Serif" font-size="10.00">BlackCore::CPluginManager</text>
<text text-anchor="middle" x="76" y="-7.5" font-family="Helvetica,sans-Serif" font-size="10.00">Simulator</text>
</a>
</g>
</g>
<!-- Node1&#45;&gt;Node3 -->
<g id="edge2" class="edge">
<title>Node1&#45;&gt;Node3</title>
<path fill="none" stroke="midnightblue" d="M140.63,-61.74C127.12,-52.28 109.47,-39.93 96.03,-30.52"/>
<polygon fill="midnightblue" stroke="midnightblue" points="138.62,-64.61 148.82,-67.48 142.64,-58.87 138.62,-64.61"/>
</g>
<!-- Node4 -->
<g id="node4" class="node">
<title>Node4</title>
<g id="a_node4"><a xlink:href="class_black_core_1_1_c_plugin_manager_weather_data.html" target="_top" xlink:title="Manages plugins of type WeatherData.">
<polygon fill="none" stroke="black" points="170,-0.5 170,-30.5 322,-30.5 322,-0.5 170,-0.5"/>
<text text-anchor="start" x="178" y="-18.5" font-family="Helvetica,sans-Serif" font-size="10.00">BlackCore::CPluginManager</text>
<text text-anchor="middle" x="246" y="-7.5" font-family="Helvetica,sans-Serif" font-size="10.00">WeatherData</text>
</a>
</g>
</g>
<!-- Node1&#45;&gt;Node4 -->
<g id="edge3" class="edge">
<title>Node1&#45;&gt;Node4</title>
<path fill="none" stroke="midnightblue" d="M181.37,-61.74C194.88,-52.28 212.53,-39.93 225.97,-30.52"/>
<polygon fill="midnightblue" stroke="midnightblue" points="179.36,-58.87 173.18,-67.48 183.38,-64.61 179.36,-58.87"/>
</g>
<!-- Node2 -->
<g id="node2" class="node">
<title>Node2</title>
<g id="a_node2"><a target="_parent" xlink:href="http://doc.qt.io/qt-5/qobject.html" xlink:title=" ">
<polygon fill="none" stroke="black" points="133,-123.5 133,-142.5 189,-142.5 189,-123.5 133,-123.5"/>
<text text-anchor="middle" x="161" y="-130.5" font-family="Helvetica,sans-Serif" font-size="10.00">QObject</text>
</a>
</g>
</g>
<!-- Node2&#45;&gt;Node1 -->
<g id="edge1" class="edge">
<title>Node2&#45;&gt;Node1</title>
<path fill="none" stroke="midnightblue" d="M161,-112.8C161,-103.91 161,-93.78 161,-86.75"/>
<polygon fill="midnightblue" stroke="midnightblue" points="157.5,-113.08 161,-123.08 164.5,-113.08 157.5,-113.08"/>
</g>
</g>
</svg>
