<?xml version="1.0" encoding="UTF-8" standalone="no"?>
<!DOCTYPE svg PUBLIC "-//W3C//DTD SVG 1.1//EN"
 "http://www.w3.org/Graphics/SVG/1.1/DTD/svg11.dtd">
<!-- Generated by graphviz version 2.43.0 (0)
 -->
<!-- Title: BlackMisc::Aviation::CAircraftSituationList Pages: 1 -->
<svg width="778pt" height="427pt"
 viewBox="0.00 0.00 778.00 427.00" xmlns="http://www.w3.org/2000/svg" xmlns:xlink="http://www.w3.org/1999/xlink">
<g id="graph0" class="graph" transform="scale(1 1) rotate(0) translate(4 423)">
<title>BlackMisc::Aviation::CAircraftSituationList</title>
<!-- Node1 -->
<g id="node1" class="node">
<title>Node1</title>
<g id="a_node1"><a xlink:title="List of aircraft situations.">
<polygon fill="#bfbfbf" stroke="black" points="645,-126.5 645,-156.5 770,-156.5 770,-126.5 645,-126.5"/>
<text text-anchor="start" x="653" y="-144.5" font-family="Helvetica,sans-Serif" font-size="10.00">BlackMisc::Aviation</text>
<text text-anchor="middle" x="707.5" y="-133.5" font-family="Helvetica,sans-Serif" font-size="10.00">::CAircraftSituationList</text>
</a>
</g>
</g>
<!-- Node2 -->
<g id="node2" class="node">
<title>Node2</title>
<g id="a_node2"><a xlink:href="class_black_misc_1_1_c_sequence.html" target="_top" xlink:title=" ">
<polygon fill="none" stroke="black" points="449,-241.5 449,-271.5 575,-271.5 575,-241.5 449,-241.5"/>
<text text-anchor="start" x="457" y="-259.5" font-family="Helvetica,sans-Serif" font-size="10.00">BlackMisc::CSequence</text>
<text text-anchor="middle" x="512" y="-248.5" font-family="Helvetica,sans-Serif" font-size="10.00">&lt; CAircraftSituation &gt;</text>
</a>
</g>
</g>
<!-- Node2&#45;&gt;Node1 -->
<g id="edge1" class="edge">
<title>Node2&#45;&gt;Node1</title>
<path fill="none" stroke="midnightblue" d="M584.7,-242.03C593.13,-239.12 601.42,-235.64 609,-231.5 644.58,-212.06 677.32,-176.81 694.31,-156.68"/>
<polygon fill="midnightblue" stroke="midnightblue" points="583.6,-238.71 575.14,-245.09 585.74,-245.38 583.6,-238.71"/>
</g>
<!-- Node3 -->
<g id="node3" class="node">
<title>Node3</title>
<g id="a_node3"><a xlink:href="class_black_misc_1_1_c_container_base.html" target="_top" xlink:title="Base class for CCollection and CSequence adding mutating operations and CValueObject facility on top ...">
<polygon fill="none" stroke="black" points="222,-290.5 222,-320.5 372,-320.5 372,-290.5 222,-290.5"/>
<text text-anchor="start" x="230" y="-308.5" font-family="Helvetica,sans-Serif" font-size="10.00">BlackMisc::CContainerBase</text>
<text text-anchor="middle" x="297" y="-297.5" font-family="Helvetica,sans-Serif" font-size="10.00">&lt; Derived &gt;</text>
</a>
</g>
</g>
<!-- Node3&#45;&gt;Node2 -->
<g id="edge2" class="edge">
<title>Node3&#45;&gt;Node2</title>
<path fill="none" stroke="midnightblue" d="M373.39,-288.16C398.03,-282.49 425.11,-276.26 448.69,-270.84"/>
<polygon fill="midnightblue" stroke="midnightblue" points="372.32,-284.81 363.35,-290.47 373.88,-291.63 372.32,-284.81"/>
</g>
<!-- Node4 -->
<g id="node4" class="node">
<title>Node4</title>
<g id="a_node4"><a xlink:href="class_black_misc_1_1_c_range_base.html" target="_top" xlink:title="Any container class with begin and end iterators can inherit from this CRTP class to gain some useful...">
<polygon fill="none" stroke="black" points="22.5,-388.5 22.5,-418.5 156.5,-418.5 156.5,-388.5 22.5,-388.5"/>
<text text-anchor="start" x="30.5" y="-406.5" font-family="Helvetica,sans-Serif" font-size="10.00">BlackMisc::CRangeBase</text>
<text text-anchor="middle" x="89.5" y="-395.5" font-family="Helvetica,sans-Serif" font-size="10.00">&lt; Derived &gt;</text>
</a>
</g>
</g>
<!-- Node4&#45;&gt;Node3 -->
<g id="edge3" class="edge">
<title>Node4&#45;&gt;Node3</title>
<path fill="none" stroke="midnightblue" d="M164.63,-385.19C169.55,-383.43 174.38,-381.53 179,-379.5 215.52,-363.44 253.87,-337.09 276.33,-320.55"/>
<polygon fill="midnightblue" stroke="midnightblue" points="163.44,-381.9 155.09,-388.42 165.69,-388.53 163.44,-381.9"/>
</g>
<!-- Node5 -->
<g id="node5" class="node">
<title>Node5</title>
<g id="a_node5"><a xlink:href="class_black_misc_1_1_mixin_1_1_meta_type.html" target="_top" xlink:title="CRTP class template from which a derived class can inherit common methods dealing with the metatype o...">
<polygon fill="none" stroke="black" points="13.5,-339.5 13.5,-369.5 165.5,-369.5 165.5,-339.5 13.5,-339.5"/>
<text text-anchor="start" x="21.5" y="-357.5" font-family="Helvetica,sans-Serif" font-size="10.00">BlackMisc::Mixin::MetaType</text>
<text text-anchor="middle" x="89.5" y="-346.5" font-family="Helvetica,sans-Serif" font-size="10.00">&lt; Derived &gt;</text>
</a>
</g>
</g>
<!-- Node5&#45;&gt;Node3 -->
<g id="edge4" class="edge">
<title>Node5&#45;&gt;Node3</title>
<path fill="none" stroke="midnightblue" d="M163.49,-337.1C186.22,-331.68 211.08,-325.75 233.07,-320.51"/>
<polygon fill="midnightblue" stroke="midnightblue" points="162.47,-333.74 153.55,-339.47 164.09,-340.55 162.47,-333.74"/>
</g>
<!-- Node6 -->
<g id="node6" class="node">
<title>Node6</title>
<g id="a_node6"><a xlink:href="class_black_misc_1_1_mixin_1_1_d_bus_operators.html" target="_top" xlink:title=" ">
<polygon fill="none" stroke="black" points="0,-290.5 0,-320.5 179,-320.5 179,-290.5 0,-290.5"/>
<text text-anchor="start" x="8" y="-308.5" font-family="Helvetica,sans-Serif" font-size="10.00">BlackMisc::Mixin::DBusOperators</text>
<text text-anchor="middle" x="89.5" y="-297.5" font-family="Helvetica,sans-Serif" font-size="10.00">&lt; Derived &gt;</text>
</a>
</g>
</g>
<!-- Node6&#45;&gt;Node3 -->
<g id="edge5" class="edge">
<title>Node6&#45;&gt;Node3</title>
<path fill="none" stroke="midnightblue" d="M189.19,-305.5C200.17,-305.5 211.22,-305.5 221.82,-305.5"/>
<polygon fill="midnightblue" stroke="midnightblue" points="189.14,-302 179.14,-305.5 189.14,-309 189.14,-302"/>
</g>
<!-- Node7 -->
<g id="node7" class="node">
<title>Node7</title>
<g id="a_node7"><a xlink:href="class_black_misc_1_1_mixin_1_1_json_operators.html" target="_top" xlink:title="CRTP class template which will generate marshalling operators for a derived class with its own marsha...">
<polygon fill="none" stroke="black" points="3,-241.5 3,-271.5 176,-271.5 176,-241.5 3,-241.5"/>
<text text-anchor="start" x="11" y="-259.5" font-family="Helvetica,sans-Serif" font-size="10.00">BlackMisc::Mixin::JsonOperators</text>
<text text-anchor="middle" x="89.5" y="-248.5" font-family="Helvetica,sans-Serif" font-size="10.00">&lt; Derived &gt;</text>
</a>
</g>
</g>
<!-- Node7&#45;&gt;Node3 -->
<g id="edge6" class="edge">
<title>Node7&#45;&gt;Node3</title>
<path fill="none" stroke="midnightblue" d="M163.49,-273.9C186.22,-279.32 211.08,-285.25 233.07,-290.49"/>
<polygon fill="midnightblue" stroke="midnightblue" points="164.09,-270.45 153.55,-271.53 162.47,-277.26 164.09,-270.45"/>
</g>
<!-- Node8 -->
<g id="node8" class="node">
<title>Node8</title>
<g id="a_node8"><a xlink:href="class_black_misc_1_1_mixin_1_1_string.html" target="_top" xlink:title="CRTP class template from which a derived class can inherit string streaming operations.">
<polygon fill="none" stroke="black" points="22.5,-192.5 22.5,-222.5 156.5,-222.5 156.5,-192.5 22.5,-192.5"/>
<text text-anchor="start" x="30.5" y="-210.5" font-family="Helvetica,sans-Serif" font-size="10.00">BlackMisc::Mixin::String</text>
<text text-anchor="middle" x="89.5" y="-199.5" font-family="Helvetica,sans-Serif" font-size="10.00">&lt; Derived &gt;</text>
</a>
</g>
</g>
<!-- Node8&#45;&gt;Node3 -->
<g id="edge7" class="edge">
<title>Node8&#45;&gt;Node3</title>
<path fill="none" stroke="midnightblue" d="M166.05,-224.98C170.59,-227.2 174.95,-229.69 179,-232.5 201.21,-247.9 192.89,-265.96 215,-281.5 219.92,-284.96 225.34,-287.92 230.98,-290.47"/>
<polygon fill="midnightblue" stroke="midnightblue" points="167.1,-221.62 156.53,-220.81 164.29,-228.03 167.1,-221.62"/>
</g>
<!-- Node9 -->
<g id="node9" class="node">
<title>Node9</title>
<g id="a_node9"><a xlink:href="class_black_misc_1_1_mixin_1_1_data_stream_operators.html" target="_top" xlink:title="CRTP class template to generate non&#45;member QDataStream streaming operators.">
<polygon fill="none" stroke="black" points="215,-241.5 215,-271.5 379,-271.5 379,-241.5 215,-241.5"/>
<text text-anchor="start" x="223" y="-259.5" font-family="Helvetica,sans-Serif" font-size="10.00">BlackMisc::Mixin::DataStream</text>
<text text-anchor="middle" x="297" y="-248.5" font-family="Helvetica,sans-Serif" font-size="10.00">Operators&lt; Derived &gt;</text>
</a>
</g>
</g>
<!-- Node9&#45;&gt;Node2 -->
<g id="edge8" class="edge">
<title>Node9&#45;&gt;Node2</title>
<path fill="none" stroke="midnightblue" d="M389.27,-256.5C409.42,-256.5 430.31,-256.5 448.98,-256.5"/>
<polygon fill="midnightblue" stroke="midnightblue" points="389.13,-253 379.13,-256.5 389.13,-260 389.13,-253"/>
</g>
<!-- Node10 -->
<g id="node10" class="node">
<title>Node10</title>
<g id="a_node10"><a xlink:href="class_black_misc_1_1_mixin_1_1_icon.html" target="_top" xlink:title="CRTP class template from which a derived class can inherit icon&#45;related functions.">
<polygon fill="none" stroke="black" points="231.5,-192.5 231.5,-222.5 362.5,-222.5 362.5,-192.5 231.5,-192.5"/>
<text text-anchor="start" x="239.5" y="-210.5" font-family="Helvetica,sans-Serif" font-size="10.00">BlackMisc::Mixin::Icon</text>
<text text-anchor="middle" x="297" y="-199.5" font-family="Helvetica,sans-Serif" font-size="10.00">&lt; Derived, IconIndex &gt;</text>
</a>
</g>
</g>
<!-- Node10&#45;&gt;Node2 -->
<g id="edge9" class="edge">
<title>Node10&#45;&gt;Node2</title>
<path fill="none" stroke="midnightblue" d="M372.53,-224.65C397.42,-230.37 424.87,-236.69 448.72,-242.17"/>
<polygon fill="midnightblue" stroke="midnightblue" points="373.3,-221.23 362.77,-222.4 371.74,-228.05 373.3,-221.23"/>
</g>
<!-- Node11 -->
<g id="node11" class="node">
<title>Node11</title>
<g id="a_node11"><a xlink:href="class_black_misc_1_1_geo_1_1_i_geo_object_list.html" target="_top" xlink:title=" ">
<polygon fill="none" stroke="black" points="436,-181 436,-222 588,-222 588,-181 436,-181"/>
<text text-anchor="start" x="444" y="-210" font-family="Helvetica,sans-Serif" font-size="10.00">BlackMisc::Geo::IGeoObject</text>
<text text-anchor="start" x="444" y="-199" font-family="Helvetica,sans-Serif" font-size="10.00">List&lt; CAircraftSituation,</text>
<text text-anchor="middle" x="512" y="-188" font-family="Helvetica,sans-Serif" font-size="10.00"> CAircraftSituationList &gt;</text>
</a>
</g>
</g>
<!-- Node11&#45;&gt;Node1 -->
<g id="edge10" class="edge">
<title>Node11&#45;&gt;Node1</title>
<path fill="none" stroke="midnightblue" d="M589.14,-177.89C612.32,-170.7 637.15,-163 657.98,-156.54"/>
<polygon fill="midnightblue" stroke="midnightblue" points="587.84,-174.63 579.32,-180.94 589.91,-181.32 587.84,-174.63"/>
</g>
<!-- Node12 -->
<g id="node12" class="node">
<title>Node12</title>
<g id="a_node12"><a xlink:href="class_black_misc_1_1_i_timestamp_with_offset_object_list.html" target="_top" xlink:title=" ">
<polygon fill="none" stroke="black" points="415,-121 415,-162 609,-162 609,-121 415,-121"/>
<text text-anchor="start" x="423" y="-150" font-family="Helvetica,sans-Serif" font-size="10.00">BlackMisc::ITimestampWith</text>
<text text-anchor="start" x="423" y="-139" font-family="Helvetica,sans-Serif" font-size="10.00">OffsetObjectList&lt; CAircraftSituation,</text>
<text text-anchor="middle" x="512" y="-128" font-family="Helvetica,sans-Serif" font-size="10.00"> CAircraftSituationList &gt;</text>
</a>
</g>
</g>
<!-- Node12&#45;&gt;Node1 -->
<g id="edge11" class="edge">
<title>Node12&#45;&gt;Node1</title>
<path fill="none" stroke="midnightblue" d="M619.41,-141.5C628.1,-141.5 636.68,-141.5 644.88,-141.5"/>
<polygon fill="midnightblue" stroke="midnightblue" points="619.18,-138 609.18,-141.5 619.18,-145 619.18,-138"/>
</g>
<!-- Node13 -->
<g id="node13" class="node">
<title>Node13</title>
<g id="a_node13"><a xlink:href="class_black_misc_1_1_i_timestamp_object_list.html" target="_top" xlink:title="List of objects with timestamp. Such objects should implement.">
<polygon fill="none" stroke="black" points="216,-126.5 216,-156.5 378,-156.5 378,-126.5 216,-126.5"/>
<text text-anchor="start" x="224" y="-144.5" font-family="Helvetica,sans-Serif" font-size="10.00">BlackMisc::ITimestampObject</text>
<text text-anchor="middle" x="297" y="-133.5" font-family="Helvetica,sans-Serif" font-size="10.00">List&lt; OBJ, CONTAINER &gt;</text>
</a>
</g>
</g>
<!-- Node13&#45;&gt;Node12 -->
<g id="edge12" class="edge">
<title>Node13&#45;&gt;Node12</title>
<path fill="none" stroke="midnightblue" d="M388.37,-141.5C397.08,-141.5 405.94,-141.5 414.71,-141.5"/>
<polygon fill="midnightblue" stroke="midnightblue" points="388.22,-138 378.22,-141.5 388.22,-145 388.22,-138"/>
</g>
<!-- Node14 -->
<g id="node14" class="node">
<title>Node14</title>
<g id="a_node14"><a xlink:href="class_black_misc_1_1_aviation_1_1_i_callsign_object_list.html" target="_top" xlink:title=" ">
<polygon fill="none" stroke="black" points="445,-49.5 445,-101.5 579,-101.5 579,-49.5 445,-49.5"/>
<text text-anchor="start" x="453" y="-89.5" font-family="Helvetica,sans-Serif" font-size="10.00">BlackMisc::Aviation</text>
<text text-anchor="start" x="453" y="-78.5" font-family="Helvetica,sans-Serif" font-size="10.00">::ICallsignObjectList</text>
<text text-anchor="start" x="453" y="-67.5" font-family="Helvetica,sans-Serif" font-size="10.00">&lt; CAircraftSituation,</text>
<text text-anchor="middle" x="512" y="-56.5" font-family="Helvetica,sans-Serif" font-size="10.00"> CAircraftSituationList &gt;</text>
</a>
</g>
</g>
<!-- Node14&#45;&gt;Node1 -->
<g id="edge13" class="edge">
<title>Node14&#45;&gt;Node1</title>
<path fill="none" stroke="midnightblue" d="M588.52,-101.26C613.51,-109.78 640.49,-118.98 662.33,-126.43"/>
<polygon fill="midnightblue" stroke="midnightblue" points="589.65,-97.94 579.05,-98.03 587.39,-104.57 589.65,-97.94"/>
</g>
<!-- Node15 -->
<g id="node15" class="node">
<title>Node15</title>
<g id="a_node15"><a xlink:href="class_black_misc_1_1_mixin_1_1_meta_type.html" target="_top" xlink:title=" ">
<polygon fill="none" stroke="black" points="436,-0.5 436,-30.5 588,-30.5 588,-0.5 436,-0.5"/>
<text text-anchor="start" x="444" y="-18.5" font-family="Helvetica,sans-Serif" font-size="10.00">BlackMisc::Mixin::MetaType</text>
<text text-anchor="middle" x="512" y="-7.5" font-family="Helvetica,sans-Serif" font-size="10.00">&lt; CAircraftSituationList &gt;</text>
</a>
</g>
</g>
<!-- Node15&#45;&gt;Node1 -->
<g id="edge14" class="edge">
<title>Node15&#45;&gt;Node1</title>
<path fill="none" stroke="midnightblue" d="M597.48,-33.64C601.46,-35.42 605.32,-37.36 609,-39.5 647.55,-61.9 680.56,-104.01 696.43,-126.47"/>
<polygon fill="midnightblue" stroke="midnightblue" points="598.6,-30.32 588.02,-29.8 595.97,-36.8 598.6,-30.32"/>
</g>
</g>
</svg>
