<?xml version="1.0" encoding="UTF-8" standalone="no"?>
<!DOCTYPE svg PUBLIC "-//W3C//DTD SVG 1.1//EN"
 "http://www.w3.org/Graphics/SVG/1.1/DTD/svg11.dtd">
<!-- Generated by graphviz version 2.43.0 (0)
 -->
<!-- Title: BlackGui::CLineEditHistory Pages: 1 -->
<svg width="167pt" height="263pt"
 viewBox="0.00 0.00 166.50 263.00" xmlns="http://www.w3.org/2000/svg" xmlns:xlink="http://www.w3.org/1999/xlink">
<g id="graph0" class="graph" transform="scale(1 1) rotate(0) translate(4 259)">
<title>BlackGui::CLineEditHistory</title>
<!-- Node1 -->
<g id="node1" class="node">
<title>Node1</title>
<g id="a_node1"><a xlink:title="Line edit with history.">
<polygon fill="#bfbfbf" stroke="black" points="0,-67.5 0,-86.5 147,-86.5 147,-67.5 0,-67.5"/>
<text text-anchor="middle" x="73.5" y="-74.5" font-family="Helvetica,sans-Serif" font-size="10.00">BlackGui::CLineEditHistory</text>
</a>
</g>
</g>
<!-- Node6 -->
<g id="node6" class="node">
<title>Node6</title>
<g id="a_node6"><a xlink:href="class_black_gui_1_1_components_1_1_c_command_input.html" target="_top" xlink:title="Specialized line edit for command inputs.">
<polygon fill="none" stroke="black" points="9.5,-0.5 9.5,-30.5 137.5,-30.5 137.5,-0.5 9.5,-0.5"/>
<text text-anchor="start" x="17.5" y="-18.5" font-family="Helvetica,sans-Serif" font-size="10.00">BlackGui::Components</text>
<text text-anchor="middle" x="73.5" y="-7.5" font-family="Helvetica,sans-Serif" font-size="10.00">::CCommandInput</text>
</a>
</g>
</g>
<!-- Node1&#45;&gt;Node6 -->
<g id="edge5" class="edge">
<title>Node1&#45;&gt;Node6</title>
<path fill="none" stroke="midnightblue" d="M73.5,-57.23C73.5,-48.59 73.5,-38.5 73.5,-30.52"/>
<polygon fill="midnightblue" stroke="midnightblue" points="70,-57.48 73.5,-67.48 77,-57.48 70,-57.48"/>
</g>
<!-- Node2 -->
<g id="node2" class="node">
<title>Node2</title>
<g id="a_node2"><a target="_parent" xlink:href="http://doc.qt.io/qt-5/qlineedit.html" xlink:title=" ">
<polygon fill="none" stroke="black" points="42,-123.5 42,-142.5 105,-142.5 105,-123.5 42,-123.5"/>
<text text-anchor="middle" x="73.5" y="-130.5" font-family="Helvetica,sans-Serif" font-size="10.00">QLineEdit</text>
</a>
</g>
</g>
<!-- Node2&#45;&gt;Node1 -->
<g id="edge1" class="edge">
<title>Node2&#45;&gt;Node1</title>
<path fill="none" stroke="midnightblue" d="M73.5,-112.8C73.5,-103.91 73.5,-93.78 73.5,-86.75"/>
<polygon fill="midnightblue" stroke="midnightblue" points="70,-113.08 73.5,-123.08 77,-113.08 70,-113.08"/>
</g>
<!-- Node3 -->
<g id="node3" class="node">
<title>Node3</title>
<g id="a_node3"><a target="_parent" xlink:href="http://doc.qt.io/qt-5/qwidget.html" xlink:title=" ">
<polygon fill="none" stroke="black" points="44,-179.5 44,-198.5 103,-198.5 103,-179.5 44,-179.5"/>
<text text-anchor="middle" x="73.5" y="-186.5" font-family="Helvetica,sans-Serif" font-size="10.00">QWidget</text>
</a>
</g>
</g>
<!-- Node3&#45;&gt;Node2 -->
<g id="edge2" class="edge">
<title>Node3&#45;&gt;Node2</title>
<path fill="none" stroke="midnightblue" d="M73.5,-168.8C73.5,-159.91 73.5,-149.78 73.5,-142.75"/>
<polygon fill="midnightblue" stroke="midnightblue" points="70,-169.08 73.5,-179.08 77,-169.08 70,-169.08"/>
</g>
<!-- Node4 -->
<g id="node4" class="node">
<title>Node4</title>
<g id="a_node4"><a target="_parent" xlink:href="http://doc.qt.io/qt-5/qobject.html" xlink:title=" ">
<polygon fill="none" stroke="black" points="2.5,-235.5 2.5,-254.5 58.5,-254.5 58.5,-235.5 2.5,-235.5"/>
<text text-anchor="middle" x="30.5" y="-242.5" font-family="Helvetica,sans-Serif" font-size="10.00">QObject</text>
</a>
</g>
</g>
<!-- Node4&#45;&gt;Node3 -->
<g id="edge3" class="edge">
<title>Node4&#45;&gt;Node3</title>
<path fill="none" stroke="midnightblue" d="M43.92,-227.14C51.41,-217.74 60.44,-206.4 66.53,-198.75"/>
<polygon fill="midnightblue" stroke="midnightblue" points="41.09,-225.08 37.6,-235.08 46.57,-229.44 41.09,-225.08"/>
</g>
<!-- Node5 -->
<g id="node5" class="node">
<title>Node5</title>
<g id="a_node5"><a target="_parent" xlink:href="http://doc.qt.io/qt-5/qpaintdevice.html" xlink:title=" ">
<polygon fill="none" stroke="black" points="76.5,-235.5 76.5,-254.5 158.5,-254.5 158.5,-235.5 76.5,-235.5"/>
<text text-anchor="middle" x="117.5" y="-242.5" font-family="Helvetica,sans-Serif" font-size="10.00">QPaintDevice</text>
</a>
</g>
</g>
<!-- Node5&#45;&gt;Node3 -->
<g id="edge4" class="edge">
<title>Node5&#45;&gt;Node3</title>
<path fill="none" stroke="midnightblue" d="M103.77,-227.14C96.1,-217.74 86.87,-206.4 80.63,-198.75"/>
<polygon fill="midnightblue" stroke="midnightblue" points="101.2,-229.54 110.23,-235.08 106.63,-225.12 101.2,-229.54"/>
</g>
</g>
</svg>
