<?xml version="1.0" encoding="UTF-8" standalone="no"?>
<!DOCTYPE svg PUBLIC "-//W3C//DTD SVG 1.1//EN"
 "http://www.w3.org/Graphics/SVG/1.1/DTD/svg11.dtd">
<!-- Generated by graphviz version 2.43.0 (0)
 -->
<!-- Title: BlackGui::Components::CInfoBarWebReadersStatusSmallComponent Pages: 1 -->
<svg width="192pt" height="285pt"
 viewBox="0.00 0.00 192.00 285.00" xmlns="http://www.w3.org/2000/svg" xmlns:xlink="http://www.w3.org/1999/xlink">
<g id="graph0" class="graph" transform="scale(1 1) rotate(0) translate(4 281)">
<title>BlackGui::Components::CInfoBarWebReadersStatusSmallComponent</title>
<!-- Node1 -->
<g id="node1" class="node">
<title>Node1</title>
<g id="a_node1"><a xlink:title="Smaller version of CInfoBarWebReadersStatusComponent.">
<polygon fill="#bfbfbf" stroke="black" points="0,-0.5 0,-41.5 184,-41.5 184,-0.5 0,-0.5"/>
<text text-anchor="start" x="8" y="-29.5" font-family="Helvetica,sans-Serif" font-size="10.00">BlackGui::Components</text>
<text text-anchor="start" x="8" y="-18.5" font-family="Helvetica,sans-Serif" font-size="10.00">::CInfoBarWebReadersStatusSmall</text>
<text text-anchor="middle" x="92" y="-7.5" font-family="Helvetica,sans-Serif" font-size="10.00">Component</text>
</a>
</g>
</g>
<!-- Node2 -->
<g id="node2" class="node">
<title>Node2</title>
<g id="a_node2"><a xlink:href="class_black_gui_1_1_components_1_1_c_info_bar_web_readers_status_base.html" target="_top" xlink:title="Info bar displaying status of web readers(swift DB, ...)">
<polygon fill="none" stroke="black" points="2,-78.5 2,-108.5 182,-108.5 182,-78.5 2,-78.5"/>
<text text-anchor="start" x="10" y="-96.5" font-family="Helvetica,sans-Serif" font-size="10.00">BlackGui::Components</text>
<text text-anchor="middle" x="92" y="-85.5" font-family="Helvetica,sans-Serif" font-size="10.00">::CInfoBarWebReadersStatusBase</text>
</a>
</g>
</g>
<!-- Node2&#45;&gt;Node1 -->
<g id="edge1" class="edge">
<title>Node2&#45;&gt;Node1</title>
<path fill="none" stroke="midnightblue" d="M92,-67.98C92,-59.35 92,-49.76 92,-41.59"/>
<polygon fill="midnightblue" stroke="midnightblue" points="88.5,-68.23 92,-78.23 95.5,-68.23 88.5,-68.23"/>
</g>
<!-- Node3 -->
<g id="node3" class="node">
<title>Node3</title>
<g id="a_node3"><a target="_parent" xlink:href="http://doc.qt.io/qt-5/qframe.html" xlink:title=" ">
<polygon fill="none" stroke="black" points="64.5,-145.5 64.5,-164.5 119.5,-164.5 119.5,-145.5 64.5,-145.5"/>
<text text-anchor="middle" x="92" y="-152.5" font-family="Helvetica,sans-Serif" font-size="10.00">QFrame</text>
</a>
</g>
</g>
<!-- Node3&#45;&gt;Node2 -->
<g id="edge2" class="edge">
<title>Node3&#45;&gt;Node2</title>
<path fill="none" stroke="midnightblue" d="M92,-135.23C92,-126.59 92,-116.5 92,-108.52"/>
<polygon fill="midnightblue" stroke="midnightblue" points="88.5,-135.48 92,-145.48 95.5,-135.48 88.5,-135.48"/>
</g>
<!-- Node4 -->
<g id="node4" class="node">
<title>Node4</title>
<g id="a_node4"><a target="_parent" xlink:href="http://doc.qt.io/qt-5/qwidget.html" xlink:title=" ">
<polygon fill="none" stroke="black" points="62.5,-201.5 62.5,-220.5 121.5,-220.5 121.5,-201.5 62.5,-201.5"/>
<text text-anchor="middle" x="92" y="-208.5" font-family="Helvetica,sans-Serif" font-size="10.00">QWidget</text>
</a>
</g>
</g>
<!-- Node4&#45;&gt;Node3 -->
<g id="edge3" class="edge">
<title>Node4&#45;&gt;Node3</title>
<path fill="none" stroke="midnightblue" d="M92,-190.8C92,-181.91 92,-171.78 92,-164.75"/>
<polygon fill="midnightblue" stroke="midnightblue" points="88.5,-191.08 92,-201.08 95.5,-191.08 88.5,-191.08"/>
</g>
<!-- Node5 -->
<g id="node5" class="node">
<title>Node5</title>
<g id="a_node5"><a target="_parent" xlink:href="http://doc.qt.io/qt-5/qobject.html" xlink:title=" ">
<polygon fill="none" stroke="black" points="21,-257.5 21,-276.5 77,-276.5 77,-257.5 21,-257.5"/>
<text text-anchor="middle" x="49" y="-264.5" font-family="Helvetica,sans-Serif" font-size="10.00">QObject</text>
</a>
</g>
</g>
<!-- Node5&#45;&gt;Node4 -->
<g id="edge4" class="edge">
<title>Node5&#45;&gt;Node4</title>
<path fill="none" stroke="midnightblue" d="M62.42,-249.14C69.91,-239.74 78.94,-228.4 85.03,-220.75"/>
<polygon fill="midnightblue" stroke="midnightblue" points="59.59,-247.08 56.1,-257.08 65.07,-251.44 59.59,-247.08"/>
</g>
<!-- Node6 -->
<g id="node6" class="node">
<title>Node6</title>
<g id="a_node6"><a target="_parent" xlink:href="http://doc.qt.io/qt-5/qpaintdevice.html" xlink:title=" ">
<polygon fill="none" stroke="black" points="95,-257.5 95,-276.5 177,-276.5 177,-257.5 95,-257.5"/>
<text text-anchor="middle" x="136" y="-264.5" font-family="Helvetica,sans-Serif" font-size="10.00">QPaintDevice</text>
</a>
</g>
</g>
<!-- Node6&#45;&gt;Node4 -->
<g id="edge5" class="edge">
<title>Node6&#45;&gt;Node4</title>
<path fill="none" stroke="midnightblue" d="M122.27,-249.14C114.6,-239.74 105.37,-228.4 99.13,-220.75"/>
<polygon fill="midnightblue" stroke="midnightblue" points="119.7,-251.54 128.73,-257.08 125.13,-247.12 119.7,-251.54"/>
</g>
</g>
</svg>
