<?xml version="1.0" encoding="UTF-8" standalone="no"?>
<!DOCTYPE svg PUBLIC "-//W3C//DTD SVG 1.1//EN"
 "http://www.w3.org/Graphics/SVG/1.1/DTD/svg11.dtd">
<!-- Generated by graphviz version 2.43.0 (0)
 -->
<!-- Title: BlackMisc::Aviation::CAltitude Pages: 1 -->
<svg width="756pt" height="492pt"
 viewBox="0.00 0.00 756.00 491.98" xmlns="http://www.w3.org/2000/svg" xmlns:xlink="http://www.w3.org/1999/xlink">
<g id="graph0" class="graph" transform="scale(1 1) rotate(0) translate(4 487.98)">
<title>BlackMisc::Aviation::CAltitude</title>
<!-- Node1 -->
<g id="node1" class="node">
<title>Node1</title>
<g id="a_node1"><a xlink:title="Altitude as used in aviation, can be AGL or MSL altitude.">
<polygon fill="#bfbfbf" stroke="black" points="636,-224.5 636,-254.5 748,-254.5 748,-224.5 636,-224.5"/>
<text text-anchor="start" x="644" y="-242.5" font-family="Helvetica,sans-Serif" font-size="10.00">BlackMisc::Aviation</text>
<text text-anchor="middle" x="692" y="-231.5" font-family="Helvetica,sans-Serif" font-size="10.00">::CAltitude</text>
</a>
</g>
</g>
<!-- Node2 -->
<g id="node2" class="node">
<title>Node2</title>
<g id="a_node2"><a xlink:href="class_black_misc_1_1_physical_quantities_1_1_c_length.html" target="_top" xlink:title="Physical unit length (length)">
<polygon fill="none" stroke="black" points="437,-224.5 437,-254.5 600,-254.5 600,-224.5 437,-224.5"/>
<text text-anchor="start" x="445" y="-242.5" font-family="Helvetica,sans-Serif" font-size="10.00">BlackMisc::PhysicalQuantities</text>
<text text-anchor="middle" x="518.5" y="-231.5" font-family="Helvetica,sans-Serif" font-size="10.00">::CLength</text>
</a>
</g>
</g>
<!-- Node2&#45;&gt;Node1 -->
<g id="edge1" class="edge">
<title>Node2&#45;&gt;Node1</title>
<path fill="none" stroke="midnightblue" d="M610.35,-239.5C618.97,-239.5 627.52,-239.5 635.65,-239.5"/>
<polygon fill="midnightblue" stroke="midnightblue" points="610.23,-236 600.23,-239.5 610.23,-243 610.23,-236"/>
</g>
<!-- Node3 -->
<g id="node3" class="node">
<title>Node3</title>
<g id="a_node3"><a xlink:href="class_black_misc_1_1_physical_quantities_1_1_c_physical_quantity.html" target="_top" xlink:title=" ">
<polygon fill="none" stroke="black" points="215,-252 215,-293 401,-293 401,-252 215,-252"/>
<text text-anchor="start" x="223" y="-281" font-family="Helvetica,sans-Serif" font-size="10.00">BlackMisc::PhysicalQuantities</text>
<text text-anchor="start" x="223" y="-270" font-family="Helvetica,sans-Serif" font-size="10.00">::CPhysicalQuantity&lt; CLengthUnit,</text>
<text text-anchor="middle" x="308" y="-259" font-family="Helvetica,sans-Serif" font-size="10.00"> CLength &gt;</text>
</a>
</g>
</g>
<!-- Node3&#45;&gt;Node2 -->
<g id="edge2" class="edge">
<title>Node3&#45;&gt;Node2</title>
<path fill="none" stroke="midnightblue" d="M411.13,-256.34C419.73,-254.98 428.34,-253.61 436.74,-252.28"/>
<polygon fill="midnightblue" stroke="midnightblue" points="410.39,-252.91 401.06,-257.93 411.48,-259.82 410.39,-252.91"/>
</g>
<!-- Node4 -->
<g id="node4" class="node">
<title>Node4</title>
<g id="a_node4"><a xlink:href="class_black_misc_1_1_mixin_1_1_d_bus_operators.html" target="_top" xlink:title="CRTP class template which will generate marshalling operators for a derived class with its own marsha...">
<polygon fill="none" stroke="black" points="0,-425.5 0,-455.5 179,-455.5 179,-425.5 0,-425.5"/>
<text text-anchor="start" x="8" y="-443.5" font-family="Helvetica,sans-Serif" font-size="10.00">BlackMisc::Mixin::DBusOperators</text>
<text text-anchor="middle" x="89.5" y="-432.5" font-family="Helvetica,sans-Serif" font-size="10.00">&lt; Derived,... &gt;</text>
</a>
</g>
</g>
<!-- Node4&#45;&gt;Node3 -->
<g id="edge3" class="edge">
<title>Node4&#45;&gt;Node3</title>
<path fill="none" stroke="midnightblue" d="M174.09,-420.13C175.78,-418.99 177.42,-417.78 179,-416.5 206.2,-394.49 192.89,-373.61 215,-346.5 232.1,-325.53 256.03,-306.51 275.19,-293.01"/>
<polygon fill="midnightblue" stroke="midnightblue" points="172.08,-417.25 165.24,-425.34 175.63,-423.28 172.08,-417.25"/>
</g>
<!-- Node14 -->
<g id="node14" class="node">
<title>Node14</title>
<g id="a_node14"><a xlink:href="class_black_misc_1_1_mixin_1_1_d_bus_by_meta_class.html" target="_top" xlink:title=" ">
<polygon fill="none" stroke="black" points="236.5,-355.5 236.5,-385.5 379.5,-385.5 379.5,-355.5 236.5,-355.5"/>
<text text-anchor="start" x="244.5" y="-373.5" font-family="Helvetica,sans-Serif" font-size="10.00">BlackMisc::Mixin::DBusBy</text>
<text text-anchor="middle" x="308" y="-362.5" font-family="Helvetica,sans-Serif" font-size="10.00">MetaClass&lt; CAltitude &gt;</text>
</a>
</g>
</g>
<!-- Node4&#45;&gt;Node14 -->
<g id="edge14" class="edge">
<title>Node4&#45;&gt;Node14</title>
<path fill="none" stroke="midnightblue" d="M158.79,-422.57C165.64,-420.6 172.47,-418.56 179,-416.5 209.07,-407.04 242.59,-394.93 267.78,-385.52"/>
<polygon fill="midnightblue" stroke="midnightblue" points="157.44,-419.32 148.77,-425.41 159.35,-426.05 157.44,-419.32"/>
</g>
<!-- Node15 -->
<g id="node15" class="node">
<title>Node15</title>
<g id="a_node15"><a xlink:href="class_black_misc_1_1_mixin_1_1_d_bus_by_meta_class.html" target="_top" xlink:title=" ">
<polygon fill="none" stroke="black" points="236.5,-434 236.5,-475 379.5,-475 379.5,-434 236.5,-434"/>
<text text-anchor="start" x="244.5" y="-463" font-family="Helvetica,sans-Serif" font-size="10.00">BlackMisc::Mixin::DBusBy</text>
<text text-anchor="start" x="244.5" y="-452" font-family="Helvetica,sans-Serif" font-size="10.00">MetaClass&lt; CAltitude,</text>
<text text-anchor="middle" x="308" y="-441" font-family="Helvetica,sans-Serif" font-size="10.00"> LosslessTag &gt;</text>
</a>
</g>
</g>
<!-- Node4&#45;&gt;Node15 -->
<g id="edge16" class="edge">
<title>Node4&#45;&gt;Node15</title>
<path fill="none" stroke="midnightblue" d="M189.51,-446.9C205.31,-447.92 221.37,-448.96 236.33,-449.93"/>
<polygon fill="midnightblue" stroke="midnightblue" points="189.39,-443.39 179.18,-446.23 188.94,-450.37 189.39,-443.39"/>
</g>
<!-- Node5 -->
<g id="node5" class="node">
<title>Node5</title>
<g id="a_node5"><a xlink:href="class_black_misc_1_1_mixin_1_1_data_stream_operators.html" target="_top" xlink:title="CRTP class template to generate non&#45;member QDataStream streaming operators.">
<polygon fill="none" stroke="black" points="7.5,-180.5 7.5,-210.5 171.5,-210.5 171.5,-180.5 7.5,-180.5"/>
<text text-anchor="start" x="15.5" y="-198.5" font-family="Helvetica,sans-Serif" font-size="10.00">BlackMisc::Mixin::DataStream</text>
<text text-anchor="middle" x="89.5" y="-187.5" font-family="Helvetica,sans-Serif" font-size="10.00">Operators&lt; Derived &gt;</text>
</a>
</g>
</g>
<!-- Node5&#45;&gt;Node3 -->
<g id="edge4" class="edge">
<title>Node5&#45;&gt;Node3</title>
<path fill="none" stroke="midnightblue" d="M160.31,-213.53C166.66,-215.44 172.97,-217.44 179,-219.5 206.77,-228.97 237.14,-241.45 261.33,-251.92"/>
<polygon fill="midnightblue" stroke="midnightblue" points="160.9,-210.06 150.32,-210.6 158.93,-216.78 160.9,-210.06"/>
</g>
<!-- Node16 -->
<g id="node16" class="node">
<title>Node16</title>
<g id="a_node16"><a xlink:href="class_black_misc_1_1_mixin_1_1_data_stream_by_meta_class.html" target="_top" xlink:title=" ">
<polygon fill="none" stroke="black" points="226,-180.5 226,-210.5 390,-210.5 390,-180.5 226,-180.5"/>
<text text-anchor="start" x="234" y="-198.5" font-family="Helvetica,sans-Serif" font-size="10.00">BlackMisc::Mixin::DataStream</text>
<text text-anchor="middle" x="308" y="-187.5" font-family="Helvetica,sans-Serif" font-size="10.00">ByMetaClass&lt; CAltitude &gt;</text>
</a>
</g>
</g>
<!-- Node5&#45;&gt;Node16 -->
<g id="edge18" class="edge">
<title>Node5&#45;&gt;Node16</title>
<path fill="none" stroke="midnightblue" d="M181.75,-195.5C196.33,-195.5 211.34,-195.5 225.67,-195.5"/>
<polygon fill="midnightblue" stroke="midnightblue" points="181.73,-192 171.73,-195.5 181.73,-199 181.73,-192"/>
</g>
<!-- Node6 -->
<g id="node6" class="node">
<title>Node6</title>
<g id="a_node6"><a xlink:href="class_black_misc_1_1_mixin_1_1_json_operators.html" target="_top" xlink:title="CRTP class template which will generate marshalling operators for a derived class with its own marsha...">
<polygon fill="none" stroke="black" points="3,-131.5 3,-161.5 176,-161.5 176,-131.5 3,-131.5"/>
<text text-anchor="start" x="11" y="-149.5" font-family="Helvetica,sans-Serif" font-size="10.00">BlackMisc::Mixin::JsonOperators</text>
<text text-anchor="middle" x="89.5" y="-138.5" font-family="Helvetica,sans-Serif" font-size="10.00">&lt; Derived &gt;</text>
</a>
</g>
</g>
<!-- Node6&#45;&gt;Node3 -->
<g id="edge5" class="edge">
<title>Node6&#45;&gt;Node3</title>
<path fill="none" stroke="midnightblue" d="M171.95,-166.14C174.38,-167.5 176.74,-168.95 179,-170.5 201.29,-185.78 194.86,-201.48 215,-219.5 229.15,-232.16 246.81,-243.21 262.86,-251.9"/>
<polygon fill="midnightblue" stroke="midnightblue" points="173.39,-162.95 162.87,-161.63 170.27,-169.22 173.39,-162.95"/>
</g>
<!-- Node17 -->
<g id="node17" class="node">
<title>Node17</title>
<g id="a_node17"><a xlink:href="class_black_misc_1_1_mixin_1_1_json_by_meta_class.html" target="_top" xlink:title=" ">
<polygon fill="none" stroke="black" points="239,-131.5 239,-161.5 377,-161.5 377,-131.5 239,-131.5"/>
<text text-anchor="start" x="247" y="-149.5" font-family="Helvetica,sans-Serif" font-size="10.00">BlackMisc::Mixin::JsonBy</text>
<text text-anchor="middle" x="308" y="-138.5" font-family="Helvetica,sans-Serif" font-size="10.00">MetaClass&lt; CAltitude &gt;</text>
</a>
</g>
</g>
<!-- Node6&#45;&gt;Node17 -->
<g id="edge20" class="edge">
<title>Node6&#45;&gt;Node17</title>
<path fill="none" stroke="midnightblue" d="M186.39,-146.5C204.02,-146.5 222.1,-146.5 238.72,-146.5"/>
<polygon fill="midnightblue" stroke="midnightblue" points="186.07,-143 176.07,-146.5 186.07,-150 186.07,-143"/>
</g>
<!-- Node7 -->
<g id="node7" class="node">
<title>Node7</title>
<g id="a_node7"><a xlink:href="class_black_misc_1_1_mixin_1_1_index.html" target="_top" xlink:title="CRTP class template from which a derived class can inherit property indexing functions.">
<polygon fill="none" stroke="black" points="23.5,-327.5 23.5,-357.5 155.5,-357.5 155.5,-327.5 23.5,-327.5"/>
<text text-anchor="start" x="31.5" y="-345.5" font-family="Helvetica,sans-Serif" font-size="10.00">BlackMisc::Mixin::Index</text>
<text text-anchor="middle" x="89.5" y="-334.5" font-family="Helvetica,sans-Serif" font-size="10.00">&lt; Derived &gt;</text>
</a>
</g>
</g>
<!-- Node7&#45;&gt;Node3 -->
<g id="edge6" class="edge">
<title>Node7&#45;&gt;Node3</title>
<path fill="none" stroke="midnightblue" d="M158.79,-324.57C165.64,-322.6 172.47,-320.56 179,-318.5 203.44,-310.81 230.15,-301.37 252.83,-293.06"/>
<polygon fill="midnightblue" stroke="midnightblue" points="157.44,-321.32 148.77,-327.41 159.35,-328.05 157.44,-321.32"/>
</g>
<!-- Node8 -->
<g id="node8" class="node">
<title>Node8</title>
<g id="a_node8"><a xlink:href="class_black_misc_1_1_mixin_1_1_meta_type.html" target="_top" xlink:title="CRTP class template from which a derived class can inherit common methods dealing with the metatype o...">
<polygon fill="none" stroke="black" points="13.5,-278.5 13.5,-308.5 165.5,-308.5 165.5,-278.5 13.5,-278.5"/>
<text text-anchor="start" x="21.5" y="-296.5" font-family="Helvetica,sans-Serif" font-size="10.00">BlackMisc::Mixin::MetaType</text>
<text text-anchor="middle" x="89.5" y="-285.5" font-family="Helvetica,sans-Serif" font-size="10.00">&lt; Derived &gt;</text>
</a>
</g>
</g>
<!-- Node8&#45;&gt;Node3 -->
<g id="edge7" class="edge">
<title>Node8&#45;&gt;Node3</title>
<path fill="none" stroke="midnightblue" d="M175.79,-285.23C188.61,-283.98 201.88,-282.7 214.84,-281.44"/>
<polygon fill="midnightblue" stroke="midnightblue" points="175.23,-281.76 165.61,-286.21 175.9,-288.73 175.23,-281.76"/>
</g>
<!-- Node9 -->
<g id="node9" class="node">
<title>Node9</title>
<g id="a_node9"><a xlink:href="class_black_misc_1_1_mixin_1_1_string.html" target="_top" xlink:title="CRTP class template from which a derived class can inherit string streaming operations.">
<polygon fill="none" stroke="black" points="22.5,-229.5 22.5,-259.5 156.5,-259.5 156.5,-229.5 22.5,-229.5"/>
<text text-anchor="start" x="30.5" y="-247.5" font-family="Helvetica,sans-Serif" font-size="10.00">BlackMisc::Mixin::String</text>
<text text-anchor="middle" x="89.5" y="-236.5" font-family="Helvetica,sans-Serif" font-size="10.00">&lt; Derived &gt;</text>
</a>
</g>
</g>
<!-- Node9&#45;&gt;Node3 -->
<g id="edge8" class="edge">
<title>Node9&#45;&gt;Node3</title>
<path fill="none" stroke="midnightblue" d="M166.73,-254.36C182.32,-256.38 198.89,-258.52 214.97,-260.6"/>
<polygon fill="midnightblue" stroke="midnightblue" points="167,-250.86 156.63,-253.05 166.1,-257.81 167,-250.86"/>
</g>
<!-- Node10 -->
<g id="node10" class="node">
<title>Node10</title>
<g id="a_node10"><a xlink:href="class_black_misc_1_1_mixin_1_1_icon.html" target="_top" xlink:title="CRTP class template from which a derived class can inherit icon&#45;related functions.">
<polygon fill="none" stroke="black" points="24,-376.5 24,-406.5 155,-406.5 155,-376.5 24,-376.5"/>
<text text-anchor="start" x="32" y="-394.5" font-family="Helvetica,sans-Serif" font-size="10.00">BlackMisc::Mixin::Icon</text>
<text text-anchor="middle" x="89.5" y="-383.5" font-family="Helvetica,sans-Serif" font-size="10.00">&lt; Derived, IconIndex &gt;</text>
</a>
</g>
</g>
<!-- Node10&#45;&gt;Node3 -->
<g id="edge9" class="edge">
<title>Node10&#45;&gt;Node3</title>
<path fill="none" stroke="midnightblue" d="M164.81,-373.58C169.69,-371.73 174.46,-369.7 179,-367.5 200.41,-357.11 250.83,-317.8 281.62,-293.12"/>
<polygon fill="midnightblue" stroke="midnightblue" points="163.59,-370.3 155.34,-376.95 165.93,-376.9 163.59,-370.3"/>
</g>
<!-- Node11 -->
<g id="node11" class="node">
<title>Node11</title>
<g id="a_node11"><a xlink:href="class_black_misc_1_1_mixin_1_1_meta_type.html" target="_top" xlink:title=" ">
<polygon fill="none" stroke="black" points="442.5,-410.5 442.5,-440.5 594.5,-440.5 594.5,-410.5 442.5,-410.5"/>
<text text-anchor="start" x="450.5" y="-428.5" font-family="Helvetica,sans-Serif" font-size="10.00">BlackMisc::Mixin::MetaType</text>
<text text-anchor="middle" x="518.5" y="-417.5" font-family="Helvetica,sans-Serif" font-size="10.00">&lt; CAltitude &gt;</text>
</a>
</g>
</g>
<!-- Node11&#45;&gt;Node1 -->
<g id="edge10" class="edge">
<title>Node11&#45;&gt;Node1</title>
<path fill="none" stroke="midnightblue" d="M594.5,-405.48C596.4,-404.23 598.24,-402.91 600,-401.5 649.89,-361.62 677.04,-286.52 686.79,-254.54"/>
<polygon fill="midnightblue" stroke="midnightblue" points="592.73,-402.45 585.79,-410.46 596.21,-408.53 592.73,-402.45"/>
</g>
<!-- Node12 -->
<g id="node12" class="node">
<title>Node12</title>
<g id="a_node12"><a xlink:href="class_black_misc_1_1_mixin_1_1_equals_by_meta_class.html" target="_top" xlink:title=" ">
<polygon fill="none" stroke="black" points="444.5,-361.5 444.5,-391.5 592.5,-391.5 592.5,-361.5 444.5,-361.5"/>
<text text-anchor="start" x="452.5" y="-379.5" font-family="Helvetica,sans-Serif" font-size="10.00">BlackMisc::Mixin::Equals</text>
<text text-anchor="middle" x="518.5" y="-368.5" font-family="Helvetica,sans-Serif" font-size="10.00">ByMetaClass&lt; CAltitude &gt;</text>
</a>
</g>
</g>
<!-- Node12&#45;&gt;Node1 -->
<g id="edge11" class="edge">
<title>Node12&#45;&gt;Node1</title>
<path fill="none" stroke="midnightblue" d="M592.55,-357C595.12,-355.6 597.62,-354.1 600,-352.5 638.69,-326.52 668.98,-279.08 682.81,-254.76"/>
<polygon fill="midnightblue" stroke="midnightblue" points="591,-353.86 583.55,-361.38 594.07,-360.15 591,-353.86"/>
</g>
<!-- Node13 -->
<g id="node13" class="node">
<title>Node13</title>
<g id="a_node13"><a xlink:href="class_black_misc_1_1_mixin_1_1_hash_by_meta_class.html" target="_top" xlink:title=" ">
<polygon fill="none" stroke="black" points="447,-312.5 447,-342.5 590,-342.5 590,-312.5 447,-312.5"/>
<text text-anchor="start" x="455" y="-330.5" font-family="Helvetica,sans-Serif" font-size="10.00">BlackMisc::Mixin::HashBy</text>
<text text-anchor="middle" x="518.5" y="-319.5" font-family="Helvetica,sans-Serif" font-size="10.00">MetaClass&lt; CAltitude &gt;</text>
</a>
</g>
</g>
<!-- Node13&#45;&gt;Node1 -->
<g id="edge12" class="edge">
<title>Node13&#45;&gt;Node1</title>
<path fill="none" stroke="midnightblue" d="M574.31,-308.85C583.04,-305.38 591.86,-301.55 600,-297.5 625.15,-284.97 652.07,-267.21 670.05,-254.65"/>
<polygon fill="midnightblue" stroke="midnightblue" points="572.99,-305.61 564.92,-312.48 575.51,-312.14 572.99,-305.61"/>
</g>
<!-- Node14&#45;&gt;Node1 -->
<g id="edge13" class="edge">
<title>Node14&#45;&gt;Node1</title>
<path fill="none" stroke="midnightblue" d="M342.46,-350.12C367.69,-335.47 403.57,-316.14 437,-303.5 506.77,-277.12 527.71,-281.9 600,-263.5 611.56,-260.56 623.92,-257.34 635.7,-254.25"/>
<polygon fill="midnightblue" stroke="midnightblue" points="340.51,-347.2 333.66,-355.29 344.06,-353.24 340.51,-347.2"/>
</g>
<!-- Node15&#45;&gt;Node1 -->
<g id="edge15" class="edge">
<title>Node15&#45;&gt;Node1</title>
<path fill="none" stroke="midnightblue" d="M389.49,-475.51C452.14,-486.98 538.47,-491.58 600,-450.5 668.68,-404.65 685.79,-294.99 689.82,-254.69"/>
<polygon fill="midnightblue" stroke="midnightblue" points="390.13,-472.07 379.65,-473.62 388.81,-478.94 390.13,-472.07"/>
</g>
<!-- Node16&#45;&gt;Node1 -->
<g id="edge17" class="edge">
<title>Node16&#45;&gt;Node1</title>
<path fill="none" stroke="midnightblue" d="M400.28,-196.72C457.9,-198.65 533.71,-203.35 600,-214.5 614.22,-216.89 629.41,-220.59 643.24,-224.42"/>
<polygon fill="midnightblue" stroke="midnightblue" points="400.21,-193.21 390.1,-196.4 399.99,-200.21 400.21,-193.21"/>
</g>
<!-- Node17&#45;&gt;Node1 -->
<g id="edge19" class="edge">
<title>Node17&#45;&gt;Node1</title>
<path fill="none" stroke="midnightblue" d="M387.09,-153.57C446.51,-160.4 529.75,-173.11 600,-195.5 622.74,-202.75 647,-214.71 664.75,-224.34"/>
<polygon fill="midnightblue" stroke="midnightblue" points="387.36,-150.08 377.03,-152.45 386.58,-157.04 387.36,-150.08"/>
</g>
<!-- Node18 -->
<g id="node18" class="node">
<title>Node18</title>
<g id="a_node18"><a xlink:href="class_black_misc_1_1_mixin_1_1_string.html" target="_top" xlink:title=" ">
<polygon fill="none" stroke="black" points="451.5,-98.5 451.5,-128.5 585.5,-128.5 585.5,-98.5 451.5,-98.5"/>
<text text-anchor="start" x="459.5" y="-116.5" font-family="Helvetica,sans-Serif" font-size="10.00">BlackMisc::Mixin::String</text>
<text text-anchor="middle" x="518.5" y="-105.5" font-family="Helvetica,sans-Serif" font-size="10.00">&lt; CAltitude &gt;</text>
</a>
</g>
</g>
<!-- Node18&#45;&gt;Node1 -->
<g id="edge21" class="edge">
<title>Node18&#45;&gt;Node1</title>
<path fill="none" stroke="midnightblue" d="M580.12,-132.62C587.06,-135.81 593.84,-139.43 600,-143.5 634.09,-166.05 664.77,-203.66 680.3,-224.48"/>
<polygon fill="midnightblue" stroke="midnightblue" points="581.17,-129.26 570.6,-128.53 578.41,-135.69 581.17,-129.26"/>
</g>
<!-- Node19 -->
<g id="node19" class="node">
<title>Node19</title>
<g id="a_node19"><a xlink:href="class_black_misc_1_1_mixin_1_1_icon.html" target="_top" xlink:title=" ">
<polygon fill="none" stroke="black" points="456,-49.5 456,-79.5 581,-79.5 581,-49.5 456,-49.5"/>
<text text-anchor="start" x="464" y="-67.5" font-family="Helvetica,sans-Serif" font-size="10.00">BlackMisc::Mixin::Icon</text>
<text text-anchor="middle" x="518.5" y="-56.5" font-family="Helvetica,sans-Serif" font-size="10.00">&lt; CAltitude &gt;</text>
</a>
</g>
</g>
<!-- Node19&#45;&gt;Node1 -->
<g id="edge22" class="edge">
<title>Node19&#45;&gt;Node1</title>
<path fill="none" stroke="midnightblue" d="M590.41,-82.18C593.78,-84.07 597,-86.18 600,-88.5 647.18,-125.05 675.29,-193.53 686,-224.09"/>
<polygon fill="midnightblue" stroke="midnightblue" points="591.71,-78.92 581.2,-77.62 588.61,-85.19 591.71,-78.92"/>
</g>
<!-- Node20 -->
<g id="node20" class="node">
<title>Node20</title>
<g id="a_node20"><a xlink:href="class_black_misc_1_1_mixin_1_1_index.html" target="_top" xlink:title=" ">
<polygon fill="none" stroke="black" points="452.5,-0.5 452.5,-30.5 584.5,-30.5 584.5,-0.5 452.5,-0.5"/>
<text text-anchor="start" x="460.5" y="-18.5" font-family="Helvetica,sans-Serif" font-size="10.00">BlackMisc::Mixin::Index</text>
<text text-anchor="middle" x="518.5" y="-7.5" font-family="Helvetica,sans-Serif" font-size="10.00">&lt; CAltitude &gt;</text>
</a>
</g>
</g>
<!-- Node20&#45;&gt;Node1 -->
<g id="edge23" class="edge">
<title>Node20&#45;&gt;Node1</title>
<path fill="none" stroke="midnightblue" d="M593.59,-34.6C595.83,-36.11 597.98,-37.74 600,-39.5 658.67,-90.62 681.62,-187.27 688.52,-224.42"/>
<polygon fill="midnightblue" stroke="midnightblue" points="594.94,-31.33 584.53,-29.34 591.42,-37.38 594.94,-31.33"/>
</g>
</g>
</svg>
