<?xml version="1.0" encoding="UTF-8" standalone="no"?>
<!DOCTYPE svg PUBLIC "-//W3C//DTD SVG 1.1//EN"
 "http://www.w3.org/Graphics/SVG/1.1/DTD/svg11.dtd">
<!-- Generated by graphviz version 2.43.0 (0)
 -->
<!-- Title: BlackMisc::Simulation::Data::IMultiSimulatorModelCaches Pages: 1 -->
<svg width="865pt" height="313pt"
 viewBox="0.00 0.00 865.00 312.50" xmlns="http://www.w3.org/2000/svg" xmlns:xlink="http://www.w3.org/1999/xlink">
<g id="graph0" class="graph" transform="scale(1 1) rotate(0) translate(4 308.5)">
<title>BlackMisc::Simulation::Data::IMultiSimulatorModelCaches</title>
<!-- Node1 -->
<g id="node1" class="node">
<title>Node1</title>
<g id="a_node1"><a xlink:title="Cache for multiple simulators specified by CSimulatorInfo.">
<polygon fill="#bfbfbf" stroke="black" points="209,-104 209,-145 366,-145 366,-104 209,-104"/>
<text text-anchor="start" x="217" y="-133" font-family="Helvetica,sans-Serif" font-size="10.00">BlackMisc::Simulation</text>
<text text-anchor="start" x="217" y="-122" font-family="Helvetica,sans-Serif" font-size="10.00">::Data::IMultiSimulatorModel</text>
<text text-anchor="middle" x="287.5" y="-111" font-family="Helvetica,sans-Serif" font-size="10.00">Caches</text>
</a>
</g>
</g>
<!-- Node5 -->
<g id="node5" class="node">
<title>Node5</title>
<g id="a_node5"><a xlink:href="class_black_misc_1_1_simulation_1_1_data_1_1_c_central_multi_simulator_model_caches_provider_base.html" target="_top" xlink:title=" ">
<polygon fill="none" stroke="black" points="402,-241 402,-304 655,-304 655,-241 402,-241"/>
<text text-anchor="start" x="410" y="-292" font-family="Helvetica,sans-Serif" font-size="10.00">BlackMisc::Simulation</text>
<text text-anchor="start" x="410" y="-281" font-family="Helvetica,sans-Serif" font-size="10.00">::Data::CCentralMultiSimulator</text>
<text text-anchor="start" x="410" y="-270" font-family="Helvetica,sans-Serif" font-size="10.00">ModelCachesProviderBase&lt; CModelSet</text>
<text text-anchor="start" x="410" y="-259" font-family="Helvetica,sans-Serif" font-size="10.00">Caches, CCentralMultiSimulatorModelSetCaches</text>
<text text-anchor="middle" x="528.5" y="-248" font-family="Helvetica,sans-Serif" font-size="10.00">Provider &gt;</text>
</a>
</g>
</g>
<!-- Node1&#45;&gt;Node5 -->
<g id="edge4" class="edge">
<title>Node1&#45;&gt;Node5</title>
<path fill="none" stroke="midnightblue" d="M312.49,-152.89C333.84,-176.56 367.03,-209.68 402,-230.5 408.32,-234.26 415.02,-237.74 421.9,-240.94"/>
<polygon fill="midnightblue" stroke="midnightblue" points="314.97,-150.41 305.72,-145.25 309.74,-155.05 314.97,-150.41"/>
</g>
<!-- Node7 -->
<g id="node7" class="node">
<title>Node7</title>
<g id="a_node7"><a xlink:href="class_black_misc_1_1_simulation_1_1_data_1_1_c_central_multi_simulator_model_caches_provider_base.html" target="_top" xlink:title=" ">
<polygon fill="none" stroke="black" points="403,-169.5 403,-221.5 654,-221.5 654,-169.5 403,-169.5"/>
<text text-anchor="start" x="411" y="-209.5" font-family="Helvetica,sans-Serif" font-size="10.00">BlackMisc::Simulation</text>
<text text-anchor="start" x="411" y="-198.5" font-family="Helvetica,sans-Serif" font-size="10.00">::Data::CCentralMultiSimulator</text>
<text text-anchor="start" x="411" y="-187.5" font-family="Helvetica,sans-Serif" font-size="10.00">ModelCachesProviderBase&lt; CModelCaches,</text>
<text text-anchor="middle" x="528.5" y="-176.5" font-family="Helvetica,sans-Serif" font-size="10.00"> CCentralMultiSimulatorModelCachesProvider &gt;</text>
</a>
</g>
</g>
<!-- Node1&#45;&gt;Node7 -->
<g id="edge6" class="edge">
<title>Node1&#45;&gt;Node7</title>
<path fill="none" stroke="midnightblue" d="M364.05,-148.02C376.71,-151.9 389.72,-155.84 402,-159.5 412.97,-162.76 424.5,-166.14 435.93,-169.46"/>
<polygon fill="midnightblue" stroke="midnightblue" points="365.04,-144.67 354.45,-145.08 362.98,-151.36 365.04,-144.67"/>
</g>
<!-- Node9 -->
<g id="node9" class="node">
<title>Node9</title>
<g id="a_node9"><a xlink:href="class_black_misc_1_1_simulation_1_1_data_1_1_c_central_multi_simulator_model_caches_provider_base.html" target="_top" xlink:title="One central instance of the caches base class.">
<polygon fill="none" stroke="black" points="428,-98.5 428,-150.5 629,-150.5 629,-98.5 428,-98.5"/>
<text text-anchor="start" x="436" y="-138.5" font-family="Helvetica,sans-Serif" font-size="10.00">BlackMisc::Simulation</text>
<text text-anchor="start" x="436" y="-127.5" font-family="Helvetica,sans-Serif" font-size="10.00">::Data::CCentralMultiSimulator</text>
<text text-anchor="start" x="436" y="-116.5" font-family="Helvetica,sans-Serif" font-size="10.00">ModelCachesProviderBase&lt; TCaches,</text>
<text text-anchor="middle" x="528.5" y="-105.5" font-family="Helvetica,sans-Serif" font-size="10.00"> Derived &gt;</text>
</a>
</g>
</g>
<!-- Node1&#45;&gt;Node9 -->
<g id="edge8" class="edge">
<title>Node1&#45;&gt;Node9</title>
<path fill="none" stroke="midnightblue" d="M376.36,-124.5C393.04,-124.5 410.61,-124.5 427.64,-124.5"/>
<polygon fill="midnightblue" stroke="midnightblue" points="376.1,-121 366.1,-124.5 376.1,-128 376.1,-121"/>
</g>
<!-- Node10 -->
<g id="node10" class="node">
<title>Node10</title>
<g id="a_node10"><a xlink:href="class_black_misc_1_1_simulation_1_1_data_1_1_c_model_caches.html" target="_top" xlink:title="Bundle of caches for all simulators.">
<polygon fill="none" stroke="black" points="466,-49.5 466,-79.5 591,-79.5 591,-49.5 466,-49.5"/>
<text text-anchor="start" x="474" y="-67.5" font-family="Helvetica,sans-Serif" font-size="10.00">BlackMisc::Simulation</text>
<text text-anchor="middle" x="528.5" y="-56.5" font-family="Helvetica,sans-Serif" font-size="10.00">::Data::CModelCaches</text>
</a>
</g>
</g>
<!-- Node1&#45;&gt;Node10 -->
<g id="edge9" class="edge">
<title>Node1&#45;&gt;Node10</title>
<path fill="none" stroke="midnightblue" d="M358.55,-100.86C372.84,-96.44 387.83,-92.09 402,-88.5 422.64,-83.27 445.45,-78.59 465.9,-74.78"/>
<polygon fill="midnightblue" stroke="midnightblue" points="357.28,-97.59 348.79,-103.92 359.38,-104.27 357.28,-97.59"/>
</g>
<!-- Node11 -->
<g id="node11" class="node">
<title>Node11</title>
<g id="a_node11"><a xlink:href="class_black_misc_1_1_simulation_1_1_data_1_1_c_model_set_caches.html" target="_top" xlink:title="Bundle of caches for model sets of all simulators.">
<polygon fill="none" stroke="black" points="458.5,-0.5 458.5,-30.5 598.5,-30.5 598.5,-0.5 458.5,-0.5"/>
<text text-anchor="start" x="466.5" y="-18.5" font-family="Helvetica,sans-Serif" font-size="10.00">BlackMisc::Simulation</text>
<text text-anchor="middle" x="528.5" y="-7.5" font-family="Helvetica,sans-Serif" font-size="10.00">::Data::CModelSetCaches</text>
</a>
</g>
</g>
<!-- Node1&#45;&gt;Node11 -->
<g id="edge10" class="edge">
<title>Node1&#45;&gt;Node11</title>
<path fill="none" stroke="midnightblue" d="M317.13,-97.19C338.77,-78.1 370.11,-53.58 402,-39.5 419.55,-31.75 439.57,-26.49 458.39,-22.94"/>
<polygon fill="midnightblue" stroke="midnightblue" points="314.71,-94.66 309.61,-103.95 319.39,-99.86 314.71,-94.66"/>
</g>
<!-- Node2 -->
<g id="node2" class="node">
<title>Node2</title>
<g id="a_node2"><a target="_parent" xlink:href="http://doc.qt.io/qt-5/qobject.html" xlink:title=" ">
<polygon fill="none" stroke="black" points="58.5,-159 58.5,-178 114.5,-178 114.5,-159 58.5,-159"/>
<text text-anchor="middle" x="86.5" y="-166" font-family="Helvetica,sans-Serif" font-size="10.00">QObject</text>
</a>
</g>
</g>
<!-- Node2&#45;&gt;Node1 -->
<g id="edge1" class="edge">
<title>Node2&#45;&gt;Node1</title>
<path fill="none" stroke="midnightblue" d="M124.72,-160.27C148.43,-155.03 180.02,-148.04 209,-141.64"/>
<polygon fill="midnightblue" stroke="midnightblue" points="123.76,-156.9 114.75,-162.47 125.27,-163.73 123.76,-156.9"/>
</g>
<!-- Node3 -->
<g id="node3" class="node">
<title>Node3</title>
<g id="a_node3"><a xlink:href="class_black_misc_1_1_simulation_1_1_i_models_for_simulator_setable.html" target="_top" xlink:title="Interface to &quot;something&quot; backing models, which can be set.">
<polygon fill="none" stroke="black" points="6.5,-109.5 6.5,-139.5 166.5,-139.5 166.5,-109.5 6.5,-109.5"/>
<text text-anchor="start" x="14.5" y="-127.5" font-family="Helvetica,sans-Serif" font-size="10.00">BlackMisc::Simulation</text>
<text text-anchor="middle" x="86.5" y="-116.5" font-family="Helvetica,sans-Serif" font-size="10.00">::IModelsForSimulatorSetable</text>
</a>
</g>
</g>
<!-- Node3&#45;&gt;Node1 -->
<g id="edge2" class="edge">
<title>Node3&#45;&gt;Node1</title>
<path fill="none" stroke="midnightblue" d="M176.88,-124.5C187.55,-124.5 198.37,-124.5 208.85,-124.5"/>
<polygon fill="midnightblue" stroke="midnightblue" points="176.72,-121 166.72,-124.5 176.72,-128 176.72,-121"/>
</g>
<!-- Node4 -->
<g id="node4" class="node">
<title>Node4</title>
<g id="a_node4"><a xlink:href="class_black_misc_1_1_simulation_1_1_i_models_for_simulator_updatable.html" target="_top" xlink:title="Interface to &quot;something&quot; backing models, which can be modified (updated)">
<polygon fill="none" stroke="black" points="0,-60.5 0,-90.5 173,-90.5 173,-60.5 0,-60.5"/>
<text text-anchor="start" x="8" y="-78.5" font-family="Helvetica,sans-Serif" font-size="10.00">BlackMisc::Simulation</text>
<text text-anchor="middle" x="86.5" y="-67.5" font-family="Helvetica,sans-Serif" font-size="10.00">::IModelsForSimulatorUpdatable</text>
</a>
</g>
</g>
<!-- Node4&#45;&gt;Node1 -->
<g id="edge3" class="edge">
<title>Node4&#45;&gt;Node1</title>
<path fill="none" stroke="midnightblue" d="M158.52,-92.99C174.77,-96.99 192.12,-101.26 208.64,-105.33"/>
<polygon fill="midnightblue" stroke="midnightblue" points="159.11,-89.53 148.56,-90.53 157.43,-96.32 159.11,-89.53"/>
</g>
<!-- Node6 -->
<g id="node6" class="node">
<title>Node6</title>
<g id="a_node6"><a xlink:href="class_black_misc_1_1_simulation_1_1_data_1_1_c_central_multi_simulator_model_set_caches_provider.html" target="_top" xlink:title="One central instance of the model set caches.">
<polygon fill="none" stroke="black" points="691,-252 691,-293 857,-293 857,-252 691,-252"/>
<text text-anchor="start" x="699" y="-281" font-family="Helvetica,sans-Serif" font-size="10.00">BlackMisc::Simulation</text>
<text text-anchor="start" x="699" y="-270" font-family="Helvetica,sans-Serif" font-size="10.00">::Data::CCentralMultiSimulator</text>
<text text-anchor="middle" x="774" y="-259" font-family="Helvetica,sans-Serif" font-size="10.00">ModelSetCachesProvider</text>
</a>
</g>
</g>
<!-- Node5&#45;&gt;Node6 -->
<g id="edge5" class="edge">
<title>Node5&#45;&gt;Node6</title>
<path fill="none" stroke="midnightblue" d="M665.35,-272.5C674,-272.5 682.55,-272.5 690.82,-272.5"/>
<polygon fill="midnightblue" stroke="midnightblue" points="665.17,-269 655.17,-272.5 665.17,-276 665.17,-269"/>
</g>
<!-- Node8 -->
<g id="node8" class="node">
<title>Node8</title>
<g id="a_node8"><a xlink:href="class_black_misc_1_1_simulation_1_1_data_1_1_c_central_multi_simulator_model_caches_provider.html" target="_top" xlink:title="One central instance of the model caches.">
<polygon fill="none" stroke="black" points="691,-175 691,-216 857,-216 857,-175 691,-175"/>
<text text-anchor="start" x="699" y="-204" font-family="Helvetica,sans-Serif" font-size="10.00">BlackMisc::Simulation</text>
<text text-anchor="start" x="699" y="-193" font-family="Helvetica,sans-Serif" font-size="10.00">::Data::CCentralMultiSimulator</text>
<text text-anchor="middle" x="774" y="-182" font-family="Helvetica,sans-Serif" font-size="10.00">ModelCachesProvider</text>
</a>
</g>
</g>
<!-- Node7&#45;&gt;Node8 -->
<g id="edge7" class="edge">
<title>Node7&#45;&gt;Node8</title>
<path fill="none" stroke="midnightblue" d="M664.26,-195.5C673.23,-195.5 682.1,-195.5 690.68,-195.5"/>
<polygon fill="midnightblue" stroke="midnightblue" points="664.1,-192 654.1,-195.5 664.1,-199 664.1,-192"/>
</g>
</g>
</svg>
