<?xml version="1.0" encoding="UTF-8" standalone="no"?>
<!DOCTYPE svg PUBLIC "-//W3C//DTD SVG 1.1//EN"
 "http://www.w3.org/Graphics/SVG/1.1/DTD/svg11.dtd">
<!-- Generated by graphviz version 2.43.0 (0)
 -->
<!-- Title: BlackMisc::Weather::CWeatherGridAware Pages: 1 -->
<svg width="1200pt" height="211pt"
 viewBox="0.00 0.00 1200.00 211.00" xmlns="http://www.w3.org/2000/svg" xmlns:xlink="http://www.w3.org/1999/xlink">
<g id="graph0" class="graph" transform="scale(1 1) rotate(0) translate(4 207)">
<title>BlackMisc::Weather::CWeatherGridAware</title>
<!-- Node1 -->
<g id="node1" class="node">
<title>Node1</title>
<g id="a_node1"><a xlink:title="Delegating class which can be directly used to access an.">
<polygon fill="#bfbfbf" stroke="black" points="182,-98.5 182,-128.5 303,-128.5 303,-98.5 182,-98.5"/>
<text text-anchor="start" x="190" y="-116.5" font-family="Helvetica,sans-Serif" font-size="10.00">BlackMisc::Weather</text>
<text text-anchor="middle" x="242.5" y="-105.5" font-family="Helvetica,sans-Serif" font-size="10.00">::CWeatherGridAware</text>
</a>
</g>
</g>
<!-- Node3 -->
<g id="node3" class="node">
<title>Node3</title>
<g id="a_node3"><a xlink:href="class_black_core_1_1_i_simulator.html" target="_top" xlink:title="Interface to a simulator.">
<polygon fill="none" stroke="black" points="339,-104 339,-123 461,-123 461,-104 339,-104"/>
<text text-anchor="middle" x="400" y="-111" font-family="Helvetica,sans-Serif" font-size="10.00">BlackCore::ISimulator</text>
</a>
</g>
</g>
<!-- Node1&#45;&gt;Node3 -->
<g id="edge2" class="edge">
<title>Node1&#45;&gt;Node3</title>
<path fill="none" stroke="midnightblue" d="M313.19,-113.5C321.79,-113.5 330.53,-113.5 338.97,-113.5"/>
<polygon fill="midnightblue" stroke="midnightblue" points="313.18,-110 303.18,-113.5 313.18,-117 313.18,-110"/>
</g>
<!-- Node2 -->
<g id="node2" class="node">
<title>Node2</title>
<g id="a_node2"><a xlink:href="class_black_misc_1_1_i_provider_aware.html" target="_top" xlink:title=" ">
<polygon fill="none" stroke="black" points="0,-98.5 0,-128.5 146,-128.5 146,-98.5 0,-98.5"/>
<text text-anchor="start" x="8" y="-116.5" font-family="Helvetica,sans-Serif" font-size="10.00">BlackMisc::IProviderAware</text>
<text text-anchor="middle" x="73" y="-105.5" font-family="Helvetica,sans-Serif" font-size="10.00">&lt; IWeatherGridProvider &gt;</text>
</a>
</g>
</g>
<!-- Node2&#45;&gt;Node1 -->
<g id="edge1" class="edge">
<title>Node2&#45;&gt;Node1</title>
<path fill="none" stroke="midnightblue" d="M156.16,-113.5C164.84,-113.5 173.54,-113.5 181.89,-113.5"/>
<polygon fill="midnightblue" stroke="midnightblue" points="156.01,-110 146.01,-113.5 156.01,-117 156.01,-110"/>
</g>
<!-- Node4 -->
<g id="node4" class="node">
<title>Node4</title>
<g id="a_node4"><a xlink:href="class_black_sim_plugin_1_1_common_1_1_c_simulator_plugin_common.html" target="_top" xlink:title="Common base class for simulator plugins.">
<polygon fill="none" stroke="black" points="497,-98.5 497,-128.5 648,-128.5 648,-98.5 497,-98.5"/>
<text text-anchor="start" x="505" y="-116.5" font-family="Helvetica,sans-Serif" font-size="10.00">BlackSimPlugin::Common</text>
<text text-anchor="middle" x="572.5" y="-105.5" font-family="Helvetica,sans-Serif" font-size="10.00">::CSimulatorPluginCommon</text>
</a>
</g>
</g>
<!-- Node3&#45;&gt;Node4 -->
<g id="edge3" class="edge">
<title>Node3&#45;&gt;Node4</title>
<path fill="none" stroke="midnightblue" d="M471.32,-113.5C479.79,-113.5 488.46,-113.5 496.99,-113.5"/>
<polygon fill="midnightblue" stroke="midnightblue" points="471.11,-110 461.11,-113.5 471.11,-117 471.11,-110"/>
</g>
<!-- Node5 -->
<g id="node5" class="node">
<title>Node5</title>
<g id="a_node5"><a xlink:href="class_black_sim_plugin_1_1_emulated_1_1_c_simulator_emulated.html" target="_top" xlink:title="swift simulator implementation">
<polygon fill="none" stroke="black" points="688.5,-172.5 688.5,-202.5 833.5,-202.5 833.5,-172.5 688.5,-172.5"/>
<text text-anchor="start" x="696.5" y="-190.5" font-family="Helvetica,sans-Serif" font-size="10.00">BlackSimPlugin::Emulated</text>
<text text-anchor="middle" x="761" y="-179.5" font-family="Helvetica,sans-Serif" font-size="10.00">::CSimulatorEmulated</text>
</a>
</g>
</g>
<!-- Node4&#45;&gt;Node5 -->
<g id="edge4" class="edge">
<title>Node4&#45;&gt;Node5</title>
<path fill="none" stroke="midnightblue" d="M613.22,-132.86C634.04,-142.65 660.12,-154.37 684,-163.5 692.14,-166.61 700.88,-169.65 709.43,-172.46"/>
<polygon fill="midnightblue" stroke="midnightblue" points="614.58,-129.63 604.04,-128.51 611.58,-135.95 614.58,-129.63"/>
</g>
<!-- Node6 -->
<g id="node6" class="node">
<title>Node6</title>
<g id="a_node6"><a xlink:href="class_black_sim_plugin_1_1_flightgear_1_1_c_simulator_flightgear.html" target="_top" xlink:title="Flightgear ISimulator implementation.">
<polygon fill="none" stroke="black" points="687,-123.5 687,-153.5 835,-153.5 835,-123.5 687,-123.5"/>
<text text-anchor="start" x="695" y="-141.5" font-family="Helvetica,sans-Serif" font-size="10.00">BlackSimPlugin::Flightgear</text>
<text text-anchor="middle" x="761" y="-130.5" font-family="Helvetica,sans-Serif" font-size="10.00">::CSimulatorFlightgear</text>
</a>
</g>
</g>
<!-- Node4&#45;&gt;Node6 -->
<g id="edge5" class="edge">
<title>Node4&#45;&gt;Node6</title>
<path fill="none" stroke="midnightblue" d="M657.98,-124.82C667.61,-126.11 677.36,-127.42 686.82,-128.69"/>
<polygon fill="midnightblue" stroke="midnightblue" points="658.39,-121.35 648.01,-123.49 657.46,-128.29 658.39,-121.35"/>
</g>
<!-- Node7 -->
<g id="node7" class="node">
<title>Node7</title>
<g id="a_node7"><a xlink:href="class_black_sim_plugin_1_1_fs_common_1_1_c_simulator_fs_common.html" target="_top" xlink:title="Common base class for MS flight simulators.">
<polygon fill="none" stroke="black" points="684,-74.5 684,-104.5 838,-104.5 838,-74.5 684,-74.5"/>
<text text-anchor="start" x="692" y="-92.5" font-family="Helvetica,sans-Serif" font-size="10.00">BlackSimPlugin::FsCommon</text>
<text text-anchor="middle" x="761" y="-81.5" font-family="Helvetica,sans-Serif" font-size="10.00">::CSimulatorFsCommon</text>
</a>
</g>
</g>
<!-- Node4&#45;&gt;Node7 -->
<g id="edge6" class="edge">
<title>Node4&#45;&gt;Node7</title>
<path fill="none" stroke="midnightblue" d="M658.03,-102.62C666.61,-101.52 675.29,-100.4 683.78,-99.31"/>
<polygon fill="midnightblue" stroke="midnightblue" points="657.49,-99.16 648.01,-103.91 658.38,-106.11 657.49,-99.16"/>
</g>
<!-- Node13 -->
<g id="node13" class="node">
<title>Node13</title>
<g id="a_node13"><a xlink:href="class_black_sim_plugin_1_1_x_plane_1_1_c_simulator_x_plane.html" target="_top" xlink:title="X&#45;Plane ISimulator implementation.">
<polygon fill="none" stroke="black" points="695,-25.5 695,-55.5 827,-55.5 827,-25.5 695,-25.5"/>
<text text-anchor="start" x="703" y="-43.5" font-family="Helvetica,sans-Serif" font-size="10.00">BlackSimPlugin::XPlane</text>
<text text-anchor="middle" x="761" y="-32.5" font-family="Helvetica,sans-Serif" font-size="10.00">::CSimulatorXPlane</text>
</a>
</g>
</g>
<!-- Node4&#45;&gt;Node13 -->
<g id="edge12" class="edge">
<title>Node4&#45;&gt;Node13</title>
<path fill="none" stroke="midnightblue" d="M614.15,-94.17C634.83,-84.67 660.51,-73.39 684,-64.5 692.15,-61.42 700.9,-58.4 709.45,-55.6"/>
<polygon fill="midnightblue" stroke="midnightblue" points="612.63,-91.02 605.02,-98.4 615.57,-97.37 612.63,-91.02"/>
</g>
<!-- Node8 -->
<g id="node8" class="node">
<title>Node8</title>
<g id="a_node8"><a xlink:href="class_black_sim_plugin_1_1_fs9_1_1_c_simulator_fs9.html" target="_top" xlink:title="FS9 Simulator Implementation.">
<polygon fill="none" stroke="black" points="896,-98.5 896,-128.5 1012,-128.5 1012,-98.5 896,-98.5"/>
<text text-anchor="start" x="904" y="-116.5" font-family="Helvetica,sans-Serif" font-size="10.00">BlackSimPlugin::Fs9</text>
<text text-anchor="middle" x="954" y="-105.5" font-family="Helvetica,sans-Serif" font-size="10.00">::CSimulatorFs9</text>
</a>
</g>
</g>
<!-- Node7&#45;&gt;Node8 -->
<g id="edge7" class="edge">
<title>Node7&#45;&gt;Node8</title>
<path fill="none" stroke="midnightblue" d="M848.04,-100.31C864.21,-102.34 880.75,-104.42 895.77,-106.31"/>
<polygon fill="midnightblue" stroke="midnightblue" points="848.4,-96.83 838.04,-99.05 847.52,-103.77 848.4,-96.83"/>
</g>
<!-- Node9 -->
<g id="node9" class="node">
<title>Node9</title>
<g id="a_node9"><a xlink:href="class_black_sim_plugin_1_1_fsx_common_1_1_c_simulator_fsx_common.html" target="_top" xlink:title="FSX Simulator Implementation.">
<polygon fill="none" stroke="black" points="874,-49.5 874,-79.5 1034,-79.5 1034,-49.5 874,-49.5"/>
<text text-anchor="start" x="882" y="-67.5" font-family="Helvetica,sans-Serif" font-size="10.00">BlackSimPlugin::FsxCommon</text>
<text text-anchor="middle" x="954" y="-56.5" font-family="Helvetica,sans-Serif" font-size="10.00">::CSimulatorFsxCommon</text>
</a>
</g>
</g>
<!-- Node7&#45;&gt;Node9 -->
<g id="edge8" class="edge">
<title>Node7&#45;&gt;Node9</title>
<path fill="none" stroke="midnightblue" d="M848.04,-78.24C856.61,-77.12 865.28,-75.98 873.78,-74.87"/>
<polygon fill="midnightblue" stroke="midnightblue" points="847.5,-74.78 838.04,-79.55 848.41,-81.72 847.5,-74.78"/>
</g>
<!-- Node10 -->
<g id="node10" class="node">
<title>Node10</title>
<g id="a_node10"><a xlink:href="class_black_sim_plugin_1_1_fsx_1_1_c_simulator_fsx.html" target="_top" xlink:title="FSX simulator implementation.">
<polygon fill="none" stroke="black" points="1073,-98.5 1073,-128.5 1189,-128.5 1189,-98.5 1073,-98.5"/>
<text text-anchor="start" x="1081" y="-116.5" font-family="Helvetica,sans-Serif" font-size="10.00">BlackSimPlugin::Fsx</text>
<text text-anchor="middle" x="1131" y="-105.5" font-family="Helvetica,sans-Serif" font-size="10.00">::CSimulatorFsx</text>
</a>
</g>
</g>
<!-- Node9&#45;&gt;Node10 -->
<g id="edge9" class="edge">
<title>Node9&#45;&gt;Node10</title>
<path fill="none" stroke="midnightblue" d="M1018.65,-82.32C1037.54,-87.61 1058.04,-93.35 1076.24,-98.45"/>
<polygon fill="midnightblue" stroke="midnightblue" points="1019.51,-78.93 1008.93,-79.6 1017.62,-85.67 1019.51,-78.93"/>
</g>
<!-- Node11 -->
<g id="node11" class="node">
<title>Node11</title>
<g id="a_node11"><a xlink:href="class_black_sim_plugin_1_1_msfs_1_1_c_simulator_ms_fs.html" target="_top" xlink:title="FSX simulator implementation.">
<polygon fill="none" stroke="black" points="1070,-49.5 1070,-79.5 1192,-79.5 1192,-49.5 1070,-49.5"/>
<text text-anchor="start" x="1078" y="-67.5" font-family="Helvetica,sans-Serif" font-size="10.00">BlackSimPlugin::Msfs</text>
<text text-anchor="middle" x="1131" y="-56.5" font-family="Helvetica,sans-Serif" font-size="10.00">::CSimulatorMsFs</text>
</a>
</g>
</g>
<!-- Node9&#45;&gt;Node11 -->
<g id="edge10" class="edge">
<title>Node9&#45;&gt;Node11</title>
<path fill="none" stroke="midnightblue" d="M1044.25,-64.5C1052.94,-64.5 1061.61,-64.5 1069.92,-64.5"/>
<polygon fill="midnightblue" stroke="midnightblue" points="1044.05,-61 1034.05,-64.5 1044.05,-68 1044.05,-61"/>
</g>
<!-- Node12 -->
<g id="node12" class="node">
<title>Node12</title>
<g id="a_node12"><a xlink:href="class_black_sim_plugin_1_1_p3_d_1_1_c_simulator_p3_d.html" target="_top" xlink:title="P3D Simulator Implementation.">
<polygon fill="none" stroke="black" points="1072,-0.5 1072,-30.5 1190,-30.5 1190,-0.5 1072,-0.5"/>
<text text-anchor="start" x="1080" y="-18.5" font-family="Helvetica,sans-Serif" font-size="10.00">BlackSimPlugin::P3D</text>
<text text-anchor="middle" x="1131" y="-7.5" font-family="Helvetica,sans-Serif" font-size="10.00">::CSimulatorP3D</text>
</a>
</g>
</g>
<!-- Node9&#45;&gt;Node12 -->
<g id="edge11" class="edge">
<title>Node9&#45;&gt;Node12</title>
<path fill="none" stroke="midnightblue" d="M1018.65,-46.68C1037.54,-41.39 1058.04,-35.65 1076.24,-30.55"/>
<polygon fill="midnightblue" stroke="midnightblue" points="1017.62,-43.33 1008.93,-49.4 1019.51,-50.07 1017.62,-43.33"/>
</g>
</g>
</svg>
