<?xml version="1.0" encoding="UTF-8" standalone="no"?>
<!DOCTYPE svg PUBLIC "-//W3C//DTD SVG 1.1//EN"
 "http://www.w3.org/Graphics/SVG/1.1/DTD/svg11.dtd">
<!-- Generated by graphviz version 2.43.0 (0)
 -->
<!-- Title: BlackCore::ISimulatorListener Pages: 1 -->
<svg width="651pt" height="235pt"
 viewBox="0.00 0.00 651.00 235.00" xmlns="http://www.w3.org/2000/svg" xmlns:xlink="http://www.w3.org/1999/xlink">
<g id="graph0" class="graph" transform="scale(1 1) rotate(0) translate(4 231)">
<title>BlackCore::ISimulatorListener</title>
<!-- Node1 -->
<g id="node1" class="node">
<title>Node1</title>
<g id="a_node1"><a xlink:title="Interface to a simulator listener.">
<polygon fill="#bfbfbf" stroke="black" points="92,-104 92,-123 253,-123 253,-104 92,-104"/>
<text text-anchor="middle" x="172.5" y="-111" font-family="Helvetica,sans-Serif" font-size="10.00">BlackCore::ISimulatorListener</text>
</a>
</g>
</g>
<!-- Node3 -->
<g id="node3" class="node">
<title>Node3</title>
<g id="a_node3"><a xlink:href="class_black_sim_plugin_1_1_emulated_1_1_c_simulator_emulated_listener.html" target="_top" xlink:title="Listener for swift.">
<polygon fill="none" stroke="black" points="296.5,-196.5 296.5,-226.5 458.5,-226.5 458.5,-196.5 296.5,-196.5"/>
<text text-anchor="start" x="304.5" y="-214.5" font-family="Helvetica,sans-Serif" font-size="10.00">BlackSimPlugin::Emulated</text>
<text text-anchor="middle" x="377.5" y="-203.5" font-family="Helvetica,sans-Serif" font-size="10.00">::CSimulatorEmulatedListener</text>
</a>
</g>
</g>
<!-- Node1&#45;&gt;Node3 -->
<g id="edge2" class="edge">
<title>Node1&#45;&gt;Node3</title>
<path fill="none" stroke="midnightblue" d="M193.62,-129.09C215.86,-145.65 253.27,-171.6 289,-187.5 296.48,-190.83 304.54,-193.8 312.62,-196.41"/>
<polygon fill="midnightblue" stroke="midnightblue" points="195.7,-126.27 185.61,-123.03 191.48,-131.85 195.7,-126.27"/>
</g>
<!-- Node4 -->
<g id="node4" class="node">
<title>Node4</title>
<g id="a_node4"><a xlink:href="class_black_sim_plugin_1_1_flightgear_1_1_c_simulator_flightgear_listener.html" target="_top" xlink:title="Listener waits for fgswiftbus service to show up.">
<polygon fill="none" stroke="black" points="295,-147.5 295,-177.5 460,-177.5 460,-147.5 295,-147.5"/>
<text text-anchor="start" x="303" y="-165.5" font-family="Helvetica,sans-Serif" font-size="10.00">BlackSimPlugin::Flightgear</text>
<text text-anchor="middle" x="377.5" y="-154.5" font-family="Helvetica,sans-Serif" font-size="10.00">::CSimulatorFlightgearListener</text>
</a>
</g>
</g>
<!-- Node1&#45;&gt;Node4 -->
<g id="edge3" class="edge">
<title>Node1&#45;&gt;Node4</title>
<path fill="none" stroke="midnightblue" d="M222.91,-125.43C250.4,-132.06 284.88,-140.39 314.2,-147.46"/>
<polygon fill="midnightblue" stroke="midnightblue" points="223.66,-122.01 213.12,-123.06 222.02,-128.81 223.66,-122.01"/>
</g>
<!-- Node5 -->
<g id="node5" class="node">
<title>Node5</title>
<g id="a_node5"><a xlink:href="class_black_sim_plugin_1_1_fs9_1_1_c_simulator_fs9_listener.html" target="_top" xlink:title="Listener for FS9 Listener starts the FS9 multiplayer host and tries to make the running instance of s...">
<polygon fill="none" stroke="black" points="311,-98.5 311,-128.5 444,-128.5 444,-98.5 311,-98.5"/>
<text text-anchor="start" x="319" y="-116.5" font-family="Helvetica,sans-Serif" font-size="10.00">BlackSimPlugin::Fs9</text>
<text text-anchor="middle" x="377.5" y="-105.5" font-family="Helvetica,sans-Serif" font-size="10.00">::CSimulatorFs9Listener</text>
</a>
</g>
</g>
<!-- Node1&#45;&gt;Node5 -->
<g id="edge4" class="edge">
<title>Node1&#45;&gt;Node5</title>
<path fill="none" stroke="midnightblue" d="M263.54,-113.5C279.45,-113.5 295.75,-113.5 310.83,-113.5"/>
<polygon fill="midnightblue" stroke="midnightblue" points="263.15,-110 253.15,-113.5 263.15,-117 263.15,-110"/>
</g>
<!-- Node6 -->
<g id="node6" class="node">
<title>Node6</title>
<g id="a_node6"><a xlink:href="class_black_sim_plugin_1_1_fsx_common_1_1_c_simulator_fsx_common_listener.html" target="_top" xlink:title="Listener for FSX.">
<polygon fill="none" stroke="black" points="289,-49.5 289,-79.5 466,-79.5 466,-49.5 289,-49.5"/>
<text text-anchor="start" x="297" y="-67.5" font-family="Helvetica,sans-Serif" font-size="10.00">BlackSimPlugin::FsxCommon</text>
<text text-anchor="middle" x="377.5" y="-56.5" font-family="Helvetica,sans-Serif" font-size="10.00">::CSimulatorFsxCommonListener</text>
</a>
</g>
</g>
<!-- Node1&#45;&gt;Node6 -->
<g id="edge5" class="edge">
<title>Node1&#45;&gt;Node6</title>
<path fill="none" stroke="midnightblue" d="M222.91,-101.57C250.4,-94.94 284.88,-86.61 314.2,-79.54"/>
<polygon fill="midnightblue" stroke="midnightblue" points="222.02,-98.19 213.12,-103.94 223.66,-104.99 222.02,-98.19"/>
</g>
<!-- Node10 -->
<g id="node10" class="node">
<title>Node10</title>
<g id="a_node10"><a xlink:href="class_black_sim_plugin_1_1_x_plane_1_1_c_simulator_x_plane_listener.html" target="_top" xlink:title="Listener waits for xswiftbus service to show up.">
<polygon fill="none" stroke="black" points="303,-0.5 303,-30.5 452,-30.5 452,-0.5 303,-0.5"/>
<text text-anchor="start" x="311" y="-18.5" font-family="Helvetica,sans-Serif" font-size="10.00">BlackSimPlugin::XPlane</text>
<text text-anchor="middle" x="377.5" y="-7.5" font-family="Helvetica,sans-Serif" font-size="10.00">::CSimulatorXPlaneListener</text>
</a>
</g>
</g>
<!-- Node1&#45;&gt;Node10 -->
<g id="edge9" class="edge">
<title>Node1&#45;&gt;Node10</title>
<path fill="none" stroke="midnightblue" d="M193.62,-97.91C215.86,-81.35 253.27,-55.4 289,-39.5 296.48,-36.17 304.54,-33.2 312.62,-30.59"/>
<polygon fill="midnightblue" stroke="midnightblue" points="191.48,-95.15 185.61,-103.97 195.7,-100.73 191.48,-95.15"/>
</g>
<!-- Node2 -->
<g id="node2" class="node">
<title>Node2</title>
<g id="a_node2"><a target="_parent" xlink:href="http://doc.qt.io/qt-5/qobject.html" xlink:title=" ">
<polygon fill="none" stroke="black" points="0,-104 0,-123 56,-123 56,-104 0,-104"/>
<text text-anchor="middle" x="28" y="-111" font-family="Helvetica,sans-Serif" font-size="10.00">QObject</text>
</a>
</g>
</g>
<!-- Node2&#45;&gt;Node1 -->
<g id="edge1" class="edge">
<title>Node2&#45;&gt;Node1</title>
<path fill="none" stroke="midnightblue" d="M66.19,-113.5C74.2,-113.5 82.96,-113.5 91.91,-113.5"/>
<polygon fill="midnightblue" stroke="midnightblue" points="66.14,-110 56.14,-113.5 66.14,-117 66.14,-110"/>
</g>
<!-- Node7 -->
<g id="node7" class="node">
<title>Node7</title>
<g id="a_node7"><a xlink:href="class_black_sim_plugin_1_1_fsx_1_1_c_simulator_fsx_listener.html" target="_top" xlink:title="Listener for FSX.">
<polygon fill="none" stroke="black" points="506,-98.5 506,-128.5 639,-128.5 639,-98.5 506,-98.5"/>
<text text-anchor="start" x="514" y="-116.5" font-family="Helvetica,sans-Serif" font-size="10.00">BlackSimPlugin::Fsx</text>
<text text-anchor="middle" x="572.5" y="-105.5" font-family="Helvetica,sans-Serif" font-size="10.00">::CSimulatorFsxListener</text>
</a>
</g>
</g>
<!-- Node6&#45;&gt;Node7 -->
<g id="edge6" class="edge">
<title>Node6&#45;&gt;Node7</title>
<path fill="none" stroke="midnightblue" d="M447.62,-82.05C468.82,-87.43 491.93,-93.3 512.39,-98.49"/>
<polygon fill="midnightblue" stroke="midnightblue" points="448.27,-78.6 437.72,-79.53 446.55,-85.39 448.27,-78.6"/>
</g>
<!-- Node8 -->
<g id="node8" class="node">
<title>Node8</title>
<g id="a_node8"><a xlink:href="class_black_sim_plugin_1_1_msfs_1_1_c_simulator_ms_fs_listener.html" target="_top" xlink:title="Listener for MSFS.">
<polygon fill="none" stroke="black" points="502,-49.5 502,-79.5 643,-79.5 643,-49.5 502,-49.5"/>
<text text-anchor="start" x="510" y="-67.5" font-family="Helvetica,sans-Serif" font-size="10.00">BlackSimPlugin::Msfs</text>
<text text-anchor="middle" x="572.5" y="-56.5" font-family="Helvetica,sans-Serif" font-size="10.00">::CSimulatorMsFsListener</text>
</a>
</g>
</g>
<!-- Node6&#45;&gt;Node8 -->
<g id="edge7" class="edge">
<title>Node6&#45;&gt;Node8</title>
<path fill="none" stroke="midnightblue" d="M476.36,-64.5C484.97,-64.5 493.58,-64.5 501.9,-64.5"/>
<polygon fill="midnightblue" stroke="midnightblue" points="476.25,-61 466.25,-64.5 476.25,-68 476.25,-61"/>
</g>
<!-- Node9 -->
<g id="node9" class="node">
<title>Node9</title>
<g id="a_node9"><a xlink:href="class_black_sim_plugin_1_1_p3_d_1_1_c_simulator_p3_d_listener.html" target="_top" xlink:title="Listener for P3D.">
<polygon fill="none" stroke="black" points="505,-0.5 505,-30.5 640,-30.5 640,-0.5 505,-0.5"/>
<text text-anchor="start" x="513" y="-18.5" font-family="Helvetica,sans-Serif" font-size="10.00">BlackSimPlugin::P3D</text>
<text text-anchor="middle" x="572.5" y="-7.5" font-family="Helvetica,sans-Serif" font-size="10.00">::CSimulatorP3DListener</text>
</a>
</g>
</g>
<!-- Node6&#45;&gt;Node9 -->
<g id="edge8" class="edge">
<title>Node6&#45;&gt;Node9</title>
<path fill="none" stroke="midnightblue" d="M447.62,-46.95C468.82,-41.57 491.93,-35.7 512.39,-30.51"/>
<polygon fill="midnightblue" stroke="midnightblue" points="446.55,-43.61 437.72,-49.47 448.27,-50.4 446.55,-43.61"/>
</g>
</g>
</svg>
