<?xml version="1.0" encoding="UTF-8" standalone="no"?>
<!DOCTYPE svg PUBLIC "-//W3C//DTD SVG 1.1//EN"
 "http://www.w3.org/Graphics/SVG/1.1/DTD/svg11.dtd">
<!-- Generated by graphviz version 2.43.0 (0)
 -->
<!-- Title: BlackGui::COverlayMessagesTableView Pages: 1 -->
<svg width="1760pt" height="1206pt"
 viewBox="0.00 0.00 1760.00 1205.50" xmlns="http://www.w3.org/2000/svg" xmlns:xlink="http://www.w3.org/1999/xlink">
<g id="graph0" class="graph" transform="scale(1 1) rotate(0) translate(4 1201.5)">
<title>BlackGui::COverlayMessagesTableView</title>
<!-- Node1 -->
<g id="node1" class="node">
<title>Node1</title>
<g id="a_node1"><a xlink:title="Using this class provides a QTableView with the overlay functionality already integrated.">
<polygon fill="#bfbfbf" stroke="black" points="907,-787 907,-817 1067,-817 1067,-787 907,-787"/>
<text text-anchor="start" x="915" y="-805" font-family="Helvetica,sans-Serif" font-size="10.00">BlackGui::COverlayMessages</text>
<text text-anchor="middle" x="987" y="-794" font-family="Helvetica,sans-Serif" font-size="10.00">TableView</text>
</a>
</g>
</g>
<!-- Node10 -->
<g id="node10" class="node">
<title>Node10</title>
<g id="a_node10"><a xlink:href="class_black_gui_1_1_views_1_1_c_view_base_non_template.html" target="_top" xlink:title="Non templated base class, allows Q_OBJECT and signals / slots to be used.">
<polygon fill="none" stroke="black" points="1103,-787 1103,-817 1259,-817 1259,-787 1103,-787"/>
<text text-anchor="start" x="1111" y="-805" font-family="Helvetica,sans-Serif" font-size="10.00">BlackGui::Views::CViewBase</text>
<text text-anchor="middle" x="1181" y="-794" font-family="Helvetica,sans-Serif" font-size="10.00">NonTemplate</text>
</a>
</g>
</g>
<!-- Node1&#45;&gt;Node10 -->
<g id="edge9" class="edge">
<title>Node1&#45;&gt;Node10</title>
<path fill="none" stroke="midnightblue" d="M1077.2,-802C1085.77,-802 1094.4,-802 1102.84,-802"/>
<polygon fill="midnightblue" stroke="midnightblue" points="1077.2,-798.5 1067.2,-802 1077.2,-805.5 1077.2,-798.5"/>
</g>
<!-- Node2 -->
<g id="node2" class="node">
<title>Node2</title>
<g id="a_node2"><a xlink:href="class_black_gui_1_1_c_overlay_messages_base.html" target="_top" xlink:title=" ">
<polygon fill="none" stroke="black" points="711,-787 711,-817 871,-817 871,-787 711,-787"/>
<text text-anchor="start" x="719" y="-805" font-family="Helvetica,sans-Serif" font-size="10.00">BlackGui::COverlayMessages</text>
<text text-anchor="middle" x="791" y="-794" font-family="Helvetica,sans-Serif" font-size="10.00">Base&lt; QTableView &gt;</text>
</a>
</g>
</g>
<!-- Node2&#45;&gt;Node1 -->
<g id="edge1" class="edge">
<title>Node2&#45;&gt;Node1</title>
<path fill="none" stroke="midnightblue" d="M881.44,-802C889.88,-802 898.41,-802 906.75,-802"/>
<polygon fill="midnightblue" stroke="midnightblue" points="881.19,-798.5 871.19,-802 881.19,-805.5 881.19,-798.5"/>
</g>
<!-- Node3 -->
<g id="node3" class="node">
<title>Node3</title>
<g id="a_node3"><a target="_parent" xlink:href="http://doc.qt.io/qt-5/qtableview.html" xlink:title=" ">
<polygon fill="none" stroke="black" points="601,-792.5 601,-811.5 675,-811.5 675,-792.5 601,-792.5"/>
<text text-anchor="middle" x="638" y="-799.5" font-family="Helvetica,sans-Serif" font-size="10.00">QTableView</text>
</a>
</g>
</g>
<!-- Node3&#45;&gt;Node2 -->
<g id="edge2" class="edge">
<title>Node3&#45;&gt;Node2</title>
<path fill="none" stroke="midnightblue" d="M685.44,-802C693.5,-802 702.09,-802 710.75,-802"/>
<polygon fill="midnightblue" stroke="midnightblue" points="685.17,-798.5 675.17,-802 685.17,-805.5 685.17,-798.5"/>
</g>
<!-- Node4 -->
<g id="node4" class="node">
<title>Node4</title>
<g id="a_node4"><a target="_parent" xlink:href="http://doc.qt.io/qt-5/qabstractitemview.html" xlink:title=" ">
<polygon fill="none" stroke="black" points="454,-792.5 454,-811.5 565,-811.5 565,-792.5 454,-792.5"/>
<text text-anchor="middle" x="509.5" y="-799.5" font-family="Helvetica,sans-Serif" font-size="10.00">QAbstractItemView</text>
</a>
</g>
</g>
<!-- Node4&#45;&gt;Node3 -->
<g id="edge3" class="edge">
<title>Node4&#45;&gt;Node3</title>
<path fill="none" stroke="midnightblue" d="M575.45,-802C584.16,-802 592.82,-802 600.78,-802"/>
<polygon fill="midnightblue" stroke="midnightblue" points="575.25,-798.5 565.25,-802 575.25,-805.5 575.25,-798.5"/>
</g>
<!-- Node5 -->
<g id="node5" class="node">
<title>Node5</title>
<g id="a_node5"><a target="_parent" xlink:href="http://doc.qt.io/qt-5/qabstractscrollarea.html" xlink:title=" ">
<polygon fill="none" stroke="black" points="304,-792.5 304,-811.5 418,-811.5 418,-792.5 304,-792.5"/>
<text text-anchor="middle" x="361" y="-799.5" font-family="Helvetica,sans-Serif" font-size="10.00">QAbstractScrollArea</text>
</a>
</g>
</g>
<!-- Node5&#45;&gt;Node4 -->
<g id="edge4" class="edge">
<title>Node5&#45;&gt;Node4</title>
<path fill="none" stroke="midnightblue" d="M428.42,-802C436.85,-802 445.41,-802 453.64,-802"/>
<polygon fill="midnightblue" stroke="midnightblue" points="428.22,-798.5 418.22,-802 428.22,-805.5 428.22,-798.5"/>
</g>
<!-- Node6 -->
<g id="node6" class="node">
<title>Node6</title>
<g id="a_node6"><a target="_parent" xlink:href="http://doc.qt.io/qt-5/qframe.html" xlink:title=" ">
<polygon fill="none" stroke="black" points="213,-792.5 213,-811.5 268,-811.5 268,-792.5 213,-792.5"/>
<text text-anchor="middle" x="240.5" y="-799.5" font-family="Helvetica,sans-Serif" font-size="10.00">QFrame</text>
</a>
</g>
</g>
<!-- Node6&#45;&gt;Node5 -->
<g id="edge5" class="edge">
<title>Node6&#45;&gt;Node5</title>
<path fill="none" stroke="midnightblue" d="M278.33,-802C286.45,-802 295.24,-802 303.93,-802"/>
<polygon fill="midnightblue" stroke="midnightblue" points="278.09,-798.5 268.09,-802 278.09,-805.5 278.09,-798.5"/>
</g>
<!-- Node7 -->
<g id="node7" class="node">
<title>Node7</title>
<g id="a_node7"><a target="_parent" xlink:href="http://doc.qt.io/qt-5/qwidget.html" xlink:title=" ">
<polygon fill="none" stroke="black" points="118,-792.5 118,-811.5 177,-811.5 177,-792.5 118,-792.5"/>
<text text-anchor="middle" x="147.5" y="-799.5" font-family="Helvetica,sans-Serif" font-size="10.00">QWidget</text>
</a>
</g>
</g>
<!-- Node7&#45;&gt;Node6 -->
<g id="edge6" class="edge">
<title>Node7&#45;&gt;Node6</title>
<path fill="none" stroke="midnightblue" d="M187.46,-802C195.99,-802 204.83,-802 212.75,-802"/>
<polygon fill="midnightblue" stroke="midnightblue" points="187.29,-798.5 177.29,-802 187.29,-805.5 187.29,-798.5"/>
</g>
<!-- Node8 -->
<g id="node8" class="node">
<title>Node8</title>
<g id="a_node8"><a target="_parent" xlink:href="http://doc.qt.io/qt-5/qobject.html" xlink:title=" ">
<polygon fill="none" stroke="black" points="13,-811.5 13,-830.5 69,-830.5 69,-811.5 13,-811.5"/>
<text text-anchor="middle" x="41" y="-818.5" font-family="Helvetica,sans-Serif" font-size="10.00">QObject</text>
</a>
</g>
</g>
<!-- Node8&#45;&gt;Node7 -->
<g id="edge7" class="edge">
<title>Node8&#45;&gt;Node7</title>
<path fill="none" stroke="midnightblue" d="M79.09,-814.26C91.88,-811.93 106,-809.36 117.99,-807.18"/>
<polygon fill="midnightblue" stroke="midnightblue" points="78.4,-810.83 69.18,-816.06 79.65,-817.71 78.4,-810.83"/>
</g>
<!-- Node9 -->
<g id="node9" class="node">
<title>Node9</title>
<g id="a_node9"><a target="_parent" xlink:href="http://doc.qt.io/qt-5/qpaintdevice.html" xlink:title=" ">
<polygon fill="none" stroke="black" points="0,-773.5 0,-792.5 82,-792.5 82,-773.5 0,-773.5"/>
<text text-anchor="middle" x="41" y="-780.5" font-family="Helvetica,sans-Serif" font-size="10.00">QPaintDevice</text>
</a>
</g>
</g>
<!-- Node9&#45;&gt;Node7 -->
<g id="edge8" class="edge">
<title>Node9&#45;&gt;Node7</title>
<path fill="none" stroke="midnightblue" d="M91.97,-792.09C100.8,-793.69 109.71,-795.31 117.69,-796.76"/>
<polygon fill="midnightblue" stroke="midnightblue" points="92.57,-788.64 82.1,-790.29 91.32,-795.52 92.57,-788.64"/>
</g>
<!-- Node11 -->
<g id="node11" class="node">
<title>Node11</title>
<g id="a_node11"><a xlink:href="class_black_gui_1_1_views_1_1_c_view_base.html" target="_top" xlink:title=" ">
<polygon fill="none" stroke="black" points="1309.5,-1167 1309.5,-1197 1495.5,-1197 1495.5,-1167 1309.5,-1167"/>
<text text-anchor="start" x="1317.5" y="-1185" font-family="Helvetica,sans-Serif" font-size="10.00">BlackGui::Views::CViewBase</text>
<text text-anchor="middle" x="1402.5" y="-1174" font-family="Helvetica,sans-Serif" font-size="10.00">&lt; Models::CWindLayerListModel &gt;</text>
</a>
</g>
</g>
<!-- Node10&#45;&gt;Node11 -->
<g id="edge10" class="edge">
<title>Node10&#45;&gt;Node11</title>
<path fill="none" stroke="midnightblue" d="M1181.99,-827.47C1183.44,-892.87 1196.77,-1067.85 1295,-1158 1299.33,-1161.97 1304.17,-1165.34 1309.34,-1168.18"/>
<polygon fill="midnightblue" stroke="midnightblue" points="1185.49,-827.21 1181.85,-817.26 1178.49,-827.31 1185.49,-827.21"/>
</g>
<!-- Node13 -->
<g id="node13" class="node">
<title>Node13</title>
<g id="a_node13"><a xlink:href="class_black_gui_1_1_views_1_1_c_view_base.html" target="_top" xlink:title=" ">
<polygon fill="none" stroke="black" points="1319.5,-1118 1319.5,-1148 1485.5,-1148 1485.5,-1118 1319.5,-1118"/>
<text text-anchor="start" x="1327.5" y="-1136" font-family="Helvetica,sans-Serif" font-size="10.00">BlackGui::Views::CViewBase</text>
<text text-anchor="middle" x="1402.5" y="-1125" font-family="Helvetica,sans-Serif" font-size="10.00">&lt; Models::CServerListModel &gt;</text>
</a>
</g>
</g>
<!-- Node10&#45;&gt;Node13 -->
<g id="edge12" class="edge">
<title>Node10&#45;&gt;Node13</title>
<path fill="none" stroke="midnightblue" d="M1183.48,-827.55C1188.35,-886.66 1208.95,-1033.55 1295,-1109 1302.13,-1115.25 1310.53,-1119.97 1319.44,-1123.53"/>
<polygon fill="midnightblue" stroke="midnightblue" points="1186.95,-826.97 1182.72,-817.26 1179.97,-827.49 1186.95,-826.97"/>
</g>
<!-- Node15 -->
<g id="node15" class="node">
<title>Node15</title>
<g id="a_node15"><a xlink:href="class_black_gui_1_1_views_1_1_c_view_base.html" target="_top" xlink:title=" ">
<polygon fill="none" stroke="black" points="1319,-1069 1319,-1099 1486,-1099 1486,-1069 1319,-1069"/>
<text text-anchor="start" x="1327" y="-1087" font-family="Helvetica,sans-Serif" font-size="10.00">BlackGui::Views::CViewBase</text>
<text text-anchor="middle" x="1402.5" y="-1076" font-family="Helvetica,sans-Serif" font-size="10.00">&lt; Models::CAirportListModel &gt;</text>
</a>
</g>
</g>
<!-- Node10&#45;&gt;Node15 -->
<g id="edge14" class="edge">
<title>Node10&#45;&gt;Node15</title>
<path fill="none" stroke="midnightblue" d="M1185.4,-827.04C1193.84,-878.97 1220.7,-998.7 1295,-1060 1302.09,-1065.85 1310.32,-1070.34 1318.99,-1073.79"/>
<polygon fill="midnightblue" stroke="midnightblue" points="1188.84,-826.38 1183.87,-817.03 1181.92,-827.44 1188.84,-826.38"/>
</g>
<!-- Node17 -->
<g id="node17" class="node">
<title>Node17</title>
<g id="a_node17"><a xlink:href="class_black_gui_1_1_views_1_1_c_view_base.html" target="_top" xlink:title=" ">
<polygon fill="none" stroke="black" points="1298,-1020 1298,-1050 1507,-1050 1507,-1020 1298,-1020"/>
<text text-anchor="start" x="1306" y="-1038" font-family="Helvetica,sans-Serif" font-size="10.00">BlackGui::Views::CViewBase</text>
<text text-anchor="middle" x="1402.5" y="-1027" font-family="Helvetica,sans-Serif" font-size="10.00">&lt; Models::CStatusMessageListModel &gt;</text>
</a>
</g>
</g>
<!-- Node10&#45;&gt;Node17 -->
<g id="edge16" class="edge">
<title>Node10&#45;&gt;Node17</title>
<path fill="none" stroke="midnightblue" d="M1188.16,-826.9C1200.46,-871.23 1232.45,-963.61 1295,-1011 1299.53,-1014.43 1304.46,-1017.39 1309.64,-1019.94"/>
<polygon fill="midnightblue" stroke="midnightblue" points="1191.53,-825.97 1185.57,-817.21 1184.77,-827.78 1191.53,-825.97"/>
</g>
<!-- Node19 -->
<g id="node19" class="node">
<title>Node19</title>
<g id="a_node19"><a xlink:href="class_black_gui_1_1_views_1_1_c_view_base.html" target="_top" xlink:title=" ">
<polygon fill="none" stroke="black" points="1308,-971 1308,-1001 1497,-1001 1497,-971 1308,-971"/>
<text text-anchor="start" x="1316" y="-989" font-family="Helvetica,sans-Serif" font-size="10.00">BlackGui::Views::CViewBase</text>
<text text-anchor="middle" x="1402.5" y="-978" font-family="Helvetica,sans-Serif" font-size="10.00">&lt; Models::CCloudLayerListModel &gt;</text>
</a>
</g>
</g>
<!-- Node10&#45;&gt;Node19 -->
<g id="edge18" class="edge">
<title>Node10&#45;&gt;Node19</title>
<path fill="none" stroke="midnightblue" d="M1192.32,-826.15C1208.71,-861.49 1244.13,-926.81 1295,-961 1300.75,-964.87 1307.03,-968.14 1313.57,-970.91"/>
<polygon fill="midnightblue" stroke="midnightblue" points="1195.51,-824.7 1188.2,-817.03 1189.12,-827.58 1195.51,-824.7"/>
</g>
<!-- Node21 -->
<g id="node21" class="node">
<title>Node21</title>
<g id="a_node21"><a xlink:href="class_black_gui_1_1_views_1_1_c_view_base.html" target="_top" xlink:title=" ">
<polygon fill="none" stroke="black" points="1311.5,-910.5 1311.5,-951.5 1493.5,-951.5 1493.5,-910.5 1311.5,-910.5"/>
<text text-anchor="start" x="1319.5" y="-939.5" font-family="Helvetica,sans-Serif" font-size="10.00">BlackGui::Views::CViewBase</text>
<text text-anchor="start" x="1319.5" y="-928.5" font-family="Helvetica,sans-Serif" font-size="10.00">&lt; Models::CTemperatureLayerList</text>
<text text-anchor="middle" x="1402.5" y="-917.5" font-family="Helvetica,sans-Serif" font-size="10.00">Model &gt;</text>
</a>
</g>
</g>
<!-- Node10&#45;&gt;Node21 -->
<g id="edge20" class="edge">
<title>Node10&#45;&gt;Node21</title>
<path fill="none" stroke="midnightblue" d="M1201.88,-824.5C1222.9,-846.98 1258.08,-880.98 1295,-901 1301.5,-904.53 1308.45,-907.67 1315.58,-910.47"/>
<polygon fill="midnightblue" stroke="midnightblue" points="1204.4,-822.07 1195.05,-817.08 1199.24,-826.81 1204.4,-822.07"/>
</g>
<!-- Node23 -->
<g id="node23" class="node">
<title>Node23</title>
<g id="a_node23"><a xlink:href="class_black_gui_1_1_views_1_1_c_view_base.html" target="_top" xlink:title=" ">
<polygon fill="none" stroke="black" points="1313.5,-861 1313.5,-891 1491.5,-891 1491.5,-861 1313.5,-861"/>
<text text-anchor="start" x="1321.5" y="-879" font-family="Helvetica,sans-Serif" font-size="10.00">BlackGui::Views::CViewBase</text>
<text text-anchor="middle" x="1402.5" y="-868" font-family="Helvetica,sans-Serif" font-size="10.00">&lt; Models::CIdentifierListModel &gt;</text>
</a>
</g>
</g>
<!-- Node10&#45;&gt;Node23 -->
<g id="edge22" class="edge">
<title>Node10&#45;&gt;Node23</title>
<path fill="none" stroke="midnightblue" d="M1221.16,-821.59C1242.57,-831.72 1269.8,-843.67 1295,-852 1304.99,-855.3 1315.65,-858.3 1326.23,-860.97"/>
<polygon fill="midnightblue" stroke="midnightblue" points="1222.59,-818.39 1212.06,-817.23 1219.57,-824.71 1222.59,-818.39"/>
</g>
<!-- Node25 -->
<g id="node25" class="node">
<title>Node25</title>
<g id="a_node25"><a xlink:href="class_black_gui_1_1_views_1_1_c_view_base.html" target="_top" xlink:title=" ">
<polygon fill="none" stroke="black" points="1299,-812 1299,-842 1506,-842 1506,-812 1299,-812"/>
<text text-anchor="start" x="1307" y="-830" font-family="Helvetica,sans-Serif" font-size="10.00">BlackGui::Views::CViewBase</text>
<text text-anchor="middle" x="1402.5" y="-819" font-family="Helvetica,sans-Serif" font-size="10.00">&lt; Models::CMatchingStatisticsModel &gt;</text>
</a>
</g>
</g>
<!-- Node10&#45;&gt;Node25 -->
<g id="edge24" class="edge">
<title>Node10&#45;&gt;Node25</title>
<path fill="none" stroke="midnightblue" d="M1269.13,-811.92C1278.88,-813.03 1288.88,-814.17 1298.79,-815.3"/>
<polygon fill="midnightblue" stroke="midnightblue" points="1269.41,-808.43 1259.08,-810.78 1268.62,-815.39 1269.41,-808.43"/>
</g>
<!-- Node27 -->
<g id="node27" class="node">
<title>Node27</title>
<g id="a_node27"><a xlink:href="class_black_gui_1_1_views_1_1_c_view_base.html" target="_top" xlink:title=" ">
<polygon fill="none" stroke="black" points="1295,-763 1295,-793 1510,-793 1510,-763 1295,-763"/>
<text text-anchor="start" x="1303" y="-781" font-family="Helvetica,sans-Serif" font-size="10.00">BlackGui::Views::CViewBase</text>
<text text-anchor="middle" x="1402.5" y="-770" font-family="Helvetica,sans-Serif" font-size="10.00">&lt; Models::CAudioDeviceInfoListModel &gt;</text>
</a>
</g>
</g>
<!-- Node10&#45;&gt;Node27 -->
<g id="edge26" class="edge">
<title>Node10&#45;&gt;Node27</title>
<path fill="none" stroke="midnightblue" d="M1269.27,-792.46C1277.71,-791.54 1286.34,-790.59 1294.94,-789.65"/>
<polygon fill="midnightblue" stroke="midnightblue" points="1268.64,-789.01 1259.08,-793.57 1269.4,-795.96 1268.64,-789.01"/>
</g>
<!-- Node29 -->
<g id="node29" class="node">
<title>Node29</title>
<g id="a_node29"><a xlink:href="class_black_gui_1_1_views_1_1_c_view_base.html" target="_top" xlink:title=" ">
<polygon fill="none" stroke="black" points="1298.5,-714 1298.5,-744 1506.5,-744 1506.5,-714 1298.5,-714"/>
<text text-anchor="start" x="1306.5" y="-732" font-family="Helvetica,sans-Serif" font-size="10.00">BlackGui::Views::CViewBase</text>
<text text-anchor="middle" x="1402.5" y="-721" font-family="Helvetica,sans-Serif" font-size="10.00">&lt; Models::CApplicationInfoListModel &gt;</text>
</a>
</g>
</g>
<!-- Node10&#45;&gt;Node29 -->
<g id="edge28" class="edge">
<title>Node10&#45;&gt;Node29</title>
<path fill="none" stroke="midnightblue" d="M1221.65,-782.63C1243.01,-772.76 1270.03,-761.15 1295,-753 1305.09,-749.71 1315.86,-746.71 1326.53,-744.03"/>
<polygon fill="midnightblue" stroke="midnightblue" points="1220.14,-779.47 1212.57,-786.88 1223.11,-785.81 1220.14,-779.47"/>
</g>
<!-- Node31 -->
<g id="node31" class="node">
<title>Node31</title>
<g id="a_node31"><a xlink:href="class_black_gui_1_1_views_1_1_c_view_base.html" target="_top" xlink:title=" ">
<polygon fill="none" stroke="black" points="1324,-665 1324,-695 1481,-695 1481,-665 1324,-665"/>
<text text-anchor="start" x="1332" y="-683" font-family="Helvetica,sans-Serif" font-size="10.00">BlackGui::Views::CViewBase</text>
<text text-anchor="middle" x="1402.5" y="-672" font-family="Helvetica,sans-Serif" font-size="10.00">&lt; Models::CUserListModel &gt;</text>
</a>
</g>
</g>
<!-- Node10&#45;&gt;Node31 -->
<g id="edge30" class="edge">
<title>Node10&#45;&gt;Node31</title>
<path fill="none" stroke="midnightblue" d="M1201.71,-779.33C1222.61,-756.77 1257.68,-722.86 1295,-704 1304.05,-699.43 1313.97,-695.71 1324,-692.71"/>
<polygon fill="midnightblue" stroke="midnightblue" points="1199.07,-777.04 1194.93,-786.79 1204.25,-781.74 1199.07,-777.04"/>
</g>
<!-- Node33 -->
<g id="node33" class="node">
<title>Node33</title>
<g id="a_node33"><a xlink:href="class_black_gui_1_1_views_1_1_c_view_base.html" target="_top" xlink:title=" ">
<polygon fill="none" stroke="black" points="1303,-616 1303,-646 1502,-646 1502,-616 1303,-616"/>
<text text-anchor="start" x="1311" y="-634" font-family="Helvetica,sans-Serif" font-size="10.00">BlackGui::Views::CViewBase</text>
<text text-anchor="middle" x="1402.5" y="-623" font-family="Helvetica,sans-Serif" font-size="10.00">&lt; Models::CNameVariantPairModel &gt;</text>
</a>
</g>
</g>
<!-- Node10&#45;&gt;Node33 -->
<g id="edge32" class="edge">
<title>Node10&#45;&gt;Node33</title>
<path fill="none" stroke="midnightblue" d="M1193.78,-777.68C1211.15,-744.52 1246.86,-685.76 1295,-655 1300.43,-651.53 1306.3,-648.56 1312.39,-646.02"/>
<polygon fill="midnightblue" stroke="midnightblue" points="1190.61,-776.2 1189.18,-786.7 1196.84,-779.38 1190.61,-776.2"/>
</g>
<!-- Node35 -->
<g id="node35" class="node">
<title>Node35</title>
<g id="a_node35"><a xlink:href="class_black_gui_1_1_views_1_1_c_view_base.html" target="_top" xlink:title=" ">
<polygon fill="none" stroke="black" points="1316,-567 1316,-597 1489,-597 1489,-567 1316,-567"/>
<text text-anchor="start" x="1324" y="-585" font-family="Helvetica,sans-Serif" font-size="10.00">BlackGui::Views::CViewBase</text>
<text text-anchor="middle" x="1402.5" y="-574" font-family="Helvetica,sans-Serif" font-size="10.00">&lt; Models::CCountryListModel &gt;</text>
</a>
</g>
</g>
<!-- Node10&#45;&gt;Node35 -->
<g id="edge34" class="edge">
<title>Node10&#45;&gt;Node35</title>
<path fill="none" stroke="midnightblue" d="M1189.08,-777.17C1202.45,-735.02 1235.52,-649.8 1295,-606 1301.33,-601.34 1308.41,-597.55 1315.83,-594.49"/>
<polygon fill="midnightblue" stroke="midnightblue" points="1185.68,-776.32 1186.11,-786.91 1192.38,-778.37 1185.68,-776.32"/>
</g>
<!-- Node37 -->
<g id="node37" class="node">
<title>Node37</title>
<g id="a_node37"><a xlink:href="class_black_gui_1_1_views_1_1_c_view_base.html" target="_top" xlink:title=" ">
<polygon fill="none" stroke="black" points="1321,-518 1321,-548 1484,-548 1484,-518 1321,-518"/>
<text text-anchor="start" x="1329" y="-536" font-family="Helvetica,sans-Serif" font-size="10.00">BlackGui::Views::CViewBase</text>
<text text-anchor="middle" x="1402.5" y="-525" font-family="Helvetica,sans-Serif" font-size="10.00">&lt; Models::CClientListModel &gt;</text>
</a>
</g>
</g>
<!-- Node10&#45;&gt;Node37 -->
<g id="edge36" class="edge">
<title>Node10&#45;&gt;Node37</title>
<path fill="none" stroke="midnightblue" d="M1186.07,-776.82C1195.54,-726.73 1223.92,-614.5 1295,-557 1302.66,-550.8 1311.61,-546.13 1320.99,-542.62"/>
<polygon fill="midnightblue" stroke="midnightblue" points="1182.6,-776.33 1184.28,-786.8 1189.49,-777.57 1182.6,-776.33"/>
</g>
<!-- Node39 -->
<g id="node39" class="node">
<title>Node39</title>
<g id="a_node39"><a xlink:href="class_black_gui_1_1_views_1_1_c_view_base.html" target="_top" xlink:title=" ">
<polygon fill="none" stroke="black" points="1303.5,-469 1303.5,-499 1501.5,-499 1501.5,-469 1303.5,-469"/>
<text text-anchor="start" x="1311.5" y="-487" font-family="Helvetica,sans-Serif" font-size="10.00">BlackGui::Views::CViewBase</text>
<text text-anchor="middle" x="1402.5" y="-476" font-family="Helvetica,sans-Serif" font-size="10.00">&lt; Models::CTextMessageListModel &gt;</text>
</a>
</g>
</g>
<!-- Node10&#45;&gt;Node39 -->
<g id="edge38" class="edge">
<title>Node10&#45;&gt;Node39</title>
<path fill="none" stroke="midnightblue" d="M1183.93,-776.71C1189.7,-719.53 1212.02,-579.72 1295,-508 1298.87,-504.65 1303.11,-501.75 1307.6,-499.22"/>
<polygon fill="midnightblue" stroke="midnightblue" points="1180.44,-776.41 1183.01,-786.69 1187.41,-777.06 1180.44,-776.41"/>
</g>
<!-- Node41 -->
<g id="node41" class="node">
<title>Node41</title>
<g id="a_node41"><a xlink:href="class_black_gui_1_1_views_1_1_c_view_base.html" target="_top" xlink:title="Base class for views.">
<polygon fill="none" stroke="red" points="1310,-251.5 1310,-270.5 1495,-270.5 1495,-251.5 1310,-251.5"/>
<text text-anchor="middle" x="1402.5" y="-258.5" font-family="Helvetica,sans-Serif" font-size="10.00">BlackGui::Views::CViewBase&lt; T &gt;</text>
</a>
</g>
</g>
<!-- Node10&#45;&gt;Node41 -->
<g id="edge40" class="edge">
<title>Node10&#45;&gt;Node41</title>
<path fill="none" stroke="midnightblue" d="M1188.62,-776.97C1204.14,-719.58 1245.35,-574.54 1295,-459 1327.36,-383.69 1378.3,-298.7 1395.55,-270.59"/>
<polygon fill="midnightblue" stroke="midnightblue" points="1185.15,-776.38 1185.94,-786.95 1191.91,-778.2 1185.15,-776.38"/>
</g>
<!-- Node12 -->
<g id="node12" class="node">
<title>Node12</title>
<g id="a_node12"><a xlink:href="class_black_gui_1_1_views_1_1_c_wind_layer_view.html" target="_top" xlink:title="Wind layer view.">
<polygon fill="none" stroke="black" points="1557,-1172.5 1557,-1191.5 1741,-1191.5 1741,-1172.5 1557,-1172.5"/>
<text text-anchor="middle" x="1649" y="-1179.5" font-family="Helvetica,sans-Serif" font-size="10.00">BlackGui::Views::CWindLayerView</text>
</a>
</g>
</g>
<!-- Node11&#45;&gt;Node12 -->
<g id="edge11" class="edge">
<title>Node11&#45;&gt;Node12</title>
<path fill="none" stroke="midnightblue" d="M1506.01,-1182C1522.87,-1182 1540.25,-1182 1556.81,-1182"/>
<polygon fill="midnightblue" stroke="midnightblue" points="1505.59,-1178.5 1495.59,-1182 1505.59,-1185.5 1505.59,-1178.5"/>
</g>
<!-- Node14 -->
<g id="node14" class="node">
<title>Node14</title>
<g id="a_node14"><a xlink:href="class_black_gui_1_1_views_1_1_c_server_view.html" target="_top" xlink:title="Network servers.">
<polygon fill="none" stroke="black" points="1567,-1123.5 1567,-1142.5 1731,-1142.5 1731,-1123.5 1567,-1123.5"/>
<text text-anchor="middle" x="1649" y="-1130.5" font-family="Helvetica,sans-Serif" font-size="10.00">BlackGui::Views::CServerView</text>
</a>
</g>
</g>
<!-- Node13&#45;&gt;Node14 -->
<g id="edge13" class="edge">
<title>Node13&#45;&gt;Node14</title>
<path fill="none" stroke="midnightblue" d="M1495.86,-1133C1519.24,-1133 1544.18,-1133 1566.95,-1133"/>
<polygon fill="midnightblue" stroke="midnightblue" points="1495.6,-1129.5 1485.6,-1133 1495.6,-1136.5 1495.6,-1129.5"/>
</g>
<!-- Node16 -->
<g id="node16" class="node">
<title>Node16</title>
<g id="a_node16"><a xlink:href="class_black_gui_1_1_views_1_1_c_airport_view.html" target="_top" xlink:title="Airports view.">
<polygon fill="none" stroke="black" points="1566.5,-1074.5 1566.5,-1093.5 1731.5,-1093.5 1731.5,-1074.5 1566.5,-1074.5"/>
<text text-anchor="middle" x="1649" y="-1081.5" font-family="Helvetica,sans-Serif" font-size="10.00">BlackGui::Views::CAirportView</text>
</a>
</g>
</g>
<!-- Node15&#45;&gt;Node16 -->
<g id="edge15" class="edge">
<title>Node15&#45;&gt;Node16</title>
<path fill="none" stroke="midnightblue" d="M1496.36,-1084C1519.32,-1084 1543.75,-1084 1566.14,-1084"/>
<polygon fill="midnightblue" stroke="midnightblue" points="1496.28,-1080.5 1486.28,-1084 1496.28,-1087.5 1496.28,-1080.5"/>
</g>
<!-- Node18 -->
<g id="node18" class="node">
<title>Node18</title>
<g id="a_node18"><a xlink:href="class_black_gui_1_1_views_1_1_c_status_message_view.html" target="_top" xlink:title="Status message view.">
<polygon fill="none" stroke="black" points="1579.5,-1020 1579.5,-1050 1718.5,-1050 1718.5,-1020 1579.5,-1020"/>
<text text-anchor="start" x="1587.5" y="-1038" font-family="Helvetica,sans-Serif" font-size="10.00">BlackGui::Views::CStatus</text>
<text text-anchor="middle" x="1649" y="-1027" font-family="Helvetica,sans-Serif" font-size="10.00">MessageView</text>
</a>
</g>
</g>
<!-- Node17&#45;&gt;Node18 -->
<g id="edge17" class="edge">
<title>Node17&#45;&gt;Node18</title>
<path fill="none" stroke="midnightblue" d="M1517.22,-1035C1538.4,-1035 1559.93,-1035 1579.24,-1035"/>
<polygon fill="midnightblue" stroke="midnightblue" points="1517.19,-1031.5 1507.19,-1035 1517.19,-1038.5 1517.19,-1031.5"/>
</g>
<!-- Node20 -->
<g id="node20" class="node">
<title>Node20</title>
<g id="a_node20"><a xlink:href="class_black_gui_1_1_views_1_1_c_cloud_layer_view.html" target="_top" xlink:title="Airports view.">
<polygon fill="none" stroke="black" points="1555.5,-976.5 1555.5,-995.5 1742.5,-995.5 1742.5,-976.5 1555.5,-976.5"/>
<text text-anchor="middle" x="1649" y="-983.5" font-family="Helvetica,sans-Serif" font-size="10.00">BlackGui::Views::CCloudLayerView</text>
</a>
</g>
</g>
<!-- Node19&#45;&gt;Node20 -->
<g id="edge19" class="edge">
<title>Node19&#45;&gt;Node20</title>
<path fill="none" stroke="midnightblue" d="M1507.65,-986C1523.46,-986 1539.68,-986 1555.23,-986"/>
<polygon fill="midnightblue" stroke="midnightblue" points="1507.33,-982.5 1497.33,-986 1507.33,-989.5 1507.33,-982.5"/>
</g>
<!-- Node22 -->
<g id="node22" class="node">
<title>Node22</title>
<g id="a_node22"><a xlink:href="class_black_gui_1_1_views_1_1_c_temperature_layer_view.html" target="_top" xlink:title="Airports view.">
<polygon fill="none" stroke="black" points="1564,-916 1564,-946 1734,-946 1734,-916 1564,-916"/>
<text text-anchor="start" x="1572" y="-934" font-family="Helvetica,sans-Serif" font-size="10.00">BlackGui::Views::CTemperature</text>
<text text-anchor="middle" x="1649" y="-923" font-family="Helvetica,sans-Serif" font-size="10.00">LayerView</text>
</a>
</g>
</g>
<!-- Node21&#45;&gt;Node22 -->
<g id="edge21" class="edge">
<title>Node21&#45;&gt;Node22</title>
<path fill="none" stroke="midnightblue" d="M1503.57,-931C1523.6,-931 1544.45,-931 1563.87,-931"/>
<polygon fill="midnightblue" stroke="midnightblue" points="1503.5,-927.5 1493.5,-931 1503.5,-934.5 1503.5,-927.5"/>
</g>
<!-- Node24 -->
<g id="node24" class="node">
<title>Node24</title>
<g id="a_node24"><a xlink:href="class_black_gui_1_1_views_1_1_c_identifier_view.html" target="_top" xlink:title="Originator servers.">
<polygon fill="none" stroke="black" points="1561,-866.5 1561,-885.5 1737,-885.5 1737,-866.5 1561,-866.5"/>
<text text-anchor="middle" x="1649" y="-873.5" font-family="Helvetica,sans-Serif" font-size="10.00">BlackGui::Views::CIdentifierView</text>
</a>
</g>
</g>
<!-- Node23&#45;&gt;Node24 -->
<g id="edge23" class="edge">
<title>Node23&#45;&gt;Node24</title>
<path fill="none" stroke="midnightblue" d="M1501.86,-876C1521.32,-876 1541.62,-876 1560.68,-876"/>
<polygon fill="midnightblue" stroke="midnightblue" points="1501.77,-872.5 1491.77,-876 1501.77,-879.5 1501.77,-872.5"/>
</g>
<!-- Node26 -->
<g id="node26" class="node">
<title>Node26</title>
<g id="a_node26"><a xlink:href="class_black_gui_1_1_views_1_1_c_matching_statistics_view.html" target="_top" xlink:title="Matching statistics.">
<polygon fill="none" stroke="black" points="1572.5,-812 1572.5,-842 1725.5,-842 1725.5,-812 1572.5,-812"/>
<text text-anchor="start" x="1580.5" y="-830" font-family="Helvetica,sans-Serif" font-size="10.00">BlackGui::Views::CMatching</text>
<text text-anchor="middle" x="1649" y="-819" font-family="Helvetica,sans-Serif" font-size="10.00">StatisticsView</text>
</a>
</g>
</g>
<!-- Node25&#45;&gt;Node26 -->
<g id="edge25" class="edge">
<title>Node25&#45;&gt;Node26</title>
<path fill="none" stroke="midnightblue" d="M1516.33,-827C1535.33,-827 1554.64,-827 1572.4,-827"/>
<polygon fill="midnightblue" stroke="midnightblue" points="1516.13,-823.5 1506.13,-827 1516.13,-830.5 1516.13,-823.5"/>
</g>
<!-- Node28 -->
<g id="node28" class="node">
<title>Node28</title>
<g id="a_node28"><a xlink:href="class_black_gui_1_1_views_1_1_c_audio_device_info_view.html" target="_top" xlink:title="Audio device view.">
<polygon fill="none" stroke="black" points="1564,-763 1564,-793 1734,-793 1734,-763 1564,-763"/>
<text text-anchor="start" x="1572" y="-781" font-family="Helvetica,sans-Serif" font-size="10.00">BlackGui::Views::CAudioDevice</text>
<text text-anchor="middle" x="1649" y="-770" font-family="Helvetica,sans-Serif" font-size="10.00">InfoView</text>
</a>
</g>
</g>
<!-- Node27&#45;&gt;Node28 -->
<g id="edge27" class="edge">
<title>Node27&#45;&gt;Node28</title>
<path fill="none" stroke="midnightblue" d="M1520.2,-778C1534.94,-778 1549.78,-778 1563.87,-778"/>
<polygon fill="midnightblue" stroke="midnightblue" points="1520.03,-774.5 1510.03,-778 1520.03,-781.5 1520.03,-774.5"/>
</g>
<!-- Node30 -->
<g id="node30" class="node">
<title>Node30</title>
<g id="a_node30"><a xlink:href="class_black_gui_1_1_views_1_1_c_application_info_view.html" target="_top" xlink:title="Network servers.">
<polygon fill="none" stroke="black" points="1567.5,-714 1567.5,-744 1730.5,-744 1730.5,-714 1567.5,-714"/>
<text text-anchor="start" x="1575.5" y="-732" font-family="Helvetica,sans-Serif" font-size="10.00">BlackGui::Views::CApplication</text>
<text text-anchor="middle" x="1649" y="-721" font-family="Helvetica,sans-Serif" font-size="10.00">InfoView</text>
</a>
</g>
</g>
<!-- Node29&#45;&gt;Node30 -->
<g id="edge29" class="edge">
<title>Node29&#45;&gt;Node30</title>
<path fill="none" stroke="midnightblue" d="M1517.3,-729C1534.18,-729 1551.27,-729 1567.28,-729"/>
<polygon fill="midnightblue" stroke="midnightblue" points="1516.84,-725.5 1506.84,-729 1516.84,-732.5 1516.84,-725.5"/>
</g>
<!-- Node32 -->
<g id="node32" class="node">
<title>Node32</title>
<g id="a_node32"><a xlink:href="class_black_gui_1_1_views_1_1_c_user_view.html" target="_top" xlink:title="User view.">
<polygon fill="none" stroke="black" points="1571.5,-670.5 1571.5,-689.5 1726.5,-689.5 1726.5,-670.5 1571.5,-670.5"/>
<text text-anchor="middle" x="1649" y="-677.5" font-family="Helvetica,sans-Serif" font-size="10.00">BlackGui::Views::CUserView</text>
</a>
</g>
</g>
<!-- Node31&#45;&gt;Node32 -->
<g id="edge31" class="edge">
<title>Node31&#45;&gt;Node32</title>
<path fill="none" stroke="midnightblue" d="M1491.47,-680C1517.6,-680 1546,-680 1571.34,-680"/>
<polygon fill="midnightblue" stroke="midnightblue" points="1491.2,-676.5 1481.2,-680 1491.2,-683.5 1491.2,-676.5"/>
</g>
<!-- Node34 -->
<g id="node34" class="node">
<title>Node34</title>
<g id="a_node34"><a xlink:href="class_black_gui_1_1_views_1_1_c_name_variant_pair_view.html" target="_top" xlink:title="User view.">
<polygon fill="none" stroke="black" points="1563,-616 1563,-646 1735,-646 1735,-616 1563,-616"/>
<text text-anchor="start" x="1571" y="-634" font-family="Helvetica,sans-Serif" font-size="10.00">BlackGui::Views::CNameVariant</text>
<text text-anchor="middle" x="1649" y="-623" font-family="Helvetica,sans-Serif" font-size="10.00">PairView</text>
</a>
</g>
</g>
<!-- Node33&#45;&gt;Node34 -->
<g id="edge33" class="edge">
<title>Node33&#45;&gt;Node34</title>
<path fill="none" stroke="midnightblue" d="M1512.63,-631C1529.39,-631 1546.49,-631 1562.65,-631"/>
<polygon fill="midnightblue" stroke="midnightblue" points="1512.24,-627.5 1502.24,-631 1512.24,-634.5 1512.24,-627.5"/>
</g>
<!-- Node36 -->
<g id="node36" class="node">
<title>Node36</title>
<g id="a_node36"><a xlink:href="class_black_gui_1_1_views_1_1_c_country_view.html" target="_top" xlink:title="Countries.">
<polygon fill="none" stroke="black" points="1564,-572.5 1564,-591.5 1734,-591.5 1734,-572.5 1564,-572.5"/>
<text text-anchor="middle" x="1649" y="-579.5" font-family="Helvetica,sans-Serif" font-size="10.00">BlackGui::Views::CCountryView</text>
</a>
</g>
</g>
<!-- Node35&#45;&gt;Node36 -->
<g id="edge35" class="edge">
<title>Node35&#45;&gt;Node36</title>
<path fill="none" stroke="midnightblue" d="M1499.06,-582C1520.42,-582 1542.91,-582 1563.77,-582"/>
<polygon fill="midnightblue" stroke="midnightblue" points="1499.01,-578.5 1489.01,-582 1499.01,-585.5 1499.01,-578.5"/>
</g>
<!-- Node38 -->
<g id="node38" class="node">
<title>Node38</title>
<g id="a_node38"><a xlink:href="class_black_gui_1_1_views_1_1_c_client_view.html" target="_top" xlink:title="Client view.">
<polygon fill="none" stroke="black" points="1568.5,-523.5 1568.5,-542.5 1729.5,-542.5 1729.5,-523.5 1568.5,-523.5"/>
<text text-anchor="middle" x="1649" y="-530.5" font-family="Helvetica,sans-Serif" font-size="10.00">BlackGui::Views::CClientView</text>
</a>
</g>
</g>
<!-- Node37&#45;&gt;Node38 -->
<g id="edge37" class="edge">
<title>Node37&#45;&gt;Node38</title>
<path fill="none" stroke="midnightblue" d="M1494.49,-533C1518.68,-533 1544.63,-533 1568.18,-533"/>
<polygon fill="midnightblue" stroke="midnightblue" points="1494.24,-529.5 1484.24,-533 1494.24,-536.5 1494.24,-529.5"/>
</g>
<!-- Node40 -->
<g id="node40" class="node">
<title>Node40</title>
<g id="a_node40"><a xlink:href="class_black_gui_1_1_views_1_1_c_text_message_view.html" target="_top" xlink:title="Airports view.">
<polygon fill="none" stroke="black" points="1551,-480.5 1551,-499.5 1747,-499.5 1747,-480.5 1551,-480.5"/>
<text text-anchor="middle" x="1649" y="-487.5" font-family="Helvetica,sans-Serif" font-size="10.00">BlackGui::Views::CTextMessageView</text>
</a>
</g>
</g>
<!-- Node39&#45;&gt;Node40 -->
<g id="edge39" class="edge">
<title>Node39&#45;&gt;Node40</title>
<path fill="none" stroke="midnightblue" d="M1511.86,-486.66C1524.81,-486.98 1537.96,-487.3 1550.74,-487.61"/>
<polygon fill="midnightblue" stroke="midnightblue" points="1511.62,-483.15 1501.54,-486.41 1511.45,-490.15 1511.62,-483.15"/>
</g>
<!-- Node42 -->
<g id="node42" class="node">
<title>Node42</title>
<g id="a_node42"><a xlink:href="class_black_gui_1_1_views_1_1_c_view_with_callsign_objects.html" target="_top" xlink:title=" ">
<polygon fill="none" stroke="red" points="1560,-420.5 1560,-461.5 1738,-461.5 1738,-420.5 1560,-420.5"/>
<text text-anchor="start" x="1568" y="-449.5" font-family="Helvetica,sans-Serif" font-size="10.00">BlackGui::Views::CViewWith</text>
<text text-anchor="start" x="1568" y="-438.5" font-family="Helvetica,sans-Serif" font-size="10.00">CallsignObjects&lt; Models</text>
<text text-anchor="middle" x="1649" y="-427.5" font-family="Helvetica,sans-Serif" font-size="10.00">::CInterpolationSetupListModel &gt;</text>
</a>
</g>
</g>
<!-- Node41&#45;&gt;Node42 -->
<g id="edge41" class="edge">
<title>Node41&#45;&gt;Node42</title>
<path fill="none" stroke="midnightblue" d="M1415.66,-279.01C1437.84,-310.5 1487.98,-375.54 1546,-411 1551.75,-414.51 1557.93,-417.63 1564.31,-420.4"/>
<polygon fill="midnightblue" stroke="midnightblue" points="1418.5,-276.96 1409.93,-270.73 1412.74,-280.95 1418.5,-276.96"/>
</g>
<!-- Node44 -->
<g id="node43" class="node">
<title>Node44</title>
<g id="a_node43"><a xlink:href="class_black_gui_1_1_views_1_1_c_view_with_callsign_objects.html" target="_top" xlink:title=" ">
<polygon fill="none" stroke="red" points="1562.5,-360.5 1562.5,-401.5 1735.5,-401.5 1735.5,-360.5 1562.5,-360.5"/>
<text text-anchor="start" x="1570.5" y="-389.5" font-family="Helvetica,sans-Serif" font-size="10.00">BlackGui::Views::CViewWith</text>
<text text-anchor="start" x="1570.5" y="-378.5" font-family="Helvetica,sans-Serif" font-size="10.00">CallsignObjects&lt; Models</text>
<text text-anchor="middle" x="1649" y="-367.5" font-family="Helvetica,sans-Serif" font-size="10.00">::CSimulatedAircraftListModel &gt;</text>
</a>
</g>
</g>
<!-- Node41&#45;&gt;Node44 -->
<g id="edge42" class="edge">
<title>Node41&#45;&gt;Node44</title>
<path fill="none" stroke="midnightblue" d="M1424.41,-276.84C1451.3,-296.57 1500.01,-330.2 1546,-351 1553.57,-354.42 1561.63,-357.57 1569.77,-360.43"/>
<polygon fill="midnightblue" stroke="midnightblue" points="1426.28,-273.87 1416.17,-270.72 1422.11,-279.49 1426.28,-273.87"/>
</g>
<!-- Node46 -->
<g id="node44" class="node">
<title>Node46</title>
<g id="a_node44"><a xlink:href="class_black_gui_1_1_views_1_1_c_view_with_callsign_objects.html" target="_top" xlink:title=" ">
<polygon fill="none" stroke="red" points="1559.5,-300.5 1559.5,-341.5 1738.5,-341.5 1738.5,-300.5 1559.5,-300.5"/>
<text text-anchor="start" x="1567.5" y="-329.5" font-family="Helvetica,sans-Serif" font-size="10.00">BlackGui::Views::CViewWith</text>
<text text-anchor="start" x="1567.5" y="-318.5" font-family="Helvetica,sans-Serif" font-size="10.00">CallsignObjects&lt; BlackGui</text>
<text text-anchor="middle" x="1649" y="-307.5" font-family="Helvetica,sans-Serif" font-size="10.00">::Models::CAtcStationListModel &gt;</text>
</a>
</g>
</g>
<!-- Node41&#45;&gt;Node46 -->
<g id="edge43" class="edge">
<title>Node41&#45;&gt;Node46</title>
<path fill="none" stroke="midnightblue" d="M1452.24,-272.96C1484.28,-280.82 1527.02,-291.31 1564.39,-300.48"/>
<polygon fill="midnightblue" stroke="midnightblue" points="1452.79,-269.49 1442.24,-270.51 1451.12,-276.29 1452.79,-269.49"/>
</g>
<!-- Node48 -->
<g id="node45" class="node">
<title>Node48</title>
<g id="a_node45"><a xlink:href="class_black_gui_1_1_views_1_1_c_view_with_db_objects.html" target="_top" xlink:title=" ">
<polygon fill="none" stroke="red" points="1560,-240.5 1560,-281.5 1738,-281.5 1738,-240.5 1560,-240.5"/>
<text text-anchor="start" x="1568" y="-269.5" font-family="Helvetica,sans-Serif" font-size="10.00">BlackGui::Views::CViewWith</text>
<text text-anchor="start" x="1568" y="-258.5" font-family="Helvetica,sans-Serif" font-size="10.00">DbObjects&lt; Models::CAirlineIcao</text>
<text text-anchor="middle" x="1649" y="-247.5" font-family="Helvetica,sans-Serif" font-size="10.00">CodeListModel &gt;</text>
</a>
</g>
</g>
<!-- Node41&#45;&gt;Node48 -->
<g id="edge44" class="edge">
<title>Node41&#45;&gt;Node48</title>
<path fill="none" stroke="midnightblue" d="M1505.48,-261C1523.53,-261 1542.18,-261 1559.8,-261"/>
<polygon fill="midnightblue" stroke="midnightblue" points="1505.24,-257.5 1495.24,-261 1505.24,-264.5 1505.24,-257.5"/>
</g>
<!-- Node50 -->
<g id="node46" class="node">
<title>Node50</title>
<g id="a_node46"><a xlink:href="class_black_gui_1_1_views_1_1_c_view_with_db_objects.html" target="_top" xlink:title=" ">
<polygon fill="none" stroke="red" points="1546,-180.5 1546,-221.5 1752,-221.5 1752,-180.5 1546,-180.5"/>
<text text-anchor="start" x="1554" y="-209.5" font-family="Helvetica,sans-Serif" font-size="10.00">BlackGui::Views::CViewWith</text>
<text text-anchor="start" x="1554" y="-198.5" font-family="Helvetica,sans-Serif" font-size="10.00">DbObjects&lt; Models::CAircraftCategory</text>
<text text-anchor="middle" x="1649" y="-187.5" font-family="Helvetica,sans-Serif" font-size="10.00">ListModel &gt;</text>
</a>
</g>
</g>
<!-- Node41&#45;&gt;Node50 -->
<g id="edge45" class="edge">
<title>Node41&#45;&gt;Node50</title>
<path fill="none" stroke="midnightblue" d="M1452.24,-249.04C1484.28,-241.18 1527.02,-230.69 1564.39,-221.52"/>
<polygon fill="midnightblue" stroke="midnightblue" points="1451.12,-245.71 1442.24,-251.49 1452.79,-252.51 1451.12,-245.71"/>
</g>
<!-- Node52 -->
<g id="node47" class="node">
<title>Node52</title>
<g id="a_node47"><a xlink:href="class_black_gui_1_1_views_1_1_c_view_with_db_objects.html" target="_top" xlink:title=" ">
<polygon fill="none" stroke="red" points="1558,-120.5 1558,-161.5 1740,-161.5 1740,-120.5 1558,-120.5"/>
<text text-anchor="start" x="1566" y="-149.5" font-family="Helvetica,sans-Serif" font-size="10.00">BlackGui::Views::CViewWith</text>
<text text-anchor="start" x="1566" y="-138.5" font-family="Helvetica,sans-Serif" font-size="10.00">DbObjects&lt; Models::CAircraftIcao</text>
<text text-anchor="middle" x="1649" y="-127.5" font-family="Helvetica,sans-Serif" font-size="10.00">CodeListModel &gt;</text>
</a>
</g>
</g>
<!-- Node41&#45;&gt;Node52 -->
<g id="edge46" class="edge">
<title>Node41&#45;&gt;Node52</title>
<path fill="none" stroke="midnightblue" d="M1424.41,-245.16C1451.3,-225.43 1500.01,-191.8 1546,-171 1553.57,-167.58 1561.63,-164.43 1569.77,-161.57"/>
<polygon fill="midnightblue" stroke="midnightblue" points="1422.11,-242.51 1416.17,-251.28 1426.28,-248.13 1422.11,-242.51"/>
</g>
<!-- Node54 -->
<g id="node48" class="node">
<title>Node54</title>
<g id="a_node48"><a xlink:href="class_black_gui_1_1_views_1_1_c_view_with_db_objects.html" target="_top" xlink:title=" ">
<polygon fill="none" stroke="red" points="1562.5,-60.5 1562.5,-101.5 1735.5,-101.5 1735.5,-60.5 1562.5,-60.5"/>
<text text-anchor="start" x="1570.5" y="-89.5" font-family="Helvetica,sans-Serif" font-size="10.00">BlackGui::Views::CViewWith</text>
<text text-anchor="start" x="1570.5" y="-78.5" font-family="Helvetica,sans-Serif" font-size="10.00">DbObjects&lt; Models::CLiveryList</text>
<text text-anchor="middle" x="1649" y="-67.5" font-family="Helvetica,sans-Serif" font-size="10.00">Model &gt;</text>
</a>
</g>
</g>
<!-- Node41&#45;&gt;Node54 -->
<g id="edge47" class="edge">
<title>Node41&#45;&gt;Node54</title>
<path fill="none" stroke="midnightblue" d="M1415.66,-242.99C1437.84,-211.5 1487.98,-146.46 1546,-111 1551.75,-107.49 1557.93,-104.37 1564.31,-101.6"/>
<polygon fill="midnightblue" stroke="midnightblue" points="1412.74,-241.05 1409.93,-251.27 1418.5,-245.04 1412.74,-241.05"/>
</g>
<!-- Node56 -->
<g id="node49" class="node">
<title>Node56</title>
<g id="a_node49"><a xlink:href="class_black_gui_1_1_views_1_1_c_view_with_timestamp_with_offset_objects.html" target="_top" xlink:title=" ">
<polygon fill="none" stroke="red" points="1552,-0.5 1552,-41.5 1746,-41.5 1746,-0.5 1552,-0.5"/>
<text text-anchor="start" x="1560" y="-29.5" font-family="Helvetica,sans-Serif" font-size="10.00">BlackGui::Views::CViewWith</text>
<text text-anchor="start" x="1560" y="-18.5" font-family="Helvetica,sans-Serif" font-size="10.00">TimestampWithOffsetObjects</text>
<text text-anchor="middle" x="1649" y="-7.5" font-family="Helvetica,sans-Serif" font-size="10.00">&lt; Models::CAircraftPartsListModel &gt;</text>
</a>
</g>
</g>
<!-- Node41&#45;&gt;Node56 -->
<g id="edge48" class="edge">
<title>Node41&#45;&gt;Node56</title>
<path fill="none" stroke="midnightblue" d="M1411.09,-241.9C1428.49,-200.62 1475.28,-102.6 1546,-51 1550.85,-47.46 1556.11,-44.34 1561.6,-41.59"/>
<polygon fill="midnightblue" stroke="midnightblue" points="1407.78,-240.75 1407.22,-251.33 1414.26,-243.41 1407.78,-240.75"/>
</g>
</g>
</svg>
