<?xml version="1.0" encoding="UTF-8" standalone="no"?>
<!DOCTYPE svg PUBLIC "-//W3C//DTD SVG 1.1//EN"
 "http://www.w3.org/Graphics/SVG/1.1/DTD/svg11.dtd">
<!-- Generated by graphviz version 2.43.0 (0)
 -->
<!-- Title: BlackMisc::Simulation::CRemoteAircraftProviderDummy Pages: 1 -->
<svg width="374pt" height="229pt"
 viewBox="0.00 0.00 374.00 229.00" xmlns="http://www.w3.org/2000/svg" xmlns:xlink="http://www.w3.org/1999/xlink">
<g id="graph0" class="graph" transform="scale(1 1) rotate(0) translate(4 225)">
<title>BlackMisc::Simulation::CRemoteAircraftProviderDummy</title>
<!-- Node1 -->
<g id="node1" class="node">
<title>Node1</title>
<g id="a_node1"><a xlink:title="Dummy implementation for testing purpose.">
<polygon fill="#bfbfbf" stroke="black" points="53,-0.5 53,-30.5 235,-30.5 235,-0.5 53,-0.5"/>
<text text-anchor="start" x="61" y="-18.5" font-family="Helvetica,sans-Serif" font-size="10.00">BlackMisc::Simulation</text>
<text text-anchor="middle" x="144" y="-7.5" font-family="Helvetica,sans-Serif" font-size="10.00">::CRemoteAircraftProviderDummy</text>
</a>
</g>
</g>
<!-- Node2 -->
<g id="node2" class="node">
<title>Node2</title>
<g id="a_node2"><a xlink:href="class_black_misc_1_1_simulation_1_1_c_remote_aircraft_provider.html" target="_top" xlink:title="Implementaion of the interface, which can also be used for testing.">
<polygon fill="none" stroke="black" points="72.5,-67.5 72.5,-97.5 215.5,-97.5 215.5,-67.5 72.5,-67.5"/>
<text text-anchor="start" x="80.5" y="-85.5" font-family="Helvetica,sans-Serif" font-size="10.00">BlackMisc::Simulation</text>
<text text-anchor="middle" x="144" y="-74.5" font-family="Helvetica,sans-Serif" font-size="10.00">::CRemoteAircraftProvider</text>
</a>
</g>
</g>
<!-- Node2&#45;&gt;Node1 -->
<g id="edge1" class="edge">
<title>Node2&#45;&gt;Node1</title>
<path fill="none" stroke="midnightblue" d="M144,-57.11C144,-48.15 144,-38.32 144,-30.58"/>
<polygon fill="midnightblue" stroke="midnightblue" points="140.5,-57.4 144,-67.4 147.5,-57.4 140.5,-57.4"/>
</g>
<!-- Node3 -->
<g id="node3" class="node">
<title>Node3</title>
<g id="a_node3"><a target="_parent" xlink:href="http://doc.qt.io/qt-5/qobject.html" xlink:title=" ">
<polygon fill="none" stroke="black" points="0,-140 0,-159 56,-159 56,-140 0,-140"/>
<text text-anchor="middle" x="28" y="-147" font-family="Helvetica,sans-Serif" font-size="10.00">QObject</text>
</a>
</g>
</g>
<!-- Node3&#45;&gt;Node2 -->
<g id="edge2" class="edge">
<title>Node3&#45;&gt;Node2</title>
<path fill="none" stroke="midnightblue" d="M52.53,-134.75C72.03,-123.83 99.2,-108.6 118.86,-97.59"/>
<polygon fill="midnightblue" stroke="midnightblue" points="50.66,-131.79 43.64,-139.73 54.08,-137.9 50.66,-131.79"/>
</g>
<!-- Node4 -->
<g id="node4" class="node">
<title>Node4</title>
<g id="a_node4"><a xlink:href="class_black_misc_1_1_simulation_1_1_i_remote_aircraft_provider.html" target="_top" xlink:title="Direct thread safe in memory access to remote aircraft.">
<polygon fill="none" stroke="black" points="74,-134.5 74,-164.5 214,-164.5 214,-134.5 74,-134.5"/>
<text text-anchor="start" x="82" y="-152.5" font-family="Helvetica,sans-Serif" font-size="10.00">BlackMisc::Simulation</text>
<text text-anchor="middle" x="144" y="-141.5" font-family="Helvetica,sans-Serif" font-size="10.00">::IRemoteAircraftProvider</text>
</a>
</g>
</g>
<!-- Node4&#45;&gt;Node2 -->
<g id="edge3" class="edge">
<title>Node4&#45;&gt;Node2</title>
<path fill="none" stroke="midnightblue" d="M144,-124.11C144,-115.15 144,-105.32 144,-97.58"/>
<polygon fill="midnightblue" stroke="midnightblue" points="140.5,-124.4 144,-134.4 147.5,-124.4 140.5,-124.4"/>
</g>
<!-- Node5 -->
<g id="node5" class="node">
<title>Node5</title>
<g id="a_node5"><a xlink:href="class_black_misc_1_1_i_provider.html" target="_top" xlink:title="Base class for providers.">
<polygon fill="none" stroke="black" points="86,-201.5 86,-220.5 202,-220.5 202,-201.5 86,-201.5"/>
<text text-anchor="middle" x="144" y="-208.5" font-family="Helvetica,sans-Serif" font-size="10.00">BlackMisc::IProvider</text>
</a>
</g>
</g>
<!-- Node5&#45;&gt;Node4 -->
<g id="edge4" class="edge">
<title>Node5&#45;&gt;Node4</title>
<path fill="none" stroke="midnightblue" d="M144,-191.23C144,-182.59 144,-172.5 144,-164.52"/>
<polygon fill="midnightblue" stroke="midnightblue" points="140.5,-191.48 144,-201.48 147.5,-191.48 140.5,-191.48"/>
</g>
<!-- Node6 -->
<g id="node6" class="node">
<title>Node6</title>
<g id="a_node6"><a xlink:href="class_black_misc_1_1_c_identifiable.html" target="_top" xlink:title="Base class with a member CIdentifier to be inherited by a class which has an identity in the environm...">
<polygon fill="none" stroke="black" points="232,-140 232,-159 366,-159 366,-140 232,-140"/>
<text text-anchor="middle" x="299" y="-147" font-family="Helvetica,sans-Serif" font-size="10.00">BlackMisc::CIdentifiable</text>
</a>
</g>
</g>
<!-- Node6&#45;&gt;Node2 -->
<g id="edge5" class="edge">
<title>Node6&#45;&gt;Node2</title>
<path fill="none" stroke="midnightblue" d="M268.98,-135.91C242.74,-124.91 204.67,-108.94 177.45,-97.53"/>
<polygon fill="midnightblue" stroke="midnightblue" points="267.84,-139.23 278.42,-139.87 270.55,-132.77 267.84,-139.23"/>
</g>
</g>
</svg>
