<?xml version="1.0" encoding="UTF-8" standalone="no"?>
<!DOCTYPE svg PUBLIC "-//W3C//DTD SVG 1.1//EN"
 "http://www.w3.org/Graphics/SVG/1.1/DTD/svg11.dtd">
<!-- Generated by graphviz version 2.43.0 (0)
 -->
<!-- Title: BlackMisc::CVariantMap Pages: 1 -->
<svg width="550pt" height="186pt"
 viewBox="0.00 0.00 550.00 186.00" xmlns="http://www.w3.org/2000/svg" xmlns:xlink="http://www.w3.org/1999/xlink">
<g id="graph0" class="graph" transform="scale(1 1) rotate(0) translate(4 182)">
<title>BlackMisc::CVariantMap</title>
<!-- Node1 -->
<g id="node1" class="node">
<title>Node1</title>
<g id="a_node1"><a xlink:title="Map of { QString, CVariant } pairs.">
<polygon fill="#bfbfbf" stroke="black" points="408,-54 408,-73 542,-73 542,-54 408,-54"/>
<text text-anchor="middle" x="475" y="-61" font-family="Helvetica,sans-Serif" font-size="10.00">BlackMisc::CVariantMap</text>
</a>
</g>
</g>
<!-- Node2 -->
<g id="node2" class="node">
<title>Node2</title>
<g id="a_node2"><a xlink:href="class_black_misc_1_1_c_dictionary.html" target="_top" xlink:title=" ">
<polygon fill="none" stroke="black" points="215,-73.5 215,-103.5 372,-103.5 372,-73.5 215,-73.5"/>
<text text-anchor="start" x="223" y="-91.5" font-family="Helvetica,sans-Serif" font-size="10.00">BlackMisc::CDictionary</text>
<text text-anchor="middle" x="293.5" y="-80.5" font-family="Helvetica,sans-Serif" font-size="10.00">&lt; QString, CVariant, QMap &gt;</text>
</a>
</g>
</g>
<!-- Node2&#45;&gt;Node1 -->
<g id="edge1" class="edge">
<title>Node2&#45;&gt;Node1</title>
<path fill="none" stroke="midnightblue" d="M382.23,-76.28C390.81,-75.09 399.41,-73.89 407.73,-72.73"/>
<polygon fill="midnightblue" stroke="midnightblue" points="381.61,-72.83 372.19,-77.68 382.57,-79.77 381.61,-72.83"/>
</g>
<!-- Node3 -->
<g id="node3" class="node">
<title>Node3</title>
<g id="a_node3"><a xlink:href="class_black_misc_1_1_mixin_1_1_d_bus_operators.html" target="_top" xlink:title="CRTP class template which will generate marshalling operators for a derived class with its own marsha...">
<polygon fill="none" stroke="black" points="0,-147.5 0,-177.5 179,-177.5 179,-147.5 0,-147.5"/>
<text text-anchor="start" x="8" y="-165.5" font-family="Helvetica,sans-Serif" font-size="10.00">BlackMisc::Mixin::DBusOperators</text>
<text text-anchor="middle" x="89.5" y="-154.5" font-family="Helvetica,sans-Serif" font-size="10.00">&lt; Derived,... &gt;</text>
</a>
</g>
</g>
<!-- Node3&#45;&gt;Node2 -->
<g id="edge2" class="edge">
<title>Node3&#45;&gt;Node2</title>
<path fill="none" stroke="midnightblue" d="M160.67,-144.52C166.9,-142.6 173.09,-140.59 179,-138.5 207.62,-128.38 239.15,-114.24 261.69,-103.58"/>
<polygon fill="midnightblue" stroke="midnightblue" points="159.44,-141.23 150.86,-147.44 161.44,-147.94 159.44,-141.23"/>
</g>
<!-- Node4 -->
<g id="node4" class="node">
<title>Node4</title>
<g id="a_node4"><a xlink:href="class_black_misc_1_1_mixin_1_1_data_stream_operators.html" target="_top" xlink:title="CRTP class template to generate non&#45;member QDataStream streaming operators.">
<polygon fill="none" stroke="black" points="7.5,-98.5 7.5,-128.5 171.5,-128.5 171.5,-98.5 7.5,-98.5"/>
<text text-anchor="start" x="15.5" y="-116.5" font-family="Helvetica,sans-Serif" font-size="10.00">BlackMisc::Mixin::DataStream</text>
<text text-anchor="middle" x="89.5" y="-105.5" font-family="Helvetica,sans-Serif" font-size="10.00">Operators&lt; Derived &gt;</text>
</a>
</g>
</g>
<!-- Node4&#45;&gt;Node2 -->
<g id="edge3" class="edge">
<title>Node4&#45;&gt;Node2</title>
<path fill="none" stroke="midnightblue" d="M181.88,-102.19C192.94,-100.82 204.15,-99.43 214.98,-98.09"/>
<polygon fill="midnightblue" stroke="midnightblue" points="181.28,-98.74 171.79,-103.44 182.14,-105.68 181.28,-98.74"/>
</g>
<!-- Node5 -->
<g id="node5" class="node">
<title>Node5</title>
<g id="a_node5"><a xlink:href="class_black_misc_1_1_mixin_1_1_json_operators.html" target="_top" xlink:title="CRTP class template which will generate marshalling operators for a derived class with its own marsha...">
<polygon fill="none" stroke="black" points="3,-49.5 3,-79.5 176,-79.5 176,-49.5 3,-49.5"/>
<text text-anchor="start" x="11" y="-67.5" font-family="Helvetica,sans-Serif" font-size="10.00">BlackMisc::Mixin::JsonOperators</text>
<text text-anchor="middle" x="89.5" y="-56.5" font-family="Helvetica,sans-Serif" font-size="10.00">&lt; Derived &gt;</text>
</a>
</g>
</g>
<!-- Node5&#45;&gt;Node2 -->
<g id="edge4" class="edge">
<title>Node5&#45;&gt;Node2</title>
<path fill="none" stroke="midnightblue" d="M186.12,-75.86C195.7,-77 205.35,-78.15 214.72,-79.26"/>
<polygon fill="midnightblue" stroke="midnightblue" points="186.51,-72.38 176.17,-74.68 185.68,-79.33 186.51,-72.38"/>
</g>
<!-- Node6 -->
<g id="node6" class="node">
<title>Node6</title>
<g id="a_node6"><a xlink:href="class_black_misc_1_1_mixin_1_1_string.html" target="_top" xlink:title="CRTP class template from which a derived class can inherit string streaming operations.">
<polygon fill="none" stroke="black" points="22.5,-0.5 22.5,-30.5 156.5,-30.5 156.5,-0.5 22.5,-0.5"/>
<text text-anchor="start" x="30.5" y="-18.5" font-family="Helvetica,sans-Serif" font-size="10.00">BlackMisc::Mixin::String</text>
<text text-anchor="middle" x="89.5" y="-7.5" font-family="Helvetica,sans-Serif" font-size="10.00">&lt; Derived &gt;</text>
</a>
</g>
</g>
<!-- Node6&#45;&gt;Node2 -->
<g id="edge5" class="edge">
<title>Node6&#45;&gt;Node2</title>
<path fill="none" stroke="midnightblue" d="M162.73,-33.85C168.32,-35.89 173.8,-38.1 179,-40.5 196.47,-48.55 197.64,-56.24 215,-64.5 221.87,-67.77 229.29,-70.73 236.72,-73.36"/>
<polygon fill="midnightblue" stroke="midnightblue" points="163.87,-30.54 153.28,-30.59 161.59,-37.16 163.87,-30.54"/>
</g>
<!-- Node7 -->
<g id="node7" class="node">
<title>Node7</title>
<g id="a_node7"><a xlink:href="class_black_misc_1_1_mixin_1_1_meta_type.html" target="_top" xlink:title=" ">
<polygon fill="none" stroke="black" points="217.5,-24.5 217.5,-54.5 369.5,-54.5 369.5,-24.5 217.5,-24.5"/>
<text text-anchor="start" x="225.5" y="-42.5" font-family="Helvetica,sans-Serif" font-size="10.00">BlackMisc::Mixin::MetaType</text>
<text text-anchor="middle" x="293.5" y="-31.5" font-family="Helvetica,sans-Serif" font-size="10.00">&lt; CVariantMap &gt;</text>
</a>
</g>
</g>
<!-- Node7&#45;&gt;Node1 -->
<g id="edge6" class="edge">
<title>Node7&#45;&gt;Node1</title>
<path fill="none" stroke="midnightblue" d="M379.75,-50.9C389.17,-52.16 398.65,-53.43 407.78,-54.65"/>
<polygon fill="midnightblue" stroke="midnightblue" points="379.96,-47.4 369.58,-49.54 379.03,-54.33 379.96,-47.4"/>
</g>
</g>
</svg>
