<?xml version="1.0" encoding="UTF-8" standalone="no"?>
<!DOCTYPE svg PUBLIC "-//W3C//DTD SVG 1.1//EN"
 "http://www.w3.org/Graphics/SVG/1.1/DTD/svg11.dtd">
<!-- Generated by graphviz version 2.43.0 (0)
 -->
<!-- Title: BlackGui::Components::CAudioAdvancedDistributedComponent Pages: 1 -->
<svg width="173pt" height="218pt"
 viewBox="0.00 0.00 172.50 218.00" xmlns="http://www.w3.org/2000/svg" xmlns:xlink="http://www.w3.org/1999/xlink">
<g id="graph0" class="graph" transform="scale(1 1) rotate(0) translate(4 214)">
<title>BlackGui::Components::CAudioAdvancedDistributedComponent</title>
<!-- Node1 -->
<g id="node1" class="node">
<title>Node1</title>
<g id="a_node1"><a xlink:title="Adv. and sitributed audio setup.">
<polygon fill="#bfbfbf" stroke="black" points="0,-0.5 0,-41.5 159,-41.5 159,-0.5 0,-0.5"/>
<text text-anchor="start" x="8" y="-29.5" font-family="Helvetica,sans-Serif" font-size="10.00">BlackGui::Components</text>
<text text-anchor="start" x="8" y="-18.5" font-family="Helvetica,sans-Serif" font-size="10.00">::CAudioAdvancedDistributed</text>
<text text-anchor="middle" x="79.5" y="-7.5" font-family="Helvetica,sans-Serif" font-size="10.00">Component</text>
</a>
</g>
</g>
<!-- Node2 -->
<g id="node2" class="node">
<title>Node2</title>
<g id="a_node2"><a target="_parent" xlink:href="http://doc.qt.io/qt-5/qframe.html" xlink:title=" ">
<polygon fill="none" stroke="black" points="52,-78.5 52,-97.5 107,-97.5 107,-78.5 52,-78.5"/>
<text text-anchor="middle" x="79.5" y="-85.5" font-family="Helvetica,sans-Serif" font-size="10.00">QFrame</text>
</a>
</g>
</g>
<!-- Node2&#45;&gt;Node1 -->
<g id="edge1" class="edge">
<title>Node2&#45;&gt;Node1</title>
<path fill="none" stroke="midnightblue" d="M79.5,-68.04C79.5,-59.71 79.5,-49.94 79.5,-41.54"/>
<polygon fill="midnightblue" stroke="midnightblue" points="76,-68.23 79.5,-78.23 83,-68.23 76,-68.23"/>
</g>
<!-- Node3 -->
<g id="node3" class="node">
<title>Node3</title>
<g id="a_node3"><a target="_parent" xlink:href="http://doc.qt.io/qt-5/qwidget.html" xlink:title=" ">
<polygon fill="none" stroke="black" points="50,-134.5 50,-153.5 109,-153.5 109,-134.5 50,-134.5"/>
<text text-anchor="middle" x="79.5" y="-141.5" font-family="Helvetica,sans-Serif" font-size="10.00">QWidget</text>
</a>
</g>
</g>
<!-- Node3&#45;&gt;Node2 -->
<g id="edge2" class="edge">
<title>Node3&#45;&gt;Node2</title>
<path fill="none" stroke="midnightblue" d="M79.5,-123.8C79.5,-114.91 79.5,-104.78 79.5,-97.75"/>
<polygon fill="midnightblue" stroke="midnightblue" points="76,-124.08 79.5,-134.08 83,-124.08 76,-124.08"/>
</g>
<!-- Node4 -->
<g id="node4" class="node">
<title>Node4</title>
<g id="a_node4"><a target="_parent" xlink:href="http://doc.qt.io/qt-5/qobject.html" xlink:title=" ">
<polygon fill="none" stroke="black" points="8.5,-190.5 8.5,-209.5 64.5,-209.5 64.5,-190.5 8.5,-190.5"/>
<text text-anchor="middle" x="36.5" y="-197.5" font-family="Helvetica,sans-Serif" font-size="10.00">QObject</text>
</a>
</g>
</g>
<!-- Node4&#45;&gt;Node3 -->
<g id="edge3" class="edge">
<title>Node4&#45;&gt;Node3</title>
<path fill="none" stroke="midnightblue" d="M49.92,-182.14C57.41,-172.74 66.44,-161.4 72.53,-153.75"/>
<polygon fill="midnightblue" stroke="midnightblue" points="47.09,-180.08 43.6,-190.08 52.57,-184.44 47.09,-180.08"/>
</g>
<!-- Node5 -->
<g id="node5" class="node">
<title>Node5</title>
<g id="a_node5"><a target="_parent" xlink:href="http://doc.qt.io/qt-5/qpaintdevice.html" xlink:title=" ">
<polygon fill="none" stroke="black" points="82.5,-190.5 82.5,-209.5 164.5,-209.5 164.5,-190.5 82.5,-190.5"/>
<text text-anchor="middle" x="123.5" y="-197.5" font-family="Helvetica,sans-Serif" font-size="10.00">QPaintDevice</text>
</a>
</g>
</g>
<!-- Node5&#45;&gt;Node3 -->
<g id="edge4" class="edge">
<title>Node5&#45;&gt;Node3</title>
<path fill="none" stroke="midnightblue" d="M109.77,-182.14C102.1,-172.74 92.87,-161.4 86.63,-153.75"/>
<polygon fill="midnightblue" stroke="midnightblue" points="107.2,-184.54 116.23,-190.08 112.63,-180.12 107.2,-184.54"/>
</g>
</g>
</svg>
