<?xml version="1.0" encoding="UTF-8" standalone="no"?>
<!DOCTYPE svg PUBLIC "-//W3C//DTD SVG 1.1//EN"
 "http://www.w3.org/Graphics/SVG/1.1/DTD/svg11.dtd">
<!-- Generated by graphviz version 2.43.0 (0)
 -->
<!-- Title: BlackGui::COverlayMessagesFrameEnableForDockWidgetInfoArea Pages: 1 -->
<svg width="1072pt" height="137pt"
 viewBox="0.00 0.00 1072.00 137.00" xmlns="http://www.w3.org/2000/svg" xmlns:xlink="http://www.w3.org/1999/xlink">
<g id="graph0" class="graph" transform="scale(1 1) rotate(0) translate(4 133)">
<title>BlackGui::COverlayMessagesFrameEnableForDockWidgetInfoArea</title>
<!-- Node1 -->
<g id="node1" class="node">
<title>Node1</title>
<g id="a_node1"><a xlink:title="Using this class provides a QFrame with the overlay and dock widget functionality already integrated.">
<polygon fill="#bfbfbf" stroke="black" points="696,-49.5 696,-79.5 892,-79.5 892,-49.5 696,-49.5"/>
<text text-anchor="start" x="704" y="-67.5" font-family="Helvetica,sans-Serif" font-size="10.00">BlackGui::COverlayMessages</text>
<text text-anchor="middle" x="794" y="-56.5" font-family="Helvetica,sans-Serif" font-size="10.00">FrameEnableForDockWidgetInfoArea</text>
</a>
</g>
</g>
<!-- Node9 -->
<g id="node9" class="node">
<title>Node9</title>
<g id="a_node9"><a xlink:href="class_black_gui_1_1_components_1_1_c_atc_station_component.html" target="_top" xlink:title="ATC stations component.">
<polygon fill="none" stroke="black" points="928,-98.5 928,-128.5 1064,-128.5 1064,-98.5 928,-98.5"/>
<text text-anchor="start" x="936" y="-116.5" font-family="Helvetica,sans-Serif" font-size="10.00">BlackGui::Components</text>
<text text-anchor="middle" x="996" y="-105.5" font-family="Helvetica,sans-Serif" font-size="10.00">::CAtcStationComponent</text>
</a>
</g>
</g>
<!-- Node1&#45;&gt;Node9 -->
<g id="edge8" class="edge">
<title>Node1&#45;&gt;Node9</title>
<path fill="none" stroke="midnightblue" d="M866.33,-81.98C888.38,-87.38 912.45,-93.28 933.75,-98.49"/>
<polygon fill="midnightblue" stroke="midnightblue" points="866.91,-78.51 856.37,-79.53 865.25,-85.31 866.91,-78.51"/>
</g>
<!-- Node10 -->
<g id="node10" class="node">
<title>Node10</title>
<g id="a_node10"><a xlink:href="class_black_gui_1_1_components_1_1_c_cockpit_component.html" target="_top" xlink:title="Cockpit component: COM unit, show / hide bar, voice rooms.">
<polygon fill="none" stroke="black" points="932,-49.5 932,-79.5 1060,-79.5 1060,-49.5 932,-49.5"/>
<text text-anchor="start" x="940" y="-67.5" font-family="Helvetica,sans-Serif" font-size="10.00">BlackGui::Components</text>
<text text-anchor="middle" x="996" y="-56.5" font-family="Helvetica,sans-Serif" font-size="10.00">::CCockpitComponent</text>
</a>
</g>
</g>
<!-- Node1&#45;&gt;Node10 -->
<g id="edge9" class="edge">
<title>Node1&#45;&gt;Node10</title>
<path fill="none" stroke="midnightblue" d="M902.22,-64.5C912.35,-64.5 922.38,-64.5 931.9,-64.5"/>
<polygon fill="midnightblue" stroke="midnightblue" points="902.07,-61 892.07,-64.5 902.07,-68 902.07,-61"/>
</g>
<!-- Node11 -->
<g id="node11" class="node">
<title>Node11</title>
<g id="a_node11"><a xlink:href="class_black_gui_1_1_components_1_1_c_weather_component.html" target="_top" xlink:title="Weather component.">
<polygon fill="none" stroke="black" points="932,-0.5 932,-30.5 1060,-30.5 1060,-0.5 932,-0.5"/>
<text text-anchor="start" x="940" y="-18.5" font-family="Helvetica,sans-Serif" font-size="10.00">BlackGui::Components</text>
<text text-anchor="middle" x="996" y="-7.5" font-family="Helvetica,sans-Serif" font-size="10.00">::CWeatherComponent</text>
</a>
</g>
</g>
<!-- Node1&#45;&gt;Node11 -->
<g id="edge10" class="edge">
<title>Node1&#45;&gt;Node11</title>
<path fill="none" stroke="midnightblue" d="M866.33,-47.02C888.38,-41.62 912.45,-35.72 933.75,-30.51"/>
<polygon fill="midnightblue" stroke="midnightblue" points="865.25,-43.69 856.37,-49.47 866.91,-50.49 865.25,-43.69"/>
</g>
<!-- Node2 -->
<g id="node2" class="node">
<title>Node2</title>
<g id="a_node2"><a xlink:href="class_black_gui_1_1_c_overlay_messages_frame.html" target="_top" xlink:title="Using this class provides a QFrame with the overlay functionality already integrated.">
<polygon fill="none" stroke="black" points="500,-74.5 500,-104.5 660,-104.5 660,-74.5 500,-74.5"/>
<text text-anchor="start" x="508" y="-92.5" font-family="Helvetica,sans-Serif" font-size="10.00">BlackGui::COverlayMessages</text>
<text text-anchor="middle" x="580" y="-81.5" font-family="Helvetica,sans-Serif" font-size="10.00">Frame</text>
</a>
</g>
</g>
<!-- Node2&#45;&gt;Node1 -->
<g id="edge1" class="edge">
<title>Node2&#45;&gt;Node1</title>
<path fill="none" stroke="midnightblue" d="M670.44,-78.95C678.87,-77.96 687.44,-76.95 695.94,-75.95"/>
<polygon fill="midnightblue" stroke="midnightblue" points="669.76,-75.51 660.24,-80.16 670.58,-82.46 669.76,-75.51"/>
</g>
<!-- Node3 -->
<g id="node3" class="node">
<title>Node3</title>
<g id="a_node3"><a xlink:href="class_black_gui_1_1_c_overlay_messages_base.html" target="_top" xlink:title=" ">
<polygon fill="none" stroke="black" points="304,-74.5 304,-104.5 464,-104.5 464,-74.5 304,-74.5"/>
<text text-anchor="start" x="312" y="-92.5" font-family="Helvetica,sans-Serif" font-size="10.00">BlackGui::COverlayMessages</text>
<text text-anchor="middle" x="384" y="-81.5" font-family="Helvetica,sans-Serif" font-size="10.00">Base&lt; QFrame &gt;</text>
</a>
</g>
</g>
<!-- Node3&#45;&gt;Node2 -->
<g id="edge2" class="edge">
<title>Node3&#45;&gt;Node2</title>
<path fill="none" stroke="midnightblue" d="M474.44,-89.5C482.88,-89.5 491.41,-89.5 499.75,-89.5"/>
<polygon fill="midnightblue" stroke="midnightblue" points="474.19,-86 464.19,-89.5 474.19,-93 474.19,-86"/>
</g>
<!-- Node4 -->
<g id="node4" class="node">
<title>Node4</title>
<g id="a_node4"><a target="_parent" xlink:href="http://doc.qt.io/qt-5/qframe.html" xlink:title=" ">
<polygon fill="none" stroke="black" points="213,-80 213,-99 268,-99 268,-80 213,-80"/>
<text text-anchor="middle" x="240.5" y="-87" font-family="Helvetica,sans-Serif" font-size="10.00">QFrame</text>
</a>
</g>
</g>
<!-- Node4&#45;&gt;Node3 -->
<g id="edge3" class="edge">
<title>Node4&#45;&gt;Node3</title>
<path fill="none" stroke="midnightblue" d="M278.17,-89.5C286.19,-89.5 294.98,-89.5 303.95,-89.5"/>
<polygon fill="midnightblue" stroke="midnightblue" points="278.12,-86 268.12,-89.5 278.12,-93 278.12,-86"/>
</g>
<!-- Node5 -->
<g id="node5" class="node">
<title>Node5</title>
<g id="a_node5"><a target="_parent" xlink:href="http://doc.qt.io/qt-5/qwidget.html" xlink:title=" ">
<polygon fill="none" stroke="black" points="118,-80 118,-99 177,-99 177,-80 118,-80"/>
<text text-anchor="middle" x="147.5" y="-87" font-family="Helvetica,sans-Serif" font-size="10.00">QWidget</text>
</a>
</g>
</g>
<!-- Node5&#45;&gt;Node4 -->
<g id="edge4" class="edge">
<title>Node5&#45;&gt;Node4</title>
<path fill="none" stroke="midnightblue" d="M187.46,-89.5C195.99,-89.5 204.83,-89.5 212.75,-89.5"/>
<polygon fill="midnightblue" stroke="midnightblue" points="187.29,-86 177.29,-89.5 187.29,-93 187.29,-86"/>
</g>
<!-- Node6 -->
<g id="node6" class="node">
<title>Node6</title>
<g id="a_node6"><a target="_parent" xlink:href="http://doc.qt.io/qt-5/qobject.html" xlink:title=" ">
<polygon fill="none" stroke="black" points="13,-99 13,-118 69,-118 69,-99 13,-99"/>
<text text-anchor="middle" x="41" y="-106" font-family="Helvetica,sans-Serif" font-size="10.00">QObject</text>
</a>
</g>
</g>
<!-- Node6&#45;&gt;Node5 -->
<g id="edge5" class="edge">
<title>Node6&#45;&gt;Node5</title>
<path fill="none" stroke="midnightblue" d="M79.09,-101.76C91.88,-99.43 106,-96.86 117.99,-94.68"/>
<polygon fill="midnightblue" stroke="midnightblue" points="78.4,-98.33 69.18,-103.56 79.65,-105.21 78.4,-98.33"/>
</g>
<!-- Node7 -->
<g id="node7" class="node">
<title>Node7</title>
<g id="a_node7"><a target="_parent" xlink:href="http://doc.qt.io/qt-5/qpaintdevice.html" xlink:title=" ">
<polygon fill="none" stroke="black" points="0,-61 0,-80 82,-80 82,-61 0,-61"/>
<text text-anchor="middle" x="41" y="-68" font-family="Helvetica,sans-Serif" font-size="10.00">QPaintDevice</text>
</a>
</g>
</g>
<!-- Node7&#45;&gt;Node5 -->
<g id="edge6" class="edge">
<title>Node7&#45;&gt;Node5</title>
<path fill="none" stroke="midnightblue" d="M91.97,-79.59C100.8,-81.19 109.71,-82.81 117.69,-84.26"/>
<polygon fill="midnightblue" stroke="midnightblue" points="92.57,-76.14 82.1,-77.79 91.32,-83.02 92.57,-76.14"/>
</g>
<!-- Node8 -->
<g id="node8" class="node">
<title>Node8</title>
<g id="a_node8"><a xlink:href="class_black_gui_1_1_c_enable_for_dock_widget_info_area.html" target="_top" xlink:title="Helper class: If a component is residing in an dockable widget. This class provides access to its inf...">
<polygon fill="none" stroke="black" points="507,-25.5 507,-55.5 653,-55.5 653,-25.5 507,-25.5"/>
<text text-anchor="start" x="515" y="-43.5" font-family="Helvetica,sans-Serif" font-size="10.00">BlackGui::CEnableForDock</text>
<text text-anchor="middle" x="580" y="-32.5" font-family="Helvetica,sans-Serif" font-size="10.00">WidgetInfoArea</text>
</a>
</g>
</g>
<!-- Node8&#45;&gt;Node1 -->
<g id="edge7" class="edge">
<title>Node8&#45;&gt;Node1</title>
<path fill="none" stroke="midnightblue" d="M663.23,-49.81C673.96,-51.02 685.03,-52.28 695.98,-53.52"/>
<polygon fill="midnightblue" stroke="midnightblue" points="663.4,-46.31 653.07,-48.66 662.61,-53.26 663.4,-46.31"/>
</g>
</g>
</svg>
