<?xml version="1.0" encoding="UTF-8" standalone="no"?>
<!DOCTYPE svg PUBLIC "-//W3C//DTD SVG 1.1//EN"
 "http://www.w3.org/Graphics/SVG/1.1/DTD/svg11.dtd">
<!-- Generated by graphviz version 2.43.0 (0)
 -->
<!-- Title: BlackGui::CEnableForViewBasedIndicator Pages: 1 -->
<svg width="368pt" height="382pt"
 viewBox="0.00 0.00 368.00 382.00" xmlns="http://www.w3.org/2000/svg" xmlns:xlink="http://www.w3.org/1999/xlink">
<g id="graph0" class="graph" transform="scale(1 1) rotate(0) translate(4 378)">
<title>BlackGui::CEnableForViewBasedIndicator</title>
<!-- Node1 -->
<g id="node1" class="node">
<title>Node1</title>
<g id="a_node1"><a xlink:title="Hand over indication task to an embedded view.">
<polygon fill="#bfbfbf" stroke="black" points="0,-171.5 0,-201.5 145,-201.5 145,-171.5 0,-171.5"/>
<text text-anchor="start" x="8" y="-189.5" font-family="Helvetica,sans-Serif" font-size="10.00">BlackGui::CEnableForView</text>
<text text-anchor="middle" x="72.5" y="-178.5" font-family="Helvetica,sans-Serif" font-size="10.00">BasedIndicator</text>
</a>
</g>
</g>
<!-- Node2 -->
<g id="node2" class="node">
<title>Node2</title>
<g id="a_node2"><a xlink:href="class_black_gui_1_1_components_1_1_c_db_aircraft_category_component.html" target="_top" xlink:title="DB aircraft categories.">
<polygon fill="none" stroke="black" points="181,-343.5 181,-373.5 360,-373.5 360,-343.5 181,-343.5"/>
<text text-anchor="start" x="189" y="-361.5" font-family="Helvetica,sans-Serif" font-size="10.00">BlackGui::Components</text>
<text text-anchor="middle" x="270.5" y="-350.5" font-family="Helvetica,sans-Serif" font-size="10.00">::CDbAircraftCategoryComponent</text>
</a>
</g>
</g>
<!-- Node1&#45;&gt;Node2 -->
<g id="edge1" class="edge">
<title>Node1&#45;&gt;Node2</title>
<path fill="none" stroke="midnightblue" d="M84.75,-211.12C101.16,-244.24 134.8,-302.64 181,-334.5 185.98,-337.93 191.43,-340.88 197.11,-343.4"/>
<polygon fill="midnightblue" stroke="midnightblue" points="87.71,-209.21 80.22,-201.72 81.41,-212.24 87.71,-209.21"/>
</g>
<!-- Node3 -->
<g id="node3" class="node">
<title>Node3</title>
<g id="a_node3"><a xlink:href="class_black_gui_1_1_components_1_1_c_db_aircraft_icao_component.html" target="_top" xlink:title="DB aircraft ICAO data.">
<polygon fill="none" stroke="black" points="193,-294.5 193,-324.5 348,-324.5 348,-294.5 193,-294.5"/>
<text text-anchor="start" x="201" y="-312.5" font-family="Helvetica,sans-Serif" font-size="10.00">BlackGui::Components</text>
<text text-anchor="middle" x="270.5" y="-301.5" font-family="Helvetica,sans-Serif" font-size="10.00">::CDbAircraftIcaoComponent</text>
</a>
</g>
</g>
<!-- Node1&#45;&gt;Node3 -->
<g id="edge2" class="edge">
<title>Node1&#45;&gt;Node3</title>
<path fill="none" stroke="midnightblue" d="M92.41,-209.41C112.23,-231.98 145.39,-265.84 181,-285.5 187.13,-288.89 193.77,-291.82 200.56,-294.35"/>
<polygon fill="midnightblue" stroke="midnightblue" points="94.9,-206.95 85.73,-201.66 89.6,-211.52 94.9,-206.95"/>
</g>
<!-- Node4 -->
<g id="node4" class="node">
<title>Node4</title>
<g id="a_node4"><a xlink:href="class_black_gui_1_1_components_1_1_c_db_airline_icao_component.html" target="_top" xlink:title="Airline ICAO code.">
<polygon fill="none" stroke="black" points="195,-245.5 195,-275.5 346,-275.5 346,-245.5 195,-245.5"/>
<text text-anchor="start" x="203" y="-263.5" font-family="Helvetica,sans-Serif" font-size="10.00">BlackGui::Components</text>
<text text-anchor="middle" x="270.5" y="-252.5" font-family="Helvetica,sans-Serif" font-size="10.00">::CDbAirlineIcaoComponent</text>
</a>
</g>
</g>
<!-- Node1&#45;&gt;Node4 -->
<g id="edge3" class="edge">
<title>Node1&#45;&gt;Node4</title>
<path fill="none" stroke="midnightblue" d="M111.78,-206.25C132.01,-216.18 157.47,-227.91 181,-236.5 189.82,-239.72 199.28,-242.73 208.61,-245.46"/>
<polygon fill="midnightblue" stroke="midnightblue" points="113.1,-202.99 102.59,-201.68 109.98,-209.26 113.1,-202.99"/>
</g>
<!-- Node5 -->
<g id="node5" class="node">
<title>Node5</title>
<g id="a_node5"><a xlink:href="class_black_gui_1_1_components_1_1_c_db_country_component.html" target="_top" xlink:title="The countries.">
<polygon fill="none" stroke="black" points="202,-196.5 202,-226.5 339,-226.5 339,-196.5 202,-196.5"/>
<text text-anchor="start" x="210" y="-214.5" font-family="Helvetica,sans-Serif" font-size="10.00">BlackGui::Components</text>
<text text-anchor="middle" x="270.5" y="-203.5" font-family="Helvetica,sans-Serif" font-size="10.00">::CDbCountryComponent</text>
</a>
</g>
</g>
<!-- Node1&#45;&gt;Node5 -->
<g id="edge4" class="edge">
<title>Node1&#45;&gt;Node5</title>
<path fill="none" stroke="midnightblue" d="M155.17,-196.92C170.65,-198.89 186.69,-200.94 201.69,-202.85"/>
<polygon fill="midnightblue" stroke="midnightblue" points="155.45,-193.43 145.09,-195.63 154.57,-200.37 155.45,-193.43"/>
</g>
<!-- Node6 -->
<g id="node6" class="node">
<title>Node6</title>
<g id="a_node6"><a xlink:href="class_black_gui_1_1_components_1_1_c_db_distributor_component.html" target="_top" xlink:title="Distributors.">
<polygon fill="none" stroke="black" points="195,-147.5 195,-177.5 346,-177.5 346,-147.5 195,-147.5"/>
<text text-anchor="start" x="203" y="-165.5" font-family="Helvetica,sans-Serif" font-size="10.00">BlackGui::Components</text>
<text text-anchor="middle" x="270.5" y="-154.5" font-family="Helvetica,sans-Serif" font-size="10.00">::CDbDistributorComponent</text>
</a>
</g>
</g>
<!-- Node1&#45;&gt;Node6 -->
<g id="edge5" class="edge">
<title>Node1&#45;&gt;Node6</title>
<path fill="none" stroke="midnightblue" d="M155.07,-176.51C168.24,-174.9 181.81,-173.24 194.81,-171.65"/>
<polygon fill="midnightblue" stroke="midnightblue" points="154.59,-173.04 145.09,-177.73 155.44,-179.99 154.59,-173.04"/>
</g>
<!-- Node7 -->
<g id="node7" class="node">
<title>Node7</title>
<g id="a_node7"><a xlink:href="class_black_gui_1_1_components_1_1_c_db_livery_component.html" target="_top" xlink:title="Liveries from DB.">
<polygon fill="none" stroke="black" points="206,-98.5 206,-128.5 335,-128.5 335,-98.5 206,-98.5"/>
<text text-anchor="start" x="214" y="-116.5" font-family="Helvetica,sans-Serif" font-size="10.00">BlackGui::Components</text>
<text text-anchor="middle" x="270.5" y="-105.5" font-family="Helvetica,sans-Serif" font-size="10.00">::CDbLiveryComponent</text>
</a>
</g>
</g>
<!-- Node1&#45;&gt;Node7 -->
<g id="edge6" class="edge">
<title>Node1&#45;&gt;Node7</title>
<path fill="none" stroke="midnightblue" d="M113.2,-167.12C133.24,-157.76 158.11,-146.8 181,-138.5 190.76,-134.96 201.26,-131.61 211.51,-128.58"/>
<polygon fill="midnightblue" stroke="midnightblue" points="111.61,-164 104.06,-171.43 114.6,-170.33 111.61,-164"/>
</g>
<!-- Node8 -->
<g id="node8" class="node">
<title>Node8</title>
<g id="a_node8"><a xlink:href="class_black_gui_1_1_components_1_1_c_db_mapping_component.html" target="_top" xlink:title="Mapping component.">
<polygon fill="none" stroke="black" points="200,-49.5 200,-79.5 341,-79.5 341,-49.5 200,-49.5"/>
<text text-anchor="start" x="208" y="-67.5" font-family="Helvetica,sans-Serif" font-size="10.00">BlackGui::Components</text>
<text text-anchor="middle" x="270.5" y="-56.5" font-family="Helvetica,sans-Serif" font-size="10.00">::CDbMappingComponent</text>
</a>
</g>
</g>
<!-- Node1&#45;&gt;Node8 -->
<g id="edge7" class="edge">
<title>Node1&#45;&gt;Node8</title>
<path fill="none" stroke="midnightblue" d="M92.88,-163.77C112.84,-141.74 145.92,-108.88 181,-89.5 187.99,-85.64 195.62,-82.33 203.38,-79.51"/>
<polygon fill="midnightblue" stroke="midnightblue" points="90.16,-161.56 86.14,-171.36 95.4,-166.21 90.16,-161.56"/>
</g>
<!-- Node9 -->
<g id="node9" class="node">
<title>Node9</title>
<g id="a_node9"><a xlink:href="class_black_gui_1_1_components_1_1_c_db_model_component.html" target="_top" xlink:title="Database models.">
<polygon fill="none" stroke="black" points="206,-0.5 206,-30.5 335,-30.5 335,-0.5 206,-0.5"/>
<text text-anchor="start" x="214" y="-18.5" font-family="Helvetica,sans-Serif" font-size="10.00">BlackGui::Components</text>
<text text-anchor="middle" x="270.5" y="-7.5" font-family="Helvetica,sans-Serif" font-size="10.00">::CDbModelComponent</text>
</a>
</g>
</g>
<!-- Node1&#45;&gt;Node9 -->
<g id="edge8" class="edge">
<title>Node1&#45;&gt;Node9</title>
<path fill="none" stroke="midnightblue" d="M85.14,-161.77C101.8,-129.1 135.5,-72.01 181,-40.5 188.48,-35.32 197.02,-31.21 205.77,-27.94"/>
<polygon fill="midnightblue" stroke="midnightblue" points="81.84,-160.56 80.53,-171.08 88.11,-163.67 81.84,-160.56"/>
</g>
</g>
</svg>
