<?xml version="1.0" encoding="UTF-8" standalone="no"?>
<!DOCTYPE svg PUBLIC "-//W3C//DTD SVG 1.1//EN"
 "http://www.w3.org/Graphics/SVG/1.1/DTD/svg11.dtd">
<!-- Generated by graphviz version 2.43.0 (0)
 -->
<!-- Title: BlackMisc::CStatusMessageList Pages: 1 -->
<svg width="842pt" height="356pt"
 viewBox="0.00 0.00 842.00 356.00" xmlns="http://www.w3.org/2000/svg" xmlns:xlink="http://www.w3.org/1999/xlink">
<g id="graph0" class="graph" transform="scale(1 1) rotate(0) translate(4 352)">
<title>BlackMisc::CStatusMessageList</title>
<!-- Node1 -->
<g id="node1" class="node">
<title>Node1</title>
<g id="a_node1"><a xlink:title="Status messages, e.g. from Core &#45;&gt; GUI.">
<polygon fill="#bfbfbf" stroke="black" points="664,-91 664,-110 834,-110 834,-91 664,-91"/>
<text text-anchor="middle" x="749" y="-98" font-family="Helvetica,sans-Serif" font-size="10.00">BlackMisc::CStatusMessageList</text>
</a>
</g>
</g>
<!-- Node2 -->
<g id="node2" class="node">
<title>Node2</title>
<g id="a_node2"><a xlink:href="class_black_misc_1_1_c_sequence.html" target="_top" xlink:title=" ">
<polygon fill="none" stroke="black" points="458.5,-170.5 458.5,-200.5 584.5,-200.5 584.5,-170.5 458.5,-170.5"/>
<text text-anchor="start" x="466.5" y="-188.5" font-family="Helvetica,sans-Serif" font-size="10.00">BlackMisc::CSequence</text>
<text text-anchor="middle" x="521.5" y="-177.5" font-family="Helvetica,sans-Serif" font-size="10.00">&lt; CStatusMessage &gt;</text>
</a>
</g>
</g>
<!-- Node2&#45;&gt;Node1 -->
<g id="edge1" class="edge">
<title>Node2&#45;&gt;Node1</title>
<path fill="none" stroke="midnightblue" d="M594.48,-170.8C605.82,-167.81 617.33,-164.37 628,-160.5 666.75,-146.43 709.28,-123.14 731.84,-110.1"/>
<polygon fill="midnightblue" stroke="midnightblue" points="593.4,-167.46 584.57,-173.31 595.12,-174.25 593.4,-167.46"/>
</g>
<!-- Node3 -->
<g id="node3" class="node">
<title>Node3</title>
<g id="a_node3"><a xlink:href="class_black_misc_1_1_c_container_base.html" target="_top" xlink:title="Base class for CCollection and CSequence adding mutating operations and CValueObject facility on top ...">
<polygon fill="none" stroke="black" points="222,-219.5 222,-249.5 372,-249.5 372,-219.5 222,-219.5"/>
<text text-anchor="start" x="230" y="-237.5" font-family="Helvetica,sans-Serif" font-size="10.00">BlackMisc::CContainerBase</text>
<text text-anchor="middle" x="297" y="-226.5" font-family="Helvetica,sans-Serif" font-size="10.00">&lt; Derived &gt;</text>
</a>
</g>
</g>
<!-- Node3&#45;&gt;Node2 -->
<g id="edge2" class="edge">
<title>Node3&#45;&gt;Node2</title>
<path fill="none" stroke="midnightblue" d="M376.07,-217.31C403.05,-211.37 432.89,-204.79 458.42,-199.17"/>
<polygon fill="midnightblue" stroke="midnightblue" points="375.28,-213.9 366.27,-219.47 376.79,-220.73 375.28,-213.9"/>
</g>
<!-- Node4 -->
<g id="node4" class="node">
<title>Node4</title>
<g id="a_node4"><a xlink:href="class_black_misc_1_1_c_range_base.html" target="_top" xlink:title="Any container class with begin and end iterators can inherit from this CRTP class to gain some useful...">
<polygon fill="none" stroke="black" points="22.5,-317.5 22.5,-347.5 156.5,-347.5 156.5,-317.5 22.5,-317.5"/>
<text text-anchor="start" x="30.5" y="-335.5" font-family="Helvetica,sans-Serif" font-size="10.00">BlackMisc::CRangeBase</text>
<text text-anchor="middle" x="89.5" y="-324.5" font-family="Helvetica,sans-Serif" font-size="10.00">&lt; Derived &gt;</text>
</a>
</g>
</g>
<!-- Node4&#45;&gt;Node3 -->
<g id="edge3" class="edge">
<title>Node4&#45;&gt;Node3</title>
<path fill="none" stroke="midnightblue" d="M164.63,-314.19C169.55,-312.43 174.38,-310.53 179,-308.5 215.52,-292.44 253.87,-266.09 276.33,-249.55"/>
<polygon fill="midnightblue" stroke="midnightblue" points="163.44,-310.9 155.09,-317.42 165.69,-317.53 163.44,-310.9"/>
</g>
<!-- Node5 -->
<g id="node5" class="node">
<title>Node5</title>
<g id="a_node5"><a xlink:href="class_black_misc_1_1_mixin_1_1_meta_type.html" target="_top" xlink:title="CRTP class template from which a derived class can inherit common methods dealing with the metatype o...">
<polygon fill="none" stroke="black" points="13.5,-268.5 13.5,-298.5 165.5,-298.5 165.5,-268.5 13.5,-268.5"/>
<text text-anchor="start" x="21.5" y="-286.5" font-family="Helvetica,sans-Serif" font-size="10.00">BlackMisc::Mixin::MetaType</text>
<text text-anchor="middle" x="89.5" y="-275.5" font-family="Helvetica,sans-Serif" font-size="10.00">&lt; Derived &gt;</text>
</a>
</g>
</g>
<!-- Node5&#45;&gt;Node3 -->
<g id="edge4" class="edge">
<title>Node5&#45;&gt;Node3</title>
<path fill="none" stroke="midnightblue" d="M163.49,-266.1C186.22,-260.68 211.08,-254.75 233.07,-249.51"/>
<polygon fill="midnightblue" stroke="midnightblue" points="162.47,-262.74 153.55,-268.47 164.09,-269.55 162.47,-262.74"/>
</g>
<!-- Node6 -->
<g id="node6" class="node">
<title>Node6</title>
<g id="a_node6"><a xlink:href="class_black_misc_1_1_mixin_1_1_d_bus_operators.html" target="_top" xlink:title=" ">
<polygon fill="none" stroke="black" points="0,-219.5 0,-249.5 179,-249.5 179,-219.5 0,-219.5"/>
<text text-anchor="start" x="8" y="-237.5" font-family="Helvetica,sans-Serif" font-size="10.00">BlackMisc::Mixin::DBusOperators</text>
<text text-anchor="middle" x="89.5" y="-226.5" font-family="Helvetica,sans-Serif" font-size="10.00">&lt; Derived &gt;</text>
</a>
</g>
</g>
<!-- Node6&#45;&gt;Node3 -->
<g id="edge5" class="edge">
<title>Node6&#45;&gt;Node3</title>
<path fill="none" stroke="midnightblue" d="M189.19,-234.5C200.17,-234.5 211.22,-234.5 221.82,-234.5"/>
<polygon fill="midnightblue" stroke="midnightblue" points="189.14,-231 179.14,-234.5 189.14,-238 189.14,-231"/>
</g>
<!-- Node7 -->
<g id="node7" class="node">
<title>Node7</title>
<g id="a_node7"><a xlink:href="class_black_misc_1_1_mixin_1_1_json_operators.html" target="_top" xlink:title="CRTP class template which will generate marshalling operators for a derived class with its own marsha...">
<polygon fill="none" stroke="black" points="3,-170.5 3,-200.5 176,-200.5 176,-170.5 3,-170.5"/>
<text text-anchor="start" x="11" y="-188.5" font-family="Helvetica,sans-Serif" font-size="10.00">BlackMisc::Mixin::JsonOperators</text>
<text text-anchor="middle" x="89.5" y="-177.5" font-family="Helvetica,sans-Serif" font-size="10.00">&lt; Derived &gt;</text>
</a>
</g>
</g>
<!-- Node7&#45;&gt;Node3 -->
<g id="edge6" class="edge">
<title>Node7&#45;&gt;Node3</title>
<path fill="none" stroke="midnightblue" d="M163.49,-202.9C186.22,-208.32 211.08,-214.25 233.07,-219.49"/>
<polygon fill="midnightblue" stroke="midnightblue" points="164.09,-199.45 153.55,-200.53 162.47,-206.26 164.09,-199.45"/>
</g>
<!-- Node8 -->
<g id="node8" class="node">
<title>Node8</title>
<g id="a_node8"><a xlink:href="class_black_misc_1_1_mixin_1_1_string.html" target="_top" xlink:title="CRTP class template from which a derived class can inherit string streaming operations.">
<polygon fill="none" stroke="black" points="22.5,-121.5 22.5,-151.5 156.5,-151.5 156.5,-121.5 22.5,-121.5"/>
<text text-anchor="start" x="30.5" y="-139.5" font-family="Helvetica,sans-Serif" font-size="10.00">BlackMisc::Mixin::String</text>
<text text-anchor="middle" x="89.5" y="-128.5" font-family="Helvetica,sans-Serif" font-size="10.00">&lt; Derived &gt;</text>
</a>
</g>
</g>
<!-- Node8&#45;&gt;Node3 -->
<g id="edge7" class="edge">
<title>Node8&#45;&gt;Node3</title>
<path fill="none" stroke="midnightblue" d="M166.04,-153.09C170.58,-155.26 174.95,-157.72 179,-160.5 201.29,-175.78 192.98,-193.84 215,-209.5 220.4,-213.34 226.4,-216.6 232.63,-219.37"/>
<polygon fill="midnightblue" stroke="midnightblue" points="167.09,-149.73 156.52,-149.01 164.34,-156.17 167.09,-149.73"/>
</g>
<!-- Node9 -->
<g id="node9" class="node">
<title>Node9</title>
<g id="a_node9"><a xlink:href="class_black_misc_1_1_mixin_1_1_data_stream_operators.html" target="_top" xlink:title="CRTP class template to generate non&#45;member QDataStream streaming operators.">
<polygon fill="none" stroke="black" points="215,-170.5 215,-200.5 379,-200.5 379,-170.5 215,-170.5"/>
<text text-anchor="start" x="223" y="-188.5" font-family="Helvetica,sans-Serif" font-size="10.00">BlackMisc::Mixin::DataStream</text>
<text text-anchor="middle" x="297" y="-177.5" font-family="Helvetica,sans-Serif" font-size="10.00">Operators&lt; Derived &gt;</text>
</a>
</g>
</g>
<!-- Node9&#45;&gt;Node2 -->
<g id="edge8" class="edge">
<title>Node9&#45;&gt;Node2</title>
<path fill="none" stroke="midnightblue" d="M389.46,-185.5C412.61,-185.5 436.94,-185.5 458.27,-185.5"/>
<polygon fill="midnightblue" stroke="midnightblue" points="389.27,-182 379.27,-185.5 389.27,-189 389.27,-182"/>
</g>
<!-- Node10 -->
<g id="node10" class="node">
<title>Node10</title>
<g id="a_node10"><a xlink:href="class_black_misc_1_1_mixin_1_1_icon.html" target="_top" xlink:title="CRTP class template from which a derived class can inherit icon&#45;related functions.">
<polygon fill="none" stroke="black" points="231.5,-121.5 231.5,-151.5 362.5,-151.5 362.5,-121.5 231.5,-121.5"/>
<text text-anchor="start" x="239.5" y="-139.5" font-family="Helvetica,sans-Serif" font-size="10.00">BlackMisc::Mixin::Icon</text>
<text text-anchor="middle" x="297" y="-128.5" font-family="Helvetica,sans-Serif" font-size="10.00">&lt; Derived, IconIndex &gt;</text>
</a>
</g>
</g>
<!-- Node10&#45;&gt;Node2 -->
<g id="edge9" class="edge">
<title>Node10&#45;&gt;Node2</title>
<path fill="none" stroke="midnightblue" d="M372.73,-152.96C400.55,-159.08 431.8,-165.97 458.36,-171.82"/>
<polygon fill="midnightblue" stroke="midnightblue" points="373.17,-149.47 362.66,-150.74 371.67,-156.31 373.17,-149.47"/>
</g>
<!-- Node11 -->
<g id="node11" class="node">
<title>Node11</title>
<g id="a_node11"><a xlink:href="class_black_misc_1_1_i_timestamp_object_list.html" target="_top" xlink:title=" ">
<polygon fill="none" stroke="black" points="415,-110 415,-151 628,-151 628,-110 415,-110"/>
<text text-anchor="start" x="423" y="-139" font-family="Helvetica,sans-Serif" font-size="10.00">BlackMisc::ITimestampObject</text>
<text text-anchor="start" x="423" y="-128" font-family="Helvetica,sans-Serif" font-size="10.00">List&lt; CStatusMessage, CStatusMessage</text>
<text text-anchor="middle" x="521.5" y="-117" font-family="Helvetica,sans-Serif" font-size="10.00">List &gt;</text>
</a>
</g>
</g>
<!-- Node11&#45;&gt;Node1 -->
<g id="edge10" class="edge">
<title>Node11&#45;&gt;Node1</title>
<path fill="none" stroke="midnightblue" d="M638.23,-115.1C651.2,-113.38 664.11,-111.66 676.29,-110.04"/>
<polygon fill="midnightblue" stroke="midnightblue" points="637.77,-111.63 628.32,-116.42 638.69,-118.57 637.77,-111.63"/>
</g>
<!-- Node12 -->
<g id="node12" class="node">
<title>Node12</title>
<g id="a_node12"><a xlink:href="class_black_misc_1_1_i_orderable_list.html" target="_top" xlink:title=" ">
<polygon fill="none" stroke="black" points="423.5,-50 423.5,-91 619.5,-91 619.5,-50 423.5,-50"/>
<text text-anchor="start" x="431.5" y="-79" font-family="Helvetica,sans-Serif" font-size="10.00">BlackMisc::IOrderableList</text>
<text text-anchor="start" x="431.5" y="-68" font-family="Helvetica,sans-Serif" font-size="10.00">&lt; CStatusMessage, CStatusMessage</text>
<text text-anchor="middle" x="521.5" y="-57" font-family="Helvetica,sans-Serif" font-size="10.00">List &gt;</text>
</a>
</g>
</g>
<!-- Node12&#45;&gt;Node1 -->
<g id="edge11" class="edge">
<title>Node12&#45;&gt;Node1</title>
<path fill="none" stroke="midnightblue" d="M630.09,-84.81C645.86,-86.91 661.76,-89.03 676.55,-90.99"/>
<polygon fill="midnightblue" stroke="midnightblue" points="630.14,-81.29 619.77,-83.44 629.22,-88.23 630.14,-81.29"/>
</g>
<!-- Node13 -->
<g id="node13" class="node">
<title>Node13</title>
<g id="a_node13"><a xlink:href="class_black_misc_1_1_mixin_1_1_meta_type.html" target="_top" xlink:title=" ">
<polygon fill="none" stroke="black" points="445.5,-0.5 445.5,-30.5 597.5,-30.5 597.5,-0.5 445.5,-0.5"/>
<text text-anchor="start" x="453.5" y="-18.5" font-family="Helvetica,sans-Serif" font-size="10.00">BlackMisc::Mixin::MetaType</text>
<text text-anchor="middle" x="521.5" y="-7.5" font-family="Helvetica,sans-Serif" font-size="10.00">&lt; CStatusMessageList &gt;</text>
</a>
</g>
</g>
<!-- Node13&#45;&gt;Node1 -->
<g id="edge12" class="edge">
<title>Node13&#45;&gt;Node1</title>
<path fill="none" stroke="midnightblue" d="M605.52,-33.25C613.19,-35.46 620.78,-37.88 628,-40.5 666.75,-54.57 709.28,-77.86 731.84,-90.9"/>
<polygon fill="midnightblue" stroke="midnightblue" points="606.36,-29.85 595.79,-30.55 604.49,-36.59 606.36,-29.85"/>
</g>
</g>
</svg>
