<?xml version="1.0" encoding="UTF-8" standalone="no"?>
<!DOCTYPE svg PUBLIC "-//W3C//DTD SVG 1.1//EN"
 "http://www.w3.org/Graphics/SVG/1.1/DTD/svg11.dtd">
<!-- Generated by graphviz version 2.43.0 (0)
 -->
<!-- Title: BlackGui::IMainWindowAccess Pages: 1 -->
<svg width="532pt" height="140pt"
 viewBox="0.00 0.00 531.50 140.00" xmlns="http://www.w3.org/2000/svg" xmlns:xlink="http://www.w3.org/1999/xlink">
<g id="graph0" class="graph" transform="scale(1 1) rotate(0) translate(4 136)">
<title>BlackGui::IMainWindowAccess</title>
<!-- Node1 -->
<g id="node1" class="node">
<title>Node1</title>
<g id="a_node1"><a xlink:title="Direct acccess to main window`s status bar, info bar and such.">
<polygon fill="#bfbfbf" stroke="black" points="203,-112.5 203,-131.5 369,-131.5 369,-112.5 203,-112.5"/>
<text text-anchor="middle" x="286" y="-119.5" font-family="Helvetica,sans-Serif" font-size="10.00">BlackGui::IMainWindowAccess</text>
</a>
</g>
</g>
<!-- Node2 -->
<g id="node2" class="node">
<title>Node2</title>
<g id="a_node2"><a xlink:href="class_black_gui_1_1_c_gui_application.html" target="_top" xlink:title="GUI application, a specialized version of BlackCore::CApplication for GUI applications.">
<polygon fill="none" stroke="black" points="0,-56.5 0,-75.5 144,-75.5 144,-56.5 0,-56.5"/>
<text text-anchor="middle" x="72" y="-63.5" font-family="Helvetica,sans-Serif" font-size="10.00">BlackGui::CGuiApplication</text>
</a>
</g>
</g>
<!-- Node1&#45;&gt;Node2 -->
<g id="edge1" class="edge">
<title>Node1&#45;&gt;Node2</title>
<path fill="none" stroke="midnightblue" d="M242.24,-109.96C201.83,-99.76 142.63,-84.82 105.75,-75.52"/>
<polygon fill="midnightblue" stroke="midnightblue" points="241.54,-113.39 252.09,-112.44 243.25,-106.6 241.54,-113.39"/>
</g>
<!-- Node4 -->
<g id="node4" class="node">
<title>Node4</title>
<g id="a_node4"><a xlink:href="class_c_swift_core.html" target="_top" xlink:title="swift core control GUI">
<polygon fill="none" stroke="black" points="162,-56.5 162,-75.5 232,-75.5 232,-56.5 162,-56.5"/>
<text text-anchor="middle" x="197" y="-63.5" font-family="Helvetica,sans-Serif" font-size="10.00">CSwiftCore</text>
</a>
</g>
</g>
<!-- Node1&#45;&gt;Node4 -->
<g id="edge3" class="edge">
<title>Node1&#45;&gt;Node4</title>
<path fill="none" stroke="midnightblue" d="M262.76,-106.9C246.44,-97 225.13,-84.07 211.26,-75.65"/>
<polygon fill="midnightblue" stroke="midnightblue" points="261.34,-110.13 271.7,-112.32 264.97,-104.14 261.34,-110.13"/>
</g>
<!-- Node5 -->
<g id="node5" class="node">
<title>Node5</title>
<g id="a_node5"><a xlink:href="class_c_swift_data.html" target="_top" xlink:title="swift data entry control (aka mapping tool)">
<polygon fill="none" stroke="black" points="250.5,-56.5 250.5,-75.5 321.5,-75.5 321.5,-56.5 250.5,-56.5"/>
<text text-anchor="middle" x="286" y="-63.5" font-family="Helvetica,sans-Serif" font-size="10.00">CSwiftData</text>
</a>
</g>
</g>
<!-- Node1&#45;&gt;Node5 -->
<g id="edge4" class="edge">
<title>Node1&#45;&gt;Node5</title>
<path fill="none" stroke="midnightblue" d="M286,-101.8C286,-92.91 286,-82.78 286,-75.75"/>
<polygon fill="midnightblue" stroke="midnightblue" points="282.5,-102.08 286,-112.08 289.5,-102.08 282.5,-102.08"/>
</g>
<!-- Node6 -->
<g id="node6" class="node">
<title>Node6</title>
<g id="a_node6"><a xlink:href="class_c_swift_launcher.html" target="_top" xlink:title="swift launcher tool">
<polygon fill="none" stroke="black" points="340,-56.5 340,-75.5 432,-75.5 432,-56.5 340,-56.5"/>
<text text-anchor="middle" x="386" y="-63.5" font-family="Helvetica,sans-Serif" font-size="10.00">CSwiftLauncher</text>
</a>
</g>
</g>
<!-- Node1&#45;&gt;Node6 -->
<g id="edge5" class="edge">
<title>Node1&#45;&gt;Node6</title>
<path fill="none" stroke="midnightblue" d="M311.09,-107.45C329.55,-97.48 354.1,-84.23 369.97,-75.65"/>
<polygon fill="midnightblue" stroke="midnightblue" points="309.2,-104.49 302.07,-112.32 312.53,-110.65 309.2,-104.49"/>
</g>
<!-- Node7 -->
<g id="node7" class="node">
<title>Node7</title>
<g id="a_node7"><a xlink:href="class_swift_gui_std.html" target="_top" xlink:title="swift GUI">
<polygon fill="none" stroke="black" points="450.5,-56.5 450.5,-75.5 523.5,-75.5 523.5,-56.5 450.5,-56.5"/>
<text text-anchor="middle" x="487" y="-63.5" font-family="Helvetica,sans-Serif" font-size="10.00">SwiftGuiStd</text>
</a>
</g>
</g>
<!-- Node1&#45;&gt;Node7 -->
<g id="edge6" class="edge">
<title>Node1&#45;&gt;Node7</title>
<path fill="none" stroke="midnightblue" d="M327.58,-109.83C365.53,-99.63 420.81,-84.78 455.3,-75.52"/>
<polygon fill="midnightblue" stroke="midnightblue" points="326.6,-106.47 317.85,-112.44 328.41,-113.23 326.6,-106.47"/>
</g>
<!-- Node3 -->
<g id="node3" class="node">
<title>Node3</title>
<g id="a_node3"><a xlink:href="class_c_swift_gui_std_application.html" target="_top" xlink:title="Specialized GUI application for swift pilot client.">
<polygon fill="none" stroke="black" points="5,-0.5 5,-19.5 139,-19.5 139,-0.5 5,-0.5"/>
<text text-anchor="middle" x="72" y="-7.5" font-family="Helvetica,sans-Serif" font-size="10.00">CSwiftGuiStdApplication</text>
</a>
</g>
</g>
<!-- Node2&#45;&gt;Node3 -->
<g id="edge2" class="edge">
<title>Node2&#45;&gt;Node3</title>
<path fill="none" stroke="midnightblue" d="M72,-45.8C72,-36.91 72,-26.78 72,-19.75"/>
<polygon fill="midnightblue" stroke="midnightblue" points="68.5,-46.08 72,-56.08 75.5,-46.08 68.5,-46.08"/>
</g>
</g>
</svg>
