<?xml version="1.0" encoding="UTF-8" standalone="no"?>
<!DOCTYPE svg PUBLIC "-//W3C//DTD SVG 1.1//EN"
 "http://www.w3.org/Graphics/SVG/1.1/DTD/svg11.dtd">
<!-- Generated by graphviz version 2.43.0 (0)
 -->
<!-- Title: BlackMisc::Geo::CLongitude Pages: 1 -->
<svg width="1006pt" height="431pt"
 viewBox="0.00 0.00 1006.00 431.00" xmlns="http://www.w3.org/2000/svg" xmlns:xlink="http://www.w3.org/1999/xlink">
<g id="graph0" class="graph" transform="scale(1 1) rotate(0) translate(4 427)">
<title>BlackMisc::Geo::CLongitude</title>
<!-- Node1 -->
<g id="node1" class="node">
<title>Node1</title>
<g id="a_node1"><a xlink:title="Longitude.">
<polygon fill="#bfbfbf" stroke="black" points="846,-128 846,-147 998,-147 998,-128 846,-128"/>
<text text-anchor="middle" x="922" y="-135" font-family="Helvetica,sans-Serif" font-size="10.00">BlackMisc::Geo::CLongitude</text>
</a>
</g>
</g>
<!-- Node2 -->
<g id="node2" class="node">
<title>Node2</title>
<g id="a_node2"><a xlink:href="class_black_misc_1_1_geo_1_1_c_earth_angle.html" target="_top" xlink:title=" ">
<polygon fill="none" stroke="black" points="641.5,-245.5 641.5,-275.5 799.5,-275.5 799.5,-245.5 641.5,-245.5"/>
<text text-anchor="start" x="649.5" y="-263.5" font-family="Helvetica,sans-Serif" font-size="10.00">BlackMisc::Geo::CEarthAngle</text>
<text text-anchor="middle" x="720.5" y="-252.5" font-family="Helvetica,sans-Serif" font-size="10.00">&lt; CLongitude &gt;</text>
</a>
</g>
</g>
<!-- Node2&#45;&gt;Node1 -->
<g id="edge1" class="edge">
<title>Node2&#45;&gt;Node1</title>
<path fill="none" stroke="midnightblue" d="M796.95,-241.75C801.45,-239.85 805.84,-237.77 810,-235.5 854.23,-211.38 895.8,-166.75 912.86,-147.15"/>
<polygon fill="midnightblue" stroke="midnightblue" points="795.62,-238.51 787.58,-245.41 798.16,-245.03 795.62,-238.51"/>
</g>
<!-- Node3 -->
<g id="node3" class="node">
<title>Node3</title>
<g id="a_node3"><a xlink:href="class_black_misc_1_1_physical_quantities_1_1_c_angle.html" target="_top" xlink:title="Physical unit angle (radians, degrees)">
<polygon fill="none" stroke="black" points="432,-245.5 432,-275.5 595,-275.5 595,-245.5 432,-245.5"/>
<text text-anchor="start" x="440" y="-263.5" font-family="Helvetica,sans-Serif" font-size="10.00">BlackMisc::PhysicalQuantities</text>
<text text-anchor="middle" x="513.5" y="-252.5" font-family="Helvetica,sans-Serif" font-size="10.00">::CAngle</text>
</a>
</g>
</g>
<!-- Node3&#45;&gt;Node2 -->
<g id="edge2" class="edge">
<title>Node3&#45;&gt;Node2</title>
<path fill="none" stroke="midnightblue" d="M605.23,-260.5C617.23,-260.5 629.43,-260.5 641.19,-260.5"/>
<polygon fill="midnightblue" stroke="midnightblue" points="605.23,-257 595.23,-260.5 605.23,-264 605.23,-257"/>
</g>
<!-- Node4 -->
<g id="node4" class="node">
<title>Node4</title>
<g id="a_node4"><a xlink:href="class_black_misc_1_1_physical_quantities_1_1_c_physical_quantity.html" target="_top" xlink:title=" ">
<polygon fill="none" stroke="black" points="215,-240 215,-281 396,-281 396,-240 215,-240"/>
<text text-anchor="start" x="223" y="-269" font-family="Helvetica,sans-Serif" font-size="10.00">BlackMisc::PhysicalQuantities</text>
<text text-anchor="start" x="223" y="-258" font-family="Helvetica,sans-Serif" font-size="10.00">::CPhysicalQuantity&lt; CAngleUnit,</text>
<text text-anchor="middle" x="305.5" y="-247" font-family="Helvetica,sans-Serif" font-size="10.00"> CAngle &gt;</text>
</a>
</g>
</g>
<!-- Node4&#45;&gt;Node3 -->
<g id="edge3" class="edge">
<title>Node4&#45;&gt;Node3</title>
<path fill="none" stroke="midnightblue" d="M406.27,-260.5C414.82,-260.5 423.41,-260.5 431.78,-260.5"/>
<polygon fill="midnightblue" stroke="midnightblue" points="406.26,-257 396.26,-260.5 406.26,-264 406.26,-257"/>
</g>
<!-- Node5 -->
<g id="node5" class="node">
<title>Node5</title>
<g id="a_node5"><a xlink:href="class_black_misc_1_1_mixin_1_1_d_bus_operators.html" target="_top" xlink:title="CRTP class template which will generate marshalling operators for a derived class with its own marsha...">
<polygon fill="none" stroke="black" points="0,-392.5 0,-422.5 179,-422.5 179,-392.5 0,-392.5"/>
<text text-anchor="start" x="8" y="-410.5" font-family="Helvetica,sans-Serif" font-size="10.00">BlackMisc::Mixin::DBusOperators</text>
<text text-anchor="middle" x="89.5" y="-399.5" font-family="Helvetica,sans-Serif" font-size="10.00">&lt; Derived,... &gt;</text>
</a>
</g>
</g>
<!-- Node5&#45;&gt;Node4 -->
<g id="edge4" class="edge">
<title>Node5&#45;&gt;Node4</title>
<path fill="none" stroke="midnightblue" d="M169.46,-388.4C172.74,-386.88 175.94,-385.25 179,-383.5 225.59,-356.82 267.44,-308.69 289.04,-281.21"/>
<polygon fill="midnightblue" stroke="midnightblue" points="167.87,-385.27 160.01,-392.37 170.59,-391.72 167.87,-385.27"/>
</g>
<!-- Node6 -->
<g id="node6" class="node">
<title>Node6</title>
<g id="a_node6"><a xlink:href="class_black_misc_1_1_mixin_1_1_data_stream_operators.html" target="_top" xlink:title="CRTP class template to generate non&#45;member QDataStream streaming operators.">
<polygon fill="none" stroke="black" points="7.5,-343.5 7.5,-373.5 171.5,-373.5 171.5,-343.5 7.5,-343.5"/>
<text text-anchor="start" x="15.5" y="-361.5" font-family="Helvetica,sans-Serif" font-size="10.00">BlackMisc::Mixin::DataStream</text>
<text text-anchor="middle" x="89.5" y="-350.5" font-family="Helvetica,sans-Serif" font-size="10.00">Operators&lt; Derived &gt;</text>
</a>
</g>
</g>
<!-- Node6&#45;&gt;Node4 -->
<g id="edge5" class="edge">
<title>Node6&#45;&gt;Node4</title>
<path fill="none" stroke="midnightblue" d="M163.6,-340.36C168.86,-338.54 174.05,-336.59 179,-334.5 213.5,-319.96 250.05,-297.5 274.76,-281.14"/>
<polygon fill="midnightblue" stroke="midnightblue" points="162.46,-337.05 154.05,-343.49 164.64,-343.7 162.46,-337.05"/>
</g>
<!-- Node7 -->
<g id="node7" class="node">
<title>Node7</title>
<g id="a_node7"><a xlink:href="class_black_misc_1_1_mixin_1_1_json_operators.html" target="_top" xlink:title="CRTP class template which will generate marshalling operators for a derived class with its own marsha...">
<polygon fill="none" stroke="black" points="3,-294.5 3,-324.5 176,-324.5 176,-294.5 3,-294.5"/>
<text text-anchor="start" x="11" y="-312.5" font-family="Helvetica,sans-Serif" font-size="10.00">BlackMisc::Mixin::JsonOperators</text>
<text text-anchor="middle" x="89.5" y="-301.5" font-family="Helvetica,sans-Serif" font-size="10.00">&lt; Derived &gt;</text>
</a>
</g>
</g>
<!-- Node7&#45;&gt;Node4 -->
<g id="edge6" class="edge">
<title>Node7&#45;&gt;Node4</title>
<path fill="none" stroke="midnightblue" d="M166.34,-292.14C182.06,-288.54 198.77,-284.71 214.93,-281.01"/>
<polygon fill="midnightblue" stroke="midnightblue" points="165.13,-288.82 156.16,-294.47 166.69,-295.65 165.13,-288.82"/>
</g>
<!-- Node8 -->
<g id="node8" class="node">
<title>Node8</title>
<g id="a_node8"><a xlink:href="class_black_misc_1_1_mixin_1_1_index.html" target="_top" xlink:title="CRTP class template from which a derived class can inherit property indexing functions.">
<polygon fill="none" stroke="black" points="23.5,-245.5 23.5,-275.5 155.5,-275.5 155.5,-245.5 23.5,-245.5"/>
<text text-anchor="start" x="31.5" y="-263.5" font-family="Helvetica,sans-Serif" font-size="10.00">BlackMisc::Mixin::Index</text>
<text text-anchor="middle" x="89.5" y="-252.5" font-family="Helvetica,sans-Serif" font-size="10.00">&lt; Derived &gt;</text>
</a>
</g>
</g>
<!-- Node8&#45;&gt;Node4 -->
<g id="edge7" class="edge">
<title>Node8&#45;&gt;Node4</title>
<path fill="none" stroke="midnightblue" d="M165.83,-260.5C181.69,-260.5 198.56,-260.5 214.88,-260.5"/>
<polygon fill="midnightblue" stroke="midnightblue" points="165.58,-257 155.58,-260.5 165.58,-264 165.58,-257"/>
</g>
<!-- Node9 -->
<g id="node9" class="node">
<title>Node9</title>
<g id="a_node9"><a xlink:href="class_black_misc_1_1_mixin_1_1_meta_type.html" target="_top" xlink:title="CRTP class template from which a derived class can inherit common methods dealing with the metatype o...">
<polygon fill="none" stroke="black" points="13.5,-196.5 13.5,-226.5 165.5,-226.5 165.5,-196.5 13.5,-196.5"/>
<text text-anchor="start" x="21.5" y="-214.5" font-family="Helvetica,sans-Serif" font-size="10.00">BlackMisc::Mixin::MetaType</text>
<text text-anchor="middle" x="89.5" y="-203.5" font-family="Helvetica,sans-Serif" font-size="10.00">&lt; Derived &gt;</text>
</a>
</g>
</g>
<!-- Node9&#45;&gt;Node4 -->
<g id="edge8" class="edge">
<title>Node9&#45;&gt;Node4</title>
<path fill="none" stroke="midnightblue" d="M166.34,-228.86C182.06,-232.46 198.77,-236.29 214.93,-239.99"/>
<polygon fill="midnightblue" stroke="midnightblue" points="166.69,-225.35 156.16,-226.53 165.13,-232.18 166.69,-225.35"/>
</g>
<!-- Node10 -->
<g id="node10" class="node">
<title>Node10</title>
<g id="a_node10"><a xlink:href="class_black_misc_1_1_mixin_1_1_string.html" target="_top" xlink:title="CRTP class template from which a derived class can inherit string streaming operations.">
<polygon fill="none" stroke="black" points="22.5,-147.5 22.5,-177.5 156.5,-177.5 156.5,-147.5 22.5,-147.5"/>
<text text-anchor="start" x="30.5" y="-165.5" font-family="Helvetica,sans-Serif" font-size="10.00">BlackMisc::Mixin::String</text>
<text text-anchor="middle" x="89.5" y="-154.5" font-family="Helvetica,sans-Serif" font-size="10.00">&lt; Derived &gt;</text>
</a>
</g>
</g>
<!-- Node10&#45;&gt;Node4 -->
<g id="edge9" class="edge">
<title>Node10&#45;&gt;Node4</title>
<path fill="none" stroke="midnightblue" d="M163.6,-180.64C168.86,-182.46 174.05,-184.41 179,-186.5 213.5,-201.04 250.05,-223.5 274.76,-239.86"/>
<polygon fill="midnightblue" stroke="midnightblue" points="164.64,-177.3 154.05,-177.51 162.46,-183.95 164.64,-177.3"/>
</g>
<!-- Node11 -->
<g id="node11" class="node">
<title>Node11</title>
<g id="a_node11"><a xlink:href="class_black_misc_1_1_mixin_1_1_icon.html" target="_top" xlink:title="CRTP class template from which a derived class can inherit icon&#45;related functions.">
<polygon fill="none" stroke="black" points="24,-98.5 24,-128.5 155,-128.5 155,-98.5 24,-98.5"/>
<text text-anchor="start" x="32" y="-116.5" font-family="Helvetica,sans-Serif" font-size="10.00">BlackMisc::Mixin::Icon</text>
<text text-anchor="middle" x="89.5" y="-105.5" font-family="Helvetica,sans-Serif" font-size="10.00">&lt; Derived, IconIndex &gt;</text>
</a>
</g>
</g>
<!-- Node11&#45;&gt;Node4 -->
<g id="edge10" class="edge">
<title>Node11&#45;&gt;Node4</title>
<path fill="none" stroke="midnightblue" d="M164.91,-130.6C169.79,-132.65 174.54,-134.94 179,-137.5 225.59,-164.18 267.44,-212.31 289.04,-239.79"/>
<polygon fill="midnightblue" stroke="midnightblue" points="165.97,-127.26 155.38,-126.93 163.46,-133.79 165.97,-127.26"/>
</g>
<!-- Node12 -->
<g id="node12" class="node">
<title>Node12</title>
<g id="a_node12"><a xlink:href="class_black_misc_1_1_mixin_1_1_meta_type.html" target="_top" xlink:title=" ">
<polygon fill="none" stroke="black" points="644.5,-196.5 644.5,-226.5 796.5,-226.5 796.5,-196.5 644.5,-196.5"/>
<text text-anchor="start" x="652.5" y="-214.5" font-family="Helvetica,sans-Serif" font-size="10.00">BlackMisc::Mixin::MetaType</text>
<text text-anchor="middle" x="720.5" y="-203.5" font-family="Helvetica,sans-Serif" font-size="10.00">&lt; CLongitude &gt;</text>
</a>
</g>
</g>
<!-- Node12&#45;&gt;Node1 -->
<g id="edge11" class="edge">
<title>Node12&#45;&gt;Node1</title>
<path fill="none" stroke="midnightblue" d="M789.13,-193.46C796.22,-191.25 803.29,-188.92 810,-186.5 842.9,-174.66 879.81,-157.57 901.69,-147.02"/>
<polygon fill="midnightblue" stroke="midnightblue" points="788.03,-190.13 779.47,-196.39 790.06,-196.83 788.03,-190.13"/>
</g>
<!-- Node13 -->
<g id="node13" class="node">
<title>Node13</title>
<g id="a_node13"><a xlink:href="class_black_misc_1_1_mixin_1_1_string.html" target="_top" xlink:title=" ">
<polygon fill="none" stroke="black" points="653.5,-147.5 653.5,-177.5 787.5,-177.5 787.5,-147.5 653.5,-147.5"/>
<text text-anchor="start" x="661.5" y="-165.5" font-family="Helvetica,sans-Serif" font-size="10.00">BlackMisc::Mixin::String</text>
<text text-anchor="middle" x="720.5" y="-154.5" font-family="Helvetica,sans-Serif" font-size="10.00">&lt; CLongitude &gt;</text>
</a>
</g>
</g>
<!-- Node13&#45;&gt;Node1 -->
<g id="edge12" class="edge">
<title>Node13&#45;&gt;Node1</title>
<path fill="none" stroke="midnightblue" d="M797.83,-152.93C813.53,-150.97 830.05,-148.9 845.71,-146.93"/>
<polygon fill="midnightblue" stroke="midnightblue" points="797.14,-149.49 787.65,-154.21 798.01,-156.44 797.14,-149.49"/>
</g>
<!-- Node14 -->
<g id="node14" class="node">
<title>Node14</title>
<g id="a_node14"><a xlink:href="class_black_misc_1_1_mixin_1_1_d_bus_operators.html" target="_top" xlink:title=" ">
<polygon fill="none" stroke="black" points="631,-98.5 631,-128.5 810,-128.5 810,-98.5 631,-98.5"/>
<text text-anchor="start" x="639" y="-116.5" font-family="Helvetica,sans-Serif" font-size="10.00">BlackMisc::Mixin::DBusOperators</text>
<text text-anchor="middle" x="720.5" y="-105.5" font-family="Helvetica,sans-Serif" font-size="10.00">&lt; CLongitude &gt;</text>
</a>
</g>
</g>
<!-- Node14&#45;&gt;Node1 -->
<g id="edge13" class="edge">
<title>Node14&#45;&gt;Node1</title>
<path fill="none" stroke="midnightblue" d="M820.21,-125.37C828.78,-126.41 837.37,-127.44 845.71,-128.44"/>
<polygon fill="midnightblue" stroke="midnightblue" points="820.51,-121.89 810.17,-124.17 819.68,-128.84 820.51,-121.89"/>
</g>
<!-- Node15 -->
<g id="node15" class="node">
<title>Node15</title>
<g id="a_node15"><a xlink:href="class_black_misc_1_1_mixin_1_1_data_stream_operators.html" target="_top" xlink:title=" ">
<polygon fill="none" stroke="black" points="638.5,-49.5 638.5,-79.5 802.5,-79.5 802.5,-49.5 638.5,-49.5"/>
<text text-anchor="start" x="646.5" y="-67.5" font-family="Helvetica,sans-Serif" font-size="10.00">BlackMisc::Mixin::DataStream</text>
<text text-anchor="middle" x="720.5" y="-56.5" font-family="Helvetica,sans-Serif" font-size="10.00">Operators&lt; CLatitude &gt;</text>
</a>
</g>
</g>
<!-- Node15&#45;&gt;Node1 -->
<g id="edge14" class="edge">
<title>Node15&#45;&gt;Node1</title>
<path fill="none" stroke="midnightblue" d="M791.67,-82.48C797.91,-84.39 804.09,-86.41 810,-88.5 842.96,-100.17 879.85,-117.31 901.71,-127.92"/>
<polygon fill="midnightblue" stroke="midnightblue" points="792.44,-79.06 781.86,-79.56 790.45,-85.77 792.44,-79.06"/>
</g>
<!-- Node16 -->
<g id="node16" class="node">
<title>Node16</title>
<g id="a_node16"><a xlink:href="class_black_misc_1_1_mixin_1_1_index.html" target="_top" xlink:title=" ">
<polygon fill="none" stroke="black" points="654.5,-0.5 654.5,-30.5 786.5,-30.5 786.5,-0.5 654.5,-0.5"/>
<text text-anchor="start" x="662.5" y="-18.5" font-family="Helvetica,sans-Serif" font-size="10.00">BlackMisc::Mixin::Index</text>
<text text-anchor="middle" x="720.5" y="-7.5" font-family="Helvetica,sans-Serif" font-size="10.00">&lt; CLongitude &gt;</text>
</a>
</g>
</g>
<!-- Node16&#45;&gt;Node1 -->
<g id="edge15" class="edge">
<title>Node16&#45;&gt;Node1</title>
<path fill="none" stroke="midnightblue" d="M796.04,-32.98C800.86,-34.94 805.56,-37.11 810,-39.5 854.36,-63.39 895.86,-108.15 912.88,-127.81"/>
<polygon fill="midnightblue" stroke="midnightblue" points="797.24,-29.69 786.64,-29.45 794.78,-36.24 797.24,-29.69"/>
</g>
</g>
</svg>
