<?xml version="1.0" encoding="UTF-8" standalone="no"?>
<!DOCTYPE svg PUBLIC "-//W3C//DTD SVG 1.1//EN"
 "http://www.w3.org/Graphics/SVG/1.1/DTD/svg11.dtd">
<!-- Generated by graphviz version 2.43.0 (0)
 -->
<!-- Title: BlackGui::Editors::CFormDbUser Pages: 1 -->
<svg width="300pt" height="475pt"
 viewBox="0.00 0.00 299.50 475.00" xmlns="http://www.w3.org/2000/svg" xmlns:xlink="http://www.w3.org/1999/xlink">
<g id="graph0" class="graph" transform="scale(1 1) rotate(0) translate(4 471)">
<title>BlackGui::Editors::CFormDbUser</title>
<!-- Node1 -->
<g id="node1" class="node">
<title>Node1</title>
<g id="a_node1"><a xlink:title="Form base class.">
<polygon fill="#bfbfbf" stroke="black" points="84,-67.5 84,-97.5 190,-97.5 190,-67.5 84,-67.5"/>
<text text-anchor="start" x="92" y="-85.5" font-family="Helvetica,sans-Serif" font-size="10.00">BlackGui::Editors::</text>
<text text-anchor="middle" x="137" y="-74.5" font-family="Helvetica,sans-Serif" font-size="10.00">CFormDbUser</text>
</a>
</g>
</g>
<!-- Node9 -->
<g id="node9" class="node">
<title>Node9</title>
<g id="a_node9"><a xlink:href="class_black_gui_1_1_editors_1_1_c_model_mapping_form.html" target="_top" xlink:title="Model mapping form.">
<polygon fill="none" stroke="black" points="0,-0.5 0,-30.5 120,-30.5 120,-0.5 0,-0.5"/>
<text text-anchor="start" x="8" y="-18.5" font-family="Helvetica,sans-Serif" font-size="10.00">BlackGui::Editors::</text>
<text text-anchor="middle" x="60" y="-7.5" font-family="Helvetica,sans-Serif" font-size="10.00">CModelMappingForm</text>
</a>
</g>
</g>
<!-- Node1&#45;&gt;Node9 -->
<g id="edge8" class="edge">
<title>Node1&#45;&gt;Node9</title>
<path fill="none" stroke="midnightblue" d="M112.58,-60.88C100.88,-51.01 87.16,-39.43 76.68,-30.58"/>
<polygon fill="midnightblue" stroke="midnightblue" points="110.39,-63.62 120.29,-67.4 114.91,-58.27 110.39,-63.62"/>
</g>
<!-- Node10 -->
<g id="node10" class="node">
<title>Node10</title>
<g id="a_node10"><a xlink:href="class_black_gui_1_1_editors_1_1_c_model_mapping_modify_form.html" target="_top" xlink:title="Allows to modify individual fields of the model form.">
<polygon fill="none" stroke="black" points="138.5,-0.5 138.5,-30.5 291.5,-30.5 291.5,-0.5 138.5,-0.5"/>
<text text-anchor="start" x="146.5" y="-18.5" font-family="Helvetica,sans-Serif" font-size="10.00">BlackGui::Editors::</text>
<text text-anchor="middle" x="215" y="-7.5" font-family="Helvetica,sans-Serif" font-size="10.00">CModelMappingModifyForm</text>
</a>
</g>
</g>
<!-- Node1&#45;&gt;Node10 -->
<g id="edge9" class="edge">
<title>Node1&#45;&gt;Node10</title>
<path fill="none" stroke="midnightblue" d="M161.74,-60.88C173.59,-51.01 187.48,-39.43 198.11,-30.58"/>
<polygon fill="midnightblue" stroke="midnightblue" points="159.37,-58.31 153.92,-67.4 163.85,-63.68 159.37,-58.31"/>
</g>
<!-- Node2 -->
<g id="node2" class="node">
<title>Node2</title>
<g id="a_node2"><a xlink:href="class_black_gui_1_1_editors_1_1_c_form.html" target="_top" xlink:title="Form base class.">
<polygon fill="none" stroke="black" points="84,-134.5 84,-164.5 190,-164.5 190,-134.5 84,-134.5"/>
<text text-anchor="start" x="92" y="-152.5" font-family="Helvetica,sans-Serif" font-size="10.00">BlackGui::Editors::</text>
<text text-anchor="middle" x="137" y="-141.5" font-family="Helvetica,sans-Serif" font-size="10.00">CForm</text>
</a>
</g>
</g>
<!-- Node2&#45;&gt;Node1 -->
<g id="edge1" class="edge">
<title>Node2&#45;&gt;Node1</title>
<path fill="none" stroke="midnightblue" d="M137,-124.11C137,-115.15 137,-105.32 137,-97.58"/>
<polygon fill="midnightblue" stroke="midnightblue" points="133.5,-124.4 137,-134.4 140.5,-124.4 133.5,-124.4"/>
</g>
<!-- Node3 -->
<g id="node3" class="node">
<title>Node3</title>
<g id="a_node3"><a xlink:href="class_black_gui_1_1_c_overlay_messages_frame.html" target="_top" xlink:title="Using this class provides a QFrame with the overlay functionality already integrated.">
<polygon fill="none" stroke="black" points="57,-201.5 57,-231.5 217,-231.5 217,-201.5 57,-201.5"/>
<text text-anchor="start" x="65" y="-219.5" font-family="Helvetica,sans-Serif" font-size="10.00">BlackGui::COverlayMessages</text>
<text text-anchor="middle" x="137" y="-208.5" font-family="Helvetica,sans-Serif" font-size="10.00">Frame</text>
</a>
</g>
</g>
<!-- Node3&#45;&gt;Node2 -->
<g id="edge2" class="edge">
<title>Node3&#45;&gt;Node2</title>
<path fill="none" stroke="midnightblue" d="M137,-191.11C137,-182.15 137,-172.32 137,-164.58"/>
<polygon fill="midnightblue" stroke="midnightblue" points="133.5,-191.4 137,-201.4 140.5,-191.4 133.5,-191.4"/>
</g>
<!-- Node4 -->
<g id="node4" class="node">
<title>Node4</title>
<g id="a_node4"><a xlink:href="class_black_gui_1_1_c_overlay_messages_base.html" target="_top" xlink:title=" ">
<polygon fill="none" stroke="black" points="57,-268.5 57,-298.5 217,-298.5 217,-268.5 57,-268.5"/>
<text text-anchor="start" x="65" y="-286.5" font-family="Helvetica,sans-Serif" font-size="10.00">BlackGui::COverlayMessages</text>
<text text-anchor="middle" x="137" y="-275.5" font-family="Helvetica,sans-Serif" font-size="10.00">Base&lt; QFrame &gt;</text>
</a>
</g>
</g>
<!-- Node4&#45;&gt;Node3 -->
<g id="edge3" class="edge">
<title>Node4&#45;&gt;Node3</title>
<path fill="none" stroke="midnightblue" d="M137,-258.11C137,-249.15 137,-239.32 137,-231.58"/>
<polygon fill="midnightblue" stroke="midnightblue" points="133.5,-258.4 137,-268.4 140.5,-258.4 133.5,-258.4"/>
</g>
<!-- Node5 -->
<g id="node5" class="node">
<title>Node5</title>
<g id="a_node5"><a target="_parent" xlink:href="http://doc.qt.io/qt-5/qframe.html" xlink:title=" ">
<polygon fill="none" stroke="black" points="109.5,-335.5 109.5,-354.5 164.5,-354.5 164.5,-335.5 109.5,-335.5"/>
<text text-anchor="middle" x="137" y="-342.5" font-family="Helvetica,sans-Serif" font-size="10.00">QFrame</text>
</a>
</g>
</g>
<!-- Node5&#45;&gt;Node4 -->
<g id="edge4" class="edge">
<title>Node5&#45;&gt;Node4</title>
<path fill="none" stroke="midnightblue" d="M137,-325.23C137,-316.59 137,-306.5 137,-298.52"/>
<polygon fill="midnightblue" stroke="midnightblue" points="133.5,-325.48 137,-335.48 140.5,-325.48 133.5,-325.48"/>
</g>
<!-- Node6 -->
<g id="node6" class="node">
<title>Node6</title>
<g id="a_node6"><a target="_parent" xlink:href="http://doc.qt.io/qt-5/qwidget.html" xlink:title=" ">
<polygon fill="none" stroke="black" points="107.5,-391.5 107.5,-410.5 166.5,-410.5 166.5,-391.5 107.5,-391.5"/>
<text text-anchor="middle" x="137" y="-398.5" font-family="Helvetica,sans-Serif" font-size="10.00">QWidget</text>
</a>
</g>
</g>
<!-- Node6&#45;&gt;Node5 -->
<g id="edge5" class="edge">
<title>Node6&#45;&gt;Node5</title>
<path fill="none" stroke="midnightblue" d="M137,-380.8C137,-371.91 137,-361.78 137,-354.75"/>
<polygon fill="midnightblue" stroke="midnightblue" points="133.5,-381.08 137,-391.08 140.5,-381.08 133.5,-381.08"/>
</g>
<!-- Node7 -->
<g id="node7" class="node">
<title>Node7</title>
<g id="a_node7"><a target="_parent" xlink:href="http://doc.qt.io/qt-5/qobject.html" xlink:title=" ">
<polygon fill="none" stroke="black" points="66,-447.5 66,-466.5 122,-466.5 122,-447.5 66,-447.5"/>
<text text-anchor="middle" x="94" y="-454.5" font-family="Helvetica,sans-Serif" font-size="10.00">QObject</text>
</a>
</g>
</g>
<!-- Node7&#45;&gt;Node6 -->
<g id="edge6" class="edge">
<title>Node7&#45;&gt;Node6</title>
<path fill="none" stroke="midnightblue" d="M107.42,-439.14C114.91,-429.74 123.94,-418.4 130.03,-410.75"/>
<polygon fill="midnightblue" stroke="midnightblue" points="104.59,-437.08 101.1,-447.08 110.07,-441.44 104.59,-437.08"/>
</g>
<!-- Node8 -->
<g id="node8" class="node">
<title>Node8</title>
<g id="a_node8"><a target="_parent" xlink:href="http://doc.qt.io/qt-5/qpaintdevice.html" xlink:title=" ">
<polygon fill="none" stroke="black" points="140,-447.5 140,-466.5 222,-466.5 222,-447.5 140,-447.5"/>
<text text-anchor="middle" x="181" y="-454.5" font-family="Helvetica,sans-Serif" font-size="10.00">QPaintDevice</text>
</a>
</g>
</g>
<!-- Node8&#45;&gt;Node6 -->
<g id="edge7" class="edge">
<title>Node8&#45;&gt;Node6</title>
<path fill="none" stroke="midnightblue" d="M167.27,-439.14C159.6,-429.74 150.37,-418.4 144.13,-410.75"/>
<polygon fill="midnightblue" stroke="midnightblue" points="164.7,-441.54 173.73,-447.08 170.13,-437.12 164.7,-441.54"/>
</g>
</g>
</svg>
