<?xml version="1.0" encoding="UTF-8" standalone="no"?>
<!DOCTYPE svg PUBLIC "-//W3C//DTD SVG 1.1//EN"
 "http://www.w3.org/Graphics/SVG/1.1/DTD/svg11.dtd">
<!-- Generated by graphviz version 2.43.0 (0)
 -->
<!-- Title: BlackMisc::Network::CClientProvider Pages: 1 -->
<svg width="322pt" height="229pt"
 viewBox="0.00 0.00 321.50 229.00" xmlns="http://www.w3.org/2000/svg" xmlns:xlink="http://www.w3.org/1999/xlink">
<g id="graph0" class="graph" transform="scale(1 1) rotate(0) translate(4 225)">
<title>BlackMisc::Network::CClientProvider</title>
<!-- Node1 -->
<g id="node1" class="node">
<title>Node1</title>
<g id="a_node1"><a xlink:title="Direct in memory access to client (network client) data.">
<polygon fill="#bfbfbf" stroke="black" points="105.5,-67.5 105.5,-97.5 218.5,-97.5 218.5,-67.5 105.5,-67.5"/>
<text text-anchor="start" x="113.5" y="-85.5" font-family="Helvetica,sans-Serif" font-size="10.00">BlackMisc::Network</text>
<text text-anchor="middle" x="162" y="-74.5" font-family="Helvetica,sans-Serif" font-size="10.00">::CClientProvider</text>
</a>
</g>
</g>
<!-- Node4 -->
<g id="node4" class="node">
<title>Node4</title>
<g id="a_node4"><a xlink:href="class_black_core_1_1_c_airspace_monitor.html" target="_top" xlink:title="Keeps track of other entities in the airspace: aircraft, ATC stations, etc. Central instance of data ...">
<polygon fill="none" stroke="black" points="0,-6 0,-25 158,-25 158,-6 0,-6"/>
<text text-anchor="middle" x="79" y="-13" font-family="Helvetica,sans-Serif" font-size="10.00">BlackCore::CAirspaceMonitor</text>
</a>
</g>
</g>
<!-- Node1&#45;&gt;Node4 -->
<g id="edge3" class="edge">
<title>Node1&#45;&gt;Node4</title>
<path fill="none" stroke="midnightblue" d="M135.83,-61.01C120.42,-48.94 101.74,-34.3 90.1,-25.19"/>
<polygon fill="midnightblue" stroke="midnightblue" points="133.96,-63.99 143.99,-67.4 138.28,-58.47 133.96,-63.99"/>
</g>
<!-- Node5 -->
<g id="node5" class="node">
<title>Node5</title>
<g id="a_node5"><a xlink:href="class_black_misc_1_1_network_1_1_c_client_provider_dummy.html" target="_top" xlink:title="Client provider dummy for testing.">
<polygon fill="none" stroke="black" points="176.5,-0.5 176.5,-30.5 313.5,-30.5 313.5,-0.5 176.5,-0.5"/>
<text text-anchor="start" x="184.5" y="-18.5" font-family="Helvetica,sans-Serif" font-size="10.00">BlackMisc::Network</text>
<text text-anchor="middle" x="245" y="-7.5" font-family="Helvetica,sans-Serif" font-size="10.00">::CClientProviderDummy</text>
</a>
</g>
</g>
<!-- Node1&#45;&gt;Node5 -->
<g id="edge4" class="edge">
<title>Node1&#45;&gt;Node5</title>
<path fill="none" stroke="midnightblue" d="M187.96,-61.17C200.65,-51.23 215.61,-39.51 227.03,-30.58"/>
<polygon fill="midnightblue" stroke="midnightblue" points="185.72,-58.47 180.01,-67.4 190.04,-63.99 185.72,-58.47"/>
</g>
<!-- Node2 -->
<g id="node2" class="node">
<title>Node2</title>
<g id="a_node2"><a xlink:href="class_black_misc_1_1_network_1_1_i_client_provider.html" target="_top" xlink:title="Direct in memory access to client (network client) data.">
<polygon fill="none" stroke="black" points="105.5,-134.5 105.5,-164.5 218.5,-164.5 218.5,-134.5 105.5,-134.5"/>
<text text-anchor="start" x="113.5" y="-152.5" font-family="Helvetica,sans-Serif" font-size="10.00">BlackMisc::Network</text>
<text text-anchor="middle" x="162" y="-141.5" font-family="Helvetica,sans-Serif" font-size="10.00">::IClientProvider</text>
</a>
</g>
</g>
<!-- Node2&#45;&gt;Node1 -->
<g id="edge1" class="edge">
<title>Node2&#45;&gt;Node1</title>
<path fill="none" stroke="midnightblue" d="M162,-124.11C162,-115.15 162,-105.32 162,-97.58"/>
<polygon fill="midnightblue" stroke="midnightblue" points="158.5,-124.4 162,-134.4 165.5,-124.4 158.5,-124.4"/>
</g>
<!-- Node3 -->
<g id="node3" class="node">
<title>Node3</title>
<g id="a_node3"><a xlink:href="class_black_misc_1_1_i_provider.html" target="_top" xlink:title="Base class for providers.">
<polygon fill="none" stroke="black" points="104,-201.5 104,-220.5 220,-220.5 220,-201.5 104,-201.5"/>
<text text-anchor="middle" x="162" y="-208.5" font-family="Helvetica,sans-Serif" font-size="10.00">BlackMisc::IProvider</text>
</a>
</g>
</g>
<!-- Node3&#45;&gt;Node2 -->
<g id="edge2" class="edge">
<title>Node3&#45;&gt;Node2</title>
<path fill="none" stroke="midnightblue" d="M162,-191.23C162,-182.59 162,-172.5 162,-164.52"/>
<polygon fill="midnightblue" stroke="midnightblue" points="158.5,-191.48 162,-201.48 165.5,-191.48 158.5,-191.48"/>
</g>
</g>
</svg>
