<?xml version="1.0" encoding="UTF-8" standalone="no"?>
<!DOCTYPE svg PUBLIC "-//W3C//DTD SVG 1.1//EN"
 "http://www.w3.org/Graphics/SVG/1.1/DTD/svg11.dtd">
<!-- Generated by graphviz version 2.43.0 (0)
 -->
<!-- Title: BlackMisc::CValueCache Pages: 1 -->
<svg width="308pt" height="140pt"
 viewBox="0.00 0.00 307.50 140.00" xmlns="http://www.w3.org/2000/svg" xmlns:xlink="http://www.w3.org/1999/xlink">
<g id="graph0" class="graph" transform="scale(1 1) rotate(0) translate(4 136)">
<title>BlackMisc::CValueCache</title>
<!-- Node1 -->
<g id="node1" class="node">
<title>Node1</title>
<g id="a_node1"><a xlink:title="Manages a map of { QString, CVariant } pairs, which can be distributed among multiple processes.">
<polygon fill="#bfbfbf" stroke="black" points="77,-56.5 77,-75.5 213,-75.5 213,-56.5 77,-56.5"/>
<text text-anchor="middle" x="145" y="-63.5" font-family="Helvetica,sans-Serif" font-size="10.00">BlackMisc::CValueCache</text>
</a>
</g>
</g>
<!-- Node4 -->
<g id="node4" class="node">
<title>Node4</title>
<g id="a_node4"><a xlink:href="class_black_misc_1_1_c_data_cache.html" target="_top" xlink:title="Singleton derived class of CValueCache, for core dynamic data.">
<polygon fill="none" stroke="black" points="0,-0.5 0,-19.5 132,-19.5 132,-0.5 0,-0.5"/>
<text text-anchor="middle" x="66" y="-7.5" font-family="Helvetica,sans-Serif" font-size="10.00">BlackMisc::CDataCache</text>
</a>
</g>
</g>
<!-- Node1&#45;&gt;Node4 -->
<g id="edge3" class="edge">
<title>Node1&#45;&gt;Node4</title>
<path fill="none" stroke="midnightblue" d="M123.97,-50.62C109.53,-40.76 90.86,-27.99 78.66,-19.65"/>
<polygon fill="midnightblue" stroke="midnightblue" points="122.08,-53.57 132.31,-56.32 126.03,-47.79 122.08,-53.57"/>
</g>
<!-- Node5 -->
<g id="node5" class="node">
<title>Node5</title>
<g id="a_node5"><a xlink:href="class_black_misc_1_1_c_settings_cache.html" target="_top" xlink:title="Singleton derived class of CValueCache, for settings.">
<polygon fill="none" stroke="black" points="150.5,-0.5 150.5,-19.5 299.5,-19.5 299.5,-0.5 150.5,-0.5"/>
<text text-anchor="middle" x="225" y="-7.5" font-family="Helvetica,sans-Serif" font-size="10.00">BlackMisc::CSettingsCache</text>
</a>
</g>
</g>
<!-- Node1&#45;&gt;Node5 -->
<g id="edge4" class="edge">
<title>Node1&#45;&gt;Node5</title>
<path fill="none" stroke="midnightblue" d="M166.3,-50.62C180.92,-40.76 199.83,-27.99 212.18,-19.65"/>
<polygon fill="midnightblue" stroke="midnightblue" points="164.18,-47.83 157.85,-56.32 168.1,-53.63 164.18,-47.83"/>
</g>
<!-- Node2 -->
<g id="node2" class="node">
<title>Node2</title>
<g id="a_node2"><a target="_parent" xlink:href="http://doc.qt.io/qt-5/qobject.html" xlink:title=" ">
<polygon fill="none" stroke="black" points="76,-112.5 76,-131.5 132,-131.5 132,-112.5 76,-112.5"/>
<text text-anchor="middle" x="104" y="-119.5" font-family="Helvetica,sans-Serif" font-size="10.00">QObject</text>
</a>
</g>
</g>
<!-- Node2&#45;&gt;Node1 -->
<g id="edge1" class="edge">
<title>Node2&#45;&gt;Node1</title>
<path fill="none" stroke="midnightblue" d="M117.02,-103.86C124.12,-94.5 132.6,-83.33 138.36,-75.75"/>
<polygon fill="midnightblue" stroke="midnightblue" points="114.03,-102 110.77,-112.08 119.61,-106.24 114.03,-102"/>
</g>
<!-- Node3 -->
<g id="node3" class="node">
<title>Node3</title>
<g id="a_node3"><a xlink:title=" ">
<polygon fill="none" stroke="#bfbfbf" points="150,-112.5 150,-131.5 224,-131.5 224,-112.5 150,-112.5"/>
<text text-anchor="middle" x="187" y="-119.5" font-family="Helvetica,sans-Serif" font-size="10.00">BatchGuard</text>
</a>
</g>
</g>
<!-- Node3&#45;&gt;Node1 -->
<g id="edge2" class="edge">
<title>Node3&#45;&gt;Node1</title>
<path fill="none" stroke="#8b1a1a" d="M173.89,-104.14C166.57,-94.74 157.76,-83.4 151.81,-75.75"/>
<polygon fill="#8b1a1a" stroke="#8b1a1a" points="171.16,-106.34 180.06,-112.08 176.69,-102.04 171.16,-106.34"/>
</g>
</g>
</svg>
