<?xml version="1.0" encoding="UTF-8" standalone="no"?>
<!DOCTYPE svg PUBLIC "-//W3C//DTD SVG 1.1//EN"
 "http://www.w3.org/Graphics/SVG/1.1/DTD/svg11.dtd">
<!-- Generated by graphviz version 2.43.0 (0)
 -->
<!-- Title: BlackMisc::Network::IClientProvider Pages: 1 -->
<svg width="345pt" height="229pt"
 viewBox="0.00 0.00 344.50 229.00" xmlns="http://www.w3.org/2000/svg" xmlns:xlink="http://www.w3.org/1999/xlink">
<g id="graph0" class="graph" transform="scale(1 1) rotate(0) translate(4 225)">
<title>BlackMisc::Network::IClientProvider</title>
<!-- Node1 -->
<g id="node1" class="node">
<title>Node1</title>
<g id="a_node1"><a xlink:title="Direct in memory access to client (network client) data.">
<polygon fill="#bfbfbf" stroke="black" points="63.5,-134.5 63.5,-164.5 176.5,-164.5 176.5,-134.5 63.5,-134.5"/>
<text text-anchor="start" x="71.5" y="-152.5" font-family="Helvetica,sans-Serif" font-size="10.00">BlackMisc::Network</text>
<text text-anchor="middle" x="120" y="-141.5" font-family="Helvetica,sans-Serif" font-size="10.00">::IClientProvider</text>
</a>
</g>
</g>
<!-- Node3 -->
<g id="node3" class="node">
<title>Node3</title>
<g id="a_node3"><a xlink:href="class_black_core_1_1_context_1_1_c_context_network.html" target="_top" xlink:title="Network context implementation.">
<polygon fill="none" stroke="black" points="0,-67.5 0,-97.5 110,-97.5 110,-67.5 0,-67.5"/>
<text text-anchor="start" x="8" y="-85.5" font-family="Helvetica,sans-Serif" font-size="10.00">BlackCore::Context</text>
<text text-anchor="middle" x="55" y="-74.5" font-family="Helvetica,sans-Serif" font-size="10.00">::CContextNetwork</text>
</a>
</g>
</g>
<!-- Node1&#45;&gt;Node3 -->
<g id="edge2" class="edge">
<title>Node1&#45;&gt;Node3</title>
<path fill="none" stroke="midnightblue" d="M98.81,-127.31C89.06,-117.56 77.76,-106.26 69.08,-97.58"/>
<polygon fill="midnightblue" stroke="midnightblue" points="96.35,-129.8 105.9,-134.4 101.3,-124.85 96.35,-129.8"/>
</g>
<!-- Node4 -->
<g id="node4" class="node">
<title>Node4</title>
<g id="a_node4"><a xlink:href="class_black_misc_1_1_network_1_1_c_client_provider.html" target="_top" xlink:title="Direct in memory access to client (network client) data.">
<polygon fill="none" stroke="black" points="128.5,-67.5 128.5,-97.5 241.5,-97.5 241.5,-67.5 128.5,-67.5"/>
<text text-anchor="start" x="136.5" y="-85.5" font-family="Helvetica,sans-Serif" font-size="10.00">BlackMisc::Network</text>
<text text-anchor="middle" x="185" y="-74.5" font-family="Helvetica,sans-Serif" font-size="10.00">::CClientProvider</text>
</a>
</g>
</g>
<!-- Node1&#45;&gt;Node4 -->
<g id="edge3" class="edge">
<title>Node1&#45;&gt;Node4</title>
<path fill="none" stroke="midnightblue" d="M141.19,-127.31C150.94,-117.56 162.24,-106.26 170.92,-97.58"/>
<polygon fill="midnightblue" stroke="midnightblue" points="138.7,-124.85 134.1,-134.4 143.65,-129.8 138.7,-124.85"/>
</g>
<!-- Node2 -->
<g id="node2" class="node">
<title>Node2</title>
<g id="a_node2"><a xlink:href="class_black_misc_1_1_i_provider.html" target="_top" xlink:title="Base class for providers.">
<polygon fill="none" stroke="black" points="62,-201.5 62,-220.5 178,-220.5 178,-201.5 62,-201.5"/>
<text text-anchor="middle" x="120" y="-208.5" font-family="Helvetica,sans-Serif" font-size="10.00">BlackMisc::IProvider</text>
</a>
</g>
</g>
<!-- Node2&#45;&gt;Node1 -->
<g id="edge1" class="edge">
<title>Node2&#45;&gt;Node1</title>
<path fill="none" stroke="midnightblue" d="M120,-191.23C120,-182.59 120,-172.5 120,-164.52"/>
<polygon fill="midnightblue" stroke="midnightblue" points="116.5,-191.48 120,-201.48 123.5,-191.48 116.5,-191.48"/>
</g>
<!-- Node5 -->
<g id="node5" class="node">
<title>Node5</title>
<g id="a_node5"><a xlink:href="class_black_core_1_1_c_airspace_monitor.html" target="_top" xlink:title="Keeps track of other entities in the airspace: aircraft, ATC stations, etc. Central instance of data ...">
<polygon fill="none" stroke="black" points="23,-6 23,-25 181,-25 181,-6 23,-6"/>
<text text-anchor="middle" x="102" y="-13" font-family="Helvetica,sans-Serif" font-size="10.00">BlackCore::CAirspaceMonitor</text>
</a>
</g>
</g>
<!-- Node4&#45;&gt;Node5 -->
<g id="edge4" class="edge">
<title>Node4&#45;&gt;Node5</title>
<path fill="none" stroke="midnightblue" d="M158.83,-61.01C143.42,-48.94 124.74,-34.3 113.1,-25.19"/>
<polygon fill="midnightblue" stroke="midnightblue" points="156.96,-63.99 166.99,-67.4 161.28,-58.47 156.96,-63.99"/>
</g>
<!-- Node6 -->
<g id="node6" class="node">
<title>Node6</title>
<g id="a_node6"><a xlink:href="class_black_misc_1_1_network_1_1_c_client_provider_dummy.html" target="_top" xlink:title="Client provider dummy for testing.">
<polygon fill="none" stroke="black" points="199.5,-0.5 199.5,-30.5 336.5,-30.5 336.5,-0.5 199.5,-0.5"/>
<text text-anchor="start" x="207.5" y="-18.5" font-family="Helvetica,sans-Serif" font-size="10.00">BlackMisc::Network</text>
<text text-anchor="middle" x="268" y="-7.5" font-family="Helvetica,sans-Serif" font-size="10.00">::CClientProviderDummy</text>
</a>
</g>
</g>
<!-- Node4&#45;&gt;Node6 -->
<g id="edge5" class="edge">
<title>Node4&#45;&gt;Node6</title>
<path fill="none" stroke="midnightblue" d="M210.96,-61.17C223.65,-51.23 238.61,-39.51 250.03,-30.58"/>
<polygon fill="midnightblue" stroke="midnightblue" points="208.72,-58.47 203.01,-67.4 213.04,-63.99 208.72,-58.47"/>
</g>
</g>
</svg>
