<?xml version="1.0" encoding="UTF-8" standalone="no"?>
<!DOCTYPE svg PUBLIC "-//W3C//DTD SVG 1.1//EN"
 "http://www.w3.org/Graphics/SVG/1.1/DTD/svg11.dtd">
<!-- Generated by graphviz version 2.43.0 (0)
 -->
<!-- Title: BlackCore::Context::IContextAudio Pages: 1 -->
<svg width="260pt" height="296pt"
 viewBox="0.00 0.00 259.50 296.00" xmlns="http://www.w3.org/2000/svg" xmlns:xlink="http://www.w3.org/1999/xlink">
<g id="graph0" class="graph" transform="scale(1 1) rotate(0) translate(4 292)">
<title>BlackCore::Context::IContextAudio</title>
<!-- Node1 -->
<g id="node1" class="node">
<title>Node1</title>
<g id="a_node1"><a xlink:title="Audio context interface.">
<polygon fill="#bfbfbf" stroke="black" points="67,-134.5 67,-164.5 177,-164.5 177,-134.5 67,-134.5"/>
<text text-anchor="start" x="75" y="-152.5" font-family="Helvetica,sans-Serif" font-size="10.00">BlackCore::Context</text>
<text text-anchor="middle" x="122" y="-141.5" font-family="Helvetica,sans-Serif" font-size="10.00">::IContextAudio</text>
</a>
</g>
</g>
<!-- Node4 -->
<g id="node4" class="node">
<title>Node4</title>
<g id="a_node4"><a xlink:href="class_black_core_1_1_context_1_1_c_context_audio_base.html" target="_top" xlink:title="Audio context interface.">
<polygon fill="none" stroke="black" points="62.5,-67.5 62.5,-97.5 181.5,-97.5 181.5,-67.5 62.5,-67.5"/>
<text text-anchor="start" x="70.5" y="-85.5" font-family="Helvetica,sans-Serif" font-size="10.00">BlackCore::Context</text>
<text text-anchor="middle" x="122" y="-74.5" font-family="Helvetica,sans-Serif" font-size="10.00">::CContextAudioBase</text>
</a>
</g>
</g>
<!-- Node1&#45;&gt;Node4 -->
<g id="edge3" class="edge">
<title>Node1&#45;&gt;Node4</title>
<path fill="none" stroke="midnightblue" d="M122,-124.11C122,-115.15 122,-105.32 122,-97.58"/>
<polygon fill="midnightblue" stroke="midnightblue" points="118.5,-124.4 122,-134.4 125.5,-124.4 118.5,-124.4"/>
</g>
<!-- Node2 -->
<g id="node2" class="node">
<title>Node2</title>
<g id="a_node2"><a xlink:href="class_black_core_1_1_context_1_1_i_context.html" target="_top" xlink:title="Base for all context classes.">
<polygon fill="none" stroke="black" points="67,-201.5 67,-231.5 177,-231.5 177,-201.5 67,-201.5"/>
<text text-anchor="start" x="75" y="-219.5" font-family="Helvetica,sans-Serif" font-size="10.00">BlackCore::Context</text>
<text text-anchor="middle" x="122" y="-208.5" font-family="Helvetica,sans-Serif" font-size="10.00">::IContext</text>
</a>
</g>
</g>
<!-- Node2&#45;&gt;Node1 -->
<g id="edge1" class="edge">
<title>Node2&#45;&gt;Node1</title>
<path fill="none" stroke="midnightblue" d="M122,-191.11C122,-182.15 122,-172.32 122,-164.58"/>
<polygon fill="midnightblue" stroke="midnightblue" points="118.5,-191.4 122,-201.4 125.5,-191.4 118.5,-191.4"/>
</g>
<!-- Node3 -->
<g id="node3" class="node">
<title>Node3</title>
<g id="a_node3"><a target="_parent" xlink:href="http://doc.qt.io/qt-5/qobject.html" xlink:title=" ">
<polygon fill="none" stroke="black" points="94,-268.5 94,-287.5 150,-287.5 150,-268.5 94,-268.5"/>
<text text-anchor="middle" x="122" y="-275.5" font-family="Helvetica,sans-Serif" font-size="10.00">QObject</text>
</a>
</g>
</g>
<!-- Node3&#45;&gt;Node2 -->
<g id="edge2" class="edge">
<title>Node3&#45;&gt;Node2</title>
<path fill="none" stroke="midnightblue" d="M122,-258.23C122,-249.59 122,-239.5 122,-231.52"/>
<polygon fill="midnightblue" stroke="midnightblue" points="118.5,-258.48 122,-268.48 125.5,-258.48 118.5,-258.48"/>
</g>
<!-- Node5 -->
<g id="node5" class="node">
<title>Node5</title>
<g id="a_node5"><a xlink:href="class_black_core_1_1_context_1_1_c_context_audio.html" target="_top" xlink:title="Audio context implementation.">
<polygon fill="none" stroke="black" points="0,-0.5 0,-30.5 110,-30.5 110,-0.5 0,-0.5"/>
<text text-anchor="start" x="8" y="-18.5" font-family="Helvetica,sans-Serif" font-size="10.00">BlackCore::Context</text>
<text text-anchor="middle" x="55" y="-7.5" font-family="Helvetica,sans-Serif" font-size="10.00">::CContextAudio</text>
</a>
</g>
</g>
<!-- Node4&#45;&gt;Node5 -->
<g id="edge4" class="edge">
<title>Node4&#45;&gt;Node5</title>
<path fill="none" stroke="midnightblue" d="M100.16,-60.31C90.11,-50.56 78.46,-39.26 69.51,-30.58"/>
<polygon fill="midnightblue" stroke="midnightblue" points="97.85,-62.94 107.46,-67.4 102.72,-57.92 97.85,-62.94"/>
</g>
<!-- Node6 -->
<g id="node6" class="node">
<title>Node6</title>
<g id="a_node6"><a xlink:href="class_black_core_1_1_context_1_1_c_context_audio_proxy.html" target="_top" xlink:title="Audio context proxy.">
<polygon fill="none" stroke="black" points="128.5,-0.5 128.5,-30.5 251.5,-30.5 251.5,-0.5 128.5,-0.5"/>
<text text-anchor="start" x="136.5" y="-18.5" font-family="Helvetica,sans-Serif" font-size="10.00">BlackCore::Context</text>
<text text-anchor="middle" x="190" y="-7.5" font-family="Helvetica,sans-Serif" font-size="10.00">::CContextAudioProxy</text>
</a>
</g>
</g>
<!-- Node4&#45;&gt;Node6 -->
<g id="edge5" class="edge">
<title>Node4&#45;&gt;Node6</title>
<path fill="none" stroke="midnightblue" d="M144.17,-60.31C154.37,-50.56 166.19,-39.26 175.27,-30.58"/>
<polygon fill="midnightblue" stroke="midnightblue" points="141.57,-57.96 136.75,-67.4 146.4,-63.02 141.57,-57.96"/>
</g>
</g>
</svg>
