<?xml version="1.0" encoding="UTF-8" standalone="no"?>
<!DOCTYPE svg PUBLIC "-//W3C//DTD SVG 1.1//EN"
 "http://www.w3.org/Graphics/SVG/1.1/DTD/svg11.dtd">
<!-- Generated by graphviz version 2.43.0 (0)
 -->
<!-- Title: BlackGui::Models::CDefaultFormatter Pages: 1 -->
<svg width="869pt" height="949pt"
 viewBox="0.00 0.00 869.00 949.00" xmlns="http://www.w3.org/2000/svg" xmlns:xlink="http://www.w3.org/1999/xlink">
<g id="graph0" class="graph" transform="scale(1 1) rotate(0) translate(4 945)">
<title>BlackGui::Models::CDefaultFormatter</title>
<!-- Node1 -->
<g id="node1" class="node">
<title>Node1</title>
<g id="a_node1"><a xlink:title="Column formatter default implementation, also serving as interface.">
<polygon fill="#bfbfbf" stroke="black" points="0,-542.5 0,-572.5 150,-572.5 150,-542.5 0,-542.5"/>
<text text-anchor="start" x="8" y="-560.5" font-family="Helvetica,sans-Serif" font-size="10.00">BlackGui::Models::CDefault</text>
<text text-anchor="middle" x="75" y="-549.5" font-family="Helvetica,sans-Serif" font-size="10.00">Formatter</text>
</a>
</g>
</g>
<!-- Node2 -->
<g id="node2" class="node">
<title>Node2</title>
<g id="a_node2"><a xlink:href="class_black_gui_1_1_models_1_1_c_altitude_formatter.html" target="_top" xlink:title="Formatter when column contains an altitude.">
<polygon fill="none" stroke="black" points="198,-910.5 198,-940.5 350,-940.5 350,-910.5 198,-910.5"/>
<text text-anchor="start" x="206" y="-928.5" font-family="Helvetica,sans-Serif" font-size="10.00">BlackGui::Models::CAltitude</text>
<text text-anchor="middle" x="274" y="-917.5" font-family="Helvetica,sans-Serif" font-size="10.00">Formatter</text>
</a>
</g>
</g>
<!-- Node1&#45;&gt;Node2 -->
<g id="edge1" class="edge">
<title>Node1&#45;&gt;Node2</title>
<path fill="none" stroke="midnightblue" d="M76.35,-583.12C78.64,-646.68 93.64,-812.79 186,-901.5 189.5,-904.86 193.43,-907.77 197.64,-910.27"/>
<polygon fill="midnightblue" stroke="midnightblue" points="79.84,-582.72 76.06,-572.83 72.84,-582.92 79.84,-582.72"/>
</g>
<!-- Node3 -->
<g id="node3" class="node">
<title>Node3</title>
<g id="a_node3"><a xlink:href="class_black_gui_1_1_models_1_1_c_bool_text_formatter.html" target="_top" xlink:title="Bool value, format as text.">
<polygon fill="none" stroke="black" points="196,-861.5 196,-891.5 352,-891.5 352,-861.5 196,-861.5"/>
<text text-anchor="start" x="204" y="-879.5" font-family="Helvetica,sans-Serif" font-size="10.00">BlackGui::Models::CBoolText</text>
<text text-anchor="middle" x="274" y="-868.5" font-family="Helvetica,sans-Serif" font-size="10.00">Formatter</text>
</a>
</g>
</g>
<!-- Node1&#45;&gt;Node3 -->
<g id="edge2" class="edge">
<title>Node1&#45;&gt;Node3</title>
<path fill="none" stroke="midnightblue" d="M77.9,-582.94C83.56,-639.93 105.32,-778.61 186,-852.5 189.7,-855.89 193.83,-858.8 198.23,-861.31"/>
<polygon fill="midnightblue" stroke="midnightblue" points="81.36,-582.32 76.97,-572.67 74.39,-582.95 81.36,-582.32"/>
</g>
<!-- Node6 -->
<g id="node6" class="node">
<title>Node6</title>
<g id="a_node6"><a xlink:href="class_black_gui_1_1_models_1_1_c_clouds_formatter.html" target="_top" xlink:title="Clouds.">
<polygon fill="none" stroke="black" points="200.5,-812.5 200.5,-842.5 347.5,-842.5 347.5,-812.5 200.5,-812.5"/>
<text text-anchor="start" x="208.5" y="-830.5" font-family="Helvetica,sans-Serif" font-size="10.00">BlackGui::Models::CClouds</text>
<text text-anchor="middle" x="274" y="-819.5" font-family="Helvetica,sans-Serif" font-size="10.00">Formatter</text>
</a>
</g>
</g>
<!-- Node1&#45;&gt;Node6 -->
<g id="edge5" class="edge">
<title>Node1&#45;&gt;Node6</title>
<path fill="none" stroke="midnightblue" d="M79.95,-582.48C89.15,-632.23 116.74,-744 186,-803.5 190.28,-807.18 195.07,-810.29 200.16,-812.93"/>
<polygon fill="midnightblue" stroke="midnightblue" points="83.39,-581.82 78.21,-572.58 76.49,-583.03 83.39,-581.82"/>
</g>
<!-- Node7 -->
<g id="node7" class="node">
<title>Node7</title>
<g id="a_node7"><a xlink:href="class_black_gui_1_1_models_1_1_c_color_formatter.html" target="_top" xlink:title="Formatter when column contains a color.">
<polygon fill="none" stroke="black" points="204,-763.5 204,-793.5 344,-793.5 344,-763.5 204,-763.5"/>
<text text-anchor="start" x="212" y="-781.5" font-family="Helvetica,sans-Serif" font-size="10.00">BlackGui::Models::CColor</text>
<text text-anchor="middle" x="274" y="-770.5" font-family="Helvetica,sans-Serif" font-size="10.00">Formatter</text>
</a>
</g>
</g>
<!-- Node1&#45;&gt;Node7 -->
<g id="edge6" class="edge">
<title>Node1&#45;&gt;Node7</title>
<path fill="none" stroke="midnightblue" d="M82.98,-582.46C96.03,-624.46 128.19,-709.13 186,-754.5 191.42,-758.76 197.55,-762.26 203.98,-765.14"/>
<polygon fill="midnightblue" stroke="midnightblue" points="86.29,-581.32 80.07,-572.75 79.59,-583.33 86.29,-581.32"/>
</g>
<!-- Node8 -->
<g id="node8" class="node">
<title>Node8</title>
<g id="a_node8"><a xlink:href="class_black_gui_1_1_models_1_1_c_coverage_formatter.html" target="_top" xlink:title="Relative Humidity.">
<polygon fill="none" stroke="black" points="193.5,-714.5 193.5,-744.5 354.5,-744.5 354.5,-714.5 193.5,-714.5"/>
<text text-anchor="start" x="201.5" y="-732.5" font-family="Helvetica,sans-Serif" font-size="10.00">BlackGui::Models::CCoverage</text>
<text text-anchor="middle" x="274" y="-721.5" font-family="Helvetica,sans-Serif" font-size="10.00">Formatter</text>
</a>
</g>
</g>
<!-- Node1&#45;&gt;Node8 -->
<g id="edge7" class="edge">
<title>Node1&#45;&gt;Node8</title>
<path fill="none" stroke="midnightblue" d="M87.47,-581.67C104.37,-614.67 139.12,-673.4 186,-705.5 191.04,-708.95 196.57,-711.91 202.31,-714.44"/>
<polygon fill="midnightblue" stroke="midnightblue" points="90.58,-580.08 82.99,-572.7 84.32,-583.21 90.58,-580.08"/>
</g>
<!-- Node9 -->
<g id="node9" class="node">
<title>Node9</title>
<g id="a_node9"><a xlink:href="class_black_gui_1_1_models_1_1_c_date_time_formatter.html" target="_top" xlink:title="Formatter when column contains QDateTime, QDate or QTime.">
<polygon fill="none" stroke="black" points="193,-665.5 193,-695.5 355,-695.5 355,-665.5 193,-665.5"/>
<text text-anchor="start" x="201" y="-683.5" font-family="Helvetica,sans-Serif" font-size="10.00">BlackGui::Models::CDateTime</text>
<text text-anchor="middle" x="274" y="-672.5" font-family="Helvetica,sans-Serif" font-size="10.00">Formatter</text>
</a>
</g>
</g>
<!-- Node1&#45;&gt;Node9 -->
<g id="edge8" class="edge">
<title>Node1&#45;&gt;Node9</title>
<path fill="none" stroke="midnightblue" d="M95.47,-580.36C115.86,-602.89 149.87,-636.72 186,-656.5 192.18,-659.89 198.88,-662.82 205.72,-665.37"/>
<polygon fill="midnightblue" stroke="midnightblue" points="97.86,-577.78 88.6,-572.62 92.62,-582.42 97.86,-577.78"/>
</g>
<!-- Node10 -->
<g id="node10" class="node">
<title>Node10</title>
<g id="a_node10"><a xlink:href="class_black_gui_1_1_models_1_1_c_delegate_formatter.html" target="_top" xlink:title="Layout will be defined by a delegate.">
<polygon fill="none" stroke="black" points="195,-616.5 195,-646.5 353,-646.5 353,-616.5 195,-616.5"/>
<text text-anchor="start" x="203" y="-634.5" font-family="Helvetica,sans-Serif" font-size="10.00">BlackGui::Models::CDelegate</text>
<text text-anchor="middle" x="274" y="-623.5" font-family="Helvetica,sans-Serif" font-size="10.00">Formatter</text>
</a>
</g>
</g>
<!-- Node1&#45;&gt;Node10 -->
<g id="edge9" class="edge">
<title>Node1&#45;&gt;Node10</title>
<path fill="none" stroke="midnightblue" d="M114.95,-577.02C135.71,-586.96 161.89,-598.76 186,-607.5 194.84,-610.71 204.31,-613.73 213.64,-616.47"/>
<polygon fill="midnightblue" stroke="midnightblue" points="116.34,-573.8 105.82,-572.6 113.29,-580.11 116.34,-573.8"/>
</g>
<!-- Node11 -->
<g id="node11" class="node">
<title>Node11</title>
<g id="a_node11"><a xlink:href="class_black_gui_1_1_models_1_1_c_empty_formatter.html" target="_top" xlink:title="Just returns a empty &quot;&quot; value.">
<polygon fill="none" stroke="black" points="201,-567.5 201,-597.5 347,-597.5 347,-567.5 201,-567.5"/>
<text text-anchor="start" x="209" y="-585.5" font-family="Helvetica,sans-Serif" font-size="10.00">BlackGui::Models::CEmpty</text>
<text text-anchor="middle" x="274" y="-574.5" font-family="Helvetica,sans-Serif" font-size="10.00">Formatter</text>
</a>
</g>
</g>
<!-- Node1&#45;&gt;Node11 -->
<g id="edge10" class="edge">
<title>Node1&#45;&gt;Node11</title>
<path fill="none" stroke="midnightblue" d="M160.4,-568.21C173.86,-569.92 187.68,-571.67 200.83,-573.34"/>
<polygon fill="midnightblue" stroke="midnightblue" points="160.56,-564.7 150.2,-566.92 159.68,-571.65 160.56,-564.7"/>
</g>
<!-- Node12 -->
<g id="node12" class="node">
<title>Node12</title>
<g id="a_node12"><a xlink:href="class_black_gui_1_1_models_1_1_c_incognito_formatter.html" target="_top" xlink:title="Just returns a empty &quot;&quot; value.">
<polygon fill="none" stroke="black" points="194.5,-518.5 194.5,-548.5 353.5,-548.5 353.5,-518.5 194.5,-518.5"/>
<text text-anchor="start" x="202.5" y="-536.5" font-family="Helvetica,sans-Serif" font-size="10.00">BlackGui::Models::CIncognito</text>
<text text-anchor="middle" x="274" y="-525.5" font-family="Helvetica,sans-Serif" font-size="10.00">Formatter</text>
</a>
</g>
</g>
<!-- Node1&#45;&gt;Node12 -->
<g id="edge11" class="edge">
<title>Node1&#45;&gt;Node12</title>
<path fill="none" stroke="midnightblue" d="M160.42,-547.21C171.66,-545.85 183.14,-544.45 194.27,-543.09"/>
<polygon fill="midnightblue" stroke="midnightblue" points="159.7,-543.78 150.2,-548.46 160.55,-550.73 159.7,-543.78"/>
</g>
<!-- Node13 -->
<g id="node13" class="node">
<title>Node13</title>
<g id="a_node13"><a xlink:href="class_black_gui_1_1_models_1_1_c_integer_formatter.html" target="_top" xlink:title="Formatter when column contains an integer.">
<polygon fill="none" stroke="black" points="199.5,-469.5 199.5,-499.5 348.5,-499.5 348.5,-469.5 199.5,-469.5"/>
<text text-anchor="start" x="207.5" y="-487.5" font-family="Helvetica,sans-Serif" font-size="10.00">BlackGui::Models::CInteger</text>
<text text-anchor="middle" x="274" y="-476.5" font-family="Helvetica,sans-Serif" font-size="10.00">Formatter</text>
</a>
</g>
</g>
<!-- Node1&#45;&gt;Node13 -->
<g id="edge12" class="edge">
<title>Node1&#45;&gt;Node13</title>
<path fill="none" stroke="midnightblue" d="M117.13,-538.02C137.57,-528.73 162.81,-517.85 186,-509.5 195.76,-505.99 206.27,-502.62 216.49,-499.56"/>
<polygon fill="midnightblue" stroke="midnightblue" points="115.43,-534.95 107.8,-542.3 118.35,-541.31 115.43,-534.95"/>
</g>
<!-- Node14 -->
<g id="node14" class="node">
<title>Node14</title>
<g id="a_node14"><a xlink:href="class_black_gui_1_1_models_1_1_c_pixmap_formatter.html" target="_top" xlink:title="Pixmap formatter.">
<polygon fill="none" stroke="black" points="198.5,-420.5 198.5,-450.5 349.5,-450.5 349.5,-420.5 198.5,-420.5"/>
<text text-anchor="start" x="206.5" y="-438.5" font-family="Helvetica,sans-Serif" font-size="10.00">BlackGui::Models::CPixmap</text>
<text text-anchor="middle" x="274" y="-427.5" font-family="Helvetica,sans-Serif" font-size="10.00">Formatter</text>
</a>
</g>
</g>
<!-- Node1&#45;&gt;Node14 -->
<g id="edge13" class="edge">
<title>Node1&#45;&gt;Node14</title>
<path fill="none" stroke="midnightblue" d="M95.96,-534.83C116.48,-512.83 150.4,-480.01 186,-460.5 193.03,-456.65 200.71,-453.34 208.5,-450.51"/>
<polygon fill="midnightblue" stroke="midnightblue" points="93.2,-532.66 89.02,-542.4 98.36,-537.39 93.2,-532.66"/>
</g>
<!-- Node15 -->
<g id="node15" class="node">
<title>Node15</title>
<g id="a_node15"><a xlink:href="class_black_gui_1_1_models_1_1_c_precipitation_formatter.html" target="_top" xlink:title="Precipitation.">
<polygon fill="none" stroke="black" points="186,-371.5 186,-401.5 362,-401.5 362,-371.5 186,-371.5"/>
<text text-anchor="start" x="194" y="-389.5" font-family="Helvetica,sans-Serif" font-size="10.00">BlackGui::Models::CPrecipitation</text>
<text text-anchor="middle" x="274" y="-378.5" font-family="Helvetica,sans-Serif" font-size="10.00">Formatter</text>
</a>
</g>
</g>
<!-- Node1&#45;&gt;Node15 -->
<g id="edge14" class="edge">
<title>Node1&#45;&gt;Node15</title>
<path fill="none" stroke="midnightblue" d="M88.08,-532.81C105.32,-500.17 140.03,-443.12 186,-411.5 191.57,-407.67 197.72,-404.42 204.1,-401.67"/>
<polygon fill="midnightblue" stroke="midnightblue" points="84.77,-531.6 83.3,-542.1 90.99,-534.81 84.77,-531.6"/>
</g>
<!-- Node16 -->
<g id="node16" class="node">
<title>Node16</title>
<g id="a_node16"><a xlink:href="class_black_gui_1_1_models_1_1_c_precipitation_rate_formatter.html" target="_top" xlink:title="Relative Humidity.">
<polygon fill="none" stroke="black" points="186,-322.5 186,-352.5 362,-352.5 362,-322.5 186,-322.5"/>
<text text-anchor="start" x="194" y="-340.5" font-family="Helvetica,sans-Serif" font-size="10.00">BlackGui::Models::CPrecipitation</text>
<text text-anchor="middle" x="274" y="-329.5" font-family="Helvetica,sans-Serif" font-size="10.00">RateFormatter</text>
</a>
</g>
</g>
<!-- Node1&#45;&gt;Node16 -->
<g id="edge15" class="edge">
<title>Node1&#45;&gt;Node16</title>
<path fill="none" stroke="midnightblue" d="M83.11,-532.86C96.35,-491.37 128.78,-407.7 186,-362.5 190.93,-358.6 196.45,-355.31 202.24,-352.54"/>
<polygon fill="midnightblue" stroke="midnightblue" points="79.75,-531.86 80.15,-542.45 86.44,-533.92 79.75,-531.86"/>
</g>
<!-- Node17 -->
<g id="node17" class="node">
<title>Node17</title>
<g id="a_node17"><a xlink:href="class_black_gui_1_1_models_1_1_c_relative_humidity_formatter.html" target="_top" xlink:title="Relative Humidity.">
<polygon fill="none" stroke="black" points="196.5,-273.5 196.5,-303.5 351.5,-303.5 351.5,-273.5 196.5,-273.5"/>
<text text-anchor="start" x="204.5" y="-291.5" font-family="Helvetica,sans-Serif" font-size="10.00">BlackGui::Models::CRelative</text>
<text text-anchor="middle" x="274" y="-280.5" font-family="Helvetica,sans-Serif" font-size="10.00">HumidityFormatter</text>
</a>
</g>
</g>
<!-- Node1&#45;&gt;Node17 -->
<g id="edge16" class="edge">
<title>Node1&#45;&gt;Node17</title>
<path fill="none" stroke="midnightblue" d="M80.13,-532.42C89.61,-483.01 117.59,-372.72 186,-313.5 190.52,-309.59 195.61,-306.29 201,-303.51"/>
<polygon fill="midnightblue" stroke="midnightblue" points="76.69,-531.81 78.34,-542.27 83.57,-533.06 76.69,-531.81"/>
</g>
<!-- Node18 -->
<g id="node18" class="node">
<title>Node18</title>
<g id="a_node18"><a xlink:href="class_black_gui_1_1_models_1_1_c_string_formatter.html" target="_top" xlink:title="String formatter, if known the variant already contains the appropriate string.">
<polygon fill="none" stroke="black" points="202.5,-224.5 202.5,-254.5 345.5,-254.5 345.5,-224.5 202.5,-224.5"/>
<text text-anchor="start" x="210.5" y="-242.5" font-family="Helvetica,sans-Serif" font-size="10.00">BlackGui::Models::CString</text>
<text text-anchor="middle" x="274" y="-231.5" font-family="Helvetica,sans-Serif" font-size="10.00">Formatter</text>
</a>
</g>
</g>
<!-- Node1&#45;&gt;Node18 -->
<g id="edge17" class="edge">
<title>Node1&#45;&gt;Node18</title>
<path fill="none" stroke="midnightblue" d="M78.01,-532.29C83.9,-475.81 106.11,-338.29 186,-264.5 190.85,-260.02 196.45,-256.34 202.42,-253.31"/>
<polygon fill="midnightblue" stroke="midnightblue" points="74.51,-532.18 77.04,-542.46 81.48,-532.84 74.51,-532.18"/>
</g>
<!-- Node19 -->
<g id="node19" class="node">
<title>Node19</title>
<g id="a_node19"><a xlink:href="class_black_gui_1_1_models_1_1_c_value_object_formatter.html" target="_top" xlink:title="Default formatter when column contains CValueObject.">
<polygon fill="none" stroke="black" points="203.5,-175.5 203.5,-205.5 344.5,-205.5 344.5,-175.5 203.5,-175.5"/>
<text text-anchor="start" x="211.5" y="-193.5" font-family="Helvetica,sans-Serif" font-size="10.00">BlackGui::Models::CValue</text>
<text text-anchor="middle" x="274" y="-182.5" font-family="Helvetica,sans-Serif" font-size="10.00">ObjectFormatter</text>
</a>
</g>
</g>
<!-- Node1&#45;&gt;Node19 -->
<g id="edge18" class="edge">
<title>Node1&#45;&gt;Node19</title>
<path fill="none" stroke="midnightblue" d="M76.45,-532.08C78.99,-469.03 94.52,-304.15 186,-215.5 191.08,-210.58 197.06,-206.61 203.47,-203.42"/>
<polygon fill="midnightblue" stroke="midnightblue" points="72.95,-532.19 76.12,-542.3 79.94,-532.42 72.95,-532.19"/>
</g>
<!-- Node4 -->
<g id="node4" class="node">
<title>Node4</title>
<g id="a_node4"><a xlink:href="class_black_gui_1_1_models_1_1_c_bool_icon_formatter.html" target="_top" xlink:title="Format as bool pixmap.">
<polygon fill="none" stroke="black" points="440,-885.5 440,-915.5 596,-915.5 596,-885.5 440,-885.5"/>
<text text-anchor="start" x="448" y="-903.5" font-family="Helvetica,sans-Serif" font-size="10.00">BlackGui::Models::CBoolIcon</text>
<text text-anchor="middle" x="518" y="-892.5" font-family="Helvetica,sans-Serif" font-size="10.00">Formatter</text>
</a>
</g>
</g>
<!-- Node3&#45;&gt;Node4 -->
<g id="edge3" class="edge">
<title>Node3&#45;&gt;Node4</title>
<path fill="none" stroke="midnightblue" d="M362.2,-885.15C387.52,-887.66 414.99,-890.38 439.67,-892.83"/>
<polygon fill="midnightblue" stroke="midnightblue" points="362.53,-881.66 352.24,-884.16 361.84,-888.63 362.53,-881.66"/>
</g>
<!-- Node5 -->
<g id="node5" class="node">
<title>Node5</title>
<g id="a_node5"><a xlink:href="class_black_gui_1_1_models_1_1_c_bool_led_formatter.html" target="_top" xlink:title="Format as bool LED value.">
<polygon fill="none" stroke="black" points="441.5,-836.5 441.5,-866.5 594.5,-866.5 594.5,-836.5 441.5,-836.5"/>
<text text-anchor="start" x="449.5" y="-854.5" font-family="Helvetica,sans-Serif" font-size="10.00">BlackGui::Models::CBoolLed</text>
<text text-anchor="middle" x="518" y="-843.5" font-family="Helvetica,sans-Serif" font-size="10.00">Formatter</text>
</a>
</g>
</g>
<!-- Node3&#45;&gt;Node5 -->
<g id="edge4" class="edge">
<title>Node3&#45;&gt;Node5</title>
<path fill="none" stroke="midnightblue" d="M362.4,-867.47C388.23,-864.8 416.29,-861.9 441.32,-859.32"/>
<polygon fill="midnightblue" stroke="midnightblue" points="361.82,-864.01 352.24,-868.52 362.54,-870.97 361.82,-864.01"/>
</g>
<!-- Node20 -->
<g id="node20" class="node">
<title>Node20</title>
<g id="a_node20"><a xlink:href="class_black_gui_1_1_models_1_1_c_physiqal_quantiy_formatter.html" target="_top" xlink:title=" ">
<polygon fill="none" stroke="black" points="427,-395 427,-458 609,-458 609,-395 427,-395"/>
<text text-anchor="start" x="435" y="-446" font-family="Helvetica,sans-Serif" font-size="10.00">BlackGui::Models::CPhysiqal</text>
<text text-anchor="start" x="435" y="-435" font-family="Helvetica,sans-Serif" font-size="10.00">QuantiyFormatter&lt; BlackMisc</text>
<text text-anchor="start" x="435" y="-424" font-family="Helvetica,sans-Serif" font-size="10.00">::PhysicalQuantities::CLengthUnit,</text>
<text text-anchor="start" x="435" y="-413" font-family="Helvetica,sans-Serif" font-size="10.00"> BlackMisc::PhysicalQuantities</text>
<text text-anchor="middle" x="518" y="-402" font-family="Helvetica,sans-Serif" font-size="10.00">::CLength &gt;</text>
</a>
</g>
</g>
<!-- Node19&#45;&gt;Node20 -->
<g id="edge19" class="edge">
<title>Node19&#45;&gt;Node20</title>
<path fill="none" stroke="midnightblue" d="M353.35,-207.96C356.47,-210.19 359.38,-212.69 362,-215.5 414.63,-272.02 346.85,-327.63 398,-385.5 405.96,-394.5 415.99,-401.53 426.84,-407.02"/>
<polygon fill="midnightblue" stroke="midnightblue" points="355,-204.87 344.64,-202.69 351.38,-210.86 355,-204.87"/>
</g>
<!-- Node22 -->
<g id="node22" class="node">
<title>Node22</title>
<g id="a_node22"><a xlink:href="class_black_gui_1_1_models_1_1_c_physiqal_quantiy_formatter.html" target="_top" xlink:title=" ">
<polygon fill="none" stroke="black" points="429.5,-313 429.5,-376 606.5,-376 606.5,-313 429.5,-313"/>
<text text-anchor="start" x="437.5" y="-364" font-family="Helvetica,sans-Serif" font-size="10.00">BlackGui::Models::CPhysiqal</text>
<text text-anchor="start" x="437.5" y="-353" font-family="Helvetica,sans-Serif" font-size="10.00">QuantiyFormatter&lt; BlackMisc</text>
<text text-anchor="start" x="437.5" y="-342" font-family="Helvetica,sans-Serif" font-size="10.00">::PhysicalQuantities::CAngleUnit,</text>
<text text-anchor="start" x="437.5" y="-331" font-family="Helvetica,sans-Serif" font-size="10.00"> BlackMisc::PhysicalQuantities</text>
<text text-anchor="middle" x="518" y="-320" font-family="Helvetica,sans-Serif" font-size="10.00">::CAngle &gt;</text>
</a>
</g>
</g>
<!-- Node19&#45;&gt;Node22 -->
<g id="edge21" class="edge">
<title>Node19&#45;&gt;Node22</title>
<path fill="none" stroke="midnightblue" d="M353.46,-209.01C356.48,-210.96 359.35,-213.12 362,-215.5 393.46,-243.72 367.29,-274.48 398,-303.5 407.05,-312.05 417.97,-318.83 429.48,-324.2"/>
<polygon fill="midnightblue" stroke="midnightblue" points="355.02,-205.88 344.58,-204.04 351.59,-211.98 355.02,-205.88"/>
</g>
<!-- Node24 -->
<g id="node24" class="node">
<title>Node24</title>
<g id="a_node24"><a xlink:href="class_black_gui_1_1_models_1_1_c_physiqal_quantiy_formatter.html" target="_top" xlink:title=" ">
<polygon fill="none" stroke="black" points="398,-241.5 398,-293.5 638,-293.5 638,-241.5 398,-241.5"/>
<text text-anchor="start" x="406" y="-281.5" font-family="Helvetica,sans-Serif" font-size="10.00">BlackGui::Models::CPhysiqal</text>
<text text-anchor="start" x="406" y="-270.5" font-family="Helvetica,sans-Serif" font-size="10.00">QuantiyFormatter&lt; BlackMisc</text>
<text text-anchor="start" x="406" y="-259.5" font-family="Helvetica,sans-Serif" font-size="10.00">::PhysicalQuantities::CFrequencyUnit,</text>
<text text-anchor="middle" x="518" y="-248.5" font-family="Helvetica,sans-Serif" font-size="10.00"> BlackMisc::PhysicalQuantities::CFrequency &gt;</text>
</a>
</g>
</g>
<!-- Node19&#45;&gt;Node24 -->
<g id="edge23" class="edge">
<title>Node19&#45;&gt;Node24</title>
<path fill="none" stroke="midnightblue" d="M341.16,-208.47C348.24,-210.7 355.3,-213.06 362,-215.5 378.45,-221.49 381.59,-225.4 398,-231.5 407.21,-234.92 416.9,-238.27 426.61,-241.45"/>
<polygon fill="midnightblue" stroke="midnightblue" points="342.11,-205.1 331.53,-205.51 340.06,-211.79 342.11,-205.1"/>
</g>
<!-- Node26 -->
<g id="node26" class="node">
<title>Node26</title>
<g id="a_node26"><a xlink:href="class_black_gui_1_1_models_1_1_c_physiqal_quantiy_formatter.html" target="_top" xlink:title=" ">
<polygon fill="none" stroke="black" points="428.5,-159 428.5,-222 607.5,-222 607.5,-159 428.5,-159"/>
<text text-anchor="start" x="436.5" y="-210" font-family="Helvetica,sans-Serif" font-size="10.00">BlackGui::Models::CPhysiqal</text>
<text text-anchor="start" x="436.5" y="-199" font-family="Helvetica,sans-Serif" font-size="10.00">QuantiyFormatter&lt; BlackMisc</text>
<text text-anchor="start" x="436.5" y="-188" font-family="Helvetica,sans-Serif" font-size="10.00">::PhysicalQuantities::CSpeedUnit,</text>
<text text-anchor="start" x="436.5" y="-177" font-family="Helvetica,sans-Serif" font-size="10.00"> BlackMisc::PhysicalQuantities</text>
<text text-anchor="middle" x="518" y="-166" font-family="Helvetica,sans-Serif" font-size="10.00">::CSpeed &gt;</text>
</a>
</g>
</g>
<!-- Node19&#45;&gt;Node26 -->
<g id="edge25" class="edge">
<title>Node19&#45;&gt;Node26</title>
<path fill="none" stroke="midnightblue" d="M354.95,-190.5C378.48,-190.5 404.37,-190.5 428.41,-190.5"/>
<polygon fill="midnightblue" stroke="midnightblue" points="354.67,-187 344.67,-190.5 354.67,-194 354.67,-187"/>
</g>
<!-- Node28 -->
<g id="node28" class="node">
<title>Node28</title>
<g id="a_node28"><a xlink:href="class_black_gui_1_1_models_1_1_c_physiqal_quantiy_formatter.html" target="_top" xlink:title=" ">
<polygon fill="none" stroke="black" points="415,-99 415,-140 621,-140 621,-99 415,-99"/>
<text text-anchor="start" x="423" y="-128" font-family="Helvetica,sans-Serif" font-size="10.00">BlackGui::Models::CPhysiqal</text>
<text text-anchor="start" x="423" y="-117" font-family="Helvetica,sans-Serif" font-size="10.00">QuantiyFormatter&lt; CTemperatureUnit,</text>
<text text-anchor="middle" x="518" y="-106" font-family="Helvetica,sans-Serif" font-size="10.00"> CTemperature &gt;</text>
</a>
</g>
</g>
<!-- Node19&#45;&gt;Node28 -->
<g id="edge27" class="edge">
<title>Node19&#45;&gt;Node28</title>
<path fill="none" stroke="midnightblue" d="M327.16,-172.15C348.94,-164.74 374.58,-156.34 398,-149.5 409.04,-146.27 420.72,-143.07 432.28,-140.03"/>
<polygon fill="midnightblue" stroke="midnightblue" points="325.77,-168.93 317.45,-175.48 328.04,-175.55 325.77,-168.93"/>
</g>
<!-- Node30 -->
<g id="node30" class="node">
<title>Node30</title>
<g id="a_node30"><a xlink:href="class_black_gui_1_1_models_1_1_c_lat_lon_formatter.html" target="_top" xlink:title="Latitude or Longitude formatter.">
<polygon fill="none" stroke="black" points="445,-49.5 445,-79.5 591,-79.5 591,-49.5 445,-49.5"/>
<text text-anchor="start" x="453" y="-67.5" font-family="Helvetica,sans-Serif" font-size="10.00">BlackGui::Models::CLatLon</text>
<text text-anchor="middle" x="518" y="-56.5" font-family="Helvetica,sans-Serif" font-size="10.00">Formatter</text>
</a>
</g>
</g>
<!-- Node19&#45;&gt;Node30 -->
<g id="edge29" class="edge">
<title>Node19&#45;&gt;Node30</title>
<path fill="none" stroke="midnightblue" d="M295.99,-167.74C318.81,-144.43 357.49,-108.93 398,-89.5 412.47,-82.56 428.83,-77.54 444.69,-73.91"/>
<polygon fill="midnightblue" stroke="midnightblue" points="293.28,-165.51 288.87,-175.14 298.33,-170.36 293.28,-165.51"/>
</g>
<!-- Node31 -->
<g id="node31" class="node">
<title>Node31</title>
<g id="a_node31"><a xlink:href="class_black_gui_1_1_models_1_1_c_physiqal_quantiy_formatter.html" target="_top" xlink:title="Formatter for physical quantities.">
<polygon fill="none" stroke="black" points="437.5,-0.5 437.5,-30.5 598.5,-30.5 598.5,-0.5 437.5,-0.5"/>
<text text-anchor="start" x="445.5" y="-18.5" font-family="Helvetica,sans-Serif" font-size="10.00">BlackGui::Models::CPhysiqal</text>
<text text-anchor="middle" x="518" y="-7.5" font-family="Helvetica,sans-Serif" font-size="10.00">QuantiyFormatter&lt; MU, PQ &gt;</text>
</a>
</g>
</g>
<!-- Node19&#45;&gt;Node31 -->
<g id="edge30" class="edge">
<title>Node19&#45;&gt;Node31</title>
<path fill="none" stroke="midnightblue" d="M287.58,-166.31C306.63,-132.25 346.14,-70.81 398,-39.5 409.91,-32.31 423.59,-27.23 437.33,-23.66"/>
<polygon fill="midnightblue" stroke="midnightblue" points="284.47,-164.69 282.75,-175.15 290.62,-168.05 284.47,-164.69"/>
</g>
<!-- Node21 -->
<g id="node21" class="node">
<title>Node21</title>
<g id="a_node21"><a xlink:href="class_black_gui_1_1_models_1_1_c_airspace_distance_formatter.html" target="_top" xlink:title="Airspace distance displayed in NM.">
<polygon fill="none" stroke="black" points="689.5,-411.5 689.5,-441.5 845.5,-441.5 845.5,-411.5 689.5,-411.5"/>
<text text-anchor="start" x="697.5" y="-429.5" font-family="Helvetica,sans-Serif" font-size="10.00">BlackGui::Models::CAirspace</text>
<text text-anchor="middle" x="767.5" y="-418.5" font-family="Helvetica,sans-Serif" font-size="10.00">DistanceFormatter</text>
</a>
</g>
</g>
<!-- Node20&#45;&gt;Node21 -->
<g id="edge20" class="edge">
<title>Node20&#45;&gt;Node21</title>
<path fill="none" stroke="midnightblue" d="M619.31,-426.5C642.6,-426.5 667.04,-426.5 689.17,-426.5"/>
<polygon fill="midnightblue" stroke="midnightblue" points="619.05,-423 609.05,-426.5 619.05,-430 619.05,-423"/>
</g>
<!-- Node23 -->
<g id="node23" class="node">
<title>Node23</title>
<g id="a_node23"><a xlink:href="class_black_gui_1_1_models_1_1_c_angle_degree_formatter.html" target="_top" xlink:title="Angle in degrees.">
<polygon fill="none" stroke="black" points="696.5,-329.5 696.5,-359.5 838.5,-359.5 838.5,-329.5 696.5,-329.5"/>
<text text-anchor="start" x="704.5" y="-347.5" font-family="Helvetica,sans-Serif" font-size="10.00">BlackGui::Models::CAngle</text>
<text text-anchor="middle" x="767.5" y="-336.5" font-family="Helvetica,sans-Serif" font-size="10.00">DegreeFormatter</text>
</a>
</g>
</g>
<!-- Node22&#45;&gt;Node23 -->
<g id="edge22" class="edge">
<title>Node22&#45;&gt;Node23</title>
<path fill="none" stroke="midnightblue" d="M616.68,-344.5C643.21,-344.5 671.42,-344.5 696.11,-344.5"/>
<polygon fill="midnightblue" stroke="midnightblue" points="616.61,-341 606.61,-344.5 616.61,-348 616.61,-341"/>
</g>
<!-- Node25 -->
<g id="node25" class="node">
<title>Node25</title>
<g id="a_node25"><a xlink:href="class_black_gui_1_1_models_1_1_c_com_frequency_formatter.html" target="_top" xlink:title="COM frequencies.">
<polygon fill="none" stroke="black" points="674,-252.5 674,-282.5 861,-282.5 861,-252.5 674,-252.5"/>
<text text-anchor="start" x="682" y="-270.5" font-family="Helvetica,sans-Serif" font-size="10.00">BlackGui::Models::CComFrequency</text>
<text text-anchor="middle" x="767.5" y="-259.5" font-family="Helvetica,sans-Serif" font-size="10.00">Formatter</text>
</a>
</g>
</g>
<!-- Node24&#45;&gt;Node25 -->
<g id="edge24" class="edge">
<title>Node24&#45;&gt;Node25</title>
<path fill="none" stroke="midnightblue" d="M648.18,-267.5C656.81,-267.5 665.41,-267.5 673.8,-267.5"/>
<polygon fill="midnightblue" stroke="midnightblue" points="648.04,-264 638.04,-267.5 648.04,-271 648.04,-264"/>
</g>
<!-- Node27 -->
<g id="node27" class="node">
<title>Node27</title>
<g id="a_node27"><a xlink:href="class_black_gui_1_1_models_1_1_c_speed_kts_formatter.html" target="_top" xlink:title="Speed displayed in kts.">
<polygon fill="none" stroke="black" points="695.5,-175.5 695.5,-205.5 839.5,-205.5 839.5,-175.5 695.5,-175.5"/>
<text text-anchor="start" x="703.5" y="-193.5" font-family="Helvetica,sans-Serif" font-size="10.00">BlackGui::Models::CSpeed</text>
<text text-anchor="middle" x="767.5" y="-182.5" font-family="Helvetica,sans-Serif" font-size="10.00">KtsFormatter</text>
</a>
</g>
</g>
<!-- Node26&#45;&gt;Node27 -->
<g id="edge26" class="edge">
<title>Node26&#45;&gt;Node27</title>
<path fill="none" stroke="midnightblue" d="M617.85,-190.5C643.68,-190.5 671.02,-190.5 695.12,-190.5"/>
<polygon fill="midnightblue" stroke="midnightblue" points="617.65,-187 607.65,-190.5 617.65,-194 617.65,-187"/>
</g>
<!-- Node29 -->
<g id="node29" class="node">
<title>Node29</title>
<g id="a_node29"><a xlink:href="class_black_gui_1_1_models_1_1_c_temperature_formatter.html" target="_top" xlink:title="Temperature in degrees.">
<polygon fill="none" stroke="black" points="679.5,-104.5 679.5,-134.5 855.5,-134.5 855.5,-104.5 679.5,-104.5"/>
<text text-anchor="start" x="687.5" y="-122.5" font-family="Helvetica,sans-Serif" font-size="10.00">BlackGui::Models::CTemperature</text>
<text text-anchor="middle" x="767.5" y="-111.5" font-family="Helvetica,sans-Serif" font-size="10.00">Formatter</text>
</a>
</g>
</g>
<!-- Node28&#45;&gt;Node29 -->
<g id="edge28" class="edge">
<title>Node28&#45;&gt;Node29</title>
<path fill="none" stroke="midnightblue" d="M631.11,-119.5C647.25,-119.5 663.67,-119.5 679.24,-119.5"/>
<polygon fill="midnightblue" stroke="midnightblue" points="631.1,-116 621.1,-119.5 631.1,-123 631.1,-116"/>
</g>
</g>
</svg>
