<?xml version="1.0" encoding="UTF-8" standalone="no"?>
<!DOCTYPE svg PUBLIC "-//W3C//DTD SVG 1.1//EN"
 "http://www.w3.org/Graphics/SVG/1.1/DTD/svg11.dtd">
<!-- Generated by graphviz version 2.43.0 (0)
 -->
<!-- Title: BlackCore::Fsd::CFSDClient Pages: 1 -->
<svg width="693pt" height="274pt"
 viewBox="0.00 0.00 693.00 273.50" xmlns="http://www.w3.org/2000/svg" xmlns:xlink="http://www.w3.org/1999/xlink">
<g id="graph0" class="graph" transform="scale(1 1) rotate(0) translate(4 269.5)">
<title>BlackCore::Fsd::CFSDClient</title>
<!-- Node1 -->
<g id="node1" class="node">
<title>Node1</title>
<g id="a_node1"><a xlink:title="FSD client Todo: Send (interim) data updates automatically Todo Check &#39;:&#39; in FSD messages....">
<polygon fill="#bfbfbf" stroke="black" points="536,-128 536,-147 685,-147 685,-128 536,-128"/>
<text text-anchor="middle" x="610.5" y="-135" font-family="Helvetica,sans-Serif" font-size="10.00">BlackCore::Fsd::CFSDClient</text>
</a>
</g>
</g>
<!-- Node2 -->
<g id="node2" class="node">
<title>Node2</title>
<g id="a_node2"><a xlink:href="class_black_misc_1_1_c_continuous_worker.html" target="_top" xlink:title="Base class for a long&#45;lived worker object which lives in its own thread.">
<polygon fill="none" stroke="black" points="329,-246 329,-265 496,-265 496,-246 329,-246"/>
<text text-anchor="middle" x="412.5" y="-253" font-family="Helvetica,sans-Serif" font-size="10.00">BlackMisc::CContinuousWorker</text>
</a>
</g>
</g>
<!-- Node2&#45;&gt;Node1 -->
<g id="edge1" class="edge">
<title>Node2&#45;&gt;Node1</title>
<path fill="none" stroke="midnightblue" d="M485.56,-242.74C490.55,-240.93 495.42,-238.86 500,-236.5 544.88,-213.38 585.53,-167.22 601.88,-147.17"/>
<polygon fill="midnightblue" stroke="midnightblue" points="484.25,-239.48 475.83,-245.92 486.43,-246.14 484.25,-239.48"/>
</g>
<!-- Node3 -->
<g id="node3" class="node">
<title>Node3</title>
<g id="a_node3"><a xlink:href="class_black_misc_1_1_c_worker_base.html" target="_top" xlink:title="Base class for CWorker and CContinuousWorker.">
<polygon fill="none" stroke="black" points="122,-246 122,-265 259,-265 259,-246 122,-246"/>
<text text-anchor="middle" x="190.5" y="-253" font-family="Helvetica,sans-Serif" font-size="10.00">BlackMisc::CWorkerBase</text>
</a>
</g>
</g>
<!-- Node3&#45;&gt;Node2 -->
<g id="edge2" class="edge">
<title>Node3&#45;&gt;Node2</title>
<path fill="none" stroke="midnightblue" d="M269.01,-255.5C288.43,-255.5 309.34,-255.5 329,-255.5"/>
<polygon fill="midnightblue" stroke="midnightblue" points="269,-252 259,-255.5 269,-259 269,-252"/>
</g>
<!-- Node4 -->
<g id="node4" class="node">
<title>Node4</title>
<g id="a_node4"><a target="_parent" xlink:href="http://doc.qt.io/qt-5/qobject.html" xlink:title=" ">
<polygon fill="none" stroke="black" points="0,-246 0,-265 56,-265 56,-246 0,-246"/>
<text text-anchor="middle" x="28" y="-253" font-family="Helvetica,sans-Serif" font-size="10.00">QObject</text>
</a>
</g>
</g>
<!-- Node4&#45;&gt;Node3 -->
<g id="edge3" class="edge">
<title>Node4&#45;&gt;Node3</title>
<path fill="none" stroke="midnightblue" d="M66.55,-255.5C83.07,-255.5 103,-255.5 121.96,-255.5"/>
<polygon fill="midnightblue" stroke="midnightblue" points="66.23,-252 56.23,-255.5 66.23,-259 66.23,-252"/>
</g>
<!-- Node5 -->
<g id="node5" class="node">
<title>Node5</title>
<g id="a_node5"><a xlink:href="class_black_misc_1_1_network_1_1_i_ecosystem_provider.html" target="_top" xlink:title="Direct threadsafe in memory access to current ecosystem.">
<polygon fill="none" stroke="black" points="353,-196.5 353,-226.5 472,-226.5 472,-196.5 353,-196.5"/>
<text text-anchor="start" x="361" y="-214.5" font-family="Helvetica,sans-Serif" font-size="10.00">BlackMisc::Network</text>
<text text-anchor="middle" x="412.5" y="-203.5" font-family="Helvetica,sans-Serif" font-size="10.00">::IEcosystemProvider</text>
</a>
</g>
</g>
<!-- Node5&#45;&gt;Node1 -->
<g id="edge4" class="edge">
<title>Node5&#45;&gt;Node1</title>
<path fill="none" stroke="midnightblue" d="M481.8,-193.64C487.99,-191.69 494.14,-189.64 500,-187.5 532.79,-175.55 569.4,-157.91 590.89,-147.09"/>
<polygon fill="midnightblue" stroke="midnightblue" points="480.61,-190.34 472.06,-196.6 482.65,-197.04 480.61,-190.34"/>
</g>
<!-- Node6 -->
<g id="node6" class="node">
<title>Node6</title>
<g id="a_node6"><a xlink:href="class_black_misc_1_1_i_provider.html" target="_top" xlink:title="Base class for providers.">
<polygon fill="none" stroke="black" points="132.5,-202 132.5,-221 248.5,-221 248.5,-202 132.5,-202"/>
<text text-anchor="middle" x="190.5" y="-209" font-family="Helvetica,sans-Serif" font-size="10.00">BlackMisc::IProvider</text>
</a>
</g>
</g>
<!-- Node6&#45;&gt;Node5 -->
<g id="edge5" class="edge">
<title>Node6&#45;&gt;Node5</title>
<path fill="none" stroke="midnightblue" d="M259.08,-211.5C288.98,-211.5 323.82,-211.5 352.64,-211.5"/>
<polygon fill="midnightblue" stroke="midnightblue" points="258.73,-208 248.73,-211.5 258.73,-215 258.73,-208"/>
</g>
<!-- Node7 -->
<g id="node7" class="node">
<title>Node7</title>
<g id="a_node7"><a xlink:href="class_black_misc_1_1_network_1_1_c_client_aware.html" target="_top" xlink:title="Class which can be directly used to access an.">
<polygon fill="none" stroke="black" points="356,-147.5 356,-177.5 469,-177.5 469,-147.5 356,-147.5"/>
<text text-anchor="start" x="364" y="-165.5" font-family="Helvetica,sans-Serif" font-size="10.00">BlackMisc::Network</text>
<text text-anchor="middle" x="412.5" y="-154.5" font-family="Helvetica,sans-Serif" font-size="10.00">::CClientAware</text>
</a>
</g>
</g>
<!-- Node7&#45;&gt;Node1 -->
<g id="edge6" class="edge">
<title>Node7&#45;&gt;Node1</title>
<path fill="none" stroke="midnightblue" d="M479.31,-154.11C497.44,-151.79 517.23,-149.27 535.77,-146.9"/>
<polygon fill="midnightblue" stroke="midnightblue" points="478.62,-150.67 469.14,-155.4 479.5,-157.61 478.62,-150.67"/>
</g>
<!-- Node8 -->
<g id="node8" class="node">
<title>Node8</title>
<g id="a_node8"><a xlink:href="class_black_misc_1_1_i_provider_aware.html" target="_top" xlink:title=" ">
<polygon fill="none" stroke="black" points="117.5,-147.5 117.5,-177.5 263.5,-177.5 263.5,-147.5 117.5,-147.5"/>
<text text-anchor="start" x="125.5" y="-165.5" font-family="Helvetica,sans-Serif" font-size="10.00">BlackMisc::IProviderAware</text>
<text text-anchor="middle" x="190.5" y="-154.5" font-family="Helvetica,sans-Serif" font-size="10.00">&lt; IClientProvider &gt;</text>
</a>
</g>
</g>
<!-- Node8&#45;&gt;Node7 -->
<g id="edge7" class="edge">
<title>Node8&#45;&gt;Node7</title>
<path fill="none" stroke="midnightblue" d="M273.86,-162.5C301.16,-162.5 330.89,-162.5 355.7,-162.5"/>
<polygon fill="midnightblue" stroke="midnightblue" points="273.54,-159 263.54,-162.5 273.54,-166 273.54,-159"/>
</g>
<!-- Node9 -->
<g id="node9" class="node">
<title>Node9</title>
<g id="a_node9"><a xlink:href="class_black_misc_1_1_simulation_1_1_c_own_aircraft_aware.html" target="_top" xlink:title="Delegating class which can be directly used to access an.">
<polygon fill="none" stroke="black" points="350,-98.5 350,-128.5 475,-128.5 475,-98.5 350,-98.5"/>
<text text-anchor="start" x="358" y="-116.5" font-family="Helvetica,sans-Serif" font-size="10.00">BlackMisc::Simulation</text>
<text text-anchor="middle" x="412.5" y="-105.5" font-family="Helvetica,sans-Serif" font-size="10.00">::COwnAircraftAware</text>
</a>
</g>
</g>
<!-- Node9&#45;&gt;Node1 -->
<g id="edge8" class="edge">
<title>Node9&#45;&gt;Node1</title>
<path fill="none" stroke="midnightblue" d="M485.31,-122.29C501.73,-124.3 519.21,-126.44 535.7,-128.46"/>
<polygon fill="midnightblue" stroke="midnightblue" points="485.6,-118.8 475.25,-121.06 484.75,-125.75 485.6,-118.8"/>
</g>
<!-- Node10 -->
<g id="node10" class="node">
<title>Node10</title>
<g id="a_node10"><a xlink:href="class_black_misc_1_1_i_provider_aware.html" target="_top" xlink:title=" ">
<polygon fill="none" stroke="black" points="117.5,-98.5 117.5,-128.5 263.5,-128.5 263.5,-98.5 117.5,-98.5"/>
<text text-anchor="start" x="125.5" y="-116.5" font-family="Helvetica,sans-Serif" font-size="10.00">BlackMisc::IProviderAware</text>
<text text-anchor="middle" x="190.5" y="-105.5" font-family="Helvetica,sans-Serif" font-size="10.00">&lt; IOwnAircraftProvider &gt;</text>
</a>
</g>
</g>
<!-- Node10&#45;&gt;Node9 -->
<g id="edge9" class="edge">
<title>Node10&#45;&gt;Node9</title>
<path fill="none" stroke="midnightblue" d="M273.79,-113.5C298.92,-113.5 326.11,-113.5 349.64,-113.5"/>
<polygon fill="midnightblue" stroke="midnightblue" points="273.54,-110 263.54,-113.5 273.54,-117 273.54,-110"/>
</g>
<!-- Node11 -->
<g id="node11" class="node">
<title>Node11</title>
<g id="a_node11"><a xlink:href="class_black_misc_1_1_simulation_1_1_c_remote_aircraft_aware.html" target="_top" xlink:title="Class which can be directly used to access an.">
<polygon fill="none" stroke="black" points="345.5,-49.5 345.5,-79.5 479.5,-79.5 479.5,-49.5 345.5,-49.5"/>
<text text-anchor="start" x="353.5" y="-67.5" font-family="Helvetica,sans-Serif" font-size="10.00">BlackMisc::Simulation</text>
<text text-anchor="middle" x="412.5" y="-56.5" font-family="Helvetica,sans-Serif" font-size="10.00">::CRemoteAircraftAware</text>
</a>
</g>
</g>
<!-- Node11&#45;&gt;Node1 -->
<g id="edge10" class="edge">
<title>Node11&#45;&gt;Node1</title>
<path fill="none" stroke="midnightblue" d="M479.27,-82.52C486.31,-84.74 493.33,-87.09 500,-89.5 532.01,-101.08 567.95,-117.53 589.64,-127.85"/>
<polygon fill="midnightblue" stroke="midnightblue" points="480.27,-79.17 469.68,-79.57 478.21,-85.86 480.27,-79.17"/>
</g>
<!-- Node12 -->
<g id="node12" class="node">
<title>Node12</title>
<g id="a_node12"><a xlink:href="class_black_misc_1_1_i_provider_aware.html" target="_top" xlink:title=" ">
<polygon fill="none" stroke="black" points="112.5,-49.5 112.5,-79.5 268.5,-79.5 268.5,-49.5 112.5,-49.5"/>
<text text-anchor="start" x="120.5" y="-67.5" font-family="Helvetica,sans-Serif" font-size="10.00">BlackMisc::IProviderAware</text>
<text text-anchor="middle" x="190.5" y="-56.5" font-family="Helvetica,sans-Serif" font-size="10.00">&lt; IRemoteAircraftProvider &gt;</text>
</a>
</g>
</g>
<!-- Node12&#45;&gt;Node11 -->
<g id="edge11" class="edge">
<title>Node12&#45;&gt;Node11</title>
<path fill="none" stroke="midnightblue" d="M278.84,-64.5C301.01,-64.5 324.46,-64.5 345.38,-64.5"/>
<polygon fill="midnightblue" stroke="midnightblue" points="278.75,-61 268.75,-64.5 278.75,-68 278.75,-61"/>
</g>
<!-- Node13 -->
<g id="node13" class="node">
<title>Node13</title>
<g id="a_node13"><a xlink:href="class_black_misc_1_1_simulation_1_1_c_simulation_environment_aware.html" target="_top" xlink:title="Class which can be directly used to access an.">
<polygon fill="none" stroke="black" points="325,-0.5 325,-30.5 500,-30.5 500,-0.5 325,-0.5"/>
<text text-anchor="start" x="333" y="-18.5" font-family="Helvetica,sans-Serif" font-size="10.00">BlackMisc::Simulation</text>
<text text-anchor="middle" x="412.5" y="-7.5" font-family="Helvetica,sans-Serif" font-size="10.00">::CSimulationEnvironmentAware</text>
</a>
</g>
</g>
<!-- Node13&#45;&gt;Node1 -->
<g id="edge12" class="edge">
<title>Node13&#45;&gt;Node1</title>
<path fill="none" stroke="midnightblue" d="M489.27,-34.26C492.96,-35.88 496.56,-37.62 500,-39.5 543.87,-63.49 584.75,-108.19 601.5,-127.83"/>
<polygon fill="midnightblue" stroke="midnightblue" points="490.51,-30.99 479.93,-30.51 487.9,-37.49 490.51,-30.99"/>
</g>
<!-- Node14 -->
<g id="node14" class="node">
<title>Node14</title>
<g id="a_node14"><a xlink:href="class_black_misc_1_1_i_provider_aware.html" target="_top" xlink:title=" ">
<polygon fill="none" stroke="black" points="92,-0.5 92,-30.5 289,-30.5 289,-0.5 92,-0.5"/>
<text text-anchor="start" x="100" y="-18.5" font-family="Helvetica,sans-Serif" font-size="10.00">BlackMisc::IProviderAware</text>
<text text-anchor="middle" x="190.5" y="-7.5" font-family="Helvetica,sans-Serif" font-size="10.00">&lt; ISimulationEnvironmentProvider &gt;</text>
</a>
</g>
</g>
<!-- Node14&#45;&gt;Node13 -->
<g id="edge13" class="edge">
<title>Node14&#45;&gt;Node13</title>
<path fill="none" stroke="midnightblue" d="M299.28,-15.5C307.82,-15.5 316.38,-15.5 324.75,-15.5"/>
<polygon fill="midnightblue" stroke="midnightblue" points="299.28,-12 289.28,-15.5 299.28,-19 299.28,-12"/>
</g>
</g>
</svg>
