<?xml version="1.0" encoding="UTF-8" standalone="no"?>
<!DOCTYPE svg PUBLIC "-//W3C//DTD SVG 1.1//EN"
 "http://www.w3.org/Graphics/SVG/1.1/DTD/svg11.dtd">
<!-- Generated by graphviz version 2.43.0 (0)
 -->
<!-- Title: BlackMisc::Simulation::IRemoteAircraftProvider Pages: 1 -->
<svg width="697pt" height="110pt"
 viewBox="0.00 0.00 697.00 110.00" xmlns="http://www.w3.org/2000/svg" xmlns:xlink="http://www.w3.org/1999/xlink">
<g id="graph0" class="graph" transform="scale(1 1) rotate(0) translate(4 106)">
<title>BlackMisc::Simulation::IRemoteAircraftProvider</title>
<!-- Node1 -->
<g id="node1" class="node">
<title>Node1</title>
<g id="a_node1"><a xlink:title="Direct thread safe in memory access to remote aircraft.">
<polygon fill="#bfbfbf" stroke="black" points="152,-46.5 152,-76.5 292,-76.5 292,-46.5 152,-46.5"/>
<text text-anchor="start" x="160" y="-64.5" font-family="Helvetica,sans-Serif" font-size="10.00">BlackMisc::Simulation</text>
<text text-anchor="middle" x="222" y="-53.5" font-family="Helvetica,sans-Serif" font-size="10.00">::IRemoteAircraftProvider</text>
</a>
</g>
</g>
<!-- Node3 -->
<g id="node3" class="node">
<title>Node3</title>
<g id="a_node3"><a xlink:href="class_black_core_1_1_context_1_1_c_context_network.html" target="_top" xlink:title="Network context implementation.">
<polygon fill="none" stroke="black" points="344.5,-71.5 344.5,-101.5 454.5,-101.5 454.5,-71.5 344.5,-71.5"/>
<text text-anchor="start" x="352.5" y="-89.5" font-family="Helvetica,sans-Serif" font-size="10.00">BlackCore::Context</text>
<text text-anchor="middle" x="399.5" y="-78.5" font-family="Helvetica,sans-Serif" font-size="10.00">::CContextNetwork</text>
</a>
</g>
</g>
<!-- Node1&#45;&gt;Node3 -->
<g id="edge2" class="edge">
<title>Node1&#45;&gt;Node3</title>
<path fill="none" stroke="midnightblue" d="M302.38,-72.81C316.58,-74.83 331.08,-76.9 344.37,-78.79"/>
<polygon fill="midnightblue" stroke="midnightblue" points="302.5,-69.29 292.11,-71.34 301.52,-76.22 302.5,-69.29"/>
</g>
<!-- Node4 -->
<g id="node4" class="node">
<title>Node4</title>
<g id="a_node4"><a xlink:href="class_black_misc_1_1_simulation_1_1_c_remote_aircraft_provider.html" target="_top" xlink:title="Implementaion of the interface, which can also be used for testing.">
<polygon fill="none" stroke="black" points="328,-22.5 328,-52.5 471,-52.5 471,-22.5 328,-22.5"/>
<text text-anchor="start" x="336" y="-40.5" font-family="Helvetica,sans-Serif" font-size="10.00">BlackMisc::Simulation</text>
<text text-anchor="middle" x="399.5" y="-29.5" font-family="Helvetica,sans-Serif" font-size="10.00">::CRemoteAircraftProvider</text>
</a>
</g>
</g>
<!-- Node1&#45;&gt;Node4 -->
<g id="edge3" class="edge">
<title>Node1&#45;&gt;Node4</title>
<path fill="none" stroke="midnightblue" d="M302.07,-50.69C310.62,-49.52 319.28,-48.33 327.72,-47.18"/>
<polygon fill="midnightblue" stroke="midnightblue" points="301.54,-47.23 292.11,-52.05 302.49,-54.16 301.54,-47.23"/>
</g>
<!-- Node2 -->
<g id="node2" class="node">
<title>Node2</title>
<g id="a_node2"><a xlink:href="class_black_misc_1_1_i_provider.html" target="_top" xlink:title="Base class for providers.">
<polygon fill="none" stroke="black" points="0,-52 0,-71 116,-71 116,-52 0,-52"/>
<text text-anchor="middle" x="58" y="-59" font-family="Helvetica,sans-Serif" font-size="10.00">BlackMisc::IProvider</text>
</a>
</g>
</g>
<!-- Node2&#45;&gt;Node1 -->
<g id="edge1" class="edge">
<title>Node2&#45;&gt;Node1</title>
<path fill="none" stroke="midnightblue" d="M126.3,-61.5C134.76,-61.5 143.42,-61.5 151.9,-61.5"/>
<polygon fill="midnightblue" stroke="midnightblue" points="126.12,-58 116.12,-61.5 126.12,-65 126.12,-58"/>
</g>
<!-- Node5 -->
<g id="node5" class="node">
<title>Node5</title>
<g id="a_node5"><a xlink:href="class_black_core_1_1_c_airspace_monitor.html" target="_top" xlink:title="Keeps track of other entities in the airspace: aircraft, ATC stations, etc. Central instance of data ...">
<polygon fill="none" stroke="black" points="519,-50 519,-69 677,-69 677,-50 519,-50"/>
<text text-anchor="middle" x="598" y="-57" font-family="Helvetica,sans-Serif" font-size="10.00">BlackCore::CAirspaceMonitor</text>
</a>
</g>
</g>
<!-- Node4&#45;&gt;Node5 -->
<g id="edge4" class="edge">
<title>Node4&#45;&gt;Node5</title>
<path fill="none" stroke="midnightblue" d="M481.47,-46.57C493.87,-47.95 506.64,-49.38 518.97,-50.76"/>
<polygon fill="midnightblue" stroke="midnightblue" points="481.49,-43.05 471.16,-45.41 480.71,-50 481.49,-43.05"/>
</g>
<!-- Node6 -->
<g id="node6" class="node">
<title>Node6</title>
<g id="a_node6"><a xlink:href="class_black_misc_1_1_simulation_1_1_c_remote_aircraft_provider_dummy.html" target="_top" xlink:title="Dummy implementation for testing purpose.">
<polygon fill="none" stroke="black" points="507,-0.5 507,-30.5 689,-30.5 689,-0.5 507,-0.5"/>
<text text-anchor="start" x="515" y="-18.5" font-family="Helvetica,sans-Serif" font-size="10.00">BlackMisc::Simulation</text>
<text text-anchor="middle" x="598" y="-7.5" font-family="Helvetica,sans-Serif" font-size="10.00">::CRemoteAircraftProviderDummy</text>
</a>
</g>
</g>
<!-- Node4&#45;&gt;Node6 -->
<g id="edge5" class="edge">
<title>Node4&#45;&gt;Node6</title>
<path fill="none" stroke="midnightblue" d="M481.3,-28.45C489.7,-27.51 498.28,-26.55 506.77,-25.6"/>
<polygon fill="midnightblue" stroke="midnightblue" points="480.71,-25 471.16,-29.59 481.49,-31.95 480.71,-25"/>
</g>
</g>
</svg>
