<?xml version="1.0" encoding="UTF-8" standalone="no"?>
<!DOCTYPE svg PUBLIC "-//W3C//DTD SVG 1.1//EN"
 "http://www.w3.org/Graphics/SVG/1.1/DTD/svg11.dtd">
<!-- Generated by graphviz version 2.43.0 (0)
 -->
<!-- Title: BlackMisc::CRangeBase&lt; Derived &gt; Pages: 1 -->
<svg width="529pt" height="2196pt"
 viewBox="0.00 0.00 529.00 2196.00" xmlns="http://www.w3.org/2000/svg" xmlns:xlink="http://www.w3.org/1999/xlink">
<g id="graph0" class="graph" transform="scale(1 1) rotate(0) translate(4 2192)">
<title>BlackMisc::CRangeBase&lt; Derived &gt;</title>
<!-- Node1 -->
<g id="node1" class="node">
<title>Node1</title>
<g id="a_node1"><a xlink:title="Any container class with begin and end iterators can inherit from this CRTP class to gain some useful...">
<polygon fill="#bfbfbf" stroke="black" points="0,-2108.5 0,-2138.5 134,-2138.5 134,-2108.5 0,-2108.5"/>
<text text-anchor="start" x="8" y="-2126.5" font-family="Helvetica,sans-Serif" font-size="10.00">BlackMisc::CRangeBase</text>
<text text-anchor="middle" x="67" y="-2115.5" font-family="Helvetica,sans-Serif" font-size="10.00">&lt; Derived &gt;</text>
</a>
</g>
</g>
<!-- Node2 -->
<g id="node2" class="node">
<title>Node2</title>
<g id="a_node2"><a xlink:href="class_black_misc_1_1_c_container_base.html" target="_top" xlink:title=" ">
<polygon fill="none" stroke="black" points="170,-2157.5 170,-2187.5 320,-2187.5 320,-2157.5 170,-2157.5"/>
<text text-anchor="start" x="178" y="-2175.5" font-family="Helvetica,sans-Serif" font-size="10.00">BlackMisc::CContainerBase</text>
<text text-anchor="middle" x="245" y="-2164.5" font-family="Helvetica,sans-Serif" font-size="10.00">&lt; CCollection&lt; T &gt; &gt;</text>
</a>
</g>
</g>
<!-- Node1&#45;&gt;Node2 -->
<g id="edge1" class="edge">
<title>Node1&#45;&gt;Node2</title>
<path fill="none" stroke="midnightblue" d="M132.01,-2141.32C151.01,-2146.61 171.63,-2152.35 189.94,-2157.45"/>
<polygon fill="midnightblue" stroke="midnightblue" points="132.81,-2137.91 122.24,-2138.6 130.94,-2144.66 132.81,-2137.91"/>
</g>
<!-- Node4 -->
<g id="node4" class="node">
<title>Node4</title>
<g id="a_node4"><a xlink:href="class_black_misc_1_1_c_container_base.html" target="_top" xlink:title=" ">
<polygon fill="none" stroke="black" points="170,-2108.5 170,-2138.5 320,-2138.5 320,-2108.5 170,-2108.5"/>
<text text-anchor="start" x="178" y="-2126.5" font-family="Helvetica,sans-Serif" font-size="10.00">BlackMisc::CContainerBase</text>
<text text-anchor="middle" x="245" y="-2115.5" font-family="Helvetica,sans-Serif" font-size="10.00">&lt; CSequence&lt; T &gt; &gt;</text>
</a>
</g>
</g>
<!-- Node1&#45;&gt;Node4 -->
<g id="edge3" class="edge">
<title>Node1&#45;&gt;Node4</title>
<path fill="none" stroke="midnightblue" d="M144.3,-2123.5C152.8,-2123.5 161.44,-2123.5 169.91,-2123.5"/>
<polygon fill="midnightblue" stroke="midnightblue" points="144.04,-2120 134.04,-2123.5 144.04,-2127 144.04,-2120"/>
</g>
<!-- Node6 -->
<g id="node6" class="node">
<title>Node6</title>
<g id="a_node6"><a xlink:href="class_black_misc_1_1_c_container_base.html" target="_top" xlink:title="Base class for CCollection and CSequence adding mutating operations and CValueObject facility on top ...">
<polygon fill="none" stroke="red" points="170,-1054.5 170,-1084.5 320,-1084.5 320,-1054.5 170,-1054.5"/>
<text text-anchor="start" x="178" y="-1072.5" font-family="Helvetica,sans-Serif" font-size="10.00">BlackMisc::CContainerBase</text>
<text text-anchor="middle" x="245" y="-1061.5" font-family="Helvetica,sans-Serif" font-size="10.00">&lt; Derived &gt;</text>
</a>
</g>
</g>
<!-- Node1&#45;&gt;Node6 -->
<g id="edge5" class="edge">
<title>Node1&#45;&gt;Node6</title>
<path fill="none" stroke="midnightblue" d="M72.22,-2098.25C96.88,-1950.52 222.11,-1200.57 241.48,-1084.58"/>
<polygon fill="midnightblue" stroke="midnightblue" points="68.75,-2097.75 70.56,-2108.19 75.66,-2098.91 68.75,-2097.75"/>
</g>
<!-- Node3 -->
<g id="node3" class="node">
<title>Node3</title>
<g id="a_node3"><a xlink:href="class_black_misc_1_1_c_collection.html" target="_top" xlink:title="Generic ordered container with value semantics.">
<polygon fill="none" stroke="black" points="360.5,-2163 360.5,-2182 516.5,-2182 516.5,-2163 360.5,-2163"/>
<text text-anchor="middle" x="438.5" y="-2170" font-family="Helvetica,sans-Serif" font-size="10.00">BlackMisc::CCollection&lt; T &gt;</text>
</a>
</g>
</g>
<!-- Node2&#45;&gt;Node3 -->
<g id="edge2" class="edge">
<title>Node2&#45;&gt;Node3</title>
<path fill="none" stroke="midnightblue" d="M330.08,-2172.5C340.19,-2172.5 350.48,-2172.5 360.49,-2172.5"/>
<polygon fill="midnightblue" stroke="midnightblue" points="330.04,-2169 320.04,-2172.5 330.04,-2176 330.04,-2169"/>
</g>
<!-- Node5 -->
<g id="node5" class="node">
<title>Node5</title>
<g id="a_node5"><a xlink:href="class_black_misc_1_1_c_sequence.html" target="_top" xlink:title="Generic sequential container with value semantics.">
<polygon fill="none" stroke="black" points="361,-2120 361,-2139 516,-2139 516,-2120 361,-2120"/>
<text text-anchor="middle" x="438.5" y="-2127" font-family="Helvetica,sans-Serif" font-size="10.00">BlackMisc::CSequence&lt; T &gt;</text>
</a>
</g>
</g>
<!-- Node4&#45;&gt;Node5 -->
<g id="edge4" class="edge">
<title>Node4&#45;&gt;Node5</title>
<path fill="none" stroke="midnightblue" d="M330.16,-2126.14C340.35,-2126.46 350.73,-2126.78 360.81,-2127.1"/>
<polygon fill="midnightblue" stroke="midnightblue" points="330.14,-2122.63 320.04,-2125.82 329.92,-2129.63 330.14,-2122.63"/>
</g>
<!-- Node7 -->
<g id="node7" class="node">
<title>Node7</title>
<g id="a_node7"><a xlink:href="class_black_misc_1_1_c_collection.html" target="_top" xlink:title=" ">
<polygon fill="none" stroke="red" points="374.5,-2070.5 374.5,-2100.5 502.5,-2100.5 502.5,-2070.5 374.5,-2070.5"/>
<text text-anchor="start" x="382.5" y="-2088.5" font-family="Helvetica,sans-Serif" font-size="10.00">BlackMisc::CCollection</text>
<text text-anchor="middle" x="438.5" y="-2077.5" font-family="Helvetica,sans-Serif" font-size="10.00">&lt; CIdentifier &gt;</text>
</a>
</g>
</g>
<!-- Node6&#45;&gt;Node7 -->
<g id="edge6" class="edge">
<title>Node6&#45;&gt;Node7</title>
<path fill="none" stroke="midnightblue" d="M247.15,-1094.8C254.05,-1242.07 291.87,-1984.97 356,-2061.5 360.93,-2067.38 367.21,-2071.86 374.11,-2075.27"/>
<polygon fill="midnightblue" stroke="midnightblue" points="250.63,-1094.35 246.67,-1084.52 243.64,-1094.67 250.63,-1094.35"/>
</g>
<!-- Node9 -->
<g id="node8" class="node">
<title>Node9</title>
<g id="a_node8"><a xlink:href="class_black_misc_1_1_c_collection.html" target="_top" xlink:title=" ">
<polygon fill="none" stroke="red" points="374.5,-2021.5 374.5,-2051.5 502.5,-2051.5 502.5,-2021.5 374.5,-2021.5"/>
<text text-anchor="start" x="382.5" y="-2039.5" font-family="Helvetica,sans-Serif" font-size="10.00">BlackMisc::CCollection</text>
<text text-anchor="middle" x="438.5" y="-2028.5" font-family="Helvetica,sans-Serif" font-size="10.00">&lt; CVPilotModelRule &gt;</text>
</a>
</g>
</g>
<!-- Node6&#45;&gt;Node9 -->
<g id="edge7" class="edge">
<title>Node6&#45;&gt;Node9</title>
<path fill="none" stroke="midnightblue" d="M247.31,-1094.88C254.88,-1237.96 294.98,-1940.1 356,-2012.5 360.94,-2018.37 367.24,-2022.84 374.14,-2026.24"/>
<polygon fill="midnightblue" stroke="midnightblue" points="250.78,-1094.31 246.76,-1084.51 243.79,-1094.68 250.78,-1094.31"/>
</g>
<!-- Node11 -->
<g id="node9" class="node">
<title>Node11</title>
<g id="a_node9"><a xlink:href="class_black_misc_1_1_c_collection.html" target="_top" xlink:title=" ">
<polygon fill="none" stroke="red" points="374.5,-1972.5 374.5,-2002.5 502.5,-2002.5 502.5,-1972.5 374.5,-1972.5"/>
<text text-anchor="start" x="382.5" y="-1990.5" font-family="Helvetica,sans-Serif" font-size="10.00">BlackMisc::CCollection</text>
<text text-anchor="middle" x="438.5" y="-1979.5" font-family="Helvetica,sans-Serif" font-size="10.00">&lt; CCallsign &gt;</text>
</a>
</g>
</g>
<!-- Node6&#45;&gt;Node11 -->
<g id="edge8" class="edge">
<title>Node6&#45;&gt;Node11</title>
<path fill="none" stroke="midnightblue" d="M247.48,-1094.87C255.75,-1233.46 298.08,-1895.21 356,-1963.5 360.96,-1969.35 367.27,-1973.81 374.17,-1977.21"/>
<polygon fill="midnightblue" stroke="midnightblue" points="250.96,-1094.56 246.88,-1084.79 243.98,-1094.98 250.96,-1094.56"/>
</g>
<!-- Node13 -->
<g id="node10" class="node">
<title>Node13</title>
<g id="a_node10"><a xlink:href="class_black_misc_1_1_c_collection.html" target="_top" xlink:title=" ">
<polygon fill="none" stroke="red" points="374.5,-1923.5 374.5,-1953.5 502.5,-1953.5 502.5,-1923.5 374.5,-1923.5"/>
<text text-anchor="start" x="382.5" y="-1941.5" font-family="Helvetica,sans-Serif" font-size="10.00">BlackMisc::CCollection</text>
<text text-anchor="middle" x="438.5" y="-1930.5" font-family="Helvetica,sans-Serif" font-size="10.00">&lt; CPlatform &gt;</text>
</a>
</g>
</g>
<!-- Node6&#45;&gt;Node13 -->
<g id="edge9" class="edge">
<title>Node6&#45;&gt;Node13</title>
<path fill="none" stroke="midnightblue" d="M245.72,-1094.82C244.8,-1221.66 246.99,-1786.88 356,-1914.5 360.98,-1920.33 367.3,-1924.78 374.21,-1928.18"/>
<polygon fill="midnightblue" stroke="midnightblue" points="249.22,-1094.59 245.8,-1084.56 242.22,-1094.53 249.22,-1094.59"/>
</g>
<!-- Node15 -->
<g id="node11" class="node">
<title>Node15</title>
<g id="a_node11"><a xlink:href="class_black_misc_1_1_c_sequence.html" target="_top" xlink:title=" ">
<polygon fill="none" stroke="red" points="359.5,-1874.5 359.5,-1904.5 517.5,-1904.5 517.5,-1874.5 359.5,-1874.5"/>
<text text-anchor="start" x="367.5" y="-1892.5" font-family="Helvetica,sans-Serif" font-size="10.00">BlackMisc::CSequence</text>
<text text-anchor="middle" x="438.5" y="-1881.5" font-family="Helvetica,sans-Serif" font-size="10.00">&lt; CWeatherDataPluginInfo &gt;</text>
</a>
</g>
</g>
<!-- Node6&#45;&gt;Node15 -->
<g id="edge10" class="edge">
<title>Node6&#45;&gt;Node15</title>
<path fill="none" stroke="midnightblue" d="M245.94,-1094.9C246.17,-1217.38 253.16,-1746.07 356,-1865.5 358.89,-1868.85 362.22,-1871.75 365.85,-1874.25"/>
<polygon fill="midnightblue" stroke="midnightblue" points="249.44,-1094.64 245.94,-1084.64 242.44,-1094.64 249.44,-1094.64"/>
</g>
<!-- Node17 -->
<g id="node12" class="node">
<title>Node17</title>
<g id="a_node12"><a xlink:href="class_black_misc_1_1_c_sequence.html" target="_top" xlink:title=" ">
<polygon fill="none" stroke="red" points="375.5,-1825.5 375.5,-1855.5 501.5,-1855.5 501.5,-1825.5 375.5,-1825.5"/>
<text text-anchor="start" x="383.5" y="-1843.5" font-family="Helvetica,sans-Serif" font-size="10.00">BlackMisc::CSequence</text>
<text text-anchor="middle" x="438.5" y="-1832.5" font-family="Helvetica,sans-Serif" font-size="10.00">&lt; CUrlLog &gt;</text>
</a>
</g>
</g>
<!-- Node6&#45;&gt;Node17 -->
<g id="edge11" class="edge">
<title>Node6&#45;&gt;Node17</title>
<path fill="none" stroke="midnightblue" d="M246.19,-1094.82C247.6,-1212.53 259.28,-1705.18 356,-1816.5 361.22,-1822.51 367.87,-1827.06 375.11,-1830.48"/>
<polygon fill="midnightblue" stroke="midnightblue" points="249.69,-1094.59 246.09,-1084.63 242.69,-1094.66 249.69,-1094.59"/>
</g>
<!-- Node19 -->
<g id="node13" class="node">
<title>Node19</title>
<g id="a_node13"><a xlink:href="class_black_misc_1_1_c_sequence.html" target="_top" xlink:title=" ">
<polygon fill="none" stroke="red" points="375.5,-1776.5 375.5,-1806.5 501.5,-1806.5 501.5,-1776.5 375.5,-1776.5"/>
<text text-anchor="start" x="383.5" y="-1794.5" font-family="Helvetica,sans-Serif" font-size="10.00">BlackMisc::CSequence</text>
<text text-anchor="middle" x="438.5" y="-1783.5" font-family="Helvetica,sans-Serif" font-size="10.00">&lt; CAircraftSituation &gt;</text>
</a>
</g>
</g>
<!-- Node6&#45;&gt;Node19 -->
<g id="edge12" class="edge">
<title>Node6&#45;&gt;Node19</title>
<path fill="none" stroke="midnightblue" d="M246.48,-1094.59C249.12,-1207.12 265.35,-1664.22 356,-1767.5 361.25,-1773.49 367.92,-1778.01 375.16,-1781.43"/>
<polygon fill="midnightblue" stroke="midnightblue" points="249.97,-1094.44 246.26,-1084.52 242.98,-1094.6 249.97,-1094.44"/>
</g>
<!-- Node21 -->
<g id="node14" class="node">
<title>Node21</title>
<g id="a_node14"><a xlink:href="class_black_misc_1_1_c_sequence.html" target="_top" xlink:title=" ">
<polygon fill="none" stroke="red" points="375.5,-1727.5 375.5,-1757.5 501.5,-1757.5 501.5,-1727.5 375.5,-1727.5"/>
<text text-anchor="start" x="383.5" y="-1745.5" font-family="Helvetica,sans-Serif" font-size="10.00">BlackMisc::CSequence</text>
<text text-anchor="middle" x="438.5" y="-1734.5" font-family="Helvetica,sans-Serif" font-size="10.00">&lt; CAircraftModel &gt;</text>
</a>
</g>
</g>
<!-- Node6&#45;&gt;Node21 -->
<g id="edge13" class="edge">
<title>Node6&#45;&gt;Node21</title>
<path fill="none" stroke="midnightblue" d="M246.81,-1094.87C250.79,-1202.9 271.53,-1623.38 356,-1718.5 361.29,-1724.46 367.97,-1728.97 375.23,-1732.38"/>
<polygon fill="midnightblue" stroke="midnightblue" points="250.3,-1094.47 246.45,-1084.6 243.31,-1094.72 250.3,-1094.47"/>
</g>
<!-- Node23 -->
<g id="node15" class="node">
<title>Node23</title>
<g id="a_node15"><a xlink:href="class_black_misc_1_1_c_sequence.html" target="_top" xlink:title=" ">
<polygon fill="none" stroke="red" points="375.5,-1678.5 375.5,-1708.5 501.5,-1708.5 501.5,-1678.5 375.5,-1678.5"/>
<text text-anchor="start" x="383.5" y="-1696.5" font-family="Helvetica,sans-Serif" font-size="10.00">BlackMisc::CSequence</text>
<text text-anchor="middle" x="438.5" y="-1685.5" font-family="Helvetica,sans-Serif" font-size="10.00">&lt; CClient &gt;</text>
</a>
</g>
</g>
<!-- Node6&#45;&gt;Node23 -->
<g id="edge14" class="edge">
<title>Node6&#45;&gt;Node23</title>
<path fill="none" stroke="midnightblue" d="M247.18,-1094.6C252.52,-1197.06 277.56,-1582.35 356,-1669.5 361.33,-1675.42 368.04,-1679.91 375.3,-1683.31"/>
<polygon fill="midnightblue" stroke="midnightblue" points="250.68,-1094.36 246.68,-1084.55 243.69,-1094.72 250.68,-1094.36"/>
</g>
<!-- Node25 -->
<g id="node16" class="node">
<title>Node25</title>
<g id="a_node16"><a xlink:href="class_black_misc_1_1_c_sequence.html" target="_top" xlink:title=" ">
<polygon fill="none" stroke="red" points="375.5,-1629.5 375.5,-1659.5 501.5,-1659.5 501.5,-1629.5 375.5,-1629.5"/>
<text text-anchor="start" x="383.5" y="-1647.5" font-family="Helvetica,sans-Serif" font-size="10.00">BlackMisc::CSequence</text>
<text text-anchor="middle" x="438.5" y="-1636.5" font-family="Helvetica,sans-Serif" font-size="10.00">&lt; CPropertyIndex &gt;</text>
</a>
</g>
</g>
<!-- Node6&#45;&gt;Node25 -->
<g id="edge15" class="edge">
<title>Node6&#45;&gt;Node25</title>
<path fill="none" stroke="midnightblue" d="M247.64,-1094.72C254.46,-1192 283.66,-1541.39 356,-1620.5 361.38,-1626.38 368.11,-1630.84 375.39,-1634.23"/>
<polygon fill="midnightblue" stroke="midnightblue" points="251.12,-1094.36 246.95,-1084.62 244.14,-1094.84 251.12,-1094.36"/>
</g>
<!-- Node27 -->
<g id="node17" class="node">
<title>Node27</title>
<g id="a_node17"><a xlink:href="class_black_misc_1_1_c_sequence.html" target="_top" xlink:title=" ">
<polygon fill="none" stroke="red" points="369.5,-1580.5 369.5,-1610.5 507.5,-1610.5 507.5,-1580.5 369.5,-1580.5"/>
<text text-anchor="start" x="377.5" y="-1598.5" font-family="Helvetica,sans-Serif" font-size="10.00">BlackMisc::CSequence</text>
<text text-anchor="middle" x="438.5" y="-1587.5" font-family="Helvetica,sans-Serif" font-size="10.00">&lt; CNavDataReference &gt;</text>
</a>
</g>
</g>
<!-- Node6&#45;&gt;Node27 -->
<g id="edge16" class="edge">
<title>Node6&#45;&gt;Node27</title>
<path fill="none" stroke="midnightblue" d="M248.22,-1094.76C256.74,-1186.31 290.25,-1499.16 356,-1570.5 359.81,-1574.64 364.29,-1578.09 369.15,-1580.99"/>
<polygon fill="midnightblue" stroke="midnightblue" points="251.69,-1094.36 247.3,-1084.72 244.72,-1095 251.69,-1094.36"/>
</g>
<!-- Node29 -->
<g id="node18" class="node">
<title>Node29</title>
<g id="a_node18"><a xlink:href="class_black_misc_1_1_c_sequence.html" target="_top" xlink:title=" ">
<polygon fill="none" stroke="red" points="356,-1520 356,-1561 521,-1561 521,-1520 356,-1520"/>
<text text-anchor="start" x="364" y="-1549" font-family="Helvetica,sans-Serif" font-size="10.00">BlackMisc::CSequence</text>
<text text-anchor="start" x="364" y="-1538" font-family="Helvetica,sans-Serif" font-size="10.00">&lt; CInterpolationAndRendering</text>
<text text-anchor="middle" x="438.5" y="-1527" font-family="Helvetica,sans-Serif" font-size="10.00">SetupPerCallsign &gt;</text>
</a>
</g>
</g>
<!-- Node6&#45;&gt;Node29 -->
<g id="edge17" class="edge">
<title>Node6&#45;&gt;Node29</title>
<path fill="none" stroke="midnightblue" d="M249.19,-1094.87C260.24,-1179.04 299.33,-1447.34 356,-1510.5 359.12,-1513.98 362.68,-1517.06 366.53,-1519.78"/>
<polygon fill="midnightblue" stroke="midnightblue" points="252.65,-1094.36 247.9,-1084.89 245.71,-1095.26 252.65,-1094.36"/>
</g>
<!-- Node31 -->
<g id="node19" class="node">
<title>Node31</title>
<g id="a_node19"><a xlink:href="class_black_misc_1_1_c_sequence.html" target="_top" xlink:title=" ">
<polygon fill="none" stroke="red" points="375.5,-1470.5 375.5,-1500.5 501.5,-1500.5 501.5,-1470.5 375.5,-1470.5"/>
<text text-anchor="start" x="383.5" y="-1488.5" font-family="Helvetica,sans-Serif" font-size="10.00">BlackMisc::CSequence</text>
<text text-anchor="middle" x="438.5" y="-1477.5" font-family="Helvetica,sans-Serif" font-size="10.00">&lt; CDistributor &gt;</text>
</a>
</g>
</g>
<!-- Node6&#45;&gt;Node31 -->
<g id="edge18" class="edge">
<title>Node6&#45;&gt;Node31</title>
<path fill="none" stroke="midnightblue" d="M245.25,-1095.19C244.69,-1164.5 252.98,-1357.15 356,-1461.5 361.49,-1467.06 368.2,-1471.35 375.39,-1474.65"/>
<polygon fill="midnightblue" stroke="midnightblue" points="248.76,-1094.85 245.41,-1084.8 241.76,-1094.74 248.76,-1094.85"/>
</g>
<!-- Node33 -->
<g id="node20" class="node">
<title>Node33</title>
<g id="a_node20"><a xlink:href="class_black_misc_1_1_c_sequence.html" target="_top" xlink:title=" ">
<polygon fill="none" stroke="red" points="375.5,-1421.5 375.5,-1451.5 501.5,-1451.5 501.5,-1421.5 375.5,-1421.5"/>
<text text-anchor="start" x="383.5" y="-1439.5" font-family="Helvetica,sans-Serif" font-size="10.00">BlackMisc::CSequence</text>
<text text-anchor="middle" x="438.5" y="-1428.5" font-family="Helvetica,sans-Serif" font-size="10.00">&lt; CLogCategory &gt;</text>
</a>
</g>
</g>
<!-- Node6&#45;&gt;Node33 -->
<g id="edge19" class="edge">
<title>Node6&#45;&gt;Node33</title>
<path fill="none" stroke="midnightblue" d="M246.46,-1094.96C249.03,-1158.1 264.61,-1323.28 356,-1412.5 361.49,-1417.86 368.11,-1422.03 375.18,-1425.28"/>
<polygon fill="midnightblue" stroke="midnightblue" points="249.95,-1094.6 246.13,-1084.72 242.96,-1094.83 249.95,-1094.6"/>
</g>
<!-- Node35 -->
<g id="node21" class="node">
<title>Node35</title>
<g id="a_node21"><a xlink:href="class_black_misc_1_1_c_sequence.html" target="_top" xlink:title=" ">
<polygon fill="none" stroke="red" points="359.5,-1372.5 359.5,-1402.5 517.5,-1402.5 517.5,-1372.5 359.5,-1372.5"/>
<text text-anchor="start" x="367.5" y="-1390.5" font-family="Helvetica,sans-Serif" font-size="10.00">BlackMisc::CSequence</text>
<text text-anchor="middle" x="438.5" y="-1379.5" font-family="Helvetica,sans-Serif" font-size="10.00">&lt; CDatabaseReaderConfig &gt;</text>
</a>
</g>
</g>
<!-- Node6&#45;&gt;Node35 -->
<g id="edge20" class="edge">
<title>Node6&#45;&gt;Node35</title>
<path fill="none" stroke="midnightblue" d="M248.02,-1094.76C253.92,-1151.35 276.16,-1289.18 356,-1363.5 359.67,-1366.92 363.8,-1369.85 368.21,-1372.37"/>
<polygon fill="midnightblue" stroke="midnightblue" points="251.48,-1094.19 247.05,-1084.56 244.51,-1094.85 251.48,-1094.19"/>
</g>
<!-- Node37 -->
<g id="node22" class="node">
<title>Node37</title>
<g id="a_node22"><a xlink:href="class_black_misc_1_1_c_sequence.html" target="_top" xlink:title=" ">
<polygon fill="none" stroke="red" points="373,-1323.5 373,-1353.5 504,-1353.5 504,-1323.5 373,-1323.5"/>
<text text-anchor="start" x="381" y="-1341.5" font-family="Helvetica,sans-Serif" font-size="10.00">BlackMisc::CSequence</text>
<text text-anchor="middle" x="438.5" y="-1330.5" font-family="Helvetica,sans-Serif" font-size="10.00">&lt; CSimulatedAircraft &gt;</text>
</a>
</g>
</g>
<!-- Node6&#45;&gt;Node37 -->
<g id="edge21" class="edge">
<title>Node6&#45;&gt;Node37</title>
<path fill="none" stroke="midnightblue" d="M250.13,-1094.64C259.62,-1144.18 287.6,-1254.8 356,-1314.5 361,-1318.86 366.76,-1322.44 372.86,-1325.36"/>
<polygon fill="midnightblue" stroke="midnightblue" points="253.57,-1093.97 248.34,-1084.76 246.68,-1095.23 253.57,-1093.97"/>
</g>
<!-- Node39 -->
<g id="node23" class="node">
<title>Node39</title>
<g id="a_node23"><a xlink:href="class_black_misc_1_1_c_sequence.html" target="_top" xlink:title=" ">
<polygon fill="none" stroke="red" points="358,-1274.5 358,-1304.5 519,-1304.5 519,-1274.5 358,-1274.5"/>
<text text-anchor="start" x="366" y="-1292.5" font-family="Helvetica,sans-Serif" font-size="10.00">BlackMisc::CSequence</text>
<text text-anchor="middle" x="438.5" y="-1281.5" font-family="Helvetica,sans-Serif" font-size="10.00">&lt; CMatchingStatisticsEntry &gt;</text>
</a>
</g>
</g>
<!-- Node6&#45;&gt;Node39 -->
<g id="edge22" class="edge">
<title>Node6&#45;&gt;Node39</title>
<path fill="none" stroke="midnightblue" d="M253.1,-1094.23C266.34,-1135.86 298.75,-1219.88 356,-1265.5 360.27,-1268.9 365,-1271.82 369.99,-1274.33"/>
<polygon fill="midnightblue" stroke="midnightblue" points="256.43,-1093.14 250.15,-1084.6 249.74,-1095.19 256.43,-1093.14"/>
</g>
<!-- Node41 -->
<g id="node24" class="node">
<title>Node41</title>
<g id="a_node24"><a xlink:href="class_black_misc_1_1_c_sequence.html" target="_top" xlink:title=" ">
<polygon fill="none" stroke="red" points="375.5,-1225.5 375.5,-1255.5 501.5,-1255.5 501.5,-1225.5 375.5,-1225.5"/>
<text text-anchor="start" x="383.5" y="-1243.5" font-family="Helvetica,sans-Serif" font-size="10.00">BlackMisc::CSequence</text>
<text text-anchor="middle" x="438.5" y="-1232.5" font-family="Helvetica,sans-Serif" font-size="10.00">&lt; CTextMessage &gt;</text>
</a>
</g>
</g>
<!-- Node6&#45;&gt;Node41 -->
<g id="edge23" class="edge">
<title>Node6&#45;&gt;Node41</title>
<path fill="none" stroke="midnightblue" d="M257.81,-1093.81C274.93,-1126.54 309.75,-1184.35 356,-1216.5 361.93,-1220.62 368.58,-1224.05 375.46,-1226.89"/>
<polygon fill="midnightblue" stroke="midnightblue" points="260.73,-1091.84 253.07,-1084.52 254.49,-1095.02 260.73,-1091.84"/>
</g>
<!-- Node43 -->
<g id="node25" class="node">
<title>Node43</title>
<g id="a_node25"><a xlink:href="class_black_misc_1_1_c_sequence.html" target="_top" xlink:title=" ">
<polygon fill="none" stroke="red" points="375.5,-1176.5 375.5,-1206.5 501.5,-1206.5 501.5,-1176.5 375.5,-1176.5"/>
<text text-anchor="start" x="383.5" y="-1194.5" font-family="Helvetica,sans-Serif" font-size="10.00">BlackMisc::CSequence</text>
<text text-anchor="middle" x="438.5" y="-1183.5" font-family="Helvetica,sans-Serif" font-size="10.00">&lt; CRole &gt;</text>
</a>
</g>
</g>
<!-- Node6&#45;&gt;Node43 -->
<g id="edge24" class="edge">
<title>Node6&#45;&gt;Node43</title>
<path fill="none" stroke="midnightblue" d="M265.94,-1092.36C286.45,-1114.55 320.36,-1147.7 356,-1167.5 362.06,-1170.87 368.64,-1173.81 375.35,-1176.36"/>
<polygon fill="midnightblue" stroke="midnightblue" points="268.32,-1089.78 259.01,-1084.73 263.14,-1094.49 268.32,-1089.78"/>
</g>
<!-- Node45 -->
<g id="node26" class="node">
<title>Node45</title>
<g id="a_node26"><a xlink:href="class_black_misc_1_1_c_sequence.html" target="_top" xlink:title=" ">
<polygon fill="none" stroke="red" points="375.5,-1127.5 375.5,-1157.5 501.5,-1157.5 501.5,-1127.5 375.5,-1127.5"/>
<text text-anchor="start" x="383.5" y="-1145.5" font-family="Helvetica,sans-Serif" font-size="10.00">BlackMisc::CSequence</text>
<text text-anchor="middle" x="438.5" y="-1134.5" font-family="Helvetica,sans-Serif" font-size="10.00">&lt; CVisibilityLayer &gt;</text>
</a>
</g>
</g>
<!-- Node6&#45;&gt;Node45 -->
<g id="edge25" class="edge">
<title>Node6&#45;&gt;Node45</title>
<path fill="none" stroke="midnightblue" d="M285.94,-1088.83C306.59,-1098.42 332.35,-1109.79 356,-1118.5 364.58,-1121.66 373.79,-1124.7 382.81,-1127.48"/>
<polygon fill="midnightblue" stroke="midnightblue" points="287.38,-1085.64 276.84,-1084.56 284.41,-1091.97 287.38,-1085.64"/>
</g>
<!-- Node47 -->
<g id="node27" class="node">
<title>Node47</title>
<g id="a_node27"><a xlink:href="class_black_misc_1_1_c_sequence.html" target="_top" xlink:title=" ">
<polygon fill="none" stroke="red" points="375.5,-1078.5 375.5,-1108.5 501.5,-1108.5 501.5,-1078.5 375.5,-1078.5"/>
<text text-anchor="start" x="383.5" y="-1096.5" font-family="Helvetica,sans-Serif" font-size="10.00">BlackMisc::CSequence</text>
<text text-anchor="middle" x="438.5" y="-1085.5" font-family="Helvetica,sans-Serif" font-size="10.00">&lt; CIdentifier &gt;</text>
</a>
</g>
</g>
<!-- Node6&#45;&gt;Node47 -->
<g id="edge26" class="edge">
<title>Node6&#45;&gt;Node47</title>
<path fill="none" stroke="midnightblue" d="M330,-1080.03C345.28,-1081.94 360.96,-1083.91 375.46,-1085.72"/>
<polygon fill="midnightblue" stroke="midnightblue" points="330.4,-1076.55 320.04,-1078.78 329.53,-1083.5 330.4,-1076.55"/>
</g>
<!-- Node49 -->
<g id="node28" class="node">
<title>Node49</title>
<g id="a_node28"><a xlink:href="class_black_misc_1_1_c_sequence.html" target="_top" xlink:title=" ">
<polygon fill="none" stroke="red" points="375.5,-1029.5 375.5,-1059.5 501.5,-1059.5 501.5,-1029.5 375.5,-1029.5"/>
<text text-anchor="start" x="383.5" y="-1047.5" font-family="Helvetica,sans-Serif" font-size="10.00">BlackMisc::CSequence</text>
<text text-anchor="middle" x="438.5" y="-1036.5" font-family="Helvetica,sans-Serif" font-size="10.00">&lt; CAirlineIcaoCode &gt;</text>
</a>
</g>
</g>
<!-- Node6&#45;&gt;Node49 -->
<g id="edge27" class="edge">
<title>Node6&#45;&gt;Node49</title>
<path fill="none" stroke="midnightblue" d="M330,-1058.53C345.28,-1056.54 360.96,-1054.49 375.46,-1052.6"/>
<polygon fill="midnightblue" stroke="midnightblue" points="329.5,-1055.07 320.04,-1059.83 330.41,-1062.01 329.5,-1055.07"/>
</g>
<!-- Node51 -->
<g id="node29" class="node">
<title>Node51</title>
<g id="a_node29"><a xlink:href="class_black_misc_1_1_c_sequence.html" target="_top" xlink:title=" ">
<polygon fill="none" stroke="red" points="375.5,-980.5 375.5,-1010.5 501.5,-1010.5 501.5,-980.5 375.5,-980.5"/>
<text text-anchor="start" x="383.5" y="-998.5" font-family="Helvetica,sans-Serif" font-size="10.00">BlackMisc::CSequence</text>
<text text-anchor="middle" x="438.5" y="-987.5" font-family="Helvetica,sans-Serif" font-size="10.00">&lt; CAircraftCategory &gt;</text>
</a>
</g>
</g>
<!-- Node6&#45;&gt;Node51 -->
<g id="edge28" class="edge">
<title>Node6&#45;&gt;Node51</title>
<path fill="none" stroke="midnightblue" d="M286.43,-1050.08C307.01,-1040.55 332.57,-1029.27 356,-1020.5 365.29,-1017.02 375.29,-1013.65 385.01,-1010.57"/>
<polygon fill="midnightblue" stroke="midnightblue" points="284.93,-1046.91 277.35,-1054.31 287.89,-1053.26 284.93,-1046.91"/>
</g>
<!-- Node53 -->
<g id="node30" class="node">
<title>Node53</title>
<g id="a_node30"><a xlink:href="class_black_misc_1_1_c_sequence.html" target="_top" xlink:title=" ">
<polygon fill="none" stroke="red" points="375.5,-931.5 375.5,-961.5 501.5,-961.5 501.5,-931.5 375.5,-931.5"/>
<text text-anchor="start" x="383.5" y="-949.5" font-family="Helvetica,sans-Serif" font-size="10.00">BlackMisc::CSequence</text>
<text text-anchor="middle" x="438.5" y="-938.5" font-family="Helvetica,sans-Serif" font-size="10.00">&lt; CDbInfo &gt;</text>
</a>
</g>
</g>
<!-- Node6&#45;&gt;Node53 -->
<g id="edge29" class="edge">
<title>Node6&#45;&gt;Node53</title>
<path fill="none" stroke="midnightblue" d="M265.98,-1046.72C286.53,-1024.6 320.47,-991.5 356,-971.5 362.71,-967.72 370.05,-964.45 377.5,-961.63"/>
<polygon fill="midnightblue" stroke="midnightblue" points="263.19,-1044.58 259.04,-1054.33 268.37,-1049.3 263.19,-1044.58"/>
</g>
<!-- Node55 -->
<g id="node31" class="node">
<title>Node55</title>
<g id="a_node31"><a xlink:href="class_black_misc_1_1_c_sequence.html" target="_top" xlink:title=" ">
<polygon fill="none" stroke="red" points="375.5,-882.5 375.5,-912.5 501.5,-912.5 501.5,-882.5 375.5,-882.5"/>
<text text-anchor="start" x="383.5" y="-900.5" font-family="Helvetica,sans-Serif" font-size="10.00">BlackMisc::CSequence</text>
<text text-anchor="middle" x="438.5" y="-889.5" font-family="Helvetica,sans-Serif" font-size="10.00">&lt; CSimulatorInfo &gt;</text>
</a>
</g>
</g>
<!-- Node6&#45;&gt;Node55 -->
<g id="edge30" class="edge">
<title>Node6&#45;&gt;Node55</title>
<path fill="none" stroke="midnightblue" d="M258.12,-1044.76C275.4,-1012.03 310.16,-954.74 356,-922.5 361.93,-918.33 368.58,-914.84 375.45,-911.92"/>
<polygon fill="midnightblue" stroke="midnightblue" points="254.8,-1043.58 253.33,-1054.07 261.02,-1046.78 254.8,-1043.58"/>
</g>
<!-- Node57 -->
<g id="node32" class="node">
<title>Node57</title>
<g id="a_node32"><a xlink:href="class_black_misc_1_1_c_sequence.html" target="_top" xlink:title=" ">
<polygon fill="none" stroke="red" points="367,-833.5 367,-863.5 510,-863.5 510,-833.5 367,-833.5"/>
<text text-anchor="start" x="375" y="-851.5" font-family="Helvetica,sans-Serif" font-size="10.00">BlackMisc::CSequence</text>
<text text-anchor="middle" x="438.5" y="-840.5" font-family="Helvetica,sans-Serif" font-size="10.00">&lt; CCoordinateGeodetic &gt;</text>
</a>
</g>
</g>
<!-- Node6&#45;&gt;Node57 -->
<g id="edge31" class="edge">
<title>Node6&#45;&gt;Node57</title>
<path fill="none" stroke="midnightblue" d="M253.16,-1044.84C266.47,-1003.31 299.01,-919.44 356,-873.5 360.84,-869.6 366.28,-866.3 372.01,-863.52"/>
<polygon fill="midnightblue" stroke="midnightblue" points="249.8,-1043.85 250.18,-1054.44 256.49,-1045.92 249.8,-1043.85"/>
</g>
<!-- Node59 -->
<g id="node33" class="node">
<title>Node59</title>
<g id="a_node33"><a xlink:href="class_black_misc_1_1_c_sequence.html" target="_top" xlink:title=" ">
<polygon fill="none" stroke="black" points="375.5,-784.5 375.5,-814.5 501.5,-814.5 501.5,-784.5 375.5,-784.5"/>
<text text-anchor="start" x="383.5" y="-802.5" font-family="Helvetica,sans-Serif" font-size="10.00">BlackMisc::CSequence</text>
<text text-anchor="middle" x="438.5" y="-791.5" font-family="Helvetica,sans-Serif" font-size="10.00">&lt; QJsonObject &gt;</text>
</a>
</g>
</g>
<!-- Node6&#45;&gt;Node59 -->
<g id="edge32" class="edge">
<title>Node6&#45;&gt;Node59</title>
<path fill="none" stroke="midnightblue" d="M250.19,-1044.43C259.78,-995 287.94,-884.58 356,-824.5 361.66,-819.5 368.3,-815.51 375.3,-812.31"/>
<polygon fill="midnightblue" stroke="midnightblue" points="246.75,-1043.81 248.37,-1054.28 253.63,-1045.08 246.75,-1043.81"/>
</g>
<!-- Node60 -->
<g id="node34" class="node">
<title>Node60</title>
<g id="a_node34"><a xlink:href="class_black_misc_1_1_c_sequence.html" target="_top" xlink:title=" ">
<polygon fill="none" stroke="red" points="375.5,-735.5 375.5,-765.5 501.5,-765.5 501.5,-735.5 375.5,-735.5"/>
<text text-anchor="start" x="383.5" y="-753.5" font-family="Helvetica,sans-Serif" font-size="10.00">BlackMisc::CSequence</text>
<text text-anchor="middle" x="438.5" y="-742.5" font-family="Helvetica,sans-Serif" font-size="10.00">&lt; CCloudLayer &gt;</text>
</a>
</g>
</g>
<!-- Node6&#45;&gt;Node60 -->
<g id="edge33" class="edge">
<title>Node6&#45;&gt;Node60</title>
<path fill="none" stroke="midnightblue" d="M248.08,-1044.31C254.11,-987.84 276.58,-850.27 356,-775.5 361.6,-770.22 368.29,-766.06 375.4,-762.78"/>
<polygon fill="midnightblue" stroke="midnightblue" points="244.58,-1044.18 247.08,-1054.48 251.54,-1044.87 244.58,-1044.18"/>
</g>
<!-- Node62 -->
<g id="node35" class="node">
<title>Node62</title>
<g id="a_node35"><a xlink:href="class_black_misc_1_1_c_sequence.html" target="_top" xlink:title=" ">
<polygon fill="none" stroke="red" points="375.5,-686.5 375.5,-716.5 501.5,-716.5 501.5,-686.5 375.5,-686.5"/>
<text text-anchor="start" x="383.5" y="-704.5" font-family="Helvetica,sans-Serif" font-size="10.00">BlackMisc::CSequence</text>
<text text-anchor="middle" x="438.5" y="-693.5" font-family="Helvetica,sans-Serif" font-size="10.00">&lt; CUser &gt;</text>
</a>
</g>
</g>
<!-- Node6&#45;&gt;Node62 -->
<g id="edge34" class="edge">
<title>Node6&#45;&gt;Node62</title>
<path fill="none" stroke="midnightblue" d="M246.53,-1044.11C249.23,-981.1 265.12,-816.24 356,-726.5 361.48,-721.09 368.09,-716.85 375.15,-713.52"/>
<polygon fill="midnightblue" stroke="midnightblue" points="243.02,-1044.2 246.17,-1054.32 250.02,-1044.45 243.02,-1044.2"/>
</g>
<!-- Node64 -->
<g id="node36" class="node">
<title>Node64</title>
<g id="a_node36"><a xlink:href="class_black_misc_1_1_c_sequence.html" target="_top" xlink:title=" ">
<polygon fill="none" stroke="red" points="374.5,-637.5 374.5,-667.5 502.5,-667.5 502.5,-637.5 374.5,-637.5"/>
<text text-anchor="start" x="382.5" y="-655.5" font-family="Helvetica,sans-Serif" font-size="10.00">BlackMisc::CSequence</text>
<text text-anchor="middle" x="438.5" y="-644.5" font-family="Helvetica,sans-Serif" font-size="10.00">&lt; CNameVariantPair &gt;</text>
</a>
</g>
</g>
<!-- Node6&#45;&gt;Node64 -->
<g id="edge35" class="edge">
<title>Node6&#45;&gt;Node64</title>
<path fill="none" stroke="midnightblue" d="M245.32,-1043.87C244.91,-974.71 253.57,-782.43 356,-677.5 361.17,-672.2 367.43,-668.02 374.15,-664.73"/>
<polygon fill="midnightblue" stroke="midnightblue" points="241.82,-1044.29 245.45,-1054.24 248.82,-1044.2 241.82,-1044.29"/>
</g>
<!-- Node66 -->
<g id="node37" class="node">
<title>Node66</title>
<g id="a_node37"><a xlink:href="class_black_misc_1_1_c_sequence.html" target="_top" xlink:title=" ">
<polygon fill="none" stroke="red" points="358,-588.5 358,-618.5 519,-618.5 519,-588.5 358,-588.5"/>
<text text-anchor="start" x="366" y="-606.5" font-family="Helvetica,sans-Serif" font-size="10.00">BlackMisc::CSequence</text>
<text text-anchor="middle" x="438.5" y="-595.5" font-family="Helvetica,sans-Serif" font-size="10.00">&lt; CAircraftSituationChange &gt;</text>
</a>
</g>
</g>
<!-- Node6&#45;&gt;Node66 -->
<g id="edge36" class="edge">
<title>Node6&#45;&gt;Node66</title>
<path fill="none" stroke="midnightblue" d="M248.99,-1044.57C259.52,-960.65 297.49,-690.21 356,-628.5 359.67,-624.63 363.91,-621.36 368.5,-618.59"/>
<polygon fill="midnightblue" stroke="midnightblue" points="245.51,-1044.15 247.76,-1054.5 252.46,-1045 245.51,-1044.15"/>
</g>
<!-- Node68 -->
<g id="node38" class="node">
<title>Node68</title>
<g id="a_node38"><a xlink:href="class_black_misc_1_1_c_sequence.html" target="_top" xlink:title=" ">
<polygon fill="none" stroke="red" points="375.5,-539.5 375.5,-569.5 501.5,-569.5 501.5,-539.5 375.5,-539.5"/>
<text text-anchor="start" x="383.5" y="-557.5" font-family="Helvetica,sans-Serif" font-size="10.00">BlackMisc::CSequence</text>
<text text-anchor="middle" x="438.5" y="-546.5" font-family="Helvetica,sans-Serif" font-size="10.00">&lt; CAircraftEngine &gt;</text>
</a>
</g>
</g>
<!-- Node6&#45;&gt;Node68 -->
<g id="edge37" class="edge">
<title>Node6&#45;&gt;Node68</title>
<path fill="none" stroke="midnightblue" d="M248.35,-1044.22C257.24,-953.93 291.6,-649.05 356,-579.5 361.43,-573.64 368.2,-569.13 375.49,-565.68"/>
<polygon fill="midnightblue" stroke="midnightblue" points="244.85,-1044.08 247.37,-1054.37 251.82,-1044.75 244.85,-1044.08"/>
</g>
<!-- Node70 -->
<g id="node39" class="node">
<title>Node70</title>
<g id="a_node39"><a xlink:href="class_black_misc_1_1_c_sequence.html" target="_top" xlink:title=" ">
<polygon fill="none" stroke="red" points="375.5,-490.5 375.5,-520.5 501.5,-520.5 501.5,-490.5 375.5,-490.5"/>
<text text-anchor="start" x="383.5" y="-508.5" font-family="Helvetica,sans-Serif" font-size="10.00">BlackMisc::CSequence</text>
<text text-anchor="middle" x="438.5" y="-497.5" font-family="Helvetica,sans-Serif" font-size="10.00">&lt; CWindLayer &gt;</text>
</a>
</g>
</g>
<!-- Node6&#45;&gt;Node70 -->
<g id="edge38" class="edge">
<title>Node6&#45;&gt;Node70</title>
<path fill="none" stroke="midnightblue" d="M247.79,-1044.25C255.09,-948.32 285.6,-608.03 356,-530.5 361.37,-524.58 368.1,-520.05 375.38,-516.58"/>
<polygon fill="midnightblue" stroke="midnightblue" points="244.28,-1044.23 247.03,-1054.46 251.26,-1044.75 244.28,-1044.23"/>
</g>
<!-- Node72 -->
<g id="node40" class="node">
<title>Node72</title>
<g id="a_node40"><a xlink:href="class_black_misc_1_1_c_sequence.html" target="_top" xlink:title=" ">
<polygon fill="none" stroke="red" points="375.5,-441.5 375.5,-471.5 501.5,-471.5 501.5,-441.5 375.5,-441.5"/>
<text text-anchor="start" x="383.5" y="-459.5" font-family="Helvetica,sans-Serif" font-size="10.00">BlackMisc::CSequence</text>
<text text-anchor="middle" x="438.5" y="-448.5" font-family="Helvetica,sans-Serif" font-size="10.00">&lt; CApplicationInfo &gt;</text>
</a>
</g>
</g>
<!-- Node6&#45;&gt;Node72 -->
<g id="edge39" class="edge">
<title>Node6&#45;&gt;Node72</title>
<path fill="none" stroke="midnightblue" d="M247.32,-1044.29C253.13,-943 279.56,-567.08 356,-481.5 361.32,-475.54 368.03,-470.98 375.29,-467.5"/>
<polygon fill="midnightblue" stroke="midnightblue" points="243.82,-1044.31 246.75,-1054.49 250.8,-1044.7 243.82,-1044.31"/>
</g>
<!-- Node74 -->
<g id="node41" class="node">
<title>Node74</title>
<g id="a_node41"><a xlink:href="class_black_misc_1_1_c_sequence.html" target="_top" xlink:title=" ">
<polygon fill="none" stroke="red" points="375.5,-392.5 375.5,-422.5 501.5,-422.5 501.5,-392.5 375.5,-392.5"/>
<text text-anchor="start" x="383.5" y="-410.5" font-family="Helvetica,sans-Serif" font-size="10.00">BlackMisc::CSequence</text>
<text text-anchor="middle" x="438.5" y="-399.5" font-family="Helvetica,sans-Serif" font-size="10.00">&lt; CLivery &gt;</text>
</a>
</g>
</g>
<!-- Node6&#45;&gt;Node74 -->
<g id="edge40" class="edge">
<title>Node6&#45;&gt;Node74</title>
<path fill="none" stroke="midnightblue" d="M246.93,-1044.27C251.33,-937.77 273.52,-526.14 356,-432.5 361.28,-426.5 367.96,-421.92 375.22,-418.43"/>
<polygon fill="midnightblue" stroke="midnightblue" points="243.42,-1044.27 246.52,-1054.4 250.42,-1044.55 243.42,-1044.27"/>
</g>
<!-- Node76 -->
<g id="node42" class="node">
<title>Node76</title>
<g id="a_node42"><a xlink:href="class_black_misc_1_1_c_sequence.html" target="_top" xlink:title=" ">
<polygon fill="none" stroke="red" points="373,-343.5 373,-373.5 504,-373.5 504,-343.5 373,-343.5"/>
<text text-anchor="start" x="381" y="-361.5" font-family="Helvetica,sans-Serif" font-size="10.00">BlackMisc::CSequence</text>
<text text-anchor="middle" x="438.5" y="-350.5" font-family="Helvetica,sans-Serif" font-size="10.00">&lt; CAircraftCfgEntries &gt;</text>
</a>
</g>
</g>
<!-- Node6&#45;&gt;Node76 -->
<g id="edge41" class="edge">
<title>Node6&#45;&gt;Node76</title>
<path fill="none" stroke="midnightblue" d="M246.59,-1044.16C249.68,-932.48 267.49,-485.22 356,-383.5 360.66,-378.14 366.44,-373.91 372.76,-370.58"/>
<polygon fill="midnightblue" stroke="midnightblue" points="243.08,-1044.37 246.32,-1054.45 250.08,-1044.55 243.08,-1044.37"/>
</g>
<!-- Node78 -->
<g id="node43" class="node">
<title>Node78</title>
<g id="a_node43"><a xlink:href="class_black_misc_1_1_c_sequence.html" target="_top" xlink:title=" ">
<polygon fill="none" stroke="red" points="374.5,-294.5 374.5,-324.5 502.5,-324.5 502.5,-294.5 374.5,-294.5"/>
<text text-anchor="start" x="382.5" y="-312.5" font-family="Helvetica,sans-Serif" font-size="10.00">BlackMisc::CSequence</text>
<text text-anchor="middle" x="438.5" y="-301.5" font-family="Helvetica,sans-Serif" font-size="10.00">&lt; CRawFsdMessage &gt;</text>
</a>
</g>
</g>
<!-- Node6&#45;&gt;Node78 -->
<g id="edge42" class="edge">
<title>Node6&#45;&gt;Node78</title>
<path fill="none" stroke="midnightblue" d="M246.29,-1044.23C248.12,-927.83 261.39,-444.38 356,-334.5 361.02,-328.67 367.37,-324.17 374.29,-320.71"/>
<polygon fill="midnightblue" stroke="midnightblue" points="242.79,-1044.27 246.14,-1054.32 249.79,-1044.37 242.79,-1044.27"/>
</g>
<!-- Node80 -->
<g id="node44" class="node">
<title>Node80</title>
<g id="a_node44"><a xlink:href="class_black_misc_1_1_c_sequence.html" target="_top" xlink:title=" ">
<polygon fill="none" stroke="red" points="375.5,-245.5 375.5,-275.5 501.5,-275.5 501.5,-245.5 375.5,-245.5"/>
<text text-anchor="start" x="383.5" y="-263.5" font-family="Helvetica,sans-Serif" font-size="10.00">BlackMisc::CSequence</text>
<text text-anchor="middle" x="438.5" y="-252.5" font-family="Helvetica,sans-Serif" font-size="10.00">&lt; CEcosystem &gt;</text>
</a>
</g>
</g>
<!-- Node6&#45;&gt;Node80 -->
<g id="edge43" class="edge">
<title>Node6&#45;&gt;Node80</title>
<path fill="none" stroke="midnightblue" d="M246.03,-1044.12C246.67,-922.85 255.33,-403.5 356,-285.5 361.28,-279.31 368.06,-274.62 375.44,-271.08"/>
<polygon fill="midnightblue" stroke="midnightblue" points="242.53,-1044.27 245.99,-1054.29 249.53,-1044.3 242.53,-1044.27"/>
</g>
<!-- Node82 -->
<g id="node45" class="node">
<title>Node82</title>
<g id="a_node45"><a xlink:href="class_black_misc_1_1_c_sequence.html" target="_top" xlink:title=" ">
<polygon fill="none" stroke="red" points="375.5,-196.5 375.5,-226.5 501.5,-226.5 501.5,-196.5 375.5,-196.5"/>
<text text-anchor="start" x="383.5" y="-214.5" font-family="Helvetica,sans-Serif" font-size="10.00">BlackMisc::CSequence</text>
<text text-anchor="middle" x="438.5" y="-203.5" font-family="Helvetica,sans-Serif" font-size="10.00">&lt; CCountry &gt;</text>
</a>
</g>
</g>
<!-- Node6&#45;&gt;Node82 -->
<g id="edge44" class="edge">
<title>Node6&#45;&gt;Node82</title>
<path fill="none" stroke="midnightblue" d="M245.8,-1044.15C245.29,-918.43 249.22,-362.7 356,-236.5 361.26,-230.29 368.02,-225.59 375.39,-222.04"/>
<polygon fill="midnightblue" stroke="midnightblue" points="242.3,-1044.36 245.85,-1054.34 249.3,-1044.32 242.3,-1044.36"/>
</g>
<!-- Node84 -->
<g id="node46" class="node">
<title>Node84</title>
<g id="a_node46"><a xlink:href="class_black_misc_1_1_c_sequence.html" target="_top" xlink:title=" ">
<polygon fill="none" stroke="red" points="375.5,-147.5 375.5,-177.5 501.5,-177.5 501.5,-147.5 375.5,-147.5"/>
<text text-anchor="start" x="383.5" y="-165.5" font-family="Helvetica,sans-Serif" font-size="10.00">BlackMisc::CSequence</text>
<text text-anchor="middle" x="438.5" y="-154.5" font-family="Helvetica,sans-Serif" font-size="10.00">&lt; CAtcStation &gt;</text>
</a>
</g>
</g>
<!-- Node6&#45;&gt;Node84 -->
<g id="edge45" class="edge">
<title>Node6&#45;&gt;Node84</title>
<path fill="none" stroke="midnightblue" d="M245.59,-1044.34C243.99,-914.58 243.05,-321.98 356,-187.5 361.24,-181.27 367.98,-176.56 375.35,-173.01"/>
<polygon fill="midnightblue" stroke="midnightblue" points="242.09,-1044.53 245.73,-1054.48 249.09,-1044.43 242.09,-1044.53"/>
</g>
<!-- Node86 -->
<g id="node47" class="node">
<title>Node86</title>
<g id="a_node47"><a xlink:href="class_black_misc_1_1_c_sequence.html" target="_top" xlink:title=" ">
<polygon fill="none" stroke="red" points="375.5,-98.5 375.5,-128.5 501.5,-128.5 501.5,-98.5 375.5,-98.5"/>
<text text-anchor="start" x="383.5" y="-116.5" font-family="Helvetica,sans-Serif" font-size="10.00">BlackMisc::CSequence</text>
<text text-anchor="middle" x="438.5" y="-105.5" font-family="Helvetica,sans-Serif" font-size="10.00">&lt; CGridPoint &gt;</text>
</a>
</g>
</g>
<!-- Node6&#45;&gt;Node86 -->
<g id="edge46" class="edge">
<title>Node6&#45;&gt;Node86</title>
<path fill="none" stroke="midnightblue" d="M247.37,-1044.01C255.2,-901.78 296.16,-210.21 356,-138.5 361.22,-132.25 367.95,-127.53 375.31,-123.98"/>
<polygon fill="midnightblue" stroke="midnightblue" points="243.85,-1044.15 246.8,-1054.33 250.84,-1044.53 243.85,-1044.15"/>
</g>
<!-- Node88 -->
<g id="node48" class="node">
<title>Node88</title>
<g id="a_node48"><a xlink:href="class_black_misc_1_1_c_sequence.html" target="_top" xlink:title=" ">
<polygon fill="none" stroke="red" points="371.5,-49.5 371.5,-79.5 505.5,-79.5 505.5,-49.5 371.5,-49.5"/>
<text text-anchor="start" x="379.5" y="-67.5" font-family="Helvetica,sans-Serif" font-size="10.00">BlackMisc::CSequence</text>
<text text-anchor="middle" x="438.5" y="-56.5" font-family="Helvetica,sans-Serif" font-size="10.00">&lt; CTemperatureLayer &gt;</text>
</a>
</g>
</g>
<!-- Node6&#45;&gt;Node88 -->
<g id="edge47" class="edge">
<title>Node6&#45;&gt;Node88</title>
<path fill="none" stroke="midnightblue" d="M247.21,-1044.05C254.36,-897.54 293.08,-165.35 356,-89.5 360.25,-84.37 365.53,-80.28 371.34,-77.01"/>
<polygon fill="midnightblue" stroke="midnightblue" points="243.7,-1044.13 246.71,-1054.29 250.69,-1044.47 243.7,-1044.13"/>
</g>
<!-- Node90 -->
<g id="node49" class="node">
<title>Node90</title>
<g id="a_node49"><a xlink:href="class_black_misc_1_1_c_sequence.html" target="_top" xlink:title=" ">
<polygon fill="none" stroke="red" points="375.5,-0.5 375.5,-30.5 501.5,-30.5 501.5,-0.5 375.5,-0.5"/>
<text text-anchor="start" x="383.5" y="-18.5" font-family="Helvetica,sans-Serif" font-size="10.00">BlackMisc::CSequence</text>
<text text-anchor="middle" x="438.5" y="-7.5" font-family="Helvetica,sans-Serif" font-size="10.00">&lt; CKeyboardKey &gt;</text>
</a>
</g>
</g>
<!-- Node6&#45;&gt;Node90 -->
<g id="edge48" class="edge">
<title>Node6&#45;&gt;Node90</title>
<path fill="none" stroke="midnightblue" d="M247.04,-1044.17C253.45,-893.52 289.47,-119.23 356,-39.5 361.2,-33.27 367.92,-28.61 375.28,-25.13"/>
<polygon fill="midnightblue" stroke="midnightblue" points="243.54,-1044.15 246.62,-1054.29 250.53,-1044.45 243.54,-1044.15"/>
</g>
</g>
</svg>
