<?xml version="1.0" encoding="UTF-8" standalone="no"?>
<!DOCTYPE svg PUBLIC "-//W3C//DTD SVG 1.1//EN"
 "http://www.w3.org/Graphics/SVG/1.1/DTD/svg11.dtd">
<!-- Generated by graphviz version 2.43.0 (0)
 -->
<!-- Title: BlackGui::Components::COtherSwiftVersionsComponent Pages: 1 -->
<svg width="186pt" height="207pt"
 viewBox="0.00 0.00 186.00 207.00" xmlns="http://www.w3.org/2000/svg" xmlns:xlink="http://www.w3.org/1999/xlink">
<g id="graph0" class="graph" transform="scale(1 1) rotate(0) translate(4 203)">
<title>BlackGui::Components::COtherSwiftVersionsComponent</title>
<!-- Node1 -->
<g id="node1" class="node">
<title>Node1</title>
<g id="a_node1"><a xlink:title="Overview about other &quot;swift&quot; versions.">
<polygon fill="#bfbfbf" stroke="black" points="0,-0.5 0,-30.5 178,-30.5 178,-0.5 0,-0.5"/>
<text text-anchor="start" x="8" y="-18.5" font-family="Helvetica,sans-Serif" font-size="10.00">BlackGui::Components</text>
<text text-anchor="middle" x="89" y="-7.5" font-family="Helvetica,sans-Serif" font-size="10.00">::COtherSwiftVersionsComponent</text>
</a>
</g>
</g>
<!-- Node2 -->
<g id="node2" class="node">
<title>Node2</title>
<g id="a_node2"><a target="_parent" xlink:href="http://doc.qt.io/qt-5/qframe.html" xlink:title=" ">
<polygon fill="none" stroke="black" points="61.5,-67.5 61.5,-86.5 116.5,-86.5 116.5,-67.5 61.5,-67.5"/>
<text text-anchor="middle" x="89" y="-74.5" font-family="Helvetica,sans-Serif" font-size="10.00">QFrame</text>
</a>
</g>
</g>
<!-- Node2&#45;&gt;Node1 -->
<g id="edge1" class="edge">
<title>Node2&#45;&gt;Node1</title>
<path fill="none" stroke="midnightblue" d="M89,-57.23C89,-48.59 89,-38.5 89,-30.52"/>
<polygon fill="midnightblue" stroke="midnightblue" points="85.5,-57.48 89,-67.48 92.5,-57.48 85.5,-57.48"/>
</g>
<!-- Node3 -->
<g id="node3" class="node">
<title>Node3</title>
<g id="a_node3"><a target="_parent" xlink:href="http://doc.qt.io/qt-5/qwidget.html" xlink:title=" ">
<polygon fill="none" stroke="black" points="59.5,-123.5 59.5,-142.5 118.5,-142.5 118.5,-123.5 59.5,-123.5"/>
<text text-anchor="middle" x="89" y="-130.5" font-family="Helvetica,sans-Serif" font-size="10.00">QWidget</text>
</a>
</g>
</g>
<!-- Node3&#45;&gt;Node2 -->
<g id="edge2" class="edge">
<title>Node3&#45;&gt;Node2</title>
<path fill="none" stroke="midnightblue" d="M89,-112.8C89,-103.91 89,-93.78 89,-86.75"/>
<polygon fill="midnightblue" stroke="midnightblue" points="85.5,-113.08 89,-123.08 92.5,-113.08 85.5,-113.08"/>
</g>
<!-- Node4 -->
<g id="node4" class="node">
<title>Node4</title>
<g id="a_node4"><a target="_parent" xlink:href="http://doc.qt.io/qt-5/qobject.html" xlink:title=" ">
<polygon fill="none" stroke="black" points="18,-179.5 18,-198.5 74,-198.5 74,-179.5 18,-179.5"/>
<text text-anchor="middle" x="46" y="-186.5" font-family="Helvetica,sans-Serif" font-size="10.00">QObject</text>
</a>
</g>
</g>
<!-- Node4&#45;&gt;Node3 -->
<g id="edge3" class="edge">
<title>Node4&#45;&gt;Node3</title>
<path fill="none" stroke="midnightblue" d="M59.42,-171.14C66.91,-161.74 75.94,-150.4 82.03,-142.75"/>
<polygon fill="midnightblue" stroke="midnightblue" points="56.59,-169.08 53.1,-179.08 62.07,-173.44 56.59,-169.08"/>
</g>
<!-- Node5 -->
<g id="node5" class="node">
<title>Node5</title>
<g id="a_node5"><a target="_parent" xlink:href="http://doc.qt.io/qt-5/qpaintdevice.html" xlink:title=" ">
<polygon fill="none" stroke="black" points="92,-179.5 92,-198.5 174,-198.5 174,-179.5 92,-179.5"/>
<text text-anchor="middle" x="133" y="-186.5" font-family="Helvetica,sans-Serif" font-size="10.00">QPaintDevice</text>
</a>
</g>
</g>
<!-- Node5&#45;&gt;Node3 -->
<g id="edge4" class="edge">
<title>Node5&#45;&gt;Node3</title>
<path fill="none" stroke="midnightblue" d="M119.27,-171.14C111.6,-161.74 102.37,-150.4 96.13,-142.75"/>
<polygon fill="midnightblue" stroke="midnightblue" points="116.7,-173.54 125.73,-179.08 122.13,-169.12 116.7,-173.54"/>
</g>
</g>
</svg>
