<?xml version="1.0" encoding="UTF-8" standalone="no"?>
<!DOCTYPE svg PUBLIC "-//W3C//DTD SVG 1.1//EN"
 "http://www.w3.org/Graphics/SVG/1.1/DTD/svg11.dtd">
<!-- Generated by graphviz version 2.43.0 (0)
 -->
<!-- Title: BlackMisc::Simulation::CSimulatedAircraftList Pages: 1 -->
<svg width="772pt" height="377pt"
 viewBox="0.00 0.00 772.00 377.00" xmlns="http://www.w3.org/2000/svg" xmlns:xlink="http://www.w3.org/1999/xlink">
<g id="graph0" class="graph" transform="scale(1 1) rotate(0) translate(4 373)">
<title>BlackMisc::Simulation::CSimulatedAircraftList</title>
<!-- Node1 -->
<g id="node1" class="node">
<title>Node1</title>
<g id="a_node1"><a xlink:title="Value object encapsulating a list of aircraft.">
<polygon fill="#bfbfbf" stroke="black" points="633,-95.5 633,-125.5 764,-125.5 764,-95.5 633,-95.5"/>
<text text-anchor="start" x="641" y="-113.5" font-family="Helvetica,sans-Serif" font-size="10.00">BlackMisc::Simulation</text>
<text text-anchor="middle" x="698.5" y="-102.5" font-family="Helvetica,sans-Serif" font-size="10.00">::CSimulatedAircraftList</text>
</a>
</g>
</g>
<!-- Node2 -->
<g id="node2" class="node">
<title>Node2</title>
<g id="a_node2"><a xlink:href="class_black_misc_1_1_c_sequence.html" target="_top" xlink:title=" ">
<polygon fill="none" stroke="black" points="440.5,-191.5 440.5,-221.5 571.5,-221.5 571.5,-191.5 440.5,-191.5"/>
<text text-anchor="start" x="448.5" y="-209.5" font-family="Helvetica,sans-Serif" font-size="10.00">BlackMisc::CSequence</text>
<text text-anchor="middle" x="506" y="-198.5" font-family="Helvetica,sans-Serif" font-size="10.00">&lt; CSimulatedAircraft &gt;</text>
</a>
</g>
</g>
<!-- Node2&#45;&gt;Node1 -->
<g id="edge1" class="edge">
<title>Node2&#45;&gt;Node1</title>
<path fill="none" stroke="midnightblue" d="M581.56,-188.91C586.87,-186.96 592.06,-184.83 597,-182.5 629.02,-167.38 661.52,-141.84 680.57,-125.59"/>
<polygon fill="midnightblue" stroke="midnightblue" points="580.25,-185.66 571.93,-192.22 582.52,-192.28 580.25,-185.66"/>
</g>
<!-- Node3 -->
<g id="node3" class="node">
<title>Node3</title>
<g id="a_node3"><a xlink:href="class_black_misc_1_1_c_container_base.html" target="_top" xlink:title="Base class for CCollection and CSequence adding mutating operations and CValueObject facility on top ...">
<polygon fill="none" stroke="black" points="222,-240.5 222,-270.5 372,-270.5 372,-240.5 222,-240.5"/>
<text text-anchor="start" x="230" y="-258.5" font-family="Helvetica,sans-Serif" font-size="10.00">BlackMisc::CContainerBase</text>
<text text-anchor="middle" x="297" y="-247.5" font-family="Helvetica,sans-Serif" font-size="10.00">&lt; Derived &gt;</text>
</a>
</g>
</g>
<!-- Node3&#45;&gt;Node2 -->
<g id="edge2" class="edge">
<title>Node3&#45;&gt;Node2</title>
<path fill="none" stroke="midnightblue" d="M371.52,-238.1C394.42,-232.68 419.46,-226.75 441.61,-221.51"/>
<polygon fill="midnightblue" stroke="midnightblue" points="370.44,-234.76 361.51,-240.47 372.05,-241.57 370.44,-234.76"/>
</g>
<!-- Node4 -->
<g id="node4" class="node">
<title>Node4</title>
<g id="a_node4"><a xlink:href="class_black_misc_1_1_c_range_base.html" target="_top" xlink:title="Any container class with begin and end iterators can inherit from this CRTP class to gain some useful...">
<polygon fill="none" stroke="black" points="22.5,-338.5 22.5,-368.5 156.5,-368.5 156.5,-338.5 22.5,-338.5"/>
<text text-anchor="start" x="30.5" y="-356.5" font-family="Helvetica,sans-Serif" font-size="10.00">BlackMisc::CRangeBase</text>
<text text-anchor="middle" x="89.5" y="-345.5" font-family="Helvetica,sans-Serif" font-size="10.00">&lt; Derived &gt;</text>
</a>
</g>
</g>
<!-- Node4&#45;&gt;Node3 -->
<g id="edge3" class="edge">
<title>Node4&#45;&gt;Node3</title>
<path fill="none" stroke="midnightblue" d="M164.63,-335.19C169.55,-333.43 174.38,-331.53 179,-329.5 215.52,-313.44 253.87,-287.09 276.33,-270.55"/>
<polygon fill="midnightblue" stroke="midnightblue" points="163.44,-331.9 155.09,-338.42 165.69,-338.53 163.44,-331.9"/>
</g>
<!-- Node5 -->
<g id="node5" class="node">
<title>Node5</title>
<g id="a_node5"><a xlink:href="class_black_misc_1_1_mixin_1_1_meta_type.html" target="_top" xlink:title="CRTP class template from which a derived class can inherit common methods dealing with the metatype o...">
<polygon fill="none" stroke="black" points="13.5,-289.5 13.5,-319.5 165.5,-319.5 165.5,-289.5 13.5,-289.5"/>
<text text-anchor="start" x="21.5" y="-307.5" font-family="Helvetica,sans-Serif" font-size="10.00">BlackMisc::Mixin::MetaType</text>
<text text-anchor="middle" x="89.5" y="-296.5" font-family="Helvetica,sans-Serif" font-size="10.00">&lt; Derived &gt;</text>
</a>
</g>
</g>
<!-- Node5&#45;&gt;Node3 -->
<g id="edge4" class="edge">
<title>Node5&#45;&gt;Node3</title>
<path fill="none" stroke="midnightblue" d="M163.49,-287.1C186.22,-281.68 211.08,-275.75 233.07,-270.51"/>
<polygon fill="midnightblue" stroke="midnightblue" points="162.47,-283.74 153.55,-289.47 164.09,-290.55 162.47,-283.74"/>
</g>
<!-- Node6 -->
<g id="node6" class="node">
<title>Node6</title>
<g id="a_node6"><a xlink:href="class_black_misc_1_1_mixin_1_1_d_bus_operators.html" target="_top" xlink:title=" ">
<polygon fill="none" stroke="black" points="0,-240.5 0,-270.5 179,-270.5 179,-240.5 0,-240.5"/>
<text text-anchor="start" x="8" y="-258.5" font-family="Helvetica,sans-Serif" font-size="10.00">BlackMisc::Mixin::DBusOperators</text>
<text text-anchor="middle" x="89.5" y="-247.5" font-family="Helvetica,sans-Serif" font-size="10.00">&lt; Derived &gt;</text>
</a>
</g>
</g>
<!-- Node6&#45;&gt;Node3 -->
<g id="edge5" class="edge">
<title>Node6&#45;&gt;Node3</title>
<path fill="none" stroke="midnightblue" d="M189.19,-255.5C200.17,-255.5 211.22,-255.5 221.82,-255.5"/>
<polygon fill="midnightblue" stroke="midnightblue" points="189.14,-252 179.14,-255.5 189.14,-259 189.14,-252"/>
</g>
<!-- Node7 -->
<g id="node7" class="node">
<title>Node7</title>
<g id="a_node7"><a xlink:href="class_black_misc_1_1_mixin_1_1_json_operators.html" target="_top" xlink:title="CRTP class template which will generate marshalling operators for a derived class with its own marsha...">
<polygon fill="none" stroke="black" points="3,-191.5 3,-221.5 176,-221.5 176,-191.5 3,-191.5"/>
<text text-anchor="start" x="11" y="-209.5" font-family="Helvetica,sans-Serif" font-size="10.00">BlackMisc::Mixin::JsonOperators</text>
<text text-anchor="middle" x="89.5" y="-198.5" font-family="Helvetica,sans-Serif" font-size="10.00">&lt; Derived &gt;</text>
</a>
</g>
</g>
<!-- Node7&#45;&gt;Node3 -->
<g id="edge6" class="edge">
<title>Node7&#45;&gt;Node3</title>
<path fill="none" stroke="midnightblue" d="M163.49,-223.9C186.22,-229.32 211.08,-235.25 233.07,-240.49"/>
<polygon fill="midnightblue" stroke="midnightblue" points="164.09,-220.45 153.55,-221.53 162.47,-227.26 164.09,-220.45"/>
</g>
<!-- Node8 -->
<g id="node8" class="node">
<title>Node8</title>
<g id="a_node8"><a xlink:href="class_black_misc_1_1_mixin_1_1_string.html" target="_top" xlink:title="CRTP class template from which a derived class can inherit string streaming operations.">
<polygon fill="none" stroke="black" points="22.5,-142.5 22.5,-172.5 156.5,-172.5 156.5,-142.5 22.5,-142.5"/>
<text text-anchor="start" x="30.5" y="-160.5" font-family="Helvetica,sans-Serif" font-size="10.00">BlackMisc::Mixin::String</text>
<text text-anchor="middle" x="89.5" y="-149.5" font-family="Helvetica,sans-Serif" font-size="10.00">&lt; Derived &gt;</text>
</a>
</g>
</g>
<!-- Node8&#45;&gt;Node3 -->
<g id="edge7" class="edge">
<title>Node8&#45;&gt;Node3</title>
<path fill="none" stroke="midnightblue" d="M166.05,-174.98C170.59,-177.2 174.95,-179.69 179,-182.5 201.21,-197.9 192.89,-215.96 215,-231.5 219.92,-234.96 225.34,-237.92 230.98,-240.47"/>
<polygon fill="midnightblue" stroke="midnightblue" points="167.1,-171.62 156.53,-170.81 164.29,-178.03 167.1,-171.62"/>
</g>
<!-- Node9 -->
<g id="node9" class="node">
<title>Node9</title>
<g id="a_node9"><a xlink:href="class_black_misc_1_1_mixin_1_1_data_stream_operators.html" target="_top" xlink:title="CRTP class template to generate non&#45;member QDataStream streaming operators.">
<polygon fill="none" stroke="black" points="215,-191.5 215,-221.5 379,-221.5 379,-191.5 215,-191.5"/>
<text text-anchor="start" x="223" y="-209.5" font-family="Helvetica,sans-Serif" font-size="10.00">BlackMisc::Mixin::DataStream</text>
<text text-anchor="middle" x="297" y="-198.5" font-family="Helvetica,sans-Serif" font-size="10.00">Operators&lt; Derived &gt;</text>
</a>
</g>
</g>
<!-- Node9&#45;&gt;Node2 -->
<g id="edge8" class="edge">
<title>Node9&#45;&gt;Node2</title>
<path fill="none" stroke="midnightblue" d="M389.28,-206.5C406.48,-206.5 424.14,-206.5 440.32,-206.5"/>
<polygon fill="midnightblue" stroke="midnightblue" points="389.22,-203 379.22,-206.5 389.22,-210 389.22,-203"/>
</g>
<!-- Node10 -->
<g id="node10" class="node">
<title>Node10</title>
<g id="a_node10"><a xlink:href="class_black_misc_1_1_mixin_1_1_icon.html" target="_top" xlink:title="CRTP class template from which a derived class can inherit icon&#45;related functions.">
<polygon fill="none" stroke="black" points="231.5,-142.5 231.5,-172.5 362.5,-172.5 362.5,-142.5 231.5,-142.5"/>
<text text-anchor="start" x="239.5" y="-160.5" font-family="Helvetica,sans-Serif" font-size="10.00">BlackMisc::Mixin::Icon</text>
<text text-anchor="middle" x="297" y="-149.5" font-family="Helvetica,sans-Serif" font-size="10.00">&lt; Derived, IconIndex &gt;</text>
</a>
</g>
</g>
<!-- Node10&#45;&gt;Node2 -->
<g id="edge9" class="edge">
<title>Node10&#45;&gt;Node2</title>
<path fill="none" stroke="midnightblue" d="M371.52,-174.9C394.42,-180.32 419.46,-186.25 441.61,-191.49"/>
<polygon fill="midnightblue" stroke="midnightblue" points="372.05,-171.43 361.51,-172.53 370.44,-178.24 372.05,-171.43"/>
</g>
<!-- Node11 -->
<g id="node11" class="node">
<title>Node11</title>
<g id="a_node11"><a xlink:href="class_black_misc_1_1_aviation_1_1_i_callsign_object_list.html" target="_top" xlink:title=" ">
<polygon fill="none" stroke="black" points="436,-120.5 436,-172.5 576,-172.5 576,-120.5 436,-120.5"/>
<text text-anchor="start" x="444" y="-160.5" font-family="Helvetica,sans-Serif" font-size="10.00">BlackMisc::Aviation</text>
<text text-anchor="start" x="444" y="-149.5" font-family="Helvetica,sans-Serif" font-size="10.00">::ICallsignObjectList</text>
<text text-anchor="start" x="444" y="-138.5" font-family="Helvetica,sans-Serif" font-size="10.00">&lt; CSimulatedAircraft,</text>
<text text-anchor="middle" x="506" y="-127.5" font-family="Helvetica,sans-Serif" font-size="10.00"> CSimulatedAircraftList &gt;</text>
</a>
</g>
</g>
<!-- Node11&#45;&gt;Node1 -->
<g id="edge10" class="edge">
<title>Node11&#45;&gt;Node1</title>
<path fill="none" stroke="midnightblue" d="M586.15,-131.54C601.69,-128.61 617.82,-125.56 632.82,-122.72"/>
<polygon fill="midnightblue" stroke="midnightblue" points="585.22,-128.16 576.04,-133.45 586.52,-135.03 585.22,-128.16"/>
</g>
<!-- Node12 -->
<g id="node12" class="node">
<title>Node12</title>
<g id="a_node12"><a xlink:href="class_black_misc_1_1_geo_1_1_i_geo_object_with_relative_position_list.html" target="_top" xlink:title=" ">
<polygon fill="none" stroke="black" points="415,-49.5 415,-101.5 597,-101.5 597,-49.5 415,-49.5"/>
<text text-anchor="start" x="423" y="-89.5" font-family="Helvetica,sans-Serif" font-size="10.00">BlackMisc::Geo::IGeoObject</text>
<text text-anchor="start" x="423" y="-78.5" font-family="Helvetica,sans-Serif" font-size="10.00">WithRelativePositionList</text>
<text text-anchor="start" x="423" y="-67.5" font-family="Helvetica,sans-Serif" font-size="10.00">&lt; CSimulatedAircraft, CSimulated</text>
<text text-anchor="middle" x="506" y="-56.5" font-family="Helvetica,sans-Serif" font-size="10.00">AircraftList &gt;</text>
</a>
</g>
</g>
<!-- Node12&#45;&gt;Node1 -->
<g id="edge11" class="edge">
<title>Node12&#45;&gt;Node1</title>
<path fill="none" stroke="midnightblue" d="M607.1,-93.89C615.83,-95.5 624.51,-97.09 632.84,-98.62"/>
<polygon fill="midnightblue" stroke="midnightblue" points="607.7,-90.44 597.23,-92.08 606.43,-97.33 607.7,-90.44"/>
</g>
<!-- Node13 -->
<g id="node13" class="node">
<title>Node13</title>
<g id="a_node13"><a xlink:href="class_black_misc_1_1_geo_1_1_i_geo_object_list.html" target="_top" xlink:title="List of objects with geo coordinates.">
<polygon fill="none" stroke="black" points="221,-60.5 221,-90.5 373,-90.5 373,-60.5 221,-60.5"/>
<text text-anchor="start" x="229" y="-78.5" font-family="Helvetica,sans-Serif" font-size="10.00">BlackMisc::Geo::IGeoObject</text>
<text text-anchor="middle" x="297" y="-67.5" font-family="Helvetica,sans-Serif" font-size="10.00">List&lt; OBJ, CONTAINER &gt;</text>
</a>
</g>
</g>
<!-- Node13&#45;&gt;Node12 -->
<g id="edge12" class="edge">
<title>Node13&#45;&gt;Node12</title>
<path fill="none" stroke="midnightblue" d="M383.29,-75.5C393.66,-75.5 404.28,-75.5 414.72,-75.5"/>
<polygon fill="midnightblue" stroke="midnightblue" points="383.02,-72 373.02,-75.5 383.02,-79 383.02,-72"/>
</g>
<!-- Node14 -->
<g id="node14" class="node">
<title>Node14</title>
<g id="a_node14"><a xlink:href="class_black_misc_1_1_mixin_1_1_meta_type.html" target="_top" xlink:title=" ">
<polygon fill="none" stroke="black" points="430,-0.5 430,-30.5 582,-30.5 582,-0.5 430,-0.5"/>
<text text-anchor="start" x="438" y="-18.5" font-family="Helvetica,sans-Serif" font-size="10.00">BlackMisc::Mixin::MetaType</text>
<text text-anchor="middle" x="506" y="-7.5" font-family="Helvetica,sans-Serif" font-size="10.00">&lt; CSimulatedAircraftList &gt;</text>
</a>
</g>
</g>
<!-- Node14&#45;&gt;Node1 -->
<g id="edge13" class="edge">
<title>Node14&#45;&gt;Node1</title>
<path fill="none" stroke="midnightblue" d="M581.23,-33.93C586.64,-35.94 591.96,-38.13 597,-40.5 628.36,-55.25 660.53,-79.6 679.76,-95.34"/>
<polygon fill="midnightblue" stroke="midnightblue" points="581.99,-30.49 571.4,-30.51 579.69,-37.11 581.99,-30.49"/>
</g>
</g>
</svg>
