<?xml version="1.0" encoding="UTF-8" standalone="no"?>
<!DOCTYPE svg PUBLIC "-//W3C//DTD SVG 1.1//EN"
 "http://www.w3.org/Graphics/SVG/1.1/DTD/svg11.dtd">
<!-- Generated by graphviz version 2.43.0 (0)
 -->
<!-- Title: BlackGui::CPluginConfigWindow Pages: 1 -->
<svg width="1109pt" height="186pt"
 viewBox="0.00 0.00 1109.00 186.00" xmlns="http://www.w3.org/2000/svg" xmlns:xlink="http://www.w3.org/1999/xlink">
<g id="graph0" class="graph" transform="scale(1 1) rotate(0) translate(4 182)">
<title>BlackGui::CPluginConfigWindow</title>
<!-- Node1 -->
<g id="node1" class="node">
<title>Node1</title>
<g id="a_node1"><a xlink:title="Base class for plugin config window.">
<polygon fill="#bfbfbf" stroke="black" points="696,-79 696,-98 869,-98 869,-79 696,-79"/>
<text text-anchor="middle" x="782.5" y="-86" font-family="Helvetica,sans-Serif" font-size="10.00">BlackGui::CPluginConfigWindow</text>
</a>
</g>
</g>
<!-- Node8 -->
<g id="node8" class="node">
<title>Node8</title>
<g id="a_node8"><a xlink:href="class_black_sim_plugin_1_1_emulated_1_1_c_simulator_emulated_config_widget.html" target="_top" xlink:title="Configuration window for CSimulatorEmulatedConfig.">
<polygon fill="none" stroke="black" points="909,-147.5 909,-177.5 1097,-177.5 1097,-147.5 909,-147.5"/>
<text text-anchor="start" x="917" y="-165.5" font-family="Helvetica,sans-Serif" font-size="10.00">BlackSimPlugin::Emulated</text>
<text text-anchor="middle" x="1003" y="-154.5" font-family="Helvetica,sans-Serif" font-size="10.00">::CSimulatorEmulatedConfigWidget</text>
</a>
</g>
</g>
<!-- Node1&#45;&gt;Node8 -->
<g id="edge7" class="edge">
<title>Node1&#45;&gt;Node8</title>
<path fill="none" stroke="midnightblue" d="M813.6,-102.35C837.91,-113.17 873.18,-128.08 905,-138.5 914.81,-141.71 925.3,-144.73 935.62,-147.46"/>
<polygon fill="midnightblue" stroke="midnightblue" points="814.77,-99.04 804.22,-98.13 811.9,-105.42 814.77,-99.04"/>
</g>
<!-- Node9 -->
<g id="node9" class="node">
<title>Node9</title>
<g id="a_node9"><a xlink:href="class_black_sim_plugin_1_1_flightgear_1_1_c_simulator_flightgear_config_window.html" target="_top" xlink:title="A window that shows all the Flightgear plugin options.">
<polygon fill="none" stroke="black" points="905,-98.5 905,-128.5 1101,-128.5 1101,-98.5 905,-98.5"/>
<text text-anchor="start" x="913" y="-116.5" font-family="Helvetica,sans-Serif" font-size="10.00">BlackSimPlugin::Flightgear</text>
<text text-anchor="middle" x="1003" y="-105.5" font-family="Helvetica,sans-Serif" font-size="10.00">::CSimulatorFlightgearConfigWindow</text>
</a>
</g>
</g>
<!-- Node1&#45;&gt;Node9 -->
<g id="edge8" class="edge">
<title>Node1&#45;&gt;Node9</title>
<path fill="none" stroke="midnightblue" d="M876.72,-99.17C885.99,-100.23 895.42,-101.31 904.73,-102.37"/>
<polygon fill="midnightblue" stroke="midnightblue" points="877.06,-95.68 866.73,-98.02 876.27,-102.64 877.06,-95.68"/>
</g>
<!-- Node10 -->
<g id="node10" class="node">
<title>Node10</title>
<g id="a_node10"><a xlink:href="class_black_sim_plugin_1_1_fsx_common_1_1_c_simulator_fsx_config_window.html" target="_top" xlink:title="A window that lets user set up the FSX plugin.">
<polygon fill="none" stroke="black" points="921,-49.5 921,-79.5 1085,-79.5 1085,-49.5 921,-49.5"/>
<text text-anchor="start" x="929" y="-67.5" font-family="Helvetica,sans-Serif" font-size="10.00">BlackSimPlugin::FsxCommon</text>
<text text-anchor="middle" x="1003" y="-56.5" font-family="Helvetica,sans-Serif" font-size="10.00">::CSimulatorFsxConfigWindow</text>
</a>
</g>
</g>
<!-- Node1&#45;&gt;Node10 -->
<g id="edge9" class="edge">
<title>Node1&#45;&gt;Node10</title>
<path fill="none" stroke="midnightblue" d="M879.26,-77.98C893.11,-76.46 907.27,-74.91 920.8,-73.42"/>
<polygon fill="midnightblue" stroke="midnightblue" points="878.79,-74.51 869.23,-79.08 879.55,-81.47 878.79,-74.51"/>
</g>
<!-- Node11 -->
<g id="node11" class="node">
<title>Node11</title>
<g id="a_node11"><a xlink:href="class_black_sim_plugin_1_1_x_plane_1_1_c_simulator_x_plane_config_window.html" target="_top" xlink:title="A window that shows all the X&#45;Plane plugin options.">
<polygon fill="none" stroke="black" points="913,-0.5 913,-30.5 1093,-30.5 1093,-0.5 913,-0.5"/>
<text text-anchor="start" x="921" y="-18.5" font-family="Helvetica,sans-Serif" font-size="10.00">BlackSimPlugin::XPlane</text>
<text text-anchor="middle" x="1003" y="-7.5" font-family="Helvetica,sans-Serif" font-size="10.00">::CSimulatorXPlaneConfigWindow</text>
</a>
</g>
</g>
<!-- Node1&#45;&gt;Node11 -->
<g id="edge10" class="edge">
<title>Node1&#45;&gt;Node11</title>
<path fill="none" stroke="midnightblue" d="M814.07,-74.77C838.38,-64.2 873.43,-49.72 905,-39.5 914.9,-36.3 925.49,-33.27 935.9,-30.53"/>
<polygon fill="midnightblue" stroke="midnightblue" points="812.42,-71.68 804.67,-78.9 815.24,-78.09 812.42,-71.68"/>
</g>
<!-- Node2 -->
<g id="node2" class="node">
<title>Node2</title>
<g id="a_node2"><a xlink:href="class_black_gui_1_1_c_overlay_messages_frame.html" target="_top" xlink:title="Using this class provides a QFrame with the overlay functionality already integrated.">
<polygon fill="none" stroke="black" points="500,-73.5 500,-103.5 660,-103.5 660,-73.5 500,-73.5"/>
<text text-anchor="start" x="508" y="-91.5" font-family="Helvetica,sans-Serif" font-size="10.00">BlackGui::COverlayMessages</text>
<text text-anchor="middle" x="580" y="-80.5" font-family="Helvetica,sans-Serif" font-size="10.00">Frame</text>
</a>
</g>
</g>
<!-- Node2&#45;&gt;Node1 -->
<g id="edge1" class="edge">
<title>Node2&#45;&gt;Node1</title>
<path fill="none" stroke="midnightblue" d="M670.48,-88.5C678.93,-88.5 687.49,-88.5 695.9,-88.5"/>
<polygon fill="midnightblue" stroke="midnightblue" points="670.24,-85 660.24,-88.5 670.24,-92 670.24,-85"/>
</g>
<!-- Node3 -->
<g id="node3" class="node">
<title>Node3</title>
<g id="a_node3"><a xlink:href="class_black_gui_1_1_c_overlay_messages_base.html" target="_top" xlink:title=" ">
<polygon fill="none" stroke="black" points="304,-73.5 304,-103.5 464,-103.5 464,-73.5 304,-73.5"/>
<text text-anchor="start" x="312" y="-91.5" font-family="Helvetica,sans-Serif" font-size="10.00">BlackGui::COverlayMessages</text>
<text text-anchor="middle" x="384" y="-80.5" font-family="Helvetica,sans-Serif" font-size="10.00">Base&lt; QFrame &gt;</text>
</a>
</g>
</g>
<!-- Node3&#45;&gt;Node2 -->
<g id="edge2" class="edge">
<title>Node3&#45;&gt;Node2</title>
<path fill="none" stroke="midnightblue" d="M474.44,-88.5C482.88,-88.5 491.41,-88.5 499.75,-88.5"/>
<polygon fill="midnightblue" stroke="midnightblue" points="474.19,-85 464.19,-88.5 474.19,-92 474.19,-85"/>
</g>
<!-- Node4 -->
<g id="node4" class="node">
<title>Node4</title>
<g id="a_node4"><a target="_parent" xlink:href="http://doc.qt.io/qt-5/qframe.html" xlink:title=" ">
<polygon fill="none" stroke="black" points="213,-79 213,-98 268,-98 268,-79 213,-79"/>
<text text-anchor="middle" x="240.5" y="-86" font-family="Helvetica,sans-Serif" font-size="10.00">QFrame</text>
</a>
</g>
</g>
<!-- Node4&#45;&gt;Node3 -->
<g id="edge3" class="edge">
<title>Node4&#45;&gt;Node3</title>
<path fill="none" stroke="midnightblue" d="M278.17,-88.5C286.19,-88.5 294.98,-88.5 303.95,-88.5"/>
<polygon fill="midnightblue" stroke="midnightblue" points="278.12,-85 268.12,-88.5 278.12,-92 278.12,-85"/>
</g>
<!-- Node5 -->
<g id="node5" class="node">
<title>Node5</title>
<g id="a_node5"><a target="_parent" xlink:href="http://doc.qt.io/qt-5/qwidget.html" xlink:title=" ">
<polygon fill="none" stroke="black" points="118,-79 118,-98 177,-98 177,-79 118,-79"/>
<text text-anchor="middle" x="147.5" y="-86" font-family="Helvetica,sans-Serif" font-size="10.00">QWidget</text>
</a>
</g>
</g>
<!-- Node5&#45;&gt;Node4 -->
<g id="edge4" class="edge">
<title>Node5&#45;&gt;Node4</title>
<path fill="none" stroke="midnightblue" d="M187.46,-88.5C195.99,-88.5 204.83,-88.5 212.75,-88.5"/>
<polygon fill="midnightblue" stroke="midnightblue" points="187.29,-85 177.29,-88.5 187.29,-92 187.29,-85"/>
</g>
<!-- Node6 -->
<g id="node6" class="node">
<title>Node6</title>
<g id="a_node6"><a target="_parent" xlink:href="http://doc.qt.io/qt-5/qobject.html" xlink:title=" ">
<polygon fill="none" stroke="black" points="13,-98 13,-117 69,-117 69,-98 13,-98"/>
<text text-anchor="middle" x="41" y="-105" font-family="Helvetica,sans-Serif" font-size="10.00">QObject</text>
</a>
</g>
</g>
<!-- Node6&#45;&gt;Node5 -->
<g id="edge5" class="edge">
<title>Node6&#45;&gt;Node5</title>
<path fill="none" stroke="midnightblue" d="M79.09,-100.76C91.88,-98.43 106,-95.86 117.99,-93.68"/>
<polygon fill="midnightblue" stroke="midnightblue" points="78.4,-97.33 69.18,-102.56 79.65,-104.21 78.4,-97.33"/>
</g>
<!-- Node7 -->
<g id="node7" class="node">
<title>Node7</title>
<g id="a_node7"><a target="_parent" xlink:href="http://doc.qt.io/qt-5/qpaintdevice.html" xlink:title=" ">
<polygon fill="none" stroke="black" points="0,-60 0,-79 82,-79 82,-60 0,-60"/>
<text text-anchor="middle" x="41" y="-67" font-family="Helvetica,sans-Serif" font-size="10.00">QPaintDevice</text>
</a>
</g>
</g>
<!-- Node7&#45;&gt;Node5 -->
<g id="edge6" class="edge">
<title>Node7&#45;&gt;Node5</title>
<path fill="none" stroke="midnightblue" d="M91.97,-78.59C100.8,-80.19 109.71,-81.81 117.69,-83.26"/>
<polygon fill="midnightblue" stroke="midnightblue" points="92.57,-75.14 82.1,-76.79 91.32,-82.02 92.57,-75.14"/>
</g>
</g>
</svg>
