<?xml version="1.0" encoding="UTF-8" standalone="no"?>
<!DOCTYPE svg PUBLIC "-//W3C//DTD SVG 1.1//EN"
 "http://www.w3.org/Graphics/SVG/1.1/DTD/svg11.dtd">
<!-- Generated by graphviz version 2.43.0 (0)
 -->
<!-- Title: BlackGui::Components::CDbCountryComponent Pages: 1 -->
<svg width="540pt" height="146pt"
 viewBox="0.00 0.00 540.00 145.50" xmlns="http://www.w3.org/2000/svg" xmlns:xlink="http://www.w3.org/1999/xlink">
<g id="graph0" class="graph" transform="scale(1 1) rotate(0) translate(4 141.5)">
<title>BlackGui::Components::CDbCountryComponent</title>
<!-- Node1 -->
<g id="node1" class="node">
<title>Node1</title>
<g id="a_node1"><a xlink:title="The countries.">
<polygon fill="#bfbfbf" stroke="black" points="395,-49.5 395,-79.5 532,-79.5 532,-49.5 395,-49.5"/>
<text text-anchor="start" x="403" y="-67.5" font-family="Helvetica,sans-Serif" font-size="10.00">BlackGui::Components</text>
<text text-anchor="middle" x="463.5" y="-56.5" font-family="Helvetica,sans-Serif" font-size="10.00">::CDbCountryComponent</text>
</a>
</g>
</g>
<!-- Node2 -->
<g id="node2" class="node">
<title>Node2</title>
<g id="a_node2"><a target="_parent" xlink:href="http://doc.qt.io/qt-5/qframe.html" xlink:title=" ">
<polygon fill="none" stroke="black" points="258.5,-99 258.5,-118 313.5,-118 313.5,-99 258.5,-99"/>
<text text-anchor="middle" x="286" y="-106" font-family="Helvetica,sans-Serif" font-size="10.00">QFrame</text>
</a>
</g>
</g>
<!-- Node2&#45;&gt;Node1 -->
<g id="edge1" class="edge">
<title>Node2&#45;&gt;Node1</title>
<path fill="none" stroke="midnightblue" d="M323.59,-99.33C346.38,-93.61 376.25,-86.12 402.45,-79.56"/>
<polygon fill="midnightblue" stroke="midnightblue" points="322.5,-95.99 313.65,-101.82 324.21,-102.78 322.5,-95.99"/>
</g>
<!-- Node3 -->
<g id="node3" class="node">
<title>Node3</title>
<g id="a_node3"><a target="_parent" xlink:href="http://doc.qt.io/qt-5/qwidget.html" xlink:title=" ">
<polygon fill="none" stroke="black" points="118,-99 118,-118 177,-118 177,-99 118,-99"/>
<text text-anchor="middle" x="147.5" y="-106" font-family="Helvetica,sans-Serif" font-size="10.00">QWidget</text>
</a>
</g>
</g>
<!-- Node3&#45;&gt;Node2 -->
<g id="edge2" class="edge">
<title>Node3&#45;&gt;Node2</title>
<path fill="none" stroke="midnightblue" d="M187.12,-108.5C209.85,-108.5 238.01,-108.5 258.28,-108.5"/>
<polygon fill="midnightblue" stroke="midnightblue" points="187.11,-105 177.11,-108.5 187.11,-112 187.11,-105"/>
</g>
<!-- Node4 -->
<g id="node4" class="node">
<title>Node4</title>
<g id="a_node4"><a target="_parent" xlink:href="http://doc.qt.io/qt-5/qobject.html" xlink:title=" ">
<polygon fill="none" stroke="black" points="13,-118 13,-137 69,-137 69,-118 13,-118"/>
<text text-anchor="middle" x="41" y="-125" font-family="Helvetica,sans-Serif" font-size="10.00">QObject</text>
</a>
</g>
</g>
<!-- Node4&#45;&gt;Node3 -->
<g id="edge3" class="edge">
<title>Node4&#45;&gt;Node3</title>
<path fill="none" stroke="midnightblue" d="M79.09,-120.76C91.88,-118.43 106,-115.86 117.99,-113.68"/>
<polygon fill="midnightblue" stroke="midnightblue" points="78.4,-117.33 69.18,-122.56 79.65,-124.21 78.4,-117.33"/>
</g>
<!-- Node5 -->
<g id="node5" class="node">
<title>Node5</title>
<g id="a_node5"><a target="_parent" xlink:href="http://doc.qt.io/qt-5/qpaintdevice.html" xlink:title=" ">
<polygon fill="none" stroke="black" points="0,-80 0,-99 82,-99 82,-80 0,-80"/>
<text text-anchor="middle" x="41" y="-87" font-family="Helvetica,sans-Serif" font-size="10.00">QPaintDevice</text>
</a>
</g>
</g>
<!-- Node5&#45;&gt;Node3 -->
<g id="edge4" class="edge">
<title>Node5&#45;&gt;Node3</title>
<path fill="none" stroke="midnightblue" d="M91.97,-98.59C100.8,-100.19 109.71,-101.81 117.69,-103.26"/>
<polygon fill="midnightblue" stroke="midnightblue" points="92.57,-95.14 82.1,-96.79 91.32,-102.02 92.57,-95.14"/>
</g>
<!-- Node6 -->
<g id="node6" class="node">
<title>Node6</title>
<g id="a_node6"><a xlink:href="class_black_gui_1_1_c_enable_for_dock_widget_info_area.html" target="_top" xlink:title="Helper class: If a component is residing in an dockable widget. This class provides access to its inf...">
<polygon fill="none" stroke="black" points="213,-49.5 213,-79.5 359,-79.5 359,-49.5 213,-49.5"/>
<text text-anchor="start" x="221" y="-67.5" font-family="Helvetica,sans-Serif" font-size="10.00">BlackGui::CEnableForDock</text>
<text text-anchor="middle" x="286" y="-56.5" font-family="Helvetica,sans-Serif" font-size="10.00">WidgetInfoArea</text>
</a>
</g>
</g>
<!-- Node6&#45;&gt;Node1 -->
<g id="edge5" class="edge">
<title>Node6&#45;&gt;Node1</title>
<path fill="none" stroke="midnightblue" d="M369.19,-64.5C377.79,-64.5 386.46,-64.5 394.87,-64.5"/>
<polygon fill="midnightblue" stroke="midnightblue" points="369.14,-61 359.14,-64.5 369.14,-68 369.14,-61"/>
</g>
<!-- Node7 -->
<g id="node7" class="node">
<title>Node7</title>
<g id="a_node7"><a xlink:href="class_black_gui_1_1_c_enable_for_view_based_indicator.html" target="_top" xlink:title="Hand over indication task to an embedded view.">
<polygon fill="none" stroke="black" points="213.5,-0.5 213.5,-30.5 358.5,-30.5 358.5,-0.5 213.5,-0.5"/>
<text text-anchor="start" x="221.5" y="-18.5" font-family="Helvetica,sans-Serif" font-size="10.00">BlackGui::CEnableForView</text>
<text text-anchor="middle" x="286" y="-7.5" font-family="Helvetica,sans-Serif" font-size="10.00">BasedIndicator</text>
</a>
</g>
</g>
<!-- Node7&#45;&gt;Node1 -->
<g id="edge6" class="edge">
<title>Node7&#45;&gt;Node1</title>
<path fill="none" stroke="midnightblue" d="M350.83,-33.32C369.78,-38.61 390.34,-44.35 408.59,-49.45"/>
<polygon fill="midnightblue" stroke="midnightblue" points="351.66,-29.92 341.09,-30.6 349.78,-36.66 351.66,-29.92"/>
</g>
</g>
</svg>
