<?xml version="1.0" encoding="UTF-8" standalone="no"?>
<!DOCTYPE svg PUBLIC "-//W3C//DTD SVG 1.1//EN"
 "http://www.w3.org/Graphics/SVG/1.1/DTD/svg11.dtd">
<!-- Generated by graphviz version 2.43.0 (0)
 -->
<!-- Title: BlackSimPlugin::Flightgear::CSimulatorFlightgearConfigWindow Pages: 1 -->
<svg width="204pt" height="397pt"
 viewBox="0.00 0.00 204.00 397.00" xmlns="http://www.w3.org/2000/svg" xmlns:xlink="http://www.w3.org/1999/xlink">
<g id="graph0" class="graph" transform="scale(1 1) rotate(0) translate(4 393)">
<title>BlackSimPlugin::Flightgear::CSimulatorFlightgearConfigWindow</title>
<!-- Node1 -->
<g id="node1" class="node">
<title>Node1</title>
<g id="a_node1"><a xlink:title="A window that shows all the Flightgear plugin options.">
<polygon fill="#bfbfbf" stroke="black" points="0,-0.5 0,-30.5 196,-30.5 196,-0.5 0,-0.5"/>
<text text-anchor="start" x="8" y="-18.5" font-family="Helvetica,sans-Serif" font-size="10.00">BlackSimPlugin::Flightgear</text>
<text text-anchor="middle" x="98" y="-7.5" font-family="Helvetica,sans-Serif" font-size="10.00">::CSimulatorFlightgearConfigWindow</text>
</a>
</g>
</g>
<!-- Node2 -->
<g id="node2" class="node">
<title>Node2</title>
<g id="a_node2"><a xlink:href="class_black_gui_1_1_c_plugin_config_window.html" target="_top" xlink:title="Base class for plugin config window.">
<polygon fill="none" stroke="black" points="11.5,-67.5 11.5,-86.5 184.5,-86.5 184.5,-67.5 11.5,-67.5"/>
<text text-anchor="middle" x="98" y="-74.5" font-family="Helvetica,sans-Serif" font-size="10.00">BlackGui::CPluginConfigWindow</text>
</a>
</g>
</g>
<!-- Node2&#45;&gt;Node1 -->
<g id="edge1" class="edge">
<title>Node2&#45;&gt;Node1</title>
<path fill="none" stroke="midnightblue" d="M98,-57.23C98,-48.59 98,-38.5 98,-30.52"/>
<polygon fill="midnightblue" stroke="midnightblue" points="94.5,-57.48 98,-67.48 101.5,-57.48 94.5,-57.48"/>
</g>
<!-- Node3 -->
<g id="node3" class="node">
<title>Node3</title>
<g id="a_node3"><a xlink:href="class_black_gui_1_1_c_overlay_messages_frame.html" target="_top" xlink:title="Using this class provides a QFrame with the overlay functionality already integrated.">
<polygon fill="none" stroke="black" points="18,-123.5 18,-153.5 178,-153.5 178,-123.5 18,-123.5"/>
<text text-anchor="start" x="26" y="-141.5" font-family="Helvetica,sans-Serif" font-size="10.00">BlackGui::COverlayMessages</text>
<text text-anchor="middle" x="98" y="-130.5" font-family="Helvetica,sans-Serif" font-size="10.00">Frame</text>
</a>
</g>
</g>
<!-- Node3&#45;&gt;Node2 -->
<g id="edge2" class="edge">
<title>Node3&#45;&gt;Node2</title>
<path fill="none" stroke="midnightblue" d="M98,-113.29C98,-103.86 98,-93.65 98,-86.66"/>
<polygon fill="midnightblue" stroke="midnightblue" points="94.5,-113.4 98,-123.4 101.5,-113.4 94.5,-113.4"/>
</g>
<!-- Node4 -->
<g id="node4" class="node">
<title>Node4</title>
<g id="a_node4"><a xlink:href="class_black_gui_1_1_c_overlay_messages_base.html" target="_top" xlink:title=" ">
<polygon fill="none" stroke="black" points="18,-190.5 18,-220.5 178,-220.5 178,-190.5 18,-190.5"/>
<text text-anchor="start" x="26" y="-208.5" font-family="Helvetica,sans-Serif" font-size="10.00">BlackGui::COverlayMessages</text>
<text text-anchor="middle" x="98" y="-197.5" font-family="Helvetica,sans-Serif" font-size="10.00">Base&lt; QFrame &gt;</text>
</a>
</g>
</g>
<!-- Node4&#45;&gt;Node3 -->
<g id="edge3" class="edge">
<title>Node4&#45;&gt;Node3</title>
<path fill="none" stroke="midnightblue" d="M98,-180.11C98,-171.15 98,-161.32 98,-153.58"/>
<polygon fill="midnightblue" stroke="midnightblue" points="94.5,-180.4 98,-190.4 101.5,-180.4 94.5,-180.4"/>
</g>
<!-- Node5 -->
<g id="node5" class="node">
<title>Node5</title>
<g id="a_node5"><a target="_parent" xlink:href="http://doc.qt.io/qt-5/qframe.html" xlink:title=" ">
<polygon fill="none" stroke="black" points="70.5,-257.5 70.5,-276.5 125.5,-276.5 125.5,-257.5 70.5,-257.5"/>
<text text-anchor="middle" x="98" y="-264.5" font-family="Helvetica,sans-Serif" font-size="10.00">QFrame</text>
</a>
</g>
</g>
<!-- Node5&#45;&gt;Node4 -->
<g id="edge4" class="edge">
<title>Node5&#45;&gt;Node4</title>
<path fill="none" stroke="midnightblue" d="M98,-247.23C98,-238.59 98,-228.5 98,-220.52"/>
<polygon fill="midnightblue" stroke="midnightblue" points="94.5,-247.48 98,-257.48 101.5,-247.48 94.5,-247.48"/>
</g>
<!-- Node6 -->
<g id="node6" class="node">
<title>Node6</title>
<g id="a_node6"><a target="_parent" xlink:href="http://doc.qt.io/qt-5/qwidget.html" xlink:title=" ">
<polygon fill="none" stroke="black" points="68.5,-313.5 68.5,-332.5 127.5,-332.5 127.5,-313.5 68.5,-313.5"/>
<text text-anchor="middle" x="98" y="-320.5" font-family="Helvetica,sans-Serif" font-size="10.00">QWidget</text>
</a>
</g>
</g>
<!-- Node6&#45;&gt;Node5 -->
<g id="edge5" class="edge">
<title>Node6&#45;&gt;Node5</title>
<path fill="none" stroke="midnightblue" d="M98,-302.8C98,-293.91 98,-283.78 98,-276.75"/>
<polygon fill="midnightblue" stroke="midnightblue" points="94.5,-303.08 98,-313.08 101.5,-303.08 94.5,-303.08"/>
</g>
<!-- Node7 -->
<g id="node7" class="node">
<title>Node7</title>
<g id="a_node7"><a target="_parent" xlink:href="http://doc.qt.io/qt-5/qobject.html" xlink:title=" ">
<polygon fill="none" stroke="black" points="27,-369.5 27,-388.5 83,-388.5 83,-369.5 27,-369.5"/>
<text text-anchor="middle" x="55" y="-376.5" font-family="Helvetica,sans-Serif" font-size="10.00">QObject</text>
</a>
</g>
</g>
<!-- Node7&#45;&gt;Node6 -->
<g id="edge6" class="edge">
<title>Node7&#45;&gt;Node6</title>
<path fill="none" stroke="midnightblue" d="M68.42,-361.14C75.91,-351.74 84.94,-340.4 91.03,-332.75"/>
<polygon fill="midnightblue" stroke="midnightblue" points="65.59,-359.08 62.1,-369.08 71.07,-363.44 65.59,-359.08"/>
</g>
<!-- Node8 -->
<g id="node8" class="node">
<title>Node8</title>
<g id="a_node8"><a target="_parent" xlink:href="http://doc.qt.io/qt-5/qpaintdevice.html" xlink:title=" ">
<polygon fill="none" stroke="black" points="101,-369.5 101,-388.5 183,-388.5 183,-369.5 101,-369.5"/>
<text text-anchor="middle" x="142" y="-376.5" font-family="Helvetica,sans-Serif" font-size="10.00">QPaintDevice</text>
</a>
</g>
</g>
<!-- Node8&#45;&gt;Node6 -->
<g id="edge7" class="edge">
<title>Node8&#45;&gt;Node6</title>
<path fill="none" stroke="midnightblue" d="M128.27,-361.14C120.6,-351.74 111.37,-340.4 105.13,-332.75"/>
<polygon fill="midnightblue" stroke="midnightblue" points="125.7,-363.54 134.73,-369.08 131.13,-359.12 125.7,-363.54"/>
</g>
</g>
</svg>
