<?xml version="1.0" encoding="UTF-8" standalone="no"?>
<!DOCTYPE svg PUBLIC "-//W3C//DTD SVG 1.1//EN"
 "http://www.w3.org/Graphics/SVG/1.1/DTD/svg11.dtd">
<!-- Generated by graphviz version 2.43.0 (0)
 -->
<!-- Title: BlackMisc::SharedState::CScalarObserver&lt; T &gt; Pages: 1 -->
<svg width="149pt" height="162pt"
 viewBox="0.00 0.00 149.00 162.00" xmlns="http://www.w3.org/2000/svg" xmlns:xlink="http://www.w3.org/1999/xlink">
<g id="graph0" class="graph" transform="scale(1 1) rotate(0) translate(4 158)">
<title>BlackMisc::SharedState::CScalarObserver&lt; T &gt;</title>
<!-- Node1 -->
<g id="node1" class="node">
<title>Node1</title>
<g id="a_node1"><a xlink:title="Base class for an object that shares state with a corresponding CScalarMutator subclass object.">
<polygon fill="#bfbfbf" stroke="black" points="4.5,-0.5 4.5,-30.5 136.5,-30.5 136.5,-0.5 4.5,-0.5"/>
<text text-anchor="start" x="12.5" y="-18.5" font-family="Helvetica,sans-Serif" font-size="10.00">BlackMisc::SharedState</text>
<text text-anchor="middle" x="70.5" y="-7.5" font-family="Helvetica,sans-Serif" font-size="10.00">::CScalarObserver&lt; T &gt;</text>
</a>
</g>
</g>
<!-- Node2 -->
<g id="node2" class="node">
<title>Node2</title>
<g id="a_node2"><a xlink:href="class_black_misc_1_1_shared_state_1_1_c_generic_scalar_observer.html" target="_top" xlink:title="Non&#45;template base class for CScalarObserver.">
<polygon fill="none" stroke="black" points="0,-67.5 0,-97.5 141,-97.5 141,-67.5 0,-67.5"/>
<text text-anchor="start" x="8" y="-85.5" font-family="Helvetica,sans-Serif" font-size="10.00">BlackMisc::SharedState</text>
<text text-anchor="middle" x="70.5" y="-74.5" font-family="Helvetica,sans-Serif" font-size="10.00">::CGenericScalarObserver</text>
</a>
</g>
</g>
<!-- Node2&#45;&gt;Node1 -->
<g id="edge1" class="edge">
<title>Node2&#45;&gt;Node1</title>
<path fill="none" stroke="midnightblue" d="M70.5,-57.11C70.5,-48.15 70.5,-38.32 70.5,-30.58"/>
<polygon fill="midnightblue" stroke="midnightblue" points="67,-57.4 70.5,-67.4 74,-57.4 67,-57.4"/>
</g>
<!-- Node3 -->
<g id="node3" class="node">
<title>Node3</title>
<g id="a_node3"><a target="_parent" xlink:href="http://doc.qt.io/qt-5/qobject.html" xlink:title=" ">
<polygon fill="none" stroke="black" points="42.5,-134.5 42.5,-153.5 98.5,-153.5 98.5,-134.5 42.5,-134.5"/>
<text text-anchor="middle" x="70.5" y="-141.5" font-family="Helvetica,sans-Serif" font-size="10.00">QObject</text>
</a>
</g>
</g>
<!-- Node3&#45;&gt;Node2 -->
<g id="edge2" class="edge">
<title>Node3&#45;&gt;Node2</title>
<path fill="none" stroke="midnightblue" d="M70.5,-124.23C70.5,-115.59 70.5,-105.5 70.5,-97.52"/>
<polygon fill="midnightblue" stroke="midnightblue" points="67,-124.48 70.5,-134.48 74,-124.48 67,-124.48"/>
</g>
</g>
</svg>
