<?xml version="1.0" encoding="UTF-8" standalone="no"?>
<!DOCTYPE svg PUBLIC "-//W3C//DTD SVG 1.1//EN"
 "http://www.w3.org/Graphics/SVG/1.1/DTD/svg11.dtd">
<!-- Generated by graphviz version 2.43.0 (0)
 -->
<!-- Title: BlackMisc::ITimestampObjectList&lt; OBJ, CONTAINER &gt; Pages: 1 -->
<svg width="625pt" height="930pt"
 viewBox="0.00 0.00 625.00 930.00" xmlns="http://www.w3.org/2000/svg" xmlns:xlink="http://www.w3.org/1999/xlink">
<g id="graph0" class="graph" transform="scale(1 1) rotate(0) translate(4 926)">
<title>BlackMisc::ITimestampObjectList&lt; OBJ, CONTAINER &gt;</title>
<!-- Node1 -->
<g id="node1" class="node">
<title>Node1</title>
<g id="a_node1"><a xlink:title="List of objects with timestamp. Such objects should implement.">
<polygon fill="#bfbfbf" stroke="black" points="0,-456 0,-486 162,-486 162,-456 0,-456"/>
<text text-anchor="start" x="8" y="-474" font-family="Helvetica,sans-Serif" font-size="10.00">BlackMisc::ITimestampObject</text>
<text text-anchor="middle" x="81" y="-463" font-family="Helvetica,sans-Serif" font-size="10.00">List&lt; OBJ, CONTAINER &gt;</text>
</a>
</g>
</g>
<!-- Node2 -->
<g id="node2" class="node">
<title>Node2</title>
<g id="a_node2"><a xlink:href="class_black_misc_1_1_db_1_1_i_datastore_object_list.html" target="_top" xlink:title=" ">
<polygon fill="none" stroke="black" points="228.5,-880.5 228.5,-921.5 377.5,-921.5 377.5,-880.5 228.5,-880.5"/>
<text text-anchor="start" x="236.5" y="-909.5" font-family="Helvetica,sans-Serif" font-size="10.00">BlackMisc::Db::IDatastore</text>
<text text-anchor="start" x="236.5" y="-898.5" font-family="Helvetica,sans-Serif" font-size="10.00">ObjectList&lt; CDistributor,</text>
<text text-anchor="middle" x="303" y="-887.5" font-family="Helvetica,sans-Serif" font-size="10.00"> CDistributorList, QString &gt;</text>
</a>
</g>
</g>
<!-- Node1&#45;&gt;Node2 -->
<g id="edge1" class="edge">
<title>Node1&#45;&gt;Node2</title>
<path fill="none" stroke="midnightblue" d="M81.48,-496.35C81.48,-566.41 91.4,-764.55 198,-871 206.44,-879.43 217.1,-885.53 228.35,-889.92"/>
<polygon fill="midnightblue" stroke="midnightblue" points="84.98,-496.26 81.55,-486.24 77.98,-496.21 84.98,-496.26"/>
</g>
<!-- Node4 -->
<g id="node4" class="node">
<title>Node4</title>
<g id="a_node4"><a xlink:href="class_black_misc_1_1_db_1_1_i_datastore_object_list.html" target="_top" xlink:title=" ">
<polygon fill="none" stroke="black" points="201.5,-831 201.5,-861 404.5,-861 404.5,-831 201.5,-831"/>
<text text-anchor="start" x="209.5" y="-849" font-family="Helvetica,sans-Serif" font-size="10.00">BlackMisc::Db::IDatastore</text>
<text text-anchor="middle" x="303" y="-838" font-family="Helvetica,sans-Serif" font-size="10.00">ObjectList&lt; CLivery, CLiveryList, int &gt;</text>
</a>
</g>
</g>
<!-- Node1&#45;&gt;Node4 -->
<g id="edge3" class="edge">
<title>Node1&#45;&gt;Node4</title>
<path fill="none" stroke="midnightblue" d="M82.47,-496.44C85.1,-560.96 101.32,-732.13 198,-821 202.1,-824.77 206.67,-828 211.54,-830.76"/>
<polygon fill="midnightblue" stroke="midnightblue" points="85.96,-496.23 82.14,-486.35 78.97,-496.46 85.96,-496.23"/>
</g>
<!-- Node6 -->
<g id="node6" class="node">
<title>Node6</title>
<g id="a_node6"><a xlink:href="class_black_misc_1_1_db_1_1_i_datastore_object_list.html" target="_top" xlink:title=" ">
<polygon fill="none" stroke="black" points="221.5,-770.5 221.5,-811.5 384.5,-811.5 384.5,-770.5 221.5,-770.5"/>
<text text-anchor="start" x="229.5" y="-799.5" font-family="Helvetica,sans-Serif" font-size="10.00">BlackMisc::Db::IDatastore</text>
<text text-anchor="start" x="229.5" y="-788.5" font-family="Helvetica,sans-Serif" font-size="10.00">ObjectList&lt; CAirlineIcaoCode,</text>
<text text-anchor="middle" x="303" y="-777.5" font-family="Helvetica,sans-Serif" font-size="10.00"> CAirlineIcaoCodeList, int &gt;</text>
</a>
</g>
</g>
<!-- Node1&#45;&gt;Node6 -->
<g id="edge5" class="edge">
<title>Node1&#45;&gt;Node6</title>
<path fill="none" stroke="midnightblue" d="M84.71,-496.38C92.1,-552.59 117.71,-688.34 198,-761 204.83,-767.18 212.85,-772.09 221.36,-776"/>
<polygon fill="midnightblue" stroke="midnightblue" points="88.16,-495.74 83.47,-486.24 81.21,-496.59 88.16,-495.74"/>
</g>
<!-- Node8 -->
<g id="node8" class="node">
<title>Node8</title>
<g id="a_node8"><a xlink:href="class_black_misc_1_1_db_1_1_i_datastore_object_list.html" target="_top" xlink:title=" ">
<polygon fill="none" stroke="black" points="231.5,-710.5 231.5,-751.5 374.5,-751.5 374.5,-710.5 231.5,-710.5"/>
<text text-anchor="start" x="239.5" y="-739.5" font-family="Helvetica,sans-Serif" font-size="10.00">BlackMisc::Db::IDatastore</text>
<text text-anchor="start" x="239.5" y="-728.5" font-family="Helvetica,sans-Serif" font-size="10.00">ObjectList&lt; CDistribution,</text>
<text text-anchor="middle" x="303" y="-717.5" font-family="Helvetica,sans-Serif" font-size="10.00"> CDistributionList, int &gt;</text>
</a>
</g>
</g>
<!-- Node1&#45;&gt;Node8 -->
<g id="edge7" class="edge">
<title>Node1&#45;&gt;Node8</title>
<path fill="none" stroke="midnightblue" d="M87.56,-495.99C99.4,-543.25 131.59,-645.93 198,-701 207.69,-709.04 219.43,-714.92 231.49,-719.23"/>
<polygon fill="midnightblue" stroke="midnightblue" points="90.96,-495.16 85.22,-486.26 84.16,-496.8 90.96,-495.16"/>
</g>
<!-- Node10 -->
<g id="node10" class="node">
<title>Node10</title>
<g id="a_node10"><a xlink:href="class_black_misc_1_1_db_1_1_i_datastore_object_list.html" target="_top" xlink:title=" ">
<polygon fill="none" stroke="black" points="199,-661 199,-691 407,-691 407,-661 199,-661"/>
<text text-anchor="start" x="207" y="-679" font-family="Helvetica,sans-Serif" font-size="10.00">BlackMisc::Db::IDatastore</text>
<text text-anchor="middle" x="303" y="-668" font-family="Helvetica,sans-Serif" font-size="10.00">ObjectList&lt; CDbInfo, CDbInfoList, int &gt;</text>
</a>
</g>
</g>
<!-- Node1&#45;&gt;Node10 -->
<g id="edge9" class="edge">
<title>Node1&#45;&gt;Node10</title>
<path fill="none" stroke="midnightblue" d="M90.88,-495.69C106.32,-534.95 141.92,-611.21 198,-651 203.45,-654.87 209.43,-658.14 215.67,-660.92"/>
<polygon fill="midnightblue" stroke="midnightblue" points="94.06,-494.2 87.23,-486.11 87.52,-496.7 94.06,-494.2"/>
</g>
<!-- Node12 -->
<g id="node12" class="node">
<title>Node12</title>
<g id="a_node12"><a xlink:href="class_black_misc_1_1_db_1_1_i_datastore_object_list.html" target="_top" xlink:title=" ">
<polygon fill="none" stroke="black" points="222,-600.5 222,-641.5 384,-641.5 384,-600.5 222,-600.5"/>
<text text-anchor="start" x="230" y="-629.5" font-family="Helvetica,sans-Serif" font-size="10.00">BlackMisc::Db::IDatastore</text>
<text text-anchor="start" x="230" y="-618.5" font-family="Helvetica,sans-Serif" font-size="10.00">ObjectList&lt; CAirport, CAirport</text>
<text text-anchor="middle" x="303" y="-607.5" font-family="Helvetica,sans-Serif" font-size="10.00">List, int &gt;</text>
</a>
</g>
</g>
<!-- Node1&#45;&gt;Node12 -->
<g id="edge11" class="edge">
<title>Node1&#45;&gt;Node12</title>
<path fill="none" stroke="midnightblue" d="M98.64,-494.54C119.04,-521.68 156.1,-565.8 198,-591 205.41,-595.46 213.51,-599.28 221.82,-602.55"/>
<polygon fill="midnightblue" stroke="midnightblue" points="101.37,-492.34 92.62,-486.37 95.73,-496.49 101.37,-492.34"/>
</g>
<!-- Node14 -->
<g id="node14" class="node">
<title>Node14</title>
<g id="a_node14"><a xlink:href="class_black_misc_1_1_db_1_1_i_datastore_object_list.html" target="_top" xlink:title=" ">
<polygon fill="none" stroke="black" points="219.5,-540.5 219.5,-581.5 386.5,-581.5 386.5,-540.5 219.5,-540.5"/>
<text text-anchor="start" x="227.5" y="-569.5" font-family="Helvetica,sans-Serif" font-size="10.00">BlackMisc::Db::IDatastore</text>
<text text-anchor="start" x="227.5" y="-558.5" font-family="Helvetica,sans-Serif" font-size="10.00">ObjectList&lt; CAircraftIcaoCode,</text>
<text text-anchor="middle" x="303" y="-547.5" font-family="Helvetica,sans-Serif" font-size="10.00"> CAircraftIcaoCodeList, int &gt;</text>
</a>
</g>
</g>
<!-- Node1&#45;&gt;Node14 -->
<g id="edge13" class="edge">
<title>Node1&#45;&gt;Node14</title>
<path fill="none" stroke="midnightblue" d="M116.45,-491.1C139.1,-503.73 169.68,-519.72 198,-531 206.47,-534.37 215.46,-537.54 224.47,-540.47"/>
<polygon fill="midnightblue" stroke="midnightblue" points="118,-487.95 107.57,-486.09 114.56,-494.05 118,-487.95"/>
</g>
<!-- Node16 -->
<g id="node16" class="node">
<title>Node16</title>
<g id="a_node16"><a xlink:href="class_black_misc_1_1_db_1_1_i_datastore_object_list.html" target="_top" xlink:title=" ">
<polygon fill="none" stroke="black" points="227,-480.5 227,-521.5 379,-521.5 379,-480.5 227,-480.5"/>
<text text-anchor="start" x="235" y="-509.5" font-family="Helvetica,sans-Serif" font-size="10.00">BlackMisc::Db::IDatastore</text>
<text text-anchor="start" x="235" y="-498.5" font-family="Helvetica,sans-Serif" font-size="10.00">ObjectList&lt; CAircraftModel,</text>
<text text-anchor="middle" x="303" y="-487.5" font-family="Helvetica,sans-Serif" font-size="10.00"> CAircraftModelList, int &gt;</text>
</a>
</g>
</g>
<!-- Node1&#45;&gt;Node16 -->
<g id="edge15" class="edge">
<title>Node1&#45;&gt;Node16</title>
<path fill="none" stroke="midnightblue" d="M172.06,-483.28C190.24,-485.76 209.17,-488.34 226.77,-490.74"/>
<polygon fill="midnightblue" stroke="midnightblue" points="172.43,-479.8 162.05,-481.92 171.48,-486.73 172.43,-479.8"/>
</g>
<!-- Node18 -->
<g id="node18" class="node">
<title>Node18</title>
<g id="a_node18"><a xlink:href="class_black_misc_1_1_db_1_1_i_datastore_object_list.html" target="_top" xlink:title=" ">
<polygon fill="none" stroke="black" points="231.5,-420.5 231.5,-461.5 374.5,-461.5 374.5,-420.5 231.5,-420.5"/>
<text text-anchor="start" x="239.5" y="-449.5" font-family="Helvetica,sans-Serif" font-size="10.00">BlackMisc::Db::IDatastore</text>
<text text-anchor="start" x="239.5" y="-438.5" font-family="Helvetica,sans-Serif" font-size="10.00">ObjectList&lt; CArtifact,</text>
<text text-anchor="middle" x="303" y="-427.5" font-family="Helvetica,sans-Serif" font-size="10.00"> CArtifactList, int &gt;</text>
</a>
</g>
</g>
<!-- Node1&#45;&gt;Node18 -->
<g id="edge17" class="edge">
<title>Node1&#45;&gt;Node18</title>
<path fill="none" stroke="midnightblue" d="M172.01,-458.73C191.83,-456.02 212.55,-453.2 231.47,-450.62"/>
<polygon fill="midnightblue" stroke="midnightblue" points="171.48,-455.27 162.05,-460.08 172.43,-462.2 171.48,-455.27"/>
</g>
<!-- Node20 -->
<g id="node20" class="node">
<title>Node20</title>
<g id="a_node20"><a xlink:href="class_black_misc_1_1_db_1_1_i_datastore_object_list.html" target="_top" xlink:title=" ">
<polygon fill="none" stroke="black" points="216.5,-360.5 216.5,-401.5 389.5,-401.5 389.5,-360.5 216.5,-360.5"/>
<text text-anchor="start" x="224.5" y="-389.5" font-family="Helvetica,sans-Serif" font-size="10.00">BlackMisc::Db::IDatastore</text>
<text text-anchor="start" x="224.5" y="-378.5" font-family="Helvetica,sans-Serif" font-size="10.00">ObjectList&lt; CCountry, CCountry</text>
<text text-anchor="middle" x="303" y="-367.5" font-family="Helvetica,sans-Serif" font-size="10.00">List, QString &gt;</text>
</a>
</g>
</g>
<!-- Node1&#45;&gt;Node20 -->
<g id="edge19" class="edge">
<title>Node1&#45;&gt;Node20</title>
<path fill="none" stroke="midnightblue" d="M116.45,-450.9C139.1,-438.27 169.68,-422.28 198,-411 206.47,-407.63 215.46,-404.46 224.47,-401.53"/>
<polygon fill="midnightblue" stroke="midnightblue" points="114.56,-447.95 107.57,-455.91 118,-454.05 114.56,-447.95"/>
</g>
<!-- Node22 -->
<g id="node22" class="node">
<title>Node22</title>
<g id="a_node22"><a xlink:href="class_black_misc_1_1_db_1_1_i_datastore_object_list.html" target="_top" xlink:title=" ">
<polygon fill="none" stroke="black" points="220,-300.5 220,-341.5 386,-341.5 386,-300.5 220,-300.5"/>
<text text-anchor="start" x="228" y="-329.5" font-family="Helvetica,sans-Serif" font-size="10.00">BlackMisc::Db::IDatastore</text>
<text text-anchor="start" x="228" y="-318.5" font-family="Helvetica,sans-Serif" font-size="10.00">ObjectList&lt; CAircraftCategory,</text>
<text text-anchor="middle" x="303" y="-307.5" font-family="Helvetica,sans-Serif" font-size="10.00"> CAircraftCategoryList, int &gt;</text>
</a>
</g>
</g>
<!-- Node1&#45;&gt;Node22 -->
<g id="edge21" class="edge">
<title>Node1&#45;&gt;Node22</title>
<path fill="none" stroke="midnightblue" d="M98.64,-447.46C119.04,-420.32 156.1,-376.2 198,-351 204.84,-346.88 212.28,-343.31 219.93,-340.2"/>
<polygon fill="midnightblue" stroke="midnightblue" points="95.73,-445.51 92.62,-455.63 101.37,-449.66 95.73,-445.51"/>
</g>
<!-- Node24 -->
<g id="node24" class="node">
<title>Node24</title>
<g id="a_node24"><a xlink:href="class_black_misc_1_1_i_timestamp_with_offset_object_list.html" target="_top" xlink:title=" ">
<polygon fill="none" stroke="black" points="206,-240.5 206,-281.5 400,-281.5 400,-240.5 206,-240.5"/>
<text text-anchor="start" x="214" y="-269.5" font-family="Helvetica,sans-Serif" font-size="10.00">BlackMisc::ITimestampWith</text>
<text text-anchor="start" x="214" y="-258.5" font-family="Helvetica,sans-Serif" font-size="10.00">OffsetObjectList&lt; CAircraftSituation,</text>
<text text-anchor="middle" x="303" y="-247.5" font-family="Helvetica,sans-Serif" font-size="10.00"> CAircraftSituationList &gt;</text>
</a>
</g>
</g>
<!-- Node1&#45;&gt;Node24 -->
<g id="edge23" class="edge">
<title>Node1&#45;&gt;Node24</title>
<path fill="none" stroke="midnightblue" d="M91.21,-446.31C107,-407.37 142.96,-331.94 198,-291 202.75,-287.47 207.9,-284.35 213.29,-281.6"/>
<polygon fill="midnightblue" stroke="midnightblue" points="87.87,-445.23 87.46,-455.82 94.38,-447.8 87.87,-445.23"/>
</g>
<!-- Node26 -->
<g id="node26" class="node">
<title>Node26</title>
<g id="a_node26"><a xlink:href="class_black_misc_1_1_i_timestamp_with_offset_object_list.html" target="_top" xlink:title=" ">
<polygon fill="none" stroke="black" points="198,-180.5 198,-221.5 408,-221.5 408,-180.5 198,-180.5"/>
<text text-anchor="start" x="206" y="-209.5" font-family="Helvetica,sans-Serif" font-size="10.00">BlackMisc::ITimestampWith</text>
<text text-anchor="start" x="206" y="-198.5" font-family="Helvetica,sans-Serif" font-size="10.00">OffsetObjectList&lt; CAircraftSituation</text>
<text text-anchor="middle" x="303" y="-187.5" font-family="Helvetica,sans-Serif" font-size="10.00">Change, CAircraftSituationChangeList &gt;</text>
</a>
</g>
</g>
<!-- Node1&#45;&gt;Node26 -->
<g id="edge25" class="edge">
<title>Node1&#45;&gt;Node26</title>
<path fill="none" stroke="midnightblue" d="M87.07,-445.65C98.19,-396.69 129.43,-288.84 198,-231 202.17,-227.49 206.72,-224.38 211.53,-221.64"/>
<polygon fill="midnightblue" stroke="midnightblue" points="83.59,-445.19 84.88,-455.7 90.43,-446.68 83.59,-445.19"/>
</g>
<!-- Node28 -->
<g id="node28" class="node">
<title>Node28</title>
<g id="a_node28"><a xlink:href="class_black_misc_1_1_i_timestamp_with_offset_object_list.html" target="_top" xlink:title=" ">
<polygon fill="none" stroke="black" points="215.5,-120.5 215.5,-161.5 390.5,-161.5 390.5,-120.5 215.5,-120.5"/>
<text text-anchor="start" x="223.5" y="-149.5" font-family="Helvetica,sans-Serif" font-size="10.00">BlackMisc::ITimestampWith</text>
<text text-anchor="start" x="223.5" y="-138.5" font-family="Helvetica,sans-Serif" font-size="10.00">OffsetObjectList&lt; CAircraftParts,</text>
<text text-anchor="middle" x="303" y="-127.5" font-family="Helvetica,sans-Serif" font-size="10.00"> CAircraftPartsList &gt;</text>
</a>
</g>
</g>
<!-- Node1&#45;&gt;Node28 -->
<g id="edge27" class="edge">
<title>Node1&#45;&gt;Node28</title>
<path fill="none" stroke="midnightblue" d="M84.29,-445.94C90.91,-388.57 115.2,-246.81 198,-171 203.2,-166.24 209.1,-162.23 215.4,-158.86"/>
<polygon fill="midnightblue" stroke="midnightblue" points="80.81,-445.63 83.23,-455.94 87.77,-446.37 80.81,-445.63"/>
</g>
<!-- Node30 -->
<g id="node30" class="node">
<title>Node30</title>
<g id="a_node30"><a xlink:href="class_black_misc_1_1_db_1_1_i_datastore_object_list.html" target="_top" xlink:title="List of objects read from database. Such objects should implement.">
<polygon fill="none" stroke="black" points="223,-60.5 223,-101.5 383,-101.5 383,-60.5 223,-60.5"/>
<text text-anchor="start" x="231" y="-89.5" font-family="Helvetica,sans-Serif" font-size="10.00">BlackMisc::Db::IDatastore</text>
<text text-anchor="start" x="231" y="-78.5" font-family="Helvetica,sans-Serif" font-size="10.00">ObjectList&lt; OBJ, CONTAINER,</text>
<text text-anchor="middle" x="303" y="-67.5" font-family="Helvetica,sans-Serif" font-size="10.00"> KEYTYPE &gt;</text>
</a>
</g>
</g>
<!-- Node1&#45;&gt;Node30 -->
<g id="edge29" class="edge">
<title>Node1&#45;&gt;Node30</title>
<path fill="none" stroke="midnightblue" d="M82.45,-445.57C85.01,-380.22 101.07,-204.98 198,-111 205.08,-104.13 213.63,-98.82 222.75,-94.71"/>
<polygon fill="midnightblue" stroke="midnightblue" points="78.94,-445.66 82.12,-455.77 85.94,-445.88 78.94,-445.66"/>
</g>
<!-- Node31 -->
<g id="node31" class="node">
<title>Node31</title>
<g id="a_node31"><a xlink:href="class_black_misc_1_1_i_timestamp_with_offset_object_list.html" target="_top" xlink:title="List of objects with timestamp and offset. Such objects should implement.">
<polygon fill="none" stroke="black" points="226.5,-0.5 226.5,-41.5 379.5,-41.5 379.5,-0.5 226.5,-0.5"/>
<text text-anchor="start" x="234.5" y="-29.5" font-family="Helvetica,sans-Serif" font-size="10.00">BlackMisc::ITimestampWith</text>
<text text-anchor="start" x="234.5" y="-18.5" font-family="Helvetica,sans-Serif" font-size="10.00">OffsetObjectList&lt; OBJ,</text>
<text text-anchor="middle" x="303" y="-7.5" font-family="Helvetica,sans-Serif" font-size="10.00"> CONTAINER &gt;</text>
</a>
</g>
</g>
<!-- Node1&#45;&gt;Node31 -->
<g id="edge30" class="edge">
<title>Node1&#45;&gt;Node31</title>
<path fill="none" stroke="midnightblue" d="M85.68,-445.87C98.12,-364.27 140.99,-108.66 198,-51 205.93,-42.98 215.85,-37.07 226.4,-32.73"/>
<polygon fill="midnightblue" stroke="midnightblue" points="82.22,-445.37 84.19,-455.78 89.14,-446.41 82.22,-445.37"/>
</g>
<!-- Node3 -->
<g id="node3" class="node">
<title>Node3</title>
<g id="a_node3"><a xlink:href="class_black_misc_1_1_simulation_1_1_c_distributor_list.html" target="_top" xlink:title="Value object encapsulating a list of distributors.">
<polygon fill="none" stroke="black" points="468,-886 468,-916 593,-916 593,-886 468,-886"/>
<text text-anchor="start" x="476" y="-904" font-family="Helvetica,sans-Serif" font-size="10.00">BlackMisc::Simulation</text>
<text text-anchor="middle" x="530.5" y="-893" font-family="Helvetica,sans-Serif" font-size="10.00">::CDistributorList</text>
</a>
</g>
</g>
<!-- Node2&#45;&gt;Node3 -->
<g id="edge2" class="edge">
<title>Node2&#45;&gt;Node3</title>
<path fill="none" stroke="midnightblue" d="M387.58,-901C414.15,-901 443.04,-901 467.78,-901"/>
<polygon fill="midnightblue" stroke="midnightblue" points="387.53,-897.5 377.53,-901 387.53,-904.5 387.53,-897.5"/>
</g>
<!-- Node5 -->
<g id="node5" class="node">
<title>Node5</title>
<g id="a_node5"><a xlink:href="class_black_misc_1_1_aviation_1_1_c_livery_list.html" target="_top" xlink:title="Value object for a list of airports.">
<polygon fill="none" stroke="black" points="474.5,-831 474.5,-861 586.5,-861 586.5,-831 474.5,-831"/>
<text text-anchor="start" x="482.5" y="-849" font-family="Helvetica,sans-Serif" font-size="10.00">BlackMisc::Aviation</text>
<text text-anchor="middle" x="530.5" y="-838" font-family="Helvetica,sans-Serif" font-size="10.00">::CLiveryList</text>
</a>
</g>
</g>
<!-- Node4&#45;&gt;Node5 -->
<g id="edge4" class="edge">
<title>Node4&#45;&gt;Node5</title>
<path fill="none" stroke="midnightblue" d="M414.69,-846C435.38,-846 456.17,-846 474.26,-846"/>
<polygon fill="midnightblue" stroke="midnightblue" points="414.55,-842.5 404.55,-846 414.55,-849.5 414.55,-842.5"/>
</g>
<!-- Node7 -->
<g id="node7" class="node">
<title>Node7</title>
<g id="a_node7"><a xlink:href="class_black_misc_1_1_aviation_1_1_c_airline_icao_code_list.html" target="_top" xlink:title="Value object encapsulating a list of ICAO codes.">
<polygon fill="none" stroke="black" points="469,-776 469,-806 592,-806 592,-776 469,-776"/>
<text text-anchor="start" x="477" y="-794" font-family="Helvetica,sans-Serif" font-size="10.00">BlackMisc::Aviation</text>
<text text-anchor="middle" x="530.5" y="-783" font-family="Helvetica,sans-Serif" font-size="10.00">::CAirlineIcaoCodeList</text>
</a>
</g>
</g>
<!-- Node6&#45;&gt;Node7 -->
<g id="edge6" class="edge">
<title>Node6&#45;&gt;Node7</title>
<path fill="none" stroke="midnightblue" d="M394.94,-791C419.76,-791 446.06,-791 468.75,-791"/>
<polygon fill="midnightblue" stroke="midnightblue" points="394.77,-787.5 384.77,-791 394.77,-794.5 394.77,-787.5"/>
</g>
<!-- Node9 -->
<g id="node9" class="node">
<title>Node9</title>
<g id="a_node9"><a xlink:href="class_black_misc_1_1_db_1_1_c_distribution_list.html" target="_top" xlink:title="Multiple distributions for different channels:">
<polygon fill="none" stroke="black" points="444,-721.5 444,-740.5 617,-740.5 617,-721.5 444,-721.5"/>
<text text-anchor="middle" x="530.5" y="-728.5" font-family="Helvetica,sans-Serif" font-size="10.00">BlackMisc::Db::CDistributionList</text>
</a>
</g>
</g>
<!-- Node8&#45;&gt;Node9 -->
<g id="edge8" class="edge">
<title>Node8&#45;&gt;Node9</title>
<path fill="none" stroke="midnightblue" d="M384.92,-731C404.1,-731 424.61,-731 443.98,-731"/>
<polygon fill="midnightblue" stroke="midnightblue" points="384.73,-727.5 374.73,-731 384.73,-734.5 384.73,-727.5"/>
</g>
<!-- Node11 -->
<g id="node11" class="node">
<title>Node11</title>
<g id="a_node11"><a xlink:href="class_black_misc_1_1_db_1_1_c_db_info_list.html" target="_top" xlink:title="Value object encapsulating a list of info objects.">
<polygon fill="none" stroke="black" points="456.5,-666.5 456.5,-685.5 604.5,-685.5 604.5,-666.5 456.5,-666.5"/>
<text text-anchor="middle" x="530.5" y="-673.5" font-family="Helvetica,sans-Serif" font-size="10.00">BlackMisc::Db::CDbInfoList</text>
</a>
</g>
</g>
<!-- Node10&#45;&gt;Node11 -->
<g id="edge10" class="edge">
<title>Node10&#45;&gt;Node11</title>
<path fill="none" stroke="midnightblue" d="M417.31,-676C430.57,-676 443.81,-676 456.32,-676"/>
<polygon fill="midnightblue" stroke="midnightblue" points="417.18,-672.5 407.18,-676 417.18,-679.5 417.18,-672.5"/>
</g>
<!-- Node13 -->
<g id="node13" class="node">
<title>Node13</title>
<g id="a_node13"><a xlink:href="class_black_misc_1_1_aviation_1_1_c_airport_list.html" target="_top" xlink:title="Value object for a list of airports.">
<polygon fill="none" stroke="black" points="474.5,-606 474.5,-636 586.5,-636 586.5,-606 474.5,-606"/>
<text text-anchor="start" x="482.5" y="-624" font-family="Helvetica,sans-Serif" font-size="10.00">BlackMisc::Aviation</text>
<text text-anchor="middle" x="530.5" y="-613" font-family="Helvetica,sans-Serif" font-size="10.00">::CAirportList</text>
</a>
</g>
</g>
<!-- Node12&#45;&gt;Node13 -->
<g id="edge12" class="edge">
<title>Node12&#45;&gt;Node13</title>
<path fill="none" stroke="midnightblue" d="M394.41,-621C421.46,-621 450.31,-621 474.36,-621"/>
<polygon fill="midnightblue" stroke="midnightblue" points="394.14,-617.5 384.14,-621 394.14,-624.5 394.14,-617.5"/>
</g>
<!-- Node15 -->
<g id="node15" class="node">
<title>Node15</title>
<g id="a_node15"><a xlink:href="class_black_misc_1_1_aviation_1_1_c_aircraft_icao_code_list.html" target="_top" xlink:title="Value object encapsulating a list of ICAO codes.">
<polygon fill="none" stroke="black" points="467,-546 467,-576 594,-576 594,-546 467,-546"/>
<text text-anchor="start" x="475" y="-564" font-family="Helvetica,sans-Serif" font-size="10.00">BlackMisc::Aviation</text>
<text text-anchor="middle" x="530.5" y="-553" font-family="Helvetica,sans-Serif" font-size="10.00">::CAircraftIcaoCodeList</text>
</a>
</g>
</g>
<!-- Node14&#45;&gt;Node15 -->
<g id="edge14" class="edge">
<title>Node14&#45;&gt;Node15</title>
<path fill="none" stroke="midnightblue" d="M396.73,-561C420.38,-561 445.23,-561 466.96,-561"/>
<polygon fill="midnightblue" stroke="midnightblue" points="396.69,-557.5 386.69,-561 396.69,-564.5 396.69,-557.5"/>
</g>
<!-- Node17 -->
<g id="node17" class="node">
<title>Node17</title>
<g id="a_node17"><a xlink:href="class_black_misc_1_1_simulation_1_1_c_aircraft_model_list.html" target="_top" xlink:title="Value object encapsulating a list of aircraft models.">
<polygon fill="none" stroke="black" points="468,-486 468,-516 593,-516 593,-486 468,-486"/>
<text text-anchor="start" x="476" y="-504" font-family="Helvetica,sans-Serif" font-size="10.00">BlackMisc::Simulation</text>
<text text-anchor="middle" x="530.5" y="-493" font-family="Helvetica,sans-Serif" font-size="10.00">::CAircraftModelList</text>
</a>
</g>
</g>
<!-- Node16&#45;&gt;Node17 -->
<g id="edge16" class="edge">
<title>Node16&#45;&gt;Node17</title>
<path fill="none" stroke="midnightblue" d="M389.36,-501C415.47,-501 443.67,-501 467.87,-501"/>
<polygon fill="midnightblue" stroke="midnightblue" points="389.09,-497.5 379.09,-501 389.09,-504.5 389.09,-497.5"/>
</g>
<!-- Node19 -->
<g id="node19" class="node">
<title>Node19</title>
<g id="a_node19"><a xlink:href="class_black_misc_1_1_db_1_1_c_artifact_list.html" target="_top" xlink:title="Multiple artifacts.">
<polygon fill="none" stroke="black" points="454.5,-431.5 454.5,-450.5 606.5,-450.5 606.5,-431.5 454.5,-431.5"/>
<text text-anchor="middle" x="530.5" y="-438.5" font-family="Helvetica,sans-Serif" font-size="10.00">BlackMisc::Db::CArtifactList</text>
</a>
</g>
</g>
<!-- Node18&#45;&gt;Node19 -->
<g id="edge18" class="edge">
<title>Node18&#45;&gt;Node19</title>
<path fill="none" stroke="midnightblue" d="M384.98,-441C407.6,-441 432.07,-441 454.34,-441"/>
<polygon fill="midnightblue" stroke="midnightblue" points="384.73,-437.5 374.73,-441 384.73,-444.5 384.73,-437.5"/>
</g>
<!-- Node21 -->
<g id="node21" class="node">
<title>Node21</title>
<g id="a_node21"><a xlink:href="class_black_misc_1_1_c_country_list.html" target="_top" xlink:title="Value object encapsulating a list of countries.">
<polygon fill="none" stroke="black" points="463.5,-371.5 463.5,-390.5 597.5,-390.5 597.5,-371.5 463.5,-371.5"/>
<text text-anchor="middle" x="530.5" y="-378.5" font-family="Helvetica,sans-Serif" font-size="10.00">BlackMisc::CCountryList</text>
</a>
</g>
</g>
<!-- Node20&#45;&gt;Node21 -->
<g id="edge20" class="edge">
<title>Node20&#45;&gt;Node21</title>
<path fill="none" stroke="midnightblue" d="M399.68,-381C421.11,-381 443.38,-381 463.3,-381"/>
<polygon fill="midnightblue" stroke="midnightblue" points="399.57,-377.5 389.57,-381 399.57,-384.5 399.57,-377.5"/>
</g>
<!-- Node23 -->
<g id="node23" class="node">
<title>Node23</title>
<g id="a_node23"><a xlink:href="class_black_misc_1_1_aviation_1_1_c_aircraft_category_list.html" target="_top" xlink:title="Value object encapsulating a list of ICAO codes.">
<polygon fill="none" stroke="black" points="467.5,-306 467.5,-336 593.5,-336 593.5,-306 467.5,-306"/>
<text text-anchor="start" x="475.5" y="-324" font-family="Helvetica,sans-Serif" font-size="10.00">BlackMisc::Aviation</text>
<text text-anchor="middle" x="530.5" y="-313" font-family="Helvetica,sans-Serif" font-size="10.00">::CAircraftCategoryList</text>
</a>
</g>
</g>
<!-- Node22&#45;&gt;Node23 -->
<g id="edge22" class="edge">
<title>Node22&#45;&gt;Node23</title>
<path fill="none" stroke="midnightblue" d="M396.21,-321C420.14,-321 445.34,-321 467.32,-321"/>
<polygon fill="midnightblue" stroke="midnightblue" points="396.05,-317.5 386.05,-321 396.05,-324.5 396.05,-317.5"/>
</g>
<!-- Node25 -->
<g id="node25" class="node">
<title>Node25</title>
<g id="a_node25"><a xlink:href="class_black_misc_1_1_aviation_1_1_c_aircraft_situation_list.html" target="_top" xlink:title="List of aircraft situations.">
<polygon fill="none" stroke="black" points="468,-246 468,-276 593,-276 593,-246 468,-246"/>
<text text-anchor="start" x="476" y="-264" font-family="Helvetica,sans-Serif" font-size="10.00">BlackMisc::Aviation</text>
<text text-anchor="middle" x="530.5" y="-253" font-family="Helvetica,sans-Serif" font-size="10.00">::CAircraftSituationList</text>
</a>
</g>
</g>
<!-- Node24&#45;&gt;Node25 -->
<g id="edge24" class="edge">
<title>Node24&#45;&gt;Node25</title>
<path fill="none" stroke="midnightblue" d="M410.52,-261C430.15,-261 450.03,-261 467.78,-261"/>
<polygon fill="midnightblue" stroke="midnightblue" points="410.29,-257.5 400.29,-261 410.29,-264.5 410.29,-257.5"/>
</g>
<!-- Node27 -->
<g id="node27" class="node">
<title>Node27</title>
<g id="a_node27"><a xlink:href="class_black_misc_1_1_aviation_1_1_c_aircraft_situation_change_list.html" target="_top" xlink:title="Value object encapsulating a list of aircraft parts.">
<polygon fill="none" stroke="black" points="449.5,-186 449.5,-216 611.5,-216 611.5,-186 449.5,-186"/>
<text text-anchor="start" x="457.5" y="-204" font-family="Helvetica,sans-Serif" font-size="10.00">BlackMisc::Aviation</text>
<text text-anchor="middle" x="530.5" y="-193" font-family="Helvetica,sans-Serif" font-size="10.00">::CAircraftSituationChangeList</text>
</a>
</g>
</g>
<!-- Node26&#45;&gt;Node27 -->
<g id="edge26" class="edge">
<title>Node26&#45;&gt;Node27</title>
<path fill="none" stroke="midnightblue" d="M418.25,-201C428.77,-201 439.27,-201 449.39,-201"/>
<polygon fill="midnightblue" stroke="midnightblue" points="418.17,-197.5 408.17,-201 418.17,-204.5 418.17,-197.5"/>
</g>
<!-- Node29 -->
<g id="node29" class="node">
<title>Node29</title>
<g id="a_node29"><a xlink:href="class_black_misc_1_1_aviation_1_1_c_aircraft_parts_list.html" target="_top" xlink:title="Value object encapsulating a list of aircraft parts.">
<polygon fill="none" stroke="black" points="474.5,-126 474.5,-156 586.5,-156 586.5,-126 474.5,-126"/>
<text text-anchor="start" x="482.5" y="-144" font-family="Helvetica,sans-Serif" font-size="10.00">BlackMisc::Aviation</text>
<text text-anchor="middle" x="530.5" y="-133" font-family="Helvetica,sans-Serif" font-size="10.00">::CAircraftPartsList</text>
</a>
</g>
</g>
<!-- Node28&#45;&gt;Node29 -->
<g id="edge28" class="edge">
<title>Node28&#45;&gt;Node29</title>
<path fill="none" stroke="midnightblue" d="M400.87,-141C426.04,-141 452.3,-141 474.47,-141"/>
<polygon fill="midnightblue" stroke="midnightblue" points="400.54,-137.5 390.54,-141 400.54,-144.5 400.54,-137.5"/>
</g>
</g>
</svg>
