<?xml version="1.0" encoding="UTF-8" standalone="no"?>
<!DOCTYPE svg PUBLIC "-//W3C//DTD SVG 1.1//EN"
 "http://www.w3.org/Graphics/SVG/1.1/DTD/svg11.dtd">
<!-- Generated by graphviz version 2.43.0 (0)
 -->
<!-- Title: BlackMisc::Simulation::IModelsUpdatable Pages: 1 -->
<svg width="561pt" height="274pt"
 viewBox="0.00 0.00 561.00 273.50" xmlns="http://www.w3.org/2000/svg" xmlns:xlink="http://www.w3.org/1999/xlink">
<g id="graph0" class="graph" transform="scale(1 1) rotate(0) translate(4 269.5)">
<title>BlackMisc::Simulation::IModelsUpdatable</title>
<!-- Node1 -->
<g id="node1" class="node">
<title>Node1</title>
<g id="a_node1"><a xlink:title="Interface to &quot;something&quot; backing models, which can be modified (updated)">
<polygon fill="#bfbfbf" stroke="black" points="0,-161 0,-191 125,-191 125,-161 0,-161"/>
<text text-anchor="start" x="8" y="-179" font-family="Helvetica,sans-Serif" font-size="10.00">BlackMisc::Simulation</text>
<text text-anchor="middle" x="62.5" y="-168" font-family="Helvetica,sans-Serif" font-size="10.00">::IModelsUpdatable</text>
</a>
</g>
</g>
<!-- Node2 -->
<g id="node2" class="node">
<title>Node2</title>
<g id="a_node2"><a xlink:href="class_black_gui_1_1_components_1_1_c_db_model_workbench_component.html" target="_top" xlink:title="Handling of own models on disk (the models installed for the simulator)">
<polygon fill="none" stroke="black" points="161,-235 161,-265 344,-265 344,-235 161,-235"/>
<text text-anchor="start" x="169" y="-253" font-family="Helvetica,sans-Serif" font-size="10.00">BlackGui::Components</text>
<text text-anchor="middle" x="252.5" y="-242" font-family="Helvetica,sans-Serif" font-size="10.00">::CDbModelWorkbenchComponent</text>
</a>
</g>
</g>
<!-- Node1&#45;&gt;Node2 -->
<g id="edge1" class="edge">
<title>Node1&#45;&gt;Node2</title>
<path fill="none" stroke="midnightblue" d="M98.1,-196.05C116.37,-206.04 139.43,-217.72 161,-226 169.5,-229.26 178.61,-232.25 187.66,-234.92"/>
<polygon fill="midnightblue" stroke="midnightblue" points="99.72,-192.95 89.28,-191.16 96.33,-199.07 99.72,-192.95"/>
</g>
<!-- Node3 -->
<g id="node3" class="node">
<title>Node3</title>
<g id="a_node3"><a xlink:href="class_black_gui_1_1_components_1_1_c_db_own_model_set_component.html" target="_top" xlink:title="Handling of the own model set.">
<polygon fill="none" stroke="black" points="169,-186 169,-216 336,-216 336,-186 169,-186"/>
<text text-anchor="start" x="177" y="-204" font-family="Helvetica,sans-Serif" font-size="10.00">BlackGui::Components</text>
<text text-anchor="middle" x="252.5" y="-193" font-family="Helvetica,sans-Serif" font-size="10.00">::CDbOwnModelSetComponent</text>
</a>
</g>
</g>
<!-- Node1&#45;&gt;Node3 -->
<g id="edge2" class="edge">
<title>Node1&#45;&gt;Node3</title>
<path fill="none" stroke="midnightblue" d="M135.08,-185.52C146.16,-186.99 157.67,-188.52 168.96,-190.02"/>
<polygon fill="midnightblue" stroke="midnightblue" points="135.43,-182.03 125.06,-184.19 134.51,-188.97 135.43,-182.03"/>
</g>
<!-- Node4 -->
<g id="node4" class="node">
<title>Node4</title>
<g id="a_node4"><a xlink:href="class_black_gui_1_1_components_1_1_c_db_own_models_component.html" target="_top" xlink:title="Handling of own models on disk (the models installed for the simulator)">
<polygon fill="none" stroke="black" points="174.5,-137 174.5,-167 330.5,-167 330.5,-137 174.5,-137"/>
<text text-anchor="start" x="182.5" y="-155" font-family="Helvetica,sans-Serif" font-size="10.00">BlackGui::Components</text>
<text text-anchor="middle" x="252.5" y="-144" font-family="Helvetica,sans-Serif" font-size="10.00">::CDbOwnModelsComponent</text>
</a>
</g>
</g>
<!-- Node1&#45;&gt;Node4 -->
<g id="edge3" class="edge">
<title>Node1&#45;&gt;Node4</title>
<path fill="none" stroke="midnightblue" d="M135.18,-166.85C147.99,-165.21 161.39,-163.5 174.34,-161.85"/>
<polygon fill="midnightblue" stroke="midnightblue" points="134.53,-163.4 125.06,-168.14 135.42,-170.35 134.53,-163.4"/>
</g>
<!-- Node5 -->
<g id="node5" class="node">
<title>Node5</title>
<g id="a_node5"><a xlink:href="class_black_misc_1_1_simulation_1_1_i_aircraft_model_loader.html" target="_top" xlink:title="Load the aircraft for a simulator.">
<polygon fill="none" stroke="black" points="190,-88 190,-118 315,-118 315,-88 190,-88"/>
<text text-anchor="start" x="198" y="-106" font-family="Helvetica,sans-Serif" font-size="10.00">BlackMisc::Simulation</text>
<text text-anchor="middle" x="252.5" y="-95" font-family="Helvetica,sans-Serif" font-size="10.00">::IAircraftModelLoader</text>
</a>
</g>
</g>
<!-- Node1&#45;&gt;Node5 -->
<g id="edge4" class="edge">
<title>Node1&#45;&gt;Node5</title>
<path fill="none" stroke="midnightblue" d="M99.64,-156.18C117.71,-146.8 140.13,-135.94 161,-128 170.45,-124.41 180.62,-121.09 190.63,-118.12"/>
<polygon fill="midnightblue" stroke="midnightblue" points="97.84,-153.17 90.62,-160.93 101.1,-159.37 97.84,-153.17"/>
</g>
<!-- Node6 -->
<g id="node6" class="node">
<title>Node6</title>
<g id="a_node6"><a xlink:href="class_black_misc_1_1_simulation_1_1_c_dummy_model_loader.html" target="_top" xlink:title="Dummy loader for testing.">
<polygon fill="none" stroke="black" points="401,-171 401,-201 532,-201 532,-171 401,-171"/>
<text text-anchor="start" x="409" y="-189" font-family="Helvetica,sans-Serif" font-size="10.00">BlackMisc::Simulation</text>
<text text-anchor="middle" x="466.5" y="-178" font-family="Helvetica,sans-Serif" font-size="10.00">::CDummyModelLoader</text>
</a>
</g>
</g>
<!-- Node5&#45;&gt;Node6 -->
<g id="edge5" class="edge">
<title>Node5&#45;&gt;Node6</title>
<path fill="none" stroke="midnightblue" d="M325.1,-119.31C331.66,-121.83 338.06,-124.71 344,-128 362.99,-138.52 361.09,-150.34 380,-161 386.74,-164.8 394.1,-168.06 401.6,-170.86"/>
<polygon fill="midnightblue" stroke="midnightblue" points="326.01,-115.92 315.41,-115.88 323.67,-122.52 326.01,-115.92"/>
</g>
<!-- Node7 -->
<g id="node7" class="node">
<title>Node7</title>
<g id="a_node7"><a xlink:href="class_black_misc_1_1_simulation_1_1_flightgear_1_1_c_aircraft_model_loader_flightgear.html" target="_top" xlink:title="Flightgear aircraft model loader.">
<polygon fill="none" stroke="black" points="391.5,-110.5 391.5,-151.5 541.5,-151.5 541.5,-110.5 391.5,-110.5"/>
<text text-anchor="start" x="399.5" y="-139.5" font-family="Helvetica,sans-Serif" font-size="10.00">BlackMisc::Simulation</text>
<text text-anchor="start" x="399.5" y="-128.5" font-family="Helvetica,sans-Serif" font-size="10.00">::Flightgear::CAircraftModel</text>
<text text-anchor="middle" x="466.5" y="-117.5" font-family="Helvetica,sans-Serif" font-size="10.00">LoaderFlightgear</text>
</a>
</g>
</g>
<!-- Node5&#45;&gt;Node7 -->
<g id="edge6" class="edge">
<title>Node5&#45;&gt;Node7</title>
<path fill="none" stroke="midnightblue" d="M325.07,-112.45C346.41,-115.27 369.84,-118.37 391.35,-121.21"/>
<polygon fill="midnightblue" stroke="midnightblue" points="325.48,-108.98 315.1,-111.14 324.56,-115.92 325.48,-108.98"/>
</g>
<!-- Node8 -->
<g id="node8" class="node">
<title>Node8</title>
<g id="a_node8"><a xlink:href="class_black_misc_1_1_simulation_1_1_fs_common_1_1_c_aircraft_cfg_parser.html" target="_top" xlink:title="Utility, parsing the aircraft.cfg files.">
<polygon fill="none" stroke="black" points="380,-61 380,-91 553,-91 553,-61 380,-61"/>
<text text-anchor="start" x="388" y="-79" font-family="Helvetica,sans-Serif" font-size="10.00">BlackMisc::Simulation</text>
<text text-anchor="middle" x="466.5" y="-68" font-family="Helvetica,sans-Serif" font-size="10.00">::FsCommon::CAircraftCfgParser</text>
</a>
</g>
</g>
<!-- Node5&#45;&gt;Node8 -->
<g id="edge7" class="edge">
<title>Node5&#45;&gt;Node8</title>
<path fill="none" stroke="midnightblue" d="M325.23,-93.86C342.72,-91.64 361.61,-89.23 379.69,-86.93"/>
<polygon fill="midnightblue" stroke="midnightblue" points="324.58,-90.42 315.1,-95.15 325.47,-97.36 324.58,-90.42"/>
</g>
<!-- Node9 -->
<g id="node9" class="node">
<title>Node9</title>
<g id="a_node9"><a xlink:href="class_black_misc_1_1_simulation_1_1_x_plane_1_1_c_aircraft_model_loader_x_plane.html" target="_top" xlink:title="XPlane aircraft model loader.">
<polygon fill="none" stroke="black" points="383,-0.5 383,-41.5 550,-41.5 550,-0.5 383,-0.5"/>
<text text-anchor="start" x="391" y="-29.5" font-family="Helvetica,sans-Serif" font-size="10.00">BlackMisc::Simulation</text>
<text text-anchor="start" x="391" y="-18.5" font-family="Helvetica,sans-Serif" font-size="10.00">::XPlane::CAircraftModelLoader</text>
<text text-anchor="middle" x="466.5" y="-7.5" font-family="Helvetica,sans-Serif" font-size="10.00">XPlane</text>
</a>
</g>
</g>
<!-- Node5&#45;&gt;Node9 -->
<g id="edge8" class="edge">
<title>Node5&#45;&gt;Node9</title>
<path fill="none" stroke="midnightblue" d="M299.44,-84.02C323.37,-74.25 353.18,-62.27 380,-52 389,-48.56 398.56,-45 407.91,-41.57"/>
<polygon fill="midnightblue" stroke="midnightblue" points="297.83,-80.9 289.9,-87.93 300.48,-87.38 297.83,-80.9"/>
</g>
</g>
</svg>
