<?xml version="1.0" encoding="UTF-8" standalone="no"?>
<!DOCTYPE svg PUBLIC "-//W3C//DTD SVG 1.1//EN"
 "http://www.w3.org/Graphics/SVG/1.1/DTD/svg11.dtd">
<!-- Generated by graphviz version 2.43.0 (0)
 -->
<!-- Title: BlackGui::Menus::IAircraftModelViewMenu Pages: 1 -->
<svg width="679pt" height="137pt"
 viewBox="0.00 0.00 679.00 137.00" xmlns="http://www.w3.org/2000/svg" xmlns:xlink="http://www.w3.org/1999/xlink">
<g id="graph0" class="graph" transform="scale(1 1) rotate(0) translate(4 133)">
<title>BlackGui::Menus::IAircraftModelViewMenu</title>
<!-- Node1 -->
<g id="node1" class="node">
<title>Node1</title>
<g id="a_node1"><a xlink:title="Menu base class for aircraft model view menus.">
<polygon fill="#bfbfbf" stroke="black" points="307,-49.5 307,-79.5 450,-79.5 450,-49.5 307,-49.5"/>
<text text-anchor="start" x="315" y="-67.5" font-family="Helvetica,sans-Serif" font-size="10.00">BlackGui::Menus::IAircraft</text>
<text text-anchor="middle" x="378.5" y="-56.5" font-family="Helvetica,sans-Serif" font-size="10.00">ModelViewMenu</text>
</a>
</g>
</g>
<!-- Node4 -->
<g id="node4" class="node">
<title>Node4</title>
<g id="a_node4"><a xlink:href="class_black_gui_1_1_menus_1_1_c_consolidate_with_db_data_menu.html" target="_top" xlink:title="Consolidate/merge with DB data.">
<polygon fill="none" stroke="black" points="494,-98.5 494,-128.5 663,-128.5 663,-98.5 494,-98.5"/>
<text text-anchor="start" x="502" y="-116.5" font-family="Helvetica,sans-Serif" font-size="10.00">BlackGui::Menus::CConsolidate</text>
<text text-anchor="middle" x="578.5" y="-105.5" font-family="Helvetica,sans-Serif" font-size="10.00">WithDbDataMenu</text>
</a>
</g>
</g>
<!-- Node1&#45;&gt;Node4 -->
<g id="edge3" class="edge">
<title>Node1&#45;&gt;Node4</title>
<path fill="none" stroke="midnightblue" d="M450.12,-81.98C471.94,-87.38 495.78,-93.28 516.86,-98.49"/>
<polygon fill="midnightblue" stroke="midnightblue" points="450.8,-78.54 440.25,-79.53 449.12,-85.33 450.8,-78.54"/>
</g>
<!-- Node5 -->
<g id="node5" class="node">
<title>Node5</title>
<g id="a_node5"><a xlink:href="class_black_gui_1_1_menus_1_1_c_consolidate_with_simulator_models.html" target="_top" xlink:title="Merge/update with simulator models (e.g. remove no longer existing models)">
<polygon fill="none" stroke="black" points="494,-49.5 494,-79.5 663,-79.5 663,-49.5 494,-49.5"/>
<text text-anchor="start" x="502" y="-67.5" font-family="Helvetica,sans-Serif" font-size="10.00">BlackGui::Menus::CConsolidate</text>
<text text-anchor="middle" x="578.5" y="-56.5" font-family="Helvetica,sans-Serif" font-size="10.00">WithSimulatorModels</text>
</a>
</g>
</g>
<!-- Node1&#45;&gt;Node5 -->
<g id="edge4" class="edge">
<title>Node1&#45;&gt;Node5</title>
<path fill="none" stroke="midnightblue" d="M460.18,-64.5C471.23,-64.5 482.59,-64.5 493.69,-64.5"/>
<polygon fill="midnightblue" stroke="midnightblue" points="460.14,-61 450.14,-64.5 460.14,-68 460.14,-61"/>
</g>
<!-- Node6 -->
<g id="node6" class="node">
<title>Node6</title>
<g id="a_node6"><a xlink:href="class_black_gui_1_1_menus_1_1_c_show_simulator_file_menu.html" target="_top" xlink:title="Open the simulator file (e.g. aircraft.cfg) in the standard text editor.">
<polygon fill="none" stroke="black" points="486,-0.5 486,-30.5 671,-30.5 671,-0.5 486,-0.5"/>
<text text-anchor="start" x="494" y="-18.5" font-family="Helvetica,sans-Serif" font-size="10.00">BlackGui::Menus::CShowSimulator</text>
<text text-anchor="middle" x="578.5" y="-7.5" font-family="Helvetica,sans-Serif" font-size="10.00">FileMenu</text>
</a>
</g>
</g>
<!-- Node1&#45;&gt;Node6 -->
<g id="edge5" class="edge">
<title>Node1&#45;&gt;Node6</title>
<path fill="none" stroke="midnightblue" d="M450.12,-47.02C471.94,-41.62 495.78,-35.72 516.86,-30.51"/>
<polygon fill="midnightblue" stroke="midnightblue" points="449.12,-43.67 440.25,-49.47 450.8,-50.46 449.12,-43.67"/>
</g>
<!-- Node2 -->
<g id="node2" class="node">
<title>Node2</title>
<g id="a_node2"><a xlink:href="class_black_gui_1_1_menus_1_1_i_menu_delegate.html" target="_top" xlink:title="Interface to implement a custom menu.">
<polygon fill="none" stroke="black" points="92,-55 92,-74 271,-74 271,-55 92,-55"/>
<text text-anchor="middle" x="181.5" y="-62" font-family="Helvetica,sans-Serif" font-size="10.00">BlackGui::Menus::IMenuDelegate</text>
</a>
</g>
</g>
<!-- Node2&#45;&gt;Node1 -->
<g id="edge1" class="edge">
<title>Node2&#45;&gt;Node1</title>
<path fill="none" stroke="midnightblue" d="M281.28,-64.5C289.92,-64.5 298.54,-64.5 306.88,-64.5"/>
<polygon fill="midnightblue" stroke="midnightblue" points="281.16,-61 271.16,-64.5 281.16,-68 281.16,-61"/>
</g>
<!-- Node3 -->
<g id="node3" class="node">
<title>Node3</title>
<g id="a_node3"><a target="_parent" xlink:href="http://doc.qt.io/qt-5/qobject.html" xlink:title=" ">
<polygon fill="none" stroke="black" points="0,-55 0,-74 56,-74 56,-55 0,-55"/>
<text text-anchor="middle" x="28" y="-62" font-family="Helvetica,sans-Serif" font-size="10.00">QObject</text>
</a>
</g>
</g>
<!-- Node3&#45;&gt;Node2 -->
<g id="edge2" class="edge">
<title>Node3&#45;&gt;Node2</title>
<path fill="none" stroke="midnightblue" d="M66.12,-64.5C74.13,-64.5 82.93,-64.5 91.98,-64.5"/>
<polygon fill="midnightblue" stroke="midnightblue" points="66.09,-61 56.09,-64.5 66.09,-68 66.09,-61"/>
</g>
</g>
</svg>
