<?xml version="1.0" encoding="UTF-8" standalone="no"?>
<!DOCTYPE svg PUBLIC "-//W3C//DTD SVG 1.1//EN"
 "http://www.w3.org/Graphics/SVG/1.1/DTD/svg11.dtd">
<!-- Generated by graphviz version 2.43.0 (0)
 -->
<!-- Title: BlackMisc::Simulation::Data::CCentralMultiSimulatorModelCachesAware Pages: 1 -->
<svg width="753pt" height="210pt"
 viewBox="0.00 0.00 753.00 209.50" xmlns="http://www.w3.org/2000/svg" xmlns:xlink="http://www.w3.org/1999/xlink">
<g id="graph0" class="graph" transform="scale(1 1) rotate(0) translate(4 205.5)">
<title>BlackMisc::Simulation::Data::CCentralMultiSimulatorModelCachesAware</title>
<!-- Node1 -->
<g id="node1" class="node">
<title>Node1</title>
<g id="a_node1"><a xlink:title="Basically a QObject free (delegate based) version of CCentralMultiSimulatorModelCachesProvider.">
<polygon fill="#bfbfbf" stroke="black" points="209,-82.5 209,-123.5 375,-123.5 375,-82.5 209,-82.5"/>
<text text-anchor="start" x="217" y="-111.5" font-family="Helvetica,sans-Serif" font-size="10.00">BlackMisc::Simulation</text>
<text text-anchor="start" x="217" y="-100.5" font-family="Helvetica,sans-Serif" font-size="10.00">::Data::CCentralMultiSimulator</text>
<text text-anchor="middle" x="292" y="-89.5" font-family="Helvetica,sans-Serif" font-size="10.00">ModelCachesAware</text>
</a>
</g>
</g>
<!-- Node4 -->
<g id="node4" class="node">
<title>Node4</title>
<g id="a_node4"><a xlink:href="class_black_misc_1_1_simulation_1_1_i_aircraft_model_loader.html" target="_top" xlink:title="Load the aircraft for a simulator.">
<polygon fill="none" stroke="black" points="411,-88 411,-118 536,-118 536,-88 411,-88"/>
<text text-anchor="start" x="419" y="-106" font-family="Helvetica,sans-Serif" font-size="10.00">BlackMisc::Simulation</text>
<text text-anchor="middle" x="473.5" y="-95" font-family="Helvetica,sans-Serif" font-size="10.00">::IAircraftModelLoader</text>
</a>
</g>
</g>
<!-- Node1&#45;&gt;Node4 -->
<g id="edge3" class="edge">
<title>Node1&#45;&gt;Node4</title>
<path fill="none" stroke="midnightblue" d="M385.28,-103C393.93,-103 402.55,-103 410.82,-103"/>
<polygon fill="midnightblue" stroke="midnightblue" points="385.13,-99.5 375.13,-103 385.13,-106.5 385.13,-99.5"/>
</g>
<!-- Node2 -->
<g id="node2" class="node">
<title>Node2</title>
<g id="a_node2"><a xlink:href="class_black_misc_1_1_simulation_1_1_i_models_for_simulator_setable.html" target="_top" xlink:title="Interface to &quot;something&quot; backing models, which can be set.">
<polygon fill="none" stroke="black" points="6.5,-113 6.5,-143 166.5,-143 166.5,-113 6.5,-113"/>
<text text-anchor="start" x="14.5" y="-131" font-family="Helvetica,sans-Serif" font-size="10.00">BlackMisc::Simulation</text>
<text text-anchor="middle" x="86.5" y="-120" font-family="Helvetica,sans-Serif" font-size="10.00">::IModelsForSimulatorSetable</text>
</a>
</g>
</g>
<!-- Node2&#45;&gt;Node1 -->
<g id="edge1" class="edge">
<title>Node2&#45;&gt;Node1</title>
<path fill="none" stroke="midnightblue" d="M176.9,-117.02C187.56,-115.71 198.39,-114.38 208.93,-113.08"/>
<polygon fill="midnightblue" stroke="midnightblue" points="176.26,-113.57 166.76,-118.26 177.11,-120.52 176.26,-113.57"/>
</g>
<!-- Node3 -->
<g id="node3" class="node">
<title>Node3</title>
<g id="a_node3"><a xlink:href="class_black_misc_1_1_simulation_1_1_i_models_for_simulator_updatable.html" target="_top" xlink:title="Interface to &quot;something&quot; backing models, which can be modified (updated)">
<polygon fill="none" stroke="black" points="0,-64 0,-94 173,-94 173,-64 0,-64"/>
<text text-anchor="start" x="8" y="-82" font-family="Helvetica,sans-Serif" font-size="10.00">BlackMisc::Simulation</text>
<text text-anchor="middle" x="86.5" y="-71" font-family="Helvetica,sans-Serif" font-size="10.00">::IModelsForSimulatorUpdatable</text>
</a>
</g>
</g>
<!-- Node3&#45;&gt;Node1 -->
<g id="edge2" class="edge">
<title>Node3&#45;&gt;Node1</title>
<path fill="none" stroke="midnightblue" d="M183.26,-90.29C191.85,-91.31 200.5,-92.33 208.96,-93.32"/>
<polygon fill="midnightblue" stroke="midnightblue" points="183.55,-86.8 173.21,-89.11 182.73,-93.76 183.55,-86.8"/>
</g>
<!-- Node5 -->
<g id="node5" class="node">
<title>Node5</title>
<g id="a_node5"><a xlink:href="class_black_misc_1_1_simulation_1_1_c_dummy_model_loader.html" target="_top" xlink:title="Dummy loader for testing.">
<polygon fill="none" stroke="black" points="593,-171 593,-201 724,-201 724,-171 593,-171"/>
<text text-anchor="start" x="601" y="-189" font-family="Helvetica,sans-Serif" font-size="10.00">BlackMisc::Simulation</text>
<text text-anchor="middle" x="658.5" y="-178" font-family="Helvetica,sans-Serif" font-size="10.00">::CDummyModelLoader</text>
</a>
</g>
</g>
<!-- Node4&#45;&gt;Node5 -->
<g id="edge4" class="edge">
<title>Node4&#45;&gt;Node5</title>
<path fill="none" stroke="midnightblue" d="M504.52,-123.55C523.28,-135.71 548.3,-150.69 572,-161 580.51,-164.7 589.72,-168.04 598.85,-170.99"/>
<polygon fill="midnightblue" stroke="midnightblue" points="506.39,-120.59 496.11,-118.02 502.54,-126.44 506.39,-120.59"/>
</g>
<!-- Node6 -->
<g id="node6" class="node">
<title>Node6</title>
<g id="a_node6"><a xlink:href="class_black_misc_1_1_simulation_1_1_flightgear_1_1_c_aircraft_model_loader_flightgear.html" target="_top" xlink:title="Flightgear aircraft model loader.">
<polygon fill="none" stroke="black" points="583.5,-110.5 583.5,-151.5 733.5,-151.5 733.5,-110.5 583.5,-110.5"/>
<text text-anchor="start" x="591.5" y="-139.5" font-family="Helvetica,sans-Serif" font-size="10.00">BlackMisc::Simulation</text>
<text text-anchor="start" x="591.5" y="-128.5" font-family="Helvetica,sans-Serif" font-size="10.00">::Flightgear::CAircraftModel</text>
<text text-anchor="middle" x="658.5" y="-117.5" font-family="Helvetica,sans-Serif" font-size="10.00">LoaderFlightgear</text>
</a>
</g>
</g>
<!-- Node4&#45;&gt;Node6 -->
<g id="edge5" class="edge">
<title>Node4&#45;&gt;Node6</title>
<path fill="none" stroke="midnightblue" d="M546.3,-113.99C558.48,-115.85 571.15,-117.79 583.39,-119.66"/>
<polygon fill="midnightblue" stroke="midnightblue" points="546.61,-110.49 536.2,-112.44 545.56,-117.41 546.61,-110.49"/>
</g>
<!-- Node7 -->
<g id="node7" class="node">
<title>Node7</title>
<g id="a_node7"><a xlink:href="class_black_misc_1_1_simulation_1_1_fs_common_1_1_c_aircraft_cfg_parser.html" target="_top" xlink:title="Utility, parsing the aircraft.cfg files.">
<polygon fill="none" stroke="black" points="572,-61 572,-91 745,-91 745,-61 572,-61"/>
<text text-anchor="start" x="580" y="-79" font-family="Helvetica,sans-Serif" font-size="10.00">BlackMisc::Simulation</text>
<text text-anchor="middle" x="658.5" y="-68" font-family="Helvetica,sans-Serif" font-size="10.00">::FsCommon::CAircraftCfgParser</text>
</a>
</g>
</g>
<!-- Node4&#45;&gt;Node7 -->
<g id="edge6" class="edge">
<title>Node4&#45;&gt;Node7</title>
<path fill="none" stroke="midnightblue" d="M546.25,-92.41C554.6,-91.18 563.19,-89.92 571.7,-88.66"/>
<polygon fill="midnightblue" stroke="midnightblue" points="545.58,-88.97 536.2,-93.9 546.6,-95.9 545.58,-88.97"/>
</g>
<!-- Node8 -->
<g id="node8" class="node">
<title>Node8</title>
<g id="a_node8"><a xlink:href="class_black_misc_1_1_simulation_1_1_x_plane_1_1_c_aircraft_model_loader_x_plane.html" target="_top" xlink:title="XPlane aircraft model loader.">
<polygon fill="none" stroke="black" points="575,-0.5 575,-41.5 742,-41.5 742,-0.5 575,-0.5"/>
<text text-anchor="start" x="583" y="-29.5" font-family="Helvetica,sans-Serif" font-size="10.00">BlackMisc::Simulation</text>
<text text-anchor="start" x="583" y="-18.5" font-family="Helvetica,sans-Serif" font-size="10.00">::XPlane::CAircraftModelLoader</text>
<text text-anchor="middle" x="658.5" y="-7.5" font-family="Helvetica,sans-Serif" font-size="10.00">XPlane</text>
</a>
</g>
</g>
<!-- Node4&#45;&gt;Node8 -->
<g id="edge7" class="edge">
<title>Node4&#45;&gt;Node8</title>
<path fill="none" stroke="midnightblue" d="M508.91,-82.99C527.3,-72.73 550.51,-60.43 572,-51 579.49,-47.71 587.46,-44.52 595.42,-41.52"/>
<polygon fill="midnightblue" stroke="midnightblue" points="507.03,-80.03 500.04,-88 510.47,-86.13 507.03,-80.03"/>
</g>
</g>
</svg>
