<?xml version="1.0" encoding="UTF-8" standalone="no"?>
<!DOCTYPE svg PUBLIC "-//W3C//DTD SVG 1.1//EN"
 "http://www.w3.org/Graphics/SVG/1.1/DTD/svg11.dtd">
<!-- Generated by graphviz version 2.43.0 (0)
 -->
<!-- Title: BlackMisc::Aviation::CAircraftSituation Pages: 1 -->
<svg width="725pt" height="606pt"
 viewBox="0.00 0.00 725.00 606.00" xmlns="http://www.w3.org/2000/svg" xmlns:xlink="http://www.w3.org/1999/xlink">
<g id="graph0" class="graph" transform="scale(1 1) rotate(0) translate(4 602)">
<title>BlackMisc::Aviation::CAircraftSituation</title>
<!-- Node1 -->
<g id="node1" class="node">
<title>Node1</title>
<g id="a_node1"><a xlink:title="Value object encapsulating information of an aircraft&#39;s situation.">
<polygon fill="#bfbfbf" stroke="black" points="605,-187 605,-217 717,-217 717,-187 605,-187"/>
<text text-anchor="start" x="613" y="-205" font-family="Helvetica,sans-Serif" font-size="10.00">BlackMisc::Aviation</text>
<text text-anchor="middle" x="661" y="-194" font-family="Helvetica,sans-Serif" font-size="10.00">::CAircraftSituation</text>
</a>
</g>
</g>
<!-- Node2 -->
<g id="node2" class="node">
<title>Node2</title>
<g id="a_node2"><a xlink:href="class_black_misc_1_1_c_value_object.html" target="_top" xlink:title=" ">
<polygon fill="none" stroke="black" points="423.5,-284 423.5,-314 560.5,-314 560.5,-284 423.5,-284"/>
<text text-anchor="start" x="431.5" y="-302" font-family="Helvetica,sans-Serif" font-size="10.00">BlackMisc::CValueObject</text>
<text text-anchor="middle" x="492" y="-291" font-family="Helvetica,sans-Serif" font-size="10.00">&lt; CAircraftSituation &gt;</text>
</a>
</g>
</g>
<!-- Node2&#45;&gt;Node1 -->
<g id="edge1" class="edge">
<title>Node2&#45;&gt;Node1</title>
<path fill="none" stroke="midnightblue" d="M528.03,-278.66C559.7,-260.26 605.61,-233.59 634.09,-217.05"/>
<polygon fill="midnightblue" stroke="midnightblue" points="525.98,-275.79 519.09,-283.84 529.5,-281.85 525.98,-275.79"/>
</g>
<!-- Node3 -->
<g id="node3" class="node">
<title>Node3</title>
<g id="a_node3"><a xlink:href="class_black_misc_1_1_c_empty.html" target="_top" xlink:title="Default base class for CValueObject.">
<polygon fill="none" stroke="black" points="242,-578.5 242,-597.5 352,-597.5 352,-578.5 242,-578.5"/>
<text text-anchor="middle" x="297" y="-585.5" font-family="Helvetica,sans-Serif" font-size="10.00">BlackMisc::CEmpty</text>
</a>
</g>
</g>
<!-- Node3&#45;&gt;Node2 -->
<g id="edge2" class="edge">
<title>Node3&#45;&gt;Node2</title>
<path fill="none" stroke="midnightblue" d="M362.16,-579.18C368.26,-576.56 374.01,-573.23 379,-569 461.01,-499.36 484,-359.9 489.48,-314.02"/>
<polygon fill="midnightblue" stroke="midnightblue" points="360.57,-576.03 352.36,-582.72 362.95,-582.61 360.57,-576.03"/>
</g>
<!-- Node4 -->
<g id="node4" class="node">
<title>Node4</title>
<g id="a_node4"><a xlink:href="class_black_misc_1_1_mixin_1_1_meta_type.html" target="_top" xlink:title="CRTP class template from which a derived class can inherit common methods dealing with the metatype o...">
<polygon fill="none" stroke="black" points="221,-529 221,-559 373,-559 373,-529 221,-529"/>
<text text-anchor="start" x="229" y="-547" font-family="Helvetica,sans-Serif" font-size="10.00">BlackMisc::Mixin::MetaType</text>
<text text-anchor="middle" x="297" y="-536" font-family="Helvetica,sans-Serif" font-size="10.00">&lt; Derived &gt;</text>
</a>
</g>
</g>
<!-- Node4&#45;&gt;Node2 -->
<g id="edge3" class="edge">
<title>Node4&#45;&gt;Node2</title>
<path fill="none" stroke="midnightblue" d="M374.12,-523.7C375.81,-522.54 377.44,-521.3 379,-520 447.23,-463.13 478.26,-354.21 487.71,-314.21"/>
<polygon fill="midnightblue" stroke="midnightblue" points="372.05,-520.86 365.26,-528.99 375.64,-526.87 372.05,-520.86"/>
</g>
<!-- Node5 -->
<g id="node5" class="node">
<title>Node5</title>
<g id="a_node5"><a xlink:href="class_black_misc_1_1_mixin_1_1_hash_by_meta_class.html" target="_top" xlink:title="CRTP class template from which a derived class can inherit common methods dealing with hashing instan...">
<polygon fill="none" stroke="black" points="225.5,-480 225.5,-510 368.5,-510 368.5,-480 225.5,-480"/>
<text text-anchor="start" x="233.5" y="-498" font-family="Helvetica,sans-Serif" font-size="10.00">BlackMisc::Mixin::HashBy</text>
<text text-anchor="middle" x="297" y="-487" font-family="Helvetica,sans-Serif" font-size="10.00">MetaClass&lt; Derived &gt;</text>
</a>
</g>
</g>
<!-- Node5&#45;&gt;Node2 -->
<g id="edge4" class="edge">
<title>Node5&#45;&gt;Node2</title>
<path fill="none" stroke="midnightblue" d="M373.19,-474.93C375.19,-473.7 377.14,-472.39 379,-471 435.99,-428.5 472.17,-347.78 485.37,-314.23"/>
<polygon fill="midnightblue" stroke="midnightblue" points="371.18,-472.04 364.05,-479.87 374.51,-478.2 371.18,-472.04"/>
</g>
<!-- Node6 -->
<g id="node6" class="node">
<title>Node6</title>
<g id="a_node6"><a xlink:href="class_black_misc_1_1_mixin_1_1_d_bus_by_meta_class.html" target="_top" xlink:title="CRTP class template from which a derived class can inherit common methods dealing with marshalling in...">
<polygon fill="none" stroke="black" points="219,-431 219,-461 375,-461 375,-431 219,-431"/>
<text text-anchor="start" x="227" y="-449" font-family="Helvetica,sans-Serif" font-size="10.00">BlackMisc::Mixin::DBusBy</text>
<text text-anchor="middle" x="297" y="-438" font-family="Helvetica,sans-Serif" font-size="10.00">MetaClass&lt; Derived, Tags &gt;</text>
</a>
</g>
</g>
<!-- Node6&#45;&gt;Node2 -->
<g id="edge5" class="edge">
<title>Node6&#45;&gt;Node2</title>
<path fill="none" stroke="midnightblue" d="M370.73,-426.66C373.58,-425.21 376.35,-423.66 379,-422 425,-393.15 463.84,-340.34 481.23,-314.32"/>
<polygon fill="midnightblue" stroke="midnightblue" points="369.03,-423.59 361.4,-430.94 371.94,-429.95 369.03,-423.59"/>
</g>
<!-- Node7 -->
<g id="node7" class="node">
<title>Node7</title>
<g id="a_node7"><a xlink:href="class_black_misc_1_1_mixin_1_1_d_bus_operators.html" target="_top" xlink:title=" ">
<polygon fill="none" stroke="black" points="0,-431 0,-461 179,-461 179,-431 0,-431"/>
<text text-anchor="start" x="8" y="-449" font-family="Helvetica,sans-Serif" font-size="10.00">BlackMisc::Mixin::DBusOperators</text>
<text text-anchor="middle" x="89.5" y="-438" font-family="Helvetica,sans-Serif" font-size="10.00">&lt; Derived, Tags... &gt;</text>
</a>
</g>
</g>
<!-- Node7&#45;&gt;Node6 -->
<g id="edge6" class="edge">
<title>Node7&#45;&gt;Node6</title>
<path fill="none" stroke="midnightblue" d="M189.44,-446C199.35,-446 209.31,-446 218.95,-446"/>
<polygon fill="midnightblue" stroke="midnightblue" points="189.14,-442.5 179.14,-446 189.14,-449.5 189.14,-442.5"/>
</g>
<!-- Node8 -->
<g id="node8" class="node">
<title>Node8</title>
<g id="a_node8"><a xlink:href="class_black_misc_1_1_mixin_1_1_data_stream_by_meta_class.html" target="_top" xlink:title="CRTP class template to generate QDataStream marshalling methods using CMetaClass.">
<polygon fill="none" stroke="black" points="215,-382 215,-412 379,-412 379,-382 215,-382"/>
<text text-anchor="start" x="223" y="-400" font-family="Helvetica,sans-Serif" font-size="10.00">BlackMisc::Mixin::DataStream</text>
<text text-anchor="middle" x="297" y="-389" font-family="Helvetica,sans-Serif" font-size="10.00">ByMetaClass&lt; Derived &gt;</text>
</a>
</g>
</g>
<!-- Node8&#45;&gt;Node2 -->
<g id="edge7" class="edge">
<title>Node8&#45;&gt;Node2</title>
<path fill="none" stroke="midnightblue" d="M366.33,-378.36C370.67,-376.69 374.93,-374.9 379,-373 413.86,-356.76 450.31,-330.71 471.82,-314.25"/>
<polygon fill="midnightblue" stroke="midnightblue" points="364.93,-375.14 356.73,-381.85 367.32,-381.72 364.93,-375.14"/>
</g>
<!-- Node9 -->
<g id="node9" class="node">
<title>Node9</title>
<g id="a_node9"><a xlink:href="class_black_misc_1_1_mixin_1_1_data_stream_operators.html" target="_top" xlink:title="CRTP class template to generate non&#45;member QDataStream streaming operators.">
<polygon fill="none" stroke="black" points="7.5,-382 7.5,-412 171.5,-412 171.5,-382 7.5,-382"/>
<text text-anchor="start" x="15.5" y="-400" font-family="Helvetica,sans-Serif" font-size="10.00">BlackMisc::Mixin::DataStream</text>
<text text-anchor="middle" x="89.5" y="-389" font-family="Helvetica,sans-Serif" font-size="10.00">Operators&lt; Derived &gt;</text>
</a>
</g>
</g>
<!-- Node9&#45;&gt;Node8 -->
<g id="edge8" class="edge">
<title>Node9&#45;&gt;Node8</title>
<path fill="none" stroke="midnightblue" d="M181.74,-397C192.72,-397 203.87,-397 214.7,-397"/>
<polygon fill="midnightblue" stroke="midnightblue" points="181.72,-393.5 171.72,-397 181.72,-400.5 181.72,-393.5"/>
</g>
<!-- Node10 -->
<g id="node10" class="node">
<title>Node10</title>
<g id="a_node10"><a xlink:href="class_black_misc_1_1_mixin_1_1_json_by_meta_class.html" target="_top" xlink:title="CRTP class template from which a derived class can inherit common methods dealing with JSON by metatu...">
<polygon fill="none" stroke="black" points="228,-333 228,-363 366,-363 366,-333 228,-333"/>
<text text-anchor="start" x="236" y="-351" font-family="Helvetica,sans-Serif" font-size="10.00">BlackMisc::Mixin::JsonBy</text>
<text text-anchor="middle" x="297" y="-340" font-family="Helvetica,sans-Serif" font-size="10.00">MetaClass&lt; Derived &gt;</text>
</a>
</g>
</g>
<!-- Node10&#45;&gt;Node2 -->
<g id="edge9" class="edge">
<title>Node10&#45;&gt;Node2</title>
<path fill="none" stroke="midnightblue" d="M367.12,-330.45C388.32,-325.07 411.43,-319.2 431.89,-314.01"/>
<polygon fill="midnightblue" stroke="midnightblue" points="366.05,-327.11 357.22,-332.97 367.77,-333.9 366.05,-327.11"/>
</g>
<!-- Node11 -->
<g id="node11" class="node">
<title>Node11</title>
<g id="a_node11"><a xlink:href="class_black_misc_1_1_mixin_1_1_json_operators.html" target="_top" xlink:title="CRTP class template which will generate marshalling operators for a derived class with its own marsha...">
<polygon fill="none" stroke="black" points="3,-333 3,-363 176,-363 176,-333 3,-333"/>
<text text-anchor="start" x="11" y="-351" font-family="Helvetica,sans-Serif" font-size="10.00">BlackMisc::Mixin::JsonOperators</text>
<text text-anchor="middle" x="89.5" y="-340" font-family="Helvetica,sans-Serif" font-size="10.00">&lt; Derived &gt;</text>
</a>
</g>
</g>
<!-- Node11&#45;&gt;Node10 -->
<g id="edge10" class="edge">
<title>Node11&#45;&gt;Node10</title>
<path fill="none" stroke="midnightblue" d="M186.35,-348C200.41,-348 214.65,-348 227.99,-348"/>
<polygon fill="midnightblue" stroke="midnightblue" points="186.16,-344.5 176.16,-348 186.16,-351.5 186.16,-344.5"/>
</g>
<!-- Node12 -->
<g id="node12" class="node">
<title>Node12</title>
<g id="a_node12"><a xlink:href="class_black_misc_1_1_mixin_1_1_equals_by_meta_class.html" target="_top" xlink:title="CRTP class template from which a derived class can inherit operator== implemented by metaclass.">
<polygon fill="none" stroke="black" points="226.5,-284 226.5,-314 367.5,-314 367.5,-284 226.5,-284"/>
<text text-anchor="start" x="234.5" y="-302" font-family="Helvetica,sans-Serif" font-size="10.00">BlackMisc::Mixin::Equals</text>
<text text-anchor="middle" x="297" y="-291" font-family="Helvetica,sans-Serif" font-size="10.00">ByMetaClass&lt; Derived &gt;</text>
</a>
</g>
</g>
<!-- Node12&#45;&gt;Node2 -->
<g id="edge11" class="edge">
<title>Node12&#45;&gt;Node2</title>
<path fill="none" stroke="midnightblue" d="M378.01,-299C393.08,-299 408.71,-299 423.36,-299"/>
<polygon fill="midnightblue" stroke="midnightblue" points="377.68,-295.5 367.68,-299 377.68,-302.5 377.68,-295.5"/>
</g>
<!-- Node13 -->
<g id="node13" class="node">
<title>Node13</title>
<g id="a_node13"><a xlink:href="class_black_misc_1_1_mixin_1_1_less_than_by_meta_class.html" target="_top" xlink:title="CRTP class template from which a derived class can inherit operator&lt; implemented by metaclass.">
<polygon fill="none" stroke="black" points="221.5,-235 221.5,-265 372.5,-265 372.5,-235 221.5,-235"/>
<text text-anchor="start" x="229.5" y="-253" font-family="Helvetica,sans-Serif" font-size="10.00">BlackMisc::Mixin::LessThan</text>
<text text-anchor="middle" x="297" y="-242" font-family="Helvetica,sans-Serif" font-size="10.00">ByMetaClass&lt; Derived &gt;</text>
</a>
</g>
</g>
<!-- Node13&#45;&gt;Node2 -->
<g id="edge12" class="edge">
<title>Node13&#45;&gt;Node2</title>
<path fill="none" stroke="midnightblue" d="M367.12,-267.55C388.32,-272.93 411.43,-278.8 431.89,-283.99"/>
<polygon fill="midnightblue" stroke="midnightblue" points="367.77,-264.1 357.22,-265.03 366.05,-270.89 367.77,-264.1"/>
</g>
<!-- Node14 -->
<g id="node14" class="node">
<title>Node14</title>
<g id="a_node14"><a xlink:href="class_black_misc_1_1_mixin_1_1_compare_by_meta_class.html" target="_top" xlink:title="CRTP class template from which a derived class can inherit non&#45;member compare() implemented by metacl...">
<polygon fill="none" stroke="black" points="222.5,-186 222.5,-216 371.5,-216 371.5,-186 222.5,-186"/>
<text text-anchor="start" x="230.5" y="-204" font-family="Helvetica,sans-Serif" font-size="10.00">BlackMisc::Mixin::Compare</text>
<text text-anchor="middle" x="297" y="-193" font-family="Helvetica,sans-Serif" font-size="10.00">ByMetaClass&lt; Derived &gt;</text>
</a>
</g>
</g>
<!-- Node14&#45;&gt;Node2 -->
<g id="edge13" class="edge">
<title>Node14&#45;&gt;Node2</title>
<path fill="none" stroke="midnightblue" d="M363.64,-219.53C368.91,-221.54 374.09,-223.7 379,-226 413.46,-242.16 449.74,-267.58 471.35,-283.75"/>
<polygon fill="midnightblue" stroke="midnightblue" points="364.7,-216.19 354.11,-216.08 362.32,-222.77 364.7,-216.19"/>
</g>
<!-- Node15 -->
<g id="node15" class="node">
<title>Node15</title>
<g id="a_node15"><a xlink:href="class_black_misc_1_1_mixin_1_1_string.html" target="_top" xlink:title="CRTP class template from which a derived class can inherit string streaming operations.">
<polygon fill="none" stroke="black" points="230,-137 230,-167 364,-167 364,-137 230,-137"/>
<text text-anchor="start" x="238" y="-155" font-family="Helvetica,sans-Serif" font-size="10.00">BlackMisc::Mixin::String</text>
<text text-anchor="middle" x="297" y="-144" font-family="Helvetica,sans-Serif" font-size="10.00">&lt; Derived &gt;</text>
</a>
</g>
</g>
<!-- Node15&#45;&gt;Node2 -->
<g id="edge14" class="edge">
<title>Node15&#45;&gt;Node2</title>
<path fill="none" stroke="midnightblue" d="M370.52,-171.63C373.47,-173.28 376.31,-175.07 379,-177 401.24,-192.98 396.98,-206.38 415,-227 433.42,-248.08 457.18,-269.85 473.19,-283.86"/>
<polygon fill="midnightblue" stroke="midnightblue" points="371.92,-168.42 361.41,-167.08 368.79,-174.68 371.92,-168.42"/>
</g>
<!-- Node16 -->
<g id="node16" class="node">
<title>Node16</title>
<g id="a_node16"><a xlink:href="class_black_misc_1_1_mixin_1_1_index.html" target="_top" xlink:title="CRTP class template from which a derived class can inherit property indexing functions.">
<polygon fill="none" stroke="black" points="231,-88 231,-118 363,-118 363,-88 231,-88"/>
<text text-anchor="start" x="239" y="-106" font-family="Helvetica,sans-Serif" font-size="10.00">BlackMisc::Mixin::Index</text>
<text text-anchor="middle" x="297" y="-95" font-family="Helvetica,sans-Serif" font-size="10.00">&lt; Derived &gt;</text>
</a>
</g>
</g>
<!-- Node16&#45;&gt;Node2 -->
<g id="edge15" class="edge">
<title>Node16&#45;&gt;Node2</title>
<path fill="none" stroke="midnightblue" d="M372.1,-122.35C374.54,-124.08 376.85,-125.95 379,-128 412.91,-160.28 389.32,-187.85 415,-227 429.95,-249.8 453.48,-270.6 470.39,-283.91"/>
<polygon fill="midnightblue" stroke="midnightblue" points="373.76,-119.26 363.39,-117.06 370.12,-125.24 373.76,-119.26"/>
</g>
<!-- Node17 -->
<g id="node17" class="node">
<title>Node17</title>
<g id="a_node17"><a xlink:href="class_black_misc_1_1_mixin_1_1_icon.html" target="_top" xlink:title="CRTP class template from which a derived class can inherit icon&#45;related functions.">
<polygon fill="none" stroke="black" points="231.5,-39 231.5,-69 362.5,-69 362.5,-39 231.5,-39"/>
<text text-anchor="start" x="239.5" y="-57" font-family="Helvetica,sans-Serif" font-size="10.00">BlackMisc::Mixin::Icon</text>
<text text-anchor="middle" x="297" y="-46" font-family="Helvetica,sans-Serif" font-size="10.00">&lt; Derived, IconIndex &gt;</text>
</a>
</g>
</g>
<!-- Node17&#45;&gt;Node2 -->
<g id="edge16" class="edge">
<title>Node17&#45;&gt;Node2</title>
<path fill="none" stroke="midnightblue" d="M371.39,-72.3C374.12,-74.31 376.68,-76.53 379,-79 425.39,-128.3 381.04,-168.44 415,-227 428.49,-250.27 451.79,-270.7 469.04,-283.79"/>
<polygon fill="midnightblue" stroke="midnightblue" points="373.07,-69.23 362.73,-66.92 369.37,-75.17 373.07,-69.23"/>
</g>
<!-- Node18 -->
<g id="node18" class="node">
<title>Node18</title>
<g id="a_node18"><a xlink:href="class_black_misc_1_1_geo_1_1_i_coordinate_geodetic.html" target="_top" xlink:title="Geodetic coordinate, a position in 3D space relative to the reference geoid.">
<polygon fill="none" stroke="black" points="415,-187 415,-217 569,-217 569,-187 415,-187"/>
<text text-anchor="start" x="423" y="-205" font-family="Helvetica,sans-Serif" font-size="10.00">BlackMisc::Geo::ICoordinate</text>
<text text-anchor="middle" x="492" y="-194" font-family="Helvetica,sans-Serif" font-size="10.00">Geodetic</text>
</a>
</g>
</g>
<!-- Node18&#45;&gt;Node1 -->
<g id="edge17" class="edge">
<title>Node18&#45;&gt;Node1</title>
<path fill="none" stroke="midnightblue" d="M579.36,-202C588.04,-202 596.68,-202 604.9,-202"/>
<polygon fill="midnightblue" stroke="midnightblue" points="579.17,-198.5 569.17,-202 579.17,-205.5 579.17,-198.5"/>
</g>
<!-- Node19 -->
<g id="node19" class="node">
<title>Node19</title>
<g id="a_node19"><a xlink:href="class_black_misc_1_1_i_timestamp_with_offset_based.html" target="_top" xlink:title="Entity with timestamp.">
<polygon fill="none" stroke="black" points="415.5,-43 415.5,-73 568.5,-73 568.5,-43 415.5,-43"/>
<text text-anchor="start" x="423.5" y="-61" font-family="Helvetica,sans-Serif" font-size="10.00">BlackMisc::ITimestampWith</text>
<text text-anchor="middle" x="492" y="-50" font-family="Helvetica,sans-Serif" font-size="10.00">OffsetBased</text>
</a>
</g>
</g>
<!-- Node19&#45;&gt;Node1 -->
<g id="edge18" class="edge">
<title>Node19&#45;&gt;Node1</title>
<path fill="none" stroke="midnightblue" d="M518.26,-79.78C552.48,-109.29 612.72,-161.24 642.43,-186.85"/>
<polygon fill="midnightblue" stroke="midnightblue" points="520.42,-77.02 510.56,-73.14 515.84,-82.32 520.42,-77.02"/>
</g>
<!-- Node20 -->
<g id="node20" class="node">
<title>Node20</title>
<g id="a_node20"><a xlink:href="class_black_misc_1_1_i_timestamp_based.html" target="_top" xlink:title="Entity with timestamp.">
<polygon fill="none" stroke="black" points="216.5,-0.5 216.5,-19.5 377.5,-19.5 377.5,-0.5 216.5,-0.5"/>
<text text-anchor="middle" x="297" y="-7.5" font-family="Helvetica,sans-Serif" font-size="10.00">BlackMisc::ITimestampBased</text>
</a>
</g>
</g>
<!-- Node20&#45;&gt;Node19 -->
<g id="edge19" class="edge">
<title>Node20&#45;&gt;Node19</title>
<path fill="none" stroke="midnightblue" d="M349.66,-21.93C359.42,-24.24 369.53,-26.66 379,-29 396.94,-33.43 416.45,-38.42 434.09,-42.99"/>
<polygon fill="midnightblue" stroke="midnightblue" points="350.2,-18.46 339.67,-19.58 348.6,-25.28 350.2,-18.46"/>
</g>
</g>
</svg>
