<?xml version="1.0" encoding="UTF-8" standalone="no"?>
<!DOCTYPE svg PUBLIC "-//W3C//DTD SVG 1.1//EN"
 "http://www.w3.org/Graphics/SVG/1.1/DTD/svg11.dtd">
<!-- Generated by graphviz version 2.43.0 (0)
 -->
<!-- Title: BlackGui::COverlayMessagesDockWidget Pages: 1 -->
<svg width="366pt" height="386pt"
 viewBox="0.00 0.00 366.00 386.00" xmlns="http://www.w3.org/2000/svg" xmlns:xlink="http://www.w3.org/1999/xlink">
<g id="graph0" class="graph" transform="scale(1 1) rotate(0) translate(4 382)">
<title>BlackGui::COverlayMessagesDockWidget</title>
<!-- Node1 -->
<g id="node1" class="node">
<title>Node1</title>
<g id="a_node1"><a xlink:title="Using this class provides a QDockWidget with the overlay functionality already integrated.">
<polygon fill="#bfbfbf" stroke="black" points="100.5,-112.5 100.5,-142.5 260.5,-142.5 260.5,-112.5 100.5,-112.5"/>
<text text-anchor="start" x="108.5" y="-130.5" font-family="Helvetica,sans-Serif" font-size="10.00">BlackGui::COverlayMessages</text>
<text text-anchor="middle" x="180.5" y="-119.5" font-family="Helvetica,sans-Serif" font-size="10.00">DockWidget</text>
</a>
</g>
</g>
<!-- Node7 -->
<g id="node7" class="node">
<title>Node7</title>
<g id="a_node7"><a xlink:href="class_black_gui_1_1_c_dock_widget.html" target="_top" xlink:title="Our base class for dockable widgets containing some specialized functionality on top of QDockWidget.">
<polygon fill="none" stroke="black" points="114.5,-56.5 114.5,-75.5 246.5,-75.5 246.5,-56.5 114.5,-56.5"/>
<text text-anchor="middle" x="180.5" y="-63.5" font-family="Helvetica,sans-Serif" font-size="10.00">BlackGui::CDockWidget</text>
</a>
</g>
</g>
<!-- Node1&#45;&gt;Node7 -->
<g id="edge6" class="edge">
<title>Node1&#45;&gt;Node7</title>
<path fill="none" stroke="midnightblue" d="M180.5,-102.29C180.5,-92.86 180.5,-82.65 180.5,-75.66"/>
<polygon fill="midnightblue" stroke="midnightblue" points="177,-102.4 180.5,-112.4 184,-102.4 177,-102.4"/>
</g>
<!-- Node2 -->
<g id="node2" class="node">
<title>Node2</title>
<g id="a_node2"><a xlink:href="class_black_gui_1_1_c_overlay_messages_base.html" target="_top" xlink:title=" ">
<polygon fill="none" stroke="black" points="100.5,-179.5 100.5,-209.5 260.5,-209.5 260.5,-179.5 100.5,-179.5"/>
<text text-anchor="start" x="108.5" y="-197.5" font-family="Helvetica,sans-Serif" font-size="10.00">BlackGui::COverlayMessages</text>
<text text-anchor="middle" x="180.5" y="-186.5" font-family="Helvetica,sans-Serif" font-size="10.00">Base&lt; QDockWidget &gt;</text>
</a>
</g>
</g>
<!-- Node2&#45;&gt;Node1 -->
<g id="edge1" class="edge">
<title>Node2&#45;&gt;Node1</title>
<path fill="none" stroke="midnightblue" d="M180.5,-169.11C180.5,-160.15 180.5,-150.32 180.5,-142.58"/>
<polygon fill="midnightblue" stroke="midnightblue" points="177,-169.4 180.5,-179.4 184,-169.4 177,-169.4"/>
</g>
<!-- Node3 -->
<g id="node3" class="node">
<title>Node3</title>
<g id="a_node3"><a target="_parent" xlink:href="http://doc.qt.io/qt-5/qdockwidget.html" xlink:title=" ">
<polygon fill="none" stroke="black" points="139,-246.5 139,-265.5 222,-265.5 222,-246.5 139,-246.5"/>
<text text-anchor="middle" x="180.5" y="-253.5" font-family="Helvetica,sans-Serif" font-size="10.00">QDockWidget</text>
</a>
</g>
</g>
<!-- Node3&#45;&gt;Node2 -->
<g id="edge2" class="edge">
<title>Node3&#45;&gt;Node2</title>
<path fill="none" stroke="midnightblue" d="M180.5,-236.23C180.5,-227.59 180.5,-217.5 180.5,-209.52"/>
<polygon fill="midnightblue" stroke="midnightblue" points="177,-236.48 180.5,-246.48 184,-236.48 177,-236.48"/>
</g>
<!-- Node4 -->
<g id="node4" class="node">
<title>Node4</title>
<g id="a_node4"><a target="_parent" xlink:href="http://doc.qt.io/qt-5/qwidget.html" xlink:title=" ">
<polygon fill="none" stroke="black" points="151,-302.5 151,-321.5 210,-321.5 210,-302.5 151,-302.5"/>
<text text-anchor="middle" x="180.5" y="-309.5" font-family="Helvetica,sans-Serif" font-size="10.00">QWidget</text>
</a>
</g>
</g>
<!-- Node4&#45;&gt;Node3 -->
<g id="edge3" class="edge">
<title>Node4&#45;&gt;Node3</title>
<path fill="none" stroke="midnightblue" d="M180.5,-291.8C180.5,-282.91 180.5,-272.78 180.5,-265.75"/>
<polygon fill="midnightblue" stroke="midnightblue" points="177,-292.08 180.5,-302.08 184,-292.08 177,-292.08"/>
</g>
<!-- Node5 -->
<g id="node5" class="node">
<title>Node5</title>
<g id="a_node5"><a target="_parent" xlink:href="http://doc.qt.io/qt-5/qobject.html" xlink:title=" ">
<polygon fill="none" stroke="black" points="109.5,-358.5 109.5,-377.5 165.5,-377.5 165.5,-358.5 109.5,-358.5"/>
<text text-anchor="middle" x="137.5" y="-365.5" font-family="Helvetica,sans-Serif" font-size="10.00">QObject</text>
</a>
</g>
</g>
<!-- Node5&#45;&gt;Node4 -->
<g id="edge4" class="edge">
<title>Node5&#45;&gt;Node4</title>
<path fill="none" stroke="midnightblue" d="M150.92,-350.14C158.41,-340.74 167.44,-329.4 173.53,-321.75"/>
<polygon fill="midnightblue" stroke="midnightblue" points="148.09,-348.08 144.6,-358.08 153.57,-352.44 148.09,-348.08"/>
</g>
<!-- Node6 -->
<g id="node6" class="node">
<title>Node6</title>
<g id="a_node6"><a target="_parent" xlink:href="http://doc.qt.io/qt-5/qpaintdevice.html" xlink:title=" ">
<polygon fill="none" stroke="black" points="183.5,-358.5 183.5,-377.5 265.5,-377.5 265.5,-358.5 183.5,-358.5"/>
<text text-anchor="middle" x="224.5" y="-365.5" font-family="Helvetica,sans-Serif" font-size="10.00">QPaintDevice</text>
</a>
</g>
</g>
<!-- Node6&#45;&gt;Node4 -->
<g id="edge5" class="edge">
<title>Node6&#45;&gt;Node4</title>
<path fill="none" stroke="midnightblue" d="M210.77,-350.14C203.1,-340.74 193.87,-329.4 187.63,-321.75"/>
<polygon fill="midnightblue" stroke="midnightblue" points="208.2,-352.54 217.23,-358.08 213.63,-348.12 208.2,-352.54"/>
</g>
<!-- Node8 -->
<g id="node8" class="node">
<title>Node8</title>
<g id="a_node8"><a xlink:href="class_black_gui_1_1_c_dock_widget_info_area.html" target="_top" xlink:title="Specialized class for dock widgets serving as info area.">
<polygon fill="none" stroke="black" points="0,-0.5 0,-19.5 173,-19.5 173,-0.5 0,-0.5"/>
<text text-anchor="middle" x="86.5" y="-7.5" font-family="Helvetica,sans-Serif" font-size="10.00">BlackGui::CDockWidgetInfoArea</text>
</a>
</g>
</g>
<!-- Node7&#45;&gt;Node8 -->
<g id="edge7" class="edge">
<title>Node7&#45;&gt;Node8</title>
<path fill="none" stroke="midnightblue" d="M156.44,-51.18C139.14,-41.24 116.35,-28.15 101.57,-19.65"/>
<polygon fill="midnightblue" stroke="midnightblue" points="154.98,-54.38 165.4,-56.32 158.47,-48.31 154.98,-54.38"/>
</g>
<!-- Node9 -->
<g id="node9" class="node">
<title>Node9</title>
<g id="a_node9"><a xlink:href="class_black_gui_1_1_c_dock_widget_info_bar.html" target="_top" xlink:title="Class for dock widgets in the info area, containing some specialized functionality.">
<polygon fill="none" stroke="black" points="191,-0.5 191,-19.5 358,-19.5 358,-0.5 191,-0.5"/>
<text text-anchor="middle" x="274.5" y="-7.5" font-family="Helvetica,sans-Serif" font-size="10.00">BlackGui::CDockWidgetInfoBar</text>
</a>
</g>
</g>
<!-- Node7&#45;&gt;Node9 -->
<g id="edge8" class="edge">
<title>Node7&#45;&gt;Node9</title>
<path fill="none" stroke="midnightblue" d="M204.56,-51.18C221.86,-41.24 244.65,-28.15 259.43,-19.65"/>
<polygon fill="midnightblue" stroke="midnightblue" points="202.53,-48.31 195.6,-56.32 206.02,-54.38 202.53,-48.31"/>
</g>
</g>
</svg>
