<?xml version="1.0" encoding="UTF-8" standalone="no"?>
<!DOCTYPE svg PUBLIC "-//W3C//DTD SVG 1.1//EN"
 "http://www.w3.org/Graphics/SVG/1.1/DTD/svg11.dtd">
<!-- Generated by graphviz version 2.43.0 (0)
 -->
<!-- Title: BlackMisc::ITimestampBased Pages: 1 -->
<svg width="753pt" height="1031pt"
 viewBox="0.00 0.00 753.00 1031.00" xmlns="http://www.w3.org/2000/svg" xmlns:xlink="http://www.w3.org/1999/xlink">
<g id="graph0" class="graph" transform="scale(1 1) rotate(0) translate(4 1027)">
<title>BlackMisc::ITimestampBased</title>
<!-- Node1 -->
<g id="node1" class="node">
<title>Node1</title>
<g id="a_node1"><a xlink:title="Entity with timestamp.">
<polygon fill="#bfbfbf" stroke="black" points="0,-373 0,-392 161,-392 161,-373 0,-373"/>
<text text-anchor="middle" x="80.5" y="-380" font-family="Helvetica,sans-Serif" font-size="10.00">BlackMisc::ITimestampBased</text>
</a>
</g>
</g>
<!-- Node2 -->
<g id="node2" class="node">
<title>Node2</title>
<g id="a_node2"><a xlink:href="class_black_core_1_1_data_1_1_c_global_setup.html" target="_top" xlink:title="Global settings for readers, debug flags, etc.">
<polygon fill="none" stroke="black" points="215,-725.5 215,-755.5 355,-755.5 355,-725.5 215,-725.5"/>
<text text-anchor="start" x="223" y="-743.5" font-family="Helvetica,sans-Serif" font-size="10.00">BlackCore::Data::CGlobal</text>
<text text-anchor="middle" x="285" y="-732.5" font-family="Helvetica,sans-Serif" font-size="10.00">Setup</text>
</a>
</g>
</g>
<!-- Node1&#45;&gt;Node2 -->
<g id="edge1" class="edge">
<title>Node1&#45;&gt;Node2</title>
<path fill="none" stroke="midnightblue" d="M82.24,-402.41C85.5,-460.02 103.02,-628.33 197,-716.5 202.14,-721.32 208.16,-725.19 214.6,-728.3"/>
<polygon fill="midnightblue" stroke="midnightblue" points="85.73,-401.97 81.75,-392.15 78.74,-402.3 85.73,-401.97"/>
</g>
<!-- Node3 -->
<g id="node3" class="node">
<title>Node3</title>
<g id="a_node3"><a xlink:href="class_black_core_1_1_data_1_1_c_vatsim_setup.html" target="_top" xlink:title="VATSIM data (servers, URLs) cached as last known good setup.">
<polygon fill="none" stroke="black" points="214,-676.5 214,-706.5 356,-706.5 356,-676.5 214,-676.5"/>
<text text-anchor="start" x="222" y="-694.5" font-family="Helvetica,sans-Serif" font-size="10.00">BlackCore::Data::CVatsim</text>
<text text-anchor="middle" x="285" y="-683.5" font-family="Helvetica,sans-Serif" font-size="10.00">Setup</text>
</a>
</g>
</g>
<!-- Node1&#45;&gt;Node3 -->
<g id="edge2" class="edge">
<title>Node1&#45;&gt;Node3</title>
<path fill="none" stroke="midnightblue" d="M83.56,-402.21C90.03,-453.86 114.7,-594.23 197,-667.5 202.03,-671.98 207.83,-675.63 213.99,-678.61"/>
<polygon fill="midnightblue" stroke="midnightblue" points="87.01,-401.61 82.39,-392.08 80.06,-402.41 87.01,-401.61"/>
</g>
<!-- Node4 -->
<g id="node4" class="node">
<title>Node4</title>
<g id="a_node4"><a xlink:href="class_black_misc_1_1_aviation_1_1_c_flight_plan.html" target="_top" xlink:title="Value object for a flight plan.">
<polygon fill="none" stroke="black" points="229,-627.5 229,-657.5 341,-657.5 341,-627.5 229,-627.5"/>
<text text-anchor="start" x="237" y="-645.5" font-family="Helvetica,sans-Serif" font-size="10.00">BlackMisc::Aviation</text>
<text text-anchor="middle" x="285" y="-634.5" font-family="Helvetica,sans-Serif" font-size="10.00">::CFlightPlan</text>
</a>
</g>
</g>
<!-- Node1&#45;&gt;Node4 -->
<g id="edge3" class="edge">
<title>Node1&#45;&gt;Node4</title>
<path fill="none" stroke="midnightblue" d="M85.44,-402.41C95.48,-447.9 126.44,-559.98 197,-618.5 206.05,-626 217.26,-631.17 228.59,-634.72"/>
<polygon fill="midnightblue" stroke="midnightblue" points="88.8,-401.42 83.32,-392.36 81.95,-402.87 88.8,-401.42"/>
</g>
<!-- Node5 -->
<g id="node5" class="node">
<title>Node5</title>
<g id="a_node5"><a xlink:href="class_black_misc_1_1_aviation_1_1_c_information_message.html" target="_top" xlink:title="Value object encapsulating information message (ATIS, METAR, TAF)">
<polygon fill="none" stroke="black" points="220,-578.5 220,-608.5 350,-608.5 350,-578.5 220,-578.5"/>
<text text-anchor="start" x="228" y="-596.5" font-family="Helvetica,sans-Serif" font-size="10.00">BlackMisc::Aviation</text>
<text text-anchor="middle" x="285" y="-585.5" font-family="Helvetica,sans-Serif" font-size="10.00">::CInformationMessage</text>
</a>
</g>
</g>
<!-- Node1&#45;&gt;Node5 -->
<g id="edge4" class="edge">
<title>Node1&#45;&gt;Node5</title>
<path fill="none" stroke="midnightblue" d="M88.22,-402.2C102.23,-440.26 138.22,-524.05 197,-568.5 203.77,-573.62 211.55,-577.69 219.62,-580.93"/>
<polygon fill="midnightblue" stroke="midnightblue" points="91.37,-400.59 84.72,-392.35 84.77,-402.94 91.37,-400.59"/>
</g>
<!-- Node6 -->
<g id="node6" class="node">
<title>Node6</title>
<g id="a_node6"><a xlink:href="class_black_misc_1_1_c_status_message.html" target="_top" xlink:title="Streamable status message, e.g.">
<polygon fill="none" stroke="black" points="208.5,-540 208.5,-559 361.5,-559 361.5,-540 208.5,-540"/>
<text text-anchor="middle" x="285" y="-547" font-family="Helvetica,sans-Serif" font-size="10.00">BlackMisc::CStatusMessage</text>
</a>
</g>
</g>
<!-- Node1&#45;&gt;Node6 -->
<g id="edge5" class="edge">
<title>Node1&#45;&gt;Node6</title>
<path fill="none" stroke="midnightblue" d="M90.72,-401.53C107.28,-433.56 145.22,-497.92 197,-530.5 203.15,-534.37 209.97,-537.46 217.02,-539.92"/>
<polygon fill="midnightblue" stroke="midnightblue" points="93.73,-399.71 86.11,-392.35 87.47,-402.86 93.73,-399.71"/>
</g>
<!-- Node7 -->
<g id="node7" class="node">
<title>Node7</title>
<g id="a_node7"><a xlink:href="class_black_misc_1_1_db_1_1_i_datastore_object.html" target="_top" xlink:title="Supposed to be used only in filter operations.">
<polygon fill="none" stroke="black" points="213.5,-490.5 213.5,-520.5 356.5,-520.5 356.5,-490.5 213.5,-490.5"/>
<text text-anchor="start" x="221.5" y="-508.5" font-family="Helvetica,sans-Serif" font-size="10.00">BlackMisc::Db::IDatastore</text>
<text text-anchor="middle" x="285" y="-497.5" font-family="Helvetica,sans-Serif" font-size="10.00">Object</text>
</a>
</g>
</g>
<!-- Node1&#45;&gt;Node7 -->
<g id="edge6" class="edge">
<title>Node1&#45;&gt;Node7</title>
<path fill="none" stroke="midnightblue" d="M97.04,-399.9C117.74,-422.03 156.48,-459.94 197,-481.5 203.36,-484.88 210.25,-487.83 217.26,-490.38"/>
<polygon fill="midnightblue" stroke="midnightblue" points="99.37,-397.26 90.03,-392.26 94.21,-401.99 99.37,-397.26"/>
</g>
<!-- Node23 -->
<g id="node23" class="node">
<title>Node23</title>
<g id="a_node23"><a xlink:href="class_black_misc_1_1_i_timestamp_with_offset_based.html" target="_top" xlink:title="Entity with timestamp.">
<polygon fill="none" stroke="black" points="208.5,-441.5 208.5,-471.5 361.5,-471.5 361.5,-441.5 208.5,-441.5"/>
<text text-anchor="start" x="216.5" y="-459.5" font-family="Helvetica,sans-Serif" font-size="10.00">BlackMisc::ITimestampWith</text>
<text text-anchor="middle" x="285" y="-448.5" font-family="Helvetica,sans-Serif" font-size="10.00">OffsetBased</text>
</a>
</g>
</g>
<!-- Node1&#45;&gt;Node23 -->
<g id="edge22" class="edge">
<title>Node1&#45;&gt;Node23</title>
<path fill="none" stroke="midnightblue" d="M111.32,-396.33C134.41,-406.76 167.36,-421 197,-431.5 206.92,-435.02 217.61,-438.4 227.99,-441.49"/>
<polygon fill="midnightblue" stroke="midnightblue" points="112.62,-393.08 102.07,-392.12 109.72,-399.45 112.62,-393.08"/>
</g>
<!-- Node27 -->
<g id="node27" class="node">
<title>Node27</title>
<g id="a_node27"><a xlink:href="class_black_misc_1_1_network_1_1_c_raw_fsd_message.html" target="_top" xlink:title="Value object for a raw FSD message.">
<polygon fill="none" stroke="black" points="228.5,-392.5 228.5,-422.5 341.5,-422.5 341.5,-392.5 228.5,-392.5"/>
<text text-anchor="start" x="236.5" y="-410.5" font-family="Helvetica,sans-Serif" font-size="10.00">BlackMisc::Network</text>
<text text-anchor="middle" x="285" y="-399.5" font-family="Helvetica,sans-Serif" font-size="10.00">::CRawFsdMessage</text>
</a>
</g>
</g>
<!-- Node1&#45;&gt;Node27 -->
<g id="edge26" class="edge">
<title>Node1&#45;&gt;Node27</title>
<path fill="none" stroke="midnightblue" d="M168.81,-393.28C189.05,-395.78 210.05,-398.37 228.48,-400.65"/>
<polygon fill="midnightblue" stroke="midnightblue" points="168.99,-389.77 158.63,-392.02 168.13,-396.72 168.99,-389.77"/>
</g>
<!-- Node28 -->
<g id="node28" class="node">
<title>Node28</title>
<g id="a_node28"><a xlink:href="class_black_misc_1_1_network_1_1_c_remote_file.html" target="_top" xlink:title="Remote file, i.e.">
<polygon fill="none" stroke="black" points="228.5,-343.5 228.5,-373.5 341.5,-373.5 341.5,-343.5 228.5,-343.5"/>
<text text-anchor="start" x="236.5" y="-361.5" font-family="Helvetica,sans-Serif" font-size="10.00">BlackMisc::Network</text>
<text text-anchor="middle" x="285" y="-350.5" font-family="Helvetica,sans-Serif" font-size="10.00">::CRemoteFile</text>
</a>
</g>
</g>
<!-- Node1&#45;&gt;Node28 -->
<g id="edge27" class="edge">
<title>Node1&#45;&gt;Node28</title>
<path fill="none" stroke="midnightblue" d="M171.33,-371.85C190.75,-369.55 210.74,-367.18 228.38,-365.09"/>
<polygon fill="midnightblue" stroke="midnightblue" points="170.76,-368.4 161.24,-373.05 171.59,-375.35 170.76,-368.4"/>
</g>
<!-- Node29 -->
<g id="node29" class="node">
<title>Node29</title>
<g id="a_node29"><a xlink:href="class_black_misc_1_1_network_1_1_c_server.html" target="_top" xlink:title="Value object encapsulating information of a server.">
<polygon fill="none" stroke="black" points="228.5,-294.5 228.5,-324.5 341.5,-324.5 341.5,-294.5 228.5,-294.5"/>
<text text-anchor="start" x="236.5" y="-312.5" font-family="Helvetica,sans-Serif" font-size="10.00">BlackMisc::Network</text>
<text text-anchor="middle" x="285" y="-301.5" font-family="Helvetica,sans-Serif" font-size="10.00">::CServer</text>
</a>
</g>
</g>
<!-- Node1&#45;&gt;Node29 -->
<g id="edge28" class="edge">
<title>Node1&#45;&gt;Node29</title>
<path fill="none" stroke="midnightblue" d="M110.87,-368.77C133.97,-358.28 167.12,-343.91 197,-333.5 207.06,-330 217.92,-326.66 228.43,-323.65"/>
<polygon fill="midnightblue" stroke="midnightblue" points="109.26,-365.65 101.63,-373 112.18,-372.02 109.26,-365.65"/>
</g>
<!-- Node30 -->
<g id="node30" class="node">
<title>Node30</title>
<g id="a_node30"><a xlink:href="class_black_misc_1_1_network_1_1_c_text_message.html" target="_top" xlink:title="Value object encapsulating information of a text message.">
<polygon fill="none" stroke="black" points="228.5,-245.5 228.5,-275.5 341.5,-275.5 341.5,-245.5 228.5,-245.5"/>
<text text-anchor="start" x="236.5" y="-263.5" font-family="Helvetica,sans-Serif" font-size="10.00">BlackMisc::Network</text>
<text text-anchor="middle" x="285" y="-252.5" font-family="Helvetica,sans-Serif" font-size="10.00">::CTextMessage</text>
</a>
</g>
</g>
<!-- Node1&#45;&gt;Node30 -->
<g id="edge29" class="edge">
<title>Node1&#45;&gt;Node30</title>
<path fill="none" stroke="midnightblue" d="M97.08,-365.28C117.82,-343.39 156.6,-305.86 197,-284.5 206.7,-279.37 217.59,-275.26 228.31,-271.98"/>
<polygon fill="midnightblue" stroke="midnightblue" points="94.3,-363.14 90.05,-372.84 99.42,-367.9 94.3,-363.14"/>
</g>
<!-- Node31 -->
<g id="node31" class="node">
<title>Node31</title>
<g id="a_node31"><a xlink:href="class_black_misc_1_1_network_1_1_c_url_log.html" target="_top" xlink:title="Information about accessing one URL over the network.">
<polygon fill="none" stroke="black" points="228.5,-196.5 228.5,-226.5 341.5,-226.5 341.5,-196.5 228.5,-196.5"/>
<text text-anchor="start" x="236.5" y="-214.5" font-family="Helvetica,sans-Serif" font-size="10.00">BlackMisc::Network</text>
<text text-anchor="middle" x="285" y="-203.5" font-family="Helvetica,sans-Serif" font-size="10.00">::CUrlLog</text>
</a>
</g>
</g>
<!-- Node1&#45;&gt;Node31 -->
<g id="edge30" class="edge">
<title>Node1&#45;&gt;Node31</title>
<path fill="none" stroke="midnightblue" d="M90.95,-363.89C107.85,-332.52 146.28,-269.24 197,-235.5 206.39,-229.25 217.38,-224.62 228.33,-221.19"/>
<polygon fill="midnightblue" stroke="midnightblue" points="87.78,-362.4 86.23,-372.88 93.98,-365.65 87.78,-362.4"/>
</g>
<!-- Node32 -->
<g id="node32" class="node">
<title>Node32</title>
<g id="a_node32"><a xlink:href="class_black_misc_1_1_simulation_1_1_c_matching_statistics_entry.html" target="_top" xlink:title="Value object for a matching statistics entry.">
<polygon fill="none" stroke="black" points="212.5,-147.5 212.5,-177.5 357.5,-177.5 357.5,-147.5 212.5,-147.5"/>
<text text-anchor="start" x="220.5" y="-165.5" font-family="Helvetica,sans-Serif" font-size="10.00">BlackMisc::Simulation</text>
<text text-anchor="middle" x="285" y="-154.5" font-family="Helvetica,sans-Serif" font-size="10.00">::CMatchingStatisticsEntry</text>
</a>
</g>
</g>
<!-- Node1&#45;&gt;Node32 -->
<g id="edge31" class="edge">
<title>Node1&#45;&gt;Node32</title>
<path fill="none" stroke="midnightblue" d="M87.43,-363.02C100.48,-323.48 135.54,-233.59 197,-186.5 201.73,-182.88 206.97,-179.8 212.46,-177.19"/>
<polygon fill="midnightblue" stroke="midnightblue" points="84.09,-361.96 84.39,-372.55 90.76,-364.09 84.09,-361.96"/>
</g>
<!-- Node33 -->
<g id="node33" class="node">
<title>Node33</title>
<g id="a_node33"><a xlink:href="class_black_misc_1_1_simulation_1_1_fs_common_1_1_c_aircraft_cfg_entries.html" target="_top" xlink:title="Set of aircraft.cfg entries representing an aircraft (FSX)">
<polygon fill="none" stroke="black" points="197,-98.5 197,-128.5 373,-128.5 373,-98.5 197,-98.5"/>
<text text-anchor="start" x="205" y="-116.5" font-family="Helvetica,sans-Serif" font-size="10.00">BlackMisc::Simulation</text>
<text text-anchor="middle" x="285" y="-105.5" font-family="Helvetica,sans-Serif" font-size="10.00">::FsCommon::CAircraftCfgEntries</text>
</a>
</g>
</g>
<!-- Node1&#45;&gt;Node33 -->
<g id="edge32" class="edge">
<title>Node1&#45;&gt;Node33</title>
<path fill="none" stroke="midnightblue" d="M85,-362.78C94.34,-316.22 124.22,-198.77 197,-137.5 201.08,-134.07 205.6,-131.13 210.39,-128.6"/>
<polygon fill="midnightblue" stroke="midnightblue" points="81.53,-362.3 83.1,-372.78 88.41,-363.61 81.53,-362.3"/>
</g>
<!-- Node34 -->
<g id="node34" class="node">
<title>Node34</title>
<g id="a_node34"><a xlink:href="class_black_misc_1_1_simulation_1_1_fs_common_1_1_c_v_pilot_model_rule.html" target="_top" xlink:title="Value object encapsulating information of software distributor.">
<polygon fill="none" stroke="black" points="199.5,-49.5 199.5,-79.5 370.5,-79.5 370.5,-49.5 199.5,-49.5"/>
<text text-anchor="start" x="207.5" y="-67.5" font-family="Helvetica,sans-Serif" font-size="10.00">BlackMisc::Simulation</text>
<text text-anchor="middle" x="285" y="-56.5" font-family="Helvetica,sans-Serif" font-size="10.00">::FsCommon::CVPilotModelRule</text>
</a>
</g>
</g>
<!-- Node1&#45;&gt;Node34 -->
<g id="edge33" class="edge">
<title>Node1&#45;&gt;Node34</title>
<path fill="none" stroke="midnightblue" d="M83.28,-362.88C89.12,-310.2 112.51,-164.55 197,-88.5 200.84,-85.04 205.14,-82.08 209.71,-79.53"/>
<polygon fill="midnightblue" stroke="midnightblue" points="79.79,-362.6 82.26,-372.91 86.75,-363.31 79.79,-362.6"/>
</g>
<!-- Node35 -->
<g id="node35" class="node">
<title>Node35</title>
<g id="a_node35"><a xlink:href="class_black_misc_1_1_simulation_1_1_settings_1_1_c_x_swift_bus_settings.html" target="_top" xlink:title="XSwiftBus settings.">
<polygon fill="none" stroke="black" points="203,-0.5 203,-30.5 367,-30.5 367,-0.5 203,-0.5"/>
<text text-anchor="start" x="211" y="-18.5" font-family="Helvetica,sans-Serif" font-size="10.00">BlackMisc::Simulation</text>
<text text-anchor="middle" x="285" y="-7.5" font-family="Helvetica,sans-Serif" font-size="10.00">::Settings::CXSwiftBusSettings</text>
</a>
</g>
</g>
<!-- Node1&#45;&gt;Node35 -->
<g id="edge34" class="edge">
<title>Node1&#45;&gt;Node35</title>
<path fill="none" stroke="midnightblue" d="M82.03,-362.82C84.68,-304.44 100.71,-130.58 197,-39.5 200.64,-36.05 204.73,-33.1 209.1,-30.56"/>
<polygon fill="midnightblue" stroke="midnightblue" points="78.52,-362.78 81.65,-372.9 85.52,-363.04 78.52,-362.78"/>
</g>
<!-- Node8 -->
<g id="node8" class="node">
<title>Node8</title>
<g id="a_node8"><a xlink:href="class_black_misc_1_1_db_1_1_i_datastore_object_with_integer_key.html" target="_top" xlink:title="Class from which a derived class can inherit datastore&#45;related functions.">
<polygon fill="none" stroke="black" points="410,-733.5 410,-763.5 553,-763.5 553,-733.5 410,-733.5"/>
<text text-anchor="start" x="418" y="-751.5" font-family="Helvetica,sans-Serif" font-size="10.00">BlackMisc::Db::IDatastore</text>
<text text-anchor="middle" x="481.5" y="-740.5" font-family="Helvetica,sans-Serif" font-size="10.00">ObjectWithIntegerKey</text>
</a>
</g>
</g>
<!-- Node7&#45;&gt;Node8 -->
<g id="edge7" class="edge">
<title>Node7&#45;&gt;Node8</title>
<path fill="none" stroke="midnightblue" d="M365.4,-524.96C368.06,-526.66 370.61,-528.5 373,-530.5 439.86,-586.39 468.8,-693.96 477.5,-733.47"/>
<polygon fill="midnightblue" stroke="midnightblue" points="367,-521.85 356.56,-520.04 363.59,-527.96 367,-521.85"/>
</g>
<!-- Node20 -->
<g id="node20" class="node">
<title>Node20</title>
<g id="a_node20"><a xlink:href="class_black_misc_1_1_db_1_1_i_datastore_object_with_string_key.html" target="_top" xlink:title="Class from which a derived class can inherit datastore&#45;related functions.">
<polygon fill="none" stroke="black" points="410,-490.5 410,-520.5 553,-520.5 553,-490.5 410,-490.5"/>
<text text-anchor="start" x="418" y="-508.5" font-family="Helvetica,sans-Serif" font-size="10.00">BlackMisc::Db::IDatastore</text>
<text text-anchor="middle" x="481.5" y="-497.5" font-family="Helvetica,sans-Serif" font-size="10.00">ObjectWithStringKey</text>
</a>
</g>
</g>
<!-- Node7&#45;&gt;Node20 -->
<g id="edge19" class="edge">
<title>Node7&#45;&gt;Node20</title>
<path fill="none" stroke="midnightblue" d="M367.01,-505.5C381.21,-505.5 395.89,-505.5 409.78,-505.5"/>
<polygon fill="midnightblue" stroke="midnightblue" points="366.77,-502 356.77,-505.5 366.77,-509 366.77,-502"/>
</g>
<!-- Node9 -->
<g id="node9" class="node">
<title>Node9</title>
<g id="a_node9"><a xlink:href="class_black_misc_1_1_aviation_1_1_c_aircraft_category.html" target="_top" xlink:title="Value object for aircraft categories.">
<polygon fill="none" stroke="black" points="611.5,-992.5 611.5,-1022.5 723.5,-1022.5 723.5,-992.5 611.5,-992.5"/>
<text text-anchor="start" x="619.5" y="-1010.5" font-family="Helvetica,sans-Serif" font-size="10.00">BlackMisc::Aviation</text>
<text text-anchor="middle" x="667.5" y="-999.5" font-family="Helvetica,sans-Serif" font-size="10.00">::CAircraftCategory</text>
</a>
</g>
</g>
<!-- Node8&#45;&gt;Node9 -->
<g id="edge8" class="edge">
<title>Node8&#45;&gt;Node9</title>
<path fill="none" stroke="midnightblue" d="M486.97,-773.51C496.83,-821.33 524.94,-926.11 590,-983.5 596.16,-988.93 603.54,-993.14 611.26,-996.39"/>
<polygon fill="midnightblue" stroke="midnightblue" points="490.4,-772.81 485.04,-763.68 483.53,-774.16 490.4,-772.81"/>
</g>
<!-- Node10 -->
<g id="node10" class="node">
<title>Node10</title>
<g id="a_node10"><a xlink:href="class_black_misc_1_1_aviation_1_1_c_aircraft_icao_code.html" target="_top" xlink:title="Value object for ICAO classification.">
<polygon fill="none" stroke="black" points="611.5,-943.5 611.5,-973.5 723.5,-973.5 723.5,-943.5 611.5,-943.5"/>
<text text-anchor="start" x="619.5" y="-961.5" font-family="Helvetica,sans-Serif" font-size="10.00">BlackMisc::Aviation</text>
<text text-anchor="middle" x="667.5" y="-950.5" font-family="Helvetica,sans-Serif" font-size="10.00">::CAircraftIcaoCode</text>
</a>
</g>
</g>
<!-- Node8&#45;&gt;Node10 -->
<g id="edge9" class="edge">
<title>Node8&#45;&gt;Node10</title>
<path fill="none" stroke="midnightblue" d="M490.2,-773.25C503.84,-813.07 536.02,-891.26 590,-934.5 596.3,-939.55 603.67,-943.54 611.31,-946.7"/>
<polygon fill="midnightblue" stroke="midnightblue" points="493.45,-771.94 486.98,-763.55 486.81,-774.14 493.45,-771.94"/>
</g>
<!-- Node11 -->
<g id="node11" class="node">
<title>Node11</title>
<g id="a_node11"><a xlink:href="class_black_misc_1_1_aviation_1_1_c_airline_icao_code.html" target="_top" xlink:title="Value object for ICAO classification.">
<polygon fill="none" stroke="black" points="611.5,-894.5 611.5,-924.5 723.5,-924.5 723.5,-894.5 611.5,-894.5"/>
<text text-anchor="start" x="619.5" y="-912.5" font-family="Helvetica,sans-Serif" font-size="10.00">BlackMisc::Aviation</text>
<text text-anchor="middle" x="667.5" y="-901.5" font-family="Helvetica,sans-Serif" font-size="10.00">::CAirlineIcaoCode</text>
</a>
</g>
</g>
<!-- Node8&#45;&gt;Node11 -->
<g id="edge10" class="edge">
<title>Node8&#45;&gt;Node11</title>
<path fill="none" stroke="midnightblue" d="M495.43,-772.85C512.91,-803.5 546.91,-855.72 590,-885.5 596.41,-889.93 603.68,-893.57 611.12,-896.56"/>
<polygon fill="midnightblue" stroke="midnightblue" points="498.26,-770.75 490.34,-763.72 492.15,-774.16 498.26,-770.75"/>
</g>
<!-- Node12 -->
<g id="node12" class="node">
<title>Node12</title>
<g id="a_node12"><a xlink:href="class_black_misc_1_1_aviation_1_1_c_airport.html" target="_top" xlink:title="Value object encapsulating information about an airpot.">
<polygon fill="none" stroke="black" points="611.5,-845.5 611.5,-875.5 723.5,-875.5 723.5,-845.5 611.5,-845.5"/>
<text text-anchor="start" x="619.5" y="-863.5" font-family="Helvetica,sans-Serif" font-size="10.00">BlackMisc::Aviation</text>
<text text-anchor="middle" x="667.5" y="-852.5" font-family="Helvetica,sans-Serif" font-size="10.00">::CAirport</text>
</a>
</g>
</g>
<!-- Node8&#45;&gt;Node12 -->
<g id="edge11" class="edge">
<title>Node8&#45;&gt;Node12</title>
<path fill="none" stroke="midnightblue" d="M504.42,-770.76C524.93,-790.49 557.25,-818.82 590,-836.5 596.61,-840.07 603.84,-843.2 611.13,-845.92"/>
<polygon fill="midnightblue" stroke="midnightblue" points="506.75,-768.15 497.16,-763.67 501.86,-773.16 506.75,-768.15"/>
</g>
<!-- Node13 -->
<g id="node13" class="node">
<title>Node13</title>
<g id="a_node13"><a xlink:href="class_black_misc_1_1_aviation_1_1_c_livery.html" target="_top" xlink:title="Value object encapsulating information about an airpot.">
<polygon fill="none" stroke="black" points="611.5,-796.5 611.5,-826.5 723.5,-826.5 723.5,-796.5 611.5,-796.5"/>
<text text-anchor="start" x="619.5" y="-814.5" font-family="Helvetica,sans-Serif" font-size="10.00">BlackMisc::Aviation</text>
<text text-anchor="middle" x="667.5" y="-803.5" font-family="Helvetica,sans-Serif" font-size="10.00">::CLivery</text>
</a>
</g>
</g>
<!-- Node8&#45;&gt;Node13 -->
<g id="edge12" class="edge">
<title>Node8&#45;&gt;Node13</title>
<path fill="none" stroke="midnightblue" d="M533.88,-766.94C551.63,-773.24 571.66,-780.26 590,-786.5 599.66,-789.78 610.03,-793.23 619.92,-796.47"/>
<polygon fill="midnightblue" stroke="midnightblue" points="534.88,-763.58 524.28,-763.53 532.53,-770.18 534.88,-763.58"/>
</g>
<!-- Node14 -->
<g id="node14" class="node">
<title>Node14</title>
<g id="a_node14"><a xlink:href="class_black_misc_1_1_db_1_1_c_artifact.html" target="_top" xlink:title="Artifacts (&quot;our software&quot; products)">
<polygon fill="none" stroke="black" points="600.5,-758 600.5,-777 734.5,-777 734.5,-758 600.5,-758"/>
<text text-anchor="middle" x="667.5" y="-765" font-family="Helvetica,sans-Serif" font-size="10.00">BlackMisc::Db::CArtifact</text>
</a>
</g>
</g>
<!-- Node8&#45;&gt;Node14 -->
<g id="edge13" class="edge">
<title>Node8&#45;&gt;Node14</title>
<path fill="none" stroke="midnightblue" d="M563.39,-756.85C575.73,-758.13 588.34,-759.43 600.31,-760.66"/>
<polygon fill="midnightblue" stroke="midnightblue" points="563.42,-753.34 553.11,-755.79 562.7,-760.3 563.42,-753.34"/>
</g>
<!-- Node15 -->
<g id="node15" class="node">
<title>Node15</title>
<g id="a_node15"><a xlink:href="class_black_misc_1_1_db_1_1_c_db_info.html" target="_top" xlink:title="Info about the latest models.">
<polygon fill="none" stroke="black" points="602,-720 602,-739 733,-739 733,-720 602,-720"/>
<text text-anchor="middle" x="667.5" y="-727" font-family="Helvetica,sans-Serif" font-size="10.00">BlackMisc::Db::CDbInfo</text>
</a>
</g>
</g>
<!-- Node8&#45;&gt;Node15 -->
<g id="edge14" class="edge">
<title>Node8&#45;&gt;Node15</title>
<path fill="none" stroke="midnightblue" d="M563.35,-740.15C576.21,-738.82 589.38,-737.46 601.81,-736.18"/>
<polygon fill="midnightblue" stroke="midnightblue" points="562.7,-736.7 553.11,-741.21 563.42,-743.66 562.7,-736.7"/>
</g>
<!-- Node16 -->
<g id="node16" class="node">
<title>Node16</title>
<g id="a_node16"><a xlink:href="class_black_misc_1_1_db_1_1_c_distribution.html" target="_top" xlink:title="Distributions for channel.">
<polygon fill="none" stroke="black" points="590,-682 590,-701 745,-701 745,-682 590,-682"/>
<text text-anchor="middle" x="667.5" y="-689" font-family="Helvetica,sans-Serif" font-size="10.00">BlackMisc::Db::CDistribution</text>
</a>
</g>
</g>
<!-- Node8&#45;&gt;Node16 -->
<g id="edge15" class="edge">
<title>Node8&#45;&gt;Node16</title>
<path fill="none" stroke="midnightblue" d="M531.79,-729.96C549.96,-723.42 570.8,-716.26 590,-710.5 601.27,-707.12 613.6,-703.86 625.01,-701.03"/>
<polygon fill="midnightblue" stroke="midnightblue" points="530.48,-726.71 522.27,-733.41 532.87,-733.29 530.48,-726.71"/>
</g>
<!-- Node17 -->
<g id="node17" class="node">
<title>Node17</title>
<g id="a_node17"><a xlink:href="class_black_misc_1_1_network_1_1_c_authenticated_user.html" target="_top" xlink:title="Value object encapsulating information of an authentiated user.">
<polygon fill="none" stroke="black" points="607.5,-632.5 607.5,-662.5 727.5,-662.5 727.5,-632.5 607.5,-632.5"/>
<text text-anchor="start" x="615.5" y="-650.5" font-family="Helvetica,sans-Serif" font-size="10.00">BlackMisc::Network</text>
<text text-anchor="middle" x="667.5" y="-639.5" font-family="Helvetica,sans-Serif" font-size="10.00">::CAuthenticatedUser</text>
</a>
</g>
</g>
<!-- Node8&#45;&gt;Node17 -->
<g id="edge16" class="edge">
<title>Node8&#45;&gt;Node17</title>
<path fill="none" stroke="midnightblue" d="M508.24,-726.95C529.18,-710.26 560.07,-687.54 590,-672.5 597.37,-668.8 605.4,-665.48 613.4,-662.55"/>
<polygon fill="midnightblue" stroke="midnightblue" points="506.03,-724.23 500.45,-733.24 510.43,-729.68 506.03,-724.23"/>
</g>
<!-- Node18 -->
<g id="node18" class="node">
<title>Node18</title>
<g id="a_node18"><a xlink:href="class_black_misc_1_1_network_1_1_c_role.html" target="_top" xlink:title="Role.">
<polygon fill="none" stroke="black" points="611,-583.5 611,-613.5 724,-613.5 724,-583.5 611,-583.5"/>
<text text-anchor="start" x="619" y="-601.5" font-family="Helvetica,sans-Serif" font-size="10.00">BlackMisc::Network</text>
<text text-anchor="middle" x="667.5" y="-590.5" font-family="Helvetica,sans-Serif" font-size="10.00">::CRole</text>
</a>
</g>
</g>
<!-- Node8&#45;&gt;Node18 -->
<g id="edge17" class="edge">
<title>Node8&#45;&gt;Node18</title>
<path fill="none" stroke="midnightblue" d="M497.1,-724.7C515.47,-696.66 549.57,-650.47 590,-623.5 596.39,-619.24 603.57,-615.65 610.9,-612.65"/>
<polygon fill="midnightblue" stroke="midnightblue" points="493.94,-723.16 491.49,-733.46 499.83,-726.93 493.94,-723.16"/>
</g>
<!-- Node19 -->
<g id="node19" class="node">
<title>Node19</title>
<g id="a_node19"><a xlink:href="class_black_misc_1_1_simulation_1_1_c_aircraft_model.html" target="_top" xlink:title="Aircraft model (used by another pilot, my models on disk)">
<polygon fill="none" stroke="black" points="605,-534.5 605,-564.5 730,-564.5 730,-534.5 605,-534.5"/>
<text text-anchor="start" x="613" y="-552.5" font-family="Helvetica,sans-Serif" font-size="10.00">BlackMisc::Simulation</text>
<text text-anchor="middle" x="667.5" y="-541.5" font-family="Helvetica,sans-Serif" font-size="10.00">::CAircraftModel</text>
</a>
</g>
</g>
<!-- Node8&#45;&gt;Node19 -->
<g id="edge18" class="edge">
<title>Node8&#45;&gt;Node19</title>
<path fill="none" stroke="midnightblue" d="M491.33,-723.81C506.01,-686.18 538.98,-614.64 590,-574.5 594.94,-570.61 600.51,-567.32 606.33,-564.53"/>
<polygon fill="midnightblue" stroke="midnightblue" points="487.94,-722.88 487.67,-733.47 494.48,-725.35 487.94,-722.88"/>
</g>
<!-- Node21 -->
<g id="node21" class="node">
<title>Node21</title>
<g id="a_node21"><a xlink:href="class_black_misc_1_1_c_country.html" target="_top" xlink:title="Color.">
<polygon fill="none" stroke="black" points="609,-496 609,-515 726,-515 726,-496 609,-496"/>
<text text-anchor="middle" x="667.5" y="-503" font-family="Helvetica,sans-Serif" font-size="10.00">BlackMisc::CCountry</text>
</a>
</g>
</g>
<!-- Node20&#45;&gt;Node21 -->
<g id="edge20" class="edge">
<title>Node20&#45;&gt;Node21</title>
<path fill="none" stroke="midnightblue" d="M563.16,-505.5C578.56,-505.5 594.39,-505.5 608.9,-505.5"/>
<polygon fill="midnightblue" stroke="midnightblue" points="563.11,-502 553.11,-505.5 563.11,-509 563.11,-502"/>
</g>
<!-- Node22 -->
<g id="node22" class="node">
<title>Node22</title>
<g id="a_node22"><a xlink:href="class_black_misc_1_1_simulation_1_1_c_distributor.html" target="_top" xlink:title="Value object encapsulating information of software distributor.">
<polygon fill="none" stroke="black" points="605,-446.5 605,-476.5 730,-476.5 730,-446.5 605,-446.5"/>
<text text-anchor="start" x="613" y="-464.5" font-family="Helvetica,sans-Serif" font-size="10.00">BlackMisc::Simulation</text>
<text text-anchor="middle" x="667.5" y="-453.5" font-family="Helvetica,sans-Serif" font-size="10.00">::CDistributor</text>
</a>
</g>
</g>
<!-- Node20&#45;&gt;Node22 -->
<g id="edge21" class="edge">
<title>Node20&#45;&gt;Node22</title>
<path fill="none" stroke="midnightblue" d="M555.39,-488.07C571.78,-484.15 589.03,-480.03 604.91,-476.23"/>
<polygon fill="midnightblue" stroke="midnightblue" points="554.22,-484.75 545.31,-490.48 555.85,-491.56 554.22,-484.75"/>
</g>
<!-- Node24 -->
<g id="node24" class="node">
<title>Node24</title>
<g id="a_node24"><a xlink:href="class_black_misc_1_1_aviation_1_1_c_aircraft_parts.html" target="_top" xlink:title="Value object encapsulating information of aircraft&#39;s parts.">
<polygon fill="none" stroke="black" points="425.5,-441.5 425.5,-471.5 537.5,-471.5 537.5,-441.5 425.5,-441.5"/>
<text text-anchor="start" x="433.5" y="-459.5" font-family="Helvetica,sans-Serif" font-size="10.00">BlackMisc::Aviation</text>
<text text-anchor="middle" x="481.5" y="-448.5" font-family="Helvetica,sans-Serif" font-size="10.00">::CAircraftParts</text>
</a>
</g>
</g>
<!-- Node23&#45;&gt;Node24 -->
<g id="edge23" class="edge">
<title>Node23&#45;&gt;Node24</title>
<path fill="none" stroke="midnightblue" d="M371.79,-456.5C389.99,-456.5 408.74,-456.5 425.42,-456.5"/>
<polygon fill="midnightblue" stroke="midnightblue" points="371.76,-453 361.76,-456.5 371.76,-460 371.76,-453"/>
</g>
<!-- Node25 -->
<g id="node25" class="node">
<title>Node25</title>
<g id="a_node25"><a xlink:href="class_black_misc_1_1_aviation_1_1_c_aircraft_situation.html" target="_top" xlink:title="Value object encapsulating information of an aircraft&#39;s situation.">
<polygon fill="none" stroke="black" points="425.5,-392.5 425.5,-422.5 537.5,-422.5 537.5,-392.5 425.5,-392.5"/>
<text text-anchor="start" x="433.5" y="-410.5" font-family="Helvetica,sans-Serif" font-size="10.00">BlackMisc::Aviation</text>
<text text-anchor="middle" x="481.5" y="-399.5" font-family="Helvetica,sans-Serif" font-size="10.00">::CAircraftSituation</text>
</a>
</g>
</g>
<!-- Node23&#45;&gt;Node25 -->
<g id="edge24" class="edge">
<title>Node23&#45;&gt;Node25</title>
<path fill="none" stroke="midnightblue" d="M355.66,-438.95C378.52,-433.19 403.6,-426.87 425.25,-421.42"/>
<polygon fill="midnightblue" stroke="midnightblue" points="354.52,-435.63 345.68,-441.47 356.23,-442.42 354.52,-435.63"/>
</g>
<!-- Node26 -->
<g id="node26" class="node">
<title>Node26</title>
<g id="a_node26"><a xlink:href="class_black_misc_1_1_aviation_1_1_c_aircraft_situation_change.html" target="_top" xlink:title="Value object about changes in situations.">
<polygon fill="none" stroke="black" points="409,-343.5 409,-373.5 554,-373.5 554,-343.5 409,-343.5"/>
<text text-anchor="start" x="417" y="-361.5" font-family="Helvetica,sans-Serif" font-size="10.00">BlackMisc::Aviation</text>
<text text-anchor="middle" x="481.5" y="-350.5" font-family="Helvetica,sans-Serif" font-size="10.00">::CAircraftSituationChange</text>
</a>
</g>
</g>
<!-- Node23&#45;&gt;Node26 -->
<g id="edge25" class="edge">
<title>Node23&#45;&gt;Node26</title>
<path fill="none" stroke="midnightblue" d="M364,-437.02C367.12,-435.33 370.14,-433.49 373,-431.5 395.17,-416.05 387.17,-398.43 409,-382.5 413.65,-379.1 418.82,-376.17 424.18,-373.63"/>
<polygon fill="midnightblue" stroke="midnightblue" points="362.42,-433.89 354.95,-441.4 365.47,-440.19 362.42,-433.89"/>
</g>
</g>
</svg>
