<?xml version="1.0" encoding="UTF-8" standalone="no"?>
<!DOCTYPE svg PUBLIC "-//W3C//DTD SVG 1.1//EN"
 "http://www.w3.org/Graphics/SVG/1.1/DTD/svg11.dtd">
<!-- Generated by graphviz version 2.43.0 (0)
 -->
<!-- Title: BlackMisc::Simulation::CSimulatorPluginInfo Pages: 1 -->
<svg width="726pt" height="568pt"
 viewBox="0.00 0.00 726.00 567.50" xmlns="http://www.w3.org/2000/svg" xmlns:xlink="http://www.w3.org/1999/xlink">
<g id="graph0" class="graph" transform="scale(1 1) rotate(0) translate(4 563.5)">
<title>BlackMisc::Simulation::CSimulatorPluginInfo</title>
<!-- Node1 -->
<g id="node1" class="node">
<title>Node1</title>
<g id="a_node1"><a xlink:title="Describing a simulator plugin.">
<polygon fill="#bfbfbf" stroke="black" points="593,-269.5 593,-299.5 718,-299.5 718,-269.5 593,-269.5"/>
<text text-anchor="start" x="601" y="-287.5" font-family="Helvetica,sans-Serif" font-size="10.00">BlackMisc::Simulation</text>
<text text-anchor="middle" x="655.5" y="-276.5" font-family="Helvetica,sans-Serif" font-size="10.00">::CSimulatorPluginInfo</text>
</a>
</g>
</g>
<!-- Node2 -->
<g id="node2" class="node">
<title>Node2</title>
<g id="a_node2"><a xlink:href="class_black_misc_1_1_c_value_object.html" target="_top" xlink:title=" ">
<polygon fill="none" stroke="black" points="415,-269.5 415,-299.5 557,-299.5 557,-269.5 415,-269.5"/>
<text text-anchor="start" x="423" y="-287.5" font-family="Helvetica,sans-Serif" font-size="10.00">BlackMisc::CValueObject</text>
<text text-anchor="middle" x="486" y="-276.5" font-family="Helvetica,sans-Serif" font-size="10.00">&lt; CSimulatorPluginInfo &gt;</text>
</a>
</g>
</g>
<!-- Node2&#45;&gt;Node1 -->
<g id="edge1" class="edge">
<title>Node2&#45;&gt;Node1</title>
<path fill="none" stroke="midnightblue" d="M567.19,-284.5C575.86,-284.5 584.58,-284.5 592.97,-284.5"/>
<polygon fill="midnightblue" stroke="midnightblue" points="567.06,-281 557.06,-284.5 567.06,-288 567.06,-281"/>
</g>
<!-- Node3 -->
<g id="node3" class="node">
<title>Node3</title>
<g id="a_node3"><a xlink:href="class_black_misc_1_1_c_empty.html" target="_top" xlink:title="Default base class for CValueObject.">
<polygon fill="none" stroke="black" points="242,-540 242,-559 352,-559 352,-540 242,-540"/>
<text text-anchor="middle" x="297" y="-547" font-family="Helvetica,sans-Serif" font-size="10.00">BlackMisc::CEmpty</text>
</a>
</g>
</g>
<!-- Node3&#45;&gt;Node2 -->
<g id="edge2" class="edge">
<title>Node3&#45;&gt;Node2</title>
<path fill="none" stroke="midnightblue" d="M362.1,-540.61C368.21,-538.01 373.99,-534.7 379,-530.5 453.69,-467.95 477.12,-343.03 483.17,-299.71"/>
<polygon fill="midnightblue" stroke="midnightblue" points="360.51,-537.46 352.29,-544.14 362.88,-544.05 360.51,-537.46"/>
</g>
<!-- Node4 -->
<g id="node4" class="node">
<title>Node4</title>
<g id="a_node4"><a xlink:href="class_black_misc_1_1_mixin_1_1_meta_type.html" target="_top" xlink:title="CRTP class template from which a derived class can inherit common methods dealing with the metatype o...">
<polygon fill="none" stroke="black" points="221,-490.5 221,-520.5 373,-520.5 373,-490.5 221,-490.5"/>
<text text-anchor="start" x="229" y="-508.5" font-family="Helvetica,sans-Serif" font-size="10.00">BlackMisc::Mixin::MetaType</text>
<text text-anchor="middle" x="297" y="-497.5" font-family="Helvetica,sans-Serif" font-size="10.00">&lt; Derived &gt;</text>
</a>
</g>
</g>
<!-- Node4&#45;&gt;Node2 -->
<g id="edge3" class="edge">
<title>Node4&#45;&gt;Node2</title>
<path fill="none" stroke="midnightblue" d="M374.07,-485.15C375.78,-484 377.42,-482.78 379,-481.5 440.33,-431.64 471.13,-336.57 481.19,-299.67"/>
<polygon fill="midnightblue" stroke="midnightblue" points="372.02,-482.3 365.17,-490.37 375.56,-488.33 372.02,-482.3"/>
</g>
<!-- Node5 -->
<g id="node5" class="node">
<title>Node5</title>
<g id="a_node5"><a xlink:href="class_black_misc_1_1_mixin_1_1_hash_by_meta_class.html" target="_top" xlink:title="CRTP class template from which a derived class can inherit common methods dealing with hashing instan...">
<polygon fill="none" stroke="black" points="225.5,-441.5 225.5,-471.5 368.5,-471.5 368.5,-441.5 225.5,-441.5"/>
<text text-anchor="start" x="233.5" y="-459.5" font-family="Helvetica,sans-Serif" font-size="10.00">BlackMisc::Mixin::HashBy</text>
<text text-anchor="middle" x="297" y="-448.5" font-family="Helvetica,sans-Serif" font-size="10.00">MetaClass&lt; Derived &gt;</text>
</a>
</g>
</g>
<!-- Node5&#45;&gt;Node2 -->
<g id="edge4" class="edge">
<title>Node5&#45;&gt;Node2</title>
<path fill="none" stroke="midnightblue" d="M372.47,-436.7C374.73,-435.39 376.91,-433.99 379,-432.5 429.21,-396.76 464.43,-329.59 478.36,-299.62"/>
<polygon fill="midnightblue" stroke="midnightblue" points="370.76,-433.64 363.48,-441.34 373.97,-439.86 370.76,-433.64"/>
</g>
<!-- Node6 -->
<g id="node6" class="node">
<title>Node6</title>
<g id="a_node6"><a xlink:href="class_black_misc_1_1_mixin_1_1_d_bus_by_meta_class.html" target="_top" xlink:title="CRTP class template from which a derived class can inherit common methods dealing with marshalling in...">
<polygon fill="none" stroke="black" points="219,-392.5 219,-422.5 375,-422.5 375,-392.5 219,-392.5"/>
<text text-anchor="start" x="227" y="-410.5" font-family="Helvetica,sans-Serif" font-size="10.00">BlackMisc::Mixin::DBusBy</text>
<text text-anchor="middle" x="297" y="-399.5" font-family="Helvetica,sans-Serif" font-size="10.00">MetaClass&lt; Derived, Tags &gt;</text>
</a>
</g>
</g>
<!-- Node6&#45;&gt;Node2 -->
<g id="edge5" class="edge">
<title>Node6&#45;&gt;Node2</title>
<path fill="none" stroke="midnightblue" d="M369.07,-388.58C372.49,-387.01 375.82,-385.32 379,-383.5 418.34,-360.99 454.76,-321.19 472.92,-299.54"/>
<polygon fill="midnightblue" stroke="midnightblue" points="367.7,-385.36 359.85,-392.47 370.42,-391.81 367.7,-385.36"/>
</g>
<!-- Node7 -->
<g id="node7" class="node">
<title>Node7</title>
<g id="a_node7"><a xlink:href="class_black_misc_1_1_mixin_1_1_d_bus_operators.html" target="_top" xlink:title=" ">
<polygon fill="none" stroke="black" points="0,-392.5 0,-422.5 179,-422.5 179,-392.5 0,-392.5"/>
<text text-anchor="start" x="8" y="-410.5" font-family="Helvetica,sans-Serif" font-size="10.00">BlackMisc::Mixin::DBusOperators</text>
<text text-anchor="middle" x="89.5" y="-399.5" font-family="Helvetica,sans-Serif" font-size="10.00">&lt; Derived, Tags... &gt;</text>
</a>
</g>
</g>
<!-- Node7&#45;&gt;Node6 -->
<g id="edge6" class="edge">
<title>Node7&#45;&gt;Node6</title>
<path fill="none" stroke="midnightblue" d="M189.44,-407.5C199.35,-407.5 209.31,-407.5 218.95,-407.5"/>
<polygon fill="midnightblue" stroke="midnightblue" points="189.14,-404 179.14,-407.5 189.14,-411 189.14,-404"/>
</g>
<!-- Node8 -->
<g id="node8" class="node">
<title>Node8</title>
<g id="a_node8"><a xlink:href="class_black_misc_1_1_mixin_1_1_data_stream_by_meta_class.html" target="_top" xlink:title="CRTP class template to generate QDataStream marshalling methods using CMetaClass.">
<polygon fill="none" stroke="black" points="215,-343.5 215,-373.5 379,-373.5 379,-343.5 215,-343.5"/>
<text text-anchor="start" x="223" y="-361.5" font-family="Helvetica,sans-Serif" font-size="10.00">BlackMisc::Mixin::DataStream</text>
<text text-anchor="middle" x="297" y="-350.5" font-family="Helvetica,sans-Serif" font-size="10.00">ByMetaClass&lt; Derived &gt;</text>
</a>
</g>
</g>
<!-- Node8&#45;&gt;Node2 -->
<g id="edge7" class="edge">
<title>Node8&#45;&gt;Node2</title>
<path fill="none" stroke="midnightblue" d="M362.38,-340.41C368.04,-338.52 373.64,-336.54 379,-334.5 405.81,-324.28 435.24,-310.15 456.27,-299.51"/>
<polygon fill="midnightblue" stroke="midnightblue" points="361.28,-337.08 352.84,-343.49 363.44,-343.74 361.28,-337.08"/>
</g>
<!-- Node9 -->
<g id="node9" class="node">
<title>Node9</title>
<g id="a_node9"><a xlink:href="class_black_misc_1_1_mixin_1_1_data_stream_operators.html" target="_top" xlink:title="CRTP class template to generate non&#45;member QDataStream streaming operators.">
<polygon fill="none" stroke="black" points="7.5,-343.5 7.5,-373.5 171.5,-373.5 171.5,-343.5 7.5,-343.5"/>
<text text-anchor="start" x="15.5" y="-361.5" font-family="Helvetica,sans-Serif" font-size="10.00">BlackMisc::Mixin::DataStream</text>
<text text-anchor="middle" x="89.5" y="-350.5" font-family="Helvetica,sans-Serif" font-size="10.00">Operators&lt; Derived &gt;</text>
</a>
</g>
</g>
<!-- Node9&#45;&gt;Node8 -->
<g id="edge8" class="edge">
<title>Node9&#45;&gt;Node8</title>
<path fill="none" stroke="midnightblue" d="M181.74,-358.5C192.72,-358.5 203.87,-358.5 214.7,-358.5"/>
<polygon fill="midnightblue" stroke="midnightblue" points="181.72,-355 171.72,-358.5 181.72,-362 181.72,-355"/>
</g>
<!-- Node10 -->
<g id="node10" class="node">
<title>Node10</title>
<g id="a_node10"><a xlink:href="class_black_misc_1_1_mixin_1_1_json_by_meta_class.html" target="_top" xlink:title="CRTP class template from which a derived class can inherit common methods dealing with JSON by metatu...">
<polygon fill="none" stroke="black" points="228,-294.5 228,-324.5 366,-324.5 366,-294.5 228,-294.5"/>
<text text-anchor="start" x="236" y="-312.5" font-family="Helvetica,sans-Serif" font-size="10.00">BlackMisc::Mixin::JsonBy</text>
<text text-anchor="middle" x="297" y="-301.5" font-family="Helvetica,sans-Serif" font-size="10.00">MetaClass&lt; Derived &gt;</text>
</a>
</g>
</g>
<!-- Node10&#45;&gt;Node2 -->
<g id="edge9" class="edge">
<title>Node10&#45;&gt;Node2</title>
<path fill="none" stroke="midnightblue" d="M376.21,-299.04C389.01,-297.33 402.21,-295.57 414.81,-293.88"/>
<polygon fill="midnightblue" stroke="midnightblue" points="375.49,-295.61 366.04,-300.4 376.42,-302.55 375.49,-295.61"/>
</g>
<!-- Node11 -->
<g id="node11" class="node">
<title>Node11</title>
<g id="a_node11"><a xlink:href="class_black_misc_1_1_mixin_1_1_json_operators.html" target="_top" xlink:title="CRTP class template which will generate marshalling operators for a derived class with its own marsha...">
<polygon fill="none" stroke="black" points="3,-294.5 3,-324.5 176,-324.5 176,-294.5 3,-294.5"/>
<text text-anchor="start" x="11" y="-312.5" font-family="Helvetica,sans-Serif" font-size="10.00">BlackMisc::Mixin::JsonOperators</text>
<text text-anchor="middle" x="89.5" y="-301.5" font-family="Helvetica,sans-Serif" font-size="10.00">&lt; Derived &gt;</text>
</a>
</g>
</g>
<!-- Node11&#45;&gt;Node10 -->
<g id="edge10" class="edge">
<title>Node11&#45;&gt;Node10</title>
<path fill="none" stroke="midnightblue" d="M186.35,-309.5C200.41,-309.5 214.65,-309.5 227.99,-309.5"/>
<polygon fill="midnightblue" stroke="midnightblue" points="186.16,-306 176.16,-309.5 186.16,-313 186.16,-306"/>
</g>
<!-- Node12 -->
<g id="node12" class="node">
<title>Node12</title>
<g id="a_node12"><a xlink:href="class_black_misc_1_1_mixin_1_1_equals_by_meta_class.html" target="_top" xlink:title="CRTP class template from which a derived class can inherit operator== implemented by metaclass.">
<polygon fill="none" stroke="black" points="226.5,-245.5 226.5,-275.5 367.5,-275.5 367.5,-245.5 226.5,-245.5"/>
<text text-anchor="start" x="234.5" y="-263.5" font-family="Helvetica,sans-Serif" font-size="10.00">BlackMisc::Mixin::Equals</text>
<text text-anchor="middle" x="297" y="-252.5" font-family="Helvetica,sans-Serif" font-size="10.00">ByMetaClass&lt; Derived &gt;</text>
</a>
</g>
</g>
<!-- Node12&#45;&gt;Node2 -->
<g id="edge11" class="edge">
<title>Node12&#45;&gt;Node2</title>
<path fill="none" stroke="midnightblue" d="M377.9,-270.75C390.24,-272.34 402.9,-273.96 415,-275.52"/>
<polygon fill="midnightblue" stroke="midnightblue" points="378,-267.24 367.63,-269.44 377.1,-274.18 378,-267.24"/>
</g>
<!-- Node13 -->
<g id="node13" class="node">
<title>Node13</title>
<g id="a_node13"><a xlink:href="class_black_misc_1_1_mixin_1_1_less_than_by_meta_class.html" target="_top" xlink:title="CRTP class template from which a derived class can inherit operator&lt; implemented by metaclass.">
<polygon fill="none" stroke="black" points="221.5,-196.5 221.5,-226.5 372.5,-226.5 372.5,-196.5 221.5,-196.5"/>
<text text-anchor="start" x="229.5" y="-214.5" font-family="Helvetica,sans-Serif" font-size="10.00">BlackMisc::Mixin::LessThan</text>
<text text-anchor="middle" x="297" y="-203.5" font-family="Helvetica,sans-Serif" font-size="10.00">ByMetaClass&lt; Derived &gt;</text>
</a>
</g>
</g>
<!-- Node13&#45;&gt;Node2 -->
<g id="edge12" class="edge">
<title>Node13&#45;&gt;Node2</title>
<path fill="none" stroke="midnightblue" d="M362.36,-229.64C368.02,-231.51 373.64,-233.48 379,-235.5 405.37,-245.44 434.35,-259.03 455.34,-269.38"/>
<polygon fill="midnightblue" stroke="midnightblue" points="363.41,-226.3 352.82,-226.57 361.27,-232.96 363.41,-226.3"/>
</g>
<!-- Node14 -->
<g id="node14" class="node">
<title>Node14</title>
<g id="a_node14"><a xlink:href="class_black_misc_1_1_mixin_1_1_compare_by_meta_class.html" target="_top" xlink:title="CRTP class template from which a derived class can inherit non&#45;member compare() implemented by metacl...">
<polygon fill="none" stroke="black" points="222.5,-147.5 222.5,-177.5 371.5,-177.5 371.5,-147.5 222.5,-147.5"/>
<text text-anchor="start" x="230.5" y="-165.5" font-family="Helvetica,sans-Serif" font-size="10.00">BlackMisc::Mixin::Compare</text>
<text text-anchor="middle" x="297" y="-154.5" font-family="Helvetica,sans-Serif" font-size="10.00">ByMetaClass&lt; Derived &gt;</text>
</a>
</g>
</g>
<!-- Node14&#45;&gt;Node2 -->
<g id="edge13" class="edge">
<title>Node14&#45;&gt;Node2</title>
<path fill="none" stroke="midnightblue" d="M369.06,-181.44C372.48,-183 375.82,-184.69 379,-186.5 418,-208.68 454.28,-247.76 472.58,-269.26"/>
<polygon fill="midnightblue" stroke="midnightblue" points="370.41,-178.2 359.83,-177.56 367.69,-184.66 370.41,-178.2"/>
</g>
<!-- Node15 -->
<g id="node15" class="node">
<title>Node15</title>
<g id="a_node15"><a xlink:href="class_black_misc_1_1_mixin_1_1_string.html" target="_top" xlink:title="CRTP class template from which a derived class can inherit string streaming operations.">
<polygon fill="none" stroke="black" points="230,-98.5 230,-128.5 364,-128.5 364,-98.5 230,-98.5"/>
<text text-anchor="start" x="238" y="-116.5" font-family="Helvetica,sans-Serif" font-size="10.00">BlackMisc::Mixin::String</text>
<text text-anchor="middle" x="297" y="-105.5" font-family="Helvetica,sans-Serif" font-size="10.00">&lt; Derived &gt;</text>
</a>
</g>
</g>
<!-- Node15&#45;&gt;Node2 -->
<g id="edge14" class="edge">
<title>Node15&#45;&gt;Node2</title>
<path fill="none" stroke="midnightblue" d="M372.47,-133.31C374.72,-134.62 376.91,-136.01 379,-137.5 429.04,-173 464.35,-239.71 478.34,-269.49"/>
<polygon fill="midnightblue" stroke="midnightblue" points="373.96,-130.14 363.47,-128.68 370.75,-136.37 373.96,-130.14"/>
</g>
<!-- Node16 -->
<g id="node16" class="node">
<title>Node16</title>
<g id="a_node16"><a xlink:href="class_black_misc_1_1_mixin_1_1_index.html" target="_top" xlink:title="CRTP class template from which a derived class can inherit property indexing functions.">
<polygon fill="none" stroke="black" points="231,-49.5 231,-79.5 363,-79.5 363,-49.5 231,-49.5"/>
<text text-anchor="start" x="239" y="-67.5" font-family="Helvetica,sans-Serif" font-size="10.00">BlackMisc::Mixin::Index</text>
<text text-anchor="middle" x="297" y="-56.5" font-family="Helvetica,sans-Serif" font-size="10.00">&lt; Derived &gt;</text>
</a>
</g>
</g>
<!-- Node16&#45;&gt;Node2 -->
<g id="edge15" class="edge">
<title>Node16&#45;&gt;Node2</title>
<path fill="none" stroke="midnightblue" d="M372.4,-83.76C374.7,-85.22 376.91,-86.8 379,-88.5 440.14,-138.1 471.06,-232.69 481.17,-269.41"/>
<polygon fill="midnightblue" stroke="midnightblue" points="373.59,-80.42 363.15,-78.64 370.2,-86.54 373.59,-80.42"/>
</g>
<!-- Node17 -->
<g id="node17" class="node">
<title>Node17</title>
<g id="a_node17"><a xlink:href="class_black_misc_1_1_mixin_1_1_icon.html" target="_top" xlink:title="CRTP class template from which a derived class can inherit icon&#45;related functions.">
<polygon fill="none" stroke="black" points="231.5,-0.5 231.5,-30.5 362.5,-30.5 362.5,-0.5 231.5,-0.5"/>
<text text-anchor="start" x="239.5" y="-18.5" font-family="Helvetica,sans-Serif" font-size="10.00">BlackMisc::Mixin::Icon</text>
<text text-anchor="middle" x="297" y="-7.5" font-family="Helvetica,sans-Serif" font-size="10.00">&lt; Derived, IconIndex &gt;</text>
</a>
</g>
</g>
<!-- Node17&#45;&gt;Node2 -->
<g id="edge16" class="edge">
<title>Node17&#45;&gt;Node2</title>
<path fill="none" stroke="midnightblue" d="M371.51,-33.8C374.15,-35.53 376.66,-37.43 379,-39.5 451.48,-103.75 476.27,-226.39 482.92,-269.25"/>
<polygon fill="midnightblue" stroke="midnightblue" points="373.13,-30.7 362.71,-28.81 369.68,-36.79 373.13,-30.7"/>
</g>
</g>
</svg>
