<?xml version="1.0" encoding="UTF-8" standalone="no"?>
<!DOCTYPE svg PUBLIC "-//W3C//DTD SVG 1.1//EN"
 "http://www.w3.org/Graphics/SVG/1.1/DTD/svg11.dtd">
<!-- Generated by graphviz version 2.43.0 (0)
 -->
<!-- Title: BlackMisc::Network::CClientAware Pages: 1 -->
<svg width="1219pt" height="211pt"
 viewBox="0.00 0.00 1219.00 211.00" xmlns="http://www.w3.org/2000/svg" xmlns:xlink="http://www.w3.org/1999/xlink">
<g id="graph0" class="graph" transform="scale(1 1) rotate(0) translate(4 207)">
<title>BlackMisc::Network::CClientAware</title>
<!-- Node1 -->
<g id="node1" class="node">
<title>Node1</title>
<g id="a_node1"><a xlink:title="Class which can be directly used to access an.">
<polygon fill="#bfbfbf" stroke="black" points="182,-117.5 182,-147.5 295,-147.5 295,-117.5 182,-117.5"/>
<text text-anchor="start" x="190" y="-135.5" font-family="Helvetica,sans-Serif" font-size="10.00">BlackMisc::Network</text>
<text text-anchor="middle" x="238.5" y="-124.5" font-family="Helvetica,sans-Serif" font-size="10.00">::CClientAware</text>
</a>
</g>
</g>
<!-- Node3 -->
<g id="node3" class="node">
<title>Node3</title>
<g id="a_node3"><a xlink:href="class_black_core_1_1_fsd_1_1_c_f_s_d_client.html" target="_top" xlink:title="FSD client Todo: Send (interim) data updates automatically Todo Check &#39;:&#39; in FSD messages....">
<polygon fill="none" stroke="black" points="331,-142 331,-161 480,-161 480,-142 331,-142"/>
<text text-anchor="middle" x="405.5" y="-149" font-family="Helvetica,sans-Serif" font-size="10.00">BlackCore::Fsd::CFSDClient</text>
</a>
</g>
</g>
<!-- Node1&#45;&gt;Node3 -->
<g id="edge2" class="edge">
<title>Node1&#45;&gt;Node3</title>
<path fill="none" stroke="midnightblue" d="M305.42,-140.09C313.78,-141.05 322.38,-142.04 330.85,-143.02"/>
<polygon fill="midnightblue" stroke="midnightblue" points="305.7,-136.6 295.36,-138.93 304.9,-143.55 305.7,-136.6"/>
</g>
<!-- Node4 -->
<g id="node4" class="node">
<title>Node4</title>
<g id="a_node4"><a xlink:href="class_black_core_1_1_i_simulator.html" target="_top" xlink:title="Interface to a simulator.">
<polygon fill="none" stroke="black" points="344.5,-104 344.5,-123 466.5,-123 466.5,-104 344.5,-104"/>
<text text-anchor="middle" x="405.5" y="-111" font-family="Helvetica,sans-Serif" font-size="10.00">BlackCore::ISimulator</text>
</a>
</g>
</g>
<!-- Node1&#45;&gt;Node4 -->
<g id="edge3" class="edge">
<title>Node1&#45;&gt;Node4</title>
<path fill="none" stroke="midnightblue" d="M305.53,-124.9C318.39,-123.42 331.8,-121.87 344.46,-120.41"/>
<polygon fill="midnightblue" stroke="midnightblue" points="304.9,-121.45 295.36,-126.07 305.7,-128.4 304.9,-121.45"/>
</g>
<!-- Node2 -->
<g id="node2" class="node">
<title>Node2</title>
<g id="a_node2"><a xlink:href="class_black_misc_1_1_i_provider_aware.html" target="_top" xlink:title=" ">
<polygon fill="none" stroke="black" points="0,-117.5 0,-147.5 146,-147.5 146,-117.5 0,-117.5"/>
<text text-anchor="start" x="8" y="-135.5" font-family="Helvetica,sans-Serif" font-size="10.00">BlackMisc::IProviderAware</text>
<text text-anchor="middle" x="73" y="-124.5" font-family="Helvetica,sans-Serif" font-size="10.00">&lt; IClientProvider &gt;</text>
</a>
</g>
</g>
<!-- Node2&#45;&gt;Node1 -->
<g id="edge1" class="edge">
<title>Node2&#45;&gt;Node1</title>
<path fill="none" stroke="midnightblue" d="M156.34,-132.5C165,-132.5 173.65,-132.5 181.9,-132.5"/>
<polygon fill="midnightblue" stroke="midnightblue" points="156.19,-129 146.19,-132.5 156.19,-136 156.19,-129"/>
</g>
<!-- Node5 -->
<g id="node5" class="node">
<title>Node5</title>
<g id="a_node5"><a xlink:href="class_black_sim_plugin_1_1_common_1_1_c_simulator_plugin_common.html" target="_top" xlink:title="Common base class for simulator plugins.">
<polygon fill="none" stroke="black" points="516,-98.5 516,-128.5 667,-128.5 667,-98.5 516,-98.5"/>
<text text-anchor="start" x="524" y="-116.5" font-family="Helvetica,sans-Serif" font-size="10.00">BlackSimPlugin::Common</text>
<text text-anchor="middle" x="591.5" y="-105.5" font-family="Helvetica,sans-Serif" font-size="10.00">::CSimulatorPluginCommon</text>
</a>
</g>
</g>
<!-- Node4&#45;&gt;Node5 -->
<g id="edge4" class="edge">
<title>Node4&#45;&gt;Node5</title>
<path fill="none" stroke="midnightblue" d="M476.86,-113.5C489.66,-113.5 503.05,-113.5 515.97,-113.5"/>
<polygon fill="midnightblue" stroke="midnightblue" points="476.75,-110 466.75,-113.5 476.75,-117 476.75,-110"/>
</g>
<!-- Node6 -->
<g id="node6" class="node">
<title>Node6</title>
<g id="a_node6"><a xlink:href="class_black_sim_plugin_1_1_emulated_1_1_c_simulator_emulated.html" target="_top" xlink:title="swift simulator implementation">
<polygon fill="none" stroke="black" points="707.5,-172.5 707.5,-202.5 852.5,-202.5 852.5,-172.5 707.5,-172.5"/>
<text text-anchor="start" x="715.5" y="-190.5" font-family="Helvetica,sans-Serif" font-size="10.00">BlackSimPlugin::Emulated</text>
<text text-anchor="middle" x="780" y="-179.5" font-family="Helvetica,sans-Serif" font-size="10.00">::CSimulatorEmulated</text>
</a>
</g>
</g>
<!-- Node5&#45;&gt;Node6 -->
<g id="edge5" class="edge">
<title>Node5&#45;&gt;Node6</title>
<path fill="none" stroke="midnightblue" d="M632.22,-132.86C653.04,-142.65 679.12,-154.37 703,-163.5 711.14,-166.61 719.88,-169.65 728.43,-172.46"/>
<polygon fill="midnightblue" stroke="midnightblue" points="633.58,-129.63 623.04,-128.51 630.58,-135.95 633.58,-129.63"/>
</g>
<!-- Node7 -->
<g id="node7" class="node">
<title>Node7</title>
<g id="a_node7"><a xlink:href="class_black_sim_plugin_1_1_flightgear_1_1_c_simulator_flightgear.html" target="_top" xlink:title="Flightgear ISimulator implementation.">
<polygon fill="none" stroke="black" points="706,-123.5 706,-153.5 854,-153.5 854,-123.5 706,-123.5"/>
<text text-anchor="start" x="714" y="-141.5" font-family="Helvetica,sans-Serif" font-size="10.00">BlackSimPlugin::Flightgear</text>
<text text-anchor="middle" x="780" y="-130.5" font-family="Helvetica,sans-Serif" font-size="10.00">::CSimulatorFlightgear</text>
</a>
</g>
</g>
<!-- Node5&#45;&gt;Node7 -->
<g id="edge6" class="edge">
<title>Node5&#45;&gt;Node7</title>
<path fill="none" stroke="midnightblue" d="M676.98,-124.82C686.61,-126.11 696.36,-127.42 705.82,-128.69"/>
<polygon fill="midnightblue" stroke="midnightblue" points="677.39,-121.35 667.01,-123.49 676.46,-128.29 677.39,-121.35"/>
</g>
<!-- Node8 -->
<g id="node8" class="node">
<title>Node8</title>
<g id="a_node8"><a xlink:href="class_black_sim_plugin_1_1_fs_common_1_1_c_simulator_fs_common.html" target="_top" xlink:title="Common base class for MS flight simulators.">
<polygon fill="none" stroke="black" points="703,-74.5 703,-104.5 857,-104.5 857,-74.5 703,-74.5"/>
<text text-anchor="start" x="711" y="-92.5" font-family="Helvetica,sans-Serif" font-size="10.00">BlackSimPlugin::FsCommon</text>
<text text-anchor="middle" x="780" y="-81.5" font-family="Helvetica,sans-Serif" font-size="10.00">::CSimulatorFsCommon</text>
</a>
</g>
</g>
<!-- Node5&#45;&gt;Node8 -->
<g id="edge7" class="edge">
<title>Node5&#45;&gt;Node8</title>
<path fill="none" stroke="midnightblue" d="M677.03,-102.62C685.61,-101.52 694.29,-100.4 702.78,-99.31"/>
<polygon fill="midnightblue" stroke="midnightblue" points="676.49,-99.16 667.01,-103.91 677.38,-106.11 676.49,-99.16"/>
</g>
<!-- Node14 -->
<g id="node14" class="node">
<title>Node14</title>
<g id="a_node14"><a xlink:href="class_black_sim_plugin_1_1_x_plane_1_1_c_simulator_x_plane.html" target="_top" xlink:title="X&#45;Plane ISimulator implementation.">
<polygon fill="none" stroke="black" points="714,-25.5 714,-55.5 846,-55.5 846,-25.5 714,-25.5"/>
<text text-anchor="start" x="722" y="-43.5" font-family="Helvetica,sans-Serif" font-size="10.00">BlackSimPlugin::XPlane</text>
<text text-anchor="middle" x="780" y="-32.5" font-family="Helvetica,sans-Serif" font-size="10.00">::CSimulatorXPlane</text>
</a>
</g>
</g>
<!-- Node5&#45;&gt;Node14 -->
<g id="edge13" class="edge">
<title>Node5&#45;&gt;Node14</title>
<path fill="none" stroke="midnightblue" d="M633.15,-94.17C653.83,-84.67 679.51,-73.39 703,-64.5 711.15,-61.42 719.9,-58.4 728.45,-55.6"/>
<polygon fill="midnightblue" stroke="midnightblue" points="631.63,-91.02 624.02,-98.4 634.57,-97.37 631.63,-91.02"/>
</g>
<!-- Node9 -->
<g id="node9" class="node">
<title>Node9</title>
<g id="a_node9"><a xlink:href="class_black_sim_plugin_1_1_fs9_1_1_c_simulator_fs9.html" target="_top" xlink:title="FS9 Simulator Implementation.">
<polygon fill="none" stroke="black" points="915,-98.5 915,-128.5 1031,-128.5 1031,-98.5 915,-98.5"/>
<text text-anchor="start" x="923" y="-116.5" font-family="Helvetica,sans-Serif" font-size="10.00">BlackSimPlugin::Fs9</text>
<text text-anchor="middle" x="973" y="-105.5" font-family="Helvetica,sans-Serif" font-size="10.00">::CSimulatorFs9</text>
</a>
</g>
</g>
<!-- Node8&#45;&gt;Node9 -->
<g id="edge8" class="edge">
<title>Node8&#45;&gt;Node9</title>
<path fill="none" stroke="midnightblue" d="M867.04,-100.31C883.21,-102.34 899.75,-104.42 914.77,-106.31"/>
<polygon fill="midnightblue" stroke="midnightblue" points="867.4,-96.83 857.04,-99.05 866.52,-103.77 867.4,-96.83"/>
</g>
<!-- Node10 -->
<g id="node10" class="node">
<title>Node10</title>
<g id="a_node10"><a xlink:href="class_black_sim_plugin_1_1_fsx_common_1_1_c_simulator_fsx_common.html" target="_top" xlink:title="FSX Simulator Implementation.">
<polygon fill="none" stroke="black" points="893,-49.5 893,-79.5 1053,-79.5 1053,-49.5 893,-49.5"/>
<text text-anchor="start" x="901" y="-67.5" font-family="Helvetica,sans-Serif" font-size="10.00">BlackSimPlugin::FsxCommon</text>
<text text-anchor="middle" x="973" y="-56.5" font-family="Helvetica,sans-Serif" font-size="10.00">::CSimulatorFsxCommon</text>
</a>
</g>
</g>
<!-- Node8&#45;&gt;Node10 -->
<g id="edge9" class="edge">
<title>Node8&#45;&gt;Node10</title>
<path fill="none" stroke="midnightblue" d="M867.04,-78.24C875.61,-77.12 884.28,-75.98 892.78,-74.87"/>
<polygon fill="midnightblue" stroke="midnightblue" points="866.5,-74.78 857.04,-79.55 867.41,-81.72 866.5,-74.78"/>
</g>
<!-- Node11 -->
<g id="node11" class="node">
<title>Node11</title>
<g id="a_node11"><a xlink:href="class_black_sim_plugin_1_1_fsx_1_1_c_simulator_fsx.html" target="_top" xlink:title="FSX simulator implementation.">
<polygon fill="none" stroke="black" points="1092,-98.5 1092,-128.5 1208,-128.5 1208,-98.5 1092,-98.5"/>
<text text-anchor="start" x="1100" y="-116.5" font-family="Helvetica,sans-Serif" font-size="10.00">BlackSimPlugin::Fsx</text>
<text text-anchor="middle" x="1150" y="-105.5" font-family="Helvetica,sans-Serif" font-size="10.00">::CSimulatorFsx</text>
</a>
</g>
</g>
<!-- Node10&#45;&gt;Node11 -->
<g id="edge10" class="edge">
<title>Node10&#45;&gt;Node11</title>
<path fill="none" stroke="midnightblue" d="M1037.65,-82.32C1056.54,-87.61 1077.04,-93.35 1095.24,-98.45"/>
<polygon fill="midnightblue" stroke="midnightblue" points="1038.51,-78.93 1027.93,-79.6 1036.62,-85.67 1038.51,-78.93"/>
</g>
<!-- Node12 -->
<g id="node12" class="node">
<title>Node12</title>
<g id="a_node12"><a xlink:href="class_black_sim_plugin_1_1_msfs_1_1_c_simulator_ms_fs.html" target="_top" xlink:title="FSX simulator implementation.">
<polygon fill="none" stroke="black" points="1089,-49.5 1089,-79.5 1211,-79.5 1211,-49.5 1089,-49.5"/>
<text text-anchor="start" x="1097" y="-67.5" font-family="Helvetica,sans-Serif" font-size="10.00">BlackSimPlugin::Msfs</text>
<text text-anchor="middle" x="1150" y="-56.5" font-family="Helvetica,sans-Serif" font-size="10.00">::CSimulatorMsFs</text>
</a>
</g>
</g>
<!-- Node10&#45;&gt;Node12 -->
<g id="edge11" class="edge">
<title>Node10&#45;&gt;Node12</title>
<path fill="none" stroke="midnightblue" d="M1063.25,-64.5C1071.94,-64.5 1080.61,-64.5 1088.92,-64.5"/>
<polygon fill="midnightblue" stroke="midnightblue" points="1063.05,-61 1053.05,-64.5 1063.05,-68 1063.05,-61"/>
</g>
<!-- Node13 -->
<g id="node13" class="node">
<title>Node13</title>
<g id="a_node13"><a xlink:href="class_black_sim_plugin_1_1_p3_d_1_1_c_simulator_p3_d.html" target="_top" xlink:title="P3D Simulator Implementation.">
<polygon fill="none" stroke="black" points="1091,-0.5 1091,-30.5 1209,-30.5 1209,-0.5 1091,-0.5"/>
<text text-anchor="start" x="1099" y="-18.5" font-family="Helvetica,sans-Serif" font-size="10.00">BlackSimPlugin::P3D</text>
<text text-anchor="middle" x="1150" y="-7.5" font-family="Helvetica,sans-Serif" font-size="10.00">::CSimulatorP3D</text>
</a>
</g>
</g>
<!-- Node10&#45;&gt;Node13 -->
<g id="edge12" class="edge">
<title>Node10&#45;&gt;Node13</title>
<path fill="none" stroke="midnightblue" d="M1037.65,-46.68C1056.54,-41.39 1077.04,-35.65 1095.24,-30.55"/>
<polygon fill="midnightblue" stroke="midnightblue" points="1036.62,-43.33 1027.93,-49.4 1038.51,-50.07 1036.62,-43.33"/>
</g>
</g>
</svg>
