<?xml version="1.0" encoding="UTF-8" standalone="no"?>
<!DOCTYPE svg PUBLIC "-//W3C//DTD SVG 1.1//EN"
 "http://www.w3.org/Graphics/SVG/1.1/DTD/svg11.dtd">
<!-- Generated by graphviz version 2.43.0 (0)
 -->
<!-- Title: BlackMisc::CPropertyIndex Pages: 1 -->
<svg width="584pt" height="431pt"
 viewBox="0.00 0.00 584.00 431.00" xmlns="http://www.w3.org/2000/svg" xmlns:xlink="http://www.w3.org/1999/xlink">
<g id="graph0" class="graph" transform="scale(1 1) rotate(0) translate(4 427)">
<title>BlackMisc::CPropertyIndex</title>
<!-- Node1 -->
<g id="node1" class="node">
<title>Node1</title>
<g id="a_node1"><a xlink:title="Property index.">
<polygon fill="#bfbfbf" stroke="black" points="429,-202 429,-221 576,-221 576,-202 429,-202"/>
<text text-anchor="middle" x="502.5" y="-209" font-family="Helvetica,sans-Serif" font-size="10.00">BlackMisc::CPropertyIndex</text>
</a>
</g>
</g>
<!-- Node2 -->
<g id="node2" class="node">
<title>Node2</title>
<g id="a_node2"><a xlink:href="class_black_misc_1_1_mixin_1_1_meta_type.html" target="_top" xlink:title=" ">
<polygon fill="none" stroke="black" points="228,-392.5 228,-422.5 380,-422.5 380,-392.5 228,-392.5"/>
<text text-anchor="start" x="236" y="-410.5" font-family="Helvetica,sans-Serif" font-size="10.00">BlackMisc::Mixin::MetaType</text>
<text text-anchor="middle" x="304" y="-399.5" font-family="Helvetica,sans-Serif" font-size="10.00">&lt; CPropertyIndex &gt;</text>
</a>
</g>
</g>
<!-- Node2&#45;&gt;Node1 -->
<g id="edge1" class="edge">
<title>Node2&#45;&gt;Node1</title>
<path fill="none" stroke="midnightblue" d="M387.21,-387.4C389.2,-386.18 391.14,-384.88 393,-383.5 453.16,-338.97 488.09,-250.24 498.32,-221.05"/>
<polygon fill="midnightblue" stroke="midnightblue" points="385.26,-384.48 378.12,-392.3 388.58,-390.64 385.26,-384.48"/>
</g>
<!-- Node3 -->
<g id="node3" class="node">
<title>Node3</title>
<g id="a_node3"><a xlink:href="class_black_misc_1_1_mixin_1_1_hash_by_meta_class.html" target="_top" xlink:title=" ">
<polygon fill="none" stroke="black" points="221.5,-343.5 221.5,-373.5 386.5,-373.5 386.5,-343.5 221.5,-343.5"/>
<text text-anchor="start" x="229.5" y="-361.5" font-family="Helvetica,sans-Serif" font-size="10.00">BlackMisc::Mixin::HashBy</text>
<text text-anchor="middle" x="304" y="-350.5" font-family="Helvetica,sans-Serif" font-size="10.00">MetaClass&lt; CPropertyIndex &gt;</text>
</a>
</g>
</g>
<!-- Node3&#45;&gt;Node1 -->
<g id="edge2" class="edge">
<title>Node3&#45;&gt;Node1</title>
<path fill="none" stroke="midnightblue" d="M384.68,-339.16C387.55,-337.71 390.33,-336.16 393,-334.5 442.06,-303.94 481.54,-244.5 495.78,-221.2"/>
<polygon fill="midnightblue" stroke="midnightblue" points="382.95,-336.1 375.29,-343.41 385.84,-342.47 382.95,-336.1"/>
</g>
<!-- Node4 -->
<g id="node4" class="node">
<title>Node4</title>
<g id="a_node4"><a xlink:href="class_black_misc_1_1_mixin_1_1_d_bus_by_meta_class.html" target="_top" xlink:title=" ">
<polygon fill="none" stroke="black" points="221.5,-294.5 221.5,-324.5 386.5,-324.5 386.5,-294.5 221.5,-294.5"/>
<text text-anchor="start" x="229.5" y="-312.5" font-family="Helvetica,sans-Serif" font-size="10.00">BlackMisc::Mixin::DBusBy</text>
<text text-anchor="middle" x="304" y="-301.5" font-family="Helvetica,sans-Serif" font-size="10.00">MetaClass&lt; CPropertyIndex &gt;</text>
</a>
</g>
</g>
<!-- Node4&#45;&gt;Node1 -->
<g id="edge3" class="edge">
<title>Node4&#45;&gt;Node1</title>
<path fill="none" stroke="midnightblue" d="M379.44,-291.11C384.09,-289.38 388.65,-287.51 393,-285.5 431.51,-267.73 471.33,-236.72 490.24,-221.09"/>
<polygon fill="midnightblue" stroke="midnightblue" points="378.09,-287.88 369.81,-294.49 380.4,-294.49 378.09,-287.88"/>
</g>
<!-- Node5 -->
<g id="node5" class="node">
<title>Node5</title>
<g id="a_node5"><a xlink:href="class_black_misc_1_1_mixin_1_1_d_bus_operators.html" target="_top" xlink:title="CRTP class template which will generate marshalling operators for a derived class with its own marsha...">
<polygon fill="none" stroke="black" points="0,-294.5 0,-324.5 179,-324.5 179,-294.5 0,-294.5"/>
<text text-anchor="start" x="8" y="-312.5" font-family="Helvetica,sans-Serif" font-size="10.00">BlackMisc::Mixin::DBusOperators</text>
<text text-anchor="middle" x="89.5" y="-301.5" font-family="Helvetica,sans-Serif" font-size="10.00">&lt; Derived,... &gt;</text>
</a>
</g>
</g>
<!-- Node5&#45;&gt;Node4 -->
<g id="edge4" class="edge">
<title>Node5&#45;&gt;Node4</title>
<path fill="none" stroke="midnightblue" d="M189.32,-309.5C200.04,-309.5 210.87,-309.5 221.36,-309.5"/>
<polygon fill="midnightblue" stroke="midnightblue" points="189.08,-306 179.08,-309.5 189.08,-313 189.08,-306"/>
</g>
<!-- Node6 -->
<g id="node6" class="node">
<title>Node6</title>
<g id="a_node6"><a xlink:href="class_black_misc_1_1_mixin_1_1_data_stream_by_meta_class.html" target="_top" xlink:title=" ">
<polygon fill="none" stroke="black" points="215,-245.5 215,-275.5 393,-275.5 393,-245.5 215,-245.5"/>
<text text-anchor="start" x="223" y="-263.5" font-family="Helvetica,sans-Serif" font-size="10.00">BlackMisc::Mixin::DataStream</text>
<text text-anchor="middle" x="304" y="-252.5" font-family="Helvetica,sans-Serif" font-size="10.00">ByMetaClass&lt; CPropertyIndex &gt;</text>
</a>
</g>
</g>
<!-- Node6&#45;&gt;Node1 -->
<g id="edge5" class="edge">
<title>Node6&#45;&gt;Node1</title>
<path fill="none" stroke="midnightblue" d="M375.2,-243C404.88,-235.59 438.29,-227.26 463.29,-221.03"/>
<polygon fill="midnightblue" stroke="midnightblue" points="374.15,-239.65 365.29,-245.47 375.84,-246.44 374.15,-239.65"/>
</g>
<!-- Node7 -->
<g id="node7" class="node">
<title>Node7</title>
<g id="a_node7"><a xlink:href="class_black_misc_1_1_mixin_1_1_data_stream_operators.html" target="_top" xlink:title="CRTP class template to generate non&#45;member QDataStream streaming operators.">
<polygon fill="none" stroke="black" points="7.5,-245.5 7.5,-275.5 171.5,-275.5 171.5,-245.5 7.5,-245.5"/>
<text text-anchor="start" x="15.5" y="-263.5" font-family="Helvetica,sans-Serif" font-size="10.00">BlackMisc::Mixin::DataStream</text>
<text text-anchor="middle" x="89.5" y="-252.5" font-family="Helvetica,sans-Serif" font-size="10.00">Operators&lt; Derived &gt;</text>
</a>
</g>
</g>
<!-- Node7&#45;&gt;Node6 -->
<g id="edge6" class="edge">
<title>Node7&#45;&gt;Node6</title>
<path fill="none" stroke="midnightblue" d="M182.06,-260.5C192.89,-260.5 203.93,-260.5 214.72,-260.5"/>
<polygon fill="midnightblue" stroke="midnightblue" points="181.75,-257 171.75,-260.5 181.75,-264 181.75,-257"/>
</g>
<!-- Node8 -->
<g id="node8" class="node">
<title>Node8</title>
<g id="a_node8"><a xlink:href="class_black_misc_1_1_mixin_1_1_json_operators.html" target="_top" xlink:title=" ">
<polygon fill="none" stroke="black" points="217.5,-196.5 217.5,-226.5 390.5,-226.5 390.5,-196.5 217.5,-196.5"/>
<text text-anchor="start" x="225.5" y="-214.5" font-family="Helvetica,sans-Serif" font-size="10.00">BlackMisc::Mixin::JsonOperators</text>
<text text-anchor="middle" x="304" y="-203.5" font-family="Helvetica,sans-Serif" font-size="10.00">&lt; CPropertyIndex &gt;</text>
</a>
</g>
</g>
<!-- Node8&#45;&gt;Node1 -->
<g id="edge7" class="edge">
<title>Node8&#45;&gt;Node1</title>
<path fill="none" stroke="midnightblue" d="M400.8,-211.5C410.21,-211.5 419.65,-211.5 428.77,-211.5"/>
<polygon fill="midnightblue" stroke="midnightblue" points="400.62,-208 390.62,-211.5 400.62,-215 400.62,-208"/>
</g>
<!-- Node9 -->
<g id="node9" class="node">
<title>Node9</title>
<g id="a_node9"><a xlink:href="class_black_misc_1_1_mixin_1_1_equals_by_meta_class.html" target="_top" xlink:title=" ">
<polygon fill="none" stroke="black" points="215,-147.5 215,-177.5 393,-177.5 393,-147.5 215,-147.5"/>
<text text-anchor="start" x="223" y="-165.5" font-family="Helvetica,sans-Serif" font-size="10.00">BlackMisc::Mixin::Equals</text>
<text text-anchor="middle" x="304" y="-154.5" font-family="Helvetica,sans-Serif" font-size="10.00">ByMetaClass&lt; CPropertyIndex &gt;</text>
</a>
</g>
</g>
<!-- Node9&#45;&gt;Node1 -->
<g id="edge8" class="edge">
<title>Node9&#45;&gt;Node1</title>
<path fill="none" stroke="midnightblue" d="M375.2,-180C404.88,-187.41 438.29,-195.74 463.29,-201.97"/>
<polygon fill="midnightblue" stroke="midnightblue" points="375.84,-176.56 365.29,-177.53 374.15,-183.35 375.84,-176.56"/>
</g>
<!-- Node10 -->
<g id="node10" class="node">
<title>Node10</title>
<g id="a_node10"><a xlink:href="class_black_misc_1_1_mixin_1_1_less_than_by_meta_class.html" target="_top" xlink:title=" ">
<polygon fill="none" stroke="black" points="215,-98.5 215,-128.5 393,-128.5 393,-98.5 215,-98.5"/>
<text text-anchor="start" x="223" y="-116.5" font-family="Helvetica,sans-Serif" font-size="10.00">BlackMisc::Mixin::LessThan</text>
<text text-anchor="middle" x="304" y="-105.5" font-family="Helvetica,sans-Serif" font-size="10.00">ByMetaClass&lt; CPropertyIndex &gt;</text>
</a>
</g>
</g>
<!-- Node10&#45;&gt;Node1 -->
<g id="edge9" class="edge">
<title>Node10&#45;&gt;Node1</title>
<path fill="none" stroke="midnightblue" d="M379.44,-131.89C384.09,-133.62 388.65,-135.49 393,-137.5 431.51,-155.27 471.33,-186.28 490.24,-201.91"/>
<polygon fill="midnightblue" stroke="midnightblue" points="380.4,-128.51 369.81,-128.51 378.09,-135.12 380.4,-128.51"/>
</g>
<!-- Node11 -->
<g id="node11" class="node">
<title>Node11</title>
<g id="a_node11"><a xlink:href="class_black_misc_1_1_mixin_1_1_compare_by_meta_class.html" target="_top" xlink:title=" ">
<polygon fill="none" stroke="black" points="215,-49.5 215,-79.5 393,-79.5 393,-49.5 215,-49.5"/>
<text text-anchor="start" x="223" y="-67.5" font-family="Helvetica,sans-Serif" font-size="10.00">BlackMisc::Mixin::Compare</text>
<text text-anchor="middle" x="304" y="-56.5" font-family="Helvetica,sans-Serif" font-size="10.00">ByMetaClass&lt; CPropertyIndex &gt;</text>
</a>
</g>
</g>
<!-- Node11&#45;&gt;Node1 -->
<g id="edge10" class="edge">
<title>Node11&#45;&gt;Node1</title>
<path fill="none" stroke="midnightblue" d="M384.68,-83.84C387.55,-85.29 390.33,-86.84 393,-88.5 442.06,-119.06 481.54,-178.5 495.78,-201.8"/>
<polygon fill="midnightblue" stroke="midnightblue" points="385.84,-80.53 375.29,-79.59 382.95,-86.9 385.84,-80.53"/>
</g>
<!-- Node12 -->
<g id="node12" class="node">
<title>Node12</title>
<g id="a_node12"><a xlink:href="class_black_misc_1_1_mixin_1_1_string.html" target="_top" xlink:title=" ">
<polygon fill="none" stroke="black" points="237,-0.5 237,-30.5 371,-30.5 371,-0.5 237,-0.5"/>
<text text-anchor="start" x="245" y="-18.5" font-family="Helvetica,sans-Serif" font-size="10.00">BlackMisc::Mixin::String</text>
<text text-anchor="middle" x="304" y="-7.5" font-family="Helvetica,sans-Serif" font-size="10.00">&lt; CPropertyIndex &gt;</text>
</a>
</g>
</g>
<!-- Node12&#45;&gt;Node1 -->
<g id="edge11" class="edge">
<title>Node12&#45;&gt;Node1</title>
<path fill="none" stroke="midnightblue" d="M380.61,-31.92C384.97,-34.13 389.15,-36.65 393,-39.5 453.16,-84.03 488.09,-172.76 498.32,-201.95"/>
<polygon fill="midnightblue" stroke="midnightblue" points="381.98,-28.7 371.43,-27.78 379.1,-35.08 381.98,-28.7"/>
</g>
</g>
</svg>
