<?xml version="1.0" encoding="UTF-8" standalone="no"?>
<!DOCTYPE svg PUBLIC "-//W3C//DTD SVG 1.1//EN"
 "http://www.w3.org/Graphics/SVG/1.1/DTD/svg11.dtd">
<!-- Generated by graphviz version 2.43.0 (0)
 -->
<!-- Title: BlackGui::Views::CViewBase&lt; T &gt; Pages: 1 -->
<svg width="2175pt" height="761pt"
 viewBox="0.00 0.00 2175.00 760.50" xmlns="http://www.w3.org/2000/svg" xmlns:xlink="http://www.w3.org/1999/xlink">
<g id="graph0" class="graph" transform="scale(1 1) rotate(0) translate(4 756.5)">
<title>BlackGui::Views::CViewBase&lt; T &gt;</title>
<!-- Node1 -->
<g id="node1" class="node">
<title>Node1</title>
<g id="a_node1"><a xlink:title="Base class for views.">
<polygon fill="#bfbfbf" stroke="black" points="1295,-362 1295,-381 1480,-381 1480,-362 1295,-362"/>
<text text-anchor="middle" x="1387.5" y="-369" font-family="Helvetica,sans-Serif" font-size="10.00">BlackGui::Views::CViewBase&lt; T &gt;</text>
</a>
</g>
</g>
<!-- Node14 -->
<g id="node14" class="node">
<title>Node14</title>
<g id="a_node14"><a xlink:href="class_black_gui_1_1_views_1_1_c_view_with_callsign_objects.html" target="_top" xlink:title=" ">
<polygon fill="none" stroke="black" points="1533.5,-711 1533.5,-752 1711.5,-752 1711.5,-711 1533.5,-711"/>
<text text-anchor="start" x="1541.5" y="-740" font-family="Helvetica,sans-Serif" font-size="10.00">BlackGui::Views::CViewWith</text>
<text text-anchor="start" x="1541.5" y="-729" font-family="Helvetica,sans-Serif" font-size="10.00">CallsignObjects&lt; Models</text>
<text text-anchor="middle" x="1622.5" y="-718" font-family="Helvetica,sans-Serif" font-size="10.00">::CInterpolationSetupListModel &gt;</text>
</a>
</g>
</g>
<!-- Node1&#45;&gt;Node14 -->
<g id="edge13" class="edge">
<title>Node1&#45;&gt;Node14</title>
<path fill="none" stroke="midnightblue" d="M1390.14,-391.19C1395.95,-448.15 1420.7,-614.56 1516,-701.5 1521.2,-706.25 1527.11,-710.25 1533.4,-713.62"/>
<polygon fill="midnightblue" stroke="midnightblue" points="1393.61,-390.67 1389.19,-381.04 1386.64,-391.32 1393.61,-390.67"/>
</g>
<!-- Node16 -->
<g id="node16" class="node">
<title>Node16</title>
<g id="a_node16"><a xlink:href="class_black_gui_1_1_views_1_1_c_view_with_callsign_objects.html" target="_top" xlink:title=" ">
<polygon fill="none" stroke="black" points="1536,-651 1536,-692 1709,-692 1709,-651 1536,-651"/>
<text text-anchor="start" x="1544" y="-680" font-family="Helvetica,sans-Serif" font-size="10.00">BlackGui::Views::CViewWith</text>
<text text-anchor="start" x="1544" y="-669" font-family="Helvetica,sans-Serif" font-size="10.00">CallsignObjects&lt; Models</text>
<text text-anchor="middle" x="1622.5" y="-658" font-family="Helvetica,sans-Serif" font-size="10.00">::CSimulatedAircraftListModel &gt;</text>
</a>
</g>
</g>
<!-- Node1&#45;&gt;Node16 -->
<g id="edge15" class="edge">
<title>Node1&#45;&gt;Node16</title>
<path fill="none" stroke="midnightblue" d="M1392.01,-391.17C1401.94,-440.94 1434.94,-572.76 1516,-641.5 1521.95,-646.55 1528.71,-650.75 1535.85,-654.25"/>
<polygon fill="midnightblue" stroke="midnightblue" points="1395.4,-390.28 1390.1,-381.11 1388.53,-391.58 1395.4,-390.28"/>
</g>
<!-- Node18 -->
<g id="node18" class="node">
<title>Node18</title>
<g id="a_node18"><a xlink:href="class_black_gui_1_1_views_1_1_c_view_with_callsign_objects.html" target="_top" xlink:title=" ">
<polygon fill="none" stroke="black" points="1533,-591 1533,-632 1712,-632 1712,-591 1533,-591"/>
<text text-anchor="start" x="1541" y="-620" font-family="Helvetica,sans-Serif" font-size="10.00">BlackGui::Views::CViewWith</text>
<text text-anchor="start" x="1541" y="-609" font-family="Helvetica,sans-Serif" font-size="10.00">CallsignObjects&lt; BlackGui</text>
<text text-anchor="middle" x="1622.5" y="-598" font-family="Helvetica,sans-Serif" font-size="10.00">::Models::CAtcStationListModel &gt;</text>
</a>
</g>
</g>
<!-- Node1&#45;&gt;Node18 -->
<g id="edge17" class="edge">
<title>Node1&#45;&gt;Node18</title>
<path fill="none" stroke="midnightblue" d="M1394.76,-390.9C1409.18,-432.41 1448.73,-530.25 1516,-581.5 1521.23,-585.48 1526.96,-588.93 1532.97,-591.93"/>
<polygon fill="midnightblue" stroke="midnightblue" points="1398,-389.55 1391.5,-381.19 1391.37,-391.78 1398,-389.55"/>
</g>
<!-- Node20 -->
<g id="node20" class="node">
<title>Node20</title>
<g id="a_node20"><a xlink:href="class_black_gui_1_1_views_1_1_c_view_with_db_objects.html" target="_top" xlink:title=" ">
<polygon fill="none" stroke="black" points="1533.5,-531 1533.5,-572 1711.5,-572 1711.5,-531 1533.5,-531"/>
<text text-anchor="start" x="1541.5" y="-560" font-family="Helvetica,sans-Serif" font-size="10.00">BlackGui::Views::CViewWith</text>
<text text-anchor="start" x="1541.5" y="-549" font-family="Helvetica,sans-Serif" font-size="10.00">DbObjects&lt; Models::CAirlineIcao</text>
<text text-anchor="middle" x="1622.5" y="-538" font-family="Helvetica,sans-Serif" font-size="10.00">CodeListModel &gt;</text>
</a>
</g>
</g>
<!-- Node1&#45;&gt;Node20 -->
<g id="edge19" class="edge">
<title>Node1&#45;&gt;Node20</title>
<path fill="none" stroke="midnightblue" d="M1399.12,-390.02C1418.3,-421.79 1461.82,-486.64 1516,-521.5 1521.52,-525.05 1527.48,-528.2 1533.64,-530.97"/>
<polygon fill="midnightblue" stroke="midnightblue" points="1402.06,-388.12 1393.96,-381.29 1396.03,-391.68 1402.06,-388.12"/>
</g>
<!-- Node22 -->
<g id="node22" class="node">
<title>Node22</title>
<g id="a_node22"><a xlink:href="class_black_gui_1_1_views_1_1_c_view_with_db_objects.html" target="_top" xlink:title=" ">
<polygon fill="none" stroke="black" points="1519.5,-471 1519.5,-512 1725.5,-512 1725.5,-471 1519.5,-471"/>
<text text-anchor="start" x="1527.5" y="-500" font-family="Helvetica,sans-Serif" font-size="10.00">BlackGui::Views::CViewWith</text>
<text text-anchor="start" x="1527.5" y="-489" font-family="Helvetica,sans-Serif" font-size="10.00">DbObjects&lt; Models::CAircraftCategory</text>
<text text-anchor="middle" x="1622.5" y="-478" font-family="Helvetica,sans-Serif" font-size="10.00">ListModel &gt;</text>
</a>
</g>
</g>
<!-- Node1&#45;&gt;Node22 -->
<g id="edge21" class="edge">
<title>Node1&#45;&gt;Node22</title>
<path fill="none" stroke="midnightblue" d="M1407.14,-387.76C1430.91,-407.73 1473.98,-441.42 1516,-461.5 1523.3,-464.99 1531.09,-468.15 1538.99,-470.99"/>
<polygon fill="midnightblue" stroke="midnightblue" points="1409.17,-384.89 1399.29,-381.07 1404.63,-390.22 1409.17,-384.89"/>
</g>
<!-- Node24 -->
<g id="node24" class="node">
<title>Node24</title>
<g id="a_node24"><a xlink:href="class_black_gui_1_1_views_1_1_c_view_with_db_objects.html" target="_top" xlink:title=" ">
<polygon fill="none" stroke="black" points="1531.5,-411 1531.5,-452 1713.5,-452 1713.5,-411 1531.5,-411"/>
<text text-anchor="start" x="1539.5" y="-440" font-family="Helvetica,sans-Serif" font-size="10.00">BlackGui::Views::CViewWith</text>
<text text-anchor="start" x="1539.5" y="-429" font-family="Helvetica,sans-Serif" font-size="10.00">DbObjects&lt; Models::CAircraftIcao</text>
<text text-anchor="middle" x="1622.5" y="-418" font-family="Helvetica,sans-Serif" font-size="10.00">CodeListModel &gt;</text>
</a>
</g>
</g>
<!-- Node1&#45;&gt;Node24 -->
<g id="edge23" class="edge">
<title>Node1&#45;&gt;Node24</title>
<path fill="none" stroke="midnightblue" d="M1435.35,-383.56C1465.83,-391.41 1506.36,-401.85 1541.82,-410.98"/>
<polygon fill="midnightblue" stroke="midnightblue" points="1435.98,-380.11 1425.42,-381.01 1434.23,-386.89 1435.98,-380.11"/>
</g>
<!-- Node26 -->
<g id="node26" class="node">
<title>Node26</title>
<g id="a_node26"><a xlink:href="class_black_gui_1_1_views_1_1_c_view_with_db_objects.html" target="_top" xlink:title=" ">
<polygon fill="none" stroke="black" points="1536,-351 1536,-392 1709,-392 1709,-351 1536,-351"/>
<text text-anchor="start" x="1544" y="-380" font-family="Helvetica,sans-Serif" font-size="10.00">BlackGui::Views::CViewWith</text>
<text text-anchor="start" x="1544" y="-369" font-family="Helvetica,sans-Serif" font-size="10.00">DbObjects&lt; Models::CLiveryList</text>
<text text-anchor="middle" x="1622.5" y="-358" font-family="Helvetica,sans-Serif" font-size="10.00">Model &gt;</text>
</a>
</g>
</g>
<!-- Node1&#45;&gt;Node26 -->
<g id="edge25" class="edge">
<title>Node1&#45;&gt;Node26</title>
<path fill="none" stroke="midnightblue" d="M1490.65,-371.5C1505.75,-371.5 1521.18,-371.5 1535.91,-371.5"/>
<polygon fill="midnightblue" stroke="midnightblue" points="1490.25,-368 1480.25,-371.5 1490.25,-375 1490.25,-368"/>
</g>
<!-- Node28 -->
<g id="node28" class="node">
<title>Node28</title>
<g id="a_node28"><a xlink:href="class_black_gui_1_1_views_1_1_c_view_with_timestamp_with_offset_objects.html" target="_top" xlink:title=" ">
<polygon fill="none" stroke="black" points="1525.5,-291 1525.5,-332 1719.5,-332 1719.5,-291 1525.5,-291"/>
<text text-anchor="start" x="1533.5" y="-320" font-family="Helvetica,sans-Serif" font-size="10.00">BlackGui::Views::CViewWith</text>
<text text-anchor="start" x="1533.5" y="-309" font-family="Helvetica,sans-Serif" font-size="10.00">TimestampWithOffsetObjects</text>
<text text-anchor="middle" x="1622.5" y="-298" font-family="Helvetica,sans-Serif" font-size="10.00">&lt; Models::CAircraftPartsListModel &gt;</text>
</a>
</g>
</g>
<!-- Node1&#45;&gt;Node28 -->
<g id="edge27" class="edge">
<title>Node1&#45;&gt;Node28</title>
<path fill="none" stroke="midnightblue" d="M1435.35,-359.44C1465.83,-351.59 1506.36,-341.15 1541.82,-332.02"/>
<polygon fill="midnightblue" stroke="midnightblue" points="1434.23,-356.11 1425.42,-361.99 1435.98,-362.89 1434.23,-356.11"/>
</g>
<!-- Node30 -->
<g id="node30" class="node">
<title>Node30</title>
<g id="a_node30"><a xlink:href="class_black_gui_1_1_views_1_1_c_view_with_timestamp_with_offset_objects.html" target="_top" xlink:title=" ">
<polygon fill="none" stroke="black" points="1527,-219.5 1527,-271.5 1718,-271.5 1718,-219.5 1527,-219.5"/>
<text text-anchor="start" x="1535" y="-259.5" font-family="Helvetica,sans-Serif" font-size="10.00">BlackGui::Views::CViewWith</text>
<text text-anchor="start" x="1535" y="-248.5" font-family="Helvetica,sans-Serif" font-size="10.00">TimestampWithOffsetObjects</text>
<text text-anchor="start" x="1535" y="-237.5" font-family="Helvetica,sans-Serif" font-size="10.00">&lt; Models::CAircraftSituationChange</text>
<text text-anchor="middle" x="1622.5" y="-226.5" font-family="Helvetica,sans-Serif" font-size="10.00">ListModel &gt;</text>
</a>
</g>
</g>
<!-- Node1&#45;&gt;Node30 -->
<g id="edge29" class="edge">
<title>Node1&#45;&gt;Node30</title>
<path fill="none" stroke="midnightblue" d="M1407.68,-355.29C1431.71,-335.64 1474.73,-302.56 1516,-281.5 1522.98,-277.94 1530.4,-274.6 1537.93,-271.51"/>
<polygon fill="midnightblue" stroke="midnightblue" points="1405.2,-352.8 1399.73,-361.87 1409.67,-358.19 1405.2,-352.8"/>
</g>
<!-- Node32 -->
<g id="node32" class="node">
<title>Node32</title>
<g id="a_node32"><a xlink:href="class_black_gui_1_1_views_1_1_c_view_with_timestamp_with_offset_objects.html" target="_top" xlink:title=" ">
<polygon fill="none" stroke="black" points="1516,-159 1516,-200 1729,-200 1729,-159 1516,-159"/>
<text text-anchor="start" x="1524" y="-188" font-family="Helvetica,sans-Serif" font-size="10.00">BlackGui::Views::CViewWith</text>
<text text-anchor="start" x="1524" y="-177" font-family="Helvetica,sans-Serif" font-size="10.00">TimestampWithOffsetObjects</text>
<text text-anchor="middle" x="1622.5" y="-166" font-family="Helvetica,sans-Serif" font-size="10.00">&lt; Models::CAircraftSituationListModel &gt;</text>
</a>
</g>
</g>
<!-- Node1&#45;&gt;Node32 -->
<g id="edge31" class="edge">
<title>Node1&#45;&gt;Node32</title>
<path fill="none" stroke="midnightblue" d="M1398.2,-352.47C1416.5,-318.49 1459.42,-247.43 1516,-209.5 1521.3,-205.95 1527.02,-202.81 1532.96,-200.04"/>
<polygon fill="midnightblue" stroke="midnightblue" points="1394.88,-351.26 1393.32,-361.74 1401.08,-354.52 1394.88,-351.26"/>
</g>
<!-- Node34 -->
<g id="node34" class="node">
<title>Node34</title>
<g id="a_node34"><a xlink:href="class_black_gui_1_1_views_1_1_c_view_with_callsign_objects.html" target="_top" xlink:title="Base class for views with DB objects.">
<polygon fill="none" stroke="black" points="1545,-109.5 1545,-139.5 1700,-139.5 1700,-109.5 1545,-109.5"/>
<text text-anchor="start" x="1553" y="-127.5" font-family="Helvetica,sans-Serif" font-size="10.00">BlackGui::Views::CViewWith</text>
<text text-anchor="middle" x="1622.5" y="-116.5" font-family="Helvetica,sans-Serif" font-size="10.00">CallsignObjects&lt; T &gt;</text>
</a>
</g>
</g>
<!-- Node1&#45;&gt;Node34 -->
<g id="edge33" class="edge">
<title>Node1&#45;&gt;Node34</title>
<path fill="none" stroke="midnightblue" d="M1393.9,-351.94C1406.99,-308.31 1444.74,-202.67 1516,-149.5 1524.6,-143.08 1534.6,-138.28 1544.95,-134.7"/>
<polygon fill="midnightblue" stroke="midnightblue" points="1390.51,-351.05 1391.09,-361.63 1397.24,-353 1390.51,-351.05"/>
</g>
<!-- Node35 -->
<g id="node35" class="node">
<title>Node35</title>
<g id="a_node35"><a xlink:href="class_black_gui_1_1_views_1_1_c_view_with_db_objects.html" target="_top" xlink:title="Base class for views with DB objects.">
<polygon fill="none" stroke="black" points="1545,-60.5 1545,-90.5 1700,-90.5 1700,-60.5 1545,-60.5"/>
<text text-anchor="start" x="1553" y="-78.5" font-family="Helvetica,sans-Serif" font-size="10.00">BlackGui::Views::CViewWith</text>
<text text-anchor="middle" x="1622.5" y="-67.5" font-family="Helvetica,sans-Serif" font-size="10.00">DbObjects&lt; T &gt;</text>
</a>
</g>
</g>
<!-- Node1&#45;&gt;Node35 -->
<g id="edge34" class="edge">
<title>Node1&#45;&gt;Node35</title>
<path fill="none" stroke="midnightblue" d="M1391.63,-352.08C1400.78,-301.85 1432.36,-166.87 1516,-99.5 1524.41,-92.72 1534.37,-87.78 1544.75,-84.19"/>
<polygon fill="midnightblue" stroke="midnightblue" points="1388.17,-351.51 1389.92,-361.96 1395.07,-352.7 1388.17,-351.51"/>
</g>
<!-- Node41 -->
<g id="node41" class="node">
<title>Node41</title>
<g id="a_node41"><a xlink:href="class_black_gui_1_1_views_1_1_c_view_with_timestamp_with_offset_objects.html" target="_top" xlink:title="Base class for views timestamp offset objects.">
<polygon fill="none" stroke="black" points="1528,-11.5 1528,-41.5 1717,-41.5 1717,-11.5 1528,-11.5"/>
<text text-anchor="start" x="1536" y="-29.5" font-family="Helvetica,sans-Serif" font-size="10.00">BlackGui::Views::CViewWith</text>
<text text-anchor="middle" x="1622.5" y="-18.5" font-family="Helvetica,sans-Serif" font-size="10.00">TimestampWithOffsetObjects&lt; T &gt;</text>
</a>
</g>
</g>
<!-- Node1&#45;&gt;Node41 -->
<g id="edge40" class="edge">
<title>Node1&#45;&gt;Node41</title>
<path fill="none" stroke="midnightblue" d="M1390.14,-351.71C1395.93,-295.26 1420.55,-132.24 1516,-50.5 1519.99,-47.08 1524.38,-44.12 1529.02,-41.56"/>
<polygon fill="midnightblue" stroke="midnightblue" points="1386.65,-351.52 1389.2,-361.8 1393.61,-352.17 1386.65,-351.52"/>
</g>
<!-- Node2 -->
<g id="node2" class="node">
<title>Node2</title>
<g id="a_node2"><a xlink:href="class_black_gui_1_1_views_1_1_c_view_base_non_template.html" target="_top" xlink:title="Non templated base class, allows Q_OBJECT and signals / slots to be used.">
<polygon fill="none" stroke="black" points="1103,-381.5 1103,-411.5 1259,-411.5 1259,-381.5 1103,-381.5"/>
<text text-anchor="start" x="1111" y="-399.5" font-family="Helvetica,sans-Serif" font-size="10.00">BlackGui::Views::CViewBase</text>
<text text-anchor="middle" x="1181" y="-388.5" font-family="Helvetica,sans-Serif" font-size="10.00">NonTemplate</text>
</a>
</g>
</g>
<!-- Node2&#45;&gt;Node1 -->
<g id="edge1" class="edge">
<title>Node2&#45;&gt;Node1</title>
<path fill="none" stroke="midnightblue" d="M1268.98,-385.87C1282.12,-384.26 1295.6,-382.61 1308.53,-381.03"/>
<polygon fill="midnightblue" stroke="midnightblue" points="1268.52,-382.4 1259.02,-387.08 1269.37,-389.34 1268.52,-382.4"/>
</g>
<!-- Node3 -->
<g id="node3" class="node">
<title>Node3</title>
<g id="a_node3"><a xlink:href="class_black_gui_1_1_c_overlay_messages_table_view.html" target="_top" xlink:title="Using this class provides a QTableView with the overlay functionality already integrated.">
<polygon fill="none" stroke="black" points="907,-406.5 907,-436.5 1067,-436.5 1067,-406.5 907,-406.5"/>
<text text-anchor="start" x="915" y="-424.5" font-family="Helvetica,sans-Serif" font-size="10.00">BlackGui::COverlayMessages</text>
<text text-anchor="middle" x="987" y="-413.5" font-family="Helvetica,sans-Serif" font-size="10.00">TableView</text>
</a>
</g>
</g>
<!-- Node3&#45;&gt;Node2 -->
<g id="edge2" class="edge">
<title>Node3&#45;&gt;Node2</title>
<path fill="none" stroke="midnightblue" d="M1077.2,-409.88C1085.77,-408.77 1094.4,-407.65 1102.84,-406.55"/>
<polygon fill="midnightblue" stroke="midnightblue" points="1076.67,-406.43 1067.2,-411.19 1077.57,-413.37 1076.67,-406.43"/>
</g>
<!-- Node4 -->
<g id="node4" class="node">
<title>Node4</title>
<g id="a_node4"><a xlink:href="class_black_gui_1_1_c_overlay_messages_base.html" target="_top" xlink:title=" ">
<polygon fill="none" stroke="black" points="711,-406.5 711,-436.5 871,-436.5 871,-406.5 711,-406.5"/>
<text text-anchor="start" x="719" y="-424.5" font-family="Helvetica,sans-Serif" font-size="10.00">BlackGui::COverlayMessages</text>
<text text-anchor="middle" x="791" y="-413.5" font-family="Helvetica,sans-Serif" font-size="10.00">Base&lt; QTableView &gt;</text>
</a>
</g>
</g>
<!-- Node4&#45;&gt;Node3 -->
<g id="edge3" class="edge">
<title>Node4&#45;&gt;Node3</title>
<path fill="none" stroke="midnightblue" d="M881.44,-421.5C889.88,-421.5 898.41,-421.5 906.75,-421.5"/>
<polygon fill="midnightblue" stroke="midnightblue" points="881.19,-418 871.19,-421.5 881.19,-425 881.19,-418"/>
</g>
<!-- Node5 -->
<g id="node5" class="node">
<title>Node5</title>
<g id="a_node5"><a target="_parent" xlink:href="http://doc.qt.io/qt-5/qtableview.html" xlink:title=" ">
<polygon fill="none" stroke="black" points="601,-412 601,-431 675,-431 675,-412 601,-412"/>
<text text-anchor="middle" x="638" y="-419" font-family="Helvetica,sans-Serif" font-size="10.00">QTableView</text>
</a>
</g>
</g>
<!-- Node5&#45;&gt;Node4 -->
<g id="edge4" class="edge">
<title>Node5&#45;&gt;Node4</title>
<path fill="none" stroke="midnightblue" d="M685.44,-421.5C693.5,-421.5 702.09,-421.5 710.75,-421.5"/>
<polygon fill="midnightblue" stroke="midnightblue" points="685.17,-418 675.17,-421.5 685.17,-425 685.17,-418"/>
</g>
<!-- Node6 -->
<g id="node6" class="node">
<title>Node6</title>
<g id="a_node6"><a target="_parent" xlink:href="http://doc.qt.io/qt-5/qabstractitemview.html" xlink:title=" ">
<polygon fill="none" stroke="black" points="454,-412 454,-431 565,-431 565,-412 454,-412"/>
<text text-anchor="middle" x="509.5" y="-419" font-family="Helvetica,sans-Serif" font-size="10.00">QAbstractItemView</text>
</a>
</g>
</g>
<!-- Node6&#45;&gt;Node5 -->
<g id="edge5" class="edge">
<title>Node6&#45;&gt;Node5</title>
<path fill="none" stroke="midnightblue" d="M575.45,-421.5C584.16,-421.5 592.82,-421.5 600.78,-421.5"/>
<polygon fill="midnightblue" stroke="midnightblue" points="575.25,-418 565.25,-421.5 575.25,-425 575.25,-418"/>
</g>
<!-- Node7 -->
<g id="node7" class="node">
<title>Node7</title>
<g id="a_node7"><a target="_parent" xlink:href="http://doc.qt.io/qt-5/qabstractscrollarea.html" xlink:title=" ">
<polygon fill="none" stroke="black" points="304,-412 304,-431 418,-431 418,-412 304,-412"/>
<text text-anchor="middle" x="361" y="-419" font-family="Helvetica,sans-Serif" font-size="10.00">QAbstractScrollArea</text>
</a>
</g>
</g>
<!-- Node7&#45;&gt;Node6 -->
<g id="edge6" class="edge">
<title>Node7&#45;&gt;Node6</title>
<path fill="none" stroke="midnightblue" d="M428.42,-421.5C436.85,-421.5 445.41,-421.5 453.64,-421.5"/>
<polygon fill="midnightblue" stroke="midnightblue" points="428.22,-418 418.22,-421.5 428.22,-425 428.22,-418"/>
</g>
<!-- Node8 -->
<g id="node8" class="node">
<title>Node8</title>
<g id="a_node8"><a target="_parent" xlink:href="http://doc.qt.io/qt-5/qframe.html" xlink:title=" ">
<polygon fill="none" stroke="black" points="213,-412 213,-431 268,-431 268,-412 213,-412"/>
<text text-anchor="middle" x="240.5" y="-419" font-family="Helvetica,sans-Serif" font-size="10.00">QFrame</text>
</a>
</g>
</g>
<!-- Node8&#45;&gt;Node7 -->
<g id="edge7" class="edge">
<title>Node8&#45;&gt;Node7</title>
<path fill="none" stroke="midnightblue" d="M278.33,-421.5C286.45,-421.5 295.24,-421.5 303.93,-421.5"/>
<polygon fill="midnightblue" stroke="midnightblue" points="278.09,-418 268.09,-421.5 278.09,-425 278.09,-418"/>
</g>
<!-- Node9 -->
<g id="node9" class="node">
<title>Node9</title>
<g id="a_node9"><a target="_parent" xlink:href="http://doc.qt.io/qt-5/qwidget.html" xlink:title=" ">
<polygon fill="none" stroke="black" points="118,-412 118,-431 177,-431 177,-412 118,-412"/>
<text text-anchor="middle" x="147.5" y="-419" font-family="Helvetica,sans-Serif" font-size="10.00">QWidget</text>
</a>
</g>
</g>
<!-- Node9&#45;&gt;Node8 -->
<g id="edge8" class="edge">
<title>Node9&#45;&gt;Node8</title>
<path fill="none" stroke="midnightblue" d="M187.46,-421.5C195.99,-421.5 204.83,-421.5 212.75,-421.5"/>
<polygon fill="midnightblue" stroke="midnightblue" points="187.29,-418 177.29,-421.5 187.29,-425 187.29,-418"/>
</g>
<!-- Node10 -->
<g id="node10" class="node">
<title>Node10</title>
<g id="a_node10"><a target="_parent" xlink:href="http://doc.qt.io/qt-5/qobject.html" xlink:title=" ">
<polygon fill="none" stroke="black" points="13,-431 13,-450 69,-450 69,-431 13,-431"/>
<text text-anchor="middle" x="41" y="-438" font-family="Helvetica,sans-Serif" font-size="10.00">QObject</text>
</a>
</g>
</g>
<!-- Node10&#45;&gt;Node9 -->
<g id="edge9" class="edge">
<title>Node10&#45;&gt;Node9</title>
<path fill="none" stroke="midnightblue" d="M79.09,-433.76C91.88,-431.43 106,-428.86 117.99,-426.68"/>
<polygon fill="midnightblue" stroke="midnightblue" points="78.4,-430.33 69.18,-435.56 79.65,-437.21 78.4,-430.33"/>
</g>
<!-- Node11 -->
<g id="node11" class="node">
<title>Node11</title>
<g id="a_node11"><a target="_parent" xlink:href="http://doc.qt.io/qt-5/qpaintdevice.html" xlink:title=" ">
<polygon fill="none" stroke="black" points="0,-393 0,-412 82,-412 82,-393 0,-393"/>
<text text-anchor="middle" x="41" y="-400" font-family="Helvetica,sans-Serif" font-size="10.00">QPaintDevice</text>
</a>
</g>
</g>
<!-- Node11&#45;&gt;Node9 -->
<g id="edge10" class="edge">
<title>Node11&#45;&gt;Node9</title>
<path fill="none" stroke="midnightblue" d="M91.97,-411.59C100.8,-413.19 109.71,-414.81 117.69,-416.26"/>
<polygon fill="midnightblue" stroke="midnightblue" points="92.57,-408.14 82.1,-409.79 91.32,-415.02 92.57,-408.14"/>
</g>
<!-- Node12 -->
<g id="node12" class="node">
<title>Node12</title>
<g id="a_node12"><a xlink:href="class_black_gui_1_1_c_enable_for_dock_widget_info_area.html" target="_top" xlink:title="Helper class: If a component is residing in an dockable widget. This class provides access to its inf...">
<polygon fill="none" stroke="black" points="914,-357.5 914,-387.5 1060,-387.5 1060,-357.5 914,-357.5"/>
<text text-anchor="start" x="922" y="-375.5" font-family="Helvetica,sans-Serif" font-size="10.00">BlackGui::CEnableForDock</text>
<text text-anchor="middle" x="987" y="-364.5" font-family="Helvetica,sans-Serif" font-size="10.00">WidgetInfoArea</text>
</a>
</g>
</g>
<!-- Node12&#45;&gt;Node2 -->
<g id="edge11" class="edge">
<title>Node12&#45;&gt;Node2</title>
<path fill="none" stroke="midnightblue" d="M1070.28,-382.78C1081.05,-384.13 1092.05,-385.51 1102.74,-386.84"/>
<polygon fill="midnightblue" stroke="midnightblue" points="1070.4,-379.27 1060.04,-381.5 1069.53,-386.22 1070.4,-379.27"/>
</g>
<!-- Node13 -->
<g id="node13" class="node">
<title>Node13</title>
<g id="a_node13"><a xlink:href="class_black_gui_1_1_models_1_1_i_selection_model.html" target="_top" xlink:title=" ">
<polygon fill="none" stroke="black" points="1103.5,-332.5 1103.5,-362.5 1258.5,-362.5 1258.5,-332.5 1103.5,-332.5"/>
<text text-anchor="start" x="1111.5" y="-350.5" font-family="Helvetica,sans-Serif" font-size="10.00">BlackGui::Models::ISelection</text>
<text text-anchor="middle" x="1181" y="-339.5" font-family="Helvetica,sans-Serif" font-size="10.00">Model&lt; T::ContainerType &gt;</text>
</a>
</g>
</g>
<!-- Node13&#45;&gt;Node1 -->
<g id="edge12" class="edge">
<title>Node13&#45;&gt;Node1</title>
<path fill="none" stroke="midnightblue" d="M1268.8,-357.69C1280.88,-359.1 1293.26,-360.56 1305.24,-361.96"/>
<polygon fill="midnightblue" stroke="midnightblue" points="1269.07,-354.19 1258.73,-356.5 1268.25,-361.15 1269.07,-354.19"/>
</g>
<!-- Node15 -->
<g id="node15" class="node">
<title>Node15</title>
<g id="a_node15"><a xlink:href="class_black_gui_1_1_views_1_1_c_interpolation_setup_view.html" target="_top" xlink:title="Distributors.">
<polygon fill="none" stroke="black" points="1771,-716.5 1771,-746.5 1941,-746.5 1941,-716.5 1771,-716.5"/>
<text text-anchor="start" x="1779" y="-734.5" font-family="Helvetica,sans-Serif" font-size="10.00">BlackGui::Views::CInterpolation</text>
<text text-anchor="middle" x="1856" y="-723.5" font-family="Helvetica,sans-Serif" font-size="10.00">SetupView</text>
</a>
</g>
</g>
<!-- Node14&#45;&gt;Node15 -->
<g id="edge14" class="edge">
<title>Node14&#45;&gt;Node15</title>
<path fill="none" stroke="midnightblue" d="M1721.78,-731.5C1738.12,-731.5 1754.93,-731.5 1770.88,-731.5"/>
<polygon fill="midnightblue" stroke="midnightblue" points="1721.68,-728 1711.68,-731.5 1721.68,-735 1721.68,-728"/>
</g>
<!-- Node17 -->
<g id="node17" class="node">
<title>Node17</title>
<g id="a_node17"><a xlink:href="class_black_gui_1_1_views_1_1_c_simulated_aircraft_view.html" target="_top" xlink:title="Aircraft view.">
<polygon fill="none" stroke="black" points="1777,-656.5 1777,-686.5 1935,-686.5 1935,-656.5 1777,-656.5"/>
<text text-anchor="start" x="1785" y="-674.5" font-family="Helvetica,sans-Serif" font-size="10.00">BlackGui::Views::CSimulated</text>
<text text-anchor="middle" x="1856" y="-663.5" font-family="Helvetica,sans-Serif" font-size="10.00">AircraftView</text>
</a>
</g>
</g>
<!-- Node16&#45;&gt;Node17 -->
<g id="edge16" class="edge">
<title>Node16&#45;&gt;Node17</title>
<path fill="none" stroke="midnightblue" d="M1719.27,-671.5C1738.39,-671.5 1758.25,-671.5 1776.7,-671.5"/>
<polygon fill="midnightblue" stroke="midnightblue" points="1719.04,-668 1709.04,-671.5 1719.04,-675 1719.04,-668"/>
</g>
<!-- Node19 -->
<g id="node19" class="node">
<title>Node19</title>
<g id="a_node19"><a xlink:href="class_black_gui_1_1_views_1_1_c_atc_station_view.html" target="_top" xlink:title="ATC stations view.">
<polygon fill="none" stroke="black" points="1765,-602 1765,-621 1947,-621 1947,-602 1765,-602"/>
<text text-anchor="middle" x="1856" y="-609" font-family="Helvetica,sans-Serif" font-size="10.00">BlackGui::Views::CAtcStationView</text>
</a>
</g>
</g>
<!-- Node18&#45;&gt;Node19 -->
<g id="edge18" class="edge">
<title>Node18&#45;&gt;Node19</title>
<path fill="none" stroke="midnightblue" d="M1722.19,-611.5C1736.28,-611.5 1750.71,-611.5 1764.62,-611.5"/>
<polygon fill="midnightblue" stroke="midnightblue" points="1722.01,-608 1712.01,-611.5 1722.01,-615 1722.01,-608"/>
</g>
<!-- Node21 -->
<g id="node21" class="node">
<title>Node21</title>
<g id="a_node21"><a xlink:href="class_black_gui_1_1_views_1_1_c_airline_icao_code_view.html" target="_top" xlink:title="Aircraft ICAO codes view.">
<polygon fill="none" stroke="black" points="1786,-536.5 1786,-566.5 1926,-566.5 1926,-536.5 1786,-536.5"/>
<text text-anchor="start" x="1794" y="-554.5" font-family="Helvetica,sans-Serif" font-size="10.00">BlackGui::Views::CAirline</text>
<text text-anchor="middle" x="1856" y="-543.5" font-family="Helvetica,sans-Serif" font-size="10.00">IcaoCodeView</text>
</a>
</g>
</g>
<!-- Node20&#45;&gt;Node21 -->
<g id="edge20" class="edge">
<title>Node20&#45;&gt;Node21</title>
<path fill="none" stroke="midnightblue" d="M1721.83,-551.5C1743.35,-551.5 1765.68,-551.5 1785.78,-551.5"/>
<polygon fill="midnightblue" stroke="midnightblue" points="1721.68,-548 1711.68,-551.5 1721.68,-555 1721.68,-548"/>
</g>
<!-- Node23 -->
<g id="node23" class="node">
<title>Node23</title>
<g id="a_node23"><a xlink:href="class_black_gui_1_1_views_1_1_c_aircraft_category_view.html" target="_top" xlink:title="Aircraft ICAO codes view.">
<polygon fill="none" stroke="black" points="1784.5,-476.5 1784.5,-506.5 1927.5,-506.5 1927.5,-476.5 1784.5,-476.5"/>
<text text-anchor="start" x="1792.5" y="-494.5" font-family="Helvetica,sans-Serif" font-size="10.00">BlackGui::Views::CAircraft</text>
<text text-anchor="middle" x="1856" y="-483.5" font-family="Helvetica,sans-Serif" font-size="10.00">CategoryView</text>
</a>
</g>
</g>
<!-- Node22&#45;&gt;Node23 -->
<g id="edge22" class="edge">
<title>Node22&#45;&gt;Node23</title>
<path fill="none" stroke="midnightblue" d="M1735.93,-491.5C1752.37,-491.5 1768.91,-491.5 1784.2,-491.5"/>
<polygon fill="midnightblue" stroke="midnightblue" points="1735.71,-488 1725.71,-491.5 1735.71,-495 1735.71,-488"/>
</g>
<!-- Node25 -->
<g id="node25" class="node">
<title>Node25</title>
<g id="a_node25"><a xlink:href="class_black_gui_1_1_views_1_1_c_aircraft_icao_code_view.html" target="_top" xlink:title="Aircraft ICAO codes view.">
<polygon fill="none" stroke="black" points="1784.5,-416.5 1784.5,-446.5 1927.5,-446.5 1927.5,-416.5 1784.5,-416.5"/>
<text text-anchor="start" x="1792.5" y="-434.5" font-family="Helvetica,sans-Serif" font-size="10.00">BlackGui::Views::CAircraft</text>
<text text-anchor="middle" x="1856" y="-423.5" font-family="Helvetica,sans-Serif" font-size="10.00">IcaoCodeView</text>
</a>
</g>
</g>
<!-- Node24&#45;&gt;Node25 -->
<g id="edge24" class="edge">
<title>Node24&#45;&gt;Node25</title>
<path fill="none" stroke="midnightblue" d="M1723.93,-431.5C1744.31,-431.5 1765.34,-431.5 1784.43,-431.5"/>
<polygon fill="midnightblue" stroke="midnightblue" points="1723.67,-428 1713.67,-431.5 1723.67,-435 1723.67,-428"/>
</g>
<!-- Node27 -->
<g id="node27" class="node">
<title>Node27</title>
<g id="a_node27"><a xlink:href="class_black_gui_1_1_views_1_1_c_livery_view.html" target="_top" xlink:title="Distributors.">
<polygon fill="none" stroke="black" points="1775,-362 1775,-381 1937,-381 1937,-362 1775,-362"/>
<text text-anchor="middle" x="1856" y="-369" font-family="Helvetica,sans-Serif" font-size="10.00">BlackGui::Views::CLiveryView</text>
</a>
</g>
</g>
<!-- Node26&#45;&gt;Node27 -->
<g id="edge26" class="edge">
<title>Node26&#45;&gt;Node27</title>
<path fill="none" stroke="midnightblue" d="M1719.22,-371.5C1737.7,-371.5 1756.88,-371.5 1774.8,-371.5"/>
<polygon fill="midnightblue" stroke="midnightblue" points="1719.04,-368 1709.04,-371.5 1719.04,-375 1719.04,-368"/>
</g>
<!-- Node29 -->
<g id="node29" class="node">
<title>Node29</title>
<g id="a_node29"><a xlink:href="class_black_gui_1_1_views_1_1_c_aircraft_parts_view.html" target="_top" xlink:title="Aircraft parts.">
<polygon fill="none" stroke="black" points="1784.5,-296.5 1784.5,-326.5 1927.5,-326.5 1927.5,-296.5 1784.5,-296.5"/>
<text text-anchor="start" x="1792.5" y="-314.5" font-family="Helvetica,sans-Serif" font-size="10.00">BlackGui::Views::CAircraft</text>
<text text-anchor="middle" x="1856" y="-303.5" font-family="Helvetica,sans-Serif" font-size="10.00">PartsView</text>
</a>
</g>
</g>
<!-- Node28&#45;&gt;Node29 -->
<g id="edge28" class="edge">
<title>Node28&#45;&gt;Node29</title>
<path fill="none" stroke="midnightblue" d="M1729.85,-311.5C1748.28,-311.5 1767.02,-311.5 1784.19,-311.5"/>
<polygon fill="midnightblue" stroke="midnightblue" points="1729.67,-308 1719.67,-311.5 1729.67,-315 1729.67,-308"/>
</g>
<!-- Node31 -->
<g id="node31" class="node">
<title>Node31</title>
<g id="a_node31"><a xlink:href="class_black_gui_1_1_views_1_1_c_aircraft_situation_change_view.html" target="_top" xlink:title="Aircraft situation change view.">
<polygon fill="none" stroke="black" points="1784.5,-230.5 1784.5,-260.5 1927.5,-260.5 1927.5,-230.5 1784.5,-230.5"/>
<text text-anchor="start" x="1792.5" y="-248.5" font-family="Helvetica,sans-Serif" font-size="10.00">BlackGui::Views::CAircraft</text>
<text text-anchor="middle" x="1856" y="-237.5" font-family="Helvetica,sans-Serif" font-size="10.00">SituationChangeView</text>
</a>
</g>
</g>
<!-- Node30&#45;&gt;Node31 -->
<g id="edge30" class="edge">
<title>Node30&#45;&gt;Node31</title>
<path fill="none" stroke="midnightblue" d="M1728.49,-245.5C1747.43,-245.5 1766.76,-245.5 1784.42,-245.5"/>
<polygon fill="midnightblue" stroke="midnightblue" points="1728.33,-242 1718.33,-245.5 1728.33,-249 1728.33,-242"/>
</g>
<!-- Node33 -->
<g id="node33" class="node">
<title>Node33</title>
<g id="a_node33"><a xlink:href="class_black_gui_1_1_views_1_1_c_aircraft_situation_view.html" target="_top" xlink:title="Aircraft situations view.">
<polygon fill="none" stroke="black" points="1784.5,-170.5 1784.5,-200.5 1927.5,-200.5 1927.5,-170.5 1784.5,-170.5"/>
<text text-anchor="start" x="1792.5" y="-188.5" font-family="Helvetica,sans-Serif" font-size="10.00">BlackGui::Views::CAircraft</text>
<text text-anchor="middle" x="1856" y="-177.5" font-family="Helvetica,sans-Serif" font-size="10.00">SituationView</text>
</a>
</g>
</g>
<!-- Node32&#45;&gt;Node33 -->
<g id="edge32" class="edge">
<title>Node32&#45;&gt;Node33</title>
<path fill="none" stroke="midnightblue" d="M1739.2,-182.5C1754.61,-182.9 1770.03,-183.3 1784.35,-183.67"/>
<polygon fill="midnightblue" stroke="midnightblue" points="1739.18,-179 1729.09,-182.24 1738.99,-185.99 1739.18,-179"/>
</g>
<!-- Node36 -->
<g id="node36" class="node">
<title>Node36</title>
<g id="a_node36"><a xlink:href="class_black_gui_1_1_views_1_1_c_orderable_view_with_db_objects.html" target="_top" xlink:title=" ">
<polygon fill="none" stroke="black" points="1776,-110 1776,-151 1936,-151 1936,-110 1776,-110"/>
<text text-anchor="start" x="1784" y="-139" font-family="Helvetica,sans-Serif" font-size="10.00">BlackGui::Views::COrderable</text>
<text text-anchor="start" x="1784" y="-128" font-family="Helvetica,sans-Serif" font-size="10.00">ViewWithDbObjects&lt; Models</text>
<text text-anchor="middle" x="1856" y="-117" font-family="Helvetica,sans-Serif" font-size="10.00">::CAircraftModelListModel &gt;</text>
</a>
</g>
</g>
<!-- Node35&#45;&gt;Node36 -->
<g id="edge35" class="edge">
<title>Node35&#45;&gt;Node36</title>
<path fill="none" stroke="midnightblue" d="M1700.48,-92.85C1710.09,-95.06 1719.77,-97.32 1729,-99.5 1744.13,-103.08 1760.25,-106.98 1775.74,-110.77"/>
<polygon fill="midnightblue" stroke="midnightblue" points="1701.04,-89.39 1690.51,-90.56 1699.48,-96.21 1701.04,-89.39"/>
</g>
<!-- Node38 -->
<g id="node38" class="node">
<title>Node38</title>
<g id="a_node38"><a xlink:href="class_black_gui_1_1_views_1_1_c_orderable_view_with_db_objects.html" target="_top" xlink:title=" ">
<polygon fill="none" stroke="black" points="1765.5,-50 1765.5,-91 1946.5,-91 1946.5,-50 1765.5,-50"/>
<text text-anchor="start" x="1773.5" y="-79" font-family="Helvetica,sans-Serif" font-size="10.00">BlackGui::Views::COrderable</text>
<text text-anchor="start" x="1773.5" y="-68" font-family="Helvetica,sans-Serif" font-size="10.00">ViewWithDbObjects&lt; BlackGui</text>
<text text-anchor="middle" x="1856" y="-57" font-family="Helvetica,sans-Serif" font-size="10.00">::Models::CDistributorListModel &gt;</text>
</a>
</g>
</g>
<!-- Node35&#45;&gt;Node38 -->
<g id="edge37" class="edge">
<title>Node35&#45;&gt;Node38</title>
<path fill="none" stroke="midnightblue" d="M1710.39,-73.62C1728.3,-73.24 1747.19,-72.83 1765.2,-72.44"/>
<polygon fill="midnightblue" stroke="midnightblue" points="1710.19,-70.13 1700.26,-73.84 1710.34,-77.13 1710.19,-70.13"/>
</g>
<!-- Node40 -->
<g id="node40" class="node">
<title>Node40</title>
<g id="a_node40"><a xlink:href="class_black_gui_1_1_views_1_1_c_orderable_view_with_db_objects.html" target="_top" xlink:title="Base class for views with DB objects also orderable (based on BlackMisc::IOrderableList )">
<polygon fill="none" stroke="black" points="1778,-0.5 1778,-30.5 1934,-30.5 1934,-0.5 1778,-0.5"/>
<text text-anchor="start" x="1786" y="-18.5" font-family="Helvetica,sans-Serif" font-size="10.00">BlackGui::Views::COrderable</text>
<text text-anchor="middle" x="1856" y="-7.5" font-family="Helvetica,sans-Serif" font-size="10.00">ViewWithDbObjects&lt; T &gt;</text>
</a>
</g>
</g>
<!-- Node35&#45;&gt;Node40 -->
<g id="edge39" class="edge">
<title>Node35&#45;&gt;Node40</title>
<path fill="none" stroke="midnightblue" d="M1698.41,-58.12C1708.7,-55.63 1719.12,-53.04 1729,-50.5 1729.48,-50.38 1766.85,-39.99 1800.77,-30.57"/>
<polygon fill="midnightblue" stroke="midnightblue" points="1697.5,-54.74 1688.6,-60.49 1699.14,-61.55 1697.5,-54.74"/>
</g>
<!-- Node37 -->
<g id="node37" class="node">
<title>Node37</title>
<g id="a_node37"><a xlink:href="class_black_gui_1_1_views_1_1_c_aircraft_model_view.html" target="_top" xlink:title="Aircraft view.">
<polygon fill="none" stroke="black" points="2003.5,-115.5 2003.5,-145.5 2146.5,-145.5 2146.5,-115.5 2003.5,-115.5"/>
<text text-anchor="start" x="2011.5" y="-133.5" font-family="Helvetica,sans-Serif" font-size="10.00">BlackGui::Views::CAircraft</text>
<text text-anchor="middle" x="2075" y="-122.5" font-family="Helvetica,sans-Serif" font-size="10.00">ModelView</text>
</a>
</g>
</g>
<!-- Node36&#45;&gt;Node37 -->
<g id="edge36" class="edge">
<title>Node36&#45;&gt;Node37</title>
<path fill="none" stroke="midnightblue" d="M1946.38,-130.5C1965.33,-130.5 1985.07,-130.5 2003.21,-130.5"/>
<polygon fill="midnightblue" stroke="midnightblue" points="1946.26,-127 1936.26,-130.5 1946.26,-134 1946.26,-127"/>
</g>
<!-- Node39 -->
<g id="node39" class="node">
<title>Node39</title>
<g id="a_node39"><a xlink:href="class_black_gui_1_1_views_1_1_c_distributor_view.html" target="_top" xlink:title="Distributors.">
<polygon fill="none" stroke="black" points="1983,-61 1983,-80 2167,-80 2167,-61 1983,-61"/>
<text text-anchor="middle" x="2075" y="-68" font-family="Helvetica,sans-Serif" font-size="10.00">BlackGui::Views::CDistributorView</text>
</a>
</g>
</g>
<!-- Node38&#45;&gt;Node39 -->
<g id="edge38" class="edge">
<title>Node38&#45;&gt;Node39</title>
<path fill="none" stroke="midnightblue" d="M1956.72,-70.5C1965.46,-70.5 1974.28,-70.5 1982.94,-70.5"/>
<polygon fill="midnightblue" stroke="midnightblue" points="1956.52,-67 1946.52,-70.5 1956.52,-74 1956.52,-67"/>
</g>
</g>
</svg>
