<?xml version="1.0" encoding="UTF-8" standalone="no"?>
<!DOCTYPE svg PUBLIC "-//W3C//DTD SVG 1.1//EN"
 "http://www.w3.org/Graphics/SVG/1.1/DTD/svg11.dtd">
<!-- Generated by graphviz version 2.43.0 (0)
 -->
<!-- Title: BlackGui::Components::CInstallFsxTerrainProbeComponent Pages: 1 -->
<svg width="202pt" height="207pt"
 viewBox="0.00 0.00 202.00 207.00" xmlns="http://www.w3.org/2000/svg" xmlns:xlink="http://www.w3.org/1999/xlink">
<g id="graph0" class="graph" transform="scale(1 1) rotate(0) translate(4 203)">
<title>BlackGui::Components::CInstallFsxTerrainProbeComponent</title>
<!-- Node1 -->
<g id="node1" class="node">
<title>Node1</title>
<g id="a_node1"><a xlink:title="Install the FSX/P3D terrain probe.">
<polygon fill="#bfbfbf" stroke="black" points="0,-0.5 0,-30.5 194,-30.5 194,-0.5 0,-0.5"/>
<text text-anchor="start" x="8" y="-18.5" font-family="Helvetica,sans-Serif" font-size="10.00">BlackGui::Components</text>
<text text-anchor="middle" x="97" y="-7.5" font-family="Helvetica,sans-Serif" font-size="10.00">::CInstallFsxTerrainProbeComponent</text>
</a>
</g>
</g>
<!-- Node2 -->
<g id="node2" class="node">
<title>Node2</title>
<g id="a_node2"><a target="_parent" xlink:href="http://doc.qt.io/qt-5/qframe.html" xlink:title=" ">
<polygon fill="none" stroke="black" points="69.5,-67.5 69.5,-86.5 124.5,-86.5 124.5,-67.5 69.5,-67.5"/>
<text text-anchor="middle" x="97" y="-74.5" font-family="Helvetica,sans-Serif" font-size="10.00">QFrame</text>
</a>
</g>
</g>
<!-- Node2&#45;&gt;Node1 -->
<g id="edge1" class="edge">
<title>Node2&#45;&gt;Node1</title>
<path fill="none" stroke="midnightblue" d="M97,-57.23C97,-48.59 97,-38.5 97,-30.52"/>
<polygon fill="midnightblue" stroke="midnightblue" points="93.5,-57.48 97,-67.48 100.5,-57.48 93.5,-57.48"/>
</g>
<!-- Node3 -->
<g id="node3" class="node">
<title>Node3</title>
<g id="a_node3"><a target="_parent" xlink:href="http://doc.qt.io/qt-5/qwidget.html" xlink:title=" ">
<polygon fill="none" stroke="black" points="67.5,-123.5 67.5,-142.5 126.5,-142.5 126.5,-123.5 67.5,-123.5"/>
<text text-anchor="middle" x="97" y="-130.5" font-family="Helvetica,sans-Serif" font-size="10.00">QWidget</text>
</a>
</g>
</g>
<!-- Node3&#45;&gt;Node2 -->
<g id="edge2" class="edge">
<title>Node3&#45;&gt;Node2</title>
<path fill="none" stroke="midnightblue" d="M97,-112.8C97,-103.91 97,-93.78 97,-86.75"/>
<polygon fill="midnightblue" stroke="midnightblue" points="93.5,-113.08 97,-123.08 100.5,-113.08 93.5,-113.08"/>
</g>
<!-- Node4 -->
<g id="node4" class="node">
<title>Node4</title>
<g id="a_node4"><a target="_parent" xlink:href="http://doc.qt.io/qt-5/qobject.html" xlink:title=" ">
<polygon fill="none" stroke="black" points="26,-179.5 26,-198.5 82,-198.5 82,-179.5 26,-179.5"/>
<text text-anchor="middle" x="54" y="-186.5" font-family="Helvetica,sans-Serif" font-size="10.00">QObject</text>
</a>
</g>
</g>
<!-- Node4&#45;&gt;Node3 -->
<g id="edge3" class="edge">
<title>Node4&#45;&gt;Node3</title>
<path fill="none" stroke="midnightblue" d="M67.42,-171.14C74.91,-161.74 83.94,-150.4 90.03,-142.75"/>
<polygon fill="midnightblue" stroke="midnightblue" points="64.59,-169.08 61.1,-179.08 70.07,-173.44 64.59,-169.08"/>
</g>
<!-- Node5 -->
<g id="node5" class="node">
<title>Node5</title>
<g id="a_node5"><a target="_parent" xlink:href="http://doc.qt.io/qt-5/qpaintdevice.html" xlink:title=" ">
<polygon fill="none" stroke="black" points="100,-179.5 100,-198.5 182,-198.5 182,-179.5 100,-179.5"/>
<text text-anchor="middle" x="141" y="-186.5" font-family="Helvetica,sans-Serif" font-size="10.00">QPaintDevice</text>
</a>
</g>
</g>
<!-- Node5&#45;&gt;Node3 -->
<g id="edge4" class="edge">
<title>Node5&#45;&gt;Node3</title>
<path fill="none" stroke="midnightblue" d="M127.27,-171.14C119.6,-161.74 110.37,-150.4 104.13,-142.75"/>
<polygon fill="midnightblue" stroke="midnightblue" points="124.7,-173.54 133.73,-179.08 130.13,-169.12 124.7,-173.54"/>
</g>
</g>
</svg>
