<?xml version="1.0" encoding="UTF-8" standalone="no"?>
<!DOCTYPE svg PUBLIC "-//W3C//DTD SVG 1.1//EN"
 "http://www.w3.org/Graphics/SVG/1.1/DTD/svg11.dtd">
<!-- Generated by graphviz version 2.43.0 (0)
 -->
<!-- Title: BlackGui::CDockWidget Pages: 1 -->
<svg width="366pt" height="386pt"
 viewBox="0.00 0.00 366.00 386.00" xmlns="http://www.w3.org/2000/svg" xmlns:xlink="http://www.w3.org/1999/xlink">
<g id="graph0" class="graph" transform="scale(1 1) rotate(0) translate(4 382)">
<title>BlackGui::CDockWidget</title>
<!-- Node1 -->
<g id="node1" class="node">
<title>Node1</title>
<g id="a_node1"><a xlink:title="Our base class for dockable widgets containing some specialized functionality on top of QDockWidget.">
<polygon fill="#bfbfbf" stroke="black" points="114.5,-56.5 114.5,-75.5 246.5,-75.5 246.5,-56.5 114.5,-56.5"/>
<text text-anchor="middle" x="180.5" y="-63.5" font-family="Helvetica,sans-Serif" font-size="10.00">BlackGui::CDockWidget</text>
</a>
</g>
</g>
<!-- Node9 -->
<g id="node9" class="node">
<title>Node9</title>
<g id="a_node9"><a xlink:href="class_black_gui_1_1_c_dock_widget_info_area.html" target="_top" xlink:title="Specialized class for dock widgets serving as info area.">
<polygon fill="none" stroke="black" points="0,-0.5 0,-19.5 173,-19.5 173,-0.5 0,-0.5"/>
<text text-anchor="middle" x="86.5" y="-7.5" font-family="Helvetica,sans-Serif" font-size="10.00">BlackGui::CDockWidgetInfoArea</text>
</a>
</g>
</g>
<!-- Node1&#45;&gt;Node9 -->
<g id="edge8" class="edge">
<title>Node1&#45;&gt;Node9</title>
<path fill="none" stroke="midnightblue" d="M156.44,-51.18C139.14,-41.24 116.35,-28.15 101.57,-19.65"/>
<polygon fill="midnightblue" stroke="midnightblue" points="154.98,-54.38 165.4,-56.32 158.47,-48.31 154.98,-54.38"/>
</g>
<!-- Node10 -->
<g id="node10" class="node">
<title>Node10</title>
<g id="a_node10"><a xlink:href="class_black_gui_1_1_c_dock_widget_info_bar.html" target="_top" xlink:title="Class for dock widgets in the info area, containing some specialized functionality.">
<polygon fill="none" stroke="black" points="191,-0.5 191,-19.5 358,-19.5 358,-0.5 191,-0.5"/>
<text text-anchor="middle" x="274.5" y="-7.5" font-family="Helvetica,sans-Serif" font-size="10.00">BlackGui::CDockWidgetInfoBar</text>
</a>
</g>
</g>
<!-- Node1&#45;&gt;Node10 -->
<g id="edge9" class="edge">
<title>Node1&#45;&gt;Node10</title>
<path fill="none" stroke="midnightblue" d="M204.56,-51.18C221.86,-41.24 244.65,-28.15 259.43,-19.65"/>
<polygon fill="midnightblue" stroke="midnightblue" points="202.53,-48.31 195.6,-56.32 206.02,-54.38 202.53,-48.31"/>
</g>
<!-- Node2 -->
<g id="node2" class="node">
<title>Node2</title>
<g id="a_node2"><a xlink:href="class_black_gui_1_1_c_overlay_messages_dock_widget.html" target="_top" xlink:title="Using this class provides a QDockWidget with the overlay functionality already integrated.">
<polygon fill="none" stroke="black" points="8.5,-112.5 8.5,-142.5 168.5,-142.5 168.5,-112.5 8.5,-112.5"/>
<text text-anchor="start" x="16.5" y="-130.5" font-family="Helvetica,sans-Serif" font-size="10.00">BlackGui::COverlayMessages</text>
<text text-anchor="middle" x="88.5" y="-119.5" font-family="Helvetica,sans-Serif" font-size="10.00">DockWidget</text>
</a>
</g>
</g>
<!-- Node2&#45;&gt;Node1 -->
<g id="edge1" class="edge">
<title>Node2&#45;&gt;Node1</title>
<path fill="none" stroke="midnightblue" d="M119,-106.78C135.3,-96.23 154.55,-83.78 167.11,-75.66"/>
<polygon fill="midnightblue" stroke="midnightblue" points="116.8,-104.03 110.3,-112.4 120.6,-109.91 116.8,-104.03"/>
</g>
<!-- Node3 -->
<g id="node3" class="node">
<title>Node3</title>
<g id="a_node3"><a xlink:href="class_black_gui_1_1_c_overlay_messages_base.html" target="_top" xlink:title=" ">
<polygon fill="none" stroke="black" points="8.5,-179.5 8.5,-209.5 168.5,-209.5 168.5,-179.5 8.5,-179.5"/>
<text text-anchor="start" x="16.5" y="-197.5" font-family="Helvetica,sans-Serif" font-size="10.00">BlackGui::COverlayMessages</text>
<text text-anchor="middle" x="88.5" y="-186.5" font-family="Helvetica,sans-Serif" font-size="10.00">Base&lt; QDockWidget &gt;</text>
</a>
</g>
</g>
<!-- Node3&#45;&gt;Node2 -->
<g id="edge2" class="edge">
<title>Node3&#45;&gt;Node2</title>
<path fill="none" stroke="midnightblue" d="M88.5,-169.11C88.5,-160.15 88.5,-150.32 88.5,-142.58"/>
<polygon fill="midnightblue" stroke="midnightblue" points="85,-169.4 88.5,-179.4 92,-169.4 85,-169.4"/>
</g>
<!-- Node4 -->
<g id="node4" class="node">
<title>Node4</title>
<g id="a_node4"><a target="_parent" xlink:href="http://doc.qt.io/qt-5/qdockwidget.html" xlink:title=" ">
<polygon fill="none" stroke="black" points="47,-246.5 47,-265.5 130,-265.5 130,-246.5 47,-246.5"/>
<text text-anchor="middle" x="88.5" y="-253.5" font-family="Helvetica,sans-Serif" font-size="10.00">QDockWidget</text>
</a>
</g>
</g>
<!-- Node4&#45;&gt;Node3 -->
<g id="edge3" class="edge">
<title>Node4&#45;&gt;Node3</title>
<path fill="none" stroke="midnightblue" d="M88.5,-236.23C88.5,-227.59 88.5,-217.5 88.5,-209.52"/>
<polygon fill="midnightblue" stroke="midnightblue" points="85,-236.48 88.5,-246.48 92,-236.48 85,-236.48"/>
</g>
<!-- Node5 -->
<g id="node5" class="node">
<title>Node5</title>
<g id="a_node5"><a target="_parent" xlink:href="http://doc.qt.io/qt-5/qwidget.html" xlink:title=" ">
<polygon fill="none" stroke="black" points="59,-302.5 59,-321.5 118,-321.5 118,-302.5 59,-302.5"/>
<text text-anchor="middle" x="88.5" y="-309.5" font-family="Helvetica,sans-Serif" font-size="10.00">QWidget</text>
</a>
</g>
</g>
<!-- Node5&#45;&gt;Node4 -->
<g id="edge4" class="edge">
<title>Node5&#45;&gt;Node4</title>
<path fill="none" stroke="midnightblue" d="M88.5,-291.8C88.5,-282.91 88.5,-272.78 88.5,-265.75"/>
<polygon fill="midnightblue" stroke="midnightblue" points="85,-292.08 88.5,-302.08 92,-292.08 85,-292.08"/>
</g>
<!-- Node6 -->
<g id="node6" class="node">
<title>Node6</title>
<g id="a_node6"><a target="_parent" xlink:href="http://doc.qt.io/qt-5/qobject.html" xlink:title=" ">
<polygon fill="none" stroke="black" points="17.5,-358.5 17.5,-377.5 73.5,-377.5 73.5,-358.5 17.5,-358.5"/>
<text text-anchor="middle" x="45.5" y="-365.5" font-family="Helvetica,sans-Serif" font-size="10.00">QObject</text>
</a>
</g>
</g>
<!-- Node6&#45;&gt;Node5 -->
<g id="edge5" class="edge">
<title>Node6&#45;&gt;Node5</title>
<path fill="none" stroke="midnightblue" d="M58.92,-350.14C66.41,-340.74 75.44,-329.4 81.53,-321.75"/>
<polygon fill="midnightblue" stroke="midnightblue" points="56.09,-348.08 52.6,-358.08 61.57,-352.44 56.09,-348.08"/>
</g>
<!-- Node7 -->
<g id="node7" class="node">
<title>Node7</title>
<g id="a_node7"><a target="_parent" xlink:href="http://doc.qt.io/qt-5/qpaintdevice.html" xlink:title=" ">
<polygon fill="none" stroke="black" points="91.5,-358.5 91.5,-377.5 173.5,-377.5 173.5,-358.5 91.5,-358.5"/>
<text text-anchor="middle" x="132.5" y="-365.5" font-family="Helvetica,sans-Serif" font-size="10.00">QPaintDevice</text>
</a>
</g>
</g>
<!-- Node7&#45;&gt;Node5 -->
<g id="edge6" class="edge">
<title>Node7&#45;&gt;Node5</title>
<path fill="none" stroke="midnightblue" d="M118.77,-350.14C111.1,-340.74 101.87,-329.4 95.63,-321.75"/>
<polygon fill="midnightblue" stroke="midnightblue" points="116.2,-352.54 125.23,-358.08 121.63,-348.12 116.2,-352.54"/>
</g>
<!-- Node8 -->
<g id="node8" class="node">
<title>Node8</title>
<g id="a_node8"><a xlink:href="class_black_gui_1_1_c_enable_for_frameless_window.html" target="_top" xlink:title="Main window which can be frameless.">
<polygon fill="none" stroke="black" points="187,-112.5 187,-142.5 358,-142.5 358,-112.5 187,-112.5"/>
<text text-anchor="start" x="195" y="-130.5" font-family="Helvetica,sans-Serif" font-size="10.00">BlackGui::CEnableForFrameless</text>
<text text-anchor="middle" x="272.5" y="-119.5" font-family="Helvetica,sans-Serif" font-size="10.00">Window</text>
</a>
</g>
</g>
<!-- Node8&#45;&gt;Node1 -->
<g id="edge7" class="edge">
<title>Node8&#45;&gt;Node1</title>
<path fill="none" stroke="midnightblue" d="M242,-106.78C225.7,-96.23 206.45,-83.78 193.89,-75.66"/>
<polygon fill="midnightblue" stroke="midnightblue" points="240.4,-109.91 250.7,-112.4 244.2,-104.03 240.4,-109.91"/>
</g>
</g>
</svg>
