<?xml version="1.0" encoding="UTF-8" standalone="no"?>
<!DOCTYPE svg PUBLIC "-//W3C//DTD SVG 1.1//EN"
 "http://www.w3.org/Graphics/SVG/1.1/DTD/svg11.dtd">
<!-- Generated by graphviz version 2.43.0 (0)
 -->
<!-- Title: BlackMisc::CIdentifiable Pages: 1 -->
<svg width="1132pt" height="1094pt"
 viewBox="0.00 0.00 1132.00 1093.50" xmlns="http://www.w3.org/2000/svg" xmlns:xlink="http://www.w3.org/1999/xlink">
<g id="graph0" class="graph" transform="scale(1 1) rotate(0) translate(4 1089.5)">
<title>BlackMisc::CIdentifiable</title>
<!-- Node1 -->
<g id="node1" class="node">
<title>Node1</title>
<g id="a_node1"><a xlink:title="Base class with a member CIdentifier to be inherited by a class which has an identity in the environm...">
<polygon fill="#bfbfbf" stroke="black" points="0,-504.5 0,-523.5 134,-523.5 134,-504.5 0,-504.5"/>
<text text-anchor="middle" x="67" y="-511.5" font-family="Helvetica,sans-Serif" font-size="10.00">BlackMisc::CIdentifiable</text>
</a>
</g>
</g>
<!-- Node2 -->
<g id="node2" class="node">
<title>Node2</title>
<g id="a_node2"><a xlink:href="class_black_core_1_1_afv_1_1_clients_1_1_c_afv_client.html" target="_top" xlink:title="AFV client.">
<polygon fill="none" stroke="black" points="202,-1055 202,-1085 330,-1085 330,-1055 202,-1055"/>
<text text-anchor="start" x="210" y="-1073" font-family="Helvetica,sans-Serif" font-size="10.00">BlackCore::Afv::Clients</text>
<text text-anchor="middle" x="266" y="-1062" font-family="Helvetica,sans-Serif" font-size="10.00">::CAfvClient</text>
</a>
</g>
</g>
<!-- Node1&#45;&gt;Node2 -->
<g id="edge1" class="edge">
<title>Node1&#45;&gt;Node2</title>
<path fill="none" stroke="midnightblue" d="M69.05,-533.83C74.07,-620.91 98.38,-968.37 170,-1045 178.5,-1054.1 189.88,-1060.04 201.8,-1063.88"/>
<polygon fill="midnightblue" stroke="midnightblue" points="72.54,-533.52 68.49,-523.73 65.55,-533.91 72.54,-533.52"/>
</g>
<!-- Node3 -->
<g id="node3" class="node">
<title>Node3</title>
<g id="a_node3"><a xlink:href="class_black_core_1_1_c_application.html" target="_top" xlink:title="Our runtime.">
<polygon fill="none" stroke="black" points="199,-1016.5 199,-1035.5 333,-1035.5 333,-1016.5 199,-1016.5"/>
<text text-anchor="middle" x="266" y="-1023.5" font-family="Helvetica,sans-Serif" font-size="10.00">BlackCore::CApplication</text>
</a>
</g>
</g>
<!-- Node1&#45;&gt;Node3 -->
<g id="edge2" class="edge">
<title>Node1&#45;&gt;Node3</title>
<path fill="none" stroke="midnightblue" d="M69.27,-534.1C75,-617.93 101.15,-938.61 170,-1007 177.88,-1014.82 188,-1019.88 198.7,-1023.07"/>
<polygon fill="midnightblue" stroke="midnightblue" points="72.75,-533.64 68.6,-523.89 65.77,-534.1 72.75,-533.64"/>
</g>
<!-- Node6 -->
<g id="node6" class="node">
<title>Node6</title>
<g id="a_node6"><a xlink:href="class_black_core_1_1_context_1_1_c_context_application.html" target="_top" xlink:title="Application context.">
<polygon fill="none" stroke="black" points="205,-967 205,-997 327,-997 327,-967 205,-967"/>
<text text-anchor="start" x="213" y="-985" font-family="Helvetica,sans-Serif" font-size="10.00">BlackCore::Context</text>
<text text-anchor="middle" x="266" y="-974" font-family="Helvetica,sans-Serif" font-size="10.00">::CContextApplication</text>
</a>
</g>
</g>
<!-- Node1&#45;&gt;Node6 -->
<g id="edge5" class="edge">
<title>Node1&#45;&gt;Node6</title>
<path fill="none" stroke="midnightblue" d="M69.85,-533.97C77.5,-612.1 109.1,-895.76 170,-958 179.28,-967.48 191.72,-973.42 204.54,-977.08"/>
<polygon fill="midnightblue" stroke="midnightblue" points="73.3,-533.25 68.86,-523.62 66.33,-533.91 73.3,-533.25"/>
</g>
<!-- Node7 -->
<g id="node7" class="node">
<title>Node7</title>
<g id="a_node7"><a xlink:href="class_black_core_1_1_context_1_1_c_context_audio_base.html" target="_top" xlink:title="Audio context interface.">
<polygon fill="none" stroke="black" points="206.5,-918 206.5,-948 325.5,-948 325.5,-918 206.5,-918"/>
<text text-anchor="start" x="214.5" y="-936" font-family="Helvetica,sans-Serif" font-size="10.00">BlackCore::Context</text>
<text text-anchor="middle" x="266" y="-925" font-family="Helvetica,sans-Serif" font-size="10.00">::CContextAudioBase</text>
</a>
</g>
</g>
<!-- Node1&#45;&gt;Node7 -->
<g id="edge6" class="edge">
<title>Node1&#45;&gt;Node7</title>
<path fill="none" stroke="midnightblue" d="M70.42,-533.61C79.68,-605.67 115.19,-854.47 170,-909 179.77,-918.72 192.87,-924.69 206.21,-928.31"/>
<polygon fill="midnightblue" stroke="midnightblue" points="73.88,-533.1 69.16,-523.62 66.94,-533.98 73.88,-533.1"/>
</g>
<!-- Node10 -->
<g id="node10" class="node">
<title>Node10</title>
<g id="a_node10"><a xlink:href="class_black_core_1_1_context_1_1_c_context_own_aircraft.html" target="_top" xlink:title="Own aircraft context implementation. Central instance of data for.">
<polygon fill="none" stroke="black" points="203.5,-869 203.5,-899 328.5,-899 328.5,-869 203.5,-869"/>
<text text-anchor="start" x="211.5" y="-887" font-family="Helvetica,sans-Serif" font-size="10.00">BlackCore::Context</text>
<text text-anchor="middle" x="266" y="-876" font-family="Helvetica,sans-Serif" font-size="10.00">::CContextOwnAircraft</text>
</a>
</g>
</g>
<!-- Node1&#45;&gt;Node10 -->
<g id="edge9" class="edge">
<title>Node1&#45;&gt;Node10</title>
<path fill="none" stroke="midnightblue" d="M67.52,-533.88C67.23,-592.86 74.78,-768.44 170,-860 179.2,-868.84 191.16,-874.56 203.48,-878.23"/>
<polygon fill="midnightblue" stroke="midnightblue" points="71.02,-533.74 67.66,-523.7 64.02,-533.65 71.02,-533.74"/>
</g>
<!-- Node11 -->
<g id="node11" class="node">
<title>Node11</title>
<g id="a_node11"><a xlink:href="class_black_core_1_1_context_1_1_c_context_simulator.html" target="_top" xlink:title="Network simulator concrete implementation.">
<polygon fill="none" stroke="black" points="208.5,-820 208.5,-850 323.5,-850 323.5,-820 208.5,-820"/>
<text text-anchor="start" x="216.5" y="-838" font-family="Helvetica,sans-Serif" font-size="10.00">BlackCore::Context</text>
<text text-anchor="middle" x="266" y="-827" font-family="Helvetica,sans-Serif" font-size="10.00">::CContextSimulator</text>
</a>
</g>
</g>
<!-- Node1&#45;&gt;Node11 -->
<g id="edge10" class="edge">
<title>Node1&#45;&gt;Node11</title>
<path fill="none" stroke="midnightblue" d="M68.64,-533.86C71.47,-587.15 86.83,-734.49 170,-811 180.52,-820.67 194.36,-826.58 208.21,-830.16"/>
<polygon fill="midnightblue" stroke="midnightblue" points="72.13,-533.55 68.2,-523.71 65.14,-533.85 72.13,-533.55"/>
</g>
<!-- Node12 -->
<g id="node12" class="node">
<title>Node12</title>
<g id="a_node12"><a xlink:href="class_black_core_1_1_data_1_1_c_global_setup.html" target="_top" xlink:title="Global settings for readers, debug flags, etc.">
<polygon fill="none" stroke="black" points="196,-771 196,-801 336,-801 336,-771 196,-771"/>
<text text-anchor="start" x="204" y="-789" font-family="Helvetica,sans-Serif" font-size="10.00">BlackCore::Data::CGlobal</text>
<text text-anchor="middle" x="266" y="-778" font-family="Helvetica,sans-Serif" font-size="10.00">Setup</text>
</a>
</g>
</g>
<!-- Node1&#45;&gt;Node12 -->
<g id="edge11" class="edge">
<title>Node1&#45;&gt;Node12</title>
<path fill="none" stroke="midnightblue" d="M70.21,-533.56C76.55,-580.28 99.16,-699.09 170,-761 177.45,-767.51 186.4,-772.35 195.79,-775.95"/>
<polygon fill="midnightblue" stroke="midnightblue" points="73.67,-533.03 68.95,-523.54 66.72,-533.9 73.67,-533.03"/>
</g>
<!-- Node13 -->
<g id="node13" class="node">
<title>Node13</title>
<g id="a_node13"><a xlink:href="class_black_core_1_1_i_simulator.html" target="_top" xlink:title="Interface to a simulator.">
<polygon fill="none" stroke="black" points="205,-732.5 205,-751.5 327,-751.5 327,-732.5 205,-732.5"/>
<text text-anchor="middle" x="266" y="-739.5" font-family="Helvetica,sans-Serif" font-size="10.00">BlackCore::ISimulator</text>
</a>
</g>
</g>
<!-- Node1&#45;&gt;Node13 -->
<g id="edge12" class="edge">
<title>Node1&#45;&gt;Node13</title>
<path fill="none" stroke="midnightblue" d="M71.61,-533.89C80.34,-575.99 106.75,-674.2 170,-723 179.99,-730.71 192.28,-735.53 204.66,-738.49"/>
<polygon fill="midnightblue" stroke="midnightblue" points="74.99,-532.95 69.64,-523.81 68.12,-534.3 74.99,-532.95"/>
</g>
<!-- Node24 -->
<g id="node24" class="node">
<title>Node24</title>
<g id="a_node24"><a xlink:href="class_black_gui_1_1_components_1_1_c_atc_station_component.html" target="_top" xlink:title="ATC stations component.">
<polygon fill="none" stroke="black" points="198,-683 198,-713 334,-713 334,-683 198,-683"/>
<text text-anchor="start" x="206" y="-701" font-family="Helvetica,sans-Serif" font-size="10.00">BlackGui::Components</text>
<text text-anchor="middle" x="266" y="-690" font-family="Helvetica,sans-Serif" font-size="10.00">::CAtcStationComponent</text>
</a>
</g>
</g>
<!-- Node1&#45;&gt;Node24 -->
<g id="edge23" class="edge">
<title>Node1&#45;&gt;Node24</title>
<path fill="none" stroke="midnightblue" d="M74.83,-533.39C87.82,-567.35 119.39,-637.46 170,-674 178.28,-679.97 187.89,-684.47 197.76,-687.84"/>
<polygon fill="midnightblue" stroke="midnightblue" points="78.01,-531.89 71.26,-523.72 71.44,-534.31 78.01,-531.89"/>
</g>
<!-- Node25 -->
<g id="node25" class="node">
<title>Node25</title>
<g id="a_node25"><a xlink:href="class_black_gui_1_1_components_1_1_c_cockpit_com_component.html" target="_top" xlink:title="The main cockpit area.">
<polygon fill="none" stroke="black" points="193.5,-634 193.5,-664 338.5,-664 338.5,-634 193.5,-634"/>
<text text-anchor="start" x="201.5" y="-652" font-family="Helvetica,sans-Serif" font-size="10.00">BlackGui::Components</text>
<text text-anchor="middle" x="266" y="-641" font-family="Helvetica,sans-Serif" font-size="10.00">::CCockpitComComponent</text>
</a>
</g>
</g>
<!-- Node1&#45;&gt;Node25 -->
<g id="edge24" class="edge">
<title>Node1&#45;&gt;Node25</title>
<path fill="none" stroke="midnightblue" d="M79.75,-532.04C96.71,-556.61 130.39,-600.24 170,-624 177.17,-628.3 185.07,-631.87 193.17,-634.83"/>
<polygon fill="midnightblue" stroke="midnightblue" points="82.58,-529.98 74.09,-523.64 76.78,-533.89 82.58,-529.98"/>
</g>
<!-- Node26 -->
<g id="node26" class="node">
<title>Node26</title>
<g id="a_node26"><a xlink:href="class_black_gui_1_1_components_1_1_c_cockpit_transponder_mode_leds_component.html" target="_top" xlink:title="LEDs representing transponder mode state.">
<polygon fill="none" stroke="black" points="178.5,-573.5 178.5,-614.5 353.5,-614.5 353.5,-573.5 178.5,-573.5"/>
<text text-anchor="start" x="186.5" y="-602.5" font-family="Helvetica,sans-Serif" font-size="10.00">BlackGui::Components</text>
<text text-anchor="start" x="186.5" y="-591.5" font-family="Helvetica,sans-Serif" font-size="10.00">::CCockpitTransponderModeLeds</text>
<text text-anchor="middle" x="266" y="-580.5" font-family="Helvetica,sans-Serif" font-size="10.00">Component</text>
</a>
</g>
</g>
<!-- Node1&#45;&gt;Node26 -->
<g id="edge25" class="edge">
<title>Node1&#45;&gt;Node26</title>
<path fill="none" stroke="midnightblue" d="M94.64,-528.43C114.94,-539.08 143.76,-553.5 170,-564 178.27,-567.31 187.06,-570.5 195.82,-573.49"/>
<polygon fill="midnightblue" stroke="midnightblue" points="96.16,-525.27 85.69,-523.68 92.88,-531.46 96.16,-525.27"/>
</g>
<!-- Node27 -->
<g id="node27" class="node">
<title>Node27</title>
<g id="a_node27"><a xlink:href="class_black_gui_1_1_components_1_1_c_command_input.html" target="_top" xlink:title="Specialized line edit for command inputs.">
<polygon fill="none" stroke="black" points="202,-524 202,-554 330,-554 330,-524 202,-524"/>
<text text-anchor="start" x="210" y="-542" font-family="Helvetica,sans-Serif" font-size="10.00">BlackGui::Components</text>
<text text-anchor="middle" x="266" y="-531" font-family="Helvetica,sans-Serif" font-size="10.00">::CCommandInput</text>
</a>
</g>
</g>
<!-- Node1&#45;&gt;Node27 -->
<g id="edge26" class="edge">
<title>Node1&#45;&gt;Node27</title>
<path fill="none" stroke="midnightblue" d="M144.26,-523.68C163.25,-526.09 183.41,-528.65 201.7,-530.97"/>
<polygon fill="midnightblue" stroke="midnightblue" points="144.51,-520.18 134.15,-522.39 143.63,-527.13 144.51,-520.18"/>
</g>
<!-- Node28 -->
<g id="node28" class="node">
<title>Node28</title>
<g id="a_node28"><a xlink:href="class_black_gui_1_1_components_1_1_c_interpolation_log_display.html" target="_top" xlink:title="Display live data of interpolation.">
<polygon fill="none" stroke="black" points="193,-475 193,-505 339,-505 339,-475 193,-475"/>
<text text-anchor="start" x="201" y="-493" font-family="Helvetica,sans-Serif" font-size="10.00">BlackGui::Components</text>
<text text-anchor="middle" x="266" y="-482" font-family="Helvetica,sans-Serif" font-size="10.00">::CInterpolationLogDisplay</text>
</a>
</g>
</g>
<!-- Node1&#45;&gt;Node28 -->
<g id="edge27" class="edge">
<title>Node1&#45;&gt;Node28</title>
<path fill="none" stroke="midnightblue" d="M144.48,-504.68C160.42,-502.74 177.17,-500.7 192.94,-498.78"/>
<polygon fill="midnightblue" stroke="midnightblue" points="143.65,-501.26 134.15,-505.94 144.5,-508.21 143.65,-501.26"/>
</g>
<!-- Node29 -->
<g id="node29" class="node">
<title>Node29</title>
<g id="a_node29"><a xlink:href="class_black_gui_1_1_components_1_1_c_mapping_component.html" target="_top" xlink:title="Mappings, models etc.">
<polygon fill="none" stroke="black" points="202,-426 202,-456 330,-456 330,-426 202,-426"/>
<text text-anchor="start" x="210" y="-444" font-family="Helvetica,sans-Serif" font-size="10.00">BlackGui::Components</text>
<text text-anchor="middle" x="266" y="-433" font-family="Helvetica,sans-Serif" font-size="10.00">::CMappingComponent</text>
</a>
</g>
</g>
<!-- Node1&#45;&gt;Node29 -->
<g id="edge28" class="edge">
<title>Node1&#45;&gt;Node29</title>
<path fill="none" stroke="midnightblue" d="M94.57,-499.85C114.83,-489.48 143.64,-475.58 170,-466 180.18,-462.3 191.15,-458.9 201.9,-455.87"/>
<polygon fill="midnightblue" stroke="midnightblue" points="92.9,-496.78 85.63,-504.49 96.12,-502.99 92.9,-496.78"/>
</g>
<!-- Node30 -->
<g id="node30" class="node">
<title>Node30</title>
<g id="a_node30"><a xlink:href="class_black_gui_1_1_components_1_1_c_transponder_mode_component.html" target="_top" xlink:title="Small component to display XPDR mode.">
<polygon fill="none" stroke="black" points="180,-377 180,-407 352,-407 352,-377 180,-377"/>
<text text-anchor="start" x="188" y="-395" font-family="Helvetica,sans-Serif" font-size="10.00">BlackGui::Components</text>
<text text-anchor="middle" x="266" y="-384" font-family="Helvetica,sans-Serif" font-size="10.00">::CTransponderModeComponent</text>
</a>
</g>
</g>
<!-- Node1&#45;&gt;Node30 -->
<g id="edge29" class="edge">
<title>Node1&#45;&gt;Node30</title>
<path fill="none" stroke="#8b1a1a" d="M81.56,-496.53C99.47,-474.67 133.07,-437.6 170,-417 176.85,-413.18 184.31,-409.92 191.93,-407.15"/>
<polygon fill="#8b1a1a" stroke="#8b1a1a" points="78.81,-494.36 75.29,-504.36 84.27,-498.74 78.81,-494.36"/>
</g>
<!-- Node31 -->
<g id="node31" class="node">
<title>Node31</title>
<g id="a_node31"><a xlink:href="class_black_gui_1_1_components_1_1_c_weather_component.html" target="_top" xlink:title="Weather component.">
<polygon fill="none" stroke="black" points="202,-328 202,-358 330,-358 330,-328 202,-328"/>
<text text-anchor="start" x="210" y="-346" font-family="Helvetica,sans-Serif" font-size="10.00">BlackGui::Components</text>
<text text-anchor="middle" x="266" y="-335" font-family="Helvetica,sans-Serif" font-size="10.00">::CWeatherComponent</text>
</a>
</g>
</g>
<!-- Node1&#45;&gt;Node31 -->
<g id="edge30" class="edge">
<title>Node1&#45;&gt;Node31</title>
<path fill="none" stroke="midnightblue" d="M75.93,-495.05C90.06,-463.65 122.61,-401.06 170,-368 179.51,-361.36 190.67,-356.49 201.94,-352.91"/>
<polygon fill="midnightblue" stroke="midnightblue" points="72.64,-493.84 71.85,-504.41 79.05,-496.64 72.64,-493.84"/>
</g>
<!-- Node32 -->
<g id="node32" class="node">
<title>Node32</title>
<g id="a_node32"><a xlink:href="class_black_misc_1_1_simulation_1_1_c_remote_aircraft_provider.html" target="_top" xlink:title="Implementaion of the interface, which can also be used for testing.">
<polygon fill="none" stroke="black" points="194.5,-279 194.5,-309 337.5,-309 337.5,-279 194.5,-279"/>
<text text-anchor="start" x="202.5" y="-297" font-family="Helvetica,sans-Serif" font-size="10.00">BlackMisc::Simulation</text>
<text text-anchor="middle" x="266" y="-286" font-family="Helvetica,sans-Serif" font-size="10.00">::CRemoteAircraftProvider</text>
</a>
</g>
</g>
<!-- Node1&#45;&gt;Node32 -->
<g id="edge31" class="edge">
<title>Node1&#45;&gt;Node32</title>
<path fill="none" stroke="midnightblue" d="M72.6,-494.34C82.88,-454.83 111.57,-365.59 170,-319 177.2,-313.26 185.59,-308.83 194.35,-305.41"/>
<polygon fill="midnightblue" stroke="midnightblue" points="69.19,-493.54 70.17,-504.09 75.98,-495.23 69.19,-493.54"/>
</g>
<!-- Node35 -->
<g id="node35" class="node">
<title>Node35</title>
<g id="a_node35"><a xlink:href="class_black_misc_test_1_1_c_test_identifiable.html" target="_top" xlink:title="Test identifiable object.">
<polygon fill="none" stroke="black" points="179.5,-240.5 179.5,-259.5 352.5,-259.5 352.5,-240.5 179.5,-240.5"/>
<text text-anchor="middle" x="266" y="-247.5" font-family="Helvetica,sans-Serif" font-size="10.00">BlackMiscTest::CTestIdentifiable</text>
</a>
</g>
</g>
<!-- Node1&#45;&gt;Node35 -->
<g id="edge34" class="edge">
<title>Node1&#45;&gt;Node35</title>
<path fill="none" stroke="midnightblue" d="M70.03,-494.32C75.96,-447.35 97.76,-328.24 170,-269 174.55,-265.27 179.64,-262.2 185.02,-259.69"/>
<polygon fill="midnightblue" stroke="midnightblue" points="66.53,-494.05 68.86,-504.39 73.49,-494.86 66.53,-494.05"/>
</g>
<!-- Node36 -->
<g id="node36" class="node">
<title>Node36</title>
<g id="a_node36"><a xlink:href="class_black_sample_1_1_client.html" target="_top" xlink:title="Simple command line interface client.">
<polygon fill="none" stroke="black" points="208.5,-202.5 208.5,-221.5 323.5,-221.5 323.5,-202.5 208.5,-202.5"/>
<text text-anchor="middle" x="266" y="-209.5" font-family="Helvetica,sans-Serif" font-size="10.00">BlackSample::Client</text>
</a>
</g>
</g>
<!-- Node1&#45;&gt;Node36 -->
<g id="edge35" class="edge">
<title>Node1&#45;&gt;Node36</title>
<path fill="none" stroke="midnightblue" d="M68.81,-494.16C72.05,-442.21 88.34,-301.35 170,-231 180.7,-221.78 194.61,-216.56 208.47,-213.72"/>
<polygon fill="midnightblue" stroke="midnightblue" points="65.3,-494.19 68.27,-504.35 72.29,-494.55 65.3,-494.19"/>
</g>
<!-- Node37 -->
<g id="node37" class="node">
<title>Node37</title>
<g id="a_node37"><a xlink:href="class_black_sim_plugin_1_1_emulated_1_1_c_simulator_emulated_monitor_dialog.html" target="_top" xlink:title="Monitor widget for the pseudo driver.">
<polygon fill="none" stroke="black" points="170,-153 170,-183 362,-183 362,-153 170,-153"/>
<text text-anchor="start" x="178" y="-171" font-family="Helvetica,sans-Serif" font-size="10.00">BlackSimPlugin::Emulated</text>
<text text-anchor="middle" x="266" y="-160" font-family="Helvetica,sans-Serif" font-size="10.00">::CSimulatorEmulatedMonitorDialog</text>
</a>
</g>
</g>
<!-- Node1&#45;&gt;Node37 -->
<g id="edge36" class="edge">
<title>Node1&#45;&gt;Node37</title>
<path fill="none" stroke="midnightblue" d="M68.09,-494.13C69.48,-438.07 81.38,-277.27 170,-193 174.08,-189.12 178.68,-185.83 183.61,-183.03"/>
<polygon fill="midnightblue" stroke="midnightblue" points="64.59,-494.38 67.93,-504.44 71.59,-494.49 64.59,-494.38"/>
</g>
<!-- Node38 -->
<g id="node38" class="node">
<title>Node38</title>
<g id="a_node38"><a xlink:href="class_c_swift_core.html" target="_top" xlink:title="swift core control GUI">
<polygon fill="none" stroke="black" points="231,-114.5 231,-133.5 301,-133.5 301,-114.5 231,-114.5"/>
<text text-anchor="middle" x="266" y="-121.5" font-family="Helvetica,sans-Serif" font-size="10.00">CSwiftCore</text>
</a>
</g>
</g>
<!-- Node1&#45;&gt;Node38 -->
<g id="edge37" class="edge">
<title>Node1&#45;&gt;Node38</title>
<path fill="none" stroke="midnightblue" d="M70.7,-494.16C80.58,-424.46 116.98,-192.38 170,-143 186.12,-127.98 210.62,-123.36 230.7,-122.42"/>
<polygon fill="midnightblue" stroke="midnightblue" points="67.21,-493.84 69.3,-504.23 74.14,-494.81 67.21,-493.84"/>
</g>
<!-- Node39 -->
<g id="node39" class="node">
<title>Node39</title>
<g id="a_node39"><a xlink:href="class_c_swift_data.html" target="_top" xlink:title="swift data entry control (aka mapping tool)">
<polygon fill="none" stroke="black" points="230.5,-76.5 230.5,-95.5 301.5,-95.5 301.5,-76.5 230.5,-76.5"/>
<text text-anchor="middle" x="266" y="-83.5" font-family="Helvetica,sans-Serif" font-size="10.00">CSwiftData</text>
</a>
</g>
</g>
<!-- Node1&#45;&gt;Node39 -->
<g id="edge38" class="edge">
<title>Node1&#45;&gt;Node39</title>
<path fill="none" stroke="midnightblue" d="M70.17,-494.1C78.66,-419.82 112.07,-160.26 170,-105 185.82,-89.91 210.07,-85.24 230.11,-84.31"/>
<polygon fill="midnightblue" stroke="midnightblue" points="66.65,-494.04 69.02,-504.37 73.61,-494.82 66.65,-494.04"/>
</g>
<!-- Node40 -->
<g id="node40" class="node">
<title>Node40</title>
<g id="a_node40"><a xlink:href="class_c_swift_launcher.html" target="_top" xlink:title="swift launcher tool">
<polygon fill="none" stroke="black" points="220,-38.5 220,-57.5 312,-57.5 312,-38.5 220,-38.5"/>
<text text-anchor="middle" x="266" y="-45.5" font-family="Helvetica,sans-Serif" font-size="10.00">CSwiftLauncher</text>
</a>
</g>
</g>
<!-- Node1&#45;&gt;Node40 -->
<g id="edge39" class="edge">
<title>Node1&#45;&gt;Node40</title>
<path fill="none" stroke="midnightblue" d="M69.7,-494.29C76.85,-415.99 107.07,-128.25 170,-67 183.14,-54.21 202.31,-48.87 220,-46.95"/>
<polygon fill="midnightblue" stroke="midnightblue" points="66.21,-494 68.81,-504.27 73.18,-494.62 66.21,-494"/>
</g>
<!-- Node41 -->
<g id="node41" class="node">
<title>Node41</title>
<g id="a_node41"><a xlink:href="class_swift_gui_std.html" target="_top" xlink:title="swift GUI">
<polygon fill="none" stroke="black" points="229.5,-0.5 229.5,-19.5 302.5,-19.5 302.5,-0.5 229.5,-0.5"/>
<text text-anchor="middle" x="266" y="-7.5" font-family="Helvetica,sans-Serif" font-size="10.00">SwiftGuiStd</text>
</a>
</g>
</g>
<!-- Node1&#45;&gt;Node41 -->
<g id="edge40" class="edge">
<title>Node1&#45;&gt;Node41</title>
<path fill="none" stroke="midnightblue" d="M69.32,-494.23C75.25,-411.73 102.12,-96.22 170,-29 185.42,-13.73 209.42,-9.03 229.44,-8.12"/>
<polygon fill="midnightblue" stroke="midnightblue" points="65.83,-494.05 68.62,-504.27 72.81,-494.54 65.83,-494.05"/>
</g>
<!-- Node4 -->
<g id="node4" class="node">
<title>Node4</title>
<g id="a_node4"><a xlink:href="class_black_gui_1_1_c_gui_application.html" target="_top" xlink:title="GUI application, a specialized version of BlackCore::CApplication for GUI applications.">
<polygon fill="none" stroke="black" points="417,-1016.5 417,-1035.5 561,-1035.5 561,-1016.5 417,-1016.5"/>
<text text-anchor="middle" x="489" y="-1023.5" font-family="Helvetica,sans-Serif" font-size="10.00">BlackGui::CGuiApplication</text>
</a>
</g>
</g>
<!-- Node3&#45;&gt;Node4 -->
<g id="edge3" class="edge">
<title>Node3&#45;&gt;Node4</title>
<path fill="none" stroke="midnightblue" d="M343.11,-1026C367.04,-1026 393.37,-1026 416.94,-1026"/>
<polygon fill="midnightblue" stroke="midnightblue" points="343.01,-1022.5 333.01,-1026 343.01,-1029.5 343.01,-1022.5"/>
</g>
<!-- Node5 -->
<g id="node5" class="node">
<title>Node5</title>
<g id="a_node5"><a xlink:href="class_c_swift_gui_std_application.html" target="_top" xlink:title="Specialized GUI application for swift pilot client.">
<polygon fill="none" stroke="black" points="626,-1016.5 626,-1035.5 760,-1035.5 760,-1016.5 626,-1016.5"/>
<text text-anchor="middle" x="693" y="-1023.5" font-family="Helvetica,sans-Serif" font-size="10.00">CSwiftGuiStdApplication</text>
</a>
</g>
</g>
<!-- Node4&#45;&gt;Node5 -->
<g id="edge4" class="edge">
<title>Node4&#45;&gt;Node5</title>
<path fill="none" stroke="midnightblue" d="M571.44,-1026C589.51,-1026 608.45,-1026 625.82,-1026"/>
<polygon fill="midnightblue" stroke="midnightblue" points="571.22,-1022.5 561.22,-1026 571.22,-1029.5 571.22,-1022.5"/>
</g>
<!-- Node8 -->
<g id="node8" class="node">
<title>Node8</title>
<g id="a_node8"><a xlink:href="class_black_core_1_1_context_1_1_c_context_audio.html" target="_top" xlink:title="Audio context implementation.">
<polygon fill="none" stroke="black" points="434,-942 434,-972 544,-972 544,-942 434,-942"/>
<text text-anchor="start" x="442" y="-960" font-family="Helvetica,sans-Serif" font-size="10.00">BlackCore::Context</text>
<text text-anchor="middle" x="489" y="-949" font-family="Helvetica,sans-Serif" font-size="10.00">::CContextAudio</text>
</a>
</g>
</g>
<!-- Node7&#45;&gt;Node8 -->
<g id="edge7" class="edge">
<title>Node7&#45;&gt;Node8</title>
<path fill="none" stroke="midnightblue" d="M335.68,-940.46C367.21,-943.88 404.08,-947.89 433.64,-951.1"/>
<polygon fill="midnightblue" stroke="midnightblue" points="335.96,-936.97 325.64,-939.37 335.21,-943.93 335.96,-936.97"/>
</g>
<!-- Node9 -->
<g id="node9" class="node">
<title>Node9</title>
<g id="a_node9"><a xlink:href="class_black_core_1_1_context_1_1_c_context_audio_proxy.html" target="_top" xlink:title="Audio context proxy.">
<polygon fill="none" stroke="black" points="427.5,-893 427.5,-923 550.5,-923 550.5,-893 427.5,-893"/>
<text text-anchor="start" x="435.5" y="-911" font-family="Helvetica,sans-Serif" font-size="10.00">BlackCore::Context</text>
<text text-anchor="middle" x="489" y="-900" font-family="Helvetica,sans-Serif" font-size="10.00">::CContextAudioProxy</text>
</a>
</g>
</g>
<!-- Node7&#45;&gt;Node9 -->
<g id="edge8" class="edge">
<title>Node7&#45;&gt;Node9</title>
<path fill="none" stroke="midnightblue" d="M335.78,-925.22C365.02,-921.91 398.83,-918.09 427.15,-914.88"/>
<polygon fill="midnightblue" stroke="midnightblue" points="335.19,-921.76 325.64,-926.37 335.97,-928.72 335.19,-921.76"/>
</g>
<!-- Node14 -->
<g id="node14" class="node">
<title>Node14</title>
<g id="a_node14"><a xlink:href="class_black_sim_plugin_1_1_common_1_1_c_simulator_plugin_common.html" target="_top" xlink:title="Common base class for simulator plugins.">
<polygon fill="none" stroke="black" points="413.5,-727 413.5,-757 564.5,-757 564.5,-727 413.5,-727"/>
<text text-anchor="start" x="421.5" y="-745" font-family="Helvetica,sans-Serif" font-size="10.00">BlackSimPlugin::Common</text>
<text text-anchor="middle" x="489" y="-734" font-family="Helvetica,sans-Serif" font-size="10.00">::CSimulatorPluginCommon</text>
</a>
</g>
</g>
<!-- Node13&#45;&gt;Node14 -->
<g id="edge13" class="edge">
<title>Node13&#45;&gt;Node14</title>
<path fill="none" stroke="midnightblue" d="M337.28,-742C361.51,-742 388.73,-742 413.3,-742"/>
<polygon fill="midnightblue" stroke="midnightblue" points="337.1,-738.5 327.1,-742 337.1,-745.5 337.1,-738.5"/>
</g>
<!-- Node15 -->
<g id="node15" class="node">
<title>Node15</title>
<g id="a_node15"><a xlink:href="class_black_sim_plugin_1_1_emulated_1_1_c_simulator_emulated.html" target="_top" xlink:title="swift simulator implementation">
<polygon fill="none" stroke="black" points="620.5,-801 620.5,-831 765.5,-831 765.5,-801 620.5,-801"/>
<text text-anchor="start" x="628.5" y="-819" font-family="Helvetica,sans-Serif" font-size="10.00">BlackSimPlugin::Emulated</text>
<text text-anchor="middle" x="693" y="-808" font-family="Helvetica,sans-Serif" font-size="10.00">::CSimulatorEmulated</text>
</a>
</g>
</g>
<!-- Node14&#45;&gt;Node15 -->
<g id="edge14" class="edge">
<title>Node14&#45;&gt;Node15</title>
<path fill="none" stroke="midnightblue" d="M535.35,-760.91C559.2,-770.62 589.01,-782.4 616,-792 624.47,-795.01 633.54,-798.05 642.36,-800.89"/>
<polygon fill="midnightblue" stroke="midnightblue" points="536.44,-757.57 525.86,-757.03 533.79,-764.05 536.44,-757.57"/>
</g>
<!-- Node16 -->
<g id="node16" class="node">
<title>Node16</title>
<g id="a_node16"><a xlink:href="class_black_sim_plugin_1_1_flightgear_1_1_c_simulator_flightgear.html" target="_top" xlink:title="Flightgear ISimulator implementation.">
<polygon fill="none" stroke="black" points="619,-752 619,-782 767,-782 767,-752 619,-752"/>
<text text-anchor="start" x="627" y="-770" font-family="Helvetica,sans-Serif" font-size="10.00">BlackSimPlugin::Flightgear</text>
<text text-anchor="middle" x="693" y="-759" font-family="Helvetica,sans-Serif" font-size="10.00">::CSimulatorFlightgear</text>
</a>
</g>
</g>
<!-- Node14&#45;&gt;Node16 -->
<g id="edge15" class="edge">
<title>Node14&#45;&gt;Node16</title>
<path fill="none" stroke="midnightblue" d="M574.67,-752.48C589.3,-754.29 604.38,-756.16 618.67,-757.92"/>
<polygon fill="midnightblue" stroke="midnightblue" points="575,-748.99 564.64,-751.24 574.14,-755.94 575,-748.99"/>
</g>
<!-- Node17 -->
<g id="node17" class="node">
<title>Node17</title>
<g id="a_node17"><a xlink:href="class_black_sim_plugin_1_1_fs_common_1_1_c_simulator_fs_common.html" target="_top" xlink:title="Common base class for MS flight simulators.">
<polygon fill="none" stroke="black" points="616,-703 616,-733 770,-733 770,-703 616,-703"/>
<text text-anchor="start" x="624" y="-721" font-family="Helvetica,sans-Serif" font-size="10.00">BlackSimPlugin::FsCommon</text>
<text text-anchor="middle" x="693" y="-710" font-family="Helvetica,sans-Serif" font-size="10.00">::CSimulatorFsCommon</text>
</a>
</g>
</g>
<!-- Node14&#45;&gt;Node17 -->
<g id="edge16" class="edge">
<title>Node14&#45;&gt;Node17</title>
<path fill="none" stroke="midnightblue" d="M574.96,-731.91C588.57,-730.29 602.59,-728.62 615.98,-727.03"/>
<polygon fill="midnightblue" stroke="midnightblue" points="574.16,-728.48 564.64,-733.13 574.99,-735.43 574.16,-728.48"/>
</g>
<!-- Node23 -->
<g id="node23" class="node">
<title>Node23</title>
<g id="a_node23"><a xlink:href="class_black_sim_plugin_1_1_x_plane_1_1_c_simulator_x_plane.html" target="_top" xlink:title="X&#45;Plane ISimulator implementation.">
<polygon fill="none" stroke="black" points="627,-654 627,-684 759,-684 759,-654 627,-654"/>
<text text-anchor="start" x="635" y="-672" font-family="Helvetica,sans-Serif" font-size="10.00">BlackSimPlugin::XPlane</text>
<text text-anchor="middle" x="693" y="-661" font-family="Helvetica,sans-Serif" font-size="10.00">::CSimulatorXPlane</text>
</a>
</g>
</g>
<!-- Node14&#45;&gt;Node23 -->
<g id="edge22" class="edge">
<title>Node14&#45;&gt;Node23</title>
<path fill="none" stroke="midnightblue" d="M537.55,-723.29C561.06,-714.19 589.92,-703.25 616,-694 625.29,-690.7 635.28,-687.31 644.86,-684.13"/>
<polygon fill="midnightblue" stroke="midnightblue" points="536.21,-720.06 528.15,-726.94 538.74,-726.58 536.21,-720.06"/>
</g>
<!-- Node18 -->
<g id="node18" class="node">
<title>Node18</title>
<g id="a_node18"><a xlink:href="class_black_sim_plugin_1_1_fs9_1_1_c_simulator_fs9.html" target="_top" xlink:title="FS9 Simulator Implementation.">
<polygon fill="none" stroke="black" points="828,-727 828,-757 944,-757 944,-727 828,-727"/>
<text text-anchor="start" x="836" y="-745" font-family="Helvetica,sans-Serif" font-size="10.00">BlackSimPlugin::Fs9</text>
<text text-anchor="middle" x="886" y="-734" font-family="Helvetica,sans-Serif" font-size="10.00">::CSimulatorFs9</text>
</a>
</g>
</g>
<!-- Node17&#45;&gt;Node18 -->
<g id="edge17" class="edge">
<title>Node17&#45;&gt;Node18</title>
<path fill="none" stroke="midnightblue" d="M780.04,-728.81C796.21,-730.84 812.75,-732.92 827.77,-734.81"/>
<polygon fill="midnightblue" stroke="midnightblue" points="780.4,-725.33 770.04,-727.55 779.52,-732.27 780.4,-725.33"/>
</g>
<!-- Node19 -->
<g id="node19" class="node">
<title>Node19</title>
<g id="a_node19"><a xlink:href="class_black_sim_plugin_1_1_fsx_common_1_1_c_simulator_fsx_common.html" target="_top" xlink:title="FSX Simulator Implementation.">
<polygon fill="none" stroke="black" points="806,-678 806,-708 966,-708 966,-678 806,-678"/>
<text text-anchor="start" x="814" y="-696" font-family="Helvetica,sans-Serif" font-size="10.00">BlackSimPlugin::FsxCommon</text>
<text text-anchor="middle" x="886" y="-685" font-family="Helvetica,sans-Serif" font-size="10.00">::CSimulatorFsxCommon</text>
</a>
</g>
</g>
<!-- Node17&#45;&gt;Node19 -->
<g id="edge18" class="edge">
<title>Node17&#45;&gt;Node19</title>
<path fill="none" stroke="midnightblue" d="M780.04,-706.74C788.61,-705.62 797.28,-704.48 805.78,-703.37"/>
<polygon fill="midnightblue" stroke="midnightblue" points="779.5,-703.28 770.04,-708.05 780.41,-710.22 779.5,-703.28"/>
</g>
<!-- Node20 -->
<g id="node20" class="node">
<title>Node20</title>
<g id="a_node20"><a xlink:href="class_black_sim_plugin_1_1_fsx_1_1_c_simulator_fsx.html" target="_top" xlink:title="FSX simulator implementation.">
<polygon fill="none" stroke="black" points="1005,-727 1005,-757 1121,-757 1121,-727 1005,-727"/>
<text text-anchor="start" x="1013" y="-745" font-family="Helvetica,sans-Serif" font-size="10.00">BlackSimPlugin::Fsx</text>
<text text-anchor="middle" x="1063" y="-734" font-family="Helvetica,sans-Serif" font-size="10.00">::CSimulatorFsx</text>
</a>
</g>
</g>
<!-- Node19&#45;&gt;Node20 -->
<g id="edge19" class="edge">
<title>Node19&#45;&gt;Node20</title>
<path fill="none" stroke="midnightblue" d="M950.65,-710.82C969.54,-716.11 990.04,-721.85 1008.24,-726.95"/>
<polygon fill="midnightblue" stroke="midnightblue" points="951.51,-707.43 940.93,-708.1 949.62,-714.17 951.51,-707.43"/>
</g>
<!-- Node21 -->
<g id="node21" class="node">
<title>Node21</title>
<g id="a_node21"><a xlink:href="class_black_sim_plugin_1_1_msfs_1_1_c_simulator_ms_fs.html" target="_top" xlink:title="FSX simulator implementation.">
<polygon fill="none" stroke="black" points="1002,-678 1002,-708 1124,-708 1124,-678 1002,-678"/>
<text text-anchor="start" x="1010" y="-696" font-family="Helvetica,sans-Serif" font-size="10.00">BlackSimPlugin::Msfs</text>
<text text-anchor="middle" x="1063" y="-685" font-family="Helvetica,sans-Serif" font-size="10.00">::CSimulatorMsFs</text>
</a>
</g>
</g>
<!-- Node19&#45;&gt;Node21 -->
<g id="edge20" class="edge">
<title>Node19&#45;&gt;Node21</title>
<path fill="none" stroke="midnightblue" d="M976.25,-693C984.94,-693 993.61,-693 1001.92,-693"/>
<polygon fill="midnightblue" stroke="midnightblue" points="976.05,-689.5 966.05,-693 976.05,-696.5 976.05,-689.5"/>
</g>
<!-- Node22 -->
<g id="node22" class="node">
<title>Node22</title>
<g id="a_node22"><a xlink:href="class_black_sim_plugin_1_1_p3_d_1_1_c_simulator_p3_d.html" target="_top" xlink:title="P3D Simulator Implementation.">
<polygon fill="none" stroke="black" points="1004,-629 1004,-659 1122,-659 1122,-629 1004,-629"/>
<text text-anchor="start" x="1012" y="-647" font-family="Helvetica,sans-Serif" font-size="10.00">BlackSimPlugin::P3D</text>
<text text-anchor="middle" x="1063" y="-636" font-family="Helvetica,sans-Serif" font-size="10.00">::CSimulatorP3D</text>
</a>
</g>
</g>
<!-- Node19&#45;&gt;Node22 -->
<g id="edge21" class="edge">
<title>Node19&#45;&gt;Node22</title>
<path fill="none" stroke="midnightblue" d="M950.65,-675.18C969.54,-669.89 990.04,-664.15 1008.24,-659.05"/>
<polygon fill="midnightblue" stroke="midnightblue" points="949.62,-671.83 940.93,-677.9 951.51,-678.57 949.62,-671.83"/>
</g>
<!-- Node33 -->
<g id="node33" class="node">
<title>Node33</title>
<g id="a_node33"><a xlink:href="class_black_core_1_1_c_airspace_monitor.html" target="_top" xlink:title="Keeps track of other entities in the airspace: aircraft, ATC stations, etc. Central instance of data ...">
<polygon fill="none" stroke="black" points="410,-306.5 410,-325.5 568,-325.5 568,-306.5 410,-306.5"/>
<text text-anchor="middle" x="489" y="-313.5" font-family="Helvetica,sans-Serif" font-size="10.00">BlackCore::CAirspaceMonitor</text>
</a>
</g>
</g>
<!-- Node32&#45;&gt;Node33 -->
<g id="edge32" class="edge">
<title>Node32&#45;&gt;Node33</title>
<path fill="none" stroke="midnightblue" d="M347.65,-302.03C367.9,-304.04 389.58,-306.2 409.71,-308.21"/>
<polygon fill="midnightblue" stroke="midnightblue" points="347.83,-298.53 337.53,-301.02 347.14,-305.49 347.83,-298.53"/>
</g>
<!-- Node34 -->
<g id="node34" class="node">
<title>Node34</title>
<g id="a_node34"><a xlink:href="class_black_misc_1_1_simulation_1_1_c_remote_aircraft_provider_dummy.html" target="_top" xlink:title="Dummy implementation for testing purpose.">
<polygon fill="none" stroke="black" points="398,-257 398,-287 580,-287 580,-257 398,-257"/>
<text text-anchor="start" x="406" y="-275" font-family="Helvetica,sans-Serif" font-size="10.00">BlackMisc::Simulation</text>
<text text-anchor="middle" x="489" y="-264" font-family="Helvetica,sans-Serif" font-size="10.00">::CRemoteAircraftProviderDummy</text>
</a>
</g>
</g>
<!-- Node32&#45;&gt;Node34 -->
<g id="edge33" class="edge">
<title>Node32&#45;&gt;Node34</title>
<path fill="none" stroke="midnightblue" d="M347.58,-285.98C363.95,-284.35 381.26,-282.63 397.92,-280.97"/>
<polygon fill="midnightblue" stroke="midnightblue" points="347.14,-282.51 337.53,-286.98 347.83,-289.47 347.14,-282.51"/>
</g>
</g>
</svg>
