<?xml version="1.0" encoding="UTF-8" standalone="no"?>
<!DOCTYPE svg PUBLIC "-//W3C//DTD SVG 1.1//EN"
 "http://www.w3.org/Graphics/SVG/1.1/DTD/svg11.dtd">
<!-- Generated by graphviz version 2.43.0 (0)
 -->
<!-- Title: BlackGui::Components::CCockpitComponent Pages: 1 -->
<svg width="332pt" height="408pt"
 viewBox="0.00 0.00 332.00 408.00" xmlns="http://www.w3.org/2000/svg" xmlns:xlink="http://www.w3.org/1999/xlink">
<g id="graph0" class="graph" transform="scale(1 1) rotate(0) translate(4 404)">
<title>BlackGui::Components::CCockpitComponent</title>
<!-- Node1 -->
<g id="node1" class="node">
<title>Node1</title>
<g id="a_node1"><a xlink:title="Cockpit component: COM unit, show / hide bar, voice rooms.">
<polygon fill="#bfbfbf" stroke="black" points="101,-0.5 101,-30.5 229,-30.5 229,-0.5 101,-0.5"/>
<text text-anchor="start" x="109" y="-18.5" font-family="Helvetica,sans-Serif" font-size="10.00">BlackGui::Components</text>
<text text-anchor="middle" x="165" y="-7.5" font-family="Helvetica,sans-Serif" font-size="10.00">::CCockpitComponent</text>
</a>
</g>
</g>
<!-- Node2 -->
<g id="node2" class="node">
<title>Node2</title>
<g id="a_node2"><a xlink:href="class_black_gui_1_1_c_overlay_messages_frame_enable_for_dock_widget_info_area.html" target="_top" xlink:title="Using this class provides a QFrame with the overlay and dock widget functionality already integrated.">
<polygon fill="none" stroke="black" points="67,-67.5 67,-97.5 263,-97.5 263,-67.5 67,-67.5"/>
<text text-anchor="start" x="75" y="-85.5" font-family="Helvetica,sans-Serif" font-size="10.00">BlackGui::COverlayMessages</text>
<text text-anchor="middle" x="165" y="-74.5" font-family="Helvetica,sans-Serif" font-size="10.00">FrameEnableForDockWidgetInfoArea</text>
</a>
</g>
</g>
<!-- Node2&#45;&gt;Node1 -->
<g id="edge1" class="edge">
<title>Node2&#45;&gt;Node1</title>
<path fill="none" stroke="midnightblue" d="M165,-57.11C165,-48.15 165,-38.32 165,-30.58"/>
<polygon fill="midnightblue" stroke="midnightblue" points="161.5,-57.4 165,-67.4 168.5,-57.4 161.5,-57.4"/>
</g>
<!-- Node3 -->
<g id="node3" class="node">
<title>Node3</title>
<g id="a_node3"><a xlink:href="class_black_gui_1_1_c_overlay_messages_frame.html" target="_top" xlink:title="Using this class provides a QFrame with the overlay functionality already integrated.">
<polygon fill="none" stroke="black" points="0,-134.5 0,-164.5 160,-164.5 160,-134.5 0,-134.5"/>
<text text-anchor="start" x="8" y="-152.5" font-family="Helvetica,sans-Serif" font-size="10.00">BlackGui::COverlayMessages</text>
<text text-anchor="middle" x="80" y="-141.5" font-family="Helvetica,sans-Serif" font-size="10.00">Frame</text>
</a>
</g>
</g>
<!-- Node3&#45;&gt;Node2 -->
<g id="edge2" class="edge">
<title>Node3&#45;&gt;Node2</title>
<path fill="none" stroke="midnightblue" d="M106.59,-128.17C119.59,-118.23 134.9,-106.51 146.59,-97.58"/>
<polygon fill="midnightblue" stroke="midnightblue" points="104.26,-125.54 98.44,-134.4 108.51,-131.1 104.26,-125.54"/>
</g>
<!-- Node4 -->
<g id="node4" class="node">
<title>Node4</title>
<g id="a_node4"><a xlink:href="class_black_gui_1_1_c_overlay_messages_base.html" target="_top" xlink:title=" ">
<polygon fill="none" stroke="black" points="0,-201.5 0,-231.5 160,-231.5 160,-201.5 0,-201.5"/>
<text text-anchor="start" x="8" y="-219.5" font-family="Helvetica,sans-Serif" font-size="10.00">BlackGui::COverlayMessages</text>
<text text-anchor="middle" x="80" y="-208.5" font-family="Helvetica,sans-Serif" font-size="10.00">Base&lt; QFrame &gt;</text>
</a>
</g>
</g>
<!-- Node4&#45;&gt;Node3 -->
<g id="edge3" class="edge">
<title>Node4&#45;&gt;Node3</title>
<path fill="none" stroke="midnightblue" d="M80,-191.11C80,-182.15 80,-172.32 80,-164.58"/>
<polygon fill="midnightblue" stroke="midnightblue" points="76.5,-191.4 80,-201.4 83.5,-191.4 76.5,-191.4"/>
</g>
<!-- Node5 -->
<g id="node5" class="node">
<title>Node5</title>
<g id="a_node5"><a target="_parent" xlink:href="http://doc.qt.io/qt-5/qframe.html" xlink:title=" ">
<polygon fill="none" stroke="black" points="52.5,-268.5 52.5,-287.5 107.5,-287.5 107.5,-268.5 52.5,-268.5"/>
<text text-anchor="middle" x="80" y="-275.5" font-family="Helvetica,sans-Serif" font-size="10.00">QFrame</text>
</a>
</g>
</g>
<!-- Node5&#45;&gt;Node4 -->
<g id="edge4" class="edge">
<title>Node5&#45;&gt;Node4</title>
<path fill="none" stroke="midnightblue" d="M80,-258.23C80,-249.59 80,-239.5 80,-231.52"/>
<polygon fill="midnightblue" stroke="midnightblue" points="76.5,-258.48 80,-268.48 83.5,-258.48 76.5,-258.48"/>
</g>
<!-- Node6 -->
<g id="node6" class="node">
<title>Node6</title>
<g id="a_node6"><a target="_parent" xlink:href="http://doc.qt.io/qt-5/qwidget.html" xlink:title=" ">
<polygon fill="none" stroke="black" points="50.5,-324.5 50.5,-343.5 109.5,-343.5 109.5,-324.5 50.5,-324.5"/>
<text text-anchor="middle" x="80" y="-331.5" font-family="Helvetica,sans-Serif" font-size="10.00">QWidget</text>
</a>
</g>
</g>
<!-- Node6&#45;&gt;Node5 -->
<g id="edge5" class="edge">
<title>Node6&#45;&gt;Node5</title>
<path fill="none" stroke="midnightblue" d="M80,-313.8C80,-304.91 80,-294.78 80,-287.75"/>
<polygon fill="midnightblue" stroke="midnightblue" points="76.5,-314.08 80,-324.08 83.5,-314.08 76.5,-314.08"/>
</g>
<!-- Node7 -->
<g id="node7" class="node">
<title>Node7</title>
<g id="a_node7"><a target="_parent" xlink:href="http://doc.qt.io/qt-5/qobject.html" xlink:title=" ">
<polygon fill="none" stroke="black" points="9,-380.5 9,-399.5 65,-399.5 65,-380.5 9,-380.5"/>
<text text-anchor="middle" x="37" y="-387.5" font-family="Helvetica,sans-Serif" font-size="10.00">QObject</text>
</a>
</g>
</g>
<!-- Node7&#45;&gt;Node6 -->
<g id="edge6" class="edge">
<title>Node7&#45;&gt;Node6</title>
<path fill="none" stroke="midnightblue" d="M50.42,-372.14C57.91,-362.74 66.94,-351.4 73.03,-343.75"/>
<polygon fill="midnightblue" stroke="midnightblue" points="47.59,-370.08 44.1,-380.08 53.07,-374.44 47.59,-370.08"/>
</g>
<!-- Node8 -->
<g id="node8" class="node">
<title>Node8</title>
<g id="a_node8"><a target="_parent" xlink:href="http://doc.qt.io/qt-5/qpaintdevice.html" xlink:title=" ">
<polygon fill="none" stroke="black" points="83,-380.5 83,-399.5 165,-399.5 165,-380.5 83,-380.5"/>
<text text-anchor="middle" x="124" y="-387.5" font-family="Helvetica,sans-Serif" font-size="10.00">QPaintDevice</text>
</a>
</g>
</g>
<!-- Node8&#45;&gt;Node6 -->
<g id="edge7" class="edge">
<title>Node8&#45;&gt;Node6</title>
<path fill="none" stroke="midnightblue" d="M110.27,-372.14C102.6,-362.74 93.37,-351.4 87.13,-343.75"/>
<polygon fill="midnightblue" stroke="midnightblue" points="107.7,-374.54 116.73,-380.08 113.13,-370.12 107.7,-374.54"/>
</g>
<!-- Node9 -->
<g id="node9" class="node">
<title>Node9</title>
<g id="a_node9"><a xlink:href="class_black_gui_1_1_c_enable_for_dock_widget_info_area.html" target="_top" xlink:title="Helper class: If a component is residing in an dockable widget. This class provides access to its inf...">
<polygon fill="none" stroke="black" points="178,-134.5 178,-164.5 324,-164.5 324,-134.5 178,-134.5"/>
<text text-anchor="start" x="186" y="-152.5" font-family="Helvetica,sans-Serif" font-size="10.00">BlackGui::CEnableForDock</text>
<text text-anchor="middle" x="251" y="-141.5" font-family="Helvetica,sans-Serif" font-size="10.00">WidgetInfoArea</text>
</a>
</g>
</g>
<!-- Node9&#45;&gt;Node2 -->
<g id="edge8" class="edge">
<title>Node9&#45;&gt;Node2</title>
<path fill="none" stroke="midnightblue" d="M224.1,-128.17C210.95,-118.23 195.45,-106.51 183.62,-97.58"/>
<polygon fill="midnightblue" stroke="midnightblue" points="222.25,-131.16 232.34,-134.4 226.47,-125.57 222.25,-131.16"/>
</g>
</g>
</svg>
