<?xml version="1.0" encoding="UTF-8" standalone="no"?>
<!DOCTYPE svg PUBLIC "-//W3C//DTD SVG 1.1//EN"
 "http://www.w3.org/Graphics/SVG/1.1/DTD/svg11.dtd">
<!-- Generated by graphviz version 2.43.0 (0)
 -->
<!-- Title: BlackMisc::Simulation::Settings::CXSwiftBusSettingsQtFree Pages: 1 -->
<svg width="308pt" height="117pt"
 viewBox="0.00 0.00 308.00 117.00" xmlns="http://www.w3.org/2000/svg" xmlns:xlink="http://www.w3.org/1999/xlink">
<g id="graph0" class="graph" transform="scale(1 1) rotate(0) translate(4 113)">
<title>BlackMisc::Simulation::Settings::CXSwiftBusSettingsQtFree</title>
<!-- Node1 -->
<g id="node1" class="node">
<title>Node1</title>
<g id="a_node1"><a xlink:title="XSwiftBus/swift side settings class, JSON capable, shared among all services.">
<polygon fill="#bfbfbf" stroke="black" points="79,-67.5 79,-108.5 243,-108.5 243,-67.5 79,-67.5"/>
<text text-anchor="start" x="87" y="-96.5" font-family="Helvetica,sans-Serif" font-size="10.00">BlackMisc::Simulation</text>
<text text-anchor="start" x="87" y="-85.5" font-family="Helvetica,sans-Serif" font-size="10.00">::Settings::CXSwiftBusSettings</text>
<text text-anchor="middle" x="161" y="-74.5" font-family="Helvetica,sans-Serif" font-size="10.00">QtFree</text>
</a>
</g>
</g>
<!-- Node2 -->
<g id="node2" class="node">
<title>Node2</title>
<g id="a_node2"><a xlink:href="class_black_misc_1_1_simulation_1_1_settings_1_1_c_x_swift_bus_settings.html" target="_top" xlink:title="XSwiftBus settings.">
<polygon fill="none" stroke="black" points="0,-0.5 0,-30.5 164,-30.5 164,-0.5 0,-0.5"/>
<text text-anchor="start" x="8" y="-18.5" font-family="Helvetica,sans-Serif" font-size="10.00">BlackMisc::Simulation</text>
<text text-anchor="middle" x="82" y="-7.5" font-family="Helvetica,sans-Serif" font-size="10.00">::Settings::CXSwiftBusSettings</text>
</a>
</g>
</g>
<!-- Node1&#45;&gt;Node2 -->
<g id="edge1" class="edge">
<title>Node1&#45;&gt;Node2</title>
<path fill="none" stroke="midnightblue" d="M131.36,-60.55C120,-50.41 107.47,-39.23 97.88,-30.67"/>
<polygon fill="midnightblue" stroke="midnightblue" points="129.2,-63.31 138.99,-67.36 133.86,-58.09 129.2,-63.31"/>
</g>
<!-- Node3 -->
<g id="node3" class="node">
<title>Node3</title>
<g id="a_node3"><a xlink:href="class_x_swift_bus_1_1_c_settings.html" target="_top" xlink:title="XSwiftBus/swift side settings class, JSON capable, shared among all services.">
<polygon fill="none" stroke="black" points="182,-6 182,-25 300,-25 300,-6 182,-6"/>
<text text-anchor="middle" x="241" y="-13" font-family="Helvetica,sans-Serif" font-size="10.00">XSwiftBus::CSettings</text>
</a>
</g>
</g>
<!-- Node1&#45;&gt;Node3 -->
<g id="edge2" class="edge">
<title>Node1&#45;&gt;Node3</title>
<path fill="none" stroke="midnightblue" d="M190.94,-60.62C205.14,-48.1 221.15,-33.99 231.16,-25.17"/>
<polygon fill="midnightblue" stroke="midnightblue" points="188.47,-58.12 183.28,-67.36 193.1,-63.38 188.47,-58.12"/>
</g>
</g>
</svg>
