<?xml version="1.0" encoding="UTF-8" standalone="no"?>
<!DOCTYPE svg PUBLIC "-//W3C//DTD SVG 1.1//EN"
 "http://www.w3.org/Graphics/SVG/1.1/DTD/svg11.dtd">
<!-- Generated by graphviz version 2.43.0 (0)
 -->
<!-- Title: BlackGui::Components::CDbModelComponent Pages: 1 -->
<svg width="845pt" height="200pt"
 viewBox="0.00 0.00 845.00 199.50" xmlns="http://www.w3.org/2000/svg" xmlns:xlink="http://www.w3.org/1999/xlink">
<g id="graph0" class="graph" transform="scale(1 1) rotate(0) translate(4 195.5)">
<title>BlackGui::Components::CDbModelComponent</title>
<!-- Node1 -->
<g id="node1" class="node">
<title>Node1</title>
<g id="a_node1"><a xlink:title="Database models.">
<polygon fill="#bfbfbf" stroke="black" points="708,-73.5 708,-103.5 837,-103.5 837,-73.5 708,-73.5"/>
<text text-anchor="start" x="716" y="-91.5" font-family="Helvetica,sans-Serif" font-size="10.00">BlackGui::Components</text>
<text text-anchor="middle" x="772.5" y="-80.5" font-family="Helvetica,sans-Serif" font-size="10.00">::CDbModelComponent</text>
</a>
</g>
</g>
<!-- Node2 -->
<g id="node2" class="node">
<title>Node2</title>
<g id="a_node2"><a xlink:href="class_black_gui_1_1_c_overlay_messages_frame.html" target="_top" xlink:title="Using this class provides a QFrame with the overlay functionality already integrated.">
<polygon fill="none" stroke="black" points="506,-147.5 506,-177.5 666,-177.5 666,-147.5 506,-147.5"/>
<text text-anchor="start" x="514" y="-165.5" font-family="Helvetica,sans-Serif" font-size="10.00">BlackGui::COverlayMessages</text>
<text text-anchor="middle" x="586" y="-154.5" font-family="Helvetica,sans-Serif" font-size="10.00">Frame</text>
</a>
</g>
</g>
<!-- Node2&#45;&gt;Node1 -->
<g id="edge1" class="edge">
<title>Node2&#45;&gt;Node1</title>
<path fill="none" stroke="midnightblue" d="M652.81,-144.37C659.35,-142.2 665.84,-139.9 672,-137.5 697.12,-127.71 724.52,-113.97 744.2,-103.53"/>
<polygon fill="midnightblue" stroke="midnightblue" points="651.69,-141.05 643.24,-147.44 653.83,-147.72 651.69,-141.05"/>
</g>
<!-- Node3 -->
<g id="node3" class="node">
<title>Node3</title>
<g id="a_node3"><a xlink:href="class_black_gui_1_1_c_overlay_messages_base.html" target="_top" xlink:title=" ">
<polygon fill="none" stroke="black" points="304,-147.5 304,-177.5 464,-177.5 464,-147.5 304,-147.5"/>
<text text-anchor="start" x="312" y="-165.5" font-family="Helvetica,sans-Serif" font-size="10.00">BlackGui::COverlayMessages</text>
<text text-anchor="middle" x="384" y="-154.5" font-family="Helvetica,sans-Serif" font-size="10.00">Base&lt; QFrame &gt;</text>
</a>
</g>
</g>
<!-- Node3&#45;&gt;Node2 -->
<g id="edge2" class="edge">
<title>Node3&#45;&gt;Node2</title>
<path fill="none" stroke="midnightblue" d="M474.12,-162.5C484.7,-162.5 495.45,-162.5 505.87,-162.5"/>
<polygon fill="midnightblue" stroke="midnightblue" points="474.05,-159 464.05,-162.5 474.05,-166 474.05,-159"/>
</g>
<!-- Node4 -->
<g id="node4" class="node">
<title>Node4</title>
<g id="a_node4"><a target="_parent" xlink:href="http://doc.qt.io/qt-5/qframe.html" xlink:title=" ">
<polygon fill="none" stroke="black" points="213,-153 213,-172 268,-172 268,-153 213,-153"/>
<text text-anchor="middle" x="240.5" y="-160" font-family="Helvetica,sans-Serif" font-size="10.00">QFrame</text>
</a>
</g>
</g>
<!-- Node4&#45;&gt;Node3 -->
<g id="edge3" class="edge">
<title>Node4&#45;&gt;Node3</title>
<path fill="none" stroke="midnightblue" d="M278.17,-162.5C286.19,-162.5 294.98,-162.5 303.95,-162.5"/>
<polygon fill="midnightblue" stroke="midnightblue" points="278.12,-159 268.12,-162.5 278.12,-166 278.12,-159"/>
</g>
<!-- Node5 -->
<g id="node5" class="node">
<title>Node5</title>
<g id="a_node5"><a target="_parent" xlink:href="http://doc.qt.io/qt-5/qwidget.html" xlink:title=" ">
<polygon fill="none" stroke="black" points="118,-153 118,-172 177,-172 177,-153 118,-153"/>
<text text-anchor="middle" x="147.5" y="-160" font-family="Helvetica,sans-Serif" font-size="10.00">QWidget</text>
</a>
</g>
</g>
<!-- Node5&#45;&gt;Node4 -->
<g id="edge4" class="edge">
<title>Node5&#45;&gt;Node4</title>
<path fill="none" stroke="midnightblue" d="M187.46,-162.5C195.99,-162.5 204.83,-162.5 212.75,-162.5"/>
<polygon fill="midnightblue" stroke="midnightblue" points="187.29,-159 177.29,-162.5 187.29,-166 187.29,-159"/>
</g>
<!-- Node6 -->
<g id="node6" class="node">
<title>Node6</title>
<g id="a_node6"><a target="_parent" xlink:href="http://doc.qt.io/qt-5/qobject.html" xlink:title=" ">
<polygon fill="none" stroke="black" points="13,-172 13,-191 69,-191 69,-172 13,-172"/>
<text text-anchor="middle" x="41" y="-179" font-family="Helvetica,sans-Serif" font-size="10.00">QObject</text>
</a>
</g>
</g>
<!-- Node6&#45;&gt;Node5 -->
<g id="edge5" class="edge">
<title>Node6&#45;&gt;Node5</title>
<path fill="none" stroke="midnightblue" d="M79.09,-174.76C91.88,-172.43 106,-169.86 117.99,-167.68"/>
<polygon fill="midnightblue" stroke="midnightblue" points="78.4,-171.33 69.18,-176.56 79.65,-178.21 78.4,-171.33"/>
</g>
<!-- Node7 -->
<g id="node7" class="node">
<title>Node7</title>
<g id="a_node7"><a target="_parent" xlink:href="http://doc.qt.io/qt-5/qpaintdevice.html" xlink:title=" ">
<polygon fill="none" stroke="black" points="0,-134 0,-153 82,-153 82,-134 0,-134"/>
<text text-anchor="middle" x="41" y="-141" font-family="Helvetica,sans-Serif" font-size="10.00">QPaintDevice</text>
</a>
</g>
</g>
<!-- Node7&#45;&gt;Node5 -->
<g id="edge6" class="edge">
<title>Node7&#45;&gt;Node5</title>
<path fill="none" stroke="midnightblue" d="M91.97,-152.59C100.8,-154.19 109.71,-155.81 117.69,-157.26"/>
<polygon fill="midnightblue" stroke="midnightblue" points="92.57,-149.14 82.1,-150.79 91.32,-156.02 92.57,-149.14"/>
</g>
<!-- Node8 -->
<g id="node8" class="node">
<title>Node8</title>
<g id="a_node8"><a xlink:href="class_black_gui_1_1_components_1_1_c_db_mapping_component_aware.html" target="_top" xlink:title="Allows subcomponents to gain access to model component.">
<polygon fill="none" stroke="black" points="500,-98.5 500,-128.5 672,-128.5 672,-98.5 500,-98.5"/>
<text text-anchor="start" x="508" y="-116.5" font-family="Helvetica,sans-Serif" font-size="10.00">BlackGui::Components</text>
<text text-anchor="middle" x="586" y="-105.5" font-family="Helvetica,sans-Serif" font-size="10.00">::CDbMappingComponentAware</text>
</a>
</g>
</g>
<!-- Node8&#45;&gt;Node1 -->
<g id="edge7" class="edge">
<title>Node8&#45;&gt;Node1</title>
<path fill="none" stroke="midnightblue" d="M682.37,-100.58C691,-99.41 699.6,-98.24 707.86,-97.12"/>
<polygon fill="midnightblue" stroke="midnightblue" points="681.67,-97.14 672.23,-101.95 682.61,-104.08 681.67,-97.14"/>
</g>
<!-- Node9 -->
<g id="node9" class="node">
<title>Node9</title>
<g id="a_node9"><a xlink:href="class_black_gui_1_1_c_enable_for_dock_widget_info_area.html" target="_top" xlink:title="Helper class: If a component is residing in an dockable widget. This class provides access to its inf...">
<polygon fill="none" stroke="black" points="513,-49.5 513,-79.5 659,-79.5 659,-49.5 513,-49.5"/>
<text text-anchor="start" x="521" y="-67.5" font-family="Helvetica,sans-Serif" font-size="10.00">BlackGui::CEnableForDock</text>
<text text-anchor="middle" x="586" y="-56.5" font-family="Helvetica,sans-Serif" font-size="10.00">WidgetInfoArea</text>
</a>
</g>
</g>
<!-- Node9&#45;&gt;Node1 -->
<g id="edge8" class="edge">
<title>Node9&#45;&gt;Node1</title>
<path fill="none" stroke="midnightblue" d="M669.39,-75.22C682.28,-76.89 695.43,-78.61 707.82,-80.22"/>
<polygon fill="midnightblue" stroke="midnightblue" points="669.49,-71.7 659.13,-73.88 668.59,-78.64 669.49,-71.7"/>
</g>
<!-- Node10 -->
<g id="node10" class="node">
<title>Node10</title>
<g id="a_node10"><a xlink:href="class_black_gui_1_1_c_enable_for_view_based_indicator.html" target="_top" xlink:title="Hand over indication task to an embedded view.">
<polygon fill="none" stroke="black" points="513.5,-0.5 513.5,-30.5 658.5,-30.5 658.5,-0.5 513.5,-0.5"/>
<text text-anchor="start" x="521.5" y="-18.5" font-family="Helvetica,sans-Serif" font-size="10.00">BlackGui::CEnableForView</text>
<text text-anchor="middle" x="586" y="-7.5" font-family="Helvetica,sans-Serif" font-size="10.00">BasedIndicator</text>
</a>
</g>
</g>
<!-- Node10&#45;&gt;Node1 -->
<g id="edge9" class="edge">
<title>Node10&#45;&gt;Node1</title>
<path fill="none" stroke="midnightblue" d="M655.19,-33.56C660.92,-35.44 666.59,-37.42 672,-39.5 697.17,-49.16 724.57,-62.91 744.23,-73.38"/>
<polygon fill="midnightblue" stroke="midnightblue" points="656.12,-30.18 645.53,-30.51 654.01,-36.86 656.12,-30.18"/>
</g>
</g>
</svg>
