<?xml version="1.0" encoding="UTF-8" standalone="no"?>
<!DOCTYPE svg PUBLIC "-//W3C//DTD SVG 1.1//EN"
 "http://www.w3.org/Graphics/SVG/1.1/DTD/svg11.dtd">
<!-- Generated by graphviz version 2.43.0 (0)
 -->
<!-- Title: BlackSimPlugin::XPlane::CSimulatorXPlaneConfigWindow Pages: 1 -->
<svg width="188pt" height="397pt"
 viewBox="0.00 0.00 188.00 397.00" xmlns="http://www.w3.org/2000/svg" xmlns:xlink="http://www.w3.org/1999/xlink">
<g id="graph0" class="graph" transform="scale(1 1) rotate(0) translate(4 393)">
<title>BlackSimPlugin::XPlane::CSimulatorXPlaneConfigWindow</title>
<!-- Node1 -->
<g id="node1" class="node">
<title>Node1</title>
<g id="a_node1"><a xlink:title="A window that shows all the X&#45;Plane plugin options.">
<polygon fill="#bfbfbf" stroke="black" points="0,-0.5 0,-30.5 180,-30.5 180,-0.5 0,-0.5"/>
<text text-anchor="start" x="8" y="-18.5" font-family="Helvetica,sans-Serif" font-size="10.00">BlackSimPlugin::XPlane</text>
<text text-anchor="middle" x="90" y="-7.5" font-family="Helvetica,sans-Serif" font-size="10.00">::CSimulatorXPlaneConfigWindow</text>
</a>
</g>
</g>
<!-- Node2 -->
<g id="node2" class="node">
<title>Node2</title>
<g id="a_node2"><a xlink:href="class_black_gui_1_1_c_plugin_config_window.html" target="_top" xlink:title="Base class for plugin config window.">
<polygon fill="none" stroke="black" points="3.5,-67.5 3.5,-86.5 176.5,-86.5 176.5,-67.5 3.5,-67.5"/>
<text text-anchor="middle" x="90" y="-74.5" font-family="Helvetica,sans-Serif" font-size="10.00">BlackGui::CPluginConfigWindow</text>
</a>
</g>
</g>
<!-- Node2&#45;&gt;Node1 -->
<g id="edge1" class="edge">
<title>Node2&#45;&gt;Node1</title>
<path fill="none" stroke="midnightblue" d="M90,-57.23C90,-48.59 90,-38.5 90,-30.52"/>
<polygon fill="midnightblue" stroke="midnightblue" points="86.5,-57.48 90,-67.48 93.5,-57.48 86.5,-57.48"/>
</g>
<!-- Node3 -->
<g id="node3" class="node">
<title>Node3</title>
<g id="a_node3"><a xlink:href="class_black_gui_1_1_c_overlay_messages_frame.html" target="_top" xlink:title="Using this class provides a QFrame with the overlay functionality already integrated.">
<polygon fill="none" stroke="black" points="10,-123.5 10,-153.5 170,-153.5 170,-123.5 10,-123.5"/>
<text text-anchor="start" x="18" y="-141.5" font-family="Helvetica,sans-Serif" font-size="10.00">BlackGui::COverlayMessages</text>
<text text-anchor="middle" x="90" y="-130.5" font-family="Helvetica,sans-Serif" font-size="10.00">Frame</text>
</a>
</g>
</g>
<!-- Node3&#45;&gt;Node2 -->
<g id="edge2" class="edge">
<title>Node3&#45;&gt;Node2</title>
<path fill="none" stroke="midnightblue" d="M90,-113.29C90,-103.86 90,-93.65 90,-86.66"/>
<polygon fill="midnightblue" stroke="midnightblue" points="86.5,-113.4 90,-123.4 93.5,-113.4 86.5,-113.4"/>
</g>
<!-- Node4 -->
<g id="node4" class="node">
<title>Node4</title>
<g id="a_node4"><a xlink:href="class_black_gui_1_1_c_overlay_messages_base.html" target="_top" xlink:title=" ">
<polygon fill="none" stroke="black" points="10,-190.5 10,-220.5 170,-220.5 170,-190.5 10,-190.5"/>
<text text-anchor="start" x="18" y="-208.5" font-family="Helvetica,sans-Serif" font-size="10.00">BlackGui::COverlayMessages</text>
<text text-anchor="middle" x="90" y="-197.5" font-family="Helvetica,sans-Serif" font-size="10.00">Base&lt; QFrame &gt;</text>
</a>
</g>
</g>
<!-- Node4&#45;&gt;Node3 -->
<g id="edge3" class="edge">
<title>Node4&#45;&gt;Node3</title>
<path fill="none" stroke="midnightblue" d="M90,-180.11C90,-171.15 90,-161.32 90,-153.58"/>
<polygon fill="midnightblue" stroke="midnightblue" points="86.5,-180.4 90,-190.4 93.5,-180.4 86.5,-180.4"/>
</g>
<!-- Node5 -->
<g id="node5" class="node">
<title>Node5</title>
<g id="a_node5"><a target="_parent" xlink:href="http://doc.qt.io/qt-5/qframe.html" xlink:title=" ">
<polygon fill="none" stroke="black" points="62.5,-257.5 62.5,-276.5 117.5,-276.5 117.5,-257.5 62.5,-257.5"/>
<text text-anchor="middle" x="90" y="-264.5" font-family="Helvetica,sans-Serif" font-size="10.00">QFrame</text>
</a>
</g>
</g>
<!-- Node5&#45;&gt;Node4 -->
<g id="edge4" class="edge">
<title>Node5&#45;&gt;Node4</title>
<path fill="none" stroke="midnightblue" d="M90,-247.23C90,-238.59 90,-228.5 90,-220.52"/>
<polygon fill="midnightblue" stroke="midnightblue" points="86.5,-247.48 90,-257.48 93.5,-247.48 86.5,-247.48"/>
</g>
<!-- Node6 -->
<g id="node6" class="node">
<title>Node6</title>
<g id="a_node6"><a target="_parent" xlink:href="http://doc.qt.io/qt-5/qwidget.html" xlink:title=" ">
<polygon fill="none" stroke="black" points="60.5,-313.5 60.5,-332.5 119.5,-332.5 119.5,-313.5 60.5,-313.5"/>
<text text-anchor="middle" x="90" y="-320.5" font-family="Helvetica,sans-Serif" font-size="10.00">QWidget</text>
</a>
</g>
</g>
<!-- Node6&#45;&gt;Node5 -->
<g id="edge5" class="edge">
<title>Node6&#45;&gt;Node5</title>
<path fill="none" stroke="midnightblue" d="M90,-302.8C90,-293.91 90,-283.78 90,-276.75"/>
<polygon fill="midnightblue" stroke="midnightblue" points="86.5,-303.08 90,-313.08 93.5,-303.08 86.5,-303.08"/>
</g>
<!-- Node7 -->
<g id="node7" class="node">
<title>Node7</title>
<g id="a_node7"><a target="_parent" xlink:href="http://doc.qt.io/qt-5/qobject.html" xlink:title=" ">
<polygon fill="none" stroke="black" points="19,-369.5 19,-388.5 75,-388.5 75,-369.5 19,-369.5"/>
<text text-anchor="middle" x="47" y="-376.5" font-family="Helvetica,sans-Serif" font-size="10.00">QObject</text>
</a>
</g>
</g>
<!-- Node7&#45;&gt;Node6 -->
<g id="edge6" class="edge">
<title>Node7&#45;&gt;Node6</title>
<path fill="none" stroke="midnightblue" d="M60.42,-361.14C67.91,-351.74 76.94,-340.4 83.03,-332.75"/>
<polygon fill="midnightblue" stroke="midnightblue" points="57.59,-359.08 54.1,-369.08 63.07,-363.44 57.59,-359.08"/>
</g>
<!-- Node8 -->
<g id="node8" class="node">
<title>Node8</title>
<g id="a_node8"><a target="_parent" xlink:href="http://doc.qt.io/qt-5/qpaintdevice.html" xlink:title=" ">
<polygon fill="none" stroke="black" points="93,-369.5 93,-388.5 175,-388.5 175,-369.5 93,-369.5"/>
<text text-anchor="middle" x="134" y="-376.5" font-family="Helvetica,sans-Serif" font-size="10.00">QPaintDevice</text>
</a>
</g>
</g>
<!-- Node8&#45;&gt;Node6 -->
<g id="edge7" class="edge">
<title>Node8&#45;&gt;Node6</title>
<path fill="none" stroke="midnightblue" d="M120.27,-361.14C112.6,-351.74 103.37,-340.4 97.13,-332.75"/>
<polygon fill="midnightblue" stroke="midnightblue" points="117.7,-363.54 126.73,-369.08 123.13,-359.12 117.7,-363.54"/>
</g>
</g>
</svg>
