<?xml version="1.0" encoding="UTF-8" standalone="no"?>
<!DOCTYPE svg PUBLIC "-//W3C//DTD SVG 1.1//EN"
 "http://www.w3.org/Graphics/SVG/1.1/DTD/svg11.dtd">
<!-- Generated by graphviz version 2.43.0 (0)
 -->
<!-- Title: BlackMisc::Db::IDatastoreObjectWithStringKey Pages: 1 -->
<svg width="268pt" height="229pt"
 viewBox="0.00 0.00 268.00 229.00" xmlns="http://www.w3.org/2000/svg" xmlns:xlink="http://www.w3.org/1999/xlink">
<g id="graph0" class="graph" transform="scale(1 1) rotate(0) translate(4 225)">
<title>BlackMisc::Db::IDatastoreObjectWithStringKey</title>
<!-- Node1 -->
<g id="node1" class="node">
<title>Node1</title>
<g id="a_node1"><a xlink:title="Class from which a derived class can inherit datastore&#45;related functions.">
<polygon fill="#bfbfbf" stroke="black" points="56,-67.5 56,-97.5 199,-97.5 199,-67.5 56,-67.5"/>
<text text-anchor="start" x="64" y="-85.5" font-family="Helvetica,sans-Serif" font-size="10.00">BlackMisc::Db::IDatastore</text>
<text text-anchor="middle" x="127.5" y="-74.5" font-family="Helvetica,sans-Serif" font-size="10.00">ObjectWithStringKey</text>
</a>
</g>
</g>
<!-- Node4 -->
<g id="node4" class="node">
<title>Node4</title>
<g id="a_node4"><a xlink:href="class_black_misc_1_1_c_country.html" target="_top" xlink:title="Color.">
<polygon fill="none" stroke="black" points="0,-6 0,-25 117,-25 117,-6 0,-6"/>
<text text-anchor="middle" x="58.5" y="-13" font-family="Helvetica,sans-Serif" font-size="10.00">BlackMisc::CCountry</text>
</a>
</g>
</g>
<!-- Node1&#45;&gt;Node4 -->
<g id="edge3" class="edge">
<title>Node1&#45;&gt;Node4</title>
<path fill="none" stroke="midnightblue" d="M105.03,-60.34C92.36,-48.4 77.22,-34.14 67.73,-25.19"/>
<polygon fill="midnightblue" stroke="midnightblue" points="102.85,-63.09 112.53,-67.4 107.65,-57.99 102.85,-63.09"/>
</g>
<!-- Node5 -->
<g id="node5" class="node">
<title>Node5</title>
<g id="a_node5"><a xlink:href="class_black_misc_1_1_simulation_1_1_c_distributor.html" target="_top" xlink:title="Value object encapsulating information of software distributor.">
<polygon fill="none" stroke="black" points="135,-0.5 135,-30.5 260,-30.5 260,-0.5 135,-0.5"/>
<text text-anchor="start" x="143" y="-18.5" font-family="Helvetica,sans-Serif" font-size="10.00">BlackMisc::Simulation</text>
<text text-anchor="middle" x="197.5" y="-7.5" font-family="Helvetica,sans-Serif" font-size="10.00">::CDistributor</text>
</a>
</g>
</g>
<!-- Node1&#45;&gt;Node5 -->
<g id="edge4" class="edge">
<title>Node1&#45;&gt;Node5</title>
<path fill="none" stroke="midnightblue" d="M150.32,-60.31C160.82,-50.56 172.99,-39.26 182.34,-30.58"/>
<polygon fill="midnightblue" stroke="midnightblue" points="147.64,-58.03 142.69,-67.4 152.4,-63.16 147.64,-58.03"/>
</g>
<!-- Node2 -->
<g id="node2" class="node">
<title>Node2</title>
<g id="a_node2"><a xlink:href="class_black_misc_1_1_db_1_1_i_datastore_object.html" target="_top" xlink:title="Supposed to be used only in filter operations.">
<polygon fill="none" stroke="black" points="56,-134.5 56,-164.5 199,-164.5 199,-134.5 56,-134.5"/>
<text text-anchor="start" x="64" y="-152.5" font-family="Helvetica,sans-Serif" font-size="10.00">BlackMisc::Db::IDatastore</text>
<text text-anchor="middle" x="127.5" y="-141.5" font-family="Helvetica,sans-Serif" font-size="10.00">Object</text>
</a>
</g>
</g>
<!-- Node2&#45;&gt;Node1 -->
<g id="edge1" class="edge">
<title>Node2&#45;&gt;Node1</title>
<path fill="none" stroke="midnightblue" d="M127.5,-124.11C127.5,-115.15 127.5,-105.32 127.5,-97.58"/>
<polygon fill="midnightblue" stroke="midnightblue" points="124,-124.4 127.5,-134.4 131,-124.4 124,-124.4"/>
</g>
<!-- Node3 -->
<g id="node3" class="node">
<title>Node3</title>
<g id="a_node3"><a xlink:href="class_black_misc_1_1_i_timestamp_based.html" target="_top" xlink:title="Entity with timestamp.">
<polygon fill="none" stroke="black" points="47,-201.5 47,-220.5 208,-220.5 208,-201.5 47,-201.5"/>
<text text-anchor="middle" x="127.5" y="-208.5" font-family="Helvetica,sans-Serif" font-size="10.00">BlackMisc::ITimestampBased</text>
</a>
</g>
</g>
<!-- Node3&#45;&gt;Node2 -->
<g id="edge2" class="edge">
<title>Node3&#45;&gt;Node2</title>
<path fill="none" stroke="midnightblue" d="M127.5,-191.23C127.5,-182.59 127.5,-172.5 127.5,-164.52"/>
<polygon fill="midnightblue" stroke="midnightblue" points="124,-191.48 127.5,-201.48 131,-191.48 124,-191.48"/>
</g>
</g>
</svg>
