<?xml version="1.0" encoding="UTF-8" standalone="no"?>
<!DOCTYPE svg PUBLIC "-//W3C//DTD SVG 1.1//EN"
 "http://www.w3.org/Graphics/SVG/1.1/DTD/svg11.dtd">
<!-- Generated by graphviz version 2.43.0 (0)
 -->
<!-- Title: BlackMisc::CVariant Pages: 1 -->
<svg width="336pt" height="284pt"
 viewBox="0.00 0.00 336.00 284.00" xmlns="http://www.w3.org/2000/svg" xmlns:xlink="http://www.w3.org/1999/xlink">
<g id="graph0" class="graph" transform="scale(1 1) rotate(0) translate(4 280)">
<title>BlackMisc::CVariant</title>
<!-- Node1 -->
<g id="node1" class="node">
<title>Node1</title>
<g id="a_node1"><a xlink:title="Wrapper around QVariant which provides transparent access to CValueObject methods of the contained ob...">
<polygon fill="#bfbfbf" stroke="black" points="215,-128 215,-147 328,-147 328,-128 215,-128"/>
<text text-anchor="middle" x="271.5" y="-135" font-family="Helvetica,sans-Serif" font-size="10.00">BlackMisc::CVariant</text>
</a>
</g>
</g>
<!-- Node2 -->
<g id="node2" class="node">
<title>Node2</title>
<g id="a_node2"><a xlink:href="class_black_misc_1_1_mixin_1_1_equals_by_compare.html" target="_top" xlink:title=" ">
<polygon fill="none" stroke="black" points="21,-245.5 21,-275.5 158,-275.5 158,-245.5 21,-245.5"/>
<text text-anchor="start" x="29" y="-263.5" font-family="Helvetica,sans-Serif" font-size="10.00">BlackMisc::Mixin::Equals</text>
<text text-anchor="middle" x="89.5" y="-252.5" font-family="Helvetica,sans-Serif" font-size="10.00">ByCompare&lt; CVariant &gt;</text>
</a>
</g>
</g>
<!-- Node2&#45;&gt;Node1 -->
<g id="edge1" class="edge">
<title>Node2&#45;&gt;Node1</title>
<path fill="none" stroke="midnightblue" d="M167.68,-242.48C171.6,-240.67 175.4,-238.68 179,-236.5 218.43,-212.61 251.36,-166.86 264.44,-147.04"/>
<polygon fill="midnightblue" stroke="midnightblue" points="166.22,-239.29 158.35,-246.38 168.93,-245.75 166.22,-239.29"/>
</g>
<!-- Node3 -->
<g id="node3" class="node">
<title>Node3</title>
<g id="a_node3"><a xlink:href="class_black_misc_1_1_mixin_1_1_less_than_by_compare.html" target="_top" xlink:title=" ">
<polygon fill="none" stroke="black" points="14,-196.5 14,-226.5 165,-226.5 165,-196.5 14,-196.5"/>
<text text-anchor="start" x="22" y="-214.5" font-family="Helvetica,sans-Serif" font-size="10.00">BlackMisc::Mixin::LessThan</text>
<text text-anchor="middle" x="89.5" y="-203.5" font-family="Helvetica,sans-Serif" font-size="10.00">ByCompare&lt; CVariant &gt;</text>
</a>
</g>
</g>
<!-- Node3&#45;&gt;Node1 -->
<g id="edge2" class="edge">
<title>Node3&#45;&gt;Node1</title>
<path fill="none" stroke="midnightblue" d="M163.23,-193.27C168.61,-191.47 173.92,-189.54 179,-187.5 207.21,-176.15 237.8,-158.16 255.5,-147.14"/>
<polygon fill="midnightblue" stroke="midnightblue" points="161.94,-190.01 153.48,-196.39 164.07,-196.68 161.94,-190.01"/>
</g>
<!-- Node4 -->
<g id="node4" class="node">
<title>Node4</title>
<g id="a_node4"><a xlink:href="class_black_misc_1_1_mixin_1_1_d_bus_operators.html" target="_top" xlink:title=" ">
<polygon fill="none" stroke="black" points="0,-147.5 0,-177.5 179,-177.5 179,-147.5 0,-147.5"/>
<text text-anchor="start" x="8" y="-165.5" font-family="Helvetica,sans-Serif" font-size="10.00">BlackMisc::Mixin::DBusOperators</text>
<text text-anchor="middle" x="89.5" y="-154.5" font-family="Helvetica,sans-Serif" font-size="10.00">&lt; CVariant &gt;</text>
</a>
</g>
</g>
<!-- Node4&#45;&gt;Node1 -->
<g id="edge3" class="edge">
<title>Node4&#45;&gt;Node1</title>
<path fill="none" stroke="midnightblue" d="M189.35,-148.77C197.99,-147.57 206.52,-146.39 214.61,-145.26"/>
<polygon fill="midnightblue" stroke="midnightblue" points="188.61,-145.34 179.18,-150.18 189.57,-152.27 188.61,-145.34"/>
</g>
<!-- Node5 -->
<g id="node5" class="node">
<title>Node5</title>
<g id="a_node5"><a xlink:href="class_black_misc_1_1_mixin_1_1_data_stream_operators.html" target="_top" xlink:title=" ">
<polygon fill="none" stroke="black" points="7.5,-98.5 7.5,-128.5 171.5,-128.5 171.5,-98.5 7.5,-98.5"/>
<text text-anchor="start" x="15.5" y="-116.5" font-family="Helvetica,sans-Serif" font-size="10.00">BlackMisc::Mixin::DataStream</text>
<text text-anchor="middle" x="89.5" y="-105.5" font-family="Helvetica,sans-Serif" font-size="10.00">Operators&lt; CVariant &gt;</text>
</a>
</g>
</g>
<!-- Node5&#45;&gt;Node1 -->
<g id="edge4" class="edge">
<title>Node5&#45;&gt;Node1</title>
<path fill="none" stroke="midnightblue" d="M181.54,-125.64C192.92,-127.16 204.28,-128.67 214.88,-130.08"/>
<polygon fill="midnightblue" stroke="midnightblue" points="181.92,-122.16 171.55,-124.31 181,-129.1 181.92,-122.16"/>
</g>
<!-- Node6 -->
<g id="node6" class="node">
<title>Node6</title>
<g id="a_node6"><a xlink:href="class_black_misc_1_1_mixin_1_1_json_operators.html" target="_top" xlink:title=" ">
<polygon fill="none" stroke="black" points="3,-49.5 3,-79.5 176,-79.5 176,-49.5 3,-49.5"/>
<text text-anchor="start" x="11" y="-67.5" font-family="Helvetica,sans-Serif" font-size="10.00">BlackMisc::Mixin::JsonOperators</text>
<text text-anchor="middle" x="89.5" y="-56.5" font-family="Helvetica,sans-Serif" font-size="10.00">&lt; CVariant &gt;</text>
</a>
</g>
</g>
<!-- Node6&#45;&gt;Node1 -->
<g id="edge5" class="edge">
<title>Node6&#45;&gt;Node1</title>
<path fill="none" stroke="midnightblue" d="M160.51,-82.81C166.82,-84.9 173.06,-87.13 179,-89.5 206.66,-100.52 236.92,-117.43 254.78,-127.96"/>
<polygon fill="midnightblue" stroke="midnightblue" points="161.16,-79.34 150.57,-79.64 159.04,-86.01 161.16,-79.34"/>
</g>
<!-- Node7 -->
<g id="node7" class="node">
<title>Node7</title>
<g id="a_node7"><a xlink:href="class_black_misc_1_1_mixin_1_1_string.html" target="_top" xlink:title=" ">
<polygon fill="none" stroke="black" points="22.5,-0.5 22.5,-30.5 156.5,-30.5 156.5,-0.5 22.5,-0.5"/>
<text text-anchor="start" x="30.5" y="-18.5" font-family="Helvetica,sans-Serif" font-size="10.00">BlackMisc::Mixin::String</text>
<text text-anchor="middle" x="89.5" y="-7.5" font-family="Helvetica,sans-Serif" font-size="10.00">&lt; CVariant &gt;</text>
</a>
</g>
</g>
<!-- Node7&#45;&gt;Node1 -->
<g id="edge6" class="edge">
<title>Node7&#45;&gt;Node1</title>
<path fill="none" stroke="midnightblue" d="M166.2,-33.81C170.64,-35.82 174.95,-38.04 179,-40.5 217.8,-64.02 250.82,-108.38 264.17,-127.89"/>
<polygon fill="midnightblue" stroke="midnightblue" points="167.51,-30.56 156.93,-29.97 164.83,-37.03 167.51,-30.56"/>
</g>
</g>
</svg>
