<?xml version="1.0" encoding="UTF-8" standalone="no"?>
<!DOCTYPE svg PUBLIC "-//W3C//DTD SVG 1.1//EN"
 "http://www.w3.org/Graphics/SVG/1.1/DTD/svg11.dtd">
<!-- Generated by graphviz version 2.43.0 (0)
 -->
<!-- Title: BlackGui::Filters::CAircraftModelFilterBar Pages: 1 -->
<svg width="660pt" height="113pt"
 viewBox="0.00 0.00 660.00 113.00" xmlns="http://www.w3.org/2000/svg" xmlns:xlink="http://www.w3.org/1999/xlink">
<g id="graph0" class="graph" transform="scale(1 1) rotate(0) translate(4 109)">
<title>BlackGui::Filters::CAircraftModelFilterBar</title>
<!-- Node1 -->
<g id="node1" class="node">
<title>Node1</title>
<g id="a_node1"><a xlink:title="Filter bar for aircraft models.">
<polygon fill="#bfbfbf" stroke="black" points="522,-33 522,-63 652,-63 652,-33 522,-33"/>
<text text-anchor="start" x="530" y="-51" font-family="Helvetica,sans-Serif" font-size="10.00">BlackGui::Filters::</text>
<text text-anchor="middle" x="587" y="-40" font-family="Helvetica,sans-Serif" font-size="10.00">CAircraftModelFilterBar</text>
</a>
</g>
</g>
<!-- Node2 -->
<g id="node2" class="node">
<title>Node2</title>
<g id="a_node2"><a xlink:href="class_black_gui_1_1_filters_1_1_c_filter_widget.html" target="_top" xlink:title="Base for filter dialog.">
<polygon fill="none" stroke="black" points="344,-61 344,-91 446,-91 446,-61 344,-61"/>
<text text-anchor="start" x="352" y="-79" font-family="Helvetica,sans-Serif" font-size="10.00">BlackGui::Filters::</text>
<text text-anchor="middle" x="395" y="-68" font-family="Helvetica,sans-Serif" font-size="10.00">CFilterWidget</text>
</a>
</g>
</g>
<!-- Node2&#45;&gt;Node1 -->
<g id="edge1" class="edge">
<title>Node2&#45;&gt;Node1</title>
<path fill="none" stroke="midnightblue" d="M456.41,-67.1C477.22,-64.03 500.59,-60.59 521.7,-57.48"/>
<polygon fill="midnightblue" stroke="midnightblue" points="455.8,-63.65 446.42,-68.57 456.82,-70.57 455.8,-63.65"/>
</g>
<!-- Node3 -->
<g id="node3" class="node">
<title>Node3</title>
<g id="a_node3"><a target="_parent" xlink:href="http://doc.qt.io/qt-5/qframe.html" xlink:title=" ">
<polygon fill="none" stroke="black" points="213,-66.5 213,-85.5 268,-85.5 268,-66.5 213,-66.5"/>
<text text-anchor="middle" x="240.5" y="-73.5" font-family="Helvetica,sans-Serif" font-size="10.00">QFrame</text>
</a>
</g>
</g>
<!-- Node3&#45;&gt;Node2 -->
<g id="edge2" class="edge">
<title>Node3&#45;&gt;Node2</title>
<path fill="none" stroke="midnightblue" d="M278.14,-76C297.8,-76 322.31,-76 343.72,-76"/>
<polygon fill="midnightblue" stroke="midnightblue" points="278.06,-72.5 268.06,-76 278.06,-79.5 278.06,-72.5"/>
</g>
<!-- Node4 -->
<g id="node4" class="node">
<title>Node4</title>
<g id="a_node4"><a target="_parent" xlink:href="http://doc.qt.io/qt-5/qwidget.html" xlink:title=" ">
<polygon fill="none" stroke="black" points="118,-66.5 118,-85.5 177,-85.5 177,-66.5 118,-66.5"/>
<text text-anchor="middle" x="147.5" y="-73.5" font-family="Helvetica,sans-Serif" font-size="10.00">QWidget</text>
</a>
</g>
</g>
<!-- Node4&#45;&gt;Node3 -->
<g id="edge3" class="edge">
<title>Node4&#45;&gt;Node3</title>
<path fill="none" stroke="midnightblue" d="M187.46,-76C195.99,-76 204.83,-76 212.75,-76"/>
<polygon fill="midnightblue" stroke="midnightblue" points="187.29,-72.5 177.29,-76 187.29,-79.5 187.29,-72.5"/>
</g>
<!-- Node5 -->
<g id="node5" class="node">
<title>Node5</title>
<g id="a_node5"><a target="_parent" xlink:href="http://doc.qt.io/qt-5/qobject.html" xlink:title=" ">
<polygon fill="none" stroke="black" points="13,-85.5 13,-104.5 69,-104.5 69,-85.5 13,-85.5"/>
<text text-anchor="middle" x="41" y="-92.5" font-family="Helvetica,sans-Serif" font-size="10.00">QObject</text>
</a>
</g>
</g>
<!-- Node5&#45;&gt;Node4 -->
<g id="edge4" class="edge">
<title>Node5&#45;&gt;Node4</title>
<path fill="none" stroke="midnightblue" d="M79.09,-88.26C91.88,-85.93 106,-83.36 117.99,-81.18"/>
<polygon fill="midnightblue" stroke="midnightblue" points="78.4,-84.83 69.18,-90.06 79.65,-91.71 78.4,-84.83"/>
</g>
<!-- Node6 -->
<g id="node6" class="node">
<title>Node6</title>
<g id="a_node6"><a target="_parent" xlink:href="http://doc.qt.io/qt-5/qpaintdevice.html" xlink:title=" ">
<polygon fill="none" stroke="black" points="0,-47.5 0,-66.5 82,-66.5 82,-47.5 0,-47.5"/>
<text text-anchor="middle" x="41" y="-54.5" font-family="Helvetica,sans-Serif" font-size="10.00">QPaintDevice</text>
</a>
</g>
</g>
<!-- Node6&#45;&gt;Node4 -->
<g id="edge5" class="edge">
<title>Node6&#45;&gt;Node4</title>
<path fill="none" stroke="midnightblue" d="M91.97,-66.09C100.8,-67.69 109.71,-69.31 117.69,-70.76"/>
<polygon fill="midnightblue" stroke="midnightblue" points="92.57,-62.64 82.1,-64.29 91.32,-69.52 92.57,-62.64"/>
</g>
<!-- Node7 -->
<g id="node7" class="node">
<title>Node7</title>
<g id="a_node7"><a xlink:href="class_black_gui_1_1_models_1_1_i_model_filter_provider.html" target="_top" xlink:title=" ">
<polygon fill="none" stroke="black" points="304,-0.5 304,-41.5 486,-41.5 486,-0.5 304,-0.5"/>
<text text-anchor="start" x="312" y="-29.5" font-family="Helvetica,sans-Serif" font-size="10.00">BlackGui::Models::IModel</text>
<text text-anchor="start" x="312" y="-18.5" font-family="Helvetica,sans-Serif" font-size="10.00">FilterProvider&lt; BlackMisc</text>
<text text-anchor="middle" x="395" y="-7.5" font-family="Helvetica,sans-Serif" font-size="10.00">::Simulation::CAircraftModelList &gt;</text>
</a>
</g>
</g>
<!-- Node7&#45;&gt;Node1 -->
<g id="edge6" class="edge">
<title>Node7&#45;&gt;Node1</title>
<path fill="none" stroke="midnightblue" d="M496.17,-35.24C504.94,-36.48 513.64,-37.72 521.99,-38.9"/>
<polygon fill="midnightblue" stroke="midnightblue" points="496.66,-31.77 486.27,-33.83 495.68,-38.7 496.66,-31.77"/>
</g>
</g>
</svg>
