<?xml version="1.0" encoding="UTF-8" standalone="no"?>
<!DOCTYPE svg PUBLIC "-//W3C//DTD SVG 1.1//EN"
 "http://www.w3.org/Graphics/SVG/1.1/DTD/svg11.dtd">
<!-- Generated by graphviz version 2.43.0 (0)
 -->
<!-- Title: BlackMisc::Simulation::CSimulationEnvironmentAware Pages: 1 -->
<svg width="774pt" height="236pt"
 viewBox="0.00 0.00 774.00 235.50" xmlns="http://www.w3.org/2000/svg" xmlns:xlink="http://www.w3.org/1999/xlink">
<g id="graph0" class="graph" transform="scale(1 1) rotate(0) translate(4 231.5)">
<title>BlackMisc::Simulation::CSimulationEnvironmentAware</title>
<!-- Node1 -->
<g id="node1" class="node">
<title>Node1</title>
<g id="a_node1"><a xlink:title="Class which can be directly used to access an.">
<polygon fill="#bfbfbf" stroke="black" points="233,-82.5 233,-112.5 408,-112.5 408,-82.5 233,-82.5"/>
<text text-anchor="start" x="241" y="-100.5" font-family="Helvetica,sans-Serif" font-size="10.00">BlackMisc::Simulation</text>
<text text-anchor="middle" x="320.5" y="-89.5" font-family="Helvetica,sans-Serif" font-size="10.00">::CSimulationEnvironmentAware</text>
</a>
</g>
</g>
<!-- Node3 -->
<g id="node3" class="node">
<title>Node3</title>
<g id="a_node3"><a xlink:href="class_black_misc_1_1_simulation_1_1_c_interpolator.html" target="_top" xlink:title=" ">
<polygon fill="none" stroke="black" points="444,-186 444,-227 605,-227 605,-186 444,-186"/>
<text text-anchor="start" x="452" y="-215" font-family="Helvetica,sans-Serif" font-size="10.00">BlackMisc::Simulation</text>
<text text-anchor="start" x="452" y="-204" font-family="Helvetica,sans-Serif" font-size="10.00">::CInterpolator&lt; CInterpolator</text>
<text text-anchor="middle" x="524.5" y="-193" font-family="Helvetica,sans-Serif" font-size="10.00">Spline &gt;</text>
</a>
</g>
</g>
<!-- Node1&#45;&gt;Node3 -->
<g id="edge2" class="edge">
<title>Node1&#45;&gt;Node3</title>
<path fill="none" stroke="darkgreen" d="M350.29,-118.56C374.48,-135.64 410.39,-159.56 444,-176.5 450.59,-179.82 457.63,-182.99 464.71,-185.93"/>
<polygon fill="darkgreen" stroke="darkgreen" points="352.11,-115.56 341.94,-112.61 348.05,-121.26 352.11,-115.56"/>
</g>
<!-- Node5 -->
<g id="node5" class="node">
<title>Node5</title>
<g id="a_node5"><a xlink:href="class_black_misc_1_1_simulation_1_1_c_interpolator.html" target="_top" xlink:title=" ">
<polygon fill="none" stroke="black" points="444,-126 444,-167 605,-167 605,-126 444,-126"/>
<text text-anchor="start" x="452" y="-155" font-family="Helvetica,sans-Serif" font-size="10.00">BlackMisc::Simulation</text>
<text text-anchor="start" x="452" y="-144" font-family="Helvetica,sans-Serif" font-size="10.00">::CInterpolator&lt; CInterpolator</text>
<text text-anchor="middle" x="524.5" y="-133" font-family="Helvetica,sans-Serif" font-size="10.00">Linear &gt;</text>
</a>
</g>
</g>
<!-- Node1&#45;&gt;Node5 -->
<g id="edge4" class="edge">
<title>Node1&#45;&gt;Node5</title>
<path fill="none" stroke="darkgreen" d="M393.46,-114.96C409.75,-118.91 427.14,-123.13 443.73,-127.15"/>
<polygon fill="darkgreen" stroke="darkgreen" points="394.02,-111.49 383.48,-112.53 392.37,-118.29 394.02,-111.49"/>
</g>
<!-- Node7 -->
<g id="node7" class="node">
<title>Node7</title>
<g id="a_node7"><a xlink:href="class_black_core_1_1_c_airspace_monitor.html" target="_top" xlink:title="Keeps track of other entities in the airspace: aircraft, ATC stations, etc. Central instance of data ...">
<polygon fill="none" stroke="black" points="445.5,-88 445.5,-107 603.5,-107 603.5,-88 445.5,-88"/>
<text text-anchor="middle" x="524.5" y="-95" font-family="Helvetica,sans-Serif" font-size="10.00">BlackCore::CAirspaceMonitor</text>
</a>
</g>
</g>
<!-- Node1&#45;&gt;Node7 -->
<g id="edge6" class="edge">
<title>Node1&#45;&gt;Node7</title>
<path fill="none" stroke="midnightblue" d="M418.29,-97.5C427.39,-97.5 436.53,-97.5 445.43,-97.5"/>
<polygon fill="midnightblue" stroke="midnightblue" points="418.05,-94 408.05,-97.5 418.05,-101 418.05,-94"/>
</g>
<!-- Node8 -->
<g id="node8" class="node">
<title>Node8</title>
<g id="a_node8"><a xlink:href="class_black_core_1_1_fsd_1_1_c_f_s_d_client.html" target="_top" xlink:title="FSD client Todo: Send (interim) data updates automatically Todo Check &#39;:&#39; in FSD messages....">
<polygon fill="none" stroke="black" points="450,-50 450,-69 599,-69 599,-50 450,-50"/>
<text text-anchor="middle" x="524.5" y="-57" font-family="Helvetica,sans-Serif" font-size="10.00">BlackCore::Fsd::CFSDClient</text>
</a>
</g>
</g>
<!-- Node1&#45;&gt;Node8 -->
<g id="edge7" class="edge">
<title>Node1&#45;&gt;Node8</title>
<path fill="none" stroke="midnightblue" d="M411.32,-80.6C432.47,-76.62 454.29,-72.52 473,-69"/>
<polygon fill="midnightblue" stroke="midnightblue" points="410.52,-77.19 401.34,-82.48 411.81,-84.07 410.52,-77.19"/>
</g>
<!-- Node9 -->
<g id="node9" class="node">
<title>Node9</title>
<g id="a_node9"><a xlink:href="class_black_misc_1_1_simulation_1_1_c_interpolator.html" target="_top" xlink:title="Interpolator, calculation inbetween positions.">
<polygon fill="none" stroke="black" points="451,-0.5 451,-30.5 598,-30.5 598,-0.5 451,-0.5"/>
<text text-anchor="start" x="459" y="-18.5" font-family="Helvetica,sans-Serif" font-size="10.00">BlackMisc::Simulation</text>
<text text-anchor="middle" x="524.5" y="-7.5" font-family="Helvetica,sans-Serif" font-size="10.00">::CInterpolator&lt; Derived &gt;</text>
</a>
</g>
</g>
<!-- Node1&#45;&gt;Node9 -->
<g id="edge8" class="edge">
<title>Node1&#45;&gt;Node9</title>
<path fill="none" stroke="darkgreen" d="M360.29,-77.86C384.11,-66.2 415.43,-51.59 444,-40.5 453.04,-36.99 462.79,-33.61 472.26,-30.53"/>
<polygon fill="darkgreen" stroke="darkgreen" points="358.65,-74.77 351.23,-82.33 361.75,-81.05 358.65,-74.77"/>
</g>
<!-- Node2 -->
<g id="node2" class="node">
<title>Node2</title>
<g id="a_node2"><a xlink:href="class_black_misc_1_1_i_provider_aware.html" target="_top" xlink:title=" ">
<polygon fill="none" stroke="black" points="0,-82.5 0,-112.5 197,-112.5 197,-82.5 0,-82.5"/>
<text text-anchor="start" x="8" y="-100.5" font-family="Helvetica,sans-Serif" font-size="10.00">BlackMisc::IProviderAware</text>
<text text-anchor="middle" x="98.5" y="-89.5" font-family="Helvetica,sans-Serif" font-size="10.00">&lt; ISimulationEnvironmentProvider &gt;</text>
</a>
</g>
</g>
<!-- Node2&#45;&gt;Node1 -->
<g id="edge1" class="edge">
<title>Node2&#45;&gt;Node1</title>
<path fill="none" stroke="midnightblue" d="M207.28,-97.5C215.82,-97.5 224.38,-97.5 232.75,-97.5"/>
<polygon fill="midnightblue" stroke="midnightblue" points="207.28,-94 197.28,-97.5 207.28,-101 207.28,-94"/>
</g>
<!-- Node4 -->
<g id="node4" class="node">
<title>Node4</title>
<g id="a_node4"><a xlink:href="class_black_misc_1_1_simulation_1_1_c_interpolator_spline.html" target="_top" xlink:title="Cubic spline interpolator.">
<polygon fill="none" stroke="black" points="641,-191.5 641,-221.5 766,-221.5 766,-191.5 641,-191.5"/>
<text text-anchor="start" x="649" y="-209.5" font-family="Helvetica,sans-Serif" font-size="10.00">BlackMisc::Simulation</text>
<text text-anchor="middle" x="703.5" y="-198.5" font-family="Helvetica,sans-Serif" font-size="10.00">::CInterpolatorSpline</text>
</a>
</g>
</g>
<!-- Node3&#45;&gt;Node4 -->
<g id="edge3" class="edge">
<title>Node3&#45;&gt;Node4</title>
<path fill="none" stroke="midnightblue" d="M615.29,-206.5C623.9,-206.5 632.5,-206.5 640.75,-206.5"/>
<polygon fill="midnightblue" stroke="midnightblue" points="615.2,-203 605.2,-206.5 615.2,-210 615.2,-203"/>
</g>
<!-- Node6 -->
<g id="node6" class="node">
<title>Node6</title>
<g id="a_node6"><a xlink:href="class_black_misc_1_1_simulation_1_1_c_interpolator_linear.html" target="_top" xlink:title="Linear interpolator, calculation inbetween positions.">
<polygon fill="none" stroke="black" points="641,-131.5 641,-161.5 766,-161.5 766,-131.5 641,-131.5"/>
<text text-anchor="start" x="649" y="-149.5" font-family="Helvetica,sans-Serif" font-size="10.00">BlackMisc::Simulation</text>
<text text-anchor="middle" x="703.5" y="-138.5" font-family="Helvetica,sans-Serif" font-size="10.00">::CInterpolatorLinear</text>
</a>
</g>
</g>
<!-- Node5&#45;&gt;Node6 -->
<g id="edge5" class="edge">
<title>Node5&#45;&gt;Node6</title>
<path fill="none" stroke="midnightblue" d="M615.29,-146.5C623.9,-146.5 632.5,-146.5 640.75,-146.5"/>
<polygon fill="midnightblue" stroke="midnightblue" points="615.2,-143 605.2,-146.5 615.2,-150 615.2,-143"/>
</g>
</g>
</svg>
