<?xml version="1.0" encoding="UTF-8" standalone="no"?>
<!DOCTYPE svg PUBLIC "-//W3C//DTD SVG 1.1//EN"
 "http://www.w3.org/Graphics/SVG/1.1/DTD/svg11.dtd">
<!-- Generated by graphviz version 2.43.0 (0)
 -->
<!-- Title: BlackMisc::Aviation::CAircraftSituationChange Pages: 1 -->
<svg width="765pt" height="606pt"
 viewBox="0.00 0.00 765.00 606.00" xmlns="http://www.w3.org/2000/svg" xmlns:xlink="http://www.w3.org/1999/xlink">
<g id="graph0" class="graph" transform="scale(1 1) rotate(0) translate(4 602)">
<title>BlackMisc::Aviation::CAircraftSituationChange</title>
<!-- Node1 -->
<g id="node1" class="node">
<title>Node1</title>
<g id="a_node1"><a xlink:title="Value object about changes in situations.">
<polygon fill="#bfbfbf" stroke="black" points="612,-139 612,-169 757,-169 757,-139 612,-139"/>
<text text-anchor="start" x="620" y="-157" font-family="Helvetica,sans-Serif" font-size="10.00">BlackMisc::Aviation</text>
<text text-anchor="middle" x="684.5" y="-146" font-family="Helvetica,sans-Serif" font-size="10.00">::CAircraftSituationChange</text>
</a>
</g>
</g>
<!-- Node2 -->
<g id="node2" class="node">
<title>Node2</title>
<g id="a_node2"><a xlink:href="class_black_misc_1_1_c_value_object.html" target="_top" xlink:title=" ">
<polygon fill="none" stroke="black" points="415,-284 415,-314 576,-314 576,-284 415,-284"/>
<text text-anchor="start" x="423" y="-302" font-family="Helvetica,sans-Serif" font-size="10.00">BlackMisc::CValueObject</text>
<text text-anchor="middle" x="495.5" y="-291" font-family="Helvetica,sans-Serif" font-size="10.00">&lt; CAircraftSituationChange &gt;</text>
</a>
</g>
</g>
<!-- Node2&#45;&gt;Node1 -->
<g id="edge1" class="edge">
<title>Node2&#45;&gt;Node1</title>
<path fill="none" stroke="midnightblue" d="M524.32,-277.43C562.67,-247.69 630.81,-194.86 664.1,-169.04"/>
<polygon fill="midnightblue" stroke="midnightblue" points="521.92,-274.86 516.16,-283.76 526.21,-280.39 521.92,-274.86"/>
</g>
<!-- Node3 -->
<g id="node3" class="node">
<title>Node3</title>
<g id="a_node3"><a xlink:href="class_black_misc_1_1_c_empty.html" target="_top" xlink:title="Default base class for CValueObject.">
<polygon fill="none" stroke="black" points="242,-578.5 242,-597.5 352,-597.5 352,-578.5 242,-578.5"/>
<text text-anchor="middle" x="297" y="-585.5" font-family="Helvetica,sans-Serif" font-size="10.00">BlackMisc::CEmpty</text>
</a>
</g>
</g>
<!-- Node3&#45;&gt;Node2 -->
<g id="edge2" class="edge">
<title>Node3&#45;&gt;Node2</title>
<path fill="none" stroke="midnightblue" d="M362.11,-579.12C368.22,-576.52 373.99,-573.21 379,-569 461.77,-499.49 486.66,-359.94 492.77,-314.03"/>
<polygon fill="midnightblue" stroke="midnightblue" points="360.52,-575.97 352.3,-582.66 362.9,-582.56 360.52,-575.97"/>
</g>
<!-- Node4 -->
<g id="node4" class="node">
<title>Node4</title>
<g id="a_node4"><a xlink:href="class_black_misc_1_1_mixin_1_1_meta_type.html" target="_top" xlink:title="CRTP class template from which a derived class can inherit common methods dealing with the metatype o...">
<polygon fill="none" stroke="black" points="221,-529 221,-559 373,-559 373,-529 221,-529"/>
<text text-anchor="start" x="229" y="-547" font-family="Helvetica,sans-Serif" font-size="10.00">BlackMisc::Mixin::MetaType</text>
<text text-anchor="middle" x="297" y="-536" font-family="Helvetica,sans-Serif" font-size="10.00">&lt; Derived &gt;</text>
</a>
</g>
</g>
<!-- Node4&#45;&gt;Node2 -->
<g id="edge3" class="edge">
<title>Node4&#45;&gt;Node2</title>
<path fill="none" stroke="midnightblue" d="M374.1,-523.67C375.79,-522.52 377.43,-521.29 379,-520 448.03,-463.19 480.85,-354.23 490.96,-314.22"/>
<polygon fill="midnightblue" stroke="midnightblue" points="372.04,-520.83 365.21,-528.93 375.6,-526.85 372.04,-520.83"/>
</g>
<!-- Node5 -->
<g id="node5" class="node">
<title>Node5</title>
<g id="a_node5"><a xlink:href="class_black_misc_1_1_mixin_1_1_hash_by_meta_class.html" target="_top" xlink:title="CRTP class template from which a derived class can inherit common methods dealing with hashing instan...">
<polygon fill="none" stroke="black" points="225.5,-480 225.5,-510 368.5,-510 368.5,-480 225.5,-480"/>
<text text-anchor="start" x="233.5" y="-498" font-family="Helvetica,sans-Serif" font-size="10.00">BlackMisc::Mixin::HashBy</text>
<text text-anchor="middle" x="297" y="-487" font-family="Helvetica,sans-Serif" font-size="10.00">MetaClass&lt; Derived &gt;</text>
</a>
</g>
</g>
<!-- Node5&#45;&gt;Node2 -->
<g id="edge4" class="edge">
<title>Node5&#45;&gt;Node2</title>
<path fill="none" stroke="midnightblue" d="M372.53,-475.28C374.77,-473.94 376.93,-472.52 379,-471 436.82,-428.51 474.67,-347.79 488.56,-314.23"/>
<polygon fill="midnightblue" stroke="midnightblue" points="370.8,-472.23 363.59,-479.99 374.07,-478.43 370.8,-472.23"/>
</g>
<!-- Node6 -->
<g id="node6" class="node">
<title>Node6</title>
<g id="a_node6"><a xlink:href="class_black_misc_1_1_mixin_1_1_d_bus_by_meta_class.html" target="_top" xlink:title="CRTP class template from which a derived class can inherit common methods dealing with marshalling in...">
<polygon fill="none" stroke="black" points="219,-431 219,-461 375,-461 375,-431 219,-431"/>
<text text-anchor="start" x="227" y="-449" font-family="Helvetica,sans-Serif" font-size="10.00">BlackMisc::Mixin::DBusBy</text>
<text text-anchor="middle" x="297" y="-438" font-family="Helvetica,sans-Serif" font-size="10.00">MetaClass&lt; Derived, Tags &gt;</text>
</a>
</g>
</g>
<!-- Node6&#45;&gt;Node2 -->
<g id="edge5" class="edge">
<title>Node6&#45;&gt;Node2</title>
<path fill="none" stroke="midnightblue" d="M370.7,-426.61C373.56,-425.17 376.34,-423.64 379,-422 425.88,-393.1 466.19,-340.31 484.3,-314.31"/>
<polygon fill="midnightblue" stroke="midnightblue" points="369,-423.53 361.34,-430.85 371.89,-429.91 369,-423.53"/>
</g>
<!-- Node7 -->
<g id="node7" class="node">
<title>Node7</title>
<g id="a_node7"><a xlink:href="class_black_misc_1_1_mixin_1_1_d_bus_operators.html" target="_top" xlink:title=" ">
<polygon fill="none" stroke="black" points="0,-431 0,-461 179,-461 179,-431 0,-431"/>
<text text-anchor="start" x="8" y="-449" font-family="Helvetica,sans-Serif" font-size="10.00">BlackMisc::Mixin::DBusOperators</text>
<text text-anchor="middle" x="89.5" y="-438" font-family="Helvetica,sans-Serif" font-size="10.00">&lt; Derived, Tags... &gt;</text>
</a>
</g>
</g>
<!-- Node7&#45;&gt;Node6 -->
<g id="edge6" class="edge">
<title>Node7&#45;&gt;Node6</title>
<path fill="none" stroke="midnightblue" d="M189.44,-446C199.35,-446 209.31,-446 218.95,-446"/>
<polygon fill="midnightblue" stroke="midnightblue" points="189.14,-442.5 179.14,-446 189.14,-449.5 189.14,-442.5"/>
</g>
<!-- Node8 -->
<g id="node8" class="node">
<title>Node8</title>
<g id="a_node8"><a xlink:href="class_black_misc_1_1_mixin_1_1_data_stream_by_meta_class.html" target="_top" xlink:title="CRTP class template to generate QDataStream marshalling methods using CMetaClass.">
<polygon fill="none" stroke="black" points="215,-382 215,-412 379,-412 379,-382 215,-382"/>
<text text-anchor="start" x="223" y="-400" font-family="Helvetica,sans-Serif" font-size="10.00">BlackMisc::Mixin::DataStream</text>
<text text-anchor="middle" x="297" y="-389" font-family="Helvetica,sans-Serif" font-size="10.00">ByMetaClass&lt; Derived &gt;</text>
</a>
</g>
</g>
<!-- Node8&#45;&gt;Node2 -->
<g id="edge7" class="edge">
<title>Node8&#45;&gt;Node2</title>
<path fill="none" stroke="midnightblue" d="M365.69,-378.52C370.25,-376.8 374.72,-374.96 379,-373 414.73,-356.66 452.39,-330.64 474.64,-314.21"/>
<polygon fill="midnightblue" stroke="midnightblue" points="364.49,-375.24 356.25,-381.91 366.85,-381.83 364.49,-375.24"/>
</g>
<!-- Node9 -->
<g id="node9" class="node">
<title>Node9</title>
<g id="a_node9"><a xlink:href="class_black_misc_1_1_mixin_1_1_data_stream_operators.html" target="_top" xlink:title="CRTP class template to generate non&#45;member QDataStream streaming operators.">
<polygon fill="none" stroke="black" points="7.5,-382 7.5,-412 171.5,-412 171.5,-382 7.5,-382"/>
<text text-anchor="start" x="15.5" y="-400" font-family="Helvetica,sans-Serif" font-size="10.00">BlackMisc::Mixin::DataStream</text>
<text text-anchor="middle" x="89.5" y="-389" font-family="Helvetica,sans-Serif" font-size="10.00">Operators&lt; Derived &gt;</text>
</a>
</g>
</g>
<!-- Node9&#45;&gt;Node8 -->
<g id="edge8" class="edge">
<title>Node9&#45;&gt;Node8</title>
<path fill="none" stroke="midnightblue" d="M181.74,-397C192.72,-397 203.87,-397 214.7,-397"/>
<polygon fill="midnightblue" stroke="midnightblue" points="181.72,-393.5 171.72,-397 181.72,-400.5 181.72,-393.5"/>
</g>
<!-- Node10 -->
<g id="node10" class="node">
<title>Node10</title>
<g id="a_node10"><a xlink:href="class_black_misc_1_1_mixin_1_1_json_by_meta_class.html" target="_top" xlink:title="CRTP class template from which a derived class can inherit common methods dealing with JSON by metatu...">
<polygon fill="none" stroke="black" points="228,-333 228,-363 366,-363 366,-333 228,-333"/>
<text text-anchor="start" x="236" y="-351" font-family="Helvetica,sans-Serif" font-size="10.00">BlackMisc::Mixin::JsonBy</text>
<text text-anchor="middle" x="297" y="-340" font-family="Helvetica,sans-Serif" font-size="10.00">MetaClass&lt; Derived &gt;</text>
</a>
</g>
</g>
<!-- Node10&#45;&gt;Node2 -->
<g id="edge9" class="edge">
<title>Node10&#45;&gt;Node2</title>
<path fill="none" stroke="midnightblue" d="M368.09,-330.52C389.74,-325.12 413.4,-319.22 434.32,-314.01"/>
<polygon fill="midnightblue" stroke="midnightblue" points="367.15,-327.15 358.29,-332.97 368.84,-333.94 367.15,-327.15"/>
</g>
<!-- Node11 -->
<g id="node11" class="node">
<title>Node11</title>
<g id="a_node11"><a xlink:href="class_black_misc_1_1_mixin_1_1_json_operators.html" target="_top" xlink:title="CRTP class template which will generate marshalling operators for a derived class with its own marsha...">
<polygon fill="none" stroke="black" points="3,-333 3,-363 176,-363 176,-333 3,-333"/>
<text text-anchor="start" x="11" y="-351" font-family="Helvetica,sans-Serif" font-size="10.00">BlackMisc::Mixin::JsonOperators</text>
<text text-anchor="middle" x="89.5" y="-340" font-family="Helvetica,sans-Serif" font-size="10.00">&lt; Derived &gt;</text>
</a>
</g>
</g>
<!-- Node11&#45;&gt;Node10 -->
<g id="edge10" class="edge">
<title>Node11&#45;&gt;Node10</title>
<path fill="none" stroke="midnightblue" d="M186.35,-348C200.41,-348 214.65,-348 227.99,-348"/>
<polygon fill="midnightblue" stroke="midnightblue" points="186.16,-344.5 176.16,-348 186.16,-351.5 186.16,-344.5"/>
</g>
<!-- Node12 -->
<g id="node12" class="node">
<title>Node12</title>
<g id="a_node12"><a xlink:href="class_black_misc_1_1_mixin_1_1_equals_by_meta_class.html" target="_top" xlink:title="CRTP class template from which a derived class can inherit operator== implemented by metaclass.">
<polygon fill="none" stroke="black" points="226.5,-284 226.5,-314 367.5,-314 367.5,-284 226.5,-284"/>
<text text-anchor="start" x="234.5" y="-302" font-family="Helvetica,sans-Serif" font-size="10.00">BlackMisc::Mixin::Equals</text>
<text text-anchor="middle" x="297" y="-291" font-family="Helvetica,sans-Serif" font-size="10.00">ByMetaClass&lt; Derived &gt;</text>
</a>
</g>
</g>
<!-- Node12&#45;&gt;Node2 -->
<g id="edge11" class="edge">
<title>Node12&#45;&gt;Node2</title>
<path fill="none" stroke="midnightblue" d="M377.76,-299C390.03,-299 402.71,-299 414.98,-299"/>
<polygon fill="midnightblue" stroke="midnightblue" points="377.56,-295.5 367.56,-299 377.56,-302.5 377.56,-295.5"/>
</g>
<!-- Node13 -->
<g id="node13" class="node">
<title>Node13</title>
<g id="a_node13"><a xlink:href="class_black_misc_1_1_mixin_1_1_less_than_by_meta_class.html" target="_top" xlink:title="CRTP class template from which a derived class can inherit operator&lt; implemented by metaclass.">
<polygon fill="none" stroke="black" points="221.5,-235 221.5,-265 372.5,-265 372.5,-235 221.5,-235"/>
<text text-anchor="start" x="229.5" y="-253" font-family="Helvetica,sans-Serif" font-size="10.00">BlackMisc::Mixin::LessThan</text>
<text text-anchor="middle" x="297" y="-242" font-family="Helvetica,sans-Serif" font-size="10.00">ByMetaClass&lt; Derived &gt;</text>
</a>
</g>
</g>
<!-- Node13&#45;&gt;Node2 -->
<g id="edge12" class="edge">
<title>Node13&#45;&gt;Node2</title>
<path fill="none" stroke="midnightblue" d="M368.09,-267.48C389.74,-272.88 413.4,-278.78 434.32,-283.99"/>
<polygon fill="midnightblue" stroke="midnightblue" points="368.84,-264.06 358.29,-265.03 367.15,-270.85 368.84,-264.06"/>
</g>
<!-- Node14 -->
<g id="node14" class="node">
<title>Node14</title>
<g id="a_node14"><a xlink:href="class_black_misc_1_1_mixin_1_1_compare_by_meta_class.html" target="_top" xlink:title="CRTP class template from which a derived class can inherit non&#45;member compare() implemented by metacl...">
<polygon fill="none" stroke="black" points="222.5,-186 222.5,-216 371.5,-216 371.5,-186 222.5,-186"/>
<text text-anchor="start" x="230.5" y="-204" font-family="Helvetica,sans-Serif" font-size="10.00">BlackMisc::Mixin::Compare</text>
<text text-anchor="middle" x="297" y="-193" font-family="Helvetica,sans-Serif" font-size="10.00">ByMetaClass&lt; Derived &gt;</text>
</a>
</g>
</g>
<!-- Node14&#45;&gt;Node2 -->
<g id="edge13" class="edge">
<title>Node14&#45;&gt;Node2</title>
<path fill="none" stroke="midnightblue" d="M363.34,-219.5C368.7,-221.52 373.99,-223.69 379,-226 414.34,-242.27 451.8,-267.65 474.16,-283.8"/>
<polygon fill="midnightblue" stroke="midnightblue" points="364.23,-216.1 353.63,-216.03 361.87,-222.69 364.23,-216.1"/>
</g>
<!-- Node15 -->
<g id="node15" class="node">
<title>Node15</title>
<g id="a_node15"><a xlink:href="class_black_misc_1_1_mixin_1_1_string.html" target="_top" xlink:title="CRTP class template from which a derived class can inherit string streaming operations.">
<polygon fill="none" stroke="black" points="230,-137 230,-167 364,-167 364,-137 230,-137"/>
<text text-anchor="start" x="238" y="-155" font-family="Helvetica,sans-Serif" font-size="10.00">BlackMisc::Mixin::String</text>
<text text-anchor="middle" x="297" y="-144" font-family="Helvetica,sans-Serif" font-size="10.00">&lt; Derived &gt;</text>
</a>
</g>
</g>
<!-- Node15&#45;&gt;Node2 -->
<g id="edge14" class="edge">
<title>Node15&#45;&gt;Node2</title>
<path fill="none" stroke="midnightblue" d="M368.47,-171.23C372.11,-173 375.65,-174.92 379,-177 425.57,-205.94 466.03,-258.17 484.24,-283.88"/>
<polygon fill="midnightblue" stroke="midnightblue" points="369.78,-167.98 359.22,-167.14 366.95,-174.38 369.78,-167.98"/>
</g>
<!-- Node16 -->
<g id="node16" class="node">
<title>Node16</title>
<g id="a_node16"><a xlink:href="class_black_misc_1_1_mixin_1_1_index.html" target="_top" xlink:title="CRTP class template from which a derived class can inherit property indexing functions.">
<polygon fill="none" stroke="black" points="231,-88 231,-118 363,-118 363,-88 231,-88"/>
<text text-anchor="start" x="239" y="-106" font-family="Helvetica,sans-Serif" font-size="10.00">BlackMisc::Mixin::Index</text>
<text text-anchor="middle" x="297" y="-95" font-family="Helvetica,sans-Serif" font-size="10.00">&lt; Derived &gt;</text>
</a>
</g>
</g>
<!-- Node16&#45;&gt;Node2 -->
<g id="edge15" class="edge">
<title>Node16&#45;&gt;Node2</title>
<path fill="none" stroke="midnightblue" d="M371.06,-122.8C373.82,-124.4 376.48,-126.13 379,-128 436.41,-170.57 474.48,-250.64 488.49,-283.91"/>
<polygon fill="midnightblue" stroke="midnightblue" points="372.44,-119.57 361.94,-118.1 369.23,-125.79 372.44,-119.57"/>
</g>
<!-- Node17 -->
<g id="node17" class="node">
<title>Node17</title>
<g id="a_node17"><a xlink:href="class_black_misc_1_1_mixin_1_1_icon.html" target="_top" xlink:title="CRTP class template from which a derived class can inherit icon&#45;related functions.">
<polygon fill="none" stroke="black" points="231.5,-39 231.5,-69 362.5,-69 362.5,-39 231.5,-39"/>
<text text-anchor="start" x="239.5" y="-57" font-family="Helvetica,sans-Serif" font-size="10.00">BlackMisc::Mixin::Icon</text>
<text text-anchor="middle" x="297" y="-46" font-family="Helvetica,sans-Serif" font-size="10.00">&lt; Derived, IconIndex &gt;</text>
</a>
</g>
</g>
<!-- Node17&#45;&gt;Node2 -->
<g id="edge16" class="edge">
<title>Node17&#45;&gt;Node2</title>
<path fill="none" stroke="midnightblue" d="M371.43,-73.33C374.09,-75.06 376.63,-76.95 379,-79 407.25,-103.47 397.96,-121.73 415,-155 439.35,-202.53 470.54,-257.46 485.59,-283.61"/>
<polygon fill="midnightblue" stroke="midnightblue" points="373,-70.2 362.57,-68.31 369.55,-76.29 373,-70.2"/>
</g>
<!-- Node18 -->
<g id="node18" class="node">
<title>Node18</title>
<g id="a_node18"><a xlink:href="class_black_misc_1_1_i_timestamp_with_offset_based.html" target="_top" xlink:title="Entity with timestamp.">
<polygon fill="none" stroke="black" points="419,-115 419,-145 572,-145 572,-115 419,-115"/>
<text text-anchor="start" x="427" y="-133" font-family="Helvetica,sans-Serif" font-size="10.00">BlackMisc::ITimestampWith</text>
<text text-anchor="middle" x="495.5" y="-122" font-family="Helvetica,sans-Serif" font-size="10.00">OffsetBased</text>
</a>
</g>
</g>
<!-- Node18&#45;&gt;Node1 -->
<g id="edge17" class="edge">
<title>Node18&#45;&gt;Node1</title>
<path fill="none" stroke="midnightblue" d="M581.98,-140.97C592,-142.26 602.14,-143.56 611.94,-144.82"/>
<polygon fill="midnightblue" stroke="midnightblue" points="582.39,-137.49 572.02,-139.69 581.49,-144.44 582.39,-137.49"/>
</g>
<!-- Node19 -->
<g id="node19" class="node">
<title>Node19</title>
<g id="a_node19"><a xlink:href="class_black_misc_1_1_i_timestamp_based.html" target="_top" xlink:title="Entity with timestamp.">
<polygon fill="none" stroke="black" points="216.5,-0.5 216.5,-19.5 377.5,-19.5 377.5,-0.5 216.5,-0.5"/>
<text text-anchor="middle" x="297" y="-7.5" font-family="Helvetica,sans-Serif" font-size="10.00">BlackMisc::ITimestampBased</text>
</a>
</g>
</g>
<!-- Node19&#45;&gt;Node18 -->
<g id="edge18" class="edge">
<title>Node19&#45;&gt;Node18</title>
<path fill="none" stroke="midnightblue" d="M364.42,-22.72C369.46,-24.55 374.38,-26.63 379,-29 421.89,-51.03 461.87,-92.4 481.61,-114.74"/>
<polygon fill="midnightblue" stroke="midnightblue" points="365.2,-19.3 354.61,-19.52 363.03,-25.95 365.2,-19.3"/>
</g>
</g>
</svg>
