<?xml version="1.0" encoding="UTF-8" standalone="no"?>
<!DOCTYPE svg PUBLIC "-//W3C//DTD SVG 1.1//EN"
 "http://www.w3.org/Graphics/SVG/1.1/DTD/svg11.dtd">
<!-- Generated by graphviz version 2.43.0 (0)
 -->
<!-- Title: BlackCore::Vatsim::CVatsimMetarReader Pages: 1 -->
<svg width="340pt" height="285pt"
 viewBox="0.00 0.00 339.50 285.00" xmlns="http://www.w3.org/2000/svg" xmlns:xlink="http://www.w3.org/1999/xlink">
<g id="graph0" class="graph" transform="scale(1 1) rotate(0) translate(4 281)">
<title>BlackCore::Vatsim::CVatsimMetarReader</title>
<!-- Node1 -->
<g id="node1" class="node">
<title>Node1</title>
<g id="a_node1"><a xlink:title="Read METARs from VATSIM.">
<polygon fill="#bfbfbf" stroke="black" points="110.5,-0.5 110.5,-30.5 230.5,-30.5 230.5,-0.5 110.5,-0.5"/>
<text text-anchor="start" x="118.5" y="-18.5" font-family="Helvetica,sans-Serif" font-size="10.00">BlackCore::Vatsim::</text>
<text text-anchor="middle" x="170.5" y="-7.5" font-family="Helvetica,sans-Serif" font-size="10.00">CVatsimMetarReader</text>
</a>
</g>
</g>
<!-- Node2 -->
<g id="node2" class="node">
<title>Node2</title>
<g id="a_node2"><a xlink:href="class_black_core_1_1_c_threaded_reader.html" target="_top" xlink:title="Support for threaded based reading and parsing tasks such as data files via http, or file system and ...">
<polygon fill="none" stroke="black" points="14,-73 14,-92 173,-92 173,-73 14,-73"/>
<text text-anchor="middle" x="93.5" y="-80" font-family="Helvetica,sans-Serif" font-size="10.00">BlackCore::CThreadedReader</text>
</a>
</g>
</g>
<!-- Node2&#45;&gt;Node1 -->
<g id="edge1" class="edge">
<title>Node2&#45;&gt;Node1</title>
<path fill="none" stroke="midnightblue" d="M111.58,-66.24C124.36,-55.45 141.36,-41.1 153.81,-30.59"/>
<polygon fill="midnightblue" stroke="midnightblue" points="109.27,-63.61 103.88,-72.73 113.78,-68.96 109.27,-63.61"/>
</g>
<!-- Node3 -->
<g id="node3" class="node">
<title>Node3</title>
<g id="a_node3"><a xlink:href="class_black_misc_1_1_c_continuous_worker.html" target="_top" xlink:title="Base class for a long&#45;lived worker object which lives in its own thread.">
<polygon fill="none" stroke="black" points="0,-140 0,-159 167,-159 167,-140 0,-140"/>
<text text-anchor="middle" x="83.5" y="-147" font-family="Helvetica,sans-Serif" font-size="10.00">BlackMisc::CContinuousWorker</text>
</a>
</g>
</g>
<!-- Node3&#45;&gt;Node2 -->
<g id="edge2" class="edge">
<title>Node3&#45;&gt;Node2</title>
<path fill="none" stroke="midnightblue" d="M86.42,-129.54C88.32,-117.17 90.71,-101.62 92.17,-92.13"/>
<polygon fill="midnightblue" stroke="midnightblue" points="82.91,-129.32 84.85,-139.73 89.83,-130.38 82.91,-129.32"/>
</g>
<!-- Node4 -->
<g id="node4" class="node">
<title>Node4</title>
<g id="a_node4"><a xlink:href="class_black_misc_1_1_c_worker_base.html" target="_top" xlink:title="Base class for CWorker and CContinuousWorker.">
<polygon fill="none" stroke="black" points="15,-201.5 15,-220.5 152,-220.5 152,-201.5 15,-201.5"/>
<text text-anchor="middle" x="83.5" y="-208.5" font-family="Helvetica,sans-Serif" font-size="10.00">BlackMisc::CWorkerBase</text>
</a>
</g>
</g>
<!-- Node4&#45;&gt;Node3 -->
<g id="edge3" class="edge">
<title>Node4&#45;&gt;Node3</title>
<path fill="none" stroke="midnightblue" d="M83.5,-191.32C83.5,-180.5 83.5,-167.4 83.5,-159.01"/>
<polygon fill="midnightblue" stroke="midnightblue" points="80,-191.48 83.5,-201.48 87,-191.48 80,-191.48"/>
</g>
<!-- Node5 -->
<g id="node5" class="node">
<title>Node5</title>
<g id="a_node5"><a target="_parent" xlink:href="http://doc.qt.io/qt-5/qobject.html" xlink:title=" ">
<polygon fill="none" stroke="black" points="55.5,-257.5 55.5,-276.5 111.5,-276.5 111.5,-257.5 55.5,-257.5"/>
<text text-anchor="middle" x="83.5" y="-264.5" font-family="Helvetica,sans-Serif" font-size="10.00">QObject</text>
</a>
</g>
</g>
<!-- Node5&#45;&gt;Node4 -->
<g id="edge4" class="edge">
<title>Node5&#45;&gt;Node4</title>
<path fill="none" stroke="midnightblue" d="M83.5,-246.8C83.5,-237.91 83.5,-227.78 83.5,-220.75"/>
<polygon fill="midnightblue" stroke="midnightblue" points="80,-247.08 83.5,-257.08 87,-247.08 80,-247.08"/>
</g>
<!-- Node6 -->
<g id="node6" class="node">
<title>Node6</title>
<g id="a_node6"><a xlink:href="class_black_misc_1_1_network_1_1_c_ecosystem_aware.html" target="_top" xlink:title="Delegating class which can be directly used to access an.">
<polygon fill="none" stroke="black" points="196,-67.5 196,-97.5 309,-97.5 309,-67.5 196,-67.5"/>
<text text-anchor="start" x="204" y="-85.5" font-family="Helvetica,sans-Serif" font-size="10.00">BlackMisc::Network</text>
<text text-anchor="middle" x="252.5" y="-74.5" font-family="Helvetica,sans-Serif" font-size="10.00">::CEcosystemAware</text>
</a>
</g>
</g>
<!-- Node6&#45;&gt;Node1 -->
<g id="edge5" class="edge">
<title>Node6&#45;&gt;Node1</title>
<path fill="none" stroke="midnightblue" d="M226.85,-61.17C214.31,-51.23 199.53,-39.51 188.26,-30.58"/>
<polygon fill="midnightblue" stroke="midnightblue" points="224.7,-63.93 234.71,-67.4 229.04,-58.44 224.7,-63.93"/>
</g>
<!-- Node7 -->
<g id="node7" class="node">
<title>Node7</title>
<g id="a_node7"><a xlink:href="class_black_misc_1_1_i_provider_aware.html" target="_top" xlink:title=" ">
<polygon fill="none" stroke="black" points="185.5,-134.5 185.5,-164.5 331.5,-164.5 331.5,-134.5 185.5,-134.5"/>
<text text-anchor="start" x="193.5" y="-152.5" font-family="Helvetica,sans-Serif" font-size="10.00">BlackMisc::IProviderAware</text>
<text text-anchor="middle" x="258.5" y="-141.5" font-family="Helvetica,sans-Serif" font-size="10.00">&lt; IEcosystemProvider &gt;</text>
</a>
</g>
</g>
<!-- Node7&#45;&gt;Node6 -->
<g id="edge6" class="edge">
<title>Node7&#45;&gt;Node6</title>
<path fill="none" stroke="midnightblue" d="M256.28,-124.4C255.44,-115.37 254.52,-105.41 253.8,-97.58"/>
<polygon fill="midnightblue" stroke="midnightblue" points="252.79,-124.76 257.2,-134.4 259.76,-124.12 252.79,-124.76"/>
</g>
</g>
</svg>
