<?xml version="1.0" encoding="UTF-8" standalone="no"?>
<!DOCTYPE svg PUBLIC "-//W3C//DTD SVG 1.1//EN"
 "http://www.w3.org/Graphics/SVG/1.1/DTD/svg11.dtd">
<!-- Generated by graphviz version 2.43.0 (0)
 -->
<!-- Title: BlackGui::Components::CMappingComponent Pages: 1 -->
<svg width="832pt" height="140pt"
 viewBox="0.00 0.00 832.00 140.00" xmlns="http://www.w3.org/2000/svg" xmlns:xlink="http://www.w3.org/1999/xlink">
<g id="graph0" class="graph" transform="scale(1 1) rotate(0) translate(4 136)">
<title>BlackGui::Components::CMappingComponent</title>
<!-- Node1 -->
<g id="node1" class="node">
<title>Node1</title>
<g id="a_node1"><a xlink:title="Mappings, models etc.">
<polygon fill="#bfbfbf" stroke="black" points="696,-39 696,-69 824,-69 824,-39 696,-39"/>
<text text-anchor="start" x="704" y="-57" font-family="Helvetica,sans-Serif" font-size="10.00">BlackGui::Components</text>
<text text-anchor="middle" x="760" y="-46" font-family="Helvetica,sans-Serif" font-size="10.00">::CMappingComponent</text>
</a>
</g>
</g>
<!-- Node2 -->
<g id="node2" class="node">
<title>Node2</title>
<g id="a_node2"><a xlink:href="class_black_gui_1_1_c_overlay_messages_frame.html" target="_top" xlink:title="Using this class provides a QFrame with the overlay functionality already integrated.">
<polygon fill="none" stroke="black" points="500,-88 500,-118 660,-118 660,-88 500,-88"/>
<text text-anchor="start" x="508" y="-106" font-family="Helvetica,sans-Serif" font-size="10.00">BlackGui::COverlayMessages</text>
<text text-anchor="middle" x="580" y="-95" font-family="Helvetica,sans-Serif" font-size="10.00">Frame</text>
</a>
</g>
</g>
<!-- Node2&#45;&gt;Node1 -->
<g id="edge1" class="edge">
<title>Node2&#45;&gt;Node1</title>
<path fill="none" stroke="midnightblue" d="M645.74,-85.18C664.96,-79.89 685.81,-74.15 704.32,-69.05"/>
<polygon fill="midnightblue" stroke="midnightblue" points="644.57,-81.87 635.86,-87.9 646.43,-88.62 644.57,-81.87"/>
</g>
<!-- Node3 -->
<g id="node3" class="node">
<title>Node3</title>
<g id="a_node3"><a xlink:href="class_black_gui_1_1_c_overlay_messages_base.html" target="_top" xlink:title=" ">
<polygon fill="none" stroke="black" points="304,-88 304,-118 464,-118 464,-88 304,-88"/>
<text text-anchor="start" x="312" y="-106" font-family="Helvetica,sans-Serif" font-size="10.00">BlackGui::COverlayMessages</text>
<text text-anchor="middle" x="384" y="-95" font-family="Helvetica,sans-Serif" font-size="10.00">Base&lt; QFrame &gt;</text>
</a>
</g>
</g>
<!-- Node3&#45;&gt;Node2 -->
<g id="edge2" class="edge">
<title>Node3&#45;&gt;Node2</title>
<path fill="none" stroke="midnightblue" d="M474.44,-103C482.88,-103 491.41,-103 499.75,-103"/>
<polygon fill="midnightblue" stroke="midnightblue" points="474.19,-99.5 464.19,-103 474.19,-106.5 474.19,-99.5"/>
</g>
<!-- Node4 -->
<g id="node4" class="node">
<title>Node4</title>
<g id="a_node4"><a target="_parent" xlink:href="http://doc.qt.io/qt-5/qframe.html" xlink:title=" ">
<polygon fill="none" stroke="black" points="213,-93.5 213,-112.5 268,-112.5 268,-93.5 213,-93.5"/>
<text text-anchor="middle" x="240.5" y="-100.5" font-family="Helvetica,sans-Serif" font-size="10.00">QFrame</text>
</a>
</g>
</g>
<!-- Node4&#45;&gt;Node3 -->
<g id="edge3" class="edge">
<title>Node4&#45;&gt;Node3</title>
<path fill="none" stroke="midnightblue" d="M278.17,-103C286.19,-103 294.98,-103 303.95,-103"/>
<polygon fill="midnightblue" stroke="midnightblue" points="278.12,-99.5 268.12,-103 278.12,-106.5 278.12,-99.5"/>
</g>
<!-- Node5 -->
<g id="node5" class="node">
<title>Node5</title>
<g id="a_node5"><a target="_parent" xlink:href="http://doc.qt.io/qt-5/qwidget.html" xlink:title=" ">
<polygon fill="none" stroke="black" points="118,-93.5 118,-112.5 177,-112.5 177,-93.5 118,-93.5"/>
<text text-anchor="middle" x="147.5" y="-100.5" font-family="Helvetica,sans-Serif" font-size="10.00">QWidget</text>
</a>
</g>
</g>
<!-- Node5&#45;&gt;Node4 -->
<g id="edge4" class="edge">
<title>Node5&#45;&gt;Node4</title>
<path fill="none" stroke="midnightblue" d="M187.46,-103C195.99,-103 204.83,-103 212.75,-103"/>
<polygon fill="midnightblue" stroke="midnightblue" points="187.29,-99.5 177.29,-103 187.29,-106.5 187.29,-99.5"/>
</g>
<!-- Node6 -->
<g id="node6" class="node">
<title>Node6</title>
<g id="a_node6"><a target="_parent" xlink:href="http://doc.qt.io/qt-5/qobject.html" xlink:title=" ">
<polygon fill="none" stroke="black" points="13,-112.5 13,-131.5 69,-131.5 69,-112.5 13,-112.5"/>
<text text-anchor="middle" x="41" y="-119.5" font-family="Helvetica,sans-Serif" font-size="10.00">QObject</text>
</a>
</g>
</g>
<!-- Node6&#45;&gt;Node5 -->
<g id="edge5" class="edge">
<title>Node6&#45;&gt;Node5</title>
<path fill="none" stroke="midnightblue" d="M79.09,-115.26C91.88,-112.93 106,-110.36 117.99,-108.18"/>
<polygon fill="midnightblue" stroke="midnightblue" points="78.4,-111.83 69.18,-117.06 79.65,-118.71 78.4,-111.83"/>
</g>
<!-- Node7 -->
<g id="node7" class="node">
<title>Node7</title>
<g id="a_node7"><a target="_parent" xlink:href="http://doc.qt.io/qt-5/qpaintdevice.html" xlink:title=" ">
<polygon fill="none" stroke="black" points="0,-74.5 0,-93.5 82,-93.5 82,-74.5 0,-74.5"/>
<text text-anchor="middle" x="41" y="-81.5" font-family="Helvetica,sans-Serif" font-size="10.00">QPaintDevice</text>
</a>
</g>
</g>
<!-- Node7&#45;&gt;Node5 -->
<g id="edge6" class="edge">
<title>Node7&#45;&gt;Node5</title>
<path fill="none" stroke="midnightblue" d="M91.97,-93.09C100.8,-94.69 109.71,-96.31 117.69,-97.76"/>
<polygon fill="midnightblue" stroke="midnightblue" points="92.57,-89.64 82.1,-91.29 91.32,-96.52 92.57,-89.64"/>
</g>
<!-- Node8 -->
<g id="node8" class="node">
<title>Node8</title>
<g id="a_node8"><a xlink:href="class_black_gui_1_1_c_enable_for_dock_widget_info_area.html" target="_top" xlink:title="Helper class: If a component is residing in an dockable widget. This class provides access to its inf...">
<polygon fill="none" stroke="black" points="507,-39 507,-69 653,-69 653,-39 507,-39"/>
<text text-anchor="start" x="515" y="-57" font-family="Helvetica,sans-Serif" font-size="10.00">BlackGui::CEnableForDock</text>
<text text-anchor="middle" x="580" y="-46" font-family="Helvetica,sans-Serif" font-size="10.00">WidgetInfoArea</text>
</a>
</g>
</g>
<!-- Node8&#45;&gt;Node1 -->
<g id="edge7" class="edge">
<title>Node8&#45;&gt;Node1</title>
<path fill="none" stroke="midnightblue" d="M663.18,-54C674.18,-54 685.31,-54 695.91,-54"/>
<polygon fill="midnightblue" stroke="midnightblue" points="663.14,-50.5 653.14,-54 663.14,-57.5 663.14,-50.5"/>
</g>
<!-- Node9 -->
<g id="node9" class="node">
<title>Node9</title>
<g id="a_node9"><a xlink:href="class_black_misc_1_1_c_identifiable.html" target="_top" xlink:title="Base class with a member CIdentifier to be inherited by a class which has an identity in the environm...">
<polygon fill="none" stroke="black" points="513,-0.5 513,-19.5 647,-19.5 647,-0.5 513,-0.5"/>
<text text-anchor="middle" x="580" y="-7.5" font-family="Helvetica,sans-Serif" font-size="10.00">BlackMisc::CIdentifiable</text>
</a>
</g>
</g>
<!-- Node9&#45;&gt;Node1 -->
<g id="edge8" class="edge">
<title>Node9&#45;&gt;Node1</title>
<path fill="none" stroke="midnightblue" d="M631.05,-21.95C640.66,-24.27 650.65,-26.69 660,-29 672.91,-32.18 686.75,-35.65 699.87,-38.95"/>
<polygon fill="midnightblue" stroke="midnightblue" points="631.75,-18.52 621.21,-19.58 630.11,-25.32 631.75,-18.52"/>
</g>
</g>
</svg>
