<?xml version="1.0" encoding="UTF-8" standalone="no"?>
<!DOCTYPE svg PUBLIC "-//W3C//DTD SVG 1.1//EN"
 "http://www.w3.org/Graphics/SVG/1.1/DTD/svg11.dtd">
<!-- Generated by graphviz version 2.43.0 (0)
 -->
<!-- Title: BlackMisc::Network::CRawFsdMessageList Pages: 1 -->
<svg width="815pt" height="296pt"
 viewBox="0.00 0.00 815.00 295.50" xmlns="http://www.w3.org/2000/svg" xmlns:xlink="http://www.w3.org/1999/xlink">
<g id="graph0" class="graph" transform="scale(1 1) rotate(0) translate(4 291.5)">
<title>BlackMisc::Network::CRawFsdMessageList</title>
<!-- Node1 -->
<g id="node1" class="node">
<title>Node1</title>
<g id="a_node1"><a xlink:title="Value object encapsulating a list raw FSD messages.">
<polygon fill="#bfbfbf" stroke="black" points="679,-61 679,-91 807,-91 807,-61 679,-61"/>
<text text-anchor="start" x="687" y="-79" font-family="Helvetica,sans-Serif" font-size="10.00">BlackMisc::Network</text>
<text text-anchor="middle" x="743" y="-68" font-family="Helvetica,sans-Serif" font-size="10.00">::CRawFsdMessageList</text>
</a>
</g>
</g>
<!-- Node2 -->
<g id="node2" class="node">
<title>Node2</title>
<g id="a_node2"><a xlink:href="class_black_misc_1_1_c_sequence.html" target="_top" xlink:title=" ">
<polygon fill="none" stroke="black" points="465,-110 465,-140 593,-140 593,-110 465,-110"/>
<text text-anchor="start" x="473" y="-128" font-family="Helvetica,sans-Serif" font-size="10.00">BlackMisc::CSequence</text>
<text text-anchor="middle" x="529" y="-117" font-family="Helvetica,sans-Serif" font-size="10.00">&lt; CRawFsdMessage &gt;</text>
</a>
</g>
</g>
<!-- Node2&#45;&gt;Node1 -->
<g id="edge1" class="edge">
<title>Node2&#45;&gt;Node1</title>
<path fill="none" stroke="midnightblue" d="M603.15,-109.04C616.42,-106.08 630.13,-102.98 643,-100 655.23,-97.16 668.29,-94.06 680.79,-91.04"/>
<polygon fill="midnightblue" stroke="midnightblue" points="602.11,-105.69 593.11,-111.27 603.63,-112.52 602.11,-105.69"/>
</g>
<!-- Node3 -->
<g id="node3" class="node">
<title>Node3</title>
<g id="a_node3"><a xlink:href="class_black_misc_1_1_c_container_base.html" target="_top" xlink:title="Base class for CCollection and CSequence adding mutating operations and CValueObject facility on top ...">
<polygon fill="none" stroke="black" points="222,-159 222,-189 372,-189 372,-159 222,-159"/>
<text text-anchor="start" x="230" y="-177" font-family="Helvetica,sans-Serif" font-size="10.00">BlackMisc::CContainerBase</text>
<text text-anchor="middle" x="297" y="-166" font-family="Helvetica,sans-Serif" font-size="10.00">&lt; Derived &gt;</text>
</a>
</g>
</g>
<!-- Node3&#45;&gt;Node2 -->
<g id="edge2" class="edge">
<title>Node3&#45;&gt;Node2</title>
<path fill="none" stroke="midnightblue" d="M378.46,-156.86C406.82,-150.82 438.27,-144.12 464.98,-138.43"/>
<polygon fill="midnightblue" stroke="midnightblue" points="377.62,-153.46 368.57,-158.97 379.08,-160.3 377.62,-153.46"/>
</g>
<!-- Node4 -->
<g id="node4" class="node">
<title>Node4</title>
<g id="a_node4"><a xlink:href="class_black_misc_1_1_c_range_base.html" target="_top" xlink:title="Any container class with begin and end iterators can inherit from this CRTP class to gain some useful...">
<polygon fill="none" stroke="black" points="22.5,-257 22.5,-287 156.5,-287 156.5,-257 22.5,-257"/>
<text text-anchor="start" x="30.5" y="-275" font-family="Helvetica,sans-Serif" font-size="10.00">BlackMisc::CRangeBase</text>
<text text-anchor="middle" x="89.5" y="-264" font-family="Helvetica,sans-Serif" font-size="10.00">&lt; Derived &gt;</text>
</a>
</g>
</g>
<!-- Node4&#45;&gt;Node3 -->
<g id="edge3" class="edge">
<title>Node4&#45;&gt;Node3</title>
<path fill="none" stroke="midnightblue" d="M164.63,-253.69C169.55,-251.93 174.38,-250.03 179,-248 215.52,-231.94 253.87,-205.59 276.33,-189.05"/>
<polygon fill="midnightblue" stroke="midnightblue" points="163.44,-250.4 155.09,-256.92 165.69,-257.03 163.44,-250.4"/>
</g>
<!-- Node5 -->
<g id="node5" class="node">
<title>Node5</title>
<g id="a_node5"><a xlink:href="class_black_misc_1_1_mixin_1_1_meta_type.html" target="_top" xlink:title="CRTP class template from which a derived class can inherit common methods dealing with the metatype o...">
<polygon fill="none" stroke="black" points="13.5,-208 13.5,-238 165.5,-238 165.5,-208 13.5,-208"/>
<text text-anchor="start" x="21.5" y="-226" font-family="Helvetica,sans-Serif" font-size="10.00">BlackMisc::Mixin::MetaType</text>
<text text-anchor="middle" x="89.5" y="-215" font-family="Helvetica,sans-Serif" font-size="10.00">&lt; Derived &gt;</text>
</a>
</g>
</g>
<!-- Node5&#45;&gt;Node3 -->
<g id="edge4" class="edge">
<title>Node5&#45;&gt;Node3</title>
<path fill="none" stroke="midnightblue" d="M163.49,-205.6C186.22,-200.18 211.08,-194.25 233.07,-189.01"/>
<polygon fill="midnightblue" stroke="midnightblue" points="162.47,-202.24 153.55,-207.97 164.09,-209.05 162.47,-202.24"/>
</g>
<!-- Node6 -->
<g id="node6" class="node">
<title>Node6</title>
<g id="a_node6"><a xlink:href="class_black_misc_1_1_mixin_1_1_d_bus_operators.html" target="_top" xlink:title=" ">
<polygon fill="none" stroke="black" points="0,-159 0,-189 179,-189 179,-159 0,-159"/>
<text text-anchor="start" x="8" y="-177" font-family="Helvetica,sans-Serif" font-size="10.00">BlackMisc::Mixin::DBusOperators</text>
<text text-anchor="middle" x="89.5" y="-166" font-family="Helvetica,sans-Serif" font-size="10.00">&lt; Derived &gt;</text>
</a>
</g>
</g>
<!-- Node6&#45;&gt;Node3 -->
<g id="edge5" class="edge">
<title>Node6&#45;&gt;Node3</title>
<path fill="none" stroke="midnightblue" d="M189.19,-174C200.17,-174 211.22,-174 221.82,-174"/>
<polygon fill="midnightblue" stroke="midnightblue" points="189.14,-170.5 179.14,-174 189.14,-177.5 189.14,-170.5"/>
</g>
<!-- Node7 -->
<g id="node7" class="node">
<title>Node7</title>
<g id="a_node7"><a xlink:href="class_black_misc_1_1_mixin_1_1_json_operators.html" target="_top" xlink:title="CRTP class template which will generate marshalling operators for a derived class with its own marsha...">
<polygon fill="none" stroke="black" points="3,-110 3,-140 176,-140 176,-110 3,-110"/>
<text text-anchor="start" x="11" y="-128" font-family="Helvetica,sans-Serif" font-size="10.00">BlackMisc::Mixin::JsonOperators</text>
<text text-anchor="middle" x="89.5" y="-117" font-family="Helvetica,sans-Serif" font-size="10.00">&lt; Derived &gt;</text>
</a>
</g>
</g>
<!-- Node7&#45;&gt;Node3 -->
<g id="edge6" class="edge">
<title>Node7&#45;&gt;Node3</title>
<path fill="none" stroke="midnightblue" d="M163.49,-142.4C186.22,-147.82 211.08,-153.75 233.07,-158.99"/>
<polygon fill="midnightblue" stroke="midnightblue" points="164.09,-138.95 153.55,-140.03 162.47,-145.76 164.09,-138.95"/>
</g>
<!-- Node8 -->
<g id="node8" class="node">
<title>Node8</title>
<g id="a_node8"><a xlink:href="class_black_misc_1_1_mixin_1_1_string.html" target="_top" xlink:title="CRTP class template from which a derived class can inherit string streaming operations.">
<polygon fill="none" stroke="black" points="22.5,-61 22.5,-91 156.5,-91 156.5,-61 22.5,-61"/>
<text text-anchor="start" x="30.5" y="-79" font-family="Helvetica,sans-Serif" font-size="10.00">BlackMisc::Mixin::String</text>
<text text-anchor="middle" x="89.5" y="-68" font-family="Helvetica,sans-Serif" font-size="10.00">&lt; Derived &gt;</text>
</a>
</g>
</g>
<!-- Node8&#45;&gt;Node3 -->
<g id="edge7" class="edge">
<title>Node8&#45;&gt;Node3</title>
<path fill="none" stroke="midnightblue" d="M166.04,-92.59C170.58,-94.76 174.95,-97.22 179,-100 201.29,-115.28 192.98,-133.34 215,-149 220.4,-152.84 226.4,-156.1 232.63,-158.87"/>
<polygon fill="midnightblue" stroke="midnightblue" points="167.09,-89.23 156.52,-88.51 164.34,-95.67 167.09,-89.23"/>
</g>
<!-- Node9 -->
<g id="node9" class="node">
<title>Node9</title>
<g id="a_node9"><a xlink:href="class_black_misc_1_1_mixin_1_1_data_stream_operators.html" target="_top" xlink:title="CRTP class template to generate non&#45;member QDataStream streaming operators.">
<polygon fill="none" stroke="black" points="215,-110 215,-140 379,-140 379,-110 215,-110"/>
<text text-anchor="start" x="223" y="-128" font-family="Helvetica,sans-Serif" font-size="10.00">BlackMisc::Mixin::DataStream</text>
<text text-anchor="middle" x="297" y="-117" font-family="Helvetica,sans-Serif" font-size="10.00">Operators&lt; Derived &gt;</text>
</a>
</g>
</g>
<!-- Node9&#45;&gt;Node2 -->
<g id="edge8" class="edge">
<title>Node9&#45;&gt;Node2</title>
<path fill="none" stroke="midnightblue" d="M389.11,-125C414.53,-125 441.57,-125 464.98,-125"/>
<polygon fill="midnightblue" stroke="midnightblue" points="389.09,-121.5 379.09,-125 389.09,-128.5 389.09,-121.5"/>
</g>
<!-- Node10 -->
<g id="node10" class="node">
<title>Node10</title>
<g id="a_node10"><a xlink:href="class_black_misc_1_1_mixin_1_1_icon.html" target="_top" xlink:title="CRTP class template from which a derived class can inherit icon&#45;related functions.">
<polygon fill="none" stroke="black" points="231.5,-61 231.5,-91 362.5,-91 362.5,-61 231.5,-61"/>
<text text-anchor="start" x="239.5" y="-79" font-family="Helvetica,sans-Serif" font-size="10.00">BlackMisc::Mixin::Icon</text>
<text text-anchor="middle" x="297" y="-68" font-family="Helvetica,sans-Serif" font-size="10.00">&lt; Derived, IconIndex &gt;</text>
</a>
</g>
</g>
<!-- Node10&#45;&gt;Node2 -->
<g id="edge9" class="edge">
<title>Node10&#45;&gt;Node2</title>
<path fill="none" stroke="midnightblue" d="M372.62,-91.9C402.45,-98.25 436.43,-105.49 465,-111.58"/>
<polygon fill="midnightblue" stroke="midnightblue" points="373.19,-88.44 362.68,-89.78 371.73,-95.29 373.19,-88.44"/>
</g>
<!-- Node11 -->
<g id="node11" class="node">
<title>Node11</title>
<g id="a_node11"><a xlink:href="class_black_misc_1_1_mixin_1_1_meta_type.html" target="_top" xlink:title=" ">
<polygon fill="none" stroke="black" points="453,-61 453,-91 605,-91 605,-61 453,-61"/>
<text text-anchor="start" x="461" y="-79" font-family="Helvetica,sans-Serif" font-size="10.00">BlackMisc::Mixin::MetaType</text>
<text text-anchor="middle" x="529" y="-68" font-family="Helvetica,sans-Serif" font-size="10.00">&lt; CRawFsdMessageList &gt;</text>
</a>
</g>
</g>
<!-- Node11&#45;&gt;Node1 -->
<g id="edge10" class="edge">
<title>Node11&#45;&gt;Node1</title>
<path fill="none" stroke="midnightblue" d="M615.08,-76C636.42,-76 658.93,-76 678.98,-76"/>
<polygon fill="midnightblue" stroke="midnightblue" points="615.04,-72.5 605.04,-76 615.04,-79.5 615.04,-72.5"/>
</g>
<!-- Node12 -->
<g id="node12" class="node">
<title>Node12</title>
<g id="a_node12"><a xlink:href="class_black_misc_1_1_i_timestamp_object_list.html" target="_top" xlink:title=" ">
<polygon fill="none" stroke="black" points="415,-0.5 415,-41.5 643,-41.5 643,-0.5 415,-0.5"/>
<text text-anchor="start" x="423" y="-29.5" font-family="Helvetica,sans-Serif" font-size="10.00">BlackMisc::ITimestampObject</text>
<text text-anchor="start" x="423" y="-18.5" font-family="Helvetica,sans-Serif" font-size="10.00">List&lt; CRawFsdMessage, CRawFsdMessage</text>
<text text-anchor="middle" x="529" y="-7.5" font-family="Helvetica,sans-Serif" font-size="10.00">List &gt;</text>
</a>
</g>
</g>
<!-- Node12&#45;&gt;Node1 -->
<g id="edge11" class="edge">
<title>Node12&#45;&gt;Node1</title>
<path fill="none" stroke="midnightblue" d="M618.93,-44.07C640.93,-49.78 663.94,-55.75 684.03,-60.96"/>
<polygon fill="midnightblue" stroke="midnightblue" points="619.8,-40.68 609.24,-41.56 618.04,-47.46 619.8,-40.68"/>
</g>
</g>
</svg>
