<?xml version="1.0" encoding="UTF-8" standalone="no"?>
<!DOCTYPE svg PUBLIC "-//W3C//DTD SVG 1.1//EN"
 "http://www.w3.org/Graphics/SVG/1.1/DTD/svg11.dtd">
<!-- Generated by graphviz version 2.43.0 (0)
 -->
<!-- Title: BlackGui::Models::CComFrequencyFormatter Pages: 1 -->
<svg width="834pt" height="61pt"
 viewBox="0.00 0.00 834.00 61.00" xmlns="http://www.w3.org/2000/svg" xmlns:xlink="http://www.w3.org/1999/xlink">
<g id="graph0" class="graph" transform="scale(1 1) rotate(0) translate(4 57)">
<title>BlackGui::Models::CComFrequencyFormatter</title>
<!-- Node1 -->
<g id="node1" class="node">
<title>Node1</title>
<g id="a_node1"><a xlink:title="COM frequencies.">
<polygon fill="#bfbfbf" stroke="black" points="639,-11.5 639,-41.5 826,-41.5 826,-11.5 639,-11.5"/>
<text text-anchor="start" x="647" y="-29.5" font-family="Helvetica,sans-Serif" font-size="10.00">BlackGui::Models::CComFrequency</text>
<text text-anchor="middle" x="732.5" y="-18.5" font-family="Helvetica,sans-Serif" font-size="10.00">Formatter</text>
</a>
</g>
</g>
<!-- Node2 -->
<g id="node2" class="node">
<title>Node2</title>
<g id="a_node2"><a xlink:href="class_black_gui_1_1_models_1_1_c_physiqal_quantiy_formatter.html" target="_top" xlink:title=" ">
<polygon fill="none" stroke="black" points="363,-0.5 363,-52.5 603,-52.5 603,-0.5 363,-0.5"/>
<text text-anchor="start" x="371" y="-40.5" font-family="Helvetica,sans-Serif" font-size="10.00">BlackGui::Models::CPhysiqal</text>
<text text-anchor="start" x="371" y="-29.5" font-family="Helvetica,sans-Serif" font-size="10.00">QuantiyFormatter&lt; BlackMisc</text>
<text text-anchor="start" x="371" y="-18.5" font-family="Helvetica,sans-Serif" font-size="10.00">::PhysicalQuantities::CFrequencyUnit,</text>
<text text-anchor="middle" x="483" y="-7.5" font-family="Helvetica,sans-Serif" font-size="10.00"> BlackMisc::PhysicalQuantities::CFrequency &gt;</text>
</a>
</g>
</g>
<!-- Node2&#45;&gt;Node1 -->
<g id="edge1" class="edge">
<title>Node2&#45;&gt;Node1</title>
<path fill="none" stroke="midnightblue" d="M613.18,-26.5C621.81,-26.5 630.41,-26.5 638.8,-26.5"/>
<polygon fill="midnightblue" stroke="midnightblue" points="613.04,-23 603.04,-26.5 613.04,-30 613.04,-23"/>
</g>
<!-- Node3 -->
<g id="node3" class="node">
<title>Node3</title>
<g id="a_node3"><a xlink:href="class_black_gui_1_1_models_1_1_c_value_object_formatter.html" target="_top" xlink:title="Default formatter when column contains CValueObject.">
<polygon fill="none" stroke="black" points="186,-11.5 186,-41.5 327,-41.5 327,-11.5 186,-11.5"/>
<text text-anchor="start" x="194" y="-29.5" font-family="Helvetica,sans-Serif" font-size="10.00">BlackGui::Models::CValue</text>
<text text-anchor="middle" x="256.5" y="-18.5" font-family="Helvetica,sans-Serif" font-size="10.00">ObjectFormatter</text>
</a>
</g>
</g>
<!-- Node3&#45;&gt;Node2 -->
<g id="edge2" class="edge">
<title>Node3&#45;&gt;Node2</title>
<path fill="none" stroke="midnightblue" d="M337.55,-26.5C345.77,-26.5 354.23,-26.5 362.75,-26.5"/>
<polygon fill="midnightblue" stroke="midnightblue" points="337.3,-23 327.3,-26.5 337.3,-30 337.3,-23"/>
</g>
<!-- Node4 -->
<g id="node4" class="node">
<title>Node4</title>
<g id="a_node4"><a xlink:href="class_black_gui_1_1_models_1_1_c_default_formatter.html" target="_top" xlink:title="Column formatter default implementation, also serving as interface.">
<polygon fill="none" stroke="black" points="0,-11.5 0,-41.5 150,-41.5 150,-11.5 0,-11.5"/>
<text text-anchor="start" x="8" y="-29.5" font-family="Helvetica,sans-Serif" font-size="10.00">BlackGui::Models::CDefault</text>
<text text-anchor="middle" x="75" y="-18.5" font-family="Helvetica,sans-Serif" font-size="10.00">Formatter</text>
</a>
</g>
</g>
<!-- Node4&#45;&gt;Node3 -->
<g id="edge3" class="edge">
<title>Node4&#45;&gt;Node3</title>
<path fill="none" stroke="midnightblue" d="M160.14,-26.5C168.78,-26.5 177.49,-26.5 185.95,-26.5"/>
<polygon fill="midnightblue" stroke="midnightblue" points="160.05,-23 150.05,-26.5 160.05,-30 160.05,-23"/>
</g>
</g>
</svg>
