<?xml version="1.0" encoding="UTF-8" standalone="no"?>
<!DOCTYPE svg PUBLIC "-//W3C//DTD SVG 1.1//EN"
 "http://www.w3.org/Graphics/SVG/1.1/DTD/svg11.dtd">
<!-- Generated by graphviz version 2.43.0 (0)
 -->
<!-- Title: BlackCore::CAircraftMatcher Pages: 1 -->
<svg width="230pt" height="151pt"
 viewBox="0.00 0.00 229.50 151.00" xmlns="http://www.w3.org/2000/svg" xmlns:xlink="http://www.w3.org/1999/xlink">
<g id="graph0" class="graph" transform="scale(1 1) rotate(0) translate(4 147)">
<title>BlackCore::CAircraftMatcher</title>
<!-- Node1 -->
<g id="node1" class="node">
<title>Node1</title>
<g id="a_node1"><a xlink:title="Matcher for all models.">
<polygon fill="#bfbfbf" stroke="black" points="11,-0.5 11,-19.5 165,-19.5 165,-0.5 11,-0.5"/>
<text text-anchor="middle" x="88" y="-7.5" font-family="Helvetica,sans-Serif" font-size="10.00">BlackCore::CAircraftMatcher</text>
</a>
</g>
</g>
<!-- Node2 -->
<g id="node2" class="node">
<title>Node2</title>
<g id="a_node2"><a target="_parent" xlink:href="http://doc.qt.io/qt-5/qobject.html" xlink:title=" ">
<polygon fill="none" stroke="black" points="0,-62 0,-81 56,-81 56,-62 0,-62"/>
<text text-anchor="middle" x="28" y="-69" font-family="Helvetica,sans-Serif" font-size="10.00">QObject</text>
</a>
</g>
</g>
<!-- Node2&#45;&gt;Node1 -->
<g id="edge1" class="edge">
<title>Node2&#45;&gt;Node1</title>
<path fill="none" stroke="midnightblue" d="M43.81,-54.82C55.21,-43.52 70.16,-28.69 79.42,-19.51"/>
<polygon fill="midnightblue" stroke="midnightblue" points="41.23,-52.45 36.6,-61.98 46.16,-57.42 41.23,-52.45"/>
</g>
<!-- Node3 -->
<g id="node3" class="node">
<title>Node3</title>
<g id="a_node3"><a xlink:href="class_black_misc_1_1_simulation_1_1_i_aircraft_model_set_provider.html" target="_top" xlink:title="Value object encapsulating a list of aircraft models.">
<polygon fill="none" stroke="black" points="74.5,-56.5 74.5,-86.5 221.5,-86.5 221.5,-56.5 74.5,-56.5"/>
<text text-anchor="start" x="82.5" y="-74.5" font-family="Helvetica,sans-Serif" font-size="10.00">BlackMisc::Simulation</text>
<text text-anchor="middle" x="148" y="-63.5" font-family="Helvetica,sans-Serif" font-size="10.00">::IAircraftModelSetProvider</text>
</a>
</g>
</g>
<!-- Node3&#45;&gt;Node1 -->
<g id="edge2" class="edge">
<title>Node3&#45;&gt;Node1</title>
<path fill="none" stroke="midnightblue" d="M126.62,-49.3C116.32,-39.09 104.55,-27.41 96.73,-19.66"/>
<polygon fill="midnightblue" stroke="midnightblue" points="124.22,-51.84 133.78,-56.4 129.14,-46.87 124.22,-51.84"/>
</g>
<!-- Node4 -->
<g id="node4" class="node">
<title>Node4</title>
<g id="a_node4"><a xlink:href="class_black_misc_1_1_i_provider.html" target="_top" xlink:title="Base class for providers.">
<polygon fill="none" stroke="black" points="90,-123.5 90,-142.5 206,-142.5 206,-123.5 90,-123.5"/>
<text text-anchor="middle" x="148" y="-130.5" font-family="Helvetica,sans-Serif" font-size="10.00">BlackMisc::IProvider</text>
</a>
</g>
</g>
<!-- Node4&#45;&gt;Node3 -->
<g id="edge3" class="edge">
<title>Node4&#45;&gt;Node3</title>
<path fill="none" stroke="midnightblue" d="M148,-113.23C148,-104.59 148,-94.5 148,-86.52"/>
<polygon fill="midnightblue" stroke="midnightblue" points="144.5,-113.48 148,-123.48 151.5,-113.48 144.5,-113.48"/>
</g>
</g>
</svg>
