<?xml version="1.0" encoding="UTF-8" standalone="no"?>
<!DOCTYPE svg PUBLIC "-//W3C//DTD SVG 1.1//EN"
 "http://www.w3.org/Graphics/SVG/1.1/DTD/svg11.dtd">
<!-- Generated by graphviz version 2.43.0 (0)
 -->
<!-- Title: BlackGui::Components::CWeatherComponent Pages: 1 -->
<svg width="1064pt" height="116pt"
 viewBox="0.00 0.00 1064.00 116.00" xmlns="http://www.w3.org/2000/svg" xmlns:xlink="http://www.w3.org/1999/xlink">
<g id="graph0" class="graph" transform="scale(1 1) rotate(0) translate(4 112)">
<title>BlackGui::Components::CWeatherComponent</title>
<!-- Node1 -->
<g id="node1" class="node">
<title>Node1</title>
<g id="a_node1"><a xlink:title="Weather component.">
<polygon fill="#bfbfbf" stroke="black" points="928,-17 928,-47 1056,-47 1056,-17 928,-17"/>
<text text-anchor="start" x="936" y="-35" font-family="Helvetica,sans-Serif" font-size="10.00">BlackGui::Components</text>
<text text-anchor="middle" x="992" y="-24" font-family="Helvetica,sans-Serif" font-size="10.00">::CWeatherComponent</text>
</a>
</g>
</g>
<!-- Node2 -->
<g id="node2" class="node">
<title>Node2</title>
<g id="a_node2"><a xlink:href="class_black_gui_1_1_c_overlay_messages_frame_enable_for_dock_widget_info_area.html" target="_top" xlink:title="Using this class provides a QFrame with the overlay and dock widget functionality already integrated.">
<polygon fill="none" stroke="black" points="696,-39 696,-69 892,-69 892,-39 696,-39"/>
<text text-anchor="start" x="704" y="-57" font-family="Helvetica,sans-Serif" font-size="10.00">BlackGui::COverlayMessages</text>
<text text-anchor="middle" x="794" y="-46" font-family="Helvetica,sans-Serif" font-size="10.00">FrameEnableForDockWidgetInfoArea</text>
</a>
</g>
</g>
<!-- Node2&#45;&gt;Node1 -->
<g id="edge1" class="edge">
<title>Node2&#45;&gt;Node1</title>
<path fill="none" stroke="midnightblue" d="M902.08,-41.98C910.86,-41 919.54,-40.02 927.83,-39.09"/>
<polygon fill="midnightblue" stroke="midnightblue" points="901.69,-38.5 892.14,-43.1 902.47,-45.46 901.69,-38.5"/>
</g>
<!-- Node3 -->
<g id="node3" class="node">
<title>Node3</title>
<g id="a_node3"><a xlink:href="class_black_gui_1_1_c_overlay_messages_frame.html" target="_top" xlink:title="Using this class provides a QFrame with the overlay functionality already integrated.">
<polygon fill="none" stroke="black" points="500,-64 500,-94 660,-94 660,-64 500,-64"/>
<text text-anchor="start" x="508" y="-82" font-family="Helvetica,sans-Serif" font-size="10.00">BlackGui::COverlayMessages</text>
<text text-anchor="middle" x="580" y="-71" font-family="Helvetica,sans-Serif" font-size="10.00">Frame</text>
</a>
</g>
</g>
<!-- Node3&#45;&gt;Node2 -->
<g id="edge2" class="edge">
<title>Node3&#45;&gt;Node2</title>
<path fill="none" stroke="midnightblue" d="M670.44,-68.45C678.87,-67.46 687.44,-66.45 695.94,-65.45"/>
<polygon fill="midnightblue" stroke="midnightblue" points="669.76,-65.01 660.24,-69.66 670.58,-71.96 669.76,-65.01"/>
</g>
<!-- Node4 -->
<g id="node4" class="node">
<title>Node4</title>
<g id="a_node4"><a xlink:href="class_black_gui_1_1_c_overlay_messages_base.html" target="_top" xlink:title=" ">
<polygon fill="none" stroke="black" points="304,-64 304,-94 464,-94 464,-64 304,-64"/>
<text text-anchor="start" x="312" y="-82" font-family="Helvetica,sans-Serif" font-size="10.00">BlackGui::COverlayMessages</text>
<text text-anchor="middle" x="384" y="-71" font-family="Helvetica,sans-Serif" font-size="10.00">Base&lt; QFrame &gt;</text>
</a>
</g>
</g>
<!-- Node4&#45;&gt;Node3 -->
<g id="edge3" class="edge">
<title>Node4&#45;&gt;Node3</title>
<path fill="none" stroke="midnightblue" d="M474.44,-79C482.88,-79 491.41,-79 499.75,-79"/>
<polygon fill="midnightblue" stroke="midnightblue" points="474.19,-75.5 464.19,-79 474.19,-82.5 474.19,-75.5"/>
</g>
<!-- Node5 -->
<g id="node5" class="node">
<title>Node5</title>
<g id="a_node5"><a target="_parent" xlink:href="http://doc.qt.io/qt-5/qframe.html" xlink:title=" ">
<polygon fill="none" stroke="black" points="213,-69.5 213,-88.5 268,-88.5 268,-69.5 213,-69.5"/>
<text text-anchor="middle" x="240.5" y="-76.5" font-family="Helvetica,sans-Serif" font-size="10.00">QFrame</text>
</a>
</g>
</g>
<!-- Node5&#45;&gt;Node4 -->
<g id="edge4" class="edge">
<title>Node5&#45;&gt;Node4</title>
<path fill="none" stroke="midnightblue" d="M278.17,-79C286.19,-79 294.98,-79 303.95,-79"/>
<polygon fill="midnightblue" stroke="midnightblue" points="278.12,-75.5 268.12,-79 278.12,-82.5 278.12,-75.5"/>
</g>
<!-- Node6 -->
<g id="node6" class="node">
<title>Node6</title>
<g id="a_node6"><a target="_parent" xlink:href="http://doc.qt.io/qt-5/qwidget.html" xlink:title=" ">
<polygon fill="none" stroke="black" points="118,-69.5 118,-88.5 177,-88.5 177,-69.5 118,-69.5"/>
<text text-anchor="middle" x="147.5" y="-76.5" font-family="Helvetica,sans-Serif" font-size="10.00">QWidget</text>
</a>
</g>
</g>
<!-- Node6&#45;&gt;Node5 -->
<g id="edge5" class="edge">
<title>Node6&#45;&gt;Node5</title>
<path fill="none" stroke="midnightblue" d="M187.46,-79C195.99,-79 204.83,-79 212.75,-79"/>
<polygon fill="midnightblue" stroke="midnightblue" points="187.29,-75.5 177.29,-79 187.29,-82.5 187.29,-75.5"/>
</g>
<!-- Node7 -->
<g id="node7" class="node">
<title>Node7</title>
<g id="a_node7"><a target="_parent" xlink:href="http://doc.qt.io/qt-5/qobject.html" xlink:title=" ">
<polygon fill="none" stroke="black" points="13,-88.5 13,-107.5 69,-107.5 69,-88.5 13,-88.5"/>
<text text-anchor="middle" x="41" y="-95.5" font-family="Helvetica,sans-Serif" font-size="10.00">QObject</text>
</a>
</g>
</g>
<!-- Node7&#45;&gt;Node6 -->
<g id="edge6" class="edge">
<title>Node7&#45;&gt;Node6</title>
<path fill="none" stroke="midnightblue" d="M79.09,-91.26C91.88,-88.93 106,-86.36 117.99,-84.18"/>
<polygon fill="midnightblue" stroke="midnightblue" points="78.4,-87.83 69.18,-93.06 79.65,-94.71 78.4,-87.83"/>
</g>
<!-- Node8 -->
<g id="node8" class="node">
<title>Node8</title>
<g id="a_node8"><a target="_parent" xlink:href="http://doc.qt.io/qt-5/qpaintdevice.html" xlink:title=" ">
<polygon fill="none" stroke="black" points="0,-50.5 0,-69.5 82,-69.5 82,-50.5 0,-50.5"/>
<text text-anchor="middle" x="41" y="-57.5" font-family="Helvetica,sans-Serif" font-size="10.00">QPaintDevice</text>
</a>
</g>
</g>
<!-- Node8&#45;&gt;Node6 -->
<g id="edge7" class="edge">
<title>Node8&#45;&gt;Node6</title>
<path fill="none" stroke="midnightblue" d="M91.97,-69.09C100.8,-70.69 109.71,-72.31 117.69,-73.76"/>
<polygon fill="midnightblue" stroke="midnightblue" points="92.57,-65.64 82.1,-67.29 91.32,-72.52 92.57,-65.64"/>
</g>
<!-- Node9 -->
<g id="node9" class="node">
<title>Node9</title>
<g id="a_node9"><a xlink:href="class_black_gui_1_1_c_enable_for_dock_widget_info_area.html" target="_top" xlink:title="Helper class: If a component is residing in an dockable widget. This class provides access to its inf...">
<polygon fill="none" stroke="black" points="507,-15 507,-45 653,-45 653,-15 507,-15"/>
<text text-anchor="start" x="515" y="-33" font-family="Helvetica,sans-Serif" font-size="10.00">BlackGui::CEnableForDock</text>
<text text-anchor="middle" x="580" y="-22" font-family="Helvetica,sans-Serif" font-size="10.00">WidgetInfoArea</text>
</a>
</g>
</g>
<!-- Node9&#45;&gt;Node2 -->
<g id="edge8" class="edge">
<title>Node9&#45;&gt;Node2</title>
<path fill="none" stroke="midnightblue" d="M663.23,-39.31C673.96,-40.52 685.03,-41.78 695.98,-43.02"/>
<polygon fill="midnightblue" stroke="midnightblue" points="663.4,-35.81 653.07,-38.16 662.61,-42.76 663.4,-35.81"/>
</g>
<!-- Node10 -->
<g id="node10" class="node">
<title>Node10</title>
<g id="a_node10"><a xlink:href="class_black_misc_1_1_c_identifiable.html" target="_top" xlink:title="Base class with a member CIdentifier to be inherited by a class which has an identity in the environm...">
<polygon fill="none" stroke="black" points="727,-0.5 727,-19.5 861,-19.5 861,-0.5 727,-0.5"/>
<text text-anchor="middle" x="794" y="-7.5" font-family="Helvetica,sans-Serif" font-size="10.00">BlackMisc::CIdentifiable</text>
</a>
</g>
</g>
<!-- Node10&#45;&gt;Node1 -->
<g id="edge9" class="edge">
<title>Node10&#45;&gt;Node1</title>
<path fill="none" stroke="midnightblue" d="M871.08,-18.54C889.86,-20.65 909.77,-22.88 927.86,-24.91"/>
<polygon fill="midnightblue" stroke="midnightblue" points="871.41,-15.05 861.08,-17.42 870.63,-22.01 871.41,-15.05"/>
</g>
</g>
</svg>
