<?xml version="1.0" encoding="UTF-8" standalone="no"?>
<!DOCTYPE svg PUBLIC "-//W3C//DTD SVG 1.1//EN"
 "http://www.w3.org/Graphics/SVG/1.1/DTD/svg11.dtd">
<!-- Generated by graphviz version 2.43.0 (0)
 -->
<!-- Title: BlackMisc::Aviation::CHeading Pages: 1 -->
<svg width="751pt" height="454pt"
 viewBox="0.00 0.00 751.00 454.00" xmlns="http://www.w3.org/2000/svg" xmlns:xlink="http://www.w3.org/1999/xlink">
<g id="graph0" class="graph" transform="scale(1 1) rotate(0) translate(4 450)">
<title>BlackMisc::Aviation::CHeading</title>
<!-- Node1 -->
<g id="node1" class="node">
<title>Node1</title>
<g id="a_node1"><a xlink:title="Heading as used in aviation, can be true or magnetic heading.">
<polygon fill="#bfbfbf" stroke="black" points="631,-199.5 631,-229.5 743,-229.5 743,-199.5 631,-199.5"/>
<text text-anchor="start" x="639" y="-217.5" font-family="Helvetica,sans-Serif" font-size="10.00">BlackMisc::Aviation</text>
<text text-anchor="middle" x="687" y="-206.5" font-family="Helvetica,sans-Serif" font-size="10.00">::CHeading</text>
</a>
</g>
</g>
<!-- Node2 -->
<g id="node2" class="node">
<title>Node2</title>
<g id="a_node2"><a xlink:href="class_black_misc_1_1_physical_quantities_1_1_c_angle.html" target="_top" xlink:title="Physical unit angle (radians, degrees)">
<polygon fill="none" stroke="black" points="432,-175.5 432,-205.5 595,-205.5 595,-175.5 432,-175.5"/>
<text text-anchor="start" x="440" y="-193.5" font-family="Helvetica,sans-Serif" font-size="10.00">BlackMisc::PhysicalQuantities</text>
<text text-anchor="middle" x="513.5" y="-182.5" font-family="Helvetica,sans-Serif" font-size="10.00">::CAngle</text>
</a>
</g>
</g>
<!-- Node2&#45;&gt;Node1 -->
<g id="edge1" class="edge">
<title>Node2&#45;&gt;Node1</title>
<path fill="none" stroke="midnightblue" d="M605.35,-203.21C613.97,-204.42 622.52,-205.62 630.65,-206.75"/>
<polygon fill="midnightblue" stroke="midnightblue" points="605.62,-199.72 595.23,-201.8 604.65,-206.65 605.62,-199.72"/>
</g>
<!-- Node3 -->
<g id="node3" class="node">
<title>Node3</title>
<g id="a_node3"><a xlink:href="class_black_misc_1_1_physical_quantities_1_1_c_physical_quantity.html" target="_top" xlink:title=" ">
<polygon fill="none" stroke="black" points="215,-209 215,-250 396,-250 396,-209 215,-209"/>
<text text-anchor="start" x="223" y="-238" font-family="Helvetica,sans-Serif" font-size="10.00">BlackMisc::PhysicalQuantities</text>
<text text-anchor="start" x="223" y="-227" font-family="Helvetica,sans-Serif" font-size="10.00">::CPhysicalQuantity&lt; CAngleUnit,</text>
<text text-anchor="middle" x="305.5" y="-216" font-family="Helvetica,sans-Serif" font-size="10.00"> CAngle &gt;</text>
</a>
</g>
</g>
<!-- Node3&#45;&gt;Node2 -->
<g id="edge2" class="edge">
<title>Node3&#45;&gt;Node2</title>
<path fill="none" stroke="midnightblue" d="M406.35,-210.6C415.31,-208.9 424.31,-207.2 433.06,-205.54"/>
<polygon fill="midnightblue" stroke="midnightblue" points="405.43,-207.21 396.26,-212.51 406.73,-214.09 405.43,-207.21"/>
</g>
<!-- Node4 -->
<g id="node4" class="node">
<title>Node4</title>
<g id="a_node4"><a xlink:href="class_black_misc_1_1_mixin_1_1_d_bus_operators.html" target="_top" xlink:title="CRTP class template which will generate marshalling operators for a derived class with its own marsha...">
<polygon fill="none" stroke="black" points="0,-396.5 0,-426.5 179,-426.5 179,-396.5 0,-396.5"/>
<text text-anchor="start" x="8" y="-414.5" font-family="Helvetica,sans-Serif" font-size="10.00">BlackMisc::Mixin::DBusOperators</text>
<text text-anchor="middle" x="89.5" y="-403.5" font-family="Helvetica,sans-Serif" font-size="10.00">&lt; Derived,... &gt;</text>
</a>
</g>
</g>
<!-- Node4&#45;&gt;Node3 -->
<g id="edge3" class="edge">
<title>Node4&#45;&gt;Node3</title>
<path fill="none" stroke="midnightblue" d="M145.48,-392.44C157.08,-387.2 168.87,-380.88 179,-373.5 227.51,-338.15 270.16,-280.8 290.99,-250.23"/>
<polygon fill="midnightblue" stroke="midnightblue" points="144.05,-389.25 136.25,-396.42 146.82,-395.68 144.05,-389.25"/>
</g>
<!-- Node15 -->
<g id="node15" class="node">
<title>Node15</title>
<g id="a_node15"><a xlink:href="class_black_misc_1_1_mixin_1_1_d_bus_by_meta_class.html" target="_top" xlink:title=" ">
<polygon fill="none" stroke="black" points="234,-405.5 234,-435.5 377,-435.5 377,-405.5 234,-405.5"/>
<text text-anchor="start" x="242" y="-423.5" font-family="Helvetica,sans-Serif" font-size="10.00">BlackMisc::Mixin::DBusBy</text>
<text text-anchor="middle" x="305.5" y="-412.5" font-family="Helvetica,sans-Serif" font-size="10.00">MetaClass&lt; CHeading &gt;</text>
</a>
</g>
</g>
<!-- Node4&#45;&gt;Node15 -->
<g id="edge15" class="edge">
<title>Node4&#45;&gt;Node15</title>
<path fill="none" stroke="midnightblue" d="M189.43,-415.66C204.45,-416.29 219.68,-416.93 233.93,-417.53"/>
<polygon fill="midnightblue" stroke="midnightblue" points="189.23,-412.15 179.09,-415.23 188.93,-419.14 189.23,-412.15"/>
</g>
<!-- Node5 -->
<g id="node5" class="node">
<title>Node5</title>
<g id="a_node5"><a xlink:href="class_black_misc_1_1_mixin_1_1_data_stream_operators.html" target="_top" xlink:title="CRTP class template to generate non&#45;member QDataStream streaming operators.">
<polygon fill="none" stroke="black" points="7.5,-137.5 7.5,-167.5 171.5,-167.5 171.5,-137.5 7.5,-137.5"/>
<text text-anchor="start" x="15.5" y="-155.5" font-family="Helvetica,sans-Serif" font-size="10.00">BlackMisc::Mixin::DataStream</text>
<text text-anchor="middle" x="89.5" y="-144.5" font-family="Helvetica,sans-Serif" font-size="10.00">Operators&lt; Derived &gt;</text>
</a>
</g>
</g>
<!-- Node5&#45;&gt;Node3 -->
<g id="edge4" class="edge">
<title>Node5&#45;&gt;Node3</title>
<path fill="none" stroke="midnightblue" d="M160.32,-170.49C166.67,-172.41 172.98,-174.42 179,-176.5 206.28,-185.91 236.06,-198.39 259.76,-208.87"/>
<polygon fill="midnightblue" stroke="midnightblue" points="160.92,-167.01 150.34,-167.55 158.95,-173.73 160.92,-167.01"/>
</g>
<!-- Node16 -->
<g id="node16" class="node">
<title>Node16</title>
<g id="a_node16"><a xlink:href="class_black_misc_1_1_mixin_1_1_data_stream_by_meta_class.html" target="_top" xlink:title=" ">
<polygon fill="none" stroke="black" points="223.5,-137.5 223.5,-167.5 387.5,-167.5 387.5,-137.5 223.5,-137.5"/>
<text text-anchor="start" x="231.5" y="-155.5" font-family="Helvetica,sans-Serif" font-size="10.00">BlackMisc::Mixin::DataStream</text>
<text text-anchor="middle" x="305.5" y="-144.5" font-family="Helvetica,sans-Serif" font-size="10.00">ByMetaClass&lt; CHeading &gt;</text>
</a>
</g>
</g>
<!-- Node5&#45;&gt;Node16 -->
<g id="edge17" class="edge">
<title>Node5&#45;&gt;Node16</title>
<path fill="none" stroke="midnightblue" d="M182.11,-152.5C195.82,-152.5 209.87,-152.5 223.35,-152.5"/>
<polygon fill="midnightblue" stroke="midnightblue" points="181.71,-149 171.71,-152.5 181.71,-156 181.71,-149"/>
</g>
<!-- Node6 -->
<g id="node6" class="node">
<title>Node6</title>
<g id="a_node6"><a xlink:href="class_black_misc_1_1_mixin_1_1_json_operators.html" target="_top" xlink:title="CRTP class template which will generate marshalling operators for a derived class with its own marsha...">
<polygon fill="none" stroke="black" points="3,-88.5 3,-118.5 176,-118.5 176,-88.5 3,-88.5"/>
<text text-anchor="start" x="11" y="-106.5" font-family="Helvetica,sans-Serif" font-size="10.00">BlackMisc::Mixin::JsonOperators</text>
<text text-anchor="middle" x="89.5" y="-95.5" font-family="Helvetica,sans-Serif" font-size="10.00">&lt; Derived &gt;</text>
</a>
</g>
</g>
<!-- Node6&#45;&gt;Node3 -->
<g id="edge5" class="edge">
<title>Node6&#45;&gt;Node3</title>
<path fill="none" stroke="midnightblue" d="M171.95,-123.14C174.38,-124.5 176.74,-125.95 179,-127.5 201.29,-142.78 194.97,-158.36 215,-176.5 228.92,-189.11 246.3,-200.22 262.03,-208.97"/>
<polygon fill="midnightblue" stroke="midnightblue" points="173.39,-119.95 162.87,-118.63 170.27,-126.22 173.39,-119.95"/>
</g>
<!-- Node17 -->
<g id="node17" class="node">
<title>Node17</title>
<g id="a_node17"><a xlink:href="class_black_misc_1_1_mixin_1_1_json_by_meta_class.html" target="_top" xlink:title=" ">
<polygon fill="none" stroke="black" points="236.5,-88.5 236.5,-118.5 374.5,-118.5 374.5,-88.5 236.5,-88.5"/>
<text text-anchor="start" x="244.5" y="-106.5" font-family="Helvetica,sans-Serif" font-size="10.00">BlackMisc::Mixin::JsonBy</text>
<text text-anchor="middle" x="305.5" y="-95.5" font-family="Helvetica,sans-Serif" font-size="10.00">MetaClass&lt; CHeading &gt;</text>
</a>
</g>
</g>
<!-- Node6&#45;&gt;Node17 -->
<g id="edge19" class="edge">
<title>Node6&#45;&gt;Node17</title>
<path fill="none" stroke="midnightblue" d="M186.4,-103.5C203.21,-103.5 220.39,-103.5 236.25,-103.5"/>
<polygon fill="midnightblue" stroke="midnightblue" points="186,-100 176,-103.5 186,-107 186,-100"/>
</g>
<!-- Node7 -->
<g id="node7" class="node">
<title>Node7</title>
<g id="a_node7"><a xlink:href="class_black_misc_1_1_mixin_1_1_index.html" target="_top" xlink:title="CRTP class template from which a derived class can inherit property indexing functions.">
<polygon fill="none" stroke="black" points="23.5,-284.5 23.5,-314.5 155.5,-314.5 155.5,-284.5 23.5,-284.5"/>
<text text-anchor="start" x="31.5" y="-302.5" font-family="Helvetica,sans-Serif" font-size="10.00">BlackMisc::Mixin::Index</text>
<text text-anchor="middle" x="89.5" y="-291.5" font-family="Helvetica,sans-Serif" font-size="10.00">&lt; Derived &gt;</text>
</a>
</g>
</g>
<!-- Node7&#45;&gt;Node3 -->
<g id="edge6" class="edge">
<title>Node7&#45;&gt;Node3</title>
<path fill="none" stroke="midnightblue" d="M158.8,-281.61C165.65,-279.63 172.48,-277.58 179,-275.5 202.99,-267.87 229.19,-258.44 251.42,-250.11"/>
<polygon fill="midnightblue" stroke="midnightblue" points="157.45,-278.36 148.79,-284.46 159.36,-285.09 157.45,-278.36"/>
</g>
<!-- Node8 -->
<g id="node8" class="node">
<title>Node8</title>
<g id="a_node8"><a xlink:href="class_black_misc_1_1_mixin_1_1_meta_type.html" target="_top" xlink:title="CRTP class template from which a derived class can inherit common methods dealing with the metatype o...">
<polygon fill="none" stroke="black" points="13.5,-235.5 13.5,-265.5 165.5,-265.5 165.5,-235.5 13.5,-235.5"/>
<text text-anchor="start" x="21.5" y="-253.5" font-family="Helvetica,sans-Serif" font-size="10.00">BlackMisc::Mixin::MetaType</text>
<text text-anchor="middle" x="89.5" y="-242.5" font-family="Helvetica,sans-Serif" font-size="10.00">&lt; Derived &gt;</text>
</a>
</g>
</g>
<!-- Node8&#45;&gt;Node3 -->
<g id="edge7" class="edge">
<title>Node8&#45;&gt;Node3</title>
<path fill="none" stroke="midnightblue" d="M175.83,-242.13C188.66,-240.87 201.93,-239.57 214.85,-238.3"/>
<polygon fill="midnightblue" stroke="midnightblue" points="175.26,-238.67 165.65,-243.13 175.94,-245.63 175.26,-238.67"/>
</g>
<!-- Node9 -->
<g id="node9" class="node">
<title>Node9</title>
<g id="a_node9"><a xlink:href="class_black_misc_1_1_mixin_1_1_string.html" target="_top" xlink:title="CRTP class template from which a derived class can inherit string streaming operations.">
<polygon fill="none" stroke="black" points="22.5,-186.5 22.5,-216.5 156.5,-216.5 156.5,-186.5 22.5,-186.5"/>
<text text-anchor="start" x="30.5" y="-204.5" font-family="Helvetica,sans-Serif" font-size="10.00">BlackMisc::Mixin::String</text>
<text text-anchor="middle" x="89.5" y="-193.5" font-family="Helvetica,sans-Serif" font-size="10.00">&lt; Derived &gt;</text>
</a>
</g>
</g>
<!-- Node9&#45;&gt;Node3 -->
<g id="edge8" class="edge">
<title>Node9&#45;&gt;Node3</title>
<path fill="none" stroke="midnightblue" d="M166.84,-211.49C182.43,-213.53 198.97,-215.69 214.97,-217.79"/>
<polygon fill="midnightblue" stroke="midnightblue" points="167.11,-207.99 156.75,-210.17 166.21,-214.94 167.11,-207.99"/>
</g>
<!-- Node10 -->
<g id="node10" class="node">
<title>Node10</title>
<g id="a_node10"><a xlink:href="class_black_misc_1_1_mixin_1_1_icon.html" target="_top" xlink:title="CRTP class template from which a derived class can inherit icon&#45;related functions.">
<polygon fill="none" stroke="black" points="24,-333.5 24,-363.5 155,-363.5 155,-333.5 24,-333.5"/>
<text text-anchor="start" x="32" y="-351.5" font-family="Helvetica,sans-Serif" font-size="10.00">BlackMisc::Mixin::Icon</text>
<text text-anchor="middle" x="89.5" y="-340.5" font-family="Helvetica,sans-Serif" font-size="10.00">&lt; Derived, IconIndex &gt;</text>
</a>
</g>
</g>
<!-- Node10&#45;&gt;Node3 -->
<g id="edge9" class="edge">
<title>Node10&#45;&gt;Node3</title>
<path fill="none" stroke="midnightblue" d="M164.84,-330.63C169.71,-328.76 174.47,-326.72 179,-324.5 218.98,-304.87 258.93,-271.72 282.68,-250.23"/>
<polygon fill="midnightblue" stroke="midnightblue" points="163.61,-327.35 155.37,-334.02 165.97,-333.95 163.61,-327.35"/>
</g>
<!-- Node11 -->
<g id="node11" class="node">
<title>Node11</title>
<g id="a_node11"><a xlink:href="class_black_misc_1_1_mixin_1_1_meta_type.html" target="_top" xlink:title=" ">
<polygon fill="none" stroke="black" points="437.5,-371.5 437.5,-401.5 589.5,-401.5 589.5,-371.5 437.5,-371.5"/>
<text text-anchor="start" x="445.5" y="-389.5" font-family="Helvetica,sans-Serif" font-size="10.00">BlackMisc::Mixin::MetaType</text>
<text text-anchor="middle" x="513.5" y="-378.5" font-family="Helvetica,sans-Serif" font-size="10.00">&lt; CHeading &gt;</text>
</a>
</g>
</g>
<!-- Node11&#45;&gt;Node1 -->
<g id="edge10" class="edge">
<title>Node11&#45;&gt;Node1</title>
<path fill="none" stroke="midnightblue" d="M589.27,-366.48C591.25,-365.23 593.17,-363.91 595,-362.5 641.66,-326.69 670.04,-259.56 680.91,-229.6"/>
<polygon fill="midnightblue" stroke="midnightblue" points="587.3,-363.57 580.24,-371.47 590.69,-369.7 587.3,-363.57"/>
</g>
<!-- Node12 -->
<g id="node12" class="node">
<title>Node12</title>
<g id="a_node12"><a xlink:href="class_black_misc_1_1_mixin_1_1_equals_by_meta_class.html" target="_top" xlink:title=" ">
<polygon fill="none" stroke="black" points="438.5,-322.5 438.5,-352.5 588.5,-352.5 588.5,-322.5 438.5,-322.5"/>
<text text-anchor="start" x="446.5" y="-340.5" font-family="Helvetica,sans-Serif" font-size="10.00">BlackMisc::Mixin::Equals</text>
<text text-anchor="middle" x="513.5" y="-329.5" font-family="Helvetica,sans-Serif" font-size="10.00">ByMetaClass&lt; CHeading &gt;</text>
</a>
</g>
</g>
<!-- Node12&#45;&gt;Node1 -->
<g id="edge11" class="edge">
<title>Node12&#45;&gt;Node1</title>
<path fill="none" stroke="midnightblue" d="M586.77,-318.12C589.61,-316.69 592.36,-315.15 595,-313.5 630.63,-291.23 661.15,-251.33 676.12,-229.61"/>
<polygon fill="midnightblue" stroke="midnightblue" points="585.12,-315.03 577.49,-322.38 588.04,-321.4 585.12,-315.03"/>
</g>
<!-- Node13 -->
<g id="node13" class="node">
<title>Node13</title>
<g id="a_node13"><a xlink:href="class_black_misc_1_1_mixin_1_1_compare_by_meta_class.html" target="_top" xlink:title=" ">
<polygon fill="none" stroke="black" points="438.5,-273.5 438.5,-303.5 588.5,-303.5 588.5,-273.5 438.5,-273.5"/>
<text text-anchor="start" x="446.5" y="-291.5" font-family="Helvetica,sans-Serif" font-size="10.00">BlackMisc::Mixin::Compare</text>
<text text-anchor="middle" x="513.5" y="-280.5" font-family="Helvetica,sans-Serif" font-size="10.00">ByMetaClass&lt; CHeading &gt;</text>
</a>
</g>
</g>
<!-- Node13&#45;&gt;Node1 -->
<g id="edge12" class="edge">
<title>Node13&#45;&gt;Node1</title>
<path fill="none" stroke="midnightblue" d="M580.22,-270.18C585.27,-268.39 590.24,-266.49 595,-264.5 618.62,-254.62 644.03,-240.32 661.98,-229.54"/>
<polygon fill="midnightblue" stroke="midnightblue" points="578.81,-266.96 570.47,-273.49 581.07,-273.59 578.81,-266.96"/>
</g>
<!-- Node14 -->
<g id="node14" class="node">
<title>Node14</title>
<g id="a_node14"><a xlink:href="class_black_misc_1_1_mixin_1_1_hash_by_meta_class.html" target="_top" xlink:title=" ">
<polygon fill="none" stroke="black" points="442,-224.5 442,-254.5 585,-254.5 585,-224.5 442,-224.5"/>
<text text-anchor="start" x="450" y="-242.5" font-family="Helvetica,sans-Serif" font-size="10.00">BlackMisc::Mixin::HashBy</text>
<text text-anchor="middle" x="513.5" y="-231.5" font-family="Helvetica,sans-Serif" font-size="10.00">MetaClass&lt; CHeading &gt;</text>
</a>
</g>
</g>
<!-- Node14&#45;&gt;Node1 -->
<g id="edge13" class="edge">
<title>Node14&#45;&gt;Node1</title>
<path fill="none" stroke="midnightblue" d="M595.31,-227.72C607.35,-225.96 619.52,-224.19 630.87,-222.54"/>
<polygon fill="midnightblue" stroke="midnightblue" points="594.64,-224.28 585.25,-229.19 595.65,-231.21 594.64,-224.28"/>
</g>
<!-- Node15&#45;&gt;Node1 -->
<g id="edge14" class="edge">
<title>Node15&#45;&gt;Node1</title>
<path fill="none" stroke="midnightblue" d="M375.69,-437.45C438.27,-448.63 530.28,-454.33 595,-411.5 659.4,-368.88 679.02,-268.19 684.27,-229.77"/>
<polygon fill="midnightblue" stroke="midnightblue" points="375.99,-433.94 365.52,-435.53 374.7,-440.82 375.99,-433.94"/>
</g>
<!-- Node16&#45;&gt;Node1 -->
<g id="edge16" class="edge">
<title>Node16&#45;&gt;Node1</title>
<path fill="none" stroke="midnightblue" d="M397.77,-146.32C455.35,-144.93 530.72,-147.74 595,-165.5 620.6,-172.57 647.01,-187.84 664.74,-199.47"/>
<polygon fill="midnightblue" stroke="midnightblue" points="397.49,-142.83 387.6,-146.62 397.69,-149.83 397.49,-142.83"/>
</g>
<!-- Node17&#45;&gt;Node1 -->
<g id="edge18" class="edge">
<title>Node17&#45;&gt;Node1</title>
<path fill="none" stroke="midnightblue" d="M384.89,-103C444.65,-105.2 527.83,-113.95 595,-142.5 625.96,-155.66 655.25,-182.29 671.88,-199.22"/>
<polygon fill="midnightblue" stroke="midnightblue" points="384.86,-99.5 374.76,-102.68 384.64,-106.49 384.86,-99.5"/>
</g>
<!-- Node18 -->
<g id="node18" class="node">
<title>Node18</title>
<g id="a_node18"><a xlink:href="class_black_misc_1_1_mixin_1_1_string.html" target="_top" xlink:title=" ">
<polygon fill="none" stroke="black" points="446.5,-49.5 446.5,-79.5 580.5,-79.5 580.5,-49.5 446.5,-49.5"/>
<text text-anchor="start" x="454.5" y="-67.5" font-family="Helvetica,sans-Serif" font-size="10.00">BlackMisc::Mixin::String</text>
<text text-anchor="middle" x="513.5" y="-56.5" font-family="Helvetica,sans-Serif" font-size="10.00">&lt; CHeading &gt;</text>
</a>
</g>
</g>
<!-- Node18&#45;&gt;Node1 -->
<g id="edge20" class="edge">
<title>Node18&#45;&gt;Node1</title>
<path fill="none" stroke="midnightblue" d="M577.43,-83.88C583.63,-86.97 589.61,-90.49 595,-94.5 634.24,-123.67 664.71,-174.26 678.28,-199.4"/>
<polygon fill="midnightblue" stroke="midnightblue" points="578.78,-80.65 568.23,-79.66 575.86,-87.01 578.78,-80.65"/>
</g>
<!-- Node19 -->
<g id="node19" class="node">
<title>Node19</title>
<g id="a_node19"><a xlink:href="class_black_misc_1_1_mixin_1_1_index.html" target="_top" xlink:title=" ">
<polygon fill="none" stroke="black" points="447.5,-0.5 447.5,-30.5 579.5,-30.5 579.5,-0.5 447.5,-0.5"/>
<text text-anchor="start" x="455.5" y="-18.5" font-family="Helvetica,sans-Serif" font-size="10.00">BlackMisc::Mixin::Index</text>
<text text-anchor="middle" x="513.5" y="-7.5" font-family="Helvetica,sans-Serif" font-size="10.00">&lt; CHeading &gt;</text>
</a>
</g>
</g>
<!-- Node19&#45;&gt;Node1 -->
<g id="edge21" class="edge">
<title>Node19&#45;&gt;Node1</title>
<path fill="none" stroke="midnightblue" d="M588.64,-34.84C590.85,-36.28 592.98,-37.83 595,-39.5 647.8,-83.12 673.64,-165.4 682.42,-199.3"/>
<polygon fill="midnightblue" stroke="midnightblue" points="590.14,-31.67 579.71,-29.79 586.69,-37.76 590.14,-31.67"/>
</g>
</g>
</svg>
