<?xml version="1.0" encoding="UTF-8" standalone="no"?>
<!DOCTYPE svg PUBLIC "-//W3C//DTD SVG 1.1//EN"
 "http://www.w3.org/Graphics/SVG/1.1/DTD/svg11.dtd">
<!-- Generated by graphviz version 2.43.0 (0)
 -->
<!-- Title: BlackGui::Components::CDistributorPreferencesComponent Pages: 1 -->
<svg width="203pt" height="341pt"
 viewBox="0.00 0.00 203.00 341.00" xmlns="http://www.w3.org/2000/svg" xmlns:xlink="http://www.w3.org/1999/xlink">
<g id="graph0" class="graph" transform="scale(1 1) rotate(0) translate(4 337)">
<title>BlackGui::Components::CDistributorPreferencesComponent</title>
<!-- Node1 -->
<g id="node1" class="node">
<title>Node1</title>
<g id="a_node1"><a xlink:title="Set and order distributors (to be used for model set)">
<polygon fill="#bfbfbf" stroke="black" points="0,-0.5 0,-30.5 195,-30.5 195,-0.5 0,-0.5"/>
<text text-anchor="start" x="8" y="-18.5" font-family="Helvetica,sans-Serif" font-size="10.00">BlackGui::Components</text>
<text text-anchor="middle" x="97.5" y="-7.5" font-family="Helvetica,sans-Serif" font-size="10.00">::CDistributorPreferencesComponent</text>
</a>
</g>
</g>
<!-- Node2 -->
<g id="node2" class="node">
<title>Node2</title>
<g id="a_node2"><a xlink:href="class_black_gui_1_1_c_overlay_messages_frame.html" target="_top" xlink:title="Using this class provides a QFrame with the overlay functionality already integrated.">
<polygon fill="none" stroke="black" points="17.5,-67.5 17.5,-97.5 177.5,-97.5 177.5,-67.5 17.5,-67.5"/>
<text text-anchor="start" x="25.5" y="-85.5" font-family="Helvetica,sans-Serif" font-size="10.00">BlackGui::COverlayMessages</text>
<text text-anchor="middle" x="97.5" y="-74.5" font-family="Helvetica,sans-Serif" font-size="10.00">Frame</text>
</a>
</g>
</g>
<!-- Node2&#45;&gt;Node1 -->
<g id="edge1" class="edge">
<title>Node2&#45;&gt;Node1</title>
<path fill="none" stroke="midnightblue" d="M97.5,-57.11C97.5,-48.15 97.5,-38.32 97.5,-30.58"/>
<polygon fill="midnightblue" stroke="midnightblue" points="94,-57.4 97.5,-67.4 101,-57.4 94,-57.4"/>
</g>
<!-- Node3 -->
<g id="node3" class="node">
<title>Node3</title>
<g id="a_node3"><a xlink:href="class_black_gui_1_1_c_overlay_messages_base.html" target="_top" xlink:title=" ">
<polygon fill="none" stroke="black" points="17.5,-134.5 17.5,-164.5 177.5,-164.5 177.5,-134.5 17.5,-134.5"/>
<text text-anchor="start" x="25.5" y="-152.5" font-family="Helvetica,sans-Serif" font-size="10.00">BlackGui::COverlayMessages</text>
<text text-anchor="middle" x="97.5" y="-141.5" font-family="Helvetica,sans-Serif" font-size="10.00">Base&lt; QFrame &gt;</text>
</a>
</g>
</g>
<!-- Node3&#45;&gt;Node2 -->
<g id="edge2" class="edge">
<title>Node3&#45;&gt;Node2</title>
<path fill="none" stroke="midnightblue" d="M97.5,-124.11C97.5,-115.15 97.5,-105.32 97.5,-97.58"/>
<polygon fill="midnightblue" stroke="midnightblue" points="94,-124.4 97.5,-134.4 101,-124.4 94,-124.4"/>
</g>
<!-- Node4 -->
<g id="node4" class="node">
<title>Node4</title>
<g id="a_node4"><a target="_parent" xlink:href="http://doc.qt.io/qt-5/qframe.html" xlink:title=" ">
<polygon fill="none" stroke="black" points="70,-201.5 70,-220.5 125,-220.5 125,-201.5 70,-201.5"/>
<text text-anchor="middle" x="97.5" y="-208.5" font-family="Helvetica,sans-Serif" font-size="10.00">QFrame</text>
</a>
</g>
</g>
<!-- Node4&#45;&gt;Node3 -->
<g id="edge3" class="edge">
<title>Node4&#45;&gt;Node3</title>
<path fill="none" stroke="midnightblue" d="M97.5,-191.23C97.5,-182.59 97.5,-172.5 97.5,-164.52"/>
<polygon fill="midnightblue" stroke="midnightblue" points="94,-191.48 97.5,-201.48 101,-191.48 94,-191.48"/>
</g>
<!-- Node5 -->
<g id="node5" class="node">
<title>Node5</title>
<g id="a_node5"><a target="_parent" xlink:href="http://doc.qt.io/qt-5/qwidget.html" xlink:title=" ">
<polygon fill="none" stroke="black" points="68,-257.5 68,-276.5 127,-276.5 127,-257.5 68,-257.5"/>
<text text-anchor="middle" x="97.5" y="-264.5" font-family="Helvetica,sans-Serif" font-size="10.00">QWidget</text>
</a>
</g>
</g>
<!-- Node5&#45;&gt;Node4 -->
<g id="edge4" class="edge">
<title>Node5&#45;&gt;Node4</title>
<path fill="none" stroke="midnightblue" d="M97.5,-246.8C97.5,-237.91 97.5,-227.78 97.5,-220.75"/>
<polygon fill="midnightblue" stroke="midnightblue" points="94,-247.08 97.5,-257.08 101,-247.08 94,-247.08"/>
</g>
<!-- Node6 -->
<g id="node6" class="node">
<title>Node6</title>
<g id="a_node6"><a target="_parent" xlink:href="http://doc.qt.io/qt-5/qobject.html" xlink:title=" ">
<polygon fill="none" stroke="black" points="26.5,-313.5 26.5,-332.5 82.5,-332.5 82.5,-313.5 26.5,-313.5"/>
<text text-anchor="middle" x="54.5" y="-320.5" font-family="Helvetica,sans-Serif" font-size="10.00">QObject</text>
</a>
</g>
</g>
<!-- Node6&#45;&gt;Node5 -->
<g id="edge5" class="edge">
<title>Node6&#45;&gt;Node5</title>
<path fill="none" stroke="midnightblue" d="M67.92,-305.14C75.41,-295.74 84.44,-284.4 90.53,-276.75"/>
<polygon fill="midnightblue" stroke="midnightblue" points="65.09,-303.08 61.6,-313.08 70.57,-307.44 65.09,-303.08"/>
</g>
<!-- Node7 -->
<g id="node7" class="node">
<title>Node7</title>
<g id="a_node7"><a target="_parent" xlink:href="http://doc.qt.io/qt-5/qpaintdevice.html" xlink:title=" ">
<polygon fill="none" stroke="black" points="100.5,-313.5 100.5,-332.5 182.5,-332.5 182.5,-313.5 100.5,-313.5"/>
<text text-anchor="middle" x="141.5" y="-320.5" font-family="Helvetica,sans-Serif" font-size="10.00">QPaintDevice</text>
</a>
</g>
</g>
<!-- Node7&#45;&gt;Node5 -->
<g id="edge6" class="edge">
<title>Node7&#45;&gt;Node5</title>
<path fill="none" stroke="midnightblue" d="M127.77,-305.14C120.1,-295.74 110.87,-284.4 104.63,-276.75"/>
<polygon fill="midnightblue" stroke="midnightblue" points="125.2,-307.54 134.23,-313.08 130.63,-303.12 125.2,-307.54"/>
</g>
</g>
</svg>
