<?xml version="1.0" encoding="UTF-8" standalone="no"?>
<!DOCTYPE svg PUBLIC "-//W3C//DTD SVG 1.1//EN"
 "http://www.w3.org/Graphics/SVG/1.1/DTD/svg11.dtd">
<!-- Generated by graphviz version 2.43.0 (0)
 -->
<!-- Title: BlackGui::Views::CAircraftModelView Pages: 1 -->
<svg width="425pt" height="777pt"
 viewBox="0.00 0.00 424.50 777.00" xmlns="http://www.w3.org/2000/svg" xmlns:xlink="http://www.w3.org/1999/xlink">
<g id="graph0" class="graph" transform="scale(1 1) rotate(0) translate(4 773)">
<title>BlackGui::Views::CAircraftModelView</title>
<!-- Node1 -->
<g id="node1" class="node">
<title>Node1</title>
<g id="a_node1"><a xlink:title="Aircraft view.">
<polygon fill="#bfbfbf" stroke="black" points="180.5,-0.5 180.5,-30.5 323.5,-30.5 323.5,-0.5 180.5,-0.5"/>
<text text-anchor="start" x="188.5" y="-18.5" font-family="Helvetica,sans-Serif" font-size="10.00">BlackGui::Views::CAircraft</text>
<text text-anchor="middle" x="252" y="-7.5" font-family="Helvetica,sans-Serif" font-size="10.00">ModelView</text>
</a>
</g>
</g>
<!-- Node2 -->
<g id="node2" class="node">
<title>Node2</title>
<g id="a_node2"><a xlink:href="class_black_gui_1_1_views_1_1_c_orderable_view_with_db_objects.html" target="_top" xlink:title=" ">
<polygon fill="none" stroke="black" points="172,-67.5 172,-108.5 332,-108.5 332,-67.5 172,-67.5"/>
<text text-anchor="start" x="180" y="-96.5" font-family="Helvetica,sans-Serif" font-size="10.00">BlackGui::Views::COrderable</text>
<text text-anchor="start" x="180" y="-85.5" font-family="Helvetica,sans-Serif" font-size="10.00">ViewWithDbObjects&lt; Models</text>
<text text-anchor="middle" x="252" y="-74.5" font-family="Helvetica,sans-Serif" font-size="10.00">::CAircraftModelListModel &gt;</text>
</a>
</g>
</g>
<!-- Node2&#45;&gt;Node1 -->
<g id="edge1" class="edge">
<title>Node2&#45;&gt;Node1</title>
<path fill="none" stroke="midnightblue" d="M252,-57.08C252,-48.01 252,-38.45 252,-30.89"/>
<polygon fill="midnightblue" stroke="midnightblue" points="248.5,-57.36 252,-67.36 255.5,-57.36 248.5,-57.36"/>
</g>
<!-- Node3 -->
<g id="node3" class="node">
<title>Node3</title>
<g id="a_node3"><a xlink:href="class_black_gui_1_1_views_1_1_c_view_with_db_objects.html" target="_top" xlink:title="Base class for views with DB objects.">
<polygon fill="none" stroke="black" points="174.5,-145.5 174.5,-175.5 329.5,-175.5 329.5,-145.5 174.5,-145.5"/>
<text text-anchor="start" x="182.5" y="-163.5" font-family="Helvetica,sans-Serif" font-size="10.00">BlackGui::Views::CViewWith</text>
<text text-anchor="middle" x="252" y="-152.5" font-family="Helvetica,sans-Serif" font-size="10.00">DbObjects&lt; T &gt;</text>
</a>
</g>
</g>
<!-- Node3&#45;&gt;Node2 -->
<g id="edge2" class="edge">
<title>Node3&#45;&gt;Node2</title>
<path fill="none" stroke="midnightblue" d="M252,-134.98C252,-126.35 252,-116.76 252,-108.59"/>
<polygon fill="midnightblue" stroke="midnightblue" points="248.5,-135.23 252,-145.23 255.5,-135.23 248.5,-135.23"/>
</g>
<!-- Node4 -->
<g id="node4" class="node">
<title>Node4</title>
<g id="a_node4"><a xlink:href="class_black_gui_1_1_views_1_1_c_view_base.html" target="_top" xlink:title="Base class for views.">
<polygon fill="none" stroke="black" points="159.5,-212.5 159.5,-231.5 344.5,-231.5 344.5,-212.5 159.5,-212.5"/>
<text text-anchor="middle" x="252" y="-219.5" font-family="Helvetica,sans-Serif" font-size="10.00">BlackGui::Views::CViewBase&lt; T &gt;</text>
</a>
</g>
</g>
<!-- Node4&#45;&gt;Node3 -->
<g id="edge3" class="edge">
<title>Node4&#45;&gt;Node3</title>
<path fill="none" stroke="midnightblue" d="M252,-202.23C252,-193.59 252,-183.5 252,-175.52"/>
<polygon fill="midnightblue" stroke="midnightblue" points="248.5,-202.48 252,-212.48 255.5,-202.48 248.5,-202.48"/>
</g>
<!-- Node5 -->
<g id="node5" class="node">
<title>Node5</title>
<g id="a_node5"><a xlink:href="class_black_gui_1_1_views_1_1_c_view_base_non_template.html" target="_top" xlink:title="Non templated base class, allows Q_OBJECT and signals / slots to be used.">
<polygon fill="none" stroke="black" points="87,-268.5 87,-298.5 243,-298.5 243,-268.5 87,-268.5"/>
<text text-anchor="start" x="95" y="-286.5" font-family="Helvetica,sans-Serif" font-size="10.00">BlackGui::Views::CViewBase</text>
<text text-anchor="middle" x="165" y="-275.5" font-family="Helvetica,sans-Serif" font-size="10.00">NonTemplate</text>
</a>
</g>
</g>
<!-- Node5&#45;&gt;Node4 -->
<g id="edge4" class="edge">
<title>Node5&#45;&gt;Node4</title>
<path fill="none" stroke="midnightblue" d="M194.27,-262.48C209.59,-252 227.57,-239.71 239.34,-231.66"/>
<polygon fill="midnightblue" stroke="midnightblue" points="191.9,-259.87 185.62,-268.4 195.85,-265.64 191.9,-259.87"/>
</g>
<!-- Node6 -->
<g id="node6" class="node">
<title>Node6</title>
<g id="a_node6"><a xlink:href="class_black_gui_1_1_c_overlay_messages_table_view.html" target="_top" xlink:title="Using this class provides a QTableView with the overlay functionality already integrated.">
<polygon fill="none" stroke="black" points="0,-335.5 0,-365.5 160,-365.5 160,-335.5 0,-335.5"/>
<text text-anchor="start" x="8" y="-353.5" font-family="Helvetica,sans-Serif" font-size="10.00">BlackGui::COverlayMessages</text>
<text text-anchor="middle" x="80" y="-342.5" font-family="Helvetica,sans-Serif" font-size="10.00">TableView</text>
</a>
</g>
</g>
<!-- Node6&#45;&gt;Node5 -->
<g id="edge5" class="edge">
<title>Node6&#45;&gt;Node5</title>
<path fill="none" stroke="midnightblue" d="M106.59,-329.17C119.59,-319.23 134.9,-307.51 146.59,-298.58"/>
<polygon fill="midnightblue" stroke="midnightblue" points="104.26,-326.54 98.44,-335.4 108.51,-332.1 104.26,-326.54"/>
</g>
<!-- Node7 -->
<g id="node7" class="node">
<title>Node7</title>
<g id="a_node7"><a xlink:href="class_black_gui_1_1_c_overlay_messages_base.html" target="_top" xlink:title=" ">
<polygon fill="none" stroke="black" points="0,-402.5 0,-432.5 160,-432.5 160,-402.5 0,-402.5"/>
<text text-anchor="start" x="8" y="-420.5" font-family="Helvetica,sans-Serif" font-size="10.00">BlackGui::COverlayMessages</text>
<text text-anchor="middle" x="80" y="-409.5" font-family="Helvetica,sans-Serif" font-size="10.00">Base&lt; QTableView &gt;</text>
</a>
</g>
</g>
<!-- Node7&#45;&gt;Node6 -->
<g id="edge6" class="edge">
<title>Node7&#45;&gt;Node6</title>
<path fill="none" stroke="midnightblue" d="M80,-392.11C80,-383.15 80,-373.32 80,-365.58"/>
<polygon fill="midnightblue" stroke="midnightblue" points="76.5,-392.4 80,-402.4 83.5,-392.4 76.5,-392.4"/>
</g>
<!-- Node8 -->
<g id="node8" class="node">
<title>Node8</title>
<g id="a_node8"><a target="_parent" xlink:href="http://doc.qt.io/qt-5/qtableview.html" xlink:title=" ">
<polygon fill="none" stroke="black" points="43,-469.5 43,-488.5 117,-488.5 117,-469.5 43,-469.5"/>
<text text-anchor="middle" x="80" y="-476.5" font-family="Helvetica,sans-Serif" font-size="10.00">QTableView</text>
</a>
</g>
</g>
<!-- Node8&#45;&gt;Node7 -->
<g id="edge7" class="edge">
<title>Node8&#45;&gt;Node7</title>
<path fill="none" stroke="midnightblue" d="M80,-459.23C80,-450.59 80,-440.5 80,-432.52"/>
<polygon fill="midnightblue" stroke="midnightblue" points="76.5,-459.48 80,-469.48 83.5,-459.48 76.5,-459.48"/>
</g>
<!-- Node9 -->
<g id="node9" class="node">
<title>Node9</title>
<g id="a_node9"><a target="_parent" xlink:href="http://doc.qt.io/qt-5/qabstractitemview.html" xlink:title=" ">
<polygon fill="none" stroke="black" points="24.5,-525.5 24.5,-544.5 135.5,-544.5 135.5,-525.5 24.5,-525.5"/>
<text text-anchor="middle" x="80" y="-532.5" font-family="Helvetica,sans-Serif" font-size="10.00">QAbstractItemView</text>
</a>
</g>
</g>
<!-- Node9&#45;&gt;Node8 -->
<g id="edge8" class="edge">
<title>Node9&#45;&gt;Node8</title>
<path fill="none" stroke="midnightblue" d="M80,-514.8C80,-505.91 80,-495.78 80,-488.75"/>
<polygon fill="midnightblue" stroke="midnightblue" points="76.5,-515.08 80,-525.08 83.5,-515.08 76.5,-515.08"/>
</g>
<!-- Node10 -->
<g id="node10" class="node">
<title>Node10</title>
<g id="a_node10"><a target="_parent" xlink:href="http://doc.qt.io/qt-5/qabstractscrollarea.html" xlink:title=" ">
<polygon fill="none" stroke="black" points="23,-581.5 23,-600.5 137,-600.5 137,-581.5 23,-581.5"/>
<text text-anchor="middle" x="80" y="-588.5" font-family="Helvetica,sans-Serif" font-size="10.00">QAbstractScrollArea</text>
</a>
</g>
</g>
<!-- Node10&#45;&gt;Node9 -->
<g id="edge9" class="edge">
<title>Node10&#45;&gt;Node9</title>
<path fill="none" stroke="midnightblue" d="M80,-570.8C80,-561.91 80,-551.78 80,-544.75"/>
<polygon fill="midnightblue" stroke="midnightblue" points="76.5,-571.08 80,-581.08 83.5,-571.08 76.5,-571.08"/>
</g>
<!-- Node11 -->
<g id="node11" class="node">
<title>Node11</title>
<g id="a_node11"><a target="_parent" xlink:href="http://doc.qt.io/qt-5/qframe.html" xlink:title=" ">
<polygon fill="none" stroke="black" points="52.5,-637.5 52.5,-656.5 107.5,-656.5 107.5,-637.5 52.5,-637.5"/>
<text text-anchor="middle" x="80" y="-644.5" font-family="Helvetica,sans-Serif" font-size="10.00">QFrame</text>
</a>
</g>
</g>
<!-- Node11&#45;&gt;Node10 -->
<g id="edge10" class="edge">
<title>Node11&#45;&gt;Node10</title>
<path fill="none" stroke="midnightblue" d="M80,-626.8C80,-617.91 80,-607.78 80,-600.75"/>
<polygon fill="midnightblue" stroke="midnightblue" points="76.5,-627.08 80,-637.08 83.5,-627.08 76.5,-627.08"/>
</g>
<!-- Node12 -->
<g id="node12" class="node">
<title>Node12</title>
<g id="a_node12"><a target="_parent" xlink:href="http://doc.qt.io/qt-5/qwidget.html" xlink:title=" ">
<polygon fill="none" stroke="black" points="50.5,-693.5 50.5,-712.5 109.5,-712.5 109.5,-693.5 50.5,-693.5"/>
<text text-anchor="middle" x="80" y="-700.5" font-family="Helvetica,sans-Serif" font-size="10.00">QWidget</text>
</a>
</g>
</g>
<!-- Node12&#45;&gt;Node11 -->
<g id="edge11" class="edge">
<title>Node12&#45;&gt;Node11</title>
<path fill="none" stroke="midnightblue" d="M80,-682.8C80,-673.91 80,-663.78 80,-656.75"/>
<polygon fill="midnightblue" stroke="midnightblue" points="76.5,-683.08 80,-693.08 83.5,-683.08 76.5,-683.08"/>
</g>
<!-- Node13 -->
<g id="node13" class="node">
<title>Node13</title>
<g id="a_node13"><a target="_parent" xlink:href="http://doc.qt.io/qt-5/qobject.html" xlink:title=" ">
<polygon fill="none" stroke="black" points="9,-749.5 9,-768.5 65,-768.5 65,-749.5 9,-749.5"/>
<text text-anchor="middle" x="37" y="-756.5" font-family="Helvetica,sans-Serif" font-size="10.00">QObject</text>
</a>
</g>
</g>
<!-- Node13&#45;&gt;Node12 -->
<g id="edge12" class="edge">
<title>Node13&#45;&gt;Node12</title>
<path fill="none" stroke="midnightblue" d="M50.42,-741.14C57.91,-731.74 66.94,-720.4 73.03,-712.75"/>
<polygon fill="midnightblue" stroke="midnightblue" points="47.59,-739.08 44.1,-749.08 53.07,-743.44 47.59,-739.08"/>
</g>
<!-- Node14 -->
<g id="node14" class="node">
<title>Node14</title>
<g id="a_node14"><a target="_parent" xlink:href="http://doc.qt.io/qt-5/qpaintdevice.html" xlink:title=" ">
<polygon fill="none" stroke="black" points="83,-749.5 83,-768.5 165,-768.5 165,-749.5 83,-749.5"/>
<text text-anchor="middle" x="124" y="-756.5" font-family="Helvetica,sans-Serif" font-size="10.00">QPaintDevice</text>
</a>
</g>
</g>
<!-- Node14&#45;&gt;Node12 -->
<g id="edge13" class="edge">
<title>Node14&#45;&gt;Node12</title>
<path fill="none" stroke="midnightblue" d="M110.27,-741.14C102.6,-731.74 93.37,-720.4 87.13,-712.75"/>
<polygon fill="midnightblue" stroke="midnightblue" points="107.7,-743.54 116.73,-749.08 113.13,-739.12 107.7,-743.54"/>
</g>
<!-- Node15 -->
<g id="node15" class="node">
<title>Node15</title>
<g id="a_node15"><a xlink:href="class_black_gui_1_1_c_enable_for_dock_widget_info_area.html" target="_top" xlink:title="Helper class: If a component is residing in an dockable widget. This class provides access to its inf...">
<polygon fill="none" stroke="black" points="178,-335.5 178,-365.5 324,-365.5 324,-335.5 178,-335.5"/>
<text text-anchor="start" x="186" y="-353.5" font-family="Helvetica,sans-Serif" font-size="10.00">BlackGui::CEnableForDock</text>
<text text-anchor="middle" x="251" y="-342.5" font-family="Helvetica,sans-Serif" font-size="10.00">WidgetInfoArea</text>
</a>
</g>
</g>
<!-- Node15&#45;&gt;Node5 -->
<g id="edge14" class="edge">
<title>Node15&#45;&gt;Node5</title>
<path fill="none" stroke="midnightblue" d="M224.1,-329.17C210.95,-319.23 195.45,-307.51 183.62,-298.58"/>
<polygon fill="midnightblue" stroke="midnightblue" points="222.25,-332.16 232.34,-335.4 226.47,-326.57 222.25,-332.16"/>
</g>
<!-- Node16 -->
<g id="node16" class="node">
<title>Node16</title>
<g id="a_node16"><a xlink:href="class_black_gui_1_1_models_1_1_i_selection_model.html" target="_top" xlink:title=" ">
<polygon fill="none" stroke="black" points="261.5,-268.5 261.5,-298.5 416.5,-298.5 416.5,-268.5 261.5,-268.5"/>
<text text-anchor="start" x="269.5" y="-286.5" font-family="Helvetica,sans-Serif" font-size="10.00">BlackGui::Models::ISelection</text>
<text text-anchor="middle" x="339" y="-275.5" font-family="Helvetica,sans-Serif" font-size="10.00">Model&lt; T::ContainerType &gt;</text>
</a>
</g>
</g>
<!-- Node16&#45;&gt;Node4 -->
<g id="edge15" class="edge">
<title>Node16&#45;&gt;Node4</title>
<path fill="none" stroke="midnightblue" d="M309.73,-262.48C294.41,-252 276.43,-239.71 264.66,-231.66"/>
<polygon fill="midnightblue" stroke="midnightblue" points="308.15,-265.64 318.38,-268.4 312.1,-259.87 308.15,-265.64"/>
</g>
</g>
</svg>
