<?xml version="1.0" encoding="UTF-8" standalone="no"?>
<!DOCTYPE svg PUBLIC "-//W3C//DTD SVG 1.1//EN"
 "http://www.w3.org/Graphics/SVG/1.1/DTD/svg11.dtd">
<!-- Generated by graphviz version 2.43.0 (0)
 -->
<!-- Title: BlackCore::Fsd::MessageBase Pages: 1 -->
<svg width="395pt" height="1258pt"
 viewBox="0.00 0.00 395.00 1257.50" xmlns="http://www.w3.org/2000/svg" xmlns:xlink="http://www.w3.org/1999/xlink">
<g id="graph0" class="graph" transform="scale(1 1) rotate(0) translate(4 1253.5)">
<title>BlackCore::Fsd::MessageBase</title>
<!-- Node1 -->
<g id="node1" class="node">
<title>Node1</title>
<g id="a_node1"><a xlink:title="FSD message base class.">
<polygon fill="#bfbfbf" stroke="black" points="0,-652 0,-671 163,-671 163,-652 0,-652"/>
<text text-anchor="middle" x="81.5" y="-659" font-family="Helvetica,sans-Serif" font-size="10.00">BlackCore::Fsd::MessageBase</text>
</a>
</g>
</g>
<!-- Node2 -->
<g id="node2" class="node">
<title>Node2</title>
<g id="a_node2"><a xlink:href="class_black_core_1_1_fsd_1_1_add_atc.html" target="_top" xlink:title="Add ATC message.">
<polygon fill="none" stroke="black" points="228,-1230 228,-1249 358,-1249 358,-1230 228,-1230"/>
<text text-anchor="middle" x="293" y="-1237" font-family="Helvetica,sans-Serif" font-size="10.00">BlackCore::Fsd::AddAtc</text>
</a>
</g>
</g>
<!-- Node1&#45;&gt;Node2 -->
<g id="edge1" class="edge">
<title>Node1&#45;&gt;Node2</title>
<path fill="none" stroke="midnightblue" d="M83.78,-681.36C90.03,-771.6 120.19,-1142 199,-1220.5 206.82,-1228.29 216.92,-1233.31 227.57,-1236.46"/>
<polygon fill="midnightblue" stroke="midnightblue" points="87.28,-681.1 83.11,-671.36 80.29,-681.57 87.28,-681.1"/>
</g>
<!-- Node3 -->
<g id="node3" class="node">
<title>Node3</title>
<g id="a_node3"><a xlink:href="class_black_core_1_1_fsd_1_1_add_pilot.html" target="_top" xlink:title="FSD Message: Add Pilot.">
<polygon fill="none" stroke="black" points="225,-1192 225,-1211 361,-1211 361,-1192 225,-1192"/>
<text text-anchor="middle" x="293" y="-1199" font-family="Helvetica,sans-Serif" font-size="10.00">BlackCore::Fsd::AddPilot</text>
</a>
</g>
</g>
<!-- Node1&#45;&gt;Node3 -->
<g id="edge2" class="edge">
<title>Node1&#45;&gt;Node3</title>
<path fill="none" stroke="midnightblue" d="M84.09,-681.09C91.45,-767.07 125.1,-1109.95 199,-1182.5 206.17,-1189.54 215.21,-1194.31 224.81,-1197.48"/>
<polygon fill="midnightblue" stroke="midnightblue" points="87.57,-680.78 83.25,-671.11 80.6,-681.37 87.57,-680.78"/>
</g>
<!-- Node4 -->
<g id="node4" class="node">
<title>Node4</title>
<g id="a_node4"><a xlink:href="class_black_core_1_1_fsd_1_1_atc_data_update.html" target="_top" xlink:title="FSD Message: ATC data update.">
<polygon fill="none" stroke="black" points="208,-1154 208,-1173 378,-1173 378,-1154 208,-1154"/>
<text text-anchor="middle" x="293" y="-1161" font-family="Helvetica,sans-Serif" font-size="10.00">BlackCore::Fsd::AtcDataUpdate</text>
</a>
</g>
</g>
<!-- Node1&#45;&gt;Node4 -->
<g id="edge3" class="edge">
<title>Node1&#45;&gt;Node4</title>
<path fill="none" stroke="midnightblue" d="M84.47,-681.22C93.07,-763.45 130.1,-1077.98 199,-1144.5 202.91,-1148.28 207.36,-1151.4 212.14,-1153.96"/>
<polygon fill="midnightblue" stroke="midnightblue" points="87.94,-680.79 83.44,-671.2 80.98,-681.51 87.94,-680.79"/>
</g>
<!-- Node5 -->
<g id="node5" class="node">
<title>Node5</title>
<g id="a_node5"><a xlink:href="class_black_core_1_1_fsd_1_1_auth_challenge.html" target="_top" xlink:title="FSD Message: auth challenge.">
<polygon fill="none" stroke="black" points="209.5,-1116 209.5,-1135 376.5,-1135 376.5,-1116 209.5,-1116"/>
<text text-anchor="middle" x="293" y="-1123" font-family="Helvetica,sans-Serif" font-size="10.00">BlackCore::Fsd::AuthChallenge</text>
</a>
</g>
</g>
<!-- Node1&#45;&gt;Node5 -->
<g id="edge4" class="edge">
<title>Node1&#45;&gt;Node5</title>
<path fill="none" stroke="midnightblue" d="M84.89,-681.15C94.78,-759.19 135.02,-1045.92 199,-1106.5 202.95,-1110.24 207.42,-1113.33 212.23,-1115.88"/>
<polygon fill="midnightblue" stroke="midnightblue" points="88.36,-680.69 83.65,-671.2 81.42,-681.56 88.36,-680.69"/>
</g>
<!-- Node6 -->
<g id="node6" class="node">
<title>Node6</title>
<g id="a_node6"><a xlink:href="class_black_core_1_1_fsd_1_1_auth_response.html" target="_top" xlink:title="Responds to an authentication challenge. The protocol for formulating and responding to auth challeng...">
<polygon fill="none" stroke="black" points="210.5,-1078 210.5,-1097 375.5,-1097 375.5,-1078 210.5,-1078"/>
<text text-anchor="middle" x="293" y="-1085" font-family="Helvetica,sans-Serif" font-size="10.00">BlackCore::Fsd::AuthResponse</text>
</a>
</g>
</g>
<!-- Node1&#45;&gt;Node6 -->
<g id="edge5" class="edge">
<title>Node1&#45;&gt;Node6</title>
<path fill="none" stroke="midnightblue" d="M85.43,-681.33C96.75,-755.33 139.99,-1013.88 199,-1068.5 202.99,-1072.19 207.5,-1075.25 212.32,-1077.77"/>
<polygon fill="midnightblue" stroke="midnightblue" points="88.84,-680.47 83.89,-671.1 81.92,-681.51 88.84,-680.47"/>
</g>
<!-- Node7 -->
<g id="node7" class="node">
<title>Node7</title>
<g id="a_node7"><a xlink:href="class_black_core_1_1_fsd_1_1_client_identification.html" target="_top" xlink:title="This packet is sent by any client that supports the VATSIM client authentication protocol,...">
<polygon fill="none" stroke="black" points="199,-1040 199,-1059 387,-1059 387,-1040 199,-1040"/>
<text text-anchor="middle" x="293" y="-1047" font-family="Helvetica,sans-Serif" font-size="10.00">BlackCore::Fsd::ClientIdentification</text>
</a>
</g>
</g>
<!-- Node1&#45;&gt;Node7 -->
<g id="edge6" class="edge">
<title>Node1&#45;&gt;Node7</title>
<path fill="none" stroke="midnightblue" d="M82.26,-681.32C82.65,-743.26 92.79,-934.83 199,-1030.5 203.16,-1034.25 207.86,-1037.34 212.88,-1039.88"/>
<polygon fill="midnightblue" stroke="midnightblue" points="85.76,-681.02 82.28,-671.01 78.76,-681.01 85.76,-681.02"/>
</g>
<!-- Node8 -->
<g id="node8" class="node">
<title>Node8</title>
<g id="a_node8"><a xlink:href="class_black_core_1_1_fsd_1_1_client_query.html" target="_top" xlink:title="This packet is used to query a client’s data.">
<polygon fill="none" stroke="black" points="216.5,-1002 216.5,-1021 369.5,-1021 369.5,-1002 216.5,-1002"/>
<text text-anchor="middle" x="293" y="-1009" font-family="Helvetica,sans-Serif" font-size="10.00">BlackCore::Fsd::ClientQuery</text>
</a>
</g>
</g>
<!-- Node1&#45;&gt;Node8 -->
<g id="edge7" class="edge">
<title>Node1&#45;&gt;Node8</title>
<path fill="none" stroke="midnightblue" d="M83.09,-681.55C85.94,-739.51 102.55,-908.42 199,-992.5 204.09,-996.94 209.94,-1000.44 216.17,-1003.2"/>
<polygon fill="midnightblue" stroke="midnightblue" points="86.57,-681.07 82.67,-671.22 79.58,-681.35 86.57,-681.07"/>
</g>
<!-- Node9 -->
<g id="node9" class="node">
<title>Node9</title>
<g id="a_node9"><a xlink:href="class_black_core_1_1_fsd_1_1_client_response.html" target="_top" xlink:title="This packet is used to respond to a client data request.">
<polygon fill="none" stroke="black" points="207.5,-964 207.5,-983 378.5,-983 378.5,-964 207.5,-964"/>
<text text-anchor="middle" x="293" y="-971" font-family="Helvetica,sans-Serif" font-size="10.00">BlackCore::Fsd::ClientResponse</text>
</a>
</g>
</g>
<!-- Node1&#45;&gt;Node9 -->
<g id="edge8" class="edge">
<title>Node1&#45;&gt;Node9</title>
<path fill="none" stroke="midnightblue" d="M84.1,-681.38C89.5,-734.67 111.99,-881.66 199,-954.5 203.55,-958.31 208.66,-961.42 214.08,-963.96"/>
<polygon fill="midnightblue" stroke="midnightblue" points="87.57,-680.86 83.16,-671.22 80.59,-681.5 87.57,-680.86"/>
</g>
<!-- Node10 -->
<g id="node10" class="node">
<title>Node10</title>
<g id="a_node10"><a xlink:href="class_black_core_1_1_fsd_1_1_delete_atc.html" target="_top" xlink:title="FSD Message Delete ATC.">
<polygon fill="none" stroke="black" points="221.5,-926 221.5,-945 364.5,-945 364.5,-926 221.5,-926"/>
<text text-anchor="middle" x="293" y="-933" font-family="Helvetica,sans-Serif" font-size="10.00">BlackCore::Fsd::DeleteAtc</text>
</a>
</g>
</g>
<!-- Node1&#45;&gt;Node10 -->
<g id="edge9" class="edge">
<title>Node1&#45;&gt;Node10</title>
<path fill="none" stroke="midnightblue" d="M85.39,-681.37C93.54,-729.87 121.41,-854.79 199,-916.5 205.58,-921.73 213.23,-925.63 221.26,-928.53"/>
<polygon fill="midnightblue" stroke="midnightblue" points="88.81,-680.59 83.79,-671.26 81.89,-681.68 88.81,-680.59"/>
</g>
<!-- Node11 -->
<g id="node11" class="node">
<title>Node11</title>
<g id="a_node11"><a xlink:href="class_black_core_1_1_fsd_1_1_delete_pilot.html" target="_top" xlink:title="Used to notify the server of the intention to close the connection. If a client receives this packet ...">
<polygon fill="none" stroke="black" points="218.5,-888 218.5,-907 367.5,-907 367.5,-888 218.5,-888"/>
<text text-anchor="middle" x="293" y="-895" font-family="Helvetica,sans-Serif" font-size="10.00">BlackCore::Fsd::DeletePilot</text>
</a>
</g>
</g>
<!-- Node1&#45;&gt;Node11 -->
<g id="edge10" class="edge">
<title>Node1&#45;&gt;Node11</title>
<path fill="none" stroke="midnightblue" d="M87,-681.02C98,-724.11 130.53,-827.54 199,-878.5 204.82,-882.83 211.38,-886.23 218.26,-888.9"/>
<polygon fill="midnightblue" stroke="midnightblue" points="90.38,-680.1 84.6,-671.22 83.58,-681.76 90.38,-680.1"/>
</g>
<!-- Node12 -->
<g id="node12" class="node">
<title>Node12</title>
<g id="a_node12"><a xlink:href="class_black_core_1_1_fsd_1_1_euroscope_sim_data.html" target="_top" xlink:title="Pilot data update broadcast by Euroscope Simulator every second.">
<polygon fill="none" stroke="black" points="220,-838.5 220,-868.5 366,-868.5 366,-838.5 220,-838.5"/>
<text text-anchor="start" x="228" y="-856.5" font-family="Helvetica,sans-Serif" font-size="10.00">BlackCore::Fsd::Euroscope</text>
<text text-anchor="middle" x="293" y="-845.5" font-family="Helvetica,sans-Serif" font-size="10.00">SimData</text>
</a>
</g>
</g>
<!-- Node1&#45;&gt;Node12 -->
<g id="edge11" class="edge">
<title>Node1&#45;&gt;Node12</title>
<path fill="none" stroke="midnightblue" d="M90.48,-680.71C106,-715.67 143.68,-789.66 199,-828.5 205.29,-832.92 212.33,-836.56 219.64,-839.55"/>
<polygon fill="midnightblue" stroke="midnightblue" points="93.55,-678.99 86.37,-671.19 87.12,-681.76 93.55,-678.99"/>
</g>
<!-- Node13 -->
<g id="node13" class="node">
<title>Node13</title>
<g id="a_node13"><a xlink:href="class_black_core_1_1_fsd_1_1_f_s_d_identification.html" target="_top" xlink:title="This packet is sent by the server immediately after a new client connection is made.">
<polygon fill="none" stroke="black" points="204,-800 204,-819 382,-819 382,-800 204,-800"/>
<text text-anchor="middle" x="293" y="-807" font-family="Helvetica,sans-Serif" font-size="10.00">BlackCore::Fsd::FSDIdentification</text>
</a>
</g>
</g>
<!-- Node1&#45;&gt;Node13 -->
<g id="edge12" class="edge">
<title>Node1&#45;&gt;Node13</title>
<path fill="none" stroke="midnightblue" d="M93.47,-679.75C111.62,-708.26 150.74,-762.94 199,-790.5 205.73,-794.34 213.12,-797.41 220.7,-799.87"/>
<polygon fill="midnightblue" stroke="midnightblue" points="96.38,-677.81 88.13,-671.17 90.44,-681.51 96.38,-677.81"/>
</g>
<!-- Node14 -->
<g id="node14" class="node">
<title>Node14</title>
<g id="a_node14"><a xlink:href="class_black_core_1_1_fsd_1_1_flight_plan.html" target="_top" xlink:title="FSD Message: flightplan.">
<polygon fill="none" stroke="black" points="221,-762 221,-781 365,-781 365,-762 221,-762"/>
<text text-anchor="middle" x="293" y="-769" font-family="Helvetica,sans-Serif" font-size="10.00">BlackCore::Fsd::FlightPlan</text>
</a>
</g>
</g>
<!-- Node1&#45;&gt;Node14 -->
<g id="edge13" class="edge">
<title>Node1&#45;&gt;Node14</title>
<path fill="none" stroke="midnightblue" d="M98.94,-678.48C120.1,-699.27 158.91,-734 199,-752.5 207.38,-756.37 216.54,-759.45 225.75,-761.91"/>
<polygon fill="midnightblue" stroke="midnightblue" points="101.28,-675.86 91.73,-671.26 96.32,-680.81 101.28,-675.86"/>
</g>
<!-- Node15 -->
<g id="node15" class="node">
<title>Node15</title>
<g id="a_node15"><a xlink:href="class_black_core_1_1_fsd_1_1_interim_pilot_data_update.html" target="_top" xlink:title="Interim pilot data update sent to specific receivers faster than the standard broadcast update.">
<polygon fill="none" stroke="black" points="217,-712.5 217,-742.5 369,-742.5 369,-712.5 217,-712.5"/>
<text text-anchor="start" x="225" y="-730.5" font-family="Helvetica,sans-Serif" font-size="10.00">BlackCore::Fsd::InterimPilot</text>
<text text-anchor="middle" x="293" y="-719.5" font-family="Helvetica,sans-Serif" font-size="10.00">DataUpdate</text>
</a>
</g>
</g>
<!-- Node1&#45;&gt;Node15 -->
<g id="edge14" class="edge">
<title>Node1&#45;&gt;Node15</title>
<path fill="none" stroke="midnightblue" d="M117.44,-674.57C140.46,-683 171.35,-693.93 199,-702.5 210.02,-705.91 221.85,-709.3 233.27,-712.44"/>
<polygon fill="midnightblue" stroke="midnightblue" points="118.36,-671.19 107.77,-671.02 115.94,-677.75 118.36,-671.19"/>
</g>
<!-- Node16 -->
<g id="node16" class="node">
<title>Node16</title>
<g id="a_node16"><a xlink:href="class_black_core_1_1_fsd_1_1_kill_request.html" target="_top" xlink:title="Kill request initiated from the server or supervisor. Client needs to disconnect immediatly upon rece...">
<polygon fill="none" stroke="black" points="217.5,-674 217.5,-693 368.5,-693 368.5,-674 217.5,-674"/>
<text text-anchor="middle" x="293" y="-681" font-family="Helvetica,sans-Serif" font-size="10.00">BlackCore::Fsd::KillRequest</text>
</a>
</g>
</g>
<!-- Node1&#45;&gt;Node16 -->
<g id="edge15" class="edge">
<title>Node1&#45;&gt;Node16</title>
<path fill="none" stroke="midnightblue" d="M173.27,-671.03C187.93,-672.57 202.96,-674.15 217.18,-675.64"/>
<polygon fill="midnightblue" stroke="midnightblue" points="173.51,-667.54 163.2,-669.97 172.78,-674.5 173.51,-667.54"/>
</g>
<!-- Node17 -->
<g id="node17" class="node">
<title>Node17</title>
<g id="a_node17"><a xlink:href="class_black_core_1_1_fsd_1_1_pilot_data_update.html" target="_top" xlink:title="Pilot data update broadcasted to all clients in range every 5 seconds.">
<polygon fill="none" stroke="black" points="223,-624.5 223,-654.5 363,-654.5 363,-624.5 223,-624.5"/>
<text text-anchor="start" x="231" y="-642.5" font-family="Helvetica,sans-Serif" font-size="10.00">BlackCore::Fsd::PilotData</text>
<text text-anchor="middle" x="293" y="-631.5" font-family="Helvetica,sans-Serif" font-size="10.00">Update</text>
</a>
</g>
</g>
<!-- Node1&#45;&gt;Node17 -->
<g id="edge16" class="edge">
<title>Node1&#45;&gt;Node17</title>
<path fill="none" stroke="midnightblue" d="M173.45,-651.95C190.04,-650.21 207.11,-648.41 222.93,-646.75"/>
<polygon fill="midnightblue" stroke="midnightblue" points="172.78,-648.5 163.2,-653.03 173.51,-655.46 172.78,-648.5"/>
</g>
<!-- Node18 -->
<g id="node18" class="node">
<title>Node18</title>
<g id="a_node18"><a xlink:href="class_black_core_1_1_fsd_1_1_ping.html" target="_top" xlink:title="Ping. Needs to be answered with a pong.">
<polygon fill="none" stroke="black" points="235,-586 235,-605 351,-605 351,-586 235,-586"/>
<text text-anchor="middle" x="293" y="-593" font-family="Helvetica,sans-Serif" font-size="10.00">BlackCore::Fsd::Ping</text>
</a>
</g>
</g>
<!-- Node1&#45;&gt;Node18 -->
<g id="edge17" class="edge">
<title>Node1&#45;&gt;Node18</title>
<path fill="none" stroke="midnightblue" d="M112.92,-647.9C136.14,-637.9 169.13,-624.54 199,-615.5 212.28,-611.48 226.85,-607.95 240.45,-605.01"/>
<polygon fill="midnightblue" stroke="midnightblue" points="111.37,-644.75 103.6,-651.95 114.17,-651.17 111.37,-644.75"/>
</g>
<!-- Node19 -->
<g id="node19" class="node">
<title>Node19</title>
<g id="a_node19"><a xlink:href="class_black_core_1_1_fsd_1_1_plane_info_request.html" target="_top" xlink:title="Request to send plane information. Shall be answered by a PlaneInformation message.">
<polygon fill="none" stroke="black" points="222.5,-536.5 222.5,-566.5 363.5,-566.5 363.5,-536.5 222.5,-536.5"/>
<text text-anchor="start" x="230.5" y="-554.5" font-family="Helvetica,sans-Serif" font-size="10.00">BlackCore::Fsd::PlaneInfo</text>
<text text-anchor="middle" x="293" y="-543.5" font-family="Helvetica,sans-Serif" font-size="10.00">Request</text>
</a>
</g>
</g>
<!-- Node1&#45;&gt;Node19 -->
<g id="edge18" class="edge">
<title>Node1&#45;&gt;Node19</title>
<path fill="none" stroke="midnightblue" d="M100.36,-645.17C122.12,-626.1 160.75,-594.81 199,-576.5 206.99,-572.67 215.66,-569.36 224.39,-566.51"/>
<polygon fill="midnightblue" stroke="midnightblue" points="98.02,-642.57 92.88,-651.84 102.67,-647.8 98.02,-642.57"/>
</g>
<!-- Node20 -->
<g id="node20" class="node">
<title>Node20</title>
<g id="a_node20"><a xlink:href="class_black_core_1_1_fsd_1_1_plane_info_request_fsinn.html" target="_top" xlink:title="FSinn specific version of plane information request.">
<polygon fill="none" stroke="black" points="222.5,-487.5 222.5,-517.5 363.5,-517.5 363.5,-487.5 222.5,-487.5"/>
<text text-anchor="start" x="230.5" y="-505.5" font-family="Helvetica,sans-Serif" font-size="10.00">BlackCore::Fsd::PlaneInfo</text>
<text text-anchor="middle" x="293" y="-494.5" font-family="Helvetica,sans-Serif" font-size="10.00">RequestFsinn</text>
</a>
</g>
</g>
<!-- Node1&#45;&gt;Node20 -->
<g id="edge19" class="edge">
<title>Node1&#45;&gt;Node20</title>
<path fill="none" stroke="midnightblue" d="M93.5,-642.89C111.69,-613.75 150.86,-557.6 199,-527.5 206.09,-523.07 213.95,-519.41 222.03,-516.4"/>
<polygon fill="midnightblue" stroke="midnightblue" points="90.37,-641.29 88.15,-651.65 96.34,-644.94 90.37,-641.29"/>
</g>
<!-- Node21 -->
<g id="node21" class="node">
<title>Node21</title>
<g id="a_node21"><a xlink:href="class_black_core_1_1_fsd_1_1_plane_information.html" target="_top" xlink:title="This packet is sent in reply to a PIR request to inform the client which multiplayer model to use....">
<polygon fill="none" stroke="black" points="203.5,-449 203.5,-468 382.5,-468 382.5,-449 203.5,-449"/>
<text text-anchor="middle" x="293" y="-456" font-family="Helvetica,sans-Serif" font-size="10.00">BlackCore::Fsd::PlaneInformation</text>
</a>
</g>
</g>
<!-- Node1&#45;&gt;Node21 -->
<g id="edge20" class="edge">
<title>Node1&#45;&gt;Node21</title>
<path fill="none" stroke="midnightblue" d="M89.17,-641.76C103.1,-603.69 139.06,-520.2 199,-478.5 205.24,-474.16 212.23,-470.74 219.52,-468.04"/>
<polygon fill="midnightblue" stroke="midnightblue" points="85.71,-641.03 85.68,-651.62 92.31,-643.36 85.71,-641.03"/>
</g>
<!-- Node22 -->
<g id="node22" class="node">
<title>Node22</title>
<g id="a_node22"><a xlink:href="class_black_core_1_1_fsd_1_1_plane_information_fsinn.html" target="_top" xlink:title="This packet is sent in reply to a FSinn request (FSIPIR)">
<polygon fill="none" stroke="black" points="203.5,-399.5 203.5,-429.5 382.5,-429.5 382.5,-399.5 203.5,-399.5"/>
<text text-anchor="start" x="211.5" y="-417.5" font-family="Helvetica,sans-Serif" font-size="10.00">BlackCore::Fsd::PlaneInformation</text>
<text text-anchor="middle" x="293" y="-406.5" font-family="Helvetica,sans-Serif" font-size="10.00">Fsinn</text>
</a>
</g>
</g>
<!-- Node1&#45;&gt;Node22 -->
<g id="edge21" class="edge">
<title>Node1&#45;&gt;Node22</title>
<path fill="none" stroke="midnightblue" d="M87.09,-641.84C98.29,-598.4 131.17,-493.8 199,-439.5 203.83,-435.63 209.21,-432.36 214.87,-429.6"/>
<polygon fill="midnightblue" stroke="midnightblue" points="83.65,-641.18 84.65,-651.72 90.45,-642.85 83.65,-641.18"/>
</g>
<!-- Node23 -->
<g id="node23" class="node">
<title>Node23</title>
<g id="a_node23"><a xlink:href="class_black_core_1_1_fsd_1_1_pong.html" target="_top" xlink:title="Sent or received as reply to a ping.">
<polygon fill="none" stroke="black" points="233.5,-361 233.5,-380 352.5,-380 352.5,-361 233.5,-361"/>
<text text-anchor="middle" x="293" y="-368" font-family="Helvetica,sans-Serif" font-size="10.00">BlackCore::Fsd::Pong</text>
</a>
</g>
</g>
<!-- Node1&#45;&gt;Node23 -->
<g id="edge22" class="edge">
<title>Node1&#45;&gt;Node23</title>
<path fill="none" stroke="midnightblue" d="M84.82,-641.82C91.86,-591.49 117.72,-457.35 199,-390.5 208.69,-382.53 220.83,-377.53 233.1,-374.43"/>
<polygon fill="midnightblue" stroke="midnightblue" points="81.32,-641.62 83.5,-651.99 88.26,-642.52 81.32,-641.62"/>
</g>
<!-- Node24 -->
<g id="node24" class="node">
<title>Node24</title>
<g id="a_node24"><a xlink:href="class_black_core_1_1_fsd_1_1_rehost.html" target="_top" xlink:title="The server requests us to connect to a different server.">
<polygon fill="none" stroke="black" points="228.5,-323 228.5,-342 357.5,-342 357.5,-323 228.5,-323"/>
<text text-anchor="middle" x="293" y="-330" font-family="Helvetica,sans-Serif" font-size="10.00">BlackCore::Fsd::Rehost</text>
</a>
</g>
</g>
<!-- Node1&#45;&gt;Node24 -->
<g id="edge23" class="edge">
<title>Node1&#45;&gt;Node24</title>
<path fill="none" stroke="midnightblue" d="M83.62,-641.61C87.85,-586.25 107.74,-429.37 199,-351.5 207.27,-344.44 217.46,-339.76 228.03,-336.7"/>
<polygon fill="midnightblue" stroke="midnightblue" points="80.11,-641.6 82.93,-651.81 87.09,-642.07 80.11,-641.6"/>
</g>
<!-- Node25 -->
<g id="node25" class="node">
<title>Node25</title>
<g id="a_node25"><a xlink:href="class_black_core_1_1_fsd_1_1_rev_b_client_parts.html" target="_top" xlink:title="This packet is used to translate client’s parts from RevB IVAO &#45;MD. &#45;MDMDN0104:262396:262396:262396.">
<polygon fill="none" stroke="black" points="218.5,-273.5 218.5,-303.5 367.5,-303.5 367.5,-273.5 218.5,-273.5"/>
<text text-anchor="start" x="226.5" y="-291.5" font-family="Helvetica,sans-Serif" font-size="10.00">BlackCore::Fsd::RevBClient</text>
<text text-anchor="middle" x="293" y="-280.5" font-family="Helvetica,sans-Serif" font-size="10.00">Parts</text>
</a>
</g>
</g>
<!-- Node1&#45;&gt;Node25 -->
<g id="edge24" class="edge">
<title>Node1&#45;&gt;Node25</title>
<path fill="none" stroke="midnightblue" d="M82.96,-641.51C85.45,-582.2 101.14,-405.62 199,-313.5 204.6,-308.23 211.19,-304.04 218.23,-300.73"/>
<polygon fill="midnightblue" stroke="midnightblue" points="79.46,-641.64 82.62,-651.75 86.45,-641.87 79.46,-641.64"/>
</g>
<!-- Node26 -->
<g id="node26" class="node">
<title>Node26</title>
<g id="a_node26"><a xlink:href="class_black_core_1_1_fsd_1_1_server_error.html" target="_top" xlink:title="FSD Message Server Error.">
<polygon fill="none" stroke="black" points="218,-235 218,-254 368,-254 368,-235 218,-235"/>
<text text-anchor="middle" x="293" y="-242" font-family="Helvetica,sans-Serif" font-size="10.00">BlackCore::Fsd::ServerError</text>
</a>
</g>
</g>
<!-- Node1&#45;&gt;Node26 -->
<g id="edge25" class="edge">
<title>Node1&#45;&gt;Node26</title>
<path fill="none" stroke="midnightblue" d="M81.79,-641.95C80.61,-577.44 86.06,-369.42 199,-264.5 204.44,-259.44 210.85,-255.54 217.71,-252.55"/>
<polygon fill="midnightblue" stroke="midnightblue" points="78.3,-642.07 82.06,-651.97 85.29,-641.88 78.3,-642.07"/>
</g>
<!-- Node27 -->
<g id="node27" class="node">
<title>Node27</title>
<g id="a_node27"><a xlink:href="class_black_core_1_1_fsd_1_1_text_message.html" target="_top" xlink:title="Text, radio or private message.">
<polygon fill="none" stroke="black" points="213.5,-197 213.5,-216 372.5,-216 372.5,-197 213.5,-197"/>
<text text-anchor="middle" x="293" y="-204" font-family="Helvetica,sans-Serif" font-size="10.00">BlackCore::Fsd::TextMessage</text>
</a>
</g>
</g>
<!-- Node1&#45;&gt;Node27 -->
<g id="edge26" class="edge">
<title>Node1&#45;&gt;Node27</title>
<path fill="none" stroke="midnightblue" d="M85.01,-641.77C95.25,-564.62 136.21,-284.65 199,-225.5 203.2,-221.54 207.99,-218.32 213.13,-215.69"/>
<polygon fill="midnightblue" stroke="midnightblue" points="81.5,-641.62 83.68,-651.99 88.45,-642.53 81.5,-641.62"/>
</g>
<!-- Node28 -->
<g id="node28" class="node">
<title>Node28</title>
<g id="a_node28"><a xlink:href="class_black_core_1_1_fsd_1_1_visual_pilot_data_periodic.html" target="_top" xlink:title="Every 25th VisualPilotDataUpdate is actually one of these (&quot;slowfast&quot;).">
<polygon fill="none" stroke="black" points="219.5,-147.5 219.5,-177.5 366.5,-177.5 366.5,-147.5 219.5,-147.5"/>
<text text-anchor="start" x="227.5" y="-165.5" font-family="Helvetica,sans-Serif" font-size="10.00">BlackCore::Fsd::VisualPilot</text>
<text text-anchor="middle" x="293" y="-154.5" font-family="Helvetica,sans-Serif" font-size="10.00">DataPeriodic</text>
</a>
</g>
</g>
<!-- Node1&#45;&gt;Node28 -->
<g id="edge27" class="edge">
<title>Node1&#45;&gt;Node28</title>
<path fill="none" stroke="midnightblue" d="M84.75,-641.23C94.23,-559.39 133.47,-254.46 199,-187.5 204.73,-181.64 211.67,-177.12 219.16,-173.62"/>
<polygon fill="midnightblue" stroke="midnightblue" points="81.22,-641.3 83.57,-651.64 88.17,-642.09 81.22,-641.3"/>
</g>
<!-- Node29 -->
<g id="node29" class="node">
<title>Node29</title>
<g id="a_node29"><a xlink:href="class_black_core_1_1_fsd_1_1_visual_pilot_data_stopped.html" target="_top" xlink:title="VisualPilotDataUpdate with velocity assumed to be zero.">
<polygon fill="none" stroke="black" points="219.5,-98.5 219.5,-128.5 366.5,-128.5 366.5,-98.5 219.5,-98.5"/>
<text text-anchor="start" x="227.5" y="-116.5" font-family="Helvetica,sans-Serif" font-size="10.00">BlackCore::Fsd::VisualPilot</text>
<text text-anchor="middle" x="293" y="-105.5" font-family="Helvetica,sans-Serif" font-size="10.00">DataStopped</text>
</a>
</g>
</g>
<!-- Node1&#45;&gt;Node29 -->
<g id="edge28" class="edge">
<title>Node1&#45;&gt;Node29</title>
<path fill="none" stroke="midnightblue" d="M84.18,-641.94C91.96,-556.1 127.12,-213.57 199,-138.5 204.78,-132.46 211.85,-127.83 219.49,-124.28"/>
<polygon fill="midnightblue" stroke="midnightblue" points="80.7,-641.64 83.3,-651.91 87.67,-642.26 80.7,-641.64"/>
</g>
<!-- Node30 -->
<g id="node30" class="node">
<title>Node30</title>
<g id="a_node30"><a xlink:href="class_black_core_1_1_fsd_1_1_visual_pilot_data_toggle.html" target="_top" xlink:title="Message from server to start or stop sending visual pilot data updates.">
<polygon fill="none" stroke="black" points="219.5,-49.5 219.5,-79.5 366.5,-79.5 366.5,-49.5 219.5,-49.5"/>
<text text-anchor="start" x="227.5" y="-67.5" font-family="Helvetica,sans-Serif" font-size="10.00">BlackCore::Fsd::VisualPilot</text>
<text text-anchor="middle" x="293" y="-56.5" font-family="Helvetica,sans-Serif" font-size="10.00">DataToggle</text>
</a>
</g>
</g>
<!-- Node1&#45;&gt;Node30 -->
<g id="edge29" class="edge">
<title>Node1&#45;&gt;Node30</title>
<path fill="none" stroke="midnightblue" d="M83.79,-641.88C90.13,-551.08 120.95,-172.52 199,-89.5 204.73,-83.41 211.76,-78.74 219.38,-75.18"/>
<polygon fill="midnightblue" stroke="midnightblue" points="80.29,-641.69 83.1,-651.91 87.27,-642.17 80.29,-641.69"/>
</g>
<!-- Node31 -->
<g id="node31" class="node">
<title>Node31</title>
<g id="a_node31"><a xlink:href="class_black_core_1_1_fsd_1_1_visual_pilot_data_update.html" target="_top" xlink:title="Pilot data update broadcasted to pilots in range every 0.2 seconds.">
<polygon fill="none" stroke="black" points="219.5,-0.5 219.5,-30.5 366.5,-30.5 366.5,-0.5 219.5,-0.5"/>
<text text-anchor="start" x="227.5" y="-18.5" font-family="Helvetica,sans-Serif" font-size="10.00">BlackCore::Fsd::VisualPilot</text>
<text text-anchor="middle" x="293" y="-7.5" font-family="Helvetica,sans-Serif" font-size="10.00">DataUpdate</text>
</a>
</g>
</g>
<!-- Node1&#45;&gt;Node31 -->
<g id="edge30" class="edge">
<title>Node1&#45;&gt;Node31</title>
<path fill="none" stroke="midnightblue" d="M83.47,-641.43C88.51,-545.14 114.86,-131.39 199,-40.5 204.68,-34.37 211.69,-29.67 219.29,-26.09"/>
<polygon fill="midnightblue" stroke="midnightblue" points="79.97,-641.39 82.96,-651.56 86.96,-641.75 79.97,-641.39"/>
</g>
</g>
</svg>
