<?xml version="1.0" encoding="UTF-8" standalone="no"?>
<!DOCTYPE svg PUBLIC "-//W3C//DTD SVG 1.1//EN"
 "http://www.w3.org/Graphics/SVG/1.1/DTD/svg11.dtd">
<!-- Generated by graphviz version 2.43.0 (0)
 -->
<!-- Title: chunkware_simple::AttRelEnvelope Pages: 1 -->
<svg width="374pt" height="162pt"
 viewBox="0.00 0.00 373.50 162.00" xmlns="http://www.w3.org/2000/svg" xmlns:xlink="http://www.w3.org/1999/xlink">
<g id="graph0" class="graph" transform="scale(1 1) rotate(0) translate(4 158)">
<title>chunkware_simple::AttRelEnvelope</title>
<!-- Node1 -->
<g id="node1" class="node">
<title>Node1</title>
<g id="a_node1"><a xlink:title="attack/release envelope">
<polygon fill="#bfbfbf" stroke="black" points="112,-123.5 112,-153.5 256,-153.5 256,-123.5 112,-123.5"/>
<text text-anchor="start" x="120" y="-141.5" font-family="Helvetica,sans-Serif" font-size="10.00">chunkware_simple::AttRel</text>
<text text-anchor="middle" x="184" y="-130.5" font-family="Helvetica,sans-Serif" font-size="10.00">Envelope</text>
</a>
</g>
</g>
<!-- Node2 -->
<g id="node2" class="node">
<title>Node2</title>
<g id="a_node2"><a xlink:href="classchunkware__simple_1_1_simple_comp.html" target="_top" xlink:title="simple compressor">
<polygon fill="none" stroke="black" points="0,-67.5 0,-86.5 176,-86.5 176,-67.5 0,-67.5"/>
<text text-anchor="middle" x="88" y="-74.5" font-family="Helvetica,sans-Serif" font-size="10.00">chunkware_simple::SimpleComp</text>
</a>
</g>
</g>
<!-- Node1&#45;&gt;Node2 -->
<g id="edge1" class="edge">
<title>Node1&#45;&gt;Node2</title>
<path fill="none" stroke="midnightblue" d="M152.65,-118.07C135.54,-107.46 115.2,-94.86 101.97,-86.66"/>
<polygon fill="midnightblue" stroke="midnightblue" points="150.91,-121.11 161.25,-123.4 154.59,-115.16 150.91,-121.11"/>
</g>
<!-- Node4 -->
<g id="node4" class="node">
<title>Node4</title>
<g id="a_node4"><a xlink:href="classchunkware__simple_1_1_simple_gate.html" target="_top" xlink:title="simple gate">
<polygon fill="none" stroke="black" points="194.5,-67.5 194.5,-86.5 365.5,-86.5 365.5,-67.5 194.5,-67.5"/>
<text text-anchor="middle" x="280" y="-74.5" font-family="Helvetica,sans-Serif" font-size="10.00">chunkware_simple::SimpleGate</text>
</a>
</g>
</g>
<!-- Node1&#45;&gt;Node4 -->
<g id="edge3" class="edge">
<title>Node1&#45;&gt;Node4</title>
<path fill="none" stroke="midnightblue" d="M215.35,-118.07C232.46,-107.46 252.8,-94.86 266.03,-86.66"/>
<polygon fill="midnightblue" stroke="midnightblue" points="213.41,-115.16 206.75,-123.4 217.09,-121.11 213.41,-115.16"/>
</g>
<!-- Node3 -->
<g id="node3" class="node">
<title>Node3</title>
<g id="a_node3"><a xlink:href="classchunkware__simple_1_1_simple_comp_rms.html" target="_top" xlink:title="Simple compressor with RMS detection.">
<polygon fill="none" stroke="black" points="14,-0.5 14,-30.5 162,-30.5 162,-0.5 14,-0.5"/>
<text text-anchor="start" x="22" y="-18.5" font-family="Helvetica,sans-Serif" font-size="10.00">chunkware_simple::Simple</text>
<text text-anchor="middle" x="88" y="-7.5" font-family="Helvetica,sans-Serif" font-size="10.00">CompRms</text>
</a>
</g>
</g>
<!-- Node2&#45;&gt;Node3 -->
<g id="edge2" class="edge">
<title>Node2&#45;&gt;Node3</title>
<path fill="none" stroke="midnightblue" d="M88,-57.23C88,-48.59 88,-38.5 88,-30.52"/>
<polygon fill="midnightblue" stroke="midnightblue" points="84.5,-57.48 88,-67.48 91.5,-57.48 84.5,-57.48"/>
</g>
<!-- Node5 -->
<g id="node5" class="node">
<title>Node5</title>
<g id="a_node5"><a xlink:href="classchunkware__simple_1_1_simple_gate_rms.html" target="_top" xlink:title="Simple gate with RMS detection.">
<polygon fill="none" stroke="black" points="206,-0.5 206,-30.5 354,-30.5 354,-0.5 206,-0.5"/>
<text text-anchor="start" x="214" y="-18.5" font-family="Helvetica,sans-Serif" font-size="10.00">chunkware_simple::Simple</text>
<text text-anchor="middle" x="280" y="-7.5" font-family="Helvetica,sans-Serif" font-size="10.00">GateRms</text>
</a>
</g>
</g>
<!-- Node4&#45;&gt;Node5 -->
<g id="edge4" class="edge">
<title>Node4&#45;&gt;Node5</title>
<path fill="none" stroke="midnightblue" d="M280,-57.23C280,-48.59 280,-38.5 280,-30.52"/>
<polygon fill="midnightblue" stroke="midnightblue" points="276.5,-57.48 280,-67.48 283.5,-57.48 276.5,-57.48"/>
</g>
</g>
</svg>
