<?xml version="1.0" encoding="UTF-8" standalone="no"?>
<!DOCTYPE svg PUBLIC "-//W3C//DTD SVG 1.1//EN"
 "http://www.w3.org/Graphics/SVG/1.1/DTD/svg11.dtd">
<!-- Generated by graphviz version 2.43.0 (0)
 -->
<!-- Title: BlackGui::COverlayMessagesFrame Pages: 1 -->
<svg width="1140pt" height="1663pt"
 viewBox="0.00 0.00 1140.00 1663.00" xmlns="http://www.w3.org/2000/svg" xmlns:xlink="http://www.w3.org/1999/xlink">
<g id="graph0" class="graph" transform="scale(1 1) rotate(0) translate(4 1659)">
<title>BlackGui::COverlayMessagesFrame</title>
<!-- Node1 -->
<g id="node1" class="node">
<title>Node1</title>
<g id="a_node1"><a xlink:title="Using this class provides a QFrame with the overlay functionality already integrated.">
<polygon fill="#bfbfbf" stroke="black" points="500,-784.5 500,-814.5 660,-814.5 660,-784.5 500,-784.5"/>
<text text-anchor="start" x="508" y="-802.5" font-family="Helvetica,sans-Serif" font-size="10.00">BlackGui::COverlayMessages</text>
<text text-anchor="middle" x="580" y="-791.5" font-family="Helvetica,sans-Serif" font-size="10.00">Frame</text>
</a>
</g>
</g>
<!-- Node7 -->
<g id="node7" class="node">
<title>Node7</title>
<g id="a_node7"><a xlink:href="class_black_gui_1_1_c_overlay_messages_frame_enable_for_dock_widget_info_area.html" target="_top" xlink:title="Using this class provides a QFrame with the overlay and dock widget functionality already integrated.">
<polygon fill="none" stroke="black" points="700,-1551.5 700,-1581.5 896,-1581.5 896,-1551.5 700,-1551.5"/>
<text text-anchor="start" x="708" y="-1569.5" font-family="Helvetica,sans-Serif" font-size="10.00">BlackGui::COverlayMessages</text>
<text text-anchor="middle" x="798" y="-1558.5" font-family="Helvetica,sans-Serif" font-size="10.00">FrameEnableForDockWidgetInfoArea</text>
</a>
</g>
</g>
<!-- Node1&#45;&gt;Node7 -->
<g id="edge6" class="edge">
<title>Node1&#45;&gt;Node7</title>
<path fill="none" stroke="midnightblue" d="M583.38,-824.81C593.73,-931.81 637.03,-1346.76 696,-1462.5 715.2,-1500.17 752.69,-1533.19 776.21,-1551.44"/>
<polygon fill="midnightblue" stroke="midnightblue" points="586.84,-824.26 582.4,-814.64 579.87,-824.93 586.84,-824.26"/>
</g>
<!-- Node11 -->
<g id="node11" class="node">
<title>Node11</title>
<g id="a_node11"><a xlink:href="class_black_gui_1_1_c_plugin_config_window.html" target="_top" xlink:title="Base class for plugin config window.">
<polygon fill="none" stroke="black" points="711.5,-1434 711.5,-1453 884.5,-1453 884.5,-1434 711.5,-1434"/>
<text text-anchor="middle" x="798" y="-1441" font-family="Helvetica,sans-Serif" font-size="10.00">BlackGui::CPluginConfigWindow</text>
</a>
</g>
</g>
<!-- Node1&#45;&gt;Node11 -->
<g id="edge10" class="edge">
<title>Node1&#45;&gt;Node11</title>
<path fill="none" stroke="midnightblue" d="M581.96,-824.85C586.53,-930.94 609.52,-1337.68 696,-1424.5 700.53,-1429.05 705.79,-1432.7 711.47,-1435.6"/>
<polygon fill="midnightblue" stroke="midnightblue" points="585.46,-824.6 581.55,-814.75 578.46,-824.89 585.46,-824.6"/>
</g>
<!-- Node16 -->
<g id="node16" class="node">
<title>Node16</title>
<g id="a_node16"><a xlink:href="class_black_gui_1_1_components_1_1_c_aircraft_model_validation_component.html" target="_top" xlink:title="Handle validation result.">
<polygon fill="none" stroke="black" points="698,-1384.5 698,-1414.5 898,-1414.5 898,-1384.5 698,-1384.5"/>
<text text-anchor="start" x="706" y="-1402.5" font-family="Helvetica,sans-Serif" font-size="10.00">BlackGui::Components</text>
<text text-anchor="middle" x="798" y="-1391.5" font-family="Helvetica,sans-Serif" font-size="10.00">::CAircraftModelValidationComponent</text>
</a>
</g>
</g>
<!-- Node1&#45;&gt;Node16 -->
<g id="edge15" class="edge">
<title>Node1&#45;&gt;Node16</title>
<path fill="none" stroke="midnightblue" d="M582.5,-824.68C588.98,-924.97 617.88,-1294.49 696,-1375.5 699.25,-1378.87 702.89,-1381.81 706.79,-1384.36"/>
<polygon fill="midnightblue" stroke="midnightblue" points="585.98,-824.33 581.86,-814.57 579,-824.77 585.98,-824.33"/>
</g>
<!-- Node17 -->
<g id="node17" class="node">
<title>Node17</title>
<g id="a_node17"><a xlink:href="class_black_gui_1_1_components_1_1_c_auto_publish_component.html" target="_top" xlink:title="Data automatically collected and be be sent to backend.">
<polygon fill="none" stroke="black" points="726.5,-1335.5 726.5,-1365.5 869.5,-1365.5 869.5,-1335.5 726.5,-1335.5"/>
<text text-anchor="start" x="734.5" y="-1353.5" font-family="Helvetica,sans-Serif" font-size="10.00">BlackGui::Components</text>
<text text-anchor="middle" x="798" y="-1342.5" font-family="Helvetica,sans-Serif" font-size="10.00">::CAutoPublishComponent</text>
</a>
</g>
</g>
<!-- Node1&#45;&gt;Node17 -->
<g id="edge16" class="edge">
<title>Node1&#45;&gt;Node17</title>
<path fill="none" stroke="midnightblue" d="M583.03,-824.59C591.18,-919.12 624.6,-1252.11 696,-1325.5 704.31,-1334.04 715.05,-1339.85 726.42,-1343.75"/>
<polygon fill="midnightblue" stroke="midnightblue" points="586.51,-824.19 582.18,-814.52 579.53,-824.77 586.51,-824.19"/>
</g>
<!-- Node18 -->
<g id="node18" class="node">
<title>Node18</title>
<g id="a_node18"><a xlink:href="class_black_gui_1_1_components_1_1_c_copy_models_from_other_swift_versions_component.html" target="_top" xlink:title="Copy models from another swift version.">
<polygon fill="none" stroke="black" points="715.5,-1275 715.5,-1316 880.5,-1316 880.5,-1275 715.5,-1275"/>
<text text-anchor="start" x="723.5" y="-1304" font-family="Helvetica,sans-Serif" font-size="10.00">BlackGui::Components</text>
<text text-anchor="start" x="723.5" y="-1293" font-family="Helvetica,sans-Serif" font-size="10.00">::CCopyModelsFromOtherSwift</text>
<text text-anchor="middle" x="798" y="-1282" font-family="Helvetica,sans-Serif" font-size="10.00">VersionsComponent</text>
</a>
</g>
</g>
<!-- Node1&#45;&gt;Node18 -->
<g id="edge17" class="edge">
<title>Node1&#45;&gt;Node18</title>
<path fill="none" stroke="midnightblue" d="M583.96,-825C594.62,-912.73 633.8,-1200.32 696,-1265.5 701.56,-1271.32 708.19,-1276.03 715.36,-1279.83"/>
<polygon fill="midnightblue" stroke="midnightblue" points="587.41,-824.39 582.75,-814.87 580.46,-825.22 587.41,-824.39"/>
</g>
<!-- Node19 -->
<g id="node19" class="node">
<title>Node19</title>
<g id="a_node19"><a xlink:href="class_black_gui_1_1_components_1_1_c_copy_settings_and_caches_component.html" target="_top" xlink:title="Copy settings and caches.">
<polygon fill="none" stroke="black" points="696,-1225.5 696,-1255.5 900,-1255.5 900,-1225.5 696,-1225.5"/>
<text text-anchor="start" x="704" y="-1243.5" font-family="Helvetica,sans-Serif" font-size="10.00">BlackGui::Components</text>
<text text-anchor="middle" x="798" y="-1232.5" font-family="Helvetica,sans-Serif" font-size="10.00">::CCopySettingsAndCachesComponent</text>
</a>
</g>
</g>
<!-- Node1&#45;&gt;Node19 -->
<g id="edge18" class="edge">
<title>Node1&#45;&gt;Node19</title>
<path fill="none" stroke="midnightblue" d="M584.57,-824.81C596.6,-906.43 638.13,-1160.67 696,-1216.5 699.5,-1219.88 703.39,-1222.81 707.54,-1225.36"/>
<polygon fill="midnightblue" stroke="midnightblue" points="588.01,-824.07 583.1,-814.68 581.08,-825.08 588.01,-824.07"/>
</g>
<!-- Node20 -->
<g id="node20" class="node">
<title>Node20</title>
<g id="a_node20"><a xlink:href="class_black_gui_1_1_components_1_1_c_data_settings_component.html" target="_top" xlink:title="Settings.">
<polygon fill="none" stroke="black" points="723.5,-1176.5 723.5,-1206.5 872.5,-1206.5 872.5,-1176.5 723.5,-1176.5"/>
<text text-anchor="start" x="731.5" y="-1194.5" font-family="Helvetica,sans-Serif" font-size="10.00">BlackGui::Components</text>
<text text-anchor="middle" x="798" y="-1183.5" font-family="Helvetica,sans-Serif" font-size="10.00">::CDataSettingsComponent</text>
</a>
</g>
</g>
<!-- Node1&#45;&gt;Node20 -->
<g id="edge19" class="edge">
<title>Node1&#45;&gt;Node20</title>
<path fill="none" stroke="midnightblue" d="M580.9,-824.88C582.08,-891.59 594.92,-1073.22 696,-1167.5 703.78,-1174.75 713.33,-1179.94 723.44,-1183.62"/>
<polygon fill="midnightblue" stroke="midnightblue" points="584.4,-824.8 580.8,-814.84 577.4,-824.87 584.4,-824.8"/>
</g>
<!-- Node21 -->
<g id="node21" class="node">
<title>Node21</title>
<g id="a_node21"><a xlink:href="class_black_gui_1_1_components_1_1_c_db_aircraft_category_component.html" target="_top" xlink:title="DB aircraft categories.">
<polygon fill="none" stroke="black" points="708.5,-1127.5 708.5,-1157.5 887.5,-1157.5 887.5,-1127.5 708.5,-1127.5"/>
<text text-anchor="start" x="716.5" y="-1145.5" font-family="Helvetica,sans-Serif" font-size="10.00">BlackGui::Components</text>
<text text-anchor="middle" x="798" y="-1134.5" font-family="Helvetica,sans-Serif" font-size="10.00">::CDbAircraftCategoryComponent</text>
</a>
</g>
</g>
<!-- Node1&#45;&gt;Node21 -->
<g id="edge20" class="edge">
<title>Node1&#45;&gt;Node21</title>
<path fill="none" stroke="midnightblue" d="M582.29,-824.73C586.81,-885.14 606.93,-1038.94 696,-1118.5 699.76,-1121.86 703.91,-1124.78 708.32,-1127.3"/>
<polygon fill="midnightblue" stroke="midnightblue" points="585.77,-824.33 581.62,-814.58 578.79,-824.79 585.77,-824.33"/>
</g>
<!-- Node22 -->
<g id="node22" class="node">
<title>Node22</title>
<g id="a_node22"><a xlink:href="class_black_gui_1_1_components_1_1_c_db_aircraft_icao_component.html" target="_top" xlink:title="DB aircraft ICAO data.">
<polygon fill="none" stroke="black" points="720.5,-1078.5 720.5,-1108.5 875.5,-1108.5 875.5,-1078.5 720.5,-1078.5"/>
<text text-anchor="start" x="728.5" y="-1096.5" font-family="Helvetica,sans-Serif" font-size="10.00">BlackGui::Components</text>
<text text-anchor="middle" x="798" y="-1085.5" font-family="Helvetica,sans-Serif" font-size="10.00">::CDbAircraftIcaoComponent</text>
</a>
</g>
</g>
<!-- Node1&#45;&gt;Node22 -->
<g id="edge21" class="edge">
<title>Node1&#45;&gt;Node22</title>
<path fill="none" stroke="midnightblue" d="M584.12,-824.51C592.18,-878.08 618.76,-1004.35 696,-1069.5 703.16,-1075.54 711.58,-1080.12 720.46,-1083.58"/>
<polygon fill="midnightblue" stroke="midnightblue" points="587.57,-823.93 582.71,-814.51 580.64,-824.91 587.57,-823.93"/>
</g>
<!-- Node23 -->
<g id="node23" class="node">
<title>Node23</title>
<g id="a_node23"><a xlink:href="class_black_gui_1_1_components_1_1_c_db_airline_icao_component.html" target="_top" xlink:title="Airline ICAO code.">
<polygon fill="none" stroke="black" points="722.5,-1029.5 722.5,-1059.5 873.5,-1059.5 873.5,-1029.5 722.5,-1029.5"/>
<text text-anchor="start" x="730.5" y="-1047.5" font-family="Helvetica,sans-Serif" font-size="10.00">BlackGui::Components</text>
<text text-anchor="middle" x="798" y="-1036.5" font-family="Helvetica,sans-Serif" font-size="10.00">::CDbAirlineIcaoComponent</text>
</a>
</g>
</g>
<!-- Node1&#45;&gt;Node23 -->
<g id="edge22" class="edge">
<title>Node1&#45;&gt;Node23</title>
<path fill="none" stroke="midnightblue" d="M586.68,-824.43C598.55,-870.62 630.49,-969.43 696,-1020.5 703.82,-1026.59 712.94,-1031.18 722.44,-1034.62"/>
<polygon fill="midnightblue" stroke="midnightblue" points="590.06,-823.51 584.27,-814.64 583.26,-825.19 590.06,-823.51"/>
</g>
<!-- Node24 -->
<g id="node24" class="node">
<title>Node24</title>
<g id="a_node24"><a xlink:href="class_black_gui_1_1_components_1_1_c_db_livery_component.html" target="_top" xlink:title="Liveries from DB.">
<polygon fill="none" stroke="black" points="733.5,-980.5 733.5,-1010.5 862.5,-1010.5 862.5,-980.5 733.5,-980.5"/>
<text text-anchor="start" x="741.5" y="-998.5" font-family="Helvetica,sans-Serif" font-size="10.00">BlackGui::Components</text>
<text text-anchor="middle" x="798" y="-987.5" font-family="Helvetica,sans-Serif" font-size="10.00">::CDbLiveryComponent</text>
</a>
</g>
</g>
<!-- Node1&#45;&gt;Node24 -->
<g id="edge23" class="edge">
<title>Node1&#45;&gt;Node24</title>
<path fill="none" stroke="midnightblue" d="M590.6,-824.45C606.52,-862.36 642.08,-934.02 696,-971.5 707.03,-979.16 720.19,-984.4 733.31,-987.97"/>
<polygon fill="midnightblue" stroke="midnightblue" points="593.65,-822.64 586.63,-814.7 587.16,-825.29 593.65,-822.64"/>
</g>
<!-- Node25 -->
<g id="node25" class="node">
<title>Node25</title>
<g id="a_node25"><a xlink:href="class_black_gui_1_1_components_1_1_c_db_mapping_component.html" target="_top" xlink:title="Mapping component.">
<polygon fill="none" stroke="black" points="727.5,-931.5 727.5,-961.5 868.5,-961.5 868.5,-931.5 727.5,-931.5"/>
<text text-anchor="start" x="735.5" y="-949.5" font-family="Helvetica,sans-Serif" font-size="10.00">BlackGui::Components</text>
<text text-anchor="middle" x="798" y="-938.5" font-family="Helvetica,sans-Serif" font-size="10.00">::CDbMappingComponent</text>
</a>
</g>
</g>
<!-- Node1&#45;&gt;Node25 -->
<g id="edge24" class="edge">
<title>Node1&#45;&gt;Node25</title>
<path fill="none" stroke="midnightblue" d="M596.48,-823.1C616.18,-851.2 652.89,-897.46 696,-922.5 705.58,-928.07 716.39,-932.34 727.28,-935.63"/>
<polygon fill="midnightblue" stroke="midnightblue" points="599.23,-820.93 590.69,-814.66 593.46,-824.89 599.23,-820.93"/>
</g>
<!-- Node26 -->
<g id="node26" class="node">
<title>Node26</title>
<g id="a_node26"><a xlink:href="class_black_gui_1_1_components_1_1_c_db_model_component.html" target="_top" xlink:title="Database models.">
<polygon fill="none" stroke="black" points="733.5,-882.5 733.5,-912.5 862.5,-912.5 862.5,-882.5 733.5,-882.5"/>
<text text-anchor="start" x="741.5" y="-900.5" font-family="Helvetica,sans-Serif" font-size="10.00">BlackGui::Components</text>
<text text-anchor="middle" x="798" y="-889.5" font-family="Helvetica,sans-Serif" font-size="10.00">::CDbModelComponent</text>
</a>
</g>
</g>
<!-- Node1&#45;&gt;Node26 -->
<g id="edge25" class="edge">
<title>Node1&#45;&gt;Node26</title>
<path fill="none" stroke="midnightblue" d="M608.24,-820.82C630.65,-837.4 663.85,-859.81 696,-873.5 707.77,-878.51 720.79,-882.59 733.44,-885.87"/>
<polygon fill="midnightblue" stroke="midnightblue" points="610.3,-817.99 600.2,-814.78 606.09,-823.59 610.3,-817.99"/>
</g>
<!-- Node27 -->
<g id="node27" class="node">
<title>Node27</title>
<g id="a_node27"><a xlink:href="class_black_gui_1_1_components_1_1_c_db_model_workbench_component.html" target="_top" xlink:title="Handling of own models on disk (the models installed for the simulator)">
<polygon fill="none" stroke="black" points="706.5,-833.5 706.5,-863.5 889.5,-863.5 889.5,-833.5 706.5,-833.5"/>
<text text-anchor="start" x="714.5" y="-851.5" font-family="Helvetica,sans-Serif" font-size="10.00">BlackGui::Components</text>
<text text-anchor="middle" x="798" y="-840.5" font-family="Helvetica,sans-Serif" font-size="10.00">::CDbModelWorkbenchComponent</text>
</a>
</g>
</g>
<!-- Node1&#45;&gt;Node27 -->
<g id="edge26" class="edge">
<title>Node1&#45;&gt;Node27</title>
<path fill="none" stroke="midnightblue" d="M657.08,-816.76C681.14,-822.22 707.54,-828.21 730.85,-833.49"/>
<polygon fill="midnightblue" stroke="midnightblue" points="657.8,-813.33 647.28,-814.53 656.25,-820.16 657.8,-813.33"/>
</g>
<!-- Node28 -->
<g id="node28" class="node">
<title>Node28</title>
<g id="a_node28"><a xlink:href="class_black_gui_1_1_components_1_1_c_db_own_models_component.html" target="_top" xlink:title="Handling of own models on disk (the models installed for the simulator)">
<polygon fill="none" stroke="black" points="720,-784.5 720,-814.5 876,-814.5 876,-784.5 720,-784.5"/>
<text text-anchor="start" x="728" y="-802.5" font-family="Helvetica,sans-Serif" font-size="10.00">BlackGui::Components</text>
<text text-anchor="middle" x="798" y="-791.5" font-family="Helvetica,sans-Serif" font-size="10.00">::CDbOwnModelsComponent</text>
</a>
</g>
</g>
<!-- Node1&#45;&gt;Node28 -->
<g id="edge27" class="edge">
<title>Node1&#45;&gt;Node28</title>
<path fill="none" stroke="midnightblue" d="M670.37,-799.5C686.84,-799.5 703.9,-799.5 719.97,-799.5"/>
<polygon fill="midnightblue" stroke="midnightblue" points="670.2,-796 660.2,-799.5 670.2,-803 670.2,-796"/>
</g>
<!-- Node29 -->
<g id="node29" class="node">
<title>Node29</title>
<g id="a_node29"><a xlink:href="class_black_gui_1_1_components_1_1_c_distributor_preferences_component.html" target="_top" xlink:title="Set and order distributors (to be used for model set)">
<polygon fill="none" stroke="black" points="700.5,-735.5 700.5,-765.5 895.5,-765.5 895.5,-735.5 700.5,-735.5"/>
<text text-anchor="start" x="708.5" y="-753.5" font-family="Helvetica,sans-Serif" font-size="10.00">BlackGui::Components</text>
<text text-anchor="middle" x="798" y="-742.5" font-family="Helvetica,sans-Serif" font-size="10.00">::CDistributorPreferencesComponent</text>
</a>
</g>
</g>
<!-- Node1&#45;&gt;Node29 -->
<g id="edge28" class="edge">
<title>Node1&#45;&gt;Node29</title>
<path fill="none" stroke="midnightblue" d="M657.08,-782.24C681.14,-776.78 707.54,-770.79 730.85,-765.51"/>
<polygon fill="midnightblue" stroke="midnightblue" points="656.25,-778.84 647.28,-784.47 657.8,-785.67 656.25,-778.84"/>
</g>
<!-- Node30 -->
<g id="node30" class="node">
<title>Node30</title>
<g id="a_node30"><a xlink:href="class_black_gui_1_1_components_1_1_c_download_component.html" target="_top" xlink:title="Download a file.">
<polygon fill="none" stroke="black" points="731,-686.5 731,-716.5 865,-716.5 865,-686.5 731,-686.5"/>
<text text-anchor="start" x="739" y="-704.5" font-family="Helvetica,sans-Serif" font-size="10.00">BlackGui::Components</text>
<text text-anchor="middle" x="798" y="-693.5" font-family="Helvetica,sans-Serif" font-size="10.00">::CDownloadComponent</text>
</a>
</g>
</g>
<!-- Node1&#45;&gt;Node30 -->
<g id="edge29" class="edge">
<title>Node1&#45;&gt;Node30</title>
<path fill="none" stroke="midnightblue" d="M608.24,-778.18C630.65,-761.6 663.85,-739.19 696,-725.5 706.94,-720.84 718.96,-716.99 730.76,-713.84"/>
<polygon fill="midnightblue" stroke="midnightblue" points="606.09,-775.41 600.2,-784.22 610.3,-781.01 606.09,-775.41"/>
</g>
<!-- Node31 -->
<g id="node31" class="node">
<title>Node31</title>
<g id="a_node31"><a xlink:href="class_black_gui_1_1_components_1_1_c_first_model_set_component.html" target="_top" xlink:title="Create a first model set.">
<polygon fill="none" stroke="black" points="722,-637.5 722,-667.5 874,-667.5 874,-637.5 722,-637.5"/>
<text text-anchor="start" x="730" y="-655.5" font-family="Helvetica,sans-Serif" font-size="10.00">BlackGui::Components</text>
<text text-anchor="middle" x="798" y="-644.5" font-family="Helvetica,sans-Serif" font-size="10.00">::CFirstModelSetComponent</text>
</a>
</g>
</g>
<!-- Node1&#45;&gt;Node31 -->
<g id="edge30" class="edge">
<title>Node1&#45;&gt;Node31</title>
<path fill="none" stroke="midnightblue" d="M596.48,-775.9C616.18,-747.8 652.89,-701.54 696,-676.5 704.03,-671.84 712.91,-668.08 721.98,-665.05"/>
<polygon fill="midnightblue" stroke="midnightblue" points="593.46,-774.11 590.69,-784.34 599.23,-778.07 593.46,-774.11"/>
</g>
<!-- Node32 -->
<g id="node32" class="node">
<title>Node32</title>
<g id="a_node32"><a xlink:href="class_black_gui_1_1_components_1_1_c_install_x_swift_bus_component.html" target="_top" xlink:title="Download and install XSwiftBus.">
<polygon fill="none" stroke="black" points="716,-588.5 716,-618.5 880,-618.5 880,-588.5 716,-588.5"/>
<text text-anchor="start" x="724" y="-606.5" font-family="Helvetica,sans-Serif" font-size="10.00">BlackGui::Components</text>
<text text-anchor="middle" x="798" y="-595.5" font-family="Helvetica,sans-Serif" font-size="10.00">::CInstallXSwiftBusComponent</text>
</a>
</g>
</g>
<!-- Node1&#45;&gt;Node32 -->
<g id="edge31" class="edge">
<title>Node1&#45;&gt;Node32</title>
<path fill="none" stroke="midnightblue" d="M590.6,-774.55C606.52,-736.64 642.08,-664.98 696,-627.5 702.07,-623.28 708.78,-619.8 715.78,-616.93"/>
<polygon fill="midnightblue" stroke="midnightblue" points="587.16,-773.71 586.63,-784.3 593.65,-776.36 587.16,-773.71"/>
</g>
<!-- Node33 -->
<g id="node33" class="node">
<title>Node33</title>
<g id="a_node33"><a xlink:href="class_black_gui_1_1_components_1_1_c_interpolation_log_display.html" target="_top" xlink:title="Display live data of interpolation.">
<polygon fill="none" stroke="black" points="725,-539.5 725,-569.5 871,-569.5 871,-539.5 725,-539.5"/>
<text text-anchor="start" x="733" y="-557.5" font-family="Helvetica,sans-Serif" font-size="10.00">BlackGui::Components</text>
<text text-anchor="middle" x="798" y="-546.5" font-family="Helvetica,sans-Serif" font-size="10.00">::CInterpolationLogDisplay</text>
</a>
</g>
</g>
<!-- Node1&#45;&gt;Node33 -->
<g id="edge32" class="edge">
<title>Node1&#45;&gt;Node33</title>
<path fill="none" stroke="midnightblue" d="M586.68,-774.57C598.55,-728.38 630.49,-629.57 696,-578.5 704.46,-571.91 714.44,-567.08 724.78,-563.56"/>
<polygon fill="midnightblue" stroke="midnightblue" points="583.26,-773.81 584.27,-784.36 590.06,-775.49 583.26,-773.81"/>
</g>
<!-- Node34 -->
<g id="node34" class="node">
<title>Node34</title>
<g id="a_node34"><a xlink:href="class_black_gui_1_1_components_1_1_c_interpolation_setup_component.html" target="_top" xlink:title="Setup component.">
<polygon fill="none" stroke="black" points="710,-490.5 710,-520.5 886,-520.5 886,-490.5 710,-490.5"/>
<text text-anchor="start" x="718" y="-508.5" font-family="Helvetica,sans-Serif" font-size="10.00">BlackGui::Components</text>
<text text-anchor="middle" x="798" y="-497.5" font-family="Helvetica,sans-Serif" font-size="10.00">::CInterpolationSetupComponent</text>
</a>
</g>
</g>
<!-- Node1&#45;&gt;Node34 -->
<g id="edge33" class="edge">
<title>Node1&#45;&gt;Node34</title>
<path fill="none" stroke="midnightblue" d="M584.12,-774.49C592.18,-720.92 618.76,-594.65 696,-529.5 700.27,-525.9 704.99,-522.82 709.98,-520.18"/>
<polygon fill="midnightblue" stroke="midnightblue" points="580.64,-774.09 582.71,-784.49 587.57,-775.07 580.64,-774.09"/>
</g>
<!-- Node35 -->
<g id="node35" class="node">
<title>Node35</title>
<g id="a_node35"><a xlink:href="class_black_gui_1_1_components_1_1_c_legal_info_component.html" target="_top" xlink:title="swift legal information">
<polygon fill="none" stroke="black" points="732.5,-441.5 732.5,-471.5 863.5,-471.5 863.5,-441.5 732.5,-441.5"/>
<text text-anchor="start" x="740.5" y="-459.5" font-family="Helvetica,sans-Serif" font-size="10.00">BlackGui::Components</text>
<text text-anchor="middle" x="798" y="-448.5" font-family="Helvetica,sans-Serif" font-size="10.00">::CLegalInfoComponent</text>
</a>
</g>
</g>
<!-- Node1&#45;&gt;Node35 -->
<g id="edge34" class="edge">
<title>Node1&#45;&gt;Node35</title>
<path fill="none" stroke="midnightblue" d="M582.29,-774.27C586.81,-713.86 606.93,-560.06 696,-480.5 706.15,-471.44 719.1,-465.63 732.31,-461.95"/>
<polygon fill="midnightblue" stroke="midnightblue" points="578.79,-774.21 581.62,-784.42 585.77,-774.67 578.79,-774.21"/>
</g>
<!-- Node36 -->
<g id="node36" class="node">
<title>Node36</title>
<g id="a_node36"><a xlink:href="class_black_gui_1_1_components_1_1_c_login_adv_component.html" target="_top" xlink:title="Login component to flight network.">
<polygon fill="none" stroke="black" points="732.5,-392.5 732.5,-422.5 863.5,-422.5 863.5,-392.5 732.5,-392.5"/>
<text text-anchor="start" x="740.5" y="-410.5" font-family="Helvetica,sans-Serif" font-size="10.00">BlackGui::Components</text>
<text text-anchor="middle" x="798" y="-399.5" font-family="Helvetica,sans-Serif" font-size="10.00">::CLoginAdvComponent</text>
</a>
</g>
</g>
<!-- Node1&#45;&gt;Node36 -->
<g id="edge35" class="edge">
<title>Node1&#45;&gt;Node36</title>
<path fill="none" stroke="midnightblue" d="M580.9,-774.12C582.08,-707.41 594.92,-525.78 696,-431.5 706.02,-422.16 718.99,-416.25 732.28,-412.55"/>
<polygon fill="midnightblue" stroke="midnightblue" points="577.4,-774.13 580.8,-784.16 584.4,-774.2 577.4,-774.13"/>
</g>
<!-- Node37 -->
<g id="node37" class="node">
<title>Node37</title>
<g id="a_node37"><a xlink:href="class_black_gui_1_1_components_1_1_c_login_component.html" target="_top" xlink:title="Login component to flight network.">
<polygon fill="none" stroke="black" points="734,-343.5 734,-373.5 862,-373.5 862,-343.5 734,-343.5"/>
<text text-anchor="start" x="742" y="-361.5" font-family="Helvetica,sans-Serif" font-size="10.00">BlackGui::Components</text>
<text text-anchor="middle" x="798" y="-350.5" font-family="Helvetica,sans-Serif" font-size="10.00">::CLoginComponent</text>
</a>
</g>
</g>
<!-- Node1&#45;&gt;Node37 -->
<g id="edge36" class="edge">
<title>Node1&#45;&gt;Node37</title>
<path fill="none" stroke="midnightblue" d="M584.57,-774.19C596.6,-692.57 638.13,-438.33 696,-382.5 706.31,-372.55 719.96,-366.47 733.88,-362.81"/>
<polygon fill="midnightblue" stroke="midnightblue" points="581.08,-773.92 583.1,-784.32 588.01,-774.93 581.08,-773.92"/>
</g>
<!-- Node38 -->
<g id="node38" class="node">
<title>Node38</title>
<g id="a_node38"><a xlink:href="class_black_gui_1_1_components_1_1_c_login_overview_component.html" target="_top" xlink:title="Login component to flight network.">
<polygon fill="none" stroke="black" points="719,-294.5 719,-324.5 877,-324.5 877,-294.5 719,-294.5"/>
<text text-anchor="start" x="727" y="-312.5" font-family="Helvetica,sans-Serif" font-size="10.00">BlackGui::Components</text>
<text text-anchor="middle" x="798" y="-301.5" font-family="Helvetica,sans-Serif" font-size="10.00">::CLoginOverviewComponent</text>
</a>
</g>
</g>
<!-- Node1&#45;&gt;Node38 -->
<g id="edge37" class="edge">
<title>Node1&#45;&gt;Node38</title>
<path fill="none" stroke="midnightblue" d="M583.83,-773.87C594.07,-685.72 632.01,-396.93 696,-333.5 702.53,-327.03 710.46,-322.18 718.99,-318.57"/>
<polygon fill="midnightblue" stroke="midnightblue" points="580.32,-773.72 582.67,-784.05 587.28,-774.51 580.32,-773.72"/>
</g>
<!-- Node39 -->
<g id="node39" class="node">
<title>Node39</title>
<g id="a_node39"><a xlink:href="class_black_gui_1_1_components_1_1_c_mapping_component.html" target="_top" xlink:title="Mappings, models etc.">
<polygon fill="none" stroke="black" points="734,-245.5 734,-275.5 862,-275.5 862,-245.5 734,-245.5"/>
<text text-anchor="start" x="742" y="-263.5" font-family="Helvetica,sans-Serif" font-size="10.00">BlackGui::Components</text>
<text text-anchor="middle" x="798" y="-252.5" font-family="Helvetica,sans-Serif" font-size="10.00">::CMappingComponent</text>
</a>
</g>
</g>
<!-- Node1&#45;&gt;Node39 -->
<g id="edge38" class="edge">
<title>Node1&#45;&gt;Node39</title>
<path fill="none" stroke="midnightblue" d="M583.14,-774.29C591.6,-680.83 625.68,-355.78 696,-284.5 706.13,-274.24 719.79,-268.04 733.78,-264.38"/>
<polygon fill="midnightblue" stroke="midnightblue" points="579.66,-774.01 582.26,-784.28 586.63,-774.62 579.66,-774.01"/>
</g>
<!-- Node40 -->
<g id="node40" class="node">
<title>Node40</title>
<g id="a_node40"><a xlink:href="class_black_gui_1_1_components_1_1_c_settings_simulator_basics_component.html" target="_top" xlink:title="Driver independent parts of simulator settings, ie those one are also used independent of the driver.">
<polygon fill="none" stroke="black" points="696,-196.5 696,-226.5 900,-226.5 900,-196.5 696,-196.5"/>
<text text-anchor="start" x="704" y="-214.5" font-family="Helvetica,sans-Serif" font-size="10.00">BlackGui::Components</text>
<text text-anchor="middle" x="798" y="-203.5" font-family="Helvetica,sans-Serif" font-size="10.00">::CSettingsSimulatorBasicsComponent</text>
</a>
</g>
</g>
<!-- Node1&#45;&gt;Node40 -->
<g id="edge39" class="edge">
<title>Node1&#45;&gt;Node40</title>
<path fill="none" stroke="midnightblue" d="M582.62,-774.22C589.49,-675.09 619.44,-314.56 696,-235.5 699.26,-232.13 702.9,-229.2 706.81,-226.66"/>
<polygon fill="midnightblue" stroke="midnightblue" points="579.11,-774.27 581.93,-784.48 586.09,-774.74 579.11,-774.27"/>
</g>
<!-- Node41 -->
<g id="node41" class="node">
<title>Node41</title>
<g id="a_node41"><a xlink:href="class_black_gui_1_1_editors_1_1_c_form.html" target="_top" xlink:title="Form base class.">
<polygon fill="none" stroke="red" points="745,-147.5 745,-177.5 851,-177.5 851,-147.5 745,-147.5"/>
<text text-anchor="start" x="753" y="-165.5" font-family="Helvetica,sans-Serif" font-size="10.00">BlackGui::Editors::</text>
<text text-anchor="middle" x="798" y="-154.5" font-family="Helvetica,sans-Serif" font-size="10.00">CForm</text>
</a>
</g>
</g>
<!-- Node1&#45;&gt;Node41 -->
<g id="edge40" class="edge">
<title>Node1&#45;&gt;Node41</title>
<path fill="none" stroke="midnightblue" d="M582.18,-774.08C587.57,-669.42 613.19,-273.37 696,-186.5 708.62,-173.26 727.11,-166.74 744.83,-163.7"/>
<polygon fill="midnightblue" stroke="midnightblue" points="578.67,-774.16 581.67,-784.33 585.66,-774.51 578.67,-774.16"/>
</g>
<!-- Node64 -->
<g id="node49" class="node">
<title>Node64</title>
<g id="a_node49"><a xlink:href="class_black_sim_plugin_1_1_fsx_common_1_1_c_sim_connect_settings_component.html" target="_top" xlink:title="A component that gathers all SimConnect related settings.">
<polygon fill="none" stroke="black" points="706,-98.5 706,-128.5 890,-128.5 890,-98.5 706,-98.5"/>
<text text-anchor="start" x="714" y="-116.5" font-family="Helvetica,sans-Serif" font-size="10.00">BlackSimPlugin::FsxCommon</text>
<text text-anchor="middle" x="798" y="-105.5" font-family="Helvetica,sans-Serif" font-size="10.00">::CSimConnectSettingsComponent</text>
</a>
</g>
</g>
<!-- Node1&#45;&gt;Node64 -->
<g id="edge48" class="edge">
<title>Node1&#45;&gt;Node64</title>
<path fill="none" stroke="midnightblue" d="M581.79,-774.19C585.75,-664.6 606.86,-232.28 696,-137.5 699.21,-134.09 702.81,-131.12 706.69,-128.54"/>
<polygon fill="midnightblue" stroke="midnightblue" points="578.29,-774.2 581.44,-784.31 585.29,-774.44 578.29,-774.2"/>
</g>
<!-- Node2 -->
<g id="node2" class="node">
<title>Node2</title>
<g id="a_node2"><a xlink:href="class_black_gui_1_1_c_overlay_messages_base.html" target="_top" xlink:title=" ">
<polygon fill="none" stroke="black" points="304,-784.5 304,-814.5 464,-814.5 464,-784.5 304,-784.5"/>
<text text-anchor="start" x="312" y="-802.5" font-family="Helvetica,sans-Serif" font-size="10.00">BlackGui::COverlayMessages</text>
<text text-anchor="middle" x="384" y="-791.5" font-family="Helvetica,sans-Serif" font-size="10.00">Base&lt; QFrame &gt;</text>
</a>
</g>
</g>
<!-- Node2&#45;&gt;Node1 -->
<g id="edge1" class="edge">
<title>Node2&#45;&gt;Node1</title>
<path fill="none" stroke="midnightblue" d="M474.44,-799.5C482.88,-799.5 491.41,-799.5 499.75,-799.5"/>
<polygon fill="midnightblue" stroke="midnightblue" points="474.19,-796 464.19,-799.5 474.19,-803 474.19,-796"/>
</g>
<!-- Node3 -->
<g id="node3" class="node">
<title>Node3</title>
<g id="a_node3"><a target="_parent" xlink:href="http://doc.qt.io/qt-5/qframe.html" xlink:title=" ">
<polygon fill="none" stroke="black" points="213,-790 213,-809 268,-809 268,-790 213,-790"/>
<text text-anchor="middle" x="240.5" y="-797" font-family="Helvetica,sans-Serif" font-size="10.00">QFrame</text>
</a>
</g>
</g>
<!-- Node3&#45;&gt;Node2 -->
<g id="edge2" class="edge">
<title>Node3&#45;&gt;Node2</title>
<path fill="none" stroke="midnightblue" d="M278.17,-799.5C286.19,-799.5 294.98,-799.5 303.95,-799.5"/>
<polygon fill="midnightblue" stroke="midnightblue" points="278.12,-796 268.12,-799.5 278.12,-803 278.12,-796"/>
</g>
<!-- Node4 -->
<g id="node4" class="node">
<title>Node4</title>
<g id="a_node4"><a target="_parent" xlink:href="http://doc.qt.io/qt-5/qwidget.html" xlink:title=" ">
<polygon fill="none" stroke="black" points="118,-790 118,-809 177,-809 177,-790 118,-790"/>
<text text-anchor="middle" x="147.5" y="-797" font-family="Helvetica,sans-Serif" font-size="10.00">QWidget</text>
</a>
</g>
</g>
<!-- Node4&#45;&gt;Node3 -->
<g id="edge3" class="edge">
<title>Node4&#45;&gt;Node3</title>
<path fill="none" stroke="midnightblue" d="M187.46,-799.5C195.99,-799.5 204.83,-799.5 212.75,-799.5"/>
<polygon fill="midnightblue" stroke="midnightblue" points="187.29,-796 177.29,-799.5 187.29,-803 187.29,-796"/>
</g>
<!-- Node5 -->
<g id="node5" class="node">
<title>Node5</title>
<g id="a_node5"><a target="_parent" xlink:href="http://doc.qt.io/qt-5/qobject.html" xlink:title=" ">
<polygon fill="none" stroke="black" points="13,-809 13,-828 69,-828 69,-809 13,-809"/>
<text text-anchor="middle" x="41" y="-816" font-family="Helvetica,sans-Serif" font-size="10.00">QObject</text>
</a>
</g>
</g>
<!-- Node5&#45;&gt;Node4 -->
<g id="edge4" class="edge">
<title>Node5&#45;&gt;Node4</title>
<path fill="none" stroke="midnightblue" d="M79.09,-811.76C91.88,-809.43 106,-806.86 117.99,-804.68"/>
<polygon fill="midnightblue" stroke="midnightblue" points="78.4,-808.33 69.18,-813.56 79.65,-815.21 78.4,-808.33"/>
</g>
<!-- Node6 -->
<g id="node6" class="node">
<title>Node6</title>
<g id="a_node6"><a target="_parent" xlink:href="http://doc.qt.io/qt-5/qpaintdevice.html" xlink:title=" ">
<polygon fill="none" stroke="black" points="0,-771 0,-790 82,-790 82,-771 0,-771"/>
<text text-anchor="middle" x="41" y="-778" font-family="Helvetica,sans-Serif" font-size="10.00">QPaintDevice</text>
</a>
</g>
</g>
<!-- Node6&#45;&gt;Node4 -->
<g id="edge5" class="edge">
<title>Node6&#45;&gt;Node4</title>
<path fill="none" stroke="midnightblue" d="M91.97,-789.59C100.8,-791.19 109.71,-792.81 117.69,-794.26"/>
<polygon fill="midnightblue" stroke="midnightblue" points="92.57,-786.14 82.1,-787.79 91.32,-793.02 92.57,-786.14"/>
</g>
<!-- Node8 -->
<g id="node8" class="node">
<title>Node8</title>
<g id="a_node8"><a xlink:href="class_black_gui_1_1_components_1_1_c_atc_station_component.html" target="_top" xlink:title="ATC stations component.">
<polygon fill="none" stroke="black" points="966,-1624.5 966,-1654.5 1102,-1654.5 1102,-1624.5 966,-1624.5"/>
<text text-anchor="start" x="974" y="-1642.5" font-family="Helvetica,sans-Serif" font-size="10.00">BlackGui::Components</text>
<text text-anchor="middle" x="1034" y="-1631.5" font-family="Helvetica,sans-Serif" font-size="10.00">::CAtcStationComponent</text>
</a>
</g>
</g>
<!-- Node7&#45;&gt;Node8 -->
<g id="edge7" class="edge">
<title>Node7&#45;&gt;Node8</title>
<path fill="none" stroke="midnightblue" d="M847.55,-1585.21C873.57,-1594.9 906.3,-1606.54 936,-1615.5 946.38,-1618.63 957.47,-1621.66 968.31,-1624.46"/>
<polygon fill="midnightblue" stroke="midnightblue" points="848.51,-1581.84 837.92,-1581.61 846.06,-1588.39 848.51,-1581.84"/>
</g>
<!-- Node9 -->
<g id="node9" class="node">
<title>Node9</title>
<g id="a_node9"><a xlink:href="class_black_gui_1_1_components_1_1_c_cockpit_component.html" target="_top" xlink:title="Cockpit component: COM unit, show / hide bar, voice rooms.">
<polygon fill="none" stroke="black" points="970,-1575.5 970,-1605.5 1098,-1605.5 1098,-1575.5 970,-1575.5"/>
<text text-anchor="start" x="978" y="-1593.5" font-family="Helvetica,sans-Serif" font-size="10.00">BlackGui::Components</text>
<text text-anchor="middle" x="1034" y="-1582.5" font-family="Helvetica,sans-Serif" font-size="10.00">::CCockpitComponent</text>
</a>
</g>
</g>
<!-- Node7&#45;&gt;Node9 -->
<g id="edge8" class="edge">
<title>Node7&#45;&gt;Node9</title>
<path fill="none" stroke="midnightblue" d="M906.16,-1577.49C927.94,-1579.72 950.17,-1582 969.81,-1584.02"/>
<polygon fill="midnightblue" stroke="midnightblue" points="906.51,-1574.01 896.2,-1576.47 905.79,-1580.97 906.51,-1574.01"/>
</g>
<!-- Node10 -->
<g id="node10" class="node">
<title>Node10</title>
<g id="a_node10"><a xlink:href="class_black_gui_1_1_components_1_1_c_weather_component.html" target="_top" xlink:title="Weather component.">
<polygon fill="none" stroke="black" points="970,-1526.5 970,-1556.5 1098,-1556.5 1098,-1526.5 970,-1526.5"/>
<text text-anchor="start" x="978" y="-1544.5" font-family="Helvetica,sans-Serif" font-size="10.00">BlackGui::Components</text>
<text text-anchor="middle" x="1034" y="-1533.5" font-family="Helvetica,sans-Serif" font-size="10.00">::CWeatherComponent</text>
</a>
</g>
</g>
<!-- Node7&#45;&gt;Node10 -->
<g id="edge9" class="edge">
<title>Node7&#45;&gt;Node10</title>
<path fill="none" stroke="midnightblue" d="M906.16,-1555.05C927.94,-1552.72 950.17,-1550.35 969.81,-1548.25"/>
<polygon fill="midnightblue" stroke="midnightblue" points="905.78,-1551.57 896.2,-1556.11 906.52,-1558.53 905.78,-1551.57"/>
</g>
<!-- Node12 -->
<g id="node12" class="node">
<title>Node12</title>
<g id="a_node12"><a xlink:href="class_black_sim_plugin_1_1_emulated_1_1_c_simulator_emulated_config_widget.html" target="_top" xlink:title="Configuration window for CSimulatorEmulatedConfig.">
<polygon fill="none" stroke="black" points="940,-1477.5 940,-1507.5 1128,-1507.5 1128,-1477.5 940,-1477.5"/>
<text text-anchor="start" x="948" y="-1495.5" font-family="Helvetica,sans-Serif" font-size="10.00">BlackSimPlugin::Emulated</text>
<text text-anchor="middle" x="1034" y="-1484.5" font-family="Helvetica,sans-Serif" font-size="10.00">::CSimulatorEmulatedConfigWidget</text>
</a>
</g>
</g>
<!-- Node11&#45;&gt;Node12 -->
<g id="edge11" class="edge">
<title>Node11&#45;&gt;Node12</title>
<path fill="none" stroke="midnightblue" d="M854.43,-1455.11C886.31,-1461.78 926.72,-1470.24 961.03,-1477.43"/>
<polygon fill="midnightblue" stroke="midnightblue" points="854.9,-1451.63 844.4,-1453.01 853.47,-1458.48 854.9,-1451.63"/>
</g>
<!-- Node13 -->
<g id="node13" class="node">
<title>Node13</title>
<g id="a_node13"><a xlink:href="class_black_sim_plugin_1_1_flightgear_1_1_c_simulator_flightgear_config_window.html" target="_top" xlink:title="A window that shows all the Flightgear plugin options.">
<polygon fill="none" stroke="black" points="936,-1428.5 936,-1458.5 1132,-1458.5 1132,-1428.5 936,-1428.5"/>
<text text-anchor="start" x="944" y="-1446.5" font-family="Helvetica,sans-Serif" font-size="10.00">BlackSimPlugin::Flightgear</text>
<text text-anchor="middle" x="1034" y="-1435.5" font-family="Helvetica,sans-Serif" font-size="10.00">::CSimulatorFlightgearConfigWindow</text>
</a>
</g>
</g>
<!-- Node11&#45;&gt;Node13 -->
<g id="edge12" class="edge">
<title>Node11&#45;&gt;Node13</title>
<path fill="none" stroke="midnightblue" d="M895,-1443.5C908.44,-1443.5 922.27,-1443.5 935.74,-1443.5"/>
<polygon fill="midnightblue" stroke="midnightblue" points="894.8,-1440 884.8,-1443.5 894.8,-1447 894.8,-1440"/>
</g>
<!-- Node14 -->
<g id="node14" class="node">
<title>Node14</title>
<g id="a_node14"><a xlink:href="class_black_sim_plugin_1_1_fsx_common_1_1_c_simulator_fsx_config_window.html" target="_top" xlink:title="A window that lets user set up the FSX plugin.">
<polygon fill="none" stroke="black" points="952,-1379.5 952,-1409.5 1116,-1409.5 1116,-1379.5 952,-1379.5"/>
<text text-anchor="start" x="960" y="-1397.5" font-family="Helvetica,sans-Serif" font-size="10.00">BlackSimPlugin::FsxCommon</text>
<text text-anchor="middle" x="1034" y="-1386.5" font-family="Helvetica,sans-Serif" font-size="10.00">::CSimulatorFsxConfigWindow</text>
</a>
</g>
</g>
<!-- Node11&#45;&gt;Node14 -->
<g id="edge13" class="edge">
<title>Node11&#45;&gt;Node14</title>
<path fill="none" stroke="midnightblue" d="M861.56,-1432.09C874.3,-1429.67 887.59,-1427.07 900,-1424.5 922.37,-1419.87 946.77,-1414.47 968.5,-1409.54"/>
<polygon fill="midnightblue" stroke="midnightblue" points="860.67,-1428.7 851.49,-1434 861.97,-1435.58 860.67,-1428.7"/>
</g>
<!-- Node15 -->
<g id="node15" class="node">
<title>Node15</title>
<g id="a_node15"><a xlink:href="class_black_sim_plugin_1_1_x_plane_1_1_c_simulator_x_plane_config_window.html" target="_top" xlink:title="A window that shows all the X&#45;Plane plugin options.">
<polygon fill="none" stroke="black" points="944,-1330.5 944,-1360.5 1124,-1360.5 1124,-1330.5 944,-1330.5"/>
<text text-anchor="start" x="952" y="-1348.5" font-family="Helvetica,sans-Serif" font-size="10.00">BlackSimPlugin::XPlane</text>
<text text-anchor="middle" x="1034" y="-1337.5" font-family="Helvetica,sans-Serif" font-size="10.00">::CSimulatorXPlaneConfigWindow</text>
</a>
</g>
</g>
<!-- Node11&#45;&gt;Node15 -->
<g id="edge14" class="edge">
<title>Node11&#45;&gt;Node15</title>
<path fill="none" stroke="midnightblue" d="M890.61,-1429.88C893.86,-1428.27 897.01,-1426.48 900,-1424.5 924.06,-1408.59 912.48,-1387.2 936,-1370.5 941.39,-1366.67 947.31,-1363.43 953.5,-1360.69"/>
<polygon fill="midnightblue" stroke="midnightblue" points="888.96,-1426.78 881.17,-1433.96 891.74,-1433.2 888.96,-1426.78"/>
</g>
<!-- Node42 -->
<g id="node42" class="node">
<title>Node42</title>
<g id="a_node42"><a xlink:href="class_black_gui_1_1_editors_1_1_c_aircraft_icao_form.html" target="_top" xlink:title="Aircraft ICAO form.">
<polygon fill="none" stroke="black" points="981,-294.5 981,-324.5 1087,-324.5 1087,-294.5 981,-294.5"/>
<text text-anchor="start" x="989" y="-312.5" font-family="Helvetica,sans-Serif" font-size="10.00">BlackGui::Editors::</text>
<text text-anchor="middle" x="1034" y="-301.5" font-family="Helvetica,sans-Serif" font-size="10.00">CAircraftIcaoForm</text>
</a>
</g>
</g>
<!-- Node41&#45;&gt;Node42 -->
<g id="edge41" class="edge">
<title>Node41&#45;&gt;Node42</title>
<path fill="none" stroke="midnightblue" d="M860.84,-167.25C875.02,-170.87 889.1,-176.83 900,-186.5 934.7,-217.31 901.59,-253.37 936,-284.5 948.31,-295.64 964.94,-301.95 980.95,-305.48"/>
<polygon fill="midnightblue" stroke="midnightblue" points="861.57,-163.82 851.05,-165.09 860.07,-170.66 861.57,-163.82"/>
</g>
<!-- Node43 -->
<g id="node43" class="node">
<title>Node43</title>
<g id="a_node43"><a xlink:href="class_black_gui_1_1_editors_1_1_c_aircraft_model_form.html" target="_top" xlink:title="Combined form of Livery, ICAOs, distributor.">
<polygon fill="none" stroke="black" points="977.5,-245.5 977.5,-275.5 1090.5,-275.5 1090.5,-245.5 977.5,-245.5"/>
<text text-anchor="start" x="985.5" y="-263.5" font-family="Helvetica,sans-Serif" font-size="10.00">BlackGui::Editors::</text>
<text text-anchor="middle" x="1034" y="-252.5" font-family="Helvetica,sans-Serif" font-size="10.00">CAircraftModelForm</text>
</a>
</g>
</g>
<!-- Node41&#45;&gt;Node43 -->
<g id="edge42" class="edge">
<title>Node41&#45;&gt;Node43</title>
<path fill="none" stroke="midnightblue" d="M860.98,-170.01C874.6,-173.57 888.39,-178.81 900,-186.5 922.53,-201.43 913.62,-220.36 936,-235.5 948.24,-243.78 963.05,-249.32 977.37,-253.02"/>
<polygon fill="midnightblue" stroke="midnightblue" points="861.68,-166.58 851.14,-167.71 860.08,-173.4 861.68,-166.58"/>
</g>
<!-- Node44 -->
<g id="node44" class="node">
<title>Node44</title>
<g id="a_node44"><a xlink:href="class_black_gui_1_1_editors_1_1_c_aircraft_parts_form.html" target="_top" xlink:title="Edit and set aircraft parts.">
<polygon fill="none" stroke="black" points="980.5,-196.5 980.5,-226.5 1087.5,-226.5 1087.5,-196.5 980.5,-196.5"/>
<text text-anchor="start" x="988.5" y="-214.5" font-family="Helvetica,sans-Serif" font-size="10.00">BlackGui::Editors::</text>
<text text-anchor="middle" x="1034" y="-203.5" font-family="Helvetica,sans-Serif" font-size="10.00">CAircraftPartsForm</text>
</a>
</g>
</g>
<!-- Node41&#45;&gt;Node44 -->
<g id="edge43" class="edge">
<title>Node41&#45;&gt;Node44</title>
<path fill="none" stroke="midnightblue" d="M861.4,-175.57C898.45,-183.32 944.9,-193.05 980.13,-200.43"/>
<polygon fill="midnightblue" stroke="midnightblue" points="861.73,-172.06 851.22,-173.44 860.29,-178.91 861.73,-172.06"/>
</g>
<!-- Node45 -->
<g id="node45" class="node">
<title>Node45</title>
<g id="a_node45"><a xlink:href="class_black_gui_1_1_editors_1_1_c_airline_icao_form.html" target="_top" xlink:title="Airline ICAO code form.">
<polygon fill="none" stroke="black" points="981,-147.5 981,-177.5 1087,-177.5 1087,-147.5 981,-147.5"/>
<text text-anchor="start" x="989" y="-165.5" font-family="Helvetica,sans-Serif" font-size="10.00">BlackGui::Editors::</text>
<text text-anchor="middle" x="1034" y="-154.5" font-family="Helvetica,sans-Serif" font-size="10.00">CAirlineIcaoForm</text>
</a>
</g>
</g>
<!-- Node41&#45;&gt;Node45 -->
<g id="edge44" class="edge">
<title>Node41&#45;&gt;Node45</title>
<path fill="none" stroke="midnightblue" d="M861.48,-162.5C898.79,-162.5 945.64,-162.5 980.94,-162.5"/>
<polygon fill="midnightblue" stroke="midnightblue" points="861.22,-159 851.22,-162.5 861.22,-166 861.22,-159"/>
</g>
<!-- Node46 -->
<g id="node46" class="node">
<title>Node46</title>
<g id="a_node46"><a xlink:href="class_black_gui_1_1_editors_1_1_c_cockpit_com_form.html" target="_top" xlink:title="COM elements.">
<polygon fill="none" stroke="black" points="980.5,-98.5 980.5,-128.5 1087.5,-128.5 1087.5,-98.5 980.5,-98.5"/>
<text text-anchor="start" x="988.5" y="-116.5" font-family="Helvetica,sans-Serif" font-size="10.00">BlackGui::Editors::</text>
<text text-anchor="middle" x="1034" y="-105.5" font-family="Helvetica,sans-Serif" font-size="10.00">CCockpitComForm</text>
</a>
</g>
</g>
<!-- Node41&#45;&gt;Node46 -->
<g id="edge45" class="edge">
<title>Node41&#45;&gt;Node46</title>
<path fill="none" stroke="midnightblue" d="M861.4,-149.43C898.45,-141.68 944.9,-131.95 980.13,-124.57"/>
<polygon fill="midnightblue" stroke="midnightblue" points="860.29,-146.09 851.22,-151.56 861.73,-152.94 860.29,-146.09"/>
</g>
<!-- Node47 -->
<g id="node47" class="node">
<title>Node47</title>
<g id="a_node47"><a xlink:href="class_black_gui_1_1_editors_1_1_c_coordinate_form.html" target="_top" xlink:title="Select / enter a geo position.">
<polygon fill="none" stroke="black" points="981,-49.5 981,-79.5 1087,-79.5 1087,-49.5 981,-49.5"/>
<text text-anchor="start" x="989" y="-67.5" font-family="Helvetica,sans-Serif" font-size="10.00">BlackGui::Editors::</text>
<text text-anchor="middle" x="1034" y="-56.5" font-family="Helvetica,sans-Serif" font-size="10.00">CCoordinateForm</text>
</a>
</g>
</g>
<!-- Node41&#45;&gt;Node47 -->
<g id="edge46" class="edge">
<title>Node41&#45;&gt;Node47</title>
<path fill="none" stroke="midnightblue" d="M861,-154.31C874.61,-150.62 888.4,-145.26 900,-137.5 922.46,-122.47 913.54,-103.53 936,-88.5 949.26,-79.62 965.52,-74.03 980.91,-70.5"/>
<polygon fill="midnightblue" stroke="midnightblue" points="860.04,-150.94 851.16,-156.71 861.7,-157.74 860.04,-150.94"/>
</g>
<!-- Node48 -->
<g id="node48" class="node">
<title>Node48</title>
<g id="a_node48"><a xlink:href="class_black_gui_1_1_editors_1_1_c_distributor_form.html" target="_top" xlink:title="Distributor form.">
<polygon fill="none" stroke="black" points="981,-0.5 981,-30.5 1087,-30.5 1087,-0.5 981,-0.5"/>
<text text-anchor="start" x="989" y="-18.5" font-family="Helvetica,sans-Serif" font-size="10.00">BlackGui::Editors::</text>
<text text-anchor="middle" x="1034" y="-7.5" font-family="Helvetica,sans-Serif" font-size="10.00">CDistributorForm</text>
</a>
</g>
</g>
<!-- Node41&#45;&gt;Node48 -->
<g id="edge47" class="edge">
<title>Node41&#45;&gt;Node48</title>
<path fill="none" stroke="midnightblue" d="M860.87,-157.09C875.05,-153.33 889.12,-147.25 900,-137.5 934.56,-106.53 901.44,-70.47 936,-39.5 948.34,-28.44 964.97,-22.3 980.97,-18.93"/>
<polygon fill="midnightblue" stroke="midnightblue" points="860.04,-153.69 851.08,-159.34 861.61,-160.51 860.04,-153.69"/>
</g>
</g>
</svg>
