<?xml version="1.0" encoding="UTF-8" standalone="no"?>
<!DOCTYPE svg PUBLIC "-//W3C//DTD SVG 1.1//EN"
 "http://www.w3.org/Graphics/SVG/1.1/DTD/svg11.dtd">
<!-- Generated by graphviz version 2.43.0 (0)
 -->
<!-- Title: BlackSimPlugin::Flightgear::CSimulatorFlightgearFactory Pages: 1 -->
<svg width="240pt" height="95pt"
 viewBox="0.00 0.00 240.00 95.00" xmlns="http://www.w3.org/2000/svg" xmlns:xlink="http://www.w3.org/1999/xlink">
<g id="graph0" class="graph" transform="scale(1 1) rotate(0) translate(4 91)">
<title>BlackSimPlugin::Flightgear::CSimulatorFlightgearFactory</title>
<!-- Node1 -->
<g id="node1" class="node">
<title>Node1</title>
<g id="a_node1"><a xlink:title="Factory for creating CSimulatorFlightgear instance.">
<polygon fill="#bfbfbf" stroke="black" points="9.5,-0.5 9.5,-30.5 170.5,-30.5 170.5,-0.5 9.5,-0.5"/>
<text text-anchor="start" x="17.5" y="-18.5" font-family="Helvetica,sans-Serif" font-size="10.00">BlackSimPlugin::Flightgear</text>
<text text-anchor="middle" x="90" y="-7.5" font-family="Helvetica,sans-Serif" font-size="10.00">::CSimulatorFlightgearFactory</text>
</a>
</g>
</g>
<!-- Node2 -->
<g id="node2" class="node">
<title>Node2</title>
<g id="a_node2"><a target="_parent" xlink:href="http://doc.qt.io/qt-5/qobject.html" xlink:title=" ">
<polygon fill="none" stroke="black" points="0,-67.5 0,-86.5 56,-86.5 56,-67.5 0,-67.5"/>
<text text-anchor="middle" x="28" y="-74.5" font-family="Helvetica,sans-Serif" font-size="10.00">QObject</text>
</a>
</g>
</g>
<!-- Node2&#45;&gt;Node1 -->
<g id="edge1" class="edge">
<title>Node2&#45;&gt;Node1</title>
<path fill="none" stroke="midnightblue" d="M44.29,-60.37C53.93,-51.11 66.05,-39.48 75.39,-30.52"/>
<polygon fill="midnightblue" stroke="midnightblue" points="41.67,-58.03 36.88,-67.48 46.52,-63.08 41.67,-58.03"/>
</g>
<!-- Node3 -->
<g id="node3" class="node">
<title>Node3</title>
<g id="a_node3"><a xlink:href="class_black_core_1_1_i_simulator_factory.html" target="_top" xlink:title="Factory pattern class to create instances of ISimulator.">
<polygon fill="none" stroke="black" points="74,-67.5 74,-86.5 232,-86.5 232,-67.5 74,-67.5"/>
<text text-anchor="middle" x="153" y="-74.5" font-family="Helvetica,sans-Serif" font-size="10.00">BlackCore::ISimulatorFactory</text>
</a>
</g>
</g>
<!-- Node3&#45;&gt;Node1 -->
<g id="edge2" class="edge">
<title>Node3&#45;&gt;Node1</title>
<path fill="none" stroke="midnightblue" d="M136.45,-60.37C126.65,-51.11 114.33,-39.48 104.85,-30.52"/>
<polygon fill="midnightblue" stroke="midnightblue" points="134.3,-63.15 143.97,-67.48 139.11,-58.06 134.3,-63.15"/>
</g>
</g>
</svg>
