<?xml version="1.0" encoding="UTF-8" standalone="no"?>
<!DOCTYPE svg PUBLIC "-//W3C//DTD SVG 1.1//EN"
 "http://www.w3.org/Graphics/SVG/1.1/DTD/svg11.dtd">
<!-- Generated by graphviz version 2.43.0 (0)
 -->
<!-- Title: BlackGui::Models::CAirspaceDistanceFormatter Pages: 1 -->
<svg width="745pt" height="72pt"
 viewBox="0.00 0.00 745.00 72.00" xmlns="http://www.w3.org/2000/svg" xmlns:xlink="http://www.w3.org/1999/xlink">
<g id="graph0" class="graph" transform="scale(1 1) rotate(0) translate(4 68)">
<title>BlackGui::Models::CAirspaceDistanceFormatter</title>
<!-- Node1 -->
<g id="node1" class="node">
<title>Node1</title>
<g id="a_node1"><a xlink:title="Airspace distance displayed in NM.">
<polygon fill="#bfbfbf" stroke="black" points="581,-17 581,-47 737,-47 737,-17 581,-17"/>
<text text-anchor="start" x="589" y="-35" font-family="Helvetica,sans-Serif" font-size="10.00">BlackGui::Models::CAirspace</text>
<text text-anchor="middle" x="659" y="-24" font-family="Helvetica,sans-Serif" font-size="10.00">DistanceFormatter</text>
</a>
</g>
</g>
<!-- Node2 -->
<g id="node2" class="node">
<title>Node2</title>
<g id="a_node2"><a xlink:href="class_black_gui_1_1_models_1_1_c_physiqal_quantiy_formatter.html" target="_top" xlink:title=" ">
<polygon fill="none" stroke="black" points="363,-0.5 363,-63.5 545,-63.5 545,-0.5 363,-0.5"/>
<text text-anchor="start" x="371" y="-51.5" font-family="Helvetica,sans-Serif" font-size="10.00">BlackGui::Models::CPhysiqal</text>
<text text-anchor="start" x="371" y="-40.5" font-family="Helvetica,sans-Serif" font-size="10.00">QuantiyFormatter&lt; BlackMisc</text>
<text text-anchor="start" x="371" y="-29.5" font-family="Helvetica,sans-Serif" font-size="10.00">::PhysicalQuantities::CLengthUnit,</text>
<text text-anchor="start" x="371" y="-18.5" font-family="Helvetica,sans-Serif" font-size="10.00"> BlackMisc::PhysicalQuantities</text>
<text text-anchor="middle" x="454" y="-7.5" font-family="Helvetica,sans-Serif" font-size="10.00">::CLength &gt;</text>
</a>
</g>
</g>
<!-- Node2&#45;&gt;Node1 -->
<g id="edge1" class="edge">
<title>Node2&#45;&gt;Node1</title>
<path fill="none" stroke="midnightblue" d="M555.26,-32C563.83,-32 572.42,-32 580.77,-32"/>
<polygon fill="midnightblue" stroke="midnightblue" points="555.22,-28.5 545.22,-32 555.22,-35.5 555.22,-28.5"/>
</g>
<!-- Node3 -->
<g id="node3" class="node">
<title>Node3</title>
<g id="a_node3"><a xlink:href="class_black_gui_1_1_models_1_1_c_value_object_formatter.html" target="_top" xlink:title="Default formatter when column contains CValueObject.">
<polygon fill="none" stroke="black" points="186,-17 186,-47 327,-47 327,-17 186,-17"/>
<text text-anchor="start" x="194" y="-35" font-family="Helvetica,sans-Serif" font-size="10.00">BlackGui::Models::CValue</text>
<text text-anchor="middle" x="256.5" y="-24" font-family="Helvetica,sans-Serif" font-size="10.00">ObjectFormatter</text>
</a>
</g>
</g>
<!-- Node3&#45;&gt;Node2 -->
<g id="edge2" class="edge">
<title>Node3&#45;&gt;Node2</title>
<path fill="none" stroke="midnightblue" d="M337.36,-32C345.74,-32 354.29,-32 362.78,-32"/>
<polygon fill="midnightblue" stroke="midnightblue" points="337.25,-28.5 327.25,-32 337.25,-35.5 337.25,-28.5"/>
</g>
<!-- Node4 -->
<g id="node4" class="node">
<title>Node4</title>
<g id="a_node4"><a xlink:href="class_black_gui_1_1_models_1_1_c_default_formatter.html" target="_top" xlink:title="Column formatter default implementation, also serving as interface.">
<polygon fill="none" stroke="black" points="0,-17 0,-47 150,-47 150,-17 0,-17"/>
<text text-anchor="start" x="8" y="-35" font-family="Helvetica,sans-Serif" font-size="10.00">BlackGui::Models::CDefault</text>
<text text-anchor="middle" x="75" y="-24" font-family="Helvetica,sans-Serif" font-size="10.00">Formatter</text>
</a>
</g>
</g>
<!-- Node4&#45;&gt;Node3 -->
<g id="edge3" class="edge">
<title>Node4&#45;&gt;Node3</title>
<path fill="none" stroke="midnightblue" d="M160.14,-32C168.78,-32 177.49,-32 185.95,-32"/>
<polygon fill="midnightblue" stroke="midnightblue" points="160.05,-28.5 150.05,-32 160.05,-35.5 160.05,-28.5"/>
</g>
</g>
</svg>
