<?xml version="1.0" encoding="UTF-8" standalone="no"?>
<!DOCTYPE svg PUBLIC "-//W3C//DTD SVG 1.1//EN"
 "http://www.w3.org/Graphics/SVG/1.1/DTD/svg11.dtd">
<!-- Generated by graphviz version 2.43.0 (0)
 -->
<!-- Title: BlackGui::Components::CCopyModelsFromOtherSwiftVersionsComponent Pages: 1 -->
<svg width="176pt" height="352pt"
 viewBox="0.00 0.00 175.50 352.00" xmlns="http://www.w3.org/2000/svg" xmlns:xlink="http://www.w3.org/1999/xlink">
<g id="graph0" class="graph" transform="scale(1 1) rotate(0) translate(4 348)">
<title>BlackGui::Components::CCopyModelsFromOtherSwiftVersionsComponent</title>
<!-- Node1 -->
<g id="node1" class="node">
<title>Node1</title>
<g id="a_node1"><a xlink:title="Copy models from another swift version.">
<polygon fill="#bfbfbf" stroke="black" points="0,-0.5 0,-41.5 165,-41.5 165,-0.5 0,-0.5"/>
<text text-anchor="start" x="8" y="-29.5" font-family="Helvetica,sans-Serif" font-size="10.00">BlackGui::Components</text>
<text text-anchor="start" x="8" y="-18.5" font-family="Helvetica,sans-Serif" font-size="10.00">::CCopyModelsFromOtherSwift</text>
<text text-anchor="middle" x="82.5" y="-7.5" font-family="Helvetica,sans-Serif" font-size="10.00">VersionsComponent</text>
</a>
</g>
</g>
<!-- Node2 -->
<g id="node2" class="node">
<title>Node2</title>
<g id="a_node2"><a xlink:href="class_black_gui_1_1_c_overlay_messages_frame.html" target="_top" xlink:title="Using this class provides a QFrame with the overlay functionality already integrated.">
<polygon fill="none" stroke="black" points="2.5,-78.5 2.5,-108.5 162.5,-108.5 162.5,-78.5 2.5,-78.5"/>
<text text-anchor="start" x="10.5" y="-96.5" font-family="Helvetica,sans-Serif" font-size="10.00">BlackGui::COverlayMessages</text>
<text text-anchor="middle" x="82.5" y="-85.5" font-family="Helvetica,sans-Serif" font-size="10.00">Frame</text>
</a>
</g>
</g>
<!-- Node2&#45;&gt;Node1 -->
<g id="edge1" class="edge">
<title>Node2&#45;&gt;Node1</title>
<path fill="none" stroke="midnightblue" d="M82.5,-67.98C82.5,-59.35 82.5,-49.76 82.5,-41.59"/>
<polygon fill="midnightblue" stroke="midnightblue" points="79,-68.23 82.5,-78.23 86,-68.23 79,-68.23"/>
</g>
<!-- Node3 -->
<g id="node3" class="node">
<title>Node3</title>
<g id="a_node3"><a xlink:href="class_black_gui_1_1_c_overlay_messages_base.html" target="_top" xlink:title=" ">
<polygon fill="none" stroke="black" points="2.5,-145.5 2.5,-175.5 162.5,-175.5 162.5,-145.5 2.5,-145.5"/>
<text text-anchor="start" x="10.5" y="-163.5" font-family="Helvetica,sans-Serif" font-size="10.00">BlackGui::COverlayMessages</text>
<text text-anchor="middle" x="82.5" y="-152.5" font-family="Helvetica,sans-Serif" font-size="10.00">Base&lt; QFrame &gt;</text>
</a>
</g>
</g>
<!-- Node3&#45;&gt;Node2 -->
<g id="edge2" class="edge">
<title>Node3&#45;&gt;Node2</title>
<path fill="none" stroke="midnightblue" d="M82.5,-135.11C82.5,-126.15 82.5,-116.32 82.5,-108.58"/>
<polygon fill="midnightblue" stroke="midnightblue" points="79,-135.4 82.5,-145.4 86,-135.4 79,-135.4"/>
</g>
<!-- Node4 -->
<g id="node4" class="node">
<title>Node4</title>
<g id="a_node4"><a target="_parent" xlink:href="http://doc.qt.io/qt-5/qframe.html" xlink:title=" ">
<polygon fill="none" stroke="black" points="55,-212.5 55,-231.5 110,-231.5 110,-212.5 55,-212.5"/>
<text text-anchor="middle" x="82.5" y="-219.5" font-family="Helvetica,sans-Serif" font-size="10.00">QFrame</text>
</a>
</g>
</g>
<!-- Node4&#45;&gt;Node3 -->
<g id="edge3" class="edge">
<title>Node4&#45;&gt;Node3</title>
<path fill="none" stroke="midnightblue" d="M82.5,-202.23C82.5,-193.59 82.5,-183.5 82.5,-175.52"/>
<polygon fill="midnightblue" stroke="midnightblue" points="79,-202.48 82.5,-212.48 86,-202.48 79,-202.48"/>
</g>
<!-- Node5 -->
<g id="node5" class="node">
<title>Node5</title>
<g id="a_node5"><a target="_parent" xlink:href="http://doc.qt.io/qt-5/qwidget.html" xlink:title=" ">
<polygon fill="none" stroke="black" points="53,-268.5 53,-287.5 112,-287.5 112,-268.5 53,-268.5"/>
<text text-anchor="middle" x="82.5" y="-275.5" font-family="Helvetica,sans-Serif" font-size="10.00">QWidget</text>
</a>
</g>
</g>
<!-- Node5&#45;&gt;Node4 -->
<g id="edge4" class="edge">
<title>Node5&#45;&gt;Node4</title>
<path fill="none" stroke="midnightblue" d="M82.5,-257.8C82.5,-248.91 82.5,-238.78 82.5,-231.75"/>
<polygon fill="midnightblue" stroke="midnightblue" points="79,-258.08 82.5,-268.08 86,-258.08 79,-258.08"/>
</g>
<!-- Node6 -->
<g id="node6" class="node">
<title>Node6</title>
<g id="a_node6"><a target="_parent" xlink:href="http://doc.qt.io/qt-5/qobject.html" xlink:title=" ">
<polygon fill="none" stroke="black" points="11.5,-324.5 11.5,-343.5 67.5,-343.5 67.5,-324.5 11.5,-324.5"/>
<text text-anchor="middle" x="39.5" y="-331.5" font-family="Helvetica,sans-Serif" font-size="10.00">QObject</text>
</a>
</g>
</g>
<!-- Node6&#45;&gt;Node5 -->
<g id="edge5" class="edge">
<title>Node6&#45;&gt;Node5</title>
<path fill="none" stroke="midnightblue" d="M52.92,-316.14C60.41,-306.74 69.44,-295.4 75.53,-287.75"/>
<polygon fill="midnightblue" stroke="midnightblue" points="50.09,-314.08 46.6,-324.08 55.57,-318.44 50.09,-314.08"/>
</g>
<!-- Node7 -->
<g id="node7" class="node">
<title>Node7</title>
<g id="a_node7"><a target="_parent" xlink:href="http://doc.qt.io/qt-5/qpaintdevice.html" xlink:title=" ">
<polygon fill="none" stroke="black" points="85.5,-324.5 85.5,-343.5 167.5,-343.5 167.5,-324.5 85.5,-324.5"/>
<text text-anchor="middle" x="126.5" y="-331.5" font-family="Helvetica,sans-Serif" font-size="10.00">QPaintDevice</text>
</a>
</g>
</g>
<!-- Node7&#45;&gt;Node5 -->
<g id="edge6" class="edge">
<title>Node7&#45;&gt;Node5</title>
<path fill="none" stroke="midnightblue" d="M112.77,-316.14C105.1,-306.74 95.87,-295.4 89.63,-287.75"/>
<polygon fill="midnightblue" stroke="midnightblue" points="110.2,-318.54 119.23,-324.08 115.63,-314.12 110.2,-318.54"/>
</g>
</g>
</svg>
