<?xml version="1.0" encoding="UTF-8" standalone="no"?>
<!DOCTYPE svg PUBLIC "-//W3C//DTD SVG 1.1//EN"
 "http://www.w3.org/Graphics/SVG/1.1/DTD/svg11.dtd">
<!-- Generated by graphviz version 2.43.0 (0)
 -->
<!-- Title: BlackGui::COverlayMessagesWizardPage Pages: 1 -->
<svg width="173pt" height="352pt"
 viewBox="0.00 0.00 173.00 352.00" xmlns="http://www.w3.org/2000/svg" xmlns:xlink="http://www.w3.org/1999/xlink">
<g id="graph0" class="graph" transform="scale(1 1) rotate(0) translate(4 348)">
<title>BlackGui::COverlayMessagesWizardPage</title>
<!-- Node1 -->
<g id="node1" class="node">
<title>Node1</title>
<g id="a_node1"><a xlink:title="Using this class provides a QWizardPage with the overlay functionality already integrated.">
<polygon fill="#bfbfbf" stroke="black" points="0,-78.5 0,-108.5 160,-108.5 160,-78.5 0,-78.5"/>
<text text-anchor="start" x="8" y="-96.5" font-family="Helvetica,sans-Serif" font-size="10.00">BlackGui::COverlayMessages</text>
<text text-anchor="middle" x="80" y="-85.5" font-family="Helvetica,sans-Serif" font-size="10.00">WizardPage</text>
</a>
</g>
</g>
<!-- Node7 -->
<g id="node7" class="node">
<title>Node7</title>
<g id="a_node7"><a xlink:href="class_black_gui_1_1_components_1_1_c_install_simulator_specific_wizard_page.html" target="_top" xlink:title="Simulator specific installation.">
<polygon fill="none" stroke="black" points="8,-0.5 8,-41.5 152,-41.5 152,-0.5 8,-0.5"/>
<text text-anchor="start" x="16" y="-29.5" font-family="Helvetica,sans-Serif" font-size="10.00">BlackGui::Components</text>
<text text-anchor="start" x="16" y="-18.5" font-family="Helvetica,sans-Serif" font-size="10.00">::CInstallSimulatorSpecific</text>
<text text-anchor="middle" x="80" y="-7.5" font-family="Helvetica,sans-Serif" font-size="10.00">WizardPage</text>
</a>
</g>
</g>
<!-- Node1&#45;&gt;Node7 -->
<g id="edge6" class="edge">
<title>Node1&#45;&gt;Node7</title>
<path fill="none" stroke="midnightblue" d="M80,-67.98C80,-59.35 80,-49.76 80,-41.59"/>
<polygon fill="midnightblue" stroke="midnightblue" points="76.5,-68.23 80,-78.23 83.5,-68.23 76.5,-68.23"/>
</g>
<!-- Node2 -->
<g id="node2" class="node">
<title>Node2</title>
<g id="a_node2"><a xlink:href="class_black_gui_1_1_c_overlay_messages_base.html" target="_top" xlink:title=" ">
<polygon fill="none" stroke="black" points="0,-145.5 0,-175.5 160,-175.5 160,-145.5 0,-145.5"/>
<text text-anchor="start" x="8" y="-163.5" font-family="Helvetica,sans-Serif" font-size="10.00">BlackGui::COverlayMessages</text>
<text text-anchor="middle" x="80" y="-152.5" font-family="Helvetica,sans-Serif" font-size="10.00">Base&lt; QWizardPage &gt;</text>
</a>
</g>
</g>
<!-- Node2&#45;&gt;Node1 -->
<g id="edge1" class="edge">
<title>Node2&#45;&gt;Node1</title>
<path fill="none" stroke="midnightblue" d="M80,-135.11C80,-126.15 80,-116.32 80,-108.58"/>
<polygon fill="midnightblue" stroke="midnightblue" points="76.5,-135.4 80,-145.4 83.5,-135.4 76.5,-135.4"/>
</g>
<!-- Node3 -->
<g id="node3" class="node">
<title>Node3</title>
<g id="a_node3"><a target="_parent" xlink:href="http://doc.qt.io/qt-5/qwizardpage.html" xlink:title=" ">
<polygon fill="none" stroke="black" points="39.5,-212.5 39.5,-231.5 120.5,-231.5 120.5,-212.5 39.5,-212.5"/>
<text text-anchor="middle" x="80" y="-219.5" font-family="Helvetica,sans-Serif" font-size="10.00">QWizardPage</text>
</a>
</g>
</g>
<!-- Node3&#45;&gt;Node2 -->
<g id="edge2" class="edge">
<title>Node3&#45;&gt;Node2</title>
<path fill="none" stroke="midnightblue" d="M80,-202.23C80,-193.59 80,-183.5 80,-175.52"/>
<polygon fill="midnightblue" stroke="midnightblue" points="76.5,-202.48 80,-212.48 83.5,-202.48 76.5,-202.48"/>
</g>
<!-- Node4 -->
<g id="node4" class="node">
<title>Node4</title>
<g id="a_node4"><a target="_parent" xlink:href="http://doc.qt.io/qt-5/qwidget.html" xlink:title=" ">
<polygon fill="none" stroke="black" points="50.5,-268.5 50.5,-287.5 109.5,-287.5 109.5,-268.5 50.5,-268.5"/>
<text text-anchor="middle" x="80" y="-275.5" font-family="Helvetica,sans-Serif" font-size="10.00">QWidget</text>
</a>
</g>
</g>
<!-- Node4&#45;&gt;Node3 -->
<g id="edge3" class="edge">
<title>Node4&#45;&gt;Node3</title>
<path fill="none" stroke="midnightblue" d="M80,-257.8C80,-248.91 80,-238.78 80,-231.75"/>
<polygon fill="midnightblue" stroke="midnightblue" points="76.5,-258.08 80,-268.08 83.5,-258.08 76.5,-258.08"/>
</g>
<!-- Node5 -->
<g id="node5" class="node">
<title>Node5</title>
<g id="a_node5"><a target="_parent" xlink:href="http://doc.qt.io/qt-5/qobject.html" xlink:title=" ">
<polygon fill="none" stroke="black" points="9,-324.5 9,-343.5 65,-343.5 65,-324.5 9,-324.5"/>
<text text-anchor="middle" x="37" y="-331.5" font-family="Helvetica,sans-Serif" font-size="10.00">QObject</text>
</a>
</g>
</g>
<!-- Node5&#45;&gt;Node4 -->
<g id="edge4" class="edge">
<title>Node5&#45;&gt;Node4</title>
<path fill="none" stroke="midnightblue" d="M50.42,-316.14C57.91,-306.74 66.94,-295.4 73.03,-287.75"/>
<polygon fill="midnightblue" stroke="midnightblue" points="47.59,-314.08 44.1,-324.08 53.07,-318.44 47.59,-314.08"/>
</g>
<!-- Node6 -->
<g id="node6" class="node">
<title>Node6</title>
<g id="a_node6"><a target="_parent" xlink:href="http://doc.qt.io/qt-5/qpaintdevice.html" xlink:title=" ">
<polygon fill="none" stroke="black" points="83,-324.5 83,-343.5 165,-343.5 165,-324.5 83,-324.5"/>
<text text-anchor="middle" x="124" y="-331.5" font-family="Helvetica,sans-Serif" font-size="10.00">QPaintDevice</text>
</a>
</g>
</g>
<!-- Node6&#45;&gt;Node4 -->
<g id="edge5" class="edge">
<title>Node6&#45;&gt;Node4</title>
<path fill="none" stroke="midnightblue" d="M110.27,-316.14C102.6,-306.74 93.37,-295.4 87.13,-287.75"/>
<polygon fill="midnightblue" stroke="midnightblue" points="107.7,-318.54 116.73,-324.08 113.13,-314.12 107.7,-318.54"/>
</g>
</g>
</svg>
