<?xml version="1.0" encoding="UTF-8" standalone="no"?>
<!DOCTYPE svg PUBLIC "-//W3C//DTD SVG 1.1//EN"
 "http://www.w3.org/Graphics/SVG/1.1/DTD/svg11.dtd">
<!-- Generated by graphviz version 2.43.0 (0)
 -->
<!-- Title: BlackGui::Views::CAircraftCategoryTreeView Pages: 1 -->
<svg width="165pt" height="375pt"
 viewBox="0.00 0.00 164.50 375.00" xmlns="http://www.w3.org/2000/svg" xmlns:xlink="http://www.w3.org/1999/xlink">
<g id="graph0" class="graph" transform="scale(1 1) rotate(0) translate(4 371)">
<title>BlackGui::Views::CAircraftCategoryTreeView</title>
<!-- Node1 -->
<g id="node1" class="node">
<title>Node1</title>
<g id="a_node1"><a xlink:title="ATC stations view.">
<polygon fill="#bfbfbf" stroke="black" points="0,-0.5 0,-30.5 143,-30.5 143,-0.5 0,-0.5"/>
<text text-anchor="start" x="8" y="-18.5" font-family="Helvetica,sans-Serif" font-size="10.00">BlackGui::Views::CAircraft</text>
<text text-anchor="middle" x="71.5" y="-7.5" font-family="Helvetica,sans-Serif" font-size="10.00">CategoryTreeView</text>
</a>
</g>
</g>
<!-- Node2 -->
<g id="node2" class="node">
<title>Node2</title>
<g id="a_node2"><a target="_parent" xlink:href="http://doc.qt.io/qt-5/qtreeview.html" xlink:title=" ">
<polygon fill="none" stroke="black" points="37.5,-67.5 37.5,-86.5 105.5,-86.5 105.5,-67.5 37.5,-67.5"/>
<text text-anchor="middle" x="71.5" y="-74.5" font-family="Helvetica,sans-Serif" font-size="10.00">QTreeView</text>
</a>
</g>
</g>
<!-- Node2&#45;&gt;Node1 -->
<g id="edge1" class="edge">
<title>Node2&#45;&gt;Node1</title>
<path fill="none" stroke="midnightblue" d="M71.5,-57.23C71.5,-48.59 71.5,-38.5 71.5,-30.52"/>
<polygon fill="midnightblue" stroke="midnightblue" points="68,-57.48 71.5,-67.48 75,-57.48 68,-57.48"/>
</g>
<!-- Node3 -->
<g id="node3" class="node">
<title>Node3</title>
<g id="a_node3"><a target="_parent" xlink:href="http://doc.qt.io/qt-5/qabstractitemview.html" xlink:title=" ">
<polygon fill="none" stroke="black" points="16,-123.5 16,-142.5 127,-142.5 127,-123.5 16,-123.5"/>
<text text-anchor="middle" x="71.5" y="-130.5" font-family="Helvetica,sans-Serif" font-size="10.00">QAbstractItemView</text>
</a>
</g>
</g>
<!-- Node3&#45;&gt;Node2 -->
<g id="edge2" class="edge">
<title>Node3&#45;&gt;Node2</title>
<path fill="none" stroke="midnightblue" d="M71.5,-112.8C71.5,-103.91 71.5,-93.78 71.5,-86.75"/>
<polygon fill="midnightblue" stroke="midnightblue" points="68,-113.08 71.5,-123.08 75,-113.08 68,-113.08"/>
</g>
<!-- Node4 -->
<g id="node4" class="node">
<title>Node4</title>
<g id="a_node4"><a target="_parent" xlink:href="http://doc.qt.io/qt-5/qabstractscrollarea.html" xlink:title=" ">
<polygon fill="none" stroke="black" points="14.5,-179.5 14.5,-198.5 128.5,-198.5 128.5,-179.5 14.5,-179.5"/>
<text text-anchor="middle" x="71.5" y="-186.5" font-family="Helvetica,sans-Serif" font-size="10.00">QAbstractScrollArea</text>
</a>
</g>
</g>
<!-- Node4&#45;&gt;Node3 -->
<g id="edge3" class="edge">
<title>Node4&#45;&gt;Node3</title>
<path fill="none" stroke="midnightblue" d="M71.5,-168.8C71.5,-159.91 71.5,-149.78 71.5,-142.75"/>
<polygon fill="midnightblue" stroke="midnightblue" points="68,-169.08 71.5,-179.08 75,-169.08 68,-169.08"/>
</g>
<!-- Node5 -->
<g id="node5" class="node">
<title>Node5</title>
<g id="a_node5"><a target="_parent" xlink:href="http://doc.qt.io/qt-5/qframe.html" xlink:title=" ">
<polygon fill="none" stroke="black" points="44,-235.5 44,-254.5 99,-254.5 99,-235.5 44,-235.5"/>
<text text-anchor="middle" x="71.5" y="-242.5" font-family="Helvetica,sans-Serif" font-size="10.00">QFrame</text>
</a>
</g>
</g>
<!-- Node5&#45;&gt;Node4 -->
<g id="edge4" class="edge">
<title>Node5&#45;&gt;Node4</title>
<path fill="none" stroke="midnightblue" d="M71.5,-224.8C71.5,-215.91 71.5,-205.78 71.5,-198.75"/>
<polygon fill="midnightblue" stroke="midnightblue" points="68,-225.08 71.5,-235.08 75,-225.08 68,-225.08"/>
</g>
<!-- Node6 -->
<g id="node6" class="node">
<title>Node6</title>
<g id="a_node6"><a target="_parent" xlink:href="http://doc.qt.io/qt-5/qwidget.html" xlink:title=" ">
<polygon fill="none" stroke="black" points="42,-291.5 42,-310.5 101,-310.5 101,-291.5 42,-291.5"/>
<text text-anchor="middle" x="71.5" y="-298.5" font-family="Helvetica,sans-Serif" font-size="10.00">QWidget</text>
</a>
</g>
</g>
<!-- Node6&#45;&gt;Node5 -->
<g id="edge5" class="edge">
<title>Node6&#45;&gt;Node5</title>
<path fill="none" stroke="midnightblue" d="M71.5,-280.8C71.5,-271.91 71.5,-261.78 71.5,-254.75"/>
<polygon fill="midnightblue" stroke="midnightblue" points="68,-281.08 71.5,-291.08 75,-281.08 68,-281.08"/>
</g>
<!-- Node7 -->
<g id="node7" class="node">
<title>Node7</title>
<g id="a_node7"><a target="_parent" xlink:href="http://doc.qt.io/qt-5/qobject.html" xlink:title=" ">
<polygon fill="none" stroke="black" points="0.5,-347.5 0.5,-366.5 56.5,-366.5 56.5,-347.5 0.5,-347.5"/>
<text text-anchor="middle" x="28.5" y="-354.5" font-family="Helvetica,sans-Serif" font-size="10.00">QObject</text>
</a>
</g>
</g>
<!-- Node7&#45;&gt;Node6 -->
<g id="edge6" class="edge">
<title>Node7&#45;&gt;Node6</title>
<path fill="none" stroke="midnightblue" d="M41.92,-339.14C49.41,-329.74 58.44,-318.4 64.53,-310.75"/>
<polygon fill="midnightblue" stroke="midnightblue" points="39.09,-337.08 35.6,-347.08 44.57,-341.44 39.09,-337.08"/>
</g>
<!-- Node8 -->
<g id="node8" class="node">
<title>Node8</title>
<g id="a_node8"><a target="_parent" xlink:href="http://doc.qt.io/qt-5/qpaintdevice.html" xlink:title=" ">
<polygon fill="none" stroke="black" points="74.5,-347.5 74.5,-366.5 156.5,-366.5 156.5,-347.5 74.5,-347.5"/>
<text text-anchor="middle" x="115.5" y="-354.5" font-family="Helvetica,sans-Serif" font-size="10.00">QPaintDevice</text>
</a>
</g>
</g>
<!-- Node8&#45;&gt;Node6 -->
<g id="edge7" class="edge">
<title>Node8&#45;&gt;Node6</title>
<path fill="none" stroke="midnightblue" d="M101.77,-339.14C94.1,-329.74 84.87,-318.4 78.63,-310.75"/>
<polygon fill="midnightblue" stroke="midnightblue" points="99.2,-341.54 108.23,-347.08 104.63,-337.12 99.2,-341.54"/>
</g>
</g>
</svg>
