<?xml version="1.0" encoding="UTF-8" standalone="no"?>
<!DOCTYPE svg PUBLIC "-//W3C//DTD SVG 1.1//EN"
 "http://www.w3.org/Graphics/SVG/1.1/DTD/svg11.dtd">
<!-- Generated by graphviz version 2.43.0 (0)
 -->
<!-- Title: BlackMisc::SharedState::IDataLink Pages: 1 -->
<svg width="288pt" height="106pt"
 viewBox="0.00 0.00 288.00 106.00" xmlns="http://www.w3.org/2000/svg" xmlns:xlink="http://www.w3.org/1999/xlink">
<g id="graph0" class="graph" transform="scale(1 1) rotate(0) translate(4 102)">
<title>BlackMisc::SharedState::IDataLink</title>
<!-- Node1 -->
<g id="node1" class="node">
<title>Node1</title>
<g id="a_node1"><a xlink:title="Interface that provides a transport mechanism for sharing state.">
<polygon fill="#bfbfbf" stroke="black" points="74,-67.5 74,-97.5 205,-97.5 205,-67.5 74,-67.5"/>
<text text-anchor="start" x="82" y="-85.5" font-family="Helvetica,sans-Serif" font-size="10.00">BlackMisc::SharedState</text>
<text text-anchor="middle" x="139.5" y="-74.5" font-family="Helvetica,sans-Serif" font-size="10.00">::IDataLink</text>
</a>
</g>
</g>
<!-- Node2 -->
<g id="node2" class="node">
<title>Node2</title>
<g id="a_node2"><a xlink:href="class_black_misc_1_1_shared_state_1_1_c_data_link_d_bus.html" target="_top" xlink:title="A transport mechanism using signals and slots distributed by DBus.">
<polygon fill="none" stroke="black" points="0,-0.5 0,-30.5 131,-30.5 131,-0.5 0,-0.5"/>
<text text-anchor="start" x="8" y="-18.5" font-family="Helvetica,sans-Serif" font-size="10.00">BlackMisc::SharedState</text>
<text text-anchor="middle" x="65.5" y="-7.5" font-family="Helvetica,sans-Serif" font-size="10.00">::CDataLinkDBus</text>
</a>
</g>
</g>
<!-- Node1&#45;&gt;Node2 -->
<g id="edge1" class="edge">
<title>Node1&#45;&gt;Node2</title>
<path fill="none" stroke="midnightblue" d="M115.7,-60.6C104.53,-50.78 91.51,-39.34 81.53,-30.58"/>
<polygon fill="midnightblue" stroke="midnightblue" points="113.62,-63.43 123.44,-67.4 118.24,-58.17 113.62,-63.43"/>
</g>
<!-- Node3 -->
<g id="node3" class="node">
<title>Node3</title>
<g id="a_node3"><a xlink:href="class_black_misc_1_1_shared_state_1_1_c_data_link_local.html" target="_top" xlink:title="A transport mechanism using signals and slots in the local process.">
<polygon fill="none" stroke="black" points="149,-0.5 149,-30.5 280,-30.5 280,-0.5 149,-0.5"/>
<text text-anchor="start" x="157" y="-18.5" font-family="Helvetica,sans-Serif" font-size="10.00">BlackMisc::SharedState</text>
<text text-anchor="middle" x="214.5" y="-7.5" font-family="Helvetica,sans-Serif" font-size="10.00">::CDataLinkLocal</text>
</a>
</g>
</g>
<!-- Node1&#45;&gt;Node3 -->
<g id="edge2" class="edge">
<title>Node1&#45;&gt;Node3</title>
<path fill="none" stroke="midnightblue" d="M163.62,-60.6C174.94,-50.78 188.14,-39.34 198.26,-30.58"/>
<polygon fill="midnightblue" stroke="midnightblue" points="161.04,-58.2 155.77,-67.4 165.62,-63.49 161.04,-58.2"/>
</g>
</g>
</svg>
