<?xml version="1.0" encoding="UTF-8" standalone="no"?>
<!DOCTYPE svg PUBLIC "-//W3C//DTD SVG 1.1//EN"
 "http://www.w3.org/Graphics/SVG/1.1/DTD/svg11.dtd">
<!-- Generated by graphviz version 2.43.0 (0)
 -->
<!-- Title: BlackGui::Components::CAircraftPartsComponent Pages: 1 -->
<svg width="166pt" height="207pt"
 viewBox="0.00 0.00 165.50 207.00" xmlns="http://www.w3.org/2000/svg" xmlns:xlink="http://www.w3.org/1999/xlink">
<g id="graph0" class="graph" transform="scale(1 1) rotate(0) translate(4 203)">
<title>BlackGui::Components::CAircraftPartsComponent</title>
<!-- Node1 -->
<g id="node1" class="node">
<title>Node1</title>
<g id="a_node1"><a xlink:title="Allows to display and manipulate parts.">
<polygon fill="#bfbfbf" stroke="black" points="0,-0.5 0,-30.5 145,-30.5 145,-0.5 0,-0.5"/>
<text text-anchor="start" x="8" y="-18.5" font-family="Helvetica,sans-Serif" font-size="10.00">BlackGui::Components</text>
<text text-anchor="middle" x="72.5" y="-7.5" font-family="Helvetica,sans-Serif" font-size="10.00">::CAircraftPartsComponent</text>
</a>
</g>
</g>
<!-- Node2 -->
<g id="node2" class="node">
<title>Node2</title>
<g id="a_node2"><a target="_parent" xlink:href="http://doc.qt.io/qt-5/qframe.html" xlink:title=" ">
<polygon fill="none" stroke="black" points="45,-67.5 45,-86.5 100,-86.5 100,-67.5 45,-67.5"/>
<text text-anchor="middle" x="72.5" y="-74.5" font-family="Helvetica,sans-Serif" font-size="10.00">QFrame</text>
</a>
</g>
</g>
<!-- Node2&#45;&gt;Node1 -->
<g id="edge1" class="edge">
<title>Node2&#45;&gt;Node1</title>
<path fill="none" stroke="midnightblue" d="M72.5,-57.23C72.5,-48.59 72.5,-38.5 72.5,-30.52"/>
<polygon fill="midnightblue" stroke="midnightblue" points="69,-57.48 72.5,-67.48 76,-57.48 69,-57.48"/>
</g>
<!-- Node3 -->
<g id="node3" class="node">
<title>Node3</title>
<g id="a_node3"><a target="_parent" xlink:href="http://doc.qt.io/qt-5/qwidget.html" xlink:title=" ">
<polygon fill="none" stroke="black" points="43,-123.5 43,-142.5 102,-142.5 102,-123.5 43,-123.5"/>
<text text-anchor="middle" x="72.5" y="-130.5" font-family="Helvetica,sans-Serif" font-size="10.00">QWidget</text>
</a>
</g>
</g>
<!-- Node3&#45;&gt;Node2 -->
<g id="edge2" class="edge">
<title>Node3&#45;&gt;Node2</title>
<path fill="none" stroke="midnightblue" d="M72.5,-112.8C72.5,-103.91 72.5,-93.78 72.5,-86.75"/>
<polygon fill="midnightblue" stroke="midnightblue" points="69,-113.08 72.5,-123.08 76,-113.08 69,-113.08"/>
</g>
<!-- Node4 -->
<g id="node4" class="node">
<title>Node4</title>
<g id="a_node4"><a target="_parent" xlink:href="http://doc.qt.io/qt-5/qobject.html" xlink:title=" ">
<polygon fill="none" stroke="black" points="1.5,-179.5 1.5,-198.5 57.5,-198.5 57.5,-179.5 1.5,-179.5"/>
<text text-anchor="middle" x="29.5" y="-186.5" font-family="Helvetica,sans-Serif" font-size="10.00">QObject</text>
</a>
</g>
</g>
<!-- Node4&#45;&gt;Node3 -->
<g id="edge3" class="edge">
<title>Node4&#45;&gt;Node3</title>
<path fill="none" stroke="midnightblue" d="M42.92,-171.14C50.41,-161.74 59.44,-150.4 65.53,-142.75"/>
<polygon fill="midnightblue" stroke="midnightblue" points="40.09,-169.08 36.6,-179.08 45.57,-173.44 40.09,-169.08"/>
</g>
<!-- Node5 -->
<g id="node5" class="node">
<title>Node5</title>
<g id="a_node5"><a target="_parent" xlink:href="http://doc.qt.io/qt-5/qpaintdevice.html" xlink:title=" ">
<polygon fill="none" stroke="black" points="75.5,-179.5 75.5,-198.5 157.5,-198.5 157.5,-179.5 75.5,-179.5"/>
<text text-anchor="middle" x="116.5" y="-186.5" font-family="Helvetica,sans-Serif" font-size="10.00">QPaintDevice</text>
</a>
</g>
</g>
<!-- Node5&#45;&gt;Node3 -->
<g id="edge4" class="edge">
<title>Node5&#45;&gt;Node3</title>
<path fill="none" stroke="midnightblue" d="M102.77,-171.14C95.1,-161.74 85.87,-150.4 79.63,-142.75"/>
<polygon fill="midnightblue" stroke="midnightblue" points="100.2,-173.54 109.23,-179.08 105.63,-169.12 100.2,-173.54"/>
</g>
</g>
</svg>
