<?xml version="1.0" encoding="UTF-8" standalone="no"?>
<!DOCTYPE svg PUBLIC "-//W3C//DTD SVG 1.1//EN"
 "http://www.w3.org/Graphics/SVG/1.1/DTD/svg11.dtd">
<!-- Generated by graphviz version 2.43.0 (0)
 -->
<!-- Title: BlackGui::Views::CAirlineIcaoCodeView Pages: 1 -->
<svg width="1878pt" height="126pt"
 viewBox="0.00 0.00 1878.00 125.50" xmlns="http://www.w3.org/2000/svg" xmlns:xlink="http://www.w3.org/1999/xlink">
<g id="graph0" class="graph" transform="scale(1 1) rotate(0) translate(4 121.5)">
<title>BlackGui::Views::CAirlineIcaoCodeView</title>
<!-- Node1 -->
<g id="node1" class="node">
<title>Node1</title>
<g id="a_node1"><a xlink:title="Aircraft ICAO codes view.">
<polygon fill="#bfbfbf" stroke="black" points="1730,-24.5 1730,-54.5 1870,-54.5 1870,-24.5 1730,-24.5"/>
<text text-anchor="start" x="1738" y="-42.5" font-family="Helvetica,sans-Serif" font-size="10.00">BlackGui::Views::CAirline</text>
<text text-anchor="middle" x="1800" y="-31.5" font-family="Helvetica,sans-Serif" font-size="10.00">IcaoCodeView</text>
</a>
</g>
</g>
<!-- Node2 -->
<g id="node2" class="node">
<title>Node2</title>
<g id="a_node2"><a xlink:href="class_black_gui_1_1_views_1_1_c_view_with_db_objects.html" target="_top" xlink:title=" ">
<polygon fill="none" stroke="black" points="1516,-19 1516,-60 1694,-60 1694,-19 1516,-19"/>
<text text-anchor="start" x="1524" y="-48" font-family="Helvetica,sans-Serif" font-size="10.00">BlackGui::Views::CViewWith</text>
<text text-anchor="start" x="1524" y="-37" font-family="Helvetica,sans-Serif" font-size="10.00">DbObjects&lt; Models::CAirlineIcao</text>
<text text-anchor="middle" x="1605" y="-26" font-family="Helvetica,sans-Serif" font-size="10.00">CodeListModel &gt;</text>
</a>
</g>
</g>
<!-- Node2&#45;&gt;Node1 -->
<g id="edge1" class="edge">
<title>Node2&#45;&gt;Node1</title>
<path fill="none" stroke="midnightblue" d="M1704.2,-39.5C1712.88,-39.5 1721.53,-39.5 1729.89,-39.5"/>
<polygon fill="midnightblue" stroke="midnightblue" points="1704.03,-36 1694.03,-39.5 1704.03,-43 1704.03,-36"/>
</g>
<!-- Node3 -->
<g id="node3" class="node">
<title>Node3</title>
<g id="a_node3"><a xlink:href="class_black_gui_1_1_views_1_1_c_view_base.html" target="_top" xlink:title="Base class for views.">
<polygon fill="none" stroke="black" points="1295,-30 1295,-49 1480,-49 1480,-30 1295,-30"/>
<text text-anchor="middle" x="1387.5" y="-37" font-family="Helvetica,sans-Serif" font-size="10.00">BlackGui::Views::CViewBase&lt; T &gt;</text>
</a>
</g>
</g>
<!-- Node3&#45;&gt;Node2 -->
<g id="edge2" class="edge">
<title>Node3&#45;&gt;Node2</title>
<path fill="none" stroke="midnightblue" d="M1490.21,-39.5C1498.76,-39.5 1507.37,-39.5 1515.81,-39.5"/>
<polygon fill="midnightblue" stroke="midnightblue" points="1490.2,-36 1480.2,-39.5 1490.2,-43 1490.2,-36"/>
</g>
<!-- Node4 -->
<g id="node4" class="node">
<title>Node4</title>
<g id="a_node4"><a xlink:href="class_black_gui_1_1_views_1_1_c_view_base_non_template.html" target="_top" xlink:title="Non templated base class, allows Q_OBJECT and signals / slots to be used.">
<polygon fill="none" stroke="black" points="1103,-49.5 1103,-79.5 1259,-79.5 1259,-49.5 1103,-49.5"/>
<text text-anchor="start" x="1111" y="-67.5" font-family="Helvetica,sans-Serif" font-size="10.00">BlackGui::Views::CViewBase</text>
<text text-anchor="middle" x="1181" y="-56.5" font-family="Helvetica,sans-Serif" font-size="10.00">NonTemplate</text>
</a>
</g>
</g>
<!-- Node4&#45;&gt;Node3 -->
<g id="edge3" class="edge">
<title>Node4&#45;&gt;Node3</title>
<path fill="none" stroke="midnightblue" d="M1268.98,-53.87C1282.12,-52.26 1295.6,-50.61 1308.53,-49.03"/>
<polygon fill="midnightblue" stroke="midnightblue" points="1268.52,-50.4 1259.02,-55.08 1269.37,-57.34 1268.52,-50.4"/>
</g>
<!-- Node5 -->
<g id="node5" class="node">
<title>Node5</title>
<g id="a_node5"><a xlink:href="class_black_gui_1_1_c_overlay_messages_table_view.html" target="_top" xlink:title="Using this class provides a QTableView with the overlay functionality already integrated.">
<polygon fill="none" stroke="black" points="907,-73.5 907,-103.5 1067,-103.5 1067,-73.5 907,-73.5"/>
<text text-anchor="start" x="915" y="-91.5" font-family="Helvetica,sans-Serif" font-size="10.00">BlackGui::COverlayMessages</text>
<text text-anchor="middle" x="987" y="-80.5" font-family="Helvetica,sans-Serif" font-size="10.00">TableView</text>
</a>
</g>
</g>
<!-- Node5&#45;&gt;Node4 -->
<g id="edge4" class="edge">
<title>Node5&#45;&gt;Node4</title>
<path fill="none" stroke="midnightblue" d="M1077.2,-77.35C1085.77,-76.28 1094.4,-75.2 1102.84,-74.15"/>
<polygon fill="midnightblue" stroke="midnightblue" points="1076.69,-73.89 1067.2,-78.6 1077.56,-80.83 1076.69,-73.89"/>
</g>
<!-- Node6 -->
<g id="node6" class="node">
<title>Node6</title>
<g id="a_node6"><a xlink:href="class_black_gui_1_1_c_overlay_messages_base.html" target="_top" xlink:title=" ">
<polygon fill="none" stroke="black" points="711,-73.5 711,-103.5 871,-103.5 871,-73.5 711,-73.5"/>
<text text-anchor="start" x="719" y="-91.5" font-family="Helvetica,sans-Serif" font-size="10.00">BlackGui::COverlayMessages</text>
<text text-anchor="middle" x="791" y="-80.5" font-family="Helvetica,sans-Serif" font-size="10.00">Base&lt; QTableView &gt;</text>
</a>
</g>
</g>
<!-- Node6&#45;&gt;Node5 -->
<g id="edge5" class="edge">
<title>Node6&#45;&gt;Node5</title>
<path fill="none" stroke="midnightblue" d="M881.44,-88.5C889.88,-88.5 898.41,-88.5 906.75,-88.5"/>
<polygon fill="midnightblue" stroke="midnightblue" points="881.19,-85 871.19,-88.5 881.19,-92 881.19,-85"/>
</g>
<!-- Node7 -->
<g id="node7" class="node">
<title>Node7</title>
<g id="a_node7"><a target="_parent" xlink:href="http://doc.qt.io/qt-5/qtableview.html" xlink:title=" ">
<polygon fill="none" stroke="black" points="601,-79 601,-98 675,-98 675,-79 601,-79"/>
<text text-anchor="middle" x="638" y="-86" font-family="Helvetica,sans-Serif" font-size="10.00">QTableView</text>
</a>
</g>
</g>
<!-- Node7&#45;&gt;Node6 -->
<g id="edge6" class="edge">
<title>Node7&#45;&gt;Node6</title>
<path fill="none" stroke="midnightblue" d="M685.44,-88.5C693.5,-88.5 702.09,-88.5 710.75,-88.5"/>
<polygon fill="midnightblue" stroke="midnightblue" points="685.17,-85 675.17,-88.5 685.17,-92 685.17,-85"/>
</g>
<!-- Node8 -->
<g id="node8" class="node">
<title>Node8</title>
<g id="a_node8"><a target="_parent" xlink:href="http://doc.qt.io/qt-5/qabstractitemview.html" xlink:title=" ">
<polygon fill="none" stroke="black" points="454,-79 454,-98 565,-98 565,-79 454,-79"/>
<text text-anchor="middle" x="509.5" y="-86" font-family="Helvetica,sans-Serif" font-size="10.00">QAbstractItemView</text>
</a>
</g>
</g>
<!-- Node8&#45;&gt;Node7 -->
<g id="edge7" class="edge">
<title>Node8&#45;&gt;Node7</title>
<path fill="none" stroke="midnightblue" d="M575.45,-88.5C584.16,-88.5 592.82,-88.5 600.78,-88.5"/>
<polygon fill="midnightblue" stroke="midnightblue" points="575.25,-85 565.25,-88.5 575.25,-92 575.25,-85"/>
</g>
<!-- Node9 -->
<g id="node9" class="node">
<title>Node9</title>
<g id="a_node9"><a target="_parent" xlink:href="http://doc.qt.io/qt-5/qabstractscrollarea.html" xlink:title=" ">
<polygon fill="none" stroke="black" points="304,-79 304,-98 418,-98 418,-79 304,-79"/>
<text text-anchor="middle" x="361" y="-86" font-family="Helvetica,sans-Serif" font-size="10.00">QAbstractScrollArea</text>
</a>
</g>
</g>
<!-- Node9&#45;&gt;Node8 -->
<g id="edge8" class="edge">
<title>Node9&#45;&gt;Node8</title>
<path fill="none" stroke="midnightblue" d="M428.42,-88.5C436.85,-88.5 445.41,-88.5 453.64,-88.5"/>
<polygon fill="midnightblue" stroke="midnightblue" points="428.22,-85 418.22,-88.5 428.22,-92 428.22,-85"/>
</g>
<!-- Node10 -->
<g id="node10" class="node">
<title>Node10</title>
<g id="a_node10"><a target="_parent" xlink:href="http://doc.qt.io/qt-5/qframe.html" xlink:title=" ">
<polygon fill="none" stroke="black" points="213,-79 213,-98 268,-98 268,-79 213,-79"/>
<text text-anchor="middle" x="240.5" y="-86" font-family="Helvetica,sans-Serif" font-size="10.00">QFrame</text>
</a>
</g>
</g>
<!-- Node10&#45;&gt;Node9 -->
<g id="edge9" class="edge">
<title>Node10&#45;&gt;Node9</title>
<path fill="none" stroke="midnightblue" d="M278.33,-88.5C286.45,-88.5 295.24,-88.5 303.93,-88.5"/>
<polygon fill="midnightblue" stroke="midnightblue" points="278.09,-85 268.09,-88.5 278.09,-92 278.09,-85"/>
</g>
<!-- Node11 -->
<g id="node11" class="node">
<title>Node11</title>
<g id="a_node11"><a target="_parent" xlink:href="http://doc.qt.io/qt-5/qwidget.html" xlink:title=" ">
<polygon fill="none" stroke="black" points="118,-79 118,-98 177,-98 177,-79 118,-79"/>
<text text-anchor="middle" x="147.5" y="-86" font-family="Helvetica,sans-Serif" font-size="10.00">QWidget</text>
</a>
</g>
</g>
<!-- Node11&#45;&gt;Node10 -->
<g id="edge10" class="edge">
<title>Node11&#45;&gt;Node10</title>
<path fill="none" stroke="midnightblue" d="M187.46,-88.5C195.99,-88.5 204.83,-88.5 212.75,-88.5"/>
<polygon fill="midnightblue" stroke="midnightblue" points="187.29,-85 177.29,-88.5 187.29,-92 187.29,-85"/>
</g>
<!-- Node12 -->
<g id="node12" class="node">
<title>Node12</title>
<g id="a_node12"><a target="_parent" xlink:href="http://doc.qt.io/qt-5/qobject.html" xlink:title=" ">
<polygon fill="none" stroke="black" points="13,-98 13,-117 69,-117 69,-98 13,-98"/>
<text text-anchor="middle" x="41" y="-105" font-family="Helvetica,sans-Serif" font-size="10.00">QObject</text>
</a>
</g>
</g>
<!-- Node12&#45;&gt;Node11 -->
<g id="edge11" class="edge">
<title>Node12&#45;&gt;Node11</title>
<path fill="none" stroke="midnightblue" d="M79.09,-100.76C91.88,-98.43 106,-95.86 117.99,-93.68"/>
<polygon fill="midnightblue" stroke="midnightblue" points="78.4,-97.33 69.18,-102.56 79.65,-104.21 78.4,-97.33"/>
</g>
<!-- Node13 -->
<g id="node13" class="node">
<title>Node13</title>
<g id="a_node13"><a target="_parent" xlink:href="http://doc.qt.io/qt-5/qpaintdevice.html" xlink:title=" ">
<polygon fill="none" stroke="black" points="0,-60 0,-79 82,-79 82,-60 0,-60"/>
<text text-anchor="middle" x="41" y="-67" font-family="Helvetica,sans-Serif" font-size="10.00">QPaintDevice</text>
</a>
</g>
</g>
<!-- Node13&#45;&gt;Node11 -->
<g id="edge12" class="edge">
<title>Node13&#45;&gt;Node11</title>
<path fill="none" stroke="midnightblue" d="M91.97,-78.59C100.8,-80.19 109.71,-81.81 117.69,-83.26"/>
<polygon fill="midnightblue" stroke="midnightblue" points="92.57,-75.14 82.1,-76.79 91.32,-82.02 92.57,-75.14"/>
</g>
<!-- Node14 -->
<g id="node14" class="node">
<title>Node14</title>
<g id="a_node14"><a xlink:href="class_black_gui_1_1_c_enable_for_dock_widget_info_area.html" target="_top" xlink:title="Helper class: If a component is residing in an dockable widget. This class provides access to its inf...">
<polygon fill="none" stroke="black" points="914,-24.5 914,-54.5 1060,-54.5 1060,-24.5 914,-24.5"/>
<text text-anchor="start" x="922" y="-42.5" font-family="Helvetica,sans-Serif" font-size="10.00">BlackGui::CEnableForDock</text>
<text text-anchor="middle" x="987" y="-31.5" font-family="Helvetica,sans-Serif" font-size="10.00">WidgetInfoArea</text>
</a>
</g>
</g>
<!-- Node14&#45;&gt;Node4 -->
<g id="edge13" class="edge">
<title>Node14&#45;&gt;Node4</title>
<path fill="none" stroke="midnightblue" d="M1070.28,-50.21C1081.05,-51.62 1092.05,-53.05 1102.74,-54.44"/>
<polygon fill="midnightblue" stroke="midnightblue" points="1070.41,-46.7 1060.04,-48.88 1069.5,-53.64 1070.41,-46.7"/>
</g>
<!-- Node15 -->
<g id="node15" class="node">
<title>Node15</title>
<g id="a_node15"><a xlink:href="class_black_gui_1_1_models_1_1_i_selection_model.html" target="_top" xlink:title=" ">
<polygon fill="none" stroke="black" points="1103.5,-0.5 1103.5,-30.5 1258.5,-30.5 1258.5,-0.5 1103.5,-0.5"/>
<text text-anchor="start" x="1111.5" y="-18.5" font-family="Helvetica,sans-Serif" font-size="10.00">BlackGui::Models::ISelection</text>
<text text-anchor="middle" x="1181" y="-7.5" font-family="Helvetica,sans-Serif" font-size="10.00">Model&lt; T::ContainerType &gt;</text>
</a>
</g>
</g>
<!-- Node15&#45;&gt;Node3 -->
<g id="edge14" class="edge">
<title>Node15&#45;&gt;Node3</title>
<path fill="none" stroke="midnightblue" d="M1268.8,-25.69C1280.88,-27.1 1293.26,-28.56 1305.24,-29.96"/>
<polygon fill="midnightblue" stroke="midnightblue" points="1269.07,-22.19 1258.73,-24.5 1268.25,-29.15 1269.07,-22.19"/>
</g>
</g>
</svg>
