<?xml version="1.0" encoding="UTF-8" standalone="no"?>
<!DOCTYPE svg PUBLIC "-//W3C//DTD SVG 1.1//EN"
 "http://www.w3.org/Graphics/SVG/1.1/DTD/svg11.dtd">
<!-- Generated by graphviz version 2.43.0 (0)
 -->
<!-- Title: BlackMisc::Simulation::CSimulatedAircraft Pages: 1 -->
<svg width="738pt" height="617pt"
 viewBox="0.00 0.00 738.00 616.50" xmlns="http://www.w3.org/2000/svg" xmlns:xlink="http://www.w3.org/1999/xlink">
<g id="graph0" class="graph" transform="scale(1 1) rotate(0) translate(4 612.5)">
<title>BlackMisc::Simulation::CSimulatedAircraft</title>
<!-- Node1 -->
<g id="node1" class="node">
<title>Node1</title>
<g id="a_node1"><a xlink:title="Comprehensive information of an aircraft.">
<polygon fill="#bfbfbf" stroke="black" points="605,-147.5 605,-177.5 730,-177.5 730,-147.5 605,-147.5"/>
<text text-anchor="start" x="613" y="-165.5" font-family="Helvetica,sans-Serif" font-size="10.00">BlackMisc::Simulation</text>
<text text-anchor="middle" x="667.5" y="-154.5" font-family="Helvetica,sans-Serif" font-size="10.00">::CSimulatedAircraft</text>
</a>
</g>
</g>
<!-- Node2 -->
<g id="node2" class="node">
<title>Node2</title>
<g id="a_node2"><a xlink:href="class_black_misc_1_1_c_value_object.html" target="_top" xlink:title=" ">
<polygon fill="none" stroke="black" points="423.5,-294.5 423.5,-324.5 560.5,-324.5 560.5,-294.5 423.5,-294.5"/>
<text text-anchor="start" x="431.5" y="-312.5" font-family="Helvetica,sans-Serif" font-size="10.00">BlackMisc::CValueObject</text>
<text text-anchor="middle" x="492" y="-301.5" font-family="Helvetica,sans-Serif" font-size="10.00">&lt; CSimulatedAircraft &gt;</text>
</a>
</g>
</g>
<!-- Node2&#45;&gt;Node1 -->
<g id="edge1" class="edge">
<title>Node2&#45;&gt;Node1</title>
<path fill="none" stroke="midnightblue" d="M518.93,-287.53C554.6,-257.31 617.89,-203.68 648.68,-177.6"/>
<polygon fill="midnightblue" stroke="midnightblue" points="516.28,-285.19 510.91,-294.32 520.81,-290.53 516.28,-285.19"/>
</g>
<!-- Node3 -->
<g id="node3" class="node">
<title>Node3</title>
<g id="a_node3"><a xlink:href="class_black_misc_1_1_c_empty.html" target="_top" xlink:title="Default base class for CValueObject.">
<polygon fill="none" stroke="black" points="242,-589 242,-608 352,-608 352,-589 242,-589"/>
<text text-anchor="middle" x="297" y="-596" font-family="Helvetica,sans-Serif" font-size="10.00">BlackMisc::CEmpty</text>
</a>
</g>
</g>
<!-- Node3&#45;&gt;Node2 -->
<g id="edge2" class="edge">
<title>Node3&#45;&gt;Node2</title>
<path fill="none" stroke="midnightblue" d="M362.16,-589.68C368.26,-587.06 374.01,-583.73 379,-579.5 461.01,-509.86 484,-370.4 489.48,-324.52"/>
<polygon fill="midnightblue" stroke="midnightblue" points="360.57,-586.53 352.36,-593.22 362.95,-593.11 360.57,-586.53"/>
</g>
<!-- Node4 -->
<g id="node4" class="node">
<title>Node4</title>
<g id="a_node4"><a xlink:href="class_black_misc_1_1_mixin_1_1_meta_type.html" target="_top" xlink:title="CRTP class template from which a derived class can inherit common methods dealing with the metatype o...">
<polygon fill="none" stroke="black" points="221,-539.5 221,-569.5 373,-569.5 373,-539.5 221,-539.5"/>
<text text-anchor="start" x="229" y="-557.5" font-family="Helvetica,sans-Serif" font-size="10.00">BlackMisc::Mixin::MetaType</text>
<text text-anchor="middle" x="297" y="-546.5" font-family="Helvetica,sans-Serif" font-size="10.00">&lt; Derived &gt;</text>
</a>
</g>
</g>
<!-- Node4&#45;&gt;Node2 -->
<g id="edge3" class="edge">
<title>Node4&#45;&gt;Node2</title>
<path fill="none" stroke="midnightblue" d="M374.12,-534.2C375.81,-533.04 377.44,-531.8 379,-530.5 447.23,-473.63 478.26,-364.71 487.71,-324.71"/>
<polygon fill="midnightblue" stroke="midnightblue" points="372.05,-531.36 365.26,-539.49 375.64,-537.37 372.05,-531.36"/>
</g>
<!-- Node5 -->
<g id="node5" class="node">
<title>Node5</title>
<g id="a_node5"><a xlink:href="class_black_misc_1_1_mixin_1_1_hash_by_meta_class.html" target="_top" xlink:title="CRTP class template from which a derived class can inherit common methods dealing with hashing instan...">
<polygon fill="none" stroke="black" points="225.5,-490.5 225.5,-520.5 368.5,-520.5 368.5,-490.5 225.5,-490.5"/>
<text text-anchor="start" x="233.5" y="-508.5" font-family="Helvetica,sans-Serif" font-size="10.00">BlackMisc::Mixin::HashBy</text>
<text text-anchor="middle" x="297" y="-497.5" font-family="Helvetica,sans-Serif" font-size="10.00">MetaClass&lt; Derived &gt;</text>
</a>
</g>
</g>
<!-- Node5&#45;&gt;Node2 -->
<g id="edge4" class="edge">
<title>Node5&#45;&gt;Node2</title>
<path fill="none" stroke="midnightblue" d="M373.19,-485.43C375.19,-484.2 377.14,-482.89 379,-481.5 435.99,-439 472.17,-358.28 485.37,-324.73"/>
<polygon fill="midnightblue" stroke="midnightblue" points="371.18,-482.54 364.05,-490.37 374.51,-488.7 371.18,-482.54"/>
</g>
<!-- Node6 -->
<g id="node6" class="node">
<title>Node6</title>
<g id="a_node6"><a xlink:href="class_black_misc_1_1_mixin_1_1_d_bus_by_meta_class.html" target="_top" xlink:title="CRTP class template from which a derived class can inherit common methods dealing with marshalling in...">
<polygon fill="none" stroke="black" points="219,-441.5 219,-471.5 375,-471.5 375,-441.5 219,-441.5"/>
<text text-anchor="start" x="227" y="-459.5" font-family="Helvetica,sans-Serif" font-size="10.00">BlackMisc::Mixin::DBusBy</text>
<text text-anchor="middle" x="297" y="-448.5" font-family="Helvetica,sans-Serif" font-size="10.00">MetaClass&lt; Derived, Tags &gt;</text>
</a>
</g>
</g>
<!-- Node6&#45;&gt;Node2 -->
<g id="edge5" class="edge">
<title>Node6&#45;&gt;Node2</title>
<path fill="none" stroke="midnightblue" d="M370.73,-437.16C373.58,-435.71 376.35,-434.16 379,-432.5 425,-403.65 463.84,-350.84 481.23,-324.82"/>
<polygon fill="midnightblue" stroke="midnightblue" points="369.03,-434.09 361.4,-441.44 371.94,-440.45 369.03,-434.09"/>
</g>
<!-- Node7 -->
<g id="node7" class="node">
<title>Node7</title>
<g id="a_node7"><a xlink:href="class_black_misc_1_1_mixin_1_1_d_bus_operators.html" target="_top" xlink:title=" ">
<polygon fill="none" stroke="black" points="0,-441.5 0,-471.5 179,-471.5 179,-441.5 0,-441.5"/>
<text text-anchor="start" x="8" y="-459.5" font-family="Helvetica,sans-Serif" font-size="10.00">BlackMisc::Mixin::DBusOperators</text>
<text text-anchor="middle" x="89.5" y="-448.5" font-family="Helvetica,sans-Serif" font-size="10.00">&lt; Derived, Tags... &gt;</text>
</a>
</g>
</g>
<!-- Node7&#45;&gt;Node6 -->
<g id="edge6" class="edge">
<title>Node7&#45;&gt;Node6</title>
<path fill="none" stroke="midnightblue" d="M189.44,-456.5C199.35,-456.5 209.31,-456.5 218.95,-456.5"/>
<polygon fill="midnightblue" stroke="midnightblue" points="189.14,-453 179.14,-456.5 189.14,-460 189.14,-453"/>
</g>
<!-- Node8 -->
<g id="node8" class="node">
<title>Node8</title>
<g id="a_node8"><a xlink:href="class_black_misc_1_1_mixin_1_1_data_stream_by_meta_class.html" target="_top" xlink:title="CRTP class template to generate QDataStream marshalling methods using CMetaClass.">
<polygon fill="none" stroke="black" points="215,-392.5 215,-422.5 379,-422.5 379,-392.5 215,-392.5"/>
<text text-anchor="start" x="223" y="-410.5" font-family="Helvetica,sans-Serif" font-size="10.00">BlackMisc::Mixin::DataStream</text>
<text text-anchor="middle" x="297" y="-399.5" font-family="Helvetica,sans-Serif" font-size="10.00">ByMetaClass&lt; Derived &gt;</text>
</a>
</g>
</g>
<!-- Node8&#45;&gt;Node2 -->
<g id="edge7" class="edge">
<title>Node8&#45;&gt;Node2</title>
<path fill="none" stroke="midnightblue" d="M366.33,-388.86C370.67,-387.19 374.93,-385.4 379,-383.5 413.86,-367.26 450.31,-341.21 471.82,-324.75"/>
<polygon fill="midnightblue" stroke="midnightblue" points="364.93,-385.64 356.73,-392.35 367.32,-392.22 364.93,-385.64"/>
</g>
<!-- Node9 -->
<g id="node9" class="node">
<title>Node9</title>
<g id="a_node9"><a xlink:href="class_black_misc_1_1_mixin_1_1_data_stream_operators.html" target="_top" xlink:title="CRTP class template to generate non&#45;member QDataStream streaming operators.">
<polygon fill="none" stroke="black" points="7.5,-392.5 7.5,-422.5 171.5,-422.5 171.5,-392.5 7.5,-392.5"/>
<text text-anchor="start" x="15.5" y="-410.5" font-family="Helvetica,sans-Serif" font-size="10.00">BlackMisc::Mixin::DataStream</text>
<text text-anchor="middle" x="89.5" y="-399.5" font-family="Helvetica,sans-Serif" font-size="10.00">Operators&lt; Derived &gt;</text>
</a>
</g>
</g>
<!-- Node9&#45;&gt;Node8 -->
<g id="edge8" class="edge">
<title>Node9&#45;&gt;Node8</title>
<path fill="none" stroke="midnightblue" d="M181.74,-407.5C192.72,-407.5 203.87,-407.5 214.7,-407.5"/>
<polygon fill="midnightblue" stroke="midnightblue" points="181.72,-404 171.72,-407.5 181.72,-411 181.72,-404"/>
</g>
<!-- Node10 -->
<g id="node10" class="node">
<title>Node10</title>
<g id="a_node10"><a xlink:href="class_black_misc_1_1_mixin_1_1_json_by_meta_class.html" target="_top" xlink:title="CRTP class template from which a derived class can inherit common methods dealing with JSON by metatu...">
<polygon fill="none" stroke="black" points="228,-343.5 228,-373.5 366,-373.5 366,-343.5 228,-343.5"/>
<text text-anchor="start" x="236" y="-361.5" font-family="Helvetica,sans-Serif" font-size="10.00">BlackMisc::Mixin::JsonBy</text>
<text text-anchor="middle" x="297" y="-350.5" font-family="Helvetica,sans-Serif" font-size="10.00">MetaClass&lt; Derived &gt;</text>
</a>
</g>
</g>
<!-- Node10&#45;&gt;Node2 -->
<g id="edge9" class="edge">
<title>Node10&#45;&gt;Node2</title>
<path fill="none" stroke="midnightblue" d="M367.12,-340.95C388.32,-335.57 411.43,-329.7 431.89,-324.51"/>
<polygon fill="midnightblue" stroke="midnightblue" points="366.05,-337.61 357.22,-343.47 367.77,-344.4 366.05,-337.61"/>
</g>
<!-- Node11 -->
<g id="node11" class="node">
<title>Node11</title>
<g id="a_node11"><a xlink:href="class_black_misc_1_1_mixin_1_1_json_operators.html" target="_top" xlink:title="CRTP class template which will generate marshalling operators for a derived class with its own marsha...">
<polygon fill="none" stroke="black" points="3,-343.5 3,-373.5 176,-373.5 176,-343.5 3,-343.5"/>
<text text-anchor="start" x="11" y="-361.5" font-family="Helvetica,sans-Serif" font-size="10.00">BlackMisc::Mixin::JsonOperators</text>
<text text-anchor="middle" x="89.5" y="-350.5" font-family="Helvetica,sans-Serif" font-size="10.00">&lt; Derived &gt;</text>
</a>
</g>
</g>
<!-- Node11&#45;&gt;Node10 -->
<g id="edge10" class="edge">
<title>Node11&#45;&gt;Node10</title>
<path fill="none" stroke="midnightblue" d="M186.35,-358.5C200.41,-358.5 214.65,-358.5 227.99,-358.5"/>
<polygon fill="midnightblue" stroke="midnightblue" points="186.16,-355 176.16,-358.5 186.16,-362 186.16,-355"/>
</g>
<!-- Node12 -->
<g id="node12" class="node">
<title>Node12</title>
<g id="a_node12"><a xlink:href="class_black_misc_1_1_mixin_1_1_equals_by_meta_class.html" target="_top" xlink:title="CRTP class template from which a derived class can inherit operator== implemented by metaclass.">
<polygon fill="none" stroke="black" points="226.5,-294.5 226.5,-324.5 367.5,-324.5 367.5,-294.5 226.5,-294.5"/>
<text text-anchor="start" x="234.5" y="-312.5" font-family="Helvetica,sans-Serif" font-size="10.00">BlackMisc::Mixin::Equals</text>
<text text-anchor="middle" x="297" y="-301.5" font-family="Helvetica,sans-Serif" font-size="10.00">ByMetaClass&lt; Derived &gt;</text>
</a>
</g>
</g>
<!-- Node12&#45;&gt;Node2 -->
<g id="edge11" class="edge">
<title>Node12&#45;&gt;Node2</title>
<path fill="none" stroke="midnightblue" d="M378.01,-309.5C393.08,-309.5 408.71,-309.5 423.36,-309.5"/>
<polygon fill="midnightblue" stroke="midnightblue" points="377.68,-306 367.68,-309.5 377.68,-313 377.68,-306"/>
</g>
<!-- Node13 -->
<g id="node13" class="node">
<title>Node13</title>
<g id="a_node13"><a xlink:href="class_black_misc_1_1_mixin_1_1_less_than_by_meta_class.html" target="_top" xlink:title="CRTP class template from which a derived class can inherit operator&lt; implemented by metaclass.">
<polygon fill="none" stroke="black" points="221.5,-245.5 221.5,-275.5 372.5,-275.5 372.5,-245.5 221.5,-245.5"/>
<text text-anchor="start" x="229.5" y="-263.5" font-family="Helvetica,sans-Serif" font-size="10.00">BlackMisc::Mixin::LessThan</text>
<text text-anchor="middle" x="297" y="-252.5" font-family="Helvetica,sans-Serif" font-size="10.00">ByMetaClass&lt; Derived &gt;</text>
</a>
</g>
</g>
<!-- Node13&#45;&gt;Node2 -->
<g id="edge12" class="edge">
<title>Node13&#45;&gt;Node2</title>
<path fill="none" stroke="midnightblue" d="M367.12,-278.05C388.32,-283.43 411.43,-289.3 431.89,-294.49"/>
<polygon fill="midnightblue" stroke="midnightblue" points="367.77,-274.6 357.22,-275.53 366.05,-281.39 367.77,-274.6"/>
</g>
<!-- Node14 -->
<g id="node14" class="node">
<title>Node14</title>
<g id="a_node14"><a xlink:href="class_black_misc_1_1_mixin_1_1_compare_by_meta_class.html" target="_top" xlink:title="CRTP class template from which a derived class can inherit non&#45;member compare() implemented by metacl...">
<polygon fill="none" stroke="black" points="222.5,-196.5 222.5,-226.5 371.5,-226.5 371.5,-196.5 222.5,-196.5"/>
<text text-anchor="start" x="230.5" y="-214.5" font-family="Helvetica,sans-Serif" font-size="10.00">BlackMisc::Mixin::Compare</text>
<text text-anchor="middle" x="297" y="-203.5" font-family="Helvetica,sans-Serif" font-size="10.00">ByMetaClass&lt; Derived &gt;</text>
</a>
</g>
</g>
<!-- Node14&#45;&gt;Node2 -->
<g id="edge13" class="edge">
<title>Node14&#45;&gt;Node2</title>
<path fill="none" stroke="midnightblue" d="M363.64,-230.03C368.91,-232.04 374.09,-234.2 379,-236.5 413.46,-252.66 449.74,-278.08 471.35,-294.25"/>
<polygon fill="midnightblue" stroke="midnightblue" points="364.7,-226.69 354.11,-226.58 362.32,-233.27 364.7,-226.69"/>
</g>
<!-- Node15 -->
<g id="node15" class="node">
<title>Node15</title>
<g id="a_node15"><a xlink:href="class_black_misc_1_1_mixin_1_1_string.html" target="_top" xlink:title="CRTP class template from which a derived class can inherit string streaming operations.">
<polygon fill="none" stroke="black" points="230,-147.5 230,-177.5 364,-177.5 364,-147.5 230,-147.5"/>
<text text-anchor="start" x="238" y="-165.5" font-family="Helvetica,sans-Serif" font-size="10.00">BlackMisc::Mixin::String</text>
<text text-anchor="middle" x="297" y="-154.5" font-family="Helvetica,sans-Serif" font-size="10.00">&lt; Derived &gt;</text>
</a>
</g>
</g>
<!-- Node15&#45;&gt;Node2 -->
<g id="edge14" class="edge">
<title>Node15&#45;&gt;Node2</title>
<path fill="none" stroke="midnightblue" d="M368.51,-181.67C372.14,-183.45 375.67,-185.39 379,-187.5 424.69,-216.38 463.68,-268.64 481.16,-294.36"/>
<polygon fill="midnightblue" stroke="midnightblue" points="369.84,-178.43 359.28,-177.54 366.98,-184.82 369.84,-178.43"/>
</g>
<!-- Node16 -->
<g id="node16" class="node">
<title>Node16</title>
<g id="a_node16"><a xlink:href="class_black_misc_1_1_mixin_1_1_index.html" target="_top" xlink:title="CRTP class template from which a derived class can inherit property indexing functions.">
<polygon fill="none" stroke="black" points="231,-98.5 231,-128.5 363,-128.5 363,-98.5 231,-98.5"/>
<text text-anchor="start" x="239" y="-116.5" font-family="Helvetica,sans-Serif" font-size="10.00">BlackMisc::Mixin::Index</text>
<text text-anchor="middle" x="297" y="-105.5" font-family="Helvetica,sans-Serif" font-size="10.00">&lt; Derived &gt;</text>
</a>
</g>
</g>
<!-- Node16&#45;&gt;Node2 -->
<g id="edge15" class="edge">
<title>Node16&#45;&gt;Node2</title>
<path fill="none" stroke="midnightblue" d="M371.09,-133.25C373.84,-134.87 376.49,-136.61 379,-138.5 435.57,-181.07 471.99,-261.14 485.31,-294.41"/>
<polygon fill="midnightblue" stroke="midnightblue" points="372.49,-130.03 362,-128.53 369.26,-136.25 372.49,-130.03"/>
</g>
<!-- Node17 -->
<g id="node17" class="node">
<title>Node17</title>
<g id="a_node17"><a xlink:href="class_black_misc_1_1_mixin_1_1_icon.html" target="_top" xlink:title="CRTP class template from which a derived class can inherit icon&#45;related functions.">
<polygon fill="none" stroke="black" points="231.5,-49.5 231.5,-79.5 362.5,-79.5 362.5,-49.5 231.5,-49.5"/>
<text text-anchor="start" x="239.5" y="-67.5" font-family="Helvetica,sans-Serif" font-size="10.00">BlackMisc::Mixin::Icon</text>
<text text-anchor="middle" x="297" y="-56.5" font-family="Helvetica,sans-Serif" font-size="10.00">&lt; Derived, IconIndex &gt;</text>
</a>
</g>
</g>
<!-- Node17&#45;&gt;Node2 -->
<g id="edge16" class="edge">
<title>Node17&#45;&gt;Node2</title>
<path fill="none" stroke="midnightblue" d="M371.41,-83.86C374.07,-85.58 376.62,-87.46 379,-89.5 406.77,-113.3 398.55,-130.83 415,-163.5 439.16,-211.49 468.82,-267.73 482.87,-294.23"/>
<polygon fill="midnightblue" stroke="midnightblue" points="372.96,-80.72 362.53,-78.87 369.53,-86.82 372.96,-80.72"/>
</g>
<!-- Node18 -->
<g id="node18" class="node">
<title>Node18</title>
<g id="a_node18"><a xlink:href="class_black_misc_1_1_geo_1_1_i_coordinate_with_relative_position.html" target="_top" xlink:title="Interface (actually more an abstract class) of coordinates and relative position to something (normal...">
<polygon fill="none" stroke="black" points="415,-123.5 415,-153.5 569,-153.5 569,-123.5 415,-123.5"/>
<text text-anchor="start" x="423" y="-141.5" font-family="Helvetica,sans-Serif" font-size="10.00">BlackMisc::Geo::ICoordinate</text>
<text text-anchor="middle" x="492" y="-130.5" font-family="Helvetica,sans-Serif" font-size="10.00">WithRelativePosition</text>
</a>
</g>
</g>
<!-- Node18&#45;&gt;Node1 -->
<g id="edge17" class="edge">
<title>Node18&#45;&gt;Node1</title>
<path fill="none" stroke="midnightblue" d="M579.21,-150.42C587.84,-151.62 596.48,-152.81 604.78,-153.96"/>
<polygon fill="midnightblue" stroke="midnightblue" points="579.48,-146.93 569.1,-149.03 578.53,-153.86 579.48,-146.93"/>
</g>
<!-- Node19 -->
<g id="node19" class="node">
<title>Node19</title>
<g id="a_node19"><a xlink:href="class_black_misc_1_1_geo_1_1_i_coordinate_geodetic.html" target="_top" xlink:title="Geodetic coordinate, a position in 3D space relative to the reference geoid.">
<polygon fill="none" stroke="black" points="220,-0.5 220,-30.5 374,-30.5 374,-0.5 220,-0.5"/>
<text text-anchor="start" x="228" y="-18.5" font-family="Helvetica,sans-Serif" font-size="10.00">BlackMisc::Geo::ICoordinate</text>
<text text-anchor="middle" x="297" y="-7.5" font-family="Helvetica,sans-Serif" font-size="10.00">Geodetic</text>
</a>
</g>
</g>
<!-- Node19&#45;&gt;Node18 -->
<g id="edge18" class="edge">
<title>Node19&#45;&gt;Node18</title>
<path fill="none" stroke="midnightblue" d="M368.79,-34.42C372.31,-36 375.73,-37.69 379,-39.5 419.86,-62.14 458.63,-101.89 478.05,-123.49"/>
<polygon fill="midnightblue" stroke="midnightblue" points="369.91,-31.1 359.33,-30.53 367.24,-37.57 369.91,-31.1"/>
</g>
</g>
</svg>
