<?xml version="1.0" encoding="UTF-8" standalone="no"?>
<!DOCTYPE svg PUBLIC "-//W3C//DTD SVG 1.1//EN"
 "http://www.w3.org/Graphics/SVG/1.1/DTD/svg11.dtd">
<!-- Generated by graphviz version 2.43.0 (0)
 -->
<!-- Title: BlackGui::CDockWidgetInfoBar Pages: 1 -->
<svg width="358pt" height="386pt"
 viewBox="0.00 0.00 357.50 386.00" xmlns="http://www.w3.org/2000/svg" xmlns:xlink="http://www.w3.org/1999/xlink">
<g id="graph0" class="graph" transform="scale(1 1) rotate(0) translate(4 382)">
<title>BlackGui::CDockWidgetInfoBar</title>
<!-- Node1 -->
<g id="node1" class="node">
<title>Node1</title>
<g id="a_node1"><a xlink:title="Class for dock widgets in the info area, containing some specialized functionality.">
<polygon fill="#bfbfbf" stroke="black" points="88.5,-0.5 88.5,-19.5 255.5,-19.5 255.5,-0.5 88.5,-0.5"/>
<text text-anchor="middle" x="172" y="-7.5" font-family="Helvetica,sans-Serif" font-size="10.00">BlackGui::CDockWidgetInfoBar</text>
</a>
</g>
</g>
<!-- Node2 -->
<g id="node2" class="node">
<title>Node2</title>
<g id="a_node2"><a xlink:href="class_black_gui_1_1_c_dock_widget.html" target="_top" xlink:title="Our base class for dockable widgets containing some specialized functionality on top of QDockWidget.">
<polygon fill="none" stroke="black" points="106,-56.5 106,-75.5 238,-75.5 238,-56.5 106,-56.5"/>
<text text-anchor="middle" x="172" y="-63.5" font-family="Helvetica,sans-Serif" font-size="10.00">BlackGui::CDockWidget</text>
</a>
</g>
</g>
<!-- Node2&#45;&gt;Node1 -->
<g id="edge1" class="edge">
<title>Node2&#45;&gt;Node1</title>
<path fill="none" stroke="midnightblue" d="M172,-45.8C172,-36.91 172,-26.78 172,-19.75"/>
<polygon fill="midnightblue" stroke="midnightblue" points="168.5,-46.08 172,-56.08 175.5,-46.08 168.5,-46.08"/>
</g>
<!-- Node3 -->
<g id="node3" class="node">
<title>Node3</title>
<g id="a_node3"><a xlink:href="class_black_gui_1_1_c_overlay_messages_dock_widget.html" target="_top" xlink:title="Using this class provides a QDockWidget with the overlay functionality already integrated.">
<polygon fill="none" stroke="black" points="0,-112.5 0,-142.5 160,-142.5 160,-112.5 0,-112.5"/>
<text text-anchor="start" x="8" y="-130.5" font-family="Helvetica,sans-Serif" font-size="10.00">BlackGui::COverlayMessages</text>
<text text-anchor="middle" x="80" y="-119.5" font-family="Helvetica,sans-Serif" font-size="10.00">DockWidget</text>
</a>
</g>
</g>
<!-- Node3&#45;&gt;Node2 -->
<g id="edge2" class="edge">
<title>Node3&#45;&gt;Node2</title>
<path fill="none" stroke="midnightblue" d="M110.5,-106.78C126.8,-96.23 146.05,-83.78 158.61,-75.66"/>
<polygon fill="midnightblue" stroke="midnightblue" points="108.3,-104.03 101.8,-112.4 112.1,-109.91 108.3,-104.03"/>
</g>
<!-- Node4 -->
<g id="node4" class="node">
<title>Node4</title>
<g id="a_node4"><a xlink:href="class_black_gui_1_1_c_overlay_messages_base.html" target="_top" xlink:title=" ">
<polygon fill="none" stroke="black" points="0,-179.5 0,-209.5 160,-209.5 160,-179.5 0,-179.5"/>
<text text-anchor="start" x="8" y="-197.5" font-family="Helvetica,sans-Serif" font-size="10.00">BlackGui::COverlayMessages</text>
<text text-anchor="middle" x="80" y="-186.5" font-family="Helvetica,sans-Serif" font-size="10.00">Base&lt; QDockWidget &gt;</text>
</a>
</g>
</g>
<!-- Node4&#45;&gt;Node3 -->
<g id="edge3" class="edge">
<title>Node4&#45;&gt;Node3</title>
<path fill="none" stroke="midnightblue" d="M80,-169.11C80,-160.15 80,-150.32 80,-142.58"/>
<polygon fill="midnightblue" stroke="midnightblue" points="76.5,-169.4 80,-179.4 83.5,-169.4 76.5,-169.4"/>
</g>
<!-- Node5 -->
<g id="node5" class="node">
<title>Node5</title>
<g id="a_node5"><a target="_parent" xlink:href="http://doc.qt.io/qt-5/qdockwidget.html" xlink:title=" ">
<polygon fill="none" stroke="black" points="38.5,-246.5 38.5,-265.5 121.5,-265.5 121.5,-246.5 38.5,-246.5"/>
<text text-anchor="middle" x="80" y="-253.5" font-family="Helvetica,sans-Serif" font-size="10.00">QDockWidget</text>
</a>
</g>
</g>
<!-- Node5&#45;&gt;Node4 -->
<g id="edge4" class="edge">
<title>Node5&#45;&gt;Node4</title>
<path fill="none" stroke="midnightblue" d="M80,-236.23C80,-227.59 80,-217.5 80,-209.52"/>
<polygon fill="midnightblue" stroke="midnightblue" points="76.5,-236.48 80,-246.48 83.5,-236.48 76.5,-236.48"/>
</g>
<!-- Node6 -->
<g id="node6" class="node">
<title>Node6</title>
<g id="a_node6"><a target="_parent" xlink:href="http://doc.qt.io/qt-5/qwidget.html" xlink:title=" ">
<polygon fill="none" stroke="black" points="50.5,-302.5 50.5,-321.5 109.5,-321.5 109.5,-302.5 50.5,-302.5"/>
<text text-anchor="middle" x="80" y="-309.5" font-family="Helvetica,sans-Serif" font-size="10.00">QWidget</text>
</a>
</g>
</g>
<!-- Node6&#45;&gt;Node5 -->
<g id="edge5" class="edge">
<title>Node6&#45;&gt;Node5</title>
<path fill="none" stroke="midnightblue" d="M80,-291.8C80,-282.91 80,-272.78 80,-265.75"/>
<polygon fill="midnightblue" stroke="midnightblue" points="76.5,-292.08 80,-302.08 83.5,-292.08 76.5,-292.08"/>
</g>
<!-- Node7 -->
<g id="node7" class="node">
<title>Node7</title>
<g id="a_node7"><a target="_parent" xlink:href="http://doc.qt.io/qt-5/qobject.html" xlink:title=" ">
<polygon fill="none" stroke="black" points="9,-358.5 9,-377.5 65,-377.5 65,-358.5 9,-358.5"/>
<text text-anchor="middle" x="37" y="-365.5" font-family="Helvetica,sans-Serif" font-size="10.00">QObject</text>
</a>
</g>
</g>
<!-- Node7&#45;&gt;Node6 -->
<g id="edge6" class="edge">
<title>Node7&#45;&gt;Node6</title>
<path fill="none" stroke="midnightblue" d="M50.42,-350.14C57.91,-340.74 66.94,-329.4 73.03,-321.75"/>
<polygon fill="midnightblue" stroke="midnightblue" points="47.59,-348.08 44.1,-358.08 53.07,-352.44 47.59,-348.08"/>
</g>
<!-- Node8 -->
<g id="node8" class="node">
<title>Node8</title>
<g id="a_node8"><a target="_parent" xlink:href="http://doc.qt.io/qt-5/qpaintdevice.html" xlink:title=" ">
<polygon fill="none" stroke="black" points="83,-358.5 83,-377.5 165,-377.5 165,-358.5 83,-358.5"/>
<text text-anchor="middle" x="124" y="-365.5" font-family="Helvetica,sans-Serif" font-size="10.00">QPaintDevice</text>
</a>
</g>
</g>
<!-- Node8&#45;&gt;Node6 -->
<g id="edge7" class="edge">
<title>Node8&#45;&gt;Node6</title>
<path fill="none" stroke="midnightblue" d="M110.27,-350.14C102.6,-340.74 93.37,-329.4 87.13,-321.75"/>
<polygon fill="midnightblue" stroke="midnightblue" points="107.7,-352.54 116.73,-358.08 113.13,-348.12 107.7,-352.54"/>
</g>
<!-- Node9 -->
<g id="node9" class="node">
<title>Node9</title>
<g id="a_node9"><a xlink:href="class_black_gui_1_1_c_enable_for_frameless_window.html" target="_top" xlink:title="Main window which can be frameless.">
<polygon fill="none" stroke="black" points="178.5,-112.5 178.5,-142.5 349.5,-142.5 349.5,-112.5 178.5,-112.5"/>
<text text-anchor="start" x="186.5" y="-130.5" font-family="Helvetica,sans-Serif" font-size="10.00">BlackGui::CEnableForFrameless</text>
<text text-anchor="middle" x="264" y="-119.5" font-family="Helvetica,sans-Serif" font-size="10.00">Window</text>
</a>
</g>
</g>
<!-- Node9&#45;&gt;Node2 -->
<g id="edge8" class="edge">
<title>Node9&#45;&gt;Node2</title>
<path fill="none" stroke="midnightblue" d="M233.5,-106.78C217.2,-96.23 197.95,-83.78 185.39,-75.66"/>
<polygon fill="midnightblue" stroke="midnightblue" points="231.9,-109.91 242.2,-112.4 235.7,-104.03 231.9,-109.91"/>
</g>
</g>
</svg>
