<?xml version="1.0" encoding="UTF-8" standalone="no"?>
<!DOCTYPE svg PUBLIC "-//W3C//DTD SVG 1.1//EN"
 "http://www.w3.org/Graphics/SVG/1.1/DTD/svg11.dtd">
<!-- Generated by graphviz version 2.43.0 (0)
 -->
<!-- Title: BlackMisc::SharedState::CGenericScalarJournal Pages: 1 -->
<svg width="582pt" height="88pt"
 viewBox="0.00 0.00 582.00 88.00" xmlns="http://www.w3.org/2000/svg" xmlns:xlink="http://www.w3.org/1999/xlink">
<g id="graph0" class="graph" transform="scale(1 1) rotate(0) translate(4 84)">
<title>BlackMisc::SharedState::CGenericScalarJournal</title>
<!-- Node1 -->
<g id="node1" class="node">
<title>Node1</title>
<g id="a_node1"><a xlink:title="Non&#45;template base class for CScalarJournal.">
<polygon fill="#bfbfbf" stroke="black" points="92,-24.5 92,-54.5 223,-54.5 223,-24.5 92,-24.5"/>
<text text-anchor="start" x="100" y="-42.5" font-family="Helvetica,sans-Serif" font-size="10.00">BlackMisc::SharedState</text>
<text text-anchor="middle" x="157.5" y="-31.5" font-family="Helvetica,sans-Serif" font-size="10.00">::CGenericScalarJournal</text>
</a>
</g>
</g>
<!-- Node3 -->
<g id="node3" class="node">
<title>Node3</title>
<g id="a_node3"><a xlink:href="class_black_misc_1_1_shared_state_1_1_c_scalar_journal.html" target="_top" xlink:title=" ">
<polygon fill="none" stroke="black" points="259,-49.5 259,-79.5 390,-79.5 390,-49.5 259,-49.5"/>
<text text-anchor="start" x="267" y="-67.5" font-family="Helvetica,sans-Serif" font-size="10.00">BlackMisc::SharedState</text>
<text text-anchor="middle" x="324.5" y="-56.5" font-family="Helvetica,sans-Serif" font-size="10.00">::CScalarJournal&lt; int &gt;</text>
</a>
</g>
</g>
<!-- Node1&#45;&gt;Node3 -->
<g id="edge2" class="edge">
<title>Node1&#45;&gt;Node3</title>
<path fill="none" stroke="midnightblue" d="M233.24,-50.82C241.82,-52.12 250.52,-53.44 258.95,-54.72"/>
<polygon fill="midnightblue" stroke="midnightblue" points="233.65,-47.35 223.24,-49.31 232.6,-54.27 233.65,-47.35"/>
</g>
<!-- Node5 -->
<g id="node5" class="node">
<title>Node5</title>
<g id="a_node5"><a xlink:href="class_black_misc_1_1_shared_state_1_1_c_scalar_journal.html" target="_top" xlink:title="Base class for an object that shares state with a corresponding CScalarObserver subclass object.">
<polygon fill="none" stroke="black" points="259,-0.5 259,-30.5 390,-30.5 390,-0.5 259,-0.5"/>
<text text-anchor="start" x="267" y="-18.5" font-family="Helvetica,sans-Serif" font-size="10.00">BlackMisc::SharedState</text>
<text text-anchor="middle" x="324.5" y="-7.5" font-family="Helvetica,sans-Serif" font-size="10.00">::CScalarJournal&lt; T &gt;</text>
</a>
</g>
</g>
<!-- Node1&#45;&gt;Node5 -->
<g id="edge4" class="edge">
<title>Node1&#45;&gt;Node5</title>
<path fill="none" stroke="midnightblue" d="M233.24,-28.63C241.82,-27.38 250.52,-26.12 258.95,-24.89"/>
<polygon fill="midnightblue" stroke="midnightblue" points="232.63,-25.18 223.24,-30.08 233.64,-32.11 232.63,-25.18"/>
</g>
<!-- Node2 -->
<g id="node2" class="node">
<title>Node2</title>
<g id="a_node2"><a target="_parent" xlink:href="http://doc.qt.io/qt-5/qobject.html" xlink:title=" ">
<polygon fill="none" stroke="black" points="0,-30 0,-49 56,-49 56,-30 0,-30"/>
<text text-anchor="middle" x="28" y="-37" font-family="Helvetica,sans-Serif" font-size="10.00">QObject</text>
</a>
</g>
</g>
<!-- Node2&#45;&gt;Node1 -->
<g id="edge1" class="edge">
<title>Node2&#45;&gt;Node1</title>
<path fill="none" stroke="midnightblue" d="M66.24,-39.5C74.35,-39.5 83.16,-39.5 91.99,-39.5"/>
<polygon fill="midnightblue" stroke="midnightblue" points="66.04,-36 56.04,-39.5 66.04,-43 66.04,-36"/>
</g>
<!-- Node4 -->
<g id="node4" class="node">
<title>Node4</title>
<g id="a_node4"><a xlink:href="class_black_misc_test_1_1_c_test_scalar_journal.html" target="_top" xlink:title="Scalar journal subclass.">
<polygon fill="none" stroke="black" points="426,-49.5 426,-79.5 574,-79.5 574,-49.5 426,-49.5"/>
<text text-anchor="start" x="434" y="-67.5" font-family="Helvetica,sans-Serif" font-size="10.00">BlackMiscTest::CTestScalar</text>
<text text-anchor="middle" x="500" y="-56.5" font-family="Helvetica,sans-Serif" font-size="10.00">Journal</text>
</a>
</g>
</g>
<!-- Node3&#45;&gt;Node4 -->
<g id="edge3" class="edge">
<title>Node3&#45;&gt;Node4</title>
<path fill="none" stroke="midnightblue" d="M400.34,-64.5C408.8,-64.5 417.43,-64.5 425.87,-64.5"/>
<polygon fill="midnightblue" stroke="midnightblue" points="400.11,-61 390.1,-64.5 400.1,-68 400.11,-61"/>
</g>
</g>
</svg>
