<?xml version="1.0" encoding="UTF-8" standalone="no"?>
<!DOCTYPE svg PUBLIC "-//W3C//DTD SVG 1.1//EN"
 "http://www.w3.org/Graphics/SVG/1.1/DTD/svg11.dtd">
<!-- Generated by graphviz version 2.43.0 (0)
 -->
<!-- Title: BlackMisc::Db::IDatastoreObject Pages: 1 -->
<svg width="718pt" height="585pt"
 viewBox="0.00 0.00 718.00 585.00" xmlns="http://www.w3.org/2000/svg" xmlns:xlink="http://www.w3.org/1999/xlink">
<g id="graph0" class="graph" transform="scale(1 1) rotate(0) translate(4 581)">
<title>BlackMisc::Db::IDatastoreObject</title>
<!-- Node1 -->
<g id="node1" class="node">
<title>Node1</title>
<g id="a_node1"><a xlink:title="Supposed to be used only in filter operations.">
<polygon fill="#bfbfbf" stroke="black" points="197,-156.5 197,-186.5 340,-186.5 340,-156.5 197,-156.5"/>
<text text-anchor="start" x="205" y="-174.5" font-family="Helvetica,sans-Serif" font-size="10.00">BlackMisc::Db::IDatastore</text>
<text text-anchor="middle" x="268.5" y="-163.5" font-family="Helvetica,sans-Serif" font-size="10.00">Object</text>
</a>
</g>
</g>
<!-- Node3 -->
<g id="node3" class="node">
<title>Node3</title>
<g id="a_node3"><a xlink:href="class_black_misc_1_1_db_1_1_i_datastore_object_with_integer_key.html" target="_top" xlink:title="Class from which a derived class can inherit datastore&#45;related functions.">
<polygon fill="none" stroke="black" points="376,-287.5 376,-317.5 519,-317.5 519,-287.5 376,-287.5"/>
<text text-anchor="start" x="384" y="-305.5" font-family="Helvetica,sans-Serif" font-size="10.00">BlackMisc::Db::IDatastore</text>
<text text-anchor="middle" x="447.5" y="-294.5" font-family="Helvetica,sans-Serif" font-size="10.00">ObjectWithIntegerKey</text>
</a>
</g>
</g>
<!-- Node1&#45;&gt;Node3 -->
<g id="edge2" class="edge">
<title>Node1&#45;&gt;Node3</title>
<path fill="none" stroke="midnightblue" d="M297.92,-192.54C333.8,-219.09 394.61,-264.1 426.16,-287.45"/>
<polygon fill="midnightblue" stroke="midnightblue" points="299.92,-189.66 289.8,-186.53 295.76,-195.29 299.92,-189.66"/>
</g>
<!-- Node15 -->
<g id="node15" class="node">
<title>Node15</title>
<g id="a_node15"><a xlink:href="class_black_misc_1_1_db_1_1_i_datastore_object_with_string_key.html" target="_top" xlink:title="Class from which a derived class can inherit datastore&#45;related functions.">
<polygon fill="none" stroke="black" points="376,-44.5 376,-74.5 519,-74.5 519,-44.5 376,-44.5"/>
<text text-anchor="start" x="384" y="-62.5" font-family="Helvetica,sans-Serif" font-size="10.00">BlackMisc::Db::IDatastore</text>
<text text-anchor="middle" x="447.5" y="-51.5" font-family="Helvetica,sans-Serif" font-size="10.00">ObjectWithStringKey</text>
</a>
</g>
</g>
<!-- Node1&#45;&gt;Node15 -->
<g id="edge14" class="edge">
<title>Node1&#45;&gt;Node15</title>
<path fill="none" stroke="midnightblue" d="M302.24,-150.78C337.17,-128.68 391.68,-94.19 422.73,-74.54"/>
<polygon fill="midnightblue" stroke="midnightblue" points="299.95,-148.09 293.37,-156.4 303.69,-154.01 299.95,-148.09"/>
</g>
<!-- Node2 -->
<g id="node2" class="node">
<title>Node2</title>
<g id="a_node2"><a xlink:href="class_black_misc_1_1_i_timestamp_based.html" target="_top" xlink:title="Entity with timestamp.">
<polygon fill="none" stroke="black" points="0,-162 0,-181 161,-181 161,-162 0,-162"/>
<text text-anchor="middle" x="80.5" y="-169" font-family="Helvetica,sans-Serif" font-size="10.00">BlackMisc::ITimestampBased</text>
</a>
</g>
</g>
<!-- Node2&#45;&gt;Node1 -->
<g id="edge1" class="edge">
<title>Node2&#45;&gt;Node1</title>
<path fill="none" stroke="midnightblue" d="M171.23,-171.5C179.8,-171.5 188.42,-171.5 196.78,-171.5"/>
<polygon fill="midnightblue" stroke="midnightblue" points="171.19,-168 161.19,-171.5 171.19,-175 171.19,-168"/>
</g>
<!-- Node4 -->
<g id="node4" class="node">
<title>Node4</title>
<g id="a_node4"><a xlink:href="class_black_misc_1_1_aviation_1_1_c_aircraft_category.html" target="_top" xlink:title="Value object for aircraft categories.">
<polygon fill="none" stroke="black" points="576.5,-546.5 576.5,-576.5 688.5,-576.5 688.5,-546.5 576.5,-546.5"/>
<text text-anchor="start" x="584.5" y="-564.5" font-family="Helvetica,sans-Serif" font-size="10.00">BlackMisc::Aviation</text>
<text text-anchor="middle" x="632.5" y="-553.5" font-family="Helvetica,sans-Serif" font-size="10.00">::CAircraftCategory</text>
</a>
</g>
</g>
<!-- Node3&#45;&gt;Node4 -->
<g id="edge3" class="edge">
<title>Node3&#45;&gt;Node4</title>
<path fill="none" stroke="midnightblue" d="M452.86,-327.5C462.5,-375.32 490.15,-480.08 555,-537.5 561.15,-542.94 568.53,-547.15 576.24,-550.41"/>
<polygon fill="midnightblue" stroke="midnightblue" points="456.29,-326.83 450.97,-317.67 449.42,-328.15 456.29,-326.83"/>
</g>
<!-- Node5 -->
<g id="node5" class="node">
<title>Node5</title>
<g id="a_node5"><a xlink:href="class_black_misc_1_1_aviation_1_1_c_aircraft_icao_code.html" target="_top" xlink:title="Value object for ICAO classification.">
<polygon fill="none" stroke="black" points="576.5,-497.5 576.5,-527.5 688.5,-527.5 688.5,-497.5 576.5,-497.5"/>
<text text-anchor="start" x="584.5" y="-515.5" font-family="Helvetica,sans-Serif" font-size="10.00">BlackMisc::Aviation</text>
<text text-anchor="middle" x="632.5" y="-504.5" font-family="Helvetica,sans-Serif" font-size="10.00">::CAircraftIcaoCode</text>
</a>
</g>
</g>
<!-- Node3&#45;&gt;Node5 -->
<g id="edge4" class="edge">
<title>Node3&#45;&gt;Node5</title>
<path fill="none" stroke="midnightblue" d="M456.06,-327.25C469.48,-367.07 501.24,-445.25 555,-488.5 561.29,-493.56 568.66,-497.56 576.29,-500.72"/>
<polygon fill="midnightblue" stroke="midnightblue" points="459.32,-325.97 452.9,-317.55 452.67,-328.14 459.32,-325.97"/>
</g>
<!-- Node6 -->
<g id="node6" class="node">
<title>Node6</title>
<g id="a_node6"><a xlink:href="class_black_misc_1_1_aviation_1_1_c_airline_icao_code.html" target="_top" xlink:title="Value object for ICAO classification.">
<polygon fill="none" stroke="black" points="576.5,-448.5 576.5,-478.5 688.5,-478.5 688.5,-448.5 576.5,-448.5"/>
<text text-anchor="start" x="584.5" y="-466.5" font-family="Helvetica,sans-Serif" font-size="10.00">BlackMisc::Aviation</text>
<text text-anchor="middle" x="632.5" y="-455.5" font-family="Helvetica,sans-Serif" font-size="10.00">::CAirlineIcaoCode</text>
</a>
</g>
</g>
<!-- Node3&#45;&gt;Node6 -->
<g id="edge5" class="edge">
<title>Node3&#45;&gt;Node6</title>
<path fill="none" stroke="midnightblue" d="M461.25,-326.86C478.51,-357.51 512.13,-409.73 555,-439.5 561.4,-443.95 568.66,-447.6 576.1,-450.58"/>
<polygon fill="midnightblue" stroke="midnightblue" points="464.11,-324.8 456.23,-317.72 457.98,-328.17 464.11,-324.8"/>
</g>
<!-- Node7 -->
<g id="node7" class="node">
<title>Node7</title>
<g id="a_node7"><a xlink:href="class_black_misc_1_1_aviation_1_1_c_airport.html" target="_top" xlink:title="Value object encapsulating information about an airpot.">
<polygon fill="none" stroke="black" points="576.5,-399.5 576.5,-429.5 688.5,-429.5 688.5,-399.5 576.5,-399.5"/>
<text text-anchor="start" x="584.5" y="-417.5" font-family="Helvetica,sans-Serif" font-size="10.00">BlackMisc::Aviation</text>
<text text-anchor="middle" x="632.5" y="-406.5" font-family="Helvetica,sans-Serif" font-size="10.00">::CAirport</text>
</a>
</g>
</g>
<!-- Node3&#45;&gt;Node7 -->
<g id="edge6" class="edge">
<title>Node3&#45;&gt;Node7</title>
<path fill="none" stroke="midnightblue" d="M470.17,-324.78C490.47,-344.51 522.48,-372.85 555,-390.5 561.61,-394.09 568.83,-397.23 576.11,-399.95"/>
<polygon fill="midnightblue" stroke="midnightblue" points="472.56,-322.22 462.99,-317.67 467.64,-327.19 472.56,-322.22"/>
</g>
<!-- Node8 -->
<g id="node8" class="node">
<title>Node8</title>
<g id="a_node8"><a xlink:href="class_black_misc_1_1_aviation_1_1_c_livery.html" target="_top" xlink:title="Value object encapsulating information about an airpot.">
<polygon fill="none" stroke="black" points="576.5,-350.5 576.5,-380.5 688.5,-380.5 688.5,-350.5 576.5,-350.5"/>
<text text-anchor="start" x="584.5" y="-368.5" font-family="Helvetica,sans-Serif" font-size="10.00">BlackMisc::Aviation</text>
<text text-anchor="middle" x="632.5" y="-357.5" font-family="Helvetica,sans-Serif" font-size="10.00">::CLivery</text>
</a>
</g>
</g>
<!-- Node3&#45;&gt;Node8 -->
<g id="edge7" class="edge">
<title>Node3&#45;&gt;Node8</title>
<path fill="none" stroke="midnightblue" d="M499.39,-320.97C516.97,-327.27 536.82,-334.29 555,-340.5 564.65,-343.8 575.02,-347.25 584.91,-350.5"/>
<polygon fill="midnightblue" stroke="midnightblue" points="500.48,-317.64 489.88,-317.56 498.11,-324.23 500.48,-317.64"/>
</g>
<!-- Node9 -->
<g id="node9" class="node">
<title>Node9</title>
<g id="a_node9"><a xlink:href="class_black_misc_1_1_db_1_1_c_artifact.html" target="_top" xlink:title="Artifacts (&quot;our software&quot; products)">
<polygon fill="none" stroke="black" points="565.5,-312 565.5,-331 699.5,-331 699.5,-312 565.5,-312"/>
<text text-anchor="middle" x="632.5" y="-319" font-family="Helvetica,sans-Serif" font-size="10.00">BlackMisc::Db::CArtifact</text>
</a>
</g>
</g>
<!-- Node3&#45;&gt;Node9 -->
<g id="edge8" class="edge">
<title>Node3&#45;&gt;Node9</title>
<path fill="none" stroke="midnightblue" d="M529.32,-310.89C541.39,-312.14 553.71,-313.42 565.43,-314.64"/>
<polygon fill="midnightblue" stroke="midnightblue" points="529.56,-307.4 519.25,-309.85 528.84,-314.36 529.56,-307.4"/>
</g>
<!-- Node10 -->
<g id="node10" class="node">
<title>Node10</title>
<g id="a_node10"><a xlink:href="class_black_misc_1_1_db_1_1_c_db_info.html" target="_top" xlink:title="Info about the latest models.">
<polygon fill="none" stroke="black" points="567,-274 567,-293 698,-293 698,-274 567,-274"/>
<text text-anchor="middle" x="632.5" y="-281" font-family="Helvetica,sans-Serif" font-size="10.00">BlackMisc::Db::CDbInfo</text>
</a>
</g>
</g>
<!-- Node3&#45;&gt;Node10 -->
<g id="edge9" class="edge">
<title>Node3&#45;&gt;Node10</title>
<path fill="none" stroke="midnightblue" d="M529.28,-294.11C541.87,-292.81 554.75,-291.47 566.92,-290.2"/>
<polygon fill="midnightblue" stroke="midnightblue" points="528.84,-290.64 519.25,-295.15 529.56,-297.6 528.84,-290.64"/>
</g>
<!-- Node11 -->
<g id="node11" class="node">
<title>Node11</title>
<g id="a_node11"><a xlink:href="class_black_misc_1_1_db_1_1_c_distribution.html" target="_top" xlink:title="Distributions for channel.">
<polygon fill="none" stroke="black" points="555,-236 555,-255 710,-255 710,-236 555,-236"/>
<text text-anchor="middle" x="632.5" y="-243" font-family="Helvetica,sans-Serif" font-size="10.00">BlackMisc::Db::CDistribution</text>
</a>
</g>
</g>
<!-- Node3&#45;&gt;Node11 -->
<g id="edge10" class="edge">
<title>Node3&#45;&gt;Node11</title>
<path fill="none" stroke="midnightblue" d="M497.34,-283.93C515.33,-277.39 535.97,-270.24 555,-264.5 566.27,-261.1 578.6,-257.84 590.01,-255.01"/>
<polygon fill="midnightblue" stroke="midnightblue" points="495.82,-280.75 487.64,-287.48 498.23,-287.33 495.82,-280.75"/>
</g>
<!-- Node12 -->
<g id="node12" class="node">
<title>Node12</title>
<g id="a_node12"><a xlink:href="class_black_misc_1_1_network_1_1_c_authenticated_user.html" target="_top" xlink:title="Value object encapsulating information of an authentiated user.">
<polygon fill="none" stroke="black" points="572.5,-186.5 572.5,-216.5 692.5,-216.5 692.5,-186.5 572.5,-186.5"/>
<text text-anchor="start" x="580.5" y="-204.5" font-family="Helvetica,sans-Serif" font-size="10.00">BlackMisc::Network</text>
<text text-anchor="middle" x="632.5" y="-193.5" font-family="Helvetica,sans-Serif" font-size="10.00">::CAuthenticatedUser</text>
</a>
</g>
</g>
<!-- Node3&#45;&gt;Node12 -->
<g id="edge11" class="edge">
<title>Node3&#45;&gt;Node12</title>
<path fill="none" stroke="midnightblue" d="M474.24,-280.71C494.97,-264.04 525.42,-241.44 555,-226.5 562.36,-222.78 570.39,-219.45 578.39,-216.52"/>
<polygon fill="midnightblue" stroke="midnightblue" points="471.79,-278.19 466.25,-287.23 476.21,-283.62 471.79,-278.19"/>
</g>
<!-- Node13 -->
<g id="node13" class="node">
<title>Node13</title>
<g id="a_node13"><a xlink:href="class_black_misc_1_1_network_1_1_c_role.html" target="_top" xlink:title="Role.">
<polygon fill="none" stroke="black" points="576,-137.5 576,-167.5 689,-167.5 689,-137.5 576,-137.5"/>
<text text-anchor="start" x="584" y="-155.5" font-family="Helvetica,sans-Serif" font-size="10.00">BlackMisc::Network</text>
<text text-anchor="middle" x="632.5" y="-144.5" font-family="Helvetica,sans-Serif" font-size="10.00">::CRole</text>
</a>
</g>
</g>
<!-- Node3&#45;&gt;Node13 -->
<g id="edge12" class="edge">
<title>Node3&#45;&gt;Node13</title>
<path fill="none" stroke="midnightblue" d="M462.81,-278.42C480.87,-250.06 514.49,-203.42 555,-176.5 561.38,-172.26 568.54,-168.74 575.87,-165.82"/>
<polygon fill="midnightblue" stroke="midnightblue" points="459.61,-276.94 457.3,-287.28 465.56,-280.64 459.61,-276.94"/>
</g>
<!-- Node14 -->
<g id="node14" class="node">
<title>Node14</title>
<g id="a_node14"><a xlink:href="class_black_misc_1_1_simulation_1_1_c_aircraft_model.html" target="_top" xlink:title="Aircraft model (used by another pilot, my models on disk)">
<polygon fill="none" stroke="black" points="570,-88.5 570,-118.5 695,-118.5 695,-88.5 570,-88.5"/>
<text text-anchor="start" x="578" y="-106.5" font-family="Helvetica,sans-Serif" font-size="10.00">BlackMisc::Simulation</text>
<text text-anchor="middle" x="632.5" y="-95.5" font-family="Helvetica,sans-Serif" font-size="10.00">::CAircraftModel</text>
</a>
</g>
</g>
<!-- Node3&#45;&gt;Node14 -->
<g id="edge13" class="edge">
<title>Node3&#45;&gt;Node14</title>
<path fill="none" stroke="midnightblue" d="M457.08,-277.59C471.41,-239.65 503.8,-167.57 555,-127.5 559.49,-123.98 564.51,-120.98 569.77,-118.41"/>
<polygon fill="midnightblue" stroke="midnightblue" points="453.67,-276.74 453.52,-287.33 460.24,-279.15 453.67,-276.74"/>
</g>
<!-- Node16 -->
<g id="node16" class="node">
<title>Node16</title>
<g id="a_node16"><a xlink:href="class_black_misc_1_1_c_country.html" target="_top" xlink:title="Color.">
<polygon fill="none" stroke="black" points="574,-50 574,-69 691,-69 691,-50 574,-50"/>
<text text-anchor="middle" x="632.5" y="-57" font-family="Helvetica,sans-Serif" font-size="10.00">BlackMisc::CCountry</text>
</a>
</g>
</g>
<!-- Node15&#45;&gt;Node16 -->
<g id="edge15" class="edge">
<title>Node15&#45;&gt;Node16</title>
<path fill="none" stroke="midnightblue" d="M529.54,-59.5C544.51,-59.5 559.86,-59.5 573.95,-59.5"/>
<polygon fill="midnightblue" stroke="midnightblue" points="529.25,-56 519.25,-59.5 529.25,-63 529.25,-56"/>
</g>
<!-- Node17 -->
<g id="node17" class="node">
<title>Node17</title>
<g id="a_node17"><a xlink:href="class_black_misc_1_1_simulation_1_1_c_distributor.html" target="_top" xlink:title="Value object encapsulating information of software distributor.">
<polygon fill="none" stroke="black" points="570,-0.5 570,-30.5 695,-30.5 695,-0.5 570,-0.5"/>
<text text-anchor="start" x="578" y="-18.5" font-family="Helvetica,sans-Serif" font-size="10.00">BlackMisc::Simulation</text>
<text text-anchor="middle" x="632.5" y="-7.5" font-family="Helvetica,sans-Serif" font-size="10.00">::CDistributor</text>
</a>
</g>
</g>
<!-- Node15&#45;&gt;Node17 -->
<g id="edge16" class="edge">
<title>Node15&#45;&gt;Node17</title>
<path fill="none" stroke="midnightblue" d="M520.94,-42.08C537.15,-38.18 554.21,-34.08 569.94,-30.3"/>
<polygon fill="midnightblue" stroke="midnightblue" points="519.87,-38.74 510.97,-44.48 521.51,-45.55 519.87,-38.74"/>
</g>
</g>
</svg>
