<?xml version="1.0" encoding="UTF-8" standalone="no"?>
<!DOCTYPE svg PUBLIC "-//W3C//DTD SVG 1.1//EN"
 "http://www.w3.org/Graphics/SVG/1.1/DTD/svg11.dtd">
<!-- Generated by graphviz version 2.43.0 (0)
 -->
<!-- Title: BlackMisc::CLogHistoryReplica Pages: 1 -->
<svg width="191pt" height="229pt"
 viewBox="0.00 0.00 191.00 229.00" xmlns="http://www.w3.org/2000/svg" xmlns:xlink="http://www.w3.org/1999/xlink">
<g id="graph0" class="graph" transform="scale(1 1) rotate(0) translate(4 225)">
<title>BlackMisc::CLogHistoryReplica</title>
<!-- Node1 -->
<g id="node1" class="node">
<title>Node1</title>
<g id="a_node1"><a xlink:title="Allows distributed access to the log messages of a central CLogHistory.">
<polygon fill="#bfbfbf" stroke="black" points="8,-0.5 8,-19.5 175,-19.5 175,-0.5 8,-0.5"/>
<text text-anchor="middle" x="91.5" y="-7.5" font-family="Helvetica,sans-Serif" font-size="10.00">BlackMisc::CLogHistoryReplica</text>
</a>
</g>
</g>
<!-- Node2 -->
<g id="node2" class="node">
<title>Node2</title>
<g id="a_node2"><a xlink:href="class_black_misc_1_1_shared_state_1_1_c_list_observer.html" target="_top" xlink:title=" ">
<polygon fill="none" stroke="black" points="0,-56.5 0,-97.5 183,-97.5 183,-56.5 0,-56.5"/>
<text text-anchor="start" x="8" y="-85.5" font-family="Helvetica,sans-Serif" font-size="10.00">BlackMisc::SharedState</text>
<text text-anchor="start" x="8" y="-74.5" font-family="Helvetica,sans-Serif" font-size="10.00">::CListObserver&lt; CStatusMessage</text>
<text text-anchor="middle" x="91.5" y="-63.5" font-family="Helvetica,sans-Serif" font-size="10.00">List, CLogPattern &gt;</text>
</a>
</g>
</g>
<!-- Node2&#45;&gt;Node1 -->
<g id="edge1" class="edge">
<title>Node2&#45;&gt;Node1</title>
<path fill="none" stroke="midnightblue" d="M91.5,-46.26C91.5,-36.56 91.5,-26.52 91.5,-19.65"/>
<polygon fill="midnightblue" stroke="midnightblue" points="88,-46.5 91.5,-56.5 95,-46.5 88,-46.5"/>
</g>
<!-- Node3 -->
<g id="node3" class="node">
<title>Node3</title>
<g id="a_node3"><a xlink:href="class_black_misc_1_1_shared_state_1_1_c_generic_list_observer.html" target="_top" xlink:title="Non&#45;template base class for CListObserver.">
<polygon fill="none" stroke="black" points="26,-134.5 26,-164.5 157,-164.5 157,-134.5 26,-134.5"/>
<text text-anchor="start" x="34" y="-152.5" font-family="Helvetica,sans-Serif" font-size="10.00">BlackMisc::SharedState</text>
<text text-anchor="middle" x="91.5" y="-141.5" font-family="Helvetica,sans-Serif" font-size="10.00">::CGenericListObserver</text>
</a>
</g>
</g>
<!-- Node3&#45;&gt;Node2 -->
<g id="edge2" class="edge">
<title>Node3&#45;&gt;Node2</title>
<path fill="none" stroke="midnightblue" d="M91.5,-123.98C91.5,-115.35 91.5,-105.76 91.5,-97.59"/>
<polygon fill="midnightblue" stroke="midnightblue" points="88,-124.23 91.5,-134.23 95,-124.23 88,-124.23"/>
</g>
<!-- Node4 -->
<g id="node4" class="node">
<title>Node4</title>
<g id="a_node4"><a target="_parent" xlink:href="http://doc.qt.io/qt-5/qobject.html" xlink:title=" ">
<polygon fill="none" stroke="black" points="63.5,-201.5 63.5,-220.5 119.5,-220.5 119.5,-201.5 63.5,-201.5"/>
<text text-anchor="middle" x="91.5" y="-208.5" font-family="Helvetica,sans-Serif" font-size="10.00">QObject</text>
</a>
</g>
</g>
<!-- Node4&#45;&gt;Node3 -->
<g id="edge3" class="edge">
<title>Node4&#45;&gt;Node3</title>
<path fill="none" stroke="midnightblue" d="M91.5,-191.23C91.5,-182.59 91.5,-172.5 91.5,-164.52"/>
<polygon fill="midnightblue" stroke="midnightblue" points="88,-191.48 91.5,-201.48 95,-191.48 88,-191.48"/>
</g>
</g>
</svg>
