<?xml version="1.0" encoding="UTF-8" standalone="no"?>
<!DOCTYPE svg PUBLIC "-//W3C//DTD SVG 1.1//EN"
 "http://www.w3.org/Graphics/SVG/1.1/DTD/svg11.dtd">
<!-- Generated by graphviz version 2.43.0 (0)
 -->
<!-- Title: BlackCore::IProgressIndicator Pages: 1 -->
<svg width="415pt" height="137pt"
 viewBox="0.00 0.00 415.00 137.00" xmlns="http://www.w3.org/2000/svg" xmlns:xlink="http://www.w3.org/1999/xlink">
<g id="graph0" class="graph" transform="scale(1 1) rotate(0) translate(4 133)">
<title>BlackCore::IProgressIndicator</title>
<!-- Node1 -->
<g id="node1" class="node">
<title>Node1</title>
<g id="a_node1"><a xlink:title="Implementing class features a progress bar or something similar.">
<polygon fill="#bfbfbf" stroke="black" points="0,-55 0,-74 160,-74 160,-55 0,-55"/>
<text text-anchor="middle" x="80" y="-62" font-family="Helvetica,sans-Serif" font-size="10.00">BlackCore::IProgressIndicator</text>
</a>
</g>
</g>
<!-- Node2 -->
<g id="node2" class="node">
<title>Node2</title>
<g id="a_node2"><a xlink:href="class_black_gui_1_1_components_1_1_c_db_auto_simulator_stashing_component.html" target="_top" xlink:title="Allows to automatically update models if found in own model set, but already existing for a sibling s...">
<polygon fill="none" stroke="black" points="196,-98.5 196,-128.5 407,-128.5 407,-98.5 196,-98.5"/>
<text text-anchor="start" x="204" y="-116.5" font-family="Helvetica,sans-Serif" font-size="10.00">BlackGui::Components</text>
<text text-anchor="middle" x="301.5" y="-105.5" font-family="Helvetica,sans-Serif" font-size="10.00">::CDbAutoSimulatorStashingComponent</text>
</a>
</g>
</g>
<!-- Node1&#45;&gt;Node2 -->
<g id="edge1" class="edge">
<title>Node1&#45;&gt;Node2</title>
<path fill="none" stroke="midnightblue" d="M133.38,-76.19C163.22,-82.86 200.94,-91.27 232.99,-98.43"/>
<polygon fill="midnightblue" stroke="midnightblue" points="134.1,-72.77 123.58,-74.01 132.58,-79.6 134.1,-72.77"/>
</g>
<!-- Node3 -->
<g id="node3" class="node">
<title>Node3</title>
<g id="a_node3"><a xlink:href="class_black_gui_1_1_components_1_1_c_db_auto_stashing_component.html" target="_top" xlink:title="Stashing component.">
<polygon fill="none" stroke="black" points="219.5,-49.5 219.5,-79.5 383.5,-79.5 383.5,-49.5 219.5,-49.5"/>
<text text-anchor="start" x="227.5" y="-67.5" font-family="Helvetica,sans-Serif" font-size="10.00">BlackGui::Components</text>
<text text-anchor="middle" x="301.5" y="-56.5" font-family="Helvetica,sans-Serif" font-size="10.00">::CDbAutoStashingComponent</text>
</a>
</g>
</g>
<!-- Node1&#45;&gt;Node3 -->
<g id="edge2" class="edge">
<title>Node1&#45;&gt;Node3</title>
<path fill="none" stroke="midnightblue" d="M170.69,-64.5C186.73,-64.5 203.36,-64.5 219.16,-64.5"/>
<polygon fill="midnightblue" stroke="midnightblue" points="170.24,-61 160.24,-64.5 170.24,-68 170.24,-61"/>
</g>
<!-- Node4 -->
<g id="node4" class="node">
<title>Node4</title>
<g id="a_node4"><a xlink:href="class_black_gui_1_1_components_1_1_c_db_reduce_model_duplicates.html" target="_top" xlink:title="Reduce modelss.">
<polygon fill="none" stroke="black" points="221,-0.5 221,-30.5 382,-30.5 382,-0.5 221,-0.5"/>
<text text-anchor="start" x="229" y="-18.5" font-family="Helvetica,sans-Serif" font-size="10.00">BlackGui::Components</text>
<text text-anchor="middle" x="301.5" y="-7.5" font-family="Helvetica,sans-Serif" font-size="10.00">::CDbReduceModelDuplicates</text>
</a>
</g>
</g>
<!-- Node1&#45;&gt;Node4 -->
<g id="edge3" class="edge">
<title>Node1&#45;&gt;Node4</title>
<path fill="none" stroke="midnightblue" d="M133.38,-52.81C163.22,-46.14 200.94,-37.73 232.99,-30.57"/>
<polygon fill="midnightblue" stroke="midnightblue" points="132.58,-49.4 123.58,-54.99 134.1,-56.23 132.58,-49.4"/>
</g>
</g>
</svg>
