<?xml version="1.0" encoding="UTF-8" standalone="no"?>
<!DOCTYPE svg PUBLIC "-//W3C//DTD SVG 1.1//EN"
 "http://www.w3.org/Graphics/SVG/1.1/DTD/svg11.dtd">
<!-- Generated by graphviz version 2.43.0 (0)
 -->
<!-- Title: BlackGui::Components::CInitialDataLoadWizardPage Pages: 1 -->
<svg width="174pt" height="207pt"
 viewBox="0.00 0.00 173.50 207.00" xmlns="http://www.w3.org/2000/svg" xmlns:xlink="http://www.w3.org/1999/xlink">
<g id="graph0" class="graph" transform="scale(1 1) rotate(0) translate(4 203)">
<title>BlackGui::Components::CInitialDataLoadWizardPage</title>
<!-- Node1 -->
<g id="node1" class="node">
<title>Node1</title>
<g id="a_node1"><a xlink:title="Wizard page for CInitialDataLoadComponent.">
<polygon fill="#bfbfbf" stroke="black" points="0,-0.5 0,-30.5 161,-30.5 161,-0.5 0,-0.5"/>
<text text-anchor="start" x="8" y="-18.5" font-family="Helvetica,sans-Serif" font-size="10.00">BlackGui::Components</text>
<text text-anchor="middle" x="80.5" y="-7.5" font-family="Helvetica,sans-Serif" font-size="10.00">::CInitialDataLoadWizardPage</text>
</a>
</g>
</g>
<!-- Node2 -->
<g id="node2" class="node">
<title>Node2</title>
<g id="a_node2"><a target="_parent" xlink:href="http://doc.qt.io/qt-5/qwizardpage.html" xlink:title=" ">
<polygon fill="none" stroke="black" points="40,-67.5 40,-86.5 121,-86.5 121,-67.5 40,-67.5"/>
<text text-anchor="middle" x="80.5" y="-74.5" font-family="Helvetica,sans-Serif" font-size="10.00">QWizardPage</text>
</a>
</g>
</g>
<!-- Node2&#45;&gt;Node1 -->
<g id="edge1" class="edge">
<title>Node2&#45;&gt;Node1</title>
<path fill="none" stroke="midnightblue" d="M80.5,-57.23C80.5,-48.59 80.5,-38.5 80.5,-30.52"/>
<polygon fill="midnightblue" stroke="midnightblue" points="77,-57.48 80.5,-67.48 84,-57.48 77,-57.48"/>
</g>
<!-- Node3 -->
<g id="node3" class="node">
<title>Node3</title>
<g id="a_node3"><a target="_parent" xlink:href="http://doc.qt.io/qt-5/qwidget.html" xlink:title=" ">
<polygon fill="none" stroke="black" points="51,-123.5 51,-142.5 110,-142.5 110,-123.5 51,-123.5"/>
<text text-anchor="middle" x="80.5" y="-130.5" font-family="Helvetica,sans-Serif" font-size="10.00">QWidget</text>
</a>
</g>
</g>
<!-- Node3&#45;&gt;Node2 -->
<g id="edge2" class="edge">
<title>Node3&#45;&gt;Node2</title>
<path fill="none" stroke="midnightblue" d="M80.5,-112.8C80.5,-103.91 80.5,-93.78 80.5,-86.75"/>
<polygon fill="midnightblue" stroke="midnightblue" points="77,-113.08 80.5,-123.08 84,-113.08 77,-113.08"/>
</g>
<!-- Node4 -->
<g id="node4" class="node">
<title>Node4</title>
<g id="a_node4"><a target="_parent" xlink:href="http://doc.qt.io/qt-5/qobject.html" xlink:title=" ">
<polygon fill="none" stroke="black" points="9.5,-179.5 9.5,-198.5 65.5,-198.5 65.5,-179.5 9.5,-179.5"/>
<text text-anchor="middle" x="37.5" y="-186.5" font-family="Helvetica,sans-Serif" font-size="10.00">QObject</text>
</a>
</g>
</g>
<!-- Node4&#45;&gt;Node3 -->
<g id="edge3" class="edge">
<title>Node4&#45;&gt;Node3</title>
<path fill="none" stroke="midnightblue" d="M50.92,-171.14C58.41,-161.74 67.44,-150.4 73.53,-142.75"/>
<polygon fill="midnightblue" stroke="midnightblue" points="48.09,-169.08 44.6,-179.08 53.57,-173.44 48.09,-169.08"/>
</g>
<!-- Node5 -->
<g id="node5" class="node">
<title>Node5</title>
<g id="a_node5"><a target="_parent" xlink:href="http://doc.qt.io/qt-5/qpaintdevice.html" xlink:title=" ">
<polygon fill="none" stroke="black" points="83.5,-179.5 83.5,-198.5 165.5,-198.5 165.5,-179.5 83.5,-179.5"/>
<text text-anchor="middle" x="124.5" y="-186.5" font-family="Helvetica,sans-Serif" font-size="10.00">QPaintDevice</text>
</a>
</g>
</g>
<!-- Node5&#45;&gt;Node3 -->
<g id="edge4" class="edge">
<title>Node5&#45;&gt;Node3</title>
<path fill="none" stroke="midnightblue" d="M110.77,-171.14C103.1,-161.74 93.87,-150.4 87.63,-142.75"/>
<polygon fill="midnightblue" stroke="midnightblue" points="108.2,-173.54 117.23,-179.08 113.63,-169.12 108.2,-173.54"/>
</g>
</g>
</svg>
