<?xml version="1.0" encoding="UTF-8" standalone="no"?>
<!DOCTYPE svg PUBLIC "-//W3C//DTD SVG 1.1//EN"
 "http://www.w3.org/Graphics/SVG/1.1/DTD/svg11.dtd">
<!-- Generated by graphviz version 2.43.0 (0)
 -->
<!-- Title: BlackGui::Components::CDbMappingComponentAware Pages: 1 -->
<svg width="427pt" height="333pt"
 viewBox="0.00 0.00 427.00 333.00" xmlns="http://www.w3.org/2000/svg" xmlns:xlink="http://www.w3.org/1999/xlink">
<g id="graph0" class="graph" transform="scale(1 1) rotate(0) translate(4 329)">
<title>BlackGui::Components::CDbMappingComponentAware</title>
<!-- Node1 -->
<g id="node1" class="node">
<title>Node1</title>
<g id="a_node1"><a xlink:title="Allows subcomponents to gain access to model component.">
<polygon fill="#bfbfbf" stroke="black" points="0,-147.5 0,-177.5 172,-177.5 172,-147.5 0,-147.5"/>
<text text-anchor="start" x="8" y="-165.5" font-family="Helvetica,sans-Serif" font-size="10.00">BlackGui::Components</text>
<text text-anchor="middle" x="86" y="-154.5" font-family="Helvetica,sans-Serif" font-size="10.00">::CDbMappingComponentAware</text>
</a>
</g>
</g>
<!-- Node2 -->
<g id="node2" class="node">
<title>Node2</title>
<g id="a_node2"><a xlink:href="class_black_gui_1_1_components_1_1_c_db_auto_simulator_stashing_component.html" target="_top" xlink:title="Allows to automatically update models if found in own model set, but already existing for a sibling s...">
<polygon fill="none" stroke="black" points="208,-294.5 208,-324.5 419,-324.5 419,-294.5 208,-294.5"/>
<text text-anchor="start" x="216" y="-312.5" font-family="Helvetica,sans-Serif" font-size="10.00">BlackGui::Components</text>
<text text-anchor="middle" x="313.5" y="-301.5" font-family="Helvetica,sans-Serif" font-size="10.00">::CDbAutoSimulatorStashingComponent</text>
</a>
</g>
</g>
<!-- Node1&#45;&gt;Node2 -->
<g id="edge1" class="edge">
<title>Node1&#45;&gt;Node2</title>
<path fill="none" stroke="midnightblue" d="M103.27,-185.77C124.19,-213.87 163.21,-260.47 208,-285.5 214.17,-288.95 220.82,-291.91 227.66,-294.44"/>
<polygon fill="midnightblue" stroke="midnightblue" points="106.09,-183.7 97.37,-177.69 100.44,-187.83 106.09,-183.7"/>
</g>
<!-- Node3 -->
<g id="node3" class="node">
<title>Node3</title>
<g id="a_node3"><a xlink:href="class_black_gui_1_1_components_1_1_c_db_auto_stashing_component.html" target="_top" xlink:title="Stashing component.">
<polygon fill="none" stroke="black" points="231.5,-245.5 231.5,-275.5 395.5,-275.5 395.5,-245.5 231.5,-245.5"/>
<text text-anchor="start" x="239.5" y="-263.5" font-family="Helvetica,sans-Serif" font-size="10.00">BlackGui::Components</text>
<text text-anchor="middle" x="313.5" y="-252.5" font-family="Helvetica,sans-Serif" font-size="10.00">::CDbAutoStashingComponent</text>
</a>
</g>
</g>
<!-- Node1&#45;&gt;Node3 -->
<g id="edge2" class="edge">
<title>Node1&#45;&gt;Node3</title>
<path fill="none" stroke="midnightblue" d="M115.49,-183.6C139.16,-200.2 174.29,-222.75 208,-236.5 216.36,-239.91 225.3,-242.89 234.31,-245.48"/>
<polygon fill="midnightblue" stroke="midnightblue" points="117.49,-180.73 107.32,-177.78 113.43,-186.43 117.49,-180.73"/>
</g>
<!-- Node4 -->
<g id="node4" class="node">
<title>Node4</title>
<g id="a_node4"><a xlink:href="class_black_gui_1_1_components_1_1_c_db_model_component.html" target="_top" xlink:title="Database models.">
<polygon fill="none" stroke="black" points="249,-196.5 249,-226.5 378,-226.5 378,-196.5 249,-196.5"/>
<text text-anchor="start" x="257" y="-214.5" font-family="Helvetica,sans-Serif" font-size="10.00">BlackGui::Components</text>
<text text-anchor="middle" x="313.5" y="-203.5" font-family="Helvetica,sans-Serif" font-size="10.00">::CDbModelComponent</text>
</a>
</g>
</g>
<!-- Node1&#45;&gt;Node4 -->
<g id="edge3" class="edge">
<title>Node1&#45;&gt;Node4</title>
<path fill="none" stroke="midnightblue" d="M166.03,-179.67C193.13,-185.56 223.09,-192.07 248.82,-197.66"/>
<polygon fill="midnightblue" stroke="midnightblue" points="166.71,-176.24 156.19,-177.53 165.22,-183.08 166.71,-176.24"/>
</g>
<!-- Node5 -->
<g id="node5" class="node">
<title>Node5</title>
<g id="a_node5"><a xlink:href="class_black_gui_1_1_components_1_1_c_db_model_mapping_modify_dialog.html" target="_top" xlink:title="Modify model fields as dialog.">
<polygon fill="none" stroke="black" points="224,-147.5 224,-177.5 403,-177.5 403,-147.5 224,-147.5"/>
<text text-anchor="start" x="232" y="-165.5" font-family="Helvetica,sans-Serif" font-size="10.00">BlackGui::Components</text>
<text text-anchor="middle" x="313.5" y="-154.5" font-family="Helvetica,sans-Serif" font-size="10.00">::CDbModelMappingModifyDialog</text>
</a>
</g>
</g>
<!-- Node1&#45;&gt;Node5 -->
<g id="edge4" class="edge">
<title>Node1&#45;&gt;Node5</title>
<path fill="none" stroke="midnightblue" d="M182.61,-162.5C196.25,-162.5 210.24,-162.5 223.75,-162.5"/>
<polygon fill="midnightblue" stroke="midnightblue" points="182.25,-159 172.25,-162.5 182.25,-166 182.25,-159"/>
</g>
<!-- Node6 -->
<g id="node6" class="node">
<title>Node6</title>
<g id="a_node6"><a xlink:href="class_black_gui_1_1_components_1_1_c_db_own_model_set_component.html" target="_top" xlink:title="Handling of the own model set.">
<polygon fill="none" stroke="black" points="230,-98.5 230,-128.5 397,-128.5 397,-98.5 230,-98.5"/>
<text text-anchor="start" x="238" y="-116.5" font-family="Helvetica,sans-Serif" font-size="10.00">BlackGui::Components</text>
<text text-anchor="middle" x="313.5" y="-105.5" font-family="Helvetica,sans-Serif" font-size="10.00">::CDbOwnModelSetComponent</text>
</a>
</g>
</g>
<!-- Node1&#45;&gt;Node6 -->
<g id="edge5" class="edge">
<title>Node1&#45;&gt;Node6</title>
<path fill="none" stroke="midnightblue" d="M166.09,-145.31C191.3,-139.84 218.99,-133.82 243.44,-128.51"/>
<polygon fill="midnightblue" stroke="midnightblue" points="165.22,-141.92 156.19,-147.47 166.71,-148.76 165.22,-141.92"/>
</g>
<!-- Node7 -->
<g id="node7" class="node">
<title>Node7</title>
<g id="a_node7"><a xlink:href="class_black_gui_1_1_components_1_1_c_db_own_model_set_form_dialog.html" target="_top" xlink:title="Dialog to create new model set.">
<polygon fill="none" stroke="black" points="230,-49.5 230,-79.5 397,-79.5 397,-49.5 230,-49.5"/>
<text text-anchor="start" x="238" y="-67.5" font-family="Helvetica,sans-Serif" font-size="10.00">BlackGui::Components</text>
<text text-anchor="middle" x="313.5" y="-56.5" font-family="Helvetica,sans-Serif" font-size="10.00">::CDbOwnModelSetFormDialog</text>
</a>
</g>
</g>
<!-- Node1&#45;&gt;Node7 -->
<g id="edge6" class="edge">
<title>Node1&#45;&gt;Node7</title>
<path fill="none" stroke="midnightblue" d="M116.31,-141.27C140.01,-125.01 174.78,-103.11 208,-89.5 217.24,-85.72 227.17,-82.42 237.12,-79.58"/>
<polygon fill="midnightblue" stroke="midnightblue" points="114,-138.62 107.8,-147.2 118,-144.36 114,-138.62"/>
</g>
<!-- Node8 -->
<g id="node8" class="node">
<title>Node8</title>
<g id="a_node8"><a xlink:href="class_black_gui_1_1_components_1_1_c_db_stash_component.html" target="_top" xlink:title="Stashed objects.">
<polygon fill="none" stroke="black" points="249.5,-0.5 249.5,-30.5 377.5,-30.5 377.5,-0.5 249.5,-0.5"/>
<text text-anchor="start" x="257.5" y="-18.5" font-family="Helvetica,sans-Serif" font-size="10.00">BlackGui::Components</text>
<text text-anchor="middle" x="313.5" y="-7.5" font-family="Helvetica,sans-Serif" font-size="10.00">::CDbStashComponent</text>
</a>
</g>
</g>
<!-- Node1&#45;&gt;Node8 -->
<g id="edge7" class="edge">
<title>Node1&#45;&gt;Node8</title>
<path fill="none" stroke="midnightblue" d="M103.62,-139.13C124.69,-111.29 163.65,-65.43 208,-40.5 220.6,-33.42 235.15,-28.33 249.31,-24.68"/>
<polygon fill="midnightblue" stroke="midnightblue" points="100.57,-137.36 97.43,-147.48 106.19,-141.53 100.57,-137.36"/>
</g>
</g>
</svg>
