<?xml version="1.0" encoding="UTF-8" standalone="no"?>
<!DOCTYPE svg PUBLIC "-//W3C//DTD SVG 1.1//EN"
 "http://www.w3.org/Graphics/SVG/1.1/DTD/svg11.dtd">
<!-- Generated by graphviz version 2.43.0 (0)
 -->
<!-- Title: BlackMisc::SharedState::CGenericListJournal Pages: 1 -->
<svg width="611pt" height="160pt"
 viewBox="0.00 0.00 611.00 159.50" xmlns="http://www.w3.org/2000/svg" xmlns:xlink="http://www.w3.org/1999/xlink">
<g id="graph0" class="graph" transform="scale(1 1) rotate(0) translate(4 155.5)">
<title>BlackMisc::SharedState::CGenericListJournal</title>
<!-- Node1 -->
<g id="node1" class="node">
<title>Node1</title>
<g id="a_node1"><a xlink:title="Non&#45;template base class for CListJournal.">
<polygon fill="#bfbfbf" stroke="black" points="92,-55.5 92,-85.5 223,-85.5 223,-55.5 92,-55.5"/>
<text text-anchor="start" x="100" y="-73.5" font-family="Helvetica,sans-Serif" font-size="10.00">BlackMisc::SharedState</text>
<text text-anchor="middle" x="157.5" y="-62.5" font-family="Helvetica,sans-Serif" font-size="10.00">::CGenericListJournal</text>
</a>
</g>
</g>
<!-- Node3 -->
<g id="node3" class="node">
<title>Node3</title>
<g id="a_node3"><a xlink:href="class_black_misc_1_1_shared_state_1_1_c_list_journal.html" target="_top" xlink:title=" ">
<polygon fill="none" stroke="black" points="280,-110 280,-151 411,-151 411,-110 280,-110"/>
<text text-anchor="start" x="288" y="-139" font-family="Helvetica,sans-Serif" font-size="10.00">BlackMisc::SharedState</text>
<text text-anchor="start" x="288" y="-128" font-family="Helvetica,sans-Serif" font-size="10.00">::CListJournal&lt; QList</text>
<text text-anchor="middle" x="345.5" y="-117" font-family="Helvetica,sans-Serif" font-size="10.00">&lt; int &gt; &gt;</text>
</a>
</g>
</g>
<!-- Node1&#45;&gt;Node3 -->
<g id="edge2" class="edge">
<title>Node1&#45;&gt;Node3</title>
<path fill="none" stroke="midnightblue" d="M215.05,-88.74C235.79,-95.43 259.39,-103.05 280.72,-109.92"/>
<polygon fill="midnightblue" stroke="midnightblue" points="216.03,-85.38 205.44,-85.64 213.88,-92.04 216.03,-85.38"/>
</g>
<!-- Node5 -->
<g id="node5" class="node">
<title>Node5</title>
<g id="a_node5"><a xlink:href="class_black_misc_1_1_shared_state_1_1_c_list_journal.html" target="_top" xlink:title=" ">
<polygon fill="none" stroke="black" points="259,-50 259,-91 432,-91 432,-50 259,-50"/>
<text text-anchor="start" x="267" y="-79" font-family="Helvetica,sans-Serif" font-size="10.00">BlackMisc::SharedState</text>
<text text-anchor="start" x="267" y="-68" font-family="Helvetica,sans-Serif" font-size="10.00">::CListJournal&lt; CStatusMessage</text>
<text text-anchor="middle" x="345.5" y="-57" font-family="Helvetica,sans-Serif" font-size="10.00">List &gt;</text>
</a>
</g>
</g>
<!-- Node1&#45;&gt;Node5 -->
<g id="edge4" class="edge">
<title>Node1&#45;&gt;Node5</title>
<path fill="none" stroke="midnightblue" d="M233.18,-70.5C241.61,-70.5 250.24,-70.5 258.79,-70.5"/>
<polygon fill="midnightblue" stroke="midnightblue" points="233.03,-67 223.03,-70.5 233.03,-74 233.03,-67"/>
</g>
<!-- Node7 -->
<g id="node7" class="node">
<title>Node7</title>
<g id="a_node7"><a xlink:href="class_black_misc_1_1_shared_state_1_1_c_list_journal.html" target="_top" xlink:title="Base class for an object that shares state with a corresponding CListObserver subclass object.">
<polygon fill="none" stroke="black" points="280,-0.5 280,-30.5 411,-30.5 411,-0.5 280,-0.5"/>
<text text-anchor="start" x="288" y="-18.5" font-family="Helvetica,sans-Serif" font-size="10.00">BlackMisc::SharedState</text>
<text text-anchor="middle" x="345.5" y="-7.5" font-family="Helvetica,sans-Serif" font-size="10.00">::CListJournal&lt; T &gt;</text>
</a>
</g>
</g>
<!-- Node1&#45;&gt;Node7 -->
<g id="edge6" class="edge">
<title>Node1&#45;&gt;Node7</title>
<path fill="none" stroke="midnightblue" d="M218.19,-52.62C231.61,-48.62 245.79,-44.4 259,-40.5 269.98,-37.26 281.75,-33.8 292.94,-30.52"/>
<polygon fill="midnightblue" stroke="midnightblue" points="217.16,-49.28 208.58,-55.49 219.16,-55.98 217.16,-49.28"/>
</g>
<!-- Node2 -->
<g id="node2" class="node">
<title>Node2</title>
<g id="a_node2"><a target="_parent" xlink:href="http://doc.qt.io/qt-5/qobject.html" xlink:title=" ">
<polygon fill="none" stroke="black" points="0,-61 0,-80 56,-80 56,-61 0,-61"/>
<text text-anchor="middle" x="28" y="-68" font-family="Helvetica,sans-Serif" font-size="10.00">QObject</text>
</a>
</g>
</g>
<!-- Node2&#45;&gt;Node1 -->
<g id="edge1" class="edge">
<title>Node2&#45;&gt;Node1</title>
<path fill="none" stroke="midnightblue" d="M66.24,-70.5C74.35,-70.5 83.16,-70.5 91.99,-70.5"/>
<polygon fill="midnightblue" stroke="midnightblue" points="66.04,-67 56.04,-70.5 66.04,-74 66.04,-67"/>
</g>
<!-- Node4 -->
<g id="node4" class="node">
<title>Node4</title>
<g id="a_node4"><a xlink:href="class_black_misc_test_1_1_c_test_list_journal.html" target="_top" xlink:title="List journal subclass.">
<polygon fill="none" stroke="black" points="468,-115.5 468,-145.5 603,-145.5 603,-115.5 468,-115.5"/>
<text text-anchor="start" x="476" y="-133.5" font-family="Helvetica,sans-Serif" font-size="10.00">BlackMiscTest::CTestList</text>
<text text-anchor="middle" x="535.5" y="-122.5" font-family="Helvetica,sans-Serif" font-size="10.00">Journal</text>
</a>
</g>
</g>
<!-- Node3&#45;&gt;Node4 -->
<g id="edge3" class="edge">
<title>Node3&#45;&gt;Node4</title>
<path fill="none" stroke="midnightblue" d="M421.63,-130.5C436.88,-130.5 452.82,-130.5 467.76,-130.5"/>
<polygon fill="midnightblue" stroke="midnightblue" points="421.2,-127 411.2,-130.5 421.2,-134 421.2,-127"/>
</g>
<!-- Node6 -->
<g id="node6" class="node">
<title>Node6</title>
<g id="a_node6"><a xlink:href="class_black_misc_1_1_c_log_history.html" target="_top" xlink:title="Records all log messages to a list that persists for the lifetime of the application.">
<polygon fill="none" stroke="black" points="470,-61 470,-80 601,-80 601,-61 470,-61"/>
<text text-anchor="middle" x="535.5" y="-68" font-family="Helvetica,sans-Serif" font-size="10.00">BlackMisc::CLogHistory</text>
</a>
</g>
</g>
<!-- Node5&#45;&gt;Node6 -->
<g id="edge5" class="edge">
<title>Node5&#45;&gt;Node6</title>
<path fill="none" stroke="midnightblue" d="M442.38,-70.5C451.73,-70.5 461.05,-70.5 469.98,-70.5"/>
<polygon fill="midnightblue" stroke="midnightblue" points="442.25,-67 432.25,-70.5 442.25,-74 442.25,-67"/>
</g>
</g>
</svg>
