<?xml version="1.0" encoding="UTF-8" standalone="no"?>
<!DOCTYPE svg PUBLIC "-//W3C//DTD SVG 1.1//EN"
 "http://www.w3.org/Graphics/SVG/1.1/DTD/svg11.dtd">
<!-- Generated by graphviz version 2.43.0 (0)
 -->
<!-- Title: BlackMisc::Geo::CCoordinateGeodeticList Pages: 1 -->
<svg width="790pt" height="345pt"
 viewBox="0.00 0.00 790.00 345.00" xmlns="http://www.w3.org/2000/svg" xmlns:xlink="http://www.w3.org/1999/xlink">
<g id="graph0" class="graph" transform="scale(1 1) rotate(0) translate(4 341)">
<title>BlackMisc::Geo::CCoordinateGeodeticList</title>
<!-- Node1 -->
<g id="node1" class="node">
<title>Node1</title>
<g id="a_node1"><a xlink:title="Value object encapsulating a list of coordinates.">
<polygon fill="#bfbfbf" stroke="black" points="624,-76.5 624,-106.5 782,-106.5 782,-76.5 624,-76.5"/>
<text text-anchor="start" x="632" y="-94.5" font-family="Helvetica,sans-Serif" font-size="10.00">BlackMisc::Geo::CCoordinate</text>
<text text-anchor="middle" x="703" y="-83.5" font-family="Helvetica,sans-Serif" font-size="10.00">GeodeticList</text>
</a>
</g>
</g>
<!-- Node2 -->
<g id="node2" class="node">
<title>Node2</title>
<g id="a_node2"><a xlink:href="class_black_misc_1_1_c_sequence.html" target="_top" xlink:title=" ">
<polygon fill="none" stroke="black" points="430,-159.5 430,-189.5 573,-189.5 573,-159.5 430,-159.5"/>
<text text-anchor="start" x="438" y="-177.5" font-family="Helvetica,sans-Serif" font-size="10.00">BlackMisc::CSequence</text>
<text text-anchor="middle" x="501.5" y="-166.5" font-family="Helvetica,sans-Serif" font-size="10.00">&lt; CCoordinateGeodetic &gt;</text>
</a>
</g>
</g>
<!-- Node2&#45;&gt;Node1 -->
<g id="edge1" class="edge">
<title>Node2&#45;&gt;Node1</title>
<path fill="none" stroke="midnightblue" d="M569.49,-156.22C575.8,-154.1 582.06,-151.86 588,-149.5 619.17,-137.14 653.23,-119.18 675.93,-106.53"/>
<polygon fill="midnightblue" stroke="midnightblue" points="568.01,-153.02 559.57,-159.42 570.16,-159.68 568.01,-153.02"/>
</g>
<!-- Node3 -->
<g id="node3" class="node">
<title>Node3</title>
<g id="a_node3"><a xlink:href="class_black_misc_1_1_c_container_base.html" target="_top" xlink:title="Base class for CCollection and CSequence adding mutating operations and CValueObject facility on top ...">
<polygon fill="none" stroke="black" points="222,-208.5 222,-238.5 372,-238.5 372,-208.5 222,-208.5"/>
<text text-anchor="start" x="230" y="-226.5" font-family="Helvetica,sans-Serif" font-size="10.00">BlackMisc::CContainerBase</text>
<text text-anchor="middle" x="297" y="-215.5" font-family="Helvetica,sans-Serif" font-size="10.00">&lt; Derived &gt;</text>
</a>
</g>
</g>
<!-- Node3&#45;&gt;Node2 -->
<g id="edge2" class="edge">
<title>Node3&#45;&gt;Node2</title>
<path fill="none" stroke="midnightblue" d="M369.92,-206.1C392.33,-200.68 416.82,-194.75 438.48,-189.51"/>
<polygon fill="midnightblue" stroke="midnightblue" points="369.03,-202.71 360.13,-208.47 370.68,-209.52 369.03,-202.71"/>
</g>
<!-- Node4 -->
<g id="node4" class="node">
<title>Node4</title>
<g id="a_node4"><a xlink:href="class_black_misc_1_1_c_range_base.html" target="_top" xlink:title="Any container class with begin and end iterators can inherit from this CRTP class to gain some useful...">
<polygon fill="none" stroke="black" points="22.5,-306.5 22.5,-336.5 156.5,-336.5 156.5,-306.5 22.5,-306.5"/>
<text text-anchor="start" x="30.5" y="-324.5" font-family="Helvetica,sans-Serif" font-size="10.00">BlackMisc::CRangeBase</text>
<text text-anchor="middle" x="89.5" y="-313.5" font-family="Helvetica,sans-Serif" font-size="10.00">&lt; Derived &gt;</text>
</a>
</g>
</g>
<!-- Node4&#45;&gt;Node3 -->
<g id="edge3" class="edge">
<title>Node4&#45;&gt;Node3</title>
<path fill="none" stroke="midnightblue" d="M164.63,-303.19C169.55,-301.43 174.38,-299.53 179,-297.5 215.52,-281.44 253.87,-255.09 276.33,-238.55"/>
<polygon fill="midnightblue" stroke="midnightblue" points="163.44,-299.9 155.09,-306.42 165.69,-306.53 163.44,-299.9"/>
</g>
<!-- Node5 -->
<g id="node5" class="node">
<title>Node5</title>
<g id="a_node5"><a xlink:href="class_black_misc_1_1_mixin_1_1_meta_type.html" target="_top" xlink:title="CRTP class template from which a derived class can inherit common methods dealing with the metatype o...">
<polygon fill="none" stroke="black" points="13.5,-257.5 13.5,-287.5 165.5,-287.5 165.5,-257.5 13.5,-257.5"/>
<text text-anchor="start" x="21.5" y="-275.5" font-family="Helvetica,sans-Serif" font-size="10.00">BlackMisc::Mixin::MetaType</text>
<text text-anchor="middle" x="89.5" y="-264.5" font-family="Helvetica,sans-Serif" font-size="10.00">&lt; Derived &gt;</text>
</a>
</g>
</g>
<!-- Node5&#45;&gt;Node3 -->
<g id="edge4" class="edge">
<title>Node5&#45;&gt;Node3</title>
<path fill="none" stroke="midnightblue" d="M163.49,-255.1C186.22,-249.68 211.08,-243.75 233.07,-238.51"/>
<polygon fill="midnightblue" stroke="midnightblue" points="162.47,-251.74 153.55,-257.47 164.09,-258.55 162.47,-251.74"/>
</g>
<!-- Node6 -->
<g id="node6" class="node">
<title>Node6</title>
<g id="a_node6"><a xlink:href="class_black_misc_1_1_mixin_1_1_d_bus_operators.html" target="_top" xlink:title=" ">
<polygon fill="none" stroke="black" points="0,-208.5 0,-238.5 179,-238.5 179,-208.5 0,-208.5"/>
<text text-anchor="start" x="8" y="-226.5" font-family="Helvetica,sans-Serif" font-size="10.00">BlackMisc::Mixin::DBusOperators</text>
<text text-anchor="middle" x="89.5" y="-215.5" font-family="Helvetica,sans-Serif" font-size="10.00">&lt; Derived &gt;</text>
</a>
</g>
</g>
<!-- Node6&#45;&gt;Node3 -->
<g id="edge5" class="edge">
<title>Node6&#45;&gt;Node3</title>
<path fill="none" stroke="midnightblue" d="M189.19,-223.5C200.17,-223.5 211.22,-223.5 221.82,-223.5"/>
<polygon fill="midnightblue" stroke="midnightblue" points="189.14,-220 179.14,-223.5 189.14,-227 189.14,-220"/>
</g>
<!-- Node7 -->
<g id="node7" class="node">
<title>Node7</title>
<g id="a_node7"><a xlink:href="class_black_misc_1_1_mixin_1_1_json_operators.html" target="_top" xlink:title="CRTP class template which will generate marshalling operators for a derived class with its own marsha...">
<polygon fill="none" stroke="black" points="3,-159.5 3,-189.5 176,-189.5 176,-159.5 3,-159.5"/>
<text text-anchor="start" x="11" y="-177.5" font-family="Helvetica,sans-Serif" font-size="10.00">BlackMisc::Mixin::JsonOperators</text>
<text text-anchor="middle" x="89.5" y="-166.5" font-family="Helvetica,sans-Serif" font-size="10.00">&lt; Derived &gt;</text>
</a>
</g>
</g>
<!-- Node7&#45;&gt;Node3 -->
<g id="edge6" class="edge">
<title>Node7&#45;&gt;Node3</title>
<path fill="none" stroke="midnightblue" d="M163.49,-191.9C186.22,-197.32 211.08,-203.25 233.07,-208.49"/>
<polygon fill="midnightblue" stroke="midnightblue" points="164.09,-188.45 153.55,-189.53 162.47,-195.26 164.09,-188.45"/>
</g>
<!-- Node8 -->
<g id="node8" class="node">
<title>Node8</title>
<g id="a_node8"><a xlink:href="class_black_misc_1_1_mixin_1_1_string.html" target="_top" xlink:title="CRTP class template from which a derived class can inherit string streaming operations.">
<polygon fill="none" stroke="black" points="22.5,-110.5 22.5,-140.5 156.5,-140.5 156.5,-110.5 22.5,-110.5"/>
<text text-anchor="start" x="30.5" y="-128.5" font-family="Helvetica,sans-Serif" font-size="10.00">BlackMisc::Mixin::String</text>
<text text-anchor="middle" x="89.5" y="-117.5" font-family="Helvetica,sans-Serif" font-size="10.00">&lt; Derived &gt;</text>
</a>
</g>
</g>
<!-- Node8&#45;&gt;Node3 -->
<g id="edge7" class="edge">
<title>Node8&#45;&gt;Node3</title>
<path fill="none" stroke="midnightblue" d="M166.04,-142.09C170.58,-144.26 174.95,-146.72 179,-149.5 201.29,-164.78 192.98,-182.84 215,-198.5 220.4,-202.34 226.4,-205.6 232.63,-208.37"/>
<polygon fill="midnightblue" stroke="midnightblue" points="167.09,-138.73 156.52,-138.01 164.34,-145.17 167.09,-138.73"/>
</g>
<!-- Node9 -->
<g id="node9" class="node">
<title>Node9</title>
<g id="a_node9"><a xlink:href="class_black_misc_1_1_mixin_1_1_data_stream_operators.html" target="_top" xlink:title="CRTP class template to generate non&#45;member QDataStream streaming operators.">
<polygon fill="none" stroke="black" points="215,-159.5 215,-189.5 379,-189.5 379,-159.5 215,-159.5"/>
<text text-anchor="start" x="223" y="-177.5" font-family="Helvetica,sans-Serif" font-size="10.00">BlackMisc::Mixin::DataStream</text>
<text text-anchor="middle" x="297" y="-166.5" font-family="Helvetica,sans-Serif" font-size="10.00">Operators&lt; Derived &gt;</text>
</a>
</g>
</g>
<!-- Node9&#45;&gt;Node2 -->
<g id="edge8" class="edge">
<title>Node9&#45;&gt;Node2</title>
<path fill="none" stroke="midnightblue" d="M389.47,-174.5C402.98,-174.5 416.72,-174.5 429.73,-174.5"/>
<polygon fill="midnightblue" stroke="midnightblue" points="389.2,-171 379.2,-174.5 389.2,-178 389.2,-171"/>
</g>
<!-- Node10 -->
<g id="node10" class="node">
<title>Node10</title>
<g id="a_node10"><a xlink:href="class_black_misc_1_1_mixin_1_1_icon.html" target="_top" xlink:title="CRTP class template from which a derived class can inherit icon&#45;related functions.">
<polygon fill="none" stroke="black" points="231.5,-110.5 231.5,-140.5 362.5,-140.5 362.5,-110.5 231.5,-110.5"/>
<text text-anchor="start" x="239.5" y="-128.5" font-family="Helvetica,sans-Serif" font-size="10.00">BlackMisc::Mixin::Icon</text>
<text text-anchor="middle" x="297" y="-117.5" font-family="Helvetica,sans-Serif" font-size="10.00">&lt; Derived, IconIndex &gt;</text>
</a>
</g>
</g>
<!-- Node10&#45;&gt;Node2 -->
<g id="edge9" class="edge">
<title>Node10&#45;&gt;Node2</title>
<path fill="none" stroke="midnightblue" d="M369.92,-142.9C392.33,-148.32 416.82,-154.25 438.48,-159.49"/>
<polygon fill="midnightblue" stroke="midnightblue" points="370.68,-139.48 360.13,-140.53 369.03,-146.29 370.68,-139.48"/>
</g>
<!-- Node11 -->
<g id="node11" class="node">
<title>Node11</title>
<g id="a_node11"><a xlink:href="class_black_misc_1_1_geo_1_1_i_geo_object_list.html" target="_top" xlink:title=" ">
<polygon fill="none" stroke="black" points="425.5,-99 425.5,-140 577.5,-140 577.5,-99 425.5,-99"/>
<text text-anchor="start" x="433.5" y="-128" font-family="Helvetica,sans-Serif" font-size="10.00">BlackMisc::Geo::IGeoObject</text>
<text text-anchor="start" x="433.5" y="-117" font-family="Helvetica,sans-Serif" font-size="10.00">List&lt; CCoordinateGeodetic,</text>
<text text-anchor="middle" x="501.5" y="-106" font-family="Helvetica,sans-Serif" font-size="10.00"> CCoordinateGeodeticList &gt;</text>
</a>
</g>
</g>
<!-- Node11&#45;&gt;Node1 -->
<g id="edge10" class="edge">
<title>Node11&#45;&gt;Node1</title>
<path fill="none" stroke="midnightblue" d="M587.67,-107.55C599.71,-105.86 612.04,-104.13 623.94,-102.46"/>
<polygon fill="midnightblue" stroke="midnightblue" points="587.05,-104.1 577.64,-108.95 588.03,-111.03 587.05,-104.1"/>
</g>
<!-- Node12 -->
<g id="node12" class="node">
<title>Node12</title>
<g id="a_node12"><a xlink:href="class_black_misc_1_1_mixin_1_1_meta_type.html" target="_top" xlink:title=" ">
<polygon fill="none" stroke="black" points="421.5,-49.5 421.5,-79.5 581.5,-79.5 581.5,-49.5 421.5,-49.5"/>
<text text-anchor="start" x="429.5" y="-67.5" font-family="Helvetica,sans-Serif" font-size="10.00">BlackMisc::Mixin::MetaType</text>
<text text-anchor="middle" x="501.5" y="-56.5" font-family="Helvetica,sans-Serif" font-size="10.00">&lt; CCoordinateGeodeticList &gt;</text>
</a>
</g>
</g>
<!-- Node12&#45;&gt;Node1 -->
<g id="edge11" class="edge">
<title>Node12&#45;&gt;Node1</title>
<path fill="none" stroke="midnightblue" d="M591.83,-76.59C602.54,-78.04 613.41,-79.51 623.94,-80.94"/>
<polygon fill="midnightblue" stroke="midnightblue" points="592.01,-73.08 581.63,-75.21 591.07,-80.02 592.01,-73.08"/>
</g>
<!-- Node13 -->
<g id="node13" class="node">
<title>Node13</title>
<g id="a_node13"><a xlink:href="class_black_misc_1_1_mixin_1_1_json_operators.html" target="_top" xlink:title=" ">
<polygon fill="none" stroke="black" points="415,-0.5 415,-30.5 588,-30.5 588,-0.5 415,-0.5"/>
<text text-anchor="start" x="423" y="-18.5" font-family="Helvetica,sans-Serif" font-size="10.00">BlackMisc::Mixin::JsonOperators</text>
<text text-anchor="middle" x="501.5" y="-7.5" font-family="Helvetica,sans-Serif" font-size="10.00">&lt; CCoordinateGeodeticList &gt;</text>
</a>
</g>
</g>
<!-- Node13&#45;&gt;Node1 -->
<g id="edge12" class="edge">
<title>Node13&#45;&gt;Node1</title>
<path fill="none" stroke="midnightblue" d="M570.74,-33.63C576.61,-35.5 582.43,-37.46 588,-39.5 617.21,-50.19 649.36,-65.16 672.05,-76.3"/>
<polygon fill="midnightblue" stroke="midnightblue" points="571.42,-30.18 560.83,-30.57 569.36,-36.86 571.42,-30.18"/>
</g>
</g>
</svg>
