<?xml version="1.0" encoding="UTF-8" standalone="no"?>
<!DOCTYPE svg PUBLIC "-//W3C//DTD SVG 1.1//EN"
 "http://www.w3.org/Graphics/SVG/1.1/DTD/svg11.dtd">
<!-- Generated by graphviz version 2.43.0 (0)
 -->
<!-- Title: BlackCore::Context::CContextOwnAircraft Pages: 1 -->
<svg width="547pt" height="127pt"
 viewBox="0.00 0.00 547.00 126.50" xmlns="http://www.w3.org/2000/svg" xmlns:xlink="http://www.w3.org/1999/xlink">
<g id="graph0" class="graph" transform="scale(1 1) rotate(0) translate(4 122.5)">
<title>BlackCore::Context::CContextOwnAircraft</title>
<!-- Node1 -->
<g id="node1" class="node">
<title>Node1</title>
<g id="a_node1"><a xlink:title="Own aircraft context implementation. Central instance of data for.">
<polygon fill="#bfbfbf" stroke="black" points="414,-39 414,-69 539,-69 539,-39 414,-39"/>
<text text-anchor="start" x="422" y="-57" font-family="Helvetica,sans-Serif" font-size="10.00">BlackCore::Context</text>
<text text-anchor="middle" x="476.5" y="-46" font-family="Helvetica,sans-Serif" font-size="10.00">::CContextOwnAircraft</text>
</a>
</g>
</g>
<!-- Node2 -->
<g id="node2" class="node">
<title>Node2</title>
<g id="a_node2"><a xlink:href="class_black_core_1_1_context_1_1_i_context_own_aircraft.html" target="_top" xlink:title="Own context proxy.">
<polygon fill="none" stroke="black" points="250.5,-88 250.5,-118 371.5,-118 371.5,-88 250.5,-88"/>
<text text-anchor="start" x="258.5" y="-106" font-family="Helvetica,sans-Serif" font-size="10.00">BlackCore::Context</text>
<text text-anchor="middle" x="311" y="-95" font-family="Helvetica,sans-Serif" font-size="10.00">::IContextOwnAircraft</text>
</a>
</g>
</g>
<!-- Node2&#45;&gt;Node1 -->
<g id="edge1" class="edge">
<title>Node2&#45;&gt;Node1</title>
<path fill="none" stroke="midnightblue" d="M372.44,-84.89C389.82,-79.68 408.58,-74.05 425.28,-69.05"/>
<polygon fill="midnightblue" stroke="midnightblue" points="370.96,-81.68 362.39,-87.9 372.97,-88.38 370.96,-81.68"/>
</g>
<!-- Node3 -->
<g id="node3" class="node">
<title>Node3</title>
<g id="a_node3"><a xlink:href="class_black_core_1_1_context_1_1_i_context.html" target="_top" xlink:title="Base for all context classes.">
<polygon fill="none" stroke="black" points="95,-88 95,-118 205,-118 205,-88 95,-88"/>
<text text-anchor="start" x="103" y="-106" font-family="Helvetica,sans-Serif" font-size="10.00">BlackCore::Context</text>
<text text-anchor="middle" x="150" y="-95" font-family="Helvetica,sans-Serif" font-size="10.00">::IContext</text>
</a>
</g>
</g>
<!-- Node3&#45;&gt;Node2 -->
<g id="edge2" class="edge">
<title>Node3&#45;&gt;Node2</title>
<path fill="none" stroke="midnightblue" d="M215.28,-103C226.84,-103 238.83,-103 250.25,-103"/>
<polygon fill="midnightblue" stroke="midnightblue" points="215.27,-99.5 205.27,-103 215.27,-106.5 215.27,-99.5"/>
</g>
<!-- Node4 -->
<g id="node4" class="node">
<title>Node4</title>
<g id="a_node4"><a target="_parent" xlink:href="http://doc.qt.io/qt-5/qobject.html" xlink:title=" ">
<polygon fill="none" stroke="black" points="0,-93.5 0,-112.5 56,-112.5 56,-93.5 0,-93.5"/>
<text text-anchor="middle" x="28" y="-100.5" font-family="Helvetica,sans-Serif" font-size="10.00">QObject</text>
</a>
</g>
</g>
<!-- Node4&#45;&gt;Node3 -->
<g id="edge3" class="edge">
<title>Node4&#45;&gt;Node3</title>
<path fill="none" stroke="midnightblue" d="M66.4,-103C75.43,-103 85.26,-103 94.89,-103"/>
<polygon fill="midnightblue" stroke="midnightblue" points="66.23,-99.5 56.23,-103 66.23,-106.5 66.23,-99.5"/>
</g>
<!-- Node5 -->
<g id="node5" class="node">
<title>Node5</title>
<g id="a_node5"><a xlink:href="class_black_misc_1_1_simulation_1_1_i_own_aircraft_provider.html" target="_top" xlink:title="Direct threadsafe in memory access to own aircraft.">
<polygon fill="none" stroke="black" points="248.5,-39 248.5,-69 373.5,-69 373.5,-39 248.5,-39"/>
<text text-anchor="start" x="256.5" y="-57" font-family="Helvetica,sans-Serif" font-size="10.00">BlackMisc::Simulation</text>
<text text-anchor="middle" x="311" y="-46" font-family="Helvetica,sans-Serif" font-size="10.00">::IOwnAircraftProvider</text>
</a>
</g>
</g>
<!-- Node5&#45;&gt;Node1 -->
<g id="edge4" class="edge">
<title>Node5&#45;&gt;Node1</title>
<path fill="none" stroke="midnightblue" d="M384.07,-54C394.01,-54 404.14,-54 413.87,-54"/>
<polygon fill="midnightblue" stroke="midnightblue" points="383.81,-50.5 373.81,-54 383.81,-57.5 383.81,-50.5"/>
</g>
<!-- Node6 -->
<g id="node6" class="node">
<title>Node6</title>
<g id="a_node6"><a xlink:href="class_black_misc_1_1_i_provider.html" target="_top" xlink:title="Base class for providers.">
<polygon fill="none" stroke="black" points="92,-44.5 92,-63.5 208,-63.5 208,-44.5 92,-44.5"/>
<text text-anchor="middle" x="150" y="-51.5" font-family="Helvetica,sans-Serif" font-size="10.00">BlackMisc::IProvider</text>
</a>
</g>
</g>
<!-- Node6&#45;&gt;Node5 -->
<g id="edge5" class="edge">
<title>Node6&#45;&gt;Node5</title>
<path fill="none" stroke="midnightblue" d="M218.59,-54C228.48,-54 238.62,-54 248.38,-54"/>
<polygon fill="midnightblue" stroke="midnightblue" points="218.4,-50.5 208.4,-54 218.4,-57.5 218.4,-50.5"/>
</g>
<!-- Node7 -->
<g id="node7" class="node">
<title>Node7</title>
<g id="a_node7"><a xlink:href="class_black_misc_1_1_c_identifiable.html" target="_top" xlink:title="Base class with a member CIdentifier to be inherited by a class which has an identity in the environm...">
<polygon fill="none" stroke="black" points="244,-0.5 244,-19.5 378,-19.5 378,-0.5 244,-0.5"/>
<text text-anchor="middle" x="311" y="-7.5" font-family="Helvetica,sans-Serif" font-size="10.00">BlackMisc::CIdentifiable</text>
</a>
</g>
</g>
<!-- Node7&#45;&gt;Node1 -->
<g id="edge6" class="edge">
<title>Node7&#45;&gt;Node1</title>
<path fill="none" stroke="midnightblue" d="M357.22,-22.17C376.5,-27.36 399.19,-33.46 419.52,-38.93"/>
<polygon fill="midnightblue" stroke="midnightblue" points="358.04,-18.77 347.48,-19.55 356.22,-25.53 358.04,-18.77"/>
</g>
</g>
</svg>
