<?xml version="1.0" encoding="UTF-8" standalone="no"?>
<!DOCTYPE svg PUBLIC "-//W3C//DTD SVG 1.1//EN"
 "http://www.w3.org/Graphics/SVG/1.1/DTD/svg11.dtd">
<!-- Generated by graphviz version 2.43.0 (0)
 -->
<!-- Title: BlackMisc::Simulation::CDummyModelLoader Pages: 1 -->
<svg width="711pt" height="187pt"
 viewBox="0.00 0.00 711.00 186.50" xmlns="http://www.w3.org/2000/svg" xmlns:xlink="http://www.w3.org/1999/xlink">
<g id="graph0" class="graph" transform="scale(1 1) rotate(0) translate(4 182.5)">
<title>BlackMisc::Simulation::CDummyModelLoader</title>
<!-- Node1 -->
<g id="node1" class="node">
<title>Node1</title>
<g id="a_node1"><a xlink:title="Dummy loader for testing.">
<polygon fill="#bfbfbf" stroke="black" points="572,-76.5 572,-106.5 703,-106.5 703,-76.5 572,-76.5"/>
<text text-anchor="start" x="580" y="-94.5" font-family="Helvetica,sans-Serif" font-size="10.00">BlackMisc::Simulation</text>
<text text-anchor="middle" x="637.5" y="-83.5" font-family="Helvetica,sans-Serif" font-size="10.00">::CDummyModelLoader</text>
</a>
</g>
</g>
<!-- Node2 -->
<g id="node2" class="node">
<title>Node2</title>
<g id="a_node2"><a xlink:href="class_black_misc_1_1_simulation_1_1_i_aircraft_model_loader.html" target="_top" xlink:title="Load the aircraft for a simulator.">
<polygon fill="none" stroke="black" points="411,-76.5 411,-106.5 536,-106.5 536,-76.5 411,-76.5"/>
<text text-anchor="start" x="419" y="-94.5" font-family="Helvetica,sans-Serif" font-size="10.00">BlackMisc::Simulation</text>
<text text-anchor="middle" x="473.5" y="-83.5" font-family="Helvetica,sans-Serif" font-size="10.00">::IAircraftModelLoader</text>
</a>
</g>
</g>
<!-- Node2&#45;&gt;Node1 -->
<g id="edge1" class="edge">
<title>Node2&#45;&gt;Node1</title>
<path fill="none" stroke="midnightblue" d="M546.4,-91.5C554.84,-91.5 563.4,-91.5 571.73,-91.5"/>
<polygon fill="midnightblue" stroke="midnightblue" points="546.21,-88 536.21,-91.5 546.21,-95 546.21,-88"/>
</g>
<!-- Node3 -->
<g id="node3" class="node">
<title>Node3</title>
<g id="a_node3"><a target="_parent" xlink:href="http://doc.qt.io/qt-5/qobject.html" xlink:title=" ">
<polygon fill="none" stroke="black" points="264,-159 264,-178 320,-178 320,-159 264,-159"/>
<text text-anchor="middle" x="292" y="-166" font-family="Helvetica,sans-Serif" font-size="10.00">QObject</text>
</a>
</g>
</g>
<!-- Node3&#45;&gt;Node2 -->
<g id="edge2" class="edge">
<title>Node3&#45;&gt;Node2</title>
<path fill="none" stroke="midnightblue" d="M330.23,-162.41C344.53,-159.42 360.82,-155.2 375,-149.5 402.96,-138.26 432.33,-119.74 451.43,-106.65"/>
<polygon fill="midnightblue" stroke="midnightblue" points="329.37,-159.01 320.23,-164.37 330.72,-165.88 329.37,-159.01"/>
</g>
<!-- Node4 -->
<g id="node4" class="node">
<title>Node4</title>
<g id="a_node4"><a xlink:href="class_black_misc_1_1_simulation_1_1_data_1_1_c_central_multi_simulator_model_caches_aware.html" target="_top" xlink:title="Basically a QObject free (delegate based) version of CCentralMultiSimulatorModelCachesProvider.">
<polygon fill="none" stroke="black" points="209,-99 209,-140 375,-140 375,-99 209,-99"/>
<text text-anchor="start" x="217" y="-128" font-family="Helvetica,sans-Serif" font-size="10.00">BlackMisc::Simulation</text>
<text text-anchor="start" x="217" y="-117" font-family="Helvetica,sans-Serif" font-size="10.00">::Data::CCentralMultiSimulator</text>
<text text-anchor="middle" x="292" y="-106" font-family="Helvetica,sans-Serif" font-size="10.00">ModelCachesAware</text>
</a>
</g>
</g>
<!-- Node4&#45;&gt;Node2 -->
<g id="edge3" class="edge">
<title>Node4&#45;&gt;Node2</title>
<path fill="none" stroke="midnightblue" d="M385.28,-105.1C393.93,-103.76 402.55,-102.41 410.82,-101.12"/>
<polygon fill="midnightblue" stroke="midnightblue" points="384.47,-101.69 375.13,-106.69 385.55,-108.61 384.47,-101.69"/>
</g>
<!-- Node5 -->
<g id="node5" class="node">
<title>Node5</title>
<g id="a_node5"><a xlink:href="class_black_misc_1_1_simulation_1_1_i_models_for_simulator_setable.html" target="_top" xlink:title="Interface to &quot;something&quot; backing models, which can be set.">
<polygon fill="none" stroke="black" points="6.5,-128.5 6.5,-158.5 166.5,-158.5 166.5,-128.5 6.5,-128.5"/>
<text text-anchor="start" x="14.5" y="-146.5" font-family="Helvetica,sans-Serif" font-size="10.00">BlackMisc::Simulation</text>
<text text-anchor="middle" x="86.5" y="-135.5" font-family="Helvetica,sans-Serif" font-size="10.00">::IModelsForSimulatorSetable</text>
</a>
</g>
</g>
<!-- Node5&#45;&gt;Node4 -->
<g id="edge4" class="edge">
<title>Node5&#45;&gt;Node4</title>
<path fill="none" stroke="midnightblue" d="M176.9,-132.96C187.56,-131.7 198.39,-130.42 208.93,-129.18"/>
<polygon fill="midnightblue" stroke="midnightblue" points="176.28,-129.51 166.76,-134.15 177.1,-136.46 176.28,-129.51"/>
</g>
<!-- Node6 -->
<g id="node6" class="node">
<title>Node6</title>
<g id="a_node6"><a xlink:href="class_black_misc_1_1_simulation_1_1_i_models_for_simulator_updatable.html" target="_top" xlink:title="Interface to &quot;something&quot; backing models, which can be modified (updated)">
<polygon fill="none" stroke="black" points="0,-79.5 0,-109.5 173,-109.5 173,-79.5 0,-79.5"/>
<text text-anchor="start" x="8" y="-97.5" font-family="Helvetica,sans-Serif" font-size="10.00">BlackMisc::Simulation</text>
<text text-anchor="middle" x="86.5" y="-86.5" font-family="Helvetica,sans-Serif" font-size="10.00">::IModelsForSimulatorUpdatable</text>
</a>
</g>
</g>
<!-- Node6&#45;&gt;Node4 -->
<g id="edge5" class="edge">
<title>Node6&#45;&gt;Node4</title>
<path fill="none" stroke="midnightblue" d="M183.26,-106.26C191.85,-107.32 200.5,-108.38 208.96,-109.42"/>
<polygon fill="midnightblue" stroke="midnightblue" points="183.56,-102.78 173.21,-105.03 182.71,-109.72 183.56,-102.78"/>
</g>
<!-- Node7 -->
<g id="node7" class="node">
<title>Node7</title>
<g id="a_node7"><a xlink:href="class_black_misc_1_1_simulation_1_1_i_models_setable.html" target="_top" xlink:title="Interface to &quot;something&quot; backing models, which can be set.">
<polygon fill="none" stroke="black" points="229.5,-49.5 229.5,-79.5 354.5,-79.5 354.5,-49.5 229.5,-49.5"/>
<text text-anchor="start" x="237.5" y="-67.5" font-family="Helvetica,sans-Serif" font-size="10.00">BlackMisc::Simulation</text>
<text text-anchor="middle" x="292" y="-56.5" font-family="Helvetica,sans-Serif" font-size="10.00">::IModelsSetable</text>
</a>
</g>
</g>
<!-- Node7&#45;&gt;Node2 -->
<g id="edge6" class="edge">
<title>Node7&#45;&gt;Node2</title>
<path fill="none" stroke="midnightblue" d="M364.46,-75.25C379.78,-77.55 395.84,-79.97 410.75,-82.21"/>
<polygon fill="midnightblue" stroke="midnightblue" points="364.93,-71.78 354.52,-73.75 363.89,-78.7 364.93,-71.78"/>
</g>
<!-- Node8 -->
<g id="node8" class="node">
<title>Node8</title>
<g id="a_node8"><a xlink:href="class_black_misc_1_1_simulation_1_1_i_models_updatable.html" target="_top" xlink:title="Interface to &quot;something&quot; backing models, which can be modified (updated)">
<polygon fill="none" stroke="black" points="229.5,-0.5 229.5,-30.5 354.5,-30.5 354.5,-0.5 229.5,-0.5"/>
<text text-anchor="start" x="237.5" y="-18.5" font-family="Helvetica,sans-Serif" font-size="10.00">BlackMisc::Simulation</text>
<text text-anchor="middle" x="292" y="-7.5" font-family="Helvetica,sans-Serif" font-size="10.00">::IModelsUpdatable</text>
</a>
</g>
</g>
<!-- Node8&#45;&gt;Node2 -->
<g id="edge7" class="edge">
<title>Node8&#45;&gt;Node2</title>
<path fill="none" stroke="midnightblue" d="M359.53,-33.7C364.81,-35.53 370.02,-37.47 375,-39.5 400.58,-49.93 428.23,-65.08 447.53,-76.34"/>
<polygon fill="midnightblue" stroke="midnightblue" points="360.58,-30.36 349.98,-30.53 358.37,-37.01 360.58,-30.36"/>
</g>
</g>
</svg>
