<?xml version="1.0" encoding="UTF-8" standalone="no"?>
<!DOCTYPE svg PUBLIC "-//W3C//DTD SVG 1.1//EN"
 "http://www.w3.org/Graphics/SVG/1.1/DTD/svg11.dtd">
<!-- Generated by graphviz version 2.43.0 (0)
 -->
<!-- Title: BlackMisc::CValueCachePacket Pages: 1 -->
<svg width="624pt" height="275pt"
 viewBox="0.00 0.00 624.00 275.00" xmlns="http://www.w3.org/2000/svg" xmlns:xlink="http://www.w3.org/1999/xlink">
<g id="graph0" class="graph" transform="scale(1 1) rotate(0) translate(4 271)">
<title>BlackMisc::CValueCachePacket</title>
<!-- Node1 -->
<g id="node1" class="node">
<title>Node1</title>
<g id="a_node1"><a xlink:title="Value class used for signalling changed values in the cache.">
<polygon fill="#bfbfbf" stroke="black" points="449,-104 449,-123 616,-123 616,-104 449,-104"/>
<text text-anchor="middle" x="532.5" y="-111" font-family="Helvetica,sans-Serif" font-size="10.00">BlackMisc::CValueCachePacket</text>
</a>
</g>
</g>
<!-- Node2 -->
<g id="node2" class="node">
<title>Node2</title>
<g id="a_node2"><a xlink:href="class_black_misc_1_1_c_dictionary.html" target="_top" xlink:title=" ">
<polygon fill="none" stroke="black" points="236.5,-148 236.5,-189 391.5,-189 391.5,-148 236.5,-148"/>
<text text-anchor="start" x="244.5" y="-177" font-family="Helvetica,sans-Serif" font-size="10.00">BlackMisc::CDictionary</text>
<text text-anchor="start" x="244.5" y="-166" font-family="Helvetica,sans-Serif" font-size="10.00">&lt; QString, std::pair&lt;</text>
<text text-anchor="middle" x="314" y="-155" font-family="Helvetica,sans-Serif" font-size="10.00"> CVariant, qint64 &gt;, QMap &gt;</text>
</a>
</g>
</g>
<!-- Node2&#45;&gt;Node1 -->
<g id="edge1" class="edge">
<title>Node2&#45;&gt;Node1</title>
<path fill="none" stroke="midnightblue" d="M401.5,-146.53C433.59,-138.37 468.35,-129.54 493.84,-123.07"/>
<polygon fill="midnightblue" stroke="midnightblue" points="400.46,-143.18 391.63,-149.03 402.19,-149.96 400.46,-143.18"/>
</g>
<!-- Node3 -->
<g id="node3" class="node">
<title>Node3</title>
<g id="a_node3"><a xlink:href="class_black_misc_1_1_mixin_1_1_d_bus_operators.html" target="_top" xlink:title="CRTP class template which will generate marshalling operators for a derived class with its own marsha...">
<polygon fill="none" stroke="black" points="0,-236.5 0,-266.5 179,-266.5 179,-236.5 0,-236.5"/>
<text text-anchor="start" x="8" y="-254.5" font-family="Helvetica,sans-Serif" font-size="10.00">BlackMisc::Mixin::DBusOperators</text>
<text text-anchor="middle" x="89.5" y="-243.5" font-family="Helvetica,sans-Serif" font-size="10.00">&lt; Derived,... &gt;</text>
</a>
</g>
</g>
<!-- Node3&#45;&gt;Node2 -->
<g id="edge2" class="edge">
<title>Node3&#45;&gt;Node2</title>
<path fill="none" stroke="midnightblue" d="M160.67,-233.52C166.9,-231.6 173.09,-229.59 179,-227.5 210.4,-216.4 244.75,-201.21 270.81,-189.03"/>
<polygon fill="midnightblue" stroke="midnightblue" points="159.44,-230.23 150.86,-236.44 161.44,-236.94 159.44,-230.23"/>
</g>
<!-- Node8 -->
<g id="node8" class="node">
<title>Node8</title>
<g id="a_node8"><a xlink:href="class_black_misc_1_1_mixin_1_1_d_bus_by_meta_class.html" target="_top" xlink:title=" ">
<polygon fill="none" stroke="black" points="221.5,-226.5 221.5,-256.5 406.5,-256.5 406.5,-226.5 221.5,-226.5"/>
<text text-anchor="start" x="229.5" y="-244.5" font-family="Helvetica,sans-Serif" font-size="10.00">BlackMisc::Mixin::DBusBy</text>
<text text-anchor="middle" x="314" y="-233.5" font-family="Helvetica,sans-Serif" font-size="10.00">MetaClass&lt; CValueCachePacket &gt;</text>
</a>
</g>
</g>
<!-- Node3&#45;&gt;Node8 -->
<g id="edge8" class="edge">
<title>Node3&#45;&gt;Node8</title>
<path fill="none" stroke="midnightblue" d="M189.28,-247.06C199.98,-246.58 210.84,-246.09 221.45,-245.61"/>
<polygon fill="midnightblue" stroke="midnightblue" points="188.91,-243.57 179.08,-247.52 189.22,-250.57 188.91,-243.57"/>
</g>
<!-- Node4 -->
<g id="node4" class="node">
<title>Node4</title>
<g id="a_node4"><a xlink:href="class_black_misc_1_1_mixin_1_1_data_stream_operators.html" target="_top" xlink:title="CRTP class template to generate non&#45;member QDataStream streaming operators.">
<polygon fill="none" stroke="black" points="7.5,-89.5 7.5,-119.5 171.5,-119.5 171.5,-89.5 7.5,-89.5"/>
<text text-anchor="start" x="15.5" y="-107.5" font-family="Helvetica,sans-Serif" font-size="10.00">BlackMisc::Mixin::DataStream</text>
<text text-anchor="middle" x="89.5" y="-96.5" font-family="Helvetica,sans-Serif" font-size="10.00">Operators&lt; Derived &gt;</text>
</a>
</g>
</g>
<!-- Node4&#45;&gt;Node2 -->
<g id="edge3" class="edge">
<title>Node4&#45;&gt;Node2</title>
<path fill="none" stroke="midnightblue" d="M156.62,-122.24C164.18,-124.32 171.76,-126.44 179,-128.5 200.6,-134.65 224.08,-141.58 245.27,-147.92"/>
<polygon fill="midnightblue" stroke="midnightblue" points="157.31,-118.79 146.74,-119.52 155.46,-125.54 157.31,-118.79"/>
</g>
<!-- Node9 -->
<g id="node9" class="node">
<title>Node9</title>
<g id="a_node9"><a xlink:href="class_black_misc_1_1_mixin_1_1_data_stream_by_meta_class.html" target="_top" xlink:title=" ">
<polygon fill="none" stroke="black" points="215,-98.5 215,-128.5 413,-128.5 413,-98.5 215,-98.5"/>
<text text-anchor="start" x="223" y="-116.5" font-family="Helvetica,sans-Serif" font-size="10.00">BlackMisc::Mixin::DataStream</text>
<text text-anchor="middle" x="314" y="-105.5" font-family="Helvetica,sans-Serif" font-size="10.00">ByMetaClass&lt; CValueCachePacket &gt;</text>
</a>
</g>
</g>
<!-- Node4&#45;&gt;Node9 -->
<g id="edge10" class="edge">
<title>Node4&#45;&gt;Node9</title>
<path fill="none" stroke="midnightblue" d="M182.07,-108.2C192.91,-108.64 204.01,-109.09 214.93,-109.53"/>
<polygon fill="midnightblue" stroke="midnightblue" points="181.91,-104.69 171.77,-107.79 181.62,-111.69 181.91,-104.69"/>
</g>
<!-- Node5 -->
<g id="node5" class="node">
<title>Node5</title>
<g id="a_node5"><a xlink:href="class_black_misc_1_1_mixin_1_1_json_operators.html" target="_top" xlink:title="CRTP class template which will generate marshalling operators for a derived class with its own marsha...">
<polygon fill="none" stroke="black" points="3,-187.5 3,-217.5 176,-217.5 176,-187.5 3,-187.5"/>
<text text-anchor="start" x="11" y="-205.5" font-family="Helvetica,sans-Serif" font-size="10.00">BlackMisc::Mixin::JsonOperators</text>
<text text-anchor="middle" x="89.5" y="-194.5" font-family="Helvetica,sans-Serif" font-size="10.00">&lt; Derived &gt;</text>
</a>
</g>
</g>
<!-- Node5&#45;&gt;Node2 -->
<g id="edge4" class="edge">
<title>Node5&#45;&gt;Node2</title>
<path fill="none" stroke="midnightblue" d="M186.52,-187.83C203.2,-185.28 220.35,-182.66 236.43,-180.2"/>
<polygon fill="midnightblue" stroke="midnightblue" points="185.56,-184.43 176.21,-189.4 186.62,-191.35 185.56,-184.43"/>
</g>
<!-- Node6 -->
<g id="node6" class="node">
<title>Node6</title>
<g id="a_node6"><a xlink:href="class_black_misc_1_1_mixin_1_1_string.html" target="_top" xlink:title="CRTP class template from which a derived class can inherit string streaming operations.">
<polygon fill="none" stroke="black" points="22.5,-138.5 22.5,-168.5 156.5,-168.5 156.5,-138.5 22.5,-138.5"/>
<text text-anchor="start" x="30.5" y="-156.5" font-family="Helvetica,sans-Serif" font-size="10.00">BlackMisc::Mixin::String</text>
<text text-anchor="middle" x="89.5" y="-145.5" font-family="Helvetica,sans-Serif" font-size="10.00">&lt; Derived &gt;</text>
</a>
</g>
</g>
<!-- Node6&#45;&gt;Node2 -->
<g id="edge5" class="edge">
<title>Node6&#45;&gt;Node2</title>
<path fill="none" stroke="midnightblue" d="M166.79,-158.64C189.19,-160.15 213.7,-161.81 236.14,-163.32"/>
<polygon fill="midnightblue" stroke="midnightblue" points="166.87,-155.14 156.65,-157.96 166.4,-162.12 166.87,-155.14"/>
</g>
<!-- Node7 -->
<g id="node7" class="node">
<title>Node7</title>
<g id="a_node7"><a xlink:href="class_black_misc_1_1_mixin_1_1_meta_type.html" target="_top" xlink:title=" ">
<polygon fill="none" stroke="black" points="238,-49.5 238,-79.5 390,-79.5 390,-49.5 238,-49.5"/>
<text text-anchor="start" x="246" y="-67.5" font-family="Helvetica,sans-Serif" font-size="10.00">BlackMisc::Mixin::MetaType</text>
<text text-anchor="middle" x="314" y="-56.5" font-family="Helvetica,sans-Serif" font-size="10.00">&lt; CValueCachePacket &gt;</text>
</a>
</g>
</g>
<!-- Node7&#45;&gt;Node1 -->
<g id="edge6" class="edge">
<title>Node7&#45;&gt;Node1</title>
<path fill="none" stroke="midnightblue" d="M391.49,-81.81C424.41,-89.26 461.62,-97.68 489.4,-103.97"/>
<polygon fill="midnightblue" stroke="midnightblue" points="391.95,-78.33 381.43,-79.53 390.41,-85.16 391.95,-78.33"/>
</g>
<!-- Node8&#45;&gt;Node1 -->
<g id="edge7" class="edge">
<title>Node8&#45;&gt;Node1</title>
<path fill="none" stroke="midnightblue" d="M363.76,-222.48C379.8,-215.61 397.48,-207.34 413,-198.5 454.58,-174.81 499.35,-139.77 519.94,-123.05"/>
<polygon fill="midnightblue" stroke="midnightblue" points="362.4,-219.26 354.54,-226.36 365.12,-225.71 362.4,-219.26"/>
</g>
<!-- Node9&#45;&gt;Node1 -->
<g id="edge9" class="edge">
<title>Node9&#45;&gt;Node1</title>
<path fill="none" stroke="midnightblue" d="M423.24,-113.5C431.88,-113.5 440.52,-113.5 448.94,-113.5"/>
<polygon fill="midnightblue" stroke="midnightblue" points="423.11,-110 413.11,-113.5 423.11,-117 423.11,-110"/>
</g>
<!-- Node10 -->
<g id="node10" class="node">
<title>Node10</title>
<g id="a_node10"><a xlink:href="class_black_misc_1_1_mixin_1_1_equals_by_meta_class.html" target="_top" xlink:title=" ">
<polygon fill="none" stroke="black" points="215,-0.5 215,-30.5 413,-30.5 413,-0.5 215,-0.5"/>
<text text-anchor="start" x="223" y="-18.5" font-family="Helvetica,sans-Serif" font-size="10.00">BlackMisc::Mixin::Equals</text>
<text text-anchor="middle" x="314" y="-7.5" font-family="Helvetica,sans-Serif" font-size="10.00">ByMetaClass&lt; CValueCachePacket &gt;</text>
</a>
</g>
</g>
<!-- Node10&#45;&gt;Node1 -->
<g id="edge11" class="edge">
<title>Node10&#45;&gt;Node1</title>
<path fill="none" stroke="midnightblue" d="M397.47,-33.65C402.79,-35.45 408.01,-37.39 413,-39.5 454.57,-57.03 498.29,-88.15 519.09,-103.86"/>
<polygon fill="midnightblue" stroke="midnightblue" points="398.42,-30.28 387.83,-30.58 396.3,-36.95 398.42,-30.28"/>
</g>
</g>
</svg>
