<?xml version="1.0" encoding="UTF-8" standalone="no"?>
<!DOCTYPE svg PUBLIC "-//W3C//DTD SVG 1.1//EN"
 "http://www.w3.org/Graphics/SVG/1.1/DTD/svg11.dtd">
<!-- Generated by graphviz version 2.43.0 (0)
 -->
<!-- Title: BlackGui::Filters::CFilterDialog Pages: 1 -->
<svg width="605pt" height="88pt"
 viewBox="0.00 0.00 605.00 88.00" xmlns="http://www.w3.org/2000/svg" xmlns:xlink="http://www.w3.org/1999/xlink">
<g id="graph0" class="graph" transform="scale(1 1) rotate(0) translate(4 84)">
<title>BlackGui::Filters::CFilterDialog</title>
<!-- Node1 -->
<g id="node1" class="node">
<title>Node1</title>
<g id="a_node1"><a xlink:title="Base for filter dialog.">
<polygon fill="#bfbfbf" stroke="black" points="305,-24.5 305,-54.5 407,-54.5 407,-24.5 305,-24.5"/>
<text text-anchor="start" x="313" y="-42.5" font-family="Helvetica,sans-Serif" font-size="10.00">BlackGui::Filters::</text>
<text text-anchor="middle" x="356" y="-31.5" font-family="Helvetica,sans-Serif" font-size="10.00">CFilterDialog</text>
</a>
</g>
</g>
<!-- Node6 -->
<g id="node6" class="node">
<title>Node6</title>
<g id="a_node6"><a xlink:href="class_black_gui_1_1_filters_1_1_c_aircraft_model_filter_dialog.html" target="_top" xlink:title="Form for a aircraft model filter.">
<polygon fill="none" stroke="black" points="447.5,-49.5 447.5,-79.5 592.5,-79.5 592.5,-49.5 447.5,-49.5"/>
<text text-anchor="start" x="455.5" y="-67.5" font-family="Helvetica,sans-Serif" font-size="10.00">BlackGui::Filters::</text>
<text text-anchor="middle" x="520" y="-56.5" font-family="Helvetica,sans-Serif" font-size="10.00">CAircraftModelFilterDialog</text>
</a>
</g>
</g>
<!-- Node1&#45;&gt;Node6 -->
<g id="edge5" class="edge">
<title>Node1&#45;&gt;Node6</title>
<path fill="none" stroke="midnightblue" d="M417.35,-48.81C427.09,-50.32 437.27,-51.89 447.25,-53.43"/>
<polygon fill="midnightblue" stroke="midnightblue" points="417.79,-45.34 407.37,-47.27 416.72,-52.26 417.79,-45.34"/>
</g>
<!-- Node7 -->
<g id="node7" class="node">
<title>Node7</title>
<g id="a_node7"><a xlink:href="class_black_gui_1_1_filters_1_1_c_status_message_filter_dialog.html" target="_top" xlink:title="Form for a status message filter.">
<polygon fill="none" stroke="black" points="443,-0.5 443,-30.5 597,-30.5 597,-0.5 443,-0.5"/>
<text text-anchor="start" x="451" y="-18.5" font-family="Helvetica,sans-Serif" font-size="10.00">BlackGui::Filters::</text>
<text text-anchor="middle" x="520" y="-7.5" font-family="Helvetica,sans-Serif" font-size="10.00">CStatusMessageFilterDialog</text>
</a>
</g>
</g>
<!-- Node1&#45;&gt;Node7 -->
<g id="edge6" class="edge">
<title>Node1&#45;&gt;Node7</title>
<path fill="none" stroke="midnightblue" d="M417.32,-30.56C425.63,-29.33 434.24,-28.06 442.79,-26.79"/>
<polygon fill="midnightblue" stroke="midnightblue" points="416.75,-27.11 407.37,-32.04 417.77,-34.03 416.75,-27.11"/>
</g>
<!-- Node2 -->
<g id="node2" class="node">
<title>Node2</title>
<g id="a_node2"><a target="_parent" xlink:href="http://doc.qt.io/qt-5/qdialog.html" xlink:title=" ">
<polygon fill="none" stroke="black" points="213,-30 213,-49 269,-49 269,-30 213,-30"/>
<text text-anchor="middle" x="241" y="-37" font-family="Helvetica,sans-Serif" font-size="10.00">QDialog</text>
</a>
</g>
</g>
<!-- Node2&#45;&gt;Node1 -->
<g id="edge1" class="edge">
<title>Node2&#45;&gt;Node1</title>
<path fill="none" stroke="midnightblue" d="M279.33,-39.5C287.46,-39.5 296.18,-39.5 304.71,-39.5"/>
<polygon fill="midnightblue" stroke="midnightblue" points="279.07,-36 269.07,-39.5 279.07,-43 279.07,-36"/>
</g>
<!-- Node3 -->
<g id="node3" class="node">
<title>Node3</title>
<g id="a_node3"><a target="_parent" xlink:href="http://doc.qt.io/qt-5/qwidget.html" xlink:title=" ">
<polygon fill="none" stroke="black" points="118,-30 118,-49 177,-49 177,-30 118,-30"/>
<text text-anchor="middle" x="147.5" y="-37" font-family="Helvetica,sans-Serif" font-size="10.00">QWidget</text>
</a>
</g>
</g>
<!-- Node3&#45;&gt;Node2 -->
<g id="edge2" class="edge">
<title>Node3&#45;&gt;Node2</title>
<path fill="none" stroke="midnightblue" d="M187.58,-39.5C196.07,-39.5 204.88,-39.5 212.79,-39.5"/>
<polygon fill="midnightblue" stroke="midnightblue" points="187.45,-36 177.45,-39.5 187.45,-43 187.45,-36"/>
</g>
<!-- Node4 -->
<g id="node4" class="node">
<title>Node4</title>
<g id="a_node4"><a target="_parent" xlink:href="http://doc.qt.io/qt-5/qobject.html" xlink:title=" ">
<polygon fill="none" stroke="black" points="13,-49 13,-68 69,-68 69,-49 13,-49"/>
<text text-anchor="middle" x="41" y="-56" font-family="Helvetica,sans-Serif" font-size="10.00">QObject</text>
</a>
</g>
</g>
<!-- Node4&#45;&gt;Node3 -->
<g id="edge3" class="edge">
<title>Node4&#45;&gt;Node3</title>
<path fill="none" stroke="midnightblue" d="M79.09,-51.76C91.88,-49.43 106,-46.86 117.99,-44.68"/>
<polygon fill="midnightblue" stroke="midnightblue" points="78.4,-48.33 69.18,-53.56 79.65,-55.21 78.4,-48.33"/>
</g>
<!-- Node5 -->
<g id="node5" class="node">
<title>Node5</title>
<g id="a_node5"><a target="_parent" xlink:href="http://doc.qt.io/qt-5/qpaintdevice.html" xlink:title=" ">
<polygon fill="none" stroke="black" points="0,-11 0,-30 82,-30 82,-11 0,-11"/>
<text text-anchor="middle" x="41" y="-18" font-family="Helvetica,sans-Serif" font-size="10.00">QPaintDevice</text>
</a>
</g>
</g>
<!-- Node5&#45;&gt;Node3 -->
<g id="edge4" class="edge">
<title>Node5&#45;&gt;Node3</title>
<path fill="none" stroke="midnightblue" d="M91.97,-29.59C100.8,-31.19 109.71,-32.81 117.69,-34.26"/>
<polygon fill="midnightblue" stroke="midnightblue" points="92.57,-26.14 82.1,-27.79 91.32,-33.02 92.57,-26.14"/>
</g>
</g>
</svg>
