<?xml version="1.0" encoding="UTF-8" standalone="no"?>
<!DOCTYPE svg PUBLIC "-//W3C//DTD SVG 1.1//EN"
 "http://www.w3.org/Graphics/SVG/1.1/DTD/svg11.dtd">
<!-- Generated by graphviz version 2.43.0 (0)
 -->
<!-- Title: SwiftGuiStd Pages: 1 -->
<svg width="501pt" height="173pt"
 viewBox="0.00 0.00 501.00 173.00" xmlns="http://www.w3.org/2000/svg" xmlns:xlink="http://www.w3.org/1999/xlink">
<g id="graph0" class="graph" transform="scale(1 1) rotate(0) translate(4 169)">
<title>SwiftGuiStd</title>
<!-- Node1 -->
<g id="node1" class="node">
<title>Node1</title>
<g id="a_node1"><a xlink:title="swift GUI">
<polygon fill="#bfbfbf" stroke="black" points="420,-66.5 420,-85.5 493,-85.5 493,-66.5 420,-66.5"/>
<text text-anchor="middle" x="456.5" y="-73.5" font-family="Helvetica,sans-Serif" font-size="10.00">SwiftGuiStd</text>
</a>
</g>
</g>
<!-- Node2 -->
<g id="node2" class="node">
<title>Node2</title>
<g id="a_node2"><a target="_parent" xlink:href="http://doc.qt.io/qt-5/qmainwindow.html" xlink:title=" ">
<polygon fill="none" stroke="black" points="255,-126.5 255,-145.5 342,-145.5 342,-126.5 255,-126.5"/>
<text text-anchor="middle" x="298.5" y="-133.5" font-family="Helvetica,sans-Serif" font-size="10.00">QMainWindow</text>
</a>
</g>
</g>
<!-- Node2&#45;&gt;Node1 -->
<g id="edge1" class="edge">
<title>Node2&#45;&gt;Node1</title>
<path fill="none" stroke="midnightblue" d="M352.41,-126.66C363.05,-124.08 374.02,-120.88 384,-117 405.2,-108.75 427.65,-94.93 441.62,-85.65"/>
<polygon fill="midnightblue" stroke="midnightblue" points="351.33,-123.32 342.36,-128.96 352.89,-130.14 351.33,-123.32"/>
</g>
<!-- Node3 -->
<g id="node3" class="node">
<title>Node3</title>
<g id="a_node3"><a target="_parent" xlink:href="http://doc.qt.io/qt-5/qwidget.html" xlink:title=" ">
<polygon fill="none" stroke="black" points="118,-126.5 118,-145.5 177,-145.5 177,-126.5 118,-126.5"/>
<text text-anchor="middle" x="147.5" y="-133.5" font-family="Helvetica,sans-Serif" font-size="10.00">QWidget</text>
</a>
</g>
</g>
<!-- Node3&#45;&gt;Node2 -->
<g id="edge2" class="edge">
<title>Node3&#45;&gt;Node2</title>
<path fill="none" stroke="midnightblue" d="M187.26,-136C207.96,-136 233.48,-136 254.75,-136"/>
<polygon fill="midnightblue" stroke="midnightblue" points="187.23,-132.5 177.23,-136 187.23,-139.5 187.23,-132.5"/>
</g>
<!-- Node4 -->
<g id="node4" class="node">
<title>Node4</title>
<g id="a_node4"><a target="_parent" xlink:href="http://doc.qt.io/qt-5/qobject.html" xlink:title=" ">
<polygon fill="none" stroke="black" points="13,-145.5 13,-164.5 69,-164.5 69,-145.5 13,-145.5"/>
<text text-anchor="middle" x="41" y="-152.5" font-family="Helvetica,sans-Serif" font-size="10.00">QObject</text>
</a>
</g>
</g>
<!-- Node4&#45;&gt;Node3 -->
<g id="edge3" class="edge">
<title>Node4&#45;&gt;Node3</title>
<path fill="none" stroke="midnightblue" d="M79.09,-148.26C91.88,-145.93 106,-143.36 117.99,-141.18"/>
<polygon fill="midnightblue" stroke="midnightblue" points="78.4,-144.83 69.18,-150.06 79.65,-151.71 78.4,-144.83"/>
</g>
<!-- Node5 -->
<g id="node5" class="node">
<title>Node5</title>
<g id="a_node5"><a target="_parent" xlink:href="http://doc.qt.io/qt-5/qpaintdevice.html" xlink:title=" ">
<polygon fill="none" stroke="black" points="0,-107.5 0,-126.5 82,-126.5 82,-107.5 0,-107.5"/>
<text text-anchor="middle" x="41" y="-114.5" font-family="Helvetica,sans-Serif" font-size="10.00">QPaintDevice</text>
</a>
</g>
</g>
<!-- Node5&#45;&gt;Node3 -->
<g id="edge4" class="edge">
<title>Node5&#45;&gt;Node3</title>
<path fill="none" stroke="midnightblue" d="M91.97,-126.09C100.8,-127.69 109.71,-129.31 117.69,-130.76"/>
<polygon fill="midnightblue" stroke="midnightblue" points="92.57,-122.64 82.1,-124.29 91.32,-129.52 92.57,-122.64"/>
</g>
<!-- Node6 -->
<g id="node6" class="node">
<title>Node6</title>
<g id="a_node6"><a xlink:href="class_black_misc_1_1_c_identifiable.html" target="_top" xlink:title="Base class with a member CIdentifier to be inherited by a class which has an identity in the environm...">
<polygon fill="none" stroke="black" points="231.5,-88.5 231.5,-107.5 365.5,-107.5 365.5,-88.5 231.5,-88.5"/>
<text text-anchor="middle" x="298.5" y="-95.5" font-family="Helvetica,sans-Serif" font-size="10.00">BlackMisc::CIdentifiable</text>
</a>
</g>
</g>
<!-- Node6&#45;&gt;Node1 -->
<g id="edge5" class="edge">
<title>Node6&#45;&gt;Node1</title>
<path fill="none" stroke="midnightblue" d="M375.75,-87.25C391.16,-85.07 406.67,-82.89 419.86,-81.03"/>
<polygon fill="midnightblue" stroke="midnightblue" points="375.07,-83.81 365.66,-88.67 376.05,-90.74 375.07,-83.81"/>
</g>
<!-- Node7 -->
<g id="node7" class="node">
<title>Node7</title>
<g id="a_node7"><a xlink:href="class_black_gui_1_1_c_enable_for_frameless_window.html" target="_top" xlink:title="Main window which can be frameless.">
<polygon fill="none" stroke="black" points="213,-39 213,-69 384,-69 384,-39 213,-39"/>
<text text-anchor="start" x="221" y="-57" font-family="Helvetica,sans-Serif" font-size="10.00">BlackGui::CEnableForFrameless</text>
<text text-anchor="middle" x="298.5" y="-46" font-family="Helvetica,sans-Serif" font-size="10.00">Window</text>
</a>
</g>
</g>
<!-- Node7&#45;&gt;Node1 -->
<g id="edge6" class="edge">
<title>Node7&#45;&gt;Node1</title>
<path fill="none" stroke="midnightblue" d="M394.47,-67.39C403.34,-68.64 411.91,-69.85 419.67,-70.95"/>
<polygon fill="midnightblue" stroke="midnightblue" points="394.74,-63.9 384.35,-65.97 393.76,-70.83 394.74,-63.9"/>
</g>
<!-- Node8 -->
<g id="node8" class="node">
<title>Node8</title>
<g id="a_node8"><a xlink:href="class_black_gui_1_1_i_main_window_access.html" target="_top" xlink:title="Direct acccess to main window`s status bar, info bar and such.">
<polygon fill="none" stroke="black" points="215.5,-0.5 215.5,-19.5 381.5,-19.5 381.5,-0.5 215.5,-0.5"/>
<text text-anchor="middle" x="298.5" y="-7.5" font-family="Helvetica,sans-Serif" font-size="10.00">BlackGui::IMainWindowAccess</text>
</a>
</g>
</g>
<!-- Node8&#45;&gt;Node1 -->
<g id="edge7" class="edge">
<title>Node8&#45;&gt;Node1</title>
<path fill="none" stroke="midnightblue" d="M365.44,-22.37C371.81,-24.3 378.1,-26.49 384,-29 406.7,-38.63 430.02,-55.54 443.62,-66.23"/>
<polygon fill="midnightblue" stroke="midnightblue" points="365.97,-18.89 355.4,-19.57 364.09,-25.63 365.97,-18.89"/>
</g>
</g>
</svg>
