<?xml version="1.0" encoding="UTF-8" standalone="no"?>
<!DOCTYPE svg PUBLIC "-//W3C//DTD SVG 1.1//EN"
 "http://www.w3.org/Graphics/SVG/1.1/DTD/svg11.dtd">
<!-- Generated by graphviz version 2.43.0 (0)
 -->
<!-- Title: BlackGui::Models::CIdentifierListModel Pages: 1 -->
<svg width="266pt" height="341pt"
 viewBox="0.00 0.00 266.00 341.00" xmlns="http://www.w3.org/2000/svg" xmlns:xlink="http://www.w3.org/1999/xlink">
<g id="graph0" class="graph" transform="scale(1 1) rotate(0) translate(4 337)">
<title>BlackGui::Models::CIdentifierListModel</title>
<!-- Node1 -->
<g id="node1" class="node">
<title>Node1</title>
<g id="a_node1"><a xlink:title="Originator list model.">
<polygon fill="#bfbfbf" stroke="black" points="50,-0.5 50,-30.5 208,-30.5 208,-0.5 50,-0.5"/>
<text text-anchor="start" x="58" y="-18.5" font-family="Helvetica,sans-Serif" font-size="10.00">BlackGui::Models::CIdentifier</text>
<text text-anchor="middle" x="129" y="-7.5" font-family="Helvetica,sans-Serif" font-size="10.00">ListModel</text>
</a>
</g>
</g>
<!-- Node2 -->
<g id="node2" class="node">
<title>Node2</title>
<g id="a_node2"><a xlink:href="class_black_gui_1_1_models_1_1_c_list_model_base.html" target="_top" xlink:title=" ">
<polygon fill="none" stroke="black" points="36,-67.5 36,-97.5 222,-97.5 222,-67.5 36,-67.5"/>
<text text-anchor="start" x="44" y="-85.5" font-family="Helvetica,sans-Serif" font-size="10.00">BlackGui::Models::CListModel</text>
<text text-anchor="middle" x="129" y="-74.5" font-family="Helvetica,sans-Serif" font-size="10.00">Base&lt; BlackMisc::CIdentifierList &gt;</text>
</a>
</g>
</g>
<!-- Node2&#45;&gt;Node1 -->
<g id="edge1" class="edge">
<title>Node2&#45;&gt;Node1</title>
<path fill="none" stroke="midnightblue" d="M129,-57.11C129,-48.15 129,-38.32 129,-30.58"/>
<polygon fill="midnightblue" stroke="midnightblue" points="125.5,-57.4 129,-67.4 132.5,-57.4 125.5,-57.4"/>
</g>
<!-- Node3 -->
<g id="node3" class="node">
<title>Node3</title>
<g id="a_node3"><a xlink:href="class_black_gui_1_1_models_1_1_c_list_model_base_non_template.html" target="_top" xlink:title="Non templated base class, allows Q_OBJECT and signals to be used.">
<polygon fill="none" stroke="black" points="48.5,-134.5 48.5,-164.5 209.5,-164.5 209.5,-134.5 48.5,-134.5"/>
<text text-anchor="start" x="56.5" y="-152.5" font-family="Helvetica,sans-Serif" font-size="10.00">BlackGui::Models::CListModel</text>
<text text-anchor="middle" x="129" y="-141.5" font-family="Helvetica,sans-Serif" font-size="10.00">BaseNonTemplate</text>
</a>
</g>
</g>
<!-- Node3&#45;&gt;Node2 -->
<g id="edge2" class="edge">
<title>Node3&#45;&gt;Node2</title>
<path fill="none" stroke="midnightblue" d="M129,-124.11C129,-115.15 129,-105.32 129,-97.58"/>
<polygon fill="midnightblue" stroke="midnightblue" points="125.5,-124.4 129,-134.4 132.5,-124.4 125.5,-124.4"/>
</g>
<!-- Node4 -->
<g id="node4" class="node">
<title>Node4</title>
<g id="a_node4"><a target="_parent" xlink:href="http://doc.qt.io/qt-5/qstandarditemmodel.html" xlink:title=" ">
<polygon fill="none" stroke="black" points="0,-201.5 0,-220.5 120,-220.5 120,-201.5 0,-201.5"/>
<text text-anchor="middle" x="60" y="-208.5" font-family="Helvetica,sans-Serif" font-size="10.00">QStandardItemModel</text>
</a>
</g>
</g>
<!-- Node4&#45;&gt;Node3 -->
<g id="edge3" class="edge">
<title>Node4&#45;&gt;Node3</title>
<path fill="none" stroke="midnightblue" d="M77.49,-194.92C88.32,-185.58 102.14,-173.66 112.74,-164.52"/>
<polygon fill="midnightblue" stroke="midnightblue" points="75.17,-192.29 69.89,-201.48 79.74,-197.6 75.17,-192.29"/>
</g>
<!-- Node5 -->
<g id="node5" class="node">
<title>Node5</title>
<g id="a_node5"><a target="_parent" xlink:href="http://doc.qt.io/qt-5/qabstractitemmodel.html" xlink:title=" ">
<polygon fill="none" stroke="black" points="1.5,-257.5 1.5,-276.5 118.5,-276.5 118.5,-257.5 1.5,-257.5"/>
<text text-anchor="middle" x="60" y="-264.5" font-family="Helvetica,sans-Serif" font-size="10.00">QAbstractItemModel</text>
</a>
</g>
</g>
<!-- Node5&#45;&gt;Node4 -->
<g id="edge4" class="edge">
<title>Node5&#45;&gt;Node4</title>
<path fill="none" stroke="midnightblue" d="M60,-246.8C60,-237.91 60,-227.78 60,-220.75"/>
<polygon fill="midnightblue" stroke="midnightblue" points="56.5,-247.08 60,-257.08 63.5,-247.08 56.5,-247.08"/>
</g>
<!-- Node6 -->
<g id="node6" class="node">
<title>Node6</title>
<g id="a_node6"><a target="_parent" xlink:href="http://doc.qt.io/qt-5/qobject.html" xlink:title=" ">
<polygon fill="none" stroke="black" points="32,-313.5 32,-332.5 88,-332.5 88,-313.5 32,-313.5"/>
<text text-anchor="middle" x="60" y="-320.5" font-family="Helvetica,sans-Serif" font-size="10.00">QObject</text>
</a>
</g>
</g>
<!-- Node6&#45;&gt;Node5 -->
<g id="edge5" class="edge">
<title>Node6&#45;&gt;Node5</title>
<path fill="none" stroke="midnightblue" d="M60,-302.8C60,-293.91 60,-283.78 60,-276.75"/>
<polygon fill="midnightblue" stroke="midnightblue" points="56.5,-303.08 60,-313.08 63.5,-303.08 56.5,-303.08"/>
</g>
<!-- Node7 -->
<g id="node7" class="node">
<title>Node7</title>
<g id="a_node7"><a xlink:href="class_black_gui_1_1_c_drop_base.html" target="_top" xlink:title="Utilities for dropping swift value objects.">
<polygon fill="none" stroke="black" points="138,-201.5 138,-220.5 258,-220.5 258,-201.5 138,-201.5"/>
<text text-anchor="middle" x="198" y="-208.5" font-family="Helvetica,sans-Serif" font-size="10.00">BlackGui::CDropBase</text>
</a>
</g>
</g>
<!-- Node7&#45;&gt;Node3 -->
<g id="edge6" class="edge">
<title>Node7&#45;&gt;Node3</title>
<path fill="none" stroke="midnightblue" d="M180.51,-194.92C169.68,-185.58 155.86,-173.66 145.26,-164.52"/>
<polygon fill="midnightblue" stroke="midnightblue" points="178.26,-197.6 188.11,-201.48 182.83,-192.29 178.26,-197.6"/>
</g>
</g>
</svg>
