<?xml version="1.0" encoding="UTF-8" standalone="no"?>
<!DOCTYPE svg PUBLIC "-//W3C//DTD SVG 1.1//EN"
 "http://www.w3.org/Graphics/SVG/1.1/DTD/svg11.dtd">
<!-- Generated by graphviz version 2.43.0 (0)
 -->
<!-- Title: BlackGui::Models::CListModelTimestampWithOffsetObjects&lt; T, UseCompare &gt; Pages: 1 -->
<svg width="266pt" height="419pt"
 viewBox="0.00 0.00 266.00 419.00" xmlns="http://www.w3.org/2000/svg" xmlns:xlink="http://www.w3.org/1999/xlink">
<g id="graph0" class="graph" transform="scale(1 1) rotate(0) translate(4 415)">
<title>BlackGui::Models::CListModelTimestampWithOffsetObjects&lt; T, UseCompare &gt;</title>
<!-- Node1 -->
<g id="node1" class="node">
<title>Node1</title>
<g id="a_node1"><a xlink:title="List model for timestamp based objects with offset.">
<polygon fill="#bfbfbf" stroke="black" points="48.5,-0.5 48.5,-41.5 209.5,-41.5 209.5,-0.5 48.5,-0.5"/>
<text text-anchor="start" x="56.5" y="-29.5" font-family="Helvetica,sans-Serif" font-size="10.00">BlackGui::Models::CListModel</text>
<text text-anchor="start" x="56.5" y="-18.5" font-family="Helvetica,sans-Serif" font-size="10.00">TimestampWithOffsetObjects</text>
<text text-anchor="middle" x="129" y="-7.5" font-family="Helvetica,sans-Serif" font-size="10.00">&lt; T, UseCompare &gt;</text>
</a>
</g>
</g>
<!-- Node2 -->
<g id="node2" class="node">
<title>Node2</title>
<g id="a_node2"><a xlink:href="class_black_gui_1_1_models_1_1_c_list_model_timestamp_objects.html" target="_top" xlink:title=" ">
<polygon fill="none" stroke="black" points="45.5,-78.5 45.5,-108.5 212.5,-108.5 212.5,-78.5 45.5,-78.5"/>
<text text-anchor="start" x="53.5" y="-96.5" font-family="Helvetica,sans-Serif" font-size="10.00">BlackGui::Models::CListModel</text>
<text text-anchor="middle" x="129" y="-85.5" font-family="Helvetica,sans-Serif" font-size="10.00">TimestampObjects&lt; T, false &gt;</text>
</a>
</g>
</g>
<!-- Node2&#45;&gt;Node1 -->
<g id="edge1" class="edge">
<title>Node2&#45;&gt;Node1</title>
<path fill="none" stroke="midnightblue" d="M129,-67.98C129,-59.35 129,-49.76 129,-41.59"/>
<polygon fill="midnightblue" stroke="midnightblue" points="125.5,-68.23 129,-78.23 132.5,-68.23 125.5,-68.23"/>
</g>
<!-- Node3 -->
<g id="node3" class="node">
<title>Node3</title>
<g id="a_node3"><a xlink:href="class_black_gui_1_1_models_1_1_c_list_model_base.html" target="_top" xlink:title="List model.">
<polygon fill="none" stroke="black" points="48.5,-145.5 48.5,-175.5 209.5,-175.5 209.5,-145.5 48.5,-145.5"/>
<text text-anchor="start" x="56.5" y="-163.5" font-family="Helvetica,sans-Serif" font-size="10.00">BlackGui::Models::CListModel</text>
<text text-anchor="middle" x="129" y="-152.5" font-family="Helvetica,sans-Serif" font-size="10.00">Base&lt; T, UseCompare &gt;</text>
</a>
</g>
</g>
<!-- Node3&#45;&gt;Node2 -->
<g id="edge2" class="edge">
<title>Node3&#45;&gt;Node2</title>
<path fill="none" stroke="midnightblue" d="M129,-135.11C129,-126.15 129,-116.32 129,-108.58"/>
<polygon fill="midnightblue" stroke="midnightblue" points="125.5,-135.4 129,-145.4 132.5,-135.4 125.5,-135.4"/>
</g>
<!-- Node4 -->
<g id="node4" class="node">
<title>Node4</title>
<g id="a_node4"><a xlink:href="class_black_gui_1_1_models_1_1_c_list_model_base_non_template.html" target="_top" xlink:title="Non templated base class, allows Q_OBJECT and signals to be used.">
<polygon fill="none" stroke="black" points="48.5,-212.5 48.5,-242.5 209.5,-242.5 209.5,-212.5 48.5,-212.5"/>
<text text-anchor="start" x="56.5" y="-230.5" font-family="Helvetica,sans-Serif" font-size="10.00">BlackGui::Models::CListModel</text>
<text text-anchor="middle" x="129" y="-219.5" font-family="Helvetica,sans-Serif" font-size="10.00">BaseNonTemplate</text>
</a>
</g>
</g>
<!-- Node4&#45;&gt;Node3 -->
<g id="edge3" class="edge">
<title>Node4&#45;&gt;Node3</title>
<path fill="none" stroke="midnightblue" d="M129,-202.11C129,-193.15 129,-183.32 129,-175.58"/>
<polygon fill="midnightblue" stroke="midnightblue" points="125.5,-202.4 129,-212.4 132.5,-202.4 125.5,-202.4"/>
</g>
<!-- Node5 -->
<g id="node5" class="node">
<title>Node5</title>
<g id="a_node5"><a target="_parent" xlink:href="http://doc.qt.io/qt-5/qstandarditemmodel.html" xlink:title=" ">
<polygon fill="none" stroke="black" points="0,-279.5 0,-298.5 120,-298.5 120,-279.5 0,-279.5"/>
<text text-anchor="middle" x="60" y="-286.5" font-family="Helvetica,sans-Serif" font-size="10.00">QStandardItemModel</text>
</a>
</g>
</g>
<!-- Node5&#45;&gt;Node4 -->
<g id="edge4" class="edge">
<title>Node5&#45;&gt;Node4</title>
<path fill="none" stroke="midnightblue" d="M77.49,-272.92C88.32,-263.58 102.14,-251.66 112.74,-242.52"/>
<polygon fill="midnightblue" stroke="midnightblue" points="75.17,-270.29 69.89,-279.48 79.74,-275.6 75.17,-270.29"/>
</g>
<!-- Node6 -->
<g id="node6" class="node">
<title>Node6</title>
<g id="a_node6"><a target="_parent" xlink:href="http://doc.qt.io/qt-5/qabstractitemmodel.html" xlink:title=" ">
<polygon fill="none" stroke="black" points="1.5,-335.5 1.5,-354.5 118.5,-354.5 118.5,-335.5 1.5,-335.5"/>
<text text-anchor="middle" x="60" y="-342.5" font-family="Helvetica,sans-Serif" font-size="10.00">QAbstractItemModel</text>
</a>
</g>
</g>
<!-- Node6&#45;&gt;Node5 -->
<g id="edge5" class="edge">
<title>Node6&#45;&gt;Node5</title>
<path fill="none" stroke="midnightblue" d="M60,-324.8C60,-315.91 60,-305.78 60,-298.75"/>
<polygon fill="midnightblue" stroke="midnightblue" points="56.5,-325.08 60,-335.08 63.5,-325.08 56.5,-325.08"/>
</g>
<!-- Node7 -->
<g id="node7" class="node">
<title>Node7</title>
<g id="a_node7"><a target="_parent" xlink:href="http://doc.qt.io/qt-5/qobject.html" xlink:title=" ">
<polygon fill="none" stroke="black" points="32,-391.5 32,-410.5 88,-410.5 88,-391.5 32,-391.5"/>
<text text-anchor="middle" x="60" y="-398.5" font-family="Helvetica,sans-Serif" font-size="10.00">QObject</text>
</a>
</g>
</g>
<!-- Node7&#45;&gt;Node6 -->
<g id="edge6" class="edge">
<title>Node7&#45;&gt;Node6</title>
<path fill="none" stroke="midnightblue" d="M60,-380.8C60,-371.91 60,-361.78 60,-354.75"/>
<polygon fill="midnightblue" stroke="midnightblue" points="56.5,-381.08 60,-391.08 63.5,-381.08 56.5,-381.08"/>
</g>
<!-- Node8 -->
<g id="node8" class="node">
<title>Node8</title>
<g id="a_node8"><a xlink:href="class_black_gui_1_1_c_drop_base.html" target="_top" xlink:title="Utilities for dropping swift value objects.">
<polygon fill="none" stroke="black" points="138,-279.5 138,-298.5 258,-298.5 258,-279.5 138,-279.5"/>
<text text-anchor="middle" x="198" y="-286.5" font-family="Helvetica,sans-Serif" font-size="10.00">BlackGui::CDropBase</text>
</a>
</g>
</g>
<!-- Node8&#45;&gt;Node4 -->
<g id="edge7" class="edge">
<title>Node8&#45;&gt;Node4</title>
<path fill="none" stroke="midnightblue" d="M180.51,-272.92C169.68,-263.58 155.86,-251.66 145.26,-242.52"/>
<polygon fill="midnightblue" stroke="midnightblue" points="178.26,-275.6 188.11,-279.48 182.83,-270.29 178.26,-275.6"/>
</g>
</g>
</svg>
