<?xml version="1.0" encoding="UTF-8" standalone="no"?>
<!DOCTYPE svg PUBLIC "-//W3C//DTD SVG 1.1//EN"
 "http://www.w3.org/Graphics/SVG/1.1/DTD/svg11.dtd">
<!-- Generated by graphviz version 2.43.0 (0)
 -->
<!-- Title: BlackCore::Context::CContextSimulator Pages: 1 -->
<svg width="590pt" height="176pt"
 viewBox="0.00 0.00 590.00 175.50" xmlns="http://www.w3.org/2000/svg" xmlns:xlink="http://www.w3.org/1999/xlink">
<g id="graph0" class="graph" transform="scale(1 1) rotate(0) translate(4 171.5)">
<title>BlackCore::Context::CContextSimulator</title>
<!-- Node1 -->
<g id="node1" class="node">
<title>Node1</title>
<g id="a_node1"><a xlink:title="Network simulator concrete implementation.">
<polygon fill="#bfbfbf" stroke="black" points="467,-63 467,-93 582,-93 582,-63 467,-63"/>
<text text-anchor="start" x="475" y="-81" font-family="Helvetica,sans-Serif" font-size="10.00">BlackCore::Context</text>
<text text-anchor="middle" x="524.5" y="-70" font-family="Helvetica,sans-Serif" font-size="10.00">::CContextSimulator</text>
</a>
</g>
</g>
<!-- Node2 -->
<g id="node2" class="node">
<title>Node2</title>
<g id="a_node2"><a xlink:href="class_black_core_1_1_context_1_1_i_context_simulator.html" target="_top" xlink:title="Network context.">
<polygon fill="none" stroke="black" points="302,-137 302,-167 413,-167 413,-137 302,-137"/>
<text text-anchor="start" x="310" y="-155" font-family="Helvetica,sans-Serif" font-size="10.00">BlackCore::Context</text>
<text text-anchor="middle" x="357.5" y="-144" font-family="Helvetica,sans-Serif" font-size="10.00">::IContextSimulator</text>
</a>
</g>
</g>
<!-- Node2&#45;&gt;Node1 -->
<g id="edge1" class="edge">
<title>Node2&#45;&gt;Node1</title>
<path fill="none" stroke="midnightblue" d="M415.32,-133.36C420.67,-131.32 425.96,-129.19 431,-127 454.17,-116.94 479.45,-103.36 497.72,-93.05"/>
<polygon fill="midnightblue" stroke="midnightblue" points="413.87,-130.16 405.71,-136.91 416.3,-136.73 413.87,-130.16"/>
</g>
<!-- Node3 -->
<g id="node3" class="node">
<title>Node3</title>
<g id="a_node3"><a xlink:href="class_black_core_1_1_context_1_1_i_context.html" target="_top" xlink:title="Base for all context classes.">
<polygon fill="none" stroke="black" points="115,-137 115,-167 225,-167 225,-137 115,-137"/>
<text text-anchor="start" x="123" y="-155" font-family="Helvetica,sans-Serif" font-size="10.00">BlackCore::Context</text>
<text text-anchor="middle" x="170" y="-144" font-family="Helvetica,sans-Serif" font-size="10.00">::IContext</text>
</a>
</g>
</g>
<!-- Node3&#45;&gt;Node2 -->
<g id="edge2" class="edge">
<title>Node3&#45;&gt;Node2</title>
<path fill="none" stroke="midnightblue" d="M235.28,-152C257.01,-152 281.06,-152 301.96,-152"/>
<polygon fill="midnightblue" stroke="midnightblue" points="235.15,-148.5 225.15,-152 235.15,-155.5 235.15,-148.5"/>
</g>
<!-- Node4 -->
<g id="node4" class="node">
<title>Node4</title>
<g id="a_node4"><a target="_parent" xlink:href="http://doc.qt.io/qt-5/qobject.html" xlink:title=" ">
<polygon fill="none" stroke="black" points="0,-142.5 0,-161.5 56,-161.5 56,-142.5 0,-142.5"/>
<text text-anchor="middle" x="28" y="-149.5" font-family="Helvetica,sans-Serif" font-size="10.00">QObject</text>
</a>
</g>
</g>
<!-- Node4&#45;&gt;Node3 -->
<g id="edge3" class="edge">
<title>Node4&#45;&gt;Node3</title>
<path fill="none" stroke="midnightblue" d="M66.61,-152C81.41,-152 98.69,-152 114.8,-152"/>
<polygon fill="midnightblue" stroke="midnightblue" points="66.33,-148.5 56.33,-152 66.33,-155.5 66.33,-148.5"/>
</g>
<!-- Node5 -->
<g id="node5" class="node">
<title>Node5</title>
<g id="a_node5"><a xlink:href="class_black_misc_1_1_simulation_1_1_i_aircraft_model_set_provider.html" target="_top" xlink:title="Value object encapsulating a list of aircraft models.">
<polygon fill="none" stroke="black" points="284,-88 284,-118 431,-118 431,-88 284,-88"/>
<text text-anchor="start" x="292" y="-106" font-family="Helvetica,sans-Serif" font-size="10.00">BlackMisc::Simulation</text>
<text text-anchor="middle" x="357.5" y="-95" font-family="Helvetica,sans-Serif" font-size="10.00">::IAircraftModelSetProvider</text>
</a>
</g>
</g>
<!-- Node5&#45;&gt;Node1 -->
<g id="edge4" class="edge">
<title>Node5&#45;&gt;Node1</title>
<path fill="none" stroke="midnightblue" d="M441.45,-90.43C450.06,-89.13 458.67,-87.82 466.9,-86.58"/>
<polygon fill="midnightblue" stroke="midnightblue" points="440.71,-87 431.35,-91.96 441.76,-93.92 440.71,-87"/>
</g>
<!-- Node6 -->
<g id="node6" class="node">
<title>Node6</title>
<g id="a_node6"><a xlink:href="class_black_misc_1_1_i_provider.html" target="_top" xlink:title="Base class for providers.">
<polygon fill="none" stroke="black" points="112,-93.5 112,-112.5 228,-112.5 228,-93.5 112,-93.5"/>
<text text-anchor="middle" x="170" y="-100.5" font-family="Helvetica,sans-Serif" font-size="10.00">BlackMisc::IProvider</text>
</a>
</g>
</g>
<!-- Node6&#45;&gt;Node5 -->
<g id="edge5" class="edge">
<title>Node6&#45;&gt;Node5</title>
<path fill="none" stroke="midnightblue" d="M238.24,-103C253.03,-103 268.77,-103 283.77,-103"/>
<polygon fill="midnightblue" stroke="midnightblue" points="238.17,-99.5 228.17,-103 238.17,-106.5 238.17,-99.5"/>
</g>
<!-- Node7 -->
<g id="node7" class="node">
<title>Node7</title>
<g id="a_node7"><a xlink:href="class_black_misc_1_1_simulation_1_1_c_remote_aircraft_aware.html" target="_top" xlink:title="Class which can be directly used to access an.">
<polygon fill="none" stroke="black" points="290.5,-39 290.5,-69 424.5,-69 424.5,-39 290.5,-39"/>
<text text-anchor="start" x="298.5" y="-57" font-family="Helvetica,sans-Serif" font-size="10.00">BlackMisc::Simulation</text>
<text text-anchor="middle" x="357.5" y="-46" font-family="Helvetica,sans-Serif" font-size="10.00">::CRemoteAircraftAware</text>
</a>
</g>
</g>
<!-- Node7&#45;&gt;Node1 -->
<g id="edge6" class="edge">
<title>Node7&#45;&gt;Node1</title>
<path fill="none" stroke="midnightblue" d="M434.58,-65.07C445.45,-66.65 456.47,-68.25 466.88,-69.76"/>
<polygon fill="midnightblue" stroke="midnightblue" points="435.06,-61.6 424.66,-63.62 434.05,-68.53 435.06,-61.6"/>
</g>
<!-- Node8 -->
<g id="node8" class="node">
<title>Node8</title>
<g id="a_node8"><a xlink:href="class_black_misc_1_1_i_provider_aware.html" target="_top" xlink:title=" ">
<polygon fill="none" stroke="black" points="92,-39 92,-69 248,-69 248,-39 92,-39"/>
<text text-anchor="start" x="100" y="-57" font-family="Helvetica,sans-Serif" font-size="10.00">BlackMisc::IProviderAware</text>
<text text-anchor="middle" x="170" y="-46" font-family="Helvetica,sans-Serif" font-size="10.00">&lt; IRemoteAircraftProvider &gt;</text>
</a>
</g>
</g>
<!-- Node8&#45;&gt;Node7 -->
<g id="edge7" class="edge">
<title>Node8&#45;&gt;Node7</title>
<path fill="none" stroke="midnightblue" d="M258.32,-54C269.08,-54 279.94,-54 290.31,-54"/>
<polygon fill="midnightblue" stroke="midnightblue" points="258.06,-50.5 248.06,-54 258.06,-57.5 258.06,-50.5"/>
</g>
<!-- Node9 -->
<g id="node9" class="node">
<title>Node9</title>
<g id="a_node9"><a xlink:href="class_black_misc_1_1_c_identifiable.html" target="_top" xlink:title="Base class with a member CIdentifier to be inherited by a class which has an identity in the environm...">
<polygon fill="none" stroke="black" points="290.5,-0.5 290.5,-19.5 424.5,-19.5 424.5,-0.5 290.5,-0.5"/>
<text text-anchor="middle" x="357.5" y="-7.5" font-family="Helvetica,sans-Serif" font-size="10.00">BlackMisc::CIdentifiable</text>
</a>
</g>
</g>
<!-- Node9&#45;&gt;Node1 -->
<g id="edge8" class="edge">
<title>Node9&#45;&gt;Node1</title>
<path fill="none" stroke="midnightblue" d="M411.33,-22.32C418.03,-24.32 424.73,-26.55 431,-29 454.87,-38.31 480.51,-52.23 498.72,-62.85"/>
<polygon fill="midnightblue" stroke="midnightblue" points="412.15,-18.91 401.58,-19.54 410.24,-25.64 412.15,-18.91"/>
</g>
</g>
</svg>
