<?xml version="1.0" encoding="UTF-8" standalone="no"?>
<!DOCTYPE svg PUBLIC "-//W3C//DTD SVG 1.1//EN"
 "http://www.w3.org/Graphics/SVG/1.1/DTD/svg11.dtd">
<!-- Generated by graphviz version 2.43.0 (0)
 -->
<!-- Title: BlackGui::Components::CSettingsNetworkComponent Pages: 1 -->
<svg width="177pt" height="207pt"
 viewBox="0.00 0.00 176.50 207.00" xmlns="http://www.w3.org/2000/svg" xmlns:xlink="http://www.w3.org/1999/xlink">
<g id="graph0" class="graph" transform="scale(1 1) rotate(0) translate(4 203)">
<title>BlackGui::Components::CSettingsNetworkComponent</title>
<!-- Node1 -->
<g id="node1" class="node">
<title>Node1</title>
<g id="a_node1"><a xlink:title="General settings for network.">
<polygon fill="#bfbfbf" stroke="black" points="0,-0.5 0,-30.5 167,-30.5 167,-0.5 0,-0.5"/>
<text text-anchor="start" x="8" y="-18.5" font-family="Helvetica,sans-Serif" font-size="10.00">BlackGui::Components</text>
<text text-anchor="middle" x="83.5" y="-7.5" font-family="Helvetica,sans-Serif" font-size="10.00">::CSettingsNetworkComponent</text>
</a>
</g>
</g>
<!-- Node2 -->
<g id="node2" class="node">
<title>Node2</title>
<g id="a_node2"><a target="_parent" xlink:href="http://doc.qt.io/qt-5/qframe.html" xlink:title=" ">
<polygon fill="none" stroke="black" points="56,-67.5 56,-86.5 111,-86.5 111,-67.5 56,-67.5"/>
<text text-anchor="middle" x="83.5" y="-74.5" font-family="Helvetica,sans-Serif" font-size="10.00">QFrame</text>
</a>
</g>
</g>
<!-- Node2&#45;&gt;Node1 -->
<g id="edge1" class="edge">
<title>Node2&#45;&gt;Node1</title>
<path fill="none" stroke="midnightblue" d="M83.5,-57.23C83.5,-48.59 83.5,-38.5 83.5,-30.52"/>
<polygon fill="midnightblue" stroke="midnightblue" points="80,-57.48 83.5,-67.48 87,-57.48 80,-57.48"/>
</g>
<!-- Node3 -->
<g id="node3" class="node">
<title>Node3</title>
<g id="a_node3"><a target="_parent" xlink:href="http://doc.qt.io/qt-5/qwidget.html" xlink:title=" ">
<polygon fill="none" stroke="black" points="54,-123.5 54,-142.5 113,-142.5 113,-123.5 54,-123.5"/>
<text text-anchor="middle" x="83.5" y="-130.5" font-family="Helvetica,sans-Serif" font-size="10.00">QWidget</text>
</a>
</g>
</g>
<!-- Node3&#45;&gt;Node2 -->
<g id="edge2" class="edge">
<title>Node3&#45;&gt;Node2</title>
<path fill="none" stroke="midnightblue" d="M83.5,-112.8C83.5,-103.91 83.5,-93.78 83.5,-86.75"/>
<polygon fill="midnightblue" stroke="midnightblue" points="80,-113.08 83.5,-123.08 87,-113.08 80,-113.08"/>
</g>
<!-- Node4 -->
<g id="node4" class="node">
<title>Node4</title>
<g id="a_node4"><a target="_parent" xlink:href="http://doc.qt.io/qt-5/qobject.html" xlink:title=" ">
<polygon fill="none" stroke="black" points="12.5,-179.5 12.5,-198.5 68.5,-198.5 68.5,-179.5 12.5,-179.5"/>
<text text-anchor="middle" x="40.5" y="-186.5" font-family="Helvetica,sans-Serif" font-size="10.00">QObject</text>
</a>
</g>
</g>
<!-- Node4&#45;&gt;Node3 -->
<g id="edge3" class="edge">
<title>Node4&#45;&gt;Node3</title>
<path fill="none" stroke="midnightblue" d="M53.92,-171.14C61.41,-161.74 70.44,-150.4 76.53,-142.75"/>
<polygon fill="midnightblue" stroke="midnightblue" points="51.09,-169.08 47.6,-179.08 56.57,-173.44 51.09,-169.08"/>
</g>
<!-- Node5 -->
<g id="node5" class="node">
<title>Node5</title>
<g id="a_node5"><a target="_parent" xlink:href="http://doc.qt.io/qt-5/qpaintdevice.html" xlink:title=" ">
<polygon fill="none" stroke="black" points="86.5,-179.5 86.5,-198.5 168.5,-198.5 168.5,-179.5 86.5,-179.5"/>
<text text-anchor="middle" x="127.5" y="-186.5" font-family="Helvetica,sans-Serif" font-size="10.00">QPaintDevice</text>
</a>
</g>
</g>
<!-- Node5&#45;&gt;Node3 -->
<g id="edge4" class="edge">
<title>Node5&#45;&gt;Node3</title>
<path fill="none" stroke="midnightblue" d="M113.77,-171.14C106.1,-161.74 96.87,-150.4 90.63,-142.75"/>
<polygon fill="midnightblue" stroke="midnightblue" points="111.2,-173.54 120.23,-179.08 116.63,-169.12 111.2,-173.54"/>
</g>
</g>
</svg>
