<?xml version="1.0" encoding="UTF-8" standalone="no"?>
<!DOCTYPE svg PUBLIC "-//W3C//DTD SVG 1.1//EN"
 "http://www.w3.org/Graphics/SVG/1.1/DTD/svg11.dtd">
<!-- Generated by graphviz version 2.43.0 (0)
 -->
<!-- Title: BlackGui::CEnableForDockWidgetInfoArea Pages: 1 -->
<svg width="860pt" height="1278pt"
 viewBox="0.00 0.00 860.00 1277.50" xmlns="http://www.w3.org/2000/svg" xmlns:xlink="http://www.w3.org/1999/xlink">
<g id="graph0" class="graph" transform="scale(1 1) rotate(0) translate(4 1273.5)">
<title>BlackGui::CEnableForDockWidgetInfoArea</title>
<!-- Node1 -->
<g id="node1" class="node">
<title>Node1</title>
<g id="a_node1"><a xlink:title="Helper class: If a component is residing in an dockable widget. This class provides access to its inf...">
<polygon fill="#bfbfbf" stroke="black" points="0,-773 0,-803 146,-803 146,-773 0,-773"/>
<text text-anchor="start" x="8" y="-791" font-family="Helvetica,sans-Serif" font-size="10.00">BlackGui::CEnableForDock</text>
<text text-anchor="middle" x="73" y="-780" font-family="Helvetica,sans-Serif" font-size="10.00">WidgetInfoArea</text>
</a>
</g>
</g>
<!-- Node2 -->
<g id="node2" class="node">
<title>Node2</title>
<g id="a_node2"><a xlink:href="class_black_gui_1_1_c_overlay_messages_frame_enable_for_dock_widget_info_area.html" target="_top" xlink:title="Using this class provides a QFrame with the overlay and dock widget functionality already integrated.">
<polygon fill="none" stroke="black" points="182,-1190 182,-1220 378,-1220 378,-1190 182,-1190"/>
<text text-anchor="start" x="190" y="-1208" font-family="Helvetica,sans-Serif" font-size="10.00">BlackGui::COverlayMessages</text>
<text text-anchor="middle" x="280" y="-1197" font-family="Helvetica,sans-Serif" font-size="10.00">FrameEnableForDockWidgetInfoArea</text>
</a>
</g>
</g>
<!-- Node1&#45;&gt;Node2 -->
<g id="edge1" class="edge">
<title>Node1&#45;&gt;Node2</title>
<path fill="none" stroke="midnightblue" d="M77.55,-813.11C89.11,-891.3 128.04,-1128.41 182,-1181 185.48,-1184.39 189.36,-1187.33 193.5,-1189.87"/>
<polygon fill="midnightblue" stroke="midnightblue" points="81.01,-812.55 76.1,-803.16 74.08,-813.56 81.01,-812.55"/>
</g>
<!-- Node6 -->
<g id="node6" class="node">
<title>Node6</title>
<g id="a_node6"><a xlink:href="class_black_gui_1_1_components_1_1_c_aircraft_component.html" target="_top" xlink:title="Aircraft widget.">
<polygon fill="none" stroke="black" points="216,-1141 216,-1171 344,-1171 344,-1141 216,-1141"/>
<text text-anchor="start" x="224" y="-1159" font-family="Helvetica,sans-Serif" font-size="10.00">BlackGui::Components</text>
<text text-anchor="middle" x="280" y="-1148" font-family="Helvetica,sans-Serif" font-size="10.00">::CAircraftComponent</text>
</a>
</g>
</g>
<!-- Node1&#45;&gt;Node6 -->
<g id="edge5" class="edge">
<title>Node1&#45;&gt;Node6</title>
<path fill="none" stroke="midnightblue" d="M74.03,-813.32C75.53,-876.86 88.64,-1044.23 182,-1132 191.35,-1140.79 203.4,-1146.51 215.81,-1150.19"/>
<polygon fill="midnightblue" stroke="midnightblue" points="77.52,-812.98 73.87,-803.04 70.52,-813.09 77.52,-812.98"/>
</g>
<!-- Node7 -->
<g id="node7" class="node">
<title>Node7</title>
<g id="a_node7"><a xlink:href="class_black_gui_1_1_components_1_1_c_cockpit_com_component.html" target="_top" xlink:title="The main cockpit area.">
<polygon fill="none" stroke="black" points="207.5,-1092 207.5,-1122 352.5,-1122 352.5,-1092 207.5,-1092"/>
<text text-anchor="start" x="215.5" y="-1110" font-family="Helvetica,sans-Serif" font-size="10.00">BlackGui::Components</text>
<text text-anchor="middle" x="280" y="-1099" font-family="Helvetica,sans-Serif" font-size="10.00">::CCockpitComComponent</text>
</a>
</g>
</g>
<!-- Node1&#45;&gt;Node7 -->
<g id="edge6" class="edge">
<title>Node1&#45;&gt;Node7</title>
<path fill="none" stroke="midnightblue" d="M75.58,-813.58C80.53,-870.86 100.74,-1010.1 182,-1083 189.23,-1089.49 197.94,-1094.28 207.14,-1097.82"/>
<polygon fill="midnightblue" stroke="midnightblue" points="79.04,-812.96 74.77,-803.26 72.06,-813.5 79.04,-812.96"/>
</g>
<!-- Node8 -->
<g id="node8" class="node">
<title>Node8</title>
<g id="a_node8"><a xlink:href="class_black_gui_1_1_components_1_1_c_db_aircraft_category_component.html" target="_top" xlink:title="DB aircraft categories.">
<polygon fill="none" stroke="black" points="190.5,-1043 190.5,-1073 369.5,-1073 369.5,-1043 190.5,-1043"/>
<text text-anchor="start" x="198.5" y="-1061" font-family="Helvetica,sans-Serif" font-size="10.00">BlackGui::Components</text>
<text text-anchor="middle" x="280" y="-1050" font-family="Helvetica,sans-Serif" font-size="10.00">::CDbAircraftCategoryComponent</text>
</a>
</g>
</g>
<!-- Node1&#45;&gt;Node8 -->
<g id="edge7" class="edge">
<title>Node1&#45;&gt;Node8</title>
<path fill="none" stroke="midnightblue" d="M77.6,-813.13C86.13,-863.14 112.36,-975.36 182,-1034 186.11,-1037.46 190.65,-1040.44 195.46,-1043"/>
<polygon fill="midnightblue" stroke="midnightblue" points="81.04,-812.49 76,-803.17 74.13,-813.6 81.04,-812.49"/>
</g>
<!-- Node9 -->
<g id="node9" class="node">
<title>Node9</title>
<g id="a_node9"><a xlink:href="class_black_gui_1_1_components_1_1_c_db_aircraft_icao_component.html" target="_top" xlink:title="DB aircraft ICAO data.">
<polygon fill="none" stroke="black" points="202.5,-994 202.5,-1024 357.5,-1024 357.5,-994 202.5,-994"/>
<text text-anchor="start" x="210.5" y="-1012" font-family="Helvetica,sans-Serif" font-size="10.00">BlackGui::Components</text>
<text text-anchor="middle" x="280" y="-1001" font-family="Helvetica,sans-Serif" font-size="10.00">::CDbAircraftIcaoComponent</text>
</a>
</g>
</g>
<!-- Node1&#45;&gt;Node9 -->
<g id="edge8" class="edge">
<title>Node1&#45;&gt;Node9</title>
<path fill="none" stroke="midnightblue" d="M80.5,-812.81C92.86,-854.94 123.87,-940.26 182,-985 188.05,-989.66 194.88,-993.42 202.06,-996.46"/>
<polygon fill="midnightblue" stroke="midnightblue" points="83.84,-811.75 77.75,-803.08 77.1,-813.65 83.84,-811.75"/>
</g>
<!-- Node10 -->
<g id="node10" class="node">
<title>Node10</title>
<g id="a_node10"><a xlink:href="class_black_gui_1_1_components_1_1_c_db_airline_icao_component.html" target="_top" xlink:title="Airline ICAO code.">
<polygon fill="none" stroke="black" points="204.5,-945 204.5,-975 355.5,-975 355.5,-945 204.5,-945"/>
<text text-anchor="start" x="212.5" y="-963" font-family="Helvetica,sans-Serif" font-size="10.00">BlackGui::Components</text>
<text text-anchor="middle" x="280" y="-952" font-family="Helvetica,sans-Serif" font-size="10.00">::CDbAirlineIcaoComponent</text>
</a>
</g>
</g>
<!-- Node1&#45;&gt;Node10 -->
<g id="edge9" class="edge">
<title>Node1&#45;&gt;Node10</title>
<path fill="none" stroke="midnightblue" d="M85.02,-812.34C101.34,-845.56 135.14,-904.52 182,-936 188.77,-940.55 196.32,-944.23 204.14,-947.22"/>
<polygon fill="midnightblue" stroke="midnightblue" points="88.18,-810.83 80.7,-803.31 81.86,-813.85 88.18,-810.83"/>
</g>
<!-- Node11 -->
<g id="node11" class="node">
<title>Node11</title>
<g id="a_node11"><a xlink:href="class_black_gui_1_1_components_1_1_c_db_country_component.html" target="_top" xlink:title="The countries.">
<polygon fill="none" stroke="black" points="211.5,-896 211.5,-926 348.5,-926 348.5,-896 211.5,-896"/>
<text text-anchor="start" x="219.5" y="-914" font-family="Helvetica,sans-Serif" font-size="10.00">BlackGui::Components</text>
<text text-anchor="middle" x="280" y="-903" font-family="Helvetica,sans-Serif" font-size="10.00">::CDbCountryComponent</text>
</a>
</g>
</g>
<!-- Node1&#45;&gt;Node11 -->
<g id="edge10" class="edge">
<title>Node1&#45;&gt;Node11</title>
<path fill="none" stroke="midnightblue" d="M92.92,-811.08C112.78,-833.77 146.06,-867.73 182,-887 191.1,-891.88 201.2,-895.79 211.36,-898.91"/>
<polygon fill="midnightblue" stroke="midnightblue" points="95.4,-808.59 86.24,-803.27 90.09,-813.14 95.4,-808.59"/>
</g>
<!-- Node12 -->
<g id="node12" class="node">
<title>Node12</title>
<g id="a_node12"><a xlink:href="class_black_gui_1_1_components_1_1_c_db_distributor_component.html" target="_top" xlink:title="Distributors.">
<polygon fill="none" stroke="black" points="204.5,-847 204.5,-877 355.5,-877 355.5,-847 204.5,-847"/>
<text text-anchor="start" x="212.5" y="-865" font-family="Helvetica,sans-Serif" font-size="10.00">BlackGui::Components</text>
<text text-anchor="middle" x="280" y="-854" font-family="Helvetica,sans-Serif" font-size="10.00">::CDbDistributorComponent</text>
</a>
</g>
</g>
<!-- Node1&#45;&gt;Node12 -->
<g id="edge11" class="edge">
<title>Node1&#45;&gt;Node12</title>
<path fill="none" stroke="midnightblue" d="M111.68,-807.6C132.1,-817.67 158,-829.56 182,-838 191.33,-841.28 201.31,-844.29 211.2,-846.98"/>
<polygon fill="midnightblue" stroke="midnightblue" points="113.22,-804.46 102.71,-803.13 110.09,-810.72 113.22,-804.46"/>
</g>
<!-- Node13 -->
<g id="node13" class="node">
<title>Node13</title>
<g id="a_node13"><a xlink:href="class_black_gui_1_1_components_1_1_c_db_livery_component.html" target="_top" xlink:title="Liveries from DB.">
<polygon fill="none" stroke="black" points="215.5,-798 215.5,-828 344.5,-828 344.5,-798 215.5,-798"/>
<text text-anchor="start" x="223.5" y="-816" font-family="Helvetica,sans-Serif" font-size="10.00">BlackGui::Components</text>
<text text-anchor="middle" x="280" y="-805" font-family="Helvetica,sans-Serif" font-size="10.00">::CDbLiveryComponent</text>
</a>
</g>
</g>
<!-- Node1&#45;&gt;Node13 -->
<g id="edge12" class="edge">
<title>Node1&#45;&gt;Node13</title>
<path fill="none" stroke="midnightblue" d="M156.41,-798.05C176,-800.44 196.61,-802.95 215.22,-805.22"/>
<polygon fill="midnightblue" stroke="midnightblue" points="156.63,-794.55 146.28,-796.81 155.78,-801.5 156.63,-794.55"/>
</g>
<!-- Node14 -->
<g id="node14" class="node">
<title>Node14</title>
<g id="a_node14"><a xlink:href="class_black_gui_1_1_components_1_1_c_db_mapping_component.html" target="_top" xlink:title="Mapping component.">
<polygon fill="none" stroke="black" points="209.5,-749 209.5,-779 350.5,-779 350.5,-749 209.5,-749"/>
<text text-anchor="start" x="217.5" y="-767" font-family="Helvetica,sans-Serif" font-size="10.00">BlackGui::Components</text>
<text text-anchor="middle" x="280" y="-756" font-family="Helvetica,sans-Serif" font-size="10.00">::CDbMappingComponent</text>
</a>
</g>
</g>
<!-- Node1&#45;&gt;Node14 -->
<g id="edge13" class="edge">
<title>Node1&#45;&gt;Node14</title>
<path fill="none" stroke="midnightblue" d="M156.5,-778.34C174.06,-776.29 192.43,-774.14 209.44,-772.14"/>
<polygon fill="midnightblue" stroke="midnightblue" points="155.8,-774.9 146.28,-779.54 156.61,-781.85 155.8,-774.9"/>
</g>
<!-- Node15 -->
<g id="node15" class="node">
<title>Node15</title>
<g id="a_node15"><a xlink:href="class_black_gui_1_1_components_1_1_c_db_model_component.html" target="_top" xlink:title="Database models.">
<polygon fill="none" stroke="black" points="215.5,-700 215.5,-730 344.5,-730 344.5,-700 215.5,-700"/>
<text text-anchor="start" x="223.5" y="-718" font-family="Helvetica,sans-Serif" font-size="10.00">BlackGui::Components</text>
<text text-anchor="middle" x="280" y="-707" font-family="Helvetica,sans-Serif" font-size="10.00">::CDbModelComponent</text>
</a>
</g>
</g>
<!-- Node1&#45;&gt;Node15 -->
<g id="edge14" class="edge">
<title>Node1&#45;&gt;Node15</title>
<path fill="none" stroke="midnightblue" d="M113.37,-768.61C133.57,-759.15 158.75,-748.1 182,-740 192.67,-736.28 204.18,-732.84 215.41,-729.77"/>
<polygon fill="midnightblue" stroke="midnightblue" points="111.72,-765.52 104.18,-772.97 114.71,-771.85 111.72,-765.52"/>
</g>
<!-- Node16 -->
<g id="node16" class="node">
<title>Node16</title>
<g id="a_node16"><a xlink:href="class_black_gui_1_1_components_1_1_c_db_stash_component.html" target="_top" xlink:title="Stashed objects.">
<polygon fill="none" stroke="black" points="216,-651 216,-681 344,-681 344,-651 216,-651"/>
<text text-anchor="start" x="224" y="-669" font-family="Helvetica,sans-Serif" font-size="10.00">BlackGui::Components</text>
<text text-anchor="middle" x="280" y="-658" font-family="Helvetica,sans-Serif" font-size="10.00">::CDbStashComponent</text>
</a>
</g>
</g>
<!-- Node1&#45;&gt;Node16 -->
<g id="edge15" class="edge">
<title>Node1&#45;&gt;Node16</title>
<path fill="none" stroke="midnightblue" d="M93.4,-765.1C113.4,-742.94 146.59,-709.98 182,-691 192.42,-685.41 204.15,-681.03 215.76,-677.61"/>
<polygon fill="midnightblue" stroke="midnightblue" points="90.65,-762.93 86.64,-772.74 95.89,-767.57 90.65,-762.93"/>
</g>
<!-- Node17 -->
<g id="node17" class="node">
<title>Node17</title>
<g id="a_node17"><a xlink:href="class_black_gui_1_1_components_1_1_c_mapping_component.html" target="_top" xlink:title="Mappings, models etc.">
<polygon fill="none" stroke="black" points="216,-602 216,-632 344,-632 344,-602 216,-602"/>
<text text-anchor="start" x="224" y="-620" font-family="Helvetica,sans-Serif" font-size="10.00">BlackGui::Components</text>
<text text-anchor="middle" x="280" y="-609" font-family="Helvetica,sans-Serif" font-size="10.00">::CMappingComponent</text>
</a>
</g>
</g>
<!-- Node1&#45;&gt;Node17 -->
<g id="edge16" class="edge">
<title>Node1&#45;&gt;Node17</title>
<path fill="none" stroke="midnightblue" d="M85.37,-763.62C101.92,-730.86 135.8,-673.14 182,-642 192.09,-635.2 203.92,-630.24 215.78,-626.64"/>
<polygon fill="midnightblue" stroke="midnightblue" points="82.06,-762.42 80.79,-772.93 88.34,-765.5 82.06,-762.42"/>
</g>
<!-- Node18 -->
<g id="node18" class="node">
<title>Node18</title>
<g id="a_node18"><a xlink:href="class_black_gui_1_1_components_1_1_c_radar_component.html" target="_top" xlink:title="GUI displaying a radar like view with aircrafts nearby.">
<polygon fill="none" stroke="black" points="216,-553 216,-583 344,-583 344,-553 216,-553"/>
<text text-anchor="start" x="224" y="-571" font-family="Helvetica,sans-Serif" font-size="10.00">BlackGui::Components</text>
<text text-anchor="middle" x="280" y="-560" font-family="Helvetica,sans-Serif" font-size="10.00">::CRadarComponent</text>
</a>
</g>
</g>
<!-- Node1&#45;&gt;Node18 -->
<g id="edge17" class="edge">
<title>Node1&#45;&gt;Node18</title>
<path fill="none" stroke="midnightblue" d="M80.71,-763.19C93.32,-721.46 124.58,-637.43 182,-593 191.83,-585.39 203.74,-580.08 215.8,-576.38"/>
<polygon fill="midnightblue" stroke="midnightblue" points="77.34,-762.26 77.91,-772.84 84.06,-764.22 77.34,-762.26"/>
</g>
<!-- Node19 -->
<g id="node19" class="node">
<title>Node19</title>
<g id="a_node19"><a xlink:href="class_black_gui_1_1_components_1_1_c_simulator_component.html" target="_top" xlink:title="Simulator component.">
<polygon fill="none" stroke="black" points="213.5,-504 213.5,-534 346.5,-534 346.5,-504 213.5,-504"/>
<text text-anchor="start" x="221.5" y="-522" font-family="Helvetica,sans-Serif" font-size="10.00">BlackGui::Components</text>
<text text-anchor="middle" x="280" y="-511" font-family="Helvetica,sans-Serif" font-size="10.00">::CSimulatorComponent</text>
</a>
</g>
</g>
<!-- Node1&#45;&gt;Node19 -->
<g id="edge18" class="edge">
<title>Node1&#45;&gt;Node19</title>
<path fill="none" stroke="midnightblue" d="M77.77,-762.81C86.56,-713.15 113.17,-602.34 182,-544 191.02,-536.35 202.09,-531 213.49,-527.27"/>
<polygon fill="midnightblue" stroke="midnightblue" points="74.26,-762.54 76.07,-772.99 81.17,-763.7 74.26,-762.54"/>
</g>
<!-- Node20 -->
<g id="node20" class="node">
<title>Node20</title>
<g id="a_node20"><a xlink:href="class_black_gui_1_1_components_1_1_c_text_message_component.html" target="_top" xlink:title="Text message widget.">
<polygon fill="none" stroke="black" points="205.5,-455 205.5,-485 354.5,-485 354.5,-455 205.5,-455"/>
<text text-anchor="start" x="213.5" y="-473" font-family="Helvetica,sans-Serif" font-size="10.00">BlackGui::Components</text>
<text text-anchor="middle" x="280" y="-462" font-family="Helvetica,sans-Serif" font-size="10.00">::CTextMessageComponent</text>
</a>
</g>
</g>
<!-- Node1&#45;&gt;Node20 -->
<g id="edge19" class="edge">
<title>Node1&#45;&gt;Node20</title>
<path fill="none" stroke="midnightblue" d="M75.68,-762.64C80.86,-705.86 101.5,-567.76 182,-495 188.71,-488.94 196.69,-484.3 205.16,-480.77"/>
<polygon fill="midnightblue" stroke="midnightblue" points="72.17,-762.62 74.84,-772.87 79.15,-763.19 72.17,-762.62"/>
</g>
<!-- Node21 -->
<g id="node21" class="node">
<title>Node21</title>
<g id="a_node21"><a xlink:href="class_black_gui_1_1_components_1_1_c_user_component.html" target="_top" xlink:title="User componenet (users, clients)">
<polygon fill="none" stroke="black" points="216,-406 216,-436 344,-436 344,-406 216,-406"/>
<text text-anchor="start" x="224" y="-424" font-family="Helvetica,sans-Serif" font-size="10.00">BlackGui::Components</text>
<text text-anchor="middle" x="280" y="-413" font-family="Helvetica,sans-Serif" font-size="10.00">::CUserComponent</text>
</a>
</g>
</g>
<!-- Node1&#45;&gt;Node21 -->
<g id="edge20" class="edge">
<title>Node1&#45;&gt;Node21</title>
<path fill="none" stroke="midnightblue" d="M74.14,-762.44C75.93,-699.05 89.7,-533.48 182,-446 191.34,-437.15 203.39,-431.32 215.79,-427.52"/>
<polygon fill="midnightblue" stroke="midnightblue" points="70.64,-762.64 73.93,-772.71 77.63,-762.78 70.64,-762.64"/>
</g>
<!-- Node22 -->
<g id="node22" class="node">
<title>Node22</title>
<g id="a_node22"><a xlink:href="class_black_gui_1_1_views_1_1_c_view_base_non_template.html" target="_top" xlink:title="Non templated base class, allows Q_OBJECT and signals / slots to be used.">
<polygon fill="none" stroke="black" points="202,-357 202,-387 358,-387 358,-357 202,-357"/>
<text text-anchor="start" x="210" y="-375" font-family="Helvetica,sans-Serif" font-size="10.00">BlackGui::Views::CViewBase</text>
<text text-anchor="middle" x="280" y="-364" font-family="Helvetica,sans-Serif" font-size="10.00">NonTemplate</text>
</a>
</g>
</g>
<!-- Node1&#45;&gt;Node22 -->
<g id="edge21" class="edge">
<title>Node1&#45;&gt;Node22</title>
<path fill="none" stroke="midnightblue" d="M77.67,-762.56C89.43,-684.34 128.62,-449.46 182,-397 187.71,-391.39 194.49,-386.99 201.79,-383.55"/>
<polygon fill="midnightblue" stroke="midnightblue" points="74.13,-762.52 76.13,-772.93 81.06,-763.55 74.13,-762.52"/>
</g>
<!-- Node3 -->
<g id="node3" class="node">
<title>Node3</title>
<g id="a_node3"><a xlink:href="class_black_gui_1_1_components_1_1_c_atc_station_component.html" target="_top" xlink:title="ATC stations component.">
<polygon fill="none" stroke="black" points="453.5,-1239 453.5,-1269 589.5,-1269 589.5,-1239 453.5,-1239"/>
<text text-anchor="start" x="461.5" y="-1257" font-family="Helvetica,sans-Serif" font-size="10.00">BlackGui::Components</text>
<text text-anchor="middle" x="521.5" y="-1246" font-family="Helvetica,sans-Serif" font-size="10.00">::CAtcStationComponent</text>
</a>
</g>
</g>
<!-- Node2&#45;&gt;Node3 -->
<g id="edge2" class="edge">
<title>Node2&#45;&gt;Node3</title>
<path fill="none" stroke="midnightblue" d="M364.6,-1222.1C393.62,-1228.04 425.75,-1234.61 453.27,-1240.25"/>
<polygon fill="midnightblue" stroke="midnightblue" points="364.98,-1218.61 354.49,-1220.03 363.58,-1225.47 364.98,-1218.61"/>
</g>
<!-- Node4 -->
<g id="node4" class="node">
<title>Node4</title>
<g id="a_node4"><a xlink:href="class_black_gui_1_1_components_1_1_c_cockpit_component.html" target="_top" xlink:title="Cockpit component: COM unit, show / hide bar, voice rooms.">
<polygon fill="none" stroke="black" points="457.5,-1190 457.5,-1220 585.5,-1220 585.5,-1190 457.5,-1190"/>
<text text-anchor="start" x="465.5" y="-1208" font-family="Helvetica,sans-Serif" font-size="10.00">BlackGui::Components</text>
<text text-anchor="middle" x="521.5" y="-1197" font-family="Helvetica,sans-Serif" font-size="10.00">::CCockpitComponent</text>
</a>
</g>
</g>
<!-- Node2&#45;&gt;Node4 -->
<g id="edge3" class="edge">
<title>Node2&#45;&gt;Node4</title>
<path fill="none" stroke="midnightblue" d="M388.15,-1205C411.79,-1205 436.09,-1205 457.31,-1205"/>
<polygon fill="midnightblue" stroke="midnightblue" points="388.07,-1201.5 378.07,-1205 388.07,-1208.5 388.07,-1201.5"/>
</g>
<!-- Node5 -->
<g id="node5" class="node">
<title>Node5</title>
<g id="a_node5"><a xlink:href="class_black_gui_1_1_components_1_1_c_weather_component.html" target="_top" xlink:title="Weather component.">
<polygon fill="none" stroke="black" points="457.5,-1141 457.5,-1171 585.5,-1171 585.5,-1141 457.5,-1141"/>
<text text-anchor="start" x="465.5" y="-1159" font-family="Helvetica,sans-Serif" font-size="10.00">BlackGui::Components</text>
<text text-anchor="middle" x="521.5" y="-1148" font-family="Helvetica,sans-Serif" font-size="10.00">::CWeatherComponent</text>
</a>
</g>
</g>
<!-- Node2&#45;&gt;Node5 -->
<g id="edge4" class="edge">
<title>Node2&#45;&gt;Node5</title>
<path fill="none" stroke="midnightblue" d="M364.66,-1187.88C395.07,-1181.66 428.91,-1174.74 457.27,-1168.94"/>
<polygon fill="midnightblue" stroke="midnightblue" points="363.58,-1184.53 354.49,-1189.97 364.98,-1191.39 363.58,-1184.53"/>
</g>
<!-- Node23 -->
<g id="node23" class="node">
<title>Node23</title>
<g id="a_node23"><a xlink:href="class_black_gui_1_1_views_1_1_c_view_base.html" target="_top" xlink:title=" ">
<polygon fill="none" stroke="black" points="428.5,-737 428.5,-767 614.5,-767 614.5,-737 428.5,-737"/>
<text text-anchor="start" x="436.5" y="-755" font-family="Helvetica,sans-Serif" font-size="10.00">BlackGui::Views::CViewBase</text>
<text text-anchor="middle" x="521.5" y="-744" font-family="Helvetica,sans-Serif" font-size="10.00">&lt; Models::CWindLayerListModel &gt;</text>
</a>
</g>
</g>
<!-- Node22&#45;&gt;Node23 -->
<g id="edge22" class="edge">
<title>Node22&#45;&gt;Node23</title>
<path fill="none" stroke="midnightblue" d="M366.98,-387.26C371.03,-390.03 374.76,-393.25 378,-397 474.84,-508.89 315.46,-617.61 414,-728 418.17,-732.67 423.03,-736.53 428.33,-739.72"/>
<polygon fill="midnightblue" stroke="midnightblue" points="368.64,-384.18 358.23,-382.19 365.13,-390.23 368.64,-384.18"/>
</g>
<!-- Node25 -->
<g id="node25" class="node">
<title>Node25</title>
<g id="a_node25"><a xlink:href="class_black_gui_1_1_views_1_1_c_view_base.html" target="_top" xlink:title=" ">
<polygon fill="none" stroke="black" points="438.5,-688 438.5,-718 604.5,-718 604.5,-688 438.5,-688"/>
<text text-anchor="start" x="446.5" y="-706" font-family="Helvetica,sans-Serif" font-size="10.00">BlackGui::Views::CViewBase</text>
<text text-anchor="middle" x="521.5" y="-695" font-family="Helvetica,sans-Serif" font-size="10.00">&lt; Models::CServerListModel &gt;</text>
</a>
</g>
</g>
<!-- Node22&#45;&gt;Node25 -->
<g id="edge24" class="edge">
<title>Node22&#45;&gt;Node25</title>
<path fill="none" stroke="midnightblue" d="M366.89,-387.33C370.97,-390.08 374.72,-393.28 378,-397 461.58,-491.76 328.98,-585.53 414,-679 420.7,-686.36 429.12,-691.71 438.29,-695.57"/>
<polygon fill="midnightblue" stroke="midnightblue" points="368.53,-384.24 358.11,-382.29 365.04,-390.31 368.53,-384.24"/>
</g>
<!-- Node27 -->
<g id="node27" class="node">
<title>Node27</title>
<g id="a_node27"><a xlink:href="class_black_gui_1_1_views_1_1_c_view_base.html" target="_top" xlink:title=" ">
<polygon fill="none" stroke="black" points="438,-639 438,-669 605,-669 605,-639 438,-639"/>
<text text-anchor="start" x="446" y="-657" font-family="Helvetica,sans-Serif" font-size="10.00">BlackGui::Views::CViewBase</text>
<text text-anchor="middle" x="521.5" y="-646" font-family="Helvetica,sans-Serif" font-size="10.00">&lt; Models::CAirportListModel &gt;</text>
</a>
</g>
</g>
<!-- Node22&#45;&gt;Node27 -->
<g id="edge26" class="edge">
<title>Node22&#45;&gt;Node27</title>
<path fill="none" stroke="midnightblue" d="M367.35,-387.82C371.24,-390.46 374.83,-393.5 378,-397 448.34,-474.67 342.48,-553.42 414,-630 420.66,-637.13 428.95,-642.37 437.95,-646.18"/>
<polygon fill="midnightblue" stroke="midnightblue" points="368.83,-384.63 358.42,-382.67 365.33,-390.7 368.83,-384.63"/>
</g>
<!-- Node29 -->
<g id="node29" class="node">
<title>Node29</title>
<g id="a_node29"><a xlink:href="class_black_gui_1_1_views_1_1_c_view_base.html" target="_top" xlink:title=" ">
<polygon fill="none" stroke="black" points="417,-590 417,-620 626,-620 626,-590 417,-590"/>
<text text-anchor="start" x="425" y="-608" font-family="Helvetica,sans-Serif" font-size="10.00">BlackGui::Views::CViewBase</text>
<text text-anchor="middle" x="521.5" y="-597" font-family="Helvetica,sans-Serif" font-size="10.00">&lt; Models::CStatusMessageListModel &gt;</text>
</a>
</g>
</g>
<!-- Node22&#45;&gt;Node29 -->
<g id="edge28" class="edge">
<title>Node22&#45;&gt;Node29</title>
<path fill="none" stroke="midnightblue" d="M367.18,-387.97C371.11,-390.57 374.76,-393.56 378,-397 435.16,-457.64 355.92,-521.25 414,-581 417.3,-584.4 420.98,-587.36 424.92,-589.94"/>
<polygon fill="midnightblue" stroke="midnightblue" points="368.61,-384.76 358.18,-382.89 365.17,-390.85 368.61,-384.76"/>
</g>
<!-- Node31 -->
<g id="node31" class="node">
<title>Node31</title>
<g id="a_node31"><a xlink:href="class_black_gui_1_1_views_1_1_c_view_base.html" target="_top" xlink:title=" ">
<polygon fill="none" stroke="black" points="427,-541 427,-571 616,-571 616,-541 427,-541"/>
<text text-anchor="start" x="435" y="-559" font-family="Helvetica,sans-Serif" font-size="10.00">BlackGui::Views::CViewBase</text>
<text text-anchor="middle" x="521.5" y="-548" font-family="Helvetica,sans-Serif" font-size="10.00">&lt; Models::CCloudLayerListModel &gt;</text>
</a>
</g>
</g>
<!-- Node22&#45;&gt;Node31 -->
<g id="edge30" class="edge">
<title>Node22&#45;&gt;Node31</title>
<path fill="none" stroke="midnightblue" d="M367.16,-388.41C371.06,-390.9 374.71,-393.75 378,-397 421.83,-440.38 369.7,-488.1 414,-531 417.96,-534.83 422.38,-538.12 427.12,-540.93"/>
<polygon fill="midnightblue" stroke="midnightblue" points="368.7,-385.26 358.25,-383.51 365.33,-391.4 368.7,-385.26"/>
</g>
<!-- Node33 -->
<g id="node33" class="node">
<title>Node33</title>
<g id="a_node33"><a xlink:href="class_black_gui_1_1_views_1_1_c_view_base.html" target="_top" xlink:title=" ">
<polygon fill="none" stroke="black" points="430.5,-480.5 430.5,-521.5 612.5,-521.5 612.5,-480.5 430.5,-480.5"/>
<text text-anchor="start" x="438.5" y="-509.5" font-family="Helvetica,sans-Serif" font-size="10.00">BlackGui::Views::CViewBase</text>
<text text-anchor="start" x="438.5" y="-498.5" font-family="Helvetica,sans-Serif" font-size="10.00">&lt; Models::CTemperatureLayerList</text>
<text text-anchor="middle" x="521.5" y="-487.5" font-family="Helvetica,sans-Serif" font-size="10.00">Model &gt;</text>
</a>
</g>
</g>
<!-- Node22&#45;&gt;Node33 -->
<g id="edge32" class="edge">
<title>Node22&#45;&gt;Node33</title>
<path fill="none" stroke="midnightblue" d="M367.3,-389.68C371.07,-391.85 374.67,-394.28 378,-397 406.32,-420.14 385.94,-447.54 414,-471 419.01,-475.19 424.57,-478.79 430.44,-481.9"/>
<polygon fill="midnightblue" stroke="midnightblue" points="368.7,-386.47 358.2,-385.08 365.54,-392.71 368.7,-386.47"/>
</g>
<!-- Node35 -->
<g id="node35" class="node">
<title>Node35</title>
<g id="a_node35"><a xlink:href="class_black_gui_1_1_views_1_1_c_view_base.html" target="_top" xlink:title=" ">
<polygon fill="none" stroke="black" points="432.5,-431 432.5,-461 610.5,-461 610.5,-431 432.5,-431"/>
<text text-anchor="start" x="440.5" y="-449" font-family="Helvetica,sans-Serif" font-size="10.00">BlackGui::Views::CViewBase</text>
<text text-anchor="middle" x="521.5" y="-438" font-family="Helvetica,sans-Serif" font-size="10.00">&lt; Models::CIdentifierListModel &gt;</text>
</a>
</g>
</g>
<!-- Node22&#45;&gt;Node35 -->
<g id="edge34" class="edge">
<title>Node22&#45;&gt;Node35</title>
<path fill="none" stroke="midnightblue" d="M361.38,-390.3C367.09,-392.34 372.68,-394.56 378,-397 395.71,-405.11 396.17,-414.16 414,-422 421.81,-425.43 430.16,-428.4 438.63,-430.96"/>
<polygon fill="midnightblue" stroke="midnightblue" points="362.29,-386.92 351.7,-387.07 360.07,-393.56 362.29,-386.92"/>
</g>
<!-- Node37 -->
<g id="node37" class="node">
<title>Node37</title>
<g id="a_node37"><a xlink:href="class_black_gui_1_1_views_1_1_c_view_base.html" target="_top" xlink:title=" ">
<polygon fill="none" stroke="black" points="418,-382 418,-412 625,-412 625,-382 418,-382"/>
<text text-anchor="start" x="426" y="-400" font-family="Helvetica,sans-Serif" font-size="10.00">BlackGui::Views::CViewBase</text>
<text text-anchor="middle" x="521.5" y="-389" font-family="Helvetica,sans-Serif" font-size="10.00">&lt; Models::CMatchingStatisticsModel &gt;</text>
</a>
</g>
</g>
<!-- Node22&#45;&gt;Node37 -->
<g id="edge36" class="edge">
<title>Node22&#45;&gt;Node37</title>
<path fill="none" stroke="midnightblue" d="M368.49,-381.13C384.51,-382.8 401.36,-384.56 417.77,-386.28"/>
<polygon fill="midnightblue" stroke="midnightblue" points="368.41,-377.6 358.1,-380.05 367.68,-384.57 368.41,-377.6"/>
</g>
<!-- Node39 -->
<g id="node39" class="node">
<title>Node39</title>
<g id="a_node39"><a xlink:href="class_black_gui_1_1_views_1_1_c_view_base.html" target="_top" xlink:title=" ">
<polygon fill="none" stroke="black" points="414,-333 414,-363 629,-363 629,-333 414,-333"/>
<text text-anchor="start" x="422" y="-351" font-family="Helvetica,sans-Serif" font-size="10.00">BlackGui::Views::CViewBase</text>
<text text-anchor="middle" x="521.5" y="-340" font-family="Helvetica,sans-Serif" font-size="10.00">&lt; Models::CAudioDeviceInfoListModel &gt;</text>
</a>
</g>
</g>
<!-- Node22&#45;&gt;Node39 -->
<g id="edge38" class="edge">
<title>Node22&#45;&gt;Node39</title>
<path fill="none" stroke="midnightblue" d="M368.24,-363.26C383.07,-361.77 398.62,-360.21 413.88,-358.68"/>
<polygon fill="midnightblue" stroke="midnightblue" points="367.7,-359.79 358.1,-364.27 368.4,-366.76 367.7,-359.79"/>
</g>
<!-- Node41 -->
<g id="node41" class="node">
<title>Node41</title>
<g id="a_node41"><a xlink:href="class_black_gui_1_1_views_1_1_c_view_base.html" target="_top" xlink:title=" ">
<polygon fill="none" stroke="black" points="417.5,-284 417.5,-314 625.5,-314 625.5,-284 417.5,-284"/>
<text text-anchor="start" x="425.5" y="-302" font-family="Helvetica,sans-Serif" font-size="10.00">BlackGui::Views::CViewBase</text>
<text text-anchor="middle" x="521.5" y="-291" font-family="Helvetica,sans-Serif" font-size="10.00">&lt; Models::CApplicationInfoListModel &gt;</text>
</a>
</g>
</g>
<!-- Node22&#45;&gt;Node41 -->
<g id="edge40" class="edge">
<title>Node22&#45;&gt;Node41</title>
<path fill="none" stroke="midnightblue" d="M328.68,-353.28C353.83,-343.79 385.33,-332.51 414,-324 425.93,-320.46 438.72,-317.1 451.16,-314.05"/>
<polygon fill="midnightblue" stroke="midnightblue" points="327.13,-350.12 319.02,-356.95 329.61,-356.67 327.13,-350.12"/>
</g>
<!-- Node43 -->
<g id="node43" class="node">
<title>Node43</title>
<g id="a_node43"><a xlink:href="class_black_gui_1_1_views_1_1_c_view_base.html" target="_top" xlink:title=" ">
<polygon fill="none" stroke="black" points="443,-235 443,-265 600,-265 600,-235 443,-235"/>
<text text-anchor="start" x="451" y="-253" font-family="Helvetica,sans-Serif" font-size="10.00">BlackGui::Views::CViewBase</text>
<text text-anchor="middle" x="521.5" y="-242" font-family="Helvetica,sans-Serif" font-size="10.00">&lt; Models::CUserListModel &gt;</text>
</a>
</g>
</g>
<!-- Node22&#45;&gt;Node43 -->
<g id="edge42" class="edge">
<title>Node22&#45;&gt;Node43</title>
<path fill="none" stroke="midnightblue" d="M304.33,-350.05C329.48,-327.6 371.62,-293.35 414,-274 423.05,-269.87 432.87,-266.42 442.76,-263.55"/>
<polygon fill="midnightblue" stroke="midnightblue" points="301.85,-347.58 296.79,-356.89 306.55,-352.76 301.85,-347.58"/>
</g>
<!-- Node45 -->
<g id="node45" class="node">
<title>Node45</title>
<g id="a_node45"><a xlink:href="class_black_gui_1_1_views_1_1_c_view_base.html" target="_top" xlink:title=" ">
<polygon fill="none" stroke="red" points="422,-186 422,-216 621,-216 621,-186 422,-186"/>
<text text-anchor="start" x="430" y="-204" font-family="Helvetica,sans-Serif" font-size="10.00">BlackGui::Views::CViewBase</text>
<text text-anchor="middle" x="521.5" y="-193" font-family="Helvetica,sans-Serif" font-size="10.00">&lt; Models::CNameVariantPairModel &gt;</text>
</a>
</g>
</g>
<!-- Node22&#45;&gt;Node45 -->
<g id="edge44" class="edge">
<title>Node22&#45;&gt;Node45</title>
<path fill="none" stroke="midnightblue" d="M295.7,-348.11C317.34,-315.05 361.03,-255.93 414,-225 419.89,-221.56 426.23,-218.61 432.78,-216.09"/>
<polygon fill="midnightblue" stroke="midnightblue" points="292.64,-346.4 290.18,-356.7 298.53,-350.18 292.64,-346.4"/>
</g>
<!-- Node47 -->
<g id="node46" class="node">
<title>Node47</title>
<g id="a_node46"><a xlink:href="class_black_gui_1_1_views_1_1_c_view_base.html" target="_top" xlink:title=" ">
<polygon fill="none" stroke="red" points="435,-137 435,-167 608,-167 608,-137 435,-137"/>
<text text-anchor="start" x="443" y="-155" font-family="Helvetica,sans-Serif" font-size="10.00">BlackGui::Views::CViewBase</text>
<text text-anchor="middle" x="521.5" y="-144" font-family="Helvetica,sans-Serif" font-size="10.00">&lt; Models::CCountryListModel &gt;</text>
</a>
</g>
</g>
<!-- Node22&#45;&gt;Node47 -->
<g id="edge45" class="edge">
<title>Node22&#45;&gt;Node47</title>
<path fill="none" stroke="midnightblue" d="M290.51,-347.38C308.13,-305.25 349.95,-219.64 414,-176 420.42,-171.62 427.52,-168.03 434.91,-165.09"/>
<polygon fill="midnightblue" stroke="midnightblue" points="287.18,-346.29 286.65,-356.87 293.66,-348.93 287.18,-346.29"/>
</g>
<!-- Node49 -->
<g id="node47" class="node">
<title>Node49</title>
<g id="a_node47"><a xlink:href="class_black_gui_1_1_views_1_1_c_view_base.html" target="_top" xlink:title=" ">
<polygon fill="none" stroke="red" points="440,-88 440,-118 603,-118 603,-88 440,-88"/>
<text text-anchor="start" x="448" y="-106" font-family="Helvetica,sans-Serif" font-size="10.00">BlackGui::Views::CViewBase</text>
<text text-anchor="middle" x="521.5" y="-95" font-family="Helvetica,sans-Serif" font-size="10.00">&lt; Models::CClientListModel &gt;</text>
</a>
</g>
</g>
<!-- Node22&#45;&gt;Node49 -->
<g id="edge46" class="edge">
<title>Node22&#45;&gt;Node49</title>
<path fill="none" stroke="midnightblue" d="M287.11,-347.05C300.73,-296.96 338.5,-184.1 414,-127 421.71,-121.17 430.57,-116.71 439.83,-113.3"/>
<polygon fill="midnightblue" stroke="midnightblue" points="283.72,-346.18 284.57,-356.74 290.49,-347.96 283.72,-346.18"/>
</g>
<!-- Node51 -->
<g id="node48" class="node">
<title>Node51</title>
<g id="a_node48"><a xlink:href="class_black_gui_1_1_views_1_1_c_view_base.html" target="_top" xlink:title=" ">
<polygon fill="none" stroke="red" points="422.5,-39 422.5,-69 620.5,-69 620.5,-39 422.5,-39"/>
<text text-anchor="start" x="430.5" y="-57" font-family="Helvetica,sans-Serif" font-size="10.00">BlackGui::Views::CViewBase</text>
<text text-anchor="middle" x="521.5" y="-46" font-family="Helvetica,sans-Serif" font-size="10.00">&lt; Models::CTextMessageListModel &gt;</text>
</a>
</g>
</g>
<!-- Node22&#45;&gt;Node51 -->
<g id="edge47" class="edge">
<title>Node22&#45;&gt;Node51</title>
<path fill="none" stroke="midnightblue" d="M284.69,-347.01C294.49,-289.87 326.69,-149.15 414,-78 418.19,-74.59 422.76,-71.64 427.59,-69.09"/>
<polygon fill="midnightblue" stroke="midnightblue" points="281.22,-346.54 283.06,-356.97 288.12,-347.67 281.22,-346.54"/>
</g>
<!-- Node53 -->
<g id="node49" class="node">
<title>Node53</title>
<g id="a_node49"><a xlink:href="class_black_gui_1_1_views_1_1_c_view_base.html" target="_top" xlink:title="Base class for views.">
<polygon fill="none" stroke="red" points="429,-0.5 429,-19.5 614,-19.5 614,-0.5 429,-0.5"/>
<text text-anchor="middle" x="521.5" y="-7.5" font-family="Helvetica,sans-Serif" font-size="10.00">BlackGui::Views::CViewBase&lt; T &gt;</text>
</a>
</g>
</g>
<!-- Node22&#45;&gt;Node53 -->
<g id="edge48" class="edge">
<title>Node22&#45;&gt;Node53</title>
<path fill="none" stroke="midnightblue" d="M282.69,-346.62C288.41,-282.32 312.85,-112.27 414,-29 418.57,-25.24 423.62,-22.12 428.98,-19.53"/>
<polygon fill="midnightblue" stroke="midnightblue" points="279.19,-346.43 281.87,-356.68 286.17,-346.99 279.19,-346.43"/>
</g>
<!-- Node24 -->
<g id="node24" class="node">
<title>Node24</title>
<g id="a_node24"><a xlink:href="class_black_gui_1_1_views_1_1_c_wind_layer_view.html" target="_top" xlink:title="Wind layer view.">
<polygon fill="none" stroke="black" points="666.5,-742.5 666.5,-761.5 850.5,-761.5 850.5,-742.5 666.5,-742.5"/>
<text text-anchor="middle" x="758.5" y="-749.5" font-family="Helvetica,sans-Serif" font-size="10.00">BlackGui::Views::CWindLayerView</text>
</a>
</g>
</g>
<!-- Node23&#45;&gt;Node24 -->
<g id="edge23" class="edge">
<title>Node23&#45;&gt;Node24</title>
<path fill="none" stroke="midnightblue" d="M624.72,-752C638.57,-752 652.7,-752 666.33,-752"/>
<polygon fill="midnightblue" stroke="midnightblue" points="624.7,-748.5 614.7,-752 624.7,-755.5 624.7,-748.5"/>
</g>
<!-- Node26 -->
<g id="node26" class="node">
<title>Node26</title>
<g id="a_node26"><a xlink:href="class_black_gui_1_1_views_1_1_c_server_view.html" target="_top" xlink:title="Network servers.">
<polygon fill="none" stroke="black" points="676.5,-693.5 676.5,-712.5 840.5,-712.5 840.5,-693.5 676.5,-693.5"/>
<text text-anchor="middle" x="758.5" y="-700.5" font-family="Helvetica,sans-Serif" font-size="10.00">BlackGui::Views::CServerView</text>
</a>
</g>
</g>
<!-- Node25&#45;&gt;Node26 -->
<g id="edge25" class="edge">
<title>Node25&#45;&gt;Node26</title>
<path fill="none" stroke="midnightblue" d="M614.85,-703C635.09,-703 656.38,-703 676.15,-703"/>
<polygon fill="midnightblue" stroke="midnightblue" points="614.69,-699.5 604.69,-703 614.69,-706.5 614.69,-699.5"/>
</g>
<!-- Node28 -->
<g id="node28" class="node">
<title>Node28</title>
<g id="a_node28"><a xlink:href="class_black_gui_1_1_views_1_1_c_airport_view.html" target="_top" xlink:title="Airports view.">
<polygon fill="none" stroke="black" points="676,-644.5 676,-663.5 841,-663.5 841,-644.5 676,-644.5"/>
<text text-anchor="middle" x="758.5" y="-651.5" font-family="Helvetica,sans-Serif" font-size="10.00">BlackGui::Views::CAirportView</text>
</a>
</g>
</g>
<!-- Node27&#45;&gt;Node28 -->
<g id="edge27" class="edge">
<title>Node27&#45;&gt;Node28</title>
<path fill="none" stroke="midnightblue" d="M615.11,-654C635.21,-654 656.33,-654 675.97,-654"/>
<polygon fill="midnightblue" stroke="midnightblue" points="615.02,-650.5 605.02,-654 615.02,-657.5 615.02,-650.5"/>
</g>
<!-- Node30 -->
<g id="node30" class="node">
<title>Node30</title>
<g id="a_node30"><a xlink:href="class_black_gui_1_1_views_1_1_c_status_message_view.html" target="_top" xlink:title="Status message view.">
<polygon fill="none" stroke="black" points="689,-590 689,-620 828,-620 828,-590 689,-590"/>
<text text-anchor="start" x="697" y="-608" font-family="Helvetica,sans-Serif" font-size="10.00">BlackGui::Views::CStatus</text>
<text text-anchor="middle" x="758.5" y="-597" font-family="Helvetica,sans-Serif" font-size="10.00">MessageView</text>
</a>
</g>
</g>
<!-- Node29&#45;&gt;Node30 -->
<g id="edge29" class="edge">
<title>Node29&#45;&gt;Node30</title>
<path fill="none" stroke="midnightblue" d="M636.7,-605C654.48,-605 672.37,-605 688.72,-605"/>
<polygon fill="midnightblue" stroke="midnightblue" points="636.26,-601.5 626.26,-605 636.26,-608.5 636.26,-601.5"/>
</g>
<!-- Node32 -->
<g id="node32" class="node">
<title>Node32</title>
<g id="a_node32"><a xlink:href="class_black_gui_1_1_views_1_1_c_cloud_layer_view.html" target="_top" xlink:title="Airports view.">
<polygon fill="none" stroke="black" points="665,-546.5 665,-565.5 852,-565.5 852,-546.5 665,-546.5"/>
<text text-anchor="middle" x="758.5" y="-553.5" font-family="Helvetica,sans-Serif" font-size="10.00">BlackGui::Views::CCloudLayerView</text>
</a>
</g>
</g>
<!-- Node31&#45;&gt;Node32 -->
<g id="edge31" class="edge">
<title>Node31&#45;&gt;Node32</title>
<path fill="none" stroke="midnightblue" d="M626.25,-556C639.04,-556 652.04,-556 664.65,-556"/>
<polygon fill="midnightblue" stroke="midnightblue" points="626.05,-552.5 616.05,-556 626.05,-559.5 626.05,-552.5"/>
</g>
<!-- Node34 -->
<g id="node34" class="node">
<title>Node34</title>
<g id="a_node34"><a xlink:href="class_black_gui_1_1_views_1_1_c_temperature_layer_view.html" target="_top" xlink:title="Airports view.">
<polygon fill="none" stroke="black" points="673.5,-486 673.5,-516 843.5,-516 843.5,-486 673.5,-486"/>
<text text-anchor="start" x="681.5" y="-504" font-family="Helvetica,sans-Serif" font-size="10.00">BlackGui::Views::CTemperature</text>
<text text-anchor="middle" x="758.5" y="-493" font-family="Helvetica,sans-Serif" font-size="10.00">LayerView</text>
</a>
</g>
</g>
<!-- Node33&#45;&gt;Node34 -->
<g id="edge33" class="edge">
<title>Node33&#45;&gt;Node34</title>
<path fill="none" stroke="midnightblue" d="M623.05,-501C639.81,-501 657.04,-501 673.34,-501"/>
<polygon fill="midnightblue" stroke="midnightblue" points="622.69,-497.5 612.69,-501 622.69,-504.5 622.69,-497.5"/>
</g>
<!-- Node36 -->
<g id="node36" class="node">
<title>Node36</title>
<g id="a_node36"><a xlink:href="class_black_gui_1_1_views_1_1_c_identifier_view.html" target="_top" xlink:title="Originator servers.">
<polygon fill="none" stroke="black" points="670.5,-436.5 670.5,-455.5 846.5,-455.5 846.5,-436.5 670.5,-436.5"/>
<text text-anchor="middle" x="758.5" y="-443.5" font-family="Helvetica,sans-Serif" font-size="10.00">BlackGui::Views::CIdentifierView</text>
</a>
</g>
</g>
<!-- Node35&#45;&gt;Node36 -->
<g id="edge35" class="edge">
<title>Node35&#45;&gt;Node36</title>
<path fill="none" stroke="midnightblue" d="M620.84,-446C637.29,-446 654.25,-446 670.39,-446"/>
<polygon fill="midnightblue" stroke="midnightblue" points="620.67,-442.5 610.67,-446 620.67,-449.5 620.67,-442.5"/>
</g>
<!-- Node38 -->
<g id="node38" class="node">
<title>Node38</title>
<g id="a_node38"><a xlink:href="class_black_gui_1_1_views_1_1_c_matching_statistics_view.html" target="_top" xlink:title="Matching statistics.">
<polygon fill="none" stroke="black" points="682,-382 682,-412 835,-412 835,-382 682,-382"/>
<text text-anchor="start" x="690" y="-400" font-family="Helvetica,sans-Serif" font-size="10.00">BlackGui::Views::CMatching</text>
<text text-anchor="middle" x="758.5" y="-389" font-family="Helvetica,sans-Serif" font-size="10.00">StatisticsView</text>
</a>
</g>
</g>
<!-- Node37&#45;&gt;Node38 -->
<g id="edge37" class="edge">
<title>Node37&#45;&gt;Node38</title>
<path fill="none" stroke="midnightblue" d="M635.52,-397C651.23,-397 667.04,-397 681.83,-397"/>
<polygon fill="midnightblue" stroke="midnightblue" points="635.23,-393.5 625.23,-397 635.23,-400.5 635.23,-393.5"/>
</g>
<!-- Node40 -->
<g id="node40" class="node">
<title>Node40</title>
<g id="a_node40"><a xlink:href="class_black_gui_1_1_views_1_1_c_audio_device_info_view.html" target="_top" xlink:title="Audio device view.">
<polygon fill="none" stroke="black" points="673.5,-333 673.5,-363 843.5,-363 843.5,-333 673.5,-333"/>
<text text-anchor="start" x="681.5" y="-351" font-family="Helvetica,sans-Serif" font-size="10.00">BlackGui::Views::CAudioDevice</text>
<text text-anchor="middle" x="758.5" y="-340" font-family="Helvetica,sans-Serif" font-size="10.00">InfoView</text>
</a>
</g>
</g>
<!-- Node39&#45;&gt;Node40 -->
<g id="edge39" class="edge">
<title>Node39&#45;&gt;Node40</title>
<path fill="none" stroke="midnightblue" d="M639.42,-348C650.9,-348 662.39,-348 673.45,-348"/>
<polygon fill="midnightblue" stroke="midnightblue" points="639.34,-344.5 629.34,-348 639.34,-351.5 639.34,-344.5"/>
</g>
<!-- Node42 -->
<g id="node42" class="node">
<title>Node42</title>
<g id="a_node42"><a xlink:href="class_black_gui_1_1_views_1_1_c_application_info_view.html" target="_top" xlink:title="Network servers.">
<polygon fill="none" stroke="black" points="677,-284 677,-314 840,-314 840,-284 677,-284"/>
<text text-anchor="start" x="685" y="-302" font-family="Helvetica,sans-Serif" font-size="10.00">BlackGui::Views::CApplication</text>
<text text-anchor="middle" x="758.5" y="-291" font-family="Helvetica,sans-Serif" font-size="10.00">InfoView</text>
</a>
</g>
</g>
<!-- Node41&#45;&gt;Node42 -->
<g id="edge41" class="edge">
<title>Node41&#45;&gt;Node42</title>
<path fill="none" stroke="midnightblue" d="M635.66,-299C649.53,-299 663.49,-299 676.76,-299"/>
<polygon fill="midnightblue" stroke="midnightblue" points="635.57,-295.5 625.57,-299 635.57,-302.5 635.57,-295.5"/>
</g>
<!-- Node44 -->
<g id="node44" class="node">
<title>Node44</title>
<g id="a_node44"><a xlink:href="class_black_gui_1_1_views_1_1_c_user_view.html" target="_top" xlink:title="User view.">
<polygon fill="none" stroke="black" points="681,-240.5 681,-259.5 836,-259.5 836,-240.5 681,-240.5"/>
<text text-anchor="middle" x="758.5" y="-247.5" font-family="Helvetica,sans-Serif" font-size="10.00">BlackGui::Views::CUserView</text>
</a>
</g>
</g>
<!-- Node43&#45;&gt;Node44 -->
<g id="edge43" class="edge">
<title>Node43&#45;&gt;Node44</title>
<path fill="none" stroke="midnightblue" d="M610.26,-250C633.43,-250 658.25,-250 680.78,-250"/>
<polygon fill="midnightblue" stroke="midnightblue" points="610.1,-246.5 600.1,-250 610.1,-253.5 610.1,-246.5"/>
</g>
</g>
</svg>
