<?xml version="1.0" encoding="UTF-8" standalone="no"?>
<!DOCTYPE svg PUBLIC "-//W3C//DTD SVG 1.1//EN"
 "http://www.w3.org/Graphics/SVG/1.1/DTD/svg11.dtd">
<!-- Generated by graphviz version 2.43.0 (0)
 -->
<!-- Title: BlackGui::Components::CInfoBarWebReadersStatusComponent Pages: 1 -->
<svg width="220pt" height="274pt"
 viewBox="0.00 0.00 220.00 274.00" xmlns="http://www.w3.org/2000/svg" xmlns:xlink="http://www.w3.org/1999/xlink">
<g id="graph0" class="graph" transform="scale(1 1) rotate(0) translate(4 270)">
<title>BlackGui::Components::CInfoBarWebReadersStatusComponent</title>
<!-- Node1 -->
<g id="node1" class="node">
<title>Node1</title>
<g id="a_node1"><a xlink:title="Info bar displaying status of web readers(swift DB, ...)">
<polygon fill="#bfbfbf" stroke="black" points="0,-0.5 0,-30.5 212,-30.5 212,-0.5 0,-0.5"/>
<text text-anchor="start" x="8" y="-18.5" font-family="Helvetica,sans-Serif" font-size="10.00">BlackGui::Components</text>
<text text-anchor="middle" x="106" y="-7.5" font-family="Helvetica,sans-Serif" font-size="10.00">::CInfoBarWebReadersStatusComponent</text>
</a>
</g>
</g>
<!-- Node2 -->
<g id="node2" class="node">
<title>Node2</title>
<g id="a_node2"><a xlink:href="class_black_gui_1_1_components_1_1_c_info_bar_web_readers_status_base.html" target="_top" xlink:title="Info bar displaying status of web readers(swift DB, ...)">
<polygon fill="none" stroke="black" points="16,-67.5 16,-97.5 196,-97.5 196,-67.5 16,-67.5"/>
<text text-anchor="start" x="24" y="-85.5" font-family="Helvetica,sans-Serif" font-size="10.00">BlackGui::Components</text>
<text text-anchor="middle" x="106" y="-74.5" font-family="Helvetica,sans-Serif" font-size="10.00">::CInfoBarWebReadersStatusBase</text>
</a>
</g>
</g>
<!-- Node2&#45;&gt;Node1 -->
<g id="edge1" class="edge">
<title>Node2&#45;&gt;Node1</title>
<path fill="none" stroke="midnightblue" d="M106,-57.11C106,-48.15 106,-38.32 106,-30.58"/>
<polygon fill="midnightblue" stroke="midnightblue" points="102.5,-57.4 106,-67.4 109.5,-57.4 102.5,-57.4"/>
</g>
<!-- Node3 -->
<g id="node3" class="node">
<title>Node3</title>
<g id="a_node3"><a target="_parent" xlink:href="http://doc.qt.io/qt-5/qframe.html" xlink:title=" ">
<polygon fill="none" stroke="black" points="78.5,-134.5 78.5,-153.5 133.5,-153.5 133.5,-134.5 78.5,-134.5"/>
<text text-anchor="middle" x="106" y="-141.5" font-family="Helvetica,sans-Serif" font-size="10.00">QFrame</text>
</a>
</g>
</g>
<!-- Node3&#45;&gt;Node2 -->
<g id="edge2" class="edge">
<title>Node3&#45;&gt;Node2</title>
<path fill="none" stroke="midnightblue" d="M106,-124.23C106,-115.59 106,-105.5 106,-97.52"/>
<polygon fill="midnightblue" stroke="midnightblue" points="102.5,-124.48 106,-134.48 109.5,-124.48 102.5,-124.48"/>
</g>
<!-- Node4 -->
<g id="node4" class="node">
<title>Node4</title>
<g id="a_node4"><a target="_parent" xlink:href="http://doc.qt.io/qt-5/qwidget.html" xlink:title=" ">
<polygon fill="none" stroke="black" points="76.5,-190.5 76.5,-209.5 135.5,-209.5 135.5,-190.5 76.5,-190.5"/>
<text text-anchor="middle" x="106" y="-197.5" font-family="Helvetica,sans-Serif" font-size="10.00">QWidget</text>
</a>
</g>
</g>
<!-- Node4&#45;&gt;Node3 -->
<g id="edge3" class="edge">
<title>Node4&#45;&gt;Node3</title>
<path fill="none" stroke="midnightblue" d="M106,-179.8C106,-170.91 106,-160.78 106,-153.75"/>
<polygon fill="midnightblue" stroke="midnightblue" points="102.5,-180.08 106,-190.08 109.5,-180.08 102.5,-180.08"/>
</g>
<!-- Node5 -->
<g id="node5" class="node">
<title>Node5</title>
<g id="a_node5"><a target="_parent" xlink:href="http://doc.qt.io/qt-5/qobject.html" xlink:title=" ">
<polygon fill="none" stroke="black" points="35,-246.5 35,-265.5 91,-265.5 91,-246.5 35,-246.5"/>
<text text-anchor="middle" x="63" y="-253.5" font-family="Helvetica,sans-Serif" font-size="10.00">QObject</text>
</a>
</g>
</g>
<!-- Node5&#45;&gt;Node4 -->
<g id="edge4" class="edge">
<title>Node5&#45;&gt;Node4</title>
<path fill="none" stroke="midnightblue" d="M76.42,-238.14C83.91,-228.74 92.94,-217.4 99.03,-209.75"/>
<polygon fill="midnightblue" stroke="midnightblue" points="73.59,-236.08 70.1,-246.08 79.07,-240.44 73.59,-236.08"/>
</g>
<!-- Node6 -->
<g id="node6" class="node">
<title>Node6</title>
<g id="a_node6"><a target="_parent" xlink:href="http://doc.qt.io/qt-5/qpaintdevice.html" xlink:title=" ">
<polygon fill="none" stroke="black" points="109,-246.5 109,-265.5 191,-265.5 191,-246.5 109,-246.5"/>
<text text-anchor="middle" x="150" y="-253.5" font-family="Helvetica,sans-Serif" font-size="10.00">QPaintDevice</text>
</a>
</g>
</g>
<!-- Node6&#45;&gt;Node4 -->
<g id="edge5" class="edge">
<title>Node6&#45;&gt;Node4</title>
<path fill="none" stroke="midnightblue" d="M136.27,-238.14C128.6,-228.74 119.37,-217.4 113.13,-209.75"/>
<polygon fill="midnightblue" stroke="midnightblue" points="133.7,-240.54 142.73,-246.08 139.13,-236.12 133.7,-240.54"/>
</g>
</g>
</svg>
