<?xml version="1.0" encoding="UTF-8" standalone="no"?>
<!DOCTYPE svg PUBLIC "-//W3C//DTD SVG 1.1//EN"
 "http://www.w3.org/Graphics/SVG/1.1/DTD/svg11.dtd">
<!-- Generated by graphviz version 2.43.0 (0)
 -->
<!-- Title: BlackGui::CInfoArea Pages: 1 -->
<svg width="752pt" height="235pt"
 viewBox="0.00 0.00 752.00 235.00" xmlns="http://www.w3.org/2000/svg" xmlns:xlink="http://www.w3.org/1999/xlink">
<g id="graph0" class="graph" transform="scale(1 1) rotate(0) translate(4 231)">
<title>BlackGui::CInfoArea</title>
<!-- Node1 -->
<g id="node1" class="node">
<title>Node1</title>
<g id="a_node1"><a xlink:title="Info area, hosting dockable widgets.">
<polygon fill="#bfbfbf" stroke="black" points="420,-104 420,-123 534,-123 534,-104 420,-104"/>
<text text-anchor="middle" x="477" y="-111" font-family="Helvetica,sans-Serif" font-size="10.00">BlackGui::CInfoArea</text>
</a>
</g>
</g>
<!-- Node7 -->
<g id="node7" class="node">
<title>Node7</title>
<g id="a_node7"><a xlink:href="class_black_gui_1_1_components_1_1_c_cockpit_info_area_component.html" target="_top" xlink:title="The cockpit itself is part of the main info area, but itself also an info area. hence windows can be ...">
<polygon fill="none" stroke="black" points="575,-196.5 575,-226.5 739,-226.5 739,-196.5 575,-196.5"/>
<text text-anchor="start" x="583" y="-214.5" font-family="Helvetica,sans-Serif" font-size="10.00">BlackGui::Components</text>
<text text-anchor="middle" x="657" y="-203.5" font-family="Helvetica,sans-Serif" font-size="10.00">::CCockpitInfoAreaComponent</text>
</a>
</g>
</g>
<!-- Node1&#45;&gt;Node7 -->
<g id="edge6" class="edge">
<title>Node1&#45;&gt;Node7</title>
<path fill="none" stroke="midnightblue" d="M494.85,-130.64C512.24,-147.4 540.86,-172.52 570,-187.5 576.62,-190.9 583.78,-193.87 591.04,-196.45"/>
<polygon fill="midnightblue" stroke="midnightblue" points="496.85,-127.69 487.27,-123.16 491.93,-132.68 496.85,-127.69"/>
</g>
<!-- Node8 -->
<g id="node8" class="node">
<title>Node8</title>
<g id="a_node8"><a xlink:href="class_black_gui_1_1_components_1_1_c_core_info_area_component.html" target="_top" xlink:title="Main info area.">
<polygon fill="none" stroke="black" points="582.5,-147.5 582.5,-177.5 731.5,-177.5 731.5,-147.5 582.5,-147.5"/>
<text text-anchor="start" x="590.5" y="-165.5" font-family="Helvetica,sans-Serif" font-size="10.00">BlackGui::Components</text>
<text text-anchor="middle" x="657" y="-154.5" font-family="Helvetica,sans-Serif" font-size="10.00">::CCoreInfoAreaComponent</text>
</a>
</g>
</g>
<!-- Node1&#45;&gt;Node8 -->
<g id="edge7" class="edge">
<title>Node1&#45;&gt;Node8</title>
<path fill="none" stroke="midnightblue" d="M522.6,-125.78C546.49,-132.35 576.12,-140.51 601.38,-147.46"/>
<polygon fill="midnightblue" stroke="midnightblue" points="523.31,-122.34 512.74,-123.06 521.46,-129.09 523.31,-122.34"/>
</g>
<!-- Node9 -->
<g id="node9" class="node">
<title>Node9</title>
<g id="a_node9"><a xlink:href="class_black_gui_1_1_components_1_1_c_data_info_area_component.html" target="_top" xlink:title="Info area containing the DB data (models, liveries ...)">
<polygon fill="none" stroke="black" points="582,-98.5 582,-128.5 732,-128.5 732,-98.5 582,-98.5"/>
<text text-anchor="start" x="590" y="-116.5" font-family="Helvetica,sans-Serif" font-size="10.00">BlackGui::Components</text>
<text text-anchor="middle" x="657" y="-105.5" font-family="Helvetica,sans-Serif" font-size="10.00">::CDataInfoAreaComponent</text>
</a>
</g>
</g>
<!-- Node1&#45;&gt;Node9 -->
<g id="edge8" class="edge">
<title>Node1&#45;&gt;Node9</title>
<path fill="none" stroke="midnightblue" d="M544.4,-113.5C556.59,-113.5 569.39,-113.5 581.8,-113.5"/>
<polygon fill="midnightblue" stroke="midnightblue" points="544.32,-110 534.32,-113.5 544.32,-117 544.32,-110"/>
</g>
<!-- Node10 -->
<g id="node10" class="node">
<title>Node10</title>
<g id="a_node10"><a xlink:href="class_black_gui_1_1_components_1_1_c_data_main_info_area_component.html" target="_top" xlink:title="Main info area for data entry tool.">
<polygon fill="none" stroke="black" points="570,-49.5 570,-79.5 744,-79.5 744,-49.5 570,-49.5"/>
<text text-anchor="start" x="578" y="-67.5" font-family="Helvetica,sans-Serif" font-size="10.00">BlackGui::Components</text>
<text text-anchor="middle" x="657" y="-56.5" font-family="Helvetica,sans-Serif" font-size="10.00">::CDataMainInfoAreaComponent</text>
</a>
</g>
</g>
<!-- Node1&#45;&gt;Node10 -->
<g id="edge9" class="edge">
<title>Node1&#45;&gt;Node10</title>
<path fill="none" stroke="midnightblue" d="M522.6,-101.22C546.49,-94.65 576.12,-86.49 601.38,-79.54"/>
<polygon fill="midnightblue" stroke="midnightblue" points="521.46,-97.91 512.74,-103.94 523.31,-104.66 521.46,-97.91"/>
</g>
<!-- Node11 -->
<g id="node11" class="node">
<title>Node11</title>
<g id="a_node11"><a xlink:href="class_black_gui_1_1_components_1_1_c_main_info_area_component.html" target="_top" xlink:title="Main info area of pilot client.">
<polygon fill="none" stroke="black" points="581.5,-0.5 581.5,-30.5 732.5,-30.5 732.5,-0.5 581.5,-0.5"/>
<text text-anchor="start" x="589.5" y="-18.5" font-family="Helvetica,sans-Serif" font-size="10.00">BlackGui::Components</text>
<text text-anchor="middle" x="657" y="-7.5" font-family="Helvetica,sans-Serif" font-size="10.00">::CMainInfoAreaComponent</text>
</a>
</g>
</g>
<!-- Node1&#45;&gt;Node11 -->
<g id="edge10" class="edge">
<title>Node1&#45;&gt;Node11</title>
<path fill="none" stroke="midnightblue" d="M494.85,-96.36C512.24,-79.6 540.86,-54.48 570,-39.5 576.62,-36.1 583.78,-33.13 591.04,-30.55"/>
<polygon fill="midnightblue" stroke="midnightblue" points="491.93,-94.32 487.27,-103.84 496.85,-99.31 491.93,-94.32"/>
</g>
<!-- Node2 -->
<g id="node2" class="node">
<title>Node2</title>
<g id="a_node2"><a target="_parent" xlink:href="http://doc.qt.io/qt-5/qmainwindow.html" xlink:title=" ">
<polygon fill="none" stroke="black" points="255,-126 255,-145 342,-145 342,-126 255,-126"/>
<text text-anchor="middle" x="298.5" y="-133" font-family="Helvetica,sans-Serif" font-size="10.00">QMainWindow</text>
</a>
</g>
</g>
<!-- Node2&#45;&gt;Node1 -->
<g id="edge1" class="edge">
<title>Node2&#45;&gt;Node1</title>
<path fill="none" stroke="midnightblue" d="M352.4,-128.91C373.73,-126.25 398.35,-123.18 419.98,-120.48"/>
<polygon fill="midnightblue" stroke="midnightblue" points="351.72,-125.46 342.23,-130.17 352.58,-132.41 351.72,-125.46"/>
</g>
<!-- Node3 -->
<g id="node3" class="node">
<title>Node3</title>
<g id="a_node3"><a target="_parent" xlink:href="http://doc.qt.io/qt-5/qwidget.html" xlink:title=" ">
<polygon fill="none" stroke="black" points="118,-126 118,-145 177,-145 177,-126 118,-126"/>
<text text-anchor="middle" x="147.5" y="-133" font-family="Helvetica,sans-Serif" font-size="10.00">QWidget</text>
</a>
</g>
</g>
<!-- Node3&#45;&gt;Node2 -->
<g id="edge2" class="edge">
<title>Node3&#45;&gt;Node2</title>
<path fill="none" stroke="midnightblue" d="M187.26,-135.5C207.96,-135.5 233.48,-135.5 254.75,-135.5"/>
<polygon fill="midnightblue" stroke="midnightblue" points="187.23,-132 177.23,-135.5 187.23,-139 187.23,-132"/>
</g>
<!-- Node4 -->
<g id="node4" class="node">
<title>Node4</title>
<g id="a_node4"><a target="_parent" xlink:href="http://doc.qt.io/qt-5/qobject.html" xlink:title=" ">
<polygon fill="none" stroke="black" points="13,-145 13,-164 69,-164 69,-145 13,-145"/>
<text text-anchor="middle" x="41" y="-152" font-family="Helvetica,sans-Serif" font-size="10.00">QObject</text>
</a>
</g>
</g>
<!-- Node4&#45;&gt;Node3 -->
<g id="edge3" class="edge">
<title>Node4&#45;&gt;Node3</title>
<path fill="none" stroke="midnightblue" d="M79.09,-147.76C91.88,-145.43 106,-142.86 117.99,-140.68"/>
<polygon fill="midnightblue" stroke="midnightblue" points="78.4,-144.33 69.18,-149.56 79.65,-151.21 78.4,-144.33"/>
</g>
<!-- Node5 -->
<g id="node5" class="node">
<title>Node5</title>
<g id="a_node5"><a target="_parent" xlink:href="http://doc.qt.io/qt-5/qpaintdevice.html" xlink:title=" ">
<polygon fill="none" stroke="black" points="0,-107 0,-126 82,-126 82,-107 0,-107"/>
<text text-anchor="middle" x="41" y="-114" font-family="Helvetica,sans-Serif" font-size="10.00">QPaintDevice</text>
</a>
</g>
</g>
<!-- Node5&#45;&gt;Node3 -->
<g id="edge4" class="edge">
<title>Node5&#45;&gt;Node3</title>
<path fill="none" stroke="midnightblue" d="M91.97,-125.59C100.8,-127.19 109.71,-128.81 117.69,-130.26"/>
<polygon fill="midnightblue" stroke="midnightblue" points="92.57,-122.14 82.1,-123.79 91.32,-129.02 92.57,-122.14"/>
</g>
<!-- Node6 -->
<g id="node6" class="node">
<title>Node6</title>
<g id="a_node6"><a xlink:href="class_black_gui_1_1_c_enable_for_frameless_window.html" target="_top" xlink:title="Main window which can be frameless.">
<polygon fill="none" stroke="black" points="213,-76.5 213,-106.5 384,-106.5 384,-76.5 213,-76.5"/>
<text text-anchor="start" x="221" y="-94.5" font-family="Helvetica,sans-Serif" font-size="10.00">BlackGui::CEnableForFrameless</text>
<text text-anchor="middle" x="298.5" y="-83.5" font-family="Helvetica,sans-Serif" font-size="10.00">Window</text>
</a>
</g>
</g>
<!-- Node6&#45;&gt;Node1 -->
<g id="edge5" class="edge">
<title>Node6&#45;&gt;Node1</title>
<path fill="none" stroke="#8b1a1a" d="M394.28,-103.31C402.92,-104.39 411.47,-105.46 419.6,-106.47"/>
<polygon fill="#8b1a1a" stroke="#8b1a1a" points="394.49,-99.81 384.13,-102.05 393.62,-106.76 394.49,-99.81"/>
</g>
</g>
</svg>
