<?xml version="1.0" encoding="UTF-8" standalone="no"?>
<!DOCTYPE svg PUBLIC "-//W3C//DTD SVG 1.1//EN"
 "http://www.w3.org/Graphics/SVG/1.1/DTD/svg11.dtd">
<!-- Generated by graphviz version 2.43.0 (0)
 -->
<!-- Title: BlackMisc::Aviation::CAirlineIcaoCodeList Pages: 1 -->
<svg width="745pt" height="328pt"
 viewBox="0.00 0.00 745.00 328.00" xmlns="http://www.w3.org/2000/svg" xmlns:xlink="http://www.w3.org/1999/xlink">
<g id="graph0" class="graph" transform="scale(1 1) rotate(0) translate(4 324)">
<title>BlackMisc::Aviation::CAirlineIcaoCodeList</title>
<!-- Node1 -->
<g id="node1" class="node">
<title>Node1</title>
<g id="a_node1"><a xlink:title="Value object encapsulating a list of ICAO codes.">
<polygon fill="#bfbfbf" stroke="black" points="614,-55.5 614,-85.5 737,-85.5 737,-55.5 614,-55.5"/>
<text text-anchor="start" x="622" y="-73.5" font-family="Helvetica,sans-Serif" font-size="10.00">BlackMisc::Aviation</text>
<text text-anchor="middle" x="675.5" y="-62.5" font-family="Helvetica,sans-Serif" font-size="10.00">::CAirlineIcaoCodeList</text>
</a>
</g>
</g>
<!-- Node2 -->
<g id="node2" class="node">
<title>Node2</title>
<g id="a_node2"><a xlink:href="class_black_misc_1_1_c_sequence.html" target="_top" xlink:title=" ">
<polygon fill="none" stroke="black" points="433.5,-131.5 433.5,-161.5 559.5,-161.5 559.5,-131.5 433.5,-131.5"/>
<text text-anchor="start" x="441.5" y="-149.5" font-family="Helvetica,sans-Serif" font-size="10.00">BlackMisc::CSequence</text>
<text text-anchor="middle" x="496.5" y="-138.5" font-family="Helvetica,sans-Serif" font-size="10.00">&lt; CAirlineIcaoCode &gt;</text>
</a>
</g>
</g>
<!-- Node2&#45;&gt;Node1 -->
<g id="edge1" class="edge">
<title>Node2&#45;&gt;Node1</title>
<path fill="none" stroke="midnightblue" d="M541.9,-127.43C572.04,-114.5 611.33,-97.62 639.3,-85.61"/>
<polygon fill="midnightblue" stroke="midnightblue" points="540.28,-124.32 532.47,-131.48 543.04,-130.76 540.28,-124.32"/>
</g>
<!-- Node3 -->
<g id="node3" class="node">
<title>Node3</title>
<g id="a_node3"><a xlink:href="class_black_misc_1_1_c_container_base.html" target="_top" xlink:title="Base class for CCollection and CSequence adding mutating operations and CValueObject facility on top ...">
<polygon fill="none" stroke="black" points="222,-191.5 222,-221.5 372,-221.5 372,-191.5 222,-191.5"/>
<text text-anchor="start" x="230" y="-209.5" font-family="Helvetica,sans-Serif" font-size="10.00">BlackMisc::CContainerBase</text>
<text text-anchor="middle" x="297" y="-198.5" font-family="Helvetica,sans-Serif" font-size="10.00">&lt; Derived &gt;</text>
</a>
</g>
</g>
<!-- Node3&#45;&gt;Node2 -->
<g id="edge2" class="edge">
<title>Node3&#45;&gt;Node2</title>
<path fill="none" stroke="midnightblue" d="M358.9,-188.54C365.68,-186.51 372.49,-184.47 379,-182.5 401.49,-175.69 426.38,-168.02 447.36,-161.51"/>
<polygon fill="midnightblue" stroke="midnightblue" points="357.6,-185.27 349.01,-191.48 359.6,-191.98 357.6,-185.27"/>
</g>
<!-- Node4 -->
<g id="node4" class="node">
<title>Node4</title>
<g id="a_node4"><a xlink:href="class_black_misc_1_1_c_range_base.html" target="_top" xlink:title="Any container class with begin and end iterators can inherit from this CRTP class to gain some useful...">
<polygon fill="none" stroke="black" points="22.5,-289.5 22.5,-319.5 156.5,-319.5 156.5,-289.5 22.5,-289.5"/>
<text text-anchor="start" x="30.5" y="-307.5" font-family="Helvetica,sans-Serif" font-size="10.00">BlackMisc::CRangeBase</text>
<text text-anchor="middle" x="89.5" y="-296.5" font-family="Helvetica,sans-Serif" font-size="10.00">&lt; Derived &gt;</text>
</a>
</g>
</g>
<!-- Node4&#45;&gt;Node3 -->
<g id="edge3" class="edge">
<title>Node4&#45;&gt;Node3</title>
<path fill="none" stroke="midnightblue" d="M164.63,-286.19C169.55,-284.43 174.38,-282.53 179,-280.5 215.52,-264.44 253.87,-238.09 276.33,-221.55"/>
<polygon fill="midnightblue" stroke="midnightblue" points="163.44,-282.9 155.09,-289.42 165.69,-289.53 163.44,-282.9"/>
</g>
<!-- Node5 -->
<g id="node5" class="node">
<title>Node5</title>
<g id="a_node5"><a xlink:href="class_black_misc_1_1_mixin_1_1_meta_type.html" target="_top" xlink:title="CRTP class template from which a derived class can inherit common methods dealing with the metatype o...">
<polygon fill="none" stroke="black" points="13.5,-240.5 13.5,-270.5 165.5,-270.5 165.5,-240.5 13.5,-240.5"/>
<text text-anchor="start" x="21.5" y="-258.5" font-family="Helvetica,sans-Serif" font-size="10.00">BlackMisc::Mixin::MetaType</text>
<text text-anchor="middle" x="89.5" y="-247.5" font-family="Helvetica,sans-Serif" font-size="10.00">&lt; Derived &gt;</text>
</a>
</g>
</g>
<!-- Node5&#45;&gt;Node3 -->
<g id="edge4" class="edge">
<title>Node5&#45;&gt;Node3</title>
<path fill="none" stroke="midnightblue" d="M163.49,-238.1C186.22,-232.68 211.08,-226.75 233.07,-221.51"/>
<polygon fill="midnightblue" stroke="midnightblue" points="162.47,-234.74 153.55,-240.47 164.09,-241.55 162.47,-234.74"/>
</g>
<!-- Node6 -->
<g id="node6" class="node">
<title>Node6</title>
<g id="a_node6"><a xlink:href="class_black_misc_1_1_mixin_1_1_d_bus_operators.html" target="_top" xlink:title=" ">
<polygon fill="none" stroke="black" points="0,-191.5 0,-221.5 179,-221.5 179,-191.5 0,-191.5"/>
<text text-anchor="start" x="8" y="-209.5" font-family="Helvetica,sans-Serif" font-size="10.00">BlackMisc::Mixin::DBusOperators</text>
<text text-anchor="middle" x="89.5" y="-198.5" font-family="Helvetica,sans-Serif" font-size="10.00">&lt; Derived &gt;</text>
</a>
</g>
</g>
<!-- Node6&#45;&gt;Node3 -->
<g id="edge5" class="edge">
<title>Node6&#45;&gt;Node3</title>
<path fill="none" stroke="midnightblue" d="M189.19,-206.5C200.17,-206.5 211.22,-206.5 221.82,-206.5"/>
<polygon fill="midnightblue" stroke="midnightblue" points="189.14,-203 179.14,-206.5 189.14,-210 189.14,-203"/>
</g>
<!-- Node7 -->
<g id="node7" class="node">
<title>Node7</title>
<g id="a_node7"><a xlink:href="class_black_misc_1_1_mixin_1_1_json_operators.html" target="_top" xlink:title="CRTP class template which will generate marshalling operators for a derived class with its own marsha...">
<polygon fill="none" stroke="black" points="3,-142.5 3,-172.5 176,-172.5 176,-142.5 3,-142.5"/>
<text text-anchor="start" x="11" y="-160.5" font-family="Helvetica,sans-Serif" font-size="10.00">BlackMisc::Mixin::JsonOperators</text>
<text text-anchor="middle" x="89.5" y="-149.5" font-family="Helvetica,sans-Serif" font-size="10.00">&lt; Derived &gt;</text>
</a>
</g>
</g>
<!-- Node7&#45;&gt;Node3 -->
<g id="edge6" class="edge">
<title>Node7&#45;&gt;Node3</title>
<path fill="none" stroke="midnightblue" d="M163.49,-174.9C186.22,-180.32 211.08,-186.25 233.07,-191.49"/>
<polygon fill="midnightblue" stroke="midnightblue" points="164.09,-171.45 153.55,-172.53 162.47,-178.26 164.09,-171.45"/>
</g>
<!-- Node8 -->
<g id="node8" class="node">
<title>Node8</title>
<g id="a_node8"><a xlink:href="class_black_misc_1_1_mixin_1_1_string.html" target="_top" xlink:title="CRTP class template from which a derived class can inherit string streaming operations.">
<polygon fill="none" stroke="black" points="22.5,-93.5 22.5,-123.5 156.5,-123.5 156.5,-93.5 22.5,-93.5"/>
<text text-anchor="start" x="30.5" y="-111.5" font-family="Helvetica,sans-Serif" font-size="10.00">BlackMisc::Mixin::String</text>
<text text-anchor="middle" x="89.5" y="-100.5" font-family="Helvetica,sans-Serif" font-size="10.00">&lt; Derived &gt;</text>
</a>
</g>
</g>
<!-- Node8&#45;&gt;Node3 -->
<g id="edge7" class="edge">
<title>Node8&#45;&gt;Node3</title>
<path fill="none" stroke="midnightblue" d="M166.05,-125.98C170.59,-128.2 174.95,-130.69 179,-133.5 201.21,-148.9 192.89,-166.96 215,-182.5 219.92,-185.96 225.34,-188.92 230.98,-191.47"/>
<polygon fill="midnightblue" stroke="midnightblue" points="167.1,-122.62 156.53,-121.81 164.29,-129.03 167.1,-122.62"/>
</g>
<!-- Node9 -->
<g id="node9" class="node">
<title>Node9</title>
<g id="a_node9"><a xlink:href="class_black_misc_1_1_mixin_1_1_data_stream_operators.html" target="_top" xlink:title="CRTP class template to generate non&#45;member QDataStream streaming operators.">
<polygon fill="none" stroke="black" points="215,-142.5 215,-172.5 379,-172.5 379,-142.5 215,-142.5"/>
<text text-anchor="start" x="223" y="-160.5" font-family="Helvetica,sans-Serif" font-size="10.00">BlackMisc::Mixin::DataStream</text>
<text text-anchor="middle" x="297" y="-149.5" font-family="Helvetica,sans-Serif" font-size="10.00">Operators&lt; Derived &gt;</text>
</a>
</g>
</g>
<!-- Node9&#45;&gt;Node2 -->
<g id="edge8" class="edge">
<title>Node9&#45;&gt;Node2</title>
<path fill="none" stroke="midnightblue" d="M389.43,-152.41C404.3,-151.58 419.39,-150.74 433.35,-149.96"/>
<polygon fill="midnightblue" stroke="midnightblue" points="388.98,-148.93 379.19,-152.98 389.36,-155.92 388.98,-148.93"/>
</g>
<!-- Node10 -->
<g id="node10" class="node">
<title>Node10</title>
<g id="a_node10"><a xlink:href="class_black_misc_1_1_mixin_1_1_icon.html" target="_top" xlink:title="CRTP class template from which a derived class can inherit icon&#45;related functions.">
<polygon fill="none" stroke="black" points="231.5,-93.5 231.5,-123.5 362.5,-123.5 362.5,-93.5 231.5,-93.5"/>
<text text-anchor="start" x="239.5" y="-111.5" font-family="Helvetica,sans-Serif" font-size="10.00">BlackMisc::Mixin::Icon</text>
<text text-anchor="middle" x="297" y="-100.5" font-family="Helvetica,sans-Serif" font-size="10.00">&lt; Derived, IconIndex &gt;</text>
</a>
</g>
</g>
<!-- Node10&#45;&gt;Node2 -->
<g id="edge9" class="edge">
<title>Node10&#45;&gt;Node2</title>
<path fill="none" stroke="midnightblue" d="M372.68,-122.87C392.69,-126.72 414.12,-130.84 433.37,-134.55"/>
<polygon fill="midnightblue" stroke="midnightblue" points="373.15,-119.4 362.67,-120.94 371.83,-126.27 373.15,-119.4"/>
</g>
<!-- Node11 -->
<g id="node11" class="node">
<title>Node11</title>
<g id="a_node11"><a xlink:href="class_black_misc_1_1_db_1_1_i_datastore_object_list.html" target="_top" xlink:title=" ">
<polygon fill="none" stroke="black" points="415,-50 415,-91 578,-91 578,-50 415,-50"/>
<text text-anchor="start" x="423" y="-79" font-family="Helvetica,sans-Serif" font-size="10.00">BlackMisc::Db::IDatastore</text>
<text text-anchor="start" x="423" y="-68" font-family="Helvetica,sans-Serif" font-size="10.00">ObjectList&lt; CAirlineIcaoCode,</text>
<text text-anchor="middle" x="496.5" y="-57" font-family="Helvetica,sans-Serif" font-size="10.00"> CAirlineIcaoCodeList, int &gt;</text>
</a>
</g>
</g>
<!-- Node11&#45;&gt;Node1 -->
<g id="edge10" class="edge">
<title>Node11&#45;&gt;Node1</title>
<path fill="none" stroke="midnightblue" d="M588.33,-70.5C596.95,-70.5 605.53,-70.5 613.75,-70.5"/>
<polygon fill="midnightblue" stroke="midnightblue" points="588.23,-67 578.23,-70.5 588.23,-74 588.23,-67"/>
</g>
<!-- Node12 -->
<g id="node12" class="node">
<title>Node12</title>
<g id="a_node12"><a xlink:href="class_black_misc_1_1_i_timestamp_object_list.html" target="_top" xlink:title="List of objects with timestamp. Such objects should implement.">
<polygon fill="none" stroke="black" points="216,-44.5 216,-74.5 378,-74.5 378,-44.5 216,-44.5"/>
<text text-anchor="start" x="224" y="-62.5" font-family="Helvetica,sans-Serif" font-size="10.00">BlackMisc::ITimestampObject</text>
<text text-anchor="middle" x="297" y="-51.5" font-family="Helvetica,sans-Serif" font-size="10.00">List&lt; OBJ, CONTAINER &gt;</text>
</a>
</g>
</g>
<!-- Node12&#45;&gt;Node11 -->
<g id="edge11" class="edge">
<title>Node12&#45;&gt;Node11</title>
<path fill="none" stroke="midnightblue" d="M388.32,-64.53C397.11,-65.02 406,-65.52 414.7,-66"/>
<polygon fill="midnightblue" stroke="midnightblue" points="388.23,-61.02 378.05,-63.96 387.84,-68.01 388.23,-61.02"/>
</g>
<!-- Node13 -->
<g id="node13" class="node">
<title>Node13</title>
<g id="a_node13"><a xlink:href="class_black_misc_1_1_mixin_1_1_meta_type.html" target="_top" xlink:title=" ">
<polygon fill="none" stroke="black" points="420.5,-0.5 420.5,-30.5 572.5,-30.5 572.5,-0.5 420.5,-0.5"/>
<text text-anchor="start" x="428.5" y="-18.5" font-family="Helvetica,sans-Serif" font-size="10.00">BlackMisc::Mixin::MetaType</text>
<text text-anchor="middle" x="496.5" y="-7.5" font-family="Helvetica,sans-Serif" font-size="10.00">&lt; CAirlineIcaoCodeList &gt;</text>
</a>
</g>
</g>
<!-- Node13&#45;&gt;Node1 -->
<g id="edge12" class="edge">
<title>Node13&#45;&gt;Node1</title>
<path fill="none" stroke="midnightblue" d="M555.78,-33.6C563.26,-35.92 570.81,-38.27 578,-40.5 593.58,-45.34 610.58,-50.62 625.9,-55.39"/>
<polygon fill="midnightblue" stroke="midnightblue" points="556.62,-30.19 546.03,-30.57 554.54,-36.88 556.62,-30.19"/>
</g>
</g>
</svg>
