<?xml version="1.0" encoding="UTF-8" standalone="no"?>
<!DOCTYPE svg PUBLIC "-//W3C//DTD SVG 1.1//EN"
 "http://www.w3.org/Graphics/SVG/1.1/DTD/svg11.dtd">
<!-- Generated by graphviz version 2.43.0 (0)
 -->
<!-- Title: BlackGui::CEnableForFramelessWindow Pages: 1 -->
<svg width="557pt" height="312pt"
 viewBox="0.00 0.00 557.00 311.50" xmlns="http://www.w3.org/2000/svg" xmlns:xlink="http://www.w3.org/1999/xlink">
<g id="graph0" class="graph" transform="scale(1 1) rotate(0) translate(4 307.5)">
<title>BlackGui::CEnableForFramelessWindow</title>
<!-- Node1 -->
<g id="node1" class="node">
<title>Node1</title>
<g id="a_node1"><a xlink:title="Main window which can be frameless.">
<polygon fill="#bfbfbf" stroke="black" points="0,-78.5 0,-108.5 171,-108.5 171,-78.5 0,-78.5"/>
<text text-anchor="start" x="8" y="-96.5" font-family="Helvetica,sans-Serif" font-size="10.00">BlackGui::CEnableForFrameless</text>
<text text-anchor="middle" x="85.5" y="-85.5" font-family="Helvetica,sans-Serif" font-size="10.00">Window</text>
</a>
</g>
</g>
<!-- Node2 -->
<g id="node2" class="node">
<title>Node2</title>
<g id="a_node2"><a xlink:href="class_black_gui_1_1_c_dock_widget.html" target="_top" xlink:title="Our base class for dockable widgets containing some specialized functionality on top of QDockWidget.">
<polygon fill="none" stroke="black" points="207,-246 207,-265 339,-265 339,-246 207,-246"/>
<text text-anchor="middle" x="273" y="-253" font-family="Helvetica,sans-Serif" font-size="10.00">BlackGui::CDockWidget</text>
</a>
</g>
</g>
<!-- Node1&#45;&gt;Node2 -->
<g id="edge1" class="edge">
<title>Node1&#45;&gt;Node2</title>
<path fill="none" stroke="midnightblue" d="M111.59,-115.41C152.45,-151.09 231.75,-220.35 260.9,-245.81"/>
<polygon fill="midnightblue" stroke="midnightblue" points="113.79,-112.68 103.95,-108.74 109.18,-117.95 113.79,-112.68"/>
</g>
<!-- Node5 -->
<g id="node5" class="node">
<title>Node5</title>
<g id="a_node5"><a xlink:href="class_black_gui_1_1_c_info_area.html" target="_top" xlink:title="Info area, hosting dockable widgets.">
<polygon fill="none" stroke="black" points="216,-128 216,-147 330,-147 330,-128 216,-128"/>
<text text-anchor="middle" x="273" y="-135" font-family="Helvetica,sans-Serif" font-size="10.00">BlackGui::CInfoArea</text>
</a>
</g>
</g>
<!-- Node1&#45;&gt;Node5 -->
<g id="edge4" class="edge">
<title>Node1&#45;&gt;Node5</title>
<path fill="none" stroke="#8b1a1a" d="M159.84,-110.9C184.4,-116.72 210.85,-123 231.9,-127.99"/>
<polygon fill="#8b1a1a" stroke="#8b1a1a" points="160.36,-107.42 149.82,-108.52 158.74,-114.23 160.36,-107.42"/>
</g>
<!-- Node11 -->
<g id="node11" class="node">
<title>Node11</title>
<g id="a_node11"><a xlink:href="class_black_gui_1_1_components_1_1_c_navigator_dialog.html" target="_top" xlink:title="Navigator dialog.">
<polygon fill="none" stroke="black" points="209,-78.5 209,-108.5 337,-108.5 337,-78.5 209,-78.5"/>
<text text-anchor="start" x="217" y="-96.5" font-family="Helvetica,sans-Serif" font-size="10.00">BlackGui::Components</text>
<text text-anchor="middle" x="273" y="-85.5" font-family="Helvetica,sans-Serif" font-size="10.00">::CNavigatorDialog</text>
</a>
</g>
</g>
<!-- Node1&#45;&gt;Node11 -->
<g id="edge10" class="edge">
<title>Node1&#45;&gt;Node11</title>
<path fill="none" stroke="midnightblue" d="M181.26,-93.5C190.62,-93.5 199.96,-93.5 208.89,-93.5"/>
<polygon fill="midnightblue" stroke="midnightblue" points="181.11,-90 171.11,-93.5 181.11,-97 181.11,-90"/>
</g>
<!-- Node12 -->
<g id="node12" class="node">
<title>Node12</title>
<g id="a_node12"><a xlink:href="class_c_swift_launcher.html" target="_top" xlink:title="swift launcher tool">
<polygon fill="none" stroke="black" points="227,-40 227,-59 319,-59 319,-40 227,-40"/>
<text text-anchor="middle" x="273" y="-47" font-family="Helvetica,sans-Serif" font-size="10.00">CSwiftLauncher</text>
</a>
</g>
</g>
<!-- Node1&#45;&gt;Node12 -->
<g id="edge11" class="edge">
<title>Node1&#45;&gt;Node12</title>
<path fill="none" stroke="midnightblue" d="M159.84,-76.1C184.4,-70.28 210.85,-64 231.9,-59.01"/>
<polygon fill="midnightblue" stroke="midnightblue" points="158.74,-72.77 149.82,-78.48 160.36,-79.58 158.74,-72.77"/>
</g>
<!-- Node13 -->
<g id="node13" class="node">
<title>Node13</title>
<g id="a_node13"><a xlink:href="class_swift_gui_std.html" target="_top" xlink:title="swift GUI">
<polygon fill="none" stroke="black" points="236.5,-2 236.5,-21 309.5,-21 309.5,-2 236.5,-2"/>
<text text-anchor="middle" x="273" y="-9" font-family="Helvetica,sans-Serif" font-size="10.00">SwiftGuiStd</text>
</a>
</g>
</g>
<!-- Node1&#45;&gt;Node13 -->
<g id="edge12" class="edge">
<title>Node1&#45;&gt;Node13</title>
<path fill="none" stroke="midnightblue" d="M120.59,-73.36C144.26,-59.96 176.85,-42.65 207,-30.5 216.38,-26.72 226.79,-23.34 236.48,-20.51"/>
<polygon fill="midnightblue" stroke="midnightblue" points="118.6,-70.47 111.66,-78.47 122.08,-76.54 118.6,-70.47"/>
</g>
<!-- Node3 -->
<g id="node3" class="node">
<title>Node3</title>
<g id="a_node3"><a xlink:href="class_black_gui_1_1_c_dock_widget_info_area.html" target="_top" xlink:title="Specialized class for dock widgets serving as info area.">
<polygon fill="none" stroke="black" points="375.5,-284 375.5,-303 548.5,-303 548.5,-284 375.5,-284"/>
<text text-anchor="middle" x="462" y="-291" font-family="Helvetica,sans-Serif" font-size="10.00">BlackGui::CDockWidgetInfoArea</text>
</a>
</g>
</g>
<!-- Node2&#45;&gt;Node3 -->
<g id="edge2" class="edge">
<title>Node2&#45;&gt;Node3</title>
<path fill="none" stroke="midnightblue" d="M331.13,-267.11C357.73,-272.51 388.97,-278.86 414.15,-283.98"/>
<polygon fill="midnightblue" stroke="midnightblue" points="331.68,-263.65 321.19,-265.09 330.29,-270.51 331.68,-263.65"/>
</g>
<!-- Node4 -->
<g id="node4" class="node">
<title>Node4</title>
<g id="a_node4"><a xlink:href="class_black_gui_1_1_c_dock_widget_info_bar.html" target="_top" xlink:title="Class for dock widgets in the info area, containing some specialized functionality.">
<polygon fill="none" stroke="black" points="378.5,-246 378.5,-265 545.5,-265 545.5,-246 378.5,-246"/>
<text text-anchor="middle" x="462" y="-253" font-family="Helvetica,sans-Serif" font-size="10.00">BlackGui::CDockWidgetInfoBar</text>
</a>
</g>
</g>
<!-- Node2&#45;&gt;Node4 -->
<g id="edge3" class="edge">
<title>Node2&#45;&gt;Node4</title>
<path fill="none" stroke="midnightblue" d="M349.36,-255.5C358.9,-255.5 368.69,-255.5 378.33,-255.5"/>
<polygon fill="midnightblue" stroke="midnightblue" points="349.14,-252 339.14,-255.5 349.14,-259 349.14,-252"/>
</g>
<!-- Node6 -->
<g id="node6" class="node">
<title>Node6</title>
<g id="a_node6"><a xlink:href="class_black_gui_1_1_components_1_1_c_cockpit_info_area_component.html" target="_top" xlink:title="The cockpit itself is part of the main info area, but itself also an info area. hence windows can be ...">
<polygon fill="none" stroke="black" points="380,-196.5 380,-226.5 544,-226.5 544,-196.5 380,-196.5"/>
<text text-anchor="start" x="388" y="-214.5" font-family="Helvetica,sans-Serif" font-size="10.00">BlackGui::Components</text>
<text text-anchor="middle" x="462" y="-203.5" font-family="Helvetica,sans-Serif" font-size="10.00">::CCockpitInfoAreaComponent</text>
</a>
</g>
</g>
<!-- Node5&#45;&gt;Node6 -->
<g id="edge5" class="edge">
<title>Node5&#45;&gt;Node6</title>
<path fill="none" stroke="midnightblue" d="M299.9,-152.01C319.96,-162.82 348.66,-177.41 375,-187.5 383.4,-190.72 392.4,-193.71 401.31,-196.41"/>
<polygon fill="midnightblue" stroke="midnightblue" points="301.53,-148.91 291.07,-147.19 298.17,-155.05 301.53,-148.91"/>
</g>
<!-- Node7 -->
<g id="node7" class="node">
<title>Node7</title>
<g id="a_node7"><a xlink:href="class_black_gui_1_1_components_1_1_c_core_info_area_component.html" target="_top" xlink:title="Main info area.">
<polygon fill="none" stroke="black" points="387.5,-147.5 387.5,-177.5 536.5,-177.5 536.5,-147.5 387.5,-147.5"/>
<text text-anchor="start" x="395.5" y="-165.5" font-family="Helvetica,sans-Serif" font-size="10.00">BlackGui::Components</text>
<text text-anchor="middle" x="462" y="-154.5" font-family="Helvetica,sans-Serif" font-size="10.00">::CCoreInfoAreaComponent</text>
</a>
</g>
</g>
<!-- Node5&#45;&gt;Node7 -->
<g id="edge6" class="edge">
<title>Node5&#45;&gt;Node7</title>
<path fill="none" stroke="midnightblue" d="M340.42,-146.38C355.6,-148.41 371.81,-150.58 387.27,-152.64"/>
<polygon fill="midnightblue" stroke="midnightblue" points="340.48,-142.86 330.11,-145 339.55,-149.8 340.48,-142.86"/>
</g>
<!-- Node8 -->
<g id="node8" class="node">
<title>Node8</title>
<g id="a_node8"><a xlink:href="class_black_gui_1_1_components_1_1_c_data_info_area_component.html" target="_top" xlink:title="Info area containing the DB data (models, liveries ...)">
<polygon fill="none" stroke="black" points="387,-98.5 387,-128.5 537,-128.5 537,-98.5 387,-98.5"/>
<text text-anchor="start" x="395" y="-116.5" font-family="Helvetica,sans-Serif" font-size="10.00">BlackGui::Components</text>
<text text-anchor="middle" x="462" y="-105.5" font-family="Helvetica,sans-Serif" font-size="10.00">::CDataInfoAreaComponent</text>
</a>
</g>
</g>
<!-- Node5&#45;&gt;Node8 -->
<g id="edge7" class="edge">
<title>Node5&#45;&gt;Node8</title>
<path fill="none" stroke="midnightblue" d="M340.36,-128.98C355.44,-127.05 371.55,-124.98 386.93,-123.01"/>
<polygon fill="midnightblue" stroke="midnightblue" points="339.58,-125.55 330.11,-130.3 340.47,-132.5 339.58,-125.55"/>
</g>
<!-- Node9 -->
<g id="node9" class="node">
<title>Node9</title>
<g id="a_node9"><a xlink:href="class_black_gui_1_1_components_1_1_c_data_main_info_area_component.html" target="_top" xlink:title="Main info area for data entry tool.">
<polygon fill="none" stroke="black" points="375,-49.5 375,-79.5 549,-79.5 549,-49.5 375,-49.5"/>
<text text-anchor="start" x="383" y="-67.5" font-family="Helvetica,sans-Serif" font-size="10.00">BlackGui::Components</text>
<text text-anchor="middle" x="462" y="-56.5" font-family="Helvetica,sans-Serif" font-size="10.00">::CDataMainInfoAreaComponent</text>
</a>
</g>
</g>
<!-- Node5&#45;&gt;Node9 -->
<g id="edge8" class="edge">
<title>Node5&#45;&gt;Node9</title>
<path fill="none" stroke="midnightblue" d="M325.5,-124.52C330.16,-122.73 334.73,-120.73 339,-118.5 357.21,-108.99 356.78,-99 375,-89.5 382.31,-85.69 390.28,-82.39 398.32,-79.54"/>
<polygon fill="midnightblue" stroke="midnightblue" points="324.14,-121.29 315.87,-127.91 326.46,-127.9 324.14,-121.29"/>
</g>
<!-- Node10 -->
<g id="node10" class="node">
<title>Node10</title>
<g id="a_node10"><a xlink:href="class_black_gui_1_1_components_1_1_c_main_info_area_component.html" target="_top" xlink:title="Main info area of pilot client.">
<polygon fill="none" stroke="black" points="386.5,-0.5 386.5,-30.5 537.5,-30.5 537.5,-0.5 386.5,-0.5"/>
<text text-anchor="start" x="394.5" y="-18.5" font-family="Helvetica,sans-Serif" font-size="10.00">BlackGui::Components</text>
<text text-anchor="middle" x="462" y="-7.5" font-family="Helvetica,sans-Serif" font-size="10.00">::CMainInfoAreaComponent</text>
</a>
</g>
</g>
<!-- Node5&#45;&gt;Node10 -->
<g id="edge9" class="edge">
<title>Node5&#45;&gt;Node10</title>
<path fill="none" stroke="midnightblue" d="M332.78,-123.12C334.97,-121.72 337.06,-120.18 339,-118.5 368.17,-93.24 345.68,-64.58 375,-39.5 379,-36.07 383.46,-33.13 388.18,-30.61"/>
<polygon fill="midnightblue" stroke="midnightblue" points="331.07,-120.06 323.9,-127.87 334.37,-126.24 331.07,-120.06"/>
</g>
</g>
</svg>
