<?xml version="1.0" encoding="UTF-8" standalone="no"?>
<!DOCTYPE svg PUBLIC "-//W3C//DTD SVG 1.1//EN"
 "http://www.w3.org/Graphics/SVG/1.1/DTD/svg11.dtd">
<!-- Generated by graphviz version 2.43.0 (0)
 -->
<!-- Title: BlackMisc::CCountryList Pages: 1 -->
<svg width="766pt" height="328pt"
 viewBox="0.00 0.00 766.00 328.00" xmlns="http://www.w3.org/2000/svg" xmlns:xlink="http://www.w3.org/1999/xlink">
<g id="graph0" class="graph" transform="scale(1 1) rotate(0) translate(4 324)">
<title>BlackMisc::CCountryList</title>
<!-- Node1 -->
<g id="node1" class="node">
<title>Node1</title>
<g id="a_node1"><a xlink:title="Value object encapsulating a list of countries.">
<polygon fill="#bfbfbf" stroke="black" points="624,-61 624,-80 758,-80 758,-61 624,-61"/>
<text text-anchor="middle" x="691" y="-68" font-family="Helvetica,sans-Serif" font-size="10.00">BlackMisc::CCountryList</text>
</a>
</g>
</g>
<!-- Node2 -->
<g id="node2" class="node">
<title>Node2</title>
<g id="a_node2"><a xlink:href="class_black_misc_1_1_c_sequence.html" target="_top" xlink:title=" ">
<polygon fill="none" stroke="black" points="438.5,-131.5 438.5,-161.5 564.5,-161.5 564.5,-131.5 438.5,-131.5"/>
<text text-anchor="start" x="446.5" y="-149.5" font-family="Helvetica,sans-Serif" font-size="10.00">BlackMisc::CSequence</text>
<text text-anchor="middle" x="501.5" y="-138.5" font-family="Helvetica,sans-Serif" font-size="10.00">&lt; CCountry &gt;</text>
</a>
</g>
</g>
<!-- Node2&#45;&gt;Node1 -->
<g id="edge1" class="edge">
<title>Node2&#45;&gt;Node1</title>
<path fill="none" stroke="midnightblue" d="M549.19,-127.58C586.44,-112.48 637.08,-91.95 666.38,-80.07"/>
<polygon fill="midnightblue" stroke="midnightblue" points="547.5,-124.48 539.54,-131.48 550.13,-130.97 547.5,-124.48"/>
</g>
<!-- Node3 -->
<g id="node3" class="node">
<title>Node3</title>
<g id="a_node3"><a xlink:href="class_black_misc_1_1_c_container_base.html" target="_top" xlink:title="Base class for CCollection and CSequence adding mutating operations and CValueObject facility on top ...">
<polygon fill="none" stroke="black" points="222,-191.5 222,-221.5 372,-221.5 372,-191.5 222,-191.5"/>
<text text-anchor="start" x="230" y="-209.5" font-family="Helvetica,sans-Serif" font-size="10.00">BlackMisc::CContainerBase</text>
<text text-anchor="middle" x="297" y="-198.5" font-family="Helvetica,sans-Serif" font-size="10.00">&lt; Derived &gt;</text>
</a>
</g>
</g>
<!-- Node3&#45;&gt;Node2 -->
<g id="edge2" class="edge">
<title>Node3&#45;&gt;Node2</title>
<path fill="none" stroke="midnightblue" d="M358.47,-188.58C387.52,-179.98 421.95,-169.77 449.64,-161.57"/>
<polygon fill="midnightblue" stroke="midnightblue" points="357.43,-185.24 348.84,-191.44 359.42,-191.95 357.43,-185.24"/>
</g>
<!-- Node4 -->
<g id="node4" class="node">
<title>Node4</title>
<g id="a_node4"><a xlink:href="class_black_misc_1_1_c_range_base.html" target="_top" xlink:title="Any container class with begin and end iterators can inherit from this CRTP class to gain some useful...">
<polygon fill="none" stroke="black" points="22.5,-289.5 22.5,-319.5 156.5,-319.5 156.5,-289.5 22.5,-289.5"/>
<text text-anchor="start" x="30.5" y="-307.5" font-family="Helvetica,sans-Serif" font-size="10.00">BlackMisc::CRangeBase</text>
<text text-anchor="middle" x="89.5" y="-296.5" font-family="Helvetica,sans-Serif" font-size="10.00">&lt; Derived &gt;</text>
</a>
</g>
</g>
<!-- Node4&#45;&gt;Node3 -->
<g id="edge3" class="edge">
<title>Node4&#45;&gt;Node3</title>
<path fill="none" stroke="midnightblue" d="M164.63,-286.19C169.55,-284.43 174.38,-282.53 179,-280.5 215.52,-264.44 253.87,-238.09 276.33,-221.55"/>
<polygon fill="midnightblue" stroke="midnightblue" points="163.44,-282.9 155.09,-289.42 165.69,-289.53 163.44,-282.9"/>
</g>
<!-- Node5 -->
<g id="node5" class="node">
<title>Node5</title>
<g id="a_node5"><a xlink:href="class_black_misc_1_1_mixin_1_1_meta_type.html" target="_top" xlink:title="CRTP class template from which a derived class can inherit common methods dealing with the metatype o...">
<polygon fill="none" stroke="black" points="13.5,-240.5 13.5,-270.5 165.5,-270.5 165.5,-240.5 13.5,-240.5"/>
<text text-anchor="start" x="21.5" y="-258.5" font-family="Helvetica,sans-Serif" font-size="10.00">BlackMisc::Mixin::MetaType</text>
<text text-anchor="middle" x="89.5" y="-247.5" font-family="Helvetica,sans-Serif" font-size="10.00">&lt; Derived &gt;</text>
</a>
</g>
</g>
<!-- Node5&#45;&gt;Node3 -->
<g id="edge4" class="edge">
<title>Node5&#45;&gt;Node3</title>
<path fill="none" stroke="midnightblue" d="M163.49,-238.1C186.22,-232.68 211.08,-226.75 233.07,-221.51"/>
<polygon fill="midnightblue" stroke="midnightblue" points="162.47,-234.74 153.55,-240.47 164.09,-241.55 162.47,-234.74"/>
</g>
<!-- Node6 -->
<g id="node6" class="node">
<title>Node6</title>
<g id="a_node6"><a xlink:href="class_black_misc_1_1_mixin_1_1_d_bus_operators.html" target="_top" xlink:title=" ">
<polygon fill="none" stroke="black" points="0,-191.5 0,-221.5 179,-221.5 179,-191.5 0,-191.5"/>
<text text-anchor="start" x="8" y="-209.5" font-family="Helvetica,sans-Serif" font-size="10.00">BlackMisc::Mixin::DBusOperators</text>
<text text-anchor="middle" x="89.5" y="-198.5" font-family="Helvetica,sans-Serif" font-size="10.00">&lt; Derived &gt;</text>
</a>
</g>
</g>
<!-- Node6&#45;&gt;Node3 -->
<g id="edge5" class="edge">
<title>Node6&#45;&gt;Node3</title>
<path fill="none" stroke="midnightblue" d="M189.19,-206.5C200.17,-206.5 211.22,-206.5 221.82,-206.5"/>
<polygon fill="midnightblue" stroke="midnightblue" points="189.14,-203 179.14,-206.5 189.14,-210 189.14,-203"/>
</g>
<!-- Node7 -->
<g id="node7" class="node">
<title>Node7</title>
<g id="a_node7"><a xlink:href="class_black_misc_1_1_mixin_1_1_json_operators.html" target="_top" xlink:title="CRTP class template which will generate marshalling operators for a derived class with its own marsha...">
<polygon fill="none" stroke="black" points="3,-142.5 3,-172.5 176,-172.5 176,-142.5 3,-142.5"/>
<text text-anchor="start" x="11" y="-160.5" font-family="Helvetica,sans-Serif" font-size="10.00">BlackMisc::Mixin::JsonOperators</text>
<text text-anchor="middle" x="89.5" y="-149.5" font-family="Helvetica,sans-Serif" font-size="10.00">&lt; Derived &gt;</text>
</a>
</g>
</g>
<!-- Node7&#45;&gt;Node3 -->
<g id="edge6" class="edge">
<title>Node7&#45;&gt;Node3</title>
<path fill="none" stroke="midnightblue" d="M163.49,-174.9C186.22,-180.32 211.08,-186.25 233.07,-191.49"/>
<polygon fill="midnightblue" stroke="midnightblue" points="164.09,-171.45 153.55,-172.53 162.47,-178.26 164.09,-171.45"/>
</g>
<!-- Node8 -->
<g id="node8" class="node">
<title>Node8</title>
<g id="a_node8"><a xlink:href="class_black_misc_1_1_mixin_1_1_string.html" target="_top" xlink:title="CRTP class template from which a derived class can inherit string streaming operations.">
<polygon fill="none" stroke="black" points="22.5,-93.5 22.5,-123.5 156.5,-123.5 156.5,-93.5 22.5,-93.5"/>
<text text-anchor="start" x="30.5" y="-111.5" font-family="Helvetica,sans-Serif" font-size="10.00">BlackMisc::Mixin::String</text>
<text text-anchor="middle" x="89.5" y="-100.5" font-family="Helvetica,sans-Serif" font-size="10.00">&lt; Derived &gt;</text>
</a>
</g>
</g>
<!-- Node8&#45;&gt;Node3 -->
<g id="edge7" class="edge">
<title>Node8&#45;&gt;Node3</title>
<path fill="none" stroke="midnightblue" d="M166.05,-125.98C170.59,-128.2 174.95,-130.69 179,-133.5 201.21,-148.9 192.89,-166.96 215,-182.5 219.92,-185.96 225.34,-188.92 230.98,-191.47"/>
<polygon fill="midnightblue" stroke="midnightblue" points="167.1,-122.62 156.53,-121.81 164.29,-129.03 167.1,-122.62"/>
</g>
<!-- Node9 -->
<g id="node9" class="node">
<title>Node9</title>
<g id="a_node9"><a xlink:href="class_black_misc_1_1_mixin_1_1_data_stream_operators.html" target="_top" xlink:title="CRTP class template to generate non&#45;member QDataStream streaming operators.">
<polygon fill="none" stroke="black" points="215,-142.5 215,-172.5 379,-172.5 379,-142.5 215,-142.5"/>
<text text-anchor="start" x="223" y="-160.5" font-family="Helvetica,sans-Serif" font-size="10.00">BlackMisc::Mixin::DataStream</text>
<text text-anchor="middle" x="297" y="-149.5" font-family="Helvetica,sans-Serif" font-size="10.00">Operators&lt; Derived &gt;</text>
</a>
</g>
</g>
<!-- Node9&#45;&gt;Node2 -->
<g id="edge8" class="edge">
<title>Node9&#45;&gt;Node2</title>
<path fill="none" stroke="midnightblue" d="M389.43,-152.53C405.96,-151.64 422.85,-150.72 438.3,-149.88"/>
<polygon fill="midnightblue" stroke="midnightblue" points="388.99,-149.05 379.2,-153.09 389.37,-156.04 388.99,-149.05"/>
</g>
<!-- Node10 -->
<g id="node10" class="node">
<title>Node10</title>
<g id="a_node10"><a xlink:href="class_black_misc_1_1_mixin_1_1_icon.html" target="_top" xlink:title="CRTP class template from which a derived class can inherit icon&#45;related functions.">
<polygon fill="none" stroke="black" points="231.5,-93.5 231.5,-123.5 362.5,-123.5 362.5,-93.5 231.5,-93.5"/>
<text text-anchor="start" x="239.5" y="-111.5" font-family="Helvetica,sans-Serif" font-size="10.00">BlackMisc::Mixin::Icon</text>
<text text-anchor="middle" x="297" y="-100.5" font-family="Helvetica,sans-Serif" font-size="10.00">&lt; Derived, IconIndex &gt;</text>
</a>
</g>
</g>
<!-- Node10&#45;&gt;Node2 -->
<g id="edge9" class="edge">
<title>Node10&#45;&gt;Node2</title>
<path fill="none" stroke="midnightblue" d="M372.71,-122.52C394.25,-126.56 417.51,-130.93 438.21,-134.81"/>
<polygon fill="midnightblue" stroke="midnightblue" points="373.1,-119.03 362.63,-120.63 371.81,-125.91 373.1,-119.03"/>
</g>
<!-- Node11 -->
<g id="node11" class="node">
<title>Node11</title>
<g id="a_node11"><a xlink:href="class_black_misc_1_1_db_1_1_i_datastore_object_list.html" target="_top" xlink:title=" ">
<polygon fill="none" stroke="black" points="415,-50 415,-91 588,-91 588,-50 415,-50"/>
<text text-anchor="start" x="423" y="-79" font-family="Helvetica,sans-Serif" font-size="10.00">BlackMisc::Db::IDatastore</text>
<text text-anchor="start" x="423" y="-68" font-family="Helvetica,sans-Serif" font-size="10.00">ObjectList&lt; CCountry, CCountry</text>
<text text-anchor="middle" x="501.5" y="-57" font-family="Helvetica,sans-Serif" font-size="10.00">List, QString &gt;</text>
</a>
</g>
</g>
<!-- Node11&#45;&gt;Node1 -->
<g id="edge10" class="edge">
<title>Node11&#45;&gt;Node1</title>
<path fill="none" stroke="midnightblue" d="M598.23,-70.5C606.94,-70.5 615.62,-70.5 623.98,-70.5"/>
<polygon fill="midnightblue" stroke="midnightblue" points="598.02,-67 588.02,-70.5 598.02,-74 598.02,-67"/>
</g>
<!-- Node12 -->
<g id="node12" class="node">
<title>Node12</title>
<g id="a_node12"><a xlink:href="class_black_misc_1_1_i_timestamp_object_list.html" target="_top" xlink:title="List of objects with timestamp. Such objects should implement.">
<polygon fill="none" stroke="black" points="216,-44.5 216,-74.5 378,-74.5 378,-44.5 216,-44.5"/>
<text text-anchor="start" x="224" y="-62.5" font-family="Helvetica,sans-Serif" font-size="10.00">BlackMisc::ITimestampObject</text>
<text text-anchor="middle" x="297" y="-51.5" font-family="Helvetica,sans-Serif" font-size="10.00">List&lt; OBJ, CONTAINER &gt;</text>
</a>
</g>
</g>
<!-- Node12&#45;&gt;Node11 -->
<g id="edge11" class="edge">
<title>Node12&#45;&gt;Node11</title>
<path fill="none" stroke="midnightblue" d="M388.28,-64.4C397.07,-64.88 405.97,-65.37 414.72,-65.84"/>
<polygon fill="midnightblue" stroke="midnightblue" points="388.21,-60.9 378.03,-63.85 387.83,-67.88 388.21,-60.9"/>
</g>
<!-- Node13 -->
<g id="node13" class="node">
<title>Node13</title>
<g id="a_node13"><a xlink:href="class_black_misc_1_1_mixin_1_1_meta_type.html" target="_top" xlink:title=" ">
<polygon fill="none" stroke="black" points="425.5,-0.5 425.5,-30.5 577.5,-30.5 577.5,-0.5 425.5,-0.5"/>
<text text-anchor="start" x="433.5" y="-18.5" font-family="Helvetica,sans-Serif" font-size="10.00">BlackMisc::Mixin::MetaType</text>
<text text-anchor="middle" x="501.5" y="-7.5" font-family="Helvetica,sans-Serif" font-size="10.00">&lt; CCountryList &gt;</text>
</a>
</g>
</g>
<!-- Node13&#45;&gt;Node1 -->
<g id="edge12" class="edge">
<title>Node13&#45;&gt;Node1</title>
<path fill="none" stroke="midnightblue" d="M563.87,-33.43C571.98,-35.81 580.19,-38.21 588,-40.5 611.2,-47.3 637.37,-55 657.39,-60.89"/>
<polygon fill="midnightblue" stroke="midnightblue" points="564.63,-30.01 554.05,-30.56 562.66,-36.72 564.63,-30.01"/>
</g>
</g>
</svg>
