<?xml version="1.0" encoding="UTF-8" standalone="no"?>
<!DOCTYPE svg PUBLIC "-//W3C//DTD SVG 1.1//EN"
 "http://www.w3.org/Graphics/SVG/1.1/DTD/svg11.dtd">
<!-- Generated by graphviz version 2.43.0 (0)
 -->
<!-- Title: BlackGui::Components::CInterpolationSetupComponent Pages: 1 -->
<svg width="184pt" height="341pt"
 viewBox="0.00 0.00 184.00 341.00" xmlns="http://www.w3.org/2000/svg" xmlns:xlink="http://www.w3.org/1999/xlink">
<g id="graph0" class="graph" transform="scale(1 1) rotate(0) translate(4 337)">
<title>BlackGui::Components::CInterpolationSetupComponent</title>
<!-- Node1 -->
<g id="node1" class="node">
<title>Node1</title>
<g id="a_node1"><a xlink:title="Setup component.">
<polygon fill="#bfbfbf" stroke="black" points="0,-0.5 0,-30.5 176,-30.5 176,-0.5 0,-0.5"/>
<text text-anchor="start" x="8" y="-18.5" font-family="Helvetica,sans-Serif" font-size="10.00">BlackGui::Components</text>
<text text-anchor="middle" x="88" y="-7.5" font-family="Helvetica,sans-Serif" font-size="10.00">::CInterpolationSetupComponent</text>
</a>
</g>
</g>
<!-- Node2 -->
<g id="node2" class="node">
<title>Node2</title>
<g id="a_node2"><a xlink:href="class_black_gui_1_1_c_overlay_messages_frame.html" target="_top" xlink:title="Using this class provides a QFrame with the overlay functionality already integrated.">
<polygon fill="none" stroke="black" points="8,-67.5 8,-97.5 168,-97.5 168,-67.5 8,-67.5"/>
<text text-anchor="start" x="16" y="-85.5" font-family="Helvetica,sans-Serif" font-size="10.00">BlackGui::COverlayMessages</text>
<text text-anchor="middle" x="88" y="-74.5" font-family="Helvetica,sans-Serif" font-size="10.00">Frame</text>
</a>
</g>
</g>
<!-- Node2&#45;&gt;Node1 -->
<g id="edge1" class="edge">
<title>Node2&#45;&gt;Node1</title>
<path fill="none" stroke="midnightblue" d="M88,-57.11C88,-48.15 88,-38.32 88,-30.58"/>
<polygon fill="midnightblue" stroke="midnightblue" points="84.5,-57.4 88,-67.4 91.5,-57.4 84.5,-57.4"/>
</g>
<!-- Node3 -->
<g id="node3" class="node">
<title>Node3</title>
<g id="a_node3"><a xlink:href="class_black_gui_1_1_c_overlay_messages_base.html" target="_top" xlink:title=" ">
<polygon fill="none" stroke="black" points="8,-134.5 8,-164.5 168,-164.5 168,-134.5 8,-134.5"/>
<text text-anchor="start" x="16" y="-152.5" font-family="Helvetica,sans-Serif" font-size="10.00">BlackGui::COverlayMessages</text>
<text text-anchor="middle" x="88" y="-141.5" font-family="Helvetica,sans-Serif" font-size="10.00">Base&lt; QFrame &gt;</text>
</a>
</g>
</g>
<!-- Node3&#45;&gt;Node2 -->
<g id="edge2" class="edge">
<title>Node3&#45;&gt;Node2</title>
<path fill="none" stroke="midnightblue" d="M88,-124.11C88,-115.15 88,-105.32 88,-97.58"/>
<polygon fill="midnightblue" stroke="midnightblue" points="84.5,-124.4 88,-134.4 91.5,-124.4 84.5,-124.4"/>
</g>
<!-- Node4 -->
<g id="node4" class="node">
<title>Node4</title>
<g id="a_node4"><a target="_parent" xlink:href="http://doc.qt.io/qt-5/qframe.html" xlink:title=" ">
<polygon fill="none" stroke="black" points="60.5,-201.5 60.5,-220.5 115.5,-220.5 115.5,-201.5 60.5,-201.5"/>
<text text-anchor="middle" x="88" y="-208.5" font-family="Helvetica,sans-Serif" font-size="10.00">QFrame</text>
</a>
</g>
</g>
<!-- Node4&#45;&gt;Node3 -->
<g id="edge3" class="edge">
<title>Node4&#45;&gt;Node3</title>
<path fill="none" stroke="midnightblue" d="M88,-191.23C88,-182.59 88,-172.5 88,-164.52"/>
<polygon fill="midnightblue" stroke="midnightblue" points="84.5,-191.48 88,-201.48 91.5,-191.48 84.5,-191.48"/>
</g>
<!-- Node5 -->
<g id="node5" class="node">
<title>Node5</title>
<g id="a_node5"><a target="_parent" xlink:href="http://doc.qt.io/qt-5/qwidget.html" xlink:title=" ">
<polygon fill="none" stroke="black" points="58.5,-257.5 58.5,-276.5 117.5,-276.5 117.5,-257.5 58.5,-257.5"/>
<text text-anchor="middle" x="88" y="-264.5" font-family="Helvetica,sans-Serif" font-size="10.00">QWidget</text>
</a>
</g>
</g>
<!-- Node5&#45;&gt;Node4 -->
<g id="edge4" class="edge">
<title>Node5&#45;&gt;Node4</title>
<path fill="none" stroke="midnightblue" d="M88,-246.8C88,-237.91 88,-227.78 88,-220.75"/>
<polygon fill="midnightblue" stroke="midnightblue" points="84.5,-247.08 88,-257.08 91.5,-247.08 84.5,-247.08"/>
</g>
<!-- Node6 -->
<g id="node6" class="node">
<title>Node6</title>
<g id="a_node6"><a target="_parent" xlink:href="http://doc.qt.io/qt-5/qobject.html" xlink:title=" ">
<polygon fill="none" stroke="black" points="17,-313.5 17,-332.5 73,-332.5 73,-313.5 17,-313.5"/>
<text text-anchor="middle" x="45" y="-320.5" font-family="Helvetica,sans-Serif" font-size="10.00">QObject</text>
</a>
</g>
</g>
<!-- Node6&#45;&gt;Node5 -->
<g id="edge5" class="edge">
<title>Node6&#45;&gt;Node5</title>
<path fill="none" stroke="midnightblue" d="M58.42,-305.14C65.91,-295.74 74.94,-284.4 81.03,-276.75"/>
<polygon fill="midnightblue" stroke="midnightblue" points="55.59,-303.08 52.1,-313.08 61.07,-307.44 55.59,-303.08"/>
</g>
<!-- Node7 -->
<g id="node7" class="node">
<title>Node7</title>
<g id="a_node7"><a target="_parent" xlink:href="http://doc.qt.io/qt-5/qpaintdevice.html" xlink:title=" ">
<polygon fill="none" stroke="black" points="91,-313.5 91,-332.5 173,-332.5 173,-313.5 91,-313.5"/>
<text text-anchor="middle" x="132" y="-320.5" font-family="Helvetica,sans-Serif" font-size="10.00">QPaintDevice</text>
</a>
</g>
</g>
<!-- Node7&#45;&gt;Node5 -->
<g id="edge6" class="edge">
<title>Node7&#45;&gt;Node5</title>
<path fill="none" stroke="midnightblue" d="M118.27,-305.14C110.6,-295.74 101.37,-284.4 95.13,-276.75"/>
<polygon fill="midnightblue" stroke="midnightblue" points="115.7,-307.54 124.73,-313.08 121.13,-303.12 115.7,-307.54"/>
</g>
</g>
</svg>
