<?xml version="1.0" encoding="UTF-8" standalone="no"?>
<!DOCTYPE svg PUBLIC "-//W3C//DTD SVG 1.1//EN"
 "http://www.w3.org/Graphics/SVG/1.1/DTD/svg11.dtd">
<!-- Generated by graphviz version 2.43.0 (0)
 -->
<!-- Title: BlackCore::Context::IContextApplication Pages: 1 -->
<svg width="555pt" height="137pt"
 viewBox="0.00 0.00 555.00 137.00" xmlns="http://www.w3.org/2000/svg" xmlns:xlink="http://www.w3.org/1999/xlink">
<g id="graph0" class="graph" transform="scale(1 1) rotate(0) translate(4 133)">
<title>BlackCore::Context::IContextApplication</title>
<!-- Node1 -->
<g id="node1" class="node">
<title>Node1</title>
<g id="a_node1"><a xlink:title="Application context interface.">
<polygon fill="#bfbfbf" stroke="black" points="238,-49.5 238,-79.5 357,-79.5 357,-49.5 238,-49.5"/>
<text text-anchor="start" x="246" y="-67.5" font-family="Helvetica,sans-Serif" font-size="10.00">BlackCore::Context</text>
<text text-anchor="middle" x="297.5" y="-56.5" font-family="Helvetica,sans-Serif" font-size="10.00">::IContextApplication</text>
</a>
</g>
</g>
<!-- Node4 -->
<g id="node4" class="node">
<title>Node4</title>
<g id="a_node4"><a xlink:href="class_black_core_1_1_context_1_1_c_context_application.html" target="_top" xlink:title="Application context.">
<polygon fill="none" stroke="black" points="409,-98.5 409,-128.5 531,-128.5 531,-98.5 409,-98.5"/>
<text text-anchor="start" x="417" y="-116.5" font-family="Helvetica,sans-Serif" font-size="10.00">BlackCore::Context</text>
<text text-anchor="middle" x="470" y="-105.5" font-family="Helvetica,sans-Serif" font-size="10.00">::CContextApplication</text>
</a>
</g>
</g>
<!-- Node1&#45;&gt;Node4 -->
<g id="edge3" class="edge">
<title>Node1&#45;&gt;Node4</title>
<path fill="none" stroke="midnightblue" d="M360.76,-82.39C379.1,-87.66 398.98,-93.38 416.63,-98.45"/>
<polygon fill="midnightblue" stroke="midnightblue" points="361.62,-79 351.05,-79.6 359.69,-85.73 361.62,-79"/>
</g>
<!-- Node5 -->
<g id="node5" class="node">
<title>Node5</title>
<g id="a_node5"><a xlink:href="class_black_core_1_1_context_1_1_c_context_application_empty.html" target="_top" xlink:title="Application context.">
<polygon fill="none" stroke="black" points="393,-49.5 393,-79.5 547,-79.5 547,-49.5 393,-49.5"/>
<text text-anchor="start" x="401" y="-67.5" font-family="Helvetica,sans-Serif" font-size="10.00">BlackCore::Context</text>
<text text-anchor="middle" x="470" y="-56.5" font-family="Helvetica,sans-Serif" font-size="10.00">::CContextApplicationEmpty</text>
</a>
</g>
</g>
<!-- Node1&#45;&gt;Node5 -->
<g id="edge4" class="edge">
<title>Node1&#45;&gt;Node5</title>
<path fill="none" stroke="midnightblue" d="M367.27,-64.5C375.66,-64.5 384.27,-64.5 392.75,-64.5"/>
<polygon fill="midnightblue" stroke="midnightblue" points="367.18,-61 357.18,-64.5 367.18,-68 367.18,-61"/>
</g>
<!-- Node6 -->
<g id="node6" class="node">
<title>Node6</title>
<g id="a_node6"><a xlink:href="class_black_core_1_1_context_1_1_c_context_application_proxy.html" target="_top" xlink:title="Application context proxy.">
<polygon fill="none" stroke="black" points="395,-0.5 395,-30.5 545,-30.5 545,-0.5 395,-0.5"/>
<text text-anchor="start" x="403" y="-18.5" font-family="Helvetica,sans-Serif" font-size="10.00">BlackCore::Context</text>
<text text-anchor="middle" x="470" y="-7.5" font-family="Helvetica,sans-Serif" font-size="10.00">::CContextApplicationProxy</text>
</a>
</g>
</g>
<!-- Node1&#45;&gt;Node6 -->
<g id="edge5" class="edge">
<title>Node1&#45;&gt;Node6</title>
<path fill="none" stroke="midnightblue" d="M360.76,-46.61C379.1,-41.34 398.98,-35.62 416.63,-30.55"/>
<polygon fill="midnightblue" stroke="midnightblue" points="359.69,-43.27 351.05,-49.4 361.62,-50 359.69,-43.27"/>
</g>
<!-- Node2 -->
<g id="node2" class="node">
<title>Node2</title>
<g id="a_node2"><a xlink:href="class_black_core_1_1_context_1_1_i_context.html" target="_top" xlink:title="Base for all context classes.">
<polygon fill="none" stroke="black" points="92,-49.5 92,-79.5 202,-79.5 202,-49.5 92,-49.5"/>
<text text-anchor="start" x="100" y="-67.5" font-family="Helvetica,sans-Serif" font-size="10.00">BlackCore::Context</text>
<text text-anchor="middle" x="147" y="-56.5" font-family="Helvetica,sans-Serif" font-size="10.00">::IContext</text>
</a>
</g>
</g>
<!-- Node2&#45;&gt;Node1 -->
<g id="edge1" class="edge">
<title>Node2&#45;&gt;Node1</title>
<path fill="none" stroke="midnightblue" d="M212.04,-64.5C220.67,-64.5 229.48,-64.5 238,-64.5"/>
<polygon fill="midnightblue" stroke="midnightblue" points="212.03,-61 202.03,-64.5 212.03,-68 212.03,-61"/>
</g>
<!-- Node3 -->
<g id="node3" class="node">
<title>Node3</title>
<g id="a_node3"><a target="_parent" xlink:href="http://doc.qt.io/qt-5/qobject.html" xlink:title=" ">
<polygon fill="none" stroke="black" points="0,-55 0,-74 56,-74 56,-55 0,-55"/>
<text text-anchor="middle" x="28" y="-62" font-family="Helvetica,sans-Serif" font-size="10.00">QObject</text>
</a>
</g>
</g>
<!-- Node3&#45;&gt;Node2 -->
<g id="edge2" class="edge">
<title>Node3&#45;&gt;Node2</title>
<path fill="none" stroke="midnightblue" d="M66.37,-64.5C74.48,-64.5 83.22,-64.5 91.82,-64.5"/>
<polygon fill="midnightblue" stroke="midnightblue" points="66.14,-61 56.14,-64.5 66.14,-68 66.14,-61"/>
</g>
</g>
</svg>
