<?xml version="1.0" encoding="UTF-8" standalone="no"?>
<!DOCTYPE svg PUBLIC "-//W3C//DTD SVG 1.1//EN"
 "http://www.w3.org/Graphics/SVG/1.1/DTD/svg11.dtd">
<!-- Generated by graphviz version 2.43.0 (0)
 -->
<!-- Title: BlackCore::CAirspaceMonitor Pages: 1 -->
<svg width="762pt" height="313pt"
 viewBox="0.00 0.00 762.00 312.50" xmlns="http://www.w3.org/2000/svg" xmlns:xlink="http://www.w3.org/1999/xlink">
<g id="graph0" class="graph" transform="scale(1 1) rotate(0) translate(4 308.5)">
<title>BlackCore::CAirspaceMonitor</title>
<!-- Node1 -->
<g id="node1" class="node">
<title>Node1</title>
<g id="a_node1"><a xlink:title="Keeps track of other entities in the airspace: aircraft, ATC stations, etc. Central instance of data ...">
<polygon fill="#bfbfbf" stroke="black" points="596,-104 596,-123 754,-123 754,-104 596,-104"/>
<text text-anchor="middle" x="675" y="-111" font-family="Helvetica,sans-Serif" font-size="10.00">BlackCore::CAirspaceMonitor</text>
</a>
</g>
</g>
<!-- Node2 -->
<g id="node2" class="node">
<title>Node2</title>
<g id="a_node2"><a xlink:href="class_black_misc_1_1_simulation_1_1_c_remote_aircraft_provider.html" target="_top" xlink:title="Implementaion of the interface, which can also be used for testing.">
<polygon fill="none" stroke="black" points="401,-215.5 401,-245.5 544,-245.5 544,-215.5 401,-215.5"/>
<text text-anchor="start" x="409" y="-233.5" font-family="Helvetica,sans-Serif" font-size="10.00">BlackMisc::Simulation</text>
<text text-anchor="middle" x="472.5" y="-222.5" font-family="Helvetica,sans-Serif" font-size="10.00">::CRemoteAircraftProvider</text>
</a>
</g>
</g>
<!-- Node2&#45;&gt;Node1 -->
<g id="edge1" class="edge">
<title>Node2&#45;&gt;Node1</title>
<path fill="none" stroke="midnightblue" d="M515.17,-210.98C529.56,-203.93 545.66,-195.68 560,-187.5 597.3,-166.22 639.18,-137.79 660.28,-123.14"/>
<polygon fill="midnightblue" stroke="midnightblue" points="513.47,-207.92 506,-215.43 516.53,-214.22 513.47,-207.92"/>
</g>
<!-- Node3 -->
<g id="node3" class="node">
<title>Node3</title>
<g id="a_node3"><a target="_parent" xlink:href="http://doc.qt.io/qt-5/qobject.html" xlink:title=" ">
<polygon fill="none" stroke="black" points="222.5,-285 222.5,-304 278.5,-304 278.5,-285 222.5,-285"/>
<text text-anchor="middle" x="250.5" y="-292" font-family="Helvetica,sans-Serif" font-size="10.00">QObject</text>
</a>
</g>
</g>
<!-- Node3&#45;&gt;Node2 -->
<g id="edge2" class="edge">
<title>Node3&#45;&gt;Node2</title>
<path fill="none" stroke="midnightblue" d="M288.67,-288.69C307,-285.47 329.33,-280.99 349,-275.5 378.57,-267.24 411.16,-255.12 435.28,-245.54"/>
<polygon fill="midnightblue" stroke="midnightblue" points="287.94,-285.27 278.67,-290.4 289.12,-292.17 287.94,-285.27"/>
</g>
<!-- Node4 -->
<g id="node4" class="node">
<title>Node4</title>
<g id="a_node4"><a xlink:href="class_black_misc_1_1_simulation_1_1_i_remote_aircraft_provider.html" target="_top" xlink:title="Direct thread safe in memory access to remote aircraft.">
<polygon fill="none" stroke="black" points="180.5,-235.5 180.5,-265.5 320.5,-265.5 320.5,-235.5 180.5,-235.5"/>
<text text-anchor="start" x="188.5" y="-253.5" font-family="Helvetica,sans-Serif" font-size="10.00">BlackMisc::Simulation</text>
<text text-anchor="middle" x="250.5" y="-242.5" font-family="Helvetica,sans-Serif" font-size="10.00">::IRemoteAircraftProvider</text>
</a>
</g>
</g>
<!-- Node4&#45;&gt;Node2 -->
<g id="edge3" class="edge">
<title>Node4&#45;&gt;Node2</title>
<path fill="none" stroke="midnightblue" d="M330.56,-243.31C353.52,-241.23 378.43,-238.96 400.84,-236.92"/>
<polygon fill="midnightblue" stroke="midnightblue" points="330.15,-239.84 320.51,-244.23 330.78,-246.81 330.15,-239.84"/>
</g>
<!-- Node5 -->
<g id="node5" class="node">
<title>Node5</title>
<g id="a_node5"><a xlink:href="class_black_misc_1_1_i_provider.html" target="_top" xlink:title="Base class for providers.">
<polygon fill="none" stroke="black" points="0,-197 0,-216 116,-216 116,-197 0,-197"/>
<text text-anchor="middle" x="58" y="-204" font-family="Helvetica,sans-Serif" font-size="10.00">BlackMisc::IProvider</text>
</a>
</g>
</g>
<!-- Node5&#45;&gt;Node4 -->
<g id="edge4" class="edge">
<title>Node5&#45;&gt;Node4</title>
<path fill="none" stroke="midnightblue" d="M110.15,-218.31C132.94,-223.58 160.05,-229.84 184.27,-235.43"/>
<polygon fill="midnightblue" stroke="midnightblue" points="110.87,-214.89 100.34,-216.05 109.29,-221.71 110.87,-214.89"/>
</g>
<!-- Node8 -->
<g id="node8" class="node">
<title>Node8</title>
<g id="a_node8"><a xlink:href="class_black_misc_1_1_network_1_1_i_client_provider.html" target="_top" xlink:title="Direct in memory access to client (network client) data.">
<polygon fill="none" stroke="black" points="194,-147.5 194,-177.5 307,-177.5 307,-147.5 194,-147.5"/>
<text text-anchor="start" x="202" y="-165.5" font-family="Helvetica,sans-Serif" font-size="10.00">BlackMisc::Network</text>
<text text-anchor="middle" x="250.5" y="-154.5" font-family="Helvetica,sans-Serif" font-size="10.00">::IClientProvider</text>
</a>
</g>
</g>
<!-- Node5&#45;&gt;Node8 -->
<g id="edge8" class="edge">
<title>Node5&#45;&gt;Node8</title>
<path fill="none" stroke="midnightblue" d="M110.29,-194.65C136.09,-188.69 167.4,-181.46 193.79,-175.37"/>
<polygon fill="midnightblue" stroke="midnightblue" points="109.29,-191.29 100.34,-196.95 110.87,-198.11 109.29,-191.29"/>
</g>
<!-- Node6 -->
<g id="node6" class="node">
<title>Node6</title>
<g id="a_node6"><a xlink:href="class_black_misc_1_1_c_identifiable.html" target="_top" xlink:title="Base class with a member CIdentifier to be inherited by a class which has an identity in the environm...">
<polygon fill="none" stroke="black" points="183.5,-197 183.5,-216 317.5,-216 317.5,-197 183.5,-197"/>
<text text-anchor="middle" x="250.5" y="-204" font-family="Helvetica,sans-Serif" font-size="10.00">BlackMisc::CIdentifiable</text>
</a>
</g>
</g>
<!-- Node6&#45;&gt;Node2 -->
<g id="edge5" class="edge">
<title>Node6&#45;&gt;Node2</title>
<path fill="none" stroke="midnightblue" d="M327.55,-214.8C351.36,-217.39 377.53,-220.25 400.94,-222.8"/>
<polygon fill="midnightblue" stroke="midnightblue" points="327.83,-211.31 317.51,-213.7 327.07,-218.26 327.83,-211.31"/>
</g>
<!-- Node7 -->
<g id="node7" class="node">
<title>Node7</title>
<g id="a_node7"><a xlink:href="class_black_misc_1_1_network_1_1_c_client_provider.html" target="_top" xlink:title="Direct in memory access to client (network client) data.">
<polygon fill="none" stroke="black" points="416,-147.5 416,-177.5 529,-177.5 529,-147.5 416,-147.5"/>
<text text-anchor="start" x="424" y="-165.5" font-family="Helvetica,sans-Serif" font-size="10.00">BlackMisc::Network</text>
<text text-anchor="middle" x="472.5" y="-154.5" font-family="Helvetica,sans-Serif" font-size="10.00">::CClientProvider</text>
</a>
</g>
</g>
<!-- Node7&#45;&gt;Node1 -->
<g id="edge6" class="edge">
<title>Node7&#45;&gt;Node1</title>
<path fill="none" stroke="midnightblue" d="M539.15,-146.46C570.79,-138.72 607.66,-129.71 634.85,-123.07"/>
<polygon fill="midnightblue" stroke="midnightblue" points="537.97,-143.14 529.08,-148.92 539.63,-149.94 537.97,-143.14"/>
</g>
<!-- Node8&#45;&gt;Node7 -->
<g id="edge7" class="edge">
<title>Node8&#45;&gt;Node7</title>
<path fill="none" stroke="midnightblue" d="M317.39,-162.5C348.7,-162.5 385.71,-162.5 415.62,-162.5"/>
<polygon fill="midnightblue" stroke="midnightblue" points="317.02,-159 307.02,-162.5 317.02,-166 317.02,-159"/>
</g>
<!-- Node9 -->
<g id="node9" class="node">
<title>Node9</title>
<g id="a_node9"><a xlink:href="class_black_misc_1_1_simulation_1_1_c_own_aircraft_aware.html" target="_top" xlink:title="Delegating class which can be directly used to access an.">
<polygon fill="none" stroke="black" points="410,-98.5 410,-128.5 535,-128.5 535,-98.5 410,-98.5"/>
<text text-anchor="start" x="418" y="-116.5" font-family="Helvetica,sans-Serif" font-size="10.00">BlackMisc::Simulation</text>
<text text-anchor="middle" x="472.5" y="-105.5" font-family="Helvetica,sans-Serif" font-size="10.00">::COwnAircraftAware</text>
</a>
</g>
</g>
<!-- Node9&#45;&gt;Node1 -->
<g id="edge9" class="edge">
<title>Node9&#45;&gt;Node1</title>
<path fill="none" stroke="midnightblue" d="M545.11,-113.5C561.59,-113.5 579.18,-113.5 595.92,-113.5"/>
<polygon fill="midnightblue" stroke="midnightblue" points="545.02,-110 535.02,-113.5 545.02,-117 545.02,-110"/>
</g>
<!-- Node10 -->
<g id="node10" class="node">
<title>Node10</title>
<g id="a_node10"><a xlink:href="class_black_misc_1_1_i_provider_aware.html" target="_top" xlink:title=" ">
<polygon fill="none" stroke="black" points="177.5,-98.5 177.5,-128.5 323.5,-128.5 323.5,-98.5 177.5,-98.5"/>
<text text-anchor="start" x="185.5" y="-116.5" font-family="Helvetica,sans-Serif" font-size="10.00">BlackMisc::IProviderAware</text>
<text text-anchor="middle" x="250.5" y="-105.5" font-family="Helvetica,sans-Serif" font-size="10.00">&lt; IOwnAircraftProvider &gt;</text>
</a>
</g>
</g>
<!-- Node10&#45;&gt;Node9 -->
<g id="edge10" class="edge">
<title>Node10&#45;&gt;Node9</title>
<path fill="none" stroke="midnightblue" d="M333.79,-113.5C358.92,-113.5 386.11,-113.5 409.64,-113.5"/>
<polygon fill="midnightblue" stroke="midnightblue" points="333.54,-110 323.54,-113.5 333.54,-117 333.54,-110"/>
</g>
<!-- Node11 -->
<g id="node11" class="node">
<title>Node11</title>
<g id="a_node11"><a xlink:href="class_black_misc_1_1_simulation_1_1_c_simulation_environment_aware.html" target="_top" xlink:title="Class which can be directly used to access an.">
<polygon fill="none" stroke="black" points="385,-49.5 385,-79.5 560,-79.5 560,-49.5 385,-49.5"/>
<text text-anchor="start" x="393" y="-67.5" font-family="Helvetica,sans-Serif" font-size="10.00">BlackMisc::Simulation</text>
<text text-anchor="middle" x="472.5" y="-56.5" font-family="Helvetica,sans-Serif" font-size="10.00">::CSimulationEnvironmentAware</text>
</a>
</g>
</g>
<!-- Node11&#45;&gt;Node1 -->
<g id="edge11" class="edge">
<title>Node11&#45;&gt;Node1</title>
<path fill="none" stroke="midnightblue" d="M545.13,-82C575.41,-89.41 609.5,-97.74 635.01,-103.97"/>
<polygon fill="midnightblue" stroke="midnightblue" points="545.56,-78.51 535.02,-79.53 543.9,-85.31 545.56,-78.51"/>
</g>
<!-- Node12 -->
<g id="node12" class="node">
<title>Node12</title>
<g id="a_node12"><a xlink:href="class_black_misc_1_1_i_provider_aware.html" target="_top" xlink:title=" ">
<polygon fill="none" stroke="black" points="152,-49.5 152,-79.5 349,-79.5 349,-49.5 152,-49.5"/>
<text text-anchor="start" x="160" y="-67.5" font-family="Helvetica,sans-Serif" font-size="10.00">BlackMisc::IProviderAware</text>
<text text-anchor="middle" x="250.5" y="-56.5" font-family="Helvetica,sans-Serif" font-size="10.00">&lt; ISimulationEnvironmentProvider &gt;</text>
</a>
</g>
</g>
<!-- Node12&#45;&gt;Node11 -->
<g id="edge12" class="edge">
<title>Node12&#45;&gt;Node11</title>
<path fill="none" stroke="midnightblue" d="M359.28,-64.5C367.82,-64.5 376.38,-64.5 384.75,-64.5"/>
<polygon fill="midnightblue" stroke="midnightblue" points="359.28,-61 349.28,-64.5 359.28,-68 359.28,-61"/>
</g>
<!-- Node13 -->
<g id="node13" class="node">
<title>Node13</title>
<g id="a_node13"><a xlink:href="class_black_misc_1_1_simulation_1_1_c_aircraft_model_set_aware.html" target="_top" xlink:title="Delegating class which can be directly used to access an.">
<polygon fill="none" stroke="black" points="402,-0.5 402,-30.5 543,-30.5 543,-0.5 402,-0.5"/>
<text text-anchor="start" x="410" y="-18.5" font-family="Helvetica,sans-Serif" font-size="10.00">BlackMisc::Simulation</text>
<text text-anchor="middle" x="472.5" y="-7.5" font-family="Helvetica,sans-Serif" font-size="10.00">::CAircraftModelSetAware</text>
</a>
</g>
</g>
<!-- Node13&#45;&gt;Node1 -->
<g id="edge13" class="edge">
<title>Node13&#45;&gt;Node1</title>
<path fill="none" stroke="midnightblue" d="M546.35,-33.95C551.03,-35.68 555.61,-37.52 560,-39.5 600.02,-57.52 642.06,-88.42 662.07,-103.97"/>
<polygon fill="midnightblue" stroke="midnightblue" points="547.26,-30.56 536.67,-30.59 544.97,-37.18 547.26,-30.56"/>
</g>
<!-- Node14 -->
<g id="node14" class="node">
<title>Node14</title>
<g id="a_node14"><a xlink:href="class_black_misc_1_1_i_provider_aware.html" target="_top" xlink:title=" ">
<polygon fill="none" stroke="black" points="168.5,-0.5 168.5,-30.5 332.5,-30.5 332.5,-0.5 168.5,-0.5"/>
<text text-anchor="start" x="176.5" y="-18.5" font-family="Helvetica,sans-Serif" font-size="10.00">BlackMisc::IProviderAware</text>
<text text-anchor="middle" x="250.5" y="-7.5" font-family="Helvetica,sans-Serif" font-size="10.00">&lt; IAircraftModelSetProvider &gt;</text>
</a>
</g>
</g>
<!-- Node14&#45;&gt;Node13 -->
<g id="edge14" class="edge">
<title>Node14&#45;&gt;Node13</title>
<path fill="none" stroke="midnightblue" d="M342.98,-15.5C362.63,-15.5 383.08,-15.5 401.75,-15.5"/>
<polygon fill="midnightblue" stroke="midnightblue" points="342.79,-12 332.79,-15.5 342.79,-19 342.79,-12"/>
</g>
</g>
</svg>
