<?xml version="1.0" encoding="UTF-8" standalone="no"?>
<!DOCTYPE svg PUBLIC "-//W3C//DTD SVG 1.1//EN"
 "http://www.w3.org/Graphics/SVG/1.1/DTD/svg11.dtd">
<!-- Generated by graphviz version 2.43.0 (0)
 -->
<!-- Title: BlackMisc::PhysicalQuantities::CPressure Pages: 1 -->
<svg width="617pt" height="333pt"
 viewBox="0.00 0.00 617.00 333.00" xmlns="http://www.w3.org/2000/svg" xmlns:xlink="http://www.w3.org/1999/xlink">
<g id="graph0" class="graph" transform="scale(1 1) rotate(0) translate(4 329)">
<title>BlackMisc::PhysicalQuantities::CPressure</title>
<!-- Node1 -->
<g id="node1" class="node">
<title>Node1</title>
<g id="a_node1"><a xlink:title="Physical unit distance.">
<polygon fill="#bfbfbf" stroke="black" points="446,-147.5 446,-177.5 609,-177.5 609,-147.5 446,-147.5"/>
<text text-anchor="start" x="454" y="-165.5" font-family="Helvetica,sans-Serif" font-size="10.00">BlackMisc::PhysicalQuantities</text>
<text text-anchor="middle" x="527.5" y="-154.5" font-family="Helvetica,sans-Serif" font-size="10.00">::CPressure</text>
</a>
</g>
</g>
<!-- Node2 -->
<g id="node2" class="node">
<title>Node2</title>
<g id="a_node2"><a xlink:href="class_black_misc_1_1_physical_quantities_1_1_c_physical_quantity.html" target="_top" xlink:title=" ">
<polygon fill="none" stroke="black" points="215,-142 215,-183 410,-183 410,-142 215,-142"/>
<text text-anchor="start" x="223" y="-171" font-family="Helvetica,sans-Serif" font-size="10.00">BlackMisc::PhysicalQuantities</text>
<text text-anchor="start" x="223" y="-160" font-family="Helvetica,sans-Serif" font-size="10.00">::CPhysicalQuantity&lt; CPressureUnit,</text>
<text text-anchor="middle" x="312.5" y="-149" font-family="Helvetica,sans-Serif" font-size="10.00"> CPressure &gt;</text>
</a>
</g>
</g>
<!-- Node2&#45;&gt;Node1 -->
<g id="edge1" class="edge">
<title>Node2&#45;&gt;Node1</title>
<path fill="none" stroke="midnightblue" d="M420.18,-162.5C428.84,-162.5 437.49,-162.5 445.92,-162.5"/>
<polygon fill="midnightblue" stroke="midnightblue" points="420.03,-159 410.03,-162.5 420.03,-166 420.03,-159"/>
</g>
<!-- Node3 -->
<g id="node3" class="node">
<title>Node3</title>
<g id="a_node3"><a xlink:href="class_black_misc_1_1_mixin_1_1_d_bus_operators.html" target="_top" xlink:title="CRTP class template which will generate marshalling operators for a derived class with its own marsha...">
<polygon fill="none" stroke="black" points="0,-294.5 0,-324.5 179,-324.5 179,-294.5 0,-294.5"/>
<text text-anchor="start" x="8" y="-312.5" font-family="Helvetica,sans-Serif" font-size="10.00">BlackMisc::Mixin::DBusOperators</text>
<text text-anchor="middle" x="89.5" y="-301.5" font-family="Helvetica,sans-Serif" font-size="10.00">&lt; Derived,... &gt;</text>
</a>
</g>
</g>
<!-- Node3&#45;&gt;Node2 -->
<g id="edge2" class="edge">
<title>Node3&#45;&gt;Node2</title>
<path fill="none" stroke="midnightblue" d="M168.86,-290.54C172.35,-288.98 175.75,-287.31 179,-285.5 227.31,-258.7 271.82,-210.61 294.92,-183.18"/>
<polygon fill="midnightblue" stroke="midnightblue" points="167.39,-287.36 159.45,-294.37 170.04,-293.84 167.39,-287.36"/>
</g>
<!-- Node4 -->
<g id="node4" class="node">
<title>Node4</title>
<g id="a_node4"><a xlink:href="class_black_misc_1_1_mixin_1_1_data_stream_operators.html" target="_top" xlink:title="CRTP class template to generate non&#45;member QDataStream streaming operators.">
<polygon fill="none" stroke="black" points="7.5,-245.5 7.5,-275.5 171.5,-275.5 171.5,-245.5 7.5,-245.5"/>
<text text-anchor="start" x="15.5" y="-263.5" font-family="Helvetica,sans-Serif" font-size="10.00">BlackMisc::Mixin::DataStream</text>
<text text-anchor="middle" x="89.5" y="-252.5" font-family="Helvetica,sans-Serif" font-size="10.00">Operators&lt; Derived &gt;</text>
</a>
</g>
</g>
<!-- Node4&#45;&gt;Node2 -->
<g id="edge3" class="edge">
<title>Node4&#45;&gt;Node2</title>
<path fill="none" stroke="midnightblue" d="M163.25,-242.33C168.63,-240.51 173.93,-238.57 179,-236.5 215.11,-221.78 253.75,-199.35 279.93,-183.04"/>
<polygon fill="midnightblue" stroke="midnightblue" points="161.95,-239.07 153.51,-245.46 164.1,-245.73 161.95,-239.07"/>
</g>
<!-- Node5 -->
<g id="node5" class="node">
<title>Node5</title>
<g id="a_node5"><a xlink:href="class_black_misc_1_1_mixin_1_1_json_operators.html" target="_top" xlink:title="CRTP class template which will generate marshalling operators for a derived class with its own marsha...">
<polygon fill="none" stroke="black" points="3,-196.5 3,-226.5 176,-226.5 176,-196.5 3,-196.5"/>
<text text-anchor="start" x="11" y="-214.5" font-family="Helvetica,sans-Serif" font-size="10.00">BlackMisc::Mixin::JsonOperators</text>
<text text-anchor="middle" x="89.5" y="-203.5" font-family="Helvetica,sans-Serif" font-size="10.00">&lt; Derived &gt;</text>
</a>
</g>
</g>
<!-- Node5&#45;&gt;Node2 -->
<g id="edge4" class="edge">
<title>Node5&#45;&gt;Node2</title>
<path fill="none" stroke="midnightblue" d="M168.35,-194.24C184.73,-190.61 202.15,-186.75 219,-183.01"/>
<polygon fill="midnightblue" stroke="midnightblue" points="167.31,-190.88 158.31,-196.47 168.83,-197.72 167.31,-190.88"/>
</g>
<!-- Node6 -->
<g id="node6" class="node">
<title>Node6</title>
<g id="a_node6"><a xlink:href="class_black_misc_1_1_mixin_1_1_index.html" target="_top" xlink:title="CRTP class template from which a derived class can inherit property indexing functions.">
<polygon fill="none" stroke="black" points="23.5,-147.5 23.5,-177.5 155.5,-177.5 155.5,-147.5 23.5,-147.5"/>
<text text-anchor="start" x="31.5" y="-165.5" font-family="Helvetica,sans-Serif" font-size="10.00">BlackMisc::Mixin::Index</text>
<text text-anchor="middle" x="89.5" y="-154.5" font-family="Helvetica,sans-Serif" font-size="10.00">&lt; Derived &gt;</text>
</a>
</g>
</g>
<!-- Node6&#45;&gt;Node2 -->
<g id="edge5" class="edge">
<title>Node6&#45;&gt;Node2</title>
<path fill="none" stroke="midnightblue" d="M165.82,-162.5C181.61,-162.5 198.47,-162.5 214.91,-162.5"/>
<polygon fill="midnightblue" stroke="midnightblue" points="165.61,-159 155.61,-162.5 165.61,-166 165.61,-159"/>
</g>
<!-- Node7 -->
<g id="node7" class="node">
<title>Node7</title>
<g id="a_node7"><a xlink:href="class_black_misc_1_1_mixin_1_1_meta_type.html" target="_top" xlink:title="CRTP class template from which a derived class can inherit common methods dealing with the metatype o...">
<polygon fill="none" stroke="black" points="13.5,-98.5 13.5,-128.5 165.5,-128.5 165.5,-98.5 13.5,-98.5"/>
<text text-anchor="start" x="21.5" y="-116.5" font-family="Helvetica,sans-Serif" font-size="10.00">BlackMisc::Mixin::MetaType</text>
<text text-anchor="middle" x="89.5" y="-105.5" font-family="Helvetica,sans-Serif" font-size="10.00">&lt; Derived &gt;</text>
</a>
</g>
</g>
<!-- Node7&#45;&gt;Node2 -->
<g id="edge6" class="edge">
<title>Node7&#45;&gt;Node2</title>
<path fill="none" stroke="midnightblue" d="M168.35,-130.76C184.73,-134.39 202.15,-138.25 219,-141.99"/>
<polygon fill="midnightblue" stroke="midnightblue" points="168.83,-127.28 158.31,-128.53 167.31,-134.12 168.83,-127.28"/>
</g>
<!-- Node8 -->
<g id="node8" class="node">
<title>Node8</title>
<g id="a_node8"><a xlink:href="class_black_misc_1_1_mixin_1_1_string.html" target="_top" xlink:title="CRTP class template from which a derived class can inherit string streaming operations.">
<polygon fill="none" stroke="black" points="22.5,-49.5 22.5,-79.5 156.5,-79.5 156.5,-49.5 22.5,-49.5"/>
<text text-anchor="start" x="30.5" y="-67.5" font-family="Helvetica,sans-Serif" font-size="10.00">BlackMisc::Mixin::String</text>
<text text-anchor="middle" x="89.5" y="-56.5" font-family="Helvetica,sans-Serif" font-size="10.00">&lt; Derived &gt;</text>
</a>
</g>
</g>
<!-- Node8&#45;&gt;Node2 -->
<g id="edge7" class="edge">
<title>Node8&#45;&gt;Node2</title>
<path fill="none" stroke="midnightblue" d="M160.87,-82.78C167.06,-84.87 173.18,-87.11 179,-89.5 214.6,-104.11 252.84,-125.9 279.05,-141.88"/>
<polygon fill="midnightblue" stroke="midnightblue" points="161.7,-79.37 151.11,-79.63 159.55,-86.03 161.7,-79.37"/>
</g>
<!-- Node9 -->
<g id="node9" class="node">
<title>Node9</title>
<g id="a_node9"><a xlink:href="class_black_misc_1_1_mixin_1_1_icon.html" target="_top" xlink:title="CRTP class template from which a derived class can inherit icon&#45;related functions.">
<polygon fill="none" stroke="black" points="24,-0.5 24,-30.5 155,-30.5 155,-0.5 24,-0.5"/>
<text text-anchor="start" x="32" y="-18.5" font-family="Helvetica,sans-Serif" font-size="10.00">BlackMisc::Mixin::Icon</text>
<text text-anchor="middle" x="89.5" y="-7.5" font-family="Helvetica,sans-Serif" font-size="10.00">&lt; Derived, IconIndex &gt;</text>
</a>
</g>
</g>
<!-- Node9&#45;&gt;Node2 -->
<g id="edge8" class="edge">
<title>Node9&#45;&gt;Node2</title>
<path fill="none" stroke="midnightblue" d="M164.82,-33.64C169.73,-35.7 174.5,-37.98 179,-40.5 226.76,-67.2 271.14,-114.41 294.44,-141.61"/>
<polygon fill="midnightblue" stroke="midnightblue" points="165.85,-30.29 155.26,-29.94 163.32,-36.82 165.85,-30.29"/>
</g>
</g>
</svg>
