<?xml version="1.0" encoding="UTF-8" standalone="no"?>
<!DOCTYPE svg PUBLIC "-//W3C//DTD SVG 1.1//EN"
 "http://www.w3.org/Graphics/SVG/1.1/DTD/svg11.dtd">
<!-- Generated by graphviz version 2.43.0 (0)
 -->
<!-- Title: BlackMisc::IOrderable Pages: 1 -->
<svg width="320pt" height="127pt"
 viewBox="0.00 0.00 320.00 126.50" xmlns="http://www.w3.org/2000/svg" xmlns:xlink="http://www.w3.org/1999/xlink">
<g id="graph0" class="graph" transform="scale(1 1) rotate(0) translate(4 122.5)">
<title>BlackMisc::IOrderable</title>
<!-- Node1 -->
<g id="node1" class="node">
<title>Node1</title>
<g id="a_node1"><a xlink:title="Entity with order attribute (can be manually ordered in views)">
<polygon fill="#bfbfbf" stroke="black" points="0,-55 0,-74 123,-74 123,-55 0,-55"/>
<text text-anchor="middle" x="61.5" y="-62" font-family="Helvetica,sans-Serif" font-size="10.00">BlackMisc::IOrderable</text>
</a>
</g>
</g>
<!-- Node2 -->
<g id="node2" class="node">
<title>Node2</title>
<g id="a_node2"><a xlink:href="class_black_misc_1_1_c_status_message.html" target="_top" xlink:title="Streamable status message, e.g.">
<polygon fill="none" stroke="black" points="159,-99 159,-118 312,-118 312,-99 159,-99"/>
<text text-anchor="middle" x="235.5" y="-106" font-family="Helvetica,sans-Serif" font-size="10.00">BlackMisc::CStatusMessage</text>
</a>
</g>
</g>
<!-- Node1&#45;&gt;Node2 -->
<g id="edge1" class="edge">
<title>Node1&#45;&gt;Node2</title>
<path fill="none" stroke="midnightblue" d="M109.21,-76.67C125.02,-80.77 142.77,-85.36 159,-89.5 171.18,-92.61 184.47,-95.97 196.47,-98.98"/>
<polygon fill="midnightblue" stroke="midnightblue" points="109.7,-73.18 99.14,-74.06 107.94,-79.96 109.7,-73.18"/>
</g>
<!-- Node3 -->
<g id="node3" class="node">
<title>Node3</title>
<g id="a_node3"><a xlink:href="class_black_misc_1_1_simulation_1_1_c_aircraft_model.html" target="_top" xlink:title="Aircraft model (used by another pilot, my models on disk)">
<polygon fill="none" stroke="black" points="173,-49.5 173,-79.5 298,-79.5 298,-49.5 173,-49.5"/>
<text text-anchor="start" x="181" y="-67.5" font-family="Helvetica,sans-Serif" font-size="10.00">BlackMisc::Simulation</text>
<text text-anchor="middle" x="235.5" y="-56.5" font-family="Helvetica,sans-Serif" font-size="10.00">::CAircraftModel</text>
</a>
</g>
</g>
<!-- Node1&#45;&gt;Node3 -->
<g id="edge2" class="edge">
<title>Node1&#45;&gt;Node3</title>
<path fill="none" stroke="midnightblue" d="M133.51,-64.5C146.6,-64.5 160.17,-64.5 172.96,-64.5"/>
<polygon fill="midnightblue" stroke="midnightblue" points="133.14,-61 123.14,-64.5 133.14,-68 133.14,-61"/>
</g>
<!-- Node4 -->
<g id="node4" class="node">
<title>Node4</title>
<g id="a_node4"><a xlink:href="class_black_misc_1_1_simulation_1_1_c_distributor.html" target="_top" xlink:title="Value object encapsulating information of software distributor.">
<polygon fill="none" stroke="black" points="173,-0.5 173,-30.5 298,-30.5 298,-0.5 173,-0.5"/>
<text text-anchor="start" x="181" y="-18.5" font-family="Helvetica,sans-Serif" font-size="10.00">BlackMisc::Simulation</text>
<text text-anchor="middle" x="235.5" y="-7.5" font-family="Helvetica,sans-Serif" font-size="10.00">::CDistributor</text>
</a>
</g>
</g>
<!-- Node1&#45;&gt;Node4 -->
<g id="edge3" class="edge">
<title>Node1&#45;&gt;Node4</title>
<path fill="none" stroke="midnightblue" d="M105.91,-52.13C128.94,-45.57 157.42,-37.46 181.72,-30.54"/>
<polygon fill="midnightblue" stroke="midnightblue" points="104.73,-48.83 96.07,-54.94 106.65,-55.56 104.73,-48.83"/>
</g>
</g>
</svg>
