<?xml version="1.0" encoding="UTF-8" standalone="no"?>
<!DOCTYPE svg PUBLIC "-//W3C//DTD SVG 1.1//EN"
 "http://www.w3.org/Graphics/SVG/1.1/DTD/svg11.dtd">
<!-- Generated by graphviz version 2.43.0 (0)
 -->
<!-- Title: BlackSound::SampleProvider::ISampleProvider Pages: 1 -->
<svg width="475pt" height="578pt"
 viewBox="0.00 0.00 475.00 578.00" xmlns="http://www.w3.org/2000/svg" xmlns:xlink="http://www.w3.org/1999/xlink">
<g id="graph0" class="graph" transform="scale(1 1) rotate(0) translate(4 574)">
<title>BlackSound::SampleProvider::ISampleProvider</title>
<!-- Node1 -->
<g id="node1" class="node">
<title>Node1</title>
<g id="a_node1"><a xlink:title="Sample provider interface.">
<polygon fill="#bfbfbf" stroke="black" points="92,-269.5 92,-299.5 249,-299.5 249,-269.5 92,-269.5"/>
<text text-anchor="start" x="100" y="-287.5" font-family="Helvetica,sans-Serif" font-size="10.00">BlackSound::SampleProvider</text>
<text text-anchor="middle" x="170.5" y="-276.5" font-family="Helvetica,sans-Serif" font-size="10.00">::ISampleProvider</text>
</a>
</g>
</g>
<!-- Node3 -->
<g id="node3" class="node">
<title>Node3</title>
<g id="a_node3"><a xlink:href="class_black_core_1_1_afv_1_1_audio_1_1_c_callsign_sample_provider.html" target="_top" xlink:title="Callsign provider.">
<polygon fill="none" stroke="black" points="303,-539.5 303,-569.5 449,-569.5 449,-539.5 303,-539.5"/>
<text text-anchor="start" x="311" y="-557.5" font-family="Helvetica,sans-Serif" font-size="10.00">BlackCore::Afv::Audio</text>
<text text-anchor="middle" x="376" y="-546.5" font-family="Helvetica,sans-Serif" font-size="10.00">::CCallsignSampleProvider</text>
</a>
</g>
</g>
<!-- Node1&#45;&gt;Node3 -->
<g id="edge2" class="edge">
<title>Node1&#45;&gt;Node3</title>
<path fill="none" stroke="midnightblue" d="M175.78,-309.55C185.65,-359.42 214.76,-471.39 285,-530.5 290.32,-534.98 296.39,-538.63 302.81,-541.6"/>
<polygon fill="midnightblue" stroke="midnightblue" points="179.2,-308.8 173.91,-299.62 172.32,-310.1 179.2,-308.8"/>
</g>
<!-- Node4 -->
<g id="node4" class="node">
<title>Node4</title>
<g id="a_node4"><a xlink:href="class_black_core_1_1_afv_1_1_audio_1_1_c_receiver_sample_provider.html" target="_top" xlink:title="A sample provider.">
<polygon fill="none" stroke="black" points="301.5,-490.5 301.5,-520.5 450.5,-520.5 450.5,-490.5 301.5,-490.5"/>
<text text-anchor="start" x="309.5" y="-508.5" font-family="Helvetica,sans-Serif" font-size="10.00">BlackCore::Afv::Audio</text>
<text text-anchor="middle" x="376" y="-497.5" font-family="Helvetica,sans-Serif" font-size="10.00">::CReceiverSampleProvider</text>
</a>
</g>
</g>
<!-- Node1&#45;&gt;Node4 -->
<g id="edge3" class="edge">
<title>Node1&#45;&gt;Node4</title>
<path fill="none" stroke="midnightblue" d="M178.79,-309.21C192.49,-351.21 226.1,-436.32 285,-481.5 290,-485.34 295.57,-488.56 301.42,-491.28"/>
<polygon fill="midnightblue" stroke="midnightblue" points="182.08,-308 175.74,-299.52 175.41,-310.11 182.08,-308"/>
</g>
<!-- Node5 -->
<g id="node5" class="node">
<title>Node5</title>
<g id="a_node5"><a xlink:href="class_black_core_1_1_afv_1_1_audio_1_1_c_soundcard_sample_provider.html" target="_top" xlink:title="Soundcard sample.">
<polygon fill="none" stroke="black" points="297,-441.5 297,-471.5 455,-471.5 455,-441.5 297,-441.5"/>
<text text-anchor="start" x="305" y="-459.5" font-family="Helvetica,sans-Serif" font-size="10.00">BlackCore::Afv::Audio</text>
<text text-anchor="middle" x="376" y="-448.5" font-family="Helvetica,sans-Serif" font-size="10.00">::CSoundcardSampleProvider</text>
</a>
</g>
</g>
<!-- Node1&#45;&gt;Node5 -->
<g id="edge4" class="edge">
<title>Node1&#45;&gt;Node5</title>
<path fill="none" stroke="midnightblue" d="M183.49,-308.72C201.13,-341.79 237.2,-400.59 285,-432.5 290.11,-435.91 295.69,-438.84 301.48,-441.35"/>
<polygon fill="midnightblue" stroke="midnightblue" points="186.54,-306.99 178.82,-299.73 180.33,-310.22 186.54,-306.99"/>
</g>
<!-- Node6 -->
<g id="node6" class="node">
<title>Node6</title>
<g id="a_node6"><a xlink:href="class_black_sound_1_1_sample_provider_1_1_c_buffered_wave_provider.html" target="_top" xlink:title="Buffered wave generator.">
<polygon fill="none" stroke="black" points="297.5,-392.5 297.5,-422.5 454.5,-422.5 454.5,-392.5 297.5,-392.5"/>
<text text-anchor="start" x="305.5" y="-410.5" font-family="Helvetica,sans-Serif" font-size="10.00">BlackSound::SampleProvider</text>
<text text-anchor="middle" x="376" y="-399.5" font-family="Helvetica,sans-Serif" font-size="10.00">::CBufferedWaveProvider</text>
</a>
</g>
</g>
<!-- Node1&#45;&gt;Node6 -->
<g id="edge5" class="edge">
<title>Node1&#45;&gt;Node6</title>
<path fill="none" stroke="midnightblue" d="M191.43,-307.11C212.52,-329.66 247.83,-363.73 285,-383.5 291.42,-386.92 298.37,-389.88 305.46,-392.43"/>
<polygon fill="midnightblue" stroke="midnightblue" points="193.93,-304.65 184.58,-299.65 188.77,-309.38 193.93,-304.65"/>
</g>
<!-- Node7 -->
<g id="node7" class="node">
<title>Node7</title>
<g id="a_node7"><a xlink:href="class_black_sound_1_1_sample_provider_1_1_c_equalizer_sample_provider.html" target="_top" xlink:title="Equalizer.">
<polygon fill="none" stroke="black" points="297.5,-343.5 297.5,-373.5 454.5,-373.5 454.5,-343.5 297.5,-343.5"/>
<text text-anchor="start" x="305.5" y="-361.5" font-family="Helvetica,sans-Serif" font-size="10.00">BlackSound::SampleProvider</text>
<text text-anchor="middle" x="376" y="-350.5" font-family="Helvetica,sans-Serif" font-size="10.00">::CEqualizerSampleProvider</text>
</a>
</g>
</g>
<!-- Node1&#45;&gt;Node7 -->
<g id="edge6" class="edge">
<title>Node1&#45;&gt;Node7</title>
<path fill="none" stroke="midnightblue" d="M211.43,-303.9C232.91,-313.87 260.05,-325.74 285,-334.5 294.15,-337.72 303.96,-340.74 313.61,-343.49"/>
<polygon fill="midnightblue" stroke="midnightblue" points="212.83,-300.69 202.29,-299.61 209.86,-307.03 212.83,-300.69"/>
</g>
<!-- Node8 -->
<g id="node8" class="node">
<title>Node8</title>
<g id="a_node8"><a xlink:href="class_black_sound_1_1_sample_provider_1_1_c_mixing_sample_provider.html" target="_top" xlink:title="Mixer.">
<polygon fill="none" stroke="black" points="297.5,-294.5 297.5,-324.5 454.5,-324.5 454.5,-294.5 297.5,-294.5"/>
<text text-anchor="start" x="305.5" y="-312.5" font-family="Helvetica,sans-Serif" font-size="10.00">BlackSound::SampleProvider</text>
<text text-anchor="middle" x="376" y="-301.5" font-family="Helvetica,sans-Serif" font-size="10.00">::CMixingSampleProvider</text>
</a>
</g>
</g>
<!-- Node1&#45;&gt;Node8 -->
<g id="edge7" class="edge">
<title>Node1&#45;&gt;Node8</title>
<path fill="none" stroke="midnightblue" d="M259.13,-295.27C271.85,-296.83 284.86,-298.43 297.36,-299.96"/>
<polygon fill="midnightblue" stroke="midnightblue" points="259.37,-291.77 249.02,-294.02 258.51,-298.72 259.37,-291.77"/>
</g>
<!-- Node9 -->
<g id="node9" class="node">
<title>Node9</title>
<g id="a_node9"><a xlink:href="class_black_sound_1_1_sample_provider_1_1_c_pink_noise_generator.html" target="_top" xlink:title="Pink noise generator.">
<polygon fill="none" stroke="black" points="297.5,-245.5 297.5,-275.5 454.5,-275.5 454.5,-245.5 297.5,-245.5"/>
<text text-anchor="start" x="305.5" y="-263.5" font-family="Helvetica,sans-Serif" font-size="10.00">BlackSound::SampleProvider</text>
<text text-anchor="middle" x="376" y="-252.5" font-family="Helvetica,sans-Serif" font-size="10.00">::CPinkNoiseGenerator</text>
</a>
</g>
</g>
<!-- Node1&#45;&gt;Node9 -->
<g id="edge8" class="edge">
<title>Node1&#45;&gt;Node9</title>
<path fill="none" stroke="midnightblue" d="M259.13,-274.16C271.85,-272.67 284.86,-271.13 297.36,-269.66"/>
<polygon fill="midnightblue" stroke="midnightblue" points="258.54,-270.71 249.02,-275.36 259.36,-277.66 258.54,-270.71"/>
</g>
<!-- Node10 -->
<g id="node10" class="node">
<title>Node10</title>
<g id="a_node10"><a xlink:href="class_black_sound_1_1_sample_provider_1_1_c_resource_sound_sample_provider.html" target="_top" xlink:title="A sample provider.">
<polygon fill="none" stroke="black" points="285,-196.5 285,-226.5 467,-226.5 467,-196.5 285,-196.5"/>
<text text-anchor="start" x="293" y="-214.5" font-family="Helvetica,sans-Serif" font-size="10.00">BlackSound::SampleProvider</text>
<text text-anchor="middle" x="376" y="-203.5" font-family="Helvetica,sans-Serif" font-size="10.00">::CResourceSoundSampleProvider</text>
</a>
</g>
</g>
<!-- Node1&#45;&gt;Node10 -->
<g id="edge9" class="edge">
<title>Node1&#45;&gt;Node10</title>
<path fill="none" stroke="midnightblue" d="M212.39,-265.12C233.73,-255.44 260.45,-244.02 285,-235.5 294.17,-232.32 303.98,-229.31 313.63,-226.57"/>
<polygon fill="midnightblue" stroke="midnightblue" points="210.93,-261.94 203.29,-269.28 213.84,-268.3 210.93,-261.94"/>
</g>
<!-- Node11 -->
<g id="node11" class="node">
<title>Node11</title>
<g id="a_node11"><a xlink:href="class_black_sound_1_1_sample_provider_1_1_c_saw_tooth_generator.html" target="_top" xlink:title="Saw tooth generator.">
<polygon fill="none" stroke="black" points="297.5,-147.5 297.5,-177.5 454.5,-177.5 454.5,-147.5 297.5,-147.5"/>
<text text-anchor="start" x="305.5" y="-165.5" font-family="Helvetica,sans-Serif" font-size="10.00">BlackSound::SampleProvider</text>
<text text-anchor="middle" x="376" y="-154.5" font-family="Helvetica,sans-Serif" font-size="10.00">::CSawToothGenerator</text>
</a>
</g>
</g>
<!-- Node1&#45;&gt;Node11 -->
<g id="edge10" class="edge">
<title>Node1&#45;&gt;Node11</title>
<path fill="none" stroke="midnightblue" d="M191.83,-261.76C212.99,-239.44 248.15,-205.99 285,-186.5 291.43,-183.1 298.39,-180.15 305.48,-177.6"/>
<polygon fill="midnightblue" stroke="midnightblue" points="189.2,-259.44 184.95,-269.15 194.32,-264.22 189.2,-259.44"/>
</g>
<!-- Node12 -->
<g id="node12" class="node">
<title>Node12</title>
<g id="a_node12"><a xlink:href="class_black_sound_1_1_sample_provider_1_1_c_simple_compressor_effect.html" target="_top" xlink:title="Compressor effect.">
<polygon fill="none" stroke="black" points="297.5,-98.5 297.5,-128.5 454.5,-128.5 454.5,-98.5 297.5,-98.5"/>
<text text-anchor="start" x="305.5" y="-116.5" font-family="Helvetica,sans-Serif" font-size="10.00">BlackSound::SampleProvider</text>
<text text-anchor="middle" x="376" y="-105.5" font-family="Helvetica,sans-Serif" font-size="10.00">::CSimpleCompressorEffect</text>
</a>
</g>
</g>
<!-- Node1&#45;&gt;Node12 -->
<g id="edge11" class="edge">
<title>Node1&#45;&gt;Node12</title>
<path fill="none" stroke="midnightblue" d="M183.54,-260.44C201.22,-227.6 237.35,-169.19 285,-137.5 290.12,-134.1 295.7,-131.18 301.49,-128.67"/>
<polygon fill="midnightblue" stroke="midnightblue" points="180.4,-258.89 178.84,-269.37 186.59,-262.14 180.4,-258.89"/>
</g>
<!-- Node13 -->
<g id="node13" class="node">
<title>Node13</title>
<g id="a_node13"><a xlink:href="class_black_sound_1_1_sample_provider_1_1_c_sinus_generator.html" target="_top" xlink:title="Saw tooth generator.">
<polygon fill="none" stroke="black" points="297.5,-49.5 297.5,-79.5 454.5,-79.5 454.5,-49.5 297.5,-49.5"/>
<text text-anchor="start" x="305.5" y="-67.5" font-family="Helvetica,sans-Serif" font-size="10.00">BlackSound::SampleProvider</text>
<text text-anchor="middle" x="376" y="-56.5" font-family="Helvetica,sans-Serif" font-size="10.00">::CSinusGenerator</text>
</a>
</g>
</g>
<!-- Node1&#45;&gt;Node13 -->
<g id="edge12" class="edge">
<title>Node1&#45;&gt;Node13</title>
<path fill="none" stroke="midnightblue" d="M178.93,-259.6C192.75,-217.71 226.42,-133.33 285,-88.5 289.49,-85.06 294.44,-82.11 299.64,-79.59"/>
<polygon fill="midnightblue" stroke="midnightblue" points="175.55,-258.7 175.85,-269.29 182.22,-260.82 175.55,-258.7"/>
</g>
<!-- Node14 -->
<g id="node14" class="node">
<title>Node14</title>
<g id="a_node14"><a xlink:href="class_black_sound_1_1_sample_provider_1_1_c_volume_sample_provider.html" target="_top" xlink:title="Pink noise generator.">
<polygon fill="none" stroke="black" points="297.5,-0.5 297.5,-30.5 454.5,-30.5 454.5,-0.5 297.5,-0.5"/>
<text text-anchor="start" x="305.5" y="-18.5" font-family="Helvetica,sans-Serif" font-size="10.00">BlackSound::SampleProvider</text>
<text text-anchor="middle" x="376" y="-7.5" font-family="Helvetica,sans-Serif" font-size="10.00">::CVolumeSampleProvider</text>
</a>
</g>
</g>
<!-- Node1&#45;&gt;Node14 -->
<g id="edge13" class="edge">
<title>Node1&#45;&gt;Node14</title>
<path fill="none" stroke="midnightblue" d="M175.81,-259.55C185.74,-209.88 214.95,-98.36 285,-39.5 289.09,-36.07 293.61,-33.12 298.4,-30.59"/>
<polygon fill="midnightblue" stroke="midnightblue" points="172.36,-258.96 173.93,-269.44 179.24,-260.27 172.36,-258.96"/>
</g>
<!-- Node2 -->
<g id="node2" class="node">
<title>Node2</title>
<g id="a_node2"><a target="_parent" xlink:href="http://doc.qt.io/qt-5/qobject.html" xlink:title=" ">
<polygon fill="none" stroke="black" points="0,-275 0,-294 56,-294 56,-275 0,-275"/>
<text text-anchor="middle" x="28" y="-282" font-family="Helvetica,sans-Serif" font-size="10.00">QObject</text>
</a>
</g>
</g>
<!-- Node2&#45;&gt;Node1 -->
<g id="edge1" class="edge">
<title>Node2&#45;&gt;Node1</title>
<path fill="none" stroke="midnightblue" d="M66.17,-284.5C74.2,-284.5 82.98,-284.5 91.92,-284.5"/>
<polygon fill="midnightblue" stroke="midnightblue" points="66.09,-281 56.09,-284.5 66.09,-288 66.09,-281"/>
</g>
</g>
</svg>
