<?xml version="1.0" encoding="UTF-8" standalone="no"?>
<!DOCTYPE svg PUBLIC "-//W3C//DTD SVG 1.1//EN"
 "http://www.w3.org/Graphics/SVG/1.1/DTD/svg11.dtd">
<!-- Generated by graphviz version 2.43.0 (0)
 -->
<!-- Title: BlackMisc::Simulation::CAircraftModelList Pages: 1 -->
<svg width="762pt" height="459pt"
 viewBox="0.00 0.00 762.00 459.00" xmlns="http://www.w3.org/2000/svg" xmlns:xlink="http://www.w3.org/1999/xlink">
<g id="graph0" class="graph" transform="scale(1 1) rotate(0) translate(4 455)">
<title>BlackMisc::Simulation::CAircraftModelList</title>
<!-- Node1 -->
<g id="node1" class="node">
<title>Node1</title>
<g id="a_node1"><a xlink:title="Value object encapsulating a list of aircraft models.">
<polygon fill="#bfbfbf" stroke="black" points="629,-126.5 629,-156.5 754,-156.5 754,-126.5 629,-126.5"/>
<text text-anchor="start" x="637" y="-144.5" font-family="Helvetica,sans-Serif" font-size="10.00">BlackMisc::Simulation</text>
<text text-anchor="middle" x="691.5" y="-133.5" font-family="Helvetica,sans-Serif" font-size="10.00">::CAircraftModelList</text>
</a>
</g>
</g>
<!-- Node2 -->
<g id="node2" class="node">
<title>Node2</title>
<g id="a_node2"><a xlink:href="class_black_misc_1_1_c_sequence.html" target="_top" xlink:title=" ">
<polygon fill="none" stroke="black" points="441,-262.5 441,-292.5 567,-292.5 567,-262.5 441,-262.5"/>
<text text-anchor="start" x="449" y="-280.5" font-family="Helvetica,sans-Serif" font-size="10.00">BlackMisc::CSequence</text>
<text text-anchor="middle" x="504" y="-269.5" font-family="Helvetica,sans-Serif" font-size="10.00">&lt; CAircraftModel &gt;</text>
</a>
</g>
</g>
<!-- Node2&#45;&gt;Node1 -->
<g id="edge1" class="edge">
<title>Node2&#45;&gt;Node1</title>
<path fill="none" stroke="midnightblue" d="M547.78,-257.99C562.6,-250.5 578.99,-241.36 593,-231.5 625.58,-208.55 658.66,-175.52 676.67,-156.51"/>
<polygon fill="midnightblue" stroke="midnightblue" points="546.21,-254.86 538.8,-262.43 549.31,-261.14 546.21,-254.86"/>
</g>
<!-- Node3 -->
<g id="node3" class="node">
<title>Node3</title>
<g id="a_node3"><a xlink:href="class_black_misc_1_1_c_container_base.html" target="_top" xlink:title="Base class for CCollection and CSequence adding mutating operations and CValueObject facility on top ...">
<polygon fill="none" stroke="black" points="222,-322.5 222,-352.5 372,-352.5 372,-322.5 222,-322.5"/>
<text text-anchor="start" x="230" y="-340.5" font-family="Helvetica,sans-Serif" font-size="10.00">BlackMisc::CContainerBase</text>
<text text-anchor="middle" x="297" y="-329.5" font-family="Helvetica,sans-Serif" font-size="10.00">&lt; Derived &gt;</text>
</a>
</g>
</g>
<!-- Node3&#45;&gt;Node2 -->
<g id="edge2" class="edge">
<title>Node3&#45;&gt;Node2</title>
<path fill="none" stroke="midnightblue" d="M359.21,-319.58C388.63,-310.98 423.49,-300.77 451.51,-292.57"/>
<polygon fill="midnightblue" stroke="midnightblue" points="358.08,-316.27 349.47,-322.44 360.05,-322.99 358.08,-316.27"/>
</g>
<!-- Node4 -->
<g id="node4" class="node">
<title>Node4</title>
<g id="a_node4"><a xlink:href="class_black_misc_1_1_c_range_base.html" target="_top" xlink:title="Any container class with begin and end iterators can inherit from this CRTP class to gain some useful...">
<polygon fill="none" stroke="black" points="22.5,-420.5 22.5,-450.5 156.5,-450.5 156.5,-420.5 22.5,-420.5"/>
<text text-anchor="start" x="30.5" y="-438.5" font-family="Helvetica,sans-Serif" font-size="10.00">BlackMisc::CRangeBase</text>
<text text-anchor="middle" x="89.5" y="-427.5" font-family="Helvetica,sans-Serif" font-size="10.00">&lt; Derived &gt;</text>
</a>
</g>
</g>
<!-- Node4&#45;&gt;Node3 -->
<g id="edge3" class="edge">
<title>Node4&#45;&gt;Node3</title>
<path fill="none" stroke="midnightblue" d="M164.63,-417.19C169.55,-415.43 174.38,-413.53 179,-411.5 215.52,-395.44 253.87,-369.09 276.33,-352.55"/>
<polygon fill="midnightblue" stroke="midnightblue" points="163.44,-413.9 155.09,-420.42 165.69,-420.53 163.44,-413.9"/>
</g>
<!-- Node5 -->
<g id="node5" class="node">
<title>Node5</title>
<g id="a_node5"><a xlink:href="class_black_misc_1_1_mixin_1_1_meta_type.html" target="_top" xlink:title="CRTP class template from which a derived class can inherit common methods dealing with the metatype o...">
<polygon fill="none" stroke="black" points="13.5,-371.5 13.5,-401.5 165.5,-401.5 165.5,-371.5 13.5,-371.5"/>
<text text-anchor="start" x="21.5" y="-389.5" font-family="Helvetica,sans-Serif" font-size="10.00">BlackMisc::Mixin::MetaType</text>
<text text-anchor="middle" x="89.5" y="-378.5" font-family="Helvetica,sans-Serif" font-size="10.00">&lt; Derived &gt;</text>
</a>
</g>
</g>
<!-- Node5&#45;&gt;Node3 -->
<g id="edge4" class="edge">
<title>Node5&#45;&gt;Node3</title>
<path fill="none" stroke="midnightblue" d="M163.49,-369.1C186.22,-363.68 211.08,-357.75 233.07,-352.51"/>
<polygon fill="midnightblue" stroke="midnightblue" points="162.47,-365.74 153.55,-371.47 164.09,-372.55 162.47,-365.74"/>
</g>
<!-- Node6 -->
<g id="node6" class="node">
<title>Node6</title>
<g id="a_node6"><a xlink:href="class_black_misc_1_1_mixin_1_1_d_bus_operators.html" target="_top" xlink:title=" ">
<polygon fill="none" stroke="black" points="0,-322.5 0,-352.5 179,-352.5 179,-322.5 0,-322.5"/>
<text text-anchor="start" x="8" y="-340.5" font-family="Helvetica,sans-Serif" font-size="10.00">BlackMisc::Mixin::DBusOperators</text>
<text text-anchor="middle" x="89.5" y="-329.5" font-family="Helvetica,sans-Serif" font-size="10.00">&lt; Derived &gt;</text>
</a>
</g>
</g>
<!-- Node6&#45;&gt;Node3 -->
<g id="edge5" class="edge">
<title>Node6&#45;&gt;Node3</title>
<path fill="none" stroke="midnightblue" d="M189.19,-337.5C200.17,-337.5 211.22,-337.5 221.82,-337.5"/>
<polygon fill="midnightblue" stroke="midnightblue" points="189.14,-334 179.14,-337.5 189.14,-341 189.14,-334"/>
</g>
<!-- Node7 -->
<g id="node7" class="node">
<title>Node7</title>
<g id="a_node7"><a xlink:href="class_black_misc_1_1_mixin_1_1_json_operators.html" target="_top" xlink:title="CRTP class template which will generate marshalling operators for a derived class with its own marsha...">
<polygon fill="none" stroke="black" points="3,-273.5 3,-303.5 176,-303.5 176,-273.5 3,-273.5"/>
<text text-anchor="start" x="11" y="-291.5" font-family="Helvetica,sans-Serif" font-size="10.00">BlackMisc::Mixin::JsonOperators</text>
<text text-anchor="middle" x="89.5" y="-280.5" font-family="Helvetica,sans-Serif" font-size="10.00">&lt; Derived &gt;</text>
</a>
</g>
</g>
<!-- Node7&#45;&gt;Node3 -->
<g id="edge6" class="edge">
<title>Node7&#45;&gt;Node3</title>
<path fill="none" stroke="midnightblue" d="M163.49,-305.9C186.22,-311.32 211.08,-317.25 233.07,-322.49"/>
<polygon fill="midnightblue" stroke="midnightblue" points="164.09,-302.45 153.55,-303.53 162.47,-309.26 164.09,-302.45"/>
</g>
<!-- Node8 -->
<g id="node8" class="node">
<title>Node8</title>
<g id="a_node8"><a xlink:href="class_black_misc_1_1_mixin_1_1_string.html" target="_top" xlink:title="CRTP class template from which a derived class can inherit string streaming operations.">
<polygon fill="none" stroke="black" points="22.5,-224.5 22.5,-254.5 156.5,-254.5 156.5,-224.5 22.5,-224.5"/>
<text text-anchor="start" x="30.5" y="-242.5" font-family="Helvetica,sans-Serif" font-size="10.00">BlackMisc::Mixin::String</text>
<text text-anchor="middle" x="89.5" y="-231.5" font-family="Helvetica,sans-Serif" font-size="10.00">&lt; Derived &gt;</text>
</a>
</g>
</g>
<!-- Node8&#45;&gt;Node3 -->
<g id="edge7" class="edge">
<title>Node8&#45;&gt;Node3</title>
<path fill="none" stroke="midnightblue" d="M166.05,-256.98C170.59,-259.2 174.95,-261.69 179,-264.5 201.21,-279.9 192.89,-297.96 215,-313.5 219.92,-316.96 225.34,-319.92 230.98,-322.47"/>
<polygon fill="midnightblue" stroke="midnightblue" points="167.1,-253.62 156.53,-252.81 164.29,-260.03 167.1,-253.62"/>
</g>
<!-- Node9 -->
<g id="node9" class="node">
<title>Node9</title>
<g id="a_node9"><a xlink:href="class_black_misc_1_1_mixin_1_1_data_stream_operators.html" target="_top" xlink:title="CRTP class template to generate non&#45;member QDataStream streaming operators.">
<polygon fill="none" stroke="black" points="215,-273.5 215,-303.5 379,-303.5 379,-273.5 215,-273.5"/>
<text text-anchor="start" x="223" y="-291.5" font-family="Helvetica,sans-Serif" font-size="10.00">BlackMisc::Mixin::DataStream</text>
<text text-anchor="middle" x="297" y="-280.5" font-family="Helvetica,sans-Serif" font-size="10.00">Operators&lt; Derived &gt;</text>
</a>
</g>
</g>
<!-- Node9&#45;&gt;Node2 -->
<g id="edge8" class="edge">
<title>Node9&#45;&gt;Node2</title>
<path fill="none" stroke="midnightblue" d="M389.24,-283.6C406.71,-282.67 424.61,-281.71 440.9,-280.83"/>
<polygon fill="midnightblue" stroke="midnightblue" points="388.82,-280.12 379.02,-284.15 389.19,-287.11 388.82,-280.12"/>
</g>
<!-- Node10 -->
<g id="node10" class="node">
<title>Node10</title>
<g id="a_node10"><a xlink:href="class_black_misc_1_1_mixin_1_1_icon.html" target="_top" xlink:title="CRTP class template from which a derived class can inherit icon&#45;related functions.">
<polygon fill="none" stroke="black" points="231.5,-224.5 231.5,-254.5 362.5,-254.5 362.5,-224.5 231.5,-224.5"/>
<text text-anchor="start" x="239.5" y="-242.5" font-family="Helvetica,sans-Serif" font-size="10.00">BlackMisc::Mixin::Icon</text>
<text text-anchor="middle" x="297" y="-231.5" font-family="Helvetica,sans-Serif" font-size="10.00">&lt; Derived, IconIndex &gt;</text>
</a>
</g>
</g>
<!-- Node10&#45;&gt;Node2 -->
<g id="edge9" class="edge">
<title>Node10&#45;&gt;Node2</title>
<path fill="none" stroke="midnightblue" d="M372.71,-253.35C395.08,-257.5 419.37,-262 440.84,-265.98"/>
<polygon fill="midnightblue" stroke="midnightblue" points="373.05,-249.85 362.58,-251.47 371.78,-256.74 373.05,-249.85"/>
</g>
<!-- Node11 -->
<g id="node11" class="node">
<title>Node11</title>
<g id="a_node11"><a xlink:href="class_black_misc_1_1_db_1_1_i_datastore_object_list.html" target="_top" xlink:title=" ">
<polygon fill="none" stroke="black" points="428,-181 428,-222 580,-222 580,-181 428,-181"/>
<text text-anchor="start" x="436" y="-210" font-family="Helvetica,sans-Serif" font-size="10.00">BlackMisc::Db::IDatastore</text>
<text text-anchor="start" x="436" y="-199" font-family="Helvetica,sans-Serif" font-size="10.00">ObjectList&lt; CAircraftModel,</text>
<text text-anchor="middle" x="504" y="-188" font-family="Helvetica,sans-Serif" font-size="10.00"> CAircraftModelList, int &gt;</text>
</a>
</g>
</g>
<!-- Node11&#45;&gt;Node1 -->
<g id="edge10" class="edge">
<title>Node11&#45;&gt;Node1</title>
<path fill="none" stroke="midnightblue" d="M578.29,-177.8C600.42,-170.64 624.11,-162.97 643.99,-156.54"/>
<polygon fill="midnightblue" stroke="midnightblue" points="577.02,-174.53 568.58,-180.94 579.17,-181.19 577.02,-174.53"/>
</g>
<!-- Node12 -->
<g id="node12" class="node">
<title>Node12</title>
<g id="a_node12"><a xlink:href="class_black_misc_1_1_i_timestamp_object_list.html" target="_top" xlink:title="List of objects with timestamp. Such objects should implement.">
<polygon fill="none" stroke="black" points="216,-175.5 216,-205.5 378,-205.5 378,-175.5 216,-175.5"/>
<text text-anchor="start" x="224" y="-193.5" font-family="Helvetica,sans-Serif" font-size="10.00">BlackMisc::ITimestampObject</text>
<text text-anchor="middle" x="297" y="-182.5" font-family="Helvetica,sans-Serif" font-size="10.00">List&lt; OBJ, CONTAINER &gt;</text>
</a>
</g>
</g>
<!-- Node12&#45;&gt;Node11 -->
<g id="edge11" class="edge">
<title>Node12&#45;&gt;Node11</title>
<path fill="none" stroke="midnightblue" d="M388.21,-195.34C401.48,-196.05 415.03,-196.78 427.94,-197.47"/>
<polygon fill="midnightblue" stroke="midnightblue" points="388.31,-191.84 378.14,-194.8 387.94,-198.83 388.31,-191.84"/>
</g>
<!-- Node13 -->
<g id="node13" class="node">
<title>Node13</title>
<g id="a_node13"><a xlink:href="class_black_misc_1_1_i_orderable_list.html" target="_top" xlink:title=" ">
<polygon fill="none" stroke="black" points="415,-121 415,-162 593,-162 593,-121 415,-121"/>
<text text-anchor="start" x="423" y="-150" font-family="Helvetica,sans-Serif" font-size="10.00">BlackMisc::IOrderableList</text>
<text text-anchor="start" x="423" y="-139" font-family="Helvetica,sans-Serif" font-size="10.00">&lt; CAircraftModel, CAircraftModel</text>
<text text-anchor="middle" x="504" y="-128" font-family="Helvetica,sans-Serif" font-size="10.00">List &gt;</text>
</a>
</g>
</g>
<!-- Node13&#45;&gt;Node1 -->
<g id="edge12" class="edge">
<title>Node13&#45;&gt;Node1</title>
<path fill="none" stroke="midnightblue" d="M603.31,-141.5C611.98,-141.5 620.57,-141.5 628.8,-141.5"/>
<polygon fill="midnightblue" stroke="midnightblue" points="603.13,-138 593.13,-141.5 603.13,-145 603.13,-138"/>
</g>
<!-- Node14 -->
<g id="node14" class="node">
<title>Node14</title>
<g id="a_node14"><a xlink:href="class_black_misc_1_1_aviation_1_1_i_callsign_object_list.html" target="_top" xlink:title=" ">
<polygon fill="none" stroke="black" points="415,-49.5 415,-101.5 593,-101.5 593,-49.5 415,-49.5"/>
<text text-anchor="start" x="423" y="-89.5" font-family="Helvetica,sans-Serif" font-size="10.00">BlackMisc::Aviation</text>
<text text-anchor="start" x="423" y="-78.5" font-family="Helvetica,sans-Serif" font-size="10.00">::ICallsignObjectList</text>
<text text-anchor="start" x="423" y="-67.5" font-family="Helvetica,sans-Serif" font-size="10.00">&lt; CAircraftModel, CAircraftModel</text>
<text text-anchor="middle" x="504" y="-56.5" font-family="Helvetica,sans-Serif" font-size="10.00">List &gt;</text>
</a>
</g>
</g>
<!-- Node14&#45;&gt;Node1 -->
<g id="edge13" class="edge">
<title>Node14&#45;&gt;Node1</title>
<path fill="none" stroke="midnightblue" d="M587.83,-104.97C608.69,-112.39 630.23,-120.06 648.15,-126.43"/>
<polygon fill="midnightblue" stroke="midnightblue" points="588.91,-101.64 578.31,-101.58 586.56,-108.23 588.91,-101.64"/>
</g>
<!-- Node15 -->
<g id="node15" class="node">
<title>Node15</title>
<g id="a_node15"><a xlink:href="class_black_misc_1_1_mixin_1_1_meta_type.html" target="_top" xlink:title=" ">
<polygon fill="none" stroke="black" points="428,-0.5 428,-30.5 580,-30.5 580,-0.5 428,-0.5"/>
<text text-anchor="start" x="436" y="-18.5" font-family="Helvetica,sans-Serif" font-size="10.00">BlackMisc::Mixin::MetaType</text>
<text text-anchor="middle" x="504" y="-7.5" font-family="Helvetica,sans-Serif" font-size="10.00">&lt; CAircraftModelList &gt;</text>
</a>
</g>
</g>
<!-- Node15&#45;&gt;Node1 -->
<g id="edge14" class="edge">
<title>Node15&#45;&gt;Node1</title>
<path fill="none" stroke="midnightblue" d="M584.1,-34.74C587.16,-36.21 590.14,-37.8 593,-39.5 631.1,-62.19 664.06,-103.78 680.11,-126.21"/>
<polygon fill="midnightblue" stroke="midnightblue" points="585.26,-31.43 574.69,-30.64 582.46,-37.84 585.26,-31.43"/>
</g>
</g>
</svg>
