<?xml version="1.0" encoding="UTF-8" standalone="no"?>
<!DOCTYPE svg PUBLIC "-//W3C//DTD SVG 1.1//EN"
 "http://www.w3.org/Graphics/SVG/1.1/DTD/svg11.dtd">
<!-- Generated by graphviz version 2.43.0 (0)
 -->
<!-- Title: BlackCore::CAirspaceAnalyzer Pages: 1 -->
<svg width="659pt" height="127pt"
 viewBox="0.00 0.00 659.00 126.50" xmlns="http://www.w3.org/2000/svg" xmlns:xlink="http://www.w3.org/1999/xlink">
<g id="graph0" class="graph" transform="scale(1 1) rotate(0) translate(4 122.5)">
<title>BlackCore::CAirspaceAnalyzer</title>
<!-- Node1 -->
<g id="node1" class="node">
<title>Node1</title>
<g id="a_node1"><a xlink:title="Class monitoring and analyzing (closest aircraft, outdated aircraft / watchdog) airspace in backgroun...">
<polygon fill="#bfbfbf" stroke="black" points="487,-55 487,-74 651,-74 651,-55 487,-55"/>
<text text-anchor="middle" x="569" y="-62" font-family="Helvetica,sans-Serif" font-size="10.00">BlackCore::CAirspaceAnalyzer</text>
</a>
</g>
</g>
<!-- Node2 -->
<g id="node2" class="node">
<title>Node2</title>
<g id="a_node2"><a xlink:href="class_black_misc_1_1_c_continuous_worker.html" target="_top" xlink:title="Base class for a long&#45;lived worker object which lives in its own thread.">
<polygon fill="none" stroke="black" points="284,-99 284,-118 451,-118 451,-99 284,-99"/>
<text text-anchor="middle" x="367.5" y="-106" font-family="Helvetica,sans-Serif" font-size="10.00">BlackMisc::CContinuousWorker</text>
</a>
</g>
</g>
<!-- Node2&#45;&gt;Node1 -->
<g id="edge1" class="edge">
<title>Node2&#45;&gt;Node1</title>
<path fill="none" stroke="midnightblue" d="M421.93,-96.72C454.14,-89.61 494.62,-80.68 524.8,-74.03"/>
<polygon fill="midnightblue" stroke="midnightblue" points="420.8,-93.38 411.79,-98.95 422.31,-100.22 420.8,-93.38"/>
</g>
<!-- Node3 -->
<g id="node3" class="node">
<title>Node3</title>
<g id="a_node3"><a xlink:href="class_black_misc_1_1_c_worker_base.html" target="_top" xlink:title="Base class for CWorker and CContinuousWorker.">
<polygon fill="none" stroke="black" points="101.5,-99 101.5,-118 238.5,-118 238.5,-99 101.5,-99"/>
<text text-anchor="middle" x="170" y="-106" font-family="Helvetica,sans-Serif" font-size="10.00">BlackMisc::CWorkerBase</text>
</a>
</g>
</g>
<!-- Node3&#45;&gt;Node2 -->
<g id="edge2" class="edge">
<title>Node3&#45;&gt;Node2</title>
<path fill="none" stroke="midnightblue" d="M248.59,-108.5C260.15,-108.5 272.1,-108.5 283.76,-108.5"/>
<polygon fill="midnightblue" stroke="midnightblue" points="248.55,-105 238.55,-108.5 248.55,-112 248.55,-105"/>
</g>
<!-- Node4 -->
<g id="node4" class="node">
<title>Node4</title>
<g id="a_node4"><a target="_parent" xlink:href="http://doc.qt.io/qt-5/qobject.html" xlink:title=" ">
<polygon fill="none" stroke="black" points="0,-99 0,-118 56,-118 56,-99 0,-99"/>
<text text-anchor="middle" x="28" y="-106" font-family="Helvetica,sans-Serif" font-size="10.00">QObject</text>
</a>
</g>
</g>
<!-- Node4&#45;&gt;Node3 -->
<g id="edge3" class="edge">
<title>Node4&#45;&gt;Node3</title>
<path fill="none" stroke="midnightblue" d="M66.59,-108.5C77.35,-108.5 89.42,-108.5 101.39,-108.5"/>
<polygon fill="midnightblue" stroke="midnightblue" points="66.33,-105 56.33,-108.5 66.33,-112 66.33,-105"/>
</g>
<!-- Node5 -->
<g id="node5" class="node">
<title>Node5</title>
<g id="a_node5"><a xlink:href="class_black_misc_1_1_simulation_1_1_c_own_aircraft_aware.html" target="_top" xlink:title="Delegating class which can be directly used to access an.">
<polygon fill="none" stroke="black" points="305,-49.5 305,-79.5 430,-79.5 430,-49.5 305,-49.5"/>
<text text-anchor="start" x="313" y="-67.5" font-family="Helvetica,sans-Serif" font-size="10.00">BlackMisc::Simulation</text>
<text text-anchor="middle" x="367.5" y="-56.5" font-family="Helvetica,sans-Serif" font-size="10.00">::COwnAircraftAware</text>
</a>
</g>
</g>
<!-- Node5&#45;&gt;Node1 -->
<g id="edge4" class="edge">
<title>Node5&#45;&gt;Node1</title>
<path fill="none" stroke="midnightblue" d="M440.48,-64.5C455.49,-64.5 471.4,-64.5 486.72,-64.5"/>
<polygon fill="midnightblue" stroke="midnightblue" points="440.26,-61 430.26,-64.5 440.26,-68 440.26,-61"/>
</g>
<!-- Node6 -->
<g id="node6" class="node">
<title>Node6</title>
<g id="a_node6"><a xlink:href="class_black_misc_1_1_i_provider_aware.html" target="_top" xlink:title=" ">
<polygon fill="none" stroke="black" points="97,-49.5 97,-79.5 243,-79.5 243,-49.5 97,-49.5"/>
<text text-anchor="start" x="105" y="-67.5" font-family="Helvetica,sans-Serif" font-size="10.00">BlackMisc::IProviderAware</text>
<text text-anchor="middle" x="170" y="-56.5" font-family="Helvetica,sans-Serif" font-size="10.00">&lt; IOwnAircraftProvider &gt;</text>
</a>
</g>
</g>
<!-- Node6&#45;&gt;Node5 -->
<g id="edge5" class="edge">
<title>Node6&#45;&gt;Node5</title>
<path fill="none" stroke="midnightblue" d="M253.31,-64.5C270.57,-64.5 288.48,-64.5 304.83,-64.5"/>
<polygon fill="midnightblue" stroke="midnightblue" points="253.24,-61 243.24,-64.5 253.24,-68 253.24,-61"/>
</g>
<!-- Node7 -->
<g id="node7" class="node">
<title>Node7</title>
<g id="a_node7"><a xlink:href="class_black_misc_1_1_simulation_1_1_c_remote_aircraft_aware.html" target="_top" xlink:title="Class which can be directly used to access an.">
<polygon fill="none" stroke="black" points="300.5,-0.5 300.5,-30.5 434.5,-30.5 434.5,-0.5 300.5,-0.5"/>
<text text-anchor="start" x="308.5" y="-18.5" font-family="Helvetica,sans-Serif" font-size="10.00">BlackMisc::Simulation</text>
<text text-anchor="middle" x="367.5" y="-7.5" font-family="Helvetica,sans-Serif" font-size="10.00">::CRemoteAircraftAware</text>
</a>
</g>
</g>
<!-- Node7&#45;&gt;Node1 -->
<g id="edge6" class="edge">
<title>Node7&#45;&gt;Node1</title>
<path fill="none" stroke="midnightblue" d="M439.77,-33C469.91,-40.41 503.83,-48.74 529.21,-54.97"/>
<polygon fill="midnightblue" stroke="midnightblue" points="440.26,-29.52 429.71,-30.53 438.59,-36.32 440.26,-29.52"/>
</g>
<!-- Node8 -->
<g id="node8" class="node">
<title>Node8</title>
<g id="a_node8"><a xlink:href="class_black_misc_1_1_i_provider_aware.html" target="_top" xlink:title=" ">
<polygon fill="none" stroke="black" points="92,-0.5 92,-30.5 248,-30.5 248,-0.5 92,-0.5"/>
<text text-anchor="start" x="100" y="-18.5" font-family="Helvetica,sans-Serif" font-size="10.00">BlackMisc::IProviderAware</text>
<text text-anchor="middle" x="170" y="-7.5" font-family="Helvetica,sans-Serif" font-size="10.00">&lt; IRemoteAircraftProvider &gt;</text>
</a>
</g>
</g>
<!-- Node8&#45;&gt;Node7 -->
<g id="edge7" class="edge">
<title>Node8&#45;&gt;Node7</title>
<path fill="none" stroke="midnightblue" d="M258.42,-15.5C272.46,-15.5 286.78,-15.5 300.21,-15.5"/>
<polygon fill="midnightblue" stroke="midnightblue" points="258.27,-12 248.27,-15.5 258.27,-19 258.27,-12"/>
</g>
</g>
</svg>
