<?xml version="1.0" encoding="UTF-8" standalone="no"?>
<!DOCTYPE svg PUBLIC "-//W3C//DTD SVG 1.1//EN"
 "http://www.w3.org/Graphics/SVG/1.1/DTD/svg11.dtd">
<!-- Generated by graphviz version 2.43.0 (0)
 -->
<!-- Title: BlackMisc::Aviation::CFlightPlanList Pages: 1 -->
<svg width="744pt" height="296pt"
 viewBox="0.00 0.00 744.00 296.00" xmlns="http://www.w3.org/2000/svg" xmlns:xlink="http://www.w3.org/1999/xlink">
<g id="graph0" class="graph" transform="scale(1 1) rotate(0) translate(4 292)">
<title>BlackMisc::Aviation::CFlightPlanList</title>
<!-- Node1 -->
<g id="node1" class="node">
<title>Node1</title>
<g id="a_node1"><a xlink:title="Value object for a list of flight plans.">
<polygon fill="#bfbfbf" stroke="black" points="624,-55.5 624,-85.5 736,-85.5 736,-55.5 624,-55.5"/>
<text text-anchor="start" x="632" y="-73.5" font-family="Helvetica,sans-Serif" font-size="10.00">BlackMisc::Aviation</text>
<text text-anchor="middle" x="680" y="-62.5" font-family="Helvetica,sans-Serif" font-size="10.00">::CFlightPlanList</text>
</a>
</g>
</g>
<!-- Node2 -->
<g id="node2" class="node">
<title>Node2</title>
<g id="a_node2"><a xlink:href="class_black_misc_1_1_c_sequence.html" target="_top" xlink:title=" ">
<polygon fill="none" stroke="black" points="438.5,-110.5 438.5,-140.5 564.5,-140.5 564.5,-110.5 438.5,-110.5"/>
<text text-anchor="start" x="446.5" y="-128.5" font-family="Helvetica,sans-Serif" font-size="10.00">BlackMisc::CSequence</text>
<text text-anchor="middle" x="501.5" y="-117.5" font-family="Helvetica,sans-Serif" font-size="10.00">&lt; CFlightPlan &gt;</text>
</a>
</g>
</g>
<!-- Node2&#45;&gt;Node1 -->
<g id="edge1" class="edge">
<title>Node2&#45;&gt;Node1</title>
<path fill="none" stroke="midnightblue" d="M564.86,-107.53C572.66,-105.21 580.52,-102.82 588,-100.5 603.09,-95.81 619.51,-90.47 634.2,-85.6"/>
<polygon fill="midnightblue" stroke="midnightblue" points="563.63,-104.25 555.04,-110.44 565.62,-110.96 563.63,-104.25"/>
</g>
<!-- Node3 -->
<g id="node3" class="node">
<title>Node3</title>
<g id="a_node3"><a xlink:href="class_black_misc_1_1_c_container_base.html" target="_top" xlink:title="Base class for CCollection and CSequence adding mutating operations and CValueObject facility on top ...">
<polygon fill="none" stroke="black" points="222,-159.5 222,-189.5 372,-189.5 372,-159.5 222,-159.5"/>
<text text-anchor="start" x="230" y="-177.5" font-family="Helvetica,sans-Serif" font-size="10.00">BlackMisc::CContainerBase</text>
<text text-anchor="middle" x="297" y="-166.5" font-family="Helvetica,sans-Serif" font-size="10.00">&lt; Derived &gt;</text>
</a>
</g>
</g>
<!-- Node3&#45;&gt;Node2 -->
<g id="edge2" class="edge">
<title>Node3&#45;&gt;Node2</title>
<path fill="none" stroke="midnightblue" d="M369.92,-157.1C392.33,-151.68 416.82,-145.75 438.48,-140.51"/>
<polygon fill="midnightblue" stroke="midnightblue" points="369.03,-153.71 360.13,-159.47 370.68,-160.52 369.03,-153.71"/>
</g>
<!-- Node4 -->
<g id="node4" class="node">
<title>Node4</title>
<g id="a_node4"><a xlink:href="class_black_misc_1_1_c_range_base.html" target="_top" xlink:title="Any container class with begin and end iterators can inherit from this CRTP class to gain some useful...">
<polygon fill="none" stroke="black" points="22.5,-257.5 22.5,-287.5 156.5,-287.5 156.5,-257.5 22.5,-257.5"/>
<text text-anchor="start" x="30.5" y="-275.5" font-family="Helvetica,sans-Serif" font-size="10.00">BlackMisc::CRangeBase</text>
<text text-anchor="middle" x="89.5" y="-264.5" font-family="Helvetica,sans-Serif" font-size="10.00">&lt; Derived &gt;</text>
</a>
</g>
</g>
<!-- Node4&#45;&gt;Node3 -->
<g id="edge3" class="edge">
<title>Node4&#45;&gt;Node3</title>
<path fill="none" stroke="midnightblue" d="M164.63,-254.19C169.55,-252.43 174.38,-250.53 179,-248.5 215.52,-232.44 253.87,-206.09 276.33,-189.55"/>
<polygon fill="midnightblue" stroke="midnightblue" points="163.44,-250.9 155.09,-257.42 165.69,-257.53 163.44,-250.9"/>
</g>
<!-- Node5 -->
<g id="node5" class="node">
<title>Node5</title>
<g id="a_node5"><a xlink:href="class_black_misc_1_1_mixin_1_1_meta_type.html" target="_top" xlink:title="CRTP class template from which a derived class can inherit common methods dealing with the metatype o...">
<polygon fill="none" stroke="black" points="13.5,-208.5 13.5,-238.5 165.5,-238.5 165.5,-208.5 13.5,-208.5"/>
<text text-anchor="start" x="21.5" y="-226.5" font-family="Helvetica,sans-Serif" font-size="10.00">BlackMisc::Mixin::MetaType</text>
<text text-anchor="middle" x="89.5" y="-215.5" font-family="Helvetica,sans-Serif" font-size="10.00">&lt; Derived &gt;</text>
</a>
</g>
</g>
<!-- Node5&#45;&gt;Node3 -->
<g id="edge4" class="edge">
<title>Node5&#45;&gt;Node3</title>
<path fill="none" stroke="midnightblue" d="M163.49,-206.1C186.22,-200.68 211.08,-194.75 233.07,-189.51"/>
<polygon fill="midnightblue" stroke="midnightblue" points="162.47,-202.74 153.55,-208.47 164.09,-209.55 162.47,-202.74"/>
</g>
<!-- Node6 -->
<g id="node6" class="node">
<title>Node6</title>
<g id="a_node6"><a xlink:href="class_black_misc_1_1_mixin_1_1_d_bus_operators.html" target="_top" xlink:title=" ">
<polygon fill="none" stroke="black" points="0,-159.5 0,-189.5 179,-189.5 179,-159.5 0,-159.5"/>
<text text-anchor="start" x="8" y="-177.5" font-family="Helvetica,sans-Serif" font-size="10.00">BlackMisc::Mixin::DBusOperators</text>
<text text-anchor="middle" x="89.5" y="-166.5" font-family="Helvetica,sans-Serif" font-size="10.00">&lt; Derived &gt;</text>
</a>
</g>
</g>
<!-- Node6&#45;&gt;Node3 -->
<g id="edge5" class="edge">
<title>Node6&#45;&gt;Node3</title>
<path fill="none" stroke="midnightblue" d="M189.19,-174.5C200.17,-174.5 211.22,-174.5 221.82,-174.5"/>
<polygon fill="midnightblue" stroke="midnightblue" points="189.14,-171 179.14,-174.5 189.14,-178 189.14,-171"/>
</g>
<!-- Node7 -->
<g id="node7" class="node">
<title>Node7</title>
<g id="a_node7"><a xlink:href="class_black_misc_1_1_mixin_1_1_json_operators.html" target="_top" xlink:title="CRTP class template which will generate marshalling operators for a derived class with its own marsha...">
<polygon fill="none" stroke="black" points="3,-110.5 3,-140.5 176,-140.5 176,-110.5 3,-110.5"/>
<text text-anchor="start" x="11" y="-128.5" font-family="Helvetica,sans-Serif" font-size="10.00">BlackMisc::Mixin::JsonOperators</text>
<text text-anchor="middle" x="89.5" y="-117.5" font-family="Helvetica,sans-Serif" font-size="10.00">&lt; Derived &gt;</text>
</a>
</g>
</g>
<!-- Node7&#45;&gt;Node3 -->
<g id="edge6" class="edge">
<title>Node7&#45;&gt;Node3</title>
<path fill="none" stroke="midnightblue" d="M163.49,-142.9C186.22,-148.32 211.08,-154.25 233.07,-159.49"/>
<polygon fill="midnightblue" stroke="midnightblue" points="164.09,-139.45 153.55,-140.53 162.47,-146.26 164.09,-139.45"/>
</g>
<!-- Node8 -->
<g id="node8" class="node">
<title>Node8</title>
<g id="a_node8"><a xlink:href="class_black_misc_1_1_mixin_1_1_string.html" target="_top" xlink:title="CRTP class template from which a derived class can inherit string streaming operations.">
<polygon fill="none" stroke="black" points="22.5,-61.5 22.5,-91.5 156.5,-91.5 156.5,-61.5 22.5,-61.5"/>
<text text-anchor="start" x="30.5" y="-79.5" font-family="Helvetica,sans-Serif" font-size="10.00">BlackMisc::Mixin::String</text>
<text text-anchor="middle" x="89.5" y="-68.5" font-family="Helvetica,sans-Serif" font-size="10.00">&lt; Derived &gt;</text>
</a>
</g>
</g>
<!-- Node8&#45;&gt;Node3 -->
<g id="edge7" class="edge">
<title>Node8&#45;&gt;Node3</title>
<path fill="none" stroke="midnightblue" d="M166.04,-93.09C170.58,-95.26 174.95,-97.72 179,-100.5 201.29,-115.78 192.98,-133.84 215,-149.5 220.4,-153.34 226.4,-156.6 232.63,-159.37"/>
<polygon fill="midnightblue" stroke="midnightblue" points="167.09,-89.73 156.52,-89.01 164.34,-96.17 167.09,-89.73"/>
</g>
<!-- Node9 -->
<g id="node9" class="node">
<title>Node9</title>
<g id="a_node9"><a xlink:href="class_black_misc_1_1_mixin_1_1_data_stream_operators.html" target="_top" xlink:title="CRTP class template to generate non&#45;member QDataStream streaming operators.">
<polygon fill="none" stroke="black" points="215,-110.5 215,-140.5 379,-140.5 379,-110.5 215,-110.5"/>
<text text-anchor="start" x="223" y="-128.5" font-family="Helvetica,sans-Serif" font-size="10.00">BlackMisc::Mixin::DataStream</text>
<text text-anchor="middle" x="297" y="-117.5" font-family="Helvetica,sans-Serif" font-size="10.00">Operators&lt; Derived &gt;</text>
</a>
</g>
</g>
<!-- Node9&#45;&gt;Node2 -->
<g id="edge8" class="edge">
<title>Node9&#45;&gt;Node2</title>
<path fill="none" stroke="midnightblue" d="M389.43,-125.5C405.96,-125.5 422.85,-125.5 438.3,-125.5"/>
<polygon fill="midnightblue" stroke="midnightblue" points="389.2,-122 379.2,-125.5 389.2,-129 389.2,-122"/>
</g>
<!-- Node10 -->
<g id="node10" class="node">
<title>Node10</title>
<g id="a_node10"><a xlink:href="class_black_misc_1_1_mixin_1_1_icon.html" target="_top" xlink:title="CRTP class template from which a derived class can inherit icon&#45;related functions.">
<polygon fill="none" stroke="black" points="231.5,-61.5 231.5,-91.5 362.5,-91.5 362.5,-61.5 231.5,-61.5"/>
<text text-anchor="start" x="239.5" y="-79.5" font-family="Helvetica,sans-Serif" font-size="10.00">BlackMisc::Mixin::Icon</text>
<text text-anchor="middle" x="297" y="-68.5" font-family="Helvetica,sans-Serif" font-size="10.00">&lt; Derived, IconIndex &gt;</text>
</a>
</g>
</g>
<!-- Node10&#45;&gt;Node2 -->
<g id="edge9" class="edge">
<title>Node10&#45;&gt;Node2</title>
<path fill="none" stroke="midnightblue" d="M369.92,-93.9C392.33,-99.32 416.82,-105.25 438.48,-110.49"/>
<polygon fill="midnightblue" stroke="midnightblue" points="370.68,-90.48 360.13,-91.53 369.03,-97.29 370.68,-90.48"/>
</g>
<!-- Node11 -->
<g id="node11" class="node">
<title>Node11</title>
<g id="a_node11"><a xlink:href="class_black_misc_1_1_aviation_1_1_i_callsign_object_list.html" target="_top" xlink:title=" ">
<polygon fill="none" stroke="black" points="415,-50 415,-91 588,-91 588,-50 415,-50"/>
<text text-anchor="start" x="423" y="-79" font-family="Helvetica,sans-Serif" font-size="10.00">BlackMisc::Aviation</text>
<text text-anchor="start" x="423" y="-68" font-family="Helvetica,sans-Serif" font-size="10.00">::ICallsignObjectList</text>
<text text-anchor="middle" x="501.5" y="-57" font-family="Helvetica,sans-Serif" font-size="10.00">&lt; CFlightPlan, CFlightPlanList &gt;</text>
</a>
</g>
</g>
<!-- Node11&#45;&gt;Node1 -->
<g id="edge10" class="edge">
<title>Node11&#45;&gt;Node1</title>
<path fill="none" stroke="midnightblue" d="M598.39,-70.5C607.07,-70.5 615.66,-70.5 623.81,-70.5"/>
<polygon fill="midnightblue" stroke="midnightblue" points="598.16,-67 588.16,-70.5 598.16,-74 598.16,-67"/>
</g>
<!-- Node12 -->
<g id="node12" class="node">
<title>Node12</title>
<g id="a_node12"><a xlink:href="class_black_misc_1_1_mixin_1_1_meta_type.html" target="_top" xlink:title=" ">
<polygon fill="none" stroke="black" points="425.5,-0.5 425.5,-30.5 577.5,-30.5 577.5,-0.5 425.5,-0.5"/>
<text text-anchor="start" x="433.5" y="-18.5" font-family="Helvetica,sans-Serif" font-size="10.00">BlackMisc::Mixin::MetaType</text>
<text text-anchor="middle" x="501.5" y="-7.5" font-family="Helvetica,sans-Serif" font-size="10.00">&lt; CFlightPlanList &gt;</text>
</a>
</g>
</g>
<!-- Node12&#45;&gt;Node1 -->
<g id="edge11" class="edge">
<title>Node12&#45;&gt;Node1</title>
<path fill="none" stroke="midnightblue" d="M564.86,-33.47C572.66,-35.79 580.52,-38.18 588,-40.5 603.09,-45.19 619.51,-50.53 634.2,-55.4"/>
<polygon fill="midnightblue" stroke="midnightblue" points="565.62,-30.04 555.04,-30.56 563.63,-36.75 565.62,-30.04"/>
</g>
</g>
</svg>
