<?xml version="1.0" encoding="UTF-8" standalone="no"?>
<!DOCTYPE svg PUBLIC "-//W3C//DTD SVG 1.1//EN"
 "http://www.w3.org/Graphics/SVG/1.1/DTD/svg11.dtd">
<!-- Generated by graphviz version 2.43.0 (0)
 -->
<!-- Title: BlackMisc::Aviation::CLivery Pages: 1 -->
<svg width="714pt" height="617pt"
 viewBox="0.00 0.00 714.00 616.50" xmlns="http://www.w3.org/2000/svg" xmlns:xlink="http://www.w3.org/1999/xlink">
<g id="graph0" class="graph" transform="scale(1 1) rotate(0) translate(4 612.5)">
<title>BlackMisc::Aviation::CLivery</title>
<!-- Node1 -->
<g id="node1" class="node">
<title>Node1</title>
<g id="a_node1"><a xlink:title="Value object encapsulating information about an airpot.">
<polygon fill="#bfbfbf" stroke="black" points="594,-147.5 594,-177.5 706,-177.5 706,-147.5 594,-147.5"/>
<text text-anchor="start" x="602" y="-165.5" font-family="Helvetica,sans-Serif" font-size="10.00">BlackMisc::Aviation</text>
<text text-anchor="middle" x="650" y="-154.5" font-family="Helvetica,sans-Serif" font-size="10.00">::CLivery</text>
</a>
</g>
</g>
<!-- Node2 -->
<g id="node2" class="node">
<title>Node2</title>
<g id="a_node2"><a xlink:href="class_black_misc_1_1_c_value_object.html" target="_top" xlink:title=" ">
<polygon fill="none" stroke="black" points="418,-294.5 418,-324.5 555,-324.5 555,-294.5 418,-294.5"/>
<text text-anchor="start" x="426" y="-312.5" font-family="Helvetica,sans-Serif" font-size="10.00">BlackMisc::CValueObject</text>
<text text-anchor="middle" x="486.5" y="-301.5" font-family="Helvetica,sans-Serif" font-size="10.00">&lt; CLivery &gt;</text>
</a>
</g>
</g>
<!-- Node2&#45;&gt;Node1 -->
<g id="edge1" class="edge">
<title>Node2&#45;&gt;Node1</title>
<path fill="none" stroke="midnightblue" d="M511.62,-287.55C544.73,-257.41 603.42,-203.99 632.17,-177.82"/>
<polygon fill="midnightblue" stroke="midnightblue" points="509.21,-285 504.18,-294.32 513.93,-290.18 509.21,-285"/>
</g>
<!-- Node3 -->
<g id="node3" class="node">
<title>Node3</title>
<g id="a_node3"><a xlink:href="class_black_misc_1_1_c_empty.html" target="_top" xlink:title="Default base class for CValueObject.">
<polygon fill="none" stroke="black" points="242,-589 242,-608 352,-608 352,-589 242,-589"/>
<text text-anchor="middle" x="297" y="-596" font-family="Helvetica,sans-Serif" font-size="10.00">BlackMisc::CEmpty</text>
</a>
</g>
</g>
<!-- Node3&#45;&gt;Node2 -->
<g id="edge2" class="edge">
<title>Node3&#45;&gt;Node2</title>
<path fill="none" stroke="midnightblue" d="M361.53,-590.07C367.88,-587.39 373.86,-583.94 379,-579.5 459.63,-509.81 479.72,-370.98 484.27,-324.82"/>
<polygon fill="midnightblue" stroke="midnightblue" points="360.27,-586.8 352.03,-593.46 362.62,-593.39 360.27,-586.8"/>
</g>
<!-- Node4 -->
<g id="node4" class="node">
<title>Node4</title>
<g id="a_node4"><a xlink:href="class_black_misc_1_1_mixin_1_1_meta_type.html" target="_top" xlink:title="CRTP class template from which a derived class can inherit common methods dealing with the metatype o...">
<polygon fill="none" stroke="black" points="221,-539.5 221,-569.5 373,-569.5 373,-539.5 221,-539.5"/>
<text text-anchor="start" x="229" y="-557.5" font-family="Helvetica,sans-Serif" font-size="10.00">BlackMisc::Mixin::MetaType</text>
<text text-anchor="middle" x="297" y="-546.5" font-family="Helvetica,sans-Serif" font-size="10.00">&lt; Derived &gt;</text>
</a>
</g>
</g>
<!-- Node4&#45;&gt;Node2 -->
<g id="edge3" class="edge">
<title>Node4&#45;&gt;Node2</title>
<path fill="none" stroke="midnightblue" d="M374.29,-534.15C375.92,-533 377.49,-531.78 379,-530.5 445.99,-473.51 474.2,-364.66 482.61,-324.7"/>
<polygon fill="midnightblue" stroke="midnightblue" points="372.44,-531.17 365.73,-539.37 376.09,-537.15 372.44,-531.17"/>
</g>
<!-- Node5 -->
<g id="node5" class="node">
<title>Node5</title>
<g id="a_node5"><a xlink:href="class_black_misc_1_1_mixin_1_1_hash_by_meta_class.html" target="_top" xlink:title="CRTP class template from which a derived class can inherit common methods dealing with hashing instan...">
<polygon fill="none" stroke="black" points="225.5,-490.5 225.5,-520.5 368.5,-520.5 368.5,-490.5 225.5,-490.5"/>
<text text-anchor="start" x="233.5" y="-508.5" font-family="Helvetica,sans-Serif" font-size="10.00">BlackMisc::Mixin::HashBy</text>
<text text-anchor="middle" x="297" y="-497.5" font-family="Helvetica,sans-Serif" font-size="10.00">MetaClass&lt; Derived &gt;</text>
</a>
</g>
</g>
<!-- Node5&#45;&gt;Node2 -->
<g id="edge4" class="edge">
<title>Node5&#45;&gt;Node2</title>
<path fill="none" stroke="midnightblue" d="M373.23,-485.49C375.22,-484.24 377.15,-482.91 379,-481.5 434.69,-438.97 468.26,-358.27 480.36,-324.72"/>
<polygon fill="midnightblue" stroke="midnightblue" points="371.21,-482.6 364.13,-490.49 374.58,-488.74 371.21,-482.6"/>
</g>
<!-- Node6 -->
<g id="node6" class="node">
<title>Node6</title>
<g id="a_node6"><a xlink:href="class_black_misc_1_1_mixin_1_1_d_bus_by_meta_class.html" target="_top" xlink:title="CRTP class template from which a derived class can inherit common methods dealing with marshalling in...">
<polygon fill="none" stroke="black" points="219,-441.5 219,-471.5 375,-471.5 375,-441.5 219,-441.5"/>
<text text-anchor="start" x="227" y="-459.5" font-family="Helvetica,sans-Serif" font-size="10.00">BlackMisc::Mixin::DBusBy</text>
<text text-anchor="middle" x="297" y="-448.5" font-family="Helvetica,sans-Serif" font-size="10.00">MetaClass&lt; Derived, Tags &gt;</text>
</a>
</g>
</g>
<!-- Node6&#45;&gt;Node2 -->
<g id="edge5" class="edge">
<title>Node6&#45;&gt;Node2</title>
<path fill="none" stroke="midnightblue" d="M370.98,-437.14C373.75,-435.7 376.43,-434.16 379,-432.5 423.63,-403.73 460.15,-350.88 476.4,-324.83"/>
<polygon fill="midnightblue" stroke="midnightblue" points="369.47,-433.98 361.9,-441.4 372.44,-440.32 369.47,-433.98"/>
</g>
<!-- Node7 -->
<g id="node7" class="node">
<title>Node7</title>
<g id="a_node7"><a xlink:href="class_black_misc_1_1_mixin_1_1_d_bus_operators.html" target="_top" xlink:title=" ">
<polygon fill="none" stroke="black" points="0,-441.5 0,-471.5 179,-471.5 179,-441.5 0,-441.5"/>
<text text-anchor="start" x="8" y="-459.5" font-family="Helvetica,sans-Serif" font-size="10.00">BlackMisc::Mixin::DBusOperators</text>
<text text-anchor="middle" x="89.5" y="-448.5" font-family="Helvetica,sans-Serif" font-size="10.00">&lt; Derived, Tags... &gt;</text>
</a>
</g>
</g>
<!-- Node7&#45;&gt;Node6 -->
<g id="edge6" class="edge">
<title>Node7&#45;&gt;Node6</title>
<path fill="none" stroke="midnightblue" d="M189.44,-456.5C199.35,-456.5 209.31,-456.5 218.95,-456.5"/>
<polygon fill="midnightblue" stroke="midnightblue" points="189.14,-453 179.14,-456.5 189.14,-460 189.14,-453"/>
</g>
<!-- Node8 -->
<g id="node8" class="node">
<title>Node8</title>
<g id="a_node8"><a xlink:href="class_black_misc_1_1_mixin_1_1_data_stream_by_meta_class.html" target="_top" xlink:title="CRTP class template to generate QDataStream marshalling methods using CMetaClass.">
<polygon fill="none" stroke="black" points="215,-392.5 215,-422.5 379,-422.5 379,-392.5 215,-392.5"/>
<text text-anchor="start" x="223" y="-410.5" font-family="Helvetica,sans-Serif" font-size="10.00">BlackMisc::Mixin::DataStream</text>
<text text-anchor="middle" x="297" y="-399.5" font-family="Helvetica,sans-Serif" font-size="10.00">ByMetaClass&lt; Derived &gt;</text>
</a>
</g>
</g>
<!-- Node8&#45;&gt;Node2 -->
<g id="edge7" class="edge">
<title>Node8&#45;&gt;Node2</title>
<path fill="none" stroke="midnightblue" d="M366.62,-388.87C370.87,-387.2 375.03,-385.41 379,-383.5 412.69,-367.32 447.47,-341.01 467.76,-324.51"/>
<polygon fill="midnightblue" stroke="midnightblue" points="365.39,-385.6 357.23,-392.36 367.83,-392.16 365.39,-385.6"/>
</g>
<!-- Node9 -->
<g id="node9" class="node">
<title>Node9</title>
<g id="a_node9"><a xlink:href="class_black_misc_1_1_mixin_1_1_data_stream_operators.html" target="_top" xlink:title="CRTP class template to generate non&#45;member QDataStream streaming operators.">
<polygon fill="none" stroke="black" points="7.5,-392.5 7.5,-422.5 171.5,-422.5 171.5,-392.5 7.5,-392.5"/>
<text text-anchor="start" x="15.5" y="-410.5" font-family="Helvetica,sans-Serif" font-size="10.00">BlackMisc::Mixin::DataStream</text>
<text text-anchor="middle" x="89.5" y="-399.5" font-family="Helvetica,sans-Serif" font-size="10.00">Operators&lt; Derived &gt;</text>
</a>
</g>
</g>
<!-- Node9&#45;&gt;Node8 -->
<g id="edge8" class="edge">
<title>Node9&#45;&gt;Node8</title>
<path fill="none" stroke="midnightblue" d="M181.74,-407.5C192.72,-407.5 203.87,-407.5 214.7,-407.5"/>
<polygon fill="midnightblue" stroke="midnightblue" points="181.72,-404 171.72,-407.5 181.72,-411 181.72,-404"/>
</g>
<!-- Node10 -->
<g id="node10" class="node">
<title>Node10</title>
<g id="a_node10"><a xlink:href="class_black_misc_1_1_mixin_1_1_json_by_meta_class.html" target="_top" xlink:title="CRTP class template from which a derived class can inherit common methods dealing with JSON by metatu...">
<polygon fill="none" stroke="black" points="228,-343.5 228,-373.5 366,-373.5 366,-343.5 228,-343.5"/>
<text text-anchor="start" x="236" y="-361.5" font-family="Helvetica,sans-Serif" font-size="10.00">BlackMisc::Mixin::JsonBy</text>
<text text-anchor="middle" x="297" y="-350.5" font-family="Helvetica,sans-Serif" font-size="10.00">MetaClass&lt; Derived &gt;</text>
</a>
</g>
</g>
<!-- Node10&#45;&gt;Node2 -->
<g id="edge9" class="edge">
<title>Node10&#45;&gt;Node2</title>
<path fill="none" stroke="midnightblue" d="M365.43,-340.88C385.95,-335.52 408.29,-329.68 428.08,-324.51"/>
<polygon fill="midnightblue" stroke="midnightblue" points="364.32,-337.55 355.53,-343.47 366.09,-344.32 364.32,-337.55"/>
</g>
<!-- Node11 -->
<g id="node11" class="node">
<title>Node11</title>
<g id="a_node11"><a xlink:href="class_black_misc_1_1_mixin_1_1_json_operators.html" target="_top" xlink:title="CRTP class template which will generate marshalling operators for a derived class with its own marsha...">
<polygon fill="none" stroke="black" points="3,-343.5 3,-373.5 176,-373.5 176,-343.5 3,-343.5"/>
<text text-anchor="start" x="11" y="-361.5" font-family="Helvetica,sans-Serif" font-size="10.00">BlackMisc::Mixin::JsonOperators</text>
<text text-anchor="middle" x="89.5" y="-350.5" font-family="Helvetica,sans-Serif" font-size="10.00">&lt; Derived &gt;</text>
</a>
</g>
</g>
<!-- Node11&#45;&gt;Node10 -->
<g id="edge10" class="edge">
<title>Node11&#45;&gt;Node10</title>
<path fill="none" stroke="midnightblue" d="M186.35,-358.5C200.41,-358.5 214.65,-358.5 227.99,-358.5"/>
<polygon fill="midnightblue" stroke="midnightblue" points="186.16,-355 176.16,-358.5 186.16,-362 186.16,-355"/>
</g>
<!-- Node12 -->
<g id="node12" class="node">
<title>Node12</title>
<g id="a_node12"><a xlink:href="class_black_misc_1_1_mixin_1_1_equals_by_meta_class.html" target="_top" xlink:title="CRTP class template from which a derived class can inherit operator== implemented by metaclass.">
<polygon fill="none" stroke="black" points="226.5,-294.5 226.5,-324.5 367.5,-324.5 367.5,-294.5 226.5,-294.5"/>
<text text-anchor="start" x="234.5" y="-312.5" font-family="Helvetica,sans-Serif" font-size="10.00">BlackMisc::Mixin::Equals</text>
<text text-anchor="middle" x="297" y="-301.5" font-family="Helvetica,sans-Serif" font-size="10.00">ByMetaClass&lt; Derived &gt;</text>
</a>
</g>
</g>
<!-- Node12&#45;&gt;Node2 -->
<g id="edge11" class="edge">
<title>Node12&#45;&gt;Node2</title>
<path fill="none" stroke="midnightblue" d="M377.7,-309.5C391.09,-309.5 404.88,-309.5 417.93,-309.5"/>
<polygon fill="midnightblue" stroke="midnightblue" points="377.55,-306 367.55,-309.5 377.55,-313 377.55,-306"/>
</g>
<!-- Node13 -->
<g id="node13" class="node">
<title>Node13</title>
<g id="a_node13"><a xlink:href="class_black_misc_1_1_mixin_1_1_less_than_by_meta_class.html" target="_top" xlink:title="CRTP class template from which a derived class can inherit operator&lt; implemented by metaclass.">
<polygon fill="none" stroke="black" points="221.5,-245.5 221.5,-275.5 372.5,-275.5 372.5,-245.5 221.5,-245.5"/>
<text text-anchor="start" x="229.5" y="-263.5" font-family="Helvetica,sans-Serif" font-size="10.00">BlackMisc::Mixin::LessThan</text>
<text text-anchor="middle" x="297" y="-252.5" font-family="Helvetica,sans-Serif" font-size="10.00">ByMetaClass&lt; Derived &gt;</text>
</a>
</g>
</g>
<!-- Node13&#45;&gt;Node2 -->
<g id="edge12" class="edge">
<title>Node13&#45;&gt;Node2</title>
<path fill="none" stroke="midnightblue" d="M365.43,-278.12C385.95,-283.48 408.29,-289.32 428.08,-294.49"/>
<polygon fill="midnightblue" stroke="midnightblue" points="366.09,-274.68 355.53,-275.53 364.32,-281.45 366.09,-274.68"/>
</g>
<!-- Node14 -->
<g id="node14" class="node">
<title>Node14</title>
<g id="a_node14"><a xlink:href="class_black_misc_1_1_mixin_1_1_compare_by_meta_class.html" target="_top" xlink:title="CRTP class template from which a derived class can inherit non&#45;member compare() implemented by metacl...">
<polygon fill="none" stroke="black" points="222.5,-196.5 222.5,-226.5 371.5,-226.5 371.5,-196.5 222.5,-196.5"/>
<text text-anchor="start" x="230.5" y="-214.5" font-family="Helvetica,sans-Serif" font-size="10.00">BlackMisc::Mixin::Compare</text>
<text text-anchor="middle" x="297" y="-203.5" font-family="Helvetica,sans-Serif" font-size="10.00">ByMetaClass&lt; Derived &gt;</text>
</a>
</g>
</g>
<!-- Node14&#45;&gt;Node2 -->
<g id="edge13" class="edge">
<title>Node14&#45;&gt;Node2</title>
<path fill="none" stroke="midnightblue" d="M364.36,-230.16C369.38,-232.12 374.32,-234.24 379,-236.5 412.3,-252.59 446.92,-278.27 467.32,-294.49"/>
<polygon fill="midnightblue" stroke="midnightblue" points="365.21,-226.74 354.62,-226.57 362.79,-233.31 365.21,-226.74"/>
</g>
<!-- Node15 -->
<g id="node15" class="node">
<title>Node15</title>
<g id="a_node15"><a xlink:href="class_black_misc_1_1_mixin_1_1_string.html" target="_top" xlink:title="CRTP class template from which a derived class can inherit string streaming operations.">
<polygon fill="none" stroke="black" points="230,-147.5 230,-177.5 364,-177.5 364,-147.5 230,-147.5"/>
<text text-anchor="start" x="238" y="-165.5" font-family="Helvetica,sans-Serif" font-size="10.00">BlackMisc::Mixin::String</text>
<text text-anchor="middle" x="297" y="-154.5" font-family="Helvetica,sans-Serif" font-size="10.00">&lt; Derived &gt;</text>
</a>
</g>
</g>
<!-- Node15&#45;&gt;Node2 -->
<g id="edge14" class="edge">
<title>Node15&#45;&gt;Node2</title>
<path fill="none" stroke="midnightblue" d="M369.1,-181.83C372.53,-183.57 375.85,-185.46 379,-187.5 423.32,-216.3 459.98,-268.6 476.33,-294.35"/>
<polygon fill="midnightblue" stroke="midnightblue" points="370.34,-178.55 359.79,-177.57 367.43,-184.92 370.34,-178.55"/>
</g>
<!-- Node16 -->
<g id="node16" class="node">
<title>Node16</title>
<g id="a_node16"><a xlink:href="class_black_misc_1_1_mixin_1_1_index.html" target="_top" xlink:title="CRTP class template from which a derived class can inherit property indexing functions.">
<polygon fill="none" stroke="black" points="231,-98.5 231,-128.5 363,-128.5 363,-98.5 231,-98.5"/>
<text text-anchor="start" x="239" y="-116.5" font-family="Helvetica,sans-Serif" font-size="10.00">BlackMisc::Mixin::Index</text>
<text text-anchor="middle" x="297" y="-105.5" font-family="Helvetica,sans-Serif" font-size="10.00">&lt; Derived &gt;</text>
</a>
</g>
</g>
<!-- Node16&#45;&gt;Node2 -->
<g id="edge15" class="edge">
<title>Node16&#45;&gt;Node2</title>
<path fill="none" stroke="midnightblue" d="M371.33,-133.29C374,-134.9 376.57,-136.63 379,-138.5 434.27,-181.09 468.07,-261.15 480.3,-294.41"/>
<polygon fill="midnightblue" stroke="midnightblue" points="372.97,-130.2 362.5,-128.6 369.69,-136.38 372.97,-130.2"/>
</g>
<!-- Node17 -->
<g id="node17" class="node">
<title>Node17</title>
<g id="a_node17"><a xlink:href="class_black_misc_1_1_mixin_1_1_icon.html" target="_top" xlink:title="CRTP class template from which a derived class can inherit icon&#45;related functions.">
<polygon fill="none" stroke="black" points="231.5,-49.5 231.5,-79.5 362.5,-79.5 362.5,-49.5 231.5,-49.5"/>
<text text-anchor="start" x="239.5" y="-67.5" font-family="Helvetica,sans-Serif" font-size="10.00">BlackMisc::Mixin::Icon</text>
<text text-anchor="middle" x="297" y="-56.5" font-family="Helvetica,sans-Serif" font-size="10.00">&lt; Derived, IconIndex &gt;</text>
</a>
</g>
</g>
<!-- Node17&#45;&gt;Node2 -->
<g id="edge16" class="edge">
<title>Node17&#45;&gt;Node2</title>
<path fill="none" stroke="midnightblue" d="M371.41,-83.86C374.08,-85.58 376.62,-87.46 379,-89.5 379.54,-89.96 454.29,-244.82 478.22,-294.41"/>
<polygon fill="midnightblue" stroke="midnightblue" points="372.97,-80.72 362.54,-78.86 369.53,-86.82 372.97,-80.72"/>
</g>
<!-- Node18 -->
<g id="node18" class="node">
<title>Node18</title>
<g id="a_node18"><a xlink:href="class_black_misc_1_1_db_1_1_i_datastore_object_with_integer_key.html" target="_top" xlink:title="Class from which a derived class can inherit datastore&#45;related functions.">
<polygon fill="none" stroke="black" points="415,-123.5 415,-153.5 558,-153.5 558,-123.5 415,-123.5"/>
<text text-anchor="start" x="423" y="-141.5" font-family="Helvetica,sans-Serif" font-size="10.00">BlackMisc::Db::IDatastore</text>
<text text-anchor="middle" x="486.5" y="-130.5" font-family="Helvetica,sans-Serif" font-size="10.00">ObjectWithIntegerKey</text>
</a>
</g>
</g>
<!-- Node18&#45;&gt;Node1 -->
<g id="edge17" class="edge">
<title>Node18&#45;&gt;Node1</title>
<path fill="none" stroke="midnightblue" d="M568.39,-150.52C576.98,-151.8 585.56,-153.07 593.76,-154.29"/>
<polygon fill="midnightblue" stroke="midnightblue" points="568.74,-147.03 558.34,-149.03 567.71,-153.96 568.74,-147.03"/>
</g>
<!-- Node19 -->
<g id="node19" class="node">
<title>Node19</title>
<g id="a_node19"><a xlink:href="class_black_misc_1_1_db_1_1_i_datastore_object.html" target="_top" xlink:title="Supposed to be used only in filter operations.">
<polygon fill="none" stroke="black" points="225.5,-0.5 225.5,-30.5 368.5,-30.5 368.5,-0.5 225.5,-0.5"/>
<text text-anchor="start" x="233.5" y="-18.5" font-family="Helvetica,sans-Serif" font-size="10.00">BlackMisc::Db::IDatastore</text>
<text text-anchor="middle" x="297" y="-7.5" font-family="Helvetica,sans-Serif" font-size="10.00">Object</text>
</a>
</g>
</g>
<!-- Node19&#45;&gt;Node18 -->
<g id="edge18" class="edge">
<title>Node19&#45;&gt;Node18</title>
<path fill="none" stroke="midnightblue" d="M369.07,-34.43C372.49,-36 375.82,-37.69 379,-39.5 418.47,-62.02 455.09,-101.81 473.35,-123.46"/>
<polygon fill="midnightblue" stroke="midnightblue" points="370.41,-31.2 359.84,-30.54 367.7,-37.65 370.41,-31.2"/>
</g>
<!-- Node20 -->
<g id="node20" class="node">
<title>Node20</title>
<g id="a_node20"><a xlink:href="class_black_misc_1_1_i_timestamp_based.html" target="_top" xlink:title="Entity with timestamp.">
<polygon fill="none" stroke="black" points="9,-6 9,-25 170,-25 170,-6 9,-6"/>
<text text-anchor="middle" x="89.5" y="-13" font-family="Helvetica,sans-Serif" font-size="10.00">BlackMisc::ITimestampBased</text>
</a>
</g>
</g>
<!-- Node20&#45;&gt;Node19 -->
<g id="edge19" class="edge">
<title>Node20&#45;&gt;Node19</title>
<path fill="none" stroke="midnightblue" d="M180.55,-15.5C195.55,-15.5 210.91,-15.5 225.34,-15.5"/>
<polygon fill="midnightblue" stroke="midnightblue" points="180.25,-12 170.25,-15.5 180.25,-19 180.25,-12"/>
</g>
</g>
</svg>
