<?xml version="1.0" encoding="UTF-8" standalone="no"?>
<!DOCTYPE svg PUBLIC "-//W3C//DTD SVG 1.1//EN"
 "http://www.w3.org/Graphics/SVG/1.1/DTD/svg11.dtd">
<!-- Generated by graphviz version 2.43.0 (0)
 -->
<!-- Title: BlackGui::Models::CTextMessageListModel Pages: 1 -->
<svg width="1211pt" height="66pt"
 viewBox="0.00 0.00 1211.00 66.00" xmlns="http://www.w3.org/2000/svg" xmlns:xlink="http://www.w3.org/1999/xlink">
<g id="graph0" class="graph" transform="scale(1 1) rotate(0) translate(4 62)">
<title>BlackGui::Models::CTextMessageListModel</title>
<!-- Node1 -->
<g id="node1" class="node">
<title>Node1</title>
<g id="a_node1"><a xlink:title="Text message list model.">
<polygon fill="#bfbfbf" stroke="black" points="1025,-14 1025,-44 1203,-44 1203,-14 1025,-14"/>
<text text-anchor="start" x="1033" y="-32" font-family="Helvetica,sans-Serif" font-size="10.00">BlackGui::Models::CTextMessage</text>
<text text-anchor="middle" x="1114" y="-21" font-family="Helvetica,sans-Serif" font-size="10.00">ListModel</text>
</a>
</g>
</g>
<!-- Node2 -->
<g id="node2" class="node">
<title>Node2</title>
<g id="a_node2"><a xlink:href="class_black_gui_1_1_models_1_1_c_list_model_timestamp_objects.html" target="_top" xlink:title=" ">
<polygon fill="none" stroke="black" points="795,-8.5 795,-49.5 989,-49.5 989,-8.5 795,-8.5"/>
<text text-anchor="start" x="803" y="-37.5" font-family="Helvetica,sans-Serif" font-size="10.00">BlackGui::Models::CListModel</text>
<text text-anchor="start" x="803" y="-26.5" font-family="Helvetica,sans-Serif" font-size="10.00">TimestampObjects&lt; BlackMisc</text>
<text text-anchor="middle" x="892" y="-15.5" font-family="Helvetica,sans-Serif" font-size="10.00">::Network::CTextMessageList, true &gt;</text>
</a>
</g>
</g>
<!-- Node2&#45;&gt;Node1 -->
<g id="edge1" class="edge">
<title>Node2&#45;&gt;Node1</title>
<path fill="none" stroke="midnightblue" d="M999.26,-29C1007.88,-29 1016.53,-29 1024.99,-29"/>
<polygon fill="midnightblue" stroke="midnightblue" points="999.18,-25.5 989.18,-29 999.18,-32.5 999.18,-25.5"/>
</g>
<!-- Node3 -->
<g id="node3" class="node">
<title>Node3</title>
<g id="a_node3"><a xlink:href="class_black_gui_1_1_models_1_1_c_list_model_base.html" target="_top" xlink:title="List model.">
<polygon fill="none" stroke="black" points="598,-14 598,-44 759,-44 759,-14 598,-14"/>
<text text-anchor="start" x="606" y="-32" font-family="Helvetica,sans-Serif" font-size="10.00">BlackGui::Models::CListModel</text>
<text text-anchor="middle" x="678.5" y="-21" font-family="Helvetica,sans-Serif" font-size="10.00">Base&lt; T, UseCompare &gt;</text>
</a>
</g>
</g>
<!-- Node3&#45;&gt;Node2 -->
<g id="edge2" class="edge">
<title>Node3&#45;&gt;Node2</title>
<path fill="none" stroke="midnightblue" d="M769.31,-29C777.7,-29 786.22,-29 794.67,-29"/>
<polygon fill="midnightblue" stroke="midnightblue" points="769.16,-25.5 759.16,-29 769.16,-32.5 769.16,-25.5"/>
</g>
<!-- Node4 -->
<g id="node4" class="node">
<title>Node4</title>
<g id="a_node4"><a xlink:href="class_black_gui_1_1_models_1_1_c_list_model_base_non_template.html" target="_top" xlink:title="Non templated base class, allows Q_OBJECT and signals to be used.">
<polygon fill="none" stroke="black" points="401,-14 401,-44 562,-44 562,-14 401,-14"/>
<text text-anchor="start" x="409" y="-32" font-family="Helvetica,sans-Serif" font-size="10.00">BlackGui::Models::CListModel</text>
<text text-anchor="middle" x="481.5" y="-21" font-family="Helvetica,sans-Serif" font-size="10.00">BaseNonTemplate</text>
</a>
</g>
</g>
<!-- Node4&#45;&gt;Node3 -->
<g id="edge3" class="edge">
<title>Node4&#45;&gt;Node3</title>
<path fill="none" stroke="midnightblue" d="M572.12,-29C580.7,-29 589.36,-29 597.84,-29"/>
<polygon fill="midnightblue" stroke="midnightblue" points="572.1,-25.5 562.1,-29 572.1,-32.5 572.1,-25.5"/>
</g>
<!-- Node5 -->
<g id="node5" class="node">
<title>Node5</title>
<g id="a_node5"><a target="_parent" xlink:href="http://doc.qt.io/qt-5/qstandarditemmodel.html" xlink:title=" ">
<polygon fill="none" stroke="black" points="245,-38.5 245,-57.5 365,-57.5 365,-38.5 245,-38.5"/>
<text text-anchor="middle" x="305" y="-45.5" font-family="Helvetica,sans-Serif" font-size="10.00">QStandardItemModel</text>
</a>
</g>
</g>
<!-- Node5&#45;&gt;Node4 -->
<g id="edge4" class="edge">
<title>Node5&#45;&gt;Node4</title>
<path fill="none" stroke="midnightblue" d="M375.18,-40.47C383.58,-39.55 392.21,-38.61 400.75,-37.68"/>
<polygon fill="midnightblue" stroke="midnightblue" points="374.64,-37.01 365.08,-41.57 375.4,-43.96 374.64,-37.01"/>
</g>
<!-- Node6 -->
<g id="node6" class="node">
<title>Node6</title>
<g id="a_node6"><a target="_parent" xlink:href="http://doc.qt.io/qt-5/qabstractitemmodel.html" xlink:title=" ">
<polygon fill="none" stroke="black" points="92,-38.5 92,-57.5 209,-57.5 209,-38.5 92,-38.5"/>
<text text-anchor="middle" x="150.5" y="-45.5" font-family="Helvetica,sans-Serif" font-size="10.00">QAbstractItemModel</text>
</a>
</g>
</g>
<!-- Node6&#45;&gt;Node5 -->
<g id="edge5" class="edge">
<title>Node6&#45;&gt;Node5</title>
<path fill="none" stroke="midnightblue" d="M219.17,-48C227.78,-48 236.54,-48 245,-48"/>
<polygon fill="midnightblue" stroke="midnightblue" points="219.15,-44.5 209.15,-48 219.15,-51.5 219.15,-44.5"/>
</g>
<!-- Node7 -->
<g id="node7" class="node">
<title>Node7</title>
<g id="a_node7"><a target="_parent" xlink:href="http://doc.qt.io/qt-5/qobject.html" xlink:title=" ">
<polygon fill="none" stroke="black" points="0,-38.5 0,-57.5 56,-57.5 56,-38.5 0,-38.5"/>
<text text-anchor="middle" x="28" y="-45.5" font-family="Helvetica,sans-Serif" font-size="10.00">QObject</text>
</a>
</g>
</g>
<!-- Node7&#45;&gt;Node6 -->
<g id="edge6" class="edge">
<title>Node7&#45;&gt;Node6</title>
<path fill="none" stroke="midnightblue" d="M66.31,-48C74.46,-48 83.27,-48 91.99,-48"/>
<polygon fill="midnightblue" stroke="midnightblue" points="66.04,-44.5 56.04,-48 66.04,-51.5 66.04,-44.5"/>
</g>
<!-- Node8 -->
<g id="node8" class="node">
<title>Node8</title>
<g id="a_node8"><a xlink:href="class_black_gui_1_1_c_drop_base.html" target="_top" xlink:title="Utilities for dropping swift value objects.">
<polygon fill="none" stroke="black" points="245,-0.5 245,-19.5 365,-19.5 365,-0.5 245,-0.5"/>
<text text-anchor="middle" x="305" y="-7.5" font-family="Helvetica,sans-Serif" font-size="10.00">BlackGui::CDropBase</text>
</a>
</g>
</g>
<!-- Node8&#45;&gt;Node4 -->
<g id="edge7" class="edge">
<title>Node8&#45;&gt;Node4</title>
<path fill="none" stroke="midnightblue" d="M375.18,-17.53C383.58,-18.45 392.21,-19.39 400.75,-20.32"/>
<polygon fill="midnightblue" stroke="midnightblue" points="375.4,-14.04 365.08,-16.43 374.64,-20.99 375.4,-14.04"/>
</g>
</g>
</svg>
