<?xml version="1.0" encoding="UTF-8" standalone="no"?>
<!DOCTYPE svg PUBLIC "-//W3C//DTD SVG 1.1//EN"
 "http://www.w3.org/Graphics/SVG/1.1/DTD/svg11.dtd">
<!-- Generated by graphviz version 2.43.0 (0)
 -->
<!-- Title: BlackMisc::Geo::IGeoObjectList&lt; OBJ, CONTAINER &gt; Pages: 1 -->
<svg width="545pt" height="242pt"
 viewBox="0.00 0.00 545.00 242.00" xmlns="http://www.w3.org/2000/svg" xmlns:xlink="http://www.w3.org/1999/xlink">
<g id="graph0" class="graph" transform="scale(1 1) rotate(0) translate(4 238)">
<title>BlackMisc::Geo::IGeoObjectList&lt; OBJ, CONTAINER &gt;</title>
<!-- Node1 -->
<g id="node1" class="node">
<title>Node1</title>
<g id="a_node1"><a xlink:title="List of objects with geo coordinates.">
<polygon fill="#bfbfbf" stroke="black" points="0,-99 0,-129 152,-129 152,-99 0,-99"/>
<text text-anchor="start" x="8" y="-117" font-family="Helvetica,sans-Serif" font-size="10.00">BlackMisc::Geo::IGeoObject</text>
<text text-anchor="middle" x="76" y="-106" font-family="Helvetica,sans-Serif" font-size="10.00">List&lt; OBJ, CONTAINER &gt;</text>
</a>
</g>
</g>
<!-- Node2 -->
<g id="node2" class="node">
<title>Node2</title>
<g id="a_node2"><a xlink:href="class_black_misc_1_1_geo_1_1_i_geo_object_with_relative_position_list.html" target="_top" xlink:title=" ">
<polygon fill="none" stroke="black" points="191,-192.5 191,-233.5 367,-233.5 367,-192.5 191,-192.5"/>
<text text-anchor="start" x="199" y="-221.5" font-family="Helvetica,sans-Serif" font-size="10.00">BlackMisc::Geo::IGeoObject</text>
<text text-anchor="start" x="199" y="-210.5" font-family="Helvetica,sans-Serif" font-size="10.00">WithRelativePositionList</text>
<text text-anchor="middle" x="279" y="-199.5" font-family="Helvetica,sans-Serif" font-size="10.00">&lt; CAtcStation, CAtcStationList &gt;</text>
</a>
</g>
</g>
<!-- Node1&#45;&gt;Node2 -->
<g id="edge1" class="edge">
<title>Node1&#45;&gt;Node2</title>
<path fill="none" stroke="midnightblue" d="M106.31,-134.87C128.09,-149.71 158.94,-169.35 188,-183 195.16,-186.36 202.79,-189.51 210.48,-192.42"/>
<polygon fill="midnightblue" stroke="midnightblue" points="108.07,-131.84 97.85,-129.04 104.1,-137.6 108.07,-131.84"/>
</g>
<!-- Node4 -->
<g id="node4" class="node">
<title>Node4</title>
<g id="a_node4"><a xlink:href="class_black_misc_1_1_geo_1_1_i_geo_object_with_relative_position_list.html" target="_top" xlink:title=" ">
<polygon fill="none" stroke="black" points="188,-121 188,-173 370,-173 370,-121 188,-121"/>
<text text-anchor="start" x="196" y="-161" font-family="Helvetica,sans-Serif" font-size="10.00">BlackMisc::Geo::IGeoObject</text>
<text text-anchor="start" x="196" y="-150" font-family="Helvetica,sans-Serif" font-size="10.00">WithRelativePositionList</text>
<text text-anchor="start" x="196" y="-139" font-family="Helvetica,sans-Serif" font-size="10.00">&lt; CSimulatedAircraft, CSimulated</text>
<text text-anchor="middle" x="279" y="-128" font-family="Helvetica,sans-Serif" font-size="10.00">AircraftList &gt;</text>
</a>
</g>
</g>
<!-- Node1&#45;&gt;Node4 -->
<g id="edge3" class="edge">
<title>Node1&#45;&gt;Node4</title>
<path fill="none" stroke="midnightblue" d="M162.01,-127.96C170.51,-129.35 179.15,-130.77 187.69,-132.17"/>
<polygon fill="midnightblue" stroke="midnightblue" points="162.57,-124.5 152.13,-126.33 161.43,-131.41 162.57,-124.5"/>
</g>
<!-- Node6 -->
<g id="node6" class="node">
<title>Node6</title>
<g id="a_node6"><a xlink:href="class_black_misc_1_1_geo_1_1_i_geo_object_with_relative_position_list.html" target="_top" xlink:title=" ">
<polygon fill="none" stroke="black" points="203,-60.5 203,-101.5 355,-101.5 355,-60.5 203,-60.5"/>
<text text-anchor="start" x="211" y="-89.5" font-family="Helvetica,sans-Serif" font-size="10.00">BlackMisc::Geo::IGeoObject</text>
<text text-anchor="start" x="211" y="-78.5" font-family="Helvetica,sans-Serif" font-size="10.00">WithRelativePositionList</text>
<text text-anchor="middle" x="279" y="-67.5" font-family="Helvetica,sans-Serif" font-size="10.00">&lt; CAirport, CAirportList &gt;</text>
</a>
</g>
</g>
<!-- Node1&#45;&gt;Node6 -->
<g id="edge5" class="edge">
<title>Node1&#45;&gt;Node6</title>
<path fill="none" stroke="midnightblue" d="M162.36,-99.99C175.86,-97.77 189.72,-95.49 202.96,-93.32"/>
<polygon fill="midnightblue" stroke="midnightblue" points="161.43,-96.59 152.13,-101.67 162.57,-103.5 161.43,-96.59"/>
</g>
<!-- Node8 -->
<g id="node8" class="node">
<title>Node8</title>
<g id="a_node8"><a xlink:href="class_black_misc_1_1_geo_1_1_i_geo_object_with_relative_position_list.html" target="_top" xlink:title="List of objects with geo coordinates.">
<polygon fill="none" stroke="black" points="203,-0.5 203,-41.5 355,-41.5 355,-0.5 203,-0.5"/>
<text text-anchor="start" x="211" y="-29.5" font-family="Helvetica,sans-Serif" font-size="10.00">BlackMisc::Geo::IGeoObject</text>
<text text-anchor="start" x="211" y="-18.5" font-family="Helvetica,sans-Serif" font-size="10.00">WithRelativePositionList</text>
<text text-anchor="middle" x="279" y="-7.5" font-family="Helvetica,sans-Serif" font-size="10.00">&lt; OBJ, CONTAINER &gt;</text>
</a>
</g>
</g>
<!-- Node1&#45;&gt;Node8 -->
<g id="edge7" class="edge">
<title>Node1&#45;&gt;Node8</title>
<path fill="none" stroke="midnightblue" d="M109.34,-93.42C131.03,-80.18 160.55,-63.23 188,-51 195.52,-47.65 203.54,-44.46 211.57,-41.51"/>
<polygon fill="midnightblue" stroke="midnightblue" points="107.22,-90.61 100.55,-98.84 110.9,-96.57 107.22,-90.61"/>
</g>
<!-- Node3 -->
<g id="node3" class="node">
<title>Node3</title>
<g id="a_node3"><a xlink:href="class_black_misc_1_1_aviation_1_1_c_atc_station_list.html" target="_top" xlink:title="Value object for a list of ATC stations.">
<polygon fill="none" stroke="black" points="415.5,-198 415.5,-228 527.5,-228 527.5,-198 415.5,-198"/>
<text text-anchor="start" x="423.5" y="-216" font-family="Helvetica,sans-Serif" font-size="10.00">BlackMisc::Aviation</text>
<text text-anchor="middle" x="471.5" y="-205" font-family="Helvetica,sans-Serif" font-size="10.00">::CAtcStationList</text>
</a>
</g>
</g>
<!-- Node2&#45;&gt;Node3 -->
<g id="edge2" class="edge">
<title>Node2&#45;&gt;Node3</title>
<path fill="none" stroke="midnightblue" d="M377.54,-213C390.49,-213 403.38,-213 415.26,-213"/>
<polygon fill="midnightblue" stroke="midnightblue" points="377.17,-209.5 367.17,-213 377.17,-216.5 377.17,-209.5"/>
</g>
<!-- Node5 -->
<g id="node5" class="node">
<title>Node5</title>
<g id="a_node5"><a xlink:href="class_black_misc_1_1_simulation_1_1_c_simulated_aircraft_list.html" target="_top" xlink:title="Value object encapsulating a list of aircraft.">
<polygon fill="none" stroke="black" points="406,-132 406,-162 537,-162 537,-132 406,-132"/>
<text text-anchor="start" x="414" y="-150" font-family="Helvetica,sans-Serif" font-size="10.00">BlackMisc::Simulation</text>
<text text-anchor="middle" x="471.5" y="-139" font-family="Helvetica,sans-Serif" font-size="10.00">::CSimulatedAircraftList</text>
</a>
</g>
</g>
<!-- Node4&#45;&gt;Node5 -->
<g id="edge4" class="edge">
<title>Node4&#45;&gt;Node5</title>
<path fill="none" stroke="midnightblue" d="M380.38,-147C389.02,-147 397.6,-147 405.84,-147"/>
<polygon fill="midnightblue" stroke="midnightblue" points="380.23,-143.5 370.23,-147 380.23,-150.5 380.23,-143.5"/>
</g>
<!-- Node7 -->
<g id="node7" class="node">
<title>Node7</title>
<g id="a_node7"><a xlink:href="class_black_misc_1_1_aviation_1_1_c_airport_list.html" target="_top" xlink:title="Value object for a list of airports.">
<polygon fill="none" stroke="black" points="415.5,-66 415.5,-96 527.5,-96 527.5,-66 415.5,-66"/>
<text text-anchor="start" x="423.5" y="-84" font-family="Helvetica,sans-Serif" font-size="10.00">BlackMisc::Aviation</text>
<text text-anchor="middle" x="471.5" y="-73" font-family="Helvetica,sans-Serif" font-size="10.00">::CAirportList</text>
</a>
</g>
</g>
<!-- Node6&#45;&gt;Node7 -->
<g id="edge6" class="edge">
<title>Node6&#45;&gt;Node7</title>
<path fill="none" stroke="midnightblue" d="M365.47,-81C382.38,-81 399.7,-81 415.28,-81"/>
<polygon fill="midnightblue" stroke="midnightblue" points="365.02,-77.5 355.02,-81 365.02,-84.5 365.02,-77.5"/>
</g>
</g>
</svg>
