<?xml version="1.0" encoding="UTF-8" standalone="no"?>
<!DOCTYPE svg PUBLIC "-//W3C//DTD SVG 1.1//EN"
 "http://www.w3.org/Graphics/SVG/1.1/DTD/svg11.dtd">
<!-- Generated by graphviz version 2.43.0 (0)
 -->
<!-- Title: BlackMisc::Simulation::IInterpolant Pages: 1 -->
<svg width="294pt" height="110pt"
 viewBox="0.00 0.00 294.00 110.00" xmlns="http://www.w3.org/2000/svg" xmlns:xlink="http://www.w3.org/1999/xlink">
<g id="graph0" class="graph" transform="scale(1 1) rotate(0) translate(4 106)">
<title>BlackMisc::Simulation::IInterpolant</title>
<!-- Node1 -->
<g id="node1" class="node">
<title>Node1</title>
<g id="a_node1"><a xlink:title="Interpolant interface.">
<polygon fill="#bfbfbf" stroke="black" points="0,-36 0,-66 125,-66 125,-36 0,-36"/>
<text text-anchor="start" x="8" y="-54" font-family="Helvetica,sans-Serif" font-size="10.00">BlackMisc::Simulation</text>
<text text-anchor="middle" x="62.5" y="-43" font-family="Helvetica,sans-Serif" font-size="10.00">::IInterpolant</text>
</a>
</g>
</g>
<!-- Node2 -->
<g id="node2" class="node">
<title>Node2</title>
<g id="a_node2"><a xlink:href="class_black_misc_1_1_simulation_1_1_c_interpolator_linear_1_1_c_interpolant.html" target="_top" xlink:title="Linear function that performs the actual interpolation.">
<polygon fill="none" stroke="black" points="161,-60.5 161,-101.5 286,-101.5 286,-60.5 161,-60.5"/>
<text text-anchor="start" x="169" y="-89.5" font-family="Helvetica,sans-Serif" font-size="10.00">BlackMisc::Simulation</text>
<text text-anchor="start" x="169" y="-78.5" font-family="Helvetica,sans-Serif" font-size="10.00">::CInterpolatorLinear</text>
<text text-anchor="middle" x="223.5" y="-67.5" font-family="Helvetica,sans-Serif" font-size="10.00">::CInterpolant</text>
</a>
</g>
</g>
<!-- Node1&#45;&gt;Node2 -->
<g id="edge1" class="edge">
<title>Node1&#45;&gt;Node2</title>
<path fill="none" stroke="midnightblue" d="M135.32,-64.55C143.8,-66.15 152.41,-67.78 160.74,-69.35"/>
<polygon fill="midnightblue" stroke="midnightblue" points="135.9,-61.1 125.43,-62.68 134.61,-67.98 135.9,-61.1"/>
</g>
<!-- Node3 -->
<g id="node3" class="node">
<title>Node3</title>
<g id="a_node3"><a xlink:href="class_black_misc_1_1_simulation_1_1_c_interpolator_spline_1_1_c_interpolant.html" target="_top" xlink:title="Cubic function that performs the actual interpolation.">
<polygon fill="none" stroke="black" points="161,-0.5 161,-41.5 286,-41.5 286,-0.5 161,-0.5"/>
<text text-anchor="start" x="169" y="-29.5" font-family="Helvetica,sans-Serif" font-size="10.00">BlackMisc::Simulation</text>
<text text-anchor="start" x="169" y="-18.5" font-family="Helvetica,sans-Serif" font-size="10.00">::CInterpolatorSpline</text>
<text text-anchor="middle" x="223.5" y="-7.5" font-family="Helvetica,sans-Serif" font-size="10.00">::CInterpolant</text>
</a>
</g>
</g>
<!-- Node1&#45;&gt;Node3 -->
<g id="edge2" class="edge">
<title>Node1&#45;&gt;Node3</title>
<path fill="none" stroke="midnightblue" d="M135.32,-37.45C143.8,-35.85 152.41,-34.22 160.74,-32.65"/>
<polygon fill="midnightblue" stroke="midnightblue" points="134.61,-34.02 125.43,-39.32 135.9,-40.9 134.61,-34.02"/>
</g>
</g>
</svg>
