<?xml version="1.0" encoding="UTF-8" standalone="no"?>
<!DOCTYPE svg PUBLIC "-//W3C//DTD SVG 1.1//EN"
 "http://www.w3.org/Graphics/SVG/1.1/DTD/svg11.dtd">
<!-- Generated by graphviz version 2.43.0 (0)
 -->
<!-- Title: chunkware_simple::SimpleGateRms Pages: 1 -->
<svg width="179pt" height="162pt"
 viewBox="0.00 0.00 179.00 162.00" xmlns="http://www.w3.org/2000/svg" xmlns:xlink="http://www.w3.org/1999/xlink">
<g id="graph0" class="graph" transform="scale(1 1) rotate(0) translate(4 158)">
<title>chunkware_simple::SimpleGateRms</title>
<!-- Node1 -->
<g id="node1" class="node">
<title>Node1</title>
<g id="a_node1"><a xlink:title="Simple gate with RMS detection.">
<polygon fill="#bfbfbf" stroke="black" points="11.5,-0.5 11.5,-30.5 159.5,-30.5 159.5,-0.5 11.5,-0.5"/>
<text text-anchor="start" x="19.5" y="-18.5" font-family="Helvetica,sans-Serif" font-size="10.00">chunkware_simple::Simple</text>
<text text-anchor="middle" x="85.5" y="-7.5" font-family="Helvetica,sans-Serif" font-size="10.00">GateRms</text>
</a>
</g>
</g>
<!-- Node2 -->
<g id="node2" class="node">
<title>Node2</title>
<g id="a_node2"><a xlink:href="classchunkware__simple_1_1_simple_gate.html" target="_top" xlink:title="simple gate">
<polygon fill="none" stroke="black" points="0,-67.5 0,-86.5 171,-86.5 171,-67.5 0,-67.5"/>
<text text-anchor="middle" x="85.5" y="-74.5" font-family="Helvetica,sans-Serif" font-size="10.00">chunkware_simple::SimpleGate</text>
</a>
</g>
</g>
<!-- Node2&#45;&gt;Node1 -->
<g id="edge1" class="edge">
<title>Node2&#45;&gt;Node1</title>
<path fill="none" stroke="midnightblue" d="M85.5,-57.23C85.5,-48.59 85.5,-38.5 85.5,-30.52"/>
<polygon fill="midnightblue" stroke="midnightblue" points="82,-57.48 85.5,-67.48 89,-57.48 82,-57.48"/>
</g>
<!-- Node3 -->
<g id="node3" class="node">
<title>Node3</title>
<g id="a_node3"><a xlink:href="classchunkware__simple_1_1_att_rel_envelope.html" target="_top" xlink:title="attack/release envelope">
<polygon fill="none" stroke="black" points="13.5,-123.5 13.5,-153.5 157.5,-153.5 157.5,-123.5 13.5,-123.5"/>
<text text-anchor="start" x="21.5" y="-141.5" font-family="Helvetica,sans-Serif" font-size="10.00">chunkware_simple::AttRel</text>
<text text-anchor="middle" x="85.5" y="-130.5" font-family="Helvetica,sans-Serif" font-size="10.00">Envelope</text>
</a>
</g>
</g>
<!-- Node3&#45;&gt;Node2 -->
<g id="edge2" class="edge">
<title>Node3&#45;&gt;Node2</title>
<path fill="none" stroke="midnightblue" d="M85.5,-113.29C85.5,-103.86 85.5,-93.65 85.5,-86.66"/>
<polygon fill="midnightblue" stroke="midnightblue" points="82,-113.4 85.5,-123.4 89,-113.4 82,-113.4"/>
</g>
</g>
</svg>
