<?xml version="1.0" encoding="UTF-8" standalone="no"?>
<!DOCTYPE svg PUBLIC "-//W3C//DTD SVG 1.1//EN"
 "http://www.w3.org/Graphics/SVG/1.1/DTD/svg11.dtd">
<!-- Generated by graphviz version 2.43.0 (0)
 -->
<!-- Title: BlackMisc::Geo::CEarthAngle&lt; LATorLON &gt; Pages: 1 -->
<svg width="797pt" height="333pt"
 viewBox="0.00 0.00 797.00 333.00" xmlns="http://www.w3.org/2000/svg" xmlns:xlink="http://www.w3.org/1999/xlink">
<g id="graph0" class="graph" transform="scale(1 1) rotate(0) translate(4 329)">
<title>BlackMisc::Geo::CEarthAngle&lt; LATorLON &gt;</title>
<!-- Node1 -->
<g id="node1" class="node">
<title>Node1</title>
<g id="a_node1"><a xlink:title="Base class for latitude / longitude.">
<polygon fill="#bfbfbf" stroke="black" points="631,-147.5 631,-177.5 789,-177.5 789,-147.5 631,-147.5"/>
<text text-anchor="start" x="639" y="-165.5" font-family="Helvetica,sans-Serif" font-size="10.00">BlackMisc::Geo::CEarthAngle</text>
<text text-anchor="middle" x="710" y="-154.5" font-family="Helvetica,sans-Serif" font-size="10.00">&lt; LATorLON &gt;</text>
</a>
</g>
</g>
<!-- Node2 -->
<g id="node2" class="node">
<title>Node2</title>
<g id="a_node2"><a xlink:href="class_black_misc_1_1_physical_quantities_1_1_c_angle.html" target="_top" xlink:title="Physical unit angle (radians, degrees)">
<polygon fill="none" stroke="black" points="432,-147.5 432,-177.5 595,-177.5 595,-147.5 432,-147.5"/>
<text text-anchor="start" x="440" y="-165.5" font-family="Helvetica,sans-Serif" font-size="10.00">BlackMisc::PhysicalQuantities</text>
<text text-anchor="middle" x="513.5" y="-154.5" font-family="Helvetica,sans-Serif" font-size="10.00">::CAngle</text>
</a>
</g>
</g>
<!-- Node2&#45;&gt;Node1 -->
<g id="edge1" class="edge">
<title>Node2&#45;&gt;Node1</title>
<path fill="none" stroke="midnightblue" d="M605.04,-162.5C613.63,-162.5 622.28,-162.5 630.74,-162.5"/>
<polygon fill="midnightblue" stroke="midnightblue" points="605.01,-159 595.01,-162.5 605.01,-166 605.01,-159"/>
</g>
<!-- Node3 -->
<g id="node3" class="node">
<title>Node3</title>
<g id="a_node3"><a xlink:href="class_black_misc_1_1_physical_quantities_1_1_c_physical_quantity.html" target="_top" xlink:title=" ">
<polygon fill="none" stroke="black" points="215,-142 215,-183 396,-183 396,-142 215,-142"/>
<text text-anchor="start" x="223" y="-171" font-family="Helvetica,sans-Serif" font-size="10.00">BlackMisc::PhysicalQuantities</text>
<text text-anchor="start" x="223" y="-160" font-family="Helvetica,sans-Serif" font-size="10.00">::CPhysicalQuantity&lt; CAngleUnit,</text>
<text text-anchor="middle" x="305.5" y="-149" font-family="Helvetica,sans-Serif" font-size="10.00"> CAngle &gt;</text>
</a>
</g>
</g>
<!-- Node3&#45;&gt;Node2 -->
<g id="edge2" class="edge">
<title>Node3&#45;&gt;Node2</title>
<path fill="none" stroke="midnightblue" d="M406.27,-162.5C414.82,-162.5 423.41,-162.5 431.78,-162.5"/>
<polygon fill="midnightblue" stroke="midnightblue" points="406.26,-159 396.26,-162.5 406.26,-166 406.26,-159"/>
</g>
<!-- Node4 -->
<g id="node4" class="node">
<title>Node4</title>
<g id="a_node4"><a xlink:href="class_black_misc_1_1_mixin_1_1_d_bus_operators.html" target="_top" xlink:title="CRTP class template which will generate marshalling operators for a derived class with its own marsha...">
<polygon fill="none" stroke="black" points="0,-294.5 0,-324.5 179,-324.5 179,-294.5 0,-294.5"/>
<text text-anchor="start" x="8" y="-312.5" font-family="Helvetica,sans-Serif" font-size="10.00">BlackMisc::Mixin::DBusOperators</text>
<text text-anchor="middle" x="89.5" y="-301.5" font-family="Helvetica,sans-Serif" font-size="10.00">&lt; Derived,... &gt;</text>
</a>
</g>
</g>
<!-- Node4&#45;&gt;Node3 -->
<g id="edge3" class="edge">
<title>Node4&#45;&gt;Node3</title>
<path fill="none" stroke="midnightblue" d="M169.46,-290.4C172.74,-288.88 175.94,-287.25 179,-285.5 225.59,-258.82 267.44,-210.69 289.04,-183.21"/>
<polygon fill="midnightblue" stroke="midnightblue" points="167.87,-287.27 160.01,-294.37 170.59,-293.72 167.87,-287.27"/>
</g>
<!-- Node5 -->
<g id="node5" class="node">
<title>Node5</title>
<g id="a_node5"><a xlink:href="class_black_misc_1_1_mixin_1_1_data_stream_operators.html" target="_top" xlink:title="CRTP class template to generate non&#45;member QDataStream streaming operators.">
<polygon fill="none" stroke="black" points="7.5,-245.5 7.5,-275.5 171.5,-275.5 171.5,-245.5 7.5,-245.5"/>
<text text-anchor="start" x="15.5" y="-263.5" font-family="Helvetica,sans-Serif" font-size="10.00">BlackMisc::Mixin::DataStream</text>
<text text-anchor="middle" x="89.5" y="-252.5" font-family="Helvetica,sans-Serif" font-size="10.00">Operators&lt; Derived &gt;</text>
</a>
</g>
</g>
<!-- Node5&#45;&gt;Node3 -->
<g id="edge4" class="edge">
<title>Node5&#45;&gt;Node3</title>
<path fill="none" stroke="midnightblue" d="M163.6,-242.36C168.86,-240.54 174.05,-238.59 179,-236.5 213.5,-221.96 250.05,-199.5 274.76,-183.14"/>
<polygon fill="midnightblue" stroke="midnightblue" points="162.46,-239.05 154.05,-245.49 164.64,-245.7 162.46,-239.05"/>
</g>
<!-- Node6 -->
<g id="node6" class="node">
<title>Node6</title>
<g id="a_node6"><a xlink:href="class_black_misc_1_1_mixin_1_1_json_operators.html" target="_top" xlink:title="CRTP class template which will generate marshalling operators for a derived class with its own marsha...">
<polygon fill="none" stroke="black" points="3,-196.5 3,-226.5 176,-226.5 176,-196.5 3,-196.5"/>
<text text-anchor="start" x="11" y="-214.5" font-family="Helvetica,sans-Serif" font-size="10.00">BlackMisc::Mixin::JsonOperators</text>
<text text-anchor="middle" x="89.5" y="-203.5" font-family="Helvetica,sans-Serif" font-size="10.00">&lt; Derived &gt;</text>
</a>
</g>
</g>
<!-- Node6&#45;&gt;Node3 -->
<g id="edge5" class="edge">
<title>Node6&#45;&gt;Node3</title>
<path fill="none" stroke="midnightblue" d="M166.34,-194.14C182.06,-190.54 198.77,-186.71 214.93,-183.01"/>
<polygon fill="midnightblue" stroke="midnightblue" points="165.13,-190.82 156.16,-196.47 166.69,-197.65 165.13,-190.82"/>
</g>
<!-- Node7 -->
<g id="node7" class="node">
<title>Node7</title>
<g id="a_node7"><a xlink:href="class_black_misc_1_1_mixin_1_1_index.html" target="_top" xlink:title="CRTP class template from which a derived class can inherit property indexing functions.">
<polygon fill="none" stroke="black" points="23.5,-147.5 23.5,-177.5 155.5,-177.5 155.5,-147.5 23.5,-147.5"/>
<text text-anchor="start" x="31.5" y="-165.5" font-family="Helvetica,sans-Serif" font-size="10.00">BlackMisc::Mixin::Index</text>
<text text-anchor="middle" x="89.5" y="-154.5" font-family="Helvetica,sans-Serif" font-size="10.00">&lt; Derived &gt;</text>
</a>
</g>
</g>
<!-- Node7&#45;&gt;Node3 -->
<g id="edge6" class="edge">
<title>Node7&#45;&gt;Node3</title>
<path fill="none" stroke="midnightblue" d="M165.83,-162.5C181.69,-162.5 198.56,-162.5 214.88,-162.5"/>
<polygon fill="midnightblue" stroke="midnightblue" points="165.58,-159 155.58,-162.5 165.58,-166 165.58,-159"/>
</g>
<!-- Node8 -->
<g id="node8" class="node">
<title>Node8</title>
<g id="a_node8"><a xlink:href="class_black_misc_1_1_mixin_1_1_meta_type.html" target="_top" xlink:title="CRTP class template from which a derived class can inherit common methods dealing with the metatype o...">
<polygon fill="none" stroke="black" points="13.5,-98.5 13.5,-128.5 165.5,-128.5 165.5,-98.5 13.5,-98.5"/>
<text text-anchor="start" x="21.5" y="-116.5" font-family="Helvetica,sans-Serif" font-size="10.00">BlackMisc::Mixin::MetaType</text>
<text text-anchor="middle" x="89.5" y="-105.5" font-family="Helvetica,sans-Serif" font-size="10.00">&lt; Derived &gt;</text>
</a>
</g>
</g>
<!-- Node8&#45;&gt;Node3 -->
<g id="edge7" class="edge">
<title>Node8&#45;&gt;Node3</title>
<path fill="none" stroke="midnightblue" d="M166.34,-130.86C182.06,-134.46 198.77,-138.29 214.93,-141.99"/>
<polygon fill="midnightblue" stroke="midnightblue" points="166.69,-127.35 156.16,-128.53 165.13,-134.18 166.69,-127.35"/>
</g>
<!-- Node9 -->
<g id="node9" class="node">
<title>Node9</title>
<g id="a_node9"><a xlink:href="class_black_misc_1_1_mixin_1_1_string.html" target="_top" xlink:title="CRTP class template from which a derived class can inherit string streaming operations.">
<polygon fill="none" stroke="black" points="22.5,-49.5 22.5,-79.5 156.5,-79.5 156.5,-49.5 22.5,-49.5"/>
<text text-anchor="start" x="30.5" y="-67.5" font-family="Helvetica,sans-Serif" font-size="10.00">BlackMisc::Mixin::String</text>
<text text-anchor="middle" x="89.5" y="-56.5" font-family="Helvetica,sans-Serif" font-size="10.00">&lt; Derived &gt;</text>
</a>
</g>
</g>
<!-- Node9&#45;&gt;Node3 -->
<g id="edge8" class="edge">
<title>Node9&#45;&gt;Node3</title>
<path fill="none" stroke="midnightblue" d="M161.24,-82.74C167.31,-84.83 173.31,-87.09 179,-89.5 213.11,-103.97 249.43,-125.89 274.17,-141.93"/>
<polygon fill="midnightblue" stroke="midnightblue" points="162.25,-79.39 151.66,-79.6 160.07,-86.04 162.25,-79.39"/>
</g>
<!-- Node10 -->
<g id="node10" class="node">
<title>Node10</title>
<g id="a_node10"><a xlink:href="class_black_misc_1_1_mixin_1_1_icon.html" target="_top" xlink:title="CRTP class template from which a derived class can inherit icon&#45;related functions.">
<polygon fill="none" stroke="black" points="24,-0.5 24,-30.5 155,-30.5 155,-0.5 24,-0.5"/>
<text text-anchor="start" x="32" y="-18.5" font-family="Helvetica,sans-Serif" font-size="10.00">BlackMisc::Mixin::Icon</text>
<text text-anchor="middle" x="89.5" y="-7.5" font-family="Helvetica,sans-Serif" font-size="10.00">&lt; Derived, IconIndex &gt;</text>
</a>
</g>
</g>
<!-- Node10&#45;&gt;Node3 -->
<g id="edge9" class="edge">
<title>Node10&#45;&gt;Node3</title>
<path fill="none" stroke="midnightblue" d="M164.9,-33.5C169.79,-35.6 174.53,-37.92 179,-40.5 225.06,-67.07 266.79,-114.33 288.59,-141.57"/>
<polygon fill="midnightblue" stroke="midnightblue" points="165.95,-30.16 155.36,-29.75 163.39,-36.67 165.95,-30.16"/>
</g>
</g>
</svg>
