<?xml version="1.0" encoding="UTF-8" standalone="no"?>
<!DOCTYPE svg PUBLIC "-//W3C//DTD SVG 1.1//EN"
 "http://www.w3.org/Graphics/SVG/1.1/DTD/svg11.dtd">
<!-- Generated by graphviz version 2.43.0 (0)
 -->
<!-- Title: BlackGui::Models::CListModelBaseNonTemplate Pages: 1 -->
<svg width="1316pt" height="1525pt"
 viewBox="0.00 0.00 1316.00 1525.00" xmlns="http://www.w3.org/2000/svg" xmlns:xlink="http://www.w3.org/1999/xlink">
<g id="graph0" class="graph" transform="scale(1 1) rotate(0) translate(4 1521)">
<title>BlackGui::Models::CListModelBaseNonTemplate</title>
<!-- Node1 -->
<g id="node1" class="node">
<title>Node1</title>
<g id="a_node1"><a xlink:title="Non templated base class, allows Q_OBJECT and signals to be used.">
<polygon fill="#bfbfbf" stroke="black" points="401,-1089.5 401,-1119.5 562,-1119.5 562,-1089.5 401,-1089.5"/>
<text text-anchor="start" x="409" y="-1107.5" font-family="Helvetica,sans-Serif" font-size="10.00">BlackGui::Models::CListModel</text>
<text text-anchor="middle" x="481.5" y="-1096.5" font-family="Helvetica,sans-Serif" font-size="10.00">BaseNonTemplate</text>
</a>
</g>
</g>
<!-- Node6 -->
<g id="node6" class="node">
<title>Node6</title>
<g id="a_node6"><a xlink:href="class_black_gui_1_1_models_1_1_c_list_model_base.html" target="_top" xlink:title=" ">
<polygon fill="none" stroke="black" points="603,-1486.5 603,-1516.5 789,-1516.5 789,-1486.5 603,-1486.5"/>
<text text-anchor="start" x="611" y="-1504.5" font-family="Helvetica,sans-Serif" font-size="10.00">BlackGui::Models::CListModel</text>
<text text-anchor="middle" x="696" y="-1493.5" font-family="Helvetica,sans-Serif" font-size="10.00">Base&lt; BlackMisc::CIdentifierList &gt;</text>
</a>
</g>
</g>
<!-- Node1&#45;&gt;Node6 -->
<g id="edge5" class="edge">
<title>Node1&#45;&gt;Node6</title>
<path fill="none" stroke="midnightblue" d="M482.43,-1129.58C483.68,-1196.36 496.64,-1379.97 598,-1476.5 602.03,-1480.34 606.57,-1483.61 611.42,-1486.39"/>
<polygon fill="midnightblue" stroke="midnightblue" points="485.93,-1129.51 482.32,-1119.55 478.93,-1129.59 485.93,-1129.51"/>
</g>
<!-- Node8 -->
<g id="node8" class="node">
<title>Node8</title>
<g id="a_node8"><a xlink:href="class_black_gui_1_1_models_1_1_c_list_model_base.html" target="_top" xlink:title=" ">
<polygon fill="none" stroke="black" points="615.5,-1426 615.5,-1467 776.5,-1467 776.5,-1426 615.5,-1426"/>
<text text-anchor="start" x="623.5" y="-1455" font-family="Helvetica,sans-Serif" font-size="10.00">BlackGui::Models::CListModel</text>
<text text-anchor="start" x="623.5" y="-1444" font-family="Helvetica,sans-Serif" font-size="10.00">Base&lt; BlackMisc::Aviation</text>
<text text-anchor="middle" x="696" y="-1433" font-family="Helvetica,sans-Serif" font-size="10.00">::CAirportList, true &gt;</text>
</a>
</g>
</g>
<!-- Node1&#45;&gt;Node8 -->
<g id="edge7" class="edge">
<title>Node1&#45;&gt;Node8</title>
<path fill="none" stroke="midnightblue" d="M484.48,-1130.01C490.46,-1189.11 513.48,-1336.48 598,-1416.5 603.12,-1421.35 609.01,-1425.41 615.3,-1428.82"/>
<polygon fill="midnightblue" stroke="midnightblue" points="487.94,-1129.36 483.53,-1119.72 480.97,-1130 487.94,-1129.36"/>
</g>
<!-- Node10 -->
<g id="node10" class="node">
<title>Node10</title>
<g id="a_node10"><a xlink:href="class_black_gui_1_1_models_1_1_c_list_model_base.html" target="_top" xlink:title=" ">
<polygon fill="none" stroke="black" points="615.5,-1366 615.5,-1407 776.5,-1407 776.5,-1366 615.5,-1366"/>
<text text-anchor="start" x="623.5" y="-1395" font-family="Helvetica,sans-Serif" font-size="10.00">BlackGui::Models::CListModel</text>
<text text-anchor="start" x="623.5" y="-1384" font-family="Helvetica,sans-Serif" font-size="10.00">Base&lt; BlackMisc::Weather</text>
<text text-anchor="middle" x="696" y="-1373" font-family="Helvetica,sans-Serif" font-size="10.00">::CCloudLayerList, false &gt;</text>
</a>
</g>
</g>
<!-- Node1&#45;&gt;Node10 -->
<g id="edge9" class="edge">
<title>Node1&#45;&gt;Node10</title>
<path fill="none" stroke="midnightblue" d="M486.93,-1129.56C497.18,-1180.03 527.24,-1294.38 598,-1356.5 603.17,-1361.04 609.01,-1364.89 615.2,-1368.15"/>
<polygon fill="midnightblue" stroke="midnightblue" points="490.33,-1128.68 484.99,-1119.53 483.46,-1130.01 490.33,-1128.68"/>
</g>
<!-- Node12 -->
<g id="node12" class="node">
<title>Node12</title>
<g id="a_node12"><a xlink:href="class_black_gui_1_1_models_1_1_c_list_model_base.html" target="_top" xlink:title=" ">
<polygon fill="none" stroke="black" points="615.5,-1306 615.5,-1347 776.5,-1347 776.5,-1306 615.5,-1306"/>
<text text-anchor="start" x="623.5" y="-1335" font-family="Helvetica,sans-Serif" font-size="10.00">BlackGui::Models::CListModel</text>
<text text-anchor="start" x="623.5" y="-1324" font-family="Helvetica,sans-Serif" font-size="10.00">Base&lt; BlackMisc::Audio::</text>
<text text-anchor="middle" x="696" y="-1313" font-family="Helvetica,sans-Serif" font-size="10.00">CAudioDeviceInfoList, true &gt;</text>
</a>
</g>
</g>
<!-- Node1&#45;&gt;Node12 -->
<g id="edge11" class="edge">
<title>Node1&#45;&gt;Node12</title>
<path fill="none" stroke="midnightblue" d="M490.64,-1128.96C505.45,-1169.74 540.7,-1251.6 598,-1296.5 603.27,-1300.63 609.12,-1304.2 615.25,-1307.27"/>
<polygon fill="midnightblue" stroke="midnightblue" points="493.93,-1127.79 487.31,-1119.52 487.33,-1130.11 493.93,-1127.79"/>
</g>
<!-- Node14 -->
<g id="node14" class="node">
<title>Node14</title>
<g id="a_node14"><a xlink:href="class_black_gui_1_1_models_1_1_c_list_model_base.html" target="_top" xlink:title=" ">
<polygon fill="none" stroke="black" points="615.5,-1246 615.5,-1287 776.5,-1287 776.5,-1246 615.5,-1246"/>
<text text-anchor="start" x="623.5" y="-1275" font-family="Helvetica,sans-Serif" font-size="10.00">BlackGui::Models::CListModel</text>
<text text-anchor="start" x="623.5" y="-1264" font-family="Helvetica,sans-Serif" font-size="10.00">Base&lt; BlackMisc::Network</text>
<text text-anchor="middle" x="696" y="-1253" font-family="Helvetica,sans-Serif" font-size="10.00">::CUserList, true &gt;</text>
</a>
</g>
</g>
<!-- Node1&#45;&gt;Node14 -->
<g id="edge13" class="edge">
<title>Node1&#45;&gt;Node14</title>
<path fill="none" stroke="midnightblue" d="M497.48,-1128.25C517.13,-1157.54 554.29,-1206.94 598,-1235.5 603.92,-1239.37 610.36,-1242.78 617.01,-1245.8"/>
<polygon fill="midnightblue" stroke="midnightblue" points="500.38,-1126.28 491.96,-1119.85 494.53,-1130.13 500.38,-1126.28"/>
</g>
<!-- Node16 -->
<g id="node16" class="node">
<title>Node16</title>
<g id="a_node16"><a xlink:href="class_black_gui_1_1_models_1_1_c_list_model_base.html" target="_top" xlink:title=" ">
<polygon fill="none" stroke="black" points="615.5,-1174.5 615.5,-1226.5 776.5,-1226.5 776.5,-1174.5 615.5,-1174.5"/>
<text text-anchor="start" x="623.5" y="-1214.5" font-family="Helvetica,sans-Serif" font-size="10.00">BlackGui::Models::CListModel</text>
<text text-anchor="start" x="623.5" y="-1203.5" font-family="Helvetica,sans-Serif" font-size="10.00">Base&lt; BlackMisc::Weather</text>
<text text-anchor="start" x="623.5" y="-1192.5" font-family="Helvetica,sans-Serif" font-size="10.00">::CTemperatureLayerList,</text>
<text text-anchor="middle" x="696" y="-1181.5" font-family="Helvetica,sans-Serif" font-size="10.00"> false &gt;</text>
</a>
</g>
</g>
<!-- Node1&#45;&gt;Node16 -->
<g id="edge15" class="edge">
<title>Node1&#45;&gt;Node16</title>
<path fill="none" stroke="midnightblue" d="M517.99,-1124.39C540.55,-1136.67 570.58,-1152.35 598,-1164.5 605.64,-1167.88 613.7,-1171.23 621.78,-1174.43"/>
<polygon fill="midnightblue" stroke="midnightblue" points="519.56,-1121.26 509.11,-1119.52 516.2,-1127.4 519.56,-1121.26"/>
</g>
<!-- Node18 -->
<g id="node18" class="node">
<title>Node18</title>
<g id="a_node18"><a xlink:href="class_black_gui_1_1_models_1_1_c_list_model_base.html" target="_top" xlink:title=" ">
<polygon fill="none" stroke="black" points="615.5,-1114 615.5,-1155 776.5,-1155 776.5,-1114 615.5,-1114"/>
<text text-anchor="start" x="623.5" y="-1143" font-family="Helvetica,sans-Serif" font-size="10.00">BlackGui::Models::CListModel</text>
<text text-anchor="start" x="623.5" y="-1132" font-family="Helvetica,sans-Serif" font-size="10.00">Base&lt; BlackMisc::Simulation</text>
<text text-anchor="middle" x="696" y="-1121" font-family="Helvetica,sans-Serif" font-size="10.00">::CMatchingStatistics, true &gt;</text>
</a>
</g>
</g>
<!-- Node1&#45;&gt;Node18 -->
<g id="edge17" class="edge">
<title>Node1&#45;&gt;Node18</title>
<path fill="none" stroke="midnightblue" d="M572.48,-1117.2C586.66,-1119.2 601.24,-1121.26 615.17,-1123.23"/>
<polygon fill="midnightblue" stroke="midnightblue" points="572.62,-1113.69 562.23,-1115.76 571.64,-1120.62 572.62,-1113.69"/>
</g>
<!-- Node20 -->
<g id="node20" class="node">
<title>Node20</title>
<g id="a_node20"><a xlink:href="class_black_gui_1_1_models_1_1_c_list_model_base.html" target="_top" xlink:title=" ">
<polygon fill="none" stroke="black" points="598,-1054 598,-1095 794,-1095 794,-1054 598,-1054"/>
<text text-anchor="start" x="606" y="-1083" font-family="Helvetica,sans-Serif" font-size="10.00">BlackGui::Models::CListModel</text>
<text text-anchor="start" x="606" y="-1072" font-family="Helvetica,sans-Serif" font-size="10.00">Base&lt; BlackMisc::CNameVariantPair</text>
<text text-anchor="middle" x="696" y="-1061" font-family="Helvetica,sans-Serif" font-size="10.00">List &gt;</text>
</a>
</g>
</g>
<!-- Node1&#45;&gt;Node20 -->
<g id="edge19" class="edge">
<title>Node1&#45;&gt;Node20</title>
<path fill="none" stroke="midnightblue" d="M572.16,-1091.84C580.69,-1090.64 589.37,-1089.41 597.96,-1088.2"/>
<polygon fill="midnightblue" stroke="midnightblue" points="571.64,-1088.38 562.23,-1093.24 572.62,-1095.31 571.64,-1088.38"/>
</g>
<!-- Node22 -->
<g id="node22" class="node">
<title>Node22</title>
<g id="a_node22"><a xlink:href="class_black_gui_1_1_models_1_1_c_list_model_base.html" target="_top" xlink:title=" ">
<polygon fill="none" stroke="black" points="602,-994 602,-1035 790,-1035 790,-994 602,-994"/>
<text text-anchor="start" x="610" y="-1023" font-family="Helvetica,sans-Serif" font-size="10.00">BlackGui::Models::CListModel</text>
<text text-anchor="start" x="610" y="-1012" font-family="Helvetica,sans-Serif" font-size="10.00">Base&lt; BlackMisc::CApplicationInfo</text>
<text text-anchor="middle" x="696" y="-1001" font-family="Helvetica,sans-Serif" font-size="10.00">List, true &gt;</text>
</a>
</g>
</g>
<!-- Node1&#45;&gt;Node22 -->
<g id="edge21" class="edge">
<title>Node1&#45;&gt;Node22</title>
<path fill="none" stroke="midnightblue" d="M517.31,-1084.33C539.84,-1071.8 570.07,-1055.96 598,-1044.5 606.15,-1041.15 614.82,-1037.97 623.49,-1035.01"/>
<polygon fill="midnightblue" stroke="midnightblue" points="515.47,-1081.35 508.47,-1089.3 518.9,-1087.45 515.47,-1081.35"/>
</g>
<!-- Node24 -->
<g id="node24" class="node">
<title>Node24</title>
<g id="a_node24"><a xlink:href="class_black_gui_1_1_models_1_1_c_list_model_base.html" target="_top" xlink:title=" ">
<polygon fill="none" stroke="black" points="615.5,-934 615.5,-975 776.5,-975 776.5,-934 615.5,-934"/>
<text text-anchor="start" x="623.5" y="-963" font-family="Helvetica,sans-Serif" font-size="10.00">BlackGui::Models::CListModel</text>
<text text-anchor="start" x="623.5" y="-952" font-family="Helvetica,sans-Serif" font-size="10.00">Base&lt; BlackMisc::Weather</text>
<text text-anchor="middle" x="696" y="-941" font-family="Helvetica,sans-Serif" font-size="10.00">::CWindLayerList, false &gt;</text>
</a>
</g>
</g>
<!-- Node1&#45;&gt;Node24 -->
<g id="edge23" class="edge">
<title>Node1&#45;&gt;Node24</title>
<path fill="none" stroke="midnightblue" d="M499.13,-1081.1C519.5,-1054.08 556.46,-1010.1 598,-984.5 603.7,-980.99 609.85,-977.85 616.18,-975.07"/>
<polygon fill="midnightblue" stroke="midnightblue" points="496.25,-1079.11 493.12,-1089.23 501.88,-1083.27 496.25,-1079.11"/>
</g>
<!-- Node26 -->
<g id="node26" class="node">
<title>Node26</title>
<g id="a_node26"><a xlink:href="class_black_gui_1_1_models_1_1_c_list_model_base.html" target="_top" xlink:title=" ">
<polygon fill="none" stroke="black" points="615.5,-874 615.5,-915 776.5,-915 776.5,-874 615.5,-874"/>
<text text-anchor="start" x="623.5" y="-903" font-family="Helvetica,sans-Serif" font-size="10.00">BlackGui::Models::CListModel</text>
<text text-anchor="start" x="623.5" y="-892" font-family="Helvetica,sans-Serif" font-size="10.00">Base&lt; BlackMisc::Network</text>
<text text-anchor="middle" x="696" y="-881" font-family="Helvetica,sans-Serif" font-size="10.00">::CServerList, true &gt;</text>
</a>
</g>
</g>
<!-- Node1&#45;&gt;Node26 -->
<g id="edge25" class="edge">
<title>Node1&#45;&gt;Node26</title>
<path fill="none" stroke="midnightblue" d="M491.73,-1079.93C507.54,-1041.17 543.47,-965.97 598,-924.5 603.33,-920.45 609.22,-916.93 615.38,-913.89"/>
<polygon fill="midnightblue" stroke="midnightblue" points="488.41,-1078.81 487.98,-1089.4 494.92,-1081.39 488.41,-1078.81"/>
</g>
<!-- Node28 -->
<g id="node28" class="node">
<title>Node28</title>
<g id="a_node28"><a xlink:href="class_black_gui_1_1_models_1_1_c_list_model_base.html" target="_top" xlink:title=" ">
<polygon fill="none" stroke="black" points="615.5,-816.5 615.5,-846.5 776.5,-846.5 776.5,-816.5 615.5,-816.5"/>
<text text-anchor="start" x="623.5" y="-834.5" font-family="Helvetica,sans-Serif" font-size="10.00">BlackGui::Models::CListModel</text>
<text text-anchor="middle" x="696" y="-823.5" font-family="Helvetica,sans-Serif" font-size="10.00">Base&lt; T, false &gt;</text>
</a>
</g>
</g>
<!-- Node1&#45;&gt;Node28 -->
<g id="edge27" class="edge">
<title>Node1&#45;&gt;Node28</title>
<path fill="none" stroke="midnightblue" d="M487.76,-1079.44C499.2,-1030.97 530.92,-923.94 598,-864.5 606.52,-856.95 616.84,-851.11 627.53,-846.6"/>
<polygon fill="midnightblue" stroke="midnightblue" points="484.3,-1078.86 485.5,-1089.38 491.13,-1080.4 484.3,-1078.86"/>
</g>
<!-- Node42 -->
<g id="node35" class="node">
<title>Node42</title>
<g id="a_node35"><a xlink:href="class_black_gui_1_1_models_1_1_c_list_model_base.html" target="_top" xlink:title=" ">
<polygon fill="none" stroke="black" points="615.5,-731 615.5,-772 776.5,-772 776.5,-731 615.5,-731"/>
<text text-anchor="start" x="623.5" y="-760" font-family="Helvetica,sans-Serif" font-size="10.00">BlackGui::Models::CListModel</text>
<text text-anchor="start" x="623.5" y="-749" font-family="Helvetica,sans-Serif" font-size="10.00">Base&lt; BlackMisc::Network</text>
<text text-anchor="middle" x="696" y="-738" font-family="Helvetica,sans-Serif" font-size="10.00">::CClientList &gt;</text>
</a>
</g>
</g>
<!-- Node1&#45;&gt;Node42 -->
<g id="edge34" class="edge">
<title>Node1&#45;&gt;Node42</title>
<path fill="none" stroke="midnightblue" d="M486.36,-1079.37C496,-1024.08 525.75,-890.16 598,-806.5 610.4,-792.14 627.52,-780.72 643.93,-772.08"/>
<polygon fill="midnightblue" stroke="midnightblue" points="482.89,-1078.9 484.7,-1089.34 489.8,-1080.05 482.89,-1078.9"/>
</g>
<!-- Node44 -->
<g id="node37" class="node">
<title>Node44</title>
<g id="a_node37"><a xlink:href="class_black_gui_1_1_models_1_1_c_list_model_base.html" target="_top" xlink:title="List model.">
<polygon fill="none" stroke="black" points="615.5,-355.5 615.5,-385.5 776.5,-385.5 776.5,-355.5 615.5,-355.5"/>
<text text-anchor="start" x="623.5" y="-373.5" font-family="Helvetica,sans-Serif" font-size="10.00">BlackGui::Models::CListModel</text>
<text text-anchor="middle" x="696" y="-362.5" font-family="Helvetica,sans-Serif" font-size="10.00">Base&lt; T, UseCompare &gt;</text>
</a>
</g>
</g>
<!-- Node1&#45;&gt;Node44 -->
<g id="edge36" class="edge">
<title>Node1&#45;&gt;Node44</title>
<path fill="none" stroke="midnightblue" d="M489.78,-1079.37C523.47,-962.99 663.84,-478.14 690.59,-385.75"/>
<polygon fill="midnightblue" stroke="midnightblue" points="486.36,-1078.59 486.94,-1089.17 493.08,-1080.54 486.36,-1078.59"/>
</g>
<!-- Node2 -->
<g id="node2" class="node">
<title>Node2</title>
<g id="a_node2"><a target="_parent" xlink:href="http://doc.qt.io/qt-5/qstandarditemmodel.html" xlink:title=" ">
<polygon fill="none" stroke="black" points="245,-1114 245,-1133 365,-1133 365,-1114 245,-1114"/>
<text text-anchor="middle" x="305" y="-1121" font-family="Helvetica,sans-Serif" font-size="10.00">QStandardItemModel</text>
</a>
</g>
</g>
<!-- Node2&#45;&gt;Node1 -->
<g id="edge1" class="edge">
<title>Node2&#45;&gt;Node1</title>
<path fill="none" stroke="midnightblue" d="M375.18,-1115.97C383.58,-1115.05 392.21,-1114.11 400.75,-1113.18"/>
<polygon fill="midnightblue" stroke="midnightblue" points="374.64,-1112.51 365.08,-1117.07 375.4,-1119.46 374.64,-1112.51"/>
</g>
<!-- Node3 -->
<g id="node3" class="node">
<title>Node3</title>
<g id="a_node3"><a target="_parent" xlink:href="http://doc.qt.io/qt-5/qabstractitemmodel.html" xlink:title=" ">
<polygon fill="none" stroke="black" points="92,-1114 92,-1133 209,-1133 209,-1114 92,-1114"/>
<text text-anchor="middle" x="150.5" y="-1121" font-family="Helvetica,sans-Serif" font-size="10.00">QAbstractItemModel</text>
</a>
</g>
</g>
<!-- Node3&#45;&gt;Node2 -->
<g id="edge2" class="edge">
<title>Node3&#45;&gt;Node2</title>
<path fill="none" stroke="midnightblue" d="M219.17,-1123.5C227.78,-1123.5 236.54,-1123.5 245,-1123.5"/>
<polygon fill="midnightblue" stroke="midnightblue" points="219.15,-1120 209.15,-1123.5 219.15,-1127 219.15,-1120"/>
</g>
<!-- Node4 -->
<g id="node4" class="node">
<title>Node4</title>
<g id="a_node4"><a target="_parent" xlink:href="http://doc.qt.io/qt-5/qobject.html" xlink:title=" ">
<polygon fill="none" stroke="black" points="0,-1114 0,-1133 56,-1133 56,-1114 0,-1114"/>
<text text-anchor="middle" x="28" y="-1121" font-family="Helvetica,sans-Serif" font-size="10.00">QObject</text>
</a>
</g>
</g>
<!-- Node4&#45;&gt;Node3 -->
<g id="edge3" class="edge">
<title>Node4&#45;&gt;Node3</title>
<path fill="none" stroke="midnightblue" d="M66.31,-1123.5C74.46,-1123.5 83.27,-1123.5 91.99,-1123.5"/>
<polygon fill="midnightblue" stroke="midnightblue" points="66.04,-1120 56.04,-1123.5 66.04,-1127 66.04,-1120"/>
</g>
<!-- Node5 -->
<g id="node5" class="node">
<title>Node5</title>
<g id="a_node5"><a xlink:href="class_black_gui_1_1_c_drop_base.html" target="_top" xlink:title="Utilities for dropping swift value objects.">
<polygon fill="none" stroke="black" points="245,-1076 245,-1095 365,-1095 365,-1076 245,-1076"/>
<text text-anchor="middle" x="305" y="-1083" font-family="Helvetica,sans-Serif" font-size="10.00">BlackGui::CDropBase</text>
</a>
</g>
</g>
<!-- Node5&#45;&gt;Node1 -->
<g id="edge4" class="edge">
<title>Node5&#45;&gt;Node1</title>
<path fill="none" stroke="midnightblue" d="M375.18,-1093.03C383.58,-1093.95 392.21,-1094.89 400.75,-1095.82"/>
<polygon fill="midnightblue" stroke="midnightblue" points="375.4,-1089.54 365.08,-1091.93 374.64,-1096.49 375.4,-1089.54"/>
</g>
<!-- Node7 -->
<g id="node7" class="node">
<title>Node7</title>
<g id="a_node7"><a xlink:href="class_black_gui_1_1_models_1_1_c_identifier_list_model.html" target="_top" xlink:title="Originator list model.">
<polygon fill="none" stroke="black" points="864.5,-1486.5 864.5,-1516.5 1022.5,-1516.5 1022.5,-1486.5 864.5,-1486.5"/>
<text text-anchor="start" x="872.5" y="-1504.5" font-family="Helvetica,sans-Serif" font-size="10.00">BlackGui::Models::CIdentifier</text>
<text text-anchor="middle" x="943.5" y="-1493.5" font-family="Helvetica,sans-Serif" font-size="10.00">ListModel</text>
</a>
</g>
</g>
<!-- Node6&#45;&gt;Node7 -->
<g id="edge6" class="edge">
<title>Node6&#45;&gt;Node7</title>
<path fill="none" stroke="midnightblue" d="M799.36,-1501.5C821.08,-1501.5 843.69,-1501.5 864.34,-1501.5"/>
<polygon fill="midnightblue" stroke="midnightblue" points="799.11,-1498 789.11,-1501.5 799.11,-1505 799.11,-1498"/>
</g>
<!-- Node9 -->
<g id="node9" class="node">
<title>Node9</title>
<g id="a_node9"><a xlink:href="class_black_gui_1_1_models_1_1_c_airport_list_model.html" target="_top" xlink:title="Airport list model.">
<polygon fill="none" stroke="black" points="870,-1431.5 870,-1461.5 1017,-1461.5 1017,-1431.5 870,-1431.5"/>
<text text-anchor="start" x="878" y="-1449.5" font-family="Helvetica,sans-Serif" font-size="10.00">BlackGui::Models::CAirport</text>
<text text-anchor="middle" x="943.5" y="-1438.5" font-family="Helvetica,sans-Serif" font-size="10.00">ListModel</text>
</a>
</g>
</g>
<!-- Node8&#45;&gt;Node9 -->
<g id="edge8" class="edge">
<title>Node8&#45;&gt;Node9</title>
<path fill="none" stroke="midnightblue" d="M787.03,-1446.5C814.29,-1446.5 843.87,-1446.5 869.84,-1446.5"/>
<polygon fill="midnightblue" stroke="midnightblue" points="786.71,-1443 776.71,-1446.5 786.71,-1450 786.71,-1443"/>
</g>
<!-- Node11 -->
<g id="node11" class="node">
<title>Node11</title>
<g id="a_node11"><a xlink:href="class_black_gui_1_1_models_1_1_c_cloud_layer_list_model.html" target="_top" xlink:title="Cloud layer list model.">
<polygon fill="none" stroke="black" points="872.5,-1371.5 872.5,-1401.5 1014.5,-1401.5 1014.5,-1371.5 872.5,-1371.5"/>
<text text-anchor="start" x="880.5" y="-1389.5" font-family="Helvetica,sans-Serif" font-size="10.00">BlackGui::Models::CCloud</text>
<text text-anchor="middle" x="943.5" y="-1378.5" font-family="Helvetica,sans-Serif" font-size="10.00">LayerListModel</text>
</a>
</g>
</g>
<!-- Node10&#45;&gt;Node11 -->
<g id="edge10" class="edge">
<title>Node10&#45;&gt;Node11</title>
<path fill="none" stroke="midnightblue" d="M786.95,-1386.5C815.09,-1386.5 845.71,-1386.5 872.29,-1386.5"/>
<polygon fill="midnightblue" stroke="midnightblue" points="786.71,-1383 776.71,-1386.5 786.71,-1390 786.71,-1383"/>
</g>
<!-- Node13 -->
<g id="node13" class="node">
<title>Node13</title>
<g id="a_node13"><a xlink:href="class_black_gui_1_1_models_1_1_c_audio_device_info_list_model.html" target="_top" xlink:title="Audio device list model.">
<polygon fill="none" stroke="black" points="872.5,-1311.5 872.5,-1341.5 1014.5,-1341.5 1014.5,-1311.5 872.5,-1311.5"/>
<text text-anchor="start" x="880.5" y="-1329.5" font-family="Helvetica,sans-Serif" font-size="10.00">BlackGui::Models::CAudio</text>
<text text-anchor="middle" x="943.5" y="-1318.5" font-family="Helvetica,sans-Serif" font-size="10.00">DeviceInfoListModel</text>
</a>
</g>
</g>
<!-- Node12&#45;&gt;Node13 -->
<g id="edge12" class="edge">
<title>Node12&#45;&gt;Node13</title>
<path fill="none" stroke="midnightblue" d="M786.95,-1326.5C815.09,-1326.5 845.71,-1326.5 872.29,-1326.5"/>
<polygon fill="midnightblue" stroke="midnightblue" points="786.71,-1323 776.71,-1326.5 786.71,-1330 786.71,-1323"/>
</g>
<!-- Node15 -->
<g id="node15" class="node">
<title>Node15</title>
<g id="a_node15"><a xlink:href="class_black_gui_1_1_models_1_1_c_user_list_model.html" target="_top" xlink:title="User list model.">
<polygon fill="none" stroke="black" points="866.5,-1251.5 866.5,-1281.5 1020.5,-1281.5 1020.5,-1251.5 866.5,-1251.5"/>
<text text-anchor="start" x="874.5" y="-1269.5" font-family="Helvetica,sans-Serif" font-size="10.00">BlackGui::Models::CUserList</text>
<text text-anchor="middle" x="943.5" y="-1258.5" font-family="Helvetica,sans-Serif" font-size="10.00">Model</text>
</a>
</g>
</g>
<!-- Node14&#45;&gt;Node15 -->
<g id="edge14" class="edge">
<title>Node14&#45;&gt;Node15</title>
<path fill="none" stroke="midnightblue" d="M786.93,-1266.5C812.92,-1266.5 841.03,-1266.5 866.12,-1266.5"/>
<polygon fill="midnightblue" stroke="midnightblue" points="786.71,-1263 776.71,-1266.5 786.71,-1270 786.71,-1263"/>
</g>
<!-- Node17 -->
<g id="node17" class="node">
<title>Node17</title>
<g id="a_node17"><a xlink:href="class_black_gui_1_1_models_1_1_c_temperature_layer_list_model.html" target="_top" xlink:title="Temperature layer list model.">
<polygon fill="none" stroke="black" points="855.5,-1185.5 855.5,-1215.5 1031.5,-1215.5 1031.5,-1185.5 855.5,-1185.5"/>
<text text-anchor="start" x="863.5" y="-1203.5" font-family="Helvetica,sans-Serif" font-size="10.00">BlackGui::Models::CTemperature</text>
<text text-anchor="middle" x="943.5" y="-1192.5" font-family="Helvetica,sans-Serif" font-size="10.00">LayerListModel</text>
</a>
</g>
</g>
<!-- Node16&#45;&gt;Node17 -->
<g id="edge16" class="edge">
<title>Node16&#45;&gt;Node17</title>
<path fill="none" stroke="midnightblue" d="M786.83,-1200.5C809.11,-1200.5 832.97,-1200.5 855.13,-1200.5"/>
<polygon fill="midnightblue" stroke="midnightblue" points="786.71,-1197 776.71,-1200.5 786.71,-1204 786.71,-1197"/>
</g>
<!-- Node19 -->
<g id="node19" class="node">
<title>Node19</title>
<g id="a_node19"><a xlink:href="class_black_gui_1_1_models_1_1_c_matching_statistics_model.html" target="_top" xlink:title="Matching statistics entry.">
<polygon fill="none" stroke="black" points="864,-1119.5 864,-1149.5 1023,-1149.5 1023,-1119.5 864,-1119.5"/>
<text text-anchor="start" x="872" y="-1137.5" font-family="Helvetica,sans-Serif" font-size="10.00">BlackGui::Models::CMatching</text>
<text text-anchor="middle" x="943.5" y="-1126.5" font-family="Helvetica,sans-Serif" font-size="10.00">StatisticsModel</text>
</a>
</g>
</g>
<!-- Node18&#45;&gt;Node19 -->
<g id="edge18" class="edge">
<title>Node18&#45;&gt;Node19</title>
<path fill="none" stroke="midnightblue" d="M786.97,-1134.5C812.09,-1134.5 839.18,-1134.5 863.61,-1134.5"/>
<polygon fill="midnightblue" stroke="midnightblue" points="786.71,-1131 776.71,-1134.5 786.71,-1138 786.71,-1131"/>
</g>
<!-- Node21 -->
<g id="node21" class="node">
<title>Node21</title>
<g id="a_node21"><a xlink:href="class_black_gui_1_1_models_1_1_c_name_variant_pair_model.html" target="_top" xlink:title="Simple model displaying name / variant values.">
<polygon fill="none" stroke="black" points="854.5,-1059.5 854.5,-1089.5 1032.5,-1089.5 1032.5,-1059.5 854.5,-1059.5"/>
<text text-anchor="start" x="862.5" y="-1077.5" font-family="Helvetica,sans-Serif" font-size="10.00">BlackGui::Models::CNameVariant</text>
<text text-anchor="middle" x="943.5" y="-1066.5" font-family="Helvetica,sans-Serif" font-size="10.00">PairModel</text>
</a>
</g>
</g>
<!-- Node20&#45;&gt;Node21 -->
<g id="edge20" class="edge">
<title>Node20&#45;&gt;Node21</title>
<path fill="none" stroke="midnightblue" d="M804.33,-1074.5C820.97,-1074.5 837.99,-1074.5 854.15,-1074.5"/>
<polygon fill="midnightblue" stroke="midnightblue" points="804.03,-1071 794.03,-1074.5 804.03,-1078 804.03,-1071"/>
</g>
<!-- Node23 -->
<g id="node23" class="node">
<title>Node23</title>
<g id="a_node23"><a xlink:href="class_black_gui_1_1_models_1_1_c_application_info_list_model.html" target="_top" xlink:title="Application info list model.">
<polygon fill="none" stroke="black" points="859,-1005.5 859,-1035.5 1028,-1035.5 1028,-1005.5 859,-1005.5"/>
<text text-anchor="start" x="867" y="-1023.5" font-family="Helvetica,sans-Serif" font-size="10.00">BlackGui::Models::CApplication</text>
<text text-anchor="middle" x="943.5" y="-1012.5" font-family="Helvetica,sans-Serif" font-size="10.00">InfoListModel</text>
</a>
</g>
</g>
<!-- Node22&#45;&gt;Node23 -->
<g id="edge22" class="edge">
<title>Node22&#45;&gt;Node23</title>
<path fill="none" stroke="midnightblue" d="M800.27,-1017.02C819.74,-1017.5 839.88,-1017.99 858.67,-1018.45"/>
<polygon fill="midnightblue" stroke="midnightblue" points="800.25,-1013.52 790.16,-1016.78 800.07,-1020.52 800.25,-1013.52"/>
</g>
<!-- Node25 -->
<g id="node25" class="node">
<title>Node25</title>
<g id="a_node25"><a xlink:href="class_black_gui_1_1_models_1_1_c_wind_layer_list_model.html" target="_top" xlink:title="Wind layer list model.">
<polygon fill="none" stroke="black" points="860.5,-956.5 860.5,-986.5 1026.5,-986.5 1026.5,-956.5 860.5,-956.5"/>
<text text-anchor="start" x="868.5" y="-974.5" font-family="Helvetica,sans-Serif" font-size="10.00">BlackGui::Models::CWindLayer</text>
<text text-anchor="middle" x="943.5" y="-963.5" font-family="Helvetica,sans-Serif" font-size="10.00">ListModel</text>
</a>
</g>
</g>
<!-- Node24&#45;&gt;Node25 -->
<g id="edge24" class="edge">
<title>Node24&#45;&gt;Node25</title>
<path fill="none" stroke="midnightblue" d="M786.87,-960.72C810.87,-962.38 836.68,-964.17 860.24,-965.8"/>
<polygon fill="midnightblue" stroke="midnightblue" points="786.92,-957.22 776.71,-960.02 786.44,-964.2 786.92,-957.22"/>
</g>
<!-- Node27 -->
<g id="node27" class="node">
<title>Node27</title>
<g id="a_node27"><a xlink:href="class_black_gui_1_1_models_1_1_c_server_list_model.html" target="_top" xlink:title="Server list model.">
<polygon fill="none" stroke="black" points="870.5,-907.5 870.5,-937.5 1016.5,-937.5 1016.5,-907.5 870.5,-907.5"/>
<text text-anchor="start" x="878.5" y="-925.5" font-family="Helvetica,sans-Serif" font-size="10.00">BlackGui::Models::CServer</text>
<text text-anchor="middle" x="943.5" y="-914.5" font-family="Helvetica,sans-Serif" font-size="10.00">ListModel</text>
</a>
</g>
</g>
<!-- Node26&#45;&gt;Node27 -->
<g id="edge26" class="edge">
<title>Node26&#45;&gt;Node27</title>
<path fill="none" stroke="midnightblue" d="M786.71,-904.73C814.2,-907.87 844.08,-911.27 870.25,-914.26"/>
<polygon fill="midnightblue" stroke="midnightblue" points="787.04,-901.25 776.71,-903.59 786.25,-908.2 787.04,-901.25"/>
</g>
<!-- Node29 -->
<g id="node29" class="node">
<title>Node29</title>
<g id="a_node29"><a xlink:href="class_black_gui_1_1_models_1_1_c_list_model_callsign_objects.html" target="_top" xlink:title="List model for callsign based objects (callsign is unique key)">
<polygon fill="none" stroke="black" points="848.5,-858.5 848.5,-888.5 1038.5,-888.5 1038.5,-858.5 848.5,-858.5"/>
<text text-anchor="start" x="856.5" y="-876.5" font-family="Helvetica,sans-Serif" font-size="10.00">BlackGui::Models::CListModel</text>
<text text-anchor="middle" x="943.5" y="-865.5" font-family="Helvetica,sans-Serif" font-size="10.00">CallsignObjects&lt; T, UseCompare &gt;</text>
</a>
</g>
</g>
<!-- Node28&#45;&gt;Node29 -->
<g id="edge28" class="edge">
<title>Node28&#45;&gt;Node29</title>
<path fill="none" stroke="midnightblue" d="M786.77,-846.86C808.93,-850.65 832.64,-854.71 854.71,-858.48"/>
<polygon fill="midnightblue" stroke="midnightblue" points="787.15,-843.37 776.71,-845.14 785.97,-850.27 787.15,-843.37"/>
</g>
<!-- Node30 -->
<g id="node30" class="node">
<title>Node30</title>
<g id="a_node30"><a xlink:href="class_black_gui_1_1_models_1_1_c_list_model_db_objects.html" target="_top" xlink:title="List model for DB objects.">
<polygon fill="none" stroke="black" points="855,-809.5 855,-839.5 1032,-839.5 1032,-809.5 855,-809.5"/>
<text text-anchor="start" x="863" y="-827.5" font-family="Helvetica,sans-Serif" font-size="10.00">BlackGui::Models::CListModel</text>
<text text-anchor="middle" x="943.5" y="-816.5" font-family="Helvetica,sans-Serif" font-size="10.00">DbObjects&lt; T, K, UseCompare &gt;</text>
</a>
</g>
</g>
<!-- Node28&#45;&gt;Node30 -->
<g id="edge29" class="edge">
<title>Node28&#45;&gt;Node30</title>
<path fill="none" stroke="midnightblue" d="M786.77,-828.94C808.93,-828.31 832.64,-827.63 854.71,-827"/>
<polygon fill="midnightblue" stroke="midnightblue" points="786.6,-825.44 776.71,-829.23 786.8,-832.44 786.6,-825.44"/>
</g>
<!-- Node35 -->
<g id="node33" class="node">
<title>Node35</title>
<g id="a_node33"><a xlink:href="class_black_gui_1_1_models_1_1_c_list_model_timestamp_objects.html" target="_top" xlink:title="List model for timestamp based objects with offset.">
<polygon fill="none" stroke="red" points="840.5,-760.5 840.5,-790.5 1046.5,-790.5 1046.5,-760.5 840.5,-760.5"/>
<text text-anchor="start" x="848.5" y="-778.5" font-family="Helvetica,sans-Serif" font-size="10.00">BlackGui::Models::CListModel</text>
<text text-anchor="middle" x="943.5" y="-767.5" font-family="Helvetica,sans-Serif" font-size="10.00">TimestampObjects&lt; T, UseCompare &gt;</text>
</a>
</g>
</g>
<!-- Node28&#45;&gt;Node35 -->
<g id="edge32" class="edge">
<title>Node28&#45;&gt;Node35</title>
<path fill="none" stroke="midnightblue" d="M768.13,-814.03C788.12,-809.21 809.89,-804.06 830,-799.5 843.15,-796.52 857.18,-793.44 870.72,-790.52"/>
<polygon fill="midnightblue" stroke="midnightblue" points="767.07,-810.68 758.17,-816.43 768.71,-817.49 767.07,-810.68"/>
</g>
<!-- Node31 -->
<g id="node31" class="node">
<title>Node31</title>
<g id="a_node31"><a xlink:href="class_black_gui_1_1_models_1_1_c_orderable_list_model_db_objects.html" target="_top" xlink:title=" ">
<polygon fill="none" stroke="red" points="1113,-869.5 1113,-921.5 1288,-921.5 1288,-869.5 1113,-869.5"/>
<text text-anchor="start" x="1121" y="-909.5" font-family="Helvetica,sans-Serif" font-size="10.00">BlackGui::Models::COrderable</text>
<text text-anchor="start" x="1121" y="-898.5" font-family="Helvetica,sans-Serif" font-size="10.00">ListModelDbObjects&lt; BlackMisc</text>
<text text-anchor="start" x="1121" y="-887.5" font-family="Helvetica,sans-Serif" font-size="10.00">::Simulation::CDistributorList,</text>
<text text-anchor="middle" x="1200.5" y="-876.5" font-family="Helvetica,sans-Serif" font-size="10.00"> QString, true &gt;</text>
</a>
</g>
</g>
<!-- Node30&#45;&gt;Node31 -->
<g id="edge30" class="edge">
<title>Node30&#45;&gt;Node31</title>
<path fill="none" stroke="midnightblue" d="M1030.24,-841.78C1039.31,-843.91 1048.36,-846.16 1057,-848.5 1070.2,-852.07 1096.55,-860.62 1123.03,-869.46"/>
<polygon fill="midnightblue" stroke="midnightblue" points="1030.94,-838.35 1020.41,-839.52 1029.38,-845.17 1030.94,-838.35"/>
</g>
<!-- Node33 -->
<g id="node32" class="node">
<title>Node33</title>
<g id="a_node32"><a xlink:href="class_black_gui_1_1_models_1_1_c_orderable_list_model_db_objects.html" target="_top" xlink:title=" ">
<polygon fill="none" stroke="red" points="1113,-798.5 1113,-850.5 1288,-850.5 1288,-798.5 1113,-798.5"/>
<text text-anchor="start" x="1121" y="-838.5" font-family="Helvetica,sans-Serif" font-size="10.00">BlackGui::Models::COrderable</text>
<text text-anchor="start" x="1121" y="-827.5" font-family="Helvetica,sans-Serif" font-size="10.00">ListModelDbObjects&lt; BlackMisc</text>
<text text-anchor="start" x="1121" y="-816.5" font-family="Helvetica,sans-Serif" font-size="10.00">::Simulation::CAircraftModelList,</text>
<text text-anchor="middle" x="1200.5" y="-805.5" font-family="Helvetica,sans-Serif" font-size="10.00"> int, true &gt;</text>
</a>
</g>
</g>
<!-- Node30&#45;&gt;Node33 -->
<g id="edge31" class="edge">
<title>Node30&#45;&gt;Node33</title>
<path fill="none" stroke="midnightblue" d="M1042.45,-824.5C1065.65,-824.5 1090.23,-824.5 1112.88,-824.5"/>
<polygon fill="midnightblue" stroke="midnightblue" points="1042.26,-821 1032.26,-824.5 1042.26,-828 1042.26,-821"/>
</g>
<!-- Node36 -->
<g id="node34" class="node">
<title>Node36</title>
<g id="a_node34"><a xlink:href="class_black_gui_1_1_models_1_1_c_list_model_timestamp_with_offset_objects.html" target="_top" xlink:title=" ">
<polygon fill="none" stroke="red" points="1093,-727.5 1093,-779.5 1308,-779.5 1308,-727.5 1093,-727.5"/>
<text text-anchor="start" x="1101" y="-767.5" font-family="Helvetica,sans-Serif" font-size="10.00">BlackGui::Models::CListModel</text>
<text text-anchor="start" x="1101" y="-756.5" font-family="Helvetica,sans-Serif" font-size="10.00">TimestampWithOffsetObjects</text>
<text text-anchor="start" x="1101" y="-745.5" font-family="Helvetica,sans-Serif" font-size="10.00">&lt; BlackMisc::Aviation::CAircraftSituation</text>
<text text-anchor="middle" x="1200.5" y="-734.5" font-family="Helvetica,sans-Serif" font-size="10.00">List, true &gt;</text>
</a>
</g>
</g>
<!-- Node35&#45;&gt;Node36 -->
<g id="edge33" class="edge">
<title>Node35&#45;&gt;Node36</title>
<path fill="none" stroke="midnightblue" d="M1056.72,-765.82C1068.66,-764.79 1080.77,-763.74 1092.64,-762.72"/>
<polygon fill="midnightblue" stroke="midnightblue" points="1056.41,-762.33 1046.75,-766.68 1057.01,-769.31 1056.41,-762.33"/>
</g>
<!-- Node43 -->
<g id="node36" class="node">
<title>Node43</title>
<g id="a_node36"><a xlink:href="class_black_gui_1_1_models_1_1_c_client_list_model.html" target="_top" xlink:title="Client list model.">
<polygon fill="none" stroke="black" points="872,-711.5 872,-741.5 1015,-741.5 1015,-711.5 872,-711.5"/>
<text text-anchor="start" x="880" y="-729.5" font-family="Helvetica,sans-Serif" font-size="10.00">BlackGui::Models::CClient</text>
<text text-anchor="middle" x="943.5" y="-718.5" font-family="Helvetica,sans-Serif" font-size="10.00">ListModel</text>
</a>
</g>
</g>
<!-- Node42&#45;&gt;Node43 -->
<g id="edge35" class="edge">
<title>Node42&#45;&gt;Node43</title>
<path fill="none" stroke="midnightblue" d="M786.9,-742.34C814.91,-739.49 845.39,-736.39 871.88,-733.69"/>
<polygon fill="midnightblue" stroke="midnightblue" points="786.3,-738.89 776.71,-743.38 787.01,-745.85 786.3,-738.89"/>
</g>
<!-- Node45 -->
<g id="node38" class="node">
<title>Node45</title>
<g id="a_node38"><a xlink:href="class_black_gui_1_1_models_1_1_c_list_model_callsign_objects.html" target="_top" xlink:title=" ">
<polygon fill="none" stroke="red" points="830,-651 830,-692 1057,-692 1057,-651 830,-651"/>
<text text-anchor="start" x="838" y="-680" font-family="Helvetica,sans-Serif" font-size="10.00">BlackGui::Models::CListModel</text>
<text text-anchor="start" x="838" y="-669" font-family="Helvetica,sans-Serif" font-size="10.00">CallsignObjects&lt; BlackMisc</text>
<text text-anchor="middle" x="943.5" y="-658" font-family="Helvetica,sans-Serif" font-size="10.00">::Simulation::CSimulatedAircraftList, true &gt;</text>
</a>
</g>
</g>
<!-- Node44&#45;&gt;Node45 -->
<g id="edge37" class="edge">
<title>Node44&#45;&gt;Node45</title>
<path fill="none" stroke="midnightblue" d="M701.98,-395.51C713.98,-449.12 749.67,-575.53 830,-641.5 834.3,-645.03 838.97,-648.14 843.88,-650.9"/>
<polygon fill="midnightblue" stroke="midnightblue" points="705.35,-394.56 699.83,-385.52 698.51,-396.03 705.35,-394.56"/>
</g>
<!-- Node47 -->
<g id="node39" class="node">
<title>Node47</title>
<g id="a_node39"><a xlink:href="class_black_gui_1_1_models_1_1_c_list_model_callsign_objects.html" target="_top" xlink:title=" ">
<polygon fill="none" stroke="red" points="854,-591 854,-632 1033,-632 1033,-591 854,-591"/>
<text text-anchor="start" x="862" y="-620" font-family="Helvetica,sans-Serif" font-size="10.00">BlackGui::Models::CListModel</text>
<text text-anchor="start" x="862" y="-609" font-family="Helvetica,sans-Serif" font-size="10.00">CallsignObjects&lt; BlackMisc</text>
<text text-anchor="middle" x="943.5" y="-598" font-family="Helvetica,sans-Serif" font-size="10.00">::Aviation::CAtcStationList, true &gt;</text>
</a>
</g>
</g>
<!-- Node44&#45;&gt;Node47 -->
<g id="edge38" class="edge">
<title>Node44&#45;&gt;Node47</title>
<path fill="none" stroke="midnightblue" d="M705.76,-395.27C722.66,-439.42 764.03,-531.63 830,-580.5 837.24,-585.87 845.37,-590.3 853.85,-593.97"/>
<polygon fill="midnightblue" stroke="midnightblue" points="708.94,-393.78 702.17,-385.63 702.38,-396.22 708.94,-393.78"/>
</g>
<!-- Node49 -->
<g id="node40" class="node">
<title>Node49</title>
<g id="a_node40"><a xlink:href="class_black_gui_1_1_models_1_1_c_list_model_callsign_objects.html" target="_top" xlink:title=" ">
<polygon fill="none" stroke="red" points="844.5,-519.5 844.5,-571.5 1042.5,-571.5 1042.5,-519.5 844.5,-519.5"/>
<text text-anchor="start" x="852.5" y="-559.5" font-family="Helvetica,sans-Serif" font-size="10.00">BlackGui::Models::CListModel</text>
<text text-anchor="start" x="852.5" y="-548.5" font-family="Helvetica,sans-Serif" font-size="10.00">CallsignObjects&lt; BlackMisc</text>
<text text-anchor="start" x="852.5" y="-537.5" font-family="Helvetica,sans-Serif" font-size="10.00">::Simulation::CInterpolationSetupList,</text>
<text text-anchor="middle" x="943.5" y="-526.5" font-family="Helvetica,sans-Serif" font-size="10.00"> false &gt;</text>
</a>
</g>
</g>
<!-- Node44&#45;&gt;Node49 -->
<g id="edge39" class="edge">
<title>Node44&#45;&gt;Node49</title>
<path fill="none" stroke="midnightblue" d="M713.73,-394.27C736.61,-425.1 780.51,-478.57 830,-509.5 835.83,-513.14 842.05,-516.45 848.48,-519.44"/>
<polygon fill="midnightblue" stroke="midnightblue" points="716.31,-391.86 707.59,-385.85 710.65,-395.99 716.31,-391.86"/>
</g>
<!-- Node51 -->
<g id="node41" class="node">
<title>Node51</title>
<g id="a_node41"><a xlink:href="class_black_gui_1_1_models_1_1_c_list_model_db_objects.html" target="_top" xlink:title=" ">
<polygon fill="none" stroke="red" points="863,-470.5 863,-500.5 1024,-500.5 1024,-470.5 863,-470.5"/>
<text text-anchor="start" x="871" y="-488.5" font-family="Helvetica,sans-Serif" font-size="10.00">BlackGui::Models::CListModel</text>
<text text-anchor="middle" x="943.5" y="-477.5" font-family="Helvetica,sans-Serif" font-size="10.00">DbObjects&lt; T, K, false &gt;</text>
</a>
</g>
</g>
<!-- Node44&#45;&gt;Node51 -->
<g id="edge40" class="edge">
<title>Node44&#45;&gt;Node51</title>
<path fill="none" stroke="midnightblue" d="M722.7,-392.26C748.3,-412.83 789.51,-443.06 830,-460.5 840.38,-464.97 851.66,-468.69 862.94,-471.76"/>
<polygon fill="midnightblue" stroke="midnightblue" points="724.61,-389.29 714.64,-385.69 720.18,-394.72 724.61,-389.29"/>
</g>
<!-- Node53 -->
<g id="node42" class="node">
<title>Node53</title>
<g id="a_node42"><a xlink:href="class_black_gui_1_1_models_1_1_c_list_model_db_objects.html" target="_top" xlink:title=" ">
<polygon fill="none" stroke="red" points="844,-410 844,-451 1043,-451 1043,-410 844,-410"/>
<text text-anchor="start" x="852" y="-439" font-family="Helvetica,sans-Serif" font-size="10.00">BlackGui::Models::CListModel</text>
<text text-anchor="start" x="852" y="-428" font-family="Helvetica,sans-Serif" font-size="10.00">DbObjects&lt; BlackMisc::CCountryList,</text>
<text text-anchor="middle" x="943.5" y="-417" font-family="Helvetica,sans-Serif" font-size="10.00"> QString, true &gt;</text>
</a>
</g>
</g>
<!-- Node44&#45;&gt;Node53 -->
<g id="edge41" class="edge">
<title>Node44&#45;&gt;Node53</title>
<path fill="none" stroke="midnightblue" d="M768.41,-387.95C796.63,-394.85 829.25,-402.82 858.57,-409.99"/>
<polygon fill="midnightblue" stroke="midnightblue" points="769.18,-384.54 758.63,-385.56 767.52,-391.34 769.18,-384.54"/>
</g>
<!-- Node55 -->
<g id="node43" class="node">
<title>Node55</title>
<g id="a_node43"><a xlink:href="class_black_gui_1_1_models_1_1_c_list_model_db_objects.html" target="_top" xlink:title=" ">
<polygon fill="none" stroke="red" points="854,-350 854,-391 1033,-391 1033,-350 854,-350"/>
<text text-anchor="start" x="862" y="-379" font-family="Helvetica,sans-Serif" font-size="10.00">BlackGui::Models::CListModel</text>
<text text-anchor="start" x="862" y="-368" font-family="Helvetica,sans-Serif" font-size="10.00">DbObjects&lt; BlackMisc::Aviation</text>
<text text-anchor="middle" x="943.5" y="-357" font-family="Helvetica,sans-Serif" font-size="10.00">::CAirlineIcaoCodeList, int, true &gt;</text>
</a>
</g>
</g>
<!-- Node44&#45;&gt;Node55 -->
<g id="edge42" class="edge">
<title>Node44&#45;&gt;Node55</title>
<path fill="none" stroke="midnightblue" d="M786.95,-370.5C808.77,-370.5 832.09,-370.5 853.85,-370.5"/>
<polygon fill="midnightblue" stroke="midnightblue" points="786.71,-367 776.71,-370.5 786.71,-374 786.71,-367"/>
</g>
<!-- Node57 -->
<g id="node44" class="node">
<title>Node57</title>
<g id="a_node44"><a xlink:href="class_black_gui_1_1_models_1_1_c_list_model_db_objects.html" target="_top" xlink:title=" ">
<polygon fill="none" stroke="red" points="852.5,-290 852.5,-331 1034.5,-331 1034.5,-290 852.5,-290"/>
<text text-anchor="start" x="860.5" y="-319" font-family="Helvetica,sans-Serif" font-size="10.00">BlackGui::Models::CListModel</text>
<text text-anchor="start" x="860.5" y="-308" font-family="Helvetica,sans-Serif" font-size="10.00">DbObjects&lt; BlackMisc::Aviation</text>
<text text-anchor="middle" x="943.5" y="-297" font-family="Helvetica,sans-Serif" font-size="10.00">::CAircraftIcaoCodeList, int, true &gt;</text>
</a>
</g>
</g>
<!-- Node44&#45;&gt;Node57 -->
<g id="edge43" class="edge">
<title>Node44&#45;&gt;Node57</title>
<path fill="none" stroke="midnightblue" d="M768.41,-353.05C796.63,-346.15 829.25,-338.18 858.57,-331.01"/>
<polygon fill="midnightblue" stroke="midnightblue" points="767.52,-349.66 758.63,-355.44 769.18,-356.46 767.52,-349.66"/>
</g>
<!-- Node59 -->
<g id="node45" class="node">
<title>Node59</title>
<g id="a_node45"><a xlink:href="class_black_gui_1_1_models_1_1_c_list_model_db_objects.html" target="_top" xlink:title=" ">
<polygon fill="none" stroke="red" points="857,-230 857,-271 1030,-271 1030,-230 857,-230"/>
<text text-anchor="start" x="865" y="-259" font-family="Helvetica,sans-Serif" font-size="10.00">BlackGui::Models::CListModel</text>
<text text-anchor="start" x="865" y="-248" font-family="Helvetica,sans-Serif" font-size="10.00">DbObjects&lt; BlackMisc::Aviation</text>
<text text-anchor="middle" x="943.5" y="-237" font-family="Helvetica,sans-Serif" font-size="10.00">::CLiveryList, int, true &gt;</text>
</a>
</g>
</g>
<!-- Node44&#45;&gt;Node59 -->
<g id="edge44" class="edge">
<title>Node44&#45;&gt;Node59</title>
<path fill="none" stroke="midnightblue" d="M723.31,-348.77C749.05,-328.48 790.11,-298.68 830,-280.5 838.55,-276.6 847.71,-273.13 856.97,-270.06"/>
<polygon fill="midnightblue" stroke="midnightblue" points="720.82,-346.28 715.19,-355.25 725.18,-351.75 720.82,-346.28"/>
</g>
<!-- Node61 -->
<g id="node46" class="node">
<title>Node61</title>
<g id="a_node46"><a xlink:href="class_black_gui_1_1_models_1_1_c_list_model_db_objects.html" target="_top" xlink:title=" ">
<polygon fill="none" stroke="red" points="852.5,-170 852.5,-211 1034.5,-211 1034.5,-170 852.5,-170"/>
<text text-anchor="start" x="860.5" y="-199" font-family="Helvetica,sans-Serif" font-size="10.00">BlackGui::Models::CListModel</text>
<text text-anchor="start" x="860.5" y="-188" font-family="Helvetica,sans-Serif" font-size="10.00">DbObjects&lt; BlackMisc::Aviation</text>
<text text-anchor="middle" x="943.5" y="-177" font-family="Helvetica,sans-Serif" font-size="10.00">::CAircraftCategoryList, int, true &gt;</text>
</a>
</g>
</g>
<!-- Node44&#45;&gt;Node61 -->
<g id="edge45" class="edge">
<title>Node44&#45;&gt;Node61</title>
<path fill="none" stroke="midnightblue" d="M711.75,-346.41C733.46,-313.01 777.21,-253.08 830,-220.5 836.97,-216.2 844.54,-212.51 852.37,-209.34"/>
<polygon fill="midnightblue" stroke="midnightblue" points="708.64,-344.77 706.22,-355.08 714.55,-348.53 708.64,-344.77"/>
</g>
<!-- Node63 -->
<g id="node47" class="node">
<title>Node63</title>
<g id="a_node47"><a xlink:href="class_black_gui_1_1_models_1_1_c_list_model_timestamp_objects.html" target="_top" xlink:title=" ">
<polygon fill="none" stroke="red" points="858.5,-110 858.5,-151 1028.5,-151 1028.5,-110 858.5,-110"/>
<text text-anchor="start" x="866.5" y="-139" font-family="Helvetica,sans-Serif" font-size="10.00">BlackGui::Models::CListModel</text>
<text text-anchor="start" x="866.5" y="-128" font-family="Helvetica,sans-Serif" font-size="10.00">TimestampObjects&lt; BlackMisc</text>
<text text-anchor="middle" x="943.5" y="-117" font-family="Helvetica,sans-Serif" font-size="10.00">::CStatusMessageList, true &gt;</text>
</a>
</g>
</g>
<!-- Node44&#45;&gt;Node63 -->
<g id="edge46" class="edge">
<title>Node44&#45;&gt;Node63</title>
<path fill="none" stroke="midnightblue" d="M705.61,-345.95C722.38,-301.83 763.69,-209.2 830,-160.5 838.55,-154.22 848.33,-149.25 858.47,-145.32"/>
<polygon fill="midnightblue" stroke="midnightblue" points="702.33,-344.74 702.14,-355.34 708.89,-347.17 702.33,-344.74"/>
</g>
<!-- Node65 -->
<g id="node48" class="node">
<title>Node65</title>
<g id="a_node48"><a xlink:href="class_black_gui_1_1_models_1_1_c_list_model_timestamp_objects.html" target="_top" xlink:title=" ">
<polygon fill="none" stroke="red" points="846.5,-50 846.5,-91 1040.5,-91 1040.5,-50 846.5,-50"/>
<text text-anchor="start" x="854.5" y="-79" font-family="Helvetica,sans-Serif" font-size="10.00">BlackGui::Models::CListModel</text>
<text text-anchor="start" x="854.5" y="-68" font-family="Helvetica,sans-Serif" font-size="10.00">TimestampObjects&lt; BlackMisc</text>
<text text-anchor="middle" x="943.5" y="-57" font-family="Helvetica,sans-Serif" font-size="10.00">::Network::CTextMessageList, true &gt;</text>
</a>
</g>
</g>
<!-- Node44&#45;&gt;Node65 -->
<g id="edge47" class="edge">
<title>Node44&#45;&gt;Node65</title>
<path fill="none" stroke="midnightblue" d="M702.09,-345.2C714.24,-291.58 750.05,-166.06 830,-100.5 835,-96.4 840.51,-92.85 846.32,-89.79"/>
<polygon fill="midnightblue" stroke="midnightblue" points="698.62,-344.7 699.91,-355.21 705.46,-346.19 698.62,-344.7"/>
</g>
<!-- Node67 -->
<g id="node49" class="node">
<title>Node67</title>
<g id="a_node49"><a xlink:href="class_black_gui_1_1_models_1_1_c_list_model_timestamp_objects.html" target="_top" xlink:title=" ">
<polygon fill="none" stroke="red" points="860,-0.5 860,-30.5 1027,-30.5 1027,-0.5 860,-0.5"/>
<text text-anchor="start" x="868" y="-18.5" font-family="Helvetica,sans-Serif" font-size="10.00">BlackGui::Models::CListModel</text>
<text text-anchor="middle" x="943.5" y="-7.5" font-family="Helvetica,sans-Serif" font-size="10.00">TimestampObjects&lt; T, false &gt;</text>
</a>
</g>
</g>
<!-- Node44&#45;&gt;Node67 -->
<g id="edge48" class="edge">
<title>Node44&#45;&gt;Node67</title>
<path fill="none" stroke="midnightblue" d="M699.36,-345.06C706.56,-282.79 733.99,-121.89 830,-40.5 838.62,-33.19 848.92,-27.89 859.73,-24.07"/>
<polygon fill="midnightblue" stroke="midnightblue" points="695.86,-344.85 698.27,-355.17 702.82,-345.6 695.86,-344.85"/>
</g>
</g>
</svg>
