<?xml version="1.0" encoding="UTF-8" standalone="no"?>
<!DOCTYPE svg PUBLIC "-//W3C//DTD SVG 1.1//EN"
 "http://www.w3.org/Graphics/SVG/1.1/DTD/svg11.dtd">
<!-- Generated by graphviz version 2.43.0 (0)
 -->
<!-- Title: BlackGui::Components::CSettingsSwiftPlugin Pages: 1 -->
<svg width="164pt" height="207pt"
 viewBox="0.00 0.00 164.00 207.00" xmlns="http://www.w3.org/2000/svg" xmlns:xlink="http://www.w3.org/1999/xlink">
<g id="graph0" class="graph" transform="scale(1 1) rotate(0) translate(4 203)">
<title>BlackGui::Components::CSettingsSwiftPlugin</title>
<!-- Node1 -->
<g id="node1" class="node">
<title>Node1</title>
<g id="a_node1"><a xlink:title="Settings for the swift pseudo driver.">
<polygon fill="#bfbfbf" stroke="black" points="7,-0.5 7,-30.5 135,-30.5 135,-0.5 7,-0.5"/>
<text text-anchor="start" x="15" y="-18.5" font-family="Helvetica,sans-Serif" font-size="10.00">BlackGui::Components</text>
<text text-anchor="middle" x="71" y="-7.5" font-family="Helvetica,sans-Serif" font-size="10.00">::CSettingsSwiftPlugin</text>
</a>
</g>
</g>
<!-- Node2 -->
<g id="node2" class="node">
<title>Node2</title>
<g id="a_node2"><a target="_parent" xlink:href="http://doc.qt.io/qt-5/qframe.html" xlink:title=" ">
<polygon fill="none" stroke="black" points="43.5,-67.5 43.5,-86.5 98.5,-86.5 98.5,-67.5 43.5,-67.5"/>
<text text-anchor="middle" x="71" y="-74.5" font-family="Helvetica,sans-Serif" font-size="10.00">QFrame</text>
</a>
</g>
</g>
<!-- Node2&#45;&gt;Node1 -->
<g id="edge1" class="edge">
<title>Node2&#45;&gt;Node1</title>
<path fill="none" stroke="midnightblue" d="M71,-57.23C71,-48.59 71,-38.5 71,-30.52"/>
<polygon fill="midnightblue" stroke="midnightblue" points="67.5,-57.48 71,-67.48 74.5,-57.48 67.5,-57.48"/>
</g>
<!-- Node3 -->
<g id="node3" class="node">
<title>Node3</title>
<g id="a_node3"><a target="_parent" xlink:href="http://doc.qt.io/qt-5/qwidget.html" xlink:title=" ">
<polygon fill="none" stroke="black" points="41.5,-123.5 41.5,-142.5 100.5,-142.5 100.5,-123.5 41.5,-123.5"/>
<text text-anchor="middle" x="71" y="-130.5" font-family="Helvetica,sans-Serif" font-size="10.00">QWidget</text>
</a>
</g>
</g>
<!-- Node3&#45;&gt;Node2 -->
<g id="edge2" class="edge">
<title>Node3&#45;&gt;Node2</title>
<path fill="none" stroke="midnightblue" d="M71,-112.8C71,-103.91 71,-93.78 71,-86.75"/>
<polygon fill="midnightblue" stroke="midnightblue" points="67.5,-113.08 71,-123.08 74.5,-113.08 67.5,-113.08"/>
</g>
<!-- Node4 -->
<g id="node4" class="node">
<title>Node4</title>
<g id="a_node4"><a target="_parent" xlink:href="http://doc.qt.io/qt-5/qobject.html" xlink:title=" ">
<polygon fill="none" stroke="black" points="0,-179.5 0,-198.5 56,-198.5 56,-179.5 0,-179.5"/>
<text text-anchor="middle" x="28" y="-186.5" font-family="Helvetica,sans-Serif" font-size="10.00">QObject</text>
</a>
</g>
</g>
<!-- Node4&#45;&gt;Node3 -->
<g id="edge3" class="edge">
<title>Node4&#45;&gt;Node3</title>
<path fill="none" stroke="midnightblue" d="M41.42,-171.14C48.91,-161.74 57.94,-150.4 64.03,-142.75"/>
<polygon fill="midnightblue" stroke="midnightblue" points="38.59,-169.08 35.1,-179.08 44.07,-173.44 38.59,-169.08"/>
</g>
<!-- Node5 -->
<g id="node5" class="node">
<title>Node5</title>
<g id="a_node5"><a target="_parent" xlink:href="http://doc.qt.io/qt-5/qpaintdevice.html" xlink:title=" ">
<polygon fill="none" stroke="black" points="74,-179.5 74,-198.5 156,-198.5 156,-179.5 74,-179.5"/>
<text text-anchor="middle" x="115" y="-186.5" font-family="Helvetica,sans-Serif" font-size="10.00">QPaintDevice</text>
</a>
</g>
</g>
<!-- Node5&#45;&gt;Node3 -->
<g id="edge4" class="edge">
<title>Node5&#45;&gt;Node3</title>
<path fill="none" stroke="midnightblue" d="M101.27,-171.14C93.6,-161.74 84.37,-150.4 78.13,-142.75"/>
<polygon fill="midnightblue" stroke="midnightblue" points="98.7,-173.54 107.73,-179.08 104.13,-169.12 98.7,-173.54"/>
</g>
</g>
</svg>
