<?xml version="1.0" encoding="UTF-8" standalone="no"?>
<!DOCTYPE svg PUBLIC "-//W3C//DTD SVG 1.1//EN"
 "http://www.w3.org/Graphics/SVG/1.1/DTD/svg11.dtd">
<!-- Generated by graphviz version 2.43.0 (0)
 -->
<!-- Title: BlackMisc::CIcon Pages: 1 -->
<svg width="522pt" height="431pt"
 viewBox="0.00 0.00 522.00 431.00" xmlns="http://www.w3.org/2000/svg" xmlns:xlink="http://www.w3.org/1999/xlink">
<g id="graph0" class="graph" transform="scale(1 1) rotate(0) translate(4 427)">
<title>BlackMisc::CIcon</title>
<!-- Node1 -->
<g id="node1" class="node">
<title>Node1</title>
<g id="a_node1"><a xlink:title="Value object for icons. An icon is stored in the global icon repository and identified by its index....">
<polygon fill="#bfbfbf" stroke="black" points="415,-202 415,-221 514,-221 514,-202 415,-202"/>
<text text-anchor="middle" x="464.5" y="-209" font-family="Helvetica,sans-Serif" font-size="10.00">BlackMisc::CIcon</text>
</a>
</g>
</g>
<!-- Node2 -->
<g id="node2" class="node">
<title>Node2</title>
<g id="a_node2"><a xlink:href="class_black_misc_1_1_mixin_1_1_meta_type.html" target="_top" xlink:title=" ">
<polygon fill="none" stroke="black" points="221,-392.5 221,-422.5 373,-422.5 373,-392.5 221,-392.5"/>
<text text-anchor="start" x="229" y="-410.5" font-family="Helvetica,sans-Serif" font-size="10.00">BlackMisc::Mixin::MetaType</text>
<text text-anchor="middle" x="297" y="-399.5" font-family="Helvetica,sans-Serif" font-size="10.00">&lt; CIcon &gt;</text>
</a>
</g>
</g>
<!-- Node2&#45;&gt;Node1 -->
<g id="edge1" class="edge">
<title>Node2&#45;&gt;Node1</title>
<path fill="none" stroke="midnightblue" d="M374.28,-387.13C375.91,-385.99 377.49,-384.78 379,-383.5 432.64,-338.22 455.26,-250.73 461.56,-221.38"/>
<polygon fill="midnightblue" stroke="midnightblue" points="372.44,-384.15 365.71,-392.34 376.07,-390.14 372.44,-384.15"/>
</g>
<!-- Node3 -->
<g id="node3" class="node">
<title>Node3</title>
<g id="a_node3"><a xlink:href="class_black_misc_1_1_mixin_1_1_hash_by_meta_class.html" target="_top" xlink:title=" ">
<polygon fill="none" stroke="black" points="225.5,-343.5 225.5,-373.5 368.5,-373.5 368.5,-343.5 225.5,-343.5"/>
<text text-anchor="start" x="233.5" y="-361.5" font-family="Helvetica,sans-Serif" font-size="10.00">BlackMisc::Mixin::HashBy</text>
<text text-anchor="middle" x="297" y="-350.5" font-family="Helvetica,sans-Serif" font-size="10.00">MetaClass&lt; CIcon &gt;</text>
</a>
</g>
</g>
<!-- Node3&#45;&gt;Node1 -->
<g id="edge2" class="edge">
<title>Node3&#45;&gt;Node1</title>
<path fill="none" stroke="midnightblue" d="M372.51,-338.75C374.75,-337.42 376.92,-336.01 379,-334.5 421.54,-303.58 449.75,-244.36 459.6,-221.16"/>
<polygon fill="midnightblue" stroke="midnightblue" points="370.79,-335.7 363.55,-343.44 374.03,-341.9 370.79,-335.7"/>
</g>
<!-- Node4 -->
<g id="node4" class="node">
<title>Node4</title>
<g id="a_node4"><a xlink:href="class_black_misc_1_1_mixin_1_1_d_bus_by_meta_class.html" target="_top" xlink:title=" ">
<polygon fill="none" stroke="black" points="225.5,-294.5 225.5,-324.5 368.5,-324.5 368.5,-294.5 225.5,-294.5"/>
<text text-anchor="start" x="233.5" y="-312.5" font-family="Helvetica,sans-Serif" font-size="10.00">BlackMisc::Mixin::DBusBy</text>
<text text-anchor="middle" x="297" y="-301.5" font-family="Helvetica,sans-Serif" font-size="10.00">MetaClass&lt; CIcon &gt;</text>
</a>
</g>
</g>
<!-- Node4&#45;&gt;Node1 -->
<g id="edge3" class="edge">
<title>Node4&#45;&gt;Node1</title>
<path fill="none" stroke="midnightblue" d="M368.78,-290.56C372.3,-288.99 375.72,-287.31 379,-285.5 410.77,-267.99 440.98,-236.86 455.13,-221.15"/>
<polygon fill="midnightblue" stroke="midnightblue" points="367.24,-287.41 359.31,-294.44 369.89,-293.88 367.24,-287.41"/>
</g>
<!-- Node5 -->
<g id="node5" class="node">
<title>Node5</title>
<g id="a_node5"><a xlink:href="class_black_misc_1_1_mixin_1_1_d_bus_operators.html" target="_top" xlink:title="CRTP class template which will generate marshalling operators for a derived class with its own marsha...">
<polygon fill="none" stroke="black" points="0,-294.5 0,-324.5 179,-324.5 179,-294.5 0,-294.5"/>
<text text-anchor="start" x="8" y="-312.5" font-family="Helvetica,sans-Serif" font-size="10.00">BlackMisc::Mixin::DBusOperators</text>
<text text-anchor="middle" x="89.5" y="-301.5" font-family="Helvetica,sans-Serif" font-size="10.00">&lt; Derived,... &gt;</text>
</a>
</g>
</g>
<!-- Node5&#45;&gt;Node4 -->
<g id="edge4" class="edge">
<title>Node5&#45;&gt;Node4</title>
<path fill="none" stroke="midnightblue" d="M189.31,-309.5C201.46,-309.5 213.68,-309.5 225.29,-309.5"/>
<polygon fill="midnightblue" stroke="midnightblue" points="189.14,-306 179.14,-309.5 189.14,-313 189.14,-306"/>
</g>
<!-- Node6 -->
<g id="node6" class="node">
<title>Node6</title>
<g id="a_node6"><a xlink:href="class_black_misc_1_1_mixin_1_1_data_stream_by_meta_class.html" target="_top" xlink:title=" ">
<polygon fill="none" stroke="black" points="215,-245.5 215,-275.5 379,-275.5 379,-245.5 215,-245.5"/>
<text text-anchor="start" x="223" y="-263.5" font-family="Helvetica,sans-Serif" font-size="10.00">BlackMisc::Mixin::DataStream</text>
<text text-anchor="middle" x="297" y="-252.5" font-family="Helvetica,sans-Serif" font-size="10.00">ByMetaClass&lt; CIcon &gt;</text>
</a>
</g>
</g>
<!-- Node6&#45;&gt;Node1 -->
<g id="edge5" class="edge">
<title>Node6&#45;&gt;Node1</title>
<path fill="none" stroke="midnightblue" d="M358.61,-242.55C383.17,-235.28 410.54,-227.18 431.16,-221.08"/>
<polygon fill="midnightblue" stroke="midnightblue" points="357.6,-239.2 349.01,-245.4 359.59,-245.92 357.6,-239.2"/>
</g>
<!-- Node7 -->
<g id="node7" class="node">
<title>Node7</title>
<g id="a_node7"><a xlink:href="class_black_misc_1_1_mixin_1_1_data_stream_operators.html" target="_top" xlink:title="CRTP class template to generate non&#45;member QDataStream streaming operators.">
<polygon fill="none" stroke="black" points="7.5,-245.5 7.5,-275.5 171.5,-275.5 171.5,-245.5 7.5,-245.5"/>
<text text-anchor="start" x="15.5" y="-263.5" font-family="Helvetica,sans-Serif" font-size="10.00">BlackMisc::Mixin::DataStream</text>
<text text-anchor="middle" x="89.5" y="-252.5" font-family="Helvetica,sans-Serif" font-size="10.00">Operators&lt; Derived &gt;</text>
</a>
</g>
</g>
<!-- Node7&#45;&gt;Node6 -->
<g id="edge6" class="edge">
<title>Node7&#45;&gt;Node6</title>
<path fill="none" stroke="midnightblue" d="M181.74,-260.5C192.72,-260.5 203.87,-260.5 214.7,-260.5"/>
<polygon fill="midnightblue" stroke="midnightblue" points="181.72,-257 171.72,-260.5 181.72,-264 181.72,-257"/>
</g>
<!-- Node8 -->
<g id="node8" class="node">
<title>Node8</title>
<g id="a_node8"><a xlink:href="class_black_misc_1_1_mixin_1_1_json_by_meta_class.html" target="_top" xlink:title=" ">
<polygon fill="none" stroke="black" points="228,-196.5 228,-226.5 366,-226.5 366,-196.5 228,-196.5"/>
<text text-anchor="start" x="236" y="-214.5" font-family="Helvetica,sans-Serif" font-size="10.00">BlackMisc::Mixin::JsonBy</text>
<text text-anchor="middle" x="297" y="-203.5" font-family="Helvetica,sans-Serif" font-size="10.00">MetaClass&lt; CIcon &gt;</text>
</a>
</g>
</g>
<!-- Node8&#45;&gt;Node1 -->
<g id="edge7" class="edge">
<title>Node8&#45;&gt;Node1</title>
<path fill="none" stroke="midnightblue" d="M376.6,-211.5C389.55,-211.5 402.64,-211.5 414.59,-211.5"/>
<polygon fill="midnightblue" stroke="midnightblue" points="376.27,-208 366.27,-211.5 376.27,-215 376.27,-208"/>
</g>
<!-- Node9 -->
<g id="node9" class="node">
<title>Node9</title>
<g id="a_node9"><a xlink:href="class_black_misc_1_1_mixin_1_1_json_operators.html" target="_top" xlink:title="CRTP class template which will generate marshalling operators for a derived class with its own marsha...">
<polygon fill="none" stroke="black" points="3,-196.5 3,-226.5 176,-226.5 176,-196.5 3,-196.5"/>
<text text-anchor="start" x="11" y="-214.5" font-family="Helvetica,sans-Serif" font-size="10.00">BlackMisc::Mixin::JsonOperators</text>
<text text-anchor="middle" x="89.5" y="-203.5" font-family="Helvetica,sans-Serif" font-size="10.00">&lt; Derived &gt;</text>
</a>
</g>
</g>
<!-- Node9&#45;&gt;Node8 -->
<g id="edge8" class="edge">
<title>Node9&#45;&gt;Node8</title>
<path fill="none" stroke="midnightblue" d="M186.35,-211.5C200.41,-211.5 214.65,-211.5 227.99,-211.5"/>
<polygon fill="midnightblue" stroke="midnightblue" points="186.16,-208 176.16,-211.5 186.16,-215 186.16,-208"/>
</g>
<!-- Node10 -->
<g id="node10" class="node">
<title>Node10</title>
<g id="a_node10"><a xlink:href="class_black_misc_1_1_mixin_1_1_equals_by_meta_class.html" target="_top" xlink:title=" ">
<polygon fill="none" stroke="black" points="228.5,-147.5 228.5,-177.5 365.5,-177.5 365.5,-147.5 228.5,-147.5"/>
<text text-anchor="start" x="236.5" y="-165.5" font-family="Helvetica,sans-Serif" font-size="10.00">BlackMisc::Mixin::Equals</text>
<text text-anchor="middle" x="297" y="-154.5" font-family="Helvetica,sans-Serif" font-size="10.00">ByMetaClass&lt; CIcon &gt;</text>
</a>
</g>
</g>
<!-- Node10&#45;&gt;Node1 -->
<g id="edge9" class="edge">
<title>Node10&#45;&gt;Node1</title>
<path fill="none" stroke="midnightblue" d="M358.61,-180.45C383.17,-187.72 410.54,-195.82 431.16,-201.92"/>
<polygon fill="midnightblue" stroke="midnightblue" points="359.59,-177.08 349.01,-177.6 357.6,-183.8 359.59,-177.08"/>
</g>
<!-- Node11 -->
<g id="node11" class="node">
<title>Node11</title>
<g id="a_node11"><a xlink:href="class_black_misc_1_1_mixin_1_1_less_than_by_meta_class.html" target="_top" xlink:title=" ">
<polygon fill="none" stroke="black" points="221.5,-98.5 221.5,-128.5 372.5,-128.5 372.5,-98.5 221.5,-98.5"/>
<text text-anchor="start" x="229.5" y="-116.5" font-family="Helvetica,sans-Serif" font-size="10.00">BlackMisc::Mixin::LessThan</text>
<text text-anchor="middle" x="297" y="-105.5" font-family="Helvetica,sans-Serif" font-size="10.00">ByMetaClass&lt; CIcon &gt;</text>
</a>
</g>
</g>
<!-- Node11&#45;&gt;Node1 -->
<g id="edge10" class="edge">
<title>Node11&#45;&gt;Node1</title>
<path fill="none" stroke="midnightblue" d="M368.78,-132.44C372.3,-134.01 375.72,-135.69 379,-137.5 410.77,-155.01 440.98,-186.14 455.13,-201.85"/>
<polygon fill="midnightblue" stroke="midnightblue" points="369.89,-129.12 359.31,-128.56 367.24,-135.59 369.89,-129.12"/>
</g>
<!-- Node12 -->
<g id="node12" class="node">
<title>Node12</title>
<g id="a_node12"><a xlink:href="class_black_misc_1_1_mixin_1_1_compare_by_meta_class.html" target="_top" xlink:title=" ">
<polygon fill="none" stroke="black" points="222.5,-49.5 222.5,-79.5 371.5,-79.5 371.5,-49.5 222.5,-49.5"/>
<text text-anchor="start" x="230.5" y="-67.5" font-family="Helvetica,sans-Serif" font-size="10.00">BlackMisc::Mixin::Compare</text>
<text text-anchor="middle" x="297" y="-56.5" font-family="Helvetica,sans-Serif" font-size="10.00">ByMetaClass&lt; CIcon &gt;</text>
</a>
</g>
</g>
<!-- Node12&#45;&gt;Node1 -->
<g id="edge11" class="edge">
<title>Node12&#45;&gt;Node1</title>
<path fill="none" stroke="midnightblue" d="M372.51,-84.25C374.75,-85.58 376.92,-86.99 379,-88.5 421.54,-119.42 449.75,-178.64 459.6,-201.84"/>
<polygon fill="midnightblue" stroke="midnightblue" points="374.03,-81.1 363.55,-79.56 370.79,-87.3 374.03,-81.1"/>
</g>
<!-- Node13 -->
<g id="node13" class="node">
<title>Node13</title>
<g id="a_node13"><a xlink:href="class_black_misc_1_1_mixin_1_1_string.html" target="_top" xlink:title=" ">
<polygon fill="none" stroke="black" points="230,-0.5 230,-30.5 364,-30.5 364,-0.5 230,-0.5"/>
<text text-anchor="start" x="238" y="-18.5" font-family="Helvetica,sans-Serif" font-size="10.00">BlackMisc::Mixin::String</text>
<text text-anchor="middle" x="297" y="-7.5" font-family="Helvetica,sans-Serif" font-size="10.00">&lt; CIcon &gt;</text>
</a>
</g>
</g>
<!-- Node13&#45;&gt;Node1 -->
<g id="edge12" class="edge">
<title>Node13&#45;&gt;Node1</title>
<path fill="none" stroke="midnightblue" d="M372.81,-34.87C374.97,-36.3 377.04,-37.84 379,-39.5 432.64,-84.78 455.26,-172.27 461.56,-201.62"/>
<polygon fill="midnightblue" stroke="midnightblue" points="374.52,-31.81 364.11,-29.84 371.02,-37.88 374.52,-31.81"/>
</g>
</g>
</svg>
