<?xml version="1.0" encoding="UTF-8" standalone="no"?>
<!DOCTYPE svg PUBLIC "-//W3C//DTD SVG 1.1//EN"
 "http://www.w3.org/Graphics/SVG/1.1/DTD/svg11.dtd">
<!-- Generated by graphviz version 2.43.0 (0)
 -->
<!-- Title: BlackGui::CPluginDetailsWindow Pages: 1 -->
<svg width="164pt" height="151pt"
 viewBox="0.00 0.00 164.00 151.00" xmlns="http://www.w3.org/2000/svg" xmlns:xlink="http://www.w3.org/1999/xlink">
<g id="graph0" class="graph" transform="scale(1 1) rotate(0) translate(4 147)">
<title>BlackGui::CPluginDetailsWindow</title>
<!-- Node1 -->
<g id="node1" class="node">
<title>Node1</title>
<g id="a_node1"><a xlink:title="A window that shows plugin details.">
<polygon fill="#bfbfbf" stroke="black" points="2.5,-0.5 2.5,-30.5 139.5,-30.5 139.5,-0.5 2.5,-0.5"/>
<text text-anchor="start" x="10.5" y="-18.5" font-family="Helvetica,sans-Serif" font-size="10.00">BlackGui::CPluginDetails</text>
<text text-anchor="middle" x="71" y="-7.5" font-family="Helvetica,sans-Serif" font-size="10.00">Window</text>
</a>
</g>
</g>
<!-- Node2 -->
<g id="node2" class="node">
<title>Node2</title>
<g id="a_node2"><a target="_parent" xlink:href="http://doc.qt.io/qt-5/qwidget.html" xlink:title=" ">
<polygon fill="none" stroke="black" points="41.5,-67.5 41.5,-86.5 100.5,-86.5 100.5,-67.5 41.5,-67.5"/>
<text text-anchor="middle" x="71" y="-74.5" font-family="Helvetica,sans-Serif" font-size="10.00">QWidget</text>
</a>
</g>
</g>
<!-- Node2&#45;&gt;Node1 -->
<g id="edge1" class="edge">
<title>Node2&#45;&gt;Node1</title>
<path fill="none" stroke="midnightblue" d="M71,-57.23C71,-48.59 71,-38.5 71,-30.52"/>
<polygon fill="midnightblue" stroke="midnightblue" points="67.5,-57.48 71,-67.48 74.5,-57.48 67.5,-57.48"/>
</g>
<!-- Node3 -->
<g id="node3" class="node">
<title>Node3</title>
<g id="a_node3"><a target="_parent" xlink:href="http://doc.qt.io/qt-5/qobject.html" xlink:title=" ">
<polygon fill="none" stroke="black" points="0,-123.5 0,-142.5 56,-142.5 56,-123.5 0,-123.5"/>
<text text-anchor="middle" x="28" y="-130.5" font-family="Helvetica,sans-Serif" font-size="10.00">QObject</text>
</a>
</g>
</g>
<!-- Node3&#45;&gt;Node2 -->
<g id="edge2" class="edge">
<title>Node3&#45;&gt;Node2</title>
<path fill="none" stroke="midnightblue" d="M41.42,-115.14C48.91,-105.74 57.94,-94.4 64.03,-86.75"/>
<polygon fill="midnightblue" stroke="midnightblue" points="38.59,-113.08 35.1,-123.08 44.07,-117.44 38.59,-113.08"/>
</g>
<!-- Node4 -->
<g id="node4" class="node">
<title>Node4</title>
<g id="a_node4"><a target="_parent" xlink:href="http://doc.qt.io/qt-5/qpaintdevice.html" xlink:title=" ">
<polygon fill="none" stroke="black" points="74,-123.5 74,-142.5 156,-142.5 156,-123.5 74,-123.5"/>
<text text-anchor="middle" x="115" y="-130.5" font-family="Helvetica,sans-Serif" font-size="10.00">QPaintDevice</text>
</a>
</g>
</g>
<!-- Node4&#45;&gt;Node2 -->
<g id="edge3" class="edge">
<title>Node4&#45;&gt;Node2</title>
<path fill="none" stroke="midnightblue" d="M101.27,-115.14C93.6,-105.74 84.37,-94.4 78.13,-86.75"/>
<polygon fill="midnightblue" stroke="midnightblue" points="98.7,-117.54 107.73,-123.08 104.13,-113.12 98.7,-117.54"/>
</g>
</g>
</svg>
