<?xml version="1.0" encoding="UTF-8" standalone="no"?>
<!DOCTYPE svg PUBLIC "-//W3C//DTD SVG 1.1//EN"
 "http://www.w3.org/Graphics/SVG/1.1/DTD/svg11.dtd">
<!-- Generated by graphviz version 2.43.0 (0)
 -->
<!-- Title: BlackGui::Filters::CStatusMessageFilterDialog Pages: 1 -->
<svg width="646pt" height="113pt"
 viewBox="0.00 0.00 646.00 113.00" xmlns="http://www.w3.org/2000/svg" xmlns:xlink="http://www.w3.org/1999/xlink">
<g id="graph0" class="graph" transform="scale(1 1) rotate(0) translate(4 109)">
<title>BlackGui::Filters::CStatusMessageFilterDialog</title>
<!-- Node1 -->
<g id="node1" class="node">
<title>Node1</title>
<g id="a_node1"><a xlink:title="Form for a status message filter.">
<polygon fill="#bfbfbf" stroke="black" points="484,-33 484,-63 638,-63 638,-33 484,-33"/>
<text text-anchor="start" x="492" y="-51" font-family="Helvetica,sans-Serif" font-size="10.00">BlackGui::Filters::</text>
<text text-anchor="middle" x="561" y="-40" font-family="Helvetica,sans-Serif" font-size="10.00">CStatusMessageFilterDialog</text>
</a>
</g>
</g>
<!-- Node2 -->
<g id="node2" class="node">
<title>Node2</title>
<g id="a_node2"><a xlink:href="class_black_gui_1_1_filters_1_1_c_filter_dialog.html" target="_top" xlink:title="Base for filter dialog.">
<polygon fill="none" stroke="black" points="325.5,-61 325.5,-91 427.5,-91 427.5,-61 325.5,-61"/>
<text text-anchor="start" x="333.5" y="-79" font-family="Helvetica,sans-Serif" font-size="10.00">BlackGui::Filters::</text>
<text text-anchor="middle" x="376.5" y="-68" font-family="Helvetica,sans-Serif" font-size="10.00">CFilterDialog</text>
</a>
</g>
</g>
<!-- Node2&#45;&gt;Node1 -->
<g id="edge1" class="edge">
<title>Node2&#45;&gt;Node1</title>
<path fill="none" stroke="midnightblue" d="M437.82,-66.74C452.54,-64.49 468.47,-62.04 483.82,-59.69"/>
<polygon fill="midnightblue" stroke="midnightblue" points="437.21,-63.3 427.85,-68.27 438.27,-70.22 437.21,-63.3"/>
</g>
<!-- Node3 -->
<g id="node3" class="node">
<title>Node3</title>
<g id="a_node3"><a target="_parent" xlink:href="http://doc.qt.io/qt-5/qdialog.html" xlink:title=" ">
<polygon fill="none" stroke="black" points="213,-66.5 213,-85.5 269,-85.5 269,-66.5 213,-66.5"/>
<text text-anchor="middle" x="241" y="-73.5" font-family="Helvetica,sans-Serif" font-size="10.00">QDialog</text>
</a>
</g>
</g>
<!-- Node3&#45;&gt;Node2 -->
<g id="edge2" class="edge">
<title>Node3&#45;&gt;Node2</title>
<path fill="none" stroke="midnightblue" d="M279.41,-76C293.63,-76 310.08,-76 325.3,-76"/>
<polygon fill="midnightblue" stroke="midnightblue" points="279.02,-72.5 269.02,-76 279.02,-79.5 279.02,-72.5"/>
</g>
<!-- Node4 -->
<g id="node4" class="node">
<title>Node4</title>
<g id="a_node4"><a target="_parent" xlink:href="http://doc.qt.io/qt-5/qwidget.html" xlink:title=" ">
<polygon fill="none" stroke="black" points="118,-66.5 118,-85.5 177,-85.5 177,-66.5 118,-66.5"/>
<text text-anchor="middle" x="147.5" y="-73.5" font-family="Helvetica,sans-Serif" font-size="10.00">QWidget</text>
</a>
</g>
</g>
<!-- Node4&#45;&gt;Node3 -->
<g id="edge3" class="edge">
<title>Node4&#45;&gt;Node3</title>
<path fill="none" stroke="midnightblue" d="M187.58,-76C196.07,-76 204.88,-76 212.79,-76"/>
<polygon fill="midnightblue" stroke="midnightblue" points="187.45,-72.5 177.45,-76 187.45,-79.5 187.45,-72.5"/>
</g>
<!-- Node5 -->
<g id="node5" class="node">
<title>Node5</title>
<g id="a_node5"><a target="_parent" xlink:href="http://doc.qt.io/qt-5/qobject.html" xlink:title=" ">
<polygon fill="none" stroke="black" points="13,-85.5 13,-104.5 69,-104.5 69,-85.5 13,-85.5"/>
<text text-anchor="middle" x="41" y="-92.5" font-family="Helvetica,sans-Serif" font-size="10.00">QObject</text>
</a>
</g>
</g>
<!-- Node5&#45;&gt;Node4 -->
<g id="edge4" class="edge">
<title>Node5&#45;&gt;Node4</title>
<path fill="none" stroke="midnightblue" d="M79.09,-88.26C91.88,-85.93 106,-83.36 117.99,-81.18"/>
<polygon fill="midnightblue" stroke="midnightblue" points="78.4,-84.83 69.18,-90.06 79.65,-91.71 78.4,-84.83"/>
</g>
<!-- Node6 -->
<g id="node6" class="node">
<title>Node6</title>
<g id="a_node6"><a target="_parent" xlink:href="http://doc.qt.io/qt-5/qpaintdevice.html" xlink:title=" ">
<polygon fill="none" stroke="black" points="0,-47.5 0,-66.5 82,-66.5 82,-47.5 0,-47.5"/>
<text text-anchor="middle" x="41" y="-54.5" font-family="Helvetica,sans-Serif" font-size="10.00">QPaintDevice</text>
</a>
</g>
</g>
<!-- Node6&#45;&gt;Node4 -->
<g id="edge5" class="edge">
<title>Node6&#45;&gt;Node4</title>
<path fill="none" stroke="midnightblue" d="M91.97,-66.09C100.8,-67.69 109.71,-69.31 117.69,-70.76"/>
<polygon fill="midnightblue" stroke="midnightblue" points="92.57,-62.64 82.1,-64.29 91.32,-69.52 92.57,-62.64"/>
</g>
<!-- Node7 -->
<g id="node7" class="node">
<title>Node7</title>
<g id="a_node7"><a xlink:href="class_black_gui_1_1_models_1_1_i_model_filter_provider.html" target="_top" xlink:title=" ">
<polygon fill="none" stroke="black" points="305,-0.5 305,-41.5 448,-41.5 448,-0.5 305,-0.5"/>
<text text-anchor="start" x="313" y="-29.5" font-family="Helvetica,sans-Serif" font-size="10.00">BlackGui::Models::IModel</text>
<text text-anchor="start" x="313" y="-18.5" font-family="Helvetica,sans-Serif" font-size="10.00">FilterProvider&lt; BlackMisc</text>
<text text-anchor="middle" x="376.5" y="-7.5" font-family="Helvetica,sans-Serif" font-size="10.00">::CStatusMessageList &gt;</text>
</a>
</g>
</g>
<!-- Node7&#45;&gt;Node1 -->
<g id="edge6" class="edge">
<title>Node7&#45;&gt;Node1</title>
<path fill="none" stroke="midnightblue" d="M458.06,-32.92C466.64,-34.19 475.35,-35.48 483.88,-36.74"/>
<polygon fill="midnightblue" stroke="midnightblue" points="458.46,-29.44 448.06,-31.44 457.44,-36.36 458.46,-29.44"/>
</g>
</g>
</svg>
