<?xml version="1.0" encoding="UTF-8" standalone="no"?>
<!DOCTYPE svg PUBLIC "-//W3C//DTD SVG 1.1//EN"
 "http://www.w3.org/Graphics/SVG/1.1/DTD/svg11.dtd">
<!-- Generated by graphviz version 2.43.0 (0)
 -->
<!-- Title: BlackGui::Components::CDbAirlineNameSelectorComponent Pages: 1 -->
<svg width="245pt" height="274pt"
 viewBox="0.00 0.00 245.00 274.00" xmlns="http://www.w3.org/2000/svg" xmlns:xlink="http://www.w3.org/1999/xlink">
<g id="graph0" class="graph" transform="scale(1 1) rotate(0) translate(4 270)">
<title>BlackGui::Components::CDbAirlineNameSelectorComponent</title>
<!-- Node1 -->
<g id="node1" class="node">
<title>Node1</title>
<g id="a_node1"><a xlink:title="Select airline by name.">
<polygon fill="#bfbfbf" stroke="black" points="24,-0.5 24,-30.5 224,-30.5 224,-0.5 24,-0.5"/>
<text text-anchor="start" x="32" y="-18.5" font-family="Helvetica,sans-Serif" font-size="10.00">BlackGui::Components</text>
<text text-anchor="middle" x="124" y="-7.5" font-family="Helvetica,sans-Serif" font-size="10.00">::CDbAirlineNameSelectorComponent</text>
</a>
</g>
</g>
<!-- Node2 -->
<g id="node2" class="node">
<title>Node2</title>
<g id="a_node2"><a xlink:href="class_black_gui_1_1_components_1_1_c_db_airline_icao_selector_base.html" target="_top" xlink:title="Airline ICAO selector base class.">
<polygon fill="none" stroke="black" points="45,-67.5 45,-97.5 203,-97.5 203,-67.5 45,-67.5"/>
<text text-anchor="start" x="53" y="-85.5" font-family="Helvetica,sans-Serif" font-size="10.00">BlackGui::Components</text>
<text text-anchor="middle" x="124" y="-74.5" font-family="Helvetica,sans-Serif" font-size="10.00">::CDbAirlineIcaoSelectorBase</text>
</a>
</g>
</g>
<!-- Node2&#45;&gt;Node1 -->
<g id="edge1" class="edge">
<title>Node2&#45;&gt;Node1</title>
<path fill="none" stroke="midnightblue" d="M124,-57.11C124,-48.15 124,-38.32 124,-30.58"/>
<polygon fill="midnightblue" stroke="midnightblue" points="120.5,-57.4 124,-67.4 127.5,-57.4 120.5,-57.4"/>
</g>
<!-- Node3 -->
<g id="node3" class="node">
<title>Node3</title>
<g id="a_node3"><a target="_parent" xlink:href="http://doc.qt.io/qt-5/qframe.html" xlink:title=" ">
<polygon fill="none" stroke="black" points="43.5,-134.5 43.5,-153.5 98.5,-153.5 98.5,-134.5 43.5,-134.5"/>
<text text-anchor="middle" x="71" y="-141.5" font-family="Helvetica,sans-Serif" font-size="10.00">QFrame</text>
</a>
</g>
</g>
<!-- Node3&#45;&gt;Node2 -->
<g id="edge2" class="edge">
<title>Node3&#45;&gt;Node2</title>
<path fill="none" stroke="midnightblue" d="M85.42,-126.81C93.58,-117.65 103.69,-106.3 111.51,-97.52"/>
<polygon fill="midnightblue" stroke="midnightblue" points="82.63,-124.68 78.59,-134.48 87.86,-129.34 82.63,-124.68"/>
</g>
<!-- Node4 -->
<g id="node4" class="node">
<title>Node4</title>
<g id="a_node4"><a target="_parent" xlink:href="http://doc.qt.io/qt-5/qwidget.html" xlink:title=" ">
<polygon fill="none" stroke="black" points="41.5,-190.5 41.5,-209.5 100.5,-209.5 100.5,-190.5 41.5,-190.5"/>
<text text-anchor="middle" x="71" y="-197.5" font-family="Helvetica,sans-Serif" font-size="10.00">QWidget</text>
</a>
</g>
</g>
<!-- Node4&#45;&gt;Node3 -->
<g id="edge3" class="edge">
<title>Node4&#45;&gt;Node3</title>
<path fill="none" stroke="midnightblue" d="M71,-179.8C71,-170.91 71,-160.78 71,-153.75"/>
<polygon fill="midnightblue" stroke="midnightblue" points="67.5,-180.08 71,-190.08 74.5,-180.08 67.5,-180.08"/>
</g>
<!-- Node5 -->
<g id="node5" class="node">
<title>Node5</title>
<g id="a_node5"><a target="_parent" xlink:href="http://doc.qt.io/qt-5/qobject.html" xlink:title=" ">
<polygon fill="none" stroke="black" points="0,-246.5 0,-265.5 56,-265.5 56,-246.5 0,-246.5"/>
<text text-anchor="middle" x="28" y="-253.5" font-family="Helvetica,sans-Serif" font-size="10.00">QObject</text>
</a>
</g>
</g>
<!-- Node5&#45;&gt;Node4 -->
<g id="edge4" class="edge">
<title>Node5&#45;&gt;Node4</title>
<path fill="none" stroke="midnightblue" d="M41.42,-238.14C48.91,-228.74 57.94,-217.4 64.03,-209.75"/>
<polygon fill="midnightblue" stroke="midnightblue" points="38.59,-236.08 35.1,-246.08 44.07,-240.44 38.59,-236.08"/>
</g>
<!-- Node6 -->
<g id="node6" class="node">
<title>Node6</title>
<g id="a_node6"><a target="_parent" xlink:href="http://doc.qt.io/qt-5/qpaintdevice.html" xlink:title=" ">
<polygon fill="none" stroke="black" points="74,-246.5 74,-265.5 156,-265.5 156,-246.5 74,-246.5"/>
<text text-anchor="middle" x="115" y="-253.5" font-family="Helvetica,sans-Serif" font-size="10.00">QPaintDevice</text>
</a>
</g>
</g>
<!-- Node6&#45;&gt;Node4 -->
<g id="edge5" class="edge">
<title>Node6&#45;&gt;Node4</title>
<path fill="none" stroke="midnightblue" d="M101.27,-238.14C93.6,-228.74 84.37,-217.4 78.13,-209.75"/>
<polygon fill="midnightblue" stroke="midnightblue" points="98.7,-240.54 107.73,-246.08 104.13,-236.12 98.7,-240.54"/>
</g>
<!-- Node7 -->
<g id="node7" class="node">
<title>Node7</title>
<g id="a_node7"><a xlink:href="class_black_gui_1_1_c_drop_base.html" target="_top" xlink:title="Utilities for dropping swift value objects.">
<polygon fill="none" stroke="black" points="117,-134.5 117,-153.5 237,-153.5 237,-134.5 117,-134.5"/>
<text text-anchor="middle" x="177" y="-141.5" font-family="Helvetica,sans-Serif" font-size="10.00">BlackGui::CDropBase</text>
</a>
</g>
</g>
<!-- Node7&#45;&gt;Node2 -->
<g id="edge6" class="edge">
<title>Node7&#45;&gt;Node2</title>
<path fill="none" stroke="midnightblue" d="M162.58,-126.81C154.42,-117.65 144.31,-106.3 136.49,-97.52"/>
<polygon fill="midnightblue" stroke="midnightblue" points="160.14,-129.34 169.41,-134.48 165.37,-124.68 160.14,-129.34"/>
</g>
</g>
</svg>
