<?xml version="1.0" encoding="UTF-8" standalone="no"?>
<!DOCTYPE svg PUBLIC "-//W3C//DTD SVG 1.1//EN"
 "http://www.w3.org/Graphics/SVG/1.1/DTD/svg11.dtd">
<!-- Generated by graphviz version 2.43.0 (0)
 -->
<!-- Title: BlackGui::Models::CTemperatureFormatter Pages: 1 -->
<svg width="214pt" height="251pt"
 viewBox="0.00 0.00 214.00 251.00" xmlns="http://www.w3.org/2000/svg" xmlns:xlink="http://www.w3.org/1999/xlink">
<g id="graph0" class="graph" transform="scale(1 1) rotate(0) translate(4 247)">
<title>BlackGui::Models::CTemperatureFormatter</title>
<!-- Node1 -->
<g id="node1" class="node">
<title>Node1</title>
<g id="a_node1"><a xlink:title="Temperature in degrees.">
<polygon fill="#bfbfbf" stroke="black" points="15,-0.5 15,-30.5 191,-30.5 191,-0.5 15,-0.5"/>
<text text-anchor="start" x="23" y="-18.5" font-family="Helvetica,sans-Serif" font-size="10.00">BlackGui::Models::CTemperature</text>
<text text-anchor="middle" x="103" y="-7.5" font-family="Helvetica,sans-Serif" font-size="10.00">Formatter</text>
</a>
</g>
</g>
<!-- Node2 -->
<g id="node2" class="node">
<title>Node2</title>
<g id="a_node2"><a xlink:href="class_black_gui_1_1_models_1_1_c_physiqal_quantiy_formatter.html" target="_top" xlink:title=" ">
<polygon fill="none" stroke="black" points="0,-67.5 0,-108.5 206,-108.5 206,-67.5 0,-67.5"/>
<text text-anchor="start" x="8" y="-96.5" font-family="Helvetica,sans-Serif" font-size="10.00">BlackGui::Models::CPhysiqal</text>
<text text-anchor="start" x="8" y="-85.5" font-family="Helvetica,sans-Serif" font-size="10.00">QuantiyFormatter&lt; CTemperatureUnit,</text>
<text text-anchor="middle" x="103" y="-74.5" font-family="Helvetica,sans-Serif" font-size="10.00"> CTemperature &gt;</text>
</a>
</g>
</g>
<!-- Node2&#45;&gt;Node1 -->
<g id="edge1" class="edge">
<title>Node2&#45;&gt;Node1</title>
<path fill="none" stroke="midnightblue" d="M103,-57.08C103,-48.01 103,-38.45 103,-30.89"/>
<polygon fill="midnightblue" stroke="midnightblue" points="99.5,-57.36 103,-67.36 106.5,-57.36 99.5,-57.36"/>
</g>
<!-- Node3 -->
<g id="node3" class="node">
<title>Node3</title>
<g id="a_node3"><a xlink:href="class_black_gui_1_1_models_1_1_c_value_object_formatter.html" target="_top" xlink:title="Default formatter when column contains CValueObject.">
<polygon fill="none" stroke="black" points="32.5,-145.5 32.5,-175.5 173.5,-175.5 173.5,-145.5 32.5,-145.5"/>
<text text-anchor="start" x="40.5" y="-163.5" font-family="Helvetica,sans-Serif" font-size="10.00">BlackGui::Models::CValue</text>
<text text-anchor="middle" x="103" y="-152.5" font-family="Helvetica,sans-Serif" font-size="10.00">ObjectFormatter</text>
</a>
</g>
</g>
<!-- Node3&#45;&gt;Node2 -->
<g id="edge2" class="edge">
<title>Node3&#45;&gt;Node2</title>
<path fill="none" stroke="midnightblue" d="M103,-134.98C103,-126.35 103,-116.76 103,-108.59"/>
<polygon fill="midnightblue" stroke="midnightblue" points="99.5,-135.23 103,-145.23 106.5,-135.23 99.5,-135.23"/>
</g>
<!-- Node4 -->
<g id="node4" class="node">
<title>Node4</title>
<g id="a_node4"><a xlink:href="class_black_gui_1_1_models_1_1_c_default_formatter.html" target="_top" xlink:title="Column formatter default implementation, also serving as interface.">
<polygon fill="none" stroke="black" points="28,-212.5 28,-242.5 178,-242.5 178,-212.5 28,-212.5"/>
<text text-anchor="start" x="36" y="-230.5" font-family="Helvetica,sans-Serif" font-size="10.00">BlackGui::Models::CDefault</text>
<text text-anchor="middle" x="103" y="-219.5" font-family="Helvetica,sans-Serif" font-size="10.00">Formatter</text>
</a>
</g>
</g>
<!-- Node4&#45;&gt;Node3 -->
<g id="edge3" class="edge">
<title>Node4&#45;&gt;Node3</title>
<path fill="none" stroke="midnightblue" d="M103,-202.11C103,-193.15 103,-183.32 103,-175.58"/>
<polygon fill="midnightblue" stroke="midnightblue" points="99.5,-202.4 103,-212.4 106.5,-202.4 99.5,-202.4"/>
</g>
</g>
</svg>
