<?xml version="1.0" encoding="UTF-8" standalone="no"?>
<!DOCTYPE svg PUBLIC "-//W3C//DTD SVG 1.1//EN"
 "http://www.w3.org/Graphics/SVG/1.1/DTD/svg11.dtd">
<!-- Generated by graphviz version 2.43.0 (0)
 -->
<!-- Title: BlackMisc::Aviation::CLiveryList Pages: 1 -->
<svg width="774pt" height="320pt"
 viewBox="0.00 0.00 774.00 320.00" xmlns="http://www.w3.org/2000/svg" xmlns:xlink="http://www.w3.org/1999/xlink">
<g id="graph0" class="graph" transform="scale(1 1) rotate(0) translate(4 316)">
<title>BlackMisc::Aviation::CLiveryList</title>
<!-- Node1 -->
<g id="node1" class="node">
<title>Node1</title>
<g id="a_node1"><a xlink:title="Value object for a list of airports.">
<polygon fill="#bfbfbf" stroke="black" points="654,-49.5 654,-79.5 766,-79.5 766,-49.5 654,-49.5"/>
<text text-anchor="start" x="662" y="-67.5" font-family="Helvetica,sans-Serif" font-size="10.00">BlackMisc::Aviation</text>
<text text-anchor="middle" x="710" y="-56.5" font-family="Helvetica,sans-Serif" font-size="10.00">::CLiveryList</text>
</a>
</g>
</g>
<!-- Node2 -->
<g id="node2" class="node">
<title>Node2</title>
<g id="a_node2"><a xlink:href="class_black_misc_1_1_c_sequence.html" target="_top" xlink:title=" ">
<polygon fill="none" stroke="black" points="453.5,-122.5 453.5,-152.5 579.5,-152.5 579.5,-122.5 453.5,-122.5"/>
<text text-anchor="start" x="461.5" y="-140.5" font-family="Helvetica,sans-Serif" font-size="10.00">BlackMisc::CSequence</text>
<text text-anchor="middle" x="516.5" y="-129.5" font-family="Helvetica,sans-Serif" font-size="10.00">&lt; CLivery &gt;</text>
</a>
</g>
</g>
<!-- Node2&#45;&gt;Node1 -->
<g id="edge1" class="edge">
<title>Node2&#45;&gt;Node1</title>
<path fill="none" stroke="midnightblue" d="M566.76,-118.72C598.64,-106.57 639.6,-90.96 669.37,-79.61"/>
<polygon fill="midnightblue" stroke="midnightblue" points="565.28,-115.54 557.18,-122.37 567.77,-122.08 565.28,-115.54"/>
</g>
<!-- Node3 -->
<g id="node3" class="node">
<title>Node3</title>
<g id="a_node3"><a xlink:href="class_black_misc_1_1_c_container_base.html" target="_top" xlink:title="Base class for CCollection and CSequence adding mutating operations and CValueObject facility on top ...">
<polygon fill="none" stroke="black" points="222,-183.5 222,-213.5 372,-213.5 372,-183.5 222,-183.5"/>
<text text-anchor="start" x="230" y="-201.5" font-family="Helvetica,sans-Serif" font-size="10.00">BlackMisc::CContainerBase</text>
<text text-anchor="middle" x="297" y="-190.5" font-family="Helvetica,sans-Serif" font-size="10.00">&lt; Derived &gt;</text>
</a>
</g>
</g>
<!-- Node3&#45;&gt;Node2 -->
<g id="edge2" class="edge">
<title>Node3&#45;&gt;Node2</title>
<path fill="none" stroke="midnightblue" d="M361.17,-180.78C393.08,-171.83 431.38,-161.09 461.84,-152.55"/>
<polygon fill="midnightblue" stroke="midnightblue" points="360.17,-177.43 351.49,-183.5 362.06,-184.17 360.17,-177.43"/>
</g>
<!-- Node4 -->
<g id="node4" class="node">
<title>Node4</title>
<g id="a_node4"><a xlink:href="class_black_misc_1_1_c_range_base.html" target="_top" xlink:title="Any container class with begin and end iterators can inherit from this CRTP class to gain some useful...">
<polygon fill="none" stroke="black" points="22.5,-281.5 22.5,-311.5 156.5,-311.5 156.5,-281.5 22.5,-281.5"/>
<text text-anchor="start" x="30.5" y="-299.5" font-family="Helvetica,sans-Serif" font-size="10.00">BlackMisc::CRangeBase</text>
<text text-anchor="middle" x="89.5" y="-288.5" font-family="Helvetica,sans-Serif" font-size="10.00">&lt; Derived &gt;</text>
</a>
</g>
</g>
<!-- Node4&#45;&gt;Node3 -->
<g id="edge3" class="edge">
<title>Node4&#45;&gt;Node3</title>
<path fill="none" stroke="midnightblue" d="M164.63,-278.19C169.55,-276.43 174.38,-274.53 179,-272.5 215.52,-256.44 253.87,-230.09 276.33,-213.55"/>
<polygon fill="midnightblue" stroke="midnightblue" points="163.44,-274.9 155.09,-281.42 165.69,-281.53 163.44,-274.9"/>
</g>
<!-- Node5 -->
<g id="node5" class="node">
<title>Node5</title>
<g id="a_node5"><a xlink:href="class_black_misc_1_1_mixin_1_1_meta_type.html" target="_top" xlink:title="CRTP class template from which a derived class can inherit common methods dealing with the metatype o...">
<polygon fill="none" stroke="black" points="13.5,-232.5 13.5,-262.5 165.5,-262.5 165.5,-232.5 13.5,-232.5"/>
<text text-anchor="start" x="21.5" y="-250.5" font-family="Helvetica,sans-Serif" font-size="10.00">BlackMisc::Mixin::MetaType</text>
<text text-anchor="middle" x="89.5" y="-239.5" font-family="Helvetica,sans-Serif" font-size="10.00">&lt; Derived &gt;</text>
</a>
</g>
</g>
<!-- Node5&#45;&gt;Node3 -->
<g id="edge4" class="edge">
<title>Node5&#45;&gt;Node3</title>
<path fill="none" stroke="midnightblue" d="M163.49,-230.1C186.22,-224.68 211.08,-218.75 233.07,-213.51"/>
<polygon fill="midnightblue" stroke="midnightblue" points="162.47,-226.74 153.55,-232.47 164.09,-233.55 162.47,-226.74"/>
</g>
<!-- Node6 -->
<g id="node6" class="node">
<title>Node6</title>
<g id="a_node6"><a xlink:href="class_black_misc_1_1_mixin_1_1_d_bus_operators.html" target="_top" xlink:title=" ">
<polygon fill="none" stroke="black" points="0,-183.5 0,-213.5 179,-213.5 179,-183.5 0,-183.5"/>
<text text-anchor="start" x="8" y="-201.5" font-family="Helvetica,sans-Serif" font-size="10.00">BlackMisc::Mixin::DBusOperators</text>
<text text-anchor="middle" x="89.5" y="-190.5" font-family="Helvetica,sans-Serif" font-size="10.00">&lt; Derived &gt;</text>
</a>
</g>
</g>
<!-- Node6&#45;&gt;Node3 -->
<g id="edge5" class="edge">
<title>Node6&#45;&gt;Node3</title>
<path fill="none" stroke="midnightblue" d="M189.19,-198.5C200.17,-198.5 211.22,-198.5 221.82,-198.5"/>
<polygon fill="midnightblue" stroke="midnightblue" points="189.14,-195 179.14,-198.5 189.14,-202 189.14,-195"/>
</g>
<!-- Node7 -->
<g id="node7" class="node">
<title>Node7</title>
<g id="a_node7"><a xlink:href="class_black_misc_1_1_mixin_1_1_json_operators.html" target="_top" xlink:title="CRTP class template which will generate marshalling operators for a derived class with its own marsha...">
<polygon fill="none" stroke="black" points="3,-134.5 3,-164.5 176,-164.5 176,-134.5 3,-134.5"/>
<text text-anchor="start" x="11" y="-152.5" font-family="Helvetica,sans-Serif" font-size="10.00">BlackMisc::Mixin::JsonOperators</text>
<text text-anchor="middle" x="89.5" y="-141.5" font-family="Helvetica,sans-Serif" font-size="10.00">&lt; Derived &gt;</text>
</a>
</g>
</g>
<!-- Node7&#45;&gt;Node3 -->
<g id="edge6" class="edge">
<title>Node7&#45;&gt;Node3</title>
<path fill="none" stroke="midnightblue" d="M163.49,-166.9C186.22,-172.32 211.08,-178.25 233.07,-183.49"/>
<polygon fill="midnightblue" stroke="midnightblue" points="164.09,-163.45 153.55,-164.53 162.47,-170.26 164.09,-163.45"/>
</g>
<!-- Node8 -->
<g id="node8" class="node">
<title>Node8</title>
<g id="a_node8"><a xlink:href="class_black_misc_1_1_mixin_1_1_string.html" target="_top" xlink:title="CRTP class template from which a derived class can inherit string streaming operations.">
<polygon fill="none" stroke="black" points="22.5,-85.5 22.5,-115.5 156.5,-115.5 156.5,-85.5 22.5,-85.5"/>
<text text-anchor="start" x="30.5" y="-103.5" font-family="Helvetica,sans-Serif" font-size="10.00">BlackMisc::Mixin::String</text>
<text text-anchor="middle" x="89.5" y="-92.5" font-family="Helvetica,sans-Serif" font-size="10.00">&lt; Derived &gt;</text>
</a>
</g>
</g>
<!-- Node8&#45;&gt;Node3 -->
<g id="edge7" class="edge">
<title>Node8&#45;&gt;Node3</title>
<path fill="none" stroke="midnightblue" d="M166.05,-117.98C170.59,-120.2 174.95,-122.69 179,-125.5 201.21,-140.9 192.89,-158.96 215,-174.5 219.92,-177.96 225.34,-180.92 230.98,-183.47"/>
<polygon fill="midnightblue" stroke="midnightblue" points="167.1,-114.62 156.53,-113.81 164.29,-121.03 167.1,-114.62"/>
</g>
<!-- Node9 -->
<g id="node9" class="node">
<title>Node9</title>
<g id="a_node9"><a xlink:href="class_black_misc_1_1_mixin_1_1_data_stream_operators.html" target="_top" xlink:title="CRTP class template to generate non&#45;member QDataStream streaming operators.">
<polygon fill="none" stroke="black" points="215,-134.5 215,-164.5 379,-164.5 379,-134.5 215,-134.5"/>
<text text-anchor="start" x="223" y="-152.5" font-family="Helvetica,sans-Serif" font-size="10.00">BlackMisc::Mixin::DataStream</text>
<text text-anchor="middle" x="297" y="-141.5" font-family="Helvetica,sans-Serif" font-size="10.00">Operators&lt; Derived &gt;</text>
</a>
</g>
</g>
<!-- Node9&#45;&gt;Node2 -->
<g id="edge8" class="edge">
<title>Node9&#45;&gt;Node2</title>
<path fill="none" stroke="midnightblue" d="M389.44,-144.45C410.97,-143.27 433.42,-142.03 453.32,-140.93"/>
<polygon fill="midnightblue" stroke="midnightblue" points="389.09,-140.97 379.3,-145.01 389.48,-147.96 389.09,-140.97"/>
</g>
<!-- Node10 -->
<g id="node10" class="node">
<title>Node10</title>
<g id="a_node10"><a xlink:href="class_black_misc_1_1_mixin_1_1_icon.html" target="_top" xlink:title="CRTP class template from which a derived class can inherit icon&#45;related functions.">
<polygon fill="none" stroke="black" points="231.5,-85.5 231.5,-115.5 362.5,-115.5 362.5,-85.5 231.5,-85.5"/>
<text text-anchor="start" x="239.5" y="-103.5" font-family="Helvetica,sans-Serif" font-size="10.00">BlackMisc::Mixin::Icon</text>
<text text-anchor="middle" x="297" y="-92.5" font-family="Helvetica,sans-Serif" font-size="10.00">&lt; Derived, IconIndex &gt;</text>
</a>
</g>
</g>
<!-- Node10&#45;&gt;Node2 -->
<g id="edge9" class="edge">
<title>Node10&#45;&gt;Node2</title>
<path fill="none" stroke="midnightblue" d="M372.59,-113.19C398.89,-117.66 428.16,-122.64 453.32,-126.92"/>
<polygon fill="midnightblue" stroke="midnightblue" points="373.11,-109.73 362.67,-111.5 371.94,-116.63 373.11,-109.73"/>
</g>
<!-- Node11 -->
<g id="node11" class="node">
<title>Node11</title>
<g id="a_node11"><a xlink:href="class_black_misc_1_1_db_1_1_i_datastore_object_list.html" target="_top" xlink:title=" ">
<polygon fill="none" stroke="black" points="415,-49.5 415,-79.5 618,-79.5 618,-49.5 415,-49.5"/>
<text text-anchor="start" x="423" y="-67.5" font-family="Helvetica,sans-Serif" font-size="10.00">BlackMisc::Db::IDatastore</text>
<text text-anchor="middle" x="516.5" y="-56.5" font-family="Helvetica,sans-Serif" font-size="10.00">ObjectList&lt; CLivery, CLiveryList, int &gt;</text>
</a>
</g>
</g>
<!-- Node11&#45;&gt;Node1 -->
<g id="edge10" class="edge">
<title>Node11&#45;&gt;Node1</title>
<path fill="none" stroke="midnightblue" d="M628.05,-64.5C636.89,-64.5 645.55,-64.5 653.73,-64.5"/>
<polygon fill="midnightblue" stroke="midnightblue" points="628.02,-61 618.02,-64.5 628.02,-68 628.02,-61"/>
</g>
<!-- Node12 -->
<g id="node12" class="node">
<title>Node12</title>
<g id="a_node12"><a xlink:href="class_black_misc_1_1_i_timestamp_object_list.html" target="_top" xlink:title="List of objects with timestamp. Such objects should implement.">
<polygon fill="none" stroke="black" points="216,-36.5 216,-66.5 378,-66.5 378,-36.5 216,-36.5"/>
<text text-anchor="start" x="224" y="-54.5" font-family="Helvetica,sans-Serif" font-size="10.00">BlackMisc::ITimestampObject</text>
<text text-anchor="middle" x="297" y="-43.5" font-family="Helvetica,sans-Serif" font-size="10.00">List&lt; OBJ, CONTAINER &gt;</text>
</a>
</g>
</g>
<!-- Node12&#45;&gt;Node11 -->
<g id="edge11" class="edge">
<title>Node12&#45;&gt;Node11</title>
<path fill="none" stroke="midnightblue" d="M388.28,-56.9C397.07,-57.42 406.02,-57.96 414.9,-58.49"/>
<polygon fill="midnightblue" stroke="midnightblue" points="388.25,-53.39 378.06,-56.29 387.84,-60.38 388.25,-53.39"/>
</g>
<!-- Node13 -->
<g id="node13" class="node">
<title>Node13</title>
<g id="a_node13"><a xlink:href="class_black_misc_1_1_mixin_1_1_meta_type.html" target="_top" xlink:title=" ">
<polygon fill="none" stroke="black" points="440.5,-0.5 440.5,-30.5 592.5,-30.5 592.5,-0.5 440.5,-0.5"/>
<text text-anchor="start" x="448.5" y="-18.5" font-family="Helvetica,sans-Serif" font-size="10.00">BlackMisc::Mixin::MetaType</text>
<text text-anchor="middle" x="516.5" y="-7.5" font-family="Helvetica,sans-Serif" font-size="10.00">&lt; CLiveryList &gt;</text>
</a>
</g>
</g>
<!-- Node13&#45;&gt;Node1 -->
<g id="edge12" class="edge">
<title>Node13&#45;&gt;Node1</title>
<path fill="none" stroke="midnightblue" d="M588.5,-33.03C598.41,-35.51 608.46,-38.06 618,-40.5 629.55,-43.46 641.92,-46.68 653.69,-49.78"/>
<polygon fill="midnightblue" stroke="midnightblue" points="589.2,-29.6 578.65,-30.57 587.51,-36.39 589.2,-29.6"/>
</g>
</g>
</svg>
