<?xml version="1.0" encoding="UTF-8" standalone="no"?>
<!DOCTYPE svg PUBLIC "-//W3C//DTD SVG 1.1//EN"
 "http://www.w3.org/Graphics/SVG/1.1/DTD/svg11.dtd">
<!-- Generated by graphviz version 2.43.0 (0)
 -->
<!-- Title: BlackGui::Filters::CFilterWidget Pages: 1 -->
<svg width="589pt" height="333pt"
 viewBox="0.00 0.00 589.00 333.00" xmlns="http://www.w3.org/2000/svg" xmlns:xlink="http://www.w3.org/1999/xlink">
<g id="graph0" class="graph" transform="scale(1 1) rotate(0) translate(4 329)">
<title>BlackGui::Filters::CFilterWidget</title>
<!-- Node1 -->
<g id="node1" class="node">
<title>Node1</title>
<g id="a_node1"><a xlink:title="Base for filter dialog.">
<polygon fill="#bfbfbf" stroke="black" points="304,-147.5 304,-177.5 406,-177.5 406,-147.5 304,-147.5"/>
<text text-anchor="start" x="312" y="-165.5" font-family="Helvetica,sans-Serif" font-size="10.00">BlackGui::Filters::</text>
<text text-anchor="middle" x="355" y="-154.5" font-family="Helvetica,sans-Serif" font-size="10.00">CFilterWidget</text>
</a>
</g>
</g>
<!-- Node6 -->
<g id="node6" class="node">
<title>Node6</title>
<g id="a_node6"><a xlink:href="class_black_gui_1_1_filters_1_1_c_aircraft_icao_filter_bar.html" target="_top" xlink:title="Aircraft ICAO filter bar.">
<polygon fill="none" stroke="black" points="451.5,-294.5 451.5,-324.5 571.5,-324.5 571.5,-294.5 451.5,-294.5"/>
<text text-anchor="start" x="459.5" y="-312.5" font-family="Helvetica,sans-Serif" font-size="10.00">BlackGui::Filters::</text>
<text text-anchor="middle" x="511.5" y="-301.5" font-family="Helvetica,sans-Serif" font-size="10.00">CAircraftIcaoFilterBar</text>
</a>
</g>
</g>
<!-- Node1&#45;&gt;Node6 -->
<g id="edge5" class="edge">
<title>Node1&#45;&gt;Node6</title>
<path fill="none" stroke="midnightblue" d="M367.27,-187.01C381.16,-214.64 407.24,-259.14 442,-285.5 446.52,-288.93 451.56,-291.89 456.81,-294.45"/>
<polygon fill="midnightblue" stroke="midnightblue" points="370.24,-185.12 362.72,-177.66 363.95,-188.18 370.24,-185.12"/>
</g>
<!-- Node7 -->
<g id="node7" class="node">
<title>Node7</title>
<g id="a_node7"><a xlink:href="class_black_gui_1_1_filters_1_1_c_aircraft_model_filter_bar.html" target="_top" xlink:title="Filter bar for aircraft models.">
<polygon fill="none" stroke="black" points="446.5,-245.5 446.5,-275.5 576.5,-275.5 576.5,-245.5 446.5,-245.5"/>
<text text-anchor="start" x="454.5" y="-263.5" font-family="Helvetica,sans-Serif" font-size="10.00">BlackGui::Filters::</text>
<text text-anchor="middle" x="511.5" y="-252.5" font-family="Helvetica,sans-Serif" font-size="10.00">CAircraftModelFilterBar</text>
</a>
</g>
</g>
<!-- Node1&#45;&gt;Node7 -->
<g id="edge6" class="edge">
<title>Node1&#45;&gt;Node7</title>
<path fill="none" stroke="midnightblue" d="M377.64,-185.2C394.04,-201.33 417.81,-222.53 442,-236.5 447.78,-239.84 454.11,-242.83 460.5,-245.46"/>
<polygon fill="midnightblue" stroke="midnightblue" points="379.74,-182.36 370.21,-177.74 374.78,-187.3 379.74,-182.36"/>
</g>
<!-- Node8 -->
<g id="node8" class="node">
<title>Node8</title>
<g id="a_node8"><a xlink:href="class_black_gui_1_1_filters_1_1_c_airline_icao_filter_bar.html" target="_top" xlink:title="Airline ICAO filter bar.">
<polygon fill="none" stroke="black" points="453.5,-196.5 453.5,-226.5 569.5,-226.5 569.5,-196.5 453.5,-196.5"/>
<text text-anchor="start" x="461.5" y="-214.5" font-family="Helvetica,sans-Serif" font-size="10.00">BlackGui::Filters::</text>
<text text-anchor="middle" x="511.5" y="-203.5" font-family="Helvetica,sans-Serif" font-size="10.00">CAirlineIcaoFilterBar</text>
</a>
</g>
</g>
<!-- Node1&#45;&gt;Node8 -->
<g id="edge7" class="edge">
<title>Node1&#45;&gt;Node8</title>
<path fill="none" stroke="midnightblue" d="M413.57,-180.76C429.87,-185.93 447.41,-191.49 463.04,-196.45"/>
<polygon fill="midnightblue" stroke="midnightblue" points="414.21,-177.29 403.62,-177.6 412.09,-183.96 414.21,-177.29"/>
</g>
<!-- Node9 -->
<g id="node9" class="node">
<title>Node9</title>
<g id="a_node9"><a xlink:href="class_black_gui_1_1_filters_1_1_c_country_filter_bar.html" target="_top" xlink:title="Country filter bar.">
<polygon fill="none" stroke="black" points="460,-147.5 460,-177.5 563,-177.5 563,-147.5 460,-147.5"/>
<text text-anchor="start" x="468" y="-165.5" font-family="Helvetica,sans-Serif" font-size="10.00">BlackGui::Filters::</text>
<text text-anchor="middle" x="511.5" y="-154.5" font-family="Helvetica,sans-Serif" font-size="10.00">CCountryFilterBar</text>
</a>
</g>
</g>
<!-- Node1&#45;&gt;Node9 -->
<g id="edge8" class="edge">
<title>Node1&#45;&gt;Node9</title>
<path fill="none" stroke="midnightblue" d="M416.43,-162.5C430.78,-162.5 445.94,-162.5 459.8,-162.5"/>
<polygon fill="midnightblue" stroke="midnightblue" points="416.16,-159 406.16,-162.5 416.16,-166 416.16,-159"/>
</g>
<!-- Node10 -->
<g id="node10" class="node">
<title>Node10</title>
<g id="a_node10"><a xlink:href="class_black_gui_1_1_filters_1_1_c_distributor_filter_bar.html" target="_top" xlink:title="Distributor filter bar.">
<polygon fill="none" stroke="black" points="453.5,-98.5 453.5,-128.5 569.5,-128.5 569.5,-98.5 453.5,-98.5"/>
<text text-anchor="start" x="461.5" y="-116.5" font-family="Helvetica,sans-Serif" font-size="10.00">BlackGui::Filters::</text>
<text text-anchor="middle" x="511.5" y="-105.5" font-family="Helvetica,sans-Serif" font-size="10.00">CDistributorFilterBar</text>
</a>
</g>
</g>
<!-- Node1&#45;&gt;Node10 -->
<g id="edge9" class="edge">
<title>Node1&#45;&gt;Node10</title>
<path fill="none" stroke="midnightblue" d="M413.57,-144.24C429.87,-139.07 447.41,-133.51 463.04,-128.55"/>
<polygon fill="midnightblue" stroke="midnightblue" points="412.09,-141.04 403.62,-147.4 414.21,-147.71 412.09,-141.04"/>
</g>
<!-- Node11 -->
<g id="node11" class="node">
<title>Node11</title>
<g id="a_node11"><a xlink:href="class_black_gui_1_1_filters_1_1_c_livery_filter_bar.html" target="_top" xlink:title="Livery filter bar.">
<polygon fill="none" stroke="black" points="460.5,-49.5 460.5,-79.5 562.5,-79.5 562.5,-49.5 460.5,-49.5"/>
<text text-anchor="start" x="468.5" y="-67.5" font-family="Helvetica,sans-Serif" font-size="10.00">BlackGui::Filters::</text>
<text text-anchor="middle" x="511.5" y="-56.5" font-family="Helvetica,sans-Serif" font-size="10.00">CLiveryFilterBar</text>
</a>
</g>
</g>
<!-- Node1&#45;&gt;Node11 -->
<g id="edge10" class="edge">
<title>Node1&#45;&gt;Node11</title>
<path fill="none" stroke="midnightblue" d="M377.64,-139.8C394.04,-123.67 417.81,-102.47 442,-88.5 447.78,-85.16 454.11,-82.17 460.5,-79.54"/>
<polygon fill="midnightblue" stroke="midnightblue" points="374.78,-137.7 370.21,-147.26 379.74,-142.64 374.78,-137.7"/>
</g>
<!-- Node12 -->
<g id="node12" class="node">
<title>Node12</title>
<g id="a_node12"><a xlink:href="class_black_gui_1_1_filters_1_1_c_status_message_filter_bar.html" target="_top" xlink:title="Filter status messages.">
<polygon fill="none" stroke="black" points="442,-0.5 442,-30.5 581,-30.5 581,-0.5 442,-0.5"/>
<text text-anchor="start" x="450" y="-18.5" font-family="Helvetica,sans-Serif" font-size="10.00">BlackGui::Filters::</text>
<text text-anchor="middle" x="511.5" y="-7.5" font-family="Helvetica,sans-Serif" font-size="10.00">CStatusMessageFilterBar</text>
</a>
</g>
</g>
<!-- Node1&#45;&gt;Node12 -->
<g id="edge11" class="edge">
<title>Node1&#45;&gt;Node12</title>
<path fill="none" stroke="midnightblue" d="M367.27,-137.99C381.16,-110.36 407.24,-65.86 442,-39.5 446.52,-36.07 451.56,-33.11 456.81,-30.55"/>
<polygon fill="midnightblue" stroke="midnightblue" points="363.95,-136.82 362.72,-147.34 370.24,-139.88 363.95,-136.82"/>
</g>
<!-- Node2 -->
<g id="node2" class="node">
<title>Node2</title>
<g id="a_node2"><a target="_parent" xlink:href="http://doc.qt.io/qt-5/qframe.html" xlink:title=" ">
<polygon fill="none" stroke="black" points="213,-153 213,-172 268,-172 268,-153 213,-153"/>
<text text-anchor="middle" x="240.5" y="-160" font-family="Helvetica,sans-Serif" font-size="10.00">QFrame</text>
</a>
</g>
</g>
<!-- Node2&#45;&gt;Node1 -->
<g id="edge1" class="edge">
<title>Node2&#45;&gt;Node1</title>
<path fill="none" stroke="midnightblue" d="M278.39,-162.5C286.48,-162.5 295.19,-162.5 303.71,-162.5"/>
<polygon fill="midnightblue" stroke="midnightblue" points="278.16,-159 268.16,-162.5 278.16,-166 278.16,-159"/>
</g>
<!-- Node3 -->
<g id="node3" class="node">
<title>Node3</title>
<g id="a_node3"><a target="_parent" xlink:href="http://doc.qt.io/qt-5/qwidget.html" xlink:title=" ">
<polygon fill="none" stroke="black" points="118,-153 118,-172 177,-172 177,-153 118,-153"/>
<text text-anchor="middle" x="147.5" y="-160" font-family="Helvetica,sans-Serif" font-size="10.00">QWidget</text>
</a>
</g>
</g>
<!-- Node3&#45;&gt;Node2 -->
<g id="edge2" class="edge">
<title>Node3&#45;&gt;Node2</title>
<path fill="none" stroke="midnightblue" d="M187.46,-162.5C195.99,-162.5 204.83,-162.5 212.75,-162.5"/>
<polygon fill="midnightblue" stroke="midnightblue" points="187.29,-159 177.29,-162.5 187.29,-166 187.29,-159"/>
</g>
<!-- Node4 -->
<g id="node4" class="node">
<title>Node4</title>
<g id="a_node4"><a target="_parent" xlink:href="http://doc.qt.io/qt-5/qobject.html" xlink:title=" ">
<polygon fill="none" stroke="black" points="13,-172 13,-191 69,-191 69,-172 13,-172"/>
<text text-anchor="middle" x="41" y="-179" font-family="Helvetica,sans-Serif" font-size="10.00">QObject</text>
</a>
</g>
</g>
<!-- Node4&#45;&gt;Node3 -->
<g id="edge3" class="edge">
<title>Node4&#45;&gt;Node3</title>
<path fill="none" stroke="midnightblue" d="M79.09,-174.76C91.88,-172.43 106,-169.86 117.99,-167.68"/>
<polygon fill="midnightblue" stroke="midnightblue" points="78.4,-171.33 69.18,-176.56 79.65,-178.21 78.4,-171.33"/>
</g>
<!-- Node5 -->
<g id="node5" class="node">
<title>Node5</title>
<g id="a_node5"><a target="_parent" xlink:href="http://doc.qt.io/qt-5/qpaintdevice.html" xlink:title=" ">
<polygon fill="none" stroke="black" points="0,-134 0,-153 82,-153 82,-134 0,-134"/>
<text text-anchor="middle" x="41" y="-141" font-family="Helvetica,sans-Serif" font-size="10.00">QPaintDevice</text>
</a>
</g>
</g>
<!-- Node5&#45;&gt;Node3 -->
<g id="edge4" class="edge">
<title>Node5&#45;&gt;Node3</title>
<path fill="none" stroke="midnightblue" d="M91.97,-152.59C100.8,-154.19 109.71,-155.81 117.69,-157.26"/>
<polygon fill="midnightblue" stroke="midnightblue" points="92.57,-149.14 82.1,-150.79 91.32,-156.02 92.57,-149.14"/>
</g>
</g>
</svg>
