<?xml version="1.0" encoding="UTF-8" standalone="no"?>
<!DOCTYPE svg PUBLIC "-//W3C//DTD SVG 1.1//EN"
 "http://www.w3.org/Graphics/SVG/1.1/DTD/svg11.dtd">
<!-- Generated by graphviz version 2.43.0 (0)
 -->
<!-- Title: BlackCore::Context::IContext Pages: 1 -->
<svg width="718pt" height="627pt"
 viewBox="0.00 0.00 718.00 627.00" xmlns="http://www.w3.org/2000/svg" xmlns:xlink="http://www.w3.org/1999/xlink">
<g id="graph0" class="graph" transform="scale(1 1) rotate(0) translate(4 623)">
<title>BlackCore::Context::IContext</title>
<!-- Node1 -->
<g id="node1" class="node">
<title>Node1</title>
<g id="a_node1"><a xlink:title="Base for all context classes.">
<polygon fill="#bfbfbf" stroke="black" points="92,-343.5 92,-373.5 202,-373.5 202,-343.5 92,-343.5"/>
<text text-anchor="start" x="100" y="-361.5" font-family="Helvetica,sans-Serif" font-size="10.00">BlackCore::Context</text>
<text text-anchor="middle" x="147" y="-350.5" font-family="Helvetica,sans-Serif" font-size="10.00">::IContext</text>
</a>
</g>
</g>
<!-- Node3 -->
<g id="node3" class="node">
<title>Node3</title>
<g id="a_node3"><a xlink:href="class_black_core_1_1_context_1_1_i_context_application.html" target="_top" xlink:title="Application context interface.">
<polygon fill="none" stroke="black" points="239,-502.5 239,-532.5 358,-532.5 358,-502.5 239,-502.5"/>
<text text-anchor="start" x="247" y="-520.5" font-family="Helvetica,sans-Serif" font-size="10.00">BlackCore::Context</text>
<text text-anchor="middle" x="298.5" y="-509.5" font-family="Helvetica,sans-Serif" font-size="10.00">::IContextApplication</text>
</a>
</g>
</g>
<!-- Node1&#45;&gt;Node3 -->
<g id="edge2" class="edge">
<title>Node1&#45;&gt;Node3</title>
<path fill="none" stroke="midnightblue" d="M164.84,-381.68C182.08,-404.74 210.2,-440.61 238,-468.5 250.19,-480.73 265.2,-493.07 277.1,-502.31"/>
<polygon fill="midnightblue" stroke="midnightblue" points="167.56,-379.46 158.8,-373.51 161.94,-383.63 167.56,-379.46"/>
</g>
<!-- Node7 -->
<g id="node7" class="node">
<title>Node7</title>
<g id="a_node7"><a xlink:href="class_black_core_1_1_context_1_1_i_context_audio.html" target="_top" xlink:title="Audio context interface.">
<polygon fill="none" stroke="black" points="243.5,-429.5 243.5,-459.5 353.5,-459.5 353.5,-429.5 243.5,-429.5"/>
<text text-anchor="start" x="251.5" y="-447.5" font-family="Helvetica,sans-Serif" font-size="10.00">BlackCore::Context</text>
<text text-anchor="middle" x="298.5" y="-436.5" font-family="Helvetica,sans-Serif" font-size="10.00">::IContextAudio</text>
</a>
</g>
</g>
<!-- Node1&#45;&gt;Node7 -->
<g id="edge6" class="edge">
<title>Node1&#45;&gt;Node7</title>
<path fill="none" stroke="midnightblue" d="M183.15,-378.72C210.17,-394.27 246.92,-415.4 271.38,-429.47"/>
<polygon fill="midnightblue" stroke="midnightblue" points="184.8,-375.63 174.38,-373.68 181.31,-381.7 184.8,-375.63"/>
</g>
<!-- Node11 -->
<g id="node11" class="node">
<title>Node11</title>
<g id="a_node11"><a xlink:href="class_black_core_1_1_context_1_1_i_context_network.html" target="_top" xlink:title="Network context proxy.">
<polygon fill="none" stroke="black" points="243.5,-343.5 243.5,-373.5 353.5,-373.5 353.5,-343.5 243.5,-343.5"/>
<text text-anchor="start" x="251.5" y="-361.5" font-family="Helvetica,sans-Serif" font-size="10.00">BlackCore::Context</text>
<text text-anchor="middle" x="298.5" y="-350.5" font-family="Helvetica,sans-Serif" font-size="10.00">::IContextNetwork</text>
</a>
</g>
</g>
<!-- Node1&#45;&gt;Node11 -->
<g id="edge10" class="edge">
<title>Node1&#45;&gt;Node11</title>
<path fill="none" stroke="midnightblue" d="M212.56,-358.5C222.84,-358.5 233.39,-358.5 243.39,-358.5"/>
<polygon fill="midnightblue" stroke="midnightblue" points="212.4,-355 202.4,-358.5 212.4,-362 212.4,-355"/>
</g>
<!-- Node15 -->
<g id="node15" class="node">
<title>Node15</title>
<g id="a_node15"><a xlink:href="class_black_core_1_1_context_1_1_i_context_own_aircraft.html" target="_top" xlink:title="Own context proxy.">
<polygon fill="none" stroke="black" points="238,-220.5 238,-250.5 359,-250.5 359,-220.5 238,-220.5"/>
<text text-anchor="start" x="246" y="-238.5" font-family="Helvetica,sans-Serif" font-size="10.00">BlackCore::Context</text>
<text text-anchor="middle" x="298.5" y="-227.5" font-family="Helvetica,sans-Serif" font-size="10.00">::IContextOwnAircraft</text>
</a>
</g>
</g>
<!-- Node1&#45;&gt;Node15 -->
<g id="edge14" class="edge">
<title>Node1&#45;&gt;Node15</title>
<path fill="none" stroke="midnightblue" d="M174.28,-336.88C204.32,-312.16 252.71,-272.35 279.02,-250.71"/>
<polygon fill="midnightblue" stroke="midnightblue" points="171.83,-334.36 166.33,-343.42 176.28,-339.77 171.83,-334.36"/>
</g>
<!-- Node19 -->
<g id="node19" class="node">
<title>Node19</title>
<g id="a_node19"><a xlink:href="class_black_core_1_1_context_1_1_i_context_simulator.html" target="_top" xlink:title="Network context.">
<polygon fill="none" stroke="black" points="243,-74.5 243,-104.5 354,-104.5 354,-74.5 243,-74.5"/>
<text text-anchor="start" x="251" y="-92.5" font-family="Helvetica,sans-Serif" font-size="10.00">BlackCore::Context</text>
<text text-anchor="middle" x="298.5" y="-81.5" font-family="Helvetica,sans-Serif" font-size="10.00">::IContextSimulator</text>
</a>
</g>
</g>
<!-- Node1&#45;&gt;Node19 -->
<g id="edge18" class="edge">
<title>Node1&#45;&gt;Node19</title>
<path fill="none" stroke="midnightblue" d="M161.44,-334.32C191.69,-279.89 264.42,-149.02 289.13,-104.57"/>
<polygon fill="midnightblue" stroke="midnightblue" points="158.26,-332.83 156.47,-343.27 164.38,-336.23 158.26,-332.83"/>
</g>
<!-- Node2 -->
<g id="node2" class="node">
<title>Node2</title>
<g id="a_node2"><a target="_parent" xlink:href="http://doc.qt.io/qt-5/qobject.html" xlink:title=" ">
<polygon fill="none" stroke="black" points="0,-349 0,-368 56,-368 56,-349 0,-349"/>
<text text-anchor="middle" x="28" y="-356" font-family="Helvetica,sans-Serif" font-size="10.00">QObject</text>
</a>
</g>
</g>
<!-- Node2&#45;&gt;Node1 -->
<g id="edge1" class="edge">
<title>Node2&#45;&gt;Node1</title>
<path fill="none" stroke="midnightblue" d="M66.37,-358.5C74.48,-358.5 83.22,-358.5 91.82,-358.5"/>
<polygon fill="midnightblue" stroke="midnightblue" points="66.14,-355 56.14,-358.5 66.14,-362 66.14,-355"/>
</g>
<!-- Node4 -->
<g id="node4" class="node">
<title>Node4</title>
<g id="a_node4"><a xlink:href="class_black_core_1_1_context_1_1_c_context_application.html" target="_top" xlink:title="Application context.">
<polygon fill="none" stroke="black" points="412,-588.5 412,-618.5 534,-618.5 534,-588.5 412,-588.5"/>
<text text-anchor="start" x="420" y="-606.5" font-family="Helvetica,sans-Serif" font-size="10.00">BlackCore::Context</text>
<text text-anchor="middle" x="473" y="-595.5" font-family="Helvetica,sans-Serif" font-size="10.00">::CContextApplication</text>
</a>
</g>
</g>
<!-- Node3&#45;&gt;Node4 -->
<g id="edge3" class="edge">
<title>Node3&#45;&gt;Node4</title>
<path fill="none" stroke="midnightblue" d="M328.09,-538.49C346.51,-551.31 371.35,-567.33 395,-578.5 402.75,-582.16 411.18,-585.5 419.53,-588.45"/>
<polygon fill="midnightblue" stroke="midnightblue" points="330.04,-535.58 319.85,-532.67 326,-541.3 330.04,-535.58"/>
</g>
<!-- Node5 -->
<g id="node5" class="node">
<title>Node5</title>
<g id="a_node5"><a xlink:href="class_black_core_1_1_context_1_1_c_context_application_empty.html" target="_top" xlink:title="Application context.">
<polygon fill="none" stroke="black" points="396,-539.5 396,-569.5 550,-569.5 550,-539.5 396,-539.5"/>
<text text-anchor="start" x="404" y="-557.5" font-family="Helvetica,sans-Serif" font-size="10.00">BlackCore::Context</text>
<text text-anchor="middle" x="473" y="-546.5" font-family="Helvetica,sans-Serif" font-size="10.00">::CContextApplicationEmpty</text>
</a>
</g>
</g>
<!-- Node3&#45;&gt;Node5 -->
<g id="edge4" class="edge">
<title>Node3&#45;&gt;Node5</title>
<path fill="none" stroke="midnightblue" d="M368.35,-532.27C379.35,-534.63 390.74,-537.07 401.77,-539.44"/>
<polygon fill="midnightblue" stroke="midnightblue" points="368.89,-528.8 358.38,-530.13 367.43,-535.65 368.89,-528.8"/>
</g>
<!-- Node6 -->
<g id="node6" class="node">
<title>Node6</title>
<g id="a_node6"><a xlink:href="class_black_core_1_1_context_1_1_c_context_application_proxy.html" target="_top" xlink:title="Application context proxy.">
<polygon fill="none" stroke="black" points="398,-490.5 398,-520.5 548,-520.5 548,-490.5 398,-490.5"/>
<text text-anchor="start" x="406" y="-508.5" font-family="Helvetica,sans-Serif" font-size="10.00">BlackCore::Context</text>
<text text-anchor="middle" x="473" y="-497.5" font-family="Helvetica,sans-Serif" font-size="10.00">::CContextApplicationProxy</text>
</a>
</g>
</g>
<!-- Node3&#45;&gt;Node6 -->
<g id="edge5" class="edge">
<title>Node3&#45;&gt;Node6</title>
<path fill="none" stroke="midnightblue" d="M368.66,-512.69C378.25,-512.02 388.14,-511.33 397.83,-510.66"/>
<polygon fill="midnightblue" stroke="midnightblue" points="368.12,-509.22 358.38,-513.4 368.6,-516.2 368.12,-509.22"/>
</g>
<!-- Node8 -->
<g id="node8" class="node">
<title>Node8</title>
<g id="a_node8"><a xlink:href="class_black_core_1_1_context_1_1_c_context_audio_base.html" target="_top" xlink:title="Audio context interface.">
<polygon fill="none" stroke="black" points="413.5,-441.5 413.5,-471.5 532.5,-471.5 532.5,-441.5 413.5,-441.5"/>
<text text-anchor="start" x="421.5" y="-459.5" font-family="Helvetica,sans-Serif" font-size="10.00">BlackCore::Context</text>
<text text-anchor="middle" x="473" y="-448.5" font-family="Helvetica,sans-Serif" font-size="10.00">::CContextAudioBase</text>
</a>
</g>
</g>
<!-- Node7&#45;&gt;Node8 -->
<g id="edge7" class="edge">
<title>Node7&#45;&gt;Node8</title>
<path fill="none" stroke="midnightblue" d="M364.04,-448.99C380.2,-450.11 397.44,-451.31 413.3,-452.42"/>
<polygon fill="midnightblue" stroke="midnightblue" points="363.83,-445.47 353.61,-448.26 363.34,-452.45 363.83,-445.47"/>
</g>
<!-- Node9 -->
<g id="node9" class="node">
<title>Node9</title>
<g id="a_node9"><a xlink:href="class_black_core_1_1_context_1_1_c_context_audio.html" target="_top" xlink:title="Audio context implementation.">
<polygon fill="none" stroke="black" points="593.5,-465.5 593.5,-495.5 703.5,-495.5 703.5,-465.5 593.5,-465.5"/>
<text text-anchor="start" x="601.5" y="-483.5" font-family="Helvetica,sans-Serif" font-size="10.00">BlackCore::Context</text>
<text text-anchor="middle" x="648.5" y="-472.5" font-family="Helvetica,sans-Serif" font-size="10.00">::CContextAudio</text>
</a>
</g>
</g>
<!-- Node8&#45;&gt;Node9 -->
<g id="edge8" class="edge">
<title>Node8&#45;&gt;Node9</title>
<path fill="none" stroke="midnightblue" d="M543.04,-466.05C559.82,-468.37 577.53,-470.82 593.5,-473.03"/>
<polygon fill="midnightblue" stroke="midnightblue" points="543.12,-462.53 532.74,-464.63 542.17,-469.46 543.12,-462.53"/>
</g>
<!-- Node10 -->
<g id="node10" class="node">
<title>Node10</title>
<g id="a_node10"><a xlink:href="class_black_core_1_1_context_1_1_c_context_audio_proxy.html" target="_top" xlink:title="Audio context proxy.">
<polygon fill="none" stroke="black" points="587,-416.5 587,-446.5 710,-446.5 710,-416.5 587,-416.5"/>
<text text-anchor="start" x="595" y="-434.5" font-family="Helvetica,sans-Serif" font-size="10.00">BlackCore::Context</text>
<text text-anchor="middle" x="648.5" y="-423.5" font-family="Helvetica,sans-Serif" font-size="10.00">::CContextAudioProxy</text>
</a>
</g>
</g>
<!-- Node8&#45;&gt;Node10 -->
<g id="edge9" class="edge">
<title>Node8&#45;&gt;Node10</title>
<path fill="none" stroke="midnightblue" d="M542.68,-446.6C557.24,-444.51 572.51,-442.31 586.75,-440.25"/>
<polygon fill="midnightblue" stroke="midnightblue" points="542.14,-443.15 532.74,-448.04 543.14,-450.07 542.14,-443.15"/>
</g>
<!-- Node12 -->
<g id="node12" class="node">
<title>Node12</title>
<g id="a_node12"><a xlink:href="class_black_core_1_1_context_1_1_c_context_network.html" target="_top" xlink:title="Network context implementation.">
<polygon fill="none" stroke="black" points="418,-392.5 418,-422.5 528,-422.5 528,-392.5 418,-392.5"/>
<text text-anchor="start" x="426" y="-410.5" font-family="Helvetica,sans-Serif" font-size="10.00">BlackCore::Context</text>
<text text-anchor="middle" x="473" y="-399.5" font-family="Helvetica,sans-Serif" font-size="10.00">::CContextNetwork</text>
</a>
</g>
</g>
<!-- Node11&#45;&gt;Node12 -->
<g id="edge11" class="edge">
<title>Node11&#45;&gt;Node12</title>
<path fill="none" stroke="midnightblue" d="M362.49,-376.39C381.05,-381.66 401.15,-387.38 419.01,-392.45"/>
<polygon fill="midnightblue" stroke="midnightblue" points="363.24,-372.97 352.66,-373.6 361.33,-379.7 363.24,-372.97"/>
</g>
<!-- Node13 -->
<g id="node13" class="node">
<title>Node13</title>
<g id="a_node13"><a xlink:href="class_black_core_1_1_context_1_1_c_context_network_empty.html" target="_top" xlink:title="Empty context, used during shutdown/initialization.">
<polygon fill="none" stroke="black" points="403,-343.5 403,-373.5 543,-373.5 543,-343.5 403,-343.5"/>
<text text-anchor="start" x="411" y="-361.5" font-family="Helvetica,sans-Serif" font-size="10.00">BlackCore::Context</text>
<text text-anchor="middle" x="473" y="-350.5" font-family="Helvetica,sans-Serif" font-size="10.00">::CContextNetworkEmpty</text>
</a>
</g>
</g>
<!-- Node11&#45;&gt;Node13 -->
<g id="edge12" class="edge">
<title>Node11&#45;&gt;Node13</title>
<path fill="none" stroke="midnightblue" d="M363.68,-358.5C376.46,-358.5 389.93,-358.5 402.86,-358.5"/>
<polygon fill="midnightblue" stroke="midnightblue" points="363.61,-355 353.61,-358.5 363.61,-362 363.61,-355"/>
</g>
<!-- Node14 -->
<g id="node14" class="node">
<title>Node14</title>
<g id="a_node14"><a xlink:href="class_black_core_1_1_context_1_1_c_context_network_proxy.html" target="_top" xlink:title="Network context proxy.">
<polygon fill="none" stroke="black" points="404.5,-294.5 404.5,-324.5 541.5,-324.5 541.5,-294.5 404.5,-294.5"/>
<text text-anchor="start" x="412.5" y="-312.5" font-family="Helvetica,sans-Serif" font-size="10.00">BlackCore::Context</text>
<text text-anchor="middle" x="473" y="-301.5" font-family="Helvetica,sans-Serif" font-size="10.00">::CContextNetworkProxy</text>
</a>
</g>
</g>
<!-- Node11&#45;&gt;Node14 -->
<g id="edge13" class="edge">
<title>Node11&#45;&gt;Node14</title>
<path fill="none" stroke="midnightblue" d="M362.49,-340.61C381.05,-335.34 401.15,-329.62 419.01,-324.55"/>
<polygon fill="midnightblue" stroke="midnightblue" points="361.33,-337.3 352.66,-343.4 363.24,-344.03 361.33,-337.3"/>
</g>
<!-- Node16 -->
<g id="node16" class="node">
<title>Node16</title>
<g id="a_node16"><a xlink:href="class_black_core_1_1_context_1_1_c_context_own_aircraft.html" target="_top" xlink:title="Own aircraft context implementation. Central instance of data for.">
<polygon fill="none" stroke="black" points="410.5,-245.5 410.5,-275.5 535.5,-275.5 535.5,-245.5 410.5,-245.5"/>
<text text-anchor="start" x="418.5" y="-263.5" font-family="Helvetica,sans-Serif" font-size="10.00">BlackCore::Context</text>
<text text-anchor="middle" x="473" y="-252.5" font-family="Helvetica,sans-Serif" font-size="10.00">::CContextOwnAircraft</text>
</a>
</g>
</g>
<!-- Node15&#45;&gt;Node16 -->
<g id="edge15" class="edge">
<title>Node15&#45;&gt;Node16</title>
<path fill="none" stroke="midnightblue" d="M369.52,-245.65C383,-247.6 397.02,-249.63 410.21,-251.54"/>
<polygon fill="midnightblue" stroke="midnightblue" points="369.75,-242.14 359.35,-244.17 368.74,-249.07 369.75,-242.14"/>
</g>
<!-- Node17 -->
<g id="node17" class="node">
<title>Node17</title>
<g id="a_node17"><a xlink:href="class_black_core_1_1_context_1_1_c_context_own_aircraft_empty.html" target="_top" xlink:title="Empty context, used during shutdown/initialization.">
<polygon fill="none" stroke="black" points="395,-196.5 395,-226.5 551,-226.5 551,-196.5 395,-196.5"/>
<text text-anchor="start" x="403" y="-214.5" font-family="Helvetica,sans-Serif" font-size="10.00">BlackCore::Context</text>
<text text-anchor="middle" x="473" y="-203.5" font-family="Helvetica,sans-Serif" font-size="10.00">::CContextOwnAircraftEmpty</text>
</a>
</g>
</g>
<!-- Node15&#45;&gt;Node17 -->
<g id="edge16" class="edge">
<title>Node15&#45;&gt;Node17</title>
<path fill="none" stroke="midnightblue" d="M369.46,-225.77C377.85,-224.6 386.45,-223.4 394.94,-222.22"/>
<polygon fill="midnightblue" stroke="midnightblue" points="368.77,-222.33 359.35,-227.17 369.73,-229.26 368.77,-222.33"/>
</g>
<!-- Node18 -->
<g id="node18" class="node">
<title>Node18</title>
<g id="a_node18"><a xlink:href="class_black_core_1_1_context_1_1_c_context_own_aircraft_proxy.html" target="_top" xlink:title="Own aircraft context proxy.">
<polygon fill="none" stroke="black" points="397,-147.5 397,-177.5 549,-177.5 549,-147.5 397,-147.5"/>
<text text-anchor="start" x="405" y="-165.5" font-family="Helvetica,sans-Serif" font-size="10.00">BlackCore::Context</text>
<text text-anchor="middle" x="473" y="-154.5" font-family="Helvetica,sans-Serif" font-size="10.00">::CContextOwnAircraftProxy</text>
</a>
</g>
</g>
<!-- Node15&#45;&gt;Node18 -->
<g id="edge17" class="edge">
<title>Node15&#45;&gt;Node18</title>
<path fill="none" stroke="midnightblue" d="M334.93,-215.48C352.63,-205.95 374.58,-194.85 395,-186.5 402.78,-183.32 411.14,-180.31 419.38,-177.57"/>
<polygon fill="midnightblue" stroke="midnightblue" points="333.19,-212.44 326.09,-220.29 336.54,-218.58 333.19,-212.44"/>
</g>
<!-- Node20 -->
<g id="node20" class="node">
<title>Node20</title>
<g id="a_node20"><a xlink:href="class_black_core_1_1_context_1_1_c_context_simulator.html" target="_top" xlink:title="Network simulator concrete implementation.">
<polygon fill="none" stroke="black" points="415.5,-98.5 415.5,-128.5 530.5,-128.5 530.5,-98.5 415.5,-98.5"/>
<text text-anchor="start" x="423.5" y="-116.5" font-family="Helvetica,sans-Serif" font-size="10.00">BlackCore::Context</text>
<text text-anchor="middle" x="473" y="-105.5" font-family="Helvetica,sans-Serif" font-size="10.00">::CContextSimulator</text>
</a>
</g>
</g>
<!-- Node19&#45;&gt;Node20 -->
<g id="edge19" class="edge">
<title>Node19&#45;&gt;Node20</title>
<path fill="none" stroke="midnightblue" d="M364.36,-98.52C381.14,-100.86 399.07,-103.35 415.4,-105.62"/>
<polygon fill="midnightblue" stroke="midnightblue" points="364.47,-95.01 354.08,-97.09 363.5,-101.94 364.47,-95.01"/>
</g>
<!-- Node21 -->
<g id="node21" class="node">
<title>Node21</title>
<g id="a_node21"><a xlink:href="class_black_core_1_1_context_1_1_c_context_simulator_empty.html" target="_top" xlink:title="Empty context, used during shutdown/initialization.">
<polygon fill="none" stroke="black" points="400,-49.5 400,-79.5 546,-79.5 546,-49.5 400,-49.5"/>
<text text-anchor="start" x="408" y="-67.5" font-family="Helvetica,sans-Serif" font-size="10.00">BlackCore::Context</text>
<text text-anchor="middle" x="473" y="-56.5" font-family="Helvetica,sans-Serif" font-size="10.00">::CContextSimulatorEmpty</text>
</a>
</g>
</g>
<!-- Node19&#45;&gt;Node21 -->
<g id="edge20" class="edge">
<title>Node19&#45;&gt;Node21</title>
<path fill="none" stroke="midnightblue" d="M364.13,-80.13C375.76,-78.45 387.95,-76.68 399.78,-74.97"/>
<polygon fill="midnightblue" stroke="midnightblue" points="363.47,-76.69 354.08,-81.59 364.48,-83.62 363.47,-76.69"/>
</g>
<!-- Node22 -->
<g id="node22" class="node">
<title>Node22</title>
<g id="a_node22"><a xlink:href="class_black_core_1_1_context_1_1_c_context_simulator_proxy.html" target="_top" xlink:title="DBus proxy for Simulator Context.">
<polygon fill="none" stroke="black" points="401.5,-0.5 401.5,-30.5 544.5,-30.5 544.5,-0.5 401.5,-0.5"/>
<text text-anchor="start" x="409.5" y="-18.5" font-family="Helvetica,sans-Serif" font-size="10.00">BlackCore::Context</text>
<text text-anchor="middle" x="473" y="-7.5" font-family="Helvetica,sans-Serif" font-size="10.00">::CContextSimulatorProxy</text>
</a>
</g>
</g>
<!-- Node19&#45;&gt;Node22 -->
<g id="edge21" class="edge">
<title>Node19&#45;&gt;Node22</title>
<path fill="none" stroke="midnightblue" d="M334.12,-69.44C351.94,-59.62 374.24,-48.09 395,-39.5 402.76,-36.29 411.12,-33.26 419.36,-30.52"/>
<polygon fill="midnightblue" stroke="midnightblue" points="332.26,-66.47 325.24,-74.4 335.68,-72.58 332.26,-66.47"/>
</g>
</g>
</svg>
