<?xml version="1.0" encoding="UTF-8" standalone="no"?>
<!DOCTYPE svg PUBLIC "-//W3C//DTD SVG 1.1//EN"
 "http://www.w3.org/Graphics/SVG/1.1/DTD/svg11.dtd">
<!-- Generated by graphviz version 2.43.0 (0)
 -->
<!-- Title: BlackMisc::CPropertyIndexVariantMap Pages: 1 -->
<svg width="409pt" height="186pt"
 viewBox="0.00 0.00 409.00 186.00" xmlns="http://www.w3.org/2000/svg" xmlns:xlink="http://www.w3.org/1999/xlink">
<g id="graph0" class="graph" transform="scale(1 1) rotate(0) translate(4 182)">
<title>BlackMisc::CPropertyIndexVariantMap</title>
<!-- Node1 -->
<g id="node1" class="node">
<title>Node1</title>
<g id="a_node1"><a xlink:title="Specialized value object compliant map for variants, based on indexes.">
<polygon fill="#bfbfbf" stroke="black" points="254,-73.5 254,-103.5 401,-103.5 401,-73.5 254,-73.5"/>
<text text-anchor="start" x="262" y="-91.5" font-family="Helvetica,sans-Serif" font-size="10.00">BlackMisc::CPropertyIndex</text>
<text text-anchor="middle" x="327.5" y="-80.5" font-family="Helvetica,sans-Serif" font-size="10.00">VariantMap</text>
</a>
</g>
</g>
<!-- Node2 -->
<g id="node2" class="node">
<title>Node2</title>
<g id="a_node2"><a xlink:href="class_black_misc_1_1_mixin_1_1_meta_type.html" target="_top" xlink:title=" ">
<polygon fill="none" stroke="black" points="24,-147.5 24,-177.5 194,-177.5 194,-147.5 24,-147.5"/>
<text text-anchor="start" x="32" y="-165.5" font-family="Helvetica,sans-Serif" font-size="10.00">BlackMisc::Mixin::MetaType</text>
<text text-anchor="middle" x="109" y="-154.5" font-family="Helvetica,sans-Serif" font-size="10.00">&lt; CPropertyIndexVariantMap &gt;</text>
</a>
</g>
</g>
<!-- Node2&#45;&gt;Node1 -->
<g id="edge1" class="edge">
<title>Node2&#45;&gt;Node1</title>
<path fill="none" stroke="midnightblue" d="M197.03,-144.86C204.17,-142.9 211.24,-140.78 218,-138.5 246.1,-129.02 276.67,-114.53 298.17,-103.59"/>
<polygon fill="midnightblue" stroke="midnightblue" points="196.03,-141.51 187.25,-147.44 197.82,-148.28 196.03,-141.51"/>
</g>
<!-- Node3 -->
<g id="node3" class="node">
<title>Node3</title>
<g id="a_node3"><a xlink:href="class_black_misc_1_1_mixin_1_1_d_bus_operators.html" target="_top" xlink:title=" ">
<polygon fill="none" stroke="black" points="19.5,-98.5 19.5,-128.5 198.5,-128.5 198.5,-98.5 19.5,-98.5"/>
<text text-anchor="start" x="27.5" y="-116.5" font-family="Helvetica,sans-Serif" font-size="10.00">BlackMisc::Mixin::DBusOperators</text>
<text text-anchor="middle" x="109" y="-105.5" font-family="Helvetica,sans-Serif" font-size="10.00">&lt; CPropertyIndexVariantMap &gt;</text>
</a>
</g>
</g>
<!-- Node3&#45;&gt;Node1 -->
<g id="edge2" class="edge">
<title>Node3&#45;&gt;Node1</title>
<path fill="none" stroke="midnightblue" d="M208.63,-102.11C223.84,-100.35 239.3,-98.57 253.81,-96.89"/>
<polygon fill="midnightblue" stroke="midnightblue" points="208.22,-98.64 198.68,-103.26 209.02,-105.59 208.22,-98.64"/>
</g>
<!-- Node4 -->
<g id="node4" class="node">
<title>Node4</title>
<g id="a_node4"><a xlink:href="class_black_misc_1_1_mixin_1_1_data_stream_operators.html" target="_top" xlink:title=" ">
<polygon fill="none" stroke="black" points="0,-49.5 0,-79.5 218,-79.5 218,-49.5 0,-49.5"/>
<text text-anchor="start" x="8" y="-67.5" font-family="Helvetica,sans-Serif" font-size="10.00">BlackMisc::Mixin::DataStream</text>
<text text-anchor="middle" x="109" y="-56.5" font-family="Helvetica,sans-Serif" font-size="10.00">Operators&lt; CPropertyIndexVariantMap &gt;</text>
</a>
</g>
</g>
<!-- Node4&#45;&gt;Node1 -->
<g id="edge3" class="edge">
<title>Node4&#45;&gt;Node1</title>
<path fill="none" stroke="midnightblue" d="M228.4,-77.63C237.03,-78.58 245.57,-79.53 253.81,-80.44"/>
<polygon fill="midnightblue" stroke="midnightblue" points="228.57,-74.12 218.25,-76.5 227.8,-81.08 228.57,-74.12"/>
</g>
<!-- Node5 -->
<g id="node5" class="node">
<title>Node5</title>
<g id="a_node5"><a xlink:href="class_black_misc_1_1_mixin_1_1_string.html" target="_top" xlink:title=" ">
<polygon fill="none" stroke="black" points="24,-0.5 24,-30.5 194,-30.5 194,-0.5 24,-0.5"/>
<text text-anchor="start" x="32" y="-18.5" font-family="Helvetica,sans-Serif" font-size="10.00">BlackMisc::Mixin::String</text>
<text text-anchor="middle" x="109" y="-7.5" font-family="Helvetica,sans-Serif" font-size="10.00">&lt; CPropertyIndexVariantMap &gt;</text>
</a>
</g>
</g>
<!-- Node5&#45;&gt;Node1 -->
<g id="edge4" class="edge">
<title>Node5&#45;&gt;Node1</title>
<path fill="none" stroke="midnightblue" d="M193.3,-33.11C201.7,-35.38 210.06,-37.85 218,-40.5 245.35,-49.63 275.24,-63.13 296.71,-73.49"/>
<polygon fill="midnightblue" stroke="midnightblue" points="193.99,-29.67 183.43,-30.52 192.22,-36.44 193.99,-29.67"/>
</g>
</g>
</svg>
