<?xml version="1.0" encoding="UTF-8" standalone="no"?>
<!DOCTYPE svg PUBLIC "-//W3C//DTD SVG 1.1//EN"
 "http://www.w3.org/Graphics/SVG/1.1/DTD/svg11.dtd">
<!-- Generated by graphviz version 2.43.0 (0)
 -->
<!-- Title: BlackMisc::Simulation::IAircraftModelLoader Pages: 1 -->
<svg width="753pt" height="210pt"
 viewBox="0.00 0.00 753.00 209.50" xmlns="http://www.w3.org/2000/svg" xmlns:xlink="http://www.w3.org/1999/xlink">
<g id="graph0" class="graph" transform="scale(1 1) rotate(0) translate(4 205.5)">
<title>BlackMisc::Simulation::IAircraftModelLoader</title>
<!-- Node1 -->
<g id="node1" class="node">
<title>Node1</title>
<g id="a_node1"><a xlink:title="Load the aircraft for a simulator.">
<polygon fill="#bfbfbf" stroke="black" points="411,-88 411,-118 536,-118 536,-88 411,-88"/>
<text text-anchor="start" x="419" y="-106" font-family="Helvetica,sans-Serif" font-size="10.00">BlackMisc::Simulation</text>
<text text-anchor="middle" x="473.5" y="-95" font-family="Helvetica,sans-Serif" font-size="10.00">::IAircraftModelLoader</text>
</a>
</g>
</g>
<!-- Node8 -->
<g id="node8" class="node">
<title>Node8</title>
<g id="a_node8"><a xlink:href="class_black_misc_1_1_simulation_1_1_c_dummy_model_loader.html" target="_top" xlink:title="Dummy loader for testing.">
<polygon fill="none" stroke="black" points="593,-171 593,-201 724,-201 724,-171 593,-171"/>
<text text-anchor="start" x="601" y="-189" font-family="Helvetica,sans-Serif" font-size="10.00">BlackMisc::Simulation</text>
<text text-anchor="middle" x="658.5" y="-178" font-family="Helvetica,sans-Serif" font-size="10.00">::CDummyModelLoader</text>
</a>
</g>
</g>
<!-- Node1&#45;&gt;Node8 -->
<g id="edge7" class="edge">
<title>Node1&#45;&gt;Node8</title>
<path fill="none" stroke="midnightblue" d="M504.52,-123.55C523.28,-135.71 548.3,-150.69 572,-161 580.51,-164.7 589.72,-168.04 598.85,-170.99"/>
<polygon fill="midnightblue" stroke="midnightblue" points="506.39,-120.59 496.11,-118.02 502.54,-126.44 506.39,-120.59"/>
</g>
<!-- Node9 -->
<g id="node9" class="node">
<title>Node9</title>
<g id="a_node9"><a xlink:href="class_black_misc_1_1_simulation_1_1_flightgear_1_1_c_aircraft_model_loader_flightgear.html" target="_top" xlink:title="Flightgear aircraft model loader.">
<polygon fill="none" stroke="black" points="583.5,-110.5 583.5,-151.5 733.5,-151.5 733.5,-110.5 583.5,-110.5"/>
<text text-anchor="start" x="591.5" y="-139.5" font-family="Helvetica,sans-Serif" font-size="10.00">BlackMisc::Simulation</text>
<text text-anchor="start" x="591.5" y="-128.5" font-family="Helvetica,sans-Serif" font-size="10.00">::Flightgear::CAircraftModel</text>
<text text-anchor="middle" x="658.5" y="-117.5" font-family="Helvetica,sans-Serif" font-size="10.00">LoaderFlightgear</text>
</a>
</g>
</g>
<!-- Node1&#45;&gt;Node9 -->
<g id="edge8" class="edge">
<title>Node1&#45;&gt;Node9</title>
<path fill="none" stroke="midnightblue" d="M546.3,-113.99C558.48,-115.85 571.15,-117.79 583.39,-119.66"/>
<polygon fill="midnightblue" stroke="midnightblue" points="546.61,-110.49 536.2,-112.44 545.56,-117.41 546.61,-110.49"/>
</g>
<!-- Node10 -->
<g id="node10" class="node">
<title>Node10</title>
<g id="a_node10"><a xlink:href="class_black_misc_1_1_simulation_1_1_fs_common_1_1_c_aircraft_cfg_parser.html" target="_top" xlink:title="Utility, parsing the aircraft.cfg files.">
<polygon fill="none" stroke="black" points="572,-61 572,-91 745,-91 745,-61 572,-61"/>
<text text-anchor="start" x="580" y="-79" font-family="Helvetica,sans-Serif" font-size="10.00">BlackMisc::Simulation</text>
<text text-anchor="middle" x="658.5" y="-68" font-family="Helvetica,sans-Serif" font-size="10.00">::FsCommon::CAircraftCfgParser</text>
</a>
</g>
</g>
<!-- Node1&#45;&gt;Node10 -->
<g id="edge9" class="edge">
<title>Node1&#45;&gt;Node10</title>
<path fill="none" stroke="midnightblue" d="M546.25,-92.41C554.6,-91.18 563.19,-89.92 571.7,-88.66"/>
<polygon fill="midnightblue" stroke="midnightblue" points="545.58,-88.97 536.2,-93.9 546.6,-95.9 545.58,-88.97"/>
</g>
<!-- Node11 -->
<g id="node11" class="node">
<title>Node11</title>
<g id="a_node11"><a xlink:href="class_black_misc_1_1_simulation_1_1_x_plane_1_1_c_aircraft_model_loader_x_plane.html" target="_top" xlink:title="XPlane aircraft model loader.">
<polygon fill="none" stroke="black" points="575,-0.5 575,-41.5 742,-41.5 742,-0.5 575,-0.5"/>
<text text-anchor="start" x="583" y="-29.5" font-family="Helvetica,sans-Serif" font-size="10.00">BlackMisc::Simulation</text>
<text text-anchor="start" x="583" y="-18.5" font-family="Helvetica,sans-Serif" font-size="10.00">::XPlane::CAircraftModelLoader</text>
<text text-anchor="middle" x="658.5" y="-7.5" font-family="Helvetica,sans-Serif" font-size="10.00">XPlane</text>
</a>
</g>
</g>
<!-- Node1&#45;&gt;Node11 -->
<g id="edge10" class="edge">
<title>Node1&#45;&gt;Node11</title>
<path fill="none" stroke="midnightblue" d="M508.91,-82.99C527.3,-72.73 550.51,-60.43 572,-51 579.49,-47.71 587.46,-44.52 595.42,-41.52"/>
<polygon fill="midnightblue" stroke="midnightblue" points="507.03,-80.03 500.04,-88 510.47,-86.13 507.03,-80.03"/>
</g>
<!-- Node2 -->
<g id="node2" class="node">
<title>Node2</title>
<g id="a_node2"><a target="_parent" xlink:href="http://doc.qt.io/qt-5/qobject.html" xlink:title=" ">
<polygon fill="none" stroke="black" points="264,-170.5 264,-189.5 320,-189.5 320,-170.5 264,-170.5"/>
<text text-anchor="middle" x="292" y="-177.5" font-family="Helvetica,sans-Serif" font-size="10.00">QObject</text>
</a>
</g>
</g>
<!-- Node2&#45;&gt;Node1 -->
<g id="edge1" class="edge">
<title>Node2&#45;&gt;Node1</title>
<path fill="none" stroke="midnightblue" d="M330.23,-173.91C344.53,-170.92 360.82,-166.7 375,-161 402.96,-149.76 432.33,-131.24 451.43,-118.15"/>
<polygon fill="midnightblue" stroke="midnightblue" points="329.37,-170.51 320.23,-175.87 330.72,-177.38 329.37,-170.51"/>
</g>
<!-- Node3 -->
<g id="node3" class="node">
<title>Node3</title>
<g id="a_node3"><a xlink:href="class_black_misc_1_1_simulation_1_1_data_1_1_c_central_multi_simulator_model_caches_aware.html" target="_top" xlink:title="Basically a QObject free (delegate based) version of CCentralMultiSimulatorModelCachesProvider.">
<polygon fill="none" stroke="black" points="209,-110.5 209,-151.5 375,-151.5 375,-110.5 209,-110.5"/>
<text text-anchor="start" x="217" y="-139.5" font-family="Helvetica,sans-Serif" font-size="10.00">BlackMisc::Simulation</text>
<text text-anchor="start" x="217" y="-128.5" font-family="Helvetica,sans-Serif" font-size="10.00">::Data::CCentralMultiSimulator</text>
<text text-anchor="middle" x="292" y="-117.5" font-family="Helvetica,sans-Serif" font-size="10.00">ModelCachesAware</text>
</a>
</g>
</g>
<!-- Node3&#45;&gt;Node1 -->
<g id="edge2" class="edge">
<title>Node3&#45;&gt;Node1</title>
<path fill="none" stroke="midnightblue" d="M385.28,-116.6C393.93,-115.26 402.55,-113.91 410.82,-112.62"/>
<polygon fill="midnightblue" stroke="midnightblue" points="384.47,-113.19 375.13,-118.19 385.55,-120.11 384.47,-113.19"/>
</g>
<!-- Node4 -->
<g id="node4" class="node">
<title>Node4</title>
<g id="a_node4"><a xlink:href="class_black_misc_1_1_simulation_1_1_i_models_for_simulator_setable.html" target="_top" xlink:title="Interface to &quot;something&quot; backing models, which can be set.">
<polygon fill="none" stroke="black" points="6.5,-140 6.5,-170 166.5,-170 166.5,-140 6.5,-140"/>
<text text-anchor="start" x="14.5" y="-158" font-family="Helvetica,sans-Serif" font-size="10.00">BlackMisc::Simulation</text>
<text text-anchor="middle" x="86.5" y="-147" font-family="Helvetica,sans-Serif" font-size="10.00">::IModelsForSimulatorSetable</text>
</a>
</g>
</g>
<!-- Node4&#45;&gt;Node3 -->
<g id="edge3" class="edge">
<title>Node4&#45;&gt;Node3</title>
<path fill="none" stroke="midnightblue" d="M176.9,-144.46C187.56,-143.2 198.39,-141.92 208.93,-140.68"/>
<polygon fill="midnightblue" stroke="midnightblue" points="176.28,-141.01 166.76,-145.65 177.1,-147.96 176.28,-141.01"/>
</g>
<!-- Node5 -->
<g id="node5" class="node">
<title>Node5</title>
<g id="a_node5"><a xlink:href="class_black_misc_1_1_simulation_1_1_i_models_for_simulator_updatable.html" target="_top" xlink:title="Interface to &quot;something&quot; backing models, which can be modified (updated)">
<polygon fill="none" stroke="black" points="0,-91 0,-121 173,-121 173,-91 0,-91"/>
<text text-anchor="start" x="8" y="-109" font-family="Helvetica,sans-Serif" font-size="10.00">BlackMisc::Simulation</text>
<text text-anchor="middle" x="86.5" y="-98" font-family="Helvetica,sans-Serif" font-size="10.00">::IModelsForSimulatorUpdatable</text>
</a>
</g>
</g>
<!-- Node5&#45;&gt;Node3 -->
<g id="edge4" class="edge">
<title>Node5&#45;&gt;Node3</title>
<path fill="none" stroke="midnightblue" d="M183.26,-117.76C191.85,-118.82 200.5,-119.88 208.96,-120.92"/>
<polygon fill="midnightblue" stroke="midnightblue" points="183.56,-114.28 173.21,-116.53 182.71,-121.22 183.56,-114.28"/>
</g>
<!-- Node6 -->
<g id="node6" class="node">
<title>Node6</title>
<g id="a_node6"><a xlink:href="class_black_misc_1_1_simulation_1_1_i_models_setable.html" target="_top" xlink:title="Interface to &quot;something&quot; backing models, which can be set.">
<polygon fill="none" stroke="black" points="229.5,-61 229.5,-91 354.5,-91 354.5,-61 229.5,-61"/>
<text text-anchor="start" x="237.5" y="-79" font-family="Helvetica,sans-Serif" font-size="10.00">BlackMisc::Simulation</text>
<text text-anchor="middle" x="292" y="-68" font-family="Helvetica,sans-Serif" font-size="10.00">::IModelsSetable</text>
</a>
</g>
</g>
<!-- Node6&#45;&gt;Node1 -->
<g id="edge5" class="edge">
<title>Node6&#45;&gt;Node1</title>
<path fill="none" stroke="midnightblue" d="M364.46,-86.75C379.78,-89.05 395.84,-91.47 410.75,-93.71"/>
<polygon fill="midnightblue" stroke="midnightblue" points="364.93,-83.28 354.52,-85.25 363.89,-90.2 364.93,-83.28"/>
</g>
<!-- Node7 -->
<g id="node7" class="node">
<title>Node7</title>
<g id="a_node7"><a xlink:href="class_black_misc_1_1_simulation_1_1_i_models_updatable.html" target="_top" xlink:title="Interface to &quot;something&quot; backing models, which can be modified (updated)">
<polygon fill="none" stroke="black" points="229.5,-12 229.5,-42 354.5,-42 354.5,-12 229.5,-12"/>
<text text-anchor="start" x="237.5" y="-30" font-family="Helvetica,sans-Serif" font-size="10.00">BlackMisc::Simulation</text>
<text text-anchor="middle" x="292" y="-19" font-family="Helvetica,sans-Serif" font-size="10.00">::IModelsUpdatable</text>
</a>
</g>
</g>
<!-- Node7&#45;&gt;Node1 -->
<g id="edge6" class="edge">
<title>Node7&#45;&gt;Node1</title>
<path fill="none" stroke="midnightblue" d="M359.53,-45.2C364.81,-47.03 370.02,-48.97 375,-51 400.58,-61.43 428.23,-76.58 447.53,-87.84"/>
<polygon fill="midnightblue" stroke="midnightblue" points="360.58,-41.86 349.98,-42.03 358.37,-48.51 360.58,-41.86"/>
</g>
</g>
</svg>
