<?xml version="1.0" encoding="UTF-8" standalone="no"?>
<!DOCTYPE svg PUBLIC "-//W3C//DTD SVG 1.1//EN"
 "http://www.w3.org/Graphics/SVG/1.1/DTD/svg11.dtd">
<!-- Generated by graphviz version 2.43.0 (0)
 -->
<!-- Title: BlackGui::CGuiApplication Pages: 1 -->
<svg width="343pt" height="196pt"
 viewBox="0.00 0.00 343.00 196.00" xmlns="http://www.w3.org/2000/svg" xmlns:xlink="http://www.w3.org/1999/xlink">
<g id="graph0" class="graph" transform="scale(1 1) rotate(0) translate(4 192)">
<title>BlackGui::CGuiApplication</title>
<!-- Node1 -->
<g id="node1" class="node">
<title>Node1</title>
<g id="a_node1"><a xlink:title="GUI application, a specialized version of BlackCore::CApplication for GUI applications.">
<polygon fill="#bfbfbf" stroke="black" points="96,-56.5 96,-75.5 240,-75.5 240,-56.5 96,-56.5"/>
<text text-anchor="middle" x="168" y="-63.5" font-family="Helvetica,sans-Serif" font-size="10.00">BlackGui::CGuiApplication</text>
</a>
</g>
</g>
<!-- Node6 -->
<g id="node6" class="node">
<title>Node6</title>
<g id="a_node6"><a xlink:href="class_c_swift_gui_std_application.html" target="_top" xlink:title="Specialized GUI application for swift pilot client.">
<polygon fill="none" stroke="black" points="101,-0.5 101,-19.5 235,-19.5 235,-0.5 101,-0.5"/>
<text text-anchor="middle" x="168" y="-7.5" font-family="Helvetica,sans-Serif" font-size="10.00">CSwiftGuiStdApplication</text>
</a>
</g>
</g>
<!-- Node1&#45;&gt;Node6 -->
<g id="edge5" class="edge">
<title>Node1&#45;&gt;Node6</title>
<path fill="none" stroke="midnightblue" d="M168,-45.8C168,-36.91 168,-26.78 168,-19.75"/>
<polygon fill="midnightblue" stroke="midnightblue" points="164.5,-46.08 168,-56.08 171.5,-46.08 164.5,-46.08"/>
</g>
<!-- Node2 -->
<g id="node2" class="node">
<title>Node2</title>
<g id="a_node2"><a xlink:href="class_black_core_1_1_c_application.html" target="_top" xlink:title="Our runtime.">
<polygon fill="none" stroke="black" points="17,-112.5 17,-131.5 151,-131.5 151,-112.5 17,-112.5"/>
<text text-anchor="middle" x="84" y="-119.5" font-family="Helvetica,sans-Serif" font-size="10.00">BlackCore::CApplication</text>
</a>
</g>
</g>
<!-- Node2&#45;&gt;Node1 -->
<g id="edge1" class="edge">
<title>Node2&#45;&gt;Node1</title>
<path fill="none" stroke="midnightblue" d="M105.93,-106.9C121.34,-97 141.45,-84.07 154.54,-75.65"/>
<polygon fill="midnightblue" stroke="midnightblue" points="104.02,-103.97 97.5,-112.32 107.8,-109.86 104.02,-103.97"/>
</g>
<!-- Node3 -->
<g id="node3" class="node">
<title>Node3</title>
<g id="a_node3"><a target="_parent" xlink:href="http://doc.qt.io/qt-5/qobject.html" xlink:title=" ">
<polygon fill="none" stroke="black" points="0,-168.5 0,-187.5 56,-187.5 56,-168.5 0,-168.5"/>
<text text-anchor="middle" x="28" y="-175.5" font-family="Helvetica,sans-Serif" font-size="10.00">QObject</text>
</a>
</g>
</g>
<!-- Node3&#45;&gt;Node2 -->
<g id="edge2" class="edge">
<title>Node3&#45;&gt;Node2</title>
<path fill="none" stroke="midnightblue" d="M44.33,-161.25C54.26,-151.67 66.59,-139.79 74.84,-131.83"/>
<polygon fill="midnightblue" stroke="midnightblue" points="41.77,-158.86 37,-168.32 46.63,-163.9 41.77,-158.86"/>
</g>
<!-- Node4 -->
<g id="node4" class="node">
<title>Node4</title>
<g id="a_node4"><a xlink:href="class_black_misc_1_1_c_identifiable.html" target="_top" xlink:title="Base class with a member CIdentifier to be inherited by a class which has an identity in the environm...">
<polygon fill="none" stroke="black" points="74,-168.5 74,-187.5 208,-187.5 208,-168.5 74,-168.5"/>
<text text-anchor="middle" x="141" y="-175.5" font-family="Helvetica,sans-Serif" font-size="10.00">BlackMisc::CIdentifiable</text>
</a>
</g>
</g>
<!-- Node4&#45;&gt;Node2 -->
<g id="edge3" class="edge">
<title>Node4&#45;&gt;Node2</title>
<path fill="none" stroke="midnightblue" d="M124.38,-161.25C114.27,-151.67 101.72,-139.79 93.32,-131.83"/>
<polygon fill="midnightblue" stroke="midnightblue" points="122.18,-163.99 131.84,-168.32 126.99,-158.91 122.18,-163.99"/>
</g>
<!-- Node5 -->
<g id="node5" class="node">
<title>Node5</title>
<g id="a_node5"><a xlink:href="class_black_gui_1_1_i_main_window_access.html" target="_top" xlink:title="Direct acccess to main window`s status bar, info bar and such.">
<polygon fill="none" stroke="black" points="169,-112.5 169,-131.5 335,-131.5 335,-112.5 169,-112.5"/>
<text text-anchor="middle" x="252" y="-119.5" font-family="Helvetica,sans-Serif" font-size="10.00">BlackGui::IMainWindowAccess</text>
</a>
</g>
</g>
<!-- Node5&#45;&gt;Node1 -->
<g id="edge4" class="edge">
<title>Node5&#45;&gt;Node1</title>
<path fill="none" stroke="midnightblue" d="M230.07,-106.9C214.66,-97 194.55,-84.07 181.46,-75.65"/>
<polygon fill="midnightblue" stroke="midnightblue" points="228.2,-109.86 238.5,-112.32 231.98,-103.97 228.2,-109.86"/>
</g>
</g>
</svg>
