<?xml version="1.0" encoding="UTF-8" standalone="no"?>
<!DOCTYPE svg PUBLIC "-//W3C//DTD SVG 1.1//EN"
 "http://www.w3.org/Graphics/SVG/1.1/DTD/svg11.dtd">
<!-- Generated by graphviz version 2.43.0 (0)
 -->
<!-- Title: BlackMisc::CDictionary&lt; Key, Value, Impl &gt; Pages: 1 -->
<svg width="352pt" height="242pt"
 viewBox="0.00 0.00 352.00 242.00" xmlns="http://www.w3.org/2000/svg" xmlns:xlink="http://www.w3.org/1999/xlink">
<g id="graph0" class="graph" transform="scale(1 1) rotate(0) translate(4 238)">
<title>BlackMisc::CDictionary&lt; Key, Value, Impl &gt;</title>
<!-- Node1 -->
<g id="node1" class="node">
<title>Node1</title>
<g id="a_node1"><a xlink:title="Associative container with value semantics, chooses a sensible default implementation container type.">
<polygon fill="#bfbfbf" stroke="black" points="215,-99 215,-129 344,-129 344,-99 215,-99"/>
<text text-anchor="start" x="223" y="-117" font-family="Helvetica,sans-Serif" font-size="10.00">BlackMisc::CDictionary</text>
<text text-anchor="middle" x="279.5" y="-106" font-family="Helvetica,sans-Serif" font-size="10.00">&lt; Key, Value, Impl &gt;</text>
</a>
</g>
</g>
<!-- Node2 -->
<g id="node2" class="node">
<title>Node2</title>
<g id="a_node2"><a xlink:href="class_black_misc_1_1_mixin_1_1_d_bus_operators.html" target="_top" xlink:title=" ">
<polygon fill="none" stroke="black" points="0,-192.5 0,-233.5 179,-233.5 179,-192.5 0,-192.5"/>
<text text-anchor="start" x="8" y="-221.5" font-family="Helvetica,sans-Serif" font-size="10.00">BlackMisc::Mixin::DBusOperators</text>
<text text-anchor="start" x="8" y="-210.5" font-family="Helvetica,sans-Serif" font-size="10.00">&lt; CDictionary&lt; Key, Value,</text>
<text text-anchor="middle" x="89.5" y="-199.5" font-family="Helvetica,sans-Serif" font-size="10.00"> TDefaultAssociativeType &gt; &gt;</text>
</a>
</g>
</g>
<!-- Node2&#45;&gt;Node1 -->
<g id="edge1" class="edge">
<title>Node2&#45;&gt;Node1</title>
<path fill="none" stroke="midnightblue" d="M167.38,-188.44C171.36,-186.7 175.25,-184.89 179,-183 209.23,-167.78 240.79,-144.41 260.05,-129.16"/>
<polygon fill="midnightblue" stroke="midnightblue" points="165.89,-185.26 158,-192.33 168.58,-191.73 165.89,-185.26"/>
</g>
<!-- Node3 -->
<g id="node3" class="node">
<title>Node3</title>
<g id="a_node3"><a xlink:href="class_black_misc_1_1_mixin_1_1_data_stream_operators.html" target="_top" xlink:title=" ">
<polygon fill="none" stroke="black" points="2,-121 2,-173 177,-173 177,-121 2,-121"/>
<text text-anchor="start" x="10" y="-161" font-family="Helvetica,sans-Serif" font-size="10.00">BlackMisc::Mixin::DataStream</text>
<text text-anchor="start" x="10" y="-150" font-family="Helvetica,sans-Serif" font-size="10.00">Operators&lt; CDictionary&lt;</text>
<text text-anchor="start" x="10" y="-139" font-family="Helvetica,sans-Serif" font-size="10.00"> Key, Value, TDefaultAssociative</text>
<text text-anchor="middle" x="89.5" y="-128" font-family="Helvetica,sans-Serif" font-size="10.00">Type &gt; &gt;</text>
</a>
</g>
</g>
<!-- Node3&#45;&gt;Node1 -->
<g id="edge2" class="edge">
<title>Node3&#45;&gt;Node1</title>
<path fill="none" stroke="midnightblue" d="M186.93,-130.07C196.39,-128.41 205.83,-126.76 214.84,-125.17"/>
<polygon fill="midnightblue" stroke="midnightblue" points="186.32,-126.63 177.07,-131.8 187.53,-133.52 186.32,-126.63"/>
</g>
<!-- Node4 -->
<g id="node4" class="node">
<title>Node4</title>
<g id="a_node4"><a xlink:href="class_black_misc_1_1_mixin_1_1_json_operators.html" target="_top" xlink:title=" ">
<polygon fill="none" stroke="black" points="3,-60.5 3,-101.5 176,-101.5 176,-60.5 3,-60.5"/>
<text text-anchor="start" x="11" y="-89.5" font-family="Helvetica,sans-Serif" font-size="10.00">BlackMisc::Mixin::JsonOperators</text>
<text text-anchor="start" x="11" y="-78.5" font-family="Helvetica,sans-Serif" font-size="10.00">&lt; CDictionary&lt; Key, Value,</text>
<text text-anchor="middle" x="89.5" y="-67.5" font-family="Helvetica,sans-Serif" font-size="10.00"> TDefaultAssociativeType &gt; &gt;</text>
</a>
</g>
</g>
<!-- Node4&#45;&gt;Node1 -->
<g id="edge3" class="edge">
<title>Node4&#45;&gt;Node1</title>
<path fill="none" stroke="midnightblue" d="M186.31,-97.82C195.97,-99.51 205.61,-101.21 214.81,-102.82"/>
<polygon fill="midnightblue" stroke="midnightblue" points="186.7,-94.33 176.25,-96.05 185.49,-101.23 186.7,-94.33"/>
</g>
<!-- Node5 -->
<g id="node5" class="node">
<title>Node5</title>
<g id="a_node5"><a xlink:href="class_black_misc_1_1_mixin_1_1_string.html" target="_top" xlink:title=" ">
<polygon fill="none" stroke="black" points="8,-0.5 8,-41.5 171,-41.5 171,-0.5 8,-0.5"/>
<text text-anchor="start" x="16" y="-29.5" font-family="Helvetica,sans-Serif" font-size="10.00">BlackMisc::Mixin::String</text>
<text text-anchor="start" x="16" y="-18.5" font-family="Helvetica,sans-Serif" font-size="10.00">&lt; CDictionary&lt; Key, Value,</text>
<text text-anchor="middle" x="89.5" y="-7.5" font-family="Helvetica,sans-Serif" font-size="10.00"> TDefaultAssociativeType &gt; &gt;</text>
</a>
</g>
</g>
<!-- Node5&#45;&gt;Node1 -->
<g id="edge4" class="edge">
<title>Node5&#45;&gt;Node1</title>
<path fill="none" stroke="midnightblue" d="M166.42,-45.39C170.72,-47.19 174.94,-49.06 179,-51 207.78,-64.75 238.43,-85.13 257.99,-98.96"/>
<polygon fill="midnightblue" stroke="midnightblue" points="167.5,-42.05 156.92,-41.58 164.9,-48.55 167.5,-42.05"/>
</g>
</g>
</svg>
