<?xml version="1.0" encoding="UTF-8" standalone="no"?>
<!DOCTYPE svg PUBLIC "-//W3C//DTD SVG 1.1//EN"
 "http://www.w3.org/Graphics/SVG/1.1/DTD/svg11.dtd">
<!-- Generated by graphviz version 2.43.0 (0)
 -->
<!-- Title: BlackMisc::Simulation::CInterpolationAndRenderingSetupBase Pages: 1 -->
<svg width="364pt" height="110pt"
 viewBox="0.00 0.00 364.00 110.00" xmlns="http://www.w3.org/2000/svg" xmlns:xlink="http://www.w3.org/1999/xlink">
<g id="graph0" class="graph" transform="scale(1 1) rotate(0) translate(4 106)">
<title>BlackMisc::Simulation::CInterpolationAndRenderingSetupBase</title>
<!-- Node1 -->
<g id="node1" class="node">
<title>Node1</title>
<g id="a_node1"><a xlink:title="Value object for interpolator and rendering base class.">
<polygon fill="#bfbfbf" stroke="black" points="0,-30.5 0,-71.5 160,-71.5 160,-30.5 0,-30.5"/>
<text text-anchor="start" x="8" y="-59.5" font-family="Helvetica,sans-Serif" font-size="10.00">BlackMisc::Simulation</text>
<text text-anchor="start" x="8" y="-48.5" font-family="Helvetica,sans-Serif" font-size="10.00">::CInterpolationAndRendering</text>
<text text-anchor="middle" x="80" y="-37.5" font-family="Helvetica,sans-Serif" font-size="10.00">SetupBase</text>
</a>
</g>
</g>
<!-- Node2 -->
<g id="node2" class="node">
<title>Node2</title>
<g id="a_node2"><a xlink:href="class_black_misc_1_1_simulation_1_1_c_interpolation_and_rendering_setup_global.html" target="_top" xlink:title="Value object for interpolator and rendering.">
<polygon fill="none" stroke="black" points="196,-60.5 196,-101.5 356,-101.5 356,-60.5 196,-60.5"/>
<text text-anchor="start" x="204" y="-89.5" font-family="Helvetica,sans-Serif" font-size="10.00">BlackMisc::Simulation</text>
<text text-anchor="start" x="204" y="-78.5" font-family="Helvetica,sans-Serif" font-size="10.00">::CInterpolationAndRendering</text>
<text text-anchor="middle" x="276" y="-67.5" font-family="Helvetica,sans-Serif" font-size="10.00">SetupGlobal</text>
</a>
</g>
</g>
<!-- Node1&#45;&gt;Node2 -->
<g id="edge1" class="edge">
<title>Node1&#45;&gt;Node2</title>
<path fill="none" stroke="midnightblue" d="M170.16,-64.79C178.7,-66.11 187.32,-67.44 195.75,-68.75"/>
<polygon fill="midnightblue" stroke="midnightblue" points="170.6,-61.31 160.19,-63.25 169.53,-68.23 170.6,-61.31"/>
</g>
<!-- Node3 -->
<g id="node3" class="node">
<title>Node3</title>
<g id="a_node3"><a xlink:href="class_black_misc_1_1_simulation_1_1_c_interpolation_and_rendering_setup_per_callsign.html" target="_top" xlink:title="Value object for interpolator and rendering per callsign.">
<polygon fill="none" stroke="black" points="196,-0.5 196,-41.5 356,-41.5 356,-0.5 196,-0.5"/>
<text text-anchor="start" x="204" y="-29.5" font-family="Helvetica,sans-Serif" font-size="10.00">BlackMisc::Simulation</text>
<text text-anchor="start" x="204" y="-18.5" font-family="Helvetica,sans-Serif" font-size="10.00">::CInterpolationAndRendering</text>
<text text-anchor="middle" x="276" y="-7.5" font-family="Helvetica,sans-Serif" font-size="10.00">SetupPerCallsign</text>
</a>
</g>
</g>
<!-- Node1&#45;&gt;Node3 -->
<g id="edge2" class="edge">
<title>Node1&#45;&gt;Node3</title>
<path fill="none" stroke="midnightblue" d="M170.16,-37.21C178.7,-35.89 187.32,-34.56 195.75,-33.25"/>
<polygon fill="midnightblue" stroke="midnightblue" points="169.53,-33.77 160.19,-38.75 170.6,-40.69 169.53,-33.77"/>
</g>
</g>
</svg>
