<?xml version="1.0" encoding="UTF-8" standalone="no"?>
<!DOCTYPE svg PUBLIC "-//W3C//DTD SVG 1.1//EN"
 "http://www.w3.org/Graphics/SVG/1.1/DTD/svg11.dtd">
<!-- Generated by graphviz version 2.43.0 (0)
 -->
<!-- Title: BlackCore::CWeatherManager Pages: 1 -->
<svg width="210pt" height="95pt"
 viewBox="0.00 0.00 209.50 95.00" xmlns="http://www.w3.org/2000/svg" xmlns:xlink="http://www.w3.org/1999/xlink">
<g id="graph0" class="graph" transform="scale(1 1) rotate(0) translate(4 91)">
<title>BlackCore::CWeatherManager</title>
<!-- Node1 -->
<g id="node1" class="node">
<title>Node1</title>
<g id="a_node1"><a xlink:title="CWeatherManager.">
<polygon fill="#bfbfbf" stroke="black" points="2,-0.5 2,-19.5 164,-19.5 164,-0.5 2,-0.5"/>
<text text-anchor="middle" x="83" y="-7.5" font-family="Helvetica,sans-Serif" font-size="10.00">BlackCore::CWeatherManager</text>
</a>
</g>
</g>
<!-- Node2 -->
<g id="node2" class="node">
<title>Node2</title>
<g id="a_node2"><a target="_parent" xlink:href="http://doc.qt.io/qt-5/qobject.html" xlink:title=" ">
<polygon fill="none" stroke="black" points="0,-62 0,-81 56,-81 56,-62 0,-62"/>
<text text-anchor="middle" x="28" y="-69" font-family="Helvetica,sans-Serif" font-size="10.00">QObject</text>
</a>
</g>
</g>
<!-- Node2&#45;&gt;Node1 -->
<g id="edge1" class="edge">
<title>Node2&#45;&gt;Node1</title>
<path fill="none" stroke="midnightblue" d="M42.79,-54.5C53.2,-43.24 66.73,-28.6 75.13,-19.51"/>
<polygon fill="midnightblue" stroke="midnightblue" points="40.1,-52.26 35.88,-61.98 45.24,-57.01 40.1,-52.26"/>
</g>
<!-- Node3 -->
<g id="node3" class="node">
<title>Node3</title>
<g id="a_node3"><a xlink:href="class_black_misc_1_1_weather_1_1_i_weather_grid_provider.html" target="_top" xlink:title="Direct threadsafe in memory access to weather grid.">
<polygon fill="none" stroke="black" points="74.5,-56.5 74.5,-86.5 201.5,-86.5 201.5,-56.5 74.5,-56.5"/>
<text text-anchor="start" x="82.5" y="-74.5" font-family="Helvetica,sans-Serif" font-size="10.00">BlackMisc::Weather</text>
<text text-anchor="middle" x="138" y="-63.5" font-family="Helvetica,sans-Serif" font-size="10.00">::IWeatherGridProvider</text>
</a>
</g>
</g>
<!-- Node3&#45;&gt;Node1 -->
<g id="edge2" class="edge">
<title>Node3&#45;&gt;Node1</title>
<path fill="none" stroke="midnightblue" d="M118.13,-49C108.75,-38.86 98.1,-27.33 91,-19.66"/>
<polygon fill="midnightblue" stroke="midnightblue" points="115.61,-51.43 124.97,-56.4 120.75,-46.68 115.61,-51.43"/>
</g>
</g>
</svg>
