<?xml version="1.0" encoding="UTF-8" standalone="no"?>
<!DOCTYPE svg PUBLIC "-//W3C//DTD SVG 1.1//EN"
 "http://www.w3.org/Graphics/SVG/1.1/DTD/svg11.dtd">
<!-- Generated by graphviz version 2.43.0 (0)
 -->
<!-- Title: BlackMisc::Simulation::IModelsForSimulatorUpdatable Pages: 1 -->
<svg width="898pt" height="540pt"
 viewBox="0.00 0.00 898.00 540.00" xmlns="http://www.w3.org/2000/svg" xmlns:xlink="http://www.w3.org/1999/xlink">
<g id="graph0" class="graph" transform="scale(1 1) rotate(0) translate(4 536)">
<title>BlackMisc::Simulation::IModelsForSimulatorUpdatable</title>
<!-- Node1 -->
<g id="node1" class="node">
<title>Node1</title>
<g id="a_node1"><a xlink:title="Interface to &quot;something&quot; backing models, which can be modified (updated)">
<polygon fill="#bfbfbf" stroke="black" points="0,-393.5 0,-423.5 173,-423.5 173,-393.5 0,-393.5"/>
<text text-anchor="start" x="8" y="-411.5" font-family="Helvetica,sans-Serif" font-size="10.00">BlackMisc::Simulation</text>
<text text-anchor="middle" x="86.5" y="-400.5" font-family="Helvetica,sans-Serif" font-size="10.00">::IModelsForSimulatorUpdatable</text>
</a>
</g>
</g>
<!-- Node2 -->
<g id="node2" class="node">
<title>Node2</title>
<g id="a_node2"><a xlink:href="class_black_gui_1_1_components_1_1_c_db_model_workbench_component.html" target="_top" xlink:title="Handling of own models on disk (the models installed for the simulator)">
<polygon fill="none" stroke="black" points="209,-497.5 209,-527.5 392,-527.5 392,-497.5 209,-497.5"/>
<text text-anchor="start" x="217" y="-515.5" font-family="Helvetica,sans-Serif" font-size="10.00">BlackGui::Components</text>
<text text-anchor="middle" x="300.5" y="-504.5" font-family="Helvetica,sans-Serif" font-size="10.00">::CDbModelWorkbenchComponent</text>
</a>
</g>
</g>
<!-- Node1&#45;&gt;Node2 -->
<g id="edge1" class="edge">
<title>Node1&#45;&gt;Node2</title>
<path fill="none" stroke="midnightblue" d="M114.29,-429.83C137.98,-447.75 174.1,-472.88 209,-488.5 216.57,-491.89 224.71,-494.88 232.9,-497.49"/>
<polygon fill="midnightblue" stroke="midnightblue" points="116.22,-426.89 106.15,-423.58 111.96,-432.45 116.22,-426.89"/>
</g>
<!-- Node3 -->
<g id="node3" class="node">
<title>Node3</title>
<g id="a_node3"><a xlink:href="class_black_gui_1_1_components_1_1_c_db_own_models_component.html" target="_top" xlink:title="Handling of own models on disk (the models installed for the simulator)">
<polygon fill="none" stroke="black" points="222.5,-448.5 222.5,-478.5 378.5,-478.5 378.5,-448.5 222.5,-448.5"/>
<text text-anchor="start" x="230.5" y="-466.5" font-family="Helvetica,sans-Serif" font-size="10.00">BlackGui::Components</text>
<text text-anchor="middle" x="300.5" y="-455.5" font-family="Helvetica,sans-Serif" font-size="10.00">::CDbOwnModelsComponent</text>
</a>
</g>
</g>
<!-- Node1&#45;&gt;Node3 -->
<g id="edge2" class="edge">
<title>Node1&#45;&gt;Node3</title>
<path fill="none" stroke="midnightblue" d="M155.46,-426.13C183.23,-433.33 215.01,-441.58 241.64,-448.49"/>
<polygon fill="midnightblue" stroke="midnightblue" points="155.99,-422.65 145.43,-423.53 154.23,-429.43 155.99,-422.65"/>
</g>
<!-- Node4 -->
<g id="node4" class="node">
<title>Node4</title>
<g id="a_node4"><a xlink:href="class_black_misc_1_1_simulation_1_1_data_1_1_c_central_multi_simulator_model_caches_aware.html" target="_top" xlink:title="Basically a QObject free (delegate based) version of CCentralMultiSimulatorModelCachesProvider.">
<polygon fill="none" stroke="black" points="217.5,-388 217.5,-429 383.5,-429 383.5,-388 217.5,-388"/>
<text text-anchor="start" x="225.5" y="-417" font-family="Helvetica,sans-Serif" font-size="10.00">BlackMisc::Simulation</text>
<text text-anchor="start" x="225.5" y="-406" font-family="Helvetica,sans-Serif" font-size="10.00">::Data::CCentralMultiSimulator</text>
<text text-anchor="middle" x="300.5" y="-395" font-family="Helvetica,sans-Serif" font-size="10.00">ModelCachesAware</text>
</a>
</g>
</g>
<!-- Node1&#45;&gt;Node4 -->
<g id="edge3" class="edge">
<title>Node1&#45;&gt;Node4</title>
<path fill="none" stroke="midnightblue" d="M183.45,-408.5C194.77,-408.5 206.24,-408.5 217.34,-408.5"/>
<polygon fill="midnightblue" stroke="midnightblue" points="183.12,-405 173.12,-408.5 183.12,-412 183.12,-405"/>
</g>
<!-- Node10 -->
<g id="node10" class="node">
<title>Node10</title>
<g id="a_node10"><a xlink:href="class_black_misc_1_1_simulation_1_1_data_1_1_c_central_multi_simulator_model_set_caches_aware.html" target="_top" xlink:title="Basically a QObject free (delegate based) version of CCentralMultiSimulatorModelSetCachesProvider.">
<polygon fill="none" stroke="black" points="217.5,-328 217.5,-369 383.5,-369 383.5,-328 217.5,-328"/>
<text text-anchor="start" x="225.5" y="-357" font-family="Helvetica,sans-Serif" font-size="10.00">BlackMisc::Simulation</text>
<text text-anchor="start" x="225.5" y="-346" font-family="Helvetica,sans-Serif" font-size="10.00">::Data::CCentralMultiSimulator</text>
<text text-anchor="middle" x="300.5" y="-335" font-family="Helvetica,sans-Serif" font-size="10.00">ModelSetCachesAware</text>
</a>
</g>
</g>
<!-- Node1&#45;&gt;Node10 -->
<g id="edge9" class="edge">
<title>Node1&#45;&gt;Node10</title>
<path fill="none" stroke="midnightblue" d="M150.45,-390.68C174.51,-383.87 202.14,-376.05 227.03,-369.01"/>
<polygon fill="midnightblue" stroke="midnightblue" points="149.39,-387.35 140.72,-393.44 151.3,-394.08 149.39,-387.35"/>
</g>
<!-- Node13 -->
<g id="node13" class="node">
<title>Node13</title>
<g id="a_node13"><a xlink:href="class_black_misc_1_1_simulation_1_1_data_1_1_i_multi_simulator_model_caches.html" target="_top" xlink:title="Cache for multiple simulators specified by CSimulatorInfo.">
<polygon fill="none" stroke="black" points="222,-140 222,-181 379,-181 379,-140 222,-140"/>
<text text-anchor="start" x="230" y="-169" font-family="Helvetica,sans-Serif" font-size="10.00">BlackMisc::Simulation</text>
<text text-anchor="start" x="230" y="-158" font-family="Helvetica,sans-Serif" font-size="10.00">::Data::IMultiSimulatorModel</text>
<text text-anchor="middle" x="300.5" y="-147" font-family="Helvetica,sans-Serif" font-size="10.00">Caches</text>
</a>
</g>
</g>
<!-- Node1&#45;&gt;Node13 -->
<g id="edge12" class="edge">
<title>Node1&#45;&gt;Node13</title>
<path fill="none" stroke="midnightblue" d="M107,-385.69C147.97,-337.76 242.49,-227.19 281.82,-181.18"/>
<polygon fill="midnightblue" stroke="midnightblue" points="104.28,-383.48 100.44,-393.36 109.6,-388.03 104.28,-383.48"/>
</g>
<!-- Node5 -->
<g id="node5" class="node">
<title>Node5</title>
<g id="a_node5"><a xlink:href="class_black_misc_1_1_simulation_1_1_i_aircraft_model_loader.html" target="_top" xlink:title="Load the aircraft for a simulator.">
<polygon fill="none" stroke="black" points="492,-410.5 492,-440.5 617,-440.5 617,-410.5 492,-410.5"/>
<text text-anchor="start" x="500" y="-428.5" font-family="Helvetica,sans-Serif" font-size="10.00">BlackMisc::Simulation</text>
<text text-anchor="middle" x="554.5" y="-417.5" font-family="Helvetica,sans-Serif" font-size="10.00">::IAircraftModelLoader</text>
</a>
</g>
</g>
<!-- Node4&#45;&gt;Node5 -->
<g id="edge4" class="edge">
<title>Node4&#45;&gt;Node5</title>
<path fill="none" stroke="midnightblue" d="M393.69,-414.72C426.36,-416.92 462.31,-419.35 491.82,-421.34"/>
<polygon fill="midnightblue" stroke="midnightblue" points="393.88,-411.22 383.67,-414.04 393.41,-418.21 393.88,-411.22"/>
</g>
<!-- Node6 -->
<g id="node6" class="node">
<title>Node6</title>
<g id="a_node6"><a xlink:href="class_black_misc_1_1_simulation_1_1_c_dummy_model_loader.html" target="_top" xlink:title="Dummy loader for testing.">
<polygon fill="none" stroke="black" points="738,-501.5 738,-531.5 869,-531.5 869,-501.5 738,-501.5"/>
<text text-anchor="start" x="746" y="-519.5" font-family="Helvetica,sans-Serif" font-size="10.00">BlackMisc::Simulation</text>
<text text-anchor="middle" x="803.5" y="-508.5" font-family="Helvetica,sans-Serif" font-size="10.00">::CDummyModelLoader</text>
</a>
</g>
</g>
<!-- Node5&#45;&gt;Node6 -->
<g id="edge5" class="edge">
<title>Node5&#45;&gt;Node6</title>
<path fill="none" stroke="midnightblue" d="M599.02,-444.72C631.26,-458.6 676.45,-477.33 717,-491.5 726.93,-494.97 737.61,-498.36 747.96,-501.47"/>
<polygon fill="midnightblue" stroke="midnightblue" points="600.01,-441.33 589.45,-440.57 597.23,-447.76 600.01,-441.33"/>
</g>
<!-- Node7 -->
<g id="node7" class="node">
<title>Node7</title>
<g id="a_node7"><a xlink:href="class_black_misc_1_1_simulation_1_1_flightgear_1_1_c_aircraft_model_loader_flightgear.html" target="_top" xlink:title="Flightgear aircraft model loader.">
<polygon fill="none" stroke="black" points="728.5,-441 728.5,-482 878.5,-482 878.5,-441 728.5,-441"/>
<text text-anchor="start" x="736.5" y="-470" font-family="Helvetica,sans-Serif" font-size="10.00">BlackMisc::Simulation</text>
<text text-anchor="start" x="736.5" y="-459" font-family="Helvetica,sans-Serif" font-size="10.00">::Flightgear::CAircraftModel</text>
<text text-anchor="middle" x="803.5" y="-448" font-family="Helvetica,sans-Serif" font-size="10.00">LoaderFlightgear</text>
</a>
</g>
</g>
<!-- Node5&#45;&gt;Node7 -->
<g id="edge6" class="edge">
<title>Node5&#45;&gt;Node7</title>
<path fill="none" stroke="midnightblue" d="M627.29,-435.96C659.06,-440.59 696.38,-446.03 728.41,-450.7"/>
<polygon fill="midnightblue" stroke="midnightblue" points="627.59,-432.47 617.19,-434.49 626.58,-439.4 627.59,-432.47"/>
</g>
<!-- Node8 -->
<g id="node8" class="node">
<title>Node8</title>
<g id="a_node8"><a xlink:href="class_black_misc_1_1_simulation_1_1_fs_common_1_1_c_aircraft_cfg_parser.html" target="_top" xlink:title="Utility, parsing the aircraft.cfg files.">
<polygon fill="none" stroke="black" points="717,-391.5 717,-421.5 890,-421.5 890,-391.5 717,-391.5"/>
<text text-anchor="start" x="725" y="-409.5" font-family="Helvetica,sans-Serif" font-size="10.00">BlackMisc::Simulation</text>
<text text-anchor="middle" x="803.5" y="-398.5" font-family="Helvetica,sans-Serif" font-size="10.00">::FsCommon::CAircraftCfgParser</text>
</a>
</g>
</g>
<!-- Node5&#45;&gt;Node8 -->
<g id="edge7" class="edge">
<title>Node5&#45;&gt;Node8</title>
<path fill="none" stroke="midnightblue" d="M627.31,-419.98C655.34,-417.82 687.7,-415.33 716.93,-413.08"/>
<polygon fill="midnightblue" stroke="midnightblue" points="626.89,-416.5 617.19,-420.75 627.43,-423.48 626.89,-416.5"/>
</g>
<!-- Node9 -->
<g id="node9" class="node">
<title>Node9</title>
<g id="a_node9"><a xlink:href="class_black_misc_1_1_simulation_1_1_x_plane_1_1_c_aircraft_model_loader_x_plane.html" target="_top" xlink:title="XPlane aircraft model loader.">
<polygon fill="none" stroke="black" points="720,-331 720,-372 887,-372 887,-331 720,-331"/>
<text text-anchor="start" x="728" y="-360" font-family="Helvetica,sans-Serif" font-size="10.00">BlackMisc::Simulation</text>
<text text-anchor="start" x="728" y="-349" font-family="Helvetica,sans-Serif" font-size="10.00">::XPlane::CAircraftModelLoader</text>
<text text-anchor="middle" x="803.5" y="-338" font-family="Helvetica,sans-Serif" font-size="10.00">XPlane</text>
</a>
</g>
</g>
<!-- Node5&#45;&gt;Node9 -->
<g id="edge8" class="edge">
<title>Node5&#45;&gt;Node9</title>
<path fill="none" stroke="midnightblue" d="M626.93,-415.63C644.86,-412.13 663.87,-407.51 681,-401.5 698.07,-395.51 700.46,-389.82 717,-382.5 725.09,-378.92 733.72,-375.42 742.29,-372.15"/>
<polygon fill="midnightblue" stroke="midnightblue" points="626.29,-412.19 617.1,-417.47 627.57,-419.07 626.29,-412.19"/>
</g>
<!-- Node11 -->
<g id="node11" class="node">
<title>Node11</title>
<g id="a_node11"><a xlink:href="class_black_gui_1_1_components_1_1_c_db_own_model_set_component.html" target="_top" xlink:title="Handling of the own model set.">
<polygon fill="none" stroke="black" points="471,-361.5 471,-391.5 638,-391.5 638,-361.5 471,-361.5"/>
<text text-anchor="start" x="479" y="-379.5" font-family="Helvetica,sans-Serif" font-size="10.00">BlackGui::Components</text>
<text text-anchor="middle" x="554.5" y="-368.5" font-family="Helvetica,sans-Serif" font-size="10.00">::CDbOwnModelSetComponent</text>
</a>
</g>
</g>
<!-- Node10&#45;&gt;Node11 -->
<g id="edge10" class="edge">
<title>Node10&#45;&gt;Node11</title>
<path fill="none" stroke="midnightblue" d="M393.92,-358.77C419.02,-361.56 446.04,-364.56 470.58,-367.29"/>
<polygon fill="midnightblue" stroke="midnightblue" points="393.99,-355.26 383.67,-357.63 393.22,-362.21 393.99,-355.26"/>
</g>
<!-- Node12 -->
<g id="node12" class="node">
<title>Node12</title>
<g id="a_node12"><a xlink:href="class_c_swift_launcher.html" target="_top" xlink:title="swift launcher tool">
<polygon fill="none" stroke="black" points="508.5,-323 508.5,-342 600.5,-342 600.5,-323 508.5,-323"/>
<text text-anchor="middle" x="554.5" y="-330" font-family="Helvetica,sans-Serif" font-size="10.00">CSwiftLauncher</text>
</a>
</g>
</g>
<!-- Node10&#45;&gt;Node12 -->
<g id="edge11" class="edge">
<title>Node10&#45;&gt;Node12</title>
<path fill="none" stroke="midnightblue" d="M393.98,-342.63C432.9,-340.16 476.43,-337.39 508.17,-335.38"/>
<polygon fill="midnightblue" stroke="midnightblue" points="393.42,-339.16 383.67,-343.28 393.87,-346.14 393.42,-339.16"/>
</g>
<!-- Node14 -->
<g id="node14" class="node">
<title>Node14</title>
<g id="a_node14"><a xlink:href="class_black_misc_1_1_simulation_1_1_data_1_1_c_central_multi_simulator_model_caches_provider_base.html" target="_top" xlink:title=" ">
<polygon fill="none" stroke="black" points="428,-241 428,-304 681,-304 681,-241 428,-241"/>
<text text-anchor="start" x="436" y="-292" font-family="Helvetica,sans-Serif" font-size="10.00">BlackMisc::Simulation</text>
<text text-anchor="start" x="436" y="-281" font-family="Helvetica,sans-Serif" font-size="10.00">::Data::CCentralMultiSimulator</text>
<text text-anchor="start" x="436" y="-270" font-family="Helvetica,sans-Serif" font-size="10.00">ModelCachesProviderBase&lt; CModelSet</text>
<text text-anchor="start" x="436" y="-259" font-family="Helvetica,sans-Serif" font-size="10.00">Caches, CCentralMultiSimulatorModelSetCaches</text>
<text text-anchor="middle" x="554.5" y="-248" font-family="Helvetica,sans-Serif" font-size="10.00">Provider &gt;</text>
</a>
</g>
</g>
<!-- Node13&#45;&gt;Node14 -->
<g id="edge13" class="edge">
<title>Node13&#45;&gt;Node14</title>
<path fill="none" stroke="midnightblue" d="M343.63,-186.35C367.77,-200.52 398.97,-217.74 428,-230.5 436.2,-234.11 444.82,-237.59 453.53,-240.9"/>
<polygon fill="midnightblue" stroke="midnightblue" points="345.13,-183.17 334.74,-181.09 341.56,-189.2 345.13,-183.17"/>
</g>
<!-- Node16 -->
<g id="node16" class="node">
<title>Node16</title>
<g id="a_node16"><a xlink:href="class_black_misc_1_1_simulation_1_1_data_1_1_c_central_multi_simulator_model_caches_provider_base.html" target="_top" xlink:title=" ">
<polygon fill="none" stroke="black" points="429,-169.5 429,-221.5 680,-221.5 680,-169.5 429,-169.5"/>
<text text-anchor="start" x="437" y="-209.5" font-family="Helvetica,sans-Serif" font-size="10.00">BlackMisc::Simulation</text>
<text text-anchor="start" x="437" y="-198.5" font-family="Helvetica,sans-Serif" font-size="10.00">::Data::CCentralMultiSimulator</text>
<text text-anchor="start" x="437" y="-187.5" font-family="Helvetica,sans-Serif" font-size="10.00">ModelCachesProviderBase&lt; CModelCaches,</text>
<text text-anchor="middle" x="554.5" y="-176.5" font-family="Helvetica,sans-Serif" font-size="10.00"> CCentralMultiSimulatorModelCachesProvider &gt;</text>
</a>
</g>
</g>
<!-- Node13&#45;&gt;Node16 -->
<g id="edge15" class="edge">
<title>Node13&#45;&gt;Node16</title>
<path fill="none" stroke="midnightblue" d="M389.29,-172.69C402.08,-174.47 415.45,-176.33 428.8,-178.18"/>
<polygon fill="midnightblue" stroke="midnightblue" points="389.55,-169.2 379.16,-171.29 388.59,-176.13 389.55,-169.2"/>
</g>
<!-- Node18 -->
<g id="node18" class="node">
<title>Node18</title>
<g id="a_node18"><a xlink:href="class_black_misc_1_1_simulation_1_1_data_1_1_c_central_multi_simulator_model_caches_provider_base.html" target="_top" xlink:title="One central instance of the caches base class.">
<polygon fill="none" stroke="black" points="454,-98.5 454,-150.5 655,-150.5 655,-98.5 454,-98.5"/>
<text text-anchor="start" x="462" y="-138.5" font-family="Helvetica,sans-Serif" font-size="10.00">BlackMisc::Simulation</text>
<text text-anchor="start" x="462" y="-127.5" font-family="Helvetica,sans-Serif" font-size="10.00">::Data::CCentralMultiSimulator</text>
<text text-anchor="start" x="462" y="-116.5" font-family="Helvetica,sans-Serif" font-size="10.00">ModelCachesProviderBase&lt; TCaches,</text>
<text text-anchor="middle" x="554.5" y="-105.5" font-family="Helvetica,sans-Serif" font-size="10.00"> Derived &gt;</text>
</a>
</g>
</g>
<!-- Node13&#45;&gt;Node18 -->
<g id="edge17" class="edge">
<title>Node13&#45;&gt;Node18</title>
<path fill="none" stroke="midnightblue" d="M389.26,-147.96C410.09,-144.99 432.46,-141.79 453.78,-138.75"/>
<polygon fill="midnightblue" stroke="midnightblue" points="388.57,-144.53 379.16,-149.41 389.56,-151.46 388.57,-144.53"/>
</g>
<!-- Node19 -->
<g id="node19" class="node">
<title>Node19</title>
<g id="a_node19"><a xlink:href="class_black_misc_1_1_simulation_1_1_data_1_1_c_model_caches.html" target="_top" xlink:title="Bundle of caches for all simulators.">
<polygon fill="none" stroke="black" points="492,-49.5 492,-79.5 617,-79.5 617,-49.5 492,-49.5"/>
<text text-anchor="start" x="500" y="-67.5" font-family="Helvetica,sans-Serif" font-size="10.00">BlackMisc::Simulation</text>
<text text-anchor="middle" x="554.5" y="-56.5" font-family="Helvetica,sans-Serif" font-size="10.00">::Data::CModelCaches</text>
</a>
</g>
</g>
<!-- Node13&#45;&gt;Node19 -->
<g id="edge18" class="edge">
<title>Node13&#45;&gt;Node19</title>
<path fill="none" stroke="midnightblue" d="M339.86,-134.24C364.14,-118.77 396.75,-100.02 428,-88.5 448.19,-81.06 471.1,-75.81 491.76,-72.16"/>
<polygon fill="midnightblue" stroke="midnightblue" points="337.8,-131.4 331.31,-139.78 341.61,-137.28 337.8,-131.4"/>
</g>
<!-- Node20 -->
<g id="node20" class="node">
<title>Node20</title>
<g id="a_node20"><a xlink:href="class_black_misc_1_1_simulation_1_1_data_1_1_c_model_set_caches.html" target="_top" xlink:title="Bundle of caches for model sets of all simulators.">
<polygon fill="none" stroke="black" points="484.5,-0.5 484.5,-30.5 624.5,-30.5 624.5,-0.5 484.5,-0.5"/>
<text text-anchor="start" x="492.5" y="-18.5" font-family="Helvetica,sans-Serif" font-size="10.00">BlackMisc::Simulation</text>
<text text-anchor="middle" x="554.5" y="-7.5" font-family="Helvetica,sans-Serif" font-size="10.00">::Data::CModelSetCaches</text>
</a>
</g>
</g>
<!-- Node13&#45;&gt;Node20 -->
<g id="edge19" class="edge">
<title>Node13&#45;&gt;Node20</title>
<path fill="none" stroke="midnightblue" d="M323.21,-131.71C346.08,-103.58 384.73,-61.81 428,-39.5 445.25,-30.6 465.37,-24.99 484.38,-21.44"/>
<polygon fill="midnightblue" stroke="midnightblue" points="320.41,-129.62 316.91,-139.62 325.88,-133.98 320.41,-129.62"/>
</g>
<!-- Node15 -->
<g id="node15" class="node">
<title>Node15</title>
<g id="a_node15"><a xlink:href="class_black_misc_1_1_simulation_1_1_data_1_1_c_central_multi_simulator_model_set_caches_provider.html" target="_top" xlink:title="One central instance of the model set caches.">
<polygon fill="none" stroke="black" points="720.5,-252 720.5,-293 886.5,-293 886.5,-252 720.5,-252"/>
<text text-anchor="start" x="728.5" y="-281" font-family="Helvetica,sans-Serif" font-size="10.00">BlackMisc::Simulation</text>
<text text-anchor="start" x="728.5" y="-270" font-family="Helvetica,sans-Serif" font-size="10.00">::Data::CCentralMultiSimulator</text>
<text text-anchor="middle" x="803.5" y="-259" font-family="Helvetica,sans-Serif" font-size="10.00">ModelSetCachesProvider</text>
</a>
</g>
</g>
<!-- Node14&#45;&gt;Node15 -->
<g id="edge14" class="edge">
<title>Node14&#45;&gt;Node15</title>
<path fill="none" stroke="midnightblue" d="M691.48,-272.5C701.34,-272.5 711.1,-272.5 720.49,-272.5"/>
<polygon fill="midnightblue" stroke="midnightblue" points="691.17,-269 681.17,-272.5 691.17,-276 691.17,-269"/>
</g>
<!-- Node17 -->
<g id="node17" class="node">
<title>Node17</title>
<g id="a_node17"><a xlink:href="class_black_misc_1_1_simulation_1_1_data_1_1_c_central_multi_simulator_model_caches_provider.html" target="_top" xlink:title="One central instance of the model caches.">
<polygon fill="none" stroke="black" points="720.5,-175 720.5,-216 886.5,-216 886.5,-175 720.5,-175"/>
<text text-anchor="start" x="728.5" y="-204" font-family="Helvetica,sans-Serif" font-size="10.00">BlackMisc::Simulation</text>
<text text-anchor="start" x="728.5" y="-193" font-family="Helvetica,sans-Serif" font-size="10.00">::Data::CCentralMultiSimulator</text>
<text text-anchor="middle" x="803.5" y="-182" font-family="Helvetica,sans-Serif" font-size="10.00">ModelCachesProvider</text>
</a>
</g>
</g>
<!-- Node16&#45;&gt;Node17 -->
<g id="edge16" class="edge">
<title>Node16&#45;&gt;Node17</title>
<path fill="none" stroke="midnightblue" d="M690.32,-195.5C700.54,-195.5 710.64,-195.5 720.37,-195.5"/>
<polygon fill="midnightblue" stroke="midnightblue" points="690.09,-192 680.09,-195.5 690.09,-199 690.09,-192"/>
</g>
</g>
</svg>
