<?xml version="1.0" encoding="UTF-8" standalone="no"?>
<!DOCTYPE svg PUBLIC "-//W3C//DTD SVG 1.1//EN"
 "http://www.w3.org/Graphics/SVG/1.1/DTD/svg11.dtd">
<!-- Generated by graphviz version 2.43.0 (0)
 -->
<!-- Title: chunkware_simple::SimpleComp Pages: 1 -->
<svg width="184pt" height="162pt"
 viewBox="0.00 0.00 184.00 162.00" xmlns="http://www.w3.org/2000/svg" xmlns:xlink="http://www.w3.org/1999/xlink">
<g id="graph0" class="graph" transform="scale(1 1) rotate(0) translate(4 158)">
<title>chunkware_simple::SimpleComp</title>
<!-- Node1 -->
<g id="node1" class="node">
<title>Node1</title>
<g id="a_node1"><a xlink:title="simple compressor">
<polygon fill="#bfbfbf" stroke="black" points="0,-67.5 0,-86.5 176,-86.5 176,-67.5 0,-67.5"/>
<text text-anchor="middle" x="88" y="-74.5" font-family="Helvetica,sans-Serif" font-size="10.00">chunkware_simple::SimpleComp</text>
</a>
</g>
</g>
<!-- Node3 -->
<g id="node3" class="node">
<title>Node3</title>
<g id="a_node3"><a xlink:href="classchunkware__simple_1_1_simple_comp_rms.html" target="_top" xlink:title="Simple compressor with RMS detection.">
<polygon fill="none" stroke="black" points="14,-0.5 14,-30.5 162,-30.5 162,-0.5 14,-0.5"/>
<text text-anchor="start" x="22" y="-18.5" font-family="Helvetica,sans-Serif" font-size="10.00">chunkware_simple::Simple</text>
<text text-anchor="middle" x="88" y="-7.5" font-family="Helvetica,sans-Serif" font-size="10.00">CompRms</text>
</a>
</g>
</g>
<!-- Node1&#45;&gt;Node3 -->
<g id="edge2" class="edge">
<title>Node1&#45;&gt;Node3</title>
<path fill="none" stroke="midnightblue" d="M88,-57.23C88,-48.59 88,-38.5 88,-30.52"/>
<polygon fill="midnightblue" stroke="midnightblue" points="84.5,-57.48 88,-67.48 91.5,-57.48 84.5,-57.48"/>
</g>
<!-- Node2 -->
<g id="node2" class="node">
<title>Node2</title>
<g id="a_node2"><a xlink:href="classchunkware__simple_1_1_att_rel_envelope.html" target="_top" xlink:title="attack/release envelope">
<polygon fill="none" stroke="black" points="16,-123.5 16,-153.5 160,-153.5 160,-123.5 16,-123.5"/>
<text text-anchor="start" x="24" y="-141.5" font-family="Helvetica,sans-Serif" font-size="10.00">chunkware_simple::AttRel</text>
<text text-anchor="middle" x="88" y="-130.5" font-family="Helvetica,sans-Serif" font-size="10.00">Envelope</text>
</a>
</g>
</g>
<!-- Node2&#45;&gt;Node1 -->
<g id="edge1" class="edge">
<title>Node2&#45;&gt;Node1</title>
<path fill="none" stroke="midnightblue" d="M88,-113.29C88,-103.86 88,-93.65 88,-86.66"/>
<polygon fill="midnightblue" stroke="midnightblue" points="84.5,-113.4 88,-123.4 91.5,-113.4 84.5,-113.4"/>
</g>
</g>
</svg>
