<?xml version="1.0" encoding="UTF-8" standalone="no"?>
<!DOCTYPE svg PUBLIC "-//W3C//DTD SVG 1.1//EN"
 "http://www.w3.org/Graphics/SVG/1.1/DTD/svg11.dtd">
<!-- Generated by graphviz version 2.43.0 (0)
 -->
<!-- Title: BlackCore::Context::CContextApplicationProxy Pages: 1 -->
<svg width="158pt" height="229pt"
 viewBox="0.00 0.00 158.00 229.00" xmlns="http://www.w3.org/2000/svg" xmlns:xlink="http://www.w3.org/1999/xlink">
<g id="graph0" class="graph" transform="scale(1 1) rotate(0) translate(4 225)">
<title>BlackCore::Context::CContextApplicationProxy</title>
<!-- Node1 -->
<g id="node1" class="node">
<title>Node1</title>
<g id="a_node1"><a xlink:title="Application context proxy.">
<polygon fill="#bfbfbf" stroke="black" points="0,-0.5 0,-30.5 150,-30.5 150,-0.5 0,-0.5"/>
<text text-anchor="start" x="8" y="-18.5" font-family="Helvetica,sans-Serif" font-size="10.00">BlackCore::Context</text>
<text text-anchor="middle" x="75" y="-7.5" font-family="Helvetica,sans-Serif" font-size="10.00">::CContextApplicationProxy</text>
</a>
</g>
</g>
<!-- Node2 -->
<g id="node2" class="node">
<title>Node2</title>
<g id="a_node2"><a xlink:href="class_black_core_1_1_context_1_1_i_context_application.html" target="_top" xlink:title="Application context interface.">
<polygon fill="none" stroke="black" points="15.5,-67.5 15.5,-97.5 134.5,-97.5 134.5,-67.5 15.5,-67.5"/>
<text text-anchor="start" x="23.5" y="-85.5" font-family="Helvetica,sans-Serif" font-size="10.00">BlackCore::Context</text>
<text text-anchor="middle" x="75" y="-74.5" font-family="Helvetica,sans-Serif" font-size="10.00">::IContextApplication</text>
</a>
</g>
</g>
<!-- Node2&#45;&gt;Node1 -->
<g id="edge1" class="edge">
<title>Node2&#45;&gt;Node1</title>
<path fill="none" stroke="midnightblue" d="M75,-57.11C75,-48.15 75,-38.32 75,-30.58"/>
<polygon fill="midnightblue" stroke="midnightblue" points="71.5,-57.4 75,-67.4 78.5,-57.4 71.5,-57.4"/>
</g>
<!-- Node3 -->
<g id="node3" class="node">
<title>Node3</title>
<g id="a_node3"><a xlink:href="class_black_core_1_1_context_1_1_i_context.html" target="_top" xlink:title="Base for all context classes.">
<polygon fill="none" stroke="black" points="20,-134.5 20,-164.5 130,-164.5 130,-134.5 20,-134.5"/>
<text text-anchor="start" x="28" y="-152.5" font-family="Helvetica,sans-Serif" font-size="10.00">BlackCore::Context</text>
<text text-anchor="middle" x="75" y="-141.5" font-family="Helvetica,sans-Serif" font-size="10.00">::IContext</text>
</a>
</g>
</g>
<!-- Node3&#45;&gt;Node2 -->
<g id="edge2" class="edge">
<title>Node3&#45;&gt;Node2</title>
<path fill="none" stroke="midnightblue" d="M75,-124.11C75,-115.15 75,-105.32 75,-97.58"/>
<polygon fill="midnightblue" stroke="midnightblue" points="71.5,-124.4 75,-134.4 78.5,-124.4 71.5,-124.4"/>
</g>
<!-- Node4 -->
<g id="node4" class="node">
<title>Node4</title>
<g id="a_node4"><a target="_parent" xlink:href="http://doc.qt.io/qt-5/qobject.html" xlink:title=" ">
<polygon fill="none" stroke="black" points="47,-201.5 47,-220.5 103,-220.5 103,-201.5 47,-201.5"/>
<text text-anchor="middle" x="75" y="-208.5" font-family="Helvetica,sans-Serif" font-size="10.00">QObject</text>
</a>
</g>
</g>
<!-- Node4&#45;&gt;Node3 -->
<g id="edge3" class="edge">
<title>Node4&#45;&gt;Node3</title>
<path fill="none" stroke="midnightblue" d="M75,-191.23C75,-182.59 75,-172.5 75,-164.52"/>
<polygon fill="midnightblue" stroke="midnightblue" points="71.5,-191.48 75,-201.48 78.5,-191.48 71.5,-191.48"/>
</g>
</g>
</svg>
