<?xml version="1.0" encoding="UTF-8" standalone="no"?>
<!DOCTYPE svg PUBLIC "-//W3C//DTD SVG 1.1//EN"
 "http://www.w3.org/Graphics/SVG/1.1/DTD/svg11.dtd">
<!-- Generated by graphviz version 2.43.0 (0)
 -->
<!-- Title: BlackCore::Db::CModelDataReader Pages: 1 -->
<svg width="175pt" height="330pt"
 viewBox="0.00 0.00 175.00 330.00" xmlns="http://www.w3.org/2000/svg" xmlns:xlink="http://www.w3.org/1999/xlink">
<g id="graph0" class="graph" transform="scale(1 1) rotate(0) translate(4 326)">
<title>BlackCore::Db::CModelDataReader</title>
<!-- Node1 -->
<g id="node1" class="node">
<title>Node1</title>
<g id="a_node1"><a xlink:title="Read model related data from Database.">
<polygon fill="#bfbfbf" stroke="black" points="7.5,-0.5 7.5,-30.5 159.5,-30.5 159.5,-0.5 7.5,-0.5"/>
<text text-anchor="start" x="15.5" y="-18.5" font-family="Helvetica,sans-Serif" font-size="10.00">BlackCore::Db::CModelData</text>
<text text-anchor="middle" x="83.5" y="-7.5" font-family="Helvetica,sans-Serif" font-size="10.00">Reader</text>
</a>
</g>
</g>
<!-- Node2 -->
<g id="node2" class="node">
<title>Node2</title>
<g id="a_node2"><a xlink:href="class_black_core_1_1_db_1_1_c_database_reader.html" target="_top" xlink:title="Specialized version of threaded reader for DB data.">
<polygon fill="none" stroke="black" points="11,-67.5 11,-97.5 156,-97.5 156,-67.5 11,-67.5"/>
<text text-anchor="start" x="19" y="-85.5" font-family="Helvetica,sans-Serif" font-size="10.00">BlackCore::Db::CDatabase</text>
<text text-anchor="middle" x="83.5" y="-74.5" font-family="Helvetica,sans-Serif" font-size="10.00">Reader</text>
</a>
</g>
</g>
<!-- Node2&#45;&gt;Node1 -->
<g id="edge1" class="edge">
<title>Node2&#45;&gt;Node1</title>
<path fill="none" stroke="midnightblue" d="M83.5,-57.11C83.5,-48.15 83.5,-38.32 83.5,-30.58"/>
<polygon fill="midnightblue" stroke="midnightblue" points="80,-57.4 83.5,-67.4 87,-57.4 80,-57.4"/>
</g>
<!-- Node3 -->
<g id="node3" class="node">
<title>Node3</title>
<g id="a_node3"><a xlink:href="class_black_core_1_1_c_threaded_reader.html" target="_top" xlink:title="Support for threaded based reading and parsing tasks such as data files via http, or file system and ...">
<polygon fill="none" stroke="black" points="4,-134.5 4,-153.5 163,-153.5 163,-134.5 4,-134.5"/>
<text text-anchor="middle" x="83.5" y="-141.5" font-family="Helvetica,sans-Serif" font-size="10.00">BlackCore::CThreadedReader</text>
</a>
</g>
</g>
<!-- Node3&#45;&gt;Node2 -->
<g id="edge2" class="edge">
<title>Node3&#45;&gt;Node2</title>
<path fill="none" stroke="midnightblue" d="M83.5,-124.23C83.5,-115.59 83.5,-105.5 83.5,-97.52"/>
<polygon fill="midnightblue" stroke="midnightblue" points="80,-124.48 83.5,-134.48 87,-124.48 80,-124.48"/>
</g>
<!-- Node4 -->
<g id="node4" class="node">
<title>Node4</title>
<g id="a_node4"><a xlink:href="class_black_misc_1_1_c_continuous_worker.html" target="_top" xlink:title="Base class for a long&#45;lived worker object which lives in its own thread.">
<polygon fill="none" stroke="black" points="0,-190.5 0,-209.5 167,-209.5 167,-190.5 0,-190.5"/>
<text text-anchor="middle" x="83.5" y="-197.5" font-family="Helvetica,sans-Serif" font-size="10.00">BlackMisc::CContinuousWorker</text>
</a>
</g>
</g>
<!-- Node4&#45;&gt;Node3 -->
<g id="edge3" class="edge">
<title>Node4&#45;&gt;Node3</title>
<path fill="none" stroke="midnightblue" d="M83.5,-179.8C83.5,-170.91 83.5,-160.78 83.5,-153.75"/>
<polygon fill="midnightblue" stroke="midnightblue" points="80,-180.08 83.5,-190.08 87,-180.08 80,-180.08"/>
</g>
<!-- Node5 -->
<g id="node5" class="node">
<title>Node5</title>
<g id="a_node5"><a xlink:href="class_black_misc_1_1_c_worker_base.html" target="_top" xlink:title="Base class for CWorker and CContinuousWorker.">
<polygon fill="none" stroke="black" points="15,-246.5 15,-265.5 152,-265.5 152,-246.5 15,-246.5"/>
<text text-anchor="middle" x="83.5" y="-253.5" font-family="Helvetica,sans-Serif" font-size="10.00">BlackMisc::CWorkerBase</text>
</a>
</g>
</g>
<!-- Node5&#45;&gt;Node4 -->
<g id="edge4" class="edge">
<title>Node5&#45;&gt;Node4</title>
<path fill="none" stroke="midnightblue" d="M83.5,-235.8C83.5,-226.91 83.5,-216.78 83.5,-209.75"/>
<polygon fill="midnightblue" stroke="midnightblue" points="80,-236.08 83.5,-246.08 87,-236.08 80,-236.08"/>
</g>
<!-- Node6 -->
<g id="node6" class="node">
<title>Node6</title>
<g id="a_node6"><a target="_parent" xlink:href="http://doc.qt.io/qt-5/qobject.html" xlink:title=" ">
<polygon fill="none" stroke="black" points="55.5,-302.5 55.5,-321.5 111.5,-321.5 111.5,-302.5 55.5,-302.5"/>
<text text-anchor="middle" x="83.5" y="-309.5" font-family="Helvetica,sans-Serif" font-size="10.00">QObject</text>
</a>
</g>
</g>
<!-- Node6&#45;&gt;Node5 -->
<g id="edge5" class="edge">
<title>Node6&#45;&gt;Node5</title>
<path fill="none" stroke="midnightblue" d="M83.5,-291.8C83.5,-282.91 83.5,-272.78 83.5,-265.75"/>
<polygon fill="midnightblue" stroke="midnightblue" points="80,-292.08 83.5,-302.08 87,-292.08 80,-292.08"/>
</g>
</g>
</svg>
