<?xml version="1.0" encoding="UTF-8" standalone="no"?>
<!DOCTYPE svg PUBLIC "-//W3C//DTD SVG 1.1//EN"
 "http://www.w3.org/Graphics/SVG/1.1/DTD/svg11.dtd">
<!-- Generated by graphviz version 2.43.0 (0)
 -->
<!-- Title: BlackGui::Components::CSettingsNetworkServersComponent Pages: 1 -->
<svg width="211pt" height="207pt"
 viewBox="0.00 0.00 211.00 207.00" xmlns="http://www.w3.org/2000/svg" xmlns:xlink="http://www.w3.org/1999/xlink">
<g id="graph0" class="graph" transform="scale(1 1) rotate(0) translate(4 203)">
<title>BlackGui::Components::CSettingsNetworkServersComponent</title>
<!-- Node1 -->
<g id="node1" class="node">
<title>Node1</title>
<g id="a_node1"><a xlink:title="Settings for network servers.">
<polygon fill="#bfbfbf" stroke="black" points="0,-0.5 0,-30.5 203,-30.5 203,-0.5 0,-0.5"/>
<text text-anchor="start" x="8" y="-18.5" font-family="Helvetica,sans-Serif" font-size="10.00">BlackGui::Components</text>
<text text-anchor="middle" x="101.5" y="-7.5" font-family="Helvetica,sans-Serif" font-size="10.00">::CSettingsNetworkServersComponent</text>
</a>
</g>
</g>
<!-- Node2 -->
<g id="node2" class="node">
<title>Node2</title>
<g id="a_node2"><a target="_parent" xlink:href="http://doc.qt.io/qt-5/qframe.html" xlink:title=" ">
<polygon fill="none" stroke="black" points="74,-67.5 74,-86.5 129,-86.5 129,-67.5 74,-67.5"/>
<text text-anchor="middle" x="101.5" y="-74.5" font-family="Helvetica,sans-Serif" font-size="10.00">QFrame</text>
</a>
</g>
</g>
<!-- Node2&#45;&gt;Node1 -->
<g id="edge1" class="edge">
<title>Node2&#45;&gt;Node1</title>
<path fill="none" stroke="midnightblue" d="M101.5,-57.23C101.5,-48.59 101.5,-38.5 101.5,-30.52"/>
<polygon fill="midnightblue" stroke="midnightblue" points="98,-57.48 101.5,-67.48 105,-57.48 98,-57.48"/>
</g>
<!-- Node3 -->
<g id="node3" class="node">
<title>Node3</title>
<g id="a_node3"><a target="_parent" xlink:href="http://doc.qt.io/qt-5/qwidget.html" xlink:title=" ">
<polygon fill="none" stroke="black" points="72,-123.5 72,-142.5 131,-142.5 131,-123.5 72,-123.5"/>
<text text-anchor="middle" x="101.5" y="-130.5" font-family="Helvetica,sans-Serif" font-size="10.00">QWidget</text>
</a>
</g>
</g>
<!-- Node3&#45;&gt;Node2 -->
<g id="edge2" class="edge">
<title>Node3&#45;&gt;Node2</title>
<path fill="none" stroke="midnightblue" d="M101.5,-112.8C101.5,-103.91 101.5,-93.78 101.5,-86.75"/>
<polygon fill="midnightblue" stroke="midnightblue" points="98,-113.08 101.5,-123.08 105,-113.08 98,-113.08"/>
</g>
<!-- Node4 -->
<g id="node4" class="node">
<title>Node4</title>
<g id="a_node4"><a target="_parent" xlink:href="http://doc.qt.io/qt-5/qobject.html" xlink:title=" ">
<polygon fill="none" stroke="black" points="30.5,-179.5 30.5,-198.5 86.5,-198.5 86.5,-179.5 30.5,-179.5"/>
<text text-anchor="middle" x="58.5" y="-186.5" font-family="Helvetica,sans-Serif" font-size="10.00">QObject</text>
</a>
</g>
</g>
<!-- Node4&#45;&gt;Node3 -->
<g id="edge3" class="edge">
<title>Node4&#45;&gt;Node3</title>
<path fill="none" stroke="midnightblue" d="M71.92,-171.14C79.41,-161.74 88.44,-150.4 94.53,-142.75"/>
<polygon fill="midnightblue" stroke="midnightblue" points="69.09,-169.08 65.6,-179.08 74.57,-173.44 69.09,-169.08"/>
</g>
<!-- Node5 -->
<g id="node5" class="node">
<title>Node5</title>
<g id="a_node5"><a target="_parent" xlink:href="http://doc.qt.io/qt-5/qpaintdevice.html" xlink:title=" ">
<polygon fill="none" stroke="black" points="104.5,-179.5 104.5,-198.5 186.5,-198.5 186.5,-179.5 104.5,-179.5"/>
<text text-anchor="middle" x="145.5" y="-186.5" font-family="Helvetica,sans-Serif" font-size="10.00">QPaintDevice</text>
</a>
</g>
</g>
<!-- Node5&#45;&gt;Node3 -->
<g id="edge4" class="edge">
<title>Node5&#45;&gt;Node3</title>
<path fill="none" stroke="midnightblue" d="M131.77,-171.14C124.1,-161.74 114.87,-150.4 108.63,-142.75"/>
<polygon fill="midnightblue" stroke="midnightblue" points="129.2,-173.54 138.23,-179.08 134.63,-169.12 129.2,-173.54"/>
</g>
</g>
</svg>
