<?xml version="1.0" encoding="UTF-8" standalone="no"?>
<!DOCTYPE svg PUBLIC "-//W3C//DTD SVG 1.1//EN"
 "http://www.w3.org/Graphics/SVG/1.1/DTD/svg11.dtd">
<!-- Generated by graphviz version 2.43.0 (0)
 -->
<!-- Title: BlackMisc::CStrongStringView Pages: 1 -->
<svg width="394pt" height="333pt"
 viewBox="0.00 0.00 394.00 333.00" xmlns="http://www.w3.org/2000/svg" xmlns:xlink="http://www.w3.org/1999/xlink">
<g id="graph0" class="graph" transform="scale(1 1) rotate(0) translate(4 329)">
<title>BlackMisc::CStrongStringView</title>
<!-- Node1 -->
<g id="node1" class="node">
<title>Node1</title>
<g id="a_node1"><a xlink:title="Special&#45;purpose string class used by CMessageBase.">
<polygon fill="#bfbfbf" stroke="black" points="223,-153 223,-172 386,-172 386,-153 223,-153"/>
<text text-anchor="middle" x="304.5" y="-160" font-family="Helvetica,sans-Serif" font-size="10.00">BlackMisc::CStrongStringView</text>
</a>
</g>
</g>
<!-- Node2 -->
<g id="node2" class="node">
<title>Node2</title>
<g id="a_node2"><a xlink:href="class_black_misc_1_1_mixin_1_1_meta_type.html" target="_top" xlink:title=" ">
<polygon fill="none" stroke="black" points="17.5,-294.5 17.5,-324.5 169.5,-324.5 169.5,-294.5 17.5,-294.5"/>
<text text-anchor="start" x="25.5" y="-312.5" font-family="Helvetica,sans-Serif" font-size="10.00">BlackMisc::Mixin::MetaType</text>
<text text-anchor="middle" x="93.5" y="-301.5" font-family="Helvetica,sans-Serif" font-size="10.00">&lt; CStrongStringView &gt;</text>
</a>
</g>
</g>
<!-- Node2&#45;&gt;Node1 -->
<g id="edge1" class="edge">
<title>Node2&#45;&gt;Node1</title>
<path fill="none" stroke="midnightblue" d="M177.59,-290.47C180.83,-288.93 183.98,-287.28 187,-285.5 238.42,-255.15 281.55,-195.59 297.2,-172.23"/>
<polygon fill="midnightblue" stroke="midnightblue" points="176.06,-287.31 168.25,-294.47 178.82,-293.75 176.06,-287.31"/>
</g>
<!-- Node3 -->
<g id="node3" class="node">
<title>Node3</title>
<g id="a_node3"><a xlink:href="class_black_misc_1_1_mixin_1_1_equals_by_compare.html" target="_top" xlink:title=" ">
<polygon fill="none" stroke="black" points="0,-245.5 0,-275.5 187,-275.5 187,-245.5 0,-245.5"/>
<text text-anchor="start" x="8" y="-263.5" font-family="Helvetica,sans-Serif" font-size="10.00">BlackMisc::Mixin::Equals</text>
<text text-anchor="middle" x="93.5" y="-252.5" font-family="Helvetica,sans-Serif" font-size="10.00">ByCompare&lt; CStrongStringView &gt;</text>
</a>
</g>
</g>
<!-- Node3&#45;&gt;Node1 -->
<g id="edge2" class="edge">
<title>Node3&#45;&gt;Node1</title>
<path fill="none" stroke="midnightblue" d="M172.29,-242.23C177.33,-240.46 182.27,-238.55 187,-236.5 227.88,-218.74 270.85,-187.72 291.3,-172.09"/>
<polygon fill="midnightblue" stroke="midnightblue" points="170.92,-239 162.52,-245.46 173.11,-245.65 170.92,-239"/>
</g>
<!-- Node4 -->
<g id="node4" class="node">
<title>Node4</title>
<g id="a_node4"><a xlink:href="class_black_misc_1_1_mixin_1_1_less_than_by_compare.html" target="_top" xlink:title=" ">
<polygon fill="none" stroke="black" points="0,-196.5 0,-226.5 187,-226.5 187,-196.5 0,-196.5"/>
<text text-anchor="start" x="8" y="-214.5" font-family="Helvetica,sans-Serif" font-size="10.00">BlackMisc::Mixin::LessThan</text>
<text text-anchor="middle" x="93.5" y="-203.5" font-family="Helvetica,sans-Serif" font-size="10.00">ByCompare&lt; CStrongStringView &gt;</text>
</a>
</g>
</g>
<!-- Node4&#45;&gt;Node1 -->
<g id="edge3" class="edge">
<title>Node4&#45;&gt;Node1</title>
<path fill="none" stroke="midnightblue" d="M168.75,-194.09C200.42,-186.67 236.15,-178.29 262.86,-172.03"/>
<polygon fill="midnightblue" stroke="midnightblue" points="167.56,-190.78 158.63,-196.47 169.16,-197.59 167.56,-190.78"/>
</g>
<!-- Node5 -->
<g id="node5" class="node">
<title>Node5</title>
<g id="a_node5"><a xlink:href="class_black_misc_1_1_mixin_1_1_d_bus_operators.html" target="_top" xlink:title=" ">
<polygon fill="none" stroke="black" points="4,-147.5 4,-177.5 183,-177.5 183,-147.5 4,-147.5"/>
<text text-anchor="start" x="12" y="-165.5" font-family="Helvetica,sans-Serif" font-size="10.00">BlackMisc::Mixin::DBusOperators</text>
<text text-anchor="middle" x="93.5" y="-154.5" font-family="Helvetica,sans-Serif" font-size="10.00">&lt; CStrongStringView &gt;</text>
</a>
</g>
</g>
<!-- Node5&#45;&gt;Node1 -->
<g id="edge4" class="edge">
<title>Node5&#45;&gt;Node1</title>
<path fill="none" stroke="midnightblue" d="M193.34,-162.5C203.17,-162.5 213.07,-162.5 222.69,-162.5"/>
<polygon fill="midnightblue" stroke="midnightblue" points="193.13,-159 183.13,-162.5 193.13,-166 193.13,-159"/>
</g>
<!-- Node6 -->
<g id="node6" class="node">
<title>Node6</title>
<g id="a_node6"><a xlink:href="class_black_misc_1_1_mixin_1_1_data_stream_operators.html" target="_top" xlink:title=" ">
<polygon fill="none" stroke="black" points="4.5,-98.5 4.5,-128.5 182.5,-128.5 182.5,-98.5 4.5,-98.5"/>
<text text-anchor="start" x="12.5" y="-116.5" font-family="Helvetica,sans-Serif" font-size="10.00">BlackMisc::Mixin::DataStream</text>
<text text-anchor="middle" x="93.5" y="-105.5" font-family="Helvetica,sans-Serif" font-size="10.00">Operators&lt; CStrongStringView &gt;</text>
</a>
</g>
</g>
<!-- Node6&#45;&gt;Node1 -->
<g id="edge5" class="edge">
<title>Node6&#45;&gt;Node1</title>
<path fill="none" stroke="midnightblue" d="M168.75,-130.91C200.42,-138.33 236.15,-146.71 262.86,-152.97"/>
<polygon fill="midnightblue" stroke="midnightblue" points="169.16,-127.41 158.63,-128.53 167.56,-134.22 169.16,-127.41"/>
</g>
<!-- Node7 -->
<g id="node7" class="node">
<title>Node7</title>
<g id="a_node7"><a xlink:href="class_black_misc_1_1_mixin_1_1_json_operators.html" target="_top" xlink:title=" ">
<polygon fill="none" stroke="black" points="7,-49.5 7,-79.5 180,-79.5 180,-49.5 7,-49.5"/>
<text text-anchor="start" x="15" y="-67.5" font-family="Helvetica,sans-Serif" font-size="10.00">BlackMisc::Mixin::JsonOperators</text>
<text text-anchor="middle" x="93.5" y="-56.5" font-family="Helvetica,sans-Serif" font-size="10.00">&lt; CStrongStringView &gt;</text>
</a>
</g>
</g>
<!-- Node7&#45;&gt;Node1 -->
<g id="edge6" class="edge">
<title>Node7&#45;&gt;Node1</title>
<path fill="none" stroke="midnightblue" d="M169.93,-82.87C175.78,-84.9 181.53,-87.11 187,-89.5 227.46,-107.18 270.28,-137.43 290.92,-152.85"/>
<polygon fill="midnightblue" stroke="midnightblue" points="170.62,-79.41 160.03,-79.61 168.43,-86.06 170.62,-79.41"/>
</g>
<!-- Node8 -->
<g id="node8" class="node">
<title>Node8</title>
<g id="a_node8"><a xlink:href="class_black_misc_1_1_mixin_1_1_string.html" target="_top" xlink:title=" ">
<polygon fill="none" stroke="black" points="26.5,-0.5 26.5,-30.5 160.5,-30.5 160.5,-0.5 26.5,-0.5"/>
<text text-anchor="start" x="34.5" y="-18.5" font-family="Helvetica,sans-Serif" font-size="10.00">BlackMisc::Mixin::String</text>
<text text-anchor="middle" x="93.5" y="-7.5" font-family="Helvetica,sans-Serif" font-size="10.00">&lt; CStrongStringView &gt;</text>
</a>
</g>
</g>
<!-- Node8&#45;&gt;Node1 -->
<g id="edge7" class="edge">
<title>Node8&#45;&gt;Node1</title>
<path fill="none" stroke="midnightblue" d="M169.95,-32.1C175.89,-34.54 181.65,-37.32 187,-40.5 238.11,-70.87 281.42,-129.79 297.16,-152.88"/>
<polygon fill="midnightblue" stroke="midnightblue" points="171.1,-28.79 160.51,-28.55 168.64,-35.35 171.1,-28.79"/>
</g>
</g>
</svg>
