<?xml version="1.0" encoding="UTF-8" standalone="no"?>
<!DOCTYPE svg PUBLIC "-//W3C//DTD SVG 1.1//EN"
 "http://www.w3.org/Graphics/SVG/1.1/DTD/svg11.dtd">
<!-- Generated by graphviz version 2.43.0 (0)
 -->
<!-- Title: BlackMisc::Simulation::IOwnAircraftProvider Pages: 1 -->
<svg width="487pt" height="88pt"
 viewBox="0.00 0.00 487.00 88.00" xmlns="http://www.w3.org/2000/svg" xmlns:xlink="http://www.w3.org/1999/xlink">
<g id="graph0" class="graph" transform="scale(1 1) rotate(0) translate(4 84)">
<title>BlackMisc::Simulation::IOwnAircraftProvider</title>
<!-- Node1 -->
<g id="node1" class="node">
<title>Node1</title>
<g id="a_node1"><a xlink:title="Direct threadsafe in memory access to own aircraft.">
<polygon fill="#bfbfbf" stroke="black" points="152,-24.5 152,-54.5 277,-54.5 277,-24.5 152,-24.5"/>
<text text-anchor="start" x="160" y="-42.5" font-family="Helvetica,sans-Serif" font-size="10.00">BlackMisc::Simulation</text>
<text text-anchor="middle" x="214.5" y="-31.5" font-family="Helvetica,sans-Serif" font-size="10.00">::IOwnAircraftProvider</text>
</a>
</g>
</g>
<!-- Node3 -->
<g id="node3" class="node">
<title>Node3</title>
<g id="a_node3"><a xlink:href="class_black_core_1_1_context_1_1_c_context_own_aircraft.html" target="_top" xlink:title="Own aircraft context implementation. Central instance of data for.">
<polygon fill="none" stroke="black" points="333.5,-49.5 333.5,-79.5 458.5,-79.5 458.5,-49.5 333.5,-49.5"/>
<text text-anchor="start" x="341.5" y="-67.5" font-family="Helvetica,sans-Serif" font-size="10.00">BlackCore::Context</text>
<text text-anchor="middle" x="396" y="-56.5" font-family="Helvetica,sans-Serif" font-size="10.00">::CContextOwnAircraft</text>
</a>
</g>
</g>
<!-- Node1&#45;&gt;Node3 -->
<g id="edge2" class="edge">
<title>Node1&#45;&gt;Node3</title>
<path fill="none" stroke="midnightblue" d="M286.96,-49.45C302.28,-51.59 318.34,-53.82 333.25,-55.9"/>
<polygon fill="midnightblue" stroke="midnightblue" points="287.41,-45.98 277.02,-48.07 286.44,-52.91 287.41,-45.98"/>
</g>
<!-- Node4 -->
<g id="node4" class="node">
<title>Node4</title>
<g id="a_node4"><a xlink:href="class_black_misc_1_1_simulation_1_1_c_own_aircraft_provider_dummy.html" target="_top" xlink:title="For testing.">
<polygon fill="none" stroke="black" points="313,-0.5 313,-30.5 479,-30.5 479,-0.5 313,-0.5"/>
<text text-anchor="start" x="321" y="-18.5" font-family="Helvetica,sans-Serif" font-size="10.00">BlackMisc::Simulation</text>
<text text-anchor="middle" x="396" y="-7.5" font-family="Helvetica,sans-Serif" font-size="10.00">::COwnAircraftProviderDummy</text>
</a>
</g>
</g>
<!-- Node1&#45;&gt;Node4 -->
<g id="edge3" class="edge">
<title>Node1&#45;&gt;Node4</title>
<path fill="none" stroke="midnightblue" d="M287.21,-29.91C295.67,-28.78 304.35,-27.62 312.94,-26.47"/>
<polygon fill="midnightblue" stroke="midnightblue" points="286.47,-26.48 277.02,-31.27 287.4,-33.42 286.47,-26.48"/>
</g>
<!-- Node2 -->
<g id="node2" class="node">
<title>Node2</title>
<g id="a_node2"><a xlink:href="class_black_misc_1_1_i_provider.html" target="_top" xlink:title="Base class for providers.">
<polygon fill="none" stroke="black" points="0,-30 0,-49 116,-49 116,-30 0,-30"/>
<text text-anchor="middle" x="58" y="-37" font-family="Helvetica,sans-Serif" font-size="10.00">BlackMisc::IProvider</text>
</a>
</g>
</g>
<!-- Node2&#45;&gt;Node1 -->
<g id="edge1" class="edge">
<title>Node2&#45;&gt;Node1</title>
<path fill="none" stroke="midnightblue" d="M126.37,-39.5C134.88,-39.5 143.56,-39.5 151.97,-39.5"/>
<polygon fill="midnightblue" stroke="midnightblue" points="126.09,-36 116.09,-39.5 126.09,-43 126.09,-36"/>
</g>
</g>
</svg>
