<?xml version="1.0" encoding="UTF-8" standalone="no"?>
<!DOCTYPE svg PUBLIC "-//W3C//DTD SVG 1.1//EN"
 "http://www.w3.org/Graphics/SVG/1.1/DTD/svg11.dtd">
<!-- Generated by graphviz version 2.43.0 (0)
 -->
<!-- Title: BlackMisc::Simulation::CRemoteAircraftProvider Pages: 1 -->
<svg width="403pt" height="229pt"
 viewBox="0.00 0.00 403.00 229.00" xmlns="http://www.w3.org/2000/svg" xmlns:xlink="http://www.w3.org/1999/xlink">
<g id="graph0" class="graph" transform="scale(1 1) rotate(0) translate(4 225)">
<title>BlackMisc::Simulation::CRemoteAircraftProvider</title>
<!-- Node1 -->
<g id="node1" class="node">
<title>Node1</title>
<g id="a_node1"><a xlink:title="Implementaion of the interface, which can also be used for testing.">
<polygon fill="#bfbfbf" stroke="black" points="101.5,-67.5 101.5,-97.5 244.5,-97.5 244.5,-67.5 101.5,-67.5"/>
<text text-anchor="start" x="109.5" y="-85.5" font-family="Helvetica,sans-Serif" font-size="10.00">BlackMisc::Simulation</text>
<text text-anchor="middle" x="173" y="-74.5" font-family="Helvetica,sans-Serif" font-size="10.00">::CRemoteAircraftProvider</text>
</a>
</g>
</g>
<!-- Node6 -->
<g id="node6" class="node">
<title>Node6</title>
<g id="a_node6"><a xlink:href="class_black_core_1_1_c_airspace_monitor.html" target="_top" xlink:title="Keeps track of other entities in the airspace: aircraft, ATC stations, etc. Central instance of data ...">
<polygon fill="none" stroke="black" points="0,-6 0,-25 158,-25 158,-6 0,-6"/>
<text text-anchor="middle" x="79" y="-13" font-family="Helvetica,sans-Serif" font-size="10.00">BlackCore::CAirspaceMonitor</text>
</a>
</g>
</g>
<!-- Node1&#45;&gt;Node6 -->
<g id="edge5" class="edge">
<title>Node1&#45;&gt;Node6</title>
<path fill="none" stroke="midnightblue" d="M144.28,-61.64C126.54,-49.37 104.69,-34.26 91.3,-25.01"/>
<polygon fill="midnightblue" stroke="midnightblue" points="142.39,-64.59 152.6,-67.4 146.37,-58.83 142.39,-64.59"/>
</g>
<!-- Node7 -->
<g id="node7" class="node">
<title>Node7</title>
<g id="a_node7"><a xlink:href="class_black_misc_1_1_simulation_1_1_c_remote_aircraft_provider_dummy.html" target="_top" xlink:title="Dummy implementation for testing purpose.">
<polygon fill="none" stroke="black" points="176,-0.5 176,-30.5 358,-30.5 358,-0.5 176,-0.5"/>
<text text-anchor="start" x="184" y="-18.5" font-family="Helvetica,sans-Serif" font-size="10.00">BlackMisc::Simulation</text>
<text text-anchor="middle" x="267" y="-7.5" font-family="Helvetica,sans-Serif" font-size="10.00">::CRemoteAircraftProviderDummy</text>
</a>
</g>
</g>
<!-- Node1&#45;&gt;Node7 -->
<g id="edge6" class="edge">
<title>Node1&#45;&gt;Node7</title>
<path fill="none" stroke="midnightblue" d="M201.99,-61.45C216.45,-51.45 233.59,-39.6 246.64,-30.58"/>
<polygon fill="midnightblue" stroke="midnightblue" points="199.63,-58.83 193.4,-67.4 203.61,-64.59 199.63,-58.83"/>
</g>
<!-- Node2 -->
<g id="node2" class="node">
<title>Node2</title>
<g id="a_node2"><a target="_parent" xlink:href="http://doc.qt.io/qt-5/qobject.html" xlink:title=" ">
<polygon fill="none" stroke="black" points="29,-140 29,-159 85,-159 85,-140 29,-140"/>
<text text-anchor="middle" x="57" y="-147" font-family="Helvetica,sans-Serif" font-size="10.00">QObject</text>
</a>
</g>
</g>
<!-- Node2&#45;&gt;Node1 -->
<g id="edge1" class="edge">
<title>Node2&#45;&gt;Node1</title>
<path fill="none" stroke="midnightblue" d="M81.53,-134.75C101.03,-123.83 128.2,-108.6 147.86,-97.59"/>
<polygon fill="midnightblue" stroke="midnightblue" points="79.66,-131.79 72.64,-139.73 83.08,-137.9 79.66,-131.79"/>
</g>
<!-- Node3 -->
<g id="node3" class="node">
<title>Node3</title>
<g id="a_node3"><a xlink:href="class_black_misc_1_1_simulation_1_1_i_remote_aircraft_provider.html" target="_top" xlink:title="Direct thread safe in memory access to remote aircraft.">
<polygon fill="none" stroke="black" points="103,-134.5 103,-164.5 243,-164.5 243,-134.5 103,-134.5"/>
<text text-anchor="start" x="111" y="-152.5" font-family="Helvetica,sans-Serif" font-size="10.00">BlackMisc::Simulation</text>
<text text-anchor="middle" x="173" y="-141.5" font-family="Helvetica,sans-Serif" font-size="10.00">::IRemoteAircraftProvider</text>
</a>
</g>
</g>
<!-- Node3&#45;&gt;Node1 -->
<g id="edge2" class="edge">
<title>Node3&#45;&gt;Node1</title>
<path fill="none" stroke="midnightblue" d="M173,-124.11C173,-115.15 173,-105.32 173,-97.58"/>
<polygon fill="midnightblue" stroke="midnightblue" points="169.5,-124.4 173,-134.4 176.5,-124.4 169.5,-124.4"/>
</g>
<!-- Node4 -->
<g id="node4" class="node">
<title>Node4</title>
<g id="a_node4"><a xlink:href="class_black_misc_1_1_i_provider.html" target="_top" xlink:title="Base class for providers.">
<polygon fill="none" stroke="black" points="115,-201.5 115,-220.5 231,-220.5 231,-201.5 115,-201.5"/>
<text text-anchor="middle" x="173" y="-208.5" font-family="Helvetica,sans-Serif" font-size="10.00">BlackMisc::IProvider</text>
</a>
</g>
</g>
<!-- Node4&#45;&gt;Node3 -->
<g id="edge3" class="edge">
<title>Node4&#45;&gt;Node3</title>
<path fill="none" stroke="midnightblue" d="M173,-191.23C173,-182.59 173,-172.5 173,-164.52"/>
<polygon fill="midnightblue" stroke="midnightblue" points="169.5,-191.48 173,-201.48 176.5,-191.48 169.5,-191.48"/>
</g>
<!-- Node5 -->
<g id="node5" class="node">
<title>Node5</title>
<g id="a_node5"><a xlink:href="class_black_misc_1_1_c_identifiable.html" target="_top" xlink:title="Base class with a member CIdentifier to be inherited by a class which has an identity in the environm...">
<polygon fill="none" stroke="black" points="261,-140 261,-159 395,-159 395,-140 261,-140"/>
<text text-anchor="middle" x="328" y="-147" font-family="Helvetica,sans-Serif" font-size="10.00">BlackMisc::CIdentifiable</text>
</a>
</g>
</g>
<!-- Node5&#45;&gt;Node1 -->
<g id="edge4" class="edge">
<title>Node5&#45;&gt;Node1</title>
<path fill="none" stroke="midnightblue" d="M297.98,-135.91C271.74,-124.91 233.67,-108.94 206.45,-97.53"/>
<polygon fill="midnightblue" stroke="midnightblue" points="296.84,-139.23 307.42,-139.87 299.55,-132.77 296.84,-139.23"/>
</g>
</g>
</svg>
