<?xml version="1.0" encoding="UTF-8" standalone="no"?>
<!DOCTYPE svg PUBLIC "-//W3C//DTD SVG 1.1//EN"
 "http://www.w3.org/Graphics/SVG/1.1/DTD/svg11.dtd">
<!-- Generated by graphviz version 2.43.0 (0)
 -->
<!-- Title: BlackMisc::SharedState::CDataLinkDBus Pages: 1 -->
<svg width="214pt" height="106pt"
 viewBox="0.00 0.00 213.50 106.00" xmlns="http://www.w3.org/2000/svg" xmlns:xlink="http://www.w3.org/1999/xlink">
<g id="graph0" class="graph" transform="scale(1 1) rotate(0) translate(4 102)">
<title>BlackMisc::SharedState::CDataLinkDBus</title>
<!-- Node1 -->
<g id="node1" class="node">
<title>Node1</title>
<g id="a_node1"><a xlink:title="A transport mechanism using signals and slots distributed by DBus.">
<polygon fill="#bfbfbf" stroke="black" points="18.5,-0.5 18.5,-30.5 149.5,-30.5 149.5,-0.5 18.5,-0.5"/>
<text text-anchor="start" x="26.5" y="-18.5" font-family="Helvetica,sans-Serif" font-size="10.00">BlackMisc::SharedState</text>
<text text-anchor="middle" x="84" y="-7.5" font-family="Helvetica,sans-Serif" font-size="10.00">::CDataLinkDBus</text>
</a>
</g>
</g>
<!-- Node2 -->
<g id="node2" class="node">
<title>Node2</title>
<g id="a_node2"><a target="_parent" xlink:href="http://doc.qt.io/qt-5/qobject.html" xlink:title=" ">
<polygon fill="none" stroke="black" points="0,-73 0,-92 56,-92 56,-73 0,-73"/>
<text text-anchor="middle" x="28" y="-80" font-family="Helvetica,sans-Serif" font-size="10.00">QObject</text>
</a>
</g>
</g>
<!-- Node2&#45;&gt;Node1 -->
<g id="edge1" class="edge">
<title>Node2&#45;&gt;Node1</title>
<path fill="none" stroke="midnightblue" d="M42.22,-64.99C51.38,-54.36 63.15,-40.7 71.86,-30.59"/>
<polygon fill="midnightblue" stroke="midnightblue" points="39.43,-62.87 35.55,-72.73 44.73,-67.44 39.43,-62.87"/>
</g>
<!-- Node3 -->
<g id="node3" class="node">
<title>Node3</title>
<g id="a_node3"><a xlink:href="class_black_misc_1_1_shared_state_1_1_i_data_link.html" target="_top" xlink:title="Interface that provides a transport mechanism for sharing state.">
<polygon fill="none" stroke="black" points="74.5,-67.5 74.5,-97.5 205.5,-97.5 205.5,-67.5 74.5,-67.5"/>
<text text-anchor="start" x="82.5" y="-85.5" font-family="Helvetica,sans-Serif" font-size="10.00">BlackMisc::SharedState</text>
<text text-anchor="middle" x="140" y="-74.5" font-family="Helvetica,sans-Serif" font-size="10.00">::IDataLink</text>
</a>
</g>
</g>
<!-- Node3&#45;&gt;Node1 -->
<g id="edge2" class="edge">
<title>Node3&#45;&gt;Node1</title>
<path fill="none" stroke="midnightblue" d="M121.25,-59.74C112.96,-50.12 103.46,-39.09 96.13,-30.58"/>
<polygon fill="midnightblue" stroke="midnightblue" points="118.67,-62.1 127.85,-67.4 123.97,-57.54 118.67,-62.1"/>
</g>
</g>
</svg>
