<?xml version="1.0" encoding="UTF-8" standalone="no"?>
<!DOCTYPE svg PUBLIC "-//W3C//DTD SVG 1.1//EN"
 "http://www.w3.org/Graphics/SVG/1.1/DTD/svg11.dtd">
<!-- Generated by graphviz version 2.43.0 (0)
 -->
<!-- Title: BlackMisc::SharedState::CGenericScalarMutator Pages: 1 -->
<svg width="588pt" height="88pt"
 viewBox="0.00 0.00 588.00 88.00" xmlns="http://www.w3.org/2000/svg" xmlns:xlink="http://www.w3.org/1999/xlink">
<g id="graph0" class="graph" transform="scale(1 1) rotate(0) translate(4 84)">
<title>BlackMisc::SharedState::CGenericScalarMutator</title>
<!-- Node1 -->
<g id="node1" class="node">
<title>Node1</title>
<g id="a_node1"><a xlink:title="Non&#45;template base class for CScalarMutator.">
<polygon fill="#bfbfbf" stroke="black" points="92,-24.5 92,-54.5 227,-54.5 227,-24.5 92,-24.5"/>
<text text-anchor="start" x="100" y="-42.5" font-family="Helvetica,sans-Serif" font-size="10.00">BlackMisc::SharedState</text>
<text text-anchor="middle" x="159.5" y="-31.5" font-family="Helvetica,sans-Serif" font-size="10.00">::CGenericScalarMutator</text>
</a>
</g>
</g>
<!-- Node3 -->
<g id="node3" class="node">
<title>Node3</title>
<g id="a_node3"><a xlink:href="class_black_misc_1_1_shared_state_1_1_c_scalar_mutator.html" target="_top" xlink:title=" ">
<polygon fill="none" stroke="black" points="263,-49.5 263,-79.5 396,-79.5 396,-49.5 263,-49.5"/>
<text text-anchor="start" x="271" y="-67.5" font-family="Helvetica,sans-Serif" font-size="10.00">BlackMisc::SharedState</text>
<text text-anchor="middle" x="329.5" y="-56.5" font-family="Helvetica,sans-Serif" font-size="10.00">::CScalarMutator&lt; int &gt;</text>
</a>
</g>
</g>
<!-- Node1&#45;&gt;Node3 -->
<g id="edge2" class="edge">
<title>Node1&#45;&gt;Node3</title>
<path fill="none" stroke="midnightblue" d="M237.35,-50.94C245.9,-52.21 254.55,-53.5 262.95,-54.74"/>
<polygon fill="midnightblue" stroke="midnightblue" points="237.79,-47.46 227.38,-49.45 236.76,-54.39 237.79,-47.46"/>
</g>
<!-- Node5 -->
<g id="node5" class="node">
<title>Node5</title>
<g id="a_node5"><a xlink:href="class_black_misc_1_1_shared_state_1_1_c_scalar_mutator.html" target="_top" xlink:title="Base class for an object that shares state with a corresponding CScalarObserver subclass object.">
<polygon fill="none" stroke="black" points="264,-0.5 264,-30.5 395,-30.5 395,-0.5 264,-0.5"/>
<text text-anchor="start" x="272" y="-18.5" font-family="Helvetica,sans-Serif" font-size="10.00">BlackMisc::SharedState</text>
<text text-anchor="middle" x="329.5" y="-7.5" font-family="Helvetica,sans-Serif" font-size="10.00">::CScalarMutator&lt; T &gt;</text>
</a>
</g>
</g>
<!-- Node1&#45;&gt;Node5 -->
<g id="edge4" class="edge">
<title>Node1&#45;&gt;Node5</title>
<path fill="none" stroke="midnightblue" d="M237.3,-28.53C246.15,-27.26 255.1,-25.99 263.77,-24.75"/>
<polygon fill="midnightblue" stroke="midnightblue" points="236.79,-25.07 227.38,-29.95 237.78,-32 236.79,-25.07"/>
</g>
<!-- Node2 -->
<g id="node2" class="node">
<title>Node2</title>
<g id="a_node2"><a target="_parent" xlink:href="http://doc.qt.io/qt-5/qobject.html" xlink:title=" ">
<polygon fill="none" stroke="black" points="0,-30 0,-49 56,-49 56,-30 0,-30"/>
<text text-anchor="middle" x="28" y="-37" font-family="Helvetica,sans-Serif" font-size="10.00">QObject</text>
</a>
</g>
</g>
<!-- Node2&#45;&gt;Node1 -->
<g id="edge1" class="edge">
<title>Node2&#45;&gt;Node1</title>
<path fill="none" stroke="midnightblue" d="M66.28,-39.5C74.34,-39.5 83.1,-39.5 91.9,-39.5"/>
<polygon fill="midnightblue" stroke="midnightblue" points="66.15,-36 56.15,-39.5 66.15,-43 66.15,-36"/>
</g>
<!-- Node4 -->
<g id="node4" class="node">
<title>Node4</title>
<g id="a_node4"><a xlink:href="class_black_misc_test_1_1_c_test_scalar_mutator.html" target="_top" xlink:title="Scalar mutator subclass.">
<polygon fill="none" stroke="black" points="432,-49.5 432,-79.5 580,-79.5 580,-49.5 432,-49.5"/>
<text text-anchor="start" x="440" y="-67.5" font-family="Helvetica,sans-Serif" font-size="10.00">BlackMiscTest::CTestScalar</text>
<text text-anchor="middle" x="506" y="-56.5" font-family="Helvetica,sans-Serif" font-size="10.00">Mutator</text>
</a>
</g>
</g>
<!-- Node3&#45;&gt;Node4 -->
<g id="edge3" class="edge">
<title>Node3&#45;&gt;Node4</title>
<path fill="none" stroke="midnightblue" d="M406.63,-64.5C415.03,-64.5 423.57,-64.5 431.93,-64.5"/>
<polygon fill="midnightblue" stroke="midnightblue" points="406.47,-61 396.47,-64.5 406.47,-68 406.47,-61"/>
</g>
</g>
</svg>
