<?xml version="1.0" encoding="UTF-8" standalone="no"?>
<!DOCTYPE svg PUBLIC "-//W3C//DTD SVG 1.1//EN"
 "http://www.w3.org/Graphics/SVG/1.1/DTD/svg11.dtd">
<!-- Generated by graphviz version 2.43.0 (0)
 -->
<!-- Title: BlackMisc::PhysicalQuantities::CPhysicalQuantity&lt; MU, PQ &gt; Pages: 1 -->
<svg width="401pt" height="357pt"
 viewBox="0.00 0.00 401.00 356.50" xmlns="http://www.w3.org/2000/svg" xmlns:xlink="http://www.w3.org/1999/xlink">
<g id="graph0" class="graph" transform="scale(1 1) rotate(0) translate(4 352.5)">
<title>BlackMisc::PhysicalQuantities::CPhysicalQuantity&lt; MU, PQ &gt;</title>
<!-- Node1 -->
<g id="node1" class="node">
<title>Node1</title>
<g id="a_node1"><a xlink:title="A physical quantity such as &quot;5m&quot;, &quot;20s&quot;, &quot;1500ft/s&quot;.">
<polygon fill="#bfbfbf" stroke="black" points="223,-159 223,-189 393,-189 393,-159 223,-159"/>
<text text-anchor="start" x="231" y="-177" font-family="Helvetica,sans-Serif" font-size="10.00">BlackMisc::PhysicalQuantities</text>
<text text-anchor="middle" x="308" y="-166" font-family="Helvetica,sans-Serif" font-size="10.00">::CPhysicalQuantity&lt; MU, PQ &gt;</text>
</a>
</g>
</g>
<!-- Node2 -->
<g id="node2" class="node">
<title>Node2</title>
<g id="a_node2"><a xlink:href="class_black_misc_1_1_mixin_1_1_d_bus_operators.html" target="_top" xlink:title=" ">
<polygon fill="none" stroke="black" points="0,-318 0,-348 187,-348 187,-318 0,-318"/>
<text text-anchor="start" x="8" y="-336" font-family="Helvetica,sans-Serif" font-size="10.00">BlackMisc::Mixin::DBusOperators</text>
<text text-anchor="middle" x="93.5" y="-325" font-family="Helvetica,sans-Serif" font-size="10.00">&lt; CPhysicalQuantity&lt; MU, PQ &gt; &gt;</text>
</a>
</g>
</g>
<!-- Node2&#45;&gt;Node1 -->
<g id="edge1" class="edge">
<title>Node2&#45;&gt;Node1</title>
<path fill="none" stroke="midnightblue" d="M176.31,-313.79C180.01,-312.03 183.59,-310.1 187,-308 238.05,-276.55 280.02,-216.9 297.82,-189.04"/>
<polygon fill="midnightblue" stroke="midnightblue" points="174.7,-310.67 166.92,-317.86 177.49,-317.1 174.7,-310.67"/>
</g>
<!-- Node3 -->
<g id="node3" class="node">
<title>Node3</title>
<g id="a_node3"><a xlink:href="class_black_misc_1_1_mixin_1_1_data_stream_operators.html" target="_top" xlink:title=" ">
<polygon fill="none" stroke="black" points="11,-257.5 11,-298.5 176,-298.5 176,-257.5 11,-257.5"/>
<text text-anchor="start" x="19" y="-286.5" font-family="Helvetica,sans-Serif" font-size="10.00">BlackMisc::Mixin::DataStream</text>
<text text-anchor="start" x="19" y="-275.5" font-family="Helvetica,sans-Serif" font-size="10.00">Operators&lt; CPhysicalQuantity</text>
<text text-anchor="middle" x="93.5" y="-264.5" font-family="Helvetica,sans-Serif" font-size="10.00">&lt; MU, PQ &gt; &gt;</text>
</a>
</g>
</g>
<!-- Node3&#45;&gt;Node1 -->
<g id="edge2" class="edge">
<title>Node3&#45;&gt;Node1</title>
<path fill="none" stroke="midnightblue" d="M173.76,-253.7C178.28,-251.88 182.72,-249.98 187,-248 223.43,-231.15 262.44,-205.52 285.76,-189.27"/>
<polygon fill="midnightblue" stroke="midnightblue" points="172.46,-250.45 164.39,-257.32 174.98,-256.98 172.46,-250.45"/>
</g>
<!-- Node4 -->
<g id="node4" class="node">
<title>Node4</title>
<g id="a_node4"><a xlink:href="class_black_misc_1_1_mixin_1_1_json_operators.html" target="_top" xlink:title=" ">
<polygon fill="none" stroke="black" points="0,-208 0,-238 187,-238 187,-208 0,-208"/>
<text text-anchor="start" x="8" y="-226" font-family="Helvetica,sans-Serif" font-size="10.00">BlackMisc::Mixin::JsonOperators</text>
<text text-anchor="middle" x="93.5" y="-215" font-family="Helvetica,sans-Serif" font-size="10.00">&lt; CPhysicalQuantity&lt; MU, PQ &gt; &gt;</text>
</a>
</g>
</g>
<!-- Node4&#45;&gt;Node1 -->
<g id="edge3" class="edge">
<title>Node4&#45;&gt;Node1</title>
<path fill="none" stroke="midnightblue" d="M169.66,-205.67C193.25,-200.23 219.09,-194.27 241.92,-189.01"/>
<polygon fill="midnightblue" stroke="midnightblue" points="168.66,-202.31 159.7,-207.97 170.23,-209.13 168.66,-202.31"/>
</g>
<!-- Node5 -->
<g id="node5" class="node">
<title>Node5</title>
<g id="a_node5"><a xlink:href="class_black_misc_1_1_mixin_1_1_index.html" target="_top" xlink:title=" ">
<polygon fill="none" stroke="black" points="27.5,-159 27.5,-189 159.5,-189 159.5,-159 27.5,-159"/>
<text text-anchor="start" x="35.5" y="-177" font-family="Helvetica,sans-Serif" font-size="10.00">BlackMisc::Mixin::Index</text>
<text text-anchor="middle" x="93.5" y="-166" font-family="Helvetica,sans-Serif" font-size="10.00">&lt; PQ &gt;</text>
</a>
</g>
</g>
<!-- Node5&#45;&gt;Node1 -->
<g id="edge4" class="edge">
<title>Node5&#45;&gt;Node1</title>
<path fill="none" stroke="midnightblue" d="M170.14,-174C187.17,-174 205.34,-174 222.7,-174"/>
<polygon fill="midnightblue" stroke="midnightblue" points="169.7,-170.5 159.7,-174 169.7,-177.5 169.7,-170.5"/>
</g>
<!-- Node6 -->
<g id="node6" class="node">
<title>Node6</title>
<g id="a_node6"><a xlink:href="class_black_misc_1_1_mixin_1_1_meta_type.html" target="_top" xlink:title=" ">
<polygon fill="none" stroke="black" points="17.5,-110 17.5,-140 169.5,-140 169.5,-110 17.5,-110"/>
<text text-anchor="start" x="25.5" y="-128" font-family="Helvetica,sans-Serif" font-size="10.00">BlackMisc::Mixin::MetaType</text>
<text text-anchor="middle" x="93.5" y="-117" font-family="Helvetica,sans-Serif" font-size="10.00">&lt; PQ &gt;</text>
</a>
</g>
</g>
<!-- Node6&#45;&gt;Node1 -->
<g id="edge5" class="edge">
<title>Node6&#45;&gt;Node1</title>
<path fill="none" stroke="midnightblue" d="M169.66,-142.33C193.25,-147.77 219.09,-153.73 241.92,-158.99"/>
<polygon fill="midnightblue" stroke="midnightblue" points="170.23,-138.87 159.7,-140.03 168.66,-145.69 170.23,-138.87"/>
</g>
<!-- Node7 -->
<g id="node7" class="node">
<title>Node7</title>
<g id="a_node7"><a xlink:href="class_black_misc_1_1_mixin_1_1_string.html" target="_top" xlink:title=" ">
<polygon fill="none" stroke="black" points="26.5,-61 26.5,-91 160.5,-91 160.5,-61 26.5,-61"/>
<text text-anchor="start" x="34.5" y="-79" font-family="Helvetica,sans-Serif" font-size="10.00">BlackMisc::Mixin::String</text>
<text text-anchor="middle" x="93.5" y="-68" font-family="Helvetica,sans-Serif" font-size="10.00">&lt; PQ &gt;</text>
</a>
</g>
</g>
<!-- Node7&#45;&gt;Node1 -->
<g id="edge6" class="edge">
<title>Node7&#45;&gt;Node1</title>
<path fill="none" stroke="midnightblue" d="M169.14,-94.19C175.26,-96.28 181.28,-98.55 187,-101 223.98,-116.86 263.14,-142.6 286.31,-158.9"/>
<polygon fill="midnightblue" stroke="midnightblue" points="170.08,-90.81 159.49,-91.06 167.92,-97.47 170.08,-90.81"/>
</g>
<!-- Node8 -->
<g id="node8" class="node">
<title>Node8</title>
<g id="a_node8"><a xlink:href="class_black_misc_1_1_mixin_1_1_icon.html" target="_top" xlink:title=" ">
<polygon fill="none" stroke="black" points="19.5,-0.5 19.5,-41.5 167.5,-41.5 167.5,-0.5 19.5,-0.5"/>
<text text-anchor="start" x="27.5" y="-29.5" font-family="Helvetica,sans-Serif" font-size="10.00">BlackMisc::Mixin::Icon</text>
<text text-anchor="start" x="27.5" y="-18.5" font-family="Helvetica,sans-Serif" font-size="10.00">&lt; CPhysicalQuantity&lt; MU,</text>
<text text-anchor="middle" x="93.5" y="-7.5" font-family="Helvetica,sans-Serif" font-size="10.00"> PQ &gt; &gt;</text>
</a>
</g>
</g>
<!-- Node8&#45;&gt;Node1 -->
<g id="edge7" class="edge">
<title>Node8&#45;&gt;Node1</title>
<path fill="none" stroke="midnightblue" d="M176.45,-46.04C180.08,-47.9 183.62,-49.89 187,-52 234.11,-81.44 276.43,-132.97 295.81,-158.61"/>
<polygon fill="midnightblue" stroke="midnightblue" points="177.75,-42.79 167.22,-41.65 174.75,-49.11 177.75,-42.79"/>
</g>
</g>
</svg>
