<?xml version="1.0" encoding="UTF-8" standalone="no"?>
<!DOCTYPE svg PUBLIC "-//W3C//DTD SVG 1.1//EN"
 "http://www.w3.org/Graphics/SVG/1.1/DTD/svg11.dtd">
<!-- Generated by graphviz version 2.43.0 (0)
 -->
<!-- Title: BlackGui::Menus::IMenuDelegate Pages: 1 -->
<svg width="699pt" height="137pt"
 viewBox="0.00 0.00 699.00 137.00" xmlns="http://www.w3.org/2000/svg" xmlns:xlink="http://www.w3.org/1999/xlink">
<g id="graph0" class="graph" transform="scale(1 1) rotate(0) translate(4 133)">
<title>BlackGui::Menus::IMenuDelegate</title>
<!-- Node1 -->
<g id="node1" class="node">
<title>Node1</title>
<g id="a_node1"><a xlink:title="Interface to implement a custom menu.">
<polygon fill="#bfbfbf" stroke="black" points="92,-55 92,-74 271,-74 271,-55 92,-55"/>
<text text-anchor="middle" x="181.5" y="-62" font-family="Helvetica,sans-Serif" font-size="10.00">BlackGui::Menus::IMenuDelegate</text>
</a>
</g>
</g>
<!-- Node3 -->
<g id="node3" class="node">
<title>Node3</title>
<g id="a_node3"><a xlink:href="class_black_gui_1_1_menus_1_1_c_font_menu.html" target="_top" xlink:title="Standard font (size, style) menus. Can be used as nested menu or via getActions added manually.">
<polygon fill="none" stroke="black" points="309,-99 309,-118 468,-118 468,-99 309,-99"/>
<text text-anchor="middle" x="388.5" y="-106" font-family="Helvetica,sans-Serif" font-size="10.00">BlackGui::Menus::CFontMenu</text>
</a>
</g>
</g>
<!-- Node1&#45;&gt;Node3 -->
<g id="edge2" class="edge">
<title>Node1&#45;&gt;Node3</title>
<path fill="none" stroke="midnightblue" d="M236.97,-76.19C270.14,-83.31 311.96,-92.29 343.1,-98.97"/>
<polygon fill="midnightblue" stroke="midnightblue" points="237.49,-72.72 226.98,-74.05 236.02,-79.57 237.49,-72.72"/>
</g>
<!-- Node4 -->
<g id="node4" class="node">
<title>Node4</title>
<g id="a_node4"><a xlink:href="class_black_gui_1_1_menus_1_1_i_aircraft_model_view_menu.html" target="_top" xlink:title="Menu base class for aircraft model view menus.">
<polygon fill="none" stroke="black" points="317,-49.5 317,-79.5 460,-79.5 460,-49.5 317,-49.5"/>
<text text-anchor="start" x="325" y="-67.5" font-family="Helvetica,sans-Serif" font-size="10.00">BlackGui::Menus::IAircraft</text>
<text text-anchor="middle" x="388.5" y="-56.5" font-family="Helvetica,sans-Serif" font-size="10.00">ModelViewMenu</text>
</a>
</g>
</g>
<!-- Node1&#45;&gt;Node4 -->
<g id="edge3" class="edge">
<title>Node1&#45;&gt;Node4</title>
<path fill="none" stroke="midnightblue" d="M281.28,-64.5C293.29,-64.5 305.37,-64.5 316.86,-64.5"/>
<polygon fill="midnightblue" stroke="midnightblue" points="281.22,-61 271.22,-64.5 281.22,-68 281.22,-61"/>
</g>
<!-- Node8 -->
<g id="node8" class="node">
<title>Node8</title>
<g id="a_node8"><a xlink:href="class_black_gui_1_1_views_1_1_c_application_info_menu.html" target="_top" xlink:title="Menu base class for aircraft model view menus.">
<polygon fill="none" stroke="black" points="307,-0.5 307,-30.5 470,-30.5 470,-0.5 307,-0.5"/>
<text text-anchor="start" x="315" y="-18.5" font-family="Helvetica,sans-Serif" font-size="10.00">BlackGui::Views::CApplication</text>
<text text-anchor="middle" x="388.5" y="-7.5" font-family="Helvetica,sans-Serif" font-size="10.00">InfoMenu</text>
</a>
</g>
</g>
<!-- Node1&#45;&gt;Node8 -->
<g id="edge7" class="edge">
<title>Node1&#45;&gt;Node8</title>
<path fill="none" stroke="midnightblue" d="M232.4,-52.57C260.16,-45.94 294.98,-37.61 324.59,-30.54"/>
<polygon fill="midnightblue" stroke="midnightblue" points="231.43,-49.21 222.51,-54.94 233.05,-56.02 231.43,-49.21"/>
</g>
<!-- Node2 -->
<g id="node2" class="node">
<title>Node2</title>
<g id="a_node2"><a target="_parent" xlink:href="http://doc.qt.io/qt-5/qobject.html" xlink:title=" ">
<polygon fill="none" stroke="black" points="0,-55 0,-74 56,-74 56,-55 0,-55"/>
<text text-anchor="middle" x="28" y="-62" font-family="Helvetica,sans-Serif" font-size="10.00">QObject</text>
</a>
</g>
</g>
<!-- Node2&#45;&gt;Node1 -->
<g id="edge1" class="edge">
<title>Node2&#45;&gt;Node1</title>
<path fill="none" stroke="midnightblue" d="M66.12,-64.5C74.13,-64.5 82.93,-64.5 91.98,-64.5"/>
<polygon fill="midnightblue" stroke="midnightblue" points="66.09,-61 56.09,-64.5 66.09,-68 66.09,-61"/>
</g>
<!-- Node5 -->
<g id="node5" class="node">
<title>Node5</title>
<g id="a_node5"><a xlink:href="class_black_gui_1_1_menus_1_1_c_consolidate_with_db_data_menu.html" target="_top" xlink:title="Consolidate/merge with DB data.">
<polygon fill="none" stroke="black" points="514,-98.5 514,-128.5 683,-128.5 683,-98.5 514,-98.5"/>
<text text-anchor="start" x="522" y="-116.5" font-family="Helvetica,sans-Serif" font-size="10.00">BlackGui::Menus::CConsolidate</text>
<text text-anchor="middle" x="598.5" y="-105.5" font-family="Helvetica,sans-Serif" font-size="10.00">WithDbDataMenu</text>
</a>
</g>
</g>
<!-- Node4&#45;&gt;Node5 -->
<g id="edge4" class="edge">
<title>Node4&#45;&gt;Node5</title>
<path fill="none" stroke="midnightblue" d="M463.07,-81.83C486.16,-87.27 511.45,-93.23 533.8,-98.49"/>
<polygon fill="midnightblue" stroke="midnightblue" points="463.86,-78.42 453.32,-79.53 462.25,-85.23 463.86,-78.42"/>
</g>
<!-- Node6 -->
<g id="node6" class="node">
<title>Node6</title>
<g id="a_node6"><a xlink:href="class_black_gui_1_1_menus_1_1_c_consolidate_with_simulator_models.html" target="_top" xlink:title="Merge/update with simulator models (e.g. remove no longer existing models)">
<polygon fill="none" stroke="black" points="514,-49.5 514,-79.5 683,-79.5 683,-49.5 514,-49.5"/>
<text text-anchor="start" x="522" y="-67.5" font-family="Helvetica,sans-Serif" font-size="10.00">BlackGui::Menus::CConsolidate</text>
<text text-anchor="middle" x="598.5" y="-56.5" font-family="Helvetica,sans-Serif" font-size="10.00">WithSimulatorModels</text>
</a>
</g>
</g>
<!-- Node4&#45;&gt;Node6 -->
<g id="edge5" class="edge">
<title>Node4&#45;&gt;Node6</title>
<path fill="none" stroke="midnightblue" d="M470.42,-64.5C484.62,-64.5 499.42,-64.5 513.69,-64.5"/>
<polygon fill="midnightblue" stroke="midnightblue" points="470.21,-61 460.21,-64.5 470.21,-68 470.21,-61"/>
</g>
<!-- Node7 -->
<g id="node7" class="node">
<title>Node7</title>
<g id="a_node7"><a xlink:href="class_black_gui_1_1_menus_1_1_c_show_simulator_file_menu.html" target="_top" xlink:title="Open the simulator file (e.g. aircraft.cfg) in the standard text editor.">
<polygon fill="none" stroke="black" points="506,-0.5 506,-30.5 691,-30.5 691,-0.5 506,-0.5"/>
<text text-anchor="start" x="514" y="-18.5" font-family="Helvetica,sans-Serif" font-size="10.00">BlackGui::Menus::CShowSimulator</text>
<text text-anchor="middle" x="598.5" y="-7.5" font-family="Helvetica,sans-Serif" font-size="10.00">FileMenu</text>
</a>
</g>
</g>
<!-- Node4&#45;&gt;Node7 -->
<g id="edge6" class="edge">
<title>Node4&#45;&gt;Node7</title>
<path fill="none" stroke="midnightblue" d="M463.07,-47.17C486.16,-41.73 511.45,-35.77 533.8,-30.51"/>
<polygon fill="midnightblue" stroke="midnightblue" points="462.25,-43.77 453.32,-49.47 463.86,-50.58 462.25,-43.77"/>
</g>
</g>
</svg>
