<?xml version="1.0" encoding="UTF-8" standalone="no"?>
<!DOCTYPE svg PUBLIC "-//W3C//DTD SVG 1.1//EN"
 "http://www.w3.org/Graphics/SVG/1.1/DTD/svg11.dtd">
<!-- Generated by graphviz version 2.43.0 (0)
 -->
<!-- Title: BlackMisc::Simulation::IInterpolationSetupProvider Pages: 1 -->
<svg width="1205pt" height="211pt"
 viewBox="0.00 0.00 1205.00 211.00" xmlns="http://www.w3.org/2000/svg" xmlns:xlink="http://www.w3.org/1999/xlink">
<g id="graph0" class="graph" transform="scale(1 1) rotate(0) translate(4 207)">
<title>BlackMisc::Simulation::IInterpolationSetupProvider</title>
<!-- Node1 -->
<g id="node1" class="node">
<title>Node1</title>
<g id="a_node1"><a xlink:title="Direct in memory access to interpolation setup, normally implemented by simulator.">
<polygon fill="#bfbfbf" stroke="black" points="152,-98.5 152,-128.5 308,-128.5 308,-98.5 152,-98.5"/>
<text text-anchor="start" x="160" y="-116.5" font-family="Helvetica,sans-Serif" font-size="10.00">BlackMisc::Simulation</text>
<text text-anchor="middle" x="230" y="-105.5" font-family="Helvetica,sans-Serif" font-size="10.00">::IInterpolationSetupProvider</text>
</a>
</g>
</g>
<!-- Node3 -->
<g id="node3" class="node">
<title>Node3</title>
<g id="a_node3"><a xlink:href="class_black_core_1_1_i_simulator.html" target="_top" xlink:title="Interface to a simulator.">
<polygon fill="none" stroke="black" points="344,-104 344,-123 466,-123 466,-104 344,-104"/>
<text text-anchor="middle" x="405" y="-111" font-family="Helvetica,sans-Serif" font-size="10.00">BlackCore::ISimulator</text>
</a>
</g>
</g>
<!-- Node1&#45;&gt;Node3 -->
<g id="edge2" class="edge">
<title>Node1&#45;&gt;Node3</title>
<path fill="none" stroke="midnightblue" d="M318.29,-113.5C326.95,-113.5 335.59,-113.5 343.88,-113.5"/>
<polygon fill="midnightblue" stroke="midnightblue" points="318.14,-110 308.14,-113.5 318.14,-117 318.14,-110"/>
</g>
<!-- Node2 -->
<g id="node2" class="node">
<title>Node2</title>
<g id="a_node2"><a xlink:href="class_black_misc_1_1_i_provider.html" target="_top" xlink:title="Base class for providers.">
<polygon fill="none" stroke="black" points="0,-104 0,-123 116,-123 116,-104 0,-104"/>
<text text-anchor="middle" x="58" y="-111" font-family="Helvetica,sans-Serif" font-size="10.00">BlackMisc::IProvider</text>
</a>
</g>
</g>
<!-- Node2&#45;&gt;Node1 -->
<g id="edge1" class="edge">
<title>Node2&#45;&gt;Node1</title>
<path fill="none" stroke="midnightblue" d="M126.2,-113.5C134.62,-113.5 143.28,-113.5 151.83,-113.5"/>
<polygon fill="midnightblue" stroke="midnightblue" points="126.08,-110 116.08,-113.5 126.08,-117 126.08,-110"/>
</g>
<!-- Node4 -->
<g id="node4" class="node">
<title>Node4</title>
<g id="a_node4"><a xlink:href="class_black_sim_plugin_1_1_common_1_1_c_simulator_plugin_common.html" target="_top" xlink:title="Common base class for simulator plugins.">
<polygon fill="none" stroke="black" points="502,-98.5 502,-128.5 653,-128.5 653,-98.5 502,-98.5"/>
<text text-anchor="start" x="510" y="-116.5" font-family="Helvetica,sans-Serif" font-size="10.00">BlackSimPlugin::Common</text>
<text text-anchor="middle" x="577.5" y="-105.5" font-family="Helvetica,sans-Serif" font-size="10.00">::CSimulatorPluginCommon</text>
</a>
</g>
</g>
<!-- Node3&#45;&gt;Node4 -->
<g id="edge3" class="edge">
<title>Node3&#45;&gt;Node4</title>
<path fill="none" stroke="midnightblue" d="M476.32,-113.5C484.79,-113.5 493.46,-113.5 501.99,-113.5"/>
<polygon fill="midnightblue" stroke="midnightblue" points="476.11,-110 466.11,-113.5 476.11,-117 476.11,-110"/>
</g>
<!-- Node5 -->
<g id="node5" class="node">
<title>Node5</title>
<g id="a_node5"><a xlink:href="class_black_sim_plugin_1_1_emulated_1_1_c_simulator_emulated.html" target="_top" xlink:title="swift simulator implementation">
<polygon fill="none" stroke="black" points="693.5,-172.5 693.5,-202.5 838.5,-202.5 838.5,-172.5 693.5,-172.5"/>
<text text-anchor="start" x="701.5" y="-190.5" font-family="Helvetica,sans-Serif" font-size="10.00">BlackSimPlugin::Emulated</text>
<text text-anchor="middle" x="766" y="-179.5" font-family="Helvetica,sans-Serif" font-size="10.00">::CSimulatorEmulated</text>
</a>
</g>
</g>
<!-- Node4&#45;&gt;Node5 -->
<g id="edge4" class="edge">
<title>Node4&#45;&gt;Node5</title>
<path fill="none" stroke="midnightblue" d="M618.22,-132.86C639.04,-142.65 665.12,-154.37 689,-163.5 697.14,-166.61 705.88,-169.65 714.43,-172.46"/>
<polygon fill="midnightblue" stroke="midnightblue" points="619.58,-129.63 609.04,-128.51 616.58,-135.95 619.58,-129.63"/>
</g>
<!-- Node6 -->
<g id="node6" class="node">
<title>Node6</title>
<g id="a_node6"><a xlink:href="class_black_sim_plugin_1_1_flightgear_1_1_c_simulator_flightgear.html" target="_top" xlink:title="Flightgear ISimulator implementation.">
<polygon fill="none" stroke="black" points="692,-123.5 692,-153.5 840,-153.5 840,-123.5 692,-123.5"/>
<text text-anchor="start" x="700" y="-141.5" font-family="Helvetica,sans-Serif" font-size="10.00">BlackSimPlugin::Flightgear</text>
<text text-anchor="middle" x="766" y="-130.5" font-family="Helvetica,sans-Serif" font-size="10.00">::CSimulatorFlightgear</text>
</a>
</g>
</g>
<!-- Node4&#45;&gt;Node6 -->
<g id="edge5" class="edge">
<title>Node4&#45;&gt;Node6</title>
<path fill="none" stroke="midnightblue" d="M662.98,-124.82C672.61,-126.11 682.36,-127.42 691.82,-128.69"/>
<polygon fill="midnightblue" stroke="midnightblue" points="663.39,-121.35 653.01,-123.49 662.46,-128.29 663.39,-121.35"/>
</g>
<!-- Node7 -->
<g id="node7" class="node">
<title>Node7</title>
<g id="a_node7"><a xlink:href="class_black_sim_plugin_1_1_fs_common_1_1_c_simulator_fs_common.html" target="_top" xlink:title="Common base class for MS flight simulators.">
<polygon fill="none" stroke="black" points="689,-74.5 689,-104.5 843,-104.5 843,-74.5 689,-74.5"/>
<text text-anchor="start" x="697" y="-92.5" font-family="Helvetica,sans-Serif" font-size="10.00">BlackSimPlugin::FsCommon</text>
<text text-anchor="middle" x="766" y="-81.5" font-family="Helvetica,sans-Serif" font-size="10.00">::CSimulatorFsCommon</text>
</a>
</g>
</g>
<!-- Node4&#45;&gt;Node7 -->
<g id="edge6" class="edge">
<title>Node4&#45;&gt;Node7</title>
<path fill="none" stroke="midnightblue" d="M663.03,-102.62C671.61,-101.52 680.29,-100.4 688.78,-99.31"/>
<polygon fill="midnightblue" stroke="midnightblue" points="662.49,-99.16 653.01,-103.91 663.38,-106.11 662.49,-99.16"/>
</g>
<!-- Node13 -->
<g id="node13" class="node">
<title>Node13</title>
<g id="a_node13"><a xlink:href="class_black_sim_plugin_1_1_x_plane_1_1_c_simulator_x_plane.html" target="_top" xlink:title="X&#45;Plane ISimulator implementation.">
<polygon fill="none" stroke="black" points="700,-25.5 700,-55.5 832,-55.5 832,-25.5 700,-25.5"/>
<text text-anchor="start" x="708" y="-43.5" font-family="Helvetica,sans-Serif" font-size="10.00">BlackSimPlugin::XPlane</text>
<text text-anchor="middle" x="766" y="-32.5" font-family="Helvetica,sans-Serif" font-size="10.00">::CSimulatorXPlane</text>
</a>
</g>
</g>
<!-- Node4&#45;&gt;Node13 -->
<g id="edge12" class="edge">
<title>Node4&#45;&gt;Node13</title>
<path fill="none" stroke="midnightblue" d="M619.15,-94.17C639.83,-84.67 665.51,-73.39 689,-64.5 697.15,-61.42 705.9,-58.4 714.45,-55.6"/>
<polygon fill="midnightblue" stroke="midnightblue" points="617.63,-91.02 610.02,-98.4 620.57,-97.37 617.63,-91.02"/>
</g>
<!-- Node8 -->
<g id="node8" class="node">
<title>Node8</title>
<g id="a_node8"><a xlink:href="class_black_sim_plugin_1_1_fs9_1_1_c_simulator_fs9.html" target="_top" xlink:title="FS9 Simulator Implementation.">
<polygon fill="none" stroke="black" points="901,-98.5 901,-128.5 1017,-128.5 1017,-98.5 901,-98.5"/>
<text text-anchor="start" x="909" y="-116.5" font-family="Helvetica,sans-Serif" font-size="10.00">BlackSimPlugin::Fs9</text>
<text text-anchor="middle" x="959" y="-105.5" font-family="Helvetica,sans-Serif" font-size="10.00">::CSimulatorFs9</text>
</a>
</g>
</g>
<!-- Node7&#45;&gt;Node8 -->
<g id="edge7" class="edge">
<title>Node7&#45;&gt;Node8</title>
<path fill="none" stroke="midnightblue" d="M853.04,-100.31C869.21,-102.34 885.75,-104.42 900.77,-106.31"/>
<polygon fill="midnightblue" stroke="midnightblue" points="853.4,-96.83 843.04,-99.05 852.52,-103.77 853.4,-96.83"/>
</g>
<!-- Node9 -->
<g id="node9" class="node">
<title>Node9</title>
<g id="a_node9"><a xlink:href="class_black_sim_plugin_1_1_fsx_common_1_1_c_simulator_fsx_common.html" target="_top" xlink:title="FSX Simulator Implementation.">
<polygon fill="none" stroke="black" points="879,-49.5 879,-79.5 1039,-79.5 1039,-49.5 879,-49.5"/>
<text text-anchor="start" x="887" y="-67.5" font-family="Helvetica,sans-Serif" font-size="10.00">BlackSimPlugin::FsxCommon</text>
<text text-anchor="middle" x="959" y="-56.5" font-family="Helvetica,sans-Serif" font-size="10.00">::CSimulatorFsxCommon</text>
</a>
</g>
</g>
<!-- Node7&#45;&gt;Node9 -->
<g id="edge8" class="edge">
<title>Node7&#45;&gt;Node9</title>
<path fill="none" stroke="midnightblue" d="M853.04,-78.24C861.61,-77.12 870.28,-75.98 878.78,-74.87"/>
<polygon fill="midnightblue" stroke="midnightblue" points="852.5,-74.78 843.04,-79.55 853.41,-81.72 852.5,-74.78"/>
</g>
<!-- Node10 -->
<g id="node10" class="node">
<title>Node10</title>
<g id="a_node10"><a xlink:href="class_black_sim_plugin_1_1_fsx_1_1_c_simulator_fsx.html" target="_top" xlink:title="FSX simulator implementation.">
<polygon fill="none" stroke="black" points="1078,-98.5 1078,-128.5 1194,-128.5 1194,-98.5 1078,-98.5"/>
<text text-anchor="start" x="1086" y="-116.5" font-family="Helvetica,sans-Serif" font-size="10.00">BlackSimPlugin::Fsx</text>
<text text-anchor="middle" x="1136" y="-105.5" font-family="Helvetica,sans-Serif" font-size="10.00">::CSimulatorFsx</text>
</a>
</g>
</g>
<!-- Node9&#45;&gt;Node10 -->
<g id="edge9" class="edge">
<title>Node9&#45;&gt;Node10</title>
<path fill="none" stroke="midnightblue" d="M1023.65,-82.32C1042.54,-87.61 1063.04,-93.35 1081.24,-98.45"/>
<polygon fill="midnightblue" stroke="midnightblue" points="1024.51,-78.93 1013.93,-79.6 1022.62,-85.67 1024.51,-78.93"/>
</g>
<!-- Node11 -->
<g id="node11" class="node">
<title>Node11</title>
<g id="a_node11"><a xlink:href="class_black_sim_plugin_1_1_msfs_1_1_c_simulator_ms_fs.html" target="_top" xlink:title="FSX simulator implementation.">
<polygon fill="none" stroke="black" points="1075,-49.5 1075,-79.5 1197,-79.5 1197,-49.5 1075,-49.5"/>
<text text-anchor="start" x="1083" y="-67.5" font-family="Helvetica,sans-Serif" font-size="10.00">BlackSimPlugin::Msfs</text>
<text text-anchor="middle" x="1136" y="-56.5" font-family="Helvetica,sans-Serif" font-size="10.00">::CSimulatorMsFs</text>
</a>
</g>
</g>
<!-- Node9&#45;&gt;Node11 -->
<g id="edge10" class="edge">
<title>Node9&#45;&gt;Node11</title>
<path fill="none" stroke="midnightblue" d="M1049.25,-64.5C1057.94,-64.5 1066.61,-64.5 1074.92,-64.5"/>
<polygon fill="midnightblue" stroke="midnightblue" points="1049.05,-61 1039.05,-64.5 1049.05,-68 1049.05,-61"/>
</g>
<!-- Node12 -->
<g id="node12" class="node">
<title>Node12</title>
<g id="a_node12"><a xlink:href="class_black_sim_plugin_1_1_p3_d_1_1_c_simulator_p3_d.html" target="_top" xlink:title="P3D Simulator Implementation.">
<polygon fill="none" stroke="black" points="1077,-0.5 1077,-30.5 1195,-30.5 1195,-0.5 1077,-0.5"/>
<text text-anchor="start" x="1085" y="-18.5" font-family="Helvetica,sans-Serif" font-size="10.00">BlackSimPlugin::P3D</text>
<text text-anchor="middle" x="1136" y="-7.5" font-family="Helvetica,sans-Serif" font-size="10.00">::CSimulatorP3D</text>
</a>
</g>
</g>
<!-- Node9&#45;&gt;Node12 -->
<g id="edge11" class="edge">
<title>Node9&#45;&gt;Node12</title>
<path fill="none" stroke="midnightblue" d="M1023.65,-46.68C1042.54,-41.39 1063.04,-35.65 1081.24,-30.55"/>
<polygon fill="midnightblue" stroke="midnightblue" points="1022.62,-43.33 1013.93,-49.4 1024.51,-50.07 1022.62,-43.33"/>
</g>
</g>
</svg>
