<?xml version="1.0" encoding="UTF-8" standalone="no"?>
<!DOCTYPE svg PUBLIC "-//W3C//DTD SVG 1.1//EN"
 "http://www.w3.org/Graphics/SVG/1.1/DTD/svg11.dtd">
<!-- Generated by graphviz version 2.43.0 (0)
 -->
<!-- Title: BlackMisc::Simulation::CInterpolationSetupAware Pages: 1 -->
<svg width="725pt" height="160pt"
 viewBox="0.00 0.00 725.00 159.50" xmlns="http://www.w3.org/2000/svg" xmlns:xlink="http://www.w3.org/1999/xlink">
<g id="graph0" class="graph" transform="scale(1 1) rotate(0) translate(4 155.5)">
<title>BlackMisc::Simulation::CInterpolationSetupAware</title>
<!-- Node1 -->
<g id="node1" class="node">
<title>Node1</title>
<g id="a_node1"><a xlink:title="Class which can be directly used to access an.">
<polygon fill="#bfbfbf" stroke="black" points="209,-55.5 209,-85.5 359,-85.5 359,-55.5 209,-55.5"/>
<text text-anchor="start" x="217" y="-73.5" font-family="Helvetica,sans-Serif" font-size="10.00">BlackMisc::Simulation</text>
<text text-anchor="middle" x="284" y="-62.5" font-family="Helvetica,sans-Serif" font-size="10.00">::CInterpolationSetupAware</text>
</a>
</g>
</g>
<!-- Node3 -->
<g id="node3" class="node">
<title>Node3</title>
<g id="a_node3"><a xlink:href="class_black_misc_1_1_simulation_1_1_c_interpolator.html" target="_top" xlink:title=" ">
<polygon fill="none" stroke="black" points="395,-110 395,-151 556,-151 556,-110 395,-110"/>
<text text-anchor="start" x="403" y="-139" font-family="Helvetica,sans-Serif" font-size="10.00">BlackMisc::Simulation</text>
<text text-anchor="start" x="403" y="-128" font-family="Helvetica,sans-Serif" font-size="10.00">::CInterpolator&lt; CInterpolator</text>
<text text-anchor="middle" x="475.5" y="-117" font-family="Helvetica,sans-Serif" font-size="10.00">Spline &gt;</text>
</a>
</g>
</g>
<!-- Node1&#45;&gt;Node3 -->
<g id="edge2" class="edge">
<title>Node1&#45;&gt;Node3</title>
<path fill="none" stroke="darkgreen" d="M342.61,-88.74C363.74,-95.43 387.79,-103.05 409.52,-109.92"/>
<polygon fill="darkgreen" stroke="darkgreen" points="343.41,-85.32 332.82,-85.64 341.3,-92 343.41,-85.32"/>
</g>
<!-- Node5 -->
<g id="node5" class="node">
<title>Node5</title>
<g id="a_node5"><a xlink:href="class_black_misc_1_1_simulation_1_1_c_interpolator.html" target="_top" xlink:title=" ">
<polygon fill="none" stroke="black" points="395,-50 395,-91 556,-91 556,-50 395,-50"/>
<text text-anchor="start" x="403" y="-79" font-family="Helvetica,sans-Serif" font-size="10.00">BlackMisc::Simulation</text>
<text text-anchor="start" x="403" y="-68" font-family="Helvetica,sans-Serif" font-size="10.00">::CInterpolator&lt; CInterpolator</text>
<text text-anchor="middle" x="475.5" y="-57" font-family="Helvetica,sans-Serif" font-size="10.00">Linear &gt;</text>
</a>
</g>
</g>
<!-- Node1&#45;&gt;Node5 -->
<g id="edge4" class="edge">
<title>Node1&#45;&gt;Node5</title>
<path fill="none" stroke="darkgreen" d="M369.34,-70.5C377.82,-70.5 386.41,-70.5 394.84,-70.5"/>
<polygon fill="darkgreen" stroke="darkgreen" points="369.08,-67 359.08,-70.5 369.08,-74 369.08,-67"/>
</g>
<!-- Node7 -->
<g id="node7" class="node">
<title>Node7</title>
<g id="a_node7"><a xlink:href="class_black_misc_1_1_simulation_1_1_c_interpolator.html" target="_top" xlink:title="Interpolator, calculation inbetween positions.">
<polygon fill="none" stroke="black" points="402,-0.5 402,-30.5 549,-30.5 549,-0.5 402,-0.5"/>
<text text-anchor="start" x="410" y="-18.5" font-family="Helvetica,sans-Serif" font-size="10.00">BlackMisc::Simulation</text>
<text text-anchor="middle" x="475.5" y="-7.5" font-family="Helvetica,sans-Serif" font-size="10.00">::CInterpolator&lt; Derived &gt;</text>
</a>
</g>
</g>
<!-- Node1&#45;&gt;Node7 -->
<g id="edge6" class="edge">
<title>Node1&#45;&gt;Node7</title>
<path fill="none" stroke="darkgreen" d="M346.4,-52.68C371.07,-45.52 399.18,-37.36 422.78,-30.51"/>
<polygon fill="darkgreen" stroke="darkgreen" points="345.41,-49.32 336.78,-55.47 347.36,-56.04 345.41,-49.32"/>
</g>
<!-- Node2 -->
<g id="node2" class="node">
<title>Node2</title>
<g id="a_node2"><a xlink:href="class_black_misc_1_1_i_provider_aware.html" target="_top" xlink:title=" ">
<polygon fill="none" stroke="black" points="0,-55.5 0,-85.5 173,-85.5 173,-55.5 0,-55.5"/>
<text text-anchor="start" x="8" y="-73.5" font-family="Helvetica,sans-Serif" font-size="10.00">BlackMisc::IProviderAware</text>
<text text-anchor="middle" x="86.5" y="-62.5" font-family="Helvetica,sans-Serif" font-size="10.00">&lt; IInterpolationSetupProvider &gt;</text>
</a>
</g>
</g>
<!-- Node2&#45;&gt;Node1 -->
<g id="edge1" class="edge">
<title>Node2&#45;&gt;Node1</title>
<path fill="none" stroke="midnightblue" d="M183.33,-70.5C191.94,-70.5 200.57,-70.5 208.95,-70.5"/>
<polygon fill="midnightblue" stroke="midnightblue" points="183.25,-67 173.25,-70.5 183.25,-74 183.25,-67"/>
</g>
<!-- Node4 -->
<g id="node4" class="node">
<title>Node4</title>
<g id="a_node4"><a xlink:href="class_black_misc_1_1_simulation_1_1_c_interpolator_spline.html" target="_top" xlink:title="Cubic spline interpolator.">
<polygon fill="none" stroke="black" points="592,-115.5 592,-145.5 717,-145.5 717,-115.5 592,-115.5"/>
<text text-anchor="start" x="600" y="-133.5" font-family="Helvetica,sans-Serif" font-size="10.00">BlackMisc::Simulation</text>
<text text-anchor="middle" x="654.5" y="-122.5" font-family="Helvetica,sans-Serif" font-size="10.00">::CInterpolatorSpline</text>
</a>
</g>
</g>
<!-- Node3&#45;&gt;Node4 -->
<g id="edge3" class="edge">
<title>Node3&#45;&gt;Node4</title>
<path fill="none" stroke="midnightblue" d="M566.29,-130.5C574.9,-130.5 583.5,-130.5 591.75,-130.5"/>
<polygon fill="midnightblue" stroke="midnightblue" points="566.2,-127 556.2,-130.5 566.2,-134 566.2,-127"/>
</g>
<!-- Node6 -->
<g id="node6" class="node">
<title>Node6</title>
<g id="a_node6"><a xlink:href="class_black_misc_1_1_simulation_1_1_c_interpolator_linear.html" target="_top" xlink:title="Linear interpolator, calculation inbetween positions.">
<polygon fill="none" stroke="black" points="592,-55.5 592,-85.5 717,-85.5 717,-55.5 592,-55.5"/>
<text text-anchor="start" x="600" y="-73.5" font-family="Helvetica,sans-Serif" font-size="10.00">BlackMisc::Simulation</text>
<text text-anchor="middle" x="654.5" y="-62.5" font-family="Helvetica,sans-Serif" font-size="10.00">::CInterpolatorLinear</text>
</a>
</g>
</g>
<!-- Node5&#45;&gt;Node6 -->
<g id="edge5" class="edge">
<title>Node5&#45;&gt;Node6</title>
<path fill="none" stroke="midnightblue" d="M566.29,-70.5C574.9,-70.5 583.5,-70.5 591.75,-70.5"/>
<polygon fill="midnightblue" stroke="midnightblue" points="566.2,-67 556.2,-70.5 566.2,-74 566.2,-67"/>
</g>
</g>
</svg>
