<?xml version="1.0" encoding="UTF-8" standalone="no"?>
<!DOCTYPE svg PUBLIC "-//W3C//DTD SVG 1.1//EN"
 "http://www.w3.org/Graphics/SVG/1.1/DTD/svg11.dtd">
<!-- Generated by graphviz version 2.43.0 (0)
 -->
<!-- Title: BlackCore::Context::CContextNetwork Pages: 1 -->
<svg width="538pt" height="137pt"
 viewBox="0.00 0.00 538.00 137.00" xmlns="http://www.w3.org/2000/svg" xmlns:xlink="http://www.w3.org/1999/xlink">
<g id="graph0" class="graph" transform="scale(1 1) rotate(0) translate(4 133)">
<title>BlackCore::Context::CContextNetwork</title>
<!-- Node1 -->
<g id="node1" class="node">
<title>Node1</title>
<g id="a_node1"><a xlink:title="Network context implementation.">
<polygon fill="#bfbfbf" stroke="black" points="420,-49.5 420,-79.5 530,-79.5 530,-49.5 420,-49.5"/>
<text text-anchor="start" x="428" y="-67.5" font-family="Helvetica,sans-Serif" font-size="10.00">BlackCore::Context</text>
<text text-anchor="middle" x="475" y="-56.5" font-family="Helvetica,sans-Serif" font-size="10.00">::CContextNetwork</text>
</a>
</g>
</g>
<!-- Node2 -->
<g id="node2" class="node">
<title>Node2</title>
<g id="a_node2"><a xlink:href="class_black_core_1_1_context_1_1_i_context_network.html" target="_top" xlink:title="Network context proxy.">
<polygon fill="none" stroke="black" points="259,-98.5 259,-128.5 369,-128.5 369,-98.5 259,-98.5"/>
<text text-anchor="start" x="267" y="-116.5" font-family="Helvetica,sans-Serif" font-size="10.00">BlackCore::Context</text>
<text text-anchor="middle" x="314" y="-105.5" font-family="Helvetica,sans-Serif" font-size="10.00">::IContextNetwork</text>
</a>
</g>
</g>
<!-- Node2&#45;&gt;Node1 -->
<g id="edge1" class="edge">
<title>Node2&#45;&gt;Node1</title>
<path fill="none" stroke="midnightblue" d="M373.77,-95.39C390.68,-90.18 408.93,-84.55 425.16,-79.55"/>
<polygon fill="midnightblue" stroke="midnightblue" points="372.53,-92.11 364,-98.4 374.59,-98.8 372.53,-92.11"/>
</g>
<!-- Node3 -->
<g id="node3" class="node">
<title>Node3</title>
<g id="a_node3"><a xlink:href="class_black_core_1_1_context_1_1_i_context.html" target="_top" xlink:title="Base for all context classes.">
<polygon fill="none" stroke="black" points="95,-98.5 95,-128.5 205,-128.5 205,-98.5 95,-98.5"/>
<text text-anchor="start" x="103" y="-116.5" font-family="Helvetica,sans-Serif" font-size="10.00">BlackCore::Context</text>
<text text-anchor="middle" x="150" y="-105.5" font-family="Helvetica,sans-Serif" font-size="10.00">::IContext</text>
</a>
</g>
</g>
<!-- Node3&#45;&gt;Node2 -->
<g id="edge2" class="edge">
<title>Node3&#45;&gt;Node2</title>
<path fill="none" stroke="midnightblue" d="M215.64,-113.5C229.93,-113.5 244.93,-113.5 258.75,-113.5"/>
<polygon fill="midnightblue" stroke="midnightblue" points="215.39,-110 205.39,-113.5 215.39,-117 215.39,-110"/>
</g>
<!-- Node4 -->
<g id="node4" class="node">
<title>Node4</title>
<g id="a_node4"><a target="_parent" xlink:href="http://doc.qt.io/qt-5/qobject.html" xlink:title=" ">
<polygon fill="none" stroke="black" points="0,-104 0,-123 56,-123 56,-104 0,-104"/>
<text text-anchor="middle" x="28" y="-111" font-family="Helvetica,sans-Serif" font-size="10.00">QObject</text>
</a>
</g>
</g>
<!-- Node4&#45;&gt;Node3 -->
<g id="edge3" class="edge">
<title>Node4&#45;&gt;Node3</title>
<path fill="none" stroke="midnightblue" d="M66.4,-113.5C75.43,-113.5 85.26,-113.5 94.89,-113.5"/>
<polygon fill="midnightblue" stroke="midnightblue" points="66.23,-110 56.23,-113.5 66.23,-117 66.23,-110"/>
</g>
<!-- Node5 -->
<g id="node5" class="node">
<title>Node5</title>
<g id="a_node5"><a xlink:href="class_black_misc_1_1_simulation_1_1_i_remote_aircraft_provider.html" target="_top" xlink:title="Direct thread safe in memory access to remote aircraft.">
<polygon fill="none" stroke="black" points="244,-49.5 244,-79.5 384,-79.5 384,-49.5 244,-49.5"/>
<text text-anchor="start" x="252" y="-67.5" font-family="Helvetica,sans-Serif" font-size="10.00">BlackMisc::Simulation</text>
<text text-anchor="middle" x="314" y="-56.5" font-family="Helvetica,sans-Serif" font-size="10.00">::IRemoteAircraftProvider</text>
</a>
</g>
</g>
<!-- Node5&#45;&gt;Node1 -->
<g id="edge4" class="edge">
<title>Node5&#45;&gt;Node1</title>
<path fill="none" stroke="midnightblue" d="M394.35,-64.5C402.96,-64.5 411.56,-64.5 419.77,-64.5"/>
<polygon fill="midnightblue" stroke="midnightblue" points="394.28,-61 384.28,-64.5 394.28,-68 394.28,-61"/>
</g>
<!-- Node6 -->
<g id="node6" class="node">
<title>Node6</title>
<g id="a_node6"><a xlink:href="class_black_misc_1_1_i_provider.html" target="_top" xlink:title="Base class for providers.">
<polygon fill="none" stroke="black" points="92,-31 92,-50 208,-50 208,-31 92,-31"/>
<text text-anchor="middle" x="150" y="-38" font-family="Helvetica,sans-Serif" font-size="10.00">BlackMisc::IProvider</text>
</a>
</g>
</g>
<!-- Node6&#45;&gt;Node5 -->
<g id="edge5" class="edge">
<title>Node6&#45;&gt;Node5</title>
<path fill="none" stroke="midnightblue" d="M218.02,-50.43C226.57,-51.69 235.32,-52.99 243.9,-54.26"/>
<polygon fill="midnightblue" stroke="midnightblue" points="218.52,-46.96 208.12,-48.96 217.49,-53.89 218.52,-46.96"/>
</g>
<!-- Node7 -->
<g id="node7" class="node">
<title>Node7</title>
<g id="a_node7"><a xlink:href="class_black_misc_1_1_network_1_1_i_client_provider.html" target="_top" xlink:title="Direct in memory access to client (network client) data.">
<polygon fill="none" stroke="black" points="257.5,-0.5 257.5,-30.5 370.5,-30.5 370.5,-0.5 257.5,-0.5"/>
<text text-anchor="start" x="265.5" y="-18.5" font-family="Helvetica,sans-Serif" font-size="10.00">BlackMisc::Network</text>
<text text-anchor="middle" x="314" y="-7.5" font-family="Helvetica,sans-Serif" font-size="10.00">::IClientProvider</text>
</a>
</g>
</g>
<!-- Node6&#45;&gt;Node7 -->
<g id="edge7" class="edge">
<title>Node6&#45;&gt;Node7</title>
<path fill="none" stroke="midnightblue" d="M218.03,-30.16C231.16,-28.13 244.79,-26.03 257.49,-24.07"/>
<polygon fill="midnightblue" stroke="midnightblue" points="217.46,-26.7 208.12,-31.69 218.53,-33.62 217.46,-26.7"/>
</g>
<!-- Node7&#45;&gt;Node1 -->
<g id="edge6" class="edge">
<title>Node7&#45;&gt;Node1</title>
<path fill="none" stroke="midnightblue" d="M373.77,-33.61C390.68,-38.82 408.93,-44.45 425.16,-49.45"/>
<polygon fill="midnightblue" stroke="midnightblue" points="374.59,-30.2 364,-30.6 372.53,-36.89 374.59,-30.2"/>
</g>
</g>
</svg>
