<?xml version="1.0" encoding="UTF-8" standalone="no"?>
<!DOCTYPE svg PUBLIC "-//W3C//DTD SVG 1.1//EN"
 "http://www.w3.org/Graphics/SVG/1.1/DTD/svg11.dtd">
<!-- Generated by graphviz version 2.43.0 (0)
 -->
<!-- Title: BlackMisc::Network::IEcosystemProvider Pages: 1 -->
<svg width="340pt" height="151pt"
 viewBox="0.00 0.00 339.50 151.00" xmlns="http://www.w3.org/2000/svg" xmlns:xlink="http://www.w3.org/1999/xlink">
<g id="graph0" class="graph" transform="scale(1 1) rotate(0) translate(4 147)">
<title>BlackMisc::Network::IEcosystemProvider</title>
<!-- Node1 -->
<g id="node1" class="node">
<title>Node1</title>
<g id="a_node1"><a xlink:title="Direct threadsafe in memory access to current ecosystem.">
<polygon fill="#bfbfbf" stroke="black" points="109.5,-56.5 109.5,-86.5 228.5,-86.5 228.5,-56.5 109.5,-56.5"/>
<text text-anchor="start" x="117.5" y="-74.5" font-family="Helvetica,sans-Serif" font-size="10.00">BlackMisc::Network</text>
<text text-anchor="middle" x="169" y="-63.5" font-family="Helvetica,sans-Serif" font-size="10.00">::IEcosystemProvider</text>
</a>
</g>
</g>
<!-- Node3 -->
<g id="node3" class="node">
<title>Node3</title>
<g id="a_node3"><a xlink:href="class_black_core_1_1_c_web_data_services.html" target="_top" xlink:title="Encapsulates reading data from web sources.">
<polygon fill="none" stroke="black" points="0,-0.5 0,-19.5 164,-19.5 164,-0.5 0,-0.5"/>
<text text-anchor="middle" x="82" y="-7.5" font-family="Helvetica,sans-Serif" font-size="10.00">BlackCore::CWebDataServices</text>
</a>
</g>
</g>
<!-- Node1&#45;&gt;Node3 -->
<g id="edge2" class="edge">
<title>Node1&#45;&gt;Node3</title>
<path fill="none" stroke="midnightblue" d="M139.73,-50.48C124.41,-40 106.43,-27.71 94.66,-19.66"/>
<polygon fill="midnightblue" stroke="midnightblue" points="138.15,-53.64 148.38,-56.4 142.1,-47.87 138.15,-53.64"/>
</g>
<!-- Node4 -->
<g id="node4" class="node">
<title>Node4</title>
<g id="a_node4"><a xlink:href="class_black_core_1_1_fsd_1_1_c_f_s_d_client.html" target="_top" xlink:title="FSD client Todo: Send (interim) data updates automatically Todo Check &#39;:&#39; in FSD messages....">
<polygon fill="none" stroke="black" points="182.5,-0.5 182.5,-19.5 331.5,-19.5 331.5,-0.5 182.5,-0.5"/>
<text text-anchor="middle" x="257" y="-7.5" font-family="Helvetica,sans-Serif" font-size="10.00">BlackCore::Fsd::CFSDClient</text>
</a>
</g>
</g>
<!-- Node1&#45;&gt;Node4 -->
<g id="edge3" class="edge">
<title>Node1&#45;&gt;Node4</title>
<path fill="none" stroke="midnightblue" d="M198.17,-50.78C213.77,-40.23 232.18,-27.78 244.2,-19.66"/>
<polygon fill="midnightblue" stroke="midnightblue" points="196.18,-47.9 189.85,-56.4 200.1,-53.7 196.18,-47.9"/>
</g>
<!-- Node2 -->
<g id="node2" class="node">
<title>Node2</title>
<g id="a_node2"><a xlink:href="class_black_misc_1_1_i_provider.html" target="_top" xlink:title="Base class for providers.">
<polygon fill="none" stroke="black" points="111,-123.5 111,-142.5 227,-142.5 227,-123.5 111,-123.5"/>
<text text-anchor="middle" x="169" y="-130.5" font-family="Helvetica,sans-Serif" font-size="10.00">BlackMisc::IProvider</text>
</a>
</g>
</g>
<!-- Node2&#45;&gt;Node1 -->
<g id="edge1" class="edge">
<title>Node2&#45;&gt;Node1</title>
<path fill="none" stroke="midnightblue" d="M169,-113.23C169,-104.59 169,-94.5 169,-86.52"/>
<polygon fill="midnightblue" stroke="midnightblue" points="165.5,-113.48 169,-123.48 172.5,-113.48 165.5,-113.48"/>
</g>
</g>
</svg>
