<?xml version="1.0" encoding="UTF-8" standalone="no"?>
<!DOCTYPE svg PUBLIC "-//W3C//DTD SVG 1.1//EN"
 "http://www.w3.org/Graphics/SVG/1.1/DTD/svg11.dtd">
<!-- Generated by graphviz version 2.43.0 (0)
 -->
<!-- Title: BlackMisc::Aviation::CAirport Pages: 1 -->
<svg width="725pt" height="666pt"
 viewBox="0.00 0.00 725.00 665.50" xmlns="http://www.w3.org/2000/svg" xmlns:xlink="http://www.w3.org/1999/xlink">
<g id="graph0" class="graph" transform="scale(1 1) rotate(0) translate(4 661.5)">
<title>BlackMisc::Aviation::CAirport</title>
<!-- Node1 -->
<g id="node1" class="node">
<title>Node1</title>
<g id="a_node1"><a xlink:title="Value object encapsulating information about an airpot.">
<polygon fill="#bfbfbf" stroke="black" points="605,-49.5 605,-79.5 717,-79.5 717,-49.5 605,-49.5"/>
<text text-anchor="start" x="613" y="-67.5" font-family="Helvetica,sans-Serif" font-size="10.00">BlackMisc::Aviation</text>
<text text-anchor="middle" x="661" y="-56.5" font-family="Helvetica,sans-Serif" font-size="10.00">::CAirport</text>
</a>
</g>
</g>
<!-- Node2 -->
<g id="node2" class="node">
<title>Node2</title>
<g id="a_node2"><a xlink:href="class_black_misc_1_1_c_value_object.html" target="_top" xlink:title=" ">
<polygon fill="none" stroke="black" points="423.5,-343.5 423.5,-373.5 560.5,-373.5 560.5,-343.5 423.5,-343.5"/>
<text text-anchor="start" x="431.5" y="-361.5" font-family="Helvetica,sans-Serif" font-size="10.00">BlackMisc::CValueObject</text>
<text text-anchor="middle" x="492" y="-350.5" font-family="Helvetica,sans-Serif" font-size="10.00">&lt; CAirport &gt;</text>
</a>
</g>
</g>
<!-- Node2&#45;&gt;Node1 -->
<g id="edge1" class="edge">
<title>Node2&#45;&gt;Node1</title>
<path fill="none" stroke="midnightblue" d="M506.82,-334.17C540.13,-275.53 624.13,-127.65 651.34,-79.74"/>
<polygon fill="midnightblue" stroke="midnightblue" points="503.64,-332.68 501.74,-343.11 509.73,-336.14 503.64,-332.68"/>
</g>
<!-- Node3 -->
<g id="node3" class="node">
<title>Node3</title>
<g id="a_node3"><a xlink:href="class_black_misc_1_1_c_empty.html" target="_top" xlink:title="Default base class for CValueObject.">
<polygon fill="none" stroke="black" points="242,-638 242,-657 352,-657 352,-638 242,-638"/>
<text text-anchor="middle" x="297" y="-645" font-family="Helvetica,sans-Serif" font-size="10.00">BlackMisc::CEmpty</text>
</a>
</g>
</g>
<!-- Node3&#45;&gt;Node2 -->
<g id="edge2" class="edge">
<title>Node3&#45;&gt;Node2</title>
<path fill="none" stroke="midnightblue" d="M362.16,-638.68C368.26,-636.06 374.01,-632.73 379,-628.5 461.01,-558.86 484,-419.4 489.48,-373.52"/>
<polygon fill="midnightblue" stroke="midnightblue" points="360.57,-635.53 352.36,-642.22 362.95,-642.11 360.57,-635.53"/>
</g>
<!-- Node4 -->
<g id="node4" class="node">
<title>Node4</title>
<g id="a_node4"><a xlink:href="class_black_misc_1_1_mixin_1_1_meta_type.html" target="_top" xlink:title="CRTP class template from which a derived class can inherit common methods dealing with the metatype o...">
<polygon fill="none" stroke="black" points="221,-588.5 221,-618.5 373,-618.5 373,-588.5 221,-588.5"/>
<text text-anchor="start" x="229" y="-606.5" font-family="Helvetica,sans-Serif" font-size="10.00">BlackMisc::Mixin::MetaType</text>
<text text-anchor="middle" x="297" y="-595.5" font-family="Helvetica,sans-Serif" font-size="10.00">&lt; Derived &gt;</text>
</a>
</g>
</g>
<!-- Node4&#45;&gt;Node2 -->
<g id="edge3" class="edge">
<title>Node4&#45;&gt;Node2</title>
<path fill="none" stroke="midnightblue" d="M374.12,-583.2C375.81,-582.04 377.44,-580.8 379,-579.5 447.23,-522.63 478.26,-413.71 487.71,-373.71"/>
<polygon fill="midnightblue" stroke="midnightblue" points="372.05,-580.36 365.26,-588.49 375.64,-586.37 372.05,-580.36"/>
</g>
<!-- Node5 -->
<g id="node5" class="node">
<title>Node5</title>
<g id="a_node5"><a xlink:href="class_black_misc_1_1_mixin_1_1_hash_by_meta_class.html" target="_top" xlink:title="CRTP class template from which a derived class can inherit common methods dealing with hashing instan...">
<polygon fill="none" stroke="black" points="225.5,-539.5 225.5,-569.5 368.5,-569.5 368.5,-539.5 225.5,-539.5"/>
<text text-anchor="start" x="233.5" y="-557.5" font-family="Helvetica,sans-Serif" font-size="10.00">BlackMisc::Mixin::HashBy</text>
<text text-anchor="middle" x="297" y="-546.5" font-family="Helvetica,sans-Serif" font-size="10.00">MetaClass&lt; Derived &gt;</text>
</a>
</g>
</g>
<!-- Node5&#45;&gt;Node2 -->
<g id="edge4" class="edge">
<title>Node5&#45;&gt;Node2</title>
<path fill="none" stroke="midnightblue" d="M373.19,-534.43C375.19,-533.2 377.14,-531.89 379,-530.5 435.99,-488 472.17,-407.28 485.37,-373.73"/>
<polygon fill="midnightblue" stroke="midnightblue" points="371.18,-531.54 364.05,-539.37 374.51,-537.7 371.18,-531.54"/>
</g>
<!-- Node6 -->
<g id="node6" class="node">
<title>Node6</title>
<g id="a_node6"><a xlink:href="class_black_misc_1_1_mixin_1_1_d_bus_by_meta_class.html" target="_top" xlink:title="CRTP class template from which a derived class can inherit common methods dealing with marshalling in...">
<polygon fill="none" stroke="black" points="219,-490.5 219,-520.5 375,-520.5 375,-490.5 219,-490.5"/>
<text text-anchor="start" x="227" y="-508.5" font-family="Helvetica,sans-Serif" font-size="10.00">BlackMisc::Mixin::DBusBy</text>
<text text-anchor="middle" x="297" y="-497.5" font-family="Helvetica,sans-Serif" font-size="10.00">MetaClass&lt; Derived, Tags &gt;</text>
</a>
</g>
</g>
<!-- Node6&#45;&gt;Node2 -->
<g id="edge5" class="edge">
<title>Node6&#45;&gt;Node2</title>
<path fill="none" stroke="midnightblue" d="M370.73,-486.16C373.58,-484.71 376.35,-483.16 379,-481.5 425,-452.65 463.84,-399.84 481.23,-373.82"/>
<polygon fill="midnightblue" stroke="midnightblue" points="369.03,-483.09 361.4,-490.44 371.94,-489.45 369.03,-483.09"/>
</g>
<!-- Node7 -->
<g id="node7" class="node">
<title>Node7</title>
<g id="a_node7"><a xlink:href="class_black_misc_1_1_mixin_1_1_d_bus_operators.html" target="_top" xlink:title=" ">
<polygon fill="none" stroke="black" points="0,-490.5 0,-520.5 179,-520.5 179,-490.5 0,-490.5"/>
<text text-anchor="start" x="8" y="-508.5" font-family="Helvetica,sans-Serif" font-size="10.00">BlackMisc::Mixin::DBusOperators</text>
<text text-anchor="middle" x="89.5" y="-497.5" font-family="Helvetica,sans-Serif" font-size="10.00">&lt; Derived, Tags... &gt;</text>
</a>
</g>
</g>
<!-- Node7&#45;&gt;Node6 -->
<g id="edge6" class="edge">
<title>Node7&#45;&gt;Node6</title>
<path fill="none" stroke="midnightblue" d="M189.44,-505.5C199.35,-505.5 209.31,-505.5 218.95,-505.5"/>
<polygon fill="midnightblue" stroke="midnightblue" points="189.14,-502 179.14,-505.5 189.14,-509 189.14,-502"/>
</g>
<!-- Node8 -->
<g id="node8" class="node">
<title>Node8</title>
<g id="a_node8"><a xlink:href="class_black_misc_1_1_mixin_1_1_data_stream_by_meta_class.html" target="_top" xlink:title="CRTP class template to generate QDataStream marshalling methods using CMetaClass.">
<polygon fill="none" stroke="black" points="215,-441.5 215,-471.5 379,-471.5 379,-441.5 215,-441.5"/>
<text text-anchor="start" x="223" y="-459.5" font-family="Helvetica,sans-Serif" font-size="10.00">BlackMisc::Mixin::DataStream</text>
<text text-anchor="middle" x="297" y="-448.5" font-family="Helvetica,sans-Serif" font-size="10.00">ByMetaClass&lt; Derived &gt;</text>
</a>
</g>
</g>
<!-- Node8&#45;&gt;Node2 -->
<g id="edge7" class="edge">
<title>Node8&#45;&gt;Node2</title>
<path fill="none" stroke="midnightblue" d="M366.33,-437.86C370.67,-436.19 374.93,-434.4 379,-432.5 413.86,-416.26 450.31,-390.21 471.82,-373.75"/>
<polygon fill="midnightblue" stroke="midnightblue" points="364.93,-434.64 356.73,-441.35 367.32,-441.22 364.93,-434.64"/>
</g>
<!-- Node9 -->
<g id="node9" class="node">
<title>Node9</title>
<g id="a_node9"><a xlink:href="class_black_misc_1_1_mixin_1_1_data_stream_operators.html" target="_top" xlink:title="CRTP class template to generate non&#45;member QDataStream streaming operators.">
<polygon fill="none" stroke="black" points="7.5,-441.5 7.5,-471.5 171.5,-471.5 171.5,-441.5 7.5,-441.5"/>
<text text-anchor="start" x="15.5" y="-459.5" font-family="Helvetica,sans-Serif" font-size="10.00">BlackMisc::Mixin::DataStream</text>
<text text-anchor="middle" x="89.5" y="-448.5" font-family="Helvetica,sans-Serif" font-size="10.00">Operators&lt; Derived &gt;</text>
</a>
</g>
</g>
<!-- Node9&#45;&gt;Node8 -->
<g id="edge8" class="edge">
<title>Node9&#45;&gt;Node8</title>
<path fill="none" stroke="midnightblue" d="M181.74,-456.5C192.72,-456.5 203.87,-456.5 214.7,-456.5"/>
<polygon fill="midnightblue" stroke="midnightblue" points="181.72,-453 171.72,-456.5 181.72,-460 181.72,-453"/>
</g>
<!-- Node10 -->
<g id="node10" class="node">
<title>Node10</title>
<g id="a_node10"><a xlink:href="class_black_misc_1_1_mixin_1_1_json_by_meta_class.html" target="_top" xlink:title="CRTP class template from which a derived class can inherit common methods dealing with JSON by metatu...">
<polygon fill="none" stroke="black" points="228,-392.5 228,-422.5 366,-422.5 366,-392.5 228,-392.5"/>
<text text-anchor="start" x="236" y="-410.5" font-family="Helvetica,sans-Serif" font-size="10.00">BlackMisc::Mixin::JsonBy</text>
<text text-anchor="middle" x="297" y="-399.5" font-family="Helvetica,sans-Serif" font-size="10.00">MetaClass&lt; Derived &gt;</text>
</a>
</g>
</g>
<!-- Node10&#45;&gt;Node2 -->
<g id="edge9" class="edge">
<title>Node10&#45;&gt;Node2</title>
<path fill="none" stroke="midnightblue" d="M367.12,-389.95C388.32,-384.57 411.43,-378.7 431.89,-373.51"/>
<polygon fill="midnightblue" stroke="midnightblue" points="366.05,-386.61 357.22,-392.47 367.77,-393.4 366.05,-386.61"/>
</g>
<!-- Node11 -->
<g id="node11" class="node">
<title>Node11</title>
<g id="a_node11"><a xlink:href="class_black_misc_1_1_mixin_1_1_json_operators.html" target="_top" xlink:title="CRTP class template which will generate marshalling operators for a derived class with its own marsha...">
<polygon fill="none" stroke="black" points="3,-392.5 3,-422.5 176,-422.5 176,-392.5 3,-392.5"/>
<text text-anchor="start" x="11" y="-410.5" font-family="Helvetica,sans-Serif" font-size="10.00">BlackMisc::Mixin::JsonOperators</text>
<text text-anchor="middle" x="89.5" y="-399.5" font-family="Helvetica,sans-Serif" font-size="10.00">&lt; Derived &gt;</text>
</a>
</g>
</g>
<!-- Node11&#45;&gt;Node10 -->
<g id="edge10" class="edge">
<title>Node11&#45;&gt;Node10</title>
<path fill="none" stroke="midnightblue" d="M186.35,-407.5C200.41,-407.5 214.65,-407.5 227.99,-407.5"/>
<polygon fill="midnightblue" stroke="midnightblue" points="186.16,-404 176.16,-407.5 186.16,-411 186.16,-404"/>
</g>
<!-- Node12 -->
<g id="node12" class="node">
<title>Node12</title>
<g id="a_node12"><a xlink:href="class_black_misc_1_1_mixin_1_1_equals_by_meta_class.html" target="_top" xlink:title="CRTP class template from which a derived class can inherit operator== implemented by metaclass.">
<polygon fill="none" stroke="black" points="226.5,-343.5 226.5,-373.5 367.5,-373.5 367.5,-343.5 226.5,-343.5"/>
<text text-anchor="start" x="234.5" y="-361.5" font-family="Helvetica,sans-Serif" font-size="10.00">BlackMisc::Mixin::Equals</text>
<text text-anchor="middle" x="297" y="-350.5" font-family="Helvetica,sans-Serif" font-size="10.00">ByMetaClass&lt; Derived &gt;</text>
</a>
</g>
</g>
<!-- Node12&#45;&gt;Node2 -->
<g id="edge11" class="edge">
<title>Node12&#45;&gt;Node2</title>
<path fill="none" stroke="midnightblue" d="M378.01,-358.5C393.08,-358.5 408.71,-358.5 423.36,-358.5"/>
<polygon fill="midnightblue" stroke="midnightblue" points="377.68,-355 367.68,-358.5 377.68,-362 377.68,-355"/>
</g>
<!-- Node13 -->
<g id="node13" class="node">
<title>Node13</title>
<g id="a_node13"><a xlink:href="class_black_misc_1_1_mixin_1_1_less_than_by_meta_class.html" target="_top" xlink:title="CRTP class template from which a derived class can inherit operator&lt; implemented by metaclass.">
<polygon fill="none" stroke="black" points="221.5,-294.5 221.5,-324.5 372.5,-324.5 372.5,-294.5 221.5,-294.5"/>
<text text-anchor="start" x="229.5" y="-312.5" font-family="Helvetica,sans-Serif" font-size="10.00">BlackMisc::Mixin::LessThan</text>
<text text-anchor="middle" x="297" y="-301.5" font-family="Helvetica,sans-Serif" font-size="10.00">ByMetaClass&lt; Derived &gt;</text>
</a>
</g>
</g>
<!-- Node13&#45;&gt;Node2 -->
<g id="edge12" class="edge">
<title>Node13&#45;&gt;Node2</title>
<path fill="none" stroke="midnightblue" d="M367.12,-327.05C388.32,-332.43 411.43,-338.3 431.89,-343.49"/>
<polygon fill="midnightblue" stroke="midnightblue" points="367.77,-323.6 357.22,-324.53 366.05,-330.39 367.77,-323.6"/>
</g>
<!-- Node14 -->
<g id="node14" class="node">
<title>Node14</title>
<g id="a_node14"><a xlink:href="class_black_misc_1_1_mixin_1_1_compare_by_meta_class.html" target="_top" xlink:title="CRTP class template from which a derived class can inherit non&#45;member compare() implemented by metacl...">
<polygon fill="none" stroke="black" points="222.5,-245.5 222.5,-275.5 371.5,-275.5 371.5,-245.5 222.5,-245.5"/>
<text text-anchor="start" x="230.5" y="-263.5" font-family="Helvetica,sans-Serif" font-size="10.00">BlackMisc::Mixin::Compare</text>
<text text-anchor="middle" x="297" y="-252.5" font-family="Helvetica,sans-Serif" font-size="10.00">ByMetaClass&lt; Derived &gt;</text>
</a>
</g>
</g>
<!-- Node14&#45;&gt;Node2 -->
<g id="edge13" class="edge">
<title>Node14&#45;&gt;Node2</title>
<path fill="none" stroke="midnightblue" d="M363.64,-279.03C368.91,-281.04 374.09,-283.2 379,-285.5 413.46,-301.66 449.74,-327.08 471.35,-343.25"/>
<polygon fill="midnightblue" stroke="midnightblue" points="364.7,-275.69 354.11,-275.58 362.32,-282.27 364.7,-275.69"/>
</g>
<!-- Node15 -->
<g id="node15" class="node">
<title>Node15</title>
<g id="a_node15"><a xlink:href="class_black_misc_1_1_mixin_1_1_string.html" target="_top" xlink:title="CRTP class template from which a derived class can inherit string streaming operations.">
<polygon fill="none" stroke="black" points="230,-196.5 230,-226.5 364,-226.5 364,-196.5 230,-196.5"/>
<text text-anchor="start" x="238" y="-214.5" font-family="Helvetica,sans-Serif" font-size="10.00">BlackMisc::Mixin::String</text>
<text text-anchor="middle" x="297" y="-203.5" font-family="Helvetica,sans-Serif" font-size="10.00">&lt; Derived &gt;</text>
</a>
</g>
</g>
<!-- Node15&#45;&gt;Node2 -->
<g id="edge14" class="edge">
<title>Node15&#45;&gt;Node2</title>
<path fill="none" stroke="midnightblue" d="M368.51,-230.67C372.14,-232.45 375.67,-234.39 379,-236.5 424.69,-265.38 463.68,-317.64 481.16,-343.36"/>
<polygon fill="midnightblue" stroke="midnightblue" points="369.84,-227.43 359.28,-226.54 366.98,-233.82 369.84,-227.43"/>
</g>
<!-- Node16 -->
<g id="node16" class="node">
<title>Node16</title>
<g id="a_node16"><a xlink:href="class_black_misc_1_1_mixin_1_1_index.html" target="_top" xlink:title="CRTP class template from which a derived class can inherit property indexing functions.">
<polygon fill="none" stroke="black" points="231,-147.5 231,-177.5 363,-177.5 363,-147.5 231,-147.5"/>
<text text-anchor="start" x="239" y="-165.5" font-family="Helvetica,sans-Serif" font-size="10.00">BlackMisc::Mixin::Index</text>
<text text-anchor="middle" x="297" y="-154.5" font-family="Helvetica,sans-Serif" font-size="10.00">&lt; Derived &gt;</text>
</a>
</g>
</g>
<!-- Node16&#45;&gt;Node2 -->
<g id="edge15" class="edge">
<title>Node16&#45;&gt;Node2</title>
<path fill="none" stroke="midnightblue" d="M371.09,-182.25C373.84,-183.87 376.49,-185.61 379,-187.5 435.57,-230.07 471.99,-310.14 485.31,-343.41"/>
<polygon fill="midnightblue" stroke="midnightblue" points="372.49,-179.03 362,-177.53 369.26,-185.25 372.49,-179.03"/>
</g>
<!-- Node17 -->
<g id="node17" class="node">
<title>Node17</title>
<g id="a_node17"><a xlink:href="class_black_misc_1_1_mixin_1_1_icon.html" target="_top" xlink:title="CRTP class template from which a derived class can inherit icon&#45;related functions.">
<polygon fill="none" stroke="black" points="231.5,-98.5 231.5,-128.5 362.5,-128.5 362.5,-98.5 231.5,-98.5"/>
<text text-anchor="start" x="239.5" y="-116.5" font-family="Helvetica,sans-Serif" font-size="10.00">BlackMisc::Mixin::Icon</text>
<text text-anchor="middle" x="297" y="-105.5" font-family="Helvetica,sans-Serif" font-size="10.00">&lt; Derived, IconIndex &gt;</text>
</a>
</g>
</g>
<!-- Node17&#45;&gt;Node2 -->
<g id="edge16" class="edge">
<title>Node17&#45;&gt;Node2</title>
<path fill="none" stroke="midnightblue" d="M371.79,-133.2C374.32,-134.83 376.73,-136.59 379,-138.5 446.71,-195.49 478.06,-303.69 487.65,-343.4"/>
<polygon fill="midnightblue" stroke="midnightblue" points="373.29,-130.02 362.86,-128.16 369.85,-136.12 373.29,-130.02"/>
</g>
<!-- Node18 -->
<g id="node18" class="node">
<title>Node18</title>
<g id="a_node18"><a xlink:href="class_black_misc_1_1_geo_1_1_i_coordinate_with_relative_position.html" target="_top" xlink:title="Interface (actually more an abstract class) of coordinates and relative position to something (normal...">
<polygon fill="none" stroke="black" points="415,-49.5 415,-79.5 569,-79.5 569,-49.5 415,-49.5"/>
<text text-anchor="start" x="423" y="-67.5" font-family="Helvetica,sans-Serif" font-size="10.00">BlackMisc::Geo::ICoordinate</text>
<text text-anchor="middle" x="492" y="-56.5" font-family="Helvetica,sans-Serif" font-size="10.00">WithRelativePosition</text>
</a>
</g>
</g>
<!-- Node18&#45;&gt;Node1 -->
<g id="edge17" class="edge">
<title>Node18&#45;&gt;Node1</title>
<path fill="none" stroke="midnightblue" d="M579.36,-64.5C588.04,-64.5 596.68,-64.5 604.9,-64.5"/>
<polygon fill="midnightblue" stroke="midnightblue" points="579.17,-61 569.17,-64.5 579.17,-68 579.17,-61"/>
</g>
<!-- Node19 -->
<g id="node19" class="node">
<title>Node19</title>
<g id="a_node19"><a xlink:href="class_black_misc_1_1_geo_1_1_i_coordinate_geodetic.html" target="_top" xlink:title="Geodetic coordinate, a position in 3D space relative to the reference geoid.">
<polygon fill="none" stroke="black" points="220,-49.5 220,-79.5 374,-79.5 374,-49.5 220,-49.5"/>
<text text-anchor="start" x="228" y="-67.5" font-family="Helvetica,sans-Serif" font-size="10.00">BlackMisc::Geo::ICoordinate</text>
<text text-anchor="middle" x="297" y="-56.5" font-family="Helvetica,sans-Serif" font-size="10.00">Geodetic</text>
</a>
</g>
</g>
<!-- Node19&#45;&gt;Node18 -->
<g id="edge18" class="edge">
<title>Node19&#45;&gt;Node18</title>
<path fill="none" stroke="midnightblue" d="M384.14,-64.5C394.34,-64.5 404.7,-64.5 414.75,-64.5"/>
<polygon fill="midnightblue" stroke="midnightblue" points="384,-61 374,-64.5 384,-68 384,-61"/>
</g>
<!-- Node20 -->
<g id="node20" class="node">
<title>Node20</title>
<g id="a_node20"><a xlink:href="class_black_misc_1_1_db_1_1_i_datastore_object_with_integer_key.html" target="_top" xlink:title="Class from which a derived class can inherit datastore&#45;related functions.">
<polygon fill="none" stroke="black" points="420.5,-0.5 420.5,-30.5 563.5,-30.5 563.5,-0.5 420.5,-0.5"/>
<text text-anchor="start" x="428.5" y="-18.5" font-family="Helvetica,sans-Serif" font-size="10.00">BlackMisc::Db::IDatastore</text>
<text text-anchor="middle" x="492" y="-7.5" font-family="Helvetica,sans-Serif" font-size="10.00">ObjectWithIntegerKey</text>
</a>
</g>
</g>
<!-- Node20&#45;&gt;Node1 -->
<g id="edge19" class="edge">
<title>Node20&#45;&gt;Node1</title>
<path fill="none" stroke="midnightblue" d="M554.23,-33.47C572.13,-38.72 591.49,-44.4 608.7,-49.45"/>
<polygon fill="midnightblue" stroke="midnightblue" points="555.05,-30.06 544.47,-30.6 553.08,-36.78 555.05,-30.06"/>
</g>
<!-- Node21 -->
<g id="node21" class="node">
<title>Node21</title>
<g id="a_node21"><a xlink:href="class_black_misc_1_1_db_1_1_i_datastore_object.html" target="_top" xlink:title="Supposed to be used only in filter operations.">
<polygon fill="none" stroke="black" points="225.5,-0.5 225.5,-30.5 368.5,-30.5 368.5,-0.5 225.5,-0.5"/>
<text text-anchor="start" x="233.5" y="-18.5" font-family="Helvetica,sans-Serif" font-size="10.00">BlackMisc::Db::IDatastore</text>
<text text-anchor="middle" x="297" y="-7.5" font-family="Helvetica,sans-Serif" font-size="10.00">Object</text>
</a>
</g>
</g>
<!-- Node21&#45;&gt;Node20 -->
<g id="edge20" class="edge">
<title>Node21&#45;&gt;Node20</title>
<path fill="none" stroke="midnightblue" d="M379.12,-15.5C392.78,-15.5 406.86,-15.5 420.24,-15.5"/>
<polygon fill="midnightblue" stroke="midnightblue" points="378.77,-12 368.77,-15.5 378.77,-19 378.77,-12"/>
</g>
<!-- Node22 -->
<g id="node22" class="node">
<title>Node22</title>
<g id="a_node22"><a xlink:href="class_black_misc_1_1_i_timestamp_based.html" target="_top" xlink:title="Entity with timestamp.">
<polygon fill="none" stroke="black" points="9,-6 9,-25 170,-25 170,-6 9,-6"/>
<text text-anchor="middle" x="89.5" y="-13" font-family="Helvetica,sans-Serif" font-size="10.00">BlackMisc::ITimestampBased</text>
</a>
</g>
</g>
<!-- Node22&#45;&gt;Node21 -->
<g id="edge21" class="edge">
<title>Node22&#45;&gt;Node21</title>
<path fill="none" stroke="midnightblue" d="M180.55,-15.5C195.55,-15.5 210.91,-15.5 225.34,-15.5"/>
<polygon fill="midnightblue" stroke="midnightblue" points="180.25,-12 170.25,-15.5 180.25,-19 180.25,-12"/>
</g>
</g>
</svg>
