<?xml version="1.0" encoding="UTF-8" standalone="no"?>
<!DOCTYPE svg PUBLIC "-//W3C//DTD SVG 1.1//EN"
 "http://www.w3.org/Graphics/SVG/1.1/DTD/svg11.dtd">
<!-- Generated by graphviz version 2.43.0 (0)
 -->
<!-- Title: BlackGui::Components::CDbQuickMappingWizard Pages: 1 -->
<svg width="166pt" height="263pt"
 viewBox="0.00 0.00 166.00 263.00" xmlns="http://www.w3.org/2000/svg" xmlns:xlink="http://www.w3.org/1999/xlink">
<g id="graph0" class="graph" transform="scale(1 1) rotate(0) translate(4 259)">
<title>BlackGui::Components::CDbQuickMappingWizard</title>
<!-- Node1 -->
<g id="node1" class="node">
<title>Node1</title>
<g id="a_node1"><a xlink:title="Wizard to quickly provide a single mapping.">
<polygon fill="#bfbfbf" stroke="black" points="0,-0.5 0,-30.5 146,-30.5 146,-0.5 0,-0.5"/>
<text text-anchor="start" x="8" y="-18.5" font-family="Helvetica,sans-Serif" font-size="10.00">BlackGui::Components</text>
<text text-anchor="middle" x="73" y="-7.5" font-family="Helvetica,sans-Serif" font-size="10.00">::CDbQuickMappingWizard</text>
</a>
</g>
</g>
<!-- Node2 -->
<g id="node2" class="node">
<title>Node2</title>
<g id="a_node2"><a target="_parent" xlink:href="http://doc.qt.io/qt-5/qwizard.html" xlink:title=" ">
<polygon fill="none" stroke="black" points="44,-67.5 44,-86.5 102,-86.5 102,-67.5 44,-67.5"/>
<text text-anchor="middle" x="73" y="-74.5" font-family="Helvetica,sans-Serif" font-size="10.00">QWizard</text>
</a>
</g>
</g>
<!-- Node2&#45;&gt;Node1 -->
<g id="edge1" class="edge">
<title>Node2&#45;&gt;Node1</title>
<path fill="none" stroke="midnightblue" d="M73,-57.23C73,-48.59 73,-38.5 73,-30.52"/>
<polygon fill="midnightblue" stroke="midnightblue" points="69.5,-57.48 73,-67.48 76.5,-57.48 69.5,-57.48"/>
</g>
<!-- Node3 -->
<g id="node3" class="node">
<title>Node3</title>
<g id="a_node3"><a target="_parent" xlink:href="http://doc.qt.io/qt-5/qdialog.html" xlink:title=" ">
<polygon fill="none" stroke="black" points="45,-123.5 45,-142.5 101,-142.5 101,-123.5 45,-123.5"/>
<text text-anchor="middle" x="73" y="-130.5" font-family="Helvetica,sans-Serif" font-size="10.00">QDialog</text>
</a>
</g>
</g>
<!-- Node3&#45;&gt;Node2 -->
<g id="edge2" class="edge">
<title>Node3&#45;&gt;Node2</title>
<path fill="none" stroke="midnightblue" d="M73,-112.8C73,-103.91 73,-93.78 73,-86.75"/>
<polygon fill="midnightblue" stroke="midnightblue" points="69.5,-113.08 73,-123.08 76.5,-113.08 69.5,-113.08"/>
</g>
<!-- Node4 -->
<g id="node4" class="node">
<title>Node4</title>
<g id="a_node4"><a target="_parent" xlink:href="http://doc.qt.io/qt-5/qwidget.html" xlink:title=" ">
<polygon fill="none" stroke="black" points="43.5,-179.5 43.5,-198.5 102.5,-198.5 102.5,-179.5 43.5,-179.5"/>
<text text-anchor="middle" x="73" y="-186.5" font-family="Helvetica,sans-Serif" font-size="10.00">QWidget</text>
</a>
</g>
</g>
<!-- Node4&#45;&gt;Node3 -->
<g id="edge3" class="edge">
<title>Node4&#45;&gt;Node3</title>
<path fill="none" stroke="midnightblue" d="M73,-168.8C73,-159.91 73,-149.78 73,-142.75"/>
<polygon fill="midnightblue" stroke="midnightblue" points="69.5,-169.08 73,-179.08 76.5,-169.08 69.5,-169.08"/>
</g>
<!-- Node5 -->
<g id="node5" class="node">
<title>Node5</title>
<g id="a_node5"><a target="_parent" xlink:href="http://doc.qt.io/qt-5/qobject.html" xlink:title=" ">
<polygon fill="none" stroke="black" points="2,-235.5 2,-254.5 58,-254.5 58,-235.5 2,-235.5"/>
<text text-anchor="middle" x="30" y="-242.5" font-family="Helvetica,sans-Serif" font-size="10.00">QObject</text>
</a>
</g>
</g>
<!-- Node5&#45;&gt;Node4 -->
<g id="edge4" class="edge">
<title>Node5&#45;&gt;Node4</title>
<path fill="none" stroke="midnightblue" d="M43.42,-227.14C50.91,-217.74 59.94,-206.4 66.03,-198.75"/>
<polygon fill="midnightblue" stroke="midnightblue" points="40.59,-225.08 37.1,-235.08 46.07,-229.44 40.59,-225.08"/>
</g>
<!-- Node6 -->
<g id="node6" class="node">
<title>Node6</title>
<g id="a_node6"><a target="_parent" xlink:href="http://doc.qt.io/qt-5/qpaintdevice.html" xlink:title=" ">
<polygon fill="none" stroke="black" points="76,-235.5 76,-254.5 158,-254.5 158,-235.5 76,-235.5"/>
<text text-anchor="middle" x="117" y="-242.5" font-family="Helvetica,sans-Serif" font-size="10.00">QPaintDevice</text>
</a>
</g>
</g>
<!-- Node6&#45;&gt;Node4 -->
<g id="edge5" class="edge">
<title>Node6&#45;&gt;Node4</title>
<path fill="none" stroke="midnightblue" d="M103.27,-227.14C95.6,-217.74 86.37,-206.4 80.13,-198.75"/>
<polygon fill="midnightblue" stroke="midnightblue" points="100.7,-229.54 109.73,-235.08 106.13,-225.12 100.7,-229.54"/>
</g>
</g>
</svg>
