<?xml version="1.0" encoding="UTF-8" standalone="no"?>
<!DOCTYPE svg PUBLIC "-//W3C//DTD SVG 1.1//EN"
 "http://www.w3.org/Graphics/SVG/1.1/DTD/svg11.dtd">
<!-- Generated by graphviz version 2.43.0 (0)
 -->
<!-- Title: BlackMisc::IProvider Pages: 1 -->
<svg width="1305pt" height="542pt"
 viewBox="0.00 0.00 1305.00 541.50" xmlns="http://www.w3.org/2000/svg" xmlns:xlink="http://www.w3.org/1999/xlink">
<g id="graph0" class="graph" transform="scale(1 1) rotate(0) translate(4 537.5)">
<title>BlackMisc::IProvider</title>
<!-- Node1 -->
<g id="node1" class="node">
<title>Node1</title>
<g id="a_node1"><a xlink:title="Base class for providers.">
<polygon fill="#bfbfbf" stroke="black" points="0,-249 0,-268 116,-268 116,-249 0,-249"/>
<text text-anchor="middle" x="58" y="-256" font-family="Helvetica,sans-Serif" font-size="10.00">BlackMisc::IProvider</text>
</a>
</g>
</g>
<!-- Node2 -->
<g id="node2" class="node">
<title>Node2</title>
<g id="a_node2"><a xlink:href="class_black_misc_1_1_network_1_1_i_client_provider.html" target="_top" xlink:title="Direct in memory access to client (network client) data.">
<polygon fill="none" stroke="black" points="186,-292.5 186,-322.5 299,-322.5 299,-292.5 186,-292.5"/>
<text text-anchor="start" x="194" y="-310.5" font-family="Helvetica,sans-Serif" font-size="10.00">BlackMisc::Network</text>
<text text-anchor="middle" x="242.5" y="-299.5" font-family="Helvetica,sans-Serif" font-size="10.00">::IClientProvider</text>
</a>
</g>
</g>
<!-- Node1&#45;&gt;Node2 -->
<g id="edge1" class="edge">
<title>Node1&#45;&gt;Node2</title>
<path fill="none" stroke="midnightblue" d="M104.03,-270.61C119.26,-274.71 136.37,-279.3 152,-283.5 162.88,-286.42 174.5,-289.54 185.64,-292.53"/>
<polygon fill="midnightblue" stroke="midnightblue" points="104.89,-267.22 94.33,-268 103.08,-273.98 104.89,-267.22"/>
</g>
<!-- Node7 -->
<g id="node7" class="node">
<title>Node7</title>
<g id="a_node7"><a xlink:href="class_black_misc_1_1_network_1_1_i_ecosystem_provider.html" target="_top" xlink:title="Direct threadsafe in memory access to current ecosystem.">
<polygon fill="none" stroke="black" points="183,-470.5 183,-500.5 302,-500.5 302,-470.5 183,-470.5"/>
<text text-anchor="start" x="191" y="-488.5" font-family="Helvetica,sans-Serif" font-size="10.00">BlackMisc::Network</text>
<text text-anchor="middle" x="242.5" y="-477.5" font-family="Helvetica,sans-Serif" font-size="10.00">::IEcosystemProvider</text>
</a>
</g>
</g>
<!-- Node1&#45;&gt;Node7 -->
<g id="edge6" class="edge">
<title>Node1&#45;&gt;Node7</title>
<path fill="none" stroke="midnightblue" d="M65.93,-278.02C78.7,-311.84 108.65,-382.17 152,-428.5 168.36,-445.99 191.19,-460.41 209.69,-470.38"/>
<polygon fill="midnightblue" stroke="midnightblue" points="69.13,-276.57 62.4,-268.39 62.56,-278.99 69.13,-276.57"/>
</g>
<!-- Node10 -->
<g id="node10" class="node">
<title>Node10</title>
<g id="a_node10"><a xlink:href="class_black_misc_1_1_simulation_1_1_i_aircraft_model_set_provider.html" target="_top" xlink:title="Value object encapsulating a list of aircraft models.">
<polygon fill="none" stroke="black" points="169,-388.5 169,-418.5 316,-418.5 316,-388.5 169,-388.5"/>
<text text-anchor="start" x="177" y="-406.5" font-family="Helvetica,sans-Serif" font-size="10.00">BlackMisc::Simulation</text>
<text text-anchor="middle" x="242.5" y="-395.5" font-family="Helvetica,sans-Serif" font-size="10.00">::IAircraftModelSetProvider</text>
</a>
</g>
</g>
<!-- Node1&#45;&gt;Node10 -->
<g id="edge9" class="edge">
<title>Node1&#45;&gt;Node10</title>
<path fill="none" stroke="midnightblue" d="M78.91,-274.36C97.74,-289.35 126.78,-312.46 152,-332.5 176.23,-351.75 204.16,-373.9 222.29,-388.27"/>
<polygon fill="midnightblue" stroke="midnightblue" points="81.04,-271.58 71.03,-268.08 76.68,-277.05 81.04,-271.58"/>
</g>
<!-- Node13 -->
<g id="node13" class="node">
<title>Node13</title>
<g id="a_node13"><a xlink:href="class_black_misc_1_1_simulation_1_1_i_interpolation_setup_provider.html" target="_top" xlink:title="Direct in memory access to interpolation setup, normally implemented by simulator.">
<polygon fill="none" stroke="black" points="164.5,-145.5 164.5,-175.5 320.5,-175.5 320.5,-145.5 164.5,-145.5"/>
<text text-anchor="start" x="172.5" y="-163.5" font-family="Helvetica,sans-Serif" font-size="10.00">BlackMisc::Simulation</text>
<text text-anchor="middle" x="242.5" y="-152.5" font-family="Helvetica,sans-Serif" font-size="10.00">::IInterpolationSetupProvider</text>
</a>
</g>
</g>
<!-- Node1&#45;&gt;Node13 -->
<g id="edge12" class="edge">
<title>Node1&#45;&gt;Node13</title>
<path fill="none" stroke="midnightblue" d="M75.56,-241.76C93.09,-224.96 122.28,-199.49 152,-184.5 158.75,-181.1 166.04,-178.13 173.44,-175.56"/>
<polygon fill="midnightblue" stroke="midnightblue" points="73.07,-239.31 68.37,-248.8 77.97,-244.31 73.07,-239.31"/>
</g>
<!-- Node25 -->
<g id="node25" class="node">
<title>Node25</title>
<g id="a_node25"><a xlink:href="class_black_misc_1_1_simulation_1_1_i_own_aircraft_provider.html" target="_top" xlink:title="Direct threadsafe in memory access to own aircraft.">
<polygon fill="none" stroke="black" points="180,-194.5 180,-224.5 305,-224.5 305,-194.5 180,-194.5"/>
<text text-anchor="start" x="188" y="-212.5" font-family="Helvetica,sans-Serif" font-size="10.00">BlackMisc::Simulation</text>
<text text-anchor="middle" x="242.5" y="-201.5" font-family="Helvetica,sans-Serif" font-size="10.00">::IOwnAircraftProvider</text>
</a>
</g>
</g>
<!-- Node1&#45;&gt;Node25 -->
<g id="edge24" class="edge">
<title>Node1&#45;&gt;Node25</title>
<path fill="none" stroke="midnightblue" d="M104.4,-246.31C128.95,-239.72 159.48,-231.52 185.49,-224.54"/>
<polygon fill="midnightblue" stroke="midnightblue" points="103.37,-242.96 94.62,-248.94 105.19,-249.72 103.37,-242.96"/>
</g>
<!-- Node28 -->
<g id="node28" class="node">
<title>Node28</title>
<g id="a_node28"><a xlink:href="class_black_misc_1_1_simulation_1_1_i_remote_aircraft_provider.html" target="_top" xlink:title="Direct thread safe in memory access to remote aircraft.">
<polygon fill="none" stroke="black" points="172.5,-243.5 172.5,-273.5 312.5,-273.5 312.5,-243.5 172.5,-243.5"/>
<text text-anchor="start" x="180.5" y="-261.5" font-family="Helvetica,sans-Serif" font-size="10.00">BlackMisc::Simulation</text>
<text text-anchor="middle" x="242.5" y="-250.5" font-family="Helvetica,sans-Serif" font-size="10.00">::IRemoteAircraftProvider</text>
</a>
</g>
</g>
<!-- Node1&#45;&gt;Node28 -->
<g id="edge27" class="edge">
<title>Node1&#45;&gt;Node28</title>
<path fill="none" stroke="midnightblue" d="M126.43,-258.5C141.39,-258.5 157.26,-258.5 172.29,-258.5"/>
<polygon fill="midnightblue" stroke="midnightblue" points="126.24,-255 116.24,-258.5 126.24,-262 126.24,-255"/>
</g>
<!-- Node31 -->
<g id="node31" class="node">
<title>Node31</title>
<g id="a_node31"><a xlink:href="class_black_misc_1_1_simulation_1_1_i_simulation_environment_provider.html" target="_top" xlink:title="Direct in memory access to elevation data.">
<polygon fill="none" stroke="black" points="152,-96.5 152,-126.5 333,-126.5 333,-96.5 152,-96.5"/>
<text text-anchor="start" x="160" y="-114.5" font-family="Helvetica,sans-Serif" font-size="10.00">BlackMisc::Simulation</text>
<text text-anchor="middle" x="242.5" y="-103.5" font-family="Helvetica,sans-Serif" font-size="10.00">::ISimulationEnvironmentProvider</text>
</a>
</g>
</g>
<!-- Node1&#45;&gt;Node31 -->
<g id="edge32" class="edge">
<title>Node1&#45;&gt;Node31</title>
<path fill="none" stroke="midnightblue" d="M68.15,-239.53C82.29,-212.29 112.03,-162.42 152,-135.5 157.07,-132.09 162.61,-129.16 168.36,-126.64"/>
<polygon fill="midnightblue" stroke="midnightblue" points="64.88,-238.26 63.51,-248.77 71.13,-241.41 64.88,-238.26"/>
</g>
<!-- Node3 -->
<g id="node3" class="node">
<title>Node3</title>
<g id="a_node3"><a xlink:href="class_black_core_1_1_context_1_1_c_context_network.html" target="_top" xlink:title="Network context implementation.">
<polygon fill="none" stroke="black" points="397,-290.5 397,-320.5 507,-320.5 507,-290.5 397,-290.5"/>
<text text-anchor="start" x="405" y="-308.5" font-family="Helvetica,sans-Serif" font-size="10.00">BlackCore::Context</text>
<text text-anchor="middle" x="452" y="-297.5" font-family="Helvetica,sans-Serif" font-size="10.00">::CContextNetwork</text>
</a>
</g>
</g>
<!-- Node2&#45;&gt;Node3 -->
<g id="edge2" class="edge">
<title>Node2&#45;&gt;Node3</title>
<path fill="none" stroke="midnightblue" d="M309.27,-306.87C337.42,-306.59 369.91,-306.28 396.68,-306.02"/>
<polygon fill="midnightblue" stroke="midnightblue" points="309.07,-303.37 299.11,-306.96 309.14,-310.37 309.07,-303.37"/>
</g>
<!-- Node4 -->
<g id="node4" class="node">
<title>Node4</title>
<g id="a_node4"><a xlink:href="class_black_misc_1_1_network_1_1_c_client_provider.html" target="_top" xlink:title="Direct in memory access to client (network client) data.">
<polygon fill="none" stroke="black" points="395.5,-339.5 395.5,-369.5 508.5,-369.5 508.5,-339.5 395.5,-339.5"/>
<text text-anchor="start" x="403.5" y="-357.5" font-family="Helvetica,sans-Serif" font-size="10.00">BlackMisc::Network</text>
<text text-anchor="middle" x="452" y="-346.5" font-family="Helvetica,sans-Serif" font-size="10.00">::CClientProvider</text>
</a>
</g>
</g>
<!-- Node2&#45;&gt;Node4 -->
<g id="edge3" class="edge">
<title>Node2&#45;&gt;Node4</title>
<path fill="none" stroke="midnightblue" d="M309.1,-322.36C336.8,-328.63 368.7,-335.86 395.24,-341.87"/>
<polygon fill="midnightblue" stroke="midnightblue" points="309.63,-318.89 299.11,-320.1 308.09,-325.72 309.63,-318.89"/>
</g>
<!-- Node5 -->
<g id="node5" class="node">
<title>Node5</title>
<g id="a_node5"><a xlink:href="class_black_core_1_1_c_airspace_monitor.html" target="_top" xlink:title="Keeps track of other entities in the airspace: aircraft, ATC stations, etc. Central instance of data ...">
<polygon fill="none" stroke="black" points="583,-296 583,-315 741,-315 741,-296 583,-296"/>
<text text-anchor="middle" x="662" y="-303" font-family="Helvetica,sans-Serif" font-size="10.00">BlackCore::CAirspaceMonitor</text>
</a>
</g>
</g>
<!-- Node4&#45;&gt;Node5 -->
<g id="edge4" class="edge">
<title>Node4&#45;&gt;Node5</title>
<path fill="none" stroke="midnightblue" d="M518.89,-338.98C552.28,-331.11 591.75,-321.81 620.61,-315.01"/>
<polygon fill="midnightblue" stroke="midnightblue" points="517.67,-335.67 508.74,-341.37 519.28,-342.48 517.67,-335.67"/>
</g>
<!-- Node6 -->
<g id="node6" class="node">
<title>Node6</title>
<g id="a_node6"><a xlink:href="class_black_misc_1_1_network_1_1_c_client_provider_dummy.html" target="_top" xlink:title="Client provider dummy for testing.">
<polygon fill="none" stroke="black" points="593.5,-339.5 593.5,-369.5 730.5,-369.5 730.5,-339.5 593.5,-339.5"/>
<text text-anchor="start" x="601.5" y="-357.5" font-family="Helvetica,sans-Serif" font-size="10.00">BlackMisc::Network</text>
<text text-anchor="middle" x="662" y="-346.5" font-family="Helvetica,sans-Serif" font-size="10.00">::CClientProviderDummy</text>
</a>
</g>
</g>
<!-- Node4&#45;&gt;Node6 -->
<g id="edge5" class="edge">
<title>Node4&#45;&gt;Node6</title>
<path fill="none" stroke="midnightblue" d="M519.03,-354.5C542.7,-354.5 569.42,-354.5 593.23,-354.5"/>
<polygon fill="midnightblue" stroke="midnightblue" points="518.74,-351 508.74,-354.5 518.74,-358 518.74,-351"/>
</g>
<!-- Node8 -->
<g id="node8" class="node">
<title>Node8</title>
<g id="a_node8"><a xlink:href="class_black_core_1_1_c_web_data_services.html" target="_top" xlink:title="Encapsulates reading data from web sources.">
<polygon fill="none" stroke="black" points="370,-514 370,-533 534,-533 534,-514 370,-514"/>
<text text-anchor="middle" x="452" y="-521" font-family="Helvetica,sans-Serif" font-size="10.00">BlackCore::CWebDataServices</text>
</a>
</g>
</g>
<!-- Node7&#45;&gt;Node8 -->
<g id="edge7" class="edge">
<title>Node7&#45;&gt;Node8</title>
<path fill="none" stroke="midnightblue" d="M312.33,-498.11C340.55,-503.27 372.67,-509.15 398.88,-513.96"/>
<polygon fill="midnightblue" stroke="midnightblue" points="312.6,-494.6 302.13,-496.24 311.34,-501.48 312.6,-494.6"/>
</g>
<!-- Node9 -->
<g id="node9" class="node">
<title>Node9</title>
<g id="a_node9"><a xlink:href="class_black_core_1_1_fsd_1_1_c_f_s_d_client.html" target="_top" xlink:title="FSD client Todo: Send (interim) data updates automatically Todo Check &#39;:&#39; in FSD messages....">
<polygon fill="none" stroke="black" points="377.5,-476 377.5,-495 526.5,-495 526.5,-476 377.5,-476"/>
<text text-anchor="middle" x="452" y="-483" font-family="Helvetica,sans-Serif" font-size="10.00">BlackCore::Fsd::CFSDClient</text>
</a>
</g>
</g>
<!-- Node7&#45;&gt;Node9 -->
<g id="edge8" class="edge">
<title>Node7&#45;&gt;Node9</title>
<path fill="none" stroke="midnightblue" d="M312.2,-485.5C333.09,-485.5 356.13,-485.5 377.34,-485.5"/>
<polygon fill="midnightblue" stroke="midnightblue" points="312.13,-482 302.13,-485.5 312.13,-489 312.13,-482"/>
</g>
<!-- Node11 -->
<g id="node11" class="node">
<title>Node11</title>
<g id="a_node11"><a xlink:href="class_black_core_1_1_c_aircraft_matcher.html" target="_top" xlink:title="Matcher for all models.">
<polygon fill="none" stroke="black" points="375,-438 375,-457 529,-457 529,-438 375,-438"/>
<text text-anchor="middle" x="452" y="-445" font-family="Helvetica,sans-Serif" font-size="10.00">BlackCore::CAircraftMatcher</text>
</a>
</g>
</g>
<!-- Node10&#45;&gt;Node11 -->
<g id="edge10" class="edge">
<title>Node10&#45;&gt;Node11</title>
<path fill="none" stroke="midnightblue" d="M324.44,-420.66C352.22,-426.55 382.28,-432.93 406.14,-437.99"/>
<polygon fill="midnightblue" stroke="midnightblue" points="324.84,-417.17 314.33,-418.52 323.39,-424.02 324.84,-417.17"/>
</g>
<!-- Node12 -->
<g id="node12" class="node">
<title>Node12</title>
<g id="a_node12"><a xlink:href="class_black_core_1_1_context_1_1_c_context_simulator.html" target="_top" xlink:title="Network simulator concrete implementation.">
<polygon fill="none" stroke="black" points="394.5,-388.5 394.5,-418.5 509.5,-418.5 509.5,-388.5 394.5,-388.5"/>
<text text-anchor="start" x="402.5" y="-406.5" font-family="Helvetica,sans-Serif" font-size="10.00">BlackCore::Context</text>
<text text-anchor="middle" x="452" y="-395.5" font-family="Helvetica,sans-Serif" font-size="10.00">::CContextSimulator</text>
</a>
</g>
</g>
<!-- Node10&#45;&gt;Node12 -->
<g id="edge11" class="edge">
<title>Node10&#45;&gt;Node12</title>
<path fill="none" stroke="midnightblue" d="M326.14,-403.5C349.07,-403.5 373.43,-403.5 394.49,-403.5"/>
<polygon fill="midnightblue" stroke="midnightblue" points="326.07,-400 316.07,-403.5 326.07,-407 326.07,-400"/>
</g>
<!-- Node14 -->
<g id="node14" class="node">
<title>Node14</title>
<g id="a_node14"><a xlink:href="class_black_core_1_1_i_simulator.html" target="_top" xlink:title="Interface to a simulator.">
<polygon fill="none" stroke="black" points="391,-104 391,-123 513,-123 513,-104 391,-104"/>
<text text-anchor="middle" x="452" y="-111" font-family="Helvetica,sans-Serif" font-size="10.00">BlackCore::ISimulator</text>
</a>
</g>
</g>
<!-- Node13&#45;&gt;Node14 -->
<g id="edge13" class="edge">
<title>Node13&#45;&gt;Node14</title>
<path fill="none" stroke="midnightblue" d="M319.79,-143.22C349.88,-136.4 383.29,-128.84 408.87,-123.04"/>
<polygon fill="midnightblue" stroke="midnightblue" points="318.7,-139.88 309.72,-145.5 320.25,-146.7 318.7,-139.88"/>
</g>
<!-- Node15 -->
<g id="node15" class="node">
<title>Node15</title>
<g id="a_node15"><a xlink:href="class_black_sim_plugin_1_1_common_1_1_c_simulator_plugin_common.html" target="_top" xlink:title="Common base class for simulator plugins.">
<polygon fill="none" stroke="black" points="586.5,-98.5 586.5,-128.5 737.5,-128.5 737.5,-98.5 586.5,-98.5"/>
<text text-anchor="start" x="594.5" y="-116.5" font-family="Helvetica,sans-Serif" font-size="10.00">BlackSimPlugin::Common</text>
<text text-anchor="middle" x="662" y="-105.5" font-family="Helvetica,sans-Serif" font-size="10.00">::CSimulatorPluginCommon</text>
</a>
</g>
</g>
<!-- Node14&#45;&gt;Node15 -->
<g id="edge14" class="edge">
<title>Node14&#45;&gt;Node15</title>
<path fill="none" stroke="midnightblue" d="M523.24,-113.5C543.5,-113.5 565.66,-113.5 586.18,-113.5"/>
<polygon fill="midnightblue" stroke="midnightblue" points="523.16,-110 513.16,-113.5 523.16,-117 523.16,-110"/>
</g>
<!-- Node16 -->
<g id="node16" class="node">
<title>Node16</title>
<g id="a_node16"><a xlink:href="class_black_sim_plugin_1_1_emulated_1_1_c_simulator_emulated.html" target="_top" xlink:title="swift simulator implementation">
<polygon fill="none" stroke="black" points="793.5,-172.5 793.5,-202.5 938.5,-202.5 938.5,-172.5 793.5,-172.5"/>
<text text-anchor="start" x="801.5" y="-190.5" font-family="Helvetica,sans-Serif" font-size="10.00">BlackSimPlugin::Emulated</text>
<text text-anchor="middle" x="866" y="-179.5" font-family="Helvetica,sans-Serif" font-size="10.00">::CSimulatorEmulated</text>
</a>
</g>
</g>
<!-- Node15&#45;&gt;Node16 -->
<g id="edge15" class="edge">
<title>Node15&#45;&gt;Node16</title>
<path fill="none" stroke="midnightblue" d="M709.73,-132.35C733.37,-141.72 762.59,-153.03 789,-162.5 798.28,-165.83 808.26,-169.23 817.84,-172.42"/>
<polygon fill="midnightblue" stroke="midnightblue" points="710.88,-129.05 700.3,-128.6 708.29,-135.55 710.88,-129.05"/>
</g>
<!-- Node17 -->
<g id="node17" class="node">
<title>Node17</title>
<g id="a_node17"><a xlink:href="class_black_sim_plugin_1_1_flightgear_1_1_c_simulator_flightgear.html" target="_top" xlink:title="Flightgear ISimulator implementation.">
<polygon fill="none" stroke="black" points="792,-123.5 792,-153.5 940,-153.5 940,-123.5 792,-123.5"/>
<text text-anchor="start" x="800" y="-141.5" font-family="Helvetica,sans-Serif" font-size="10.00">BlackSimPlugin::Flightgear</text>
<text text-anchor="middle" x="866" y="-130.5" font-family="Helvetica,sans-Serif" font-size="10.00">::CSimulatorFlightgear</text>
</a>
</g>
</g>
<!-- Node15&#45;&gt;Node17 -->
<g id="edge16" class="edge">
<title>Node15&#45;&gt;Node17</title>
<path fill="none" stroke="midnightblue" d="M747.67,-123.98C762.3,-125.79 777.38,-127.66 791.67,-129.42"/>
<polygon fill="midnightblue" stroke="midnightblue" points="748,-120.49 737.64,-122.74 747.14,-127.44 748,-120.49"/>
</g>
<!-- Node18 -->
<g id="node18" class="node">
<title>Node18</title>
<g id="a_node18"><a xlink:href="class_black_sim_plugin_1_1_fs_common_1_1_c_simulator_fs_common.html" target="_top" xlink:title="Common base class for MS flight simulators.">
<polygon fill="none" stroke="black" points="789,-74.5 789,-104.5 943,-104.5 943,-74.5 789,-74.5"/>
<text text-anchor="start" x="797" y="-92.5" font-family="Helvetica,sans-Serif" font-size="10.00">BlackSimPlugin::FsCommon</text>
<text text-anchor="middle" x="866" y="-81.5" font-family="Helvetica,sans-Serif" font-size="10.00">::CSimulatorFsCommon</text>
</a>
</g>
</g>
<!-- Node15&#45;&gt;Node18 -->
<g id="edge17" class="edge">
<title>Node15&#45;&gt;Node18</title>
<path fill="none" stroke="midnightblue" d="M747.96,-103.41C761.57,-101.79 775.59,-100.12 788.98,-98.53"/>
<polygon fill="midnightblue" stroke="midnightblue" points="747.16,-99.98 737.64,-104.63 747.99,-106.93 747.16,-99.98"/>
</g>
<!-- Node24 -->
<g id="node24" class="node">
<title>Node24</title>
<g id="a_node24"><a xlink:href="class_black_sim_plugin_1_1_x_plane_1_1_c_simulator_x_plane.html" target="_top" xlink:title="X&#45;Plane ISimulator implementation.">
<polygon fill="none" stroke="black" points="800,-25.5 800,-55.5 932,-55.5 932,-25.5 800,-25.5"/>
<text text-anchor="start" x="808" y="-43.5" font-family="Helvetica,sans-Serif" font-size="10.00">BlackSimPlugin::XPlane</text>
<text text-anchor="middle" x="866" y="-32.5" font-family="Helvetica,sans-Serif" font-size="10.00">::CSimulatorXPlane</text>
</a>
</g>
</g>
<!-- Node15&#45;&gt;Node24 -->
<g id="edge23" class="edge">
<title>Node15&#45;&gt;Node24</title>
<path fill="none" stroke="midnightblue" d="M709.16,-94.72C732.89,-85.28 762.34,-73.88 789,-64.5 797.61,-61.47 806.84,-58.4 815.79,-55.53"/>
<polygon fill="midnightblue" stroke="midnightblue" points="707.69,-91.54 699.7,-98.5 710.29,-98.04 707.69,-91.54"/>
</g>
<!-- Node19 -->
<g id="node19" class="node">
<title>Node19</title>
<g id="a_node19"><a xlink:href="class_black_sim_plugin_1_1_fs9_1_1_c_simulator_fs9.html" target="_top" xlink:title="FS9 Simulator Implementation.">
<polygon fill="none" stroke="black" points="1001,-98.5 1001,-128.5 1117,-128.5 1117,-98.5 1001,-98.5"/>
<text text-anchor="start" x="1009" y="-116.5" font-family="Helvetica,sans-Serif" font-size="10.00">BlackSimPlugin::Fs9</text>
<text text-anchor="middle" x="1059" y="-105.5" font-family="Helvetica,sans-Serif" font-size="10.00">::CSimulatorFs9</text>
</a>
</g>
</g>
<!-- Node18&#45;&gt;Node19 -->
<g id="edge18" class="edge">
<title>Node18&#45;&gt;Node19</title>
<path fill="none" stroke="midnightblue" d="M953.04,-100.31C969.21,-102.34 985.75,-104.42 1000.77,-106.31"/>
<polygon fill="midnightblue" stroke="midnightblue" points="953.4,-96.83 943.04,-99.05 952.52,-103.77 953.4,-96.83"/>
</g>
<!-- Node20 -->
<g id="node20" class="node">
<title>Node20</title>
<g id="a_node20"><a xlink:href="class_black_sim_plugin_1_1_fsx_common_1_1_c_simulator_fsx_common.html" target="_top" xlink:title="FSX Simulator Implementation.">
<polygon fill="none" stroke="black" points="979,-49.5 979,-79.5 1139,-79.5 1139,-49.5 979,-49.5"/>
<text text-anchor="start" x="987" y="-67.5" font-family="Helvetica,sans-Serif" font-size="10.00">BlackSimPlugin::FsxCommon</text>
<text text-anchor="middle" x="1059" y="-56.5" font-family="Helvetica,sans-Serif" font-size="10.00">::CSimulatorFsxCommon</text>
</a>
</g>
</g>
<!-- Node18&#45;&gt;Node20 -->
<g id="edge19" class="edge">
<title>Node18&#45;&gt;Node20</title>
<path fill="none" stroke="midnightblue" d="M953.04,-78.24C961.61,-77.12 970.28,-75.98 978.78,-74.87"/>
<polygon fill="midnightblue" stroke="midnightblue" points="952.5,-74.78 943.04,-79.55 953.41,-81.72 952.5,-74.78"/>
</g>
<!-- Node21 -->
<g id="node21" class="node">
<title>Node21</title>
<g id="a_node21"><a xlink:href="class_black_sim_plugin_1_1_fsx_1_1_c_simulator_fsx.html" target="_top" xlink:title="FSX simulator implementation.">
<polygon fill="none" stroke="black" points="1178,-98.5 1178,-128.5 1294,-128.5 1294,-98.5 1178,-98.5"/>
<text text-anchor="start" x="1186" y="-116.5" font-family="Helvetica,sans-Serif" font-size="10.00">BlackSimPlugin::Fsx</text>
<text text-anchor="middle" x="1236" y="-105.5" font-family="Helvetica,sans-Serif" font-size="10.00">::CSimulatorFsx</text>
</a>
</g>
</g>
<!-- Node20&#45;&gt;Node21 -->
<g id="edge20" class="edge">
<title>Node20&#45;&gt;Node21</title>
<path fill="none" stroke="midnightblue" d="M1123.65,-82.32C1142.54,-87.61 1163.04,-93.35 1181.24,-98.45"/>
<polygon fill="midnightblue" stroke="midnightblue" points="1124.51,-78.93 1113.93,-79.6 1122.62,-85.67 1124.51,-78.93"/>
</g>
<!-- Node22 -->
<g id="node22" class="node">
<title>Node22</title>
<g id="a_node22"><a xlink:href="class_black_sim_plugin_1_1_msfs_1_1_c_simulator_ms_fs.html" target="_top" xlink:title="FSX simulator implementation.">
<polygon fill="none" stroke="black" points="1175,-49.5 1175,-79.5 1297,-79.5 1297,-49.5 1175,-49.5"/>
<text text-anchor="start" x="1183" y="-67.5" font-family="Helvetica,sans-Serif" font-size="10.00">BlackSimPlugin::Msfs</text>
<text text-anchor="middle" x="1236" y="-56.5" font-family="Helvetica,sans-Serif" font-size="10.00">::CSimulatorMsFs</text>
</a>
</g>
</g>
<!-- Node20&#45;&gt;Node22 -->
<g id="edge21" class="edge">
<title>Node20&#45;&gt;Node22</title>
<path fill="none" stroke="midnightblue" d="M1149.25,-64.5C1157.94,-64.5 1166.61,-64.5 1174.92,-64.5"/>
<polygon fill="midnightblue" stroke="midnightblue" points="1149.05,-61 1139.05,-64.5 1149.05,-68 1149.05,-61"/>
</g>
<!-- Node23 -->
<g id="node23" class="node">
<title>Node23</title>
<g id="a_node23"><a xlink:href="class_black_sim_plugin_1_1_p3_d_1_1_c_simulator_p3_d.html" target="_top" xlink:title="P3D Simulator Implementation.">
<polygon fill="none" stroke="black" points="1177,-0.5 1177,-30.5 1295,-30.5 1295,-0.5 1177,-0.5"/>
<text text-anchor="start" x="1185" y="-18.5" font-family="Helvetica,sans-Serif" font-size="10.00">BlackSimPlugin::P3D</text>
<text text-anchor="middle" x="1236" y="-7.5" font-family="Helvetica,sans-Serif" font-size="10.00">::CSimulatorP3D</text>
</a>
</g>
</g>
<!-- Node20&#45;&gt;Node23 -->
<g id="edge22" class="edge">
<title>Node20&#45;&gt;Node23</title>
<path fill="none" stroke="midnightblue" d="M1123.65,-46.68C1142.54,-41.39 1163.04,-35.65 1181.24,-30.55"/>
<polygon fill="midnightblue" stroke="midnightblue" points="1122.62,-43.33 1113.93,-49.4 1124.51,-50.07 1122.62,-43.33"/>
</g>
<!-- Node26 -->
<g id="node26" class="node">
<title>Node26</title>
<g id="a_node26"><a xlink:href="class_black_core_1_1_context_1_1_c_context_own_aircraft.html" target="_top" xlink:title="Own aircraft context implementation. Central instance of data for.">
<polygon fill="none" stroke="black" points="389.5,-192.5 389.5,-222.5 514.5,-222.5 514.5,-192.5 389.5,-192.5"/>
<text text-anchor="start" x="397.5" y="-210.5" font-family="Helvetica,sans-Serif" font-size="10.00">BlackCore::Context</text>
<text text-anchor="middle" x="452" y="-199.5" font-family="Helvetica,sans-Serif" font-size="10.00">::CContextOwnAircraft</text>
</a>
</g>
</g>
<!-- Node25&#45;&gt;Node26 -->
<g id="edge25" class="edge">
<title>Node25&#45;&gt;Node26</title>
<path fill="none" stroke="midnightblue" d="M315.33,-208.81C339.38,-208.58 365.97,-208.32 389.18,-208.1"/>
<polygon fill="midnightblue" stroke="midnightblue" points="315.16,-205.31 305.2,-208.91 315.23,-212.31 315.16,-205.31"/>
</g>
<!-- Node27 -->
<g id="node27" class="node">
<title>Node27</title>
<g id="a_node27"><a xlink:href="class_black_misc_1_1_simulation_1_1_c_own_aircraft_provider_dummy.html" target="_top" xlink:title="For testing.">
<polygon fill="none" stroke="black" points="369,-143.5 369,-173.5 535,-173.5 535,-143.5 369,-143.5"/>
<text text-anchor="start" x="377" y="-161.5" font-family="Helvetica,sans-Serif" font-size="10.00">BlackMisc::Simulation</text>
<text text-anchor="middle" x="452" y="-150.5" font-family="Helvetica,sans-Serif" font-size="10.00">::COwnAircraftProviderDummy</text>
</a>
</g>
</g>
<!-- Node25&#45;&gt;Node27 -->
<g id="edge26" class="edge">
<title>Node25&#45;&gt;Node27</title>
<path fill="none" stroke="midnightblue" d="M314.59,-192.03C339.1,-186 366.31,-179.32 389.94,-173.51"/>
<polygon fill="midnightblue" stroke="midnightblue" points="313.51,-188.69 304.63,-194.47 315.18,-195.49 313.51,-188.69"/>
</g>
<!-- Node28&#45;&gt;Node3 -->
<g id="edge28" class="edge">
<title>Node28&#45;&gt;Node3</title>
<path fill="none" stroke="midnightblue" d="M319.77,-275.77C345.34,-281.57 373.31,-287.9 396.84,-293.23"/>
<polygon fill="midnightblue" stroke="midnightblue" points="320.25,-272.3 309.72,-273.5 318.7,-279.12 320.25,-272.3"/>
</g>
<!-- Node29 -->
<g id="node29" class="node">
<title>Node29</title>
<g id="a_node29"><a xlink:href="class_black_misc_1_1_simulation_1_1_c_remote_aircraft_provider.html" target="_top" xlink:title="Implementaion of the interface, which can also be used for testing.">
<polygon fill="none" stroke="black" points="380.5,-241.5 380.5,-271.5 523.5,-271.5 523.5,-241.5 380.5,-241.5"/>
<text text-anchor="start" x="388.5" y="-259.5" font-family="Helvetica,sans-Serif" font-size="10.00">BlackMisc::Simulation</text>
<text text-anchor="middle" x="452" y="-248.5" font-family="Helvetica,sans-Serif" font-size="10.00">::CRemoteAircraftProvider</text>
</a>
</g>
</g>
<!-- Node28&#45;&gt;Node29 -->
<g id="edge29" class="edge">
<title>Node28&#45;&gt;Node29</title>
<path fill="none" stroke="midnightblue" d="M322.71,-257.74C341.7,-257.55 361.86,-257.36 380.44,-257.18"/>
<polygon fill="midnightblue" stroke="midnightblue" points="322.56,-254.24 312.59,-257.83 322.63,-261.24 322.56,-254.24"/>
</g>
<!-- Node29&#45;&gt;Node5 -->
<g id="edge30" class="edge">
<title>Node29&#45;&gt;Node5</title>
<path fill="none" stroke="midnightblue" d="M526.9,-273.91C558.42,-281.33 593.98,-289.71 620.55,-295.97"/>
<polygon fill="midnightblue" stroke="midnightblue" points="527.36,-270.42 516.82,-271.53 525.75,-277.23 527.36,-270.42"/>
</g>
<!-- Node30 -->
<g id="node30" class="node">
<title>Node30</title>
<g id="a_node30"><a xlink:href="class_black_misc_1_1_simulation_1_1_c_remote_aircraft_provider_dummy.html" target="_top" xlink:title="Dummy implementation for testing purpose.">
<polygon fill="none" stroke="black" points="571,-241.5 571,-271.5 753,-271.5 753,-241.5 571,-241.5"/>
<text text-anchor="start" x="579" y="-259.5" font-family="Helvetica,sans-Serif" font-size="10.00">BlackMisc::Simulation</text>
<text text-anchor="middle" x="662" y="-248.5" font-family="Helvetica,sans-Serif" font-size="10.00">::CRemoteAircraftProviderDummy</text>
</a>
</g>
</g>
<!-- Node29&#45;&gt;Node30 -->
<g id="edge31" class="edge">
<title>Node29&#45;&gt;Node30</title>
<path fill="none" stroke="midnightblue" d="M533.82,-256.5C545.99,-256.5 558.61,-256.5 570.97,-256.5"/>
<polygon fill="midnightblue" stroke="midnightblue" points="533.71,-253 523.71,-256.5 533.71,-260 533.71,-253"/>
</g>
<!-- Node31&#45;&gt;Node14 -->
<g id="edge33" class="edge">
<title>Node31&#45;&gt;Node14</title>
<path fill="none" stroke="midnightblue" d="M343.12,-112.46C359.41,-112.62 375.84,-112.78 390.8,-112.92"/>
<polygon fill="midnightblue" stroke="midnightblue" points="343.04,-108.96 333,-112.36 342.97,-115.96 343.04,-108.96"/>
</g>
</g>
</svg>
