<?xml version="1.0" encoding="UTF-8" standalone="no"?>
<!DOCTYPE svg PUBLIC "-//W3C//DTD SVG 1.1//EN"
 "http://www.w3.org/Graphics/SVG/1.1/DTD/svg11.dtd">
<!-- Generated by graphviz version 2.43.0 (0)
 -->
<!-- Title: BlackGui::Components::CInfoBarWebReadersStatusBase Pages: 1 -->
<svg width="740pt" height="100pt"
 viewBox="0.00 0.00 740.00 99.50" xmlns="http://www.w3.org/2000/svg" xmlns:xlink="http://www.w3.org/1999/xlink">
<g id="graph0" class="graph" transform="scale(1 1) rotate(0) translate(4 95.5)">
<title>BlackGui::Components::CInfoBarWebReadersStatusBase</title>
<!-- Node1 -->
<g id="node1" class="node">
<title>Node1</title>
<g id="a_node1"><a xlink:title="Info bar displaying status of web readers(swift DB, ...)">
<polygon fill="#bfbfbf" stroke="black" points="304,-33 304,-63 484,-63 484,-33 304,-33"/>
<text text-anchor="start" x="312" y="-51" font-family="Helvetica,sans-Serif" font-size="10.00">BlackGui::Components</text>
<text text-anchor="middle" x="394" y="-40" font-family="Helvetica,sans-Serif" font-size="10.00">::CInfoBarWebReadersStatusBase</text>
</a>
</g>
</g>
<!-- Node6 -->
<g id="node6" class="node">
<title>Node6</title>
<g id="a_node6"><a xlink:href="class_black_gui_1_1_components_1_1_c_info_bar_web_readers_status_component.html" target="_top" xlink:title="Info bar displaying status of web readers(swift DB, ...)">
<polygon fill="none" stroke="black" points="520,-61 520,-91 732,-91 732,-61 520,-61"/>
<text text-anchor="start" x="528" y="-79" font-family="Helvetica,sans-Serif" font-size="10.00">BlackGui::Components</text>
<text text-anchor="middle" x="626" y="-68" font-family="Helvetica,sans-Serif" font-size="10.00">::CInfoBarWebReadersStatusComponent</text>
</a>
</g>
</g>
<!-- Node1&#45;&gt;Node6 -->
<g id="edge5" class="edge">
<title>Node1&#45;&gt;Node6</title>
<path fill="none" stroke="midnightblue" d="M494.41,-60.1C502.79,-61.12 511.28,-62.16 519.7,-63.18"/>
<polygon fill="midnightblue" stroke="midnightblue" points="494.6,-56.6 484.25,-58.87 493.76,-63.55 494.6,-56.6"/>
</g>
<!-- Node7 -->
<g id="node7" class="node">
<title>Node7</title>
<g id="a_node7"><a xlink:href="class_black_gui_1_1_components_1_1_c_info_bar_web_readers_status_small_component.html" target="_top" xlink:title="Smaller version of CInfoBarWebReadersStatusComponent.">
<polygon fill="none" stroke="black" points="534,-0.5 534,-41.5 718,-41.5 718,-0.5 534,-0.5"/>
<text text-anchor="start" x="542" y="-29.5" font-family="Helvetica,sans-Serif" font-size="10.00">BlackGui::Components</text>
<text text-anchor="start" x="542" y="-18.5" font-family="Helvetica,sans-Serif" font-size="10.00">::CInfoBarWebReadersStatusSmall</text>
<text text-anchor="middle" x="626" y="-7.5" font-family="Helvetica,sans-Serif" font-size="10.00">Component</text>
</a>
</g>
</g>
<!-- Node1&#45;&gt;Node7 -->
<g id="edge6" class="edge">
<title>Node1&#45;&gt;Node7</title>
<path fill="none" stroke="midnightblue" d="M494.26,-36.35C507.43,-34.8 520.88,-33.22 533.9,-31.69"/>
<polygon fill="midnightblue" stroke="midnightblue" points="493.78,-32.88 484.25,-37.52 494.59,-39.83 493.78,-32.88"/>
</g>
<!-- Node2 -->
<g id="node2" class="node">
<title>Node2</title>
<g id="a_node2"><a target="_parent" xlink:href="http://doc.qt.io/qt-5/qframe.html" xlink:title=" ">
<polygon fill="none" stroke="black" points="213,-38.5 213,-57.5 268,-57.5 268,-38.5 213,-38.5"/>
<text text-anchor="middle" x="240.5" y="-45.5" font-family="Helvetica,sans-Serif" font-size="10.00">QFrame</text>
</a>
</g>
</g>
<!-- Node2&#45;&gt;Node1 -->
<g id="edge1" class="edge">
<title>Node2&#45;&gt;Node1</title>
<path fill="none" stroke="midnightblue" d="M278.44,-48C286.31,-48 294.94,-48 303.83,-48"/>
<polygon fill="midnightblue" stroke="midnightblue" points="278.24,-44.5 268.24,-48 278.24,-51.5 278.24,-44.5"/>
</g>
<!-- Node3 -->
<g id="node3" class="node">
<title>Node3</title>
<g id="a_node3"><a target="_parent" xlink:href="http://doc.qt.io/qt-5/qwidget.html" xlink:title=" ">
<polygon fill="none" stroke="black" points="118,-38.5 118,-57.5 177,-57.5 177,-38.5 118,-38.5"/>
<text text-anchor="middle" x="147.5" y="-45.5" font-family="Helvetica,sans-Serif" font-size="10.00">QWidget</text>
</a>
</g>
</g>
<!-- Node3&#45;&gt;Node2 -->
<g id="edge2" class="edge">
<title>Node3&#45;&gt;Node2</title>
<path fill="none" stroke="midnightblue" d="M187.46,-48C195.99,-48 204.83,-48 212.75,-48"/>
<polygon fill="midnightblue" stroke="midnightblue" points="187.29,-44.5 177.29,-48 187.29,-51.5 187.29,-44.5"/>
</g>
<!-- Node4 -->
<g id="node4" class="node">
<title>Node4</title>
<g id="a_node4"><a target="_parent" xlink:href="http://doc.qt.io/qt-5/qobject.html" xlink:title=" ">
<polygon fill="none" stroke="black" points="13,-57.5 13,-76.5 69,-76.5 69,-57.5 13,-57.5"/>
<text text-anchor="middle" x="41" y="-64.5" font-family="Helvetica,sans-Serif" font-size="10.00">QObject</text>
</a>
</g>
</g>
<!-- Node4&#45;&gt;Node3 -->
<g id="edge3" class="edge">
<title>Node4&#45;&gt;Node3</title>
<path fill="none" stroke="midnightblue" d="M79.09,-60.26C91.88,-57.93 106,-55.36 117.99,-53.18"/>
<polygon fill="midnightblue" stroke="midnightblue" points="78.4,-56.83 69.18,-62.06 79.65,-63.71 78.4,-56.83"/>
</g>
<!-- Node5 -->
<g id="node5" class="node">
<title>Node5</title>
<g id="a_node5"><a target="_parent" xlink:href="http://doc.qt.io/qt-5/qpaintdevice.html" xlink:title=" ">
<polygon fill="none" stroke="black" points="0,-19.5 0,-38.5 82,-38.5 82,-19.5 0,-19.5"/>
<text text-anchor="middle" x="41" y="-26.5" font-family="Helvetica,sans-Serif" font-size="10.00">QPaintDevice</text>
</a>
</g>
</g>
<!-- Node5&#45;&gt;Node3 -->
<g id="edge4" class="edge">
<title>Node5&#45;&gt;Node3</title>
<path fill="none" stroke="midnightblue" d="M91.97,-38.09C100.8,-39.69 109.71,-41.31 117.69,-42.76"/>
<polygon fill="midnightblue" stroke="midnightblue" points="92.57,-34.64 82.1,-36.29 91.32,-41.52 92.57,-34.64"/>
</g>
</g>
</svg>
