<?xml version="1.0" encoding="UTF-8" standalone="no"?>
<!DOCTYPE svg PUBLIC "-//W3C//DTD SVG 1.1//EN"
 "http://www.w3.org/Graphics/SVG/1.1/DTD/svg11.dtd">
<!-- Generated by graphviz version 2.43.0 (0)
 -->
<!-- Title: BlackInput::IKeyboard Pages: 1 -->
<svg width="529pt" height="140pt"
 viewBox="0.00 0.00 529.00 140.00" xmlns="http://www.w3.org/2000/svg" xmlns:xlink="http://www.w3.org/1999/xlink">
<g id="graph0" class="graph" transform="scale(1 1) rotate(0) translate(4 136)">
<title>BlackInput::IKeyboard</title>
<!-- Node1 -->
<g id="node1" class="node">
<title>Node1</title>
<g id="a_node1"><a xlink:title="Abstract interface for native keyboard handling.">
<polygon fill="#bfbfbf" stroke="black" points="190,-56.5 190,-75.5 313,-75.5 313,-56.5 190,-56.5"/>
<text text-anchor="middle" x="251.5" y="-63.5" font-family="Helvetica,sans-Serif" font-size="10.00">BlackInput::IKeyboard</text>
</a>
</g>
</g>
<!-- Node3 -->
<g id="node3" class="node">
<title>Node3</title>
<g id="a_node3"><a xlink:href="class_black_input_1_1_c_keyboard_linux.html" target="_top" xlink:title="Linux implemenation of IKeyboard using hook procedure.">
<polygon fill="none" stroke="black" points="0,-0.5 0,-19.5 153,-19.5 153,-0.5 0,-0.5"/>
<text text-anchor="middle" x="76.5" y="-7.5" font-family="Helvetica,sans-Serif" font-size="10.00">BlackInput::CKeyboardLinux</text>
</a>
</g>
</g>
<!-- Node1&#45;&gt;Node3 -->
<g id="edge2" class="edge">
<title>Node1&#45;&gt;Node3</title>
<path fill="none" stroke="midnightblue" d="M214.03,-53.44C181.03,-43.26 133.74,-28.66 104.1,-19.52"/>
<polygon fill="midnightblue" stroke="midnightblue" points="213.18,-56.84 223.77,-56.44 215.25,-50.15 213.18,-56.84"/>
</g>
<!-- Node4 -->
<g id="node4" class="node">
<title>Node4</title>
<g id="a_node4"><a xlink:href="class_black_input_1_1_c_keyboard_mac_o_s.html" target="_top" xlink:title="MacOS implemenation of IKeyboard using hook procedure.">
<polygon fill="none" stroke="black" points="171,-0.5 171,-19.5 332,-19.5 332,-0.5 171,-0.5"/>
<text text-anchor="middle" x="251.5" y="-7.5" font-family="Helvetica,sans-Serif" font-size="10.00">BlackInput::CKeyboardMacOS</text>
</a>
</g>
</g>
<!-- Node1&#45;&gt;Node4 -->
<g id="edge3" class="edge">
<title>Node1&#45;&gt;Node4</title>
<path fill="none" stroke="midnightblue" d="M251.5,-45.8C251.5,-36.91 251.5,-26.78 251.5,-19.75"/>
<polygon fill="midnightblue" stroke="midnightblue" points="248,-46.08 251.5,-56.08 255,-46.08 248,-46.08"/>
</g>
<!-- Node5 -->
<g id="node5" class="node">
<title>Node5</title>
<g id="a_node5"><a xlink:href="class_black_input_1_1_c_keyboard_windows.html" target="_top" xlink:title="Windows implemenation of IKeyboard using hook procedure.">
<polygon fill="none" stroke="black" points="350,-0.5 350,-19.5 521,-19.5 521,-0.5 350,-0.5"/>
<text text-anchor="middle" x="435.5" y="-7.5" font-family="Helvetica,sans-Serif" font-size="10.00">BlackInput::CKeyboardWindows</text>
</a>
</g>
</g>
<!-- Node1&#45;&gt;Node5 -->
<g id="edge4" class="edge">
<title>Node1&#45;&gt;Node5</title>
<path fill="none" stroke="midnightblue" d="M290.45,-53.57C325.16,-43.38 375.18,-28.7 406.48,-19.52"/>
<polygon fill="midnightblue" stroke="midnightblue" points="289.27,-50.27 280.66,-56.44 291.24,-56.99 289.27,-50.27"/>
</g>
<!-- Node2 -->
<g id="node2" class="node">
<title>Node2</title>
<g id="a_node2"><a target="_parent" xlink:href="http://doc.qt.io/qt-5/qobject.html" xlink:title=" ">
<polygon fill="none" stroke="black" points="223.5,-112.5 223.5,-131.5 279.5,-131.5 279.5,-112.5 223.5,-112.5"/>
<text text-anchor="middle" x="251.5" y="-119.5" font-family="Helvetica,sans-Serif" font-size="10.00">QObject</text>
</a>
</g>
</g>
<!-- Node2&#45;&gt;Node1 -->
<g id="edge1" class="edge">
<title>Node2&#45;&gt;Node1</title>
<path fill="none" stroke="midnightblue" d="M251.5,-101.8C251.5,-92.91 251.5,-82.78 251.5,-75.75"/>
<polygon fill="midnightblue" stroke="midnightblue" points="248,-102.08 251.5,-112.08 255,-102.08 248,-102.08"/>
</g>
</g>
</svg>
