<?xml version="1.0" encoding="UTF-8" standalone="no"?>
<!DOCTYPE svg PUBLIC "-//W3C//DTD SVG 1.1//EN"
 "http://www.w3.org/Graphics/SVG/1.1/DTD/svg11.dtd">
<!-- Generated by graphviz version 2.43.0 (0)
 -->
<!-- Title: BlackMisc::Simulation::Data::CCentralMultiSimulatorModelSetCachesAware Pages: 1 -->
<svg width="586pt" height="88pt"
 viewBox="0.00 0.00 586.00 88.00" xmlns="http://www.w3.org/2000/svg" xmlns:xlink="http://www.w3.org/1999/xlink">
<g id="graph0" class="graph" transform="scale(1 1) rotate(0) translate(4 84)">
<title>BlackMisc::Simulation::Data::CCentralMultiSimulatorModelSetCachesAware</title>
<!-- Node1 -->
<g id="node1" class="node">
<title>Node1</title>
<g id="a_node1"><a xlink:title="Basically a QObject free (delegate based) version of CCentralMultiSimulatorModelSetCachesProvider.">
<polygon fill="#bfbfbf" stroke="black" points="209,-19 209,-60 375,-60 375,-19 209,-19"/>
<text text-anchor="start" x="217" y="-48" font-family="Helvetica,sans-Serif" font-size="10.00">BlackMisc::Simulation</text>
<text text-anchor="start" x="217" y="-37" font-family="Helvetica,sans-Serif" font-size="10.00">::Data::CCentralMultiSimulator</text>
<text text-anchor="middle" x="292" y="-26" font-family="Helvetica,sans-Serif" font-size="10.00">ModelSetCachesAware</text>
</a>
</g>
</g>
<!-- Node4 -->
<g id="node4" class="node">
<title>Node4</title>
<g id="a_node4"><a xlink:href="class_black_gui_1_1_components_1_1_c_db_own_model_set_component.html" target="_top" xlink:title="Handling of the own model set.">
<polygon fill="none" stroke="black" points="411,-46.5 411,-76.5 578,-76.5 578,-46.5 411,-46.5"/>
<text text-anchor="start" x="419" y="-64.5" font-family="Helvetica,sans-Serif" font-size="10.00">BlackGui::Components</text>
<text text-anchor="middle" x="494.5" y="-53.5" font-family="Helvetica,sans-Serif" font-size="10.00">::CDbOwnModelSetComponent</text>
</a>
</g>
</g>
<!-- Node1&#45;&gt;Node4 -->
<g id="edge3" class="edge">
<title>Node1&#45;&gt;Node4</title>
<path fill="none" stroke="midnightblue" d="M385.14,-49.61C393.72,-50.55 402.37,-51.5 410.85,-52.43"/>
<polygon fill="midnightblue" stroke="midnightblue" points="385.45,-46.12 375.13,-48.51 384.69,-53.08 385.45,-46.12"/>
</g>
<!-- Node5 -->
<g id="node5" class="node">
<title>Node5</title>
<g id="a_node5"><a xlink:href="class_c_swift_launcher.html" target="_top" xlink:title="swift launcher tool">
<polygon fill="none" stroke="black" points="448.5,-8 448.5,-27 540.5,-27 540.5,-8 448.5,-8"/>
<text text-anchor="middle" x="494.5" y="-15" font-family="Helvetica,sans-Serif" font-size="10.00">CSwiftLauncher</text>
</a>
</g>
</g>
<!-- Node1&#45;&gt;Node5 -->
<g id="edge4" class="edge">
<title>Node1&#45;&gt;Node5</title>
<path fill="none" stroke="midnightblue" d="M385.15,-29.39C407.07,-26.98 429.51,-24.52 448.25,-22.47"/>
<polygon fill="midnightblue" stroke="midnightblue" points="384.69,-25.92 375.13,-30.49 385.45,-32.88 384.69,-25.92"/>
</g>
<!-- Node2 -->
<g id="node2" class="node">
<title>Node2</title>
<g id="a_node2"><a xlink:href="class_black_misc_1_1_simulation_1_1_i_models_for_simulator_setable.html" target="_top" xlink:title="Interface to &quot;something&quot; backing models, which can be set.">
<polygon fill="none" stroke="black" points="6.5,-49.5 6.5,-79.5 166.5,-79.5 166.5,-49.5 6.5,-49.5"/>
<text text-anchor="start" x="14.5" y="-67.5" font-family="Helvetica,sans-Serif" font-size="10.00">BlackMisc::Simulation</text>
<text text-anchor="middle" x="86.5" y="-56.5" font-family="Helvetica,sans-Serif" font-size="10.00">::IModelsForSimulatorSetable</text>
</a>
</g>
</g>
<!-- Node2&#45;&gt;Node1 -->
<g id="edge1" class="edge">
<title>Node2&#45;&gt;Node1</title>
<path fill="none" stroke="midnightblue" d="M176.9,-53.52C187.56,-52.21 198.39,-50.88 208.93,-49.58"/>
<polygon fill="midnightblue" stroke="midnightblue" points="176.26,-50.07 166.76,-54.76 177.11,-57.02 176.26,-50.07"/>
</g>
<!-- Node3 -->
<g id="node3" class="node">
<title>Node3</title>
<g id="a_node3"><a xlink:href="class_black_misc_1_1_simulation_1_1_i_models_for_simulator_updatable.html" target="_top" xlink:title="Interface to &quot;something&quot; backing models, which can be modified (updated)">
<polygon fill="none" stroke="black" points="0,-0.5 0,-30.5 173,-30.5 173,-0.5 0,-0.5"/>
<text text-anchor="start" x="8" y="-18.5" font-family="Helvetica,sans-Serif" font-size="10.00">BlackMisc::Simulation</text>
<text text-anchor="middle" x="86.5" y="-7.5" font-family="Helvetica,sans-Serif" font-size="10.00">::IModelsForSimulatorUpdatable</text>
</a>
</g>
</g>
<!-- Node3&#45;&gt;Node1 -->
<g id="edge2" class="edge">
<title>Node3&#45;&gt;Node1</title>
<path fill="none" stroke="midnightblue" d="M183.26,-26.79C191.85,-27.81 200.5,-28.83 208.96,-29.82"/>
<polygon fill="midnightblue" stroke="midnightblue" points="183.55,-23.3 173.21,-25.61 182.73,-30.26 183.55,-23.3"/>
</g>
</g>
</svg>
