<?xml version="1.0" encoding="UTF-8" standalone="no"?>
<!DOCTYPE svg PUBLIC "-//W3C//DTD SVG 1.1//EN"
 "http://www.w3.org/Graphics/SVG/1.1/DTD/svg11.dtd">
<!-- Generated by graphviz version 2.43.0 (0)
 -->
<!-- Title: BlackMisc::Mixin::JsonOperators&lt; Derived &gt; Pages: 1 -->
<svg width="771pt" height="1502pt"
 viewBox="0.00 0.00 771.00 1502.00" xmlns="http://www.w3.org/2000/svg" xmlns:xlink="http://www.w3.org/1999/xlink">
<g id="graph0" class="graph" transform="scale(1 1) rotate(0) translate(4 1498)">
<title>BlackMisc::Mixin::JsonOperators&lt; Derived &gt;</title>
<!-- Node1 -->
<g id="node1" class="node">
<title>Node1</title>
<g id="a_node1"><a xlink:title="CRTP class template which will generate marshalling operators for a derived class with its own marsha...">
<polygon fill="#bfbfbf" stroke="black" points="0,-943.5 0,-973.5 173,-973.5 173,-943.5 0,-943.5"/>
<text text-anchor="start" x="8" y="-961.5" font-family="Helvetica,sans-Serif" font-size="10.00">BlackMisc::Mixin::JsonOperators</text>
<text text-anchor="middle" x="86.5" y="-950.5" font-family="Helvetica,sans-Serif" font-size="10.00">&lt; Derived &gt;</text>
</a>
</g>
</g>
<!-- Node2 -->
<g id="node2" class="node">
<title>Node2</title>
<g id="a_node2"><a xlink:href="class_black_misc_1_1_c_container_base.html" target="_top" xlink:title=" ">
<polygon fill="none" stroke="black" points="235.5,-1463.5 235.5,-1493.5 385.5,-1493.5 385.5,-1463.5 235.5,-1463.5"/>
<text text-anchor="start" x="243.5" y="-1481.5" font-family="Helvetica,sans-Serif" font-size="10.00">BlackMisc::CContainerBase</text>
<text text-anchor="middle" x="310.5" y="-1470.5" font-family="Helvetica,sans-Serif" font-size="10.00">&lt; CCollection&lt; T &gt; &gt;</text>
</a>
</g>
</g>
<!-- Node1&#45;&gt;Node2 -->
<g id="edge1" class="edge">
<title>Node1&#45;&gt;Node2</title>
<path fill="none" stroke="midnightblue" d="M90.26,-983.98C100.68,-1075.59 140.58,-1386.48 209,-1454.5 216.38,-1461.84 225.57,-1467.08 235.38,-1470.8"/>
<polygon fill="midnightblue" stroke="midnightblue" points="93.72,-983.47 89.13,-973.92 86.77,-984.25 93.72,-983.47"/>
</g>
<!-- Node4 -->
<g id="node4" class="node">
<title>Node4</title>
<g id="a_node4"><a xlink:href="class_black_misc_1_1_c_container_base.html" target="_top" xlink:title=" ">
<polygon fill="none" stroke="black" points="235.5,-1414.5 235.5,-1444.5 385.5,-1444.5 385.5,-1414.5 235.5,-1414.5"/>
<text text-anchor="start" x="243.5" y="-1432.5" font-family="Helvetica,sans-Serif" font-size="10.00">BlackMisc::CContainerBase</text>
<text text-anchor="middle" x="310.5" y="-1421.5" font-family="Helvetica,sans-Serif" font-size="10.00">&lt; CSequence&lt; T &gt; &gt;</text>
</a>
</g>
</g>
<!-- Node1&#45;&gt;Node4 -->
<g id="edge3" class="edge">
<title>Node1&#45;&gt;Node4</title>
<path fill="none" stroke="midnightblue" d="M90.98,-983.93C103.2,-1069.53 146.77,-1345.17 209,-1405.5 216.41,-1412.68 225.55,-1417.84 235.29,-1421.54"/>
<polygon fill="midnightblue" stroke="midnightblue" points="94.41,-983.22 89.56,-973.81 87.48,-984.2 94.41,-983.22"/>
</g>
<!-- Node6 -->
<g id="node6" class="node">
<title>Node6</title>
<g id="a_node6"><a xlink:href="class_black_misc_1_1_c_dictionary.html" target="_top" xlink:title=" ">
<polygon fill="none" stroke="black" points="232,-1365.5 232,-1395.5 389,-1395.5 389,-1365.5 232,-1365.5"/>
<text text-anchor="start" x="240" y="-1383.5" font-family="Helvetica,sans-Serif" font-size="10.00">BlackMisc::CDictionary</text>
<text text-anchor="middle" x="310.5" y="-1372.5" font-family="Helvetica,sans-Serif" font-size="10.00">&lt; QString, CVariant, QMap &gt;</text>
</a>
</g>
</g>
<!-- Node1&#45;&gt;Node6 -->
<g id="edge5" class="edge">
<title>Node1&#45;&gt;Node6</title>
<path fill="none" stroke="midnightblue" d="M87.16,-984.01C87.69,-1054.49 99.32,-1253.41 209,-1356.5 215.6,-1362.7 223.51,-1367.39 231.95,-1370.93"/>
<polygon fill="midnightblue" stroke="midnightblue" points="90.66,-983.84 87.16,-973.84 83.66,-983.84 90.66,-983.84"/>
</g>
<!-- Node8 -->
<g id="node8" class="node">
<title>Node8</title>
<g id="a_node8"><a xlink:href="class_black_misc_1_1_c_dictionary.html" target="_top" xlink:title=" ">
<polygon fill="none" stroke="black" points="246,-1316.5 246,-1346.5 375,-1346.5 375,-1316.5 246,-1316.5"/>
<text text-anchor="start" x="254" y="-1334.5" font-family="Helvetica,sans-Serif" font-size="10.00">BlackMisc::CDictionary</text>
<text text-anchor="middle" x="310.5" y="-1323.5" font-family="Helvetica,sans-Serif" font-size="10.00">&lt; T, int, QMap &gt;</text>
</a>
</g>
</g>
<!-- Node1&#45;&gt;Node8 -->
<g id="edge7" class="edge">
<title>Node1&#45;&gt;Node8</title>
<path fill="none" stroke="midnightblue" d="M88.42,-983.91C92.19,-1048.34 111.38,-1219.24 209,-1307.5 219.25,-1316.76 232.42,-1322.63 245.83,-1326.29"/>
<polygon fill="midnightblue" stroke="midnightblue" points="91.91,-983.64 87.91,-973.83 84.92,-984 91.91,-983.64"/>
</g>
<!-- Node9 -->
<g id="node9" class="node">
<title>Node9</title>
<g id="a_node9"><a xlink:href="class_black_misc_1_1_c_dictionary.html" target="_top" xlink:title=" ">
<polygon fill="none" stroke="black" points="234.5,-1267.5 234.5,-1297.5 386.5,-1297.5 386.5,-1267.5 234.5,-1267.5"/>
<text text-anchor="start" x="242.5" y="-1285.5" font-family="Helvetica,sans-Serif" font-size="10.00">BlackMisc::CDictionary</text>
<text text-anchor="middle" x="310.5" y="-1274.5" font-family="Helvetica,sans-Serif" font-size="10.00">&lt; QString, QString, QMap &gt;</text>
</a>
</g>
</g>
<!-- Node1&#45;&gt;Node9 -->
<g id="edge8" class="edge">
<title>Node1&#45;&gt;Node9</title>
<path fill="none" stroke="midnightblue" d="M90.13,-983.72C97.52,-1041.41 123.89,-1183.7 209,-1257.5 216.4,-1263.92 225.21,-1268.74 234.49,-1272.35"/>
<polygon fill="midnightblue" stroke="midnightblue" points="93.59,-983.17 88.92,-973.66 86.64,-984.01 93.59,-983.17"/>
</g>
<!-- Node10 -->
<g id="node10" class="node">
<title>Node10</title>
<g id="a_node10"><a xlink:href="class_black_misc_1_1_c_dictionary.html" target="_top" xlink:title=" ">
<polygon fill="none" stroke="black" points="233,-1207 233,-1248 388,-1248 388,-1207 233,-1207"/>
<text text-anchor="start" x="241" y="-1236" font-family="Helvetica,sans-Serif" font-size="10.00">BlackMisc::CDictionary</text>
<text text-anchor="start" x="241" y="-1225" font-family="Helvetica,sans-Serif" font-size="10.00">&lt; QString, std::pair&lt;</text>
<text text-anchor="middle" x="310.5" y="-1214" font-family="Helvetica,sans-Serif" font-size="10.00"> CVariant, qint64 &gt;, QMap &gt;</text>
</a>
</g>
</g>
<!-- Node1&#45;&gt;Node10 -->
<g id="edge9" class="edge">
<title>Node1&#45;&gt;Node10</title>
<path fill="none" stroke="midnightblue" d="M93.26,-983.71C105.69,-1032.4 139.72,-1139.7 209,-1197.5 216.06,-1203.39 224.25,-1208.12 232.84,-1211.93"/>
<polygon fill="midnightblue" stroke="midnightblue" points="96.59,-982.59 90.8,-973.71 89.79,-984.26 96.59,-982.59"/>
</g>
<!-- Node12 -->
<g id="node12" class="node">
<title>Node12</title>
<g id="a_node12"><a xlink:href="class_black_misc_1_1_mixin_1_1_json_by_meta_class.html" target="_top" xlink:title=" ">
<polygon fill="none" stroke="black" points="241.5,-888.5 241.5,-918.5 379.5,-918.5 379.5,-888.5 241.5,-888.5"/>
<text text-anchor="start" x="249.5" y="-906.5" font-family="Helvetica,sans-Serif" font-size="10.00">BlackMisc::Mixin::JsonBy</text>
<text text-anchor="middle" x="310.5" y="-895.5" font-family="Helvetica,sans-Serif" font-size="10.00">MetaClass&lt; CAltitude &gt;</text>
</a>
</g>
</g>
<!-- Node1&#45;&gt;Node12 -->
<g id="edge11" class="edge">
<title>Node1&#45;&gt;Node12</title>
<path fill="none" stroke="midnightblue" d="M157.9,-941.06C187.16,-933.81 220.78,-925.48 248.91,-918.51"/>
<polygon fill="midnightblue" stroke="midnightblue" points="157.03,-937.67 148.16,-943.47 158.71,-944.46 157.03,-937.67"/>
</g>
<!-- Node14 -->
<g id="node14" class="node">
<title>Node14</title>
<g id="a_node14"><a xlink:href="class_black_misc_1_1_mixin_1_1_json_by_meta_class.html" target="_top" xlink:title=" ">
<polygon fill="none" stroke="black" points="241.5,-1157.5 241.5,-1187.5 379.5,-1187.5 379.5,-1157.5 241.5,-1157.5"/>
<text text-anchor="start" x="249.5" y="-1175.5" font-family="Helvetica,sans-Serif" font-size="10.00">BlackMisc::Mixin::JsonBy</text>
<text text-anchor="middle" x="310.5" y="-1164.5" font-family="Helvetica,sans-Serif" font-size="10.00">MetaClass&lt; CHeading &gt;</text>
</a>
</g>
</g>
<!-- Node1&#45;&gt;Node14 -->
<g id="edge13" class="edge">
<title>Node1&#45;&gt;Node14</title>
<path fill="none" stroke="midnightblue" d="M96.26,-982.94C112.15,-1023.63 149.66,-1104.99 209,-1147.5 218.57,-1154.36 229.83,-1159.34 241.27,-1162.97"/>
<polygon fill="midnightblue" stroke="midnightblue" points="99.51,-981.63 92.69,-973.52 92.96,-984.11 99.51,-981.63"/>
</g>
<!-- Node16 -->
<g id="node16" class="node">
<title>Node16</title>
<g id="a_node16"><a xlink:href="class_black_misc_1_1_mixin_1_1_json_by_meta_class.html" target="_top" xlink:title=" ">
<polygon fill="none" stroke="black" points="241.5,-1047.5 241.5,-1077.5 379.5,-1077.5 379.5,-1047.5 241.5,-1047.5"/>
<text text-anchor="start" x="249.5" y="-1065.5" font-family="Helvetica,sans-Serif" font-size="10.00">BlackMisc::Mixin::JsonBy</text>
<text text-anchor="middle" x="310.5" y="-1054.5" font-family="Helvetica,sans-Serif" font-size="10.00">MetaClass&lt; CTrack &gt;</text>
</a>
</g>
</g>
<!-- Node1&#45;&gt;Node16 -->
<g id="edge15" class="edge">
<title>Node1&#45;&gt;Node16</title>
<path fill="none" stroke="midnightblue" d="M114.2,-980.05C137.82,-998.11 173.91,-1023.32 209,-1038.5 219.21,-1042.92 230.37,-1046.6 241.41,-1049.65"/>
<polygon fill="midnightblue" stroke="midnightblue" points="116.13,-977.11 106.08,-973.75 111.84,-982.64 116.13,-977.11"/>
</g>
<!-- Node18 -->
<g id="node18" class="node">
<title>Node18</title>
<g id="a_node18"><a xlink:href="class_black_misc_1_1_mixin_1_1_json_by_meta_class.html" target="_top" xlink:title=" ">
<polygon fill="none" stroke="black" points="241.5,-998.5 241.5,-1028.5 379.5,-1028.5 379.5,-998.5 241.5,-998.5"/>
<text text-anchor="start" x="249.5" y="-1016.5" font-family="Helvetica,sans-Serif" font-size="10.00">BlackMisc::Mixin::JsonBy</text>
<text text-anchor="middle" x="310.5" y="-1005.5" font-family="Helvetica,sans-Serif" font-size="10.00">MetaClass&lt; CIcon &gt;</text>
</a>
</g>
</g>
<!-- Node1&#45;&gt;Node18 -->
<g id="edge17" class="edge">
<title>Node1&#45;&gt;Node18</title>
<path fill="none" stroke="midnightblue" d="M157.9,-975.94C187.16,-983.19 220.78,-991.52 248.91,-998.49"/>
<polygon fill="midnightblue" stroke="midnightblue" points="158.71,-972.54 148.16,-973.53 157.03,-979.33 158.71,-972.54"/>
</g>
<!-- Node20 -->
<g id="node20" class="node">
<title>Node20</title>
<g id="a_node20"><a xlink:href="class_black_misc_1_1_physical_quantities_1_1_c_physical_quantity.html" target="_top" xlink:title=" ">
<polygon fill="none" stroke="black" points="221,-938 221,-979 400,-979 400,-938 221,-938"/>
<text text-anchor="start" x="229" y="-967" font-family="Helvetica,sans-Serif" font-size="10.00">BlackMisc::PhysicalQuantities</text>
<text text-anchor="start" x="229" y="-956" font-family="Helvetica,sans-Serif" font-size="10.00">::CPhysicalQuantity&lt; CMassUnit,</text>
<text text-anchor="middle" x="310.5" y="-945" font-family="Helvetica,sans-Serif" font-size="10.00"> CMass &gt;</text>
</a>
</g>
</g>
<!-- Node1&#45;&gt;Node20 -->
<g id="edge19" class="edge">
<title>Node1&#45;&gt;Node20</title>
<path fill="none" stroke="midnightblue" d="M183.36,-958.5C195.77,-958.5 208.44,-958.5 220.72,-958.5"/>
<polygon fill="midnightblue" stroke="midnightblue" points="183.01,-955 173.01,-958.5 183.01,-962 183.01,-955"/>
</g>
<!-- Node22 -->
<g id="node22" class="node">
<title>Node22</title>
<g id="a_node22"><a xlink:href="class_black_misc_1_1_physical_quantities_1_1_c_physical_quantity.html" target="_top" xlink:title=" ">
<polygon fill="none" stroke="black" points="220,-1097 220,-1138 401,-1138 401,-1097 220,-1097"/>
<text text-anchor="start" x="228" y="-1126" font-family="Helvetica,sans-Serif" font-size="10.00">BlackMisc::PhysicalQuantities</text>
<text text-anchor="start" x="228" y="-1115" font-family="Helvetica,sans-Serif" font-size="10.00">::CPhysicalQuantity&lt; CAngleUnit,</text>
<text text-anchor="middle" x="310.5" y="-1104" font-family="Helvetica,sans-Serif" font-size="10.00"> CAngle &gt;</text>
</a>
</g>
</g>
<!-- Node1&#45;&gt;Node22 -->
<g id="edge21" class="edge">
<title>Node1&#45;&gt;Node22</title>
<path fill="none" stroke="midnightblue" d="M103.54,-981.98C124.51,-1010.93 163.91,-1059.69 209,-1087.5 214.73,-1091.04 220.91,-1094.18 227.28,-1096.96"/>
<polygon fill="midnightblue" stroke="midnightblue" points="106.29,-979.81 97.64,-973.68 100.58,-983.86 106.29,-979.81"/>
</g>
<!-- Node29 -->
<g id="node24" class="node">
<title>Node29</title>
<g id="a_node24"><a xlink:href="class_black_misc_1_1_physical_quantities_1_1_c_physical_quantity.html" target="_top" xlink:title=" ">
<polygon fill="none" stroke="black" points="221.5,-828 221.5,-869 399.5,-869 399.5,-828 221.5,-828"/>
<text text-anchor="start" x="229.5" y="-857" font-family="Helvetica,sans-Serif" font-size="10.00">BlackMisc::PhysicalQuantities</text>
<text text-anchor="start" x="229.5" y="-846" font-family="Helvetica,sans-Serif" font-size="10.00">::CPhysicalQuantity&lt; CTimeUnit,</text>
<text text-anchor="middle" x="310.5" y="-835" font-family="Helvetica,sans-Serif" font-size="10.00"> CTime &gt;</text>
</a>
</g>
</g>
<!-- Node1&#45;&gt;Node29 -->
<g id="edge25" class="edge">
<title>Node1&#45;&gt;Node29</title>
<path fill="none" stroke="midnightblue" d="M115.34,-937.18C139.16,-919.75 174.9,-895.46 209,-879.5 217.1,-875.71 225.79,-872.23 234.53,-869.09"/>
<polygon fill="midnightblue" stroke="midnightblue" points="113.08,-934.5 107.13,-943.27 117.25,-940.13 113.08,-934.5"/>
</g>
<!-- Node31 -->
<g id="node26" class="node">
<title>Node31</title>
<g id="a_node26"><a xlink:href="class_black_misc_1_1_physical_quantities_1_1_c_physical_quantity.html" target="_top" xlink:title=" ">
<polygon fill="none" stroke="black" points="213,-768 213,-809 408,-809 408,-768 213,-768"/>
<text text-anchor="start" x="221" y="-797" font-family="Helvetica,sans-Serif" font-size="10.00">BlackMisc::PhysicalQuantities</text>
<text text-anchor="start" x="221" y="-786" font-family="Helvetica,sans-Serif" font-size="10.00">::CPhysicalQuantity&lt; CPressureUnit,</text>
<text text-anchor="middle" x="310.5" y="-775" font-family="Helvetica,sans-Serif" font-size="10.00"> CPressure &gt;</text>
</a>
</g>
</g>
<!-- Node1&#45;&gt;Node31 -->
<g id="edge27" class="edge">
<title>Node1&#45;&gt;Node31</title>
<path fill="none" stroke="midnightblue" d="M101.85,-934.85C121.98,-903.66 161.5,-849.15 209,-818.5 214.51,-814.95 220.45,-811.8 226.61,-809.01"/>
<polygon fill="midnightblue" stroke="midnightblue" points="98.86,-933.03 96.47,-943.36 104.77,-936.78 98.86,-933.03"/>
</g>
<!-- Node33 -->
<g id="node28" class="node">
<title>Node33</title>
<g id="a_node28"><a xlink:href="class_black_misc_1_1_physical_quantities_1_1_c_physical_quantity.html" target="_top" xlink:title=" ">
<polygon fill="none" stroke="black" points="215,-708 215,-749 406,-749 406,-708 215,-708"/>
<text text-anchor="start" x="223" y="-737" font-family="Helvetica,sans-Serif" font-size="10.00">BlackMisc::PhysicalQuantities</text>
<text text-anchor="start" x="223" y="-726" font-family="Helvetica,sans-Serif" font-size="10.00">::CPhysicalQuantity&lt; CAcceleration</text>
<text text-anchor="middle" x="310.5" y="-715" font-family="Helvetica,sans-Serif" font-size="10.00">Unit, CAcceleration &gt;</text>
</a>
</g>
</g>
<!-- Node1&#45;&gt;Node33 -->
<g id="edge29" class="edge">
<title>Node1&#45;&gt;Node33</title>
<path fill="none" stroke="midnightblue" d="M95.75,-933.85C111.17,-891.58 148.4,-805.29 209,-758.5 213.61,-754.94 218.64,-751.8 223.91,-749.03"/>
<polygon fill="midnightblue" stroke="midnightblue" points="92.42,-932.77 92.38,-943.37 99.02,-935.11 92.42,-932.77"/>
</g>
<!-- Node35 -->
<g id="node30" class="node">
<title>Node35</title>
<g id="a_node30"><a xlink:href="class_black_misc_1_1_physical_quantities_1_1_c_physical_quantity.html" target="_top" xlink:title=" ">
<polygon fill="none" stroke="black" points="219,-648 219,-689 402,-689 402,-648 219,-648"/>
<text text-anchor="start" x="227" y="-677" font-family="Helvetica,sans-Serif" font-size="10.00">BlackMisc::PhysicalQuantities</text>
<text text-anchor="start" x="227" y="-666" font-family="Helvetica,sans-Serif" font-size="10.00">::CPhysicalQuantity&lt; CSpeedUnit,</text>
<text text-anchor="middle" x="310.5" y="-655" font-family="Helvetica,sans-Serif" font-size="10.00"> CSpeed &gt;</text>
</a>
</g>
</g>
<!-- Node1&#45;&gt;Node35 -->
<g id="edge31" class="edge">
<title>Node1&#45;&gt;Node35</title>
<path fill="none" stroke="midnightblue" d="M92.12,-933.27C102.95,-881.44 134.86,-762.46 209,-698.5 213.14,-694.93 217.68,-691.79 222.49,-689.02"/>
<polygon fill="midnightblue" stroke="midnightblue" points="88.65,-932.78 90.12,-943.27 95.52,-934.15 88.65,-932.78"/>
</g>
<!-- Node37 -->
<g id="node32" class="node">
<title>Node37</title>
<g id="a_node32"><a xlink:href="class_black_misc_1_1_physical_quantities_1_1_c_physical_quantity.html" target="_top" xlink:title=" ">
<polygon fill="none" stroke="black" points="217.5,-588 217.5,-629 403.5,-629 403.5,-588 217.5,-588"/>
<text text-anchor="start" x="225.5" y="-617" font-family="Helvetica,sans-Serif" font-size="10.00">BlackMisc::PhysicalQuantities</text>
<text text-anchor="start" x="225.5" y="-606" font-family="Helvetica,sans-Serif" font-size="10.00">::CPhysicalQuantity&lt; CLengthUnit,</text>
<text text-anchor="middle" x="310.5" y="-595" font-family="Helvetica,sans-Serif" font-size="10.00"> CLength &gt;</text>
</a>
</g>
</g>
<!-- Node1&#45;&gt;Node37 -->
<g id="edge33" class="edge">
<title>Node1&#45;&gt;Node37</title>
<path fill="none" stroke="midnightblue" d="M89.66,-933.06C96.16,-872.83 120.91,-720.4 209,-638.5 212.73,-635.03 216.85,-631.96 221.23,-629.24"/>
<polygon fill="midnightblue" stroke="midnightblue" points="86.16,-932.9 88.65,-943.2 93.13,-933.6 86.16,-932.9"/>
</g>
<!-- Node39 -->
<g id="node34" class="node">
<title>Node39</title>
<g id="a_node34"><a xlink:href="class_black_misc_1_1_physical_quantities_1_1_c_physical_quantity.html" target="_top" xlink:title=" ">
<polygon fill="none" stroke="black" points="215,-528 215,-569 406,-569 406,-528 215,-528"/>
<text text-anchor="start" x="223" y="-557" font-family="Helvetica,sans-Serif" font-size="10.00">BlackMisc::PhysicalQuantities</text>
<text text-anchor="start" x="223" y="-546" font-family="Helvetica,sans-Serif" font-size="10.00">::CPhysicalQuantity&lt; CTemperature</text>
<text text-anchor="middle" x="310.5" y="-535" font-family="Helvetica,sans-Serif" font-size="10.00">Unit, CTemperature &gt;</text>
</a>
</g>
</g>
<!-- Node1&#45;&gt;Node39 -->
<g id="edge36" class="edge">
<title>Node1&#45;&gt;Node39</title>
<path fill="none" stroke="midnightblue" d="M87.9,-933.08C90.38,-865.34 106.65,-678.88 209,-578.5 212.64,-574.93 216.69,-571.78 221.01,-569.01"/>
<polygon fill="midnightblue" stroke="midnightblue" points="84.4,-933.15 87.6,-943.25 91.39,-933.36 84.4,-933.15"/>
</g>
<!-- Node41 -->
<g id="node36" class="node">
<title>Node41</title>
<g id="a_node36"><a xlink:href="class_black_misc_1_1_physical_quantities_1_1_c_physical_quantity.html" target="_top" xlink:title=" ">
<polygon fill="none" stroke="black" points="209,-468 209,-509 412,-509 412,-468 209,-468"/>
<text text-anchor="start" x="217" y="-497" font-family="Helvetica,sans-Serif" font-size="10.00">BlackMisc::PhysicalQuantities</text>
<text text-anchor="start" x="217" y="-486" font-family="Helvetica,sans-Serif" font-size="10.00">::CPhysicalQuantity&lt; CFrequencyUnit,</text>
<text text-anchor="middle" x="310.5" y="-475" font-family="Helvetica,sans-Serif" font-size="10.00"> CFrequency &gt;</text>
</a>
</g>
</g>
<!-- Node1&#45;&gt;Node41 -->
<g id="edge38" class="edge">
<title>Node1&#45;&gt;Node41</title>
<path fill="none" stroke="midnightblue" d="M91.25,-933.03C104.18,-848.52 149.37,-579.38 209,-518.5 212.44,-514.99 216.27,-511.88 220.38,-509.14"/>
<polygon fill="midnightblue" stroke="midnightblue" points="87.77,-932.63 89.74,-943.04 94.69,-933.68 87.77,-932.63"/>
</g>
<!-- Node43 -->
<g id="node38" class="node">
<title>Node43</title>
<g id="a_node38"><a xlink:href="class_black_misc_1_1_c_container_base.html" target="_top" xlink:title="Base class for CCollection and CSequence adding mutating operations and CValueObject facility on top ...">
<polygon fill="none" stroke="red" points="235.5,-269.5 235.5,-299.5 385.5,-299.5 385.5,-269.5 235.5,-269.5"/>
<text text-anchor="start" x="243.5" y="-287.5" font-family="Helvetica,sans-Serif" font-size="10.00">BlackMisc::CContainerBase</text>
<text text-anchor="middle" x="310.5" y="-276.5" font-family="Helvetica,sans-Serif" font-size="10.00">&lt; Derived &gt;</text>
</a>
</g>
</g>
<!-- Node1&#45;&gt;Node43 -->
<g id="edge40" class="edge">
<title>Node1&#45;&gt;Node43</title>
<path fill="none" stroke="midnightblue" d="M91.07,-932.96C102.09,-857.99 139.16,-632.81 209,-458.5 234.04,-396 278.45,-328.84 298.79,-299.57"/>
<polygon fill="midnightblue" stroke="midnightblue" points="87.54,-932.9 89.57,-943.29 94.47,-933.9 87.54,-932.9"/>
</g>
<!-- Node168 -->
<g id="node49" class="node">
<title>Node168</title>
<g id="a_node49"><a xlink:href="class_black_misc_1_1_mixin_1_1_json_by_meta_class.html" target="_top" xlink:title="CRTP class template from which a derived class can inherit common methods dealing with JSON by metatu...">
<polygon fill="none" stroke="red" points="241.5,-220.5 241.5,-250.5 379.5,-250.5 379.5,-220.5 241.5,-220.5"/>
<text text-anchor="start" x="249.5" y="-238.5" font-family="Helvetica,sans-Serif" font-size="10.00">BlackMisc::Mixin::JsonBy</text>
<text text-anchor="middle" x="310.5" y="-227.5" font-family="Helvetica,sans-Serif" font-size="10.00">MetaClass&lt; Derived &gt;</text>
</a>
</g>
</g>
<!-- Node1&#45;&gt;Node168 -->
<g id="edge51" class="edge">
<title>Node1&#45;&gt;Node168</title>
<path fill="none" stroke="midnightblue" d="M88.32,-933.29C92.5,-820.28 115.11,-361.35 209,-260.5 217.64,-251.22 229.14,-245.16 241.27,-241.24"/>
<polygon fill="midnightblue" stroke="midnightblue" points="84.82,-933.29 87.96,-943.41 91.81,-933.54 84.82,-933.29"/>
</g>
<!-- Node3 -->
<g id="node3" class="node">
<title>Node3</title>
<g id="a_node3"><a xlink:href="class_black_misc_1_1_c_collection.html" target="_top" xlink:title="Generic ordered container with value semantics.">
<polygon fill="none" stroke="black" points="453.5,-1469 453.5,-1488 609.5,-1488 609.5,-1469 453.5,-1469"/>
<text text-anchor="middle" x="531.5" y="-1476" font-family="Helvetica,sans-Serif" font-size="10.00">BlackMisc::CCollection&lt; T &gt;</text>
</a>
</g>
</g>
<!-- Node2&#45;&gt;Node3 -->
<g id="edge2" class="edge">
<title>Node2&#45;&gt;Node3</title>
<path fill="none" stroke="midnightblue" d="M395.76,-1478.5C414.73,-1478.5 434.78,-1478.5 453.44,-1478.5"/>
<polygon fill="midnightblue" stroke="midnightblue" points="395.64,-1475 385.64,-1478.5 395.64,-1482 395.64,-1475"/>
</g>
<!-- Node5 -->
<g id="node5" class="node">
<title>Node5</title>
<g id="a_node5"><a xlink:href="class_black_misc_1_1_c_sequence.html" target="_top" xlink:title="Generic sequential container with value semantics.">
<polygon fill="none" stroke="black" points="454,-1420 454,-1439 609,-1439 609,-1420 454,-1420"/>
<text text-anchor="middle" x="531.5" y="-1427" font-family="Helvetica,sans-Serif" font-size="10.00">BlackMisc::CSequence&lt; T &gt;</text>
</a>
</g>
</g>
<!-- Node4&#45;&gt;Node5 -->
<g id="edge4" class="edge">
<title>Node4&#45;&gt;Node5</title>
<path fill="none" stroke="midnightblue" d="M395.82,-1429.5C414.9,-1429.5 435.07,-1429.5 453.82,-1429.5"/>
<polygon fill="midnightblue" stroke="midnightblue" points="395.64,-1426 385.64,-1429.5 395.64,-1433 395.64,-1426"/>
</g>
<!-- Node7 -->
<g id="node7" class="node">
<title>Node7</title>
<g id="a_node7"><a xlink:href="class_black_misc_1_1_c_variant_map.html" target="_top" xlink:title="Map of { QString, CVariant } pairs.">
<polygon fill="none" stroke="black" points="464.5,-1371 464.5,-1390 598.5,-1390 598.5,-1371 464.5,-1371"/>
<text text-anchor="middle" x="531.5" y="-1378" font-family="Helvetica,sans-Serif" font-size="10.00">BlackMisc::CVariantMap</text>
</a>
</g>
</g>
<!-- Node6&#45;&gt;Node7 -->
<g id="edge6" class="edge">
<title>Node6&#45;&gt;Node7</title>
<path fill="none" stroke="midnightblue" d="M399.23,-1380.5C420.94,-1380.5 443.84,-1380.5 464.33,-1380.5"/>
<polygon fill="midnightblue" stroke="midnightblue" points="399.02,-1377 389.02,-1380.5 399.02,-1384 399.02,-1377"/>
</g>
<!-- Node11 -->
<g id="node11" class="node">
<title>Node11</title>
<g id="a_node11"><a xlink:href="class_black_misc_1_1_c_value_cache_packet.html" target="_top" xlink:title="Value class used for signalling changed values in the cache.">
<polygon fill="none" stroke="black" points="448,-1218 448,-1237 615,-1237 615,-1218 448,-1218"/>
<text text-anchor="middle" x="531.5" y="-1225" font-family="Helvetica,sans-Serif" font-size="10.00">BlackMisc::CValueCachePacket</text>
</a>
</g>
</g>
<!-- Node10&#45;&gt;Node11 -->
<g id="edge10" class="edge">
<title>Node10&#45;&gt;Node11</title>
<path fill="none" stroke="midnightblue" d="M398.2,-1227.5C414.6,-1227.5 431.72,-1227.5 447.98,-1227.5"/>
<polygon fill="midnightblue" stroke="midnightblue" points="398.1,-1224 388.1,-1227.5 398.1,-1231 398.1,-1224"/>
</g>
<!-- Node13 -->
<g id="node13" class="node">
<title>Node13</title>
<g id="a_node13"><a xlink:href="class_black_misc_1_1_aviation_1_1_c_altitude.html" target="_top" xlink:title="Altitude as used in aviation, can be AGL or MSL altitude.">
<polygon fill="none" stroke="black" points="651,-739.5 651,-769.5 763,-769.5 763,-739.5 651,-739.5"/>
<text text-anchor="start" x="659" y="-757.5" font-family="Helvetica,sans-Serif" font-size="10.00">BlackMisc::Aviation</text>
<text text-anchor="middle" x="707" y="-746.5" font-family="Helvetica,sans-Serif" font-size="10.00">::CAltitude</text>
</a>
</g>
</g>
<!-- Node12&#45;&gt;Node13 -->
<g id="edge12" class="edge">
<title>Node12&#45;&gt;Node13</title>
<path fill="none" stroke="midnightblue" d="M389.78,-912.26C454.25,-915.77 545.96,-911.96 615,-873.5 657.94,-849.58 687.08,-796.12 699.39,-769.77"/>
<polygon fill="midnightblue" stroke="midnightblue" points="389.87,-908.76 379.67,-911.64 389.44,-915.75 389.87,-908.76"/>
</g>
<!-- Node15 -->
<g id="node15" class="node">
<title>Node15</title>
<g id="a_node15"><a xlink:href="class_black_misc_1_1_aviation_1_1_c_heading.html" target="_top" xlink:title="Heading as used in aviation, can be true or magnetic heading.">
<polygon fill="none" stroke="black" points="651,-1127.5 651,-1157.5 763,-1157.5 763,-1127.5 651,-1127.5"/>
<text text-anchor="start" x="659" y="-1145.5" font-family="Helvetica,sans-Serif" font-size="10.00">BlackMisc::Aviation</text>
<text text-anchor="middle" x="707" y="-1134.5" font-family="Helvetica,sans-Serif" font-size="10.00">::CHeading</text>
</a>
</g>
</g>
<!-- Node14&#45;&gt;Node15 -->
<g id="edge14" class="edge">
<title>Node14&#45;&gt;Node15</title>
<path fill="none" stroke="midnightblue" d="M389.92,-1166.54C467.13,-1160.67 583.05,-1151.85 650.96,-1146.69"/>
<polygon fill="midnightblue" stroke="midnightblue" points="389.47,-1163.06 379.77,-1167.31 390,-1170.04 389.47,-1163.06"/>
</g>
<!-- Node17 -->
<g id="node17" class="node">
<title>Node17</title>
<g id="a_node17"><a xlink:href="class_black_misc_1_1_aviation_1_1_c_track.html" target="_top" xlink:title="Track as used in aviation, can be true or magnetic Track.">
<polygon fill="none" stroke="black" points="651,-1067.5 651,-1097.5 763,-1097.5 763,-1067.5 651,-1067.5"/>
<text text-anchor="start" x="659" y="-1085.5" font-family="Helvetica,sans-Serif" font-size="10.00">BlackMisc::Aviation</text>
<text text-anchor="middle" x="707" y="-1074.5" font-family="Helvetica,sans-Serif" font-size="10.00">::CTrack</text>
</a>
</g>
</g>
<!-- Node16&#45;&gt;Node17 -->
<g id="edge16" class="edge">
<title>Node16&#45;&gt;Node17</title>
<path fill="none" stroke="midnightblue" d="M389.92,-1066.48C467.13,-1070.39 583.05,-1076.27 650.96,-1079.71"/>
<polygon fill="midnightblue" stroke="midnightblue" points="389.93,-1062.97 379.77,-1065.96 389.58,-1069.96 389.93,-1062.97"/>
</g>
<!-- Node19 -->
<g id="node19" class="node">
<title>Node19</title>
<g id="a_node19"><a xlink:href="class_black_misc_1_1_c_icon.html" target="_top" xlink:title="Value object for icons. An icon is stored in the global icon repository and identified by its index....">
<polygon fill="none" stroke="black" points="482,-1004 482,-1023 581,-1023 581,-1004 482,-1004"/>
<text text-anchor="middle" x="531.5" y="-1011" font-family="Helvetica,sans-Serif" font-size="10.00">BlackMisc::CIcon</text>
</a>
</g>
</g>
<!-- Node18&#45;&gt;Node19 -->
<g id="edge18" class="edge">
<title>Node18&#45;&gt;Node19</title>
<path fill="none" stroke="midnightblue" d="M389.86,-1013.5C420.59,-1013.5 454.88,-1013.5 481.91,-1013.5"/>
<polygon fill="midnightblue" stroke="midnightblue" points="389.59,-1010 379.59,-1013.5 389.59,-1017 389.59,-1010"/>
</g>
<!-- Node21 -->
<g id="node21" class="node">
<title>Node21</title>
<g id="a_node21"><a xlink:href="class_black_misc_1_1_physical_quantities_1_1_c_mass.html" target="_top" xlink:title="Mass.">
<polygon fill="none" stroke="black" points="450,-943.5 450,-973.5 613,-973.5 613,-943.5 450,-943.5"/>
<text text-anchor="start" x="458" y="-961.5" font-family="Helvetica,sans-Serif" font-size="10.00">BlackMisc::PhysicalQuantities</text>
<text text-anchor="middle" x="531.5" y="-950.5" font-family="Helvetica,sans-Serif" font-size="10.00">::CMass</text>
</a>
</g>
</g>
<!-- Node20&#45;&gt;Node21 -->
<g id="edge20" class="edge">
<title>Node20&#45;&gt;Node21</title>
<path fill="none" stroke="midnightblue" d="M410.3,-958.5C423.49,-958.5 436.9,-958.5 449.74,-958.5"/>
<polygon fill="midnightblue" stroke="midnightblue" points="410.26,-955 400.26,-958.5 410.26,-962 410.26,-955"/>
</g>
<!-- Node23 -->
<g id="node23" class="node">
<title>Node23</title>
<g id="a_node23"><a xlink:href="class_black_misc_1_1_physical_quantities_1_1_c_angle.html" target="_top" xlink:title="Physical unit angle (radians, degrees)">
<polygon fill="none" stroke="red" points="450,-1102.5 450,-1132.5 613,-1132.5 613,-1102.5 450,-1102.5"/>
<text text-anchor="start" x="458" y="-1120.5" font-family="Helvetica,sans-Serif" font-size="10.00">BlackMisc::PhysicalQuantities</text>
<text text-anchor="middle" x="531.5" y="-1109.5" font-family="Helvetica,sans-Serif" font-size="10.00">::CAngle</text>
</a>
</g>
</g>
<!-- Node22&#45;&gt;Node23 -->
<g id="edge22" class="edge">
<title>Node22&#45;&gt;Node23</title>
<path fill="none" stroke="midnightblue" d="M411.44,-1117.5C424.26,-1117.5 437.26,-1117.5 449.72,-1117.5"/>
<polygon fill="midnightblue" stroke="midnightblue" points="411.21,-1114 401.21,-1117.5 411.21,-1121 411.21,-1114"/>
</g>
<!-- Node23&#45;&gt;Node15 -->
<g id="edge23" class="edge">
<title>Node23&#45;&gt;Node15</title>
<path fill="none" stroke="midnightblue" d="M623.33,-1130.59C632.7,-1131.94 642,-1133.28 650.81,-1134.55"/>
<polygon fill="midnightblue" stroke="midnightblue" points="623.55,-1127.08 613.15,-1129.12 622.55,-1134.01 623.55,-1127.08"/>
</g>
<!-- Node23&#45;&gt;Node17 -->
<g id="edge24" class="edge">
<title>Node23&#45;&gt;Node17</title>
<path fill="none" stroke="midnightblue" d="M617.13,-1100.43C628.59,-1098.12 640.1,-1095.79 650.87,-1093.62"/>
<polygon fill="midnightblue" stroke="midnightblue" points="616.2,-1097.05 607.09,-1102.45 617.58,-1103.91 616.2,-1097.05"/>
</g>
<!-- Node30 -->
<g id="node25" class="node">
<title>Node30</title>
<g id="a_node25"><a xlink:href="class_black_misc_1_1_physical_quantities_1_1_c_time.html" target="_top" xlink:title="Time class, e.g.">
<polygon fill="none" stroke="black" points="450,-833.5 450,-863.5 613,-863.5 613,-833.5 450,-833.5"/>
<text text-anchor="start" x="458" y="-851.5" font-family="Helvetica,sans-Serif" font-size="10.00">BlackMisc::PhysicalQuantities</text>
<text text-anchor="middle" x="531.5" y="-840.5" font-family="Helvetica,sans-Serif" font-size="10.00">::CTime</text>
</a>
</g>
</g>
<!-- Node29&#45;&gt;Node30 -->
<g id="edge26" class="edge">
<title>Node29&#45;&gt;Node30</title>
<path fill="none" stroke="midnightblue" d="M409.84,-848.5C423.27,-848.5 436.92,-848.5 449.98,-848.5"/>
<polygon fill="midnightblue" stroke="midnightblue" points="409.63,-845 399.63,-848.5 409.63,-852 409.63,-845"/>
</g>
<!-- Node32 -->
<g id="node27" class="node">
<title>Node32</title>
<g id="a_node27"><a xlink:href="class_black_misc_1_1_physical_quantities_1_1_c_pressure.html" target="_top" xlink:title="Physical unit distance.">
<polygon fill="none" stroke="black" points="450,-773.5 450,-803.5 613,-803.5 613,-773.5 450,-773.5"/>
<text text-anchor="start" x="458" y="-791.5" font-family="Helvetica,sans-Serif" font-size="10.00">BlackMisc::PhysicalQuantities</text>
<text text-anchor="middle" x="531.5" y="-780.5" font-family="Helvetica,sans-Serif" font-size="10.00">::CPressure</text>
</a>
</g>
</g>
<!-- Node31&#45;&gt;Node32 -->
<g id="edge28" class="edge">
<title>Node31&#45;&gt;Node32</title>
<path fill="none" stroke="midnightblue" d="M418.3,-788.5C428.87,-788.5 439.47,-788.5 449.72,-788.5"/>
<polygon fill="midnightblue" stroke="midnightblue" points="418.19,-785 408.19,-788.5 418.19,-792 418.19,-785"/>
</g>
<!-- Node34 -->
<g id="node29" class="node">
<title>Node34</title>
<g id="a_node29"><a xlink:href="class_black_misc_1_1_physical_quantities_1_1_c_acceleration.html" target="_top" xlink:title="Acceleration.">
<polygon fill="none" stroke="black" points="450,-713.5 450,-743.5 613,-743.5 613,-713.5 450,-713.5"/>
<text text-anchor="start" x="458" y="-731.5" font-family="Helvetica,sans-Serif" font-size="10.00">BlackMisc::PhysicalQuantities</text>
<text text-anchor="middle" x="531.5" y="-720.5" font-family="Helvetica,sans-Serif" font-size="10.00">::CAcceleration</text>
</a>
</g>
</g>
<!-- Node33&#45;&gt;Node34 -->
<g id="edge30" class="edge">
<title>Node33&#45;&gt;Node34</title>
<path fill="none" stroke="midnightblue" d="M416.57,-728.5C427.8,-728.5 439.1,-728.5 449.98,-728.5"/>
<polygon fill="midnightblue" stroke="midnightblue" points="416.28,-725 406.28,-728.5 416.28,-732 416.28,-725"/>
</g>
<!-- Node36 -->
<g id="node31" class="node">
<title>Node36</title>
<g id="a_node31"><a xlink:href="class_black_misc_1_1_physical_quantities_1_1_c_speed.html" target="_top" xlink:title="Speed class, e.g.">
<polygon fill="none" stroke="black" points="450,-653.5 450,-683.5 613,-683.5 613,-653.5 450,-653.5"/>
<text text-anchor="start" x="458" y="-671.5" font-family="Helvetica,sans-Serif" font-size="10.00">BlackMisc::PhysicalQuantities</text>
<text text-anchor="middle" x="531.5" y="-660.5" font-family="Helvetica,sans-Serif" font-size="10.00">::CSpeed</text>
</a>
</g>
</g>
<!-- Node35&#45;&gt;Node36 -->
<g id="edge32" class="edge">
<title>Node35&#45;&gt;Node36</title>
<path fill="none" stroke="midnightblue" d="M412.19,-668.5C424.77,-668.5 437.5,-668.5 449.71,-668.5"/>
<polygon fill="midnightblue" stroke="midnightblue" points="412.16,-665 402.16,-668.5 412.16,-672 412.16,-665"/>
</g>
<!-- Node38 -->
<g id="node33" class="node">
<title>Node38</title>
<g id="a_node33"><a xlink:href="class_black_misc_1_1_physical_quantities_1_1_c_length.html" target="_top" xlink:title="Physical unit length (length)">
<polygon fill="none" stroke="black" points="450,-599.5 450,-629.5 613,-629.5 613,-599.5 450,-599.5"/>
<text text-anchor="start" x="458" y="-617.5" font-family="Helvetica,sans-Serif" font-size="10.00">BlackMisc::PhysicalQuantities</text>
<text text-anchor="middle" x="531.5" y="-606.5" font-family="Helvetica,sans-Serif" font-size="10.00">::CLength</text>
</a>
</g>
</g>
<!-- Node37&#45;&gt;Node38 -->
<g id="edge34" class="edge">
<title>Node37&#45;&gt;Node38</title>
<path fill="none" stroke="midnightblue" d="M413.84,-611.3C425.92,-611.63 438.11,-611.97 449.83,-612.29"/>
<polygon fill="midnightblue" stroke="midnightblue" points="413.83,-607.8 403.74,-611.03 413.64,-614.8 413.83,-607.8"/>
</g>
<!-- Node38&#45;&gt;Node13 -->
<g id="edge35" class="edge">
<title>Node38&#45;&gt;Node13</title>
<path fill="none" stroke="midnightblue" d="M596.53,-633.85C603.02,-636.95 609.31,-640.49 615,-644.5 652.07,-670.64 682.64,-715.62 697.06,-739.14"/>
<polygon fill="midnightblue" stroke="midnightblue" points="597.49,-630.45 586.93,-629.61 594.66,-636.85 597.49,-630.45"/>
</g>
<!-- Node40 -->
<g id="node35" class="node">
<title>Node40</title>
<g id="a_node35"><a xlink:href="class_black_misc_1_1_physical_quantities_1_1_c_temperature.html" target="_top" xlink:title="Physical unit temperature.">
<polygon fill="none" stroke="black" points="450,-539.5 450,-569.5 613,-569.5 613,-539.5 450,-539.5"/>
<text text-anchor="start" x="458" y="-557.5" font-family="Helvetica,sans-Serif" font-size="10.00">BlackMisc::PhysicalQuantities</text>
<text text-anchor="middle" x="531.5" y="-546.5" font-family="Helvetica,sans-Serif" font-size="10.00">::CTemperature</text>
</a>
</g>
</g>
<!-- Node39&#45;&gt;Node40 -->
<g id="edge37" class="edge">
<title>Node39&#45;&gt;Node40</title>
<path fill="none" stroke="midnightblue" d="M416.57,-551.38C427.8,-551.69 439.1,-552 449.98,-552.29"/>
<polygon fill="midnightblue" stroke="midnightblue" points="416.38,-547.87 406.28,-551.1 416.18,-554.87 416.38,-547.87"/>
</g>
<!-- Node42 -->
<g id="node37" class="node">
<title>Node42</title>
<g id="a_node37"><a xlink:href="class_black_misc_1_1_physical_quantities_1_1_c_frequency.html" target="_top" xlink:title="Physical unit frequency.">
<polygon fill="none" stroke="black" points="450,-490.5 450,-520.5 613,-520.5 613,-490.5 450,-490.5"/>
<text text-anchor="start" x="458" y="-508.5" font-family="Helvetica,sans-Serif" font-size="10.00">BlackMisc::PhysicalQuantities</text>
<text text-anchor="middle" x="531.5" y="-497.5" font-family="Helvetica,sans-Serif" font-size="10.00">::CFrequency</text>
</a>
</g>
</g>
<!-- Node41&#45;&gt;Node42 -->
<g id="edge39" class="edge">
<title>Node41&#45;&gt;Node42</title>
<path fill="none" stroke="midnightblue" d="M422.17,-497.09C431.53,-497.82 440.88,-498.54 449.94,-499.25"/>
<polygon fill="midnightblue" stroke="midnightblue" points="422.27,-493.59 412.03,-496.3 421.73,-500.57 422.27,-493.59"/>
</g>
<!-- Node44 -->
<g id="node39" class="node">
<title>Node44</title>
<g id="a_node39"><a xlink:href="class_black_misc_1_1_c_collection.html" target="_top" xlink:title=" ">
<polygon fill="none" stroke="red" points="467.5,-98.5 467.5,-128.5 595.5,-128.5 595.5,-98.5 467.5,-98.5"/>
<text text-anchor="start" x="475.5" y="-116.5" font-family="Helvetica,sans-Serif" font-size="10.00">BlackMisc::CCollection</text>
<text text-anchor="middle" x="531.5" y="-105.5" font-family="Helvetica,sans-Serif" font-size="10.00">&lt; CIdentifier &gt;</text>
</a>
</g>
</g>
<!-- Node43&#45;&gt;Node44 -->
<g id="edge41" class="edge">
<title>Node43&#45;&gt;Node44</title>
<path fill="none" stroke="midnightblue" d="M394.96,-272.3C401.18,-269.16 406.98,-265.28 412,-260.5 453.28,-221.25 407.69,-177.74 448,-137.5 453.49,-132.02 460.15,-127.78 467.29,-124.49"/>
<polygon fill="midnightblue" stroke="midnightblue" points="393.34,-269.19 385.59,-276.41 396.15,-275.6 393.34,-269.19"/>
</g>
<!-- Node46 -->
<g id="node40" class="node">
<title>Node46</title>
<g id="a_node40"><a xlink:href="class_black_misc_1_1_c_collection.html" target="_top" xlink:title=" ">
<polygon fill="none" stroke="red" points="467.5,-49.5 467.5,-79.5 595.5,-79.5 595.5,-49.5 467.5,-49.5"/>
<text text-anchor="start" x="475.5" y="-67.5" font-family="Helvetica,sans-Serif" font-size="10.00">BlackMisc::CCollection</text>
<text text-anchor="middle" x="531.5" y="-56.5" font-family="Helvetica,sans-Serif" font-size="10.00">&lt; CVPilotModelRule &gt;</text>
</a>
</g>
</g>
<!-- Node43&#45;&gt;Node46 -->
<g id="edge42" class="edge">
<title>Node43&#45;&gt;Node46</title>
<path fill="none" stroke="midnightblue" d="M395.06,-272.89C401.31,-269.62 407.08,-265.56 412,-260.5 466.44,-204.5 394.93,-145.8 448,-88.5 453.37,-82.7 460.06,-78.27 467.28,-74.9"/>
<polygon fill="midnightblue" stroke="midnightblue" points="393.29,-269.84 385.59,-277.12 396.15,-276.23 393.29,-269.84"/>
</g>
<!-- Node48 -->
<g id="node41" class="node">
<title>Node48</title>
<g id="a_node41"><a xlink:href="class_black_misc_1_1_c_collection.html" target="_top" xlink:title=" ">
<polygon fill="none" stroke="red" points="467.5,-0.5 467.5,-30.5 595.5,-30.5 595.5,-0.5 467.5,-0.5"/>
<text text-anchor="start" x="475.5" y="-18.5" font-family="Helvetica,sans-Serif" font-size="10.00">BlackMisc::CCollection</text>
<text text-anchor="middle" x="531.5" y="-7.5" font-family="Helvetica,sans-Serif" font-size="10.00">&lt; CCallsign &gt;</text>
</a>
</g>
</g>
<!-- Node43&#45;&gt;Node48 -->
<g id="edge43" class="edge">
<title>Node43&#45;&gt;Node48</title>
<path fill="none" stroke="midnightblue" d="M395.14,-273.21C401.41,-269.88 407.16,-265.71 412,-260.5 479.76,-187.61 382.04,-114.02 448,-39.5 453.34,-33.47 460.1,-28.91 467.44,-25.48"/>
<polygon fill="midnightblue" stroke="midnightblue" points="393.31,-270.2 385.64,-277.51 396.2,-276.57 393.31,-270.2"/>
</g>
<!-- Node50 -->
<g id="node42" class="node">
<title>Node50</title>
<g id="a_node42"><a xlink:href="class_black_misc_1_1_c_collection.html" target="_top" xlink:title=" ">
<polygon fill="none" stroke="red" points="467.5,-441.5 467.5,-471.5 595.5,-471.5 595.5,-441.5 467.5,-441.5"/>
<text text-anchor="start" x="475.5" y="-459.5" font-family="Helvetica,sans-Serif" font-size="10.00">BlackMisc::CCollection</text>
<text text-anchor="middle" x="531.5" y="-448.5" font-family="Helvetica,sans-Serif" font-size="10.00">&lt; CPlatform &gt;</text>
</a>
</g>
</g>
<!-- Node43&#45;&gt;Node50 -->
<g id="edge44" class="edge">
<title>Node43&#45;&gt;Node50</title>
<path fill="none" stroke="midnightblue" d="M326.97,-308.09C349.65,-340.83 395.03,-399.7 448,-432.5 453.96,-436.19 460.51,-439.34 467.24,-442.01"/>
<polygon fill="midnightblue" stroke="midnightblue" points="329.71,-305.89 321.19,-299.59 323.92,-309.83 329.71,-305.89"/>
</g>
<!-- Node52 -->
<g id="node43" class="node">
<title>Node52</title>
<g id="a_node43"><a xlink:href="class_black_misc_1_1_c_sequence.html" target="_top" xlink:title=" ">
<polygon fill="none" stroke="red" points="452.5,-392.5 452.5,-422.5 610.5,-422.5 610.5,-392.5 452.5,-392.5"/>
<text text-anchor="start" x="460.5" y="-410.5" font-family="Helvetica,sans-Serif" font-size="10.00">BlackMisc::CSequence</text>
<text text-anchor="middle" x="531.5" y="-399.5" font-family="Helvetica,sans-Serif" font-size="10.00">&lt; CWeatherDataPluginInfo &gt;</text>
</a>
</g>
</g>
<!-- Node43&#45;&gt;Node52 -->
<g id="edge45" class="edge">
<title>Node43&#45;&gt;Node52</title>
<path fill="none" stroke="midnightblue" d="M336.2,-306.5C362.32,-328.74 405.53,-362.71 448,-383.5 454.83,-386.85 462.22,-389.81 469.66,-392.41"/>
<polygon fill="midnightblue" stroke="midnightblue" points="338.2,-303.61 328.35,-299.73 333.63,-308.91 338.2,-303.61"/>
</g>
<!-- Node54 -->
<g id="node44" class="node">
<title>Node54</title>
<g id="a_node44"><a xlink:href="class_black_misc_1_1_c_sequence.html" target="_top" xlink:title=" ">
<polygon fill="none" stroke="red" points="468.5,-343.5 468.5,-373.5 594.5,-373.5 594.5,-343.5 468.5,-343.5"/>
<text text-anchor="start" x="476.5" y="-361.5" font-family="Helvetica,sans-Serif" font-size="10.00">BlackMisc::CSequence</text>
<text text-anchor="middle" x="531.5" y="-350.5" font-family="Helvetica,sans-Serif" font-size="10.00">&lt; CUrlLog &gt;</text>
</a>
</g>
</g>
<!-- Node43&#45;&gt;Node54 -->
<g id="edge46" class="edge">
<title>Node43&#45;&gt;Node54</title>
<path fill="none" stroke="midnightblue" d="M359.98,-303.17C385.94,-312.94 418.55,-324.84 448,-334.5 457.21,-337.52 467.07,-340.56 476.64,-343.4"/>
<polygon fill="midnightblue" stroke="midnightblue" points="360.97,-299.8 350.38,-299.54 358.5,-306.35 360.97,-299.8"/>
</g>
<!-- Node56 -->
<g id="node45" class="node">
<title>Node56</title>
<g id="a_node45"><a xlink:href="class_black_misc_1_1_c_sequence.html" target="_top" xlink:title=" ">
<polygon fill="none" stroke="red" points="468.5,-294.5 468.5,-324.5 594.5,-324.5 594.5,-294.5 468.5,-294.5"/>
<text text-anchor="start" x="476.5" y="-312.5" font-family="Helvetica,sans-Serif" font-size="10.00">BlackMisc::CSequence</text>
<text text-anchor="middle" x="531.5" y="-301.5" font-family="Helvetica,sans-Serif" font-size="10.00">&lt; CAircraftSituation &gt;</text>
</a>
</g>
</g>
<!-- Node43&#45;&gt;Node56 -->
<g id="edge47" class="edge">
<title>Node43&#45;&gt;Node56</title>
<path fill="none" stroke="midnightblue" d="M395.88,-294.13C420.03,-296.89 445.92,-299.84 468.47,-302.42"/>
<polygon fill="midnightblue" stroke="midnightblue" points="395.98,-290.62 385.64,-292.96 395.18,-297.58 395.98,-290.62"/>
</g>
<!-- Node58 -->
<g id="node46" class="node">
<title>Node58</title>
<g id="a_node46"><a xlink:href="class_black_misc_1_1_c_sequence.html" target="_top" xlink:title=" ">
<polygon fill="none" stroke="red" points="468.5,-245.5 468.5,-275.5 594.5,-275.5 594.5,-245.5 468.5,-245.5"/>
<text text-anchor="start" x="476.5" y="-263.5" font-family="Helvetica,sans-Serif" font-size="10.00">BlackMisc::CSequence</text>
<text text-anchor="middle" x="531.5" y="-252.5" font-family="Helvetica,sans-Serif" font-size="10.00">&lt; CAircraftModel &gt;</text>
</a>
</g>
</g>
<!-- Node43&#45;&gt;Node58 -->
<g id="edge48" class="edge">
<title>Node43&#45;&gt;Node58</title>
<path fill="none" stroke="midnightblue" d="M395.88,-275.25C420.03,-272.61 445.92,-269.77 468.47,-267.3"/>
<polygon fill="midnightblue" stroke="midnightblue" points="395.2,-271.81 385.64,-276.37 395.97,-278.76 395.2,-271.81"/>
</g>
<!-- Node60 -->
<g id="node47" class="node">
<title>Node60</title>
<g id="a_node47"><a xlink:href="class_black_misc_1_1_c_sequence.html" target="_top" xlink:title=" ">
<polygon fill="none" stroke="red" points="468.5,-196.5 468.5,-226.5 594.5,-226.5 594.5,-196.5 468.5,-196.5"/>
<text text-anchor="start" x="476.5" y="-214.5" font-family="Helvetica,sans-Serif" font-size="10.00">BlackMisc::CSequence</text>
<text text-anchor="middle" x="531.5" y="-203.5" font-family="Helvetica,sans-Serif" font-size="10.00">&lt; CClient &gt;</text>
</a>
</g>
</g>
<!-- Node43&#45;&gt;Node60 -->
<g id="edge49" class="edge">
<title>Node43&#45;&gt;Node60</title>
<path fill="none" stroke="midnightblue" d="M395.41,-266.86C401.1,-264.94 406.68,-262.82 412,-260.5 429.63,-252.81 430.61,-244.71 448,-236.5 455.85,-232.79 464.38,-229.48 472.87,-226.58"/>
<polygon fill="midnightblue" stroke="midnightblue" points="394.23,-263.57 385.76,-269.93 396.35,-270.24 394.23,-263.57"/>
</g>
<!-- Node62 -->
<g id="node48" class="node">
<title>Node62</title>
<g id="a_node48"><a xlink:href="class_black_misc_1_1_c_sequence.html" target="_top" xlink:title=" ">
<polygon fill="none" stroke="red" points="468.5,-147.5 468.5,-177.5 594.5,-177.5 594.5,-147.5 468.5,-147.5"/>
<text text-anchor="start" x="476.5" y="-165.5" font-family="Helvetica,sans-Serif" font-size="10.00">BlackMisc::CSequence</text>
<text text-anchor="middle" x="531.5" y="-154.5" font-family="Helvetica,sans-Serif" font-size="10.00">&lt; CPropertyIndex &gt;</text>
</a>
</g>
</g>
<!-- Node43&#45;&gt;Node62 -->
<g id="edge50" class="edge">
<title>Node43&#45;&gt;Node62</title>
<path fill="none" stroke="midnightblue" d="M395.2,-270.81C401.21,-267.98 406.89,-264.58 412,-260.5 440.28,-237.94 420.41,-210.9 448,-187.5 453.94,-182.47 460.86,-178.45 468.14,-175.23"/>
<polygon fill="midnightblue" stroke="midnightblue" points="393.45,-267.75 385.56,-274.82 396.13,-274.22 393.45,-267.75"/>
</g>
</g>
</svg>
