<?xml version="1.0" encoding="UTF-8" standalone="no"?>
<!DOCTYPE svg PUBLIC "-//W3C//DTD SVG 1.1//EN"
 "http://www.w3.org/Graphics/SVG/1.1/DTD/svg11.dtd">
<!-- Generated by graphviz version 2.43.0 (0)
 -->
<!-- Title: BlackSimPlugin::Common::CSimulatorPluginCommon Pages: 1 -->
<svg width="1270pt" height="361pt"
 viewBox="0.00 0.00 1270.00 361.00" xmlns="http://www.w3.org/2000/svg" xmlns:xlink="http://www.w3.org/1999/xlink">
<g id="graph0" class="graph" transform="scale(1 1) rotate(0) translate(4 357)">
<title>BlackSimPlugin::Common::CSimulatorPluginCommon</title>
<!-- Node1 -->
<g id="node1" class="node">
<title>Node1</title>
<g id="a_node1"><a xlink:title="Common base class for simulator plugins.">
<polygon fill="#bfbfbf" stroke="black" points="567,-161 567,-191 718,-191 718,-161 567,-161"/>
<text text-anchor="start" x="575" y="-179" font-family="Helvetica,sans-Serif" font-size="10.00">BlackSimPlugin::Common</text>
<text text-anchor="middle" x="642.5" y="-168" font-family="Helvetica,sans-Serif" font-size="10.00">::CSimulatorPluginCommon</text>
</a>
</g>
</g>
<!-- Node16 -->
<g id="node16" class="node">
<title>Node16</title>
<g id="a_node16"><a xlink:href="class_black_sim_plugin_1_1_emulated_1_1_c_simulator_emulated.html" target="_top" xlink:title="swift simulator implementation">
<polygon fill="none" stroke="black" points="758.5,-235 758.5,-265 903.5,-265 903.5,-235 758.5,-235"/>
<text text-anchor="start" x="766.5" y="-253" font-family="Helvetica,sans-Serif" font-size="10.00">BlackSimPlugin::Emulated</text>
<text text-anchor="middle" x="831" y="-242" font-family="Helvetica,sans-Serif" font-size="10.00">::CSimulatorEmulated</text>
</a>
</g>
</g>
<!-- Node1&#45;&gt;Node16 -->
<g id="edge16" class="edge">
<title>Node1&#45;&gt;Node16</title>
<path fill="none" stroke="midnightblue" d="M683.22,-195.36C704.04,-205.15 730.12,-216.87 754,-226 762.14,-229.11 770.88,-232.15 779.43,-234.96"/>
<polygon fill="midnightblue" stroke="midnightblue" points="684.58,-192.13 674.04,-191.01 681.58,-198.45 684.58,-192.13"/>
</g>
<!-- Node17 -->
<g id="node17" class="node">
<title>Node17</title>
<g id="a_node17"><a xlink:href="class_black_sim_plugin_1_1_flightgear_1_1_c_simulator_flightgear.html" target="_top" xlink:title="Flightgear ISimulator implementation.">
<polygon fill="none" stroke="black" points="757,-186 757,-216 905,-216 905,-186 757,-186"/>
<text text-anchor="start" x="765" y="-204" font-family="Helvetica,sans-Serif" font-size="10.00">BlackSimPlugin::Flightgear</text>
<text text-anchor="middle" x="831" y="-193" font-family="Helvetica,sans-Serif" font-size="10.00">::CSimulatorFlightgear</text>
</a>
</g>
</g>
<!-- Node1&#45;&gt;Node17 -->
<g id="edge17" class="edge">
<title>Node1&#45;&gt;Node17</title>
<path fill="none" stroke="midnightblue" d="M727.98,-187.32C737.61,-188.61 747.36,-189.92 756.82,-191.19"/>
<polygon fill="midnightblue" stroke="midnightblue" points="728.39,-183.85 718.01,-185.99 727.46,-190.79 728.39,-183.85"/>
</g>
<!-- Node18 -->
<g id="node18" class="node">
<title>Node18</title>
<g id="a_node18"><a xlink:href="class_black_sim_plugin_1_1_fs_common_1_1_c_simulator_fs_common.html" target="_top" xlink:title="Common base class for MS flight simulators.">
<polygon fill="none" stroke="black" points="754,-137 754,-167 908,-167 908,-137 754,-137"/>
<text text-anchor="start" x="762" y="-155" font-family="Helvetica,sans-Serif" font-size="10.00">BlackSimPlugin::FsCommon</text>
<text text-anchor="middle" x="831" y="-144" font-family="Helvetica,sans-Serif" font-size="10.00">::CSimulatorFsCommon</text>
</a>
</g>
</g>
<!-- Node1&#45;&gt;Node18 -->
<g id="edge18" class="edge">
<title>Node1&#45;&gt;Node18</title>
<path fill="none" stroke="midnightblue" d="M728.03,-165.12C736.61,-164.02 745.29,-162.9 753.78,-161.81"/>
<polygon fill="midnightblue" stroke="midnightblue" points="727.49,-161.66 718.01,-166.41 728.38,-168.61 727.49,-161.66"/>
</g>
<!-- Node24 -->
<g id="node24" class="node">
<title>Node24</title>
<g id="a_node24"><a xlink:href="class_black_sim_plugin_1_1_x_plane_1_1_c_simulator_x_plane.html" target="_top" xlink:title="X&#45;Plane ISimulator implementation.">
<polygon fill="none" stroke="black" points="765,-88 765,-118 897,-118 897,-88 765,-88"/>
<text text-anchor="start" x="773" y="-106" font-family="Helvetica,sans-Serif" font-size="10.00">BlackSimPlugin::XPlane</text>
<text text-anchor="middle" x="831" y="-95" font-family="Helvetica,sans-Serif" font-size="10.00">::CSimulatorXPlane</text>
</a>
</g>
</g>
<!-- Node1&#45;&gt;Node24 -->
<g id="edge24" class="edge">
<title>Node1&#45;&gt;Node24</title>
<path fill="none" stroke="midnightblue" d="M685.41,-156.71C705.91,-147.56 731.05,-136.74 754,-128 762.96,-124.59 772.61,-121.2 781.92,-118.07"/>
<polygon fill="midnightblue" stroke="midnightblue" points="683.74,-153.63 676.05,-160.92 686.61,-160.01 683.74,-153.63"/>
</g>
<!-- Node2 -->
<g id="node2" class="node">
<title>Node2</title>
<g id="a_node2"><a xlink:href="class_black_core_1_1_i_simulator.html" target="_top" xlink:title="Interface to a simulator.">
<polygon fill="none" stroke="black" points="409,-166.5 409,-185.5 531,-185.5 531,-166.5 409,-166.5"/>
<text text-anchor="middle" x="470" y="-173.5" font-family="Helvetica,sans-Serif" font-size="10.00">BlackCore::ISimulator</text>
</a>
</g>
</g>
<!-- Node2&#45;&gt;Node1 -->
<g id="edge1" class="edge">
<title>Node2&#45;&gt;Node1</title>
<path fill="none" stroke="midnightblue" d="M541.32,-176C549.79,-176 558.46,-176 566.99,-176"/>
<polygon fill="midnightblue" stroke="midnightblue" points="541.11,-172.5 531.11,-176 541.11,-179.5 541.11,-172.5"/>
</g>
<!-- Node3 -->
<g id="node3" class="node">
<title>Node3</title>
<g id="a_node3"><a target="_parent" xlink:href="http://doc.qt.io/qt-5/qobject.html" xlink:title=" ">
<polygon fill="none" stroke="black" points="254.5,-333.5 254.5,-352.5 310.5,-352.5 310.5,-333.5 254.5,-333.5"/>
<text text-anchor="middle" x="282.5" y="-340.5" font-family="Helvetica,sans-Serif" font-size="10.00">QObject</text>
</a>
</g>
</g>
<!-- Node3&#45;&gt;Node2 -->
<g id="edge2" class="edge">
<title>Node3&#45;&gt;Node2</title>
<path fill="none" stroke="midnightblue" d="M320.93,-341.53C338.04,-339.31 357.82,-334.43 373,-324 425.49,-287.91 456.06,-212.76 465.68,-185.85"/>
<polygon fill="midnightblue" stroke="midnightblue" points="320.27,-338.08 310.69,-342.59 321,-345.04 320.27,-338.08"/>
</g>
<!-- Node4 -->
<g id="node4" class="node">
<title>Node4</title>
<g id="a_node4"><a xlink:href="class_black_misc_1_1_simulation_1_1_c_own_aircraft_aware.html" target="_top" xlink:title="Delegating class which can be directly used to access an.">
<polygon fill="none" stroke="black" points="220,-284 220,-314 345,-314 345,-284 220,-284"/>
<text text-anchor="start" x="228" y="-302" font-family="Helvetica,sans-Serif" font-size="10.00">BlackMisc::Simulation</text>
<text text-anchor="middle" x="282.5" y="-291" font-family="Helvetica,sans-Serif" font-size="10.00">::COwnAircraftAware</text>
</a>
</g>
</g>
<!-- Node4&#45;&gt;Node2 -->
<g id="edge3" class="edge">
<title>Node4&#45;&gt;Node2</title>
<path fill="none" stroke="midnightblue" d="M355.27,-283.54C361.44,-281.09 367.45,-278.26 373,-275 413.66,-251.1 448.59,-205.36 462.53,-185.54"/>
<polygon fill="midnightblue" stroke="midnightblue" points="353.66,-280.4 345.45,-287.09 356.05,-286.98 353.66,-280.4"/>
</g>
<!-- Node5 -->
<g id="node5" class="node">
<title>Node5</title>
<g id="a_node5"><a xlink:href="class_black_misc_1_1_i_provider_aware.html" target="_top" xlink:title=" ">
<polygon fill="none" stroke="black" points="5,-284 5,-314 151,-314 151,-284 5,-284"/>
<text text-anchor="start" x="13" y="-302" font-family="Helvetica,sans-Serif" font-size="10.00">BlackMisc::IProviderAware</text>
<text text-anchor="middle" x="78" y="-291" font-family="Helvetica,sans-Serif" font-size="10.00">&lt; IOwnAircraftProvider &gt;</text>
</a>
</g>
</g>
<!-- Node5&#45;&gt;Node4 -->
<g id="edge4" class="edge">
<title>Node5&#45;&gt;Node4</title>
<path fill="none" stroke="midnightblue" d="M161.39,-299C180.97,-299 201.53,-299 220,-299"/>
<polygon fill="midnightblue" stroke="midnightblue" points="161.25,-295.5 151.25,-299 161.25,-302.5 161.25,-295.5"/>
</g>
<!-- Node6 -->
<g id="node6" class="node">
<title>Node6</title>
<g id="a_node6"><a xlink:href="class_black_misc_1_1_simulation_1_1_c_remote_aircraft_aware.html" target="_top" xlink:title="Class which can be directly used to access an.">
<polygon fill="none" stroke="black" points="215.5,-235 215.5,-265 349.5,-265 349.5,-235 215.5,-235"/>
<text text-anchor="start" x="223.5" y="-253" font-family="Helvetica,sans-Serif" font-size="10.00">BlackMisc::Simulation</text>
<text text-anchor="middle" x="282.5" y="-242" font-family="Helvetica,sans-Serif" font-size="10.00">::CRemoteAircraftAware</text>
</a>
</g>
</g>
<!-- Node6&#45;&gt;Node2 -->
<g id="edge5" class="edge">
<title>Node6&#45;&gt;Node2</title>
<path fill="none" stroke="midnightblue" d="M356.29,-231.92C361.99,-230.07 367.62,-228.09 373,-226 402.42,-214.55 434.57,-196.6 453.2,-185.6"/>
<polygon fill="midnightblue" stroke="midnightblue" points="355.16,-228.61 346.65,-234.92 357.24,-235.29 355.16,-228.61"/>
</g>
<!-- Node7 -->
<g id="node7" class="node">
<title>Node7</title>
<g id="a_node7"><a xlink:href="class_black_misc_1_1_i_provider_aware.html" target="_top" xlink:title=" ">
<polygon fill="none" stroke="black" points="0,-235 0,-265 156,-265 156,-235 0,-235"/>
<text text-anchor="start" x="8" y="-253" font-family="Helvetica,sans-Serif" font-size="10.00">BlackMisc::IProviderAware</text>
<text text-anchor="middle" x="78" y="-242" font-family="Helvetica,sans-Serif" font-size="10.00">&lt; IRemoteAircraftProvider &gt;</text>
</a>
</g>
</g>
<!-- Node7&#45;&gt;Node6 -->
<g id="edge6" class="edge">
<title>Node7&#45;&gt;Node6</title>
<path fill="none" stroke="midnightblue" d="M166.32,-250C182.8,-250 199.79,-250 215.48,-250"/>
<polygon fill="midnightblue" stroke="midnightblue" points="166.13,-246.5 156.13,-250 166.13,-253.5 166.13,-246.5"/>
</g>
<!-- Node8 -->
<g id="node8" class="node">
<title>Node8</title>
<g id="a_node8"><a xlink:href="class_black_misc_1_1_weather_1_1_c_weather_grid_aware.html" target="_top" xlink:title="Delegating class which can be directly used to access an.">
<polygon fill="none" stroke="black" points="222,-186 222,-216 343,-216 343,-186 222,-186"/>
<text text-anchor="start" x="230" y="-204" font-family="Helvetica,sans-Serif" font-size="10.00">BlackMisc::Weather</text>
<text text-anchor="middle" x="282.5" y="-193" font-family="Helvetica,sans-Serif" font-size="10.00">::CWeatherGridAware</text>
</a>
</g>
</g>
<!-- Node8&#45;&gt;Node2 -->
<g id="edge7" class="edge">
<title>Node8&#45;&gt;Node2</title>
<path fill="none" stroke="midnightblue" d="M353.21,-191.6C371.49,-189.14 391.03,-186.51 408.76,-184.12"/>
<polygon fill="midnightblue" stroke="midnightblue" points="352.66,-188.15 343.21,-192.95 353.59,-195.09 352.66,-188.15"/>
</g>
<!-- Node9 -->
<g id="node9" class="node">
<title>Node9</title>
<g id="a_node9"><a xlink:href="class_black_misc_1_1_i_provider_aware.html" target="_top" xlink:title=" ">
<polygon fill="none" stroke="black" points="5,-186 5,-216 151,-216 151,-186 5,-186"/>
<text text-anchor="start" x="13" y="-204" font-family="Helvetica,sans-Serif" font-size="10.00">BlackMisc::IProviderAware</text>
<text text-anchor="middle" x="78" y="-193" font-family="Helvetica,sans-Serif" font-size="10.00">&lt; IWeatherGridProvider &gt;</text>
</a>
</g>
</g>
<!-- Node9&#45;&gt;Node8 -->
<g id="edge8" class="edge">
<title>Node9&#45;&gt;Node8</title>
<path fill="none" stroke="midnightblue" d="M161.42,-201C181.69,-201 203.01,-201 221.96,-201"/>
<polygon fill="midnightblue" stroke="midnightblue" points="161.25,-197.5 151.25,-201 161.25,-204.5 161.25,-197.5"/>
</g>
<!-- Node10 -->
<g id="node10" class="node">
<title>Node10</title>
<g id="a_node10"><a xlink:href="class_black_misc_1_1_network_1_1_c_client_aware.html" target="_top" xlink:title="Class which can be directly used to access an.">
<polygon fill="none" stroke="black" points="226,-137 226,-167 339,-167 339,-137 226,-137"/>
<text text-anchor="start" x="234" y="-155" font-family="Helvetica,sans-Serif" font-size="10.00">BlackMisc::Network</text>
<text text-anchor="middle" x="282.5" y="-144" font-family="Helvetica,sans-Serif" font-size="10.00">::CClientAware</text>
</a>
</g>
</g>
<!-- Node10&#45;&gt;Node2 -->
<g id="edge9" class="edge">
<title>Node10&#45;&gt;Node2</title>
<path fill="none" stroke="midnightblue" d="M349.15,-160.49C368.59,-163.01 389.78,-165.75 408.86,-168.22"/>
<polygon fill="midnightblue" stroke="midnightblue" points="349.52,-157.01 339.16,-159.2 348.62,-163.96 349.52,-157.01"/>
</g>
<!-- Node11 -->
<g id="node11" class="node">
<title>Node11</title>
<g id="a_node11"><a xlink:href="class_black_misc_1_1_i_provider_aware.html" target="_top" xlink:title=" ">
<polygon fill="none" stroke="black" points="5,-137 5,-167 151,-167 151,-137 5,-137"/>
<text text-anchor="start" x="13" y="-155" font-family="Helvetica,sans-Serif" font-size="10.00">BlackMisc::IProviderAware</text>
<text text-anchor="middle" x="78" y="-144" font-family="Helvetica,sans-Serif" font-size="10.00">&lt; IClientProvider &gt;</text>
</a>
</g>
</g>
<!-- Node11&#45;&gt;Node10 -->
<g id="edge10" class="edge">
<title>Node11&#45;&gt;Node10</title>
<path fill="none" stroke="midnightblue" d="M161.43,-152C183.1,-152 205.95,-152 225.84,-152"/>
<polygon fill="midnightblue" stroke="midnightblue" points="161.25,-148.5 151.25,-152 161.25,-155.5 161.25,-148.5"/>
</g>
<!-- Node12 -->
<g id="node12" class="node">
<title>Node12</title>
<g id="a_node12"><a xlink:href="class_black_misc_1_1_simulation_1_1_i_simulation_environment_provider.html" target="_top" xlink:title="Direct in memory access to elevation data.">
<polygon fill="none" stroke="black" points="192,-88 192,-118 373,-118 373,-88 192,-88"/>
<text text-anchor="start" x="200" y="-106" font-family="Helvetica,sans-Serif" font-size="10.00">BlackMisc::Simulation</text>
<text text-anchor="middle" x="282.5" y="-95" font-family="Helvetica,sans-Serif" font-size="10.00">::ISimulationEnvironmentProvider</text>
</a>
</g>
</g>
<!-- Node12&#45;&gt;Node2 -->
<g id="edge11" class="edge">
<title>Node12&#45;&gt;Node2</title>
<path fill="none" stroke="midnightblue" d="M353.47,-121.14C360.13,-123.29 366.73,-125.58 373,-128 401.86,-139.13 433.66,-156.01 452.45,-166.5"/>
<polygon fill="midnightblue" stroke="midnightblue" points="354.3,-117.74 343.72,-118.11 352.23,-124.42 354.3,-117.74"/>
</g>
<!-- Node13 -->
<g id="node13" class="node">
<title>Node13</title>
<g id="a_node13"><a xlink:href="class_black_misc_1_1_i_provider.html" target="_top" xlink:title="Base class for providers.">
<polygon fill="none" stroke="black" points="20,-69.5 20,-88.5 136,-88.5 136,-69.5 20,-69.5"/>
<text text-anchor="middle" x="78" y="-76.5" font-family="Helvetica,sans-Serif" font-size="10.00">BlackMisc::IProvider</text>
</a>
</g>
</g>
<!-- Node13&#45;&gt;Node12 -->
<g id="edge12" class="edge">
<title>Node13&#45;&gt;Node12</title>
<path fill="none" stroke="midnightblue" d="M146.16,-86.96C160.8,-88.69 176.51,-90.56 191.86,-92.38"/>
<polygon fill="midnightblue" stroke="midnightblue" points="146.56,-83.48 136.22,-85.78 145.73,-90.43 146.56,-83.48"/>
</g>
<!-- Node14 -->
<g id="node14" class="node">
<title>Node14</title>
<g id="a_node14"><a xlink:href="class_black_misc_1_1_simulation_1_1_i_interpolation_setup_provider.html" target="_top" xlink:title="Direct in memory access to interpolation setup, normally implemented by simulator.">
<polygon fill="none" stroke="black" points="204.5,-39 204.5,-69 360.5,-69 360.5,-39 204.5,-39"/>
<text text-anchor="start" x="212.5" y="-57" font-family="Helvetica,sans-Serif" font-size="10.00">BlackMisc::Simulation</text>
<text text-anchor="middle" x="282.5" y="-46" font-family="Helvetica,sans-Serif" font-size="10.00">::IInterpolationSetupProvider</text>
</a>
</g>
</g>
<!-- Node13&#45;&gt;Node14 -->
<g id="edge14" class="edge">
<title>Node13&#45;&gt;Node14</title>
<path fill="none" stroke="midnightblue" d="M146.35,-70.68C164.96,-68.39 185.28,-65.88 204.39,-63.52"/>
<polygon fill="midnightblue" stroke="midnightblue" points="145.71,-67.24 136.22,-71.94 146.57,-74.18 145.71,-67.24"/>
</g>
<!-- Node14&#45;&gt;Node2 -->
<g id="edge13" class="edge">
<title>Node14&#45;&gt;Node2</title>
<path fill="none" stroke="midnightblue" d="M361.46,-73.04C365.45,-74.86 369.32,-76.84 373,-79 413.03,-102.54 448.04,-146.89 462.25,-166.39"/>
<polygon fill="midnightblue" stroke="midnightblue" points="362.56,-69.71 351.99,-69.1 359.88,-76.17 362.56,-69.71"/>
</g>
<!-- Node15 -->
<g id="node15" class="node">
<title>Node15</title>
<g id="a_node15"><a xlink:href="class_black_misc_1_1_c_identifiable.html" target="_top" xlink:title="Base class with a member CIdentifier to be inherited by a class which has an identity in the environm...">
<polygon fill="none" stroke="black" points="215.5,-0.5 215.5,-19.5 349.5,-19.5 349.5,-0.5 215.5,-0.5"/>
<text text-anchor="middle" x="282.5" y="-7.5" font-family="Helvetica,sans-Serif" font-size="10.00">BlackMisc::CIdentifiable</text>
</a>
</g>
</g>
<!-- Node15&#45;&gt;Node2 -->
<g id="edge15" class="edge">
<title>Node15&#45;&gt;Node2</title>
<path fill="none" stroke="midnightblue" d="M359.12,-21.41C364.01,-23.54 368.69,-26.05 373,-29 425.3,-64.84 455.99,-139.48 465.66,-166.21"/>
<polygon fill="midnightblue" stroke="midnightblue" points="360.11,-18.04 349.52,-17.76 357.62,-24.58 360.11,-18.04"/>
</g>
<!-- Node19 -->
<g id="node19" class="node">
<title>Node19</title>
<g id="a_node19"><a xlink:href="class_black_sim_plugin_1_1_fs9_1_1_c_simulator_fs9.html" target="_top" xlink:title="FS9 Simulator Implementation.">
<polygon fill="none" stroke="black" points="966,-161 966,-191 1082,-191 1082,-161 966,-161"/>
<text text-anchor="start" x="974" y="-179" font-family="Helvetica,sans-Serif" font-size="10.00">BlackSimPlugin::Fs9</text>
<text text-anchor="middle" x="1024" y="-168" font-family="Helvetica,sans-Serif" font-size="10.00">::CSimulatorFs9</text>
</a>
</g>
</g>
<!-- Node18&#45;&gt;Node19 -->
<g id="edge19" class="edge">
<title>Node18&#45;&gt;Node19</title>
<path fill="none" stroke="midnightblue" d="M918.04,-162.81C934.21,-164.84 950.75,-166.92 965.77,-168.81"/>
<polygon fill="midnightblue" stroke="midnightblue" points="918.4,-159.33 908.04,-161.55 917.52,-166.27 918.4,-159.33"/>
</g>
<!-- Node20 -->
<g id="node20" class="node">
<title>Node20</title>
<g id="a_node20"><a xlink:href="class_black_sim_plugin_1_1_fsx_common_1_1_c_simulator_fsx_common.html" target="_top" xlink:title="FSX Simulator Implementation.">
<polygon fill="none" stroke="black" points="944,-112 944,-142 1104,-142 1104,-112 944,-112"/>
<text text-anchor="start" x="952" y="-130" font-family="Helvetica,sans-Serif" font-size="10.00">BlackSimPlugin::FsxCommon</text>
<text text-anchor="middle" x="1024" y="-119" font-family="Helvetica,sans-Serif" font-size="10.00">::CSimulatorFsxCommon</text>
</a>
</g>
</g>
<!-- Node18&#45;&gt;Node20 -->
<g id="edge20" class="edge">
<title>Node18&#45;&gt;Node20</title>
<path fill="none" stroke="midnightblue" d="M918.04,-140.74C926.61,-139.62 935.28,-138.48 943.78,-137.37"/>
<polygon fill="midnightblue" stroke="midnightblue" points="917.5,-137.28 908.04,-142.05 918.41,-144.22 917.5,-137.28"/>
</g>
<!-- Node21 -->
<g id="node21" class="node">
<title>Node21</title>
<g id="a_node21"><a xlink:href="class_black_sim_plugin_1_1_fsx_1_1_c_simulator_fsx.html" target="_top" xlink:title="FSX simulator implementation.">
<polygon fill="none" stroke="black" points="1143,-161 1143,-191 1259,-191 1259,-161 1143,-161"/>
<text text-anchor="start" x="1151" y="-179" font-family="Helvetica,sans-Serif" font-size="10.00">BlackSimPlugin::Fsx</text>
<text text-anchor="middle" x="1201" y="-168" font-family="Helvetica,sans-Serif" font-size="10.00">::CSimulatorFsx</text>
</a>
</g>
</g>
<!-- Node20&#45;&gt;Node21 -->
<g id="edge21" class="edge">
<title>Node20&#45;&gt;Node21</title>
<path fill="none" stroke="midnightblue" d="M1088.65,-144.82C1107.54,-150.11 1128.04,-155.85 1146.24,-160.95"/>
<polygon fill="midnightblue" stroke="midnightblue" points="1089.51,-141.43 1078.93,-142.1 1087.62,-148.17 1089.51,-141.43"/>
</g>
<!-- Node22 -->
<g id="node22" class="node">
<title>Node22</title>
<g id="a_node22"><a xlink:href="class_black_sim_plugin_1_1_msfs_1_1_c_simulator_ms_fs.html" target="_top" xlink:title="FSX simulator implementation.">
<polygon fill="none" stroke="black" points="1140,-112 1140,-142 1262,-142 1262,-112 1140,-112"/>
<text text-anchor="start" x="1148" y="-130" font-family="Helvetica,sans-Serif" font-size="10.00">BlackSimPlugin::Msfs</text>
<text text-anchor="middle" x="1201" y="-119" font-family="Helvetica,sans-Serif" font-size="10.00">::CSimulatorMsFs</text>
</a>
</g>
</g>
<!-- Node20&#45;&gt;Node22 -->
<g id="edge22" class="edge">
<title>Node20&#45;&gt;Node22</title>
<path fill="none" stroke="midnightblue" d="M1114.25,-127C1122.94,-127 1131.61,-127 1139.92,-127"/>
<polygon fill="midnightblue" stroke="midnightblue" points="1114.05,-123.5 1104.05,-127 1114.05,-130.5 1114.05,-123.5"/>
</g>
<!-- Node23 -->
<g id="node23" class="node">
<title>Node23</title>
<g id="a_node23"><a xlink:href="class_black_sim_plugin_1_1_p3_d_1_1_c_simulator_p3_d.html" target="_top" xlink:title="P3D Simulator Implementation.">
<polygon fill="none" stroke="black" points="1142,-63 1142,-93 1260,-93 1260,-63 1142,-63"/>
<text text-anchor="start" x="1150" y="-81" font-family="Helvetica,sans-Serif" font-size="10.00">BlackSimPlugin::P3D</text>
<text text-anchor="middle" x="1201" y="-70" font-family="Helvetica,sans-Serif" font-size="10.00">::CSimulatorP3D</text>
</a>
</g>
</g>
<!-- Node20&#45;&gt;Node23 -->
<g id="edge23" class="edge">
<title>Node20&#45;&gt;Node23</title>
<path fill="none" stroke="midnightblue" d="M1088.65,-109.18C1107.54,-103.89 1128.04,-98.15 1146.24,-93.05"/>
<polygon fill="midnightblue" stroke="midnightblue" points="1087.62,-105.83 1078.93,-111.9 1089.51,-112.57 1087.62,-105.83"/>
</g>
</g>
</svg>
