<?xml version="1.0" encoding="UTF-8" standalone="no"?>
<!DOCTYPE svg PUBLIC "-//W3C//DTD SVG 1.1//EN"
 "http://www.w3.org/Graphics/SVG/1.1/DTD/svg11.dtd">
<!-- Generated by graphviz version 2.43.0 (0)
 -->
<!-- Title: BlackGui::Editors::CModelMappingForm Pages: 1 -->
<svg width="173pt" height="475pt"
 viewBox="0.00 0.00 173.00 475.00" xmlns="http://www.w3.org/2000/svg" xmlns:xlink="http://www.w3.org/1999/xlink">
<g id="graph0" class="graph" transform="scale(1 1) rotate(0) translate(4 471)">
<title>BlackGui::Editors::CModelMappingForm</title>
<!-- Node1 -->
<g id="node1" class="node">
<title>Node1</title>
<g id="a_node1"><a xlink:title="Model mapping form.">
<polygon fill="#bfbfbf" stroke="black" points="20,-0.5 20,-30.5 140,-30.5 140,-0.5 20,-0.5"/>
<text text-anchor="start" x="28" y="-18.5" font-family="Helvetica,sans-Serif" font-size="10.00">BlackGui::Editors::</text>
<text text-anchor="middle" x="80" y="-7.5" font-family="Helvetica,sans-Serif" font-size="10.00">CModelMappingForm</text>
</a>
</g>
</g>
<!-- Node2 -->
<g id="node2" class="node">
<title>Node2</title>
<g id="a_node2"><a xlink:href="class_black_gui_1_1_editors_1_1_c_form_db_user.html" target="_top" xlink:title="Form base class.">
<polygon fill="none" stroke="black" points="27,-67.5 27,-97.5 133,-97.5 133,-67.5 27,-67.5"/>
<text text-anchor="start" x="35" y="-85.5" font-family="Helvetica,sans-Serif" font-size="10.00">BlackGui::Editors::</text>
<text text-anchor="middle" x="80" y="-74.5" font-family="Helvetica,sans-Serif" font-size="10.00">CFormDbUser</text>
</a>
</g>
</g>
<!-- Node2&#45;&gt;Node1 -->
<g id="edge1" class="edge">
<title>Node2&#45;&gt;Node1</title>
<path fill="none" stroke="midnightblue" d="M80,-57.11C80,-48.15 80,-38.32 80,-30.58"/>
<polygon fill="midnightblue" stroke="midnightblue" points="76.5,-57.4 80,-67.4 83.5,-57.4 76.5,-57.4"/>
</g>
<!-- Node3 -->
<g id="node3" class="node">
<title>Node3</title>
<g id="a_node3"><a xlink:href="class_black_gui_1_1_editors_1_1_c_form.html" target="_top" xlink:title="Form base class.">
<polygon fill="none" stroke="black" points="27,-134.5 27,-164.5 133,-164.5 133,-134.5 27,-134.5"/>
<text text-anchor="start" x="35" y="-152.5" font-family="Helvetica,sans-Serif" font-size="10.00">BlackGui::Editors::</text>
<text text-anchor="middle" x="80" y="-141.5" font-family="Helvetica,sans-Serif" font-size="10.00">CForm</text>
</a>
</g>
</g>
<!-- Node3&#45;&gt;Node2 -->
<g id="edge2" class="edge">
<title>Node3&#45;&gt;Node2</title>
<path fill="none" stroke="midnightblue" d="M80,-124.11C80,-115.15 80,-105.32 80,-97.58"/>
<polygon fill="midnightblue" stroke="midnightblue" points="76.5,-124.4 80,-134.4 83.5,-124.4 76.5,-124.4"/>
</g>
<!-- Node4 -->
<g id="node4" class="node">
<title>Node4</title>
<g id="a_node4"><a xlink:href="class_black_gui_1_1_c_overlay_messages_frame.html" target="_top" xlink:title="Using this class provides a QFrame with the overlay functionality already integrated.">
<polygon fill="none" stroke="black" points="0,-201.5 0,-231.5 160,-231.5 160,-201.5 0,-201.5"/>
<text text-anchor="start" x="8" y="-219.5" font-family="Helvetica,sans-Serif" font-size="10.00">BlackGui::COverlayMessages</text>
<text text-anchor="middle" x="80" y="-208.5" font-family="Helvetica,sans-Serif" font-size="10.00">Frame</text>
</a>
</g>
</g>
<!-- Node4&#45;&gt;Node3 -->
<g id="edge3" class="edge">
<title>Node4&#45;&gt;Node3</title>
<path fill="none" stroke="midnightblue" d="M80,-191.11C80,-182.15 80,-172.32 80,-164.58"/>
<polygon fill="midnightblue" stroke="midnightblue" points="76.5,-191.4 80,-201.4 83.5,-191.4 76.5,-191.4"/>
</g>
<!-- Node5 -->
<g id="node5" class="node">
<title>Node5</title>
<g id="a_node5"><a xlink:href="class_black_gui_1_1_c_overlay_messages_base.html" target="_top" xlink:title=" ">
<polygon fill="none" stroke="black" points="0,-268.5 0,-298.5 160,-298.5 160,-268.5 0,-268.5"/>
<text text-anchor="start" x="8" y="-286.5" font-family="Helvetica,sans-Serif" font-size="10.00">BlackGui::COverlayMessages</text>
<text text-anchor="middle" x="80" y="-275.5" font-family="Helvetica,sans-Serif" font-size="10.00">Base&lt; QFrame &gt;</text>
</a>
</g>
</g>
<!-- Node5&#45;&gt;Node4 -->
<g id="edge4" class="edge">
<title>Node5&#45;&gt;Node4</title>
<path fill="none" stroke="midnightblue" d="M80,-258.11C80,-249.15 80,-239.32 80,-231.58"/>
<polygon fill="midnightblue" stroke="midnightblue" points="76.5,-258.4 80,-268.4 83.5,-258.4 76.5,-258.4"/>
</g>
<!-- Node6 -->
<g id="node6" class="node">
<title>Node6</title>
<g id="a_node6"><a target="_parent" xlink:href="http://doc.qt.io/qt-5/qframe.html" xlink:title=" ">
<polygon fill="none" stroke="black" points="52.5,-335.5 52.5,-354.5 107.5,-354.5 107.5,-335.5 52.5,-335.5"/>
<text text-anchor="middle" x="80" y="-342.5" font-family="Helvetica,sans-Serif" font-size="10.00">QFrame</text>
</a>
</g>
</g>
<!-- Node6&#45;&gt;Node5 -->
<g id="edge5" class="edge">
<title>Node6&#45;&gt;Node5</title>
<path fill="none" stroke="midnightblue" d="M80,-325.23C80,-316.59 80,-306.5 80,-298.52"/>
<polygon fill="midnightblue" stroke="midnightblue" points="76.5,-325.48 80,-335.48 83.5,-325.48 76.5,-325.48"/>
</g>
<!-- Node7 -->
<g id="node7" class="node">
<title>Node7</title>
<g id="a_node7"><a target="_parent" xlink:href="http://doc.qt.io/qt-5/qwidget.html" xlink:title=" ">
<polygon fill="none" stroke="black" points="50.5,-391.5 50.5,-410.5 109.5,-410.5 109.5,-391.5 50.5,-391.5"/>
<text text-anchor="middle" x="80" y="-398.5" font-family="Helvetica,sans-Serif" font-size="10.00">QWidget</text>
</a>
</g>
</g>
<!-- Node7&#45;&gt;Node6 -->
<g id="edge6" class="edge">
<title>Node7&#45;&gt;Node6</title>
<path fill="none" stroke="midnightblue" d="M80,-380.8C80,-371.91 80,-361.78 80,-354.75"/>
<polygon fill="midnightblue" stroke="midnightblue" points="76.5,-381.08 80,-391.08 83.5,-381.08 76.5,-381.08"/>
</g>
<!-- Node8 -->
<g id="node8" class="node">
<title>Node8</title>
<g id="a_node8"><a target="_parent" xlink:href="http://doc.qt.io/qt-5/qobject.html" xlink:title=" ">
<polygon fill="none" stroke="black" points="9,-447.5 9,-466.5 65,-466.5 65,-447.5 9,-447.5"/>
<text text-anchor="middle" x="37" y="-454.5" font-family="Helvetica,sans-Serif" font-size="10.00">QObject</text>
</a>
</g>
</g>
<!-- Node8&#45;&gt;Node7 -->
<g id="edge7" class="edge">
<title>Node8&#45;&gt;Node7</title>
<path fill="none" stroke="midnightblue" d="M50.42,-439.14C57.91,-429.74 66.94,-418.4 73.03,-410.75"/>
<polygon fill="midnightblue" stroke="midnightblue" points="47.59,-437.08 44.1,-447.08 53.07,-441.44 47.59,-437.08"/>
</g>
<!-- Node9 -->
<g id="node9" class="node">
<title>Node9</title>
<g id="a_node9"><a target="_parent" xlink:href="http://doc.qt.io/qt-5/qpaintdevice.html" xlink:title=" ">
<polygon fill="none" stroke="black" points="83,-447.5 83,-466.5 165,-466.5 165,-447.5 83,-447.5"/>
<text text-anchor="middle" x="124" y="-454.5" font-family="Helvetica,sans-Serif" font-size="10.00">QPaintDevice</text>
</a>
</g>
</g>
<!-- Node9&#45;&gt;Node7 -->
<g id="edge8" class="edge">
<title>Node9&#45;&gt;Node7</title>
<path fill="none" stroke="midnightblue" d="M110.27,-439.14C102.6,-429.74 93.37,-418.4 87.13,-410.75"/>
<polygon fill="midnightblue" stroke="midnightblue" points="107.7,-441.54 116.73,-447.08 113.13,-437.12 107.7,-441.54"/>
</g>
</g>
</svg>
