<?xml version="1.0" encoding="UTF-8" standalone="no"?>
<!DOCTYPE svg PUBLIC "-//W3C//DTD SVG 1.1//EN"
 "http://www.w3.org/Graphics/SVG/1.1/DTD/svg11.dtd">
<!-- Generated by graphviz version 2.43.0 (0)
 -->
<!-- Title: BlackMisc::ITimestampWithOffsetBased Pages: 1 -->
<svg width="539pt" height="137pt"
 viewBox="0.00 0.00 539.00 137.00" xmlns="http://www.w3.org/2000/svg" xmlns:xlink="http://www.w3.org/1999/xlink">
<g id="graph0" class="graph" transform="scale(1 1) rotate(0) translate(4 133)">
<title>BlackMisc::ITimestampWithOffsetBased</title>
<!-- Node1 -->
<g id="node1" class="node">
<title>Node1</title>
<g id="a_node1"><a xlink:title="Entity with timestamp.">
<polygon fill="#bfbfbf" stroke="black" points="197,-49.5 197,-79.5 350,-79.5 350,-49.5 197,-49.5"/>
<text text-anchor="start" x="205" y="-67.5" font-family="Helvetica,sans-Serif" font-size="10.00">BlackMisc::ITimestampWith</text>
<text text-anchor="middle" x="273.5" y="-56.5" font-family="Helvetica,sans-Serif" font-size="10.00">OffsetBased</text>
</a>
</g>
</g>
<!-- Node3 -->
<g id="node3" class="node">
<title>Node3</title>
<g id="a_node3"><a xlink:href="class_black_misc_1_1_aviation_1_1_c_aircraft_parts.html" target="_top" xlink:title="Value object encapsulating information of aircraft&#39;s parts.">
<polygon fill="none" stroke="black" points="402.5,-98.5 402.5,-128.5 514.5,-128.5 514.5,-98.5 402.5,-98.5"/>
<text text-anchor="start" x="410.5" y="-116.5" font-family="Helvetica,sans-Serif" font-size="10.00">BlackMisc::Aviation</text>
<text text-anchor="middle" x="458.5" y="-105.5" font-family="Helvetica,sans-Serif" font-size="10.00">::CAircraftParts</text>
</a>
</g>
</g>
<!-- Node1&#45;&gt;Node3 -->
<g id="edge2" class="edge">
<title>Node1&#45;&gt;Node3</title>
<path fill="none" stroke="midnightblue" d="M340.65,-82.21C360.85,-87.62 382.83,-93.51 402.23,-98.7"/>
<polygon fill="midnightblue" stroke="midnightblue" points="341.46,-78.81 330.9,-79.6 339.65,-85.57 341.46,-78.81"/>
</g>
<!-- Node4 -->
<g id="node4" class="node">
<title>Node4</title>
<g id="a_node4"><a xlink:href="class_black_misc_1_1_aviation_1_1_c_aircraft_situation.html" target="_top" xlink:title="Value object encapsulating information of an aircraft&#39;s situation.">
<polygon fill="none" stroke="black" points="402.5,-49.5 402.5,-79.5 514.5,-79.5 514.5,-49.5 402.5,-49.5"/>
<text text-anchor="start" x="410.5" y="-67.5" font-family="Helvetica,sans-Serif" font-size="10.00">BlackMisc::Aviation</text>
<text text-anchor="middle" x="458.5" y="-56.5" font-family="Helvetica,sans-Serif" font-size="10.00">::CAircraftSituation</text>
</a>
</g>
</g>
<!-- Node1&#45;&gt;Node4 -->
<g id="edge3" class="edge">
<title>Node1&#45;&gt;Node4</title>
<path fill="none" stroke="midnightblue" d="M360.58,-64.5C374.83,-64.5 389.26,-64.5 402.47,-64.5"/>
<polygon fill="midnightblue" stroke="midnightblue" points="360.25,-61 350.25,-64.5 360.25,-68 360.25,-61"/>
</g>
<!-- Node5 -->
<g id="node5" class="node">
<title>Node5</title>
<g id="a_node5"><a xlink:href="class_black_misc_1_1_aviation_1_1_c_aircraft_situation_change.html" target="_top" xlink:title="Value object about changes in situations.">
<polygon fill="none" stroke="black" points="386,-0.5 386,-30.5 531,-30.5 531,-0.5 386,-0.5"/>
<text text-anchor="start" x="394" y="-18.5" font-family="Helvetica,sans-Serif" font-size="10.00">BlackMisc::Aviation</text>
<text text-anchor="middle" x="458.5" y="-7.5" font-family="Helvetica,sans-Serif" font-size="10.00">::CAircraftSituationChange</text>
</a>
</g>
</g>
<!-- Node1&#45;&gt;Node5 -->
<g id="edge4" class="edge">
<title>Node1&#45;&gt;Node5</title>
<path fill="none" stroke="midnightblue" d="M340.79,-46.75C360.62,-41.44 382.17,-35.67 401.29,-30.55"/>
<polygon fill="midnightblue" stroke="midnightblue" points="339.65,-43.43 330.9,-49.4 341.46,-50.19 339.65,-43.43"/>
</g>
<!-- Node2 -->
<g id="node2" class="node">
<title>Node2</title>
<g id="a_node2"><a xlink:href="class_black_misc_1_1_i_timestamp_based.html" target="_top" xlink:title="Entity with timestamp.">
<polygon fill="none" stroke="black" points="0,-55 0,-74 161,-74 161,-55 0,-55"/>
<text text-anchor="middle" x="80.5" y="-62" font-family="Helvetica,sans-Serif" font-size="10.00">BlackMisc::ITimestampBased</text>
</a>
</g>
</g>
<!-- Node2&#45;&gt;Node1 -->
<g id="edge1" class="edge">
<title>Node2&#45;&gt;Node1</title>
<path fill="none" stroke="midnightblue" d="M171.2,-64.5C179.83,-64.5 188.52,-64.5 196.99,-64.5"/>
<polygon fill="midnightblue" stroke="midnightblue" points="171.12,-61 161.12,-64.5 171.12,-68 171.12,-61"/>
</g>
</g>
</svg>
