<?xml version="1.0" encoding="UTF-8" standalone="no"?>
<!DOCTYPE svg PUBLIC "-//W3C//DTD SVG 1.1//EN"
 "http://www.w3.org/Graphics/SVG/1.1/DTD/svg11.dtd">
<!-- Generated by graphviz version 2.43.0 (0)
 -->
<!-- Title: BlackGui::Components::CDbMappingComponent Pages: 1 -->
<svg width="845pt" height="151pt"
 viewBox="0.00 0.00 845.00 150.50" xmlns="http://www.w3.org/2000/svg" xmlns:xlink="http://www.w3.org/1999/xlink">
<g id="graph0" class="graph" transform="scale(1 1) rotate(0) translate(4 146.5)">
<title>BlackGui::Components::CDbMappingComponent</title>
<!-- Node1 -->
<g id="node1" class="node">
<title>Node1</title>
<g id="a_node1"><a xlink:title="Mapping component.">
<polygon fill="#bfbfbf" stroke="black" points="696,-49.5 696,-79.5 837,-79.5 837,-49.5 696,-49.5"/>
<text text-anchor="start" x="704" y="-67.5" font-family="Helvetica,sans-Serif" font-size="10.00">BlackGui::Components</text>
<text text-anchor="middle" x="766.5" y="-56.5" font-family="Helvetica,sans-Serif" font-size="10.00">::CDbMappingComponent</text>
</a>
</g>
</g>
<!-- Node2 -->
<g id="node2" class="node">
<title>Node2</title>
<g id="a_node2"><a xlink:href="class_black_gui_1_1_c_overlay_messages_frame.html" target="_top" xlink:title="Using this class provides a QFrame with the overlay functionality already integrated.">
<polygon fill="none" stroke="black" points="500,-98.5 500,-128.5 660,-128.5 660,-98.5 500,-98.5"/>
<text text-anchor="start" x="508" y="-116.5" font-family="Helvetica,sans-Serif" font-size="10.00">BlackGui::COverlayMessages</text>
<text text-anchor="middle" x="580" y="-105.5" font-family="Helvetica,sans-Serif" font-size="10.00">Frame</text>
</a>
</g>
</g>
<!-- Node2&#45;&gt;Node1 -->
<g id="edge1" class="edge">
<title>Node2&#45;&gt;Node1</title>
<path fill="none" stroke="midnightblue" d="M647.36,-95.88C667.54,-90.52 689.53,-84.68 709,-79.51"/>
<polygon fill="midnightblue" stroke="midnightblue" points="646.38,-92.52 637.61,-98.47 648.17,-99.28 646.38,-92.52"/>
</g>
<!-- Node3 -->
<g id="node3" class="node">
<title>Node3</title>
<g id="a_node3"><a xlink:href="class_black_gui_1_1_c_overlay_messages_base.html" target="_top" xlink:title=" ">
<polygon fill="none" stroke="black" points="304,-98.5 304,-128.5 464,-128.5 464,-98.5 304,-98.5"/>
<text text-anchor="start" x="312" y="-116.5" font-family="Helvetica,sans-Serif" font-size="10.00">BlackGui::COverlayMessages</text>
<text text-anchor="middle" x="384" y="-105.5" font-family="Helvetica,sans-Serif" font-size="10.00">Base&lt; QFrame &gt;</text>
</a>
</g>
</g>
<!-- Node3&#45;&gt;Node2 -->
<g id="edge2" class="edge">
<title>Node3&#45;&gt;Node2</title>
<path fill="none" stroke="midnightblue" d="M474.44,-113.5C482.88,-113.5 491.41,-113.5 499.75,-113.5"/>
<polygon fill="midnightblue" stroke="midnightblue" points="474.19,-110 464.19,-113.5 474.19,-117 474.19,-110"/>
</g>
<!-- Node4 -->
<g id="node4" class="node">
<title>Node4</title>
<g id="a_node4"><a target="_parent" xlink:href="http://doc.qt.io/qt-5/qframe.html" xlink:title=" ">
<polygon fill="none" stroke="black" points="213,-104 213,-123 268,-123 268,-104 213,-104"/>
<text text-anchor="middle" x="240.5" y="-111" font-family="Helvetica,sans-Serif" font-size="10.00">QFrame</text>
</a>
</g>
</g>
<!-- Node4&#45;&gt;Node3 -->
<g id="edge3" class="edge">
<title>Node4&#45;&gt;Node3</title>
<path fill="none" stroke="midnightblue" d="M278.17,-113.5C286.19,-113.5 294.98,-113.5 303.95,-113.5"/>
<polygon fill="midnightblue" stroke="midnightblue" points="278.12,-110 268.12,-113.5 278.12,-117 278.12,-110"/>
</g>
<!-- Node5 -->
<g id="node5" class="node">
<title>Node5</title>
<g id="a_node5"><a target="_parent" xlink:href="http://doc.qt.io/qt-5/qwidget.html" xlink:title=" ">
<polygon fill="none" stroke="black" points="118,-104 118,-123 177,-123 177,-104 118,-104"/>
<text text-anchor="middle" x="147.5" y="-111" font-family="Helvetica,sans-Serif" font-size="10.00">QWidget</text>
</a>
</g>
</g>
<!-- Node5&#45;&gt;Node4 -->
<g id="edge4" class="edge">
<title>Node5&#45;&gt;Node4</title>
<path fill="none" stroke="midnightblue" d="M187.46,-113.5C195.99,-113.5 204.83,-113.5 212.75,-113.5"/>
<polygon fill="midnightblue" stroke="midnightblue" points="187.29,-110 177.29,-113.5 187.29,-117 187.29,-110"/>
</g>
<!-- Node6 -->
<g id="node6" class="node">
<title>Node6</title>
<g id="a_node6"><a target="_parent" xlink:href="http://doc.qt.io/qt-5/qobject.html" xlink:title=" ">
<polygon fill="none" stroke="black" points="13,-123 13,-142 69,-142 69,-123 13,-123"/>
<text text-anchor="middle" x="41" y="-130" font-family="Helvetica,sans-Serif" font-size="10.00">QObject</text>
</a>
</g>
</g>
<!-- Node6&#45;&gt;Node5 -->
<g id="edge5" class="edge">
<title>Node6&#45;&gt;Node5</title>
<path fill="none" stroke="midnightblue" d="M79.09,-125.76C91.88,-123.43 106,-120.86 117.99,-118.68"/>
<polygon fill="midnightblue" stroke="midnightblue" points="78.4,-122.33 69.18,-127.56 79.65,-129.21 78.4,-122.33"/>
</g>
<!-- Node7 -->
<g id="node7" class="node">
<title>Node7</title>
<g id="a_node7"><a target="_parent" xlink:href="http://doc.qt.io/qt-5/qpaintdevice.html" xlink:title=" ">
<polygon fill="none" stroke="black" points="0,-85 0,-104 82,-104 82,-85 0,-85"/>
<text text-anchor="middle" x="41" y="-92" font-family="Helvetica,sans-Serif" font-size="10.00">QPaintDevice</text>
</a>
</g>
</g>
<!-- Node7&#45;&gt;Node5 -->
<g id="edge6" class="edge">
<title>Node7&#45;&gt;Node5</title>
<path fill="none" stroke="midnightblue" d="M91.97,-103.59C100.8,-105.19 109.71,-106.81 117.69,-108.26"/>
<polygon fill="midnightblue" stroke="midnightblue" points="92.57,-100.14 82.1,-101.79 91.32,-107.02 92.57,-100.14"/>
</g>
<!-- Node8 -->
<g id="node8" class="node">
<title>Node8</title>
<g id="a_node8"><a xlink:href="class_black_gui_1_1_c_enable_for_dock_widget_info_area.html" target="_top" xlink:title="Helper class: If a component is residing in an dockable widget. This class provides access to its inf...">
<polygon fill="none" stroke="black" points="507,-49.5 507,-79.5 653,-79.5 653,-49.5 507,-49.5"/>
<text text-anchor="start" x="515" y="-67.5" font-family="Helvetica,sans-Serif" font-size="10.00">BlackGui::CEnableForDock</text>
<text text-anchor="middle" x="580" y="-56.5" font-family="Helvetica,sans-Serif" font-size="10.00">WidgetInfoArea</text>
</a>
</g>
</g>
<!-- Node8&#45;&gt;Node1 -->
<g id="edge7" class="edge">
<title>Node8&#45;&gt;Node1</title>
<path fill="none" stroke="midnightblue" d="M663.43,-64.5C674.25,-64.5 685.26,-64.5 695.84,-64.5"/>
<polygon fill="midnightblue" stroke="midnightblue" points="663.13,-61 653.13,-64.5 663.13,-68 663.13,-61"/>
</g>
<!-- Node9 -->
<g id="node9" class="node">
<title>Node9</title>
<g id="a_node9"><a xlink:href="class_black_gui_1_1_c_enable_for_view_based_indicator.html" target="_top" xlink:title="Hand over indication task to an embedded view.">
<polygon fill="none" stroke="black" points="507.5,-0.5 507.5,-30.5 652.5,-30.5 652.5,-0.5 507.5,-0.5"/>
<text text-anchor="start" x="515.5" y="-18.5" font-family="Helvetica,sans-Serif" font-size="10.00">BlackGui::CEnableForView</text>
<text text-anchor="middle" x="580" y="-7.5" font-family="Helvetica,sans-Serif" font-size="10.00">BasedIndicator</text>
</a>
</g>
</g>
<!-- Node9&#45;&gt;Node1 -->
<g id="edge8" class="edge">
<title>Node9&#45;&gt;Node1</title>
<path fill="none" stroke="midnightblue" d="M647.36,-33.12C667.54,-38.48 689.53,-44.32 709,-49.49"/>
<polygon fill="midnightblue" stroke="midnightblue" points="648.17,-29.72 637.61,-30.53 646.38,-36.48 648.17,-29.72"/>
</g>
</g>
</svg>
