<?xml version="1.0" encoding="UTF-8" standalone="no"?>
<!DOCTYPE svg PUBLIC "-//W3C//DTD SVG 1.1//EN"
 "http://www.w3.org/Graphics/SVG/1.1/DTD/svg11.dtd">
<!-- Generated by graphviz version 2.43.0 (0)
 -->
<!-- Title: BlackWxPlugin::Gfs::CWeatherDataGfsFactory Pages: 1 -->
<svg width="256pt" height="95pt"
 viewBox="0.00 0.00 256.00 95.00" xmlns="http://www.w3.org/2000/svg" xmlns:xlink="http://www.w3.org/1999/xlink">
<g id="graph0" class="graph" transform="scale(1 1) rotate(0) translate(4 91)">
<title>BlackWxPlugin::Gfs::CWeatherDataGfsFactory</title>
<!-- Node1 -->
<g id="node1" class="node">
<title>Node1</title>
<g id="a_node1"><a xlink:title="Factory for creating CWeatherDataGfs instance.">
<polygon fill="#bfbfbf" stroke="black" points="21.5,-0.5 21.5,-30.5 166.5,-30.5 166.5,-0.5 21.5,-0.5"/>
<text text-anchor="start" x="29.5" y="-18.5" font-family="Helvetica,sans-Serif" font-size="10.00">BlackWxPlugin::Gfs</text>
<text text-anchor="middle" x="94" y="-7.5" font-family="Helvetica,sans-Serif" font-size="10.00">::CWeatherDataGfsFactory</text>
</a>
</g>
</g>
<!-- Node2 -->
<g id="node2" class="node">
<title>Node2</title>
<g id="a_node2"><a target="_parent" xlink:href="http://doc.qt.io/qt-5/qobject.html" xlink:title=" ">
<polygon fill="none" stroke="black" points="0,-67.5 0,-86.5 56,-86.5 56,-67.5 0,-67.5"/>
<text text-anchor="middle" x="28" y="-74.5" font-family="Helvetica,sans-Serif" font-size="10.00">QObject</text>
</a>
</g>
</g>
<!-- Node2&#45;&gt;Node1 -->
<g id="edge1" class="edge">
<title>Node2&#45;&gt;Node1</title>
<path fill="none" stroke="midnightblue" d="M45.03,-60.65C55.35,-51.35 68.41,-39.57 78.45,-30.52"/>
<polygon fill="midnightblue" stroke="midnightblue" points="42.54,-58.18 37.46,-67.48 47.23,-63.38 42.54,-58.18"/>
</g>
<!-- Node3 -->
<g id="node3" class="node">
<title>Node3</title>
<g id="a_node3"><a xlink:href="class_black_core_1_1_i_weather_data_factory.html" target="_top" xlink:title="Factory pattern class to create instances of IWeatherData.">
<polygon fill="none" stroke="black" points="74,-67.5 74,-86.5 248,-86.5 248,-67.5 74,-67.5"/>
<text text-anchor="middle" x="161" y="-74.5" font-family="Helvetica,sans-Serif" font-size="10.00">BlackCore::IWeatherDataFactory</text>
</a>
</g>
</g>
<!-- Node3&#45;&gt;Node1 -->
<g id="edge2" class="edge">
<title>Node3&#45;&gt;Node1</title>
<path fill="none" stroke="midnightblue" d="M143.71,-60.65C133.24,-51.35 119.98,-39.57 109.79,-30.52"/>
<polygon fill="midnightblue" stroke="midnightblue" points="141.6,-63.45 151.4,-67.48 146.25,-58.22 141.6,-63.45"/>
</g>
</g>
</svg>
