<?xml version="1.0" encoding="UTF-8" standalone="no"?>
<!DOCTYPE svg PUBLIC "-//W3C//DTD SVG 1.1//EN"
 "http://www.w3.org/Graphics/SVG/1.1/DTD/svg11.dtd">
<!-- Generated by graphviz version 2.43.0 (0)
 -->
<!-- Title: BlackMisc::Simulation::CInterpolationSetupList Pages: 1 -->
<svg width="826pt" height="312pt"
 viewBox="0.00 0.00 826.00 312.00" xmlns="http://www.w3.org/2000/svg" xmlns:xlink="http://www.w3.org/1999/xlink">
<g id="graph0" class="graph" transform="scale(1 1) rotate(0) translate(4 308)">
<title>BlackMisc::Simulation::CInterpolationSetupList</title>
<!-- Node1 -->
<g id="node1" class="node">
<title>Node1</title>
<g id="a_node1"><a xlink:title="Value object encapsulating a list of setups.">
<polygon fill="#bfbfbf" stroke="black" points="681,-60.5 681,-90.5 818,-90.5 818,-60.5 681,-60.5"/>
<text text-anchor="start" x="689" y="-78.5" font-family="Helvetica,sans-Serif" font-size="10.00">BlackMisc::Simulation</text>
<text text-anchor="middle" x="749.5" y="-67.5" font-family="Helvetica,sans-Serif" font-size="10.00">::CInterpolationSetupList</text>
</a>
</g>
</g>
<!-- Node2 -->
<g id="node2" class="node">
<title>Node2</title>
<g id="a_node2"><a xlink:href="class_black_misc_1_1_c_sequence.html" target="_top" xlink:title=" ">
<polygon fill="none" stroke="black" points="447.5,-121 447.5,-162 612.5,-162 612.5,-121 447.5,-121"/>
<text text-anchor="start" x="455.5" y="-150" font-family="Helvetica,sans-Serif" font-size="10.00">BlackMisc::CSequence</text>
<text text-anchor="start" x="455.5" y="-139" font-family="Helvetica,sans-Serif" font-size="10.00">&lt; CInterpolationAndRendering</text>
<text text-anchor="middle" x="530" y="-128" font-family="Helvetica,sans-Serif" font-size="10.00">SetupPerCallsign &gt;</text>
</a>
</g>
</g>
<!-- Node2&#45;&gt;Node1 -->
<g id="edge1" class="edge">
<title>Node2&#45;&gt;Node1</title>
<path fill="none" stroke="midnightblue" d="M618.71,-118.23C627.61,-115.69 636.5,-113.09 645,-110.5 665.14,-104.36 687.27,-96.97 705.89,-90.56"/>
<polygon fill="midnightblue" stroke="midnightblue" points="617.74,-114.86 609.06,-120.95 619.64,-121.6 617.74,-114.86"/>
</g>
<!-- Node3 -->
<g id="node3" class="node">
<title>Node3</title>
<g id="a_node3"><a xlink:href="class_black_misc_1_1_c_container_base.html" target="_top" xlink:title="Base class for CCollection and CSequence adding mutating operations and CValueObject facility on top ...">
<polygon fill="none" stroke="black" points="222,-175.5 222,-205.5 372,-205.5 372,-175.5 222,-175.5"/>
<text text-anchor="start" x="230" y="-193.5" font-family="Helvetica,sans-Serif" font-size="10.00">BlackMisc::CContainerBase</text>
<text text-anchor="middle" x="297" y="-182.5" font-family="Helvetica,sans-Serif" font-size="10.00">&lt; Derived &gt;</text>
</a>
</g>
</g>
<!-- Node3&#45;&gt;Node2 -->
<g id="edge2" class="edge">
<title>Node3&#45;&gt;Node2</title>
<path fill="none" stroke="midnightblue" d="M378.92,-173.34C401.08,-168.63 425.12,-163.53 447.33,-158.82"/>
<polygon fill="midnightblue" stroke="midnightblue" points="377.93,-169.97 368.88,-175.47 379.39,-176.81 377.93,-169.97"/>
</g>
<!-- Node4 -->
<g id="node4" class="node">
<title>Node4</title>
<g id="a_node4"><a xlink:href="class_black_misc_1_1_c_range_base.html" target="_top" xlink:title="Any container class with begin and end iterators can inherit from this CRTP class to gain some useful...">
<polygon fill="none" stroke="black" points="22.5,-273.5 22.5,-303.5 156.5,-303.5 156.5,-273.5 22.5,-273.5"/>
<text text-anchor="start" x="30.5" y="-291.5" font-family="Helvetica,sans-Serif" font-size="10.00">BlackMisc::CRangeBase</text>
<text text-anchor="middle" x="89.5" y="-280.5" font-family="Helvetica,sans-Serif" font-size="10.00">&lt; Derived &gt;</text>
</a>
</g>
</g>
<!-- Node4&#45;&gt;Node3 -->
<g id="edge3" class="edge">
<title>Node4&#45;&gt;Node3</title>
<path fill="none" stroke="midnightblue" d="M164.63,-270.19C169.55,-268.43 174.38,-266.53 179,-264.5 215.52,-248.44 253.87,-222.09 276.33,-205.55"/>
<polygon fill="midnightblue" stroke="midnightblue" points="163.44,-266.9 155.09,-273.42 165.69,-273.53 163.44,-266.9"/>
</g>
<!-- Node5 -->
<g id="node5" class="node">
<title>Node5</title>
<g id="a_node5"><a xlink:href="class_black_misc_1_1_mixin_1_1_meta_type.html" target="_top" xlink:title="CRTP class template from which a derived class can inherit common methods dealing with the metatype o...">
<polygon fill="none" stroke="black" points="13.5,-224.5 13.5,-254.5 165.5,-254.5 165.5,-224.5 13.5,-224.5"/>
<text text-anchor="start" x="21.5" y="-242.5" font-family="Helvetica,sans-Serif" font-size="10.00">BlackMisc::Mixin::MetaType</text>
<text text-anchor="middle" x="89.5" y="-231.5" font-family="Helvetica,sans-Serif" font-size="10.00">&lt; Derived &gt;</text>
</a>
</g>
</g>
<!-- Node5&#45;&gt;Node3 -->
<g id="edge4" class="edge">
<title>Node5&#45;&gt;Node3</title>
<path fill="none" stroke="midnightblue" d="M163.49,-222.1C186.22,-216.68 211.08,-210.75 233.07,-205.51"/>
<polygon fill="midnightblue" stroke="midnightblue" points="162.47,-218.74 153.55,-224.47 164.09,-225.55 162.47,-218.74"/>
</g>
<!-- Node6 -->
<g id="node6" class="node">
<title>Node6</title>
<g id="a_node6"><a xlink:href="class_black_misc_1_1_mixin_1_1_d_bus_operators.html" target="_top" xlink:title=" ">
<polygon fill="none" stroke="black" points="0,-175.5 0,-205.5 179,-205.5 179,-175.5 0,-175.5"/>
<text text-anchor="start" x="8" y="-193.5" font-family="Helvetica,sans-Serif" font-size="10.00">BlackMisc::Mixin::DBusOperators</text>
<text text-anchor="middle" x="89.5" y="-182.5" font-family="Helvetica,sans-Serif" font-size="10.00">&lt; Derived &gt;</text>
</a>
</g>
</g>
<!-- Node6&#45;&gt;Node3 -->
<g id="edge5" class="edge">
<title>Node6&#45;&gt;Node3</title>
<path fill="none" stroke="midnightblue" d="M189.19,-190.5C200.17,-190.5 211.22,-190.5 221.82,-190.5"/>
<polygon fill="midnightblue" stroke="midnightblue" points="189.14,-187 179.14,-190.5 189.14,-194 189.14,-187"/>
</g>
<!-- Node7 -->
<g id="node7" class="node">
<title>Node7</title>
<g id="a_node7"><a xlink:href="class_black_misc_1_1_mixin_1_1_json_operators.html" target="_top" xlink:title="CRTP class template which will generate marshalling operators for a derived class with its own marsha...">
<polygon fill="none" stroke="black" points="3,-126.5 3,-156.5 176,-156.5 176,-126.5 3,-126.5"/>
<text text-anchor="start" x="11" y="-144.5" font-family="Helvetica,sans-Serif" font-size="10.00">BlackMisc::Mixin::JsonOperators</text>
<text text-anchor="middle" x="89.5" y="-133.5" font-family="Helvetica,sans-Serif" font-size="10.00">&lt; Derived &gt;</text>
</a>
</g>
</g>
<!-- Node7&#45;&gt;Node3 -->
<g id="edge6" class="edge">
<title>Node7&#45;&gt;Node3</title>
<path fill="none" stroke="midnightblue" d="M163.49,-158.9C186.22,-164.32 211.08,-170.25 233.07,-175.49"/>
<polygon fill="midnightblue" stroke="midnightblue" points="164.09,-155.45 153.55,-156.53 162.47,-162.26 164.09,-155.45"/>
</g>
<!-- Node8 -->
<g id="node8" class="node">
<title>Node8</title>
<g id="a_node8"><a xlink:href="class_black_misc_1_1_mixin_1_1_string.html" target="_top" xlink:title="CRTP class template from which a derived class can inherit string streaming operations.">
<polygon fill="none" stroke="black" points="22.5,-77.5 22.5,-107.5 156.5,-107.5 156.5,-77.5 22.5,-77.5"/>
<text text-anchor="start" x="30.5" y="-95.5" font-family="Helvetica,sans-Serif" font-size="10.00">BlackMisc::Mixin::String</text>
<text text-anchor="middle" x="89.5" y="-84.5" font-family="Helvetica,sans-Serif" font-size="10.00">&lt; Derived &gt;</text>
</a>
</g>
</g>
<!-- Node8&#45;&gt;Node3 -->
<g id="edge7" class="edge">
<title>Node8&#45;&gt;Node3</title>
<path fill="none" stroke="midnightblue" d="M166.04,-109.09C170.58,-111.26 174.95,-113.72 179,-116.5 201.29,-131.78 192.98,-149.84 215,-165.5 220.4,-169.34 226.4,-172.6 232.63,-175.37"/>
<polygon fill="midnightblue" stroke="midnightblue" points="167.09,-105.73 156.52,-105.01 164.34,-112.17 167.09,-105.73"/>
</g>
<!-- Node9 -->
<g id="node9" class="node">
<title>Node9</title>
<g id="a_node9"><a xlink:href="class_black_misc_1_1_mixin_1_1_data_stream_operators.html" target="_top" xlink:title="CRTP class template to generate non&#45;member QDataStream streaming operators.">
<polygon fill="none" stroke="black" points="215,-126.5 215,-156.5 379,-156.5 379,-126.5 215,-126.5"/>
<text text-anchor="start" x="223" y="-144.5" font-family="Helvetica,sans-Serif" font-size="10.00">BlackMisc::Mixin::DataStream</text>
<text text-anchor="middle" x="297" y="-133.5" font-family="Helvetica,sans-Serif" font-size="10.00">Operators&lt; Derived &gt;</text>
</a>
</g>
</g>
<!-- Node9&#45;&gt;Node2 -->
<g id="edge8" class="edge">
<title>Node9&#45;&gt;Node2</title>
<path fill="none" stroke="midnightblue" d="M389.33,-141.5C408.47,-141.5 428.54,-141.5 447.3,-141.5"/>
<polygon fill="midnightblue" stroke="midnightblue" points="389.12,-138 379.12,-141.5 389.12,-145 389.12,-138"/>
</g>
<!-- Node10 -->
<g id="node10" class="node">
<title>Node10</title>
<g id="a_node10"><a xlink:href="class_black_misc_1_1_mixin_1_1_icon.html" target="_top" xlink:title="CRTP class template from which a derived class can inherit icon&#45;related functions.">
<polygon fill="none" stroke="black" points="231.5,-77.5 231.5,-107.5 362.5,-107.5 362.5,-77.5 231.5,-77.5"/>
<text text-anchor="start" x="239.5" y="-95.5" font-family="Helvetica,sans-Serif" font-size="10.00">BlackMisc::Mixin::Icon</text>
<text text-anchor="middle" x="297" y="-84.5" font-family="Helvetica,sans-Serif" font-size="10.00">&lt; Derived, IconIndex &gt;</text>
</a>
</g>
</g>
<!-- Node10&#45;&gt;Node2 -->
<g id="edge9" class="edge">
<title>Node10&#45;&gt;Node2</title>
<path fill="none" stroke="midnightblue" d="M372.71,-108.35C396.57,-113.41 423.11,-119.04 447.44,-124.2"/>
<polygon fill="midnightblue" stroke="midnightblue" points="373.16,-104.87 362.65,-106.21 371.71,-111.71 373.16,-104.87"/>
</g>
<!-- Node11 -->
<g id="node11" class="node">
<title>Node11</title>
<g id="a_node11"><a xlink:href="class_black_misc_1_1_aviation_1_1_i_callsign_object_list.html" target="_top" xlink:title=" ">
<polygon fill="none" stroke="black" points="415,-49.5 415,-101.5 645,-101.5 645,-49.5 415,-49.5"/>
<text text-anchor="start" x="423" y="-89.5" font-family="Helvetica,sans-Serif" font-size="10.00">BlackMisc::Aviation</text>
<text text-anchor="start" x="423" y="-78.5" font-family="Helvetica,sans-Serif" font-size="10.00">::ICallsignObjectList</text>
<text text-anchor="start" x="423" y="-67.5" font-family="Helvetica,sans-Serif" font-size="10.00">&lt; CInterpolationAndRendering</text>
<text text-anchor="middle" x="530" y="-56.5" font-family="Helvetica,sans-Serif" font-size="10.00">SetupPerCallsign, CInterpolationSetupList &gt;</text>
</a>
</g>
</g>
<!-- Node11&#45;&gt;Node1 -->
<g id="edge10" class="edge">
<title>Node11&#45;&gt;Node1</title>
<path fill="none" stroke="midnightblue" d="M655.43,-75.5C664.13,-75.5 672.69,-75.5 680.89,-75.5"/>
<polygon fill="midnightblue" stroke="midnightblue" points="655.16,-72 645.16,-75.5 655.16,-79 655.16,-72"/>
</g>
<!-- Node12 -->
<g id="node12" class="node">
<title>Node12</title>
<g id="a_node12"><a xlink:href="class_black_misc_1_1_mixin_1_1_meta_type.html" target="_top" xlink:title=" ">
<polygon fill="none" stroke="black" points="453.5,-0.5 453.5,-30.5 606.5,-30.5 606.5,-0.5 453.5,-0.5"/>
<text text-anchor="start" x="461.5" y="-18.5" font-family="Helvetica,sans-Serif" font-size="10.00">BlackMisc::Mixin::MetaType</text>
<text text-anchor="middle" x="530" y="-7.5" font-family="Helvetica,sans-Serif" font-size="10.00">&lt; CInterpolationSetupList &gt;</text>
</a>
</g>
</g>
<!-- Node12&#45;&gt;Node1 -->
<g id="edge11" class="edge">
<title>Node12&#45;&gt;Node1</title>
<path fill="none" stroke="midnightblue" d="M616.72,-32.31C626.3,-34.56 635.89,-36.97 645,-39.5 666.45,-45.46 689.91,-53.49 709.06,-60.46"/>
<polygon fill="midnightblue" stroke="midnightblue" points="617.28,-28.85 606.75,-30.04 615.72,-35.68 617.28,-28.85"/>
</g>
</g>
</svg>
