<?xml version="1.0" encoding="UTF-8" standalone="no"?>
<!DOCTYPE svg PUBLIC "-//W3C//DTD SVG 1.1//EN"
 "http://www.w3.org/Graphics/SVG/1.1/DTD/svg11.dtd">
<!-- Generated by graphviz version 2.43.0 (0)
 -->
<!-- Title: BlackGui::Models::CValueObjectFormatter Pages: 1 -->
<svg width="834pt" height="467pt"
 viewBox="0.00 0.00 834.00 466.50" xmlns="http://www.w3.org/2000/svg" xmlns:xlink="http://www.w3.org/1999/xlink">
<g id="graph0" class="graph" transform="scale(1 1) rotate(0) translate(4 462.5)">
<title>BlackGui::Models::CValueObjectFormatter</title>
<!-- Node1 -->
<g id="node1" class="node">
<title>Node1</title>
<g id="a_node1"><a xlink:title="Default formatter when column contains CValueObject.">
<polygon fill="#bfbfbf" stroke="black" points="186,-175.5 186,-205.5 327,-205.5 327,-175.5 186,-175.5"/>
<text text-anchor="start" x="194" y="-193.5" font-family="Helvetica,sans-Serif" font-size="10.00">BlackGui::Models::CValue</text>
<text text-anchor="middle" x="256.5" y="-182.5" font-family="Helvetica,sans-Serif" font-size="10.00">ObjectFormatter</text>
</a>
</g>
</g>
<!-- Node3 -->
<g id="node3" class="node">
<title>Node3</title>
<g id="a_node3"><a xlink:href="class_black_gui_1_1_models_1_1_c_physiqal_quantiy_formatter.html" target="_top" xlink:title=" ">
<polygon fill="none" stroke="black" points="392,-395 392,-458 574,-458 574,-395 392,-395"/>
<text text-anchor="start" x="400" y="-446" font-family="Helvetica,sans-Serif" font-size="10.00">BlackGui::Models::CPhysiqal</text>
<text text-anchor="start" x="400" y="-435" font-family="Helvetica,sans-Serif" font-size="10.00">QuantiyFormatter&lt; BlackMisc</text>
<text text-anchor="start" x="400" y="-424" font-family="Helvetica,sans-Serif" font-size="10.00">::PhysicalQuantities::CLengthUnit,</text>
<text text-anchor="start" x="400" y="-413" font-family="Helvetica,sans-Serif" font-size="10.00"> BlackMisc::PhysicalQuantities</text>
<text text-anchor="middle" x="483" y="-402" font-family="Helvetica,sans-Serif" font-size="10.00">::CLength &gt;</text>
</a>
</g>
</g>
<!-- Node1&#45;&gt;Node3 -->
<g id="edge2" class="edge">
<title>Node1&#45;&gt;Node3</title>
<path fill="none" stroke="midnightblue" d="M264.45,-215.39C277.2,-256.58 308.18,-339.01 363,-385.5 371.58,-392.78 381.53,-398.79 391.94,-403.74"/>
<polygon fill="midnightblue" stroke="midnightblue" points="267.75,-214.19 261.53,-205.62 261.04,-216.2 267.75,-214.19"/>
</g>
<!-- Node5 -->
<g id="node5" class="node">
<title>Node5</title>
<g id="a_node5"><a xlink:href="class_black_gui_1_1_models_1_1_c_physiqal_quantiy_formatter.html" target="_top" xlink:title=" ">
<polygon fill="none" stroke="black" points="394.5,-313 394.5,-376 571.5,-376 571.5,-313 394.5,-313"/>
<text text-anchor="start" x="402.5" y="-364" font-family="Helvetica,sans-Serif" font-size="10.00">BlackGui::Models::CPhysiqal</text>
<text text-anchor="start" x="402.5" y="-353" font-family="Helvetica,sans-Serif" font-size="10.00">QuantiyFormatter&lt; BlackMisc</text>
<text text-anchor="start" x="402.5" y="-342" font-family="Helvetica,sans-Serif" font-size="10.00">::PhysicalQuantities::CAngleUnit,</text>
<text text-anchor="start" x="402.5" y="-331" font-family="Helvetica,sans-Serif" font-size="10.00"> BlackMisc::PhysicalQuantities</text>
<text text-anchor="middle" x="483" y="-320" font-family="Helvetica,sans-Serif" font-size="10.00">::CAngle &gt;</text>
</a>
</g>
</g>
<!-- Node1&#45;&gt;Node5 -->
<g id="edge4" class="edge">
<title>Node1&#45;&gt;Node5</title>
<path fill="none" stroke="midnightblue" d="M274.15,-213.96C293.08,-239.07 326.16,-278.5 363,-302.5 372.64,-308.78 383.33,-314.25 394.23,-318.97"/>
<polygon fill="midnightblue" stroke="midnightblue" points="276.83,-211.69 268.07,-205.73 271.2,-215.85 276.83,-211.69"/>
</g>
<!-- Node7 -->
<g id="node7" class="node">
<title>Node7</title>
<g id="a_node7"><a xlink:href="class_black_gui_1_1_models_1_1_c_physiqal_quantiy_formatter.html" target="_top" xlink:title=" ">
<polygon fill="none" stroke="black" points="363,-241.5 363,-293.5 603,-293.5 603,-241.5 363,-241.5"/>
<text text-anchor="start" x="371" y="-281.5" font-family="Helvetica,sans-Serif" font-size="10.00">BlackGui::Models::CPhysiqal</text>
<text text-anchor="start" x="371" y="-270.5" font-family="Helvetica,sans-Serif" font-size="10.00">QuantiyFormatter&lt; BlackMisc</text>
<text text-anchor="start" x="371" y="-259.5" font-family="Helvetica,sans-Serif" font-size="10.00">::PhysicalQuantities::CFrequencyUnit,</text>
<text text-anchor="middle" x="483" y="-248.5" font-family="Helvetica,sans-Serif" font-size="10.00"> BlackMisc::PhysicalQuantities::CFrequency &gt;</text>
</a>
</g>
</g>
<!-- Node1&#45;&gt;Node7 -->
<g id="edge6" class="edge">
<title>Node1&#45;&gt;Node7</title>
<path fill="none" stroke="midnightblue" d="M303.65,-209.32C322,-216.57 343.38,-224.73 363,-231.5 372.69,-234.84 382.88,-238.19 393.06,-241.41"/>
<polygon fill="midnightblue" stroke="midnightblue" points="304.94,-206.07 294.35,-205.62 302.35,-212.57 304.94,-206.07"/>
</g>
<!-- Node9 -->
<g id="node9" class="node">
<title>Node9</title>
<g id="a_node9"><a xlink:href="class_black_gui_1_1_models_1_1_c_physiqal_quantiy_formatter.html" target="_top" xlink:title=" ">
<polygon fill="none" stroke="black" points="393.5,-159 393.5,-222 572.5,-222 572.5,-159 393.5,-159"/>
<text text-anchor="start" x="401.5" y="-210" font-family="Helvetica,sans-Serif" font-size="10.00">BlackGui::Models::CPhysiqal</text>
<text text-anchor="start" x="401.5" y="-199" font-family="Helvetica,sans-Serif" font-size="10.00">QuantiyFormatter&lt; BlackMisc</text>
<text text-anchor="start" x="401.5" y="-188" font-family="Helvetica,sans-Serif" font-size="10.00">::PhysicalQuantities::CSpeedUnit,</text>
<text text-anchor="start" x="401.5" y="-177" font-family="Helvetica,sans-Serif" font-size="10.00"> BlackMisc::PhysicalQuantities</text>
<text text-anchor="middle" x="483" y="-166" font-family="Helvetica,sans-Serif" font-size="10.00">::CSpeed &gt;</text>
</a>
</g>
</g>
<!-- Node1&#45;&gt;Node9 -->
<g id="edge8" class="edge">
<title>Node1&#45;&gt;Node9</title>
<path fill="none" stroke="midnightblue" d="M337.48,-190.5C355.54,-190.5 374.81,-190.5 393.2,-190.5"/>
<polygon fill="midnightblue" stroke="midnightblue" points="337.3,-187 327.3,-190.5 337.3,-194 337.3,-187"/>
</g>
<!-- Node11 -->
<g id="node11" class="node">
<title>Node11</title>
<g id="a_node11"><a xlink:href="class_black_gui_1_1_models_1_1_c_physiqal_quantiy_formatter.html" target="_top" xlink:title=" ">
<polygon fill="none" stroke="black" points="380,-99 380,-140 586,-140 586,-99 380,-99"/>
<text text-anchor="start" x="388" y="-128" font-family="Helvetica,sans-Serif" font-size="10.00">BlackGui::Models::CPhysiqal</text>
<text text-anchor="start" x="388" y="-117" font-family="Helvetica,sans-Serif" font-size="10.00">QuantiyFormatter&lt; CTemperatureUnit,</text>
<text text-anchor="middle" x="483" y="-106" font-family="Helvetica,sans-Serif" font-size="10.00"> CTemperature &gt;</text>
</a>
</g>
</g>
<!-- Node1&#45;&gt;Node11 -->
<g id="edge10" class="edge">
<title>Node1&#45;&gt;Node11</title>
<path fill="none" stroke="midnightblue" d="M302.6,-171.56C321.13,-164.15 342.91,-155.91 363,-149.5 373.35,-146.2 384.3,-143.02 395.2,-140.05"/>
<polygon fill="midnightblue" stroke="midnightblue" points="301.2,-168.35 293.24,-175.34 303.82,-174.84 301.2,-168.35"/>
</g>
<!-- Node13 -->
<g id="node13" class="node">
<title>Node13</title>
<g id="a_node13"><a xlink:href="class_black_gui_1_1_models_1_1_c_lat_lon_formatter.html" target="_top" xlink:title="Latitude or Longitude formatter.">
<polygon fill="none" stroke="black" points="410,-49.5 410,-79.5 556,-79.5 556,-49.5 410,-49.5"/>
<text text-anchor="start" x="418" y="-67.5" font-family="Helvetica,sans-Serif" font-size="10.00">BlackGui::Models::CLatLon</text>
<text text-anchor="middle" x="483" y="-56.5" font-family="Helvetica,sans-Serif" font-size="10.00">Formatter</text>
</a>
</g>
</g>
<!-- Node1&#45;&gt;Node13 -->
<g id="edge12" class="edge">
<title>Node1&#45;&gt;Node13</title>
<path fill="none" stroke="midnightblue" d="M275,-167.44C294.03,-144.06 326.65,-108.67 363,-89.5 377.38,-81.92 393.87,-76.63 409.91,-72.95"/>
<polygon fill="midnightblue" stroke="midnightblue" points="272.11,-165.45 268.62,-175.46 277.58,-169.81 272.11,-165.45"/>
</g>
<!-- Node14 -->
<g id="node14" class="node">
<title>Node14</title>
<g id="a_node14"><a xlink:href="class_black_gui_1_1_models_1_1_c_physiqal_quantiy_formatter.html" target="_top" xlink:title="Formatter for physical quantities.">
<polygon fill="none" stroke="black" points="402.5,-0.5 402.5,-30.5 563.5,-30.5 563.5,-0.5 402.5,-0.5"/>
<text text-anchor="start" x="410.5" y="-18.5" font-family="Helvetica,sans-Serif" font-size="10.00">BlackGui::Models::CPhysiqal</text>
<text text-anchor="middle" x="483" y="-7.5" font-family="Helvetica,sans-Serif" font-size="10.00">QuantiyFormatter&lt; MU, PQ &gt;</text>
</a>
</g>
</g>
<!-- Node1&#45;&gt;Node14 -->
<g id="edge13" class="edge">
<title>Node1&#45;&gt;Node14</title>
<path fill="none" stroke="midnightblue" d="M267.55,-165.9C282.84,-131.78 315.28,-70.76 363,-39.5 374.72,-31.82 388.39,-26.51 402.19,-22.86"/>
<polygon fill="midnightblue" stroke="midnightblue" points="264.3,-164.6 263.53,-175.16 270.72,-167.39 264.3,-164.6"/>
</g>
<!-- Node2 -->
<g id="node2" class="node">
<title>Node2</title>
<g id="a_node2"><a xlink:href="class_black_gui_1_1_models_1_1_c_default_formatter.html" target="_top" xlink:title="Column formatter default implementation, also serving as interface.">
<polygon fill="none" stroke="black" points="0,-175.5 0,-205.5 150,-205.5 150,-175.5 0,-175.5"/>
<text text-anchor="start" x="8" y="-193.5" font-family="Helvetica,sans-Serif" font-size="10.00">BlackGui::Models::CDefault</text>
<text text-anchor="middle" x="75" y="-182.5" font-family="Helvetica,sans-Serif" font-size="10.00">Formatter</text>
</a>
</g>
</g>
<!-- Node2&#45;&gt;Node1 -->
<g id="edge1" class="edge">
<title>Node2&#45;&gt;Node1</title>
<path fill="none" stroke="midnightblue" d="M160.14,-190.5C168.78,-190.5 177.49,-190.5 185.95,-190.5"/>
<polygon fill="midnightblue" stroke="midnightblue" points="160.05,-187 150.05,-190.5 160.05,-194 160.05,-187"/>
</g>
<!-- Node4 -->
<g id="node4" class="node">
<title>Node4</title>
<g id="a_node4"><a xlink:href="class_black_gui_1_1_models_1_1_c_airspace_distance_formatter.html" target="_top" xlink:title="Airspace distance displayed in NM.">
<polygon fill="none" stroke="black" points="654.5,-411.5 654.5,-441.5 810.5,-441.5 810.5,-411.5 654.5,-411.5"/>
<text text-anchor="start" x="662.5" y="-429.5" font-family="Helvetica,sans-Serif" font-size="10.00">BlackGui::Models::CAirspace</text>
<text text-anchor="middle" x="732.5" y="-418.5" font-family="Helvetica,sans-Serif" font-size="10.00">DistanceFormatter</text>
</a>
</g>
</g>
<!-- Node3&#45;&gt;Node4 -->
<g id="edge3" class="edge">
<title>Node3&#45;&gt;Node4</title>
<path fill="none" stroke="midnightblue" d="M584.31,-426.5C607.6,-426.5 632.04,-426.5 654.17,-426.5"/>
<polygon fill="midnightblue" stroke="midnightblue" points="584.05,-423 574.05,-426.5 584.05,-430 584.05,-423"/>
</g>
<!-- Node6 -->
<g id="node6" class="node">
<title>Node6</title>
<g id="a_node6"><a xlink:href="class_black_gui_1_1_models_1_1_c_angle_degree_formatter.html" target="_top" xlink:title="Angle in degrees.">
<polygon fill="none" stroke="black" points="661.5,-329.5 661.5,-359.5 803.5,-359.5 803.5,-329.5 661.5,-329.5"/>
<text text-anchor="start" x="669.5" y="-347.5" font-family="Helvetica,sans-Serif" font-size="10.00">BlackGui::Models::CAngle</text>
<text text-anchor="middle" x="732.5" y="-336.5" font-family="Helvetica,sans-Serif" font-size="10.00">DegreeFormatter</text>
</a>
</g>
</g>
<!-- Node5&#45;&gt;Node6 -->
<g id="edge5" class="edge">
<title>Node5&#45;&gt;Node6</title>
<path fill="none" stroke="midnightblue" d="M581.68,-344.5C608.21,-344.5 636.42,-344.5 661.11,-344.5"/>
<polygon fill="midnightblue" stroke="midnightblue" points="581.61,-341 571.61,-344.5 581.61,-348 581.61,-341"/>
</g>
<!-- Node8 -->
<g id="node8" class="node">
<title>Node8</title>
<g id="a_node8"><a xlink:href="class_black_gui_1_1_models_1_1_c_com_frequency_formatter.html" target="_top" xlink:title="COM frequencies.">
<polygon fill="none" stroke="black" points="639,-252.5 639,-282.5 826,-282.5 826,-252.5 639,-252.5"/>
<text text-anchor="start" x="647" y="-270.5" font-family="Helvetica,sans-Serif" font-size="10.00">BlackGui::Models::CComFrequency</text>
<text text-anchor="middle" x="732.5" y="-259.5" font-family="Helvetica,sans-Serif" font-size="10.00">Formatter</text>
</a>
</g>
</g>
<!-- Node7&#45;&gt;Node8 -->
<g id="edge7" class="edge">
<title>Node7&#45;&gt;Node8</title>
<path fill="none" stroke="midnightblue" d="M613.18,-267.5C621.81,-267.5 630.41,-267.5 638.8,-267.5"/>
<polygon fill="midnightblue" stroke="midnightblue" points="613.04,-264 603.04,-267.5 613.04,-271 613.04,-264"/>
</g>
<!-- Node10 -->
<g id="node10" class="node">
<title>Node10</title>
<g id="a_node10"><a xlink:href="class_black_gui_1_1_models_1_1_c_speed_kts_formatter.html" target="_top" xlink:title="Speed displayed in kts.">
<polygon fill="none" stroke="black" points="660.5,-175.5 660.5,-205.5 804.5,-205.5 804.5,-175.5 660.5,-175.5"/>
<text text-anchor="start" x="668.5" y="-193.5" font-family="Helvetica,sans-Serif" font-size="10.00">BlackGui::Models::CSpeed</text>
<text text-anchor="middle" x="732.5" y="-182.5" font-family="Helvetica,sans-Serif" font-size="10.00">KtsFormatter</text>
</a>
</g>
</g>
<!-- Node9&#45;&gt;Node10 -->
<g id="edge9" class="edge">
<title>Node9&#45;&gt;Node10</title>
<path fill="none" stroke="midnightblue" d="M582.85,-190.5C608.68,-190.5 636.02,-190.5 660.12,-190.5"/>
<polygon fill="midnightblue" stroke="midnightblue" points="582.65,-187 572.65,-190.5 582.65,-194 582.65,-187"/>
</g>
<!-- Node12 -->
<g id="node12" class="node">
<title>Node12</title>
<g id="a_node12"><a xlink:href="class_black_gui_1_1_models_1_1_c_temperature_formatter.html" target="_top" xlink:title="Temperature in degrees.">
<polygon fill="none" stroke="black" points="644.5,-104.5 644.5,-134.5 820.5,-134.5 820.5,-104.5 644.5,-104.5"/>
<text text-anchor="start" x="652.5" y="-122.5" font-family="Helvetica,sans-Serif" font-size="10.00">BlackGui::Models::CTemperature</text>
<text text-anchor="middle" x="732.5" y="-111.5" font-family="Helvetica,sans-Serif" font-size="10.00">Formatter</text>
</a>
</g>
</g>
<!-- Node11&#45;&gt;Node12 -->
<g id="edge11" class="edge">
<title>Node11&#45;&gt;Node12</title>
<path fill="none" stroke="midnightblue" d="M596.11,-119.5C612.25,-119.5 628.67,-119.5 644.24,-119.5"/>
<polygon fill="midnightblue" stroke="midnightblue" points="596.1,-116 586.1,-119.5 596.1,-123 596.1,-116"/>
</g>
</g>
</svg>
