<?xml version="1.0" encoding="UTF-8" standalone="no"?>
<!DOCTYPE svg PUBLIC "-//W3C//DTD SVG 1.1//EN"
 "http://www.w3.org/Graphics/SVG/1.1/DTD/svg11.dtd">
<!-- Generated by graphviz version 2.43.0 (0)
 -->
<!-- Title: BlackGui::Models::CListModelTimestampObjects&lt; T, UseCompare &gt; Pages: 1 -->
<svg width="1445pt" height="203pt"
 viewBox="0.00 0.00 1445.00 203.00" xmlns="http://www.w3.org/2000/svg" xmlns:xlink="http://www.w3.org/1999/xlink">
<g id="graph0" class="graph" transform="scale(1 1) rotate(0) translate(4 199)">
<title>BlackGui::Models::CListModelTimestampObjects&lt; T, UseCompare &gt;</title>
<!-- Node1 -->
<g id="node1" class="node">
<title>Node1</title>
<g id="a_node1"><a xlink:title="List model for timestamp based objects with offset.">
<polygon fill="#bfbfbf" stroke="black" points="795,-82.5 795,-112.5 1001,-112.5 1001,-82.5 795,-82.5"/>
<text text-anchor="start" x="803" y="-100.5" font-family="Helvetica,sans-Serif" font-size="10.00">BlackGui::Models::CListModel</text>
<text text-anchor="middle" x="898" y="-89.5" font-family="Helvetica,sans-Serif" font-size="10.00">TimestampObjects&lt; T, UseCompare &gt;</text>
</a>
</g>
</g>
<!-- Node8 -->
<g id="node8" class="node">
<title>Node8</title>
<g id="a_node8"><a xlink:href="class_black_gui_1_1_models_1_1_c_list_model_timestamp_with_offset_objects.html" target="_top" xlink:title=" ">
<polygon fill="none" stroke="black" points="1037,-142.5 1037,-194.5 1252,-194.5 1252,-142.5 1037,-142.5"/>
<text text-anchor="start" x="1045" y="-182.5" font-family="Helvetica,sans-Serif" font-size="10.00">BlackGui::Models::CListModel</text>
<text text-anchor="start" x="1045" y="-171.5" font-family="Helvetica,sans-Serif" font-size="10.00">TimestampWithOffsetObjects</text>
<text text-anchor="start" x="1045" y="-160.5" font-family="Helvetica,sans-Serif" font-size="10.00">&lt; BlackMisc::Aviation::CAircraftSituation</text>
<text text-anchor="middle" x="1144.5" y="-149.5" font-family="Helvetica,sans-Serif" font-size="10.00">List, true &gt;</text>
</a>
</g>
</g>
<!-- Node1&#45;&gt;Node8 -->
<g id="edge7" class="edge">
<title>Node1&#45;&gt;Node8</title>
<path fill="none" stroke="midnightblue" d="M960.57,-115.38C988.76,-123.57 1022.72,-133.43 1053.68,-142.42"/>
<polygon fill="midnightblue" stroke="midnightblue" points="961.43,-111.98 950.85,-112.56 959.48,-118.71 961.43,-111.98"/>
</g>
<!-- Node10 -->
<g id="node10" class="node">
<title>Node10</title>
<g id="a_node10"><a xlink:href="class_black_gui_1_1_models_1_1_c_list_model_timestamp_with_offset_objects.html" target="_top" xlink:title=" ">
<polygon fill="none" stroke="black" points="1047,-71.5 1047,-123.5 1242,-123.5 1242,-71.5 1047,-71.5"/>
<text text-anchor="start" x="1055" y="-111.5" font-family="Helvetica,sans-Serif" font-size="10.00">BlackGui::Models::CListModel</text>
<text text-anchor="start" x="1055" y="-100.5" font-family="Helvetica,sans-Serif" font-size="10.00">TimestampWithOffsetObjects</text>
<text text-anchor="start" x="1055" y="-89.5" font-family="Helvetica,sans-Serif" font-size="10.00">&lt; BlackMisc::Aviation::CAircraftParts</text>
<text text-anchor="middle" x="1144.5" y="-78.5" font-family="Helvetica,sans-Serif" font-size="10.00">List, true &gt;</text>
</a>
</g>
</g>
<!-- Node1&#45;&gt;Node10 -->
<g id="edge9" class="edge">
<title>Node1&#45;&gt;Node10</title>
<path fill="none" stroke="midnightblue" d="M1011.55,-97.5C1023.3,-97.5 1035.17,-97.5 1046.72,-97.5"/>
<polygon fill="midnightblue" stroke="midnightblue" points="1011.27,-94 1001.27,-97.5 1011.27,-101 1011.27,-94"/>
</g>
<!-- Node12 -->
<g id="node12" class="node">
<title>Node12</title>
<g id="a_node12"><a xlink:href="class_black_gui_1_1_models_1_1_c_list_model_timestamp_with_offset_objects.html" target="_top" xlink:title=" ">
<polygon fill="none" stroke="black" points="1037,-0.5 1037,-52.5 1252,-52.5 1252,-0.5 1037,-0.5"/>
<text text-anchor="start" x="1045" y="-40.5" font-family="Helvetica,sans-Serif" font-size="10.00">BlackGui::Models::CListModel</text>
<text text-anchor="start" x="1045" y="-29.5" font-family="Helvetica,sans-Serif" font-size="10.00">TimestampWithOffsetObjects</text>
<text text-anchor="start" x="1045" y="-18.5" font-family="Helvetica,sans-Serif" font-size="10.00">&lt; BlackMisc::Aviation::CAircraftSituation</text>
<text text-anchor="middle" x="1144.5" y="-7.5" font-family="Helvetica,sans-Serif" font-size="10.00">ChangeList, true &gt;</text>
</a>
</g>
</g>
<!-- Node1&#45;&gt;Node12 -->
<g id="edge11" class="edge">
<title>Node1&#45;&gt;Node12</title>
<path fill="none" stroke="midnightblue" d="M960.57,-79.62C988.76,-71.43 1022.72,-61.57 1053.68,-52.58"/>
<polygon fill="midnightblue" stroke="midnightblue" points="959.48,-76.29 950.85,-82.44 961.43,-83.02 959.48,-76.29"/>
</g>
<!-- Node2 -->
<g id="node2" class="node">
<title>Node2</title>
<g id="a_node2"><a xlink:href="class_black_gui_1_1_models_1_1_c_list_model_base.html" target="_top" xlink:title=" ">
<polygon fill="none" stroke="black" points="598,-82.5 598,-112.5 759,-112.5 759,-82.5 598,-82.5"/>
<text text-anchor="start" x="606" y="-100.5" font-family="Helvetica,sans-Serif" font-size="10.00">BlackGui::Models::CListModel</text>
<text text-anchor="middle" x="678.5" y="-89.5" font-family="Helvetica,sans-Serif" font-size="10.00">Base&lt; T, false &gt;</text>
</a>
</g>
</g>
<!-- Node2&#45;&gt;Node1 -->
<g id="edge1" class="edge">
<title>Node2&#45;&gt;Node1</title>
<path fill="none" stroke="midnightblue" d="M769.35,-97.5C777.69,-97.5 786.19,-97.5 794.64,-97.5"/>
<polygon fill="midnightblue" stroke="midnightblue" points="769.25,-94 759.25,-97.5 769.25,-101 769.25,-94"/>
</g>
<!-- Node3 -->
<g id="node3" class="node">
<title>Node3</title>
<g id="a_node3"><a xlink:href="class_black_gui_1_1_models_1_1_c_list_model_base_non_template.html" target="_top" xlink:title="Non templated base class, allows Q_OBJECT and signals to be used.">
<polygon fill="none" stroke="black" points="401,-82.5 401,-112.5 562,-112.5 562,-82.5 401,-82.5"/>
<text text-anchor="start" x="409" y="-100.5" font-family="Helvetica,sans-Serif" font-size="10.00">BlackGui::Models::CListModel</text>
<text text-anchor="middle" x="481.5" y="-89.5" font-family="Helvetica,sans-Serif" font-size="10.00">BaseNonTemplate</text>
</a>
</g>
</g>
<!-- Node3&#45;&gt;Node2 -->
<g id="edge2" class="edge">
<title>Node3&#45;&gt;Node2</title>
<path fill="none" stroke="midnightblue" d="M572.12,-97.5C580.7,-97.5 589.36,-97.5 597.84,-97.5"/>
<polygon fill="midnightblue" stroke="midnightblue" points="572.1,-94 562.1,-97.5 572.1,-101 572.1,-94"/>
</g>
<!-- Node4 -->
<g id="node4" class="node">
<title>Node4</title>
<g id="a_node4"><a target="_parent" xlink:href="http://doc.qt.io/qt-5/qstandarditemmodel.html" xlink:title=" ">
<polygon fill="none" stroke="black" points="245,-107 245,-126 365,-126 365,-107 245,-107"/>
<text text-anchor="middle" x="305" y="-114" font-family="Helvetica,sans-Serif" font-size="10.00">QStandardItemModel</text>
</a>
</g>
</g>
<!-- Node4&#45;&gt;Node3 -->
<g id="edge3" class="edge">
<title>Node4&#45;&gt;Node3</title>
<path fill="none" stroke="midnightblue" d="M375.18,-108.97C383.58,-108.05 392.21,-107.11 400.75,-106.18"/>
<polygon fill="midnightblue" stroke="midnightblue" points="374.64,-105.51 365.08,-110.07 375.4,-112.46 374.64,-105.51"/>
</g>
<!-- Node5 -->
<g id="node5" class="node">
<title>Node5</title>
<g id="a_node5"><a target="_parent" xlink:href="http://doc.qt.io/qt-5/qabstractitemmodel.html" xlink:title=" ">
<polygon fill="none" stroke="black" points="92,-107 92,-126 209,-126 209,-107 92,-107"/>
<text text-anchor="middle" x="150.5" y="-114" font-family="Helvetica,sans-Serif" font-size="10.00">QAbstractItemModel</text>
</a>
</g>
</g>
<!-- Node5&#45;&gt;Node4 -->
<g id="edge4" class="edge">
<title>Node5&#45;&gt;Node4</title>
<path fill="none" stroke="midnightblue" d="M219.17,-116.5C227.78,-116.5 236.54,-116.5 245,-116.5"/>
<polygon fill="midnightblue" stroke="midnightblue" points="219.15,-113 209.15,-116.5 219.15,-120 219.15,-113"/>
</g>
<!-- Node6 -->
<g id="node6" class="node">
<title>Node6</title>
<g id="a_node6"><a target="_parent" xlink:href="http://doc.qt.io/qt-5/qobject.html" xlink:title=" ">
<polygon fill="none" stroke="black" points="0,-107 0,-126 56,-126 56,-107 0,-107"/>
<text text-anchor="middle" x="28" y="-114" font-family="Helvetica,sans-Serif" font-size="10.00">QObject</text>
</a>
</g>
</g>
<!-- Node6&#45;&gt;Node5 -->
<g id="edge5" class="edge">
<title>Node6&#45;&gt;Node5</title>
<path fill="none" stroke="midnightblue" d="M66.31,-116.5C74.46,-116.5 83.27,-116.5 91.99,-116.5"/>
<polygon fill="midnightblue" stroke="midnightblue" points="66.04,-113 56.04,-116.5 66.04,-120 66.04,-113"/>
</g>
<!-- Node7 -->
<g id="node7" class="node">
<title>Node7</title>
<g id="a_node7"><a xlink:href="class_black_gui_1_1_c_drop_base.html" target="_top" xlink:title="Utilities for dropping swift value objects.">
<polygon fill="none" stroke="black" points="245,-69 245,-88 365,-88 365,-69 245,-69"/>
<text text-anchor="middle" x="305" y="-76" font-family="Helvetica,sans-Serif" font-size="10.00">BlackGui::CDropBase</text>
</a>
</g>
</g>
<!-- Node7&#45;&gt;Node3 -->
<g id="edge6" class="edge">
<title>Node7&#45;&gt;Node3</title>
<path fill="none" stroke="midnightblue" d="M375.18,-86.03C383.58,-86.95 392.21,-87.89 400.75,-88.82"/>
<polygon fill="midnightblue" stroke="midnightblue" points="375.4,-82.54 365.08,-84.93 374.64,-89.49 375.4,-82.54"/>
</g>
<!-- Node9 -->
<g id="node9" class="node">
<title>Node9</title>
<g id="a_node9"><a xlink:href="class_black_gui_1_1_models_1_1_c_aircraft_situation_list_model.html" target="_top" xlink:title="Client list model.">
<polygon fill="none" stroke="black" points="1288,-153.5 1288,-183.5 1437,-183.5 1437,-153.5 1288,-153.5"/>
<text text-anchor="start" x="1296" y="-171.5" font-family="Helvetica,sans-Serif" font-size="10.00">BlackGui::Models::CAircraft</text>
<text text-anchor="middle" x="1362.5" y="-160.5" font-family="Helvetica,sans-Serif" font-size="10.00">SituationListModel</text>
</a>
</g>
</g>
<!-- Node8&#45;&gt;Node9 -->
<g id="edge8" class="edge">
<title>Node8&#45;&gt;Node9</title>
<path fill="none" stroke="midnightblue" d="M1262.36,-168.5C1270.97,-168.5 1279.5,-168.5 1287.73,-168.5"/>
<polygon fill="midnightblue" stroke="midnightblue" points="1262.23,-165 1252.23,-168.5 1262.23,-172 1262.23,-165"/>
</g>
<!-- Node11 -->
<g id="node11" class="node">
<title>Node11</title>
<g id="a_node11"><a xlink:href="class_black_gui_1_1_models_1_1_c_aircraft_parts_list_model.html" target="_top" xlink:title="Aircraft parts list model.">
<polygon fill="none" stroke="black" points="1288,-82.5 1288,-112.5 1437,-112.5 1437,-82.5 1288,-82.5"/>
<text text-anchor="start" x="1296" y="-100.5" font-family="Helvetica,sans-Serif" font-size="10.00">BlackGui::Models::CAircraft</text>
<text text-anchor="middle" x="1362.5" y="-89.5" font-family="Helvetica,sans-Serif" font-size="10.00">PartsListModel</text>
</a>
</g>
</g>
<!-- Node10&#45;&gt;Node11 -->
<g id="edge10" class="edge">
<title>Node10&#45;&gt;Node11</title>
<path fill="none" stroke="midnightblue" d="M1252.26,-97.5C1264.34,-97.5 1276.44,-97.5 1287.96,-97.5"/>
<polygon fill="midnightblue" stroke="midnightblue" points="1252.13,-94 1242.13,-97.5 1252.13,-101 1252.13,-94"/>
</g>
<!-- Node13 -->
<g id="node13" class="node">
<title>Node13</title>
<g id="a_node13"><a xlink:href="class_black_gui_1_1_models_1_1_c_aircraft_situation_change_list_model.html" target="_top" xlink:title="Aircraft situation changes list model.">
<polygon fill="none" stroke="black" points="1288,-11.5 1288,-41.5 1437,-41.5 1437,-11.5 1288,-11.5"/>
<text text-anchor="start" x="1296" y="-29.5" font-family="Helvetica,sans-Serif" font-size="10.00">BlackGui::Models::CAircraft</text>
<text text-anchor="middle" x="1362.5" y="-18.5" font-family="Helvetica,sans-Serif" font-size="10.00">SituationChangeListModel</text>
</a>
</g>
</g>
<!-- Node12&#45;&gt;Node13 -->
<g id="edge12" class="edge">
<title>Node12&#45;&gt;Node13</title>
<path fill="none" stroke="midnightblue" d="M1262.36,-26.5C1270.97,-26.5 1279.5,-26.5 1287.73,-26.5"/>
<polygon fill="midnightblue" stroke="midnightblue" points="1262.23,-23 1252.23,-26.5 1262.23,-30 1262.23,-23"/>
</g>
</g>
</svg>
