<?xml version="1.0" encoding="UTF-8" standalone="no"?>
<!DOCTYPE svg PUBLIC "-//W3C//DTD SVG 1.1//EN"
 "http://www.w3.org/Graphics/SVG/1.1/DTD/svg11.dtd">
<!-- Generated by graphviz version 2.43.0 (0)
 -->
<!-- Title: BlackGui::Components::CDbAutoSimulatorStashingComponent Pages: 1 -->
<svg width="640pt" height="135pt"
 viewBox="0.00 0.00 640.00 135.00" xmlns="http://www.w3.org/2000/svg" xmlns:xlink="http://www.w3.org/1999/xlink">
<g id="graph0" class="graph" transform="scale(1 1) rotate(0) translate(4 131)">
<title>BlackGui::Components::CDbAutoSimulatorStashingComponent</title>
<!-- Node1 -->
<g id="node1" class="node">
<title>Node1</title>
<g id="a_node1"><a xlink:title="Allows to automatically update models if found in own model set, but already existing for a sibling s...">
<polygon fill="#bfbfbf" stroke="black" points="421,-39 421,-69 632,-69 632,-39 421,-39"/>
<text text-anchor="start" x="429" y="-57" font-family="Helvetica,sans-Serif" font-size="10.00">BlackGui::Components</text>
<text text-anchor="middle" x="526.5" y="-46" font-family="Helvetica,sans-Serif" font-size="10.00">::CDbAutoSimulatorStashingComponent</text>
</a>
</g>
</g>
<!-- Node2 -->
<g id="node2" class="node">
<title>Node2</title>
<g id="a_node2"><a target="_parent" xlink:href="http://doc.qt.io/qt-5/qdialog.html" xlink:title=" ">
<polygon fill="none" stroke="black" points="271,-88.5 271,-107.5 327,-107.5 327,-88.5 271,-88.5"/>
<text text-anchor="middle" x="299" y="-95.5" font-family="Helvetica,sans-Serif" font-size="10.00">QDialog</text>
</a>
</g>
</g>
<!-- Node2&#45;&gt;Node1 -->
<g id="edge1" class="edge">
<title>Node2&#45;&gt;Node1</title>
<path fill="none" stroke="midnightblue" d="M337.27,-90.73C367.39,-84.85 410.8,-76.38 448.35,-69.05"/>
<polygon fill="midnightblue" stroke="midnightblue" points="336.35,-87.34 327.2,-92.69 337.69,-94.21 336.35,-87.34"/>
</g>
<!-- Node3 -->
<g id="node3" class="node">
<title>Node3</title>
<g id="a_node3"><a target="_parent" xlink:href="http://doc.qt.io/qt-5/qwidget.html" xlink:title=" ">
<polygon fill="none" stroke="black" points="118,-88.5 118,-107.5 177,-107.5 177,-88.5 118,-88.5"/>
<text text-anchor="middle" x="147.5" y="-95.5" font-family="Helvetica,sans-Serif" font-size="10.00">QWidget</text>
</a>
</g>
</g>
<!-- Node3&#45;&gt;Node2 -->
<g id="edge2" class="edge">
<title>Node3&#45;&gt;Node2</title>
<path fill="none" stroke="midnightblue" d="M187.65,-98C213.8,-98 247.53,-98 270.77,-98"/>
<polygon fill="midnightblue" stroke="midnightblue" points="187.33,-94.5 177.33,-98 187.33,-101.5 187.33,-94.5"/>
</g>
<!-- Node4 -->
<g id="node4" class="node">
<title>Node4</title>
<g id="a_node4"><a target="_parent" xlink:href="http://doc.qt.io/qt-5/qobject.html" xlink:title=" ">
<polygon fill="none" stroke="black" points="13,-107.5 13,-126.5 69,-126.5 69,-107.5 13,-107.5"/>
<text text-anchor="middle" x="41" y="-114.5" font-family="Helvetica,sans-Serif" font-size="10.00">QObject</text>
</a>
</g>
</g>
<!-- Node4&#45;&gt;Node3 -->
<g id="edge3" class="edge">
<title>Node4&#45;&gt;Node3</title>
<path fill="none" stroke="midnightblue" d="M79.09,-110.26C91.88,-107.93 106,-105.36 117.99,-103.18"/>
<polygon fill="midnightblue" stroke="midnightblue" points="78.4,-106.83 69.18,-112.06 79.65,-113.71 78.4,-106.83"/>
</g>
<!-- Node5 -->
<g id="node5" class="node">
<title>Node5</title>
<g id="a_node5"><a target="_parent" xlink:href="http://doc.qt.io/qt-5/qpaintdevice.html" xlink:title=" ">
<polygon fill="none" stroke="black" points="0,-69.5 0,-88.5 82,-88.5 82,-69.5 0,-69.5"/>
<text text-anchor="middle" x="41" y="-76.5" font-family="Helvetica,sans-Serif" font-size="10.00">QPaintDevice</text>
</a>
</g>
</g>
<!-- Node5&#45;&gt;Node3 -->
<g id="edge4" class="edge">
<title>Node5&#45;&gt;Node3</title>
<path fill="none" stroke="midnightblue" d="M91.97,-88.09C100.8,-89.69 109.71,-91.31 117.69,-92.76"/>
<polygon fill="midnightblue" stroke="midnightblue" points="92.57,-84.64 82.1,-86.29 91.32,-91.52 92.57,-84.64"/>
</g>
<!-- Node6 -->
<g id="node6" class="node">
<title>Node6</title>
<g id="a_node6"><a xlink:href="class_black_gui_1_1_components_1_1_c_db_mapping_component_aware.html" target="_top" xlink:title="Allows subcomponents to gain access to model component.">
<polygon fill="none" stroke="black" points="213,-39 213,-69 385,-69 385,-39 213,-39"/>
<text text-anchor="start" x="221" y="-57" font-family="Helvetica,sans-Serif" font-size="10.00">BlackGui::Components</text>
<text text-anchor="middle" x="299" y="-46" font-family="Helvetica,sans-Serif" font-size="10.00">::CDbMappingComponentAware</text>
</a>
</g>
</g>
<!-- Node6&#45;&gt;Node1 -->
<g id="edge5" class="edge">
<title>Node6&#45;&gt;Node1</title>
<path fill="none" stroke="midnightblue" d="M395.4,-54C403.79,-54 412.3,-54 420.76,-54"/>
<polygon fill="midnightblue" stroke="midnightblue" points="395.25,-50.5 385.25,-54 395.25,-57.5 395.25,-50.5"/>
</g>
<!-- Node7 -->
<g id="node7" class="node">
<title>Node7</title>
<g id="a_node7"><a xlink:href="class_black_core_1_1_i_progress_indicator.html" target="_top" xlink:title="Implementing class features a progress bar or something similar.">
<polygon fill="none" stroke="black" points="219,-0.5 219,-19.5 379,-19.5 379,-0.5 219,-0.5"/>
<text text-anchor="middle" x="299" y="-7.5" font-family="Helvetica,sans-Serif" font-size="10.00">BlackCore::IProgressIndicator</text>
</a>
</g>
</g>
<!-- Node7&#45;&gt;Node1 -->
<g id="edge6" class="edge">
<title>Node7&#45;&gt;Node1</title>
<path fill="none" stroke="midnightblue" d="M359.1,-21.53C386.37,-26.85 419.1,-33.24 448.29,-38.93"/>
<polygon fill="midnightblue" stroke="midnightblue" points="359.42,-18.03 348.93,-19.55 358.07,-24.9 359.42,-18.03"/>
</g>
</g>
</svg>
