<?xml version="1.0" encoding="UTF-8" standalone="no"?>
<!DOCTYPE svg PUBLIC "-//W3C//DTD SVG 1.1//EN"
 "http://www.w3.org/Graphics/SVG/1.1/DTD/svg11.dtd">
<!-- Generated by graphviz version 2.43.0 (0)
 -->
<!-- Title: BlackGui::Components::CSettingsTextMessageInlineComponent Pages: 1 -->
<svg width="173pt" height="218pt"
 viewBox="0.00 0.00 173.00 218.00" xmlns="http://www.w3.org/2000/svg" xmlns:xlink="http://www.w3.org/1999/xlink">
<g id="graph0" class="graph" transform="scale(1 1) rotate(0) translate(4 214)">
<title>BlackGui::Components::CSettingsTextMessageInlineComponent</title>
<!-- Node1 -->
<g id="node1" class="node">
<title>Node1</title>
<g id="a_node1"><a xlink:title="Settings for text messages.">
<polygon fill="#bfbfbf" stroke="black" points="0,-0.5 0,-41.5 160,-41.5 160,-0.5 0,-0.5"/>
<text text-anchor="start" x="8" y="-29.5" font-family="Helvetica,sans-Serif" font-size="10.00">BlackGui::Components</text>
<text text-anchor="start" x="8" y="-18.5" font-family="Helvetica,sans-Serif" font-size="10.00">::CSettingsTextMessageInline</text>
<text text-anchor="middle" x="80" y="-7.5" font-family="Helvetica,sans-Serif" font-size="10.00">Component</text>
</a>
</g>
</g>
<!-- Node2 -->
<g id="node2" class="node">
<title>Node2</title>
<g id="a_node2"><a target="_parent" xlink:href="http://doc.qt.io/qt-5/qframe.html" xlink:title=" ">
<polygon fill="none" stroke="black" points="52.5,-78.5 52.5,-97.5 107.5,-97.5 107.5,-78.5 52.5,-78.5"/>
<text text-anchor="middle" x="80" y="-85.5" font-family="Helvetica,sans-Serif" font-size="10.00">QFrame</text>
</a>
</g>
</g>
<!-- Node2&#45;&gt;Node1 -->
<g id="edge1" class="edge">
<title>Node2&#45;&gt;Node1</title>
<path fill="none" stroke="midnightblue" d="M80,-68.04C80,-59.71 80,-49.94 80,-41.54"/>
<polygon fill="midnightblue" stroke="midnightblue" points="76.5,-68.23 80,-78.23 83.5,-68.23 76.5,-68.23"/>
</g>
<!-- Node3 -->
<g id="node3" class="node">
<title>Node3</title>
<g id="a_node3"><a target="_parent" xlink:href="http://doc.qt.io/qt-5/qwidget.html" xlink:title=" ">
<polygon fill="none" stroke="black" points="50.5,-134.5 50.5,-153.5 109.5,-153.5 109.5,-134.5 50.5,-134.5"/>
<text text-anchor="middle" x="80" y="-141.5" font-family="Helvetica,sans-Serif" font-size="10.00">QWidget</text>
</a>
</g>
</g>
<!-- Node3&#45;&gt;Node2 -->
<g id="edge2" class="edge">
<title>Node3&#45;&gt;Node2</title>
<path fill="none" stroke="midnightblue" d="M80,-123.8C80,-114.91 80,-104.78 80,-97.75"/>
<polygon fill="midnightblue" stroke="midnightblue" points="76.5,-124.08 80,-134.08 83.5,-124.08 76.5,-124.08"/>
</g>
<!-- Node4 -->
<g id="node4" class="node">
<title>Node4</title>
<g id="a_node4"><a target="_parent" xlink:href="http://doc.qt.io/qt-5/qobject.html" xlink:title=" ">
<polygon fill="none" stroke="black" points="9,-190.5 9,-209.5 65,-209.5 65,-190.5 9,-190.5"/>
<text text-anchor="middle" x="37" y="-197.5" font-family="Helvetica,sans-Serif" font-size="10.00">QObject</text>
</a>
</g>
</g>
<!-- Node4&#45;&gt;Node3 -->
<g id="edge3" class="edge">
<title>Node4&#45;&gt;Node3</title>
<path fill="none" stroke="midnightblue" d="M50.42,-182.14C57.91,-172.74 66.94,-161.4 73.03,-153.75"/>
<polygon fill="midnightblue" stroke="midnightblue" points="47.59,-180.08 44.1,-190.08 53.07,-184.44 47.59,-180.08"/>
</g>
<!-- Node5 -->
<g id="node5" class="node">
<title>Node5</title>
<g id="a_node5"><a target="_parent" xlink:href="http://doc.qt.io/qt-5/qpaintdevice.html" xlink:title=" ">
<polygon fill="none" stroke="black" points="83,-190.5 83,-209.5 165,-209.5 165,-190.5 83,-190.5"/>
<text text-anchor="middle" x="124" y="-197.5" font-family="Helvetica,sans-Serif" font-size="10.00">QPaintDevice</text>
</a>
</g>
</g>
<!-- Node5&#45;&gt;Node3 -->
<g id="edge4" class="edge">
<title>Node5&#45;&gt;Node3</title>
<path fill="none" stroke="midnightblue" d="M110.27,-182.14C102.6,-172.74 93.37,-161.4 87.13,-153.75"/>
<polygon fill="midnightblue" stroke="midnightblue" points="107.7,-184.54 116.73,-190.08 113.13,-180.12 107.7,-184.54"/>
</g>
</g>
</svg>
