<?xml version="1.0" encoding="UTF-8" standalone="no"?>
<!DOCTYPE svg PUBLIC "-//W3C//DTD SVG 1.1//EN"
 "http://www.w3.org/Graphics/SVG/1.1/DTD/svg11.dtd">
<!-- Generated by graphviz version 2.43.0 (0)
 -->
<!-- Title: BlackMisc::PhysicalQuantities::CMeasurementUnit Pages: 1 -->
<svg width="540pt" height="431pt"
 viewBox="0.00 0.00 540.00 431.00" xmlns="http://www.w3.org/2000/svg" xmlns:xlink="http://www.w3.org/1999/xlink">
<g id="graph0" class="graph" transform="scale(1 1) rotate(0) translate(4 427)">
<title>BlackMisc::PhysicalQuantities::CMeasurementUnit</title>
<!-- Node1 -->
<g id="node1" class="node">
<title>Node1</title>
<g id="a_node1"><a xlink:title="Base class for all units, such as meter, hertz.">
<polygon fill="#bfbfbf" stroke="black" points="170,-196.5 170,-226.5 333,-226.5 333,-196.5 170,-196.5"/>
<text text-anchor="start" x="178" y="-214.5" font-family="Helvetica,sans-Serif" font-size="10.00">BlackMisc::PhysicalQuantities</text>
<text text-anchor="middle" x="251.5" y="-203.5" font-family="Helvetica,sans-Serif" font-size="10.00">::CMeasurementUnit</text>
</a>
</g>
</g>
<!-- Node4 -->
<g id="node4" class="node">
<title>Node4</title>
<g id="a_node4"><a xlink:href="class_black_misc_1_1_physical_quantities_1_1_c_acceleration_unit.html" target="_top" xlink:title="Specialized class for acceleration units (m/s2, ft/s2).">
<polygon fill="none" stroke="black" points="369,-392.5 369,-422.5 532,-422.5 532,-392.5 369,-392.5"/>
<text text-anchor="start" x="377" y="-410.5" font-family="Helvetica,sans-Serif" font-size="10.00">BlackMisc::PhysicalQuantities</text>
<text text-anchor="middle" x="450.5" y="-399.5" font-family="Helvetica,sans-Serif" font-size="10.00">::CAccelerationUnit</text>
</a>
</g>
</g>
<!-- Node1&#45;&gt;Node4 -->
<g id="edge3" class="edge">
<title>Node1&#45;&gt;Node4</title>
<path fill="none" stroke="midnightblue" d="M262.71,-236.36C279.37,-273.85 315.96,-344.61 369,-383.5 373.7,-386.95 378.9,-389.91 384.33,-392.44"/>
<polygon fill="midnightblue" stroke="midnightblue" points="265.72,-234.51 258.54,-226.72 259.3,-237.29 265.72,-234.51"/>
</g>
<!-- Node5 -->
<g id="node5" class="node">
<title>Node5</title>
<g id="a_node5"><a xlink:href="class_black_misc_1_1_physical_quantities_1_1_c_angle_unit.html" target="_top" xlink:title="Specialized class for angles (degrees, radian).">
<polygon fill="none" stroke="black" points="369,-343.5 369,-373.5 532,-373.5 532,-343.5 369,-343.5"/>
<text text-anchor="start" x="377" y="-361.5" font-family="Helvetica,sans-Serif" font-size="10.00">BlackMisc::PhysicalQuantities</text>
<text text-anchor="middle" x="450.5" y="-350.5" font-family="Helvetica,sans-Serif" font-size="10.00">::CAngleUnit</text>
</a>
</g>
</g>
<!-- Node1&#45;&gt;Node5 -->
<g id="edge4" class="edge">
<title>Node1&#45;&gt;Node5</title>
<path fill="none" stroke="midnightblue" d="M268.82,-235.13C289.16,-262.86 326.49,-308.37 369,-334.5 374.59,-337.94 380.7,-340.91 386.98,-343.47"/>
<polygon fill="midnightblue" stroke="midnightblue" points="271.5,-232.87 262.82,-226.8 265.82,-236.96 271.5,-232.87"/>
</g>
<!-- Node6 -->
<g id="node6" class="node">
<title>Node6</title>
<g id="a_node6"><a xlink:href="class_black_misc_1_1_physical_quantities_1_1_c_frequency_unit.html" target="_top" xlink:title="Specialized class for frequency (hertz, mega hertz, kilo hertz).">
<polygon fill="none" stroke="black" points="369,-294.5 369,-324.5 532,-324.5 532,-294.5 369,-294.5"/>
<text text-anchor="start" x="377" y="-312.5" font-family="Helvetica,sans-Serif" font-size="10.00">BlackMisc::PhysicalQuantities</text>
<text text-anchor="middle" x="450.5" y="-301.5" font-family="Helvetica,sans-Serif" font-size="10.00">::CFrequencyUnit</text>
</a>
</g>
</g>
<!-- Node1&#45;&gt;Node6 -->
<g id="edge5" class="edge">
<title>Node1&#45;&gt;Node6</title>
<path fill="none" stroke="midnightblue" d="M280.77,-232.6C303.61,-248.86 337.1,-270.96 369,-285.5 376.17,-288.77 383.89,-291.72 391.62,-294.36"/>
<polygon fill="midnightblue" stroke="midnightblue" points="282.72,-229.7 272.56,-226.69 278.62,-235.37 282.72,-229.7"/>
</g>
<!-- Node7 -->
<g id="node7" class="node">
<title>Node7</title>
<g id="a_node7"><a xlink:href="class_black_misc_1_1_physical_quantities_1_1_c_length_unit.html" target="_top" xlink:title="Specialized class for distance units (meter, foot, nautical miles).">
<polygon fill="none" stroke="black" points="369,-245.5 369,-275.5 532,-275.5 532,-245.5 369,-245.5"/>
<text text-anchor="start" x="377" y="-263.5" font-family="Helvetica,sans-Serif" font-size="10.00">BlackMisc::PhysicalQuantities</text>
<text text-anchor="middle" x="450.5" y="-252.5" font-family="Helvetica,sans-Serif" font-size="10.00">::CLengthUnit</text>
</a>
</g>
</g>
<!-- Node1&#45;&gt;Node7 -->
<g id="edge6" class="edge">
<title>Node1&#45;&gt;Node7</title>
<path fill="none" stroke="midnightblue" d="M322.76,-228.98C344.48,-234.38 368.19,-240.28 389.17,-245.49"/>
<polygon fill="midnightblue" stroke="midnightblue" points="323.49,-225.55 312.95,-226.53 321.8,-232.34 323.49,-225.55"/>
</g>
<!-- Node8 -->
<g id="node8" class="node">
<title>Node8</title>
<g id="a_node8"><a xlink:href="class_black_misc_1_1_physical_quantities_1_1_c_mass_unit.html" target="_top" xlink:title="Specialized class for mass units (kg, lbs).">
<polygon fill="none" stroke="black" points="369,-196.5 369,-226.5 532,-226.5 532,-196.5 369,-196.5"/>
<text text-anchor="start" x="377" y="-214.5" font-family="Helvetica,sans-Serif" font-size="10.00">BlackMisc::PhysicalQuantities</text>
<text text-anchor="middle" x="450.5" y="-203.5" font-family="Helvetica,sans-Serif" font-size="10.00">::CMassUnit</text>
</a>
</g>
</g>
<!-- Node1&#45;&gt;Node8 -->
<g id="edge7" class="edge">
<title>Node1&#45;&gt;Node8</title>
<path fill="none" stroke="midnightblue" d="M343.22,-211.5C351.8,-211.5 360.45,-211.5 368.93,-211.5"/>
<polygon fill="midnightblue" stroke="midnightblue" points="343.2,-208 333.2,-211.5 343.2,-215 343.2,-208"/>
</g>
<!-- Node9 -->
<g id="node9" class="node">
<title>Node9</title>
<g id="a_node9"><a xlink:href="class_black_misc_1_1_physical_quantities_1_1_c_pressure_unit.html" target="_top" xlink:title="Specialized class for pressure (psi, hPa, bar).">
<polygon fill="none" stroke="black" points="369,-147.5 369,-177.5 532,-177.5 532,-147.5 369,-147.5"/>
<text text-anchor="start" x="377" y="-165.5" font-family="Helvetica,sans-Serif" font-size="10.00">BlackMisc::PhysicalQuantities</text>
<text text-anchor="middle" x="450.5" y="-154.5" font-family="Helvetica,sans-Serif" font-size="10.00">::CPressureUnit</text>
</a>
</g>
</g>
<!-- Node1&#45;&gt;Node9 -->
<g id="edge8" class="edge">
<title>Node1&#45;&gt;Node9</title>
<path fill="none" stroke="midnightblue" d="M322.76,-194.02C344.48,-188.62 368.19,-182.72 389.17,-177.51"/>
<polygon fill="midnightblue" stroke="midnightblue" points="321.8,-190.66 312.95,-196.47 323.49,-197.45 321.8,-190.66"/>
</g>
<!-- Node10 -->
<g id="node10" class="node">
<title>Node10</title>
<g id="a_node10"><a xlink:href="class_black_misc_1_1_physical_quantities_1_1_c_speed_unit.html" target="_top" xlink:title="Specialized class for speed units (m/s, ft/s, NM/h).">
<polygon fill="none" stroke="black" points="369,-98.5 369,-128.5 532,-128.5 532,-98.5 369,-98.5"/>
<text text-anchor="start" x="377" y="-116.5" font-family="Helvetica,sans-Serif" font-size="10.00">BlackMisc::PhysicalQuantities</text>
<text text-anchor="middle" x="450.5" y="-105.5" font-family="Helvetica,sans-Serif" font-size="10.00">::CSpeedUnit</text>
</a>
</g>
</g>
<!-- Node1&#45;&gt;Node10 -->
<g id="edge9" class="edge">
<title>Node1&#45;&gt;Node10</title>
<path fill="none" stroke="midnightblue" d="M280.77,-190.4C303.61,-174.14 337.1,-152.04 369,-137.5 376.17,-134.23 383.89,-131.28 391.62,-128.64"/>
<polygon fill="midnightblue" stroke="midnightblue" points="278.62,-187.63 272.56,-196.31 282.72,-193.3 278.62,-187.63"/>
</g>
<!-- Node11 -->
<g id="node11" class="node">
<title>Node11</title>
<g id="a_node11"><a xlink:href="class_black_misc_1_1_physical_quantities_1_1_c_temperature_unit.html" target="_top" xlink:title="Specialized class for temperatur units (kelvin, centidegree).">
<polygon fill="none" stroke="black" points="369,-49.5 369,-79.5 532,-79.5 532,-49.5 369,-49.5"/>
<text text-anchor="start" x="377" y="-67.5" font-family="Helvetica,sans-Serif" font-size="10.00">BlackMisc::PhysicalQuantities</text>
<text text-anchor="middle" x="450.5" y="-56.5" font-family="Helvetica,sans-Serif" font-size="10.00">::CTemperatureUnit</text>
</a>
</g>
</g>
<!-- Node1&#45;&gt;Node11 -->
<g id="edge10" class="edge">
<title>Node1&#45;&gt;Node11</title>
<path fill="none" stroke="midnightblue" d="M268.82,-187.87C289.16,-160.14 326.49,-114.63 369,-88.5 374.59,-85.06 380.7,-82.09 386.98,-79.53"/>
<polygon fill="midnightblue" stroke="midnightblue" points="265.82,-186.04 262.82,-196.2 271.5,-190.13 265.82,-186.04"/>
</g>
<!-- Node12 -->
<g id="node12" class="node">
<title>Node12</title>
<g id="a_node12"><a xlink:href="class_black_misc_1_1_physical_quantities_1_1_c_time_unit.html" target="_top" xlink:title="Specialized class for time units (ms, hour, min).">
<polygon fill="none" stroke="black" points="369,-0.5 369,-30.5 532,-30.5 532,-0.5 369,-0.5"/>
<text text-anchor="start" x="377" y="-18.5" font-family="Helvetica,sans-Serif" font-size="10.00">BlackMisc::PhysicalQuantities</text>
<text text-anchor="middle" x="450.5" y="-7.5" font-family="Helvetica,sans-Serif" font-size="10.00">::CTimeUnit</text>
</a>
</g>
</g>
<!-- Node1&#45;&gt;Node12 -->
<g id="edge11" class="edge">
<title>Node1&#45;&gt;Node12</title>
<path fill="none" stroke="midnightblue" d="M262.71,-186.64C279.37,-149.15 315.96,-78.39 369,-39.5 373.7,-36.05 378.9,-33.09 384.33,-30.56"/>
<polygon fill="midnightblue" stroke="midnightblue" points="259.3,-185.71 258.54,-196.28 265.72,-188.49 259.3,-185.71"/>
</g>
<!-- Node2 -->
<g id="node2" class="node">
<title>Node2</title>
<g id="a_node2"><a xlink:href="class_black_misc_1_1_mixin_1_1_string.html" target="_top" xlink:title=" ">
<polygon fill="none" stroke="black" points="0,-221.5 0,-251.5 134,-251.5 134,-221.5 0,-221.5"/>
<text text-anchor="start" x="8" y="-239.5" font-family="Helvetica,sans-Serif" font-size="10.00">BlackMisc::Mixin::String</text>
<text text-anchor="middle" x="67" y="-228.5" font-family="Helvetica,sans-Serif" font-size="10.00">&lt; CMeasurementUnit &gt;</text>
</a>
</g>
</g>
<!-- Node2&#45;&gt;Node1 -->
<g id="edge1" class="edge">
<title>Node2&#45;&gt;Node1</title>
<path fill="none" stroke="midnightblue" d="M144.08,-226.08C152.63,-224.91 161.36,-223.71 169.96,-222.53"/>
<polygon fill="midnightblue" stroke="midnightblue" points="143.58,-222.61 134.14,-227.44 144.53,-229.55 143.58,-222.61"/>
</g>
<!-- Node3 -->
<g id="node3" class="node">
<title>Node3</title>
<g id="a_node3"><a xlink:href="class_black_misc_1_1_mixin_1_1_icon.html" target="_top" xlink:title=" ">
<polygon fill="none" stroke="black" points="0,-172.5 0,-202.5 134,-202.5 134,-172.5 0,-172.5"/>
<text text-anchor="start" x="8" y="-190.5" font-family="Helvetica,sans-Serif" font-size="10.00">BlackMisc::Mixin::Icon</text>
<text text-anchor="middle" x="67" y="-179.5" font-family="Helvetica,sans-Serif" font-size="10.00">&lt; CMeasurementUnit &gt;</text>
</a>
</g>
</g>
<!-- Node3&#45;&gt;Node1 -->
<g id="edge2" class="edge">
<title>Node3&#45;&gt;Node1</title>
<path fill="none" stroke="midnightblue" d="M144.08,-197.5C152.63,-198.63 161.36,-199.78 169.96,-200.91"/>
<polygon fill="midnightblue" stroke="midnightblue" points="144.52,-194.03 134.14,-196.2 143.6,-200.97 144.52,-194.03"/>
</g>
</g>
</svg>
