<?xml version="1.0" encoding="UTF-8" standalone="no"?>
<!DOCTYPE svg PUBLIC "-//W3C//DTD SVG 1.1//EN"
 "http://www.w3.org/Graphics/SVG/1.1/DTD/svg11.dtd">
<!-- Generated by graphviz version 2.43.0 (0)
 -->
<!-- Title: BlackGui::Models::CBoolTextFormatter Pages: 1 -->
<svg width="336pt" height="173pt"
 viewBox="0.00 0.00 335.50 173.00" xmlns="http://www.w3.org/2000/svg" xmlns:xlink="http://www.w3.org/1999/xlink">
<g id="graph0" class="graph" transform="scale(1 1) rotate(0) translate(4 169)">
<title>BlackGui::Models::CBoolTextFormatter</title>
<!-- Node1 -->
<g id="node1" class="node">
<title>Node1</title>
<g id="a_node1"><a xlink:title="Bool value, format as text.">
<polygon fill="#bfbfbf" stroke="black" points="86,-67.5 86,-97.5 242,-97.5 242,-67.5 86,-67.5"/>
<text text-anchor="start" x="94" y="-85.5" font-family="Helvetica,sans-Serif" font-size="10.00">BlackGui::Models::CBoolText</text>
<text text-anchor="middle" x="164" y="-74.5" font-family="Helvetica,sans-Serif" font-size="10.00">Formatter</text>
</a>
</g>
</g>
<!-- Node3 -->
<g id="node3" class="node">
<title>Node3</title>
<g id="a_node3"><a xlink:href="class_black_gui_1_1_models_1_1_c_bool_icon_formatter.html" target="_top" xlink:title="Format as bool pixmap.">
<polygon fill="none" stroke="black" points="0,-0.5 0,-30.5 156,-30.5 156,-0.5 0,-0.5"/>
<text text-anchor="start" x="8" y="-18.5" font-family="Helvetica,sans-Serif" font-size="10.00">BlackGui::Models::CBoolIcon</text>
<text text-anchor="middle" x="78" y="-7.5" font-family="Helvetica,sans-Serif" font-size="10.00">Formatter</text>
</a>
</g>
</g>
<!-- Node1&#45;&gt;Node3 -->
<g id="edge2" class="edge">
<title>Node1&#45;&gt;Node3</title>
<path fill="none" stroke="midnightblue" d="M137.1,-61.17C123.95,-51.23 108.45,-39.51 96.62,-30.58"/>
<polygon fill="midnightblue" stroke="midnightblue" points="135.25,-64.16 145.34,-67.4 139.47,-58.57 135.25,-64.16"/>
</g>
<!-- Node4 -->
<g id="node4" class="node">
<title>Node4</title>
<g id="a_node4"><a xlink:href="class_black_gui_1_1_models_1_1_c_bool_led_formatter.html" target="_top" xlink:title="Format as bool LED value.">
<polygon fill="none" stroke="black" points="174.5,-0.5 174.5,-30.5 327.5,-30.5 327.5,-0.5 174.5,-0.5"/>
<text text-anchor="start" x="182.5" y="-18.5" font-family="Helvetica,sans-Serif" font-size="10.00">BlackGui::Models::CBoolLed</text>
<text text-anchor="middle" x="251" y="-7.5" font-family="Helvetica,sans-Serif" font-size="10.00">Formatter</text>
</a>
</g>
</g>
<!-- Node1&#45;&gt;Node4 -->
<g id="edge3" class="edge">
<title>Node1&#45;&gt;Node4</title>
<path fill="none" stroke="midnightblue" d="M191.21,-61.17C204.52,-51.23 220.2,-39.51 232.16,-30.58"/>
<polygon fill="midnightblue" stroke="midnightblue" points="188.79,-58.61 182.88,-67.4 192.98,-64.21 188.79,-58.61"/>
</g>
<!-- Node2 -->
<g id="node2" class="node">
<title>Node2</title>
<g id="a_node2"><a xlink:href="class_black_gui_1_1_models_1_1_c_default_formatter.html" target="_top" xlink:title="Column formatter default implementation, also serving as interface.">
<polygon fill="none" stroke="black" points="89,-134.5 89,-164.5 239,-164.5 239,-134.5 89,-134.5"/>
<text text-anchor="start" x="97" y="-152.5" font-family="Helvetica,sans-Serif" font-size="10.00">BlackGui::Models::CDefault</text>
<text text-anchor="middle" x="164" y="-141.5" font-family="Helvetica,sans-Serif" font-size="10.00">Formatter</text>
</a>
</g>
</g>
<!-- Node2&#45;&gt;Node1 -->
<g id="edge1" class="edge">
<title>Node2&#45;&gt;Node1</title>
<path fill="none" stroke="midnightblue" d="M164,-124.11C164,-115.15 164,-105.32 164,-97.58"/>
<polygon fill="midnightblue" stroke="midnightblue" points="160.5,-124.4 164,-134.4 167.5,-124.4 160.5,-124.4"/>
</g>
</g>
</svg>
