<?xml version="1.0" encoding="UTF-8" standalone="no"?>
<!DOCTYPE svg PUBLIC "-//W3C//DTD SVG 1.1//EN"
 "http://www.w3.org/Graphics/SVG/1.1/DTD/svg11.dtd">
<!-- Generated by graphviz version 2.43.0 (0)
 -->
<!-- Title: BlackGui::Views::CViewWithDbObjects&lt; T &gt; Pages: 1 -->
<svg width="2116pt" height="160pt"
 viewBox="0.00 0.00 2116.00 159.50" xmlns="http://www.w3.org/2000/svg" xmlns:xlink="http://www.w3.org/1999/xlink">
<g id="graph0" class="graph" transform="scale(1 1) rotate(0) translate(4 155.5)">
<title>BlackGui::Views::CViewWithDbObjects&lt; T &gt;</title>
<!-- Node1 -->
<g id="node1" class="node">
<title>Node1</title>
<g id="a_node1"><a xlink:title="Base class for views with DB objects.">
<polygon fill="#bfbfbf" stroke="black" points="1516,-55.5 1516,-85.5 1671,-85.5 1671,-55.5 1516,-55.5"/>
<text text-anchor="start" x="1524" y="-73.5" font-family="Helvetica,sans-Serif" font-size="10.00">BlackGui::Views::CViewWith</text>
<text text-anchor="middle" x="1593.5" y="-62.5" font-family="Helvetica,sans-Serif" font-size="10.00">DbObjects&lt; T &gt;</text>
</a>
</g>
</g>
<!-- Node15 -->
<g id="node15" class="node">
<title>Node15</title>
<g id="a_node15"><a xlink:href="class_black_gui_1_1_views_1_1_c_orderable_view_with_db_objects.html" target="_top" xlink:title=" ">
<polygon fill="none" stroke="black" points="1717.5,-110 1717.5,-151 1877.5,-151 1877.5,-110 1717.5,-110"/>
<text text-anchor="start" x="1725.5" y="-139" font-family="Helvetica,sans-Serif" font-size="10.00">BlackGui::Views::COrderable</text>
<text text-anchor="start" x="1725.5" y="-128" font-family="Helvetica,sans-Serif" font-size="10.00">ViewWithDbObjects&lt; Models</text>
<text text-anchor="middle" x="1797.5" y="-117" font-family="Helvetica,sans-Serif" font-size="10.00">::CAircraftModelListModel &gt;</text>
</a>
</g>
</g>
<!-- Node1&#45;&gt;Node15 -->
<g id="edge14" class="edge">
<title>Node1&#45;&gt;Node15</title>
<path fill="none" stroke="midnightblue" d="M1655.09,-88.5C1677.88,-95.27 1703.95,-103.01 1727.44,-109.99"/>
<polygon fill="midnightblue" stroke="midnightblue" points="1655.8,-85.06 1645.21,-85.56 1653.8,-91.77 1655.8,-85.06"/>
</g>
<!-- Node17 -->
<g id="node17" class="node">
<title>Node17</title>
<g id="a_node17"><a xlink:href="class_black_gui_1_1_views_1_1_c_orderable_view_with_db_objects.html" target="_top" xlink:title=" ">
<polygon fill="none" stroke="black" points="1707,-50 1707,-91 1888,-91 1888,-50 1707,-50"/>
<text text-anchor="start" x="1715" y="-79" font-family="Helvetica,sans-Serif" font-size="10.00">BlackGui::Views::COrderable</text>
<text text-anchor="start" x="1715" y="-68" font-family="Helvetica,sans-Serif" font-size="10.00">ViewWithDbObjects&lt; BlackGui</text>
<text text-anchor="middle" x="1797.5" y="-57" font-family="Helvetica,sans-Serif" font-size="10.00">::Models::CDistributorListModel &gt;</text>
</a>
</g>
</g>
<!-- Node1&#45;&gt;Node17 -->
<g id="edge16" class="edge">
<title>Node1&#45;&gt;Node17</title>
<path fill="none" stroke="midnightblue" d="M1681.32,-70.5C1689.72,-70.5 1698.25,-70.5 1706.68,-70.5"/>
<polygon fill="midnightblue" stroke="midnightblue" points="1681.16,-67 1671.16,-70.5 1681.16,-74 1681.16,-67"/>
</g>
<!-- Node19 -->
<g id="node19" class="node">
<title>Node19</title>
<g id="a_node19"><a xlink:href="class_black_gui_1_1_views_1_1_c_orderable_view_with_db_objects.html" target="_top" xlink:title="Base class for views with DB objects also orderable (based on BlackMisc::IOrderableList )">
<polygon fill="none" stroke="black" points="1719.5,-0.5 1719.5,-30.5 1875.5,-30.5 1875.5,-0.5 1719.5,-0.5"/>
<text text-anchor="start" x="1727.5" y="-18.5" font-family="Helvetica,sans-Serif" font-size="10.00">BlackGui::Views::COrderable</text>
<text text-anchor="middle" x="1797.5" y="-7.5" font-family="Helvetica,sans-Serif" font-size="10.00">ViewWithDbObjects&lt; T &gt;</text>
</a>
</g>
</g>
<!-- Node1&#45;&gt;Node19 -->
<g id="edge18" class="edge">
<title>Node1&#45;&gt;Node19</title>
<path fill="none" stroke="midnightblue" d="M1659.6,-52.77C1685.98,-45.59 1716.1,-37.39 1741.37,-30.51"/>
<polygon fill="midnightblue" stroke="midnightblue" points="1658.43,-49.47 1649.7,-55.47 1660.27,-56.22 1658.43,-49.47"/>
</g>
<!-- Node2 -->
<g id="node2" class="node">
<title>Node2</title>
<g id="a_node2"><a xlink:href="class_black_gui_1_1_views_1_1_c_view_base.html" target="_top" xlink:title="Base class for views.">
<polygon fill="none" stroke="black" points="1295,-61 1295,-80 1480,-80 1480,-61 1295,-61"/>
<text text-anchor="middle" x="1387.5" y="-68" font-family="Helvetica,sans-Serif" font-size="10.00">BlackGui::Views::CViewBase&lt; T &gt;</text>
</a>
</g>
</g>
<!-- Node2&#45;&gt;Node1 -->
<g id="edge1" class="edge">
<title>Node2&#45;&gt;Node1</title>
<path fill="none" stroke="midnightblue" d="M1490.19,-70.5C1498.83,-70.5 1507.48,-70.5 1515.88,-70.5"/>
<polygon fill="midnightblue" stroke="midnightblue" points="1490.06,-67 1480.06,-70.5 1490.06,-74 1490.06,-67"/>
</g>
<!-- Node3 -->
<g id="node3" class="node">
<title>Node3</title>
<g id="a_node3"><a xlink:href="class_black_gui_1_1_views_1_1_c_view_base_non_template.html" target="_top" xlink:title="Non templated base class, allows Q_OBJECT and signals / slots to be used.">
<polygon fill="none" stroke="black" points="1103,-80.5 1103,-110.5 1259,-110.5 1259,-80.5 1103,-80.5"/>
<text text-anchor="start" x="1111" y="-98.5" font-family="Helvetica,sans-Serif" font-size="10.00">BlackGui::Views::CViewBase</text>
<text text-anchor="middle" x="1181" y="-87.5" font-family="Helvetica,sans-Serif" font-size="10.00">NonTemplate</text>
</a>
</g>
</g>
<!-- Node3&#45;&gt;Node2 -->
<g id="edge2" class="edge">
<title>Node3&#45;&gt;Node2</title>
<path fill="none" stroke="midnightblue" d="M1268.98,-84.87C1282.12,-83.26 1295.6,-81.61 1308.53,-80.03"/>
<polygon fill="midnightblue" stroke="midnightblue" points="1268.52,-81.4 1259.02,-86.08 1269.37,-88.34 1268.52,-81.4"/>
</g>
<!-- Node4 -->
<g id="node4" class="node">
<title>Node4</title>
<g id="a_node4"><a xlink:href="class_black_gui_1_1_c_overlay_messages_table_view.html" target="_top" xlink:title="Using this class provides a QTableView with the overlay functionality already integrated.">
<polygon fill="none" stroke="black" points="907,-105.5 907,-135.5 1067,-135.5 1067,-105.5 907,-105.5"/>
<text text-anchor="start" x="915" y="-123.5" font-family="Helvetica,sans-Serif" font-size="10.00">BlackGui::COverlayMessages</text>
<text text-anchor="middle" x="987" y="-112.5" font-family="Helvetica,sans-Serif" font-size="10.00">TableView</text>
</a>
</g>
</g>
<!-- Node4&#45;&gt;Node3 -->
<g id="edge3" class="edge">
<title>Node4&#45;&gt;Node3</title>
<path fill="none" stroke="midnightblue" d="M1077.2,-108.88C1085.77,-107.77 1094.4,-106.65 1102.84,-105.55"/>
<polygon fill="midnightblue" stroke="midnightblue" points="1076.67,-105.43 1067.2,-110.19 1077.57,-112.37 1076.67,-105.43"/>
</g>
<!-- Node5 -->
<g id="node5" class="node">
<title>Node5</title>
<g id="a_node5"><a xlink:href="class_black_gui_1_1_c_overlay_messages_base.html" target="_top" xlink:title=" ">
<polygon fill="none" stroke="black" points="711,-105.5 711,-135.5 871,-135.5 871,-105.5 711,-105.5"/>
<text text-anchor="start" x="719" y="-123.5" font-family="Helvetica,sans-Serif" font-size="10.00">BlackGui::COverlayMessages</text>
<text text-anchor="middle" x="791" y="-112.5" font-family="Helvetica,sans-Serif" font-size="10.00">Base&lt; QTableView &gt;</text>
</a>
</g>
</g>
<!-- Node5&#45;&gt;Node4 -->
<g id="edge4" class="edge">
<title>Node5&#45;&gt;Node4</title>
<path fill="none" stroke="midnightblue" d="M881.44,-120.5C889.88,-120.5 898.41,-120.5 906.75,-120.5"/>
<polygon fill="midnightblue" stroke="midnightblue" points="881.19,-117 871.19,-120.5 881.19,-124 881.19,-117"/>
</g>
<!-- Node6 -->
<g id="node6" class="node">
<title>Node6</title>
<g id="a_node6"><a target="_parent" xlink:href="http://doc.qt.io/qt-5/qtableview.html" xlink:title=" ">
<polygon fill="none" stroke="black" points="601,-111 601,-130 675,-130 675,-111 601,-111"/>
<text text-anchor="middle" x="638" y="-118" font-family="Helvetica,sans-Serif" font-size="10.00">QTableView</text>
</a>
</g>
</g>
<!-- Node6&#45;&gt;Node5 -->
<g id="edge5" class="edge">
<title>Node6&#45;&gt;Node5</title>
<path fill="none" stroke="midnightblue" d="M685.44,-120.5C693.5,-120.5 702.09,-120.5 710.75,-120.5"/>
<polygon fill="midnightblue" stroke="midnightblue" points="685.17,-117 675.17,-120.5 685.17,-124 685.17,-117"/>
</g>
<!-- Node7 -->
<g id="node7" class="node">
<title>Node7</title>
<g id="a_node7"><a target="_parent" xlink:href="http://doc.qt.io/qt-5/qabstractitemview.html" xlink:title=" ">
<polygon fill="none" stroke="black" points="454,-111 454,-130 565,-130 565,-111 454,-111"/>
<text text-anchor="middle" x="509.5" y="-118" font-family="Helvetica,sans-Serif" font-size="10.00">QAbstractItemView</text>
</a>
</g>
</g>
<!-- Node7&#45;&gt;Node6 -->
<g id="edge6" class="edge">
<title>Node7&#45;&gt;Node6</title>
<path fill="none" stroke="midnightblue" d="M575.45,-120.5C584.16,-120.5 592.82,-120.5 600.78,-120.5"/>
<polygon fill="midnightblue" stroke="midnightblue" points="575.25,-117 565.25,-120.5 575.25,-124 575.25,-117"/>
</g>
<!-- Node8 -->
<g id="node8" class="node">
<title>Node8</title>
<g id="a_node8"><a target="_parent" xlink:href="http://doc.qt.io/qt-5/qabstractscrollarea.html" xlink:title=" ">
<polygon fill="none" stroke="black" points="304,-111 304,-130 418,-130 418,-111 304,-111"/>
<text text-anchor="middle" x="361" y="-118" font-family="Helvetica,sans-Serif" font-size="10.00">QAbstractScrollArea</text>
</a>
</g>
</g>
<!-- Node8&#45;&gt;Node7 -->
<g id="edge7" class="edge">
<title>Node8&#45;&gt;Node7</title>
<path fill="none" stroke="midnightblue" d="M428.42,-120.5C436.85,-120.5 445.41,-120.5 453.64,-120.5"/>
<polygon fill="midnightblue" stroke="midnightblue" points="428.22,-117 418.22,-120.5 428.22,-124 428.22,-117"/>
</g>
<!-- Node9 -->
<g id="node9" class="node">
<title>Node9</title>
<g id="a_node9"><a target="_parent" xlink:href="http://doc.qt.io/qt-5/qframe.html" xlink:title=" ">
<polygon fill="none" stroke="black" points="213,-111 213,-130 268,-130 268,-111 213,-111"/>
<text text-anchor="middle" x="240.5" y="-118" font-family="Helvetica,sans-Serif" font-size="10.00">QFrame</text>
</a>
</g>
</g>
<!-- Node9&#45;&gt;Node8 -->
<g id="edge8" class="edge">
<title>Node9&#45;&gt;Node8</title>
<path fill="none" stroke="midnightblue" d="M278.33,-120.5C286.45,-120.5 295.24,-120.5 303.93,-120.5"/>
<polygon fill="midnightblue" stroke="midnightblue" points="278.09,-117 268.09,-120.5 278.09,-124 278.09,-117"/>
</g>
<!-- Node10 -->
<g id="node10" class="node">
<title>Node10</title>
<g id="a_node10"><a target="_parent" xlink:href="http://doc.qt.io/qt-5/qwidget.html" xlink:title=" ">
<polygon fill="none" stroke="black" points="118,-111 118,-130 177,-130 177,-111 118,-111"/>
<text text-anchor="middle" x="147.5" y="-118" font-family="Helvetica,sans-Serif" font-size="10.00">QWidget</text>
</a>
</g>
</g>
<!-- Node10&#45;&gt;Node9 -->
<g id="edge9" class="edge">
<title>Node10&#45;&gt;Node9</title>
<path fill="none" stroke="midnightblue" d="M187.46,-120.5C195.99,-120.5 204.83,-120.5 212.75,-120.5"/>
<polygon fill="midnightblue" stroke="midnightblue" points="187.29,-117 177.29,-120.5 187.29,-124 187.29,-117"/>
</g>
<!-- Node11 -->
<g id="node11" class="node">
<title>Node11</title>
<g id="a_node11"><a target="_parent" xlink:href="http://doc.qt.io/qt-5/qobject.html" xlink:title=" ">
<polygon fill="none" stroke="black" points="13,-130 13,-149 69,-149 69,-130 13,-130"/>
<text text-anchor="middle" x="41" y="-137" font-family="Helvetica,sans-Serif" font-size="10.00">QObject</text>
</a>
</g>
</g>
<!-- Node11&#45;&gt;Node10 -->
<g id="edge10" class="edge">
<title>Node11&#45;&gt;Node10</title>
<path fill="none" stroke="midnightblue" d="M79.09,-132.76C91.88,-130.43 106,-127.86 117.99,-125.68"/>
<polygon fill="midnightblue" stroke="midnightblue" points="78.4,-129.33 69.18,-134.56 79.65,-136.21 78.4,-129.33"/>
</g>
<!-- Node12 -->
<g id="node12" class="node">
<title>Node12</title>
<g id="a_node12"><a target="_parent" xlink:href="http://doc.qt.io/qt-5/qpaintdevice.html" xlink:title=" ">
<polygon fill="none" stroke="black" points="0,-92 0,-111 82,-111 82,-92 0,-92"/>
<text text-anchor="middle" x="41" y="-99" font-family="Helvetica,sans-Serif" font-size="10.00">QPaintDevice</text>
</a>
</g>
</g>
<!-- Node12&#45;&gt;Node10 -->
<g id="edge11" class="edge">
<title>Node12&#45;&gt;Node10</title>
<path fill="none" stroke="midnightblue" d="M91.97,-110.59C100.8,-112.19 109.71,-113.81 117.69,-115.26"/>
<polygon fill="midnightblue" stroke="midnightblue" points="92.57,-107.14 82.1,-108.79 91.32,-114.02 92.57,-107.14"/>
</g>
<!-- Node13 -->
<g id="node13" class="node">
<title>Node13</title>
<g id="a_node13"><a xlink:href="class_black_gui_1_1_c_enable_for_dock_widget_info_area.html" target="_top" xlink:title="Helper class: If a component is residing in an dockable widget. This class provides access to its inf...">
<polygon fill="none" stroke="black" points="914,-56.5 914,-86.5 1060,-86.5 1060,-56.5 914,-56.5"/>
<text text-anchor="start" x="922" y="-74.5" font-family="Helvetica,sans-Serif" font-size="10.00">BlackGui::CEnableForDock</text>
<text text-anchor="middle" x="987" y="-63.5" font-family="Helvetica,sans-Serif" font-size="10.00">WidgetInfoArea</text>
</a>
</g>
</g>
<!-- Node13&#45;&gt;Node3 -->
<g id="edge12" class="edge">
<title>Node13&#45;&gt;Node3</title>
<path fill="none" stroke="midnightblue" d="M1070.28,-81.78C1081.05,-83.13 1092.05,-84.51 1102.74,-85.84"/>
<polygon fill="midnightblue" stroke="midnightblue" points="1070.4,-78.27 1060.04,-80.5 1069.53,-85.22 1070.4,-78.27"/>
</g>
<!-- Node14 -->
<g id="node14" class="node">
<title>Node14</title>
<g id="a_node14"><a xlink:href="class_black_gui_1_1_models_1_1_i_selection_model.html" target="_top" xlink:title=" ">
<polygon fill="none" stroke="black" points="1103.5,-31.5 1103.5,-61.5 1258.5,-61.5 1258.5,-31.5 1103.5,-31.5"/>
<text text-anchor="start" x="1111.5" y="-49.5" font-family="Helvetica,sans-Serif" font-size="10.00">BlackGui::Models::ISelection</text>
<text text-anchor="middle" x="1181" y="-38.5" font-family="Helvetica,sans-Serif" font-size="10.00">Model&lt; T::ContainerType &gt;</text>
</a>
</g>
</g>
<!-- Node14&#45;&gt;Node2 -->
<g id="edge13" class="edge">
<title>Node14&#45;&gt;Node2</title>
<path fill="none" stroke="midnightblue" d="M1268.8,-56.69C1280.88,-58.1 1293.26,-59.56 1305.24,-60.96"/>
<polygon fill="midnightblue" stroke="midnightblue" points="1269.07,-53.19 1258.73,-55.5 1268.25,-60.15 1269.07,-53.19"/>
</g>
<!-- Node16 -->
<g id="node16" class="node">
<title>Node16</title>
<g id="a_node16"><a xlink:href="class_black_gui_1_1_views_1_1_c_aircraft_model_view.html" target="_top" xlink:title="Aircraft view.">
<polygon fill="none" stroke="black" points="1944.5,-115.5 1944.5,-145.5 2087.5,-145.5 2087.5,-115.5 1944.5,-115.5"/>
<text text-anchor="start" x="1952.5" y="-133.5" font-family="Helvetica,sans-Serif" font-size="10.00">BlackGui::Views::CAircraft</text>
<text text-anchor="middle" x="2016" y="-122.5" font-family="Helvetica,sans-Serif" font-size="10.00">ModelView</text>
</a>
</g>
</g>
<!-- Node15&#45;&gt;Node16 -->
<g id="edge15" class="edge">
<title>Node15&#45;&gt;Node16</title>
<path fill="none" stroke="midnightblue" d="M1887.68,-130.5C1906.58,-130.5 1926.28,-130.5 1944.37,-130.5"/>
<polygon fill="midnightblue" stroke="midnightblue" points="1887.58,-127 1877.58,-130.5 1887.58,-134 1887.58,-127"/>
</g>
<!-- Node18 -->
<g id="node18" class="node">
<title>Node18</title>
<g id="a_node18"><a xlink:href="class_black_gui_1_1_views_1_1_c_distributor_view.html" target="_top" xlink:title="Distributors.">
<polygon fill="none" stroke="black" points="1924,-61 1924,-80 2108,-80 2108,-61 1924,-61"/>
<text text-anchor="middle" x="2016" y="-68" font-family="Helvetica,sans-Serif" font-size="10.00">BlackGui::Views::CDistributorView</text>
</a>
</g>
</g>
<!-- Node17&#45;&gt;Node18 -->
<g id="edge17" class="edge">
<title>Node17&#45;&gt;Node18</title>
<path fill="none" stroke="midnightblue" d="M1898.37,-70.5C1906.81,-70.5 1915.33,-70.5 1923.7,-70.5"/>
<polygon fill="midnightblue" stroke="midnightblue" points="1898.12,-67 1888.12,-70.5 1898.12,-74 1898.12,-67"/>
</g>
</g>
</svg>
