<?xml version="1.0" encoding="UTF-8" standalone="no"?>
<!DOCTYPE svg PUBLIC "-//W3C//DTD SVG 1.1//EN"
 "http://www.w3.org/Graphics/SVG/1.1/DTD/svg11.dtd">
<!-- Generated by graphviz version 2.43.0 (0)
 -->
<!-- Title: BlackMisc::SharedState::DBus::IDuplex Pages: 1 -->
<svg width="288pt" height="162pt"
 viewBox="0.00 0.00 288.00 162.00" xmlns="http://www.w3.org/2000/svg" xmlns:xlink="http://www.w3.org/1999/xlink">
<g id="graph0" class="graph" transform="scale(1 1) rotate(0) translate(4 158)">
<title>BlackMisc::SharedState::DBus::IDuplex</title>
<!-- Node1 -->
<g id="node1" class="node">
<title>Node1</title>
<g id="a_node1"><a xlink:title="Abstract interface for the spoke in a star topology.">
<polygon fill="#bfbfbf" stroke="black" points="74,-67.5 74,-97.5 205,-97.5 205,-67.5 74,-67.5"/>
<text text-anchor="start" x="82" y="-85.5" font-family="Helvetica,sans-Serif" font-size="10.00">BlackMisc::SharedState</text>
<text text-anchor="middle" x="139.5" y="-74.5" font-family="Helvetica,sans-Serif" font-size="10.00">::DBus::IDuplex</text>
</a>
</g>
</g>
<!-- Node3 -->
<g id="node3" class="node">
<title>Node3</title>
<g id="a_node3"><a xlink:href="class_black_misc_1_1_shared_state_1_1_d_bus_1_1_c_duplex.html" target="_top" xlink:title="Server side implementation of IDuplex.">
<polygon fill="none" stroke="black" points="0,-0.5 0,-30.5 131,-30.5 131,-0.5 0,-0.5"/>
<text text-anchor="start" x="8" y="-18.5" font-family="Helvetica,sans-Serif" font-size="10.00">BlackMisc::SharedState</text>
<text text-anchor="middle" x="65.5" y="-7.5" font-family="Helvetica,sans-Serif" font-size="10.00">::DBus::CDuplex</text>
</a>
</g>
</g>
<!-- Node1&#45;&gt;Node3 -->
<g id="edge2" class="edge">
<title>Node1&#45;&gt;Node3</title>
<path fill="none" stroke="midnightblue" d="M115.7,-60.6C104.53,-50.78 91.51,-39.34 81.53,-30.58"/>
<polygon fill="midnightblue" stroke="midnightblue" points="113.62,-63.43 123.44,-67.4 118.24,-58.17 113.62,-63.43"/>
</g>
<!-- Node4 -->
<g id="node4" class="node">
<title>Node4</title>
<g id="a_node4"><a xlink:href="class_black_misc_1_1_shared_state_1_1_d_bus_1_1_c_duplex_proxy.html" target="_top" xlink:title="Client side implementation of IDuplex, through which the client communicates with the server.">
<polygon fill="none" stroke="black" points="149,-0.5 149,-30.5 280,-30.5 280,-0.5 149,-0.5"/>
<text text-anchor="start" x="157" y="-18.5" font-family="Helvetica,sans-Serif" font-size="10.00">BlackMisc::SharedState</text>
<text text-anchor="middle" x="214.5" y="-7.5" font-family="Helvetica,sans-Serif" font-size="10.00">::DBus::CDuplexProxy</text>
</a>
</g>
</g>
<!-- Node1&#45;&gt;Node4 -->
<g id="edge3" class="edge">
<title>Node1&#45;&gt;Node4</title>
<path fill="none" stroke="midnightblue" d="M163.62,-60.6C174.94,-50.78 188.14,-39.34 198.26,-30.58"/>
<polygon fill="midnightblue" stroke="midnightblue" points="161.04,-58.2 155.77,-67.4 165.62,-63.49 161.04,-58.2"/>
</g>
<!-- Node2 -->
<g id="node2" class="node">
<title>Node2</title>
<g id="a_node2"><a target="_parent" xlink:href="http://doc.qt.io/qt-5/qobject.html" xlink:title=" ">
<polygon fill="none" stroke="black" points="111.5,-134.5 111.5,-153.5 167.5,-153.5 167.5,-134.5 111.5,-134.5"/>
<text text-anchor="middle" x="139.5" y="-141.5" font-family="Helvetica,sans-Serif" font-size="10.00">QObject</text>
</a>
</g>
</g>
<!-- Node2&#45;&gt;Node1 -->
<g id="edge1" class="edge">
<title>Node2&#45;&gt;Node1</title>
<path fill="none" stroke="midnightblue" d="M139.5,-124.23C139.5,-115.59 139.5,-105.5 139.5,-97.52"/>
<polygon fill="midnightblue" stroke="midnightblue" points="136,-124.48 139.5,-134.48 143,-124.48 136,-124.48"/>
</g>
</g>
</svg>
