<?xml version="1.0" encoding="UTF-8" standalone="no"?>
<!DOCTYPE svg PUBLIC "-//W3C//DTD SVG 1.1//EN"
 "http://www.w3.org/Graphics/SVG/1.1/DTD/svg11.dtd">
<!-- Generated by graphviz version 2.43.0 (0)
 -->
<!-- Title: BlackMisc::Simulation::Settings::CSimulatorMessagesSettings Pages: 1 -->
<svg width="812pt" height="568pt"
 viewBox="0.00 0.00 812.00 567.50" xmlns="http://www.w3.org/2000/svg" xmlns:xlink="http://www.w3.org/1999/xlink">
<g id="graph0" class="graph" transform="scale(1 1) rotate(0) translate(4 563.5)">
<title>BlackMisc::Simulation::Settings::CSimulatorMessagesSettings</title>
<!-- Node1 -->
<g id="node1" class="node">
<title>Node1</title>
<g id="a_node1"><a xlink:title="Settings regarding message handling. Driver independent part, related to network.">
<polygon fill="#bfbfbf" stroke="black" points="633,-264 633,-305 804,-305 804,-264 633,-264"/>
<text text-anchor="start" x="641" y="-293" font-family="Helvetica,sans-Serif" font-size="10.00">BlackMisc::Simulation</text>
<text text-anchor="start" x="641" y="-282" font-family="Helvetica,sans-Serif" font-size="10.00">::Settings::CSimulatorMessages</text>
<text text-anchor="middle" x="718.5" y="-271" font-family="Helvetica,sans-Serif" font-size="10.00">Settings</text>
</a>
</g>
</g>
<!-- Node2 -->
<g id="node2" class="node">
<title>Node2</title>
<g id="a_node2"><a xlink:href="class_black_misc_1_1_c_value_object.html" target="_top" xlink:title=" ">
<polygon fill="none" stroke="black" points="415,-269.5 415,-299.5 597,-299.5 597,-269.5 415,-269.5"/>
<text text-anchor="start" x="423" y="-287.5" font-family="Helvetica,sans-Serif" font-size="10.00">BlackMisc::CValueObject</text>
<text text-anchor="middle" x="506" y="-276.5" font-family="Helvetica,sans-Serif" font-size="10.00">&lt; CSimulatorMessagesSettings &gt;</text>
</a>
</g>
</g>
<!-- Node2&#45;&gt;Node1 -->
<g id="edge1" class="edge">
<title>Node2&#45;&gt;Node1</title>
<path fill="none" stroke="midnightblue" d="M607.22,-284.5C615.79,-284.5 624.4,-284.5 632.84,-284.5"/>
<polygon fill="midnightblue" stroke="midnightblue" points="607.19,-281 597.19,-284.5 607.19,-288 607.19,-281"/>
</g>
<!-- Node3 -->
<g id="node3" class="node">
<title>Node3</title>
<g id="a_node3"><a xlink:href="class_black_misc_1_1_c_empty.html" target="_top" xlink:title="Default base class for CValueObject.">
<polygon fill="none" stroke="black" points="242,-540 242,-559 352,-559 352,-540 242,-540"/>
<text text-anchor="middle" x="297" y="-547" font-family="Helvetica,sans-Serif" font-size="10.00">BlackMisc::CEmpty</text>
</a>
</g>
</g>
<!-- Node3&#45;&gt;Node2 -->
<g id="edge2" class="edge">
<title>Node3&#45;&gt;Node2</title>
<path fill="none" stroke="midnightblue" d="M362.09,-540.15C368.16,-537.64 373.92,-534.47 379,-530.5 458.17,-468.55 492.15,-343.25 501.88,-299.77"/>
<polygon fill="midnightblue" stroke="midnightblue" points="360.63,-536.96 352.38,-543.6 362.97,-543.56 360.63,-536.96"/>
</g>
<!-- Node4 -->
<g id="node4" class="node">
<title>Node4</title>
<g id="a_node4"><a xlink:href="class_black_misc_1_1_mixin_1_1_meta_type.html" target="_top" xlink:title="CRTP class template from which a derived class can inherit common methods dealing with the metatype o...">
<polygon fill="none" stroke="black" points="221,-490.5 221,-520.5 373,-520.5 373,-490.5 221,-490.5"/>
<text text-anchor="start" x="229" y="-508.5" font-family="Helvetica,sans-Serif" font-size="10.00">BlackMisc::Mixin::MetaType</text>
<text text-anchor="middle" x="297" y="-497.5" font-family="Helvetica,sans-Serif" font-size="10.00">&lt; Derived &gt;</text>
</a>
</g>
</g>
<!-- Node4&#45;&gt;Node2 -->
<g id="edge3" class="edge">
<title>Node4&#45;&gt;Node2</title>
<path fill="none" stroke="midnightblue" d="M373.2,-485.45C375.21,-484.21 377.14,-482.9 379,-481.5 445.02,-431.84 485.7,-336.65 499.61,-299.69"/>
<polygon fill="midnightblue" stroke="midnightblue" points="371.19,-482.56 364.08,-490.41 374.54,-488.71 371.19,-482.56"/>
</g>
<!-- Node5 -->
<g id="node5" class="node">
<title>Node5</title>
<g id="a_node5"><a xlink:href="class_black_misc_1_1_mixin_1_1_hash_by_meta_class.html" target="_top" xlink:title="CRTP class template from which a derived class can inherit common methods dealing with hashing instan...">
<polygon fill="none" stroke="black" points="225.5,-441.5 225.5,-471.5 368.5,-471.5 368.5,-441.5 225.5,-441.5"/>
<text text-anchor="start" x="233.5" y="-459.5" font-family="Helvetica,sans-Serif" font-size="10.00">BlackMisc::Mixin::HashBy</text>
<text text-anchor="middle" x="297" y="-448.5" font-family="Helvetica,sans-Serif" font-size="10.00">MetaClass&lt; Derived &gt;</text>
</a>
</g>
</g>
<!-- Node5&#45;&gt;Node2 -->
<g id="edge4" class="edge">
<title>Node5&#45;&gt;Node2</title>
<path fill="none" stroke="midnightblue" d="M371,-437.17C373.76,-435.72 376.44,-434.17 379,-432.5 434.16,-396.62 478.39,-329.53 496.34,-299.59"/>
<polygon fill="midnightblue" stroke="midnightblue" points="369.48,-434.01 361.93,-441.45 372.47,-440.34 369.48,-434.01"/>
</g>
<!-- Node6 -->
<g id="node6" class="node">
<title>Node6</title>
<g id="a_node6"><a xlink:href="class_black_misc_1_1_mixin_1_1_d_bus_by_meta_class.html" target="_top" xlink:title="CRTP class template from which a derived class can inherit common methods dealing with marshalling in...">
<polygon fill="none" stroke="black" points="219,-392.5 219,-422.5 375,-422.5 375,-392.5 219,-392.5"/>
<text text-anchor="start" x="227" y="-410.5" font-family="Helvetica,sans-Serif" font-size="10.00">BlackMisc::Mixin::DBusBy</text>
<text text-anchor="middle" x="297" y="-399.5" font-family="Helvetica,sans-Serif" font-size="10.00">MetaClass&lt; Derived, Tags &gt;</text>
</a>
</g>
</g>
<!-- Node6&#45;&gt;Node2 -->
<g id="edge5" class="edge">
<title>Node6&#45;&gt;Node2</title>
<path fill="none" stroke="midnightblue" d="M367.9,-388.67C371.71,-387.06 375.44,-385.34 379,-383.5 423.24,-360.64 467.21,-321.34 489.67,-299.78"/>
<polygon fill="midnightblue" stroke="midnightblue" points="366.32,-385.53 358.28,-392.43 368.87,-392.05 366.32,-385.53"/>
</g>
<!-- Node7 -->
<g id="node7" class="node">
<title>Node7</title>
<g id="a_node7"><a xlink:href="class_black_misc_1_1_mixin_1_1_d_bus_operators.html" target="_top" xlink:title=" ">
<polygon fill="none" stroke="black" points="0,-392.5 0,-422.5 179,-422.5 179,-392.5 0,-392.5"/>
<text text-anchor="start" x="8" y="-410.5" font-family="Helvetica,sans-Serif" font-size="10.00">BlackMisc::Mixin::DBusOperators</text>
<text text-anchor="middle" x="89.5" y="-399.5" font-family="Helvetica,sans-Serif" font-size="10.00">&lt; Derived, Tags... &gt;</text>
</a>
</g>
</g>
<!-- Node7&#45;&gt;Node6 -->
<g id="edge6" class="edge">
<title>Node7&#45;&gt;Node6</title>
<path fill="none" stroke="midnightblue" d="M189.44,-407.5C199.35,-407.5 209.31,-407.5 218.95,-407.5"/>
<polygon fill="midnightblue" stroke="midnightblue" points="189.14,-404 179.14,-407.5 189.14,-411 189.14,-404"/>
</g>
<!-- Node8 -->
<g id="node8" class="node">
<title>Node8</title>
<g id="a_node8"><a xlink:href="class_black_misc_1_1_mixin_1_1_data_stream_by_meta_class.html" target="_top" xlink:title="CRTP class template to generate QDataStream marshalling methods using CMetaClass.">
<polygon fill="none" stroke="black" points="215,-343.5 215,-373.5 379,-373.5 379,-343.5 215,-343.5"/>
<text text-anchor="start" x="223" y="-361.5" font-family="Helvetica,sans-Serif" font-size="10.00">BlackMisc::Mixin::DataStream</text>
<text text-anchor="middle" x="297" y="-350.5" font-family="Helvetica,sans-Serif" font-size="10.00">ByMetaClass&lt; Derived &gt;</text>
</a>
</g>
</g>
<!-- Node8&#45;&gt;Node2 -->
<g id="edge7" class="edge">
<title>Node8&#45;&gt;Node2</title>
<path fill="none" stroke="midnightblue" d="M360.97,-340.45C367.09,-338.51 373.18,-336.51 379,-334.5 409.92,-323.81 444.41,-309.99 469.47,-299.59"/>
<polygon fill="midnightblue" stroke="midnightblue" points="359.89,-337.12 351.37,-343.43 361.96,-343.8 359.89,-337.12"/>
</g>
<!-- Node9 -->
<g id="node9" class="node">
<title>Node9</title>
<g id="a_node9"><a xlink:href="class_black_misc_1_1_mixin_1_1_data_stream_operators.html" target="_top" xlink:title="CRTP class template to generate non&#45;member QDataStream streaming operators.">
<polygon fill="none" stroke="black" points="7.5,-343.5 7.5,-373.5 171.5,-373.5 171.5,-343.5 7.5,-343.5"/>
<text text-anchor="start" x="15.5" y="-361.5" font-family="Helvetica,sans-Serif" font-size="10.00">BlackMisc::Mixin::DataStream</text>
<text text-anchor="middle" x="89.5" y="-350.5" font-family="Helvetica,sans-Serif" font-size="10.00">Operators&lt; Derived &gt;</text>
</a>
</g>
</g>
<!-- Node9&#45;&gt;Node8 -->
<g id="edge8" class="edge">
<title>Node9&#45;&gt;Node8</title>
<path fill="none" stroke="midnightblue" d="M181.74,-358.5C192.72,-358.5 203.87,-358.5 214.7,-358.5"/>
<polygon fill="midnightblue" stroke="midnightblue" points="181.72,-355 171.72,-358.5 181.72,-362 181.72,-355"/>
</g>
<!-- Node10 -->
<g id="node10" class="node">
<title>Node10</title>
<g id="a_node10"><a xlink:href="class_black_misc_1_1_mixin_1_1_json_by_meta_class.html" target="_top" xlink:title="CRTP class template from which a derived class can inherit common methods dealing with JSON by metatu...">
<polygon fill="none" stroke="black" points="228,-294.5 228,-324.5 366,-324.5 366,-294.5 228,-294.5"/>
<text text-anchor="start" x="236" y="-312.5" font-family="Helvetica,sans-Serif" font-size="10.00">BlackMisc::Mixin::JsonBy</text>
<text text-anchor="middle" x="297" y="-301.5" font-family="Helvetica,sans-Serif" font-size="10.00">MetaClass&lt; Derived &gt;</text>
</a>
</g>
</g>
<!-- Node10&#45;&gt;Node2 -->
<g id="edge9" class="edge">
<title>Node10&#45;&gt;Node2</title>
<path fill="none" stroke="midnightblue" d="M376.06,-300.07C388.68,-298.55 401.83,-296.96 414.71,-295.4"/>
<polygon fill="midnightblue" stroke="midnightblue" points="375.57,-296.61 366.07,-301.28 376.41,-303.56 375.57,-296.61"/>
</g>
<!-- Node11 -->
<g id="node11" class="node">
<title>Node11</title>
<g id="a_node11"><a xlink:href="class_black_misc_1_1_mixin_1_1_json_operators.html" target="_top" xlink:title="CRTP class template which will generate marshalling operators for a derived class with its own marsha...">
<polygon fill="none" stroke="black" points="3,-294.5 3,-324.5 176,-324.5 176,-294.5 3,-294.5"/>
<text text-anchor="start" x="11" y="-312.5" font-family="Helvetica,sans-Serif" font-size="10.00">BlackMisc::Mixin::JsonOperators</text>
<text text-anchor="middle" x="89.5" y="-301.5" font-family="Helvetica,sans-Serif" font-size="10.00">&lt; Derived &gt;</text>
</a>
</g>
</g>
<!-- Node11&#45;&gt;Node10 -->
<g id="edge10" class="edge">
<title>Node11&#45;&gt;Node10</title>
<path fill="none" stroke="midnightblue" d="M186.35,-309.5C200.41,-309.5 214.65,-309.5 227.99,-309.5"/>
<polygon fill="midnightblue" stroke="midnightblue" points="186.16,-306 176.16,-309.5 186.16,-313 186.16,-306"/>
</g>
<!-- Node12 -->
<g id="node12" class="node">
<title>Node12</title>
<g id="a_node12"><a xlink:href="class_black_misc_1_1_mixin_1_1_equals_by_meta_class.html" target="_top" xlink:title="CRTP class template from which a derived class can inherit operator== implemented by metaclass.">
<polygon fill="none" stroke="black" points="226.5,-245.5 226.5,-275.5 367.5,-275.5 367.5,-245.5 226.5,-245.5"/>
<text text-anchor="start" x="234.5" y="-263.5" font-family="Helvetica,sans-Serif" font-size="10.00">BlackMisc::Mixin::Equals</text>
<text text-anchor="middle" x="297" y="-252.5" font-family="Helvetica,sans-Serif" font-size="10.00">ByMetaClass&lt; Derived &gt;</text>
</a>
</g>
</g>
<!-- Node12&#45;&gt;Node2 -->
<g id="edge11" class="edge">
<title>Node12&#45;&gt;Node2</title>
<path fill="none" stroke="midnightblue" d="M377.59,-269.73C389.74,-271.14 402.36,-272.6 414.73,-274.03"/>
<polygon fill="midnightblue" stroke="midnightblue" points="377.84,-266.23 367.5,-268.56 377.03,-273.19 377.84,-266.23"/>
</g>
<!-- Node13 -->
<g id="node13" class="node">
<title>Node13</title>
<g id="a_node13"><a xlink:href="class_black_misc_1_1_mixin_1_1_less_than_by_meta_class.html" target="_top" xlink:title="CRTP class template from which a derived class can inherit operator&lt; implemented by metaclass.">
<polygon fill="none" stroke="black" points="221.5,-196.5 221.5,-226.5 372.5,-226.5 372.5,-196.5 221.5,-196.5"/>
<text text-anchor="start" x="229.5" y="-214.5" font-family="Helvetica,sans-Serif" font-size="10.00">BlackMisc::Mixin::LessThan</text>
<text text-anchor="middle" x="297" y="-203.5" font-family="Helvetica,sans-Serif" font-size="10.00">ByMetaClass&lt; Derived &gt;</text>
</a>
</g>
</g>
<!-- Node13&#45;&gt;Node2 -->
<g id="edge12" class="edge">
<title>Node13&#45;&gt;Node2</title>
<path fill="none" stroke="midnightblue" d="M360.96,-229.6C367.07,-231.52 373.17,-233.51 379,-235.5 409.54,-245.94 443.62,-259.3 468.63,-269.43"/>
<polygon fill="midnightblue" stroke="midnightblue" points="361.94,-226.24 351.36,-226.63 359.87,-232.92 361.94,-226.24"/>
</g>
<!-- Node14 -->
<g id="node14" class="node">
<title>Node14</title>
<g id="a_node14"><a xlink:href="class_black_misc_1_1_mixin_1_1_compare_by_meta_class.html" target="_top" xlink:title="CRTP class template from which a derived class can inherit non&#45;member compare() implemented by metacl...">
<polygon fill="none" stroke="black" points="222.5,-147.5 222.5,-177.5 371.5,-177.5 371.5,-147.5 222.5,-147.5"/>
<text text-anchor="start" x="230.5" y="-165.5" font-family="Helvetica,sans-Serif" font-size="10.00">BlackMisc::Mixin::Compare</text>
<text text-anchor="middle" x="297" y="-154.5" font-family="Helvetica,sans-Serif" font-size="10.00">ByMetaClass&lt; Derived &gt;</text>
</a>
</g>
</g>
<!-- Node14&#45;&gt;Node2 -->
<g id="edge13" class="edge">
<title>Node14&#45;&gt;Node2</title>
<path fill="none" stroke="midnightblue" d="M367.89,-181.35C371.7,-182.95 375.43,-184.67 379,-186.5 423.12,-209.17 467.15,-248.05 489.64,-269.39"/>
<polygon fill="midnightblue" stroke="midnightblue" points="368.85,-177.97 358.27,-177.6 366.31,-184.49 368.85,-177.97"/>
</g>
<!-- Node15 -->
<g id="node15" class="node">
<title>Node15</title>
<g id="a_node15"><a xlink:href="class_black_misc_1_1_mixin_1_1_string.html" target="_top" xlink:title="CRTP class template from which a derived class can inherit string streaming operations.">
<polygon fill="none" stroke="black" points="230,-98.5 230,-128.5 364,-128.5 364,-98.5 230,-98.5"/>
<text text-anchor="start" x="238" y="-116.5" font-family="Helvetica,sans-Serif" font-size="10.00">BlackMisc::Mixin::String</text>
<text text-anchor="middle" x="297" y="-105.5" font-family="Helvetica,sans-Serif" font-size="10.00">&lt; Derived &gt;</text>
</a>
</g>
</g>
<!-- Node15&#45;&gt;Node2 -->
<g id="edge14" class="edge">
<title>Node15&#45;&gt;Node2</title>
<path fill="none" stroke="midnightblue" d="M370.99,-132.84C373.75,-134.29 376.44,-135.84 379,-137.5 433.72,-172.97 477.86,-239.1 496.04,-269.05"/>
<polygon fill="midnightblue" stroke="midnightblue" points="372.46,-129.67 361.92,-128.57 369.48,-136 372.46,-129.67"/>
</g>
<!-- Node16 -->
<g id="node16" class="node">
<title>Node16</title>
<g id="a_node16"><a xlink:href="class_black_misc_1_1_mixin_1_1_index.html" target="_top" xlink:title="CRTP class template from which a derived class can inherit property indexing functions.">
<polygon fill="none" stroke="black" points="231,-49.5 231,-79.5 363,-79.5 363,-49.5 231,-49.5"/>
<text text-anchor="start" x="239" y="-67.5" font-family="Helvetica,sans-Serif" font-size="10.00">BlackMisc::Mixin::Index</text>
<text text-anchor="middle" x="297" y="-56.5" font-family="Helvetica,sans-Serif" font-size="10.00">&lt; Derived &gt;</text>
</a>
</g>
</g>
<!-- Node16&#45;&gt;Node2 -->
<g id="edge15" class="edge">
<title>Node16&#45;&gt;Node2</title>
<path fill="none" stroke="midnightblue" d="M372.4,-84.07C374.69,-85.45 376.9,-86.92 379,-88.5 444.84,-137.91 485.63,-232.62 499.58,-269.39"/>
<polygon fill="midnightblue" stroke="midnightblue" points="373.73,-80.81 363.25,-79.21 370.45,-86.99 373.73,-80.81"/>
</g>
<!-- Node17 -->
<g id="node17" class="node">
<title>Node17</title>
<g id="a_node17"><a xlink:href="class_black_misc_1_1_mixin_1_1_icon.html" target="_top" xlink:title="CRTP class template from which a derived class can inherit icon&#45;related functions.">
<polygon fill="none" stroke="black" points="231.5,-0.5 231.5,-30.5 362.5,-30.5 362.5,-0.5 231.5,-0.5"/>
<text text-anchor="start" x="239.5" y="-18.5" font-family="Helvetica,sans-Serif" font-size="10.00">BlackMisc::Mixin::Icon</text>
<text text-anchor="middle" x="297" y="-7.5" font-family="Helvetica,sans-Serif" font-size="10.00">&lt; Derived, IconIndex &gt;</text>
</a>
</g>
</g>
<!-- Node17&#45;&gt;Node2 -->
<g id="edge16" class="edge">
<title>Node17&#45;&gt;Node2</title>
<path fill="none" stroke="midnightblue" d="M371.78,-34.27C374.3,-35.88 376.72,-37.61 379,-39.5 455.98,-103.28 491.25,-226.22 501.6,-269.21"/>
<polygon fill="midnightblue" stroke="midnightblue" points="373.27,-31.1 362.83,-29.34 369.89,-37.23 373.27,-31.1"/>
</g>
</g>
</svg>
