<?xml version="1.0" encoding="UTF-8" standalone="no"?>
<!DOCTYPE svg PUBLIC "-//W3C//DTD SVG 1.1//EN"
 "http://www.w3.org/Graphics/SVG/1.1/DTD/svg11.dtd">
<!-- Generated by graphviz version 2.43.0 (0)
 -->
<!-- Title: BlackMisc::Db::CDbInfoList Pages: 1 -->
<svg width="815pt" height="320pt"
 viewBox="0.00 0.00 815.00 320.00" xmlns="http://www.w3.org/2000/svg" xmlns:xlink="http://www.w3.org/1999/xlink">
<g id="graph0" class="graph" transform="scale(1 1) rotate(0) translate(4 316)">
<title>BlackMisc::Db::CDbInfoList</title>
<!-- Node1 -->
<g id="node1" class="node">
<title>Node1</title>
<g id="a_node1"><a xlink:title="Value object encapsulating a list of info objects.">
<polygon fill="#bfbfbf" stroke="black" points="659,-55 659,-74 807,-74 807,-55 659,-55"/>
<text text-anchor="middle" x="733" y="-62" font-family="Helvetica,sans-Serif" font-size="10.00">BlackMisc::Db::CDbInfoList</text>
</a>
</g>
</g>
<!-- Node2 -->
<g id="node2" class="node">
<title>Node2</title>
<g id="a_node2"><a xlink:href="class_black_misc_1_1_c_sequence.html" target="_top" xlink:title=" ">
<polygon fill="none" stroke="black" points="456,-122.5 456,-152.5 582,-152.5 582,-122.5 456,-122.5"/>
<text text-anchor="start" x="464" y="-140.5" font-family="Helvetica,sans-Serif" font-size="10.00">BlackMisc::CSequence</text>
<text text-anchor="middle" x="519" y="-129.5" font-family="Helvetica,sans-Serif" font-size="10.00">&lt; CDbInfo &gt;</text>
</a>
</g>
</g>
<!-- Node2&#45;&gt;Node1 -->
<g id="edge1" class="edge">
<title>Node2&#45;&gt;Node1</title>
<path fill="none" stroke="midnightblue" d="M573.38,-119.12C615,-104.79 671.11,-85.47 704.24,-74.06"/>
<polygon fill="midnightblue" stroke="midnightblue" points="571.99,-115.9 563.67,-122.46 574.26,-122.52 571.99,-115.9"/>
</g>
<!-- Node3 -->
<g id="node3" class="node">
<title>Node3</title>
<g id="a_node3"><a xlink:href="class_black_misc_1_1_c_container_base.html" target="_top" xlink:title="Base class for CCollection and CSequence adding mutating operations and CValueObject facility on top ...">
<polygon fill="none" stroke="black" points="222,-183.5 222,-213.5 372,-213.5 372,-183.5 222,-183.5"/>
<text text-anchor="start" x="230" y="-201.5" font-family="Helvetica,sans-Serif" font-size="10.00">BlackMisc::CContainerBase</text>
<text text-anchor="middle" x="297" y="-190.5" font-family="Helvetica,sans-Serif" font-size="10.00">&lt; Derived &gt;</text>
</a>
</g>
</g>
<!-- Node3&#45;&gt;Node2 -->
<g id="edge2" class="edge">
<title>Node3&#45;&gt;Node2</title>
<path fill="none" stroke="midnightblue" d="M361.89,-180.78C394.17,-171.83 432.91,-161.09 463.73,-152.55"/>
<polygon fill="midnightblue" stroke="midnightblue" points="360.8,-177.45 352.1,-183.5 362.67,-184.2 360.8,-177.45"/>
</g>
<!-- Node4 -->
<g id="node4" class="node">
<title>Node4</title>
<g id="a_node4"><a xlink:href="class_black_misc_1_1_c_range_base.html" target="_top" xlink:title="Any container class with begin and end iterators can inherit from this CRTP class to gain some useful...">
<polygon fill="none" stroke="black" points="22.5,-281.5 22.5,-311.5 156.5,-311.5 156.5,-281.5 22.5,-281.5"/>
<text text-anchor="start" x="30.5" y="-299.5" font-family="Helvetica,sans-Serif" font-size="10.00">BlackMisc::CRangeBase</text>
<text text-anchor="middle" x="89.5" y="-288.5" font-family="Helvetica,sans-Serif" font-size="10.00">&lt; Derived &gt;</text>
</a>
</g>
</g>
<!-- Node4&#45;&gt;Node3 -->
<g id="edge3" class="edge">
<title>Node4&#45;&gt;Node3</title>
<path fill="none" stroke="midnightblue" d="M164.63,-278.19C169.55,-276.43 174.38,-274.53 179,-272.5 215.52,-256.44 253.87,-230.09 276.33,-213.55"/>
<polygon fill="midnightblue" stroke="midnightblue" points="163.44,-274.9 155.09,-281.42 165.69,-281.53 163.44,-274.9"/>
</g>
<!-- Node5 -->
<g id="node5" class="node">
<title>Node5</title>
<g id="a_node5"><a xlink:href="class_black_misc_1_1_mixin_1_1_meta_type.html" target="_top" xlink:title="CRTP class template from which a derived class can inherit common methods dealing with the metatype o...">
<polygon fill="none" stroke="black" points="13.5,-232.5 13.5,-262.5 165.5,-262.5 165.5,-232.5 13.5,-232.5"/>
<text text-anchor="start" x="21.5" y="-250.5" font-family="Helvetica,sans-Serif" font-size="10.00">BlackMisc::Mixin::MetaType</text>
<text text-anchor="middle" x="89.5" y="-239.5" font-family="Helvetica,sans-Serif" font-size="10.00">&lt; Derived &gt;</text>
</a>
</g>
</g>
<!-- Node5&#45;&gt;Node3 -->
<g id="edge4" class="edge">
<title>Node5&#45;&gt;Node3</title>
<path fill="none" stroke="midnightblue" d="M163.49,-230.1C186.22,-224.68 211.08,-218.75 233.07,-213.51"/>
<polygon fill="midnightblue" stroke="midnightblue" points="162.47,-226.74 153.55,-232.47 164.09,-233.55 162.47,-226.74"/>
</g>
<!-- Node6 -->
<g id="node6" class="node">
<title>Node6</title>
<g id="a_node6"><a xlink:href="class_black_misc_1_1_mixin_1_1_d_bus_operators.html" target="_top" xlink:title=" ">
<polygon fill="none" stroke="black" points="0,-183.5 0,-213.5 179,-213.5 179,-183.5 0,-183.5"/>
<text text-anchor="start" x="8" y="-201.5" font-family="Helvetica,sans-Serif" font-size="10.00">BlackMisc::Mixin::DBusOperators</text>
<text text-anchor="middle" x="89.5" y="-190.5" font-family="Helvetica,sans-Serif" font-size="10.00">&lt; Derived &gt;</text>
</a>
</g>
</g>
<!-- Node6&#45;&gt;Node3 -->
<g id="edge5" class="edge">
<title>Node6&#45;&gt;Node3</title>
<path fill="none" stroke="midnightblue" d="M189.19,-198.5C200.17,-198.5 211.22,-198.5 221.82,-198.5"/>
<polygon fill="midnightblue" stroke="midnightblue" points="189.14,-195 179.14,-198.5 189.14,-202 189.14,-195"/>
</g>
<!-- Node7 -->
<g id="node7" class="node">
<title>Node7</title>
<g id="a_node7"><a xlink:href="class_black_misc_1_1_mixin_1_1_json_operators.html" target="_top" xlink:title="CRTP class template which will generate marshalling operators for a derived class with its own marsha...">
<polygon fill="none" stroke="black" points="3,-134.5 3,-164.5 176,-164.5 176,-134.5 3,-134.5"/>
<text text-anchor="start" x="11" y="-152.5" font-family="Helvetica,sans-Serif" font-size="10.00">BlackMisc::Mixin::JsonOperators</text>
<text text-anchor="middle" x="89.5" y="-141.5" font-family="Helvetica,sans-Serif" font-size="10.00">&lt; Derived &gt;</text>
</a>
</g>
</g>
<!-- Node7&#45;&gt;Node3 -->
<g id="edge6" class="edge">
<title>Node7&#45;&gt;Node3</title>
<path fill="none" stroke="midnightblue" d="M163.49,-166.9C186.22,-172.32 211.08,-178.25 233.07,-183.49"/>
<polygon fill="midnightblue" stroke="midnightblue" points="164.09,-163.45 153.55,-164.53 162.47,-170.26 164.09,-163.45"/>
</g>
<!-- Node8 -->
<g id="node8" class="node">
<title>Node8</title>
<g id="a_node8"><a xlink:href="class_black_misc_1_1_mixin_1_1_string.html" target="_top" xlink:title="CRTP class template from which a derived class can inherit string streaming operations.">
<polygon fill="none" stroke="black" points="22.5,-85.5 22.5,-115.5 156.5,-115.5 156.5,-85.5 22.5,-85.5"/>
<text text-anchor="start" x="30.5" y="-103.5" font-family="Helvetica,sans-Serif" font-size="10.00">BlackMisc::Mixin::String</text>
<text text-anchor="middle" x="89.5" y="-92.5" font-family="Helvetica,sans-Serif" font-size="10.00">&lt; Derived &gt;</text>
</a>
</g>
</g>
<!-- Node8&#45;&gt;Node3 -->
<g id="edge7" class="edge">
<title>Node8&#45;&gt;Node3</title>
<path fill="none" stroke="midnightblue" d="M166.05,-117.98C170.59,-120.2 174.95,-122.69 179,-125.5 201.21,-140.9 192.89,-158.96 215,-174.5 219.92,-177.96 225.34,-180.92 230.98,-183.47"/>
<polygon fill="midnightblue" stroke="midnightblue" points="167.1,-114.62 156.53,-113.81 164.29,-121.03 167.1,-114.62"/>
</g>
<!-- Node9 -->
<g id="node9" class="node">
<title>Node9</title>
<g id="a_node9"><a xlink:href="class_black_misc_1_1_mixin_1_1_data_stream_operators.html" target="_top" xlink:title="CRTP class template to generate non&#45;member QDataStream streaming operators.">
<polygon fill="none" stroke="black" points="215,-134.5 215,-164.5 379,-164.5 379,-134.5 215,-134.5"/>
<text text-anchor="start" x="223" y="-152.5" font-family="Helvetica,sans-Serif" font-size="10.00">BlackMisc::Mixin::DataStream</text>
<text text-anchor="middle" x="297" y="-141.5" font-family="Helvetica,sans-Serif" font-size="10.00">Operators&lt; Derived &gt;</text>
</a>
</g>
</g>
<!-- Node9&#45;&gt;Node2 -->
<g id="edge8" class="edge">
<title>Node9&#45;&gt;Node2</title>
<path fill="none" stroke="midnightblue" d="M389.49,-144.51C411.88,-143.29 435.31,-142.01 455.95,-140.88"/>
<polygon fill="midnightblue" stroke="midnightblue" points="389.09,-141.03 379.29,-145.07 389.47,-148.02 389.09,-141.03"/>
</g>
<!-- Node10 -->
<g id="node10" class="node">
<title>Node10</title>
<g id="a_node10"><a xlink:href="class_black_misc_1_1_mixin_1_1_icon.html" target="_top" xlink:title="CRTP class template from which a derived class can inherit icon&#45;related functions.">
<polygon fill="none" stroke="black" points="231.5,-85.5 231.5,-115.5 362.5,-115.5 362.5,-85.5 231.5,-85.5"/>
<text text-anchor="start" x="239.5" y="-103.5" font-family="Helvetica,sans-Serif" font-size="10.00">BlackMisc::Mixin::Icon</text>
<text text-anchor="middle" x="297" y="-92.5" font-family="Helvetica,sans-Serif" font-size="10.00">&lt; Derived, IconIndex &gt;</text>
</a>
</g>
</g>
<!-- Node10&#45;&gt;Node2 -->
<g id="edge9" class="edge">
<title>Node10&#45;&gt;Node2</title>
<path fill="none" stroke="midnightblue" d="M372.7,-113.06C399.72,-117.61 429.92,-122.69 455.75,-127.03"/>
<polygon fill="midnightblue" stroke="midnightblue" points="372.96,-109.56 362.52,-111.35 371.8,-116.46 372.96,-109.56"/>
</g>
<!-- Node11 -->
<g id="node11" class="node">
<title>Node11</title>
<g id="a_node11"><a xlink:href="class_black_misc_1_1_db_1_1_i_datastore_object_list.html" target="_top" xlink:title=" ">
<polygon fill="none" stroke="black" points="415,-49.5 415,-79.5 623,-79.5 623,-49.5 415,-49.5"/>
<text text-anchor="start" x="423" y="-67.5" font-family="Helvetica,sans-Serif" font-size="10.00">BlackMisc::Db::IDatastore</text>
<text text-anchor="middle" x="519" y="-56.5" font-family="Helvetica,sans-Serif" font-size="10.00">ObjectList&lt; CDbInfo, CDbInfoList, int &gt;</text>
</a>
</g>
</g>
<!-- Node11&#45;&gt;Node1 -->
<g id="edge10" class="edge">
<title>Node11&#45;&gt;Node1</title>
<path fill="none" stroke="midnightblue" d="M633.33,-64.5C641.94,-64.5 650.49,-64.5 658.75,-64.5"/>
<polygon fill="midnightblue" stroke="midnightblue" points="633.21,-61 623.21,-64.5 633.21,-68 633.21,-61"/>
</g>
<!-- Node12 -->
<g id="node12" class="node">
<title>Node12</title>
<g id="a_node12"><a xlink:href="class_black_misc_1_1_i_timestamp_object_list.html" target="_top" xlink:title="List of objects with timestamp. Such objects should implement.">
<polygon fill="none" stroke="black" points="216,-36.5 216,-66.5 378,-66.5 378,-36.5 216,-36.5"/>
<text text-anchor="start" x="224" y="-54.5" font-family="Helvetica,sans-Serif" font-size="10.00">BlackMisc::ITimestampObject</text>
<text text-anchor="middle" x="297" y="-43.5" font-family="Helvetica,sans-Serif" font-size="10.00">List&lt; OBJ, CONTAINER &gt;</text>
</a>
</g>
</g>
<!-- Node12&#45;&gt;Node11 -->
<g id="edge11" class="edge">
<title>Node12&#45;&gt;Node11</title>
<path fill="none" stroke="midnightblue" d="M388.21,-56.83C396.94,-57.35 405.85,-57.87 414.7,-58.4"/>
<polygon fill="midnightblue" stroke="midnightblue" points="388.24,-53.33 378.05,-56.23 387.82,-60.31 388.24,-53.33"/>
</g>
<!-- Node13 -->
<g id="node13" class="node">
<title>Node13</title>
<g id="a_node13"><a xlink:href="class_black_misc_1_1_mixin_1_1_meta_type.html" target="_top" xlink:title=" ">
<polygon fill="none" stroke="black" points="443,-0.5 443,-30.5 595,-30.5 595,-0.5 443,-0.5"/>
<text text-anchor="start" x="451" y="-18.5" font-family="Helvetica,sans-Serif" font-size="10.00">BlackMisc::Mixin::MetaType</text>
<text text-anchor="middle" x="519" y="-7.5" font-family="Helvetica,sans-Serif" font-size="10.00">&lt; CDbInfoList &gt;</text>
</a>
</g>
</g>
<!-- Node13&#45;&gt;Node1 -->
<g id="edge12" class="edge">
<title>Node13&#45;&gt;Node1</title>
<path fill="none" stroke="midnightblue" d="M594.9,-32.81C627.13,-40.26 663.57,-48.68 690.78,-54.97"/>
<polygon fill="midnightblue" stroke="midnightblue" points="595.58,-29.38 585.05,-30.53 594,-36.2 595.58,-29.38"/>
</g>
</g>
</svg>
