<?xml version="1.0" encoding="UTF-8" standalone="no"?>
<!DOCTYPE svg PUBLIC "-//W3C//DTD SVG 1.1//EN"
 "http://www.w3.org/Graphics/SVG/1.1/DTD/svg11.dtd">
<!-- Generated by graphviz version 2.43.0 (0)
 -->
<!-- Title: BlackMisc::SharedState::CGenericScalarObserver Pages: 1 -->
<svg width="600pt" height="88pt"
 viewBox="0.00 0.00 600.00 88.00" xmlns="http://www.w3.org/2000/svg" xmlns:xlink="http://www.w3.org/1999/xlink">
<g id="graph0" class="graph" transform="scale(1 1) rotate(0) translate(4 84)">
<title>BlackMisc::SharedState::CGenericScalarObserver</title>
<!-- Node1 -->
<g id="node1" class="node">
<title>Node1</title>
<g id="a_node1"><a xlink:title="Non&#45;template base class for CScalarObserver.">
<polygon fill="#bfbfbf" stroke="black" points="92,-24.5 92,-54.5 233,-54.5 233,-24.5 92,-24.5"/>
<text text-anchor="start" x="100" y="-42.5" font-family="Helvetica,sans-Serif" font-size="10.00">BlackMisc::SharedState</text>
<text text-anchor="middle" x="162.5" y="-31.5" font-family="Helvetica,sans-Serif" font-size="10.00">::CGenericScalarObserver</text>
</a>
</g>
</g>
<!-- Node3 -->
<g id="node3" class="node">
<title>Node3</title>
<g id="a_node3"><a xlink:href="class_black_misc_1_1_shared_state_1_1_c_scalar_observer.html" target="_top" xlink:title=" ">
<polygon fill="none" stroke="black" points="269,-49.5 269,-79.5 408,-79.5 408,-49.5 269,-49.5"/>
<text text-anchor="start" x="277" y="-67.5" font-family="Helvetica,sans-Serif" font-size="10.00">BlackMisc::SharedState</text>
<text text-anchor="middle" x="338.5" y="-56.5" font-family="Helvetica,sans-Serif" font-size="10.00">::CScalarObserver&lt; int &gt;</text>
</a>
</g>
</g>
<!-- Node1&#45;&gt;Node3 -->
<g id="edge2" class="edge">
<title>Node1&#45;&gt;Node3</title>
<path fill="none" stroke="midnightblue" d="M243.09,-50.94C251.72,-52.18 260.46,-53.43 268.94,-54.65"/>
<polygon fill="midnightblue" stroke="midnightblue" points="243.42,-47.45 233.02,-49.49 242.42,-54.38 243.42,-47.45"/>
</g>
<!-- Node5 -->
<g id="node5" class="node">
<title>Node5</title>
<g id="a_node5"><a xlink:href="class_black_misc_1_1_shared_state_1_1_c_scalar_observer.html" target="_top" xlink:title="Base class for an object that shares state with a corresponding CScalarMutator subclass object.">
<polygon fill="none" stroke="black" points="272.5,-0.5 272.5,-30.5 404.5,-30.5 404.5,-0.5 272.5,-0.5"/>
<text text-anchor="start" x="280.5" y="-18.5" font-family="Helvetica,sans-Serif" font-size="10.00">BlackMisc::SharedState</text>
<text text-anchor="middle" x="338.5" y="-7.5" font-family="Helvetica,sans-Serif" font-size="10.00">::CScalarObserver&lt; T &gt;</text>
</a>
</g>
</g>
<!-- Node1&#45;&gt;Node5 -->
<g id="edge4" class="edge">
<title>Node1&#45;&gt;Node5</title>
<path fill="none" stroke="midnightblue" d="M243.14,-28.52C252.91,-27.17 262.8,-25.8 272.33,-24.49"/>
<polygon fill="midnightblue" stroke="midnightblue" points="242.45,-25.08 233.02,-29.91 243.4,-32.01 242.45,-25.08"/>
</g>
<!-- Node2 -->
<g id="node2" class="node">
<title>Node2</title>
<g id="a_node2"><a target="_parent" xlink:href="http://doc.qt.io/qt-5/qobject.html" xlink:title=" ">
<polygon fill="none" stroke="black" points="0,-30 0,-49 56,-49 56,-30 0,-30"/>
<text text-anchor="middle" x="28" y="-37" font-family="Helvetica,sans-Serif" font-size="10.00">QObject</text>
</a>
</g>
</g>
<!-- Node2&#45;&gt;Node1 -->
<g id="edge1" class="edge">
<title>Node2&#45;&gt;Node1</title>
<path fill="none" stroke="midnightblue" d="M66.27,-39.5C74.34,-39.5 83.11,-39.5 91.97,-39.5"/>
<polygon fill="midnightblue" stroke="midnightblue" points="66.13,-36 56.13,-39.5 66.13,-43 66.13,-36"/>
</g>
<!-- Node4 -->
<g id="node4" class="node">
<title>Node4</title>
<g id="a_node4"><a xlink:href="class_black_misc_test_1_1_c_test_scalar_observer.html" target="_top" xlink:title="Scalar observer subclass.">
<polygon fill="none" stroke="black" points="444,-49.5 444,-79.5 592,-79.5 592,-49.5 444,-49.5"/>
<text text-anchor="start" x="452" y="-67.5" font-family="Helvetica,sans-Serif" font-size="10.00">BlackMiscTest::CTestScalar</text>
<text text-anchor="middle" x="518" y="-56.5" font-family="Helvetica,sans-Serif" font-size="10.00">Observer</text>
</a>
</g>
</g>
<!-- Node3&#45;&gt;Node4 -->
<g id="edge3" class="edge">
<title>Node3&#45;&gt;Node4</title>
<path fill="none" stroke="midnightblue" d="M418.38,-64.5C426.85,-64.5 435.45,-64.5 443.85,-64.5"/>
<polygon fill="midnightblue" stroke="midnightblue" points="418.13,-61 408.13,-64.5 418.13,-68 418.13,-61"/>
</g>
</g>
</svg>
