<?xml version="1.0" encoding="UTF-8" standalone="no"?>
<!DOCTYPE svg PUBLIC "-//W3C//DTD SVG 1.1//EN"
 "http://www.w3.org/Graphics/SVG/1.1/DTD/svg11.dtd">
<!-- Generated by graphviz version 2.43.0 (0)
 -->
<!-- Title: BlackCore::Context::IContextOwnAircraft Pages: 1 -->
<svg width="559pt" height="137pt"
 viewBox="0.00 0.00 559.00 137.00" xmlns="http://www.w3.org/2000/svg" xmlns:xlink="http://www.w3.org/1999/xlink">
<g id="graph0" class="graph" transform="scale(1 1) rotate(0) translate(4 133)">
<title>BlackCore::Context::IContextOwnAircraft</title>
<!-- Node1 -->
<g id="node1" class="node">
<title>Node1</title>
<g id="a_node1"><a xlink:title="Own context proxy.">
<polygon fill="#bfbfbf" stroke="black" points="238,-49.5 238,-79.5 359,-79.5 359,-49.5 238,-49.5"/>
<text text-anchor="start" x="246" y="-67.5" font-family="Helvetica,sans-Serif" font-size="10.00">BlackCore::Context</text>
<text text-anchor="middle" x="298.5" y="-56.5" font-family="Helvetica,sans-Serif" font-size="10.00">::IContextOwnAircraft</text>
</a>
</g>
</g>
<!-- Node4 -->
<g id="node4" class="node">
<title>Node4</title>
<g id="a_node4"><a xlink:href="class_black_core_1_1_context_1_1_c_context_own_aircraft.html" target="_top" xlink:title="Own aircraft context implementation. Central instance of data for.">
<polygon fill="none" stroke="black" points="410.5,-98.5 410.5,-128.5 535.5,-128.5 535.5,-98.5 410.5,-98.5"/>
<text text-anchor="start" x="418.5" y="-116.5" font-family="Helvetica,sans-Serif" font-size="10.00">BlackCore::Context</text>
<text text-anchor="middle" x="473" y="-105.5" font-family="Helvetica,sans-Serif" font-size="10.00">::CContextOwnAircraft</text>
</a>
</g>
</g>
<!-- Node1&#45;&gt;Node4 -->
<g id="edge3" class="edge">
<title>Node1&#45;&gt;Node4</title>
<path fill="none" stroke="midnightblue" d="M362.49,-82.39C381.05,-87.66 401.15,-93.38 419.01,-98.45"/>
<polygon fill="midnightblue" stroke="midnightblue" points="363.24,-78.97 352.66,-79.6 361.33,-85.7 363.24,-78.97"/>
</g>
<!-- Node5 -->
<g id="node5" class="node">
<title>Node5</title>
<g id="a_node5"><a xlink:href="class_black_core_1_1_context_1_1_c_context_own_aircraft_empty.html" target="_top" xlink:title="Empty context, used during shutdown/initialization.">
<polygon fill="none" stroke="black" points="395,-49.5 395,-79.5 551,-79.5 551,-49.5 395,-49.5"/>
<text text-anchor="start" x="403" y="-67.5" font-family="Helvetica,sans-Serif" font-size="10.00">BlackCore::Context</text>
<text text-anchor="middle" x="473" y="-56.5" font-family="Helvetica,sans-Serif" font-size="10.00">::CContextOwnAircraftEmpty</text>
</a>
</g>
</g>
<!-- Node1&#45;&gt;Node5 -->
<g id="edge4" class="edge">
<title>Node1&#45;&gt;Node5</title>
<path fill="none" stroke="midnightblue" d="M369.46,-64.5C377.85,-64.5 386.45,-64.5 394.94,-64.5"/>
<polygon fill="midnightblue" stroke="midnightblue" points="369.35,-61 359.35,-64.5 369.35,-68 369.35,-61"/>
</g>
<!-- Node6 -->
<g id="node6" class="node">
<title>Node6</title>
<g id="a_node6"><a xlink:href="class_black_core_1_1_context_1_1_c_context_own_aircraft_proxy.html" target="_top" xlink:title="Own aircraft context proxy.">
<polygon fill="none" stroke="black" points="397,-0.5 397,-30.5 549,-30.5 549,-0.5 397,-0.5"/>
<text text-anchor="start" x="405" y="-18.5" font-family="Helvetica,sans-Serif" font-size="10.00">BlackCore::Context</text>
<text text-anchor="middle" x="473" y="-7.5" font-family="Helvetica,sans-Serif" font-size="10.00">::CContextOwnAircraftProxy</text>
</a>
</g>
</g>
<!-- Node1&#45;&gt;Node6 -->
<g id="edge5" class="edge">
<title>Node1&#45;&gt;Node6</title>
<path fill="none" stroke="midnightblue" d="M362.49,-46.61C381.05,-41.34 401.15,-35.62 419.01,-30.55"/>
<polygon fill="midnightblue" stroke="midnightblue" points="361.33,-43.3 352.66,-49.4 363.24,-50.03 361.33,-43.3"/>
</g>
<!-- Node2 -->
<g id="node2" class="node">
<title>Node2</title>
<g id="a_node2"><a xlink:href="class_black_core_1_1_context_1_1_i_context.html" target="_top" xlink:title="Base for all context classes.">
<polygon fill="none" stroke="black" points="92,-49.5 92,-79.5 202,-79.5 202,-49.5 92,-49.5"/>
<text text-anchor="start" x="100" y="-67.5" font-family="Helvetica,sans-Serif" font-size="10.00">BlackCore::Context</text>
<text text-anchor="middle" x="147" y="-56.5" font-family="Helvetica,sans-Serif" font-size="10.00">::IContext</text>
</a>
</g>
</g>
<!-- Node2&#45;&gt;Node1 -->
<g id="edge1" class="edge">
<title>Node2&#45;&gt;Node1</title>
<path fill="none" stroke="midnightblue" d="M212.53,-64.5C220.94,-64.5 229.52,-64.5 237.84,-64.5"/>
<polygon fill="midnightblue" stroke="midnightblue" points="212.4,-61 202.4,-64.5 212.4,-68 212.4,-61"/>
</g>
<!-- Node3 -->
<g id="node3" class="node">
<title>Node3</title>
<g id="a_node3"><a target="_parent" xlink:href="http://doc.qt.io/qt-5/qobject.html" xlink:title=" ">
<polygon fill="none" stroke="black" points="0,-55 0,-74 56,-74 56,-55 0,-55"/>
<text text-anchor="middle" x="28" y="-62" font-family="Helvetica,sans-Serif" font-size="10.00">QObject</text>
</a>
</g>
</g>
<!-- Node3&#45;&gt;Node2 -->
<g id="edge2" class="edge">
<title>Node3&#45;&gt;Node2</title>
<path fill="none" stroke="midnightblue" d="M66.37,-64.5C74.48,-64.5 83.22,-64.5 91.82,-64.5"/>
<polygon fill="midnightblue" stroke="midnightblue" points="66.14,-61 56.14,-64.5 66.14,-68 66.14,-61"/>
</g>
</g>
</svg>
