<?xml version="1.0" encoding="UTF-8" standalone="no"?>
<!DOCTYPE svg PUBLIC "-//W3C//DTD SVG 1.1//EN"
 "http://www.w3.org/Graphics/SVG/1.1/DTD/svg11.dtd">
<!-- Generated by graphviz version 2.43.0 (0)
 -->
<!-- Title: BlackCore::Vatsim::CVatsimStatusFileReader Pages: 1 -->
<svg width="175pt" height="263pt"
 viewBox="0.00 0.00 175.00 263.00" xmlns="http://www.w3.org/2000/svg" xmlns:xlink="http://www.w3.org/1999/xlink">
<g id="graph0" class="graph" transform="scale(1 1) rotate(0) translate(4 259)">
<title>BlackCore::Vatsim::CVatsimStatusFileReader</title>
<!-- Node1 -->
<g id="node1" class="node">
<title>Node1</title>
<g id="a_node1"><a xlink:title="Sole purpose is to read the URLs where VATSIM data can be downloaded.">
<polygon fill="#bfbfbf" stroke="black" points="13.5,-0.5 13.5,-30.5 153.5,-30.5 153.5,-0.5 13.5,-0.5"/>
<text text-anchor="start" x="21.5" y="-18.5" font-family="Helvetica,sans-Serif" font-size="10.00">BlackCore::Vatsim::</text>
<text text-anchor="middle" x="83.5" y="-7.5" font-family="Helvetica,sans-Serif" font-size="10.00">CVatsimStatusFileReader</text>
</a>
</g>
</g>
<!-- Node2 -->
<g id="node2" class="node">
<title>Node2</title>
<g id="a_node2"><a xlink:href="class_black_core_1_1_c_threaded_reader.html" target="_top" xlink:title="Support for threaded based reading and parsing tasks such as data files via http, or file system and ...">
<polygon fill="none" stroke="black" points="4,-67.5 4,-86.5 163,-86.5 163,-67.5 4,-67.5"/>
<text text-anchor="middle" x="83.5" y="-74.5" font-family="Helvetica,sans-Serif" font-size="10.00">BlackCore::CThreadedReader</text>
</a>
</g>
</g>
<!-- Node2&#45;&gt;Node1 -->
<g id="edge1" class="edge">
<title>Node2&#45;&gt;Node1</title>
<path fill="none" stroke="midnightblue" d="M83.5,-57.23C83.5,-48.59 83.5,-38.5 83.5,-30.52"/>
<polygon fill="midnightblue" stroke="midnightblue" points="80,-57.48 83.5,-67.48 87,-57.48 80,-57.48"/>
</g>
<!-- Node3 -->
<g id="node3" class="node">
<title>Node3</title>
<g id="a_node3"><a xlink:href="class_black_misc_1_1_c_continuous_worker.html" target="_top" xlink:title="Base class for a long&#45;lived worker object which lives in its own thread.">
<polygon fill="none" stroke="black" points="0,-123.5 0,-142.5 167,-142.5 167,-123.5 0,-123.5"/>
<text text-anchor="middle" x="83.5" y="-130.5" font-family="Helvetica,sans-Serif" font-size="10.00">BlackMisc::CContinuousWorker</text>
</a>
</g>
</g>
<!-- Node3&#45;&gt;Node2 -->
<g id="edge2" class="edge">
<title>Node3&#45;&gt;Node2</title>
<path fill="none" stroke="midnightblue" d="M83.5,-112.8C83.5,-103.91 83.5,-93.78 83.5,-86.75"/>
<polygon fill="midnightblue" stroke="midnightblue" points="80,-113.08 83.5,-123.08 87,-113.08 80,-113.08"/>
</g>
<!-- Node4 -->
<g id="node4" class="node">
<title>Node4</title>
<g id="a_node4"><a xlink:href="class_black_misc_1_1_c_worker_base.html" target="_top" xlink:title="Base class for CWorker and CContinuousWorker.">
<polygon fill="none" stroke="black" points="15,-179.5 15,-198.5 152,-198.5 152,-179.5 15,-179.5"/>
<text text-anchor="middle" x="83.5" y="-186.5" font-family="Helvetica,sans-Serif" font-size="10.00">BlackMisc::CWorkerBase</text>
</a>
</g>
</g>
<!-- Node4&#45;&gt;Node3 -->
<g id="edge3" class="edge">
<title>Node4&#45;&gt;Node3</title>
<path fill="none" stroke="midnightblue" d="M83.5,-168.8C83.5,-159.91 83.5,-149.78 83.5,-142.75"/>
<polygon fill="midnightblue" stroke="midnightblue" points="80,-169.08 83.5,-179.08 87,-169.08 80,-169.08"/>
</g>
<!-- Node5 -->
<g id="node5" class="node">
<title>Node5</title>
<g id="a_node5"><a target="_parent" xlink:href="http://doc.qt.io/qt-5/qobject.html" xlink:title=" ">
<polygon fill="none" stroke="black" points="55.5,-235.5 55.5,-254.5 111.5,-254.5 111.5,-235.5 55.5,-235.5"/>
<text text-anchor="middle" x="83.5" y="-242.5" font-family="Helvetica,sans-Serif" font-size="10.00">QObject</text>
</a>
</g>
</g>
<!-- Node5&#45;&gt;Node4 -->
<g id="edge4" class="edge">
<title>Node5&#45;&gt;Node4</title>
<path fill="none" stroke="midnightblue" d="M83.5,-224.8C83.5,-215.91 83.5,-205.78 83.5,-198.75"/>
<polygon fill="midnightblue" stroke="midnightblue" points="80,-225.08 83.5,-235.08 87,-225.08 80,-225.08"/>
</g>
</g>
</svg>
