<?xml version="1.0" encoding="UTF-8" standalone="no"?>
<!DOCTYPE svg PUBLIC "-//W3C//DTD SVG 1.1//EN"
 "http://www.w3.org/Graphics/SVG/1.1/DTD/svg11.dtd">
<!-- Generated by graphviz version 2.43.0 (0)
 -->
<!-- Title: BlackMisc::Simulation::IModelsForSimulatorSetable Pages: 1 -->
<svg width="885pt" height="540pt"
 viewBox="0.00 0.00 885.00 540.00" xmlns="http://www.w3.org/2000/svg" xmlns:xlink="http://www.w3.org/1999/xlink">
<g id="graph0" class="graph" transform="scale(1 1) rotate(0) translate(4 536)">
<title>BlackMisc::Simulation::IModelsForSimulatorSetable</title>
<!-- Node1 -->
<g id="node1" class="node">
<title>Node1</title>
<g id="a_node1"><a xlink:title="Interface to &quot;something&quot; backing models, which can be set.">
<polygon fill="#bfbfbf" stroke="black" points="0,-393.5 0,-423.5 160,-423.5 160,-393.5 0,-393.5"/>
<text text-anchor="start" x="8" y="-411.5" font-family="Helvetica,sans-Serif" font-size="10.00">BlackMisc::Simulation</text>
<text text-anchor="middle" x="80" y="-400.5" font-family="Helvetica,sans-Serif" font-size="10.00">::IModelsForSimulatorSetable</text>
</a>
</g>
</g>
<!-- Node2 -->
<g id="node2" class="node">
<title>Node2</title>
<g id="a_node2"><a xlink:href="class_black_gui_1_1_components_1_1_c_db_model_workbench_component.html" target="_top" xlink:title="Handling of own models on disk (the models installed for the simulator)">
<polygon fill="none" stroke="black" points="196,-497.5 196,-527.5 379,-527.5 379,-497.5 196,-497.5"/>
<text text-anchor="start" x="204" y="-515.5" font-family="Helvetica,sans-Serif" font-size="10.00">BlackGui::Components</text>
<text text-anchor="middle" x="287.5" y="-504.5" font-family="Helvetica,sans-Serif" font-size="10.00">::CDbModelWorkbenchComponent</text>
</a>
</g>
</g>
<!-- Node1&#45;&gt;Node2 -->
<g id="edge1" class="edge">
<title>Node1&#45;&gt;Node2</title>
<path fill="none" stroke="midnightblue" d="M106.46,-430.14C128.77,-448.1 162.73,-473.1 196,-488.5 203.23,-491.85 211,-494.79 218.86,-497.36"/>
<polygon fill="midnightblue" stroke="midnightblue" points="108.47,-427.26 98.51,-423.64 104.04,-432.68 108.47,-427.26"/>
</g>
<!-- Node3 -->
<g id="node3" class="node">
<title>Node3</title>
<g id="a_node3"><a xlink:href="class_black_gui_1_1_components_1_1_c_db_own_models_component.html" target="_top" xlink:title="Handling of own models on disk (the models installed for the simulator)">
<polygon fill="none" stroke="black" points="209.5,-448.5 209.5,-478.5 365.5,-478.5 365.5,-448.5 209.5,-448.5"/>
<text text-anchor="start" x="217.5" y="-466.5" font-family="Helvetica,sans-Serif" font-size="10.00">BlackGui::Components</text>
<text text-anchor="middle" x="287.5" y="-455.5" font-family="Helvetica,sans-Serif" font-size="10.00">::CDbOwnModelsComponent</text>
</a>
</g>
</g>
<!-- Node1&#45;&gt;Node3 -->
<g id="edge2" class="edge">
<title>Node1&#45;&gt;Node3</title>
<path fill="none" stroke="midnightblue" d="M146.88,-426.13C173.79,-433.33 204.6,-441.58 230.41,-448.49"/>
<polygon fill="midnightblue" stroke="midnightblue" points="147.72,-422.73 137.15,-423.53 145.91,-429.5 147.72,-422.73"/>
</g>
<!-- Node4 -->
<g id="node4" class="node">
<title>Node4</title>
<g id="a_node4"><a xlink:href="class_black_misc_1_1_simulation_1_1_data_1_1_c_central_multi_simulator_model_caches_aware.html" target="_top" xlink:title="Basically a QObject free (delegate based) version of CCentralMultiSimulatorModelCachesProvider.">
<polygon fill="none" stroke="black" points="204.5,-388 204.5,-429 370.5,-429 370.5,-388 204.5,-388"/>
<text text-anchor="start" x="212.5" y="-417" font-family="Helvetica,sans-Serif" font-size="10.00">BlackMisc::Simulation</text>
<text text-anchor="start" x="212.5" y="-406" font-family="Helvetica,sans-Serif" font-size="10.00">::Data::CCentralMultiSimulator</text>
<text text-anchor="middle" x="287.5" y="-395" font-family="Helvetica,sans-Serif" font-size="10.00">ModelCachesAware</text>
</a>
</g>
</g>
<!-- Node1&#45;&gt;Node4 -->
<g id="edge3" class="edge">
<title>Node1&#45;&gt;Node4</title>
<path fill="none" stroke="midnightblue" d="M170.43,-408.5C181.69,-408.5 193.17,-408.5 204.32,-408.5"/>
<polygon fill="midnightblue" stroke="midnightblue" points="170.16,-405 160.16,-408.5 170.16,-412 170.16,-405"/>
</g>
<!-- Node10 -->
<g id="node10" class="node">
<title>Node10</title>
<g id="a_node10"><a xlink:href="class_black_misc_1_1_simulation_1_1_data_1_1_c_central_multi_simulator_model_set_caches_aware.html" target="_top" xlink:title="Basically a QObject free (delegate based) version of CCentralMultiSimulatorModelSetCachesProvider.">
<polygon fill="none" stroke="black" points="204.5,-328 204.5,-369 370.5,-369 370.5,-328 204.5,-328"/>
<text text-anchor="start" x="212.5" y="-357" font-family="Helvetica,sans-Serif" font-size="10.00">BlackMisc::Simulation</text>
<text text-anchor="start" x="212.5" y="-346" font-family="Helvetica,sans-Serif" font-size="10.00">::Data::CCentralMultiSimulator</text>
<text text-anchor="middle" x="287.5" y="-335" font-family="Helvetica,sans-Serif" font-size="10.00">ModelSetCachesAware</text>
</a>
</g>
</g>
<!-- Node1&#45;&gt;Node10 -->
<g id="edge9" class="edge">
<title>Node1&#45;&gt;Node10</title>
<path fill="none" stroke="midnightblue" d="M142.33,-390.59C165.58,-383.8 192.24,-376.02 216.25,-369.01"/>
<polygon fill="midnightblue" stroke="midnightblue" points="141.21,-387.27 132.59,-393.44 143.17,-393.99 141.21,-387.27"/>
</g>
<!-- Node13 -->
<g id="node13" class="node">
<title>Node13</title>
<g id="a_node13"><a xlink:href="class_black_misc_1_1_simulation_1_1_data_1_1_i_multi_simulator_model_caches.html" target="_top" xlink:title="Cache for multiple simulators specified by CSimulatorInfo.">
<polygon fill="none" stroke="black" points="209,-140 209,-181 366,-181 366,-140 209,-140"/>
<text text-anchor="start" x="217" y="-169" font-family="Helvetica,sans-Serif" font-size="10.00">BlackMisc::Simulation</text>
<text text-anchor="start" x="217" y="-158" font-family="Helvetica,sans-Serif" font-size="10.00">::Data::IMultiSimulatorModel</text>
<text text-anchor="middle" x="287.5" y="-147" font-family="Helvetica,sans-Serif" font-size="10.00">Caches</text>
</a>
</g>
</g>
<!-- Node1&#45;&gt;Node13 -->
<g id="edge12" class="edge">
<title>Node1&#45;&gt;Node13</title>
<path fill="none" stroke="midnightblue" d="M100.14,-385.4C140,-337.3 231.31,-227.1 269.36,-181.18"/>
<polygon fill="midnightblue" stroke="midnightblue" points="97.23,-383.43 93.55,-393.36 102.62,-387.89 97.23,-383.43"/>
</g>
<!-- Node5 -->
<g id="node5" class="node">
<title>Node5</title>
<g id="a_node5"><a xlink:href="class_black_misc_1_1_simulation_1_1_i_aircraft_model_loader.html" target="_top" xlink:title="Load the aircraft for a simulator.">
<polygon fill="none" stroke="black" points="479,-410.5 479,-440.5 604,-440.5 604,-410.5 479,-410.5"/>
<text text-anchor="start" x="487" y="-428.5" font-family="Helvetica,sans-Serif" font-size="10.00">BlackMisc::Simulation</text>
<text text-anchor="middle" x="541.5" y="-417.5" font-family="Helvetica,sans-Serif" font-size="10.00">::IAircraftModelLoader</text>
</a>
</g>
</g>
<!-- Node4&#45;&gt;Node5 -->
<g id="edge4" class="edge">
<title>Node4&#45;&gt;Node5</title>
<path fill="none" stroke="midnightblue" d="M380.69,-414.72C413.36,-416.92 449.31,-419.35 478.82,-421.34"/>
<polygon fill="midnightblue" stroke="midnightblue" points="380.88,-411.22 370.67,-414.04 380.41,-418.21 380.88,-411.22"/>
</g>
<!-- Node6 -->
<g id="node6" class="node">
<title>Node6</title>
<g id="a_node6"><a xlink:href="class_black_misc_1_1_simulation_1_1_c_dummy_model_loader.html" target="_top" xlink:title="Dummy loader for testing.">
<polygon fill="none" stroke="black" points="725,-501.5 725,-531.5 856,-531.5 856,-501.5 725,-501.5"/>
<text text-anchor="start" x="733" y="-519.5" font-family="Helvetica,sans-Serif" font-size="10.00">BlackMisc::Simulation</text>
<text text-anchor="middle" x="790.5" y="-508.5" font-family="Helvetica,sans-Serif" font-size="10.00">::CDummyModelLoader</text>
</a>
</g>
</g>
<!-- Node5&#45;&gt;Node6 -->
<g id="edge5" class="edge">
<title>Node5&#45;&gt;Node6</title>
<path fill="none" stroke="midnightblue" d="M586.02,-444.72C618.26,-458.6 663.45,-477.33 704,-491.5 713.93,-494.97 724.61,-498.36 734.96,-501.47"/>
<polygon fill="midnightblue" stroke="midnightblue" points="587.01,-441.33 576.45,-440.57 584.23,-447.76 587.01,-441.33"/>
</g>
<!-- Node7 -->
<g id="node7" class="node">
<title>Node7</title>
<g id="a_node7"><a xlink:href="class_black_misc_1_1_simulation_1_1_flightgear_1_1_c_aircraft_model_loader_flightgear.html" target="_top" xlink:title="Flightgear aircraft model loader.">
<polygon fill="none" stroke="black" points="715.5,-441 715.5,-482 865.5,-482 865.5,-441 715.5,-441"/>
<text text-anchor="start" x="723.5" y="-470" font-family="Helvetica,sans-Serif" font-size="10.00">BlackMisc::Simulation</text>
<text text-anchor="start" x="723.5" y="-459" font-family="Helvetica,sans-Serif" font-size="10.00">::Flightgear::CAircraftModel</text>
<text text-anchor="middle" x="790.5" y="-448" font-family="Helvetica,sans-Serif" font-size="10.00">LoaderFlightgear</text>
</a>
</g>
</g>
<!-- Node5&#45;&gt;Node7 -->
<g id="edge6" class="edge">
<title>Node5&#45;&gt;Node7</title>
<path fill="none" stroke="midnightblue" d="M614.29,-435.96C646.06,-440.59 683.38,-446.03 715.41,-450.7"/>
<polygon fill="midnightblue" stroke="midnightblue" points="614.59,-432.47 604.19,-434.49 613.58,-439.4 614.59,-432.47"/>
</g>
<!-- Node8 -->
<g id="node8" class="node">
<title>Node8</title>
<g id="a_node8"><a xlink:href="class_black_misc_1_1_simulation_1_1_fs_common_1_1_c_aircraft_cfg_parser.html" target="_top" xlink:title="Utility, parsing the aircraft.cfg files.">
<polygon fill="none" stroke="black" points="704,-391.5 704,-421.5 877,-421.5 877,-391.5 704,-391.5"/>
<text text-anchor="start" x="712" y="-409.5" font-family="Helvetica,sans-Serif" font-size="10.00">BlackMisc::Simulation</text>
<text text-anchor="middle" x="790.5" y="-398.5" font-family="Helvetica,sans-Serif" font-size="10.00">::FsCommon::CAircraftCfgParser</text>
</a>
</g>
</g>
<!-- Node5&#45;&gt;Node8 -->
<g id="edge7" class="edge">
<title>Node5&#45;&gt;Node8</title>
<path fill="none" stroke="midnightblue" d="M614.31,-419.98C642.34,-417.82 674.7,-415.33 703.93,-413.08"/>
<polygon fill="midnightblue" stroke="midnightblue" points="613.89,-416.5 604.19,-420.75 614.43,-423.48 613.89,-416.5"/>
</g>
<!-- Node9 -->
<g id="node9" class="node">
<title>Node9</title>
<g id="a_node9"><a xlink:href="class_black_misc_1_1_simulation_1_1_x_plane_1_1_c_aircraft_model_loader_x_plane.html" target="_top" xlink:title="XPlane aircraft model loader.">
<polygon fill="none" stroke="black" points="707,-331 707,-372 874,-372 874,-331 707,-331"/>
<text text-anchor="start" x="715" y="-360" font-family="Helvetica,sans-Serif" font-size="10.00">BlackMisc::Simulation</text>
<text text-anchor="start" x="715" y="-349" font-family="Helvetica,sans-Serif" font-size="10.00">::XPlane::CAircraftModelLoader</text>
<text text-anchor="middle" x="790.5" y="-338" font-family="Helvetica,sans-Serif" font-size="10.00">XPlane</text>
</a>
</g>
</g>
<!-- Node5&#45;&gt;Node9 -->
<g id="edge8" class="edge">
<title>Node5&#45;&gt;Node9</title>
<path fill="none" stroke="midnightblue" d="M613.93,-415.63C631.86,-412.13 650.87,-407.51 668,-401.5 685.07,-395.51 687.46,-389.82 704,-382.5 712.09,-378.92 720.72,-375.42 729.29,-372.15"/>
<polygon fill="midnightblue" stroke="midnightblue" points="613.29,-412.19 604.1,-417.47 614.57,-419.07 613.29,-412.19"/>
</g>
<!-- Node11 -->
<g id="node11" class="node">
<title>Node11</title>
<g id="a_node11"><a xlink:href="class_black_gui_1_1_components_1_1_c_db_own_model_set_component.html" target="_top" xlink:title="Handling of the own model set.">
<polygon fill="none" stroke="black" points="458,-361.5 458,-391.5 625,-391.5 625,-361.5 458,-361.5"/>
<text text-anchor="start" x="466" y="-379.5" font-family="Helvetica,sans-Serif" font-size="10.00">BlackGui::Components</text>
<text text-anchor="middle" x="541.5" y="-368.5" font-family="Helvetica,sans-Serif" font-size="10.00">::CDbOwnModelSetComponent</text>
</a>
</g>
</g>
<!-- Node10&#45;&gt;Node11 -->
<g id="edge10" class="edge">
<title>Node10&#45;&gt;Node11</title>
<path fill="none" stroke="midnightblue" d="M380.92,-358.77C406.02,-361.56 433.04,-364.56 457.58,-367.29"/>
<polygon fill="midnightblue" stroke="midnightblue" points="380.99,-355.26 370.67,-357.63 380.22,-362.21 380.99,-355.26"/>
</g>
<!-- Node12 -->
<g id="node12" class="node">
<title>Node12</title>
<g id="a_node12"><a xlink:href="class_c_swift_launcher.html" target="_top" xlink:title="swift launcher tool">
<polygon fill="none" stroke="black" points="495.5,-323 495.5,-342 587.5,-342 587.5,-323 495.5,-323"/>
<text text-anchor="middle" x="541.5" y="-330" font-family="Helvetica,sans-Serif" font-size="10.00">CSwiftLauncher</text>
</a>
</g>
</g>
<!-- Node10&#45;&gt;Node12 -->
<g id="edge11" class="edge">
<title>Node10&#45;&gt;Node12</title>
<path fill="none" stroke="midnightblue" d="M380.98,-342.63C419.9,-340.16 463.43,-337.39 495.17,-335.38"/>
<polygon fill="midnightblue" stroke="midnightblue" points="380.42,-339.16 370.67,-343.28 380.87,-346.14 380.42,-339.16"/>
</g>
<!-- Node14 -->
<g id="node14" class="node">
<title>Node14</title>
<g id="a_node14"><a xlink:href="class_black_misc_1_1_simulation_1_1_data_1_1_c_central_multi_simulator_model_caches_provider_base.html" target="_top" xlink:title=" ">
<polygon fill="none" stroke="black" points="415,-241 415,-304 668,-304 668,-241 415,-241"/>
<text text-anchor="start" x="423" y="-292" font-family="Helvetica,sans-Serif" font-size="10.00">BlackMisc::Simulation</text>
<text text-anchor="start" x="423" y="-281" font-family="Helvetica,sans-Serif" font-size="10.00">::Data::CCentralMultiSimulator</text>
<text text-anchor="start" x="423" y="-270" font-family="Helvetica,sans-Serif" font-size="10.00">ModelCachesProviderBase&lt; CModelSet</text>
<text text-anchor="start" x="423" y="-259" font-family="Helvetica,sans-Serif" font-size="10.00">Caches, CCentralMultiSimulatorModelSetCaches</text>
<text text-anchor="middle" x="541.5" y="-248" font-family="Helvetica,sans-Serif" font-size="10.00">Provider &gt;</text>
</a>
</g>
</g>
<!-- Node13&#45;&gt;Node14 -->
<g id="edge13" class="edge">
<title>Node13&#45;&gt;Node14</title>
<path fill="none" stroke="midnightblue" d="M330.63,-186.35C354.77,-200.52 385.97,-217.74 415,-230.5 423.2,-234.11 431.82,-237.59 440.53,-240.9"/>
<polygon fill="midnightblue" stroke="midnightblue" points="332.13,-183.17 321.74,-181.09 328.56,-189.2 332.13,-183.17"/>
</g>
<!-- Node16 -->
<g id="node16" class="node">
<title>Node16</title>
<g id="a_node16"><a xlink:href="class_black_misc_1_1_simulation_1_1_data_1_1_c_central_multi_simulator_model_caches_provider_base.html" target="_top" xlink:title=" ">
<polygon fill="none" stroke="black" points="416,-169.5 416,-221.5 667,-221.5 667,-169.5 416,-169.5"/>
<text text-anchor="start" x="424" y="-209.5" font-family="Helvetica,sans-Serif" font-size="10.00">BlackMisc::Simulation</text>
<text text-anchor="start" x="424" y="-198.5" font-family="Helvetica,sans-Serif" font-size="10.00">::Data::CCentralMultiSimulator</text>
<text text-anchor="start" x="424" y="-187.5" font-family="Helvetica,sans-Serif" font-size="10.00">ModelCachesProviderBase&lt; CModelCaches,</text>
<text text-anchor="middle" x="541.5" y="-176.5" font-family="Helvetica,sans-Serif" font-size="10.00"> CCentralMultiSimulatorModelCachesProvider &gt;</text>
</a>
</g>
</g>
<!-- Node13&#45;&gt;Node16 -->
<g id="edge15" class="edge">
<title>Node13&#45;&gt;Node16</title>
<path fill="none" stroke="midnightblue" d="M376.29,-172.69C389.08,-174.47 402.45,-176.33 415.8,-178.18"/>
<polygon fill="midnightblue" stroke="midnightblue" points="376.55,-169.2 366.16,-171.29 375.59,-176.13 376.55,-169.2"/>
</g>
<!-- Node18 -->
<g id="node18" class="node">
<title>Node18</title>
<g id="a_node18"><a xlink:href="class_black_misc_1_1_simulation_1_1_data_1_1_c_central_multi_simulator_model_caches_provider_base.html" target="_top" xlink:title="One central instance of the caches base class.">
<polygon fill="none" stroke="black" points="441,-98.5 441,-150.5 642,-150.5 642,-98.5 441,-98.5"/>
<text text-anchor="start" x="449" y="-138.5" font-family="Helvetica,sans-Serif" font-size="10.00">BlackMisc::Simulation</text>
<text text-anchor="start" x="449" y="-127.5" font-family="Helvetica,sans-Serif" font-size="10.00">::Data::CCentralMultiSimulator</text>
<text text-anchor="start" x="449" y="-116.5" font-family="Helvetica,sans-Serif" font-size="10.00">ModelCachesProviderBase&lt; TCaches,</text>
<text text-anchor="middle" x="541.5" y="-105.5" font-family="Helvetica,sans-Serif" font-size="10.00"> Derived &gt;</text>
</a>
</g>
</g>
<!-- Node13&#45;&gt;Node18 -->
<g id="edge17" class="edge">
<title>Node13&#45;&gt;Node18</title>
<path fill="none" stroke="midnightblue" d="M376.26,-147.96C397.09,-144.99 419.46,-141.79 440.78,-138.75"/>
<polygon fill="midnightblue" stroke="midnightblue" points="375.57,-144.53 366.16,-149.41 376.56,-151.46 375.57,-144.53"/>
</g>
<!-- Node19 -->
<g id="node19" class="node">
<title>Node19</title>
<g id="a_node19"><a xlink:href="class_black_misc_1_1_simulation_1_1_data_1_1_c_model_caches.html" target="_top" xlink:title="Bundle of caches for all simulators.">
<polygon fill="none" stroke="black" points="479,-49.5 479,-79.5 604,-79.5 604,-49.5 479,-49.5"/>
<text text-anchor="start" x="487" y="-67.5" font-family="Helvetica,sans-Serif" font-size="10.00">BlackMisc::Simulation</text>
<text text-anchor="middle" x="541.5" y="-56.5" font-family="Helvetica,sans-Serif" font-size="10.00">::Data::CModelCaches</text>
</a>
</g>
</g>
<!-- Node13&#45;&gt;Node19 -->
<g id="edge18" class="edge">
<title>Node13&#45;&gt;Node19</title>
<path fill="none" stroke="midnightblue" d="M326.86,-134.24C351.14,-118.77 383.75,-100.02 415,-88.5 435.19,-81.06 458.1,-75.81 478.76,-72.16"/>
<polygon fill="midnightblue" stroke="midnightblue" points="324.8,-131.4 318.31,-139.78 328.61,-137.28 324.8,-131.4"/>
</g>
<!-- Node20 -->
<g id="node20" class="node">
<title>Node20</title>
<g id="a_node20"><a xlink:href="class_black_misc_1_1_simulation_1_1_data_1_1_c_model_set_caches.html" target="_top" xlink:title="Bundle of caches for model sets of all simulators.">
<polygon fill="none" stroke="black" points="471.5,-0.5 471.5,-30.5 611.5,-30.5 611.5,-0.5 471.5,-0.5"/>
<text text-anchor="start" x="479.5" y="-18.5" font-family="Helvetica,sans-Serif" font-size="10.00">BlackMisc::Simulation</text>
<text text-anchor="middle" x="541.5" y="-7.5" font-family="Helvetica,sans-Serif" font-size="10.00">::Data::CModelSetCaches</text>
</a>
</g>
</g>
<!-- Node13&#45;&gt;Node20 -->
<g id="edge19" class="edge">
<title>Node13&#45;&gt;Node20</title>
<path fill="none" stroke="midnightblue" d="M310.21,-131.71C333.08,-103.58 371.73,-61.81 415,-39.5 432.25,-30.6 452.37,-24.99 471.38,-21.44"/>
<polygon fill="midnightblue" stroke="midnightblue" points="307.41,-129.62 303.91,-139.62 312.88,-133.98 307.41,-129.62"/>
</g>
<!-- Node15 -->
<g id="node15" class="node">
<title>Node15</title>
<g id="a_node15"><a xlink:href="class_black_misc_1_1_simulation_1_1_data_1_1_c_central_multi_simulator_model_set_caches_provider.html" target="_top" xlink:title="One central instance of the model set caches.">
<polygon fill="none" stroke="black" points="707.5,-252 707.5,-293 873.5,-293 873.5,-252 707.5,-252"/>
<text text-anchor="start" x="715.5" y="-281" font-family="Helvetica,sans-Serif" font-size="10.00">BlackMisc::Simulation</text>
<text text-anchor="start" x="715.5" y="-270" font-family="Helvetica,sans-Serif" font-size="10.00">::Data::CCentralMultiSimulator</text>
<text text-anchor="middle" x="790.5" y="-259" font-family="Helvetica,sans-Serif" font-size="10.00">ModelSetCachesProvider</text>
</a>
</g>
</g>
<!-- Node14&#45;&gt;Node15 -->
<g id="edge14" class="edge">
<title>Node14&#45;&gt;Node15</title>
<path fill="none" stroke="midnightblue" d="M678.48,-272.5C688.34,-272.5 698.1,-272.5 707.49,-272.5"/>
<polygon fill="midnightblue" stroke="midnightblue" points="678.17,-269 668.17,-272.5 678.17,-276 678.17,-269"/>
</g>
<!-- Node17 -->
<g id="node17" class="node">
<title>Node17</title>
<g id="a_node17"><a xlink:href="class_black_misc_1_1_simulation_1_1_data_1_1_c_central_multi_simulator_model_caches_provider.html" target="_top" xlink:title="One central instance of the model caches.">
<polygon fill="none" stroke="black" points="707.5,-175 707.5,-216 873.5,-216 873.5,-175 707.5,-175"/>
<text text-anchor="start" x="715.5" y="-204" font-family="Helvetica,sans-Serif" font-size="10.00">BlackMisc::Simulation</text>
<text text-anchor="start" x="715.5" y="-193" font-family="Helvetica,sans-Serif" font-size="10.00">::Data::CCentralMultiSimulator</text>
<text text-anchor="middle" x="790.5" y="-182" font-family="Helvetica,sans-Serif" font-size="10.00">ModelCachesProvider</text>
</a>
</g>
</g>
<!-- Node16&#45;&gt;Node17 -->
<g id="edge16" class="edge">
<title>Node16&#45;&gt;Node17</title>
<path fill="none" stroke="midnightblue" d="M677.32,-195.5C687.54,-195.5 697.64,-195.5 707.37,-195.5"/>
<polygon fill="midnightblue" stroke="midnightblue" points="677.09,-192 667.09,-195.5 677.09,-199 677.09,-192"/>
</g>
</g>
</svg>
