<?xml version="1.0" encoding="UTF-8" standalone="no"?>
<!DOCTYPE svg PUBLIC "-//W3C//DTD SVG 1.1//EN"
 "http://www.w3.org/Graphics/SVG/1.1/DTD/svg11.dtd">
<!-- Generated by graphviz version 2.43.0 (0)
 -->
<!-- Title: BlackCore::Context::CContextNetworkEmpty Pages: 1 -->
<svg width="148pt" height="229pt"
 viewBox="0.00 0.00 148.00 229.00" xmlns="http://www.w3.org/2000/svg" xmlns:xlink="http://www.w3.org/1999/xlink">
<g id="graph0" class="graph" transform="scale(1 1) rotate(0) translate(4 225)">
<title>BlackCore::Context::CContextNetworkEmpty</title>
<!-- Node1 -->
<g id="node1" class="node">
<title>Node1</title>
<g id="a_node1"><a xlink:title="Empty context, used during shutdown/initialization.">
<polygon fill="#bfbfbf" stroke="black" points="0,-0.5 0,-30.5 140,-30.5 140,-0.5 0,-0.5"/>
<text text-anchor="start" x="8" y="-18.5" font-family="Helvetica,sans-Serif" font-size="10.00">BlackCore::Context</text>
<text text-anchor="middle" x="70" y="-7.5" font-family="Helvetica,sans-Serif" font-size="10.00">::CContextNetworkEmpty</text>
</a>
</g>
</g>
<!-- Node2 -->
<g id="node2" class="node">
<title>Node2</title>
<g id="a_node2"><a xlink:href="class_black_core_1_1_context_1_1_i_context_network.html" target="_top" xlink:title="Network context proxy.">
<polygon fill="none" stroke="black" points="15,-67.5 15,-97.5 125,-97.5 125,-67.5 15,-67.5"/>
<text text-anchor="start" x="23" y="-85.5" font-family="Helvetica,sans-Serif" font-size="10.00">BlackCore::Context</text>
<text text-anchor="middle" x="70" y="-74.5" font-family="Helvetica,sans-Serif" font-size="10.00">::IContextNetwork</text>
</a>
</g>
</g>
<!-- Node2&#45;&gt;Node1 -->
<g id="edge1" class="edge">
<title>Node2&#45;&gt;Node1</title>
<path fill="none" stroke="midnightblue" d="M70,-57.11C70,-48.15 70,-38.32 70,-30.58"/>
<polygon fill="midnightblue" stroke="midnightblue" points="66.5,-57.4 70,-67.4 73.5,-57.4 66.5,-57.4"/>
</g>
<!-- Node3 -->
<g id="node3" class="node">
<title>Node3</title>
<g id="a_node3"><a xlink:href="class_black_core_1_1_context_1_1_i_context.html" target="_top" xlink:title="Base for all context classes.">
<polygon fill="none" stroke="black" points="15,-134.5 15,-164.5 125,-164.5 125,-134.5 15,-134.5"/>
<text text-anchor="start" x="23" y="-152.5" font-family="Helvetica,sans-Serif" font-size="10.00">BlackCore::Context</text>
<text text-anchor="middle" x="70" y="-141.5" font-family="Helvetica,sans-Serif" font-size="10.00">::IContext</text>
</a>
</g>
</g>
<!-- Node3&#45;&gt;Node2 -->
<g id="edge2" class="edge">
<title>Node3&#45;&gt;Node2</title>
<path fill="none" stroke="midnightblue" d="M70,-124.11C70,-115.15 70,-105.32 70,-97.58"/>
<polygon fill="midnightblue" stroke="midnightblue" points="66.5,-124.4 70,-134.4 73.5,-124.4 66.5,-124.4"/>
</g>
<!-- Node4 -->
<g id="node4" class="node">
<title>Node4</title>
<g id="a_node4"><a target="_parent" xlink:href="http://doc.qt.io/qt-5/qobject.html" xlink:title=" ">
<polygon fill="none" stroke="black" points="42,-201.5 42,-220.5 98,-220.5 98,-201.5 42,-201.5"/>
<text text-anchor="middle" x="70" y="-208.5" font-family="Helvetica,sans-Serif" font-size="10.00">QObject</text>
</a>
</g>
</g>
<!-- Node4&#45;&gt;Node3 -->
<g id="edge3" class="edge">
<title>Node4&#45;&gt;Node3</title>
<path fill="none" stroke="midnightblue" d="M70,-191.23C70,-182.59 70,-172.5 70,-164.52"/>
<polygon fill="midnightblue" stroke="midnightblue" points="66.5,-191.48 70,-201.48 73.5,-191.48 66.5,-191.48"/>
</g>
</g>
</svg>
