<?xml version="1.0" encoding="UTF-8" standalone="no"?>
<!DOCTYPE svg PUBLIC "-//W3C//DTD SVG 1.1//EN"
 "http://www.w3.org/Graphics/SVG/1.1/DTD/svg11.dtd">
<!-- Generated by graphviz version 2.43.0 (0)
 -->
<!-- Title: BlackSimPlugin::FsxCommon::CSimulatorFsxConfigWindow Pages: 1 -->
<svg width="181pt" height="397pt"
 viewBox="0.00 0.00 181.00 397.00" xmlns="http://www.w3.org/2000/svg" xmlns:xlink="http://www.w3.org/1999/xlink">
<g id="graph0" class="graph" transform="scale(1 1) rotate(0) translate(4 393)">
<title>BlackSimPlugin::FsxCommon::CSimulatorFsxConfigWindow</title>
<!-- Node1 -->
<g id="node1" class="node">
<title>Node1</title>
<g id="a_node1"><a xlink:title="A window that lets user set up the FSX plugin.">
<polygon fill="#bfbfbf" stroke="black" points="4.5,-0.5 4.5,-30.5 168.5,-30.5 168.5,-0.5 4.5,-0.5"/>
<text text-anchor="start" x="12.5" y="-18.5" font-family="Helvetica,sans-Serif" font-size="10.00">BlackSimPlugin::FsxCommon</text>
<text text-anchor="middle" x="86.5" y="-7.5" font-family="Helvetica,sans-Serif" font-size="10.00">::CSimulatorFsxConfigWindow</text>
</a>
</g>
</g>
<!-- Node2 -->
<g id="node2" class="node">
<title>Node2</title>
<g id="a_node2"><a xlink:href="class_black_gui_1_1_c_plugin_config_window.html" target="_top" xlink:title="Base class for plugin config window.">
<polygon fill="none" stroke="black" points="0,-67.5 0,-86.5 173,-86.5 173,-67.5 0,-67.5"/>
<text text-anchor="middle" x="86.5" y="-74.5" font-family="Helvetica,sans-Serif" font-size="10.00">BlackGui::CPluginConfigWindow</text>
</a>
</g>
</g>
<!-- Node2&#45;&gt;Node1 -->
<g id="edge1" class="edge">
<title>Node2&#45;&gt;Node1</title>
<path fill="none" stroke="midnightblue" d="M86.5,-57.23C86.5,-48.59 86.5,-38.5 86.5,-30.52"/>
<polygon fill="midnightblue" stroke="midnightblue" points="83,-57.48 86.5,-67.48 90,-57.48 83,-57.48"/>
</g>
<!-- Node3 -->
<g id="node3" class="node">
<title>Node3</title>
<g id="a_node3"><a xlink:href="class_black_gui_1_1_c_overlay_messages_frame.html" target="_top" xlink:title="Using this class provides a QFrame with the overlay functionality already integrated.">
<polygon fill="none" stroke="black" points="6.5,-123.5 6.5,-153.5 166.5,-153.5 166.5,-123.5 6.5,-123.5"/>
<text text-anchor="start" x="14.5" y="-141.5" font-family="Helvetica,sans-Serif" font-size="10.00">BlackGui::COverlayMessages</text>
<text text-anchor="middle" x="86.5" y="-130.5" font-family="Helvetica,sans-Serif" font-size="10.00">Frame</text>
</a>
</g>
</g>
<!-- Node3&#45;&gt;Node2 -->
<g id="edge2" class="edge">
<title>Node3&#45;&gt;Node2</title>
<path fill="none" stroke="midnightblue" d="M86.5,-113.29C86.5,-103.86 86.5,-93.65 86.5,-86.66"/>
<polygon fill="midnightblue" stroke="midnightblue" points="83,-113.4 86.5,-123.4 90,-113.4 83,-113.4"/>
</g>
<!-- Node4 -->
<g id="node4" class="node">
<title>Node4</title>
<g id="a_node4"><a xlink:href="class_black_gui_1_1_c_overlay_messages_base.html" target="_top" xlink:title=" ">
<polygon fill="none" stroke="black" points="6.5,-190.5 6.5,-220.5 166.5,-220.5 166.5,-190.5 6.5,-190.5"/>
<text text-anchor="start" x="14.5" y="-208.5" font-family="Helvetica,sans-Serif" font-size="10.00">BlackGui::COverlayMessages</text>
<text text-anchor="middle" x="86.5" y="-197.5" font-family="Helvetica,sans-Serif" font-size="10.00">Base&lt; QFrame &gt;</text>
</a>
</g>
</g>
<!-- Node4&#45;&gt;Node3 -->
<g id="edge3" class="edge">
<title>Node4&#45;&gt;Node3</title>
<path fill="none" stroke="midnightblue" d="M86.5,-180.11C86.5,-171.15 86.5,-161.32 86.5,-153.58"/>
<polygon fill="midnightblue" stroke="midnightblue" points="83,-180.4 86.5,-190.4 90,-180.4 83,-180.4"/>
</g>
<!-- Node5 -->
<g id="node5" class="node">
<title>Node5</title>
<g id="a_node5"><a target="_parent" xlink:href="http://doc.qt.io/qt-5/qframe.html" xlink:title=" ">
<polygon fill="none" stroke="black" points="59,-257.5 59,-276.5 114,-276.5 114,-257.5 59,-257.5"/>
<text text-anchor="middle" x="86.5" y="-264.5" font-family="Helvetica,sans-Serif" font-size="10.00">QFrame</text>
</a>
</g>
</g>
<!-- Node5&#45;&gt;Node4 -->
<g id="edge4" class="edge">
<title>Node5&#45;&gt;Node4</title>
<path fill="none" stroke="midnightblue" d="M86.5,-247.23C86.5,-238.59 86.5,-228.5 86.5,-220.52"/>
<polygon fill="midnightblue" stroke="midnightblue" points="83,-247.48 86.5,-257.48 90,-247.48 83,-247.48"/>
</g>
<!-- Node6 -->
<g id="node6" class="node">
<title>Node6</title>
<g id="a_node6"><a target="_parent" xlink:href="http://doc.qt.io/qt-5/qwidget.html" xlink:title=" ">
<polygon fill="none" stroke="black" points="57,-313.5 57,-332.5 116,-332.5 116,-313.5 57,-313.5"/>
<text text-anchor="middle" x="86.5" y="-320.5" font-family="Helvetica,sans-Serif" font-size="10.00">QWidget</text>
</a>
</g>
</g>
<!-- Node6&#45;&gt;Node5 -->
<g id="edge5" class="edge">
<title>Node6&#45;&gt;Node5</title>
<path fill="none" stroke="midnightblue" d="M86.5,-302.8C86.5,-293.91 86.5,-283.78 86.5,-276.75"/>
<polygon fill="midnightblue" stroke="midnightblue" points="83,-303.08 86.5,-313.08 90,-303.08 83,-303.08"/>
</g>
<!-- Node7 -->
<g id="node7" class="node">
<title>Node7</title>
<g id="a_node7"><a target="_parent" xlink:href="http://doc.qt.io/qt-5/qobject.html" xlink:title=" ">
<polygon fill="none" stroke="black" points="15.5,-369.5 15.5,-388.5 71.5,-388.5 71.5,-369.5 15.5,-369.5"/>
<text text-anchor="middle" x="43.5" y="-376.5" font-family="Helvetica,sans-Serif" font-size="10.00">QObject</text>
</a>
</g>
</g>
<!-- Node7&#45;&gt;Node6 -->
<g id="edge6" class="edge">
<title>Node7&#45;&gt;Node6</title>
<path fill="none" stroke="midnightblue" d="M56.92,-361.14C64.41,-351.74 73.44,-340.4 79.53,-332.75"/>
<polygon fill="midnightblue" stroke="midnightblue" points="54.09,-359.08 50.6,-369.08 59.57,-363.44 54.09,-359.08"/>
</g>
<!-- Node8 -->
<g id="node8" class="node">
<title>Node8</title>
<g id="a_node8"><a target="_parent" xlink:href="http://doc.qt.io/qt-5/qpaintdevice.html" xlink:title=" ">
<polygon fill="none" stroke="black" points="89.5,-369.5 89.5,-388.5 171.5,-388.5 171.5,-369.5 89.5,-369.5"/>
<text text-anchor="middle" x="130.5" y="-376.5" font-family="Helvetica,sans-Serif" font-size="10.00">QPaintDevice</text>
</a>
</g>
</g>
<!-- Node8&#45;&gt;Node6 -->
<g id="edge7" class="edge">
<title>Node8&#45;&gt;Node6</title>
<path fill="none" stroke="midnightblue" d="M116.77,-361.14C109.1,-351.74 99.87,-340.4 93.63,-332.75"/>
<polygon fill="midnightblue" stroke="midnightblue" points="114.2,-363.54 123.23,-369.08 119.63,-359.12 114.2,-363.54"/>
</g>
</g>
</svg>
