<?xml version="1.0" encoding="UTF-8" standalone="no"?>
<!DOCTYPE svg PUBLIC "-//W3C//DTD SVG 1.1//EN"
 "http://www.w3.org/Graphics/SVG/1.1/DTD/svg11.dtd">
<!-- Generated by graphviz version 2.43.0 (0)
 -->
<!-- Title: CSwiftLauncher Pages: 1 -->
<svg width="634pt" height="233pt"
 viewBox="0.00 0.00 634.00 233.00" xmlns="http://www.w3.org/2000/svg" xmlns:xlink="http://www.w3.org/1999/xlink">
<g id="graph0" class="graph" transform="scale(1 1) rotate(0) translate(4 229)">
<title>CSwiftLauncher</title>
<!-- Node1 -->
<g id="node1" class="node">
<title>Node1</title>
<g id="a_node1"><a xlink:title="swift launcher tool">
<polygon fill="#bfbfbf" stroke="black" points="534,-98.5 534,-117.5 626,-117.5 626,-98.5 534,-98.5"/>
<text text-anchor="middle" x="580" y="-105.5" font-family="Helvetica,sans-Serif" font-size="10.00">CSwiftLauncher</text>
</a>
</g>
</g>
<!-- Node2 -->
<g id="node2" class="node">
<title>Node2</title>
<g id="a_node2"><a target="_parent" xlink:href="http://doc.qt.io/qt-5/qdialog.html" xlink:title=" ">
<polygon fill="none" stroke="black" points="384.5,-186.5 384.5,-205.5 440.5,-205.5 440.5,-186.5 384.5,-186.5"/>
<text text-anchor="middle" x="412.5" y="-193.5" font-family="Helvetica,sans-Serif" font-size="10.00">QDialog</text>
</a>
</g>
</g>
<!-- Node2&#45;&gt;Node1 -->
<g id="edge1" class="edge">
<title>Node2&#45;&gt;Node1</title>
<path fill="none" stroke="midnightblue" d="M450.64,-191.64C465.88,-188.85 483.36,-184.32 498,-177 528.41,-161.81 556.95,-132.81 570.6,-117.7"/>
<polygon fill="midnightblue" stroke="midnightblue" points="449.8,-188.23 440.5,-193.3 450.94,-195.13 449.8,-188.23"/>
</g>
<!-- Node3 -->
<g id="node3" class="node">
<title>Node3</title>
<g id="a_node3"><a target="_parent" xlink:href="http://doc.qt.io/qt-5/qwidget.html" xlink:title=" ">
<polygon fill="none" stroke="black" points="175,-186.5 175,-205.5 234,-205.5 234,-186.5 175,-186.5"/>
<text text-anchor="middle" x="204.5" y="-193.5" font-family="Helvetica,sans-Serif" font-size="10.00">QWidget</text>
</a>
</g>
</g>
<!-- Node3&#45;&gt;Node2 -->
<g id="edge2" class="edge">
<title>Node3&#45;&gt;Node2</title>
<path fill="none" stroke="midnightblue" d="M244.28,-196C285.19,-196 348.58,-196 384.41,-196"/>
<polygon fill="midnightblue" stroke="midnightblue" points="244.14,-192.5 234.14,-196 244.14,-199.5 244.14,-192.5"/>
</g>
<!-- Node4 -->
<g id="node4" class="node">
<title>Node4</title>
<g id="a_node4"><a target="_parent" xlink:href="http://doc.qt.io/qt-5/qobject.html" xlink:title=" ">
<polygon fill="none" stroke="black" points="13,-205.5 13,-224.5 69,-224.5 69,-205.5 13,-205.5"/>
<text text-anchor="middle" x="41" y="-212.5" font-family="Helvetica,sans-Serif" font-size="10.00">QObject</text>
</a>
</g>
</g>
<!-- Node4&#45;&gt;Node3 -->
<g id="edge3" class="edge">
<title>Node4&#45;&gt;Node3</title>
<path fill="none" stroke="midnightblue" d="M79.21,-210.62C108.28,-207.2 148.09,-202.52 174.74,-199.38"/>
<polygon fill="midnightblue" stroke="midnightblue" points="78.55,-207.18 69.03,-211.82 79.37,-214.13 78.55,-207.18"/>
</g>
<!-- Node5 -->
<g id="node5" class="node">
<title>Node5</title>
<g id="a_node5"><a target="_parent" xlink:href="http://doc.qt.io/qt-5/qpaintdevice.html" xlink:title=" ">
<polygon fill="none" stroke="black" points="0,-167.5 0,-186.5 82,-186.5 82,-167.5 0,-167.5"/>
<text text-anchor="middle" x="41" y="-174.5" font-family="Helvetica,sans-Serif" font-size="10.00">QPaintDevice</text>
</a>
</g>
</g>
<!-- Node5&#45;&gt;Node3 -->
<g id="edge4" class="edge">
<title>Node5&#45;&gt;Node3</title>
<path fill="none" stroke="midnightblue" d="M92.44,-182.93C119.56,-186.13 152.03,-189.94 174.83,-192.63"/>
<polygon fill="midnightblue" stroke="midnightblue" points="92.68,-179.44 82.34,-181.75 91.86,-186.39 92.68,-179.44"/>
</g>
<!-- Node6 -->
<g id="node6" class="node">
<title>Node6</title>
<g id="a_node6"><a xlink:href="class_black_gui_1_1_c_enable_for_frameless_window.html" target="_top" xlink:title="Main window which can be frameless.">
<polygon fill="none" stroke="black" points="327,-137 327,-167 498,-167 498,-137 327,-137"/>
<text text-anchor="start" x="335" y="-155" font-family="Helvetica,sans-Serif" font-size="10.00">BlackGui::CEnableForFrameless</text>
<text text-anchor="middle" x="412.5" y="-144" font-family="Helvetica,sans-Serif" font-size="10.00">Window</text>
</a>
</g>
</g>
<!-- Node6&#45;&gt;Node1 -->
<g id="edge5" class="edge">
<title>Node6&#45;&gt;Node1</title>
<path fill="none" stroke="midnightblue" d="M479.77,-134.38C501.35,-128.65 524.48,-122.5 542.97,-117.58"/>
<polygon fill="midnightblue" stroke="midnightblue" points="478.76,-131.03 469.99,-136.98 480.56,-137.79 478.76,-131.03"/>
</g>
<!-- Node7 -->
<g id="node7" class="node">
<title>Node7</title>
<g id="a_node7"><a xlink:href="class_black_gui_1_1_i_main_window_access.html" target="_top" xlink:title="Direct acccess to main window`s status bar, info bar and such.">
<polygon fill="none" stroke="black" points="329.5,-98.5 329.5,-117.5 495.5,-117.5 495.5,-98.5 329.5,-98.5"/>
<text text-anchor="middle" x="412.5" y="-105.5" font-family="Helvetica,sans-Serif" font-size="10.00">BlackGui::IMainWindowAccess</text>
</a>
</g>
</g>
<!-- Node7&#45;&gt;Node1 -->
<g id="edge6" class="edge">
<title>Node7&#45;&gt;Node1</title>
<path fill="none" stroke="midnightblue" d="M505.91,-108C515.61,-108 525.12,-108 533.91,-108"/>
<polygon fill="midnightblue" stroke="midnightblue" points="505.77,-104.5 495.77,-108 505.77,-111.5 505.77,-104.5"/>
</g>
<!-- Node8 -->
<g id="node8" class="node">
<title>Node8</title>
<g id="a_node8"><a xlink:href="class_black_misc_1_1_simulation_1_1_data_1_1_c_central_multi_simulator_model_set_caches_aware.html" target="_top" xlink:title="Basically a QObject free (delegate based) version of CCentralMultiSimulatorModelSetCachesProvider.">
<polygon fill="none" stroke="black" points="329.5,-38.5 329.5,-79.5 495.5,-79.5 495.5,-38.5 329.5,-38.5"/>
<text text-anchor="start" x="337.5" y="-67.5" font-family="Helvetica,sans-Serif" font-size="10.00">BlackMisc::Simulation</text>
<text text-anchor="start" x="337.5" y="-56.5" font-family="Helvetica,sans-Serif" font-size="10.00">::Data::CCentralMultiSimulator</text>
<text text-anchor="middle" x="412.5" y="-45.5" font-family="Helvetica,sans-Serif" font-size="10.00">ModelSetCachesAware</text>
</a>
</g>
</g>
<!-- Node8&#45;&gt;Node1 -->
<g id="edge7" class="edge">
<title>Node8&#45;&gt;Node1</title>
<path fill="none" stroke="midnightblue" d="M492.84,-82.49C511.93,-88.14 531.27,-93.87 546.77,-98.46"/>
<polygon fill="midnightblue" stroke="midnightblue" points="493.79,-79.12 483.21,-79.64 491.8,-85.83 493.79,-79.12"/>
</g>
<!-- Node9 -->
<g id="node9" class="node">
<title>Node9</title>
<g id="a_node9"><a xlink:href="class_black_misc_1_1_simulation_1_1_i_models_for_simulator_setable.html" target="_top" xlink:title="Interface to &quot;something&quot; backing models, which can be set.">
<polygon fill="none" stroke="black" points="124.5,-69 124.5,-99 284.5,-99 284.5,-69 124.5,-69"/>
<text text-anchor="start" x="132.5" y="-87" font-family="Helvetica,sans-Serif" font-size="10.00">BlackMisc::Simulation</text>
<text text-anchor="middle" x="204.5" y="-76" font-family="Helvetica,sans-Serif" font-size="10.00">::IModelsForSimulatorSetable</text>
</a>
</g>
</g>
<!-- Node9&#45;&gt;Node8 -->
<g id="edge8" class="edge">
<title>Node9&#45;&gt;Node8</title>
<path fill="none" stroke="midnightblue" d="M294.59,-73.19C306.1,-71.79 317.85,-70.37 329.24,-68.98"/>
<polygon fill="midnightblue" stroke="midnightblue" points="294.06,-69.73 284.56,-74.41 294.9,-76.68 294.06,-69.73"/>
</g>
<!-- Node10 -->
<g id="node10" class="node">
<title>Node10</title>
<g id="a_node10"><a xlink:href="class_black_misc_1_1_simulation_1_1_i_models_for_simulator_updatable.html" target="_top" xlink:title="Interface to &quot;something&quot; backing models, which can be modified (updated)">
<polygon fill="none" stroke="black" points="118,-20 118,-50 291,-50 291,-20 118,-20"/>
<text text-anchor="start" x="126" y="-38" font-family="Helvetica,sans-Serif" font-size="10.00">BlackMisc::Simulation</text>
<text text-anchor="middle" x="204.5" y="-27" font-family="Helvetica,sans-Serif" font-size="10.00">::IModelsForSimulatorUpdatable</text>
</a>
</g>
</g>
<!-- Node10&#45;&gt;Node8 -->
<g id="edge9" class="edge">
<title>Node10&#45;&gt;Node8</title>
<path fill="none" stroke="midnightblue" d="M301.27,-46.16C310.7,-47.26 320.22,-48.37 329.5,-49.45"/>
<polygon fill="midnightblue" stroke="midnightblue" points="301.41,-42.65 291.07,-44.97 300.6,-49.6 301.41,-42.65"/>
</g>
<!-- Node11 -->
<g id="node11" class="node">
<title>Node11</title>
<g id="a_node11"><a xlink:href="class_black_misc_1_1_c_identifiable.html" target="_top" xlink:title="Base class with a member CIdentifier to be inherited by a class which has an identity in the environm...">
<polygon fill="none" stroke="black" points="345.5,-0.5 345.5,-19.5 479.5,-19.5 479.5,-0.5 345.5,-0.5"/>
<text text-anchor="middle" x="412.5" y="-7.5" font-family="Helvetica,sans-Serif" font-size="10.00">BlackMisc::CIdentifiable</text>
</a>
</g>
</g>
<!-- Node11&#45;&gt;Node1 -->
<g id="edge10" class="edge">
<title>Node11&#45;&gt;Node1</title>
<path fill="none" stroke="midnightblue" d="M484.63,-22.9C489.26,-24.68 493.76,-26.7 498,-29 530.63,-46.7 559.23,-81.33 571.97,-98.24"/>
<polygon fill="midnightblue" stroke="midnightblue" points="485.57,-19.53 474.98,-19.59 483.3,-26.15 485.57,-19.53"/>
</g>
</g>
</svg>
