<?xml version="1.0" encoding="UTF-8" standalone="no"?>
<!DOCTYPE svg PUBLIC "-//W3C//DTD SVG 1.1//EN"
 "http://www.w3.org/Graphics/SVG/1.1/DTD/svg11.dtd">
<!-- Generated by graphviz version 2.43.0 (0)
 -->
<!-- Title: BlackSimPlugin::FsxCommon::CSimulatorFsxCommonListener Pages: 1 -->
<svg width="651pt" height="137pt"
 viewBox="0.00 0.00 651.00 137.00" xmlns="http://www.w3.org/2000/svg" xmlns:xlink="http://www.w3.org/1999/xlink">
<g id="graph0" class="graph" transform="scale(1 1) rotate(0) translate(4 133)">
<title>BlackSimPlugin::FsxCommon::CSimulatorFsxCommonListener</title>
<!-- Node1 -->
<g id="node1" class="node">
<title>Node1</title>
<g id="a_node1"><a xlink:title="Listener for FSX.">
<polygon fill="#bfbfbf" stroke="black" points="289,-49.5 289,-79.5 466,-79.5 466,-49.5 289,-49.5"/>
<text text-anchor="start" x="297" y="-67.5" font-family="Helvetica,sans-Serif" font-size="10.00">BlackSimPlugin::FsxCommon</text>
<text text-anchor="middle" x="377.5" y="-56.5" font-family="Helvetica,sans-Serif" font-size="10.00">::CSimulatorFsxCommonListener</text>
</a>
</g>
</g>
<!-- Node4 -->
<g id="node4" class="node">
<title>Node4</title>
<g id="a_node4"><a xlink:href="class_black_sim_plugin_1_1_fsx_1_1_c_simulator_fsx_listener.html" target="_top" xlink:title="Listener for FSX.">
<polygon fill="none" stroke="black" points="506,-98.5 506,-128.5 639,-128.5 639,-98.5 506,-98.5"/>
<text text-anchor="start" x="514" y="-116.5" font-family="Helvetica,sans-Serif" font-size="10.00">BlackSimPlugin::Fsx</text>
<text text-anchor="middle" x="572.5" y="-105.5" font-family="Helvetica,sans-Serif" font-size="10.00">::CSimulatorFsxListener</text>
</a>
</g>
</g>
<!-- Node1&#45;&gt;Node4 -->
<g id="edge3" class="edge">
<title>Node1&#45;&gt;Node4</title>
<path fill="none" stroke="midnightblue" d="M447.62,-82.05C468.82,-87.43 491.93,-93.3 512.39,-98.49"/>
<polygon fill="midnightblue" stroke="midnightblue" points="448.27,-78.6 437.72,-79.53 446.55,-85.39 448.27,-78.6"/>
</g>
<!-- Node5 -->
<g id="node5" class="node">
<title>Node5</title>
<g id="a_node5"><a xlink:href="class_black_sim_plugin_1_1_msfs_1_1_c_simulator_ms_fs_listener.html" target="_top" xlink:title="Listener for MSFS.">
<polygon fill="none" stroke="black" points="502,-49.5 502,-79.5 643,-79.5 643,-49.5 502,-49.5"/>
<text text-anchor="start" x="510" y="-67.5" font-family="Helvetica,sans-Serif" font-size="10.00">BlackSimPlugin::Msfs</text>
<text text-anchor="middle" x="572.5" y="-56.5" font-family="Helvetica,sans-Serif" font-size="10.00">::CSimulatorMsFsListener</text>
</a>
</g>
</g>
<!-- Node1&#45;&gt;Node5 -->
<g id="edge4" class="edge">
<title>Node1&#45;&gt;Node5</title>
<path fill="none" stroke="midnightblue" d="M476.36,-64.5C484.97,-64.5 493.58,-64.5 501.9,-64.5"/>
<polygon fill="midnightblue" stroke="midnightblue" points="476.25,-61 466.25,-64.5 476.25,-68 476.25,-61"/>
</g>
<!-- Node6 -->
<g id="node6" class="node">
<title>Node6</title>
<g id="a_node6"><a xlink:href="class_black_sim_plugin_1_1_p3_d_1_1_c_simulator_p3_d_listener.html" target="_top" xlink:title="Listener for P3D.">
<polygon fill="none" stroke="black" points="505,-0.5 505,-30.5 640,-30.5 640,-0.5 505,-0.5"/>
<text text-anchor="start" x="513" y="-18.5" font-family="Helvetica,sans-Serif" font-size="10.00">BlackSimPlugin::P3D</text>
<text text-anchor="middle" x="572.5" y="-7.5" font-family="Helvetica,sans-Serif" font-size="10.00">::CSimulatorP3DListener</text>
</a>
</g>
</g>
<!-- Node1&#45;&gt;Node6 -->
<g id="edge5" class="edge">
<title>Node1&#45;&gt;Node6</title>
<path fill="none" stroke="midnightblue" d="M447.62,-46.95C468.82,-41.57 491.93,-35.7 512.39,-30.51"/>
<polygon fill="midnightblue" stroke="midnightblue" points="446.55,-43.61 437.72,-49.47 448.27,-50.4 446.55,-43.61"/>
</g>
<!-- Node2 -->
<g id="node2" class="node">
<title>Node2</title>
<g id="a_node2"><a xlink:href="class_black_core_1_1_i_simulator_listener.html" target="_top" xlink:title="Interface to a simulator listener.">
<polygon fill="none" stroke="black" points="92,-55 92,-74 253,-74 253,-55 92,-55"/>
<text text-anchor="middle" x="172.5" y="-62" font-family="Helvetica,sans-Serif" font-size="10.00">BlackCore::ISimulatorListener</text>
</a>
</g>
</g>
<!-- Node2&#45;&gt;Node1 -->
<g id="edge1" class="edge">
<title>Node2&#45;&gt;Node1</title>
<path fill="none" stroke="midnightblue" d="M263.35,-64.5C271.77,-64.5 280.29,-64.5 288.69,-64.5"/>
<polygon fill="midnightblue" stroke="midnightblue" points="263.15,-61 253.15,-64.5 263.15,-68 263.15,-61"/>
</g>
<!-- Node3 -->
<g id="node3" class="node">
<title>Node3</title>
<g id="a_node3"><a target="_parent" xlink:href="http://doc.qt.io/qt-5/qobject.html" xlink:title=" ">
<polygon fill="none" stroke="black" points="0,-55 0,-74 56,-74 56,-55 0,-55"/>
<text text-anchor="middle" x="28" y="-62" font-family="Helvetica,sans-Serif" font-size="10.00">QObject</text>
</a>
</g>
</g>
<!-- Node3&#45;&gt;Node2 -->
<g id="edge2" class="edge">
<title>Node3&#45;&gt;Node2</title>
<path fill="none" stroke="midnightblue" d="M66.19,-64.5C74.2,-64.5 82.96,-64.5 91.91,-64.5"/>
<polygon fill="midnightblue" stroke="midnightblue" points="66.14,-61 56.14,-64.5 66.14,-68 66.14,-61"/>
</g>
</g>
</svg>
