<?xml version="1.0" encoding="UTF-8" standalone="no"?>
<!DOCTYPE svg PUBLIC "-//W3C//DTD SVG 1.1//EN"
 "http://www.w3.org/Graphics/SVG/1.1/DTD/svg11.dtd">
<!-- Generated by graphviz version 2.43.0 (0)
 -->
<!-- Title: BlackGui::Editors::CForm Pages: 1 -->
<svg width="1173pt" height="970pt"
 viewBox="0.00 0.00 1173.00 970.00" xmlns="http://www.w3.org/2000/svg" xmlns:xlink="http://www.w3.org/1999/xlink">
<g id="graph0" class="graph" transform="scale(1 1) rotate(0) translate(4 966)">
<title>BlackGui::Editors::CForm</title>
<!-- Node1 -->
<g id="node1" class="node">
<title>Node1</title>
<g id="a_node1"><a xlink:title="Form base class.">
<polygon fill="#bfbfbf" stroke="black" points="696,-465.5 696,-495.5 802,-495.5 802,-465.5 696,-465.5"/>
<text text-anchor="start" x="704" y="-483.5" font-family="Helvetica,sans-Serif" font-size="10.00">BlackGui::Editors::</text>
<text text-anchor="middle" x="749" y="-472.5" font-family="Helvetica,sans-Serif" font-size="10.00">CForm</text>
</a>
</g>
</g>
<!-- Node8 -->
<g id="node8" class="node">
<title>Node8</title>
<g id="a_node8"><a xlink:href="class_black_gui_1_1_editors_1_1_c_aircraft_icao_form.html" target="_top" xlink:title="Aircraft ICAO form.">
<polygon fill="none" stroke="black" points="854,-931.5 854,-961.5 960,-961.5 960,-931.5 854,-931.5"/>
<text text-anchor="start" x="862" y="-949.5" font-family="Helvetica,sans-Serif" font-size="10.00">BlackGui::Editors::</text>
<text text-anchor="middle" x="907" y="-938.5" font-family="Helvetica,sans-Serif" font-size="10.00">CAircraftIcaoForm</text>
</a>
</g>
</g>
<!-- Node1&#45;&gt;Node8 -->
<g id="edge7" class="edge">
<title>Node1&#45;&gt;Node8</title>
<path fill="none" stroke="midnightblue" d="M751.86,-506.08C758.49,-590.38 783.48,-857.77 838,-921.5 842.33,-926.57 847.79,-930.6 853.71,-933.83"/>
<polygon fill="midnightblue" stroke="midnightblue" points="755.33,-505.57 751.08,-495.86 748.36,-506.1 755.33,-505.57"/>
</g>
<!-- Node9 -->
<g id="node9" class="node">
<title>Node9</title>
<g id="a_node9"><a xlink:href="class_black_gui_1_1_editors_1_1_c_aircraft_model_form.html" target="_top" xlink:title="Combined form of Livery, ICAOs, distributor.">
<polygon fill="none" stroke="black" points="850.5,-882.5 850.5,-912.5 963.5,-912.5 963.5,-882.5 850.5,-882.5"/>
<text text-anchor="start" x="858.5" y="-900.5" font-family="Helvetica,sans-Serif" font-size="10.00">BlackGui::Editors::</text>
<text text-anchor="middle" x="907" y="-889.5" font-family="Helvetica,sans-Serif" font-size="10.00">CAircraftModelForm</text>
</a>
</g>
</g>
<!-- Node1&#45;&gt;Node9 -->
<g id="edge8" class="edge">
<title>Node1&#45;&gt;Node9</title>
<path fill="none" stroke="midnightblue" d="M752.58,-506.25C760.88,-584.4 789.25,-816.88 838,-872.5 841.48,-876.47 845.65,-879.82 850.19,-882.63"/>
<polygon fill="midnightblue" stroke="midnightblue" points="756.02,-505.47 751.5,-495.88 749.05,-506.19 756.02,-505.47"/>
</g>
<!-- Node10 -->
<g id="node10" class="node">
<title>Node10</title>
<g id="a_node10"><a xlink:href="class_black_gui_1_1_editors_1_1_c_aircraft_parts_form.html" target="_top" xlink:title="Edit and set aircraft parts.">
<polygon fill="none" stroke="black" points="853.5,-833.5 853.5,-863.5 960.5,-863.5 960.5,-833.5 853.5,-833.5"/>
<text text-anchor="start" x="861.5" y="-851.5" font-family="Helvetica,sans-Serif" font-size="10.00">BlackGui::Editors::</text>
<text text-anchor="middle" x="907" y="-840.5" font-family="Helvetica,sans-Serif" font-size="10.00">CAircraftPartsForm</text>
</a>
</g>
</g>
<!-- Node1&#45;&gt;Node10 -->
<g id="edge9" class="edge">
<title>Node1&#45;&gt;Node10</title>
<path fill="none" stroke="midnightblue" d="M753.41,-505.81C763.44,-576.81 794.87,-775.77 838,-823.5 842.3,-828.26 847.59,-832.11 853.29,-835.24"/>
<polygon fill="midnightblue" stroke="midnightblue" points="756.83,-504.98 751.99,-495.56 749.9,-505.94 756.83,-504.98"/>
</g>
<!-- Node11 -->
<g id="node11" class="node">
<title>Node11</title>
<g id="a_node11"><a xlink:href="class_black_gui_1_1_editors_1_1_c_airline_icao_form.html" target="_top" xlink:title="Airline ICAO code form.">
<polygon fill="none" stroke="black" points="854,-784.5 854,-814.5 960,-814.5 960,-784.5 854,-784.5"/>
<text text-anchor="start" x="862" y="-802.5" font-family="Helvetica,sans-Serif" font-size="10.00">BlackGui::Editors::</text>
<text text-anchor="middle" x="907" y="-791.5" font-family="Helvetica,sans-Serif" font-size="10.00">CAirlineIcaoForm</text>
</a>
</g>
</g>
<!-- Node1&#45;&gt;Node11 -->
<g id="edge10" class="edge">
<title>Node1&#45;&gt;Node11</title>
<path fill="none" stroke="midnightblue" d="M750.32,-505.67C752.39,-561.52 765.12,-696.99 838,-774.5 842.48,-779.26 847.95,-783.13 853.81,-786.25"/>
<polygon fill="midnightblue" stroke="midnightblue" points="753.82,-505.5 750.03,-495.6 746.82,-505.7 753.82,-505.5"/>
</g>
<!-- Node12 -->
<g id="node12" class="node">
<title>Node12</title>
<g id="a_node12"><a xlink:href="class_black_gui_1_1_editors_1_1_c_cockpit_com_form.html" target="_top" xlink:title="COM elements.">
<polygon fill="none" stroke="black" points="853.5,-735.5 853.5,-765.5 960.5,-765.5 960.5,-735.5 853.5,-735.5"/>
<text text-anchor="start" x="861.5" y="-753.5" font-family="Helvetica,sans-Serif" font-size="10.00">BlackGui::Editors::</text>
<text text-anchor="middle" x="907" y="-742.5" font-family="Helvetica,sans-Serif" font-size="10.00">CCockpitComForm</text>
</a>
</g>
</g>
<!-- Node1&#45;&gt;Node12 -->
<g id="edge11" class="edge">
<title>Node1&#45;&gt;Node12</title>
<path fill="none" stroke="midnightblue" d="M752.13,-505.82C757.58,-554.84 776.28,-663.32 838,-725.5 842.43,-729.96 847.72,-733.64 853.38,-736.66"/>
<polygon fill="midnightblue" stroke="midnightblue" points="755.6,-505.36 751.11,-495.77 748.64,-506.07 755.6,-505.36"/>
</g>
<!-- Node13 -->
<g id="node13" class="node">
<title>Node13</title>
<g id="a_node13"><a xlink:href="class_black_gui_1_1_editors_1_1_c_coordinate_form.html" target="_top" xlink:title="Select / enter a geo position.">
<polygon fill="none" stroke="black" points="854,-686.5 854,-716.5 960,-716.5 960,-686.5 854,-686.5"/>
<text text-anchor="start" x="862" y="-704.5" font-family="Helvetica,sans-Serif" font-size="10.00">BlackGui::Editors::</text>
<text text-anchor="middle" x="907" y="-693.5" font-family="Helvetica,sans-Serif" font-size="10.00">CCoordinateForm</text>
</a>
</g>
</g>
<!-- Node1&#45;&gt;Node13 -->
<g id="edge12" class="edge">
<title>Node1&#45;&gt;Node13</title>
<path fill="none" stroke="midnightblue" d="M754.71,-505.6C763.71,-546.85 787.17,-629.09 838,-676.5 842.6,-680.79 848,-684.36 853.7,-687.32"/>
<polygon fill="midnightblue" stroke="midnightblue" points="758.09,-504.67 752.63,-495.58 751.23,-506.09 758.09,-504.67"/>
</g>
<!-- Node14 -->
<g id="node14" class="node">
<title>Node14</title>
<g id="a_node14"><a xlink:href="class_black_gui_1_1_editors_1_1_c_distributor_form.html" target="_top" xlink:title="Distributor form.">
<polygon fill="none" stroke="black" points="854,-637.5 854,-667.5 960,-667.5 960,-637.5 854,-637.5"/>
<text text-anchor="start" x="862" y="-655.5" font-family="Helvetica,sans-Serif" font-size="10.00">BlackGui::Editors::</text>
<text text-anchor="middle" x="907" y="-644.5" font-family="Helvetica,sans-Serif" font-size="10.00">CDistributorForm</text>
</a>
</g>
</g>
<!-- Node1&#45;&gt;Node14 -->
<g id="edge13" class="edge">
<title>Node1&#45;&gt;Node14</title>
<path fill="none" stroke="midnightblue" d="M758.8,-505.33C771.5,-537.76 797.9,-594.28 838,-627.5 842.75,-631.43 848.17,-634.77 853.83,-637.61"/>
<polygon fill="midnightblue" stroke="midnightblue" points="761.98,-503.83 755.17,-495.71 755.43,-506.3 761.98,-503.83"/>
</g>
<!-- Node15 -->
<g id="node15" class="node">
<title>Node15</title>
<g id="a_node15"><a xlink:href="class_black_gui_1_1_editors_1_1_c_form_db_user.html" target="_top" xlink:title="Form base class.">
<polygon fill="none" stroke="black" points="854,-588.5 854,-618.5 960,-618.5 960,-588.5 854,-588.5"/>
<text text-anchor="start" x="862" y="-606.5" font-family="Helvetica,sans-Serif" font-size="10.00">BlackGui::Editors::</text>
<text text-anchor="middle" x="907" y="-595.5" font-family="Helvetica,sans-Serif" font-size="10.00">CFormDbUser</text>
</a>
</g>
</g>
<!-- Node1&#45;&gt;Node15 -->
<g id="edge14" class="edge">
<title>Node1&#45;&gt;Node15</title>
<path fill="none" stroke="midnightblue" d="M765.87,-503.96C781.81,-525.93 808.22,-558.31 838,-578.5 843.62,-582.31 849.9,-585.63 856.3,-588.49"/>
<polygon fill="midnightblue" stroke="midnightblue" points="768.54,-501.67 759.9,-495.53 762.83,-505.71 768.54,-501.67"/>
</g>
<!-- Node18 -->
<g id="node18" class="node">
<title>Node18</title>
<g id="a_node18"><a xlink:href="class_black_gui_1_1_editors_1_1_c_fsd_setup_form.html" target="_top" xlink:title="Setup for FSD.">
<polygon fill="none" stroke="black" points="854,-539.5 854,-569.5 960,-569.5 960,-539.5 854,-539.5"/>
<text text-anchor="start" x="862" y="-557.5" font-family="Helvetica,sans-Serif" font-size="10.00">BlackGui::Editors::</text>
<text text-anchor="middle" x="907" y="-546.5" font-family="Helvetica,sans-Serif" font-size="10.00">CFsdSetupForm</text>
</a>
</g>
</g>
<!-- Node1&#45;&gt;Node18 -->
<g id="edge17" class="edge">
<title>Node1&#45;&gt;Node18</title>
<path fill="none" stroke="midnightblue" d="M783.9,-501C799.99,-510.31 819.67,-521.09 838,-529.5 845.66,-533.01 853.97,-536.4 862.06,-539.49"/>
<polygon fill="midnightblue" stroke="midnightblue" points="785.27,-497.75 774.87,-495.72 781.74,-503.79 785.27,-497.75"/>
</g>
<!-- Node19 -->
<g id="node19" class="node">
<title>Node19</title>
<g id="a_node19"><a xlink:href="class_black_gui_1_1_editors_1_1_c_interpolation_setup_form.html" target="_top" xlink:title="Setup of interpolation and rendering.">
<polygon fill="none" stroke="black" points="838,-490.5 838,-520.5 976,-520.5 976,-490.5 838,-490.5"/>
<text text-anchor="start" x="846" y="-508.5" font-family="Helvetica,sans-Serif" font-size="10.00">BlackGui::Editors::</text>
<text text-anchor="middle" x="907" y="-497.5" font-family="Helvetica,sans-Serif" font-size="10.00">CInterpolationSetupForm</text>
</a>
</g>
</g>
<!-- Node1&#45;&gt;Node19 -->
<g id="edge18" class="edge">
<title>Node1&#45;&gt;Node19</title>
<path fill="none" stroke="midnightblue" d="M812.46,-490.51C820.85,-491.85 829.49,-493.24 837.97,-494.6"/>
<polygon fill="midnightblue" stroke="midnightblue" points="812.81,-487.02 802.38,-488.89 811.7,-493.93 812.81,-487.02"/>
</g>
<!-- Node20 -->
<g id="node20" class="node">
<title>Node20</title>
<g id="a_node20"><a xlink:href="class_black_gui_1_1_editors_1_1_c_livery_form.html" target="_top" xlink:title="Livery form class.">
<polygon fill="none" stroke="black" points="854,-441.5 854,-471.5 960,-471.5 960,-441.5 854,-441.5"/>
<text text-anchor="start" x="862" y="-459.5" font-family="Helvetica,sans-Serif" font-size="10.00">BlackGui::Editors::</text>
<text text-anchor="middle" x="907" y="-448.5" font-family="Helvetica,sans-Serif" font-size="10.00">CLiveryForm</text>
</a>
</g>
</g>
<!-- Node1&#45;&gt;Node20 -->
<g id="edge19" class="edge">
<title>Node1&#45;&gt;Node20</title>
<path fill="none" stroke="midnightblue" d="M812.65,-470.86C826.29,-468.76 840.58,-466.57 853.76,-464.54"/>
<polygon fill="midnightblue" stroke="midnightblue" points="811.73,-467.46 802.38,-472.44 812.8,-474.38 811.73,-467.46"/>
</g>
<!-- Node21 -->
<g id="node21" class="node">
<title>Node21</title>
<g id="a_node21"><a xlink:href="class_black_gui_1_1_editors_1_1_c_matching_form.html" target="_top" xlink:title="Matching form.">
<polygon fill="none" stroke="black" points="854,-392.5 854,-422.5 960,-422.5 960,-392.5 854,-392.5"/>
<text text-anchor="start" x="862" y="-410.5" font-family="Helvetica,sans-Serif" font-size="10.00">BlackGui::Editors::</text>
<text text-anchor="middle" x="907" y="-399.5" font-family="Helvetica,sans-Serif" font-size="10.00">CMatchingForm</text>
</a>
</g>
</g>
<!-- Node1&#45;&gt;Node21 -->
<g id="edge20" class="edge">
<title>Node1&#45;&gt;Node21</title>
<path fill="none" stroke="midnightblue" d="M783.5,-460.09C799.64,-450.72 819.48,-439.85 838,-431.5 844.96,-428.36 852.47,-425.35 859.86,-422.6"/>
<polygon fill="midnightblue" stroke="midnightblue" points="781.3,-457.32 774.46,-465.41 784.85,-463.36 781.3,-457.32"/>
</g>
<!-- Node22 -->
<g id="node22" class="node">
<title>Node22</title>
<g id="a_node22"><a xlink:href="class_black_gui_1_1_editors_1_1_c_network_setup_form.html" target="_top" xlink:title="Setup form.">
<polygon fill="none" stroke="black" points="848.5,-343.5 848.5,-373.5 965.5,-373.5 965.5,-343.5 848.5,-343.5"/>
<text text-anchor="start" x="856.5" y="-361.5" font-family="Helvetica,sans-Serif" font-size="10.00">BlackGui::Editors::</text>
<text text-anchor="middle" x="907" y="-350.5" font-family="Helvetica,sans-Serif" font-size="10.00">CNetworkSetupForm</text>
</a>
</g>
</g>
<!-- Node1&#45;&gt;Node22 -->
<g id="edge21" class="edge">
<title>Node1&#45;&gt;Node22</title>
<path fill="none" stroke="midnightblue" d="M765.81,-456.95C781.71,-434.92 808.09,-402.49 838,-382.5 843.1,-379.09 848.74,-376.11 854.52,-373.51"/>
<polygon fill="midnightblue" stroke="midnightblue" points="762.76,-455.22 759.86,-465.41 768.48,-459.25 762.76,-455.22"/>
</g>
<!-- Node23 -->
<g id="node23" class="node">
<title>Node23</title>
<g id="a_node23"><a xlink:href="class_black_gui_1_1_editors_1_1_c_own_model_set_form.html" target="_top" xlink:title="Selection for own model set.">
<polygon fill="none" stroke="black" points="849,-294.5 849,-324.5 965,-324.5 965,-294.5 849,-294.5"/>
<text text-anchor="start" x="857" y="-312.5" font-family="Helvetica,sans-Serif" font-size="10.00">BlackGui::Editors::</text>
<text text-anchor="middle" x="907" y="-301.5" font-family="Helvetica,sans-Serif" font-size="10.00">COwnModelSetForm</text>
</a>
</g>
</g>
<!-- Node1&#45;&gt;Node23 -->
<g id="edge22" class="edge">
<title>Node1&#45;&gt;Node23</title>
<path fill="none" stroke="midnightblue" d="M758.74,-455.59C771.36,-423.08 797.69,-366.46 838,-333.5 842.17,-330.09 846.85,-327.15 851.77,-324.62"/>
<polygon fill="midnightblue" stroke="midnightblue" points="755.36,-454.64 755.12,-465.24 761.91,-457.1 755.36,-454.64"/>
</g>
<!-- Node24 -->
<g id="node24" class="node">
<title>Node24</title>
<g id="a_node24"><a xlink:href="class_black_gui_1_1_editors_1_1_c_pbhs_form.html" target="_top" xlink:title="Pitch, bank, heading and speed form.">
<polygon fill="none" stroke="black" points="854,-245.5 854,-275.5 960,-275.5 960,-245.5 854,-245.5"/>
<text text-anchor="start" x="862" y="-263.5" font-family="Helvetica,sans-Serif" font-size="10.00">BlackGui::Editors::</text>
<text text-anchor="middle" x="907" y="-252.5" font-family="Helvetica,sans-Serif" font-size="10.00">CPbhsForm</text>
</a>
</g>
</g>
<!-- Node1&#45;&gt;Node24 -->
<g id="edge23" class="edge">
<title>Node1&#45;&gt;Node24</title>
<path fill="none" stroke="midnightblue" d="M754.64,-455.32C763.54,-413.97 786.86,-331.58 838,-284.5 842.61,-280.26 848.01,-276.76 853.72,-273.88"/>
<polygon fill="midnightblue" stroke="midnightblue" points="751.16,-454.87 752.59,-465.37 758.02,-456.27 751.16,-454.87"/>
</g>
<!-- Node25 -->
<g id="node25" class="node">
<title>Node25</title>
<g id="a_node25"><a xlink:href="class_black_gui_1_1_editors_1_1_c_pilot_form.html" target="_top" xlink:title="Pilot form (name, homebase)">
<polygon fill="none" stroke="black" points="854,-196.5 854,-226.5 960,-226.5 960,-196.5 854,-196.5"/>
<text text-anchor="start" x="862" y="-214.5" font-family="Helvetica,sans-Serif" font-size="10.00">BlackGui::Editors::</text>
<text text-anchor="middle" x="907" y="-203.5" font-family="Helvetica,sans-Serif" font-size="10.00">CPilotForm</text>
</a>
</g>
</g>
<!-- Node1&#45;&gt;Node25 -->
<g id="edge24" class="edge">
<title>Node1&#45;&gt;Node25</title>
<path fill="none" stroke="midnightblue" d="M752.02,-455.46C757.29,-406.49 775.73,-297.42 838,-235.5 842.53,-231 847.95,-227.34 853.73,-224.36"/>
<polygon fill="midnightblue" stroke="midnightblue" points="748.53,-455.2 751.04,-465.49 755.5,-455.88 748.53,-455.2"/>
</g>
<!-- Node26 -->
<g id="node26" class="node">
<title>Node26</title>
<g id="a_node26"><a xlink:href="class_black_gui_1_1_editors_1_1_c_relative_aircraft_position.html" target="_top" xlink:title="Position relative to other aircraft.">
<polygon fill="none" stroke="black" points="838,-147.5 838,-177.5 976,-177.5 976,-147.5 838,-147.5"/>
<text text-anchor="start" x="846" y="-165.5" font-family="Helvetica,sans-Serif" font-size="10.00">BlackGui::Editors::</text>
<text text-anchor="middle" x="907" y="-154.5" font-family="Helvetica,sans-Serif" font-size="10.00">CRelativeAircraftPosition</text>
</a>
</g>
</g>
<!-- Node1&#45;&gt;Node26 -->
<g id="edge25" class="edge">
<title>Node1&#45;&gt;Node26</title>
<path fill="none" stroke="midnightblue" d="M750.25,-455.26C752.17,-399.27 764.61,-263.53 838,-186.5 841.28,-183.06 845.09,-180.1 849.19,-177.58"/>
<polygon fill="midnightblue" stroke="midnightblue" points="746.75,-455.27 749.99,-465.36 753.74,-455.45 746.75,-455.27"/>
</g>
<!-- Node27 -->
<g id="node27" class="node">
<title>Node27</title>
<g id="a_node27"><a xlink:href="class_black_gui_1_1_editors_1_1_c_server_form.html" target="_top" xlink:title="Server form.">
<polygon fill="none" stroke="black" points="854,-98.5 854,-128.5 960,-128.5 960,-98.5 854,-98.5"/>
<text text-anchor="start" x="862" y="-116.5" font-family="Helvetica,sans-Serif" font-size="10.00">BlackGui::Editors::</text>
<text text-anchor="middle" x="907" y="-105.5" font-family="Helvetica,sans-Serif" font-size="10.00">CServerForm</text>
</a>
</g>
</g>
<!-- Node1&#45;&gt;Node27 -->
<g id="edge26" class="edge">
<title>Node1&#45;&gt;Node27</title>
<path fill="none" stroke="midnightblue" d="M753.38,-455.16C763.33,-384.09 794.56,-184.95 838,-137.5 842.48,-132.61 848.02,-128.71 853.99,-125.61"/>
<polygon fill="midnightblue" stroke="midnightblue" points="749.86,-455.04 751.97,-465.43 756.8,-456 749.86,-455.04"/>
</g>
<!-- Node28 -->
<g id="node28" class="node">
<title>Node28</title>
<g id="a_node28"><a xlink:href="class_black_gui_1_1_editors_1_1_c_situation_form.html" target="_top" xlink:title="Selector / entry.">
<polygon fill="none" stroke="black" points="854,-49.5 854,-79.5 960,-79.5 960,-49.5 854,-49.5"/>
<text text-anchor="start" x="862" y="-67.5" font-family="Helvetica,sans-Serif" font-size="10.00">BlackGui::Editors::</text>
<text text-anchor="middle" x="907" y="-56.5" font-family="Helvetica,sans-Serif" font-size="10.00">CSituationForm</text>
</a>
</g>
</g>
<!-- Node1&#45;&gt;Node28 -->
<g id="edge27" class="edge">
<title>Node1&#45;&gt;Node28</title>
<path fill="none" stroke="midnightblue" d="M752.55,-454.72C760.76,-376.49 788.89,-143.8 838,-88.5 842.41,-83.54 847.9,-79.6 853.85,-76.48"/>
<polygon fill="midnightblue" stroke="midnightblue" points="749.02,-454.79 751.48,-465.1 755.98,-455.51 749.02,-454.79"/>
</g>
<!-- Node29 -->
<g id="node29" class="node">
<title>Node29</title>
<g id="a_node29"><a xlink:href="class_black_gui_1_1_editors_1_1_c_voice_setup_form.html" target="_top" xlink:title="Voice form.">
<polygon fill="none" stroke="black" points="854,-0.5 854,-30.5 960,-30.5 960,-0.5 854,-0.5"/>
<text text-anchor="start" x="862" y="-18.5" font-family="Helvetica,sans-Serif" font-size="10.00">BlackGui::Editors::</text>
<text text-anchor="middle" x="907" y="-7.5" font-family="Helvetica,sans-Serif" font-size="10.00">CVoiceSetupForm</text>
</a>
</g>
</g>
<!-- Node1&#45;&gt;Node29 -->
<g id="edge28" class="edge">
<title>Node1&#45;&gt;Node29</title>
<path fill="none" stroke="midnightblue" d="M751.83,-454.9C758.35,-370.5 783.06,-102.87 838,-39.5 842.35,-34.49 847.81,-30.52 853.74,-27.38"/>
<polygon fill="midnightblue" stroke="midnightblue" points="748.32,-454.89 751.06,-465.12 755.3,-455.41 748.32,-454.89"/>
</g>
<!-- Node2 -->
<g id="node2" class="node">
<title>Node2</title>
<g id="a_node2"><a xlink:href="class_black_gui_1_1_c_overlay_messages_frame.html" target="_top" xlink:title="Using this class provides a QFrame with the overlay functionality already integrated.">
<polygon fill="none" stroke="black" points="500,-465.5 500,-495.5 660,-495.5 660,-465.5 500,-465.5"/>
<text text-anchor="start" x="508" y="-483.5" font-family="Helvetica,sans-Serif" font-size="10.00">BlackGui::COverlayMessages</text>
<text text-anchor="middle" x="580" y="-472.5" font-family="Helvetica,sans-Serif" font-size="10.00">Frame</text>
</a>
</g>
</g>
<!-- Node2&#45;&gt;Node1 -->
<g id="edge1" class="edge">
<title>Node2&#45;&gt;Node1</title>
<path fill="none" stroke="midnightblue" d="M670.35,-480.5C679.07,-480.5 687.7,-480.5 695.86,-480.5"/>
<polygon fill="midnightblue" stroke="midnightblue" points="670.1,-477 660.1,-480.5 670.1,-484 670.1,-477"/>
</g>
<!-- Node3 -->
<g id="node3" class="node">
<title>Node3</title>
<g id="a_node3"><a xlink:href="class_black_gui_1_1_c_overlay_messages_base.html" target="_top" xlink:title=" ">
<polygon fill="none" stroke="black" points="304,-465.5 304,-495.5 464,-495.5 464,-465.5 304,-465.5"/>
<text text-anchor="start" x="312" y="-483.5" font-family="Helvetica,sans-Serif" font-size="10.00">BlackGui::COverlayMessages</text>
<text text-anchor="middle" x="384" y="-472.5" font-family="Helvetica,sans-Serif" font-size="10.00">Base&lt; QFrame &gt;</text>
</a>
</g>
</g>
<!-- Node3&#45;&gt;Node2 -->
<g id="edge2" class="edge">
<title>Node3&#45;&gt;Node2</title>
<path fill="none" stroke="midnightblue" d="M474.44,-480.5C482.88,-480.5 491.41,-480.5 499.75,-480.5"/>
<polygon fill="midnightblue" stroke="midnightblue" points="474.19,-477 464.19,-480.5 474.19,-484 474.19,-477"/>
</g>
<!-- Node4 -->
<g id="node4" class="node">
<title>Node4</title>
<g id="a_node4"><a target="_parent" xlink:href="http://doc.qt.io/qt-5/qframe.html" xlink:title=" ">
<polygon fill="none" stroke="black" points="213,-471 213,-490 268,-490 268,-471 213,-471"/>
<text text-anchor="middle" x="240.5" y="-478" font-family="Helvetica,sans-Serif" font-size="10.00">QFrame</text>
</a>
</g>
</g>
<!-- Node4&#45;&gt;Node3 -->
<g id="edge3" class="edge">
<title>Node4&#45;&gt;Node3</title>
<path fill="none" stroke="midnightblue" d="M278.17,-480.5C286.19,-480.5 294.98,-480.5 303.95,-480.5"/>
<polygon fill="midnightblue" stroke="midnightblue" points="278.12,-477 268.12,-480.5 278.12,-484 278.12,-477"/>
</g>
<!-- Node5 -->
<g id="node5" class="node">
<title>Node5</title>
<g id="a_node5"><a target="_parent" xlink:href="http://doc.qt.io/qt-5/qwidget.html" xlink:title=" ">
<polygon fill="none" stroke="black" points="118,-471 118,-490 177,-490 177,-471 118,-471"/>
<text text-anchor="middle" x="147.5" y="-478" font-family="Helvetica,sans-Serif" font-size="10.00">QWidget</text>
</a>
</g>
</g>
<!-- Node5&#45;&gt;Node4 -->
<g id="edge4" class="edge">
<title>Node5&#45;&gt;Node4</title>
<path fill="none" stroke="midnightblue" d="M187.46,-480.5C195.99,-480.5 204.83,-480.5 212.75,-480.5"/>
<polygon fill="midnightblue" stroke="midnightblue" points="187.29,-477 177.29,-480.5 187.29,-484 187.29,-477"/>
</g>
<!-- Node6 -->
<g id="node6" class="node">
<title>Node6</title>
<g id="a_node6"><a target="_parent" xlink:href="http://doc.qt.io/qt-5/qobject.html" xlink:title=" ">
<polygon fill="none" stroke="black" points="13,-490 13,-509 69,-509 69,-490 13,-490"/>
<text text-anchor="middle" x="41" y="-497" font-family="Helvetica,sans-Serif" font-size="10.00">QObject</text>
</a>
</g>
</g>
<!-- Node6&#45;&gt;Node5 -->
<g id="edge5" class="edge">
<title>Node6&#45;&gt;Node5</title>
<path fill="none" stroke="midnightblue" d="M79.09,-492.76C91.88,-490.43 106,-487.86 117.99,-485.68"/>
<polygon fill="midnightblue" stroke="midnightblue" points="78.4,-489.33 69.18,-494.56 79.65,-496.21 78.4,-489.33"/>
</g>
<!-- Node7 -->
<g id="node7" class="node">
<title>Node7</title>
<g id="a_node7"><a target="_parent" xlink:href="http://doc.qt.io/qt-5/qpaintdevice.html" xlink:title=" ">
<polygon fill="none" stroke="black" points="0,-452 0,-471 82,-471 82,-452 0,-452"/>
<text text-anchor="middle" x="41" y="-459" font-family="Helvetica,sans-Serif" font-size="10.00">QPaintDevice</text>
</a>
</g>
</g>
<!-- Node7&#45;&gt;Node5 -->
<g id="edge6" class="edge">
<title>Node7&#45;&gt;Node5</title>
<path fill="none" stroke="midnightblue" d="M91.97,-470.59C100.8,-472.19 109.71,-473.81 117.69,-475.26"/>
<polygon fill="midnightblue" stroke="midnightblue" points="92.57,-467.14 82.1,-468.79 91.32,-474.02 92.57,-467.14"/>
</g>
<!-- Node16 -->
<g id="node16" class="node">
<title>Node16</title>
<g id="a_node16"><a xlink:href="class_black_gui_1_1_editors_1_1_c_model_mapping_form.html" target="_top" xlink:title="Model mapping form.">
<polygon fill="none" stroke="black" points="1028.5,-612.5 1028.5,-642.5 1148.5,-642.5 1148.5,-612.5 1028.5,-612.5"/>
<text text-anchor="start" x="1036.5" y="-630.5" font-family="Helvetica,sans-Serif" font-size="10.00">BlackGui::Editors::</text>
<text text-anchor="middle" x="1088.5" y="-619.5" font-family="Helvetica,sans-Serif" font-size="10.00">CModelMappingForm</text>
</a>
</g>
</g>
<!-- Node15&#45;&gt;Node16 -->
<g id="edge15" class="edge">
<title>Node15&#45;&gt;Node16</title>
<path fill="none" stroke="midnightblue" d="M970.36,-611.84C989.19,-614.36 1009.8,-617.11 1028.41,-619.6"/>
<polygon fill="midnightblue" stroke="midnightblue" points="970.78,-608.36 960.4,-610.51 969.85,-615.3 970.78,-608.36"/>
</g>
<!-- Node17 -->
<g id="node17" class="node">
<title>Node17</title>
<g id="a_node17"><a xlink:href="class_black_gui_1_1_editors_1_1_c_model_mapping_modify_form.html" target="_top" xlink:title="Allows to modify individual fields of the model form.">
<polygon fill="none" stroke="black" points="1012,-563.5 1012,-593.5 1165,-593.5 1165,-563.5 1012,-563.5"/>
<text text-anchor="start" x="1020" y="-581.5" font-family="Helvetica,sans-Serif" font-size="10.00">BlackGui::Editors::</text>
<text text-anchor="middle" x="1088.5" y="-570.5" font-family="Helvetica,sans-Serif" font-size="10.00">CModelMappingModifyForm</text>
</a>
</g>
</g>
<!-- Node15&#45;&gt;Node17 -->
<g id="edge16" class="edge">
<title>Node15&#45;&gt;Node17</title>
<path fill="none" stroke="midnightblue" d="M970.39,-594.81C983.71,-592.95 997.93,-590.98 1011.69,-589.06"/>
<polygon fill="midnightblue" stroke="midnightblue" points="969.82,-591.36 960.4,-596.2 970.79,-598.29 969.82,-591.36"/>
</g>
</g>
</svg>
