<?xml version="1.0" encoding="UTF-8" standalone="no"?>
<!DOCTYPE svg PUBLIC "-//W3C//DTD SVG 1.1//EN"
 "http://www.w3.org/Graphics/SVG/1.1/DTD/svg11.dtd">
<!-- Generated by graphviz version 2.43.0 (0)
 -->
<!-- Title: BlackMisc::SharedState::CPassiveObserver Pages: 1 -->
<svg width="218pt" height="173pt"
 viewBox="0.00 0.00 218.00 173.00" xmlns="http://www.w3.org/2000/svg" xmlns:xlink="http://www.w3.org/1999/xlink">
<g id="graph0" class="graph" transform="scale(1 1) rotate(0) translate(4 169)">
<title>BlackMisc::SharedState::CPassiveObserver</title>
<!-- Node1 -->
<g id="node1" class="node">
<title>Node1</title>
<g id="a_node1"><a xlink:title="Endpoint which can subscribe to events emitted by CPassiveMutator.">
<polygon fill="#bfbfbf" stroke="black" points="19.5,-67.5 19.5,-97.5 150.5,-97.5 150.5,-67.5 19.5,-67.5"/>
<text text-anchor="start" x="27.5" y="-85.5" font-family="Helvetica,sans-Serif" font-size="10.00">BlackMisc::SharedState</text>
<text text-anchor="middle" x="85" y="-74.5" font-family="Helvetica,sans-Serif" font-size="10.00">::CPassiveObserver</text>
</a>
</g>
</g>
<!-- Node4 -->
<g id="node4" class="node">
<title>Node4</title>
<g id="a_node4"><a xlink:href="class_black_misc_1_1_shared_state_1_1_c_active_observer.html" target="_top" xlink:title="Extends CPassiveObserver with the ability to send requests and receive replies.">
<polygon fill="none" stroke="black" points="19.5,-0.5 19.5,-30.5 150.5,-30.5 150.5,-0.5 19.5,-0.5"/>
<text text-anchor="start" x="27.5" y="-18.5" font-family="Helvetica,sans-Serif" font-size="10.00">BlackMisc::SharedState</text>
<text text-anchor="middle" x="85" y="-7.5" font-family="Helvetica,sans-Serif" font-size="10.00">::CActiveObserver</text>
</a>
</g>
</g>
<!-- Node1&#45;&gt;Node4 -->
<g id="edge3" class="edge">
<title>Node1&#45;&gt;Node4</title>
<path fill="none" stroke="midnightblue" d="M85,-57.11C85,-48.15 85,-38.32 85,-30.58"/>
<polygon fill="midnightblue" stroke="midnightblue" points="81.5,-57.4 85,-67.4 88.5,-57.4 81.5,-57.4"/>
</g>
<!-- Node2 -->
<g id="node2" class="node">
<title>Node2</title>
<g id="a_node2"><a target="_parent" xlink:href="http://doc.qt.io/qt-5/qobject.html" xlink:title=" ">
<polygon fill="none" stroke="black" points="0,-140 0,-159 56,-159 56,-140 0,-140"/>
<text text-anchor="middle" x="28" y="-147" font-family="Helvetica,sans-Serif" font-size="10.00">QObject</text>
</a>
</g>
</g>
<!-- Node2&#45;&gt;Node1 -->
<g id="edge1" class="edge">
<title>Node2&#45;&gt;Node1</title>
<path fill="none" stroke="midnightblue" d="M42.48,-131.99C51.8,-121.36 63.78,-107.7 72.65,-97.59"/>
<polygon fill="midnightblue" stroke="midnightblue" points="39.65,-129.91 35.69,-139.73 44.91,-134.52 39.65,-129.91"/>
</g>
<!-- Node3 -->
<g id="node3" class="node">
<title>Node3</title>
<g id="a_node3"><a target="_parent" xlink:href="http://doc.qt.io/qt-5/qenablesharedfromthis.html" xlink:title=" ">
<polygon fill="none" stroke="black" points="74,-134.5 74,-164.5 210,-164.5 210,-134.5 74,-134.5"/>
<text text-anchor="start" x="82" y="-152.5" font-family="Helvetica,sans-Serif" font-size="10.00">QEnableSharedFromThis</text>
<text text-anchor="middle" x="142" y="-141.5" font-family="Helvetica,sans-Serif" font-size="10.00">&lt; CPassiveObserver &gt;</text>
</a>
</g>
</g>
<!-- Node3&#45;&gt;Node1 -->
<g id="edge2" class="edge">
<title>Node3&#45;&gt;Node1</title>
<path fill="none" stroke="midnightblue" d="M122.91,-126.74C114.48,-117.12 104.81,-106.09 97.34,-97.58"/>
<polygon fill="midnightblue" stroke="midnightblue" points="120.41,-129.18 129.63,-134.4 125.67,-124.57 120.41,-129.18"/>
</g>
</g>
</svg>
