<?xml version="1.0" encoding="UTF-8" standalone="no"?>
<!DOCTYPE svg PUBLIC "-//W3C//DTD SVG 1.1//EN"
 "http://www.w3.org/Graphics/SVG/1.1/DTD/svg11.dtd">
<!-- Generated by graphviz version 2.43.0 (0)
 -->
<!-- Title: BlackMisc::Simulation::CInterpolatorLinear Pages: 1 -->
<svg width="774pt" height="137pt"
 viewBox="0.00 0.00 774.00 137.00" xmlns="http://www.w3.org/2000/svg" xmlns:xlink="http://www.w3.org/1999/xlink">
<g id="graph0" class="graph" transform="scale(1 1) rotate(0) translate(4 133)">
<title>BlackMisc::Simulation::CInterpolatorLinear</title>
<!-- Node1 -->
<g id="node1" class="node">
<title>Node1</title>
<g id="a_node1"><a xlink:title="Linear interpolator, calculation inbetween positions.">
<polygon fill="#bfbfbf" stroke="black" points="641,-49.5 641,-79.5 766,-79.5 766,-49.5 641,-49.5"/>
<text text-anchor="start" x="649" y="-67.5" font-family="Helvetica,sans-Serif" font-size="10.00">BlackMisc::Simulation</text>
<text text-anchor="middle" x="703.5" y="-56.5" font-family="Helvetica,sans-Serif" font-size="10.00">::CInterpolatorLinear</text>
</a>
</g>
</g>
<!-- Node2 -->
<g id="node2" class="node">
<title>Node2</title>
<g id="a_node2"><a xlink:href="class_black_misc_1_1_simulation_1_1_c_interpolator.html" target="_top" xlink:title=" ">
<polygon fill="none" stroke="black" points="444,-44 444,-85 605,-85 605,-44 444,-44"/>
<text text-anchor="start" x="452" y="-73" font-family="Helvetica,sans-Serif" font-size="10.00">BlackMisc::Simulation</text>
<text text-anchor="start" x="452" y="-62" font-family="Helvetica,sans-Serif" font-size="10.00">::CInterpolator&lt; CInterpolator</text>
<text text-anchor="middle" x="524.5" y="-51" font-family="Helvetica,sans-Serif" font-size="10.00">Linear &gt;</text>
</a>
</g>
</g>
<!-- Node2&#45;&gt;Node1 -->
<g id="edge1" class="edge">
<title>Node2&#45;&gt;Node1</title>
<path fill="none" stroke="midnightblue" d="M615.29,-64.5C623.9,-64.5 632.5,-64.5 640.75,-64.5"/>
<polygon fill="midnightblue" stroke="midnightblue" points="615.2,-61 605.2,-64.5 615.2,-68 615.2,-61"/>
</g>
<!-- Node3 -->
<g id="node3" class="node">
<title>Node3</title>
<g id="a_node3"><a xlink:href="class_black_misc_1_1_simulation_1_1_c_simulation_environment_aware.html" target="_top" xlink:title="Class which can be directly used to access an.">
<polygon fill="none" stroke="black" points="233,-98.5 233,-128.5 408,-128.5 408,-98.5 233,-98.5"/>
<text text-anchor="start" x="241" y="-116.5" font-family="Helvetica,sans-Serif" font-size="10.00">BlackMisc::Simulation</text>
<text text-anchor="middle" x="320.5" y="-105.5" font-family="Helvetica,sans-Serif" font-size="10.00">::CSimulationEnvironmentAware</text>
</a>
</g>
</g>
<!-- Node3&#45;&gt;Node2 -->
<g id="edge2" class="edge">
<title>Node3&#45;&gt;Node2</title>
<path fill="none" stroke="darkgreen" d="M393.46,-96.04C409.75,-92.09 427.14,-87.87 443.73,-83.85"/>
<polygon fill="darkgreen" stroke="darkgreen" points="392.37,-92.71 383.48,-98.47 394.02,-99.51 392.37,-92.71"/>
</g>
<!-- Node4 -->
<g id="node4" class="node">
<title>Node4</title>
<g id="a_node4"><a xlink:href="class_black_misc_1_1_i_provider_aware.html" target="_top" xlink:title=" ">
<polygon fill="none" stroke="black" points="0,-98.5 0,-128.5 197,-128.5 197,-98.5 0,-98.5"/>
<text text-anchor="start" x="8" y="-116.5" font-family="Helvetica,sans-Serif" font-size="10.00">BlackMisc::IProviderAware</text>
<text text-anchor="middle" x="98.5" y="-105.5" font-family="Helvetica,sans-Serif" font-size="10.00">&lt; ISimulationEnvironmentProvider &gt;</text>
</a>
</g>
</g>
<!-- Node4&#45;&gt;Node3 -->
<g id="edge3" class="edge">
<title>Node4&#45;&gt;Node3</title>
<path fill="none" stroke="midnightblue" d="M207.28,-113.5C215.82,-113.5 224.38,-113.5 232.75,-113.5"/>
<polygon fill="midnightblue" stroke="midnightblue" points="207.28,-110 197.28,-113.5 207.28,-117 207.28,-110"/>
</g>
<!-- Node5 -->
<g id="node5" class="node">
<title>Node5</title>
<g id="a_node5"><a xlink:href="class_black_misc_1_1_simulation_1_1_c_interpolation_setup_aware.html" target="_top" xlink:title="Class which can be directly used to access an.">
<polygon fill="none" stroke="black" points="245.5,-49.5 245.5,-79.5 395.5,-79.5 395.5,-49.5 245.5,-49.5"/>
<text text-anchor="start" x="253.5" y="-67.5" font-family="Helvetica,sans-Serif" font-size="10.00">BlackMisc::Simulation</text>
<text text-anchor="middle" x="320.5" y="-56.5" font-family="Helvetica,sans-Serif" font-size="10.00">::CInterpolationSetupAware</text>
</a>
</g>
</g>
<!-- Node5&#45;&gt;Node2 -->
<g id="edge4" class="edge">
<title>Node5&#45;&gt;Node2</title>
<path fill="none" stroke="darkgreen" d="M405.66,-64.5C418.35,-64.5 431.41,-64.5 444,-64.5"/>
<polygon fill="darkgreen" stroke="darkgreen" points="405.57,-61 395.57,-64.5 405.57,-68 405.57,-61"/>
</g>
<!-- Node6 -->
<g id="node6" class="node">
<title>Node6</title>
<g id="a_node6"><a xlink:href="class_black_misc_1_1_i_provider_aware.html" target="_top" xlink:title=" ">
<polygon fill="none" stroke="black" points="12,-49.5 12,-79.5 185,-79.5 185,-49.5 12,-49.5"/>
<text text-anchor="start" x="20" y="-67.5" font-family="Helvetica,sans-Serif" font-size="10.00">BlackMisc::IProviderAware</text>
<text text-anchor="middle" x="98.5" y="-56.5" font-family="Helvetica,sans-Serif" font-size="10.00">&lt; IInterpolationSetupProvider &gt;</text>
</a>
</g>
</g>
<!-- Node6&#45;&gt;Node5 -->
<g id="edge5" class="edge">
<title>Node6&#45;&gt;Node5</title>
<path fill="none" stroke="midnightblue" d="M195.54,-64.5C212.27,-64.5 229.45,-64.5 245.48,-64.5"/>
<polygon fill="midnightblue" stroke="midnightblue" points="195.19,-61 185.19,-64.5 195.19,-68 195.19,-61"/>
</g>
<!-- Node7 -->
<g id="node7" class="node">
<title>Node7</title>
<g id="a_node7"><a xlink:href="class_black_misc_1_1_simulation_1_1_c_remote_aircraft_aware.html" target="_top" xlink:title="Class which can be directly used to access an.">
<polygon fill="none" stroke="black" points="253.5,-0.5 253.5,-30.5 387.5,-30.5 387.5,-0.5 253.5,-0.5"/>
<text text-anchor="start" x="261.5" y="-18.5" font-family="Helvetica,sans-Serif" font-size="10.00">BlackMisc::Simulation</text>
<text text-anchor="middle" x="320.5" y="-7.5" font-family="Helvetica,sans-Serif" font-size="10.00">::CRemoteAircraftAware</text>
</a>
</g>
</g>
<!-- Node7&#45;&gt;Node2 -->
<g id="edge6" class="edge">
<title>Node7&#45;&gt;Node2</title>
<path fill="none" stroke="darkgreen" d="M393.46,-32.96C409.75,-36.91 427.14,-41.13 443.73,-45.15"/>
<polygon fill="darkgreen" stroke="darkgreen" points="394.02,-29.49 383.48,-30.53 392.37,-36.29 394.02,-29.49"/>
</g>
<!-- Node8 -->
<g id="node8" class="node">
<title>Node8</title>
<g id="a_node8"><a xlink:href="class_black_misc_1_1_i_provider_aware.html" target="_top" xlink:title=" ">
<polygon fill="none" stroke="black" points="20.5,-0.5 20.5,-30.5 176.5,-30.5 176.5,-0.5 20.5,-0.5"/>
<text text-anchor="start" x="28.5" y="-18.5" font-family="Helvetica,sans-Serif" font-size="10.00">BlackMisc::IProviderAware</text>
<text text-anchor="middle" x="98.5" y="-7.5" font-family="Helvetica,sans-Serif" font-size="10.00">&lt; IRemoteAircraftProvider &gt;</text>
</a>
</g>
</g>
<!-- Node8&#45;&gt;Node7 -->
<g id="edge7" class="edge">
<title>Node8&#45;&gt;Node7</title>
<path fill="none" stroke="midnightblue" d="M186.84,-15.5C209.01,-15.5 232.46,-15.5 253.38,-15.5"/>
<polygon fill="midnightblue" stroke="midnightblue" points="186.75,-12 176.75,-15.5 186.75,-19 186.75,-12"/>
</g>
</g>
</svg>
