<?xml version="1.0" encoding="UTF-8" standalone="no"?>
<!DOCTYPE svg PUBLIC "-//W3C//DTD SVG 1.1//EN"
 "http://www.w3.org/Graphics/SVG/1.1/DTD/svg11.dtd">
<!-- Generated by graphviz version 2.43.0 (0)
 -->
<!-- Title: BlackMisc::Aviation::CAirportList Pages: 1 -->
<svg width="733pt" height="393pt"
 viewBox="0.00 0.00 733.00 393.00" xmlns="http://www.w3.org/2000/svg" xmlns:xlink="http://www.w3.org/1999/xlink">
<g id="graph0" class="graph" transform="scale(1 1) rotate(0) translate(4 389)">
<title>BlackMisc::Aviation::CAirportList</title>
<!-- Node1 -->
<g id="node1" class="node">
<title>Node1</title>
<g id="a_node1"><a xlink:title="Value object for a list of airports.">
<polygon fill="#bfbfbf" stroke="black" points="613,-85.5 613,-115.5 725,-115.5 725,-85.5 613,-85.5"/>
<text text-anchor="start" x="621" y="-103.5" font-family="Helvetica,sans-Serif" font-size="10.00">BlackMisc::Aviation</text>
<text text-anchor="middle" x="669" y="-92.5" font-family="Helvetica,sans-Serif" font-size="10.00">::CAirportList</text>
</a>
</g>
</g>
<!-- Node2 -->
<g id="node2" class="node">
<title>Node2</title>
<g id="a_node2"><a xlink:href="class_black_misc_1_1_c_sequence.html" target="_top" xlink:title=" ">
<polygon fill="none" stroke="black" points="433,-189.5 433,-219.5 559,-219.5 559,-189.5 433,-189.5"/>
<text text-anchor="start" x="441" y="-207.5" font-family="Helvetica,sans-Serif" font-size="10.00">BlackMisc::CSequence</text>
<text text-anchor="middle" x="496" y="-196.5" font-family="Helvetica,sans-Serif" font-size="10.00">&lt; CAirport &gt;</text>
</a>
</g>
</g>
<!-- Node2&#45;&gt;Node1 -->
<g id="edge1" class="edge">
<title>Node2&#45;&gt;Node1</title>
<path fill="none" stroke="midnightblue" d="M534.82,-184.5C548.27,-177.18 563.44,-168.68 577,-160.5 601.14,-145.93 628.01,-128 646.25,-115.55"/>
<polygon fill="midnightblue" stroke="midnightblue" points="532.96,-181.53 525.83,-189.37 536.29,-187.69 532.96,-181.53"/>
</g>
<!-- Node3 -->
<g id="node3" class="node">
<title>Node3</title>
<g id="a_node3"><a xlink:href="class_black_misc_1_1_c_container_base.html" target="_top" xlink:title="Base class for CCollection and CSequence adding mutating operations and CValueObject facility on top ...">
<polygon fill="none" stroke="black" points="222,-256.5 222,-286.5 372,-286.5 372,-256.5 222,-256.5"/>
<text text-anchor="start" x="230" y="-274.5" font-family="Helvetica,sans-Serif" font-size="10.00">BlackMisc::CContainerBase</text>
<text text-anchor="middle" x="297" y="-263.5" font-family="Helvetica,sans-Serif" font-size="10.00">&lt; Derived &gt;</text>
</a>
</g>
</g>
<!-- Node3&#45;&gt;Node2 -->
<g id="edge2" class="edge">
<title>Node3&#45;&gt;Node2</title>
<path fill="none" stroke="midnightblue" d="M360.64,-253.4C366.86,-251.46 373.06,-249.48 379,-247.5 404.98,-238.85 433.86,-228.15 456.3,-219.58"/>
<polygon fill="midnightblue" stroke="midnightblue" points="359.42,-250.11 350.88,-256.39 361.47,-256.8 359.42,-250.11"/>
</g>
<!-- Node4 -->
<g id="node4" class="node">
<title>Node4</title>
<g id="a_node4"><a xlink:href="class_black_misc_1_1_c_range_base.html" target="_top" xlink:title="Any container class with begin and end iterators can inherit from this CRTP class to gain some useful...">
<polygon fill="none" stroke="black" points="22.5,-354.5 22.5,-384.5 156.5,-384.5 156.5,-354.5 22.5,-354.5"/>
<text text-anchor="start" x="30.5" y="-372.5" font-family="Helvetica,sans-Serif" font-size="10.00">BlackMisc::CRangeBase</text>
<text text-anchor="middle" x="89.5" y="-361.5" font-family="Helvetica,sans-Serif" font-size="10.00">&lt; Derived &gt;</text>
</a>
</g>
</g>
<!-- Node4&#45;&gt;Node3 -->
<g id="edge3" class="edge">
<title>Node4&#45;&gt;Node3</title>
<path fill="none" stroke="midnightblue" d="M164.63,-351.19C169.55,-349.43 174.38,-347.53 179,-345.5 215.52,-329.44 253.87,-303.09 276.33,-286.55"/>
<polygon fill="midnightblue" stroke="midnightblue" points="163.44,-347.9 155.09,-354.42 165.69,-354.53 163.44,-347.9"/>
</g>
<!-- Node5 -->
<g id="node5" class="node">
<title>Node5</title>
<g id="a_node5"><a xlink:href="class_black_misc_1_1_mixin_1_1_meta_type.html" target="_top" xlink:title="CRTP class template from which a derived class can inherit common methods dealing with the metatype o...">
<polygon fill="none" stroke="black" points="13.5,-305.5 13.5,-335.5 165.5,-335.5 165.5,-305.5 13.5,-305.5"/>
<text text-anchor="start" x="21.5" y="-323.5" font-family="Helvetica,sans-Serif" font-size="10.00">BlackMisc::Mixin::MetaType</text>
<text text-anchor="middle" x="89.5" y="-312.5" font-family="Helvetica,sans-Serif" font-size="10.00">&lt; Derived &gt;</text>
</a>
</g>
</g>
<!-- Node5&#45;&gt;Node3 -->
<g id="edge4" class="edge">
<title>Node5&#45;&gt;Node3</title>
<path fill="none" stroke="midnightblue" d="M163.49,-303.1C186.22,-297.68 211.08,-291.75 233.07,-286.51"/>
<polygon fill="midnightblue" stroke="midnightblue" points="162.47,-299.74 153.55,-305.47 164.09,-306.55 162.47,-299.74"/>
</g>
<!-- Node6 -->
<g id="node6" class="node">
<title>Node6</title>
<g id="a_node6"><a xlink:href="class_black_misc_1_1_mixin_1_1_d_bus_operators.html" target="_top" xlink:title=" ">
<polygon fill="none" stroke="black" points="0,-256.5 0,-286.5 179,-286.5 179,-256.5 0,-256.5"/>
<text text-anchor="start" x="8" y="-274.5" font-family="Helvetica,sans-Serif" font-size="10.00">BlackMisc::Mixin::DBusOperators</text>
<text text-anchor="middle" x="89.5" y="-263.5" font-family="Helvetica,sans-Serif" font-size="10.00">&lt; Derived &gt;</text>
</a>
</g>
</g>
<!-- Node6&#45;&gt;Node3 -->
<g id="edge5" class="edge">
<title>Node6&#45;&gt;Node3</title>
<path fill="none" stroke="midnightblue" d="M189.19,-271.5C200.17,-271.5 211.22,-271.5 221.82,-271.5"/>
<polygon fill="midnightblue" stroke="midnightblue" points="189.14,-268 179.14,-271.5 189.14,-275 189.14,-268"/>
</g>
<!-- Node7 -->
<g id="node7" class="node">
<title>Node7</title>
<g id="a_node7"><a xlink:href="class_black_misc_1_1_mixin_1_1_json_operators.html" target="_top" xlink:title="CRTP class template which will generate marshalling operators for a derived class with its own marsha...">
<polygon fill="none" stroke="black" points="3,-207.5 3,-237.5 176,-237.5 176,-207.5 3,-207.5"/>
<text text-anchor="start" x="11" y="-225.5" font-family="Helvetica,sans-Serif" font-size="10.00">BlackMisc::Mixin::JsonOperators</text>
<text text-anchor="middle" x="89.5" y="-214.5" font-family="Helvetica,sans-Serif" font-size="10.00">&lt; Derived &gt;</text>
</a>
</g>
</g>
<!-- Node7&#45;&gt;Node3 -->
<g id="edge6" class="edge">
<title>Node7&#45;&gt;Node3</title>
<path fill="none" stroke="midnightblue" d="M163.49,-239.9C186.22,-245.32 211.08,-251.25 233.07,-256.49"/>
<polygon fill="midnightblue" stroke="midnightblue" points="164.09,-236.45 153.55,-237.53 162.47,-243.26 164.09,-236.45"/>
</g>
<!-- Node8 -->
<g id="node8" class="node">
<title>Node8</title>
<g id="a_node8"><a xlink:href="class_black_misc_1_1_mixin_1_1_string.html" target="_top" xlink:title="CRTP class template from which a derived class can inherit string streaming operations.">
<polygon fill="none" stroke="black" points="22.5,-158.5 22.5,-188.5 156.5,-188.5 156.5,-158.5 22.5,-158.5"/>
<text text-anchor="start" x="30.5" y="-176.5" font-family="Helvetica,sans-Serif" font-size="10.00">BlackMisc::Mixin::String</text>
<text text-anchor="middle" x="89.5" y="-165.5" font-family="Helvetica,sans-Serif" font-size="10.00">&lt; Derived &gt;</text>
</a>
</g>
</g>
<!-- Node8&#45;&gt;Node3 -->
<g id="edge7" class="edge">
<title>Node8&#45;&gt;Node3</title>
<path fill="none" stroke="midnightblue" d="M166.05,-190.98C170.59,-193.2 174.95,-195.69 179,-198.5 201.21,-213.9 192.89,-231.96 215,-247.5 219.92,-250.96 225.34,-253.92 230.98,-256.47"/>
<polygon fill="midnightblue" stroke="midnightblue" points="167.1,-187.62 156.53,-186.81 164.29,-194.03 167.1,-187.62"/>
</g>
<!-- Node9 -->
<g id="node9" class="node">
<title>Node9</title>
<g id="a_node9"><a xlink:href="class_black_misc_1_1_mixin_1_1_data_stream_operators.html" target="_top" xlink:title="CRTP class template to generate non&#45;member QDataStream streaming operators.">
<polygon fill="none" stroke="black" points="215,-207.5 215,-237.5 379,-237.5 379,-207.5 215,-207.5"/>
<text text-anchor="start" x="223" y="-225.5" font-family="Helvetica,sans-Serif" font-size="10.00">BlackMisc::Mixin::DataStream</text>
<text text-anchor="middle" x="297" y="-214.5" font-family="Helvetica,sans-Serif" font-size="10.00">Operators&lt; Derived &gt;</text>
</a>
</g>
</g>
<!-- Node9&#45;&gt;Node2 -->
<g id="edge8" class="edge">
<title>Node9&#45;&gt;Node2</title>
<path fill="none" stroke="midnightblue" d="M389.41,-214.15C404.13,-212.8 419.06,-211.44 432.89,-210.18"/>
<polygon fill="midnightblue" stroke="midnightblue" points="388.9,-210.68 379.26,-215.07 389.54,-217.65 388.9,-210.68"/>
</g>
<!-- Node10 -->
<g id="node10" class="node">
<title>Node10</title>
<g id="a_node10"><a xlink:href="class_black_misc_1_1_mixin_1_1_icon.html" target="_top" xlink:title="CRTP class template from which a derived class can inherit icon&#45;related functions.">
<polygon fill="none" stroke="black" points="231.5,-158.5 231.5,-188.5 362.5,-188.5 362.5,-158.5 231.5,-158.5"/>
<text text-anchor="start" x="239.5" y="-176.5" font-family="Helvetica,sans-Serif" font-size="10.00">BlackMisc::Mixin::Icon</text>
<text text-anchor="middle" x="297" y="-165.5" font-family="Helvetica,sans-Serif" font-size="10.00">&lt; Derived, IconIndex &gt;</text>
</a>
</g>
</g>
<!-- Node10&#45;&gt;Node2 -->
<g id="edge9" class="edge">
<title>Node10&#45;&gt;Node2</title>
<path fill="none" stroke="midnightblue" d="M372.44,-185.21C392.3,-188.34 413.56,-191.68 432.7,-194.7"/>
<polygon fill="midnightblue" stroke="midnightblue" points="372.93,-181.75 362.51,-183.65 371.84,-188.66 372.93,-181.75"/>
</g>
<!-- Node11 -->
<g id="node11" class="node">
<title>Node11</title>
<g id="a_node11"><a xlink:href="class_black_misc_1_1_db_1_1_i_datastore_object_list.html" target="_top" xlink:title=" ">
<polygon fill="none" stroke="black" points="415,-110 415,-151 577,-151 577,-110 415,-110"/>
<text text-anchor="start" x="423" y="-139" font-family="Helvetica,sans-Serif" font-size="10.00">BlackMisc::Db::IDatastore</text>
<text text-anchor="start" x="423" y="-128" font-family="Helvetica,sans-Serif" font-size="10.00">ObjectList&lt; CAirport, CAirport</text>
<text text-anchor="middle" x="496" y="-117" font-family="Helvetica,sans-Serif" font-size="10.00">List, int &gt;</text>
</a>
</g>
</g>
<!-- Node11&#45;&gt;Node1 -->
<g id="edge10" class="edge">
<title>Node11&#45;&gt;Node1</title>
<path fill="none" stroke="midnightblue" d="M587.36,-114.65C595.97,-113.14 604.51,-111.64 612.64,-110.21"/>
<polygon fill="midnightblue" stroke="midnightblue" points="586.49,-111.25 577.24,-116.42 587.7,-118.14 586.49,-111.25"/>
</g>
<!-- Node12 -->
<g id="node12" class="node">
<title>Node12</title>
<g id="a_node12"><a xlink:href="class_black_misc_1_1_i_timestamp_object_list.html" target="_top" xlink:title="List of objects with timestamp. Such objects should implement.">
<polygon fill="none" stroke="black" points="216,-109.5 216,-139.5 378,-139.5 378,-109.5 216,-109.5"/>
<text text-anchor="start" x="224" y="-127.5" font-family="Helvetica,sans-Serif" font-size="10.00">BlackMisc::ITimestampObject</text>
<text text-anchor="middle" x="297" y="-116.5" font-family="Helvetica,sans-Serif" font-size="10.00">List&lt; OBJ, CONTAINER &gt;</text>
</a>
</g>
</g>
<!-- Node12&#45;&gt;Node11 -->
<g id="edge11" class="edge">
<title>Node12&#45;&gt;Node11</title>
<path fill="none" stroke="midnightblue" d="M388.16,-127.25C397.09,-127.52 406.12,-127.79 414.94,-128.06"/>
<polygon fill="midnightblue" stroke="midnightblue" points="388.23,-123.75 378.13,-126.94 388.02,-130.74 388.23,-123.75"/>
</g>
<!-- Node13 -->
<g id="node13" class="node">
<title>Node13</title>
<g id="a_node13"><a xlink:href="class_black_misc_1_1_geo_1_1_i_geo_object_with_relative_position_list.html" target="_top" xlink:title=" ">
<polygon fill="none" stroke="black" points="420,-50 420,-91 572,-91 572,-50 420,-50"/>
<text text-anchor="start" x="428" y="-79" font-family="Helvetica,sans-Serif" font-size="10.00">BlackMisc::Geo::IGeoObject</text>
<text text-anchor="start" x="428" y="-68" font-family="Helvetica,sans-Serif" font-size="10.00">WithRelativePositionList</text>
<text text-anchor="middle" x="496" y="-57" font-family="Helvetica,sans-Serif" font-size="10.00">&lt; CAirport, CAirportList &gt;</text>
</a>
</g>
</g>
<!-- Node13&#45;&gt;Node1 -->
<g id="edge12" class="edge">
<title>Node13&#45;&gt;Node1</title>
<path fill="none" stroke="midnightblue" d="M582.02,-85.42C592.5,-87.25 602.98,-89.09 612.85,-90.82"/>
<polygon fill="midnightblue" stroke="midnightblue" points="582.46,-81.94 572,-83.66 581.25,-88.83 582.46,-81.94"/>
</g>
<!-- Node14 -->
<g id="node14" class="node">
<title>Node14</title>
<g id="a_node14"><a xlink:href="class_black_misc_1_1_geo_1_1_i_geo_object_list.html" target="_top" xlink:title="List of objects with geo coordinates.">
<polygon fill="none" stroke="black" points="221,-55.5 221,-85.5 373,-85.5 373,-55.5 221,-55.5"/>
<text text-anchor="start" x="229" y="-73.5" font-family="Helvetica,sans-Serif" font-size="10.00">BlackMisc::Geo::IGeoObject</text>
<text text-anchor="middle" x="297" y="-62.5" font-family="Helvetica,sans-Serif" font-size="10.00">List&lt; OBJ, CONTAINER &gt;</text>
</a>
</g>
</g>
<!-- Node14&#45;&gt;Node13 -->
<g id="edge13" class="edge">
<title>Node14&#45;&gt;Node13</title>
<path fill="none" stroke="midnightblue" d="M383.2,-70.5C395.39,-70.5 407.86,-70.5 419.84,-70.5"/>
<polygon fill="midnightblue" stroke="midnightblue" points="383.04,-67 373.04,-70.5 383.04,-74 383.04,-67"/>
</g>
<!-- Node15 -->
<g id="node15" class="node">
<title>Node15</title>
<g id="a_node15"><a xlink:href="class_black_misc_1_1_mixin_1_1_meta_type.html" target="_top" xlink:title=" ">
<polygon fill="none" stroke="black" points="420,-0.5 420,-30.5 572,-30.5 572,-0.5 420,-0.5"/>
<text text-anchor="start" x="428" y="-18.5" font-family="Helvetica,sans-Serif" font-size="10.00">BlackMisc::Mixin::MetaType</text>
<text text-anchor="middle" x="496" y="-7.5" font-family="Helvetica,sans-Serif" font-size="10.00">&lt; CAirportList &gt;</text>
</a>
</g>
</g>
<!-- Node15&#45;&gt;Node1 -->
<g id="edge14" class="edge">
<title>Node15&#45;&gt;Node1</title>
<path fill="none" stroke="midnightblue" d="M561.84,-34.04C567.04,-36.04 572.15,-38.2 577,-40.5 603.33,-52.99 630.91,-72.17 648.71,-85.46"/>
<polygon fill="midnightblue" stroke="midnightblue" points="563.02,-30.74 552.43,-30.59 560.62,-37.32 563.02,-30.74"/>
</g>
</g>
</svg>
