<?xml version="1.0" encoding="UTF-8" standalone="no"?>
<!DOCTYPE svg PUBLIC "-//W3C//DTD SVG 1.1//EN"
 "http://www.w3.org/Graphics/SVG/1.1/DTD/svg11.dtd">
<!-- Generated by graphviz version 2.43.0 (0)
 -->
<!-- Title: BlackMisc::Mixin::DBusOperators&lt; Derived,... &gt; Pages: 1 -->
<svg width="1011pt" height="1137pt"
 viewBox="0.00 0.00 1011.00 1136.50" xmlns="http://www.w3.org/2000/svg" xmlns:xlink="http://www.w3.org/1999/xlink">
<g id="graph0" class="graph" transform="scale(1 1) rotate(0) translate(4 1132.5)">
<title>BlackMisc::Mixin::DBusOperators&lt; Derived,... &gt;</title>
<!-- Node1 -->
<g id="node1" class="node">
<title>Node1</title>
<g id="a_node1"><a xlink:title="CRTP class template which will generate marshalling operators for a derived class with its own marsha...">
<polygon fill="#bfbfbf" stroke="black" points="0,-587 0,-617 179,-617 179,-587 0,-587"/>
<text text-anchor="start" x="8" y="-605" font-family="Helvetica,sans-Serif" font-size="10.00">BlackMisc::Mixin::DBusOperators</text>
<text text-anchor="middle" x="89.5" y="-594" font-family="Helvetica,sans-Serif" font-size="10.00">&lt; Derived,... &gt;</text>
</a>
</g>
</g>
<!-- Node2 -->
<g id="node2" class="node">
<title>Node2</title>
<g id="a_node2"><a xlink:href="class_black_misc_1_1_c_container_base.html" target="_top" xlink:title=" ">
<polygon fill="none" stroke="black" points="241.5,-1098 241.5,-1128 391.5,-1128 391.5,-1098 241.5,-1098"/>
<text text-anchor="start" x="249.5" y="-1116" font-family="Helvetica,sans-Serif" font-size="10.00">BlackMisc::CContainerBase</text>
<text text-anchor="middle" x="316.5" y="-1105" font-family="Helvetica,sans-Serif" font-size="10.00">&lt; CCollection&lt; T &gt; &gt;</text>
</a>
</g>
</g>
<!-- Node1&#45;&gt;Node2 -->
<g id="edge1" class="edge">
<title>Node1&#45;&gt;Node2</title>
<path fill="none" stroke="midnightblue" d="M93.52,-627.3C104.81,-717.64 147.38,-1022.45 215,-1089 222.42,-1096.3 231.63,-1101.52 241.45,-1105.24"/>
<polygon fill="midnightblue" stroke="midnightblue" points="96.97,-626.65 92.27,-617.15 90.02,-627.5 96.97,-626.65"/>
</g>
<!-- Node4 -->
<g id="node4" class="node">
<title>Node4</title>
<g id="a_node4"><a xlink:href="class_black_misc_1_1_c_container_base.html" target="_top" xlink:title=" ">
<polygon fill="none" stroke="black" points="241.5,-1049 241.5,-1079 391.5,-1079 391.5,-1049 241.5,-1049"/>
<text text-anchor="start" x="249.5" y="-1067" font-family="Helvetica,sans-Serif" font-size="10.00">BlackMisc::CContainerBase</text>
<text text-anchor="middle" x="316.5" y="-1056" font-family="Helvetica,sans-Serif" font-size="10.00">&lt; CSequence&lt; T &gt; &gt;</text>
</a>
</g>
</g>
<!-- Node1&#45;&gt;Node4 -->
<g id="edge3" class="edge">
<title>Node1&#45;&gt;Node4</title>
<path fill="none" stroke="midnightblue" d="M94.24,-626.93C107.3,-710.85 153.49,-981.05 215,-1040 222.45,-1047.14 231.62,-1052.28 241.36,-1055.96"/>
<polygon fill="midnightblue" stroke="midnightblue" points="97.69,-626.36 92.71,-617.01 90.77,-627.42 97.69,-626.36"/>
</g>
<!-- Node6 -->
<g id="node6" class="node">
<title>Node6</title>
<g id="a_node6"><a xlink:href="class_black_misc_1_1_c_dictionary.html" target="_top" xlink:title=" ">
<polygon fill="none" stroke="black" points="238,-1000 238,-1030 395,-1030 395,-1000 238,-1000"/>
<text text-anchor="start" x="246" y="-1018" font-family="Helvetica,sans-Serif" font-size="10.00">BlackMisc::CDictionary</text>
<text text-anchor="middle" x="316.5" y="-1007" font-family="Helvetica,sans-Serif" font-size="10.00">&lt; QString, CVariant, QMap &gt;</text>
</a>
</g>
</g>
<!-- Node1&#45;&gt;Node6 -->
<g id="edge5" class="edge">
<title>Node1&#45;&gt;Node6</title>
<path fill="none" stroke="midnightblue" d="M90.59,-627.4C92.27,-696.73 106.89,-890.75 215,-991 221.58,-997.1 229.42,-1001.73 237.78,-1005.24"/>
<polygon fill="midnightblue" stroke="midnightblue" points="94.08,-626.95 90.41,-617.01 87.08,-627.07 94.08,-626.95"/>
</g>
<!-- Node8 -->
<g id="node8" class="node">
<title>Node8</title>
<g id="a_node8"><a xlink:href="class_black_misc_1_1_c_dictionary.html" target="_top" xlink:title=" ">
<polygon fill="none" stroke="black" points="252,-951 252,-981 381,-981 381,-951 252,-951"/>
<text text-anchor="start" x="260" y="-969" font-family="Helvetica,sans-Serif" font-size="10.00">BlackMisc::CDictionary</text>
<text text-anchor="middle" x="316.5" y="-958" font-family="Helvetica,sans-Serif" font-size="10.00">&lt; T, int, QMap &gt;</text>
</a>
</g>
</g>
<!-- Node1&#45;&gt;Node8 -->
<g id="edge7" class="edge">
<title>Node1&#45;&gt;Node8</title>
<path fill="none" stroke="midnightblue" d="M91.95,-627.61C96.97,-691.08 119.08,-856.66 215,-942 225.32,-951.18 238.52,-957.01 251.94,-960.67"/>
<polygon fill="midnightblue" stroke="midnightblue" points="95.42,-627.05 91.22,-617.32 88.43,-627.55 95.42,-627.05"/>
</g>
<!-- Node9 -->
<g id="node9" class="node">
<title>Node9</title>
<g id="a_node9"><a xlink:href="class_black_misc_1_1_c_dictionary.html" target="_top" xlink:title=" ">
<polygon fill="none" stroke="black" points="240.5,-902 240.5,-932 392.5,-932 392.5,-902 240.5,-902"/>
<text text-anchor="start" x="248.5" y="-920" font-family="Helvetica,sans-Serif" font-size="10.00">BlackMisc::CDictionary</text>
<text text-anchor="middle" x="316.5" y="-909" font-family="Helvetica,sans-Serif" font-size="10.00">&lt; QString, QString, QMap &gt;</text>
</a>
</g>
</g>
<!-- Node1&#45;&gt;Node9 -->
<g id="edge8" class="edge">
<title>Node1&#45;&gt;Node9</title>
<path fill="none" stroke="midnightblue" d="M93.76,-627.24C102.44,-683.73 131.44,-820.97 215,-892 222.4,-898.29 231.15,-903.04 240.35,-906.61"/>
<polygon fill="midnightblue" stroke="midnightblue" points="97.18,-626.45 92.29,-617.06 90.26,-627.46 97.18,-626.45"/>
</g>
<!-- Node10 -->
<g id="node10" class="node">
<title>Node10</title>
<g id="a_node10"><a xlink:href="class_black_misc_1_1_c_dictionary.html" target="_top" xlink:title=" ">
<polygon fill="none" stroke="black" points="239,-841.5 239,-882.5 394,-882.5 394,-841.5 239,-841.5"/>
<text text-anchor="start" x="247" y="-870.5" font-family="Helvetica,sans-Serif" font-size="10.00">BlackMisc::CDictionary</text>
<text text-anchor="start" x="247" y="-859.5" font-family="Helvetica,sans-Serif" font-size="10.00">&lt; QString, std::pair&lt;</text>
<text text-anchor="middle" x="316.5" y="-848.5" font-family="Helvetica,sans-Serif" font-size="10.00"> CVariant, qint64 &gt;, QMap &gt;</text>
</a>
</g>
</g>
<!-- Node1&#45;&gt;Node10 -->
<g id="edge9" class="edge">
<title>Node1&#45;&gt;Node10</title>
<path fill="none" stroke="midnightblue" d="M97.07,-626.96C110.8,-674.17 147.02,-776.76 215,-832 222.14,-837.8 230.37,-842.48 238.99,-846.25"/>
<polygon fill="midnightblue" stroke="midnightblue" points="100.42,-625.92 94.34,-617.24 93.68,-627.81 100.42,-625.92"/>
</g>
<!-- Node12 -->
<g id="node12" class="node">
<title>Node12</title>
<g id="a_node12"><a xlink:href="class_black_misc_1_1_mixin_1_1_d_bus_by_meta_class.html" target="_top" xlink:title=" ">
<polygon fill="none" stroke="black" points="234,-743 234,-773 399,-773 399,-743 234,-743"/>
<text text-anchor="start" x="242" y="-761" font-family="Helvetica,sans-Serif" font-size="10.00">BlackMisc::Mixin::DBusBy</text>
<text text-anchor="middle" x="316.5" y="-750" font-family="Helvetica,sans-Serif" font-size="10.00">MetaClass&lt; CPropertyIndex &gt;</text>
</a>
</g>
</g>
<!-- Node1&#45;&gt;Node12 -->
<g id="edge11" class="edge">
<title>Node1&#45;&gt;Node12</title>
<path fill="none" stroke="midnightblue" d="M107.54,-625.36C129.38,-653.65 169.84,-700.89 215,-728 225.15,-734.09 236.62,-739.03 248.09,-742.99"/>
<polygon fill="midnightblue" stroke="midnightblue" points="110.21,-623.08 101.38,-617.23 104.63,-627.31 110.21,-623.08"/>
</g>
<!-- Node14 -->
<g id="node14" class="node">
<title>Node14</title>
<g id="a_node14"><a xlink:href="class_black_misc_1_1_mixin_1_1_d_bus_by_meta_class.html" target="_top" xlink:title=" ">
<polygon fill="none" stroke="black" points="466,-722 466,-752 609,-752 609,-722 466,-722"/>
<text text-anchor="start" x="474" y="-740" font-family="Helvetica,sans-Serif" font-size="10.00">BlackMisc::Mixin::DBusBy</text>
<text text-anchor="middle" x="537.5" y="-729" font-family="Helvetica,sans-Serif" font-size="10.00">MetaClass&lt; CAltitude &gt;</text>
</a>
</g>
</g>
<!-- Node1&#45;&gt;Node14 -->
<g id="edge13" class="edge">
<title>Node1&#45;&gt;Node14</title>
<path fill="none" stroke="midnightblue" d="M116.49,-623.51C140.53,-642.25 178.03,-668.59 215,-683 297.53,-715.16 399.31,-728.18 465.95,-733.44"/>
<polygon fill="midnightblue" stroke="midnightblue" points="118.58,-620.71 108.57,-617.24 114.23,-626.19 118.58,-620.71"/>
</g>
<!-- Node16 -->
<g id="node16" class="node">
<title>Node16</title>
<g id="a_node16"><a xlink:href="class_black_misc_1_1_mixin_1_1_d_bus_by_meta_class.html" target="_top" xlink:title=" ">
<polygon fill="none" stroke="black" points="466,-661.5 466,-702.5 609,-702.5 609,-661.5 466,-661.5"/>
<text text-anchor="start" x="474" y="-690.5" font-family="Helvetica,sans-Serif" font-size="10.00">BlackMisc::Mixin::DBusBy</text>
<text text-anchor="start" x="474" y="-679.5" font-family="Helvetica,sans-Serif" font-size="10.00">MetaClass&lt; CAltitude,</text>
<text text-anchor="middle" x="537.5" y="-668.5" font-family="Helvetica,sans-Serif" font-size="10.00"> LosslessTag &gt;</text>
</a>
</g>
</g>
<!-- Node1&#45;&gt;Node16 -->
<g id="edge15" class="edge">
<title>Node1&#45;&gt;Node16</title>
<path fill="none" stroke="midnightblue" d="M126.4,-621.76C150.67,-634.13 183.85,-649.15 215,-657 299.42,-678.27 399.9,-682.92 465.79,-683.3"/>
<polygon fill="midnightblue" stroke="midnightblue" points="127.73,-618.51 117.24,-617 124.5,-624.72 127.73,-618.51"/>
</g>
<!-- Node17 -->
<g id="node17" class="node">
<title>Node17</title>
<g id="a_node17"><a xlink:href="class_black_misc_1_1_mixin_1_1_d_bus_by_meta_class.html" target="_top" xlink:title=" ">
<polygon fill="none" stroke="black" points="466,-563 466,-593 609,-593 609,-563 466,-563"/>
<text text-anchor="start" x="474" y="-581" font-family="Helvetica,sans-Serif" font-size="10.00">BlackMisc::Mixin::DBusBy</text>
<text text-anchor="middle" x="537.5" y="-570" font-family="Helvetica,sans-Serif" font-size="10.00">MetaClass&lt; CHeading &gt;</text>
</a>
</g>
</g>
<!-- Node1&#45;&gt;Node17 -->
<g id="edge17" class="edge">
<title>Node1&#45;&gt;Node17</title>
<path fill="none" stroke="midnightblue" d="M189.2,-596.69C273.05,-592.18 391.36,-585.81 465.97,-581.8"/>
<polygon fill="midnightblue" stroke="midnightblue" points="188.95,-593.2 179.15,-597.23 189.32,-600.19 188.95,-593.2"/>
</g>
<!-- Node19 -->
<g id="node19" class="node">
<title>Node19</title>
<g id="a_node19"><a xlink:href="class_black_misc_1_1_mixin_1_1_d_bus_by_meta_class.html" target="_top" xlink:title=" ">
<polygon fill="none" stroke="black" points="466,-514 466,-544 609,-544 609,-514 466,-514"/>
<text text-anchor="start" x="474" y="-532" font-family="Helvetica,sans-Serif" font-size="10.00">BlackMisc::Mixin::DBusBy</text>
<text text-anchor="middle" x="537.5" y="-521" font-family="Helvetica,sans-Serif" font-size="10.00">MetaClass&lt; CTrack &gt;</text>
</a>
</g>
</g>
<!-- Node1&#45;&gt;Node19 -->
<g id="edge19" class="edge">
<title>Node1&#45;&gt;Node19</title>
<path fill="none" stroke="midnightblue" d="M184.39,-585.23C194.71,-583.44 205.08,-581.66 215,-580 301.25,-565.54 400.71,-549.93 465.88,-539.84"/>
<polygon fill="midnightblue" stroke="midnightblue" points="183.76,-581.78 174.51,-586.95 184.96,-588.68 183.76,-581.78"/>
</g>
<!-- Node21 -->
<g id="node21" class="node">
<title>Node21</title>
<g id="a_node21"><a xlink:href="class_black_misc_1_1_mixin_1_1_d_bus_by_meta_class.html" target="_top" xlink:title=" ">
<polygon fill="none" stroke="black" points="224,-792 224,-822 409,-822 409,-792 224,-792"/>
<text text-anchor="start" x="232" y="-810" font-family="Helvetica,sans-Serif" font-size="10.00">BlackMisc::Mixin::DBusBy</text>
<text text-anchor="middle" x="316.5" y="-799" font-family="Helvetica,sans-Serif" font-size="10.00">MetaClass&lt; CValueCachePacket &gt;</text>
</a>
</g>
</g>
<!-- Node1&#45;&gt;Node21 -->
<g id="edge21" class="edge">
<title>Node1&#45;&gt;Node21</title>
<path fill="none" stroke="midnightblue" d="M100.39,-626.6C117.56,-666.03 156.7,-743 215,-783 220.03,-786.45 225.5,-789.41 231.19,-791.94"/>
<polygon fill="midnightblue" stroke="midnightblue" points="103.53,-625.05 96.41,-617.21 97.09,-627.78 103.53,-625.05"/>
</g>
<!-- Node22 -->
<g id="node22" class="node">
<title>Node22</title>
<g id="a_node22"><a xlink:href="class_black_misc_1_1_mixin_1_1_d_bus_by_meta_class.html" target="_top" xlink:title=" ">
<polygon fill="none" stroke="black" points="245,-421 245,-451 388,-451 388,-421 245,-421"/>
<text text-anchor="start" x="253" y="-439" font-family="Helvetica,sans-Serif" font-size="10.00">BlackMisc::Mixin::DBusBy</text>
<text text-anchor="middle" x="316.5" y="-428" font-family="Helvetica,sans-Serif" font-size="10.00">MetaClass&lt; CIcon &gt;</text>
</a>
</g>
</g>
<!-- Node1&#45;&gt;Node22 -->
<g id="edge23" class="edge">
<title>Node1&#45;&gt;Node22</title>
<path fill="none" stroke="midnightblue" d="M104.78,-578.34C125.19,-546.65 165.71,-490.92 215,-461 224.14,-455.45 234.47,-451.13 244.93,-447.76"/>
<polygon fill="midnightblue" stroke="midnightblue" points="101.71,-576.65 99.34,-586.98 107.63,-580.39 101.71,-576.65"/>
</g>
<!-- Node24 -->
<g id="node24" class="node">
<title>Node24</title>
<g id="a_node24"><a xlink:href="class_black_misc_1_1_physical_quantities_1_1_c_physical_quantity.html" target="_top" xlink:title=" ">
<polygon fill="none" stroke="black" points="227,-360.5 227,-401.5 406,-401.5 406,-360.5 227,-360.5"/>
<text text-anchor="start" x="235" y="-389.5" font-family="Helvetica,sans-Serif" font-size="10.00">BlackMisc::PhysicalQuantities</text>
<text text-anchor="start" x="235" y="-378.5" font-family="Helvetica,sans-Serif" font-size="10.00">::CPhysicalQuantity&lt; CMassUnit,</text>
<text text-anchor="middle" x="316.5" y="-367.5" font-family="Helvetica,sans-Serif" font-size="10.00"> CMass &gt;</text>
</a>
</g>
</g>
<!-- Node1&#45;&gt;Node24 -->
<g id="edge25" class="edge">
<title>Node1&#45;&gt;Node24</title>
<path fill="none" stroke="midnightblue" d="M100,-577.49C116.93,-537 156.17,-456.26 215,-412 220.25,-408.05 226.02,-404.6 232.04,-401.58"/>
<polygon fill="midnightblue" stroke="midnightblue" points="96.71,-576.28 96.18,-586.86 103.19,-578.93 96.71,-576.28"/>
</g>
<!-- Node26 -->
<g id="node26" class="node">
<title>Node26</title>
<g id="a_node26"><a xlink:href="class_black_misc_1_1_physical_quantities_1_1_c_physical_quantity.html" target="_top" xlink:title=" ">
<polygon fill="none" stroke="black" points="226,-470.5 226,-511.5 407,-511.5 407,-470.5 226,-470.5"/>
<text text-anchor="start" x="234" y="-499.5" font-family="Helvetica,sans-Serif" font-size="10.00">BlackMisc::PhysicalQuantities</text>
<text text-anchor="start" x="234" y="-488.5" font-family="Helvetica,sans-Serif" font-size="10.00">::CPhysicalQuantity&lt; CAngleUnit,</text>
<text text-anchor="middle" x="316.5" y="-477.5" font-family="Helvetica,sans-Serif" font-size="10.00"> CAngle &gt;</text>
</a>
</g>
</g>
<!-- Node1&#45;&gt;Node26 -->
<g id="edge27" class="edge">
<title>Node1&#45;&gt;Node26</title>
<path fill="none" stroke="midnightblue" d="M120.71,-581.04C145.31,-564.59 181.36,-541.9 215,-526 226.11,-520.75 238.23,-515.86 250.08,-511.51"/>
<polygon fill="midnightblue" stroke="midnightblue" points="118.52,-578.29 112.19,-586.79 122.44,-584.09 118.52,-578.29"/>
</g>
<!-- Node33 -->
<g id="node33" class="node">
<title>Node33</title>
<g id="a_node33"><a xlink:href="class_black_misc_1_1_physical_quantities_1_1_c_physical_quantity.html" target="_top" xlink:title=" ">
<polygon fill="none" stroke="black" points="227.5,-300.5 227.5,-341.5 405.5,-341.5 405.5,-300.5 227.5,-300.5"/>
<text text-anchor="start" x="235.5" y="-329.5" font-family="Helvetica,sans-Serif" font-size="10.00">BlackMisc::PhysicalQuantities</text>
<text text-anchor="start" x="235.5" y="-318.5" font-family="Helvetica,sans-Serif" font-size="10.00">::CPhysicalQuantity&lt; CTimeUnit,</text>
<text text-anchor="middle" x="316.5" y="-307.5" font-family="Helvetica,sans-Serif" font-size="10.00"> CTime &gt;</text>
</a>
</g>
</g>
<!-- Node1&#45;&gt;Node33 -->
<g id="edge36" class="edge">
<title>Node1&#45;&gt;Node33</title>
<path fill="none" stroke="midnightblue" d="M95.86,-576.95C107.97,-526.51 142.23,-412.32 215,-351 219.18,-347.48 223.76,-344.37 228.58,-341.63"/>
<polygon fill="midnightblue" stroke="midnightblue" points="92.39,-576.44 93.55,-586.98 99.21,-578.02 92.39,-576.44"/>
</g>
<!-- Node35 -->
<g id="node35" class="node">
<title>Node35</title>
<g id="a_node35"><a xlink:href="class_black_misc_1_1_physical_quantities_1_1_c_physical_quantity.html" target="_top" xlink:title=" ">
<polygon fill="none" stroke="black" points="219,-240.5 219,-281.5 414,-281.5 414,-240.5 219,-240.5"/>
<text text-anchor="start" x="227" y="-269.5" font-family="Helvetica,sans-Serif" font-size="10.00">BlackMisc::PhysicalQuantities</text>
<text text-anchor="start" x="227" y="-258.5" font-family="Helvetica,sans-Serif" font-size="10.00">::CPhysicalQuantity&lt; CPressureUnit,</text>
<text text-anchor="middle" x="316.5" y="-247.5" font-family="Helvetica,sans-Serif" font-size="10.00"> CPressure &gt;</text>
</a>
</g>
</g>
<!-- Node1&#45;&gt;Node35 -->
<g id="edge38" class="edge">
<title>Node1&#45;&gt;Node35</title>
<path fill="none" stroke="midnightblue" d="M93.26,-576.47C101.02,-517.34 128.46,-370.03 215,-291 218.9,-287.44 223.2,-284.3 227.77,-281.53"/>
<polygon fill="midnightblue" stroke="midnightblue" points="89.74,-576.41 91.99,-586.76 96.69,-577.27 89.74,-576.41"/>
</g>
<!-- Node37 -->
<g id="node37" class="node">
<title>Node37</title>
<g id="a_node37"><a xlink:href="class_black_misc_1_1_physical_quantities_1_1_c_physical_quantity.html" target="_top" xlink:title=" ">
<polygon fill="none" stroke="black" points="221,-180.5 221,-221.5 412,-221.5 412,-180.5 221,-180.5"/>
<text text-anchor="start" x="229" y="-209.5" font-family="Helvetica,sans-Serif" font-size="10.00">BlackMisc::PhysicalQuantities</text>
<text text-anchor="start" x="229" y="-198.5" font-family="Helvetica,sans-Serif" font-size="10.00">::CPhysicalQuantity&lt; CAcceleration</text>
<text text-anchor="middle" x="316.5" y="-187.5" font-family="Helvetica,sans-Serif" font-size="10.00">Unit, CAcceleration &gt;</text>
</a>
</g>
</g>
<!-- Node1&#45;&gt;Node37 -->
<g id="edge40" class="edge">
<title>Node1&#45;&gt;Node37</title>
<path fill="none" stroke="midnightblue" d="M91.35,-576.69C94.99,-510.12 114.14,-328.52 215,-231 218.67,-227.46 222.73,-224.33 227.07,-221.57"/>
<polygon fill="midnightblue" stroke="midnightblue" points="87.85,-576.55 90.88,-586.71 94.85,-576.89 87.85,-576.55"/>
</g>
<!-- Node39 -->
<g id="node39" class="node">
<title>Node39</title>
<g id="a_node39"><a xlink:href="class_black_misc_1_1_physical_quantities_1_1_c_physical_quantity.html" target="_top" xlink:title=" ">
<polygon fill="none" stroke="black" points="225,-120.5 225,-161.5 408,-161.5 408,-120.5 225,-120.5"/>
<text text-anchor="start" x="233" y="-149.5" font-family="Helvetica,sans-Serif" font-size="10.00">BlackMisc::PhysicalQuantities</text>
<text text-anchor="start" x="233" y="-138.5" font-family="Helvetica,sans-Serif" font-size="10.00">::CPhysicalQuantity&lt; CSpeedUnit,</text>
<text text-anchor="middle" x="316.5" y="-127.5" font-family="Helvetica,sans-Serif" font-size="10.00"> CSpeed &gt;</text>
</a>
</g>
</g>
<!-- Node1&#45;&gt;Node39 -->
<g id="edge42" class="edge">
<title>Node1&#45;&gt;Node39</title>
<path fill="none" stroke="midnightblue" d="M89.96,-576.73C89.82,-503.2 99.75,-287.28 215,-171 218.46,-167.51 222.31,-164.42 226.43,-161.69"/>
<polygon fill="midnightblue" stroke="midnightblue" points="86.46,-576.92 90.05,-586.89 93.46,-576.86 86.46,-576.92"/>
</g>
<!-- Node41 -->
<g id="node41" class="node">
<title>Node41</title>
<g id="a_node41"><a xlink:href="class_black_misc_1_1_physical_quantities_1_1_c_physical_quantity.html" target="_top" xlink:title=" ">
<polygon fill="none" stroke="black" points="223.5,-606.5 223.5,-647.5 409.5,-647.5 409.5,-606.5 223.5,-606.5"/>
<text text-anchor="start" x="231.5" y="-635.5" font-family="Helvetica,sans-Serif" font-size="10.00">BlackMisc::PhysicalQuantities</text>
<text text-anchor="start" x="231.5" y="-624.5" font-family="Helvetica,sans-Serif" font-size="10.00">::CPhysicalQuantity&lt; CLengthUnit,</text>
<text text-anchor="middle" x="316.5" y="-613.5" font-family="Helvetica,sans-Serif" font-size="10.00"> CLength &gt;</text>
</a>
</g>
</g>
<!-- Node1&#45;&gt;Node41 -->
<g id="edge44" class="edge">
<title>Node1&#45;&gt;Node41</title>
<path fill="none" stroke="midnightblue" d="M189.38,-612.99C200.65,-614.24 212.1,-615.51 223.28,-616.75"/>
<polygon fill="midnightblue" stroke="midnightblue" points="189.43,-609.47 179.1,-611.84 188.66,-616.43 189.43,-609.47"/>
</g>
<!-- Node43 -->
<g id="node43" class="node">
<title>Node43</title>
<g id="a_node43"><a xlink:href="class_black_misc_1_1_physical_quantities_1_1_c_physical_quantity.html" target="_top" xlink:title=" ">
<polygon fill="none" stroke="black" points="221,-60.5 221,-101.5 412,-101.5 412,-60.5 221,-60.5"/>
<text text-anchor="start" x="229" y="-89.5" font-family="Helvetica,sans-Serif" font-size="10.00">BlackMisc::PhysicalQuantities</text>
<text text-anchor="start" x="229" y="-78.5" font-family="Helvetica,sans-Serif" font-size="10.00">::CPhysicalQuantity&lt; CTemperature</text>
<text text-anchor="middle" x="316.5" y="-67.5" font-family="Helvetica,sans-Serif" font-size="10.00">Unit, CTemperature &gt;</text>
</a>
</g>
</g>
<!-- Node1&#45;&gt;Node43 -->
<g id="edge47" class="edge">
<title>Node1&#45;&gt;Node43</title>
<path fill="none" stroke="midnightblue" d="M93.62,-576.62C105.25,-485.99 148.82,-180 215,-111 218.4,-107.45 222.21,-104.32 226.29,-101.55"/>
<polygon fill="midnightblue" stroke="midnightblue" points="90.11,-576.45 92.33,-586.81 97.06,-577.32 90.11,-576.45"/>
</g>
<!-- Node45 -->
<g id="node45" class="node">
<title>Node45</title>
<g id="a_node45"><a xlink:href="class_black_misc_1_1_physical_quantities_1_1_c_physical_quantity.html" target="_top" xlink:title=" ">
<polygon fill="none" stroke="black" points="215,-0.5 215,-41.5 418,-41.5 418,-0.5 215,-0.5"/>
<text text-anchor="start" x="223" y="-29.5" font-family="Helvetica,sans-Serif" font-size="10.00">BlackMisc::PhysicalQuantities</text>
<text text-anchor="start" x="223" y="-18.5" font-family="Helvetica,sans-Serif" font-size="10.00">::CPhysicalQuantity&lt; CFrequencyUnit,</text>
<text text-anchor="middle" x="316.5" y="-7.5" font-family="Helvetica,sans-Serif" font-size="10.00"> CFrequency &gt;</text>
</a>
</g>
</g>
<!-- Node1&#45;&gt;Node45 -->
<g id="edge49" class="edge">
<title>Node1&#45;&gt;Node45</title>
<path fill="none" stroke="midnightblue" d="M92.85,-576.76C102.42,-479.4 141.42,-129.75 215,-51 218.23,-47.54 221.84,-44.47 225.73,-41.76"/>
<polygon fill="midnightblue" stroke="midnightblue" points="89.35,-576.57 91.88,-586.86 96.32,-577.25 89.35,-576.57"/>
</g>
<!-- Node3 -->
<g id="node3" class="node">
<title>Node3</title>
<g id="a_node3"><a xlink:href="class_black_misc_1_1_c_collection.html" target="_top" xlink:title="Generic ordered container with value semantics.">
<polygon fill="none" stroke="black" points="459.5,-1103.5 459.5,-1122.5 615.5,-1122.5 615.5,-1103.5 459.5,-1103.5"/>
<text text-anchor="middle" x="537.5" y="-1110.5" font-family="Helvetica,sans-Serif" font-size="10.00">BlackMisc::CCollection&lt; T &gt;</text>
</a>
</g>
</g>
<!-- Node2&#45;&gt;Node3 -->
<g id="edge2" class="edge">
<title>Node2&#45;&gt;Node3</title>
<path fill="none" stroke="midnightblue" d="M401.76,-1113C420.73,-1113 440.78,-1113 459.44,-1113"/>
<polygon fill="midnightblue" stroke="midnightblue" points="401.64,-1109.5 391.64,-1113 401.64,-1116.5 401.64,-1109.5"/>
</g>
<!-- Node5 -->
<g id="node5" class="node">
<title>Node5</title>
<g id="a_node5"><a xlink:href="class_black_misc_1_1_c_sequence.html" target="_top" xlink:title="Generic sequential container with value semantics.">
<polygon fill="none" stroke="black" points="460,-1054.5 460,-1073.5 615,-1073.5 615,-1054.5 460,-1054.5"/>
<text text-anchor="middle" x="537.5" y="-1061.5" font-family="Helvetica,sans-Serif" font-size="10.00">BlackMisc::CSequence&lt; T &gt;</text>
</a>
</g>
</g>
<!-- Node4&#45;&gt;Node5 -->
<g id="edge4" class="edge">
<title>Node4&#45;&gt;Node5</title>
<path fill="none" stroke="midnightblue" d="M401.82,-1064C420.9,-1064 441.07,-1064 459.82,-1064"/>
<polygon fill="midnightblue" stroke="midnightblue" points="401.64,-1060.5 391.64,-1064 401.64,-1067.5 401.64,-1060.5"/>
</g>
<!-- Node7 -->
<g id="node7" class="node">
<title>Node7</title>
<g id="a_node7"><a xlink:href="class_black_misc_1_1_c_variant_map.html" target="_top" xlink:title="Map of { QString, CVariant } pairs.">
<polygon fill="none" stroke="black" points="470.5,-1005.5 470.5,-1024.5 604.5,-1024.5 604.5,-1005.5 470.5,-1005.5"/>
<text text-anchor="middle" x="537.5" y="-1012.5" font-family="Helvetica,sans-Serif" font-size="10.00">BlackMisc::CVariantMap</text>
</a>
</g>
</g>
<!-- Node6&#45;&gt;Node7 -->
<g id="edge6" class="edge">
<title>Node6&#45;&gt;Node7</title>
<path fill="none" stroke="midnightblue" d="M405.23,-1015C426.94,-1015 449.84,-1015 470.33,-1015"/>
<polygon fill="midnightblue" stroke="midnightblue" points="405.02,-1011.5 395.02,-1015 405.02,-1018.5 405.02,-1011.5"/>
</g>
<!-- Node11 -->
<g id="node11" class="node">
<title>Node11</title>
<g id="a_node11"><a xlink:href="class_black_misc_1_1_c_value_cache_packet.html" target="_top" xlink:title="Value class used for signalling changed values in the cache.">
<polygon fill="none" stroke="black" points="454,-831.5 454,-850.5 621,-850.5 621,-831.5 454,-831.5"/>
<text text-anchor="middle" x="537.5" y="-838.5" font-family="Helvetica,sans-Serif" font-size="10.00">BlackMisc::CValueCachePacket</text>
</a>
</g>
</g>
<!-- Node10&#45;&gt;Node11 -->
<g id="edge10" class="edge">
<title>Node10&#45;&gt;Node11</title>
<path fill="none" stroke="midnightblue" d="M404.2,-853.69C420.6,-852.11 437.72,-850.47 453.98,-848.91"/>
<polygon fill="midnightblue" stroke="midnightblue" points="403.72,-850.22 394.1,-854.66 404.38,-857.18 403.72,-850.22"/>
</g>
<!-- Node13 -->
<g id="node13" class="node">
<title>Node13</title>
<g id="a_node13"><a xlink:href="class_black_misc_1_1_c_property_index.html" target="_top" xlink:title="Property index.">
<polygon fill="none" stroke="black" points="464,-771.5 464,-790.5 611,-790.5 611,-771.5 464,-771.5"/>
<text text-anchor="middle" x="537.5" y="-778.5" font-family="Helvetica,sans-Serif" font-size="10.00">BlackMisc::CPropertyIndex</text>
</a>
</g>
</g>
<!-- Node12&#45;&gt;Node13 -->
<g id="edge12" class="edge">
<title>Node12&#45;&gt;Node13</title>
<path fill="none" stroke="midnightblue" d="M409.12,-767.62C427.4,-769.54 446.37,-771.53 463.9,-773.38"/>
<polygon fill="midnightblue" stroke="midnightblue" points="409.36,-764.13 399.05,-766.56 408.63,-771.09 409.36,-764.13"/>
</g>
<!-- Node15 -->
<g id="node15" class="node">
<title>Node15</title>
<g id="a_node15"><a xlink:href="class_black_misc_1_1_aviation_1_1_c_altitude.html" target="_top" xlink:title="Altitude as used in aviation, can be AGL or MSL altitude.">
<polygon fill="none" stroke="black" points="680,-667 680,-697 792,-697 792,-667 680,-667"/>
<text text-anchor="start" x="688" y="-685" font-family="Helvetica,sans-Serif" font-size="10.00">BlackMisc::Aviation</text>
<text text-anchor="middle" x="736" y="-674" font-family="Helvetica,sans-Serif" font-size="10.00">::CAltitude</text>
</a>
</g>
</g>
<!-- Node14&#45;&gt;Node15 -->
<g id="edge14" class="edge">
<title>Node14&#45;&gt;Node15</title>
<path fill="none" stroke="midnightblue" d="M601.83,-719.27C627.49,-712.09 656.79,-703.89 681.37,-697.01"/>
<polygon fill="midnightblue" stroke="midnightblue" points="600.88,-715.91 592.19,-721.97 602.77,-722.65 600.88,-715.91"/>
</g>
<!-- Node16&#45;&gt;Node15 -->
<g id="edge16" class="edge">
<title>Node16&#45;&gt;Node15</title>
<path fill="none" stroke="midnightblue" d="M619.35,-682C639.66,-682 661,-682 679.73,-682"/>
<polygon fill="midnightblue" stroke="midnightblue" points="619.16,-678.5 609.16,-682 619.16,-685.5 619.16,-678.5"/>
</g>
<!-- Node18 -->
<g id="node18" class="node">
<title>Node18</title>
<g id="a_node18"><a xlink:href="class_black_misc_1_1_aviation_1_1_c_heading.html" target="_top" xlink:title="Heading as used in aviation, can be true or magnetic heading.">
<polygon fill="none" stroke="black" points="680,-563 680,-593 792,-593 792,-563 680,-563"/>
<text text-anchor="start" x="688" y="-581" font-family="Helvetica,sans-Serif" font-size="10.00">BlackMisc::Aviation</text>
<text text-anchor="middle" x="736" y="-570" font-family="Helvetica,sans-Serif" font-size="10.00">::CHeading</text>
</a>
</g>
</g>
<!-- Node17&#45;&gt;Node18 -->
<g id="edge18" class="edge">
<title>Node17&#45;&gt;Node18</title>
<path fill="none" stroke="midnightblue" d="M619.35,-578C639.66,-578 661,-578 679.73,-578"/>
<polygon fill="midnightblue" stroke="midnightblue" points="619.16,-574.5 609.16,-578 619.16,-581.5 619.16,-574.5"/>
</g>
<!-- Node20 -->
<g id="node20" class="node">
<title>Node20</title>
<g id="a_node20"><a xlink:href="class_black_misc_1_1_aviation_1_1_c_track.html" target="_top" xlink:title="Track as used in aviation, can be true or magnetic Track.">
<polygon fill="none" stroke="black" points="680,-514 680,-544 792,-544 792,-514 680,-514"/>
<text text-anchor="start" x="688" y="-532" font-family="Helvetica,sans-Serif" font-size="10.00">BlackMisc::Aviation</text>
<text text-anchor="middle" x="736" y="-521" font-family="Helvetica,sans-Serif" font-size="10.00">::CTrack</text>
</a>
</g>
</g>
<!-- Node19&#45;&gt;Node20 -->
<g id="edge20" class="edge">
<title>Node19&#45;&gt;Node20</title>
<path fill="none" stroke="midnightblue" d="M619.35,-529C639.66,-529 661,-529 679.73,-529"/>
<polygon fill="midnightblue" stroke="midnightblue" points="619.16,-525.5 609.16,-529 619.16,-532.5 619.16,-525.5"/>
</g>
<!-- Node21&#45;&gt;Node11 -->
<g id="edge22" class="edge">
<title>Node21&#45;&gt;Node11</title>
<path fill="none" stroke="midnightblue" d="M419.08,-822.77C438.23,-825.74 457.7,-828.77 475.14,-831.47"/>
<polygon fill="midnightblue" stroke="midnightblue" points="419.53,-819.3 409.11,-821.22 418.45,-826.21 419.53,-819.3"/>
</g>
<!-- Node23 -->
<g id="node23" class="node">
<title>Node23</title>
<g id="a_node23"><a xlink:href="class_black_misc_1_1_c_icon.html" target="_top" xlink:title="Value object for icons. An icon is stored in the global icon repository and identified by its index....">
<polygon fill="none" stroke="black" points="488,-426.5 488,-445.5 587,-445.5 587,-426.5 488,-426.5"/>
<text text-anchor="middle" x="537.5" y="-433.5" font-family="Helvetica,sans-Serif" font-size="10.00">BlackMisc::CIcon</text>
</a>
</g>
</g>
<!-- Node22&#45;&gt;Node23 -->
<g id="edge24" class="edge">
<title>Node22&#45;&gt;Node23</title>
<path fill="none" stroke="midnightblue" d="M398.35,-436C428.36,-436 461.47,-436 487.75,-436"/>
<polygon fill="midnightblue" stroke="midnightblue" points="398.3,-432.5 388.3,-436 398.3,-439.5 398.3,-432.5"/>
</g>
<!-- Node25 -->
<g id="node25" class="node">
<title>Node25</title>
<g id="a_node25"><a xlink:href="class_black_misc_1_1_physical_quantities_1_1_c_mass.html" target="_top" xlink:title="Mass.">
<polygon fill="none" stroke="black" points="456,-366 456,-396 619,-396 619,-366 456,-366"/>
<text text-anchor="start" x="464" y="-384" font-family="Helvetica,sans-Serif" font-size="10.00">BlackMisc::PhysicalQuantities</text>
<text text-anchor="middle" x="537.5" y="-373" font-family="Helvetica,sans-Serif" font-size="10.00">::CMass</text>
</a>
</g>
</g>
<!-- Node24&#45;&gt;Node25 -->
<g id="edge26" class="edge">
<title>Node24&#45;&gt;Node25</title>
<path fill="none" stroke="midnightblue" d="M416.3,-381C429.49,-381 442.9,-381 455.74,-381"/>
<polygon fill="midnightblue" stroke="midnightblue" points="416.26,-377.5 406.26,-381 416.26,-384.5 416.26,-377.5"/>
</g>
<!-- Node27 -->
<g id="node27" class="node">
<title>Node27</title>
<g id="a_node27"><a xlink:href="class_black_misc_1_1_physical_quantities_1_1_c_angle.html" target="_top" xlink:title="Physical unit angle (radians, degrees)">
<polygon fill="none" stroke="black" points="456,-465 456,-495 619,-495 619,-465 456,-465"/>
<text text-anchor="start" x="464" y="-483" font-family="Helvetica,sans-Serif" font-size="10.00">BlackMisc::PhysicalQuantities</text>
<text text-anchor="middle" x="537.5" y="-472" font-family="Helvetica,sans-Serif" font-size="10.00">::CAngle</text>
</a>
</g>
</g>
<!-- Node26&#45;&gt;Node27 -->
<g id="edge28" class="edge">
<title>Node26&#45;&gt;Node27</title>
<path fill="none" stroke="midnightblue" d="M417.44,-485.98C430.26,-485.34 443.26,-484.68 455.72,-484.06"/>
<polygon fill="midnightblue" stroke="midnightblue" points="417.02,-482.5 407.21,-486.49 417.37,-489.49 417.02,-482.5"/>
</g>
<!-- Node27&#45;&gt;Node18 -->
<g id="edge33" class="edge">
<title>Node27&#45;&gt;Node18</title>
<path fill="none" stroke="midnightblue" d="M612.06,-499.45C615.17,-501.15 618.17,-502.99 621,-505 643.06,-520.61 634.97,-538.35 657,-554 663.81,-558.84 671.63,-562.73 679.62,-565.84"/>
<polygon fill="midnightblue" stroke="midnightblue" points="613.56,-496.29 603.04,-495.03 610.48,-502.57 613.56,-496.29"/>
</g>
<!-- Node27&#45;&gt;Node20 -->
<g id="edge34" class="edge">
<title>Node27&#45;&gt;Node20</title>
<path fill="none" stroke="midnightblue" d="M608.66,-497.49C632.05,-503.33 657.75,-509.74 679.84,-515.25"/>
<polygon fill="midnightblue" stroke="midnightblue" points="609.34,-494.06 598.79,-495.03 607.65,-500.85 609.34,-494.06"/>
</g>
<!-- Node28 -->
<g id="node28" class="node">
<title>Node28</title>
<g id="a_node28"><a xlink:href="class_black_misc_1_1_geo_1_1_c_earth_angle.html" target="_top" xlink:title=" ">
<polygon fill="none" stroke="black" points="657,-465 657,-495 815,-495 815,-465 657,-465"/>
<text text-anchor="start" x="665" y="-483" font-family="Helvetica,sans-Serif" font-size="10.00">BlackMisc::Geo::CEarthAngle</text>
<text text-anchor="middle" x="736" y="-472" font-family="Helvetica,sans-Serif" font-size="10.00">&lt; CLongitude &gt;</text>
</a>
</g>
</g>
<!-- Node27&#45;&gt;Node28 -->
<g id="edge29" class="edge">
<title>Node27&#45;&gt;Node28</title>
<path fill="none" stroke="midnightblue" d="M629.5,-480C638.61,-480 647.8,-480 656.76,-480"/>
<polygon fill="midnightblue" stroke="midnightblue" points="629.27,-476.5 619.27,-480 629.27,-483.5 629.27,-476.5"/>
</g>
<!-- Node30 -->
<g id="node30" class="node">
<title>Node30</title>
<g id="a_node30"><a xlink:href="class_black_misc_1_1_geo_1_1_c_earth_angle.html" target="_top" xlink:title=" ">
<polygon fill="none" stroke="black" points="657,-416 657,-446 815,-446 815,-416 657,-416"/>
<text text-anchor="start" x="665" y="-434" font-family="Helvetica,sans-Serif" font-size="10.00">BlackMisc::Geo::CEarthAngle</text>
<text text-anchor="middle" x="736" y="-423" font-family="Helvetica,sans-Serif" font-size="10.00">&lt; CLatitude &gt;</text>
</a>
</g>
</g>
<!-- Node27&#45;&gt;Node30 -->
<g id="edge31" class="edge">
<title>Node27&#45;&gt;Node30</title>
<path fill="none" stroke="midnightblue" d="M608.59,-462.52C630.24,-457.12 653.9,-451.22 674.82,-446.01"/>
<polygon fill="midnightblue" stroke="midnightblue" points="607.65,-459.15 598.79,-464.97 609.34,-465.94 607.65,-459.15"/>
</g>
<!-- Node32 -->
<g id="node32" class="node">
<title>Node32</title>
<g id="a_node32"><a xlink:href="class_black_misc_1_1_geo_1_1_c_earth_angle.html" target="_top" xlink:title="Base class for latitude / longitude.">
<polygon fill="none" stroke="black" points="657,-367 657,-397 815,-397 815,-367 657,-367"/>
<text text-anchor="start" x="665" y="-385" font-family="Helvetica,sans-Serif" font-size="10.00">BlackMisc::Geo::CEarthAngle</text>
<text text-anchor="middle" x="736" y="-374" font-family="Helvetica,sans-Serif" font-size="10.00">&lt; LATorLON &gt;</text>
</a>
</g>
</g>
<!-- Node27&#45;&gt;Node32 -->
<g id="edge35" class="edge">
<title>Node27&#45;&gt;Node32</title>
<path fill="none" stroke="midnightblue" d="M612.03,-460.52C615.15,-458.83 618.16,-456.99 621,-455 642.85,-439.71 635.28,-422.47 657,-407 662.44,-403.12 668.52,-399.83 674.81,-397.03"/>
<polygon fill="midnightblue" stroke="midnightblue" points="610.46,-457.39 603,-464.92 613.53,-463.68 610.46,-457.39"/>
</g>
<!-- Node29 -->
<g id="node29" class="node">
<title>Node29</title>
<g id="a_node29"><a xlink:href="class_black_misc_1_1_geo_1_1_c_longitude.html" target="_top" xlink:title="Longitude.">
<polygon fill="none" stroke="black" points="851,-470.5 851,-489.5 1003,-489.5 1003,-470.5 851,-470.5"/>
<text text-anchor="middle" x="927" y="-477.5" font-family="Helvetica,sans-Serif" font-size="10.00">BlackMisc::Geo::CLongitude</text>
</a>
</g>
</g>
<!-- Node28&#45;&gt;Node29 -->
<g id="edge30" class="edge">
<title>Node28&#45;&gt;Node29</title>
<path fill="none" stroke="midnightblue" d="M825.24,-480C833.81,-480 842.44,-480 850.86,-480"/>
<polygon fill="midnightblue" stroke="midnightblue" points="825.24,-476.5 815.24,-480 825.24,-483.5 825.24,-476.5"/>
</g>
<!-- Node31 -->
<g id="node31" class="node">
<title>Node31</title>
<g id="a_node31"><a xlink:href="class_black_misc_1_1_geo_1_1_c_latitude.html" target="_top" xlink:title="Latitude.">
<polygon fill="none" stroke="black" points="855,-421.5 855,-440.5 999,-440.5 999,-421.5 855,-421.5"/>
<text text-anchor="middle" x="927" y="-428.5" font-family="Helvetica,sans-Serif" font-size="10.00">BlackMisc::Geo::CLatitude</text>
</a>
</g>
</g>
<!-- Node30&#45;&gt;Node31 -->
<g id="edge32" class="edge">
<title>Node30&#45;&gt;Node31</title>
<path fill="none" stroke="midnightblue" d="M825.44,-431C835.27,-431 845.2,-431 854.78,-431"/>
<polygon fill="midnightblue" stroke="midnightblue" points="825.24,-427.5 815.24,-431 825.24,-434.5 825.24,-427.5"/>
</g>
<!-- Node34 -->
<g id="node34" class="node">
<title>Node34</title>
<g id="a_node34"><a xlink:href="class_black_misc_1_1_physical_quantities_1_1_c_time.html" target="_top" xlink:title="Time class, e.g.">
<polygon fill="none" stroke="black" points="456,-306 456,-336 619,-336 619,-306 456,-306"/>
<text text-anchor="start" x="464" y="-324" font-family="Helvetica,sans-Serif" font-size="10.00">BlackMisc::PhysicalQuantities</text>
<text text-anchor="middle" x="537.5" y="-313" font-family="Helvetica,sans-Serif" font-size="10.00">::CTime</text>
</a>
</g>
</g>
<!-- Node33&#45;&gt;Node34 -->
<g id="edge37" class="edge">
<title>Node33&#45;&gt;Node34</title>
<path fill="none" stroke="midnightblue" d="M415.84,-321C429.27,-321 442.92,-321 455.98,-321"/>
<polygon fill="midnightblue" stroke="midnightblue" points="415.63,-317.5 405.63,-321 415.63,-324.5 415.63,-317.5"/>
</g>
<!-- Node36 -->
<g id="node36" class="node">
<title>Node36</title>
<g id="a_node36"><a xlink:href="class_black_misc_1_1_physical_quantities_1_1_c_pressure.html" target="_top" xlink:title="Physical unit distance.">
<polygon fill="none" stroke="black" points="456,-246 456,-276 619,-276 619,-246 456,-246"/>
<text text-anchor="start" x="464" y="-264" font-family="Helvetica,sans-Serif" font-size="10.00">BlackMisc::PhysicalQuantities</text>
<text text-anchor="middle" x="537.5" y="-253" font-family="Helvetica,sans-Serif" font-size="10.00">::CPressure</text>
</a>
</g>
</g>
<!-- Node35&#45;&gt;Node36 -->
<g id="edge39" class="edge">
<title>Node35&#45;&gt;Node36</title>
<path fill="none" stroke="midnightblue" d="M424.3,-261C434.87,-261 445.47,-261 455.72,-261"/>
<polygon fill="midnightblue" stroke="midnightblue" points="424.19,-257.5 414.19,-261 424.19,-264.5 424.19,-257.5"/>
</g>
<!-- Node38 -->
<g id="node38" class="node">
<title>Node38</title>
<g id="a_node38"><a xlink:href="class_black_misc_1_1_physical_quantities_1_1_c_acceleration.html" target="_top" xlink:title="Acceleration.">
<polygon fill="none" stroke="black" points="456,-186 456,-216 619,-216 619,-186 456,-186"/>
<text text-anchor="start" x="464" y="-204" font-family="Helvetica,sans-Serif" font-size="10.00">BlackMisc::PhysicalQuantities</text>
<text text-anchor="middle" x="537.5" y="-193" font-family="Helvetica,sans-Serif" font-size="10.00">::CAcceleration</text>
</a>
</g>
</g>
<!-- Node37&#45;&gt;Node38 -->
<g id="edge41" class="edge">
<title>Node37&#45;&gt;Node38</title>
<path fill="none" stroke="midnightblue" d="M422.57,-201C433.8,-201 445.1,-201 455.98,-201"/>
<polygon fill="midnightblue" stroke="midnightblue" points="422.28,-197.5 412.28,-201 422.28,-204.5 422.28,-197.5"/>
</g>
<!-- Node40 -->
<g id="node40" class="node">
<title>Node40</title>
<g id="a_node40"><a xlink:href="class_black_misc_1_1_physical_quantities_1_1_c_speed.html" target="_top" xlink:title="Speed class, e.g.">
<polygon fill="none" stroke="black" points="456,-126 456,-156 619,-156 619,-126 456,-126"/>
<text text-anchor="start" x="464" y="-144" font-family="Helvetica,sans-Serif" font-size="10.00">BlackMisc::PhysicalQuantities</text>
<text text-anchor="middle" x="537.5" y="-133" font-family="Helvetica,sans-Serif" font-size="10.00">::CSpeed</text>
</a>
</g>
</g>
<!-- Node39&#45;&gt;Node40 -->
<g id="edge43" class="edge">
<title>Node39&#45;&gt;Node40</title>
<path fill="none" stroke="midnightblue" d="M418.19,-141C430.77,-141 443.5,-141 455.71,-141"/>
<polygon fill="midnightblue" stroke="midnightblue" points="418.16,-137.5 408.16,-141 418.16,-144.5 418.16,-137.5"/>
</g>
<!-- Node42 -->
<g id="node42" class="node">
<title>Node42</title>
<g id="a_node42"><a xlink:href="class_black_misc_1_1_physical_quantities_1_1_c_length.html" target="_top" xlink:title="Physical unit length (length)">
<polygon fill="none" stroke="black" points="456,-612 456,-642 619,-642 619,-612 456,-612"/>
<text text-anchor="start" x="464" y="-630" font-family="Helvetica,sans-Serif" font-size="10.00">BlackMisc::PhysicalQuantities</text>
<text text-anchor="middle" x="537.5" y="-619" font-family="Helvetica,sans-Serif" font-size="10.00">::CLength</text>
</a>
</g>
</g>
<!-- Node41&#45;&gt;Node42 -->
<g id="edge45" class="edge">
<title>Node41&#45;&gt;Node42</title>
<path fill="none" stroke="midnightblue" d="M419.84,-627C431.92,-627 444.11,-627 455.83,-627"/>
<polygon fill="midnightblue" stroke="midnightblue" points="419.74,-623.5 409.74,-627 419.74,-630.5 419.74,-623.5"/>
</g>
<!-- Node42&#45;&gt;Node15 -->
<g id="edge46" class="edge">
<title>Node42&#45;&gt;Node15</title>
<path fill="none" stroke="midnightblue" d="M601.83,-644.73C627.49,-651.91 656.79,-660.11 681.37,-666.99"/>
<polygon fill="midnightblue" stroke="midnightblue" points="602.77,-641.35 592.19,-642.03 600.88,-648.09 602.77,-641.35"/>
</g>
<!-- Node44 -->
<g id="node44" class="node">
<title>Node44</title>
<g id="a_node44"><a xlink:href="class_black_misc_1_1_physical_quantities_1_1_c_temperature.html" target="_top" xlink:title="Physical unit temperature.">
<polygon fill="none" stroke="black" points="456,-66 456,-96 619,-96 619,-66 456,-66"/>
<text text-anchor="start" x="464" y="-84" font-family="Helvetica,sans-Serif" font-size="10.00">BlackMisc::PhysicalQuantities</text>
<text text-anchor="middle" x="537.5" y="-73" font-family="Helvetica,sans-Serif" font-size="10.00">::CTemperature</text>
</a>
</g>
</g>
<!-- Node43&#45;&gt;Node44 -->
<g id="edge48" class="edge">
<title>Node43&#45;&gt;Node44</title>
<path fill="none" stroke="midnightblue" d="M422.57,-81C433.8,-81 445.1,-81 455.98,-81"/>
<polygon fill="midnightblue" stroke="midnightblue" points="422.28,-77.5 412.28,-81 422.28,-84.5 422.28,-77.5"/>
</g>
<!-- Node46 -->
<g id="node46" class="node">
<title>Node46</title>
<g id="a_node46"><a xlink:href="class_black_misc_1_1_physical_quantities_1_1_c_frequency.html" target="_top" xlink:title="Physical unit frequency.">
<polygon fill="none" stroke="black" points="456,-6 456,-36 619,-36 619,-6 456,-6"/>
<text text-anchor="start" x="464" y="-24" font-family="Helvetica,sans-Serif" font-size="10.00">BlackMisc::PhysicalQuantities</text>
<text text-anchor="middle" x="537.5" y="-13" font-family="Helvetica,sans-Serif" font-size="10.00">::CFrequency</text>
</a>
</g>
</g>
<!-- Node45&#45;&gt;Node46 -->
<g id="edge50" class="edge">
<title>Node45&#45;&gt;Node46</title>
<path fill="none" stroke="midnightblue" d="M428.17,-21C437.53,-21 446.88,-21 455.94,-21"/>
<polygon fill="midnightblue" stroke="midnightblue" points="428.03,-17.5 418.03,-21 428.03,-24.5 428.03,-17.5"/>
</g>
</g>
</svg>
