<?xml version="1.0" encoding="UTF-8" standalone="no"?>
<!DOCTYPE svg PUBLIC "-//W3C//DTD SVG 1.1//EN"
 "http://www.w3.org/Graphics/SVG/1.1/DTD/svg11.dtd">
<!-- Generated by graphviz version 2.43.0 (0)
 -->
<!-- Title: BlackGui::Components::CInterpolationLogDisplayDialog Pages: 1 -->
<svg width="185pt" height="207pt"
 viewBox="0.00 0.00 185.00 207.00" xmlns="http://www.w3.org/2000/svg" xmlns:xlink="http://www.w3.org/1999/xlink">
<g id="graph0" class="graph" transform="scale(1 1) rotate(0) translate(4 203)">
<title>BlackGui::Components::CInterpolationLogDisplayDialog</title>
<!-- Node1 -->
<g id="node1" class="node">
<title>Node1</title>
<g id="a_node1"><a xlink:title="CInterpolationLogDisplay as dialog.">
<polygon fill="#bfbfbf" stroke="black" points="0,-0.5 0,-30.5 177,-30.5 177,-0.5 0,-0.5"/>
<text text-anchor="start" x="8" y="-18.5" font-family="Helvetica,sans-Serif" font-size="10.00">BlackGui::Components</text>
<text text-anchor="middle" x="88.5" y="-7.5" font-family="Helvetica,sans-Serif" font-size="10.00">::CInterpolationLogDisplayDialog</text>
</a>
</g>
</g>
<!-- Node2 -->
<g id="node2" class="node">
<title>Node2</title>
<g id="a_node2"><a target="_parent" xlink:href="http://doc.qt.io/qt-5/qdialog.html" xlink:title=" ">
<polygon fill="none" stroke="black" points="60.5,-67.5 60.5,-86.5 116.5,-86.5 116.5,-67.5 60.5,-67.5"/>
<text text-anchor="middle" x="88.5" y="-74.5" font-family="Helvetica,sans-Serif" font-size="10.00">QDialog</text>
</a>
</g>
</g>
<!-- Node2&#45;&gt;Node1 -->
<g id="edge1" class="edge">
<title>Node2&#45;&gt;Node1</title>
<path fill="none" stroke="midnightblue" d="M88.5,-57.23C88.5,-48.59 88.5,-38.5 88.5,-30.52"/>
<polygon fill="midnightblue" stroke="midnightblue" points="85,-57.48 88.5,-67.48 92,-57.48 85,-57.48"/>
</g>
<!-- Node3 -->
<g id="node3" class="node">
<title>Node3</title>
<g id="a_node3"><a target="_parent" xlink:href="http://doc.qt.io/qt-5/qwidget.html" xlink:title=" ">
<polygon fill="none" stroke="black" points="59,-123.5 59,-142.5 118,-142.5 118,-123.5 59,-123.5"/>
<text text-anchor="middle" x="88.5" y="-130.5" font-family="Helvetica,sans-Serif" font-size="10.00">QWidget</text>
</a>
</g>
</g>
<!-- Node3&#45;&gt;Node2 -->
<g id="edge2" class="edge">
<title>Node3&#45;&gt;Node2</title>
<path fill="none" stroke="midnightblue" d="M88.5,-112.8C88.5,-103.91 88.5,-93.78 88.5,-86.75"/>
<polygon fill="midnightblue" stroke="midnightblue" points="85,-113.08 88.5,-123.08 92,-113.08 85,-113.08"/>
</g>
<!-- Node4 -->
<g id="node4" class="node">
<title>Node4</title>
<g id="a_node4"><a target="_parent" xlink:href="http://doc.qt.io/qt-5/qobject.html" xlink:title=" ">
<polygon fill="none" stroke="black" points="17.5,-179.5 17.5,-198.5 73.5,-198.5 73.5,-179.5 17.5,-179.5"/>
<text text-anchor="middle" x="45.5" y="-186.5" font-family="Helvetica,sans-Serif" font-size="10.00">QObject</text>
</a>
</g>
</g>
<!-- Node4&#45;&gt;Node3 -->
<g id="edge3" class="edge">
<title>Node4&#45;&gt;Node3</title>
<path fill="none" stroke="midnightblue" d="M58.92,-171.14C66.41,-161.74 75.44,-150.4 81.53,-142.75"/>
<polygon fill="midnightblue" stroke="midnightblue" points="56.09,-169.08 52.6,-179.08 61.57,-173.44 56.09,-169.08"/>
</g>
<!-- Node5 -->
<g id="node5" class="node">
<title>Node5</title>
<g id="a_node5"><a target="_parent" xlink:href="http://doc.qt.io/qt-5/qpaintdevice.html" xlink:title=" ">
<polygon fill="none" stroke="black" points="91.5,-179.5 91.5,-198.5 173.5,-198.5 173.5,-179.5 91.5,-179.5"/>
<text text-anchor="middle" x="132.5" y="-186.5" font-family="Helvetica,sans-Serif" font-size="10.00">QPaintDevice</text>
</a>
</g>
</g>
<!-- Node5&#45;&gt;Node3 -->
<g id="edge4" class="edge">
<title>Node5&#45;&gt;Node3</title>
<path fill="none" stroke="midnightblue" d="M118.77,-171.14C111.1,-161.74 101.87,-150.4 95.63,-142.75"/>
<polygon fill="midnightblue" stroke="midnightblue" points="116.2,-173.54 125.23,-179.08 121.63,-169.12 116.2,-173.54"/>
</g>
</g>
</svg>
