<?xml version="1.0" encoding="UTF-8" standalone="no"?>
<!DOCTYPE svg PUBLIC "-//W3C//DTD SVG 1.1//EN"
 "http://www.w3.org/Graphics/SVG/1.1/DTD/svg11.dtd">
<!-- Generated by graphviz version 2.43.0 (0)
 -->
<!-- Title: BlackGui::IPluginConfig Pages: 1 -->
<svg width="331pt" height="235pt"
 viewBox="0.00 0.00 331.00 235.00" xmlns="http://www.w3.org/2000/svg" xmlns:xlink="http://www.w3.org/1999/xlink">
<g id="graph0" class="graph" transform="scale(1 1) rotate(0) translate(4 231)">
<title>BlackGui::IPluginConfig</title>
<!-- Node1 -->
<g id="node1" class="node">
<title>Node1</title>
<g id="a_node1"><a xlink:title="The interface for the plugin config.">
<polygon fill="#bfbfbf" stroke="black" points="0,-104 0,-123 130,-123 130,-104 0,-104"/>
<text text-anchor="middle" x="65" y="-111" font-family="Helvetica,sans-Serif" font-size="10.00">BlackGui::IPluginConfig</text>
</a>
</g>
</g>
<!-- Node2 -->
<g id="node2" class="node">
<title>Node2</title>
<g id="a_node2"><a xlink:href="class_black_sim_plugin_1_1_emulated_1_1_c_simulator_emulated_config.html" target="_top" xlink:title="Window for setting up the FSX plugin.">
<polygon fill="none" stroke="black" points="167.5,-196.5 167.5,-226.5 321.5,-226.5 321.5,-196.5 167.5,-196.5"/>
<text text-anchor="start" x="175.5" y="-214.5" font-family="Helvetica,sans-Serif" font-size="10.00">BlackSimPlugin::Emulated</text>
<text text-anchor="middle" x="244.5" y="-203.5" font-family="Helvetica,sans-Serif" font-size="10.00">::CSimulatorEmulatedConfig</text>
</a>
</g>
</g>
<!-- Node1&#45;&gt;Node2 -->
<g id="edge1" class="edge">
<title>Node1&#45;&gt;Node2</title>
<path fill="none" stroke="midnightblue" d="M83.91,-129.7C103.02,-146.25 134.78,-171.69 166,-187.5 172.53,-190.81 179.61,-193.76 186.74,-196.37"/>
<polygon fill="midnightblue" stroke="midnightblue" points="86.12,-126.99 76.3,-123 81.49,-132.24 86.12,-126.99"/>
</g>
<!-- Node3 -->
<g id="node3" class="node">
<title>Node3</title>
<g id="a_node3"><a xlink:href="class_black_sim_plugin_1_1_flightgear_1_1_c_simulator_flightgear_config.html" target="_top" xlink:title="Config plugin for the Flightgear plugin.">
<polygon fill="none" stroke="black" points="166,-147.5 166,-177.5 323,-177.5 323,-147.5 166,-147.5"/>
<text text-anchor="start" x="174" y="-165.5" font-family="Helvetica,sans-Serif" font-size="10.00">BlackSimPlugin::Flightgear</text>
<text text-anchor="middle" x="244.5" y="-154.5" font-family="Helvetica,sans-Serif" font-size="10.00">::CSimulatorFlightgearConfig</text>
</a>
</g>
</g>
<!-- Node1&#45;&gt;Node3 -->
<g id="edge2" class="edge">
<title>Node1&#45;&gt;Node3</title>
<path fill="none" stroke="midnightblue" d="M110.47,-125.78C134.3,-132.35 163.84,-140.51 189.03,-147.46"/>
<polygon fill="midnightblue" stroke="midnightblue" points="111.22,-122.35 100.65,-123.06 109.35,-129.1 111.22,-122.35"/>
</g>
<!-- Node4 -->
<g id="node4" class="node">
<title>Node4</title>
<g id="a_node4"><a xlink:href="class_black_sim_plugin_1_1_fsx_1_1_c_simulator_fsx_config.html" target="_top" xlink:title="Window for setting up the FSX plugin.">
<polygon fill="none" stroke="black" points="182,-98.5 182,-128.5 307,-128.5 307,-98.5 182,-98.5"/>
<text text-anchor="start" x="190" y="-116.5" font-family="Helvetica,sans-Serif" font-size="10.00">BlackSimPlugin::Fsx</text>
<text text-anchor="middle" x="244.5" y="-105.5" font-family="Helvetica,sans-Serif" font-size="10.00">::CSimulatorFsxConfig</text>
</a>
</g>
</g>
<!-- Node1&#45;&gt;Node4 -->
<g id="edge3" class="edge">
<title>Node1&#45;&gt;Node4</title>
<path fill="none" stroke="midnightblue" d="M140.1,-113.5C154.01,-113.5 168.41,-113.5 181.89,-113.5"/>
<polygon fill="midnightblue" stroke="midnightblue" points="140.08,-110 130.08,-113.5 140.08,-117 140.08,-110"/>
</g>
<!-- Node5 -->
<g id="node5" class="node">
<title>Node5</title>
<g id="a_node5"><a xlink:href="class_black_sim_plugin_1_1_p3_d_1_1_c_simulator_p3_d_config.html" target="_top" xlink:title="Window for setting up the P3D plugin.">
<polygon fill="none" stroke="black" points="181,-49.5 181,-79.5 308,-79.5 308,-49.5 181,-49.5"/>
<text text-anchor="start" x="189" y="-67.5" font-family="Helvetica,sans-Serif" font-size="10.00">BlackSimPlugin::P3D</text>
<text text-anchor="middle" x="244.5" y="-56.5" font-family="Helvetica,sans-Serif" font-size="10.00">::CSimulatorP3DConfig</text>
</a>
</g>
</g>
<!-- Node1&#45;&gt;Node5 -->
<g id="edge4" class="edge">
<title>Node1&#45;&gt;Node5</title>
<path fill="none" stroke="midnightblue" d="M110.47,-101.22C134.3,-94.65 163.84,-86.49 189.03,-79.54"/>
<polygon fill="midnightblue" stroke="midnightblue" points="109.35,-97.9 100.65,-103.94 111.22,-104.65 109.35,-97.9"/>
</g>
<!-- Node6 -->
<g id="node6" class="node">
<title>Node6</title>
<g id="a_node6"><a xlink:href="class_black_sim_plugin_1_1_x_plane_1_1_c_simulator_x_plane_config.html" target="_top" xlink:title="Config plugin for the X&#45;Plane plugin.">
<polygon fill="none" stroke="black" points="174,-0.5 174,-30.5 315,-30.5 315,-0.5 174,-0.5"/>
<text text-anchor="start" x="182" y="-18.5" font-family="Helvetica,sans-Serif" font-size="10.00">BlackSimPlugin::XPlane</text>
<text text-anchor="middle" x="244.5" y="-7.5" font-family="Helvetica,sans-Serif" font-size="10.00">::CSimulatorXPlaneConfig</text>
</a>
</g>
</g>
<!-- Node1&#45;&gt;Node6 -->
<g id="edge5" class="edge">
<title>Node1&#45;&gt;Node6</title>
<path fill="none" stroke="midnightblue" d="M84.3,-97.34C103.5,-81.08 135.14,-56.23 166,-40.5 173.31,-36.78 181.28,-33.46 189.24,-30.55"/>
<polygon fill="midnightblue" stroke="midnightblue" points="81.93,-94.76 76.63,-103.94 86.5,-100.07 81.93,-94.76"/>
</g>
</g>
</svg>
