<?xml version="1.0" encoding="UTF-8" standalone="no"?>
<!DOCTYPE svg PUBLIC "-//W3C//DTD SVG 1.1//EN"
 "http://www.w3.org/Graphics/SVG/1.1/DTD/svg11.dtd">
<!-- Generated by graphviz version 2.43.0 (0)
 -->
<!-- Title: BlackMisc::Simulation::IAircraftModelSetProvider Pages: 1 -->
<svg width="296pt" height="162pt"
 viewBox="0.00 0.00 295.50 162.00" xmlns="http://www.w3.org/2000/svg" xmlns:xlink="http://www.w3.org/1999/xlink">
<g id="graph0" class="graph" transform="scale(1 1) rotate(0) translate(4 158)">
<title>BlackMisc::Simulation::IAircraftModelSetProvider</title>
<!-- Node1 -->
<g id="node1" class="node">
<title>Node1</title>
<g id="a_node1"><a xlink:title="Value object encapsulating a list of aircraft models.">
<polygon fill="#bfbfbf" stroke="black" points="79.5,-67.5 79.5,-97.5 226.5,-97.5 226.5,-67.5 79.5,-67.5"/>
<text text-anchor="start" x="87.5" y="-85.5" font-family="Helvetica,sans-Serif" font-size="10.00">BlackMisc::Simulation</text>
<text text-anchor="middle" x="153" y="-74.5" font-family="Helvetica,sans-Serif" font-size="10.00">::IAircraftModelSetProvider</text>
</a>
</g>
</g>
<!-- Node3 -->
<g id="node3" class="node">
<title>Node3</title>
<g id="a_node3"><a xlink:href="class_black_core_1_1_c_aircraft_matcher.html" target="_top" xlink:title="Matcher for all models.">
<polygon fill="none" stroke="black" points="0,-6 0,-25 154,-25 154,-6 0,-6"/>
<text text-anchor="middle" x="77" y="-13" font-family="Helvetica,sans-Serif" font-size="10.00">BlackCore::CAircraftMatcher</text>
</a>
</g>
</g>
<!-- Node1&#45;&gt;Node3 -->
<g id="edge2" class="edge">
<title>Node1&#45;&gt;Node3</title>
<path fill="none" stroke="midnightblue" d="M128.65,-60.67C114.61,-48.67 97.72,-34.22 87.17,-25.19"/>
<polygon fill="midnightblue" stroke="midnightblue" points="126.63,-63.56 136.51,-67.4 131.18,-58.24 126.63,-63.56"/>
</g>
<!-- Node4 -->
<g id="node4" class="node">
<title>Node4</title>
<g id="a_node4"><a xlink:href="class_black_core_1_1_context_1_1_c_context_simulator.html" target="_top" xlink:title="Network simulator concrete implementation.">
<polygon fill="none" stroke="black" points="172.5,-0.5 172.5,-30.5 287.5,-30.5 287.5,-0.5 172.5,-0.5"/>
<text text-anchor="start" x="180.5" y="-18.5" font-family="Helvetica,sans-Serif" font-size="10.00">BlackCore::Context</text>
<text text-anchor="middle" x="230" y="-7.5" font-family="Helvetica,sans-Serif" font-size="10.00">::CContextSimulator</text>
</a>
</g>
</g>
<!-- Node1&#45;&gt;Node4 -->
<g id="edge3" class="edge">
<title>Node1&#45;&gt;Node4</title>
<path fill="none" stroke="midnightblue" d="M177.42,-60.88C189.12,-51.01 202.84,-39.43 213.32,-30.58"/>
<polygon fill="midnightblue" stroke="midnightblue" points="175.09,-58.27 169.71,-67.4 179.61,-63.62 175.09,-58.27"/>
</g>
<!-- Node2 -->
<g id="node2" class="node">
<title>Node2</title>
<g id="a_node2"><a xlink:href="class_black_misc_1_1_i_provider.html" target="_top" xlink:title="Base class for providers.">
<polygon fill="none" stroke="black" points="95,-134.5 95,-153.5 211,-153.5 211,-134.5 95,-134.5"/>
<text text-anchor="middle" x="153" y="-141.5" font-family="Helvetica,sans-Serif" font-size="10.00">BlackMisc::IProvider</text>
</a>
</g>
</g>
<!-- Node2&#45;&gt;Node1 -->
<g id="edge1" class="edge">
<title>Node2&#45;&gt;Node1</title>
<path fill="none" stroke="midnightblue" d="M153,-124.23C153,-115.59 153,-105.5 153,-97.52"/>
<polygon fill="midnightblue" stroke="midnightblue" points="149.5,-124.48 153,-134.48 156.5,-124.48 149.5,-124.48"/>
</g>
</g>
</svg>
