<?xml version="1.0" encoding="UTF-8" standalone="no"?>
<!DOCTYPE svg PUBLIC "-//W3C//DTD SVG 1.1//EN"
 "http://www.w3.org/Graphics/SVG/1.1/DTD/svg11.dtd">
<!-- Generated by graphviz version 2.43.0 (0)
 -->
<!-- Title: BlackMisc::Simulation::CDistributorList Pages: 1 -->
<svg width="763pt" height="377pt"
 viewBox="0.00 0.00 763.00 377.00" xmlns="http://www.w3.org/2000/svg" xmlns:xlink="http://www.w3.org/1999/xlink">
<g id="graph0" class="graph" transform="scale(1 1) rotate(0) translate(4 373)">
<title>BlackMisc::Simulation::CDistributorList</title>
<!-- Node1 -->
<g id="node1" class="node">
<title>Node1</title>
<g id="a_node1"><a xlink:title="Value object encapsulating a list of distributors.">
<polygon fill="#bfbfbf" stroke="black" points="630,-76.5 630,-106.5 755,-106.5 755,-76.5 630,-76.5"/>
<text text-anchor="start" x="638" y="-94.5" font-family="Helvetica,sans-Serif" font-size="10.00">BlackMisc::Simulation</text>
<text text-anchor="middle" x="692.5" y="-83.5" font-family="Helvetica,sans-Serif" font-size="10.00">::CDistributorList</text>
</a>
</g>
</g>
<!-- Node2 -->
<g id="node2" class="node">
<title>Node2</title>
<g id="a_node2"><a xlink:href="class_black_misc_1_1_c_sequence.html" target="_top" xlink:title=" ">
<polygon fill="none" stroke="black" points="441.5,-180.5 441.5,-210.5 567.5,-210.5 567.5,-180.5 441.5,-180.5"/>
<text text-anchor="start" x="449.5" y="-198.5" font-family="Helvetica,sans-Serif" font-size="10.00">BlackMisc::CSequence</text>
<text text-anchor="middle" x="504.5" y="-187.5" font-family="Helvetica,sans-Serif" font-size="10.00">&lt; CDistributor &gt;</text>
</a>
</g>
</g>
<!-- Node2&#45;&gt;Node1 -->
<g id="edge1" class="edge">
<title>Node2&#45;&gt;Node1</title>
<path fill="none" stroke="midnightblue" d="M544.89,-175.64C560.31,-167.7 578.09,-158.36 594,-149.5 619.12,-135.51 647.3,-118.61 666.88,-106.68"/>
<polygon fill="midnightblue" stroke="midnightblue" points="542.94,-172.71 535.63,-180.38 546.13,-178.94 542.94,-172.71"/>
</g>
<!-- Node3 -->
<g id="node3" class="node">
<title>Node3</title>
<g id="a_node3"><a xlink:href="class_black_misc_1_1_c_container_base.html" target="_top" xlink:title="Base class for CCollection and CSequence adding mutating operations and CValueObject facility on top ...">
<polygon fill="none" stroke="black" points="222,-240.5 222,-270.5 372,-270.5 372,-240.5 222,-240.5"/>
<text text-anchor="start" x="230" y="-258.5" font-family="Helvetica,sans-Serif" font-size="10.00">BlackMisc::CContainerBase</text>
<text text-anchor="middle" x="297" y="-247.5" font-family="Helvetica,sans-Serif" font-size="10.00">&lt; Derived &gt;</text>
</a>
</g>
</g>
<!-- Node3&#45;&gt;Node2 -->
<g id="edge2" class="edge">
<title>Node3&#45;&gt;Node2</title>
<path fill="none" stroke="midnightblue" d="M359.36,-237.58C388.85,-228.98 423.79,-218.77 451.89,-210.57"/>
<polygon fill="midnightblue" stroke="midnightblue" points="358.21,-234.27 349.59,-240.44 360.17,-240.99 358.21,-234.27"/>
</g>
<!-- Node4 -->
<g id="node4" class="node">
<title>Node4</title>
<g id="a_node4"><a xlink:href="class_black_misc_1_1_c_range_base.html" target="_top" xlink:title="Any container class with begin and end iterators can inherit from this CRTP class to gain some useful...">
<polygon fill="none" stroke="black" points="22.5,-338.5 22.5,-368.5 156.5,-368.5 156.5,-338.5 22.5,-338.5"/>
<text text-anchor="start" x="30.5" y="-356.5" font-family="Helvetica,sans-Serif" font-size="10.00">BlackMisc::CRangeBase</text>
<text text-anchor="middle" x="89.5" y="-345.5" font-family="Helvetica,sans-Serif" font-size="10.00">&lt; Derived &gt;</text>
</a>
</g>
</g>
<!-- Node4&#45;&gt;Node3 -->
<g id="edge3" class="edge">
<title>Node4&#45;&gt;Node3</title>
<path fill="none" stroke="midnightblue" d="M164.63,-335.19C169.55,-333.43 174.38,-331.53 179,-329.5 215.52,-313.44 253.87,-287.09 276.33,-270.55"/>
<polygon fill="midnightblue" stroke="midnightblue" points="163.44,-331.9 155.09,-338.42 165.69,-338.53 163.44,-331.9"/>
</g>
<!-- Node5 -->
<g id="node5" class="node">
<title>Node5</title>
<g id="a_node5"><a xlink:href="class_black_misc_1_1_mixin_1_1_meta_type.html" target="_top" xlink:title="CRTP class template from which a derived class can inherit common methods dealing with the metatype o...">
<polygon fill="none" stroke="black" points="13.5,-289.5 13.5,-319.5 165.5,-319.5 165.5,-289.5 13.5,-289.5"/>
<text text-anchor="start" x="21.5" y="-307.5" font-family="Helvetica,sans-Serif" font-size="10.00">BlackMisc::Mixin::MetaType</text>
<text text-anchor="middle" x="89.5" y="-296.5" font-family="Helvetica,sans-Serif" font-size="10.00">&lt; Derived &gt;</text>
</a>
</g>
</g>
<!-- Node5&#45;&gt;Node3 -->
<g id="edge4" class="edge">
<title>Node5&#45;&gt;Node3</title>
<path fill="none" stroke="midnightblue" d="M163.49,-287.1C186.22,-281.68 211.08,-275.75 233.07,-270.51"/>
<polygon fill="midnightblue" stroke="midnightblue" points="162.47,-283.74 153.55,-289.47 164.09,-290.55 162.47,-283.74"/>
</g>
<!-- Node6 -->
<g id="node6" class="node">
<title>Node6</title>
<g id="a_node6"><a xlink:href="class_black_misc_1_1_mixin_1_1_d_bus_operators.html" target="_top" xlink:title=" ">
<polygon fill="none" stroke="black" points="0,-240.5 0,-270.5 179,-270.5 179,-240.5 0,-240.5"/>
<text text-anchor="start" x="8" y="-258.5" font-family="Helvetica,sans-Serif" font-size="10.00">BlackMisc::Mixin::DBusOperators</text>
<text text-anchor="middle" x="89.5" y="-247.5" font-family="Helvetica,sans-Serif" font-size="10.00">&lt; Derived &gt;</text>
</a>
</g>
</g>
<!-- Node6&#45;&gt;Node3 -->
<g id="edge5" class="edge">
<title>Node6&#45;&gt;Node3</title>
<path fill="none" stroke="midnightblue" d="M189.19,-255.5C200.17,-255.5 211.22,-255.5 221.82,-255.5"/>
<polygon fill="midnightblue" stroke="midnightblue" points="189.14,-252 179.14,-255.5 189.14,-259 189.14,-252"/>
</g>
<!-- Node7 -->
<g id="node7" class="node">
<title>Node7</title>
<g id="a_node7"><a xlink:href="class_black_misc_1_1_mixin_1_1_json_operators.html" target="_top" xlink:title="CRTP class template which will generate marshalling operators for a derived class with its own marsha...">
<polygon fill="none" stroke="black" points="3,-191.5 3,-221.5 176,-221.5 176,-191.5 3,-191.5"/>
<text text-anchor="start" x="11" y="-209.5" font-family="Helvetica,sans-Serif" font-size="10.00">BlackMisc::Mixin::JsonOperators</text>
<text text-anchor="middle" x="89.5" y="-198.5" font-family="Helvetica,sans-Serif" font-size="10.00">&lt; Derived &gt;</text>
</a>
</g>
</g>
<!-- Node7&#45;&gt;Node3 -->
<g id="edge6" class="edge">
<title>Node7&#45;&gt;Node3</title>
<path fill="none" stroke="midnightblue" d="M163.49,-223.9C186.22,-229.32 211.08,-235.25 233.07,-240.49"/>
<polygon fill="midnightblue" stroke="midnightblue" points="164.09,-220.45 153.55,-221.53 162.47,-227.26 164.09,-220.45"/>
</g>
<!-- Node8 -->
<g id="node8" class="node">
<title>Node8</title>
<g id="a_node8"><a xlink:href="class_black_misc_1_1_mixin_1_1_string.html" target="_top" xlink:title="CRTP class template from which a derived class can inherit string streaming operations.">
<polygon fill="none" stroke="black" points="22.5,-142.5 22.5,-172.5 156.5,-172.5 156.5,-142.5 22.5,-142.5"/>
<text text-anchor="start" x="30.5" y="-160.5" font-family="Helvetica,sans-Serif" font-size="10.00">BlackMisc::Mixin::String</text>
<text text-anchor="middle" x="89.5" y="-149.5" font-family="Helvetica,sans-Serif" font-size="10.00">&lt; Derived &gt;</text>
</a>
</g>
</g>
<!-- Node8&#45;&gt;Node3 -->
<g id="edge7" class="edge">
<title>Node8&#45;&gt;Node3</title>
<path fill="none" stroke="midnightblue" d="M166.05,-174.98C170.59,-177.2 174.95,-179.69 179,-182.5 201.21,-197.9 192.89,-215.96 215,-231.5 219.92,-234.96 225.34,-237.92 230.98,-240.47"/>
<polygon fill="midnightblue" stroke="midnightblue" points="167.1,-171.62 156.53,-170.81 164.29,-178.03 167.1,-171.62"/>
</g>
<!-- Node9 -->
<g id="node9" class="node">
<title>Node9</title>
<g id="a_node9"><a xlink:href="class_black_misc_1_1_mixin_1_1_data_stream_operators.html" target="_top" xlink:title="CRTP class template to generate non&#45;member QDataStream streaming operators.">
<polygon fill="none" stroke="black" points="215,-191.5 215,-221.5 379,-221.5 379,-191.5 215,-191.5"/>
<text text-anchor="start" x="223" y="-209.5" font-family="Helvetica,sans-Serif" font-size="10.00">BlackMisc::Mixin::DataStream</text>
<text text-anchor="middle" x="297" y="-198.5" font-family="Helvetica,sans-Serif" font-size="10.00">Operators&lt; Derived &gt;</text>
</a>
</g>
</g>
<!-- Node9&#45;&gt;Node2 -->
<g id="edge8" class="edge">
<title>Node9&#45;&gt;Node2</title>
<path fill="none" stroke="midnightblue" d="M389.46,-201.6C406.97,-200.67 424.92,-199.71 441.25,-198.83"/>
<polygon fill="midnightblue" stroke="midnightblue" points="389.02,-198.12 379.22,-202.15 389.39,-205.11 389.02,-198.12"/>
</g>
<!-- Node10 -->
<g id="node10" class="node">
<title>Node10</title>
<g id="a_node10"><a xlink:href="class_black_misc_1_1_mixin_1_1_icon.html" target="_top" xlink:title="CRTP class template from which a derived class can inherit icon&#45;related functions.">
<polygon fill="none" stroke="black" points="231.5,-142.5 231.5,-172.5 362.5,-172.5 362.5,-142.5 231.5,-142.5"/>
<text text-anchor="start" x="239.5" y="-160.5" font-family="Helvetica,sans-Serif" font-size="10.00">BlackMisc::Mixin::Icon</text>
<text text-anchor="middle" x="297" y="-149.5" font-family="Helvetica,sans-Serif" font-size="10.00">&lt; Derived, IconIndex &gt;</text>
</a>
</g>
</g>
<!-- Node10&#45;&gt;Node2 -->
<g id="edge9" class="edge">
<title>Node10&#45;&gt;Node2</title>
<path fill="none" stroke="midnightblue" d="M372.59,-171.29C395.1,-175.46 419.57,-179.98 441.19,-183.98"/>
<polygon fill="midnightblue" stroke="midnightblue" points="373.21,-167.85 362.74,-169.47 371.94,-174.73 373.21,-167.85"/>
</g>
<!-- Node11 -->
<g id="node11" class="node">
<title>Node11</title>
<g id="a_node11"><a xlink:href="class_black_misc_1_1_db_1_1_i_datastore_object_list.html" target="_top" xlink:title=" ">
<polygon fill="none" stroke="black" points="430,-99 430,-140 579,-140 579,-99 430,-99"/>
<text text-anchor="start" x="438" y="-128" font-family="Helvetica,sans-Serif" font-size="10.00">BlackMisc::Db::IDatastore</text>
<text text-anchor="start" x="438" y="-117" font-family="Helvetica,sans-Serif" font-size="10.00">ObjectList&lt; CDistributor,</text>
<text text-anchor="middle" x="504.5" y="-106" font-family="Helvetica,sans-Serif" font-size="10.00"> CDistributorList, QString &gt;</text>
</a>
</g>
</g>
<!-- Node11&#45;&gt;Node1 -->
<g id="edge10" class="edge">
<title>Node11&#45;&gt;Node1</title>
<path fill="none" stroke="midnightblue" d="M588.97,-106.93C602.75,-104.86 616.8,-102.75 629.91,-100.77"/>
<polygon fill="midnightblue" stroke="midnightblue" points="588.38,-103.48 579.01,-108.43 589.42,-110.41 588.38,-103.48"/>
</g>
<!-- Node12 -->
<g id="node12" class="node">
<title>Node12</title>
<g id="a_node12"><a xlink:href="class_black_misc_1_1_i_timestamp_object_list.html" target="_top" xlink:title="List of objects with timestamp. Such objects should implement.">
<polygon fill="none" stroke="black" points="216,-93.5 216,-123.5 378,-123.5 378,-93.5 216,-93.5"/>
<text text-anchor="start" x="224" y="-111.5" font-family="Helvetica,sans-Serif" font-size="10.00">BlackMisc::ITimestampObject</text>
<text text-anchor="middle" x="297" y="-100.5" font-family="Helvetica,sans-Serif" font-size="10.00">List&lt; OBJ, CONTAINER &gt;</text>
</a>
</g>
</g>
<!-- Node12&#45;&gt;Node11 -->
<g id="edge11" class="edge">
<title>Node12&#45;&gt;Node11</title>
<path fill="none" stroke="midnightblue" d="M388.1,-113.32C402,-114.07 416.23,-114.83 429.72,-115.55"/>
<polygon fill="midnightblue" stroke="midnightblue" points="388.21,-109.82 378.04,-112.78 387.84,-116.81 388.21,-109.82"/>
</g>
<!-- Node13 -->
<g id="node13" class="node">
<title>Node13</title>
<g id="a_node13"><a xlink:href="class_black_misc_1_1_i_orderable_list.html" target="_top" xlink:title=" ">
<polygon fill="none" stroke="black" points="415,-49.5 415,-79.5 594,-79.5 594,-49.5 415,-49.5"/>
<text text-anchor="start" x="423" y="-67.5" font-family="Helvetica,sans-Serif" font-size="10.00">BlackMisc::IOrderableList</text>
<text text-anchor="middle" x="504.5" y="-56.5" font-family="Helvetica,sans-Serif" font-size="10.00">&lt; CDistributor, CDistributorList &gt;</text>
</a>
</g>
</g>
<!-- Node13&#45;&gt;Node1 -->
<g id="edge12" class="edge">
<title>Node13&#45;&gt;Node1</title>
<path fill="none" stroke="midnightblue" d="M604.05,-78.81C612.81,-80.08 621.51,-81.34 629.83,-82.55"/>
<polygon fill="midnightblue" stroke="midnightblue" points="604.54,-75.34 594.14,-77.37 603.54,-82.27 604.54,-75.34"/>
</g>
<!-- Node14 -->
<g id="node14" class="node">
<title>Node14</title>
<g id="a_node14"><a xlink:href="class_black_misc_1_1_mixin_1_1_meta_type.html" target="_top" xlink:title=" ">
<polygon fill="none" stroke="black" points="428.5,-0.5 428.5,-30.5 580.5,-30.5 580.5,-0.5 428.5,-0.5"/>
<text text-anchor="start" x="436.5" y="-18.5" font-family="Helvetica,sans-Serif" font-size="10.00">BlackMisc::Mixin::MetaType</text>
<text text-anchor="middle" x="504.5" y="-7.5" font-family="Helvetica,sans-Serif" font-size="10.00">&lt; CDistributorList &gt;</text>
</a>
</g>
</g>
<!-- Node14&#45;&gt;Node1 -->
<g id="edge13" class="edge">
<title>Node14&#45;&gt;Node1</title>
<path fill="none" stroke="midnightblue" d="M574.74,-33.56C581.31,-35.72 587.82,-38.04 594,-40.5 619.38,-50.6 646.83,-65.33 666.12,-76.36"/>
<polygon fill="midnightblue" stroke="midnightblue" points="575.69,-30.19 565.1,-30.51 573.57,-36.86 575.69,-30.19"/>
</g>
</g>
</svg>
