<?xml version="1.0" encoding="UTF-8" standalone="no"?>
<!DOCTYPE svg PUBLIC "-//W3C//DTD SVG 1.1//EN"
 "http://www.w3.org/Graphics/SVG/1.1/DTD/svg11.dtd">
<!-- Generated by graphviz version 2.43.0 (0)
 -->
<!-- Title: BlackGui::Views::CDistributorView Pages: 1 -->
<svg width="425pt" height="766pt"
 viewBox="0.00 0.00 424.50 766.00" xmlns="http://www.w3.org/2000/svg" xmlns:xlink="http://www.w3.org/1999/xlink">
<g id="graph0" class="graph" transform="scale(1 1) rotate(0) translate(4 762)">
<title>BlackGui::Views::CDistributorView</title>
<!-- Node1 -->
<g id="node1" class="node">
<title>Node1</title>
<g id="a_node1"><a xlink:title="Distributors.">
<polygon fill="#bfbfbf" stroke="black" points="160,-0.5 160,-19.5 344,-19.5 344,-0.5 160,-0.5"/>
<text text-anchor="middle" x="252" y="-7.5" font-family="Helvetica,sans-Serif" font-size="10.00">BlackGui::Views::CDistributorView</text>
</a>
</g>
</g>
<!-- Node2 -->
<g id="node2" class="node">
<title>Node2</title>
<g id="a_node2"><a xlink:href="class_black_gui_1_1_views_1_1_c_orderable_view_with_db_objects.html" target="_top" xlink:title=" ">
<polygon fill="none" stroke="black" points="161.5,-56.5 161.5,-97.5 342.5,-97.5 342.5,-56.5 161.5,-56.5"/>
<text text-anchor="start" x="169.5" y="-85.5" font-family="Helvetica,sans-Serif" font-size="10.00">BlackGui::Views::COrderable</text>
<text text-anchor="start" x="169.5" y="-74.5" font-family="Helvetica,sans-Serif" font-size="10.00">ViewWithDbObjects&lt; BlackGui</text>
<text text-anchor="middle" x="252" y="-63.5" font-family="Helvetica,sans-Serif" font-size="10.00">::Models::CDistributorListModel &gt;</text>
</a>
</g>
</g>
<!-- Node2&#45;&gt;Node1 -->
<g id="edge1" class="edge">
<title>Node2&#45;&gt;Node1</title>
<path fill="none" stroke="midnightblue" d="M252,-46.26C252,-36.56 252,-26.52 252,-19.65"/>
<polygon fill="midnightblue" stroke="midnightblue" points="248.5,-46.5 252,-56.5 255.5,-46.5 248.5,-46.5"/>
</g>
<!-- Node3 -->
<g id="node3" class="node">
<title>Node3</title>
<g id="a_node3"><a xlink:href="class_black_gui_1_1_views_1_1_c_view_with_db_objects.html" target="_top" xlink:title="Base class for views with DB objects.">
<polygon fill="none" stroke="black" points="174.5,-134.5 174.5,-164.5 329.5,-164.5 329.5,-134.5 174.5,-134.5"/>
<text text-anchor="start" x="182.5" y="-152.5" font-family="Helvetica,sans-Serif" font-size="10.00">BlackGui::Views::CViewWith</text>
<text text-anchor="middle" x="252" y="-141.5" font-family="Helvetica,sans-Serif" font-size="10.00">DbObjects&lt; T &gt;</text>
</a>
</g>
</g>
<!-- Node3&#45;&gt;Node2 -->
<g id="edge2" class="edge">
<title>Node3&#45;&gt;Node2</title>
<path fill="none" stroke="midnightblue" d="M252,-123.98C252,-115.35 252,-105.76 252,-97.59"/>
<polygon fill="midnightblue" stroke="midnightblue" points="248.5,-124.23 252,-134.23 255.5,-124.23 248.5,-124.23"/>
</g>
<!-- Node4 -->
<g id="node4" class="node">
<title>Node4</title>
<g id="a_node4"><a xlink:href="class_black_gui_1_1_views_1_1_c_view_base.html" target="_top" xlink:title="Base class for views.">
<polygon fill="none" stroke="black" points="159.5,-201.5 159.5,-220.5 344.5,-220.5 344.5,-201.5 159.5,-201.5"/>
<text text-anchor="middle" x="252" y="-208.5" font-family="Helvetica,sans-Serif" font-size="10.00">BlackGui::Views::CViewBase&lt; T &gt;</text>
</a>
</g>
</g>
<!-- Node4&#45;&gt;Node3 -->
<g id="edge3" class="edge">
<title>Node4&#45;&gt;Node3</title>
<path fill="none" stroke="midnightblue" d="M252,-191.23C252,-182.59 252,-172.5 252,-164.52"/>
<polygon fill="midnightblue" stroke="midnightblue" points="248.5,-191.48 252,-201.48 255.5,-191.48 248.5,-191.48"/>
</g>
<!-- Node5 -->
<g id="node5" class="node">
<title>Node5</title>
<g id="a_node5"><a xlink:href="class_black_gui_1_1_views_1_1_c_view_base_non_template.html" target="_top" xlink:title="Non templated base class, allows Q_OBJECT and signals / slots to be used.">
<polygon fill="none" stroke="black" points="87,-257.5 87,-287.5 243,-287.5 243,-257.5 87,-257.5"/>
<text text-anchor="start" x="95" y="-275.5" font-family="Helvetica,sans-Serif" font-size="10.00">BlackGui::Views::CViewBase</text>
<text text-anchor="middle" x="165" y="-264.5" font-family="Helvetica,sans-Serif" font-size="10.00">NonTemplate</text>
</a>
</g>
</g>
<!-- Node5&#45;&gt;Node4 -->
<g id="edge4" class="edge">
<title>Node5&#45;&gt;Node4</title>
<path fill="none" stroke="midnightblue" d="M194.27,-251.48C209.59,-241 227.57,-228.71 239.34,-220.66"/>
<polygon fill="midnightblue" stroke="midnightblue" points="191.9,-248.87 185.62,-257.4 195.85,-254.64 191.9,-248.87"/>
</g>
<!-- Node6 -->
<g id="node6" class="node">
<title>Node6</title>
<g id="a_node6"><a xlink:href="class_black_gui_1_1_c_overlay_messages_table_view.html" target="_top" xlink:title="Using this class provides a QTableView with the overlay functionality already integrated.">
<polygon fill="none" stroke="black" points="0,-324.5 0,-354.5 160,-354.5 160,-324.5 0,-324.5"/>
<text text-anchor="start" x="8" y="-342.5" font-family="Helvetica,sans-Serif" font-size="10.00">BlackGui::COverlayMessages</text>
<text text-anchor="middle" x="80" y="-331.5" font-family="Helvetica,sans-Serif" font-size="10.00">TableView</text>
</a>
</g>
</g>
<!-- Node6&#45;&gt;Node5 -->
<g id="edge5" class="edge">
<title>Node6&#45;&gt;Node5</title>
<path fill="none" stroke="midnightblue" d="M106.59,-318.17C119.59,-308.23 134.9,-296.51 146.59,-287.58"/>
<polygon fill="midnightblue" stroke="midnightblue" points="104.26,-315.54 98.44,-324.4 108.51,-321.1 104.26,-315.54"/>
</g>
<!-- Node7 -->
<g id="node7" class="node">
<title>Node7</title>
<g id="a_node7"><a xlink:href="class_black_gui_1_1_c_overlay_messages_base.html" target="_top" xlink:title=" ">
<polygon fill="none" stroke="black" points="0,-391.5 0,-421.5 160,-421.5 160,-391.5 0,-391.5"/>
<text text-anchor="start" x="8" y="-409.5" font-family="Helvetica,sans-Serif" font-size="10.00">BlackGui::COverlayMessages</text>
<text text-anchor="middle" x="80" y="-398.5" font-family="Helvetica,sans-Serif" font-size="10.00">Base&lt; QTableView &gt;</text>
</a>
</g>
</g>
<!-- Node7&#45;&gt;Node6 -->
<g id="edge6" class="edge">
<title>Node7&#45;&gt;Node6</title>
<path fill="none" stroke="midnightblue" d="M80,-381.11C80,-372.15 80,-362.32 80,-354.58"/>
<polygon fill="midnightblue" stroke="midnightblue" points="76.5,-381.4 80,-391.4 83.5,-381.4 76.5,-381.4"/>
</g>
<!-- Node8 -->
<g id="node8" class="node">
<title>Node8</title>
<g id="a_node8"><a target="_parent" xlink:href="http://doc.qt.io/qt-5/qtableview.html" xlink:title=" ">
<polygon fill="none" stroke="black" points="43,-458.5 43,-477.5 117,-477.5 117,-458.5 43,-458.5"/>
<text text-anchor="middle" x="80" y="-465.5" font-family="Helvetica,sans-Serif" font-size="10.00">QTableView</text>
</a>
</g>
</g>
<!-- Node8&#45;&gt;Node7 -->
<g id="edge7" class="edge">
<title>Node8&#45;&gt;Node7</title>
<path fill="none" stroke="midnightblue" d="M80,-448.23C80,-439.59 80,-429.5 80,-421.52"/>
<polygon fill="midnightblue" stroke="midnightblue" points="76.5,-448.48 80,-458.48 83.5,-448.48 76.5,-448.48"/>
</g>
<!-- Node9 -->
<g id="node9" class="node">
<title>Node9</title>
<g id="a_node9"><a target="_parent" xlink:href="http://doc.qt.io/qt-5/qabstractitemview.html" xlink:title=" ">
<polygon fill="none" stroke="black" points="24.5,-514.5 24.5,-533.5 135.5,-533.5 135.5,-514.5 24.5,-514.5"/>
<text text-anchor="middle" x="80" y="-521.5" font-family="Helvetica,sans-Serif" font-size="10.00">QAbstractItemView</text>
</a>
</g>
</g>
<!-- Node9&#45;&gt;Node8 -->
<g id="edge8" class="edge">
<title>Node9&#45;&gt;Node8</title>
<path fill="none" stroke="midnightblue" d="M80,-503.8C80,-494.91 80,-484.78 80,-477.75"/>
<polygon fill="midnightblue" stroke="midnightblue" points="76.5,-504.08 80,-514.08 83.5,-504.08 76.5,-504.08"/>
</g>
<!-- Node10 -->
<g id="node10" class="node">
<title>Node10</title>
<g id="a_node10"><a target="_parent" xlink:href="http://doc.qt.io/qt-5/qabstractscrollarea.html" xlink:title=" ">
<polygon fill="none" stroke="black" points="23,-570.5 23,-589.5 137,-589.5 137,-570.5 23,-570.5"/>
<text text-anchor="middle" x="80" y="-577.5" font-family="Helvetica,sans-Serif" font-size="10.00">QAbstractScrollArea</text>
</a>
</g>
</g>
<!-- Node10&#45;&gt;Node9 -->
<g id="edge9" class="edge">
<title>Node10&#45;&gt;Node9</title>
<path fill="none" stroke="midnightblue" d="M80,-559.8C80,-550.91 80,-540.78 80,-533.75"/>
<polygon fill="midnightblue" stroke="midnightblue" points="76.5,-560.08 80,-570.08 83.5,-560.08 76.5,-560.08"/>
</g>
<!-- Node11 -->
<g id="node11" class="node">
<title>Node11</title>
<g id="a_node11"><a target="_parent" xlink:href="http://doc.qt.io/qt-5/qframe.html" xlink:title=" ">
<polygon fill="none" stroke="black" points="52.5,-626.5 52.5,-645.5 107.5,-645.5 107.5,-626.5 52.5,-626.5"/>
<text text-anchor="middle" x="80" y="-633.5" font-family="Helvetica,sans-Serif" font-size="10.00">QFrame</text>
</a>
</g>
</g>
<!-- Node11&#45;&gt;Node10 -->
<g id="edge10" class="edge">
<title>Node11&#45;&gt;Node10</title>
<path fill="none" stroke="midnightblue" d="M80,-615.8C80,-606.91 80,-596.78 80,-589.75"/>
<polygon fill="midnightblue" stroke="midnightblue" points="76.5,-616.08 80,-626.08 83.5,-616.08 76.5,-616.08"/>
</g>
<!-- Node12 -->
<g id="node12" class="node">
<title>Node12</title>
<g id="a_node12"><a target="_parent" xlink:href="http://doc.qt.io/qt-5/qwidget.html" xlink:title=" ">
<polygon fill="none" stroke="black" points="50.5,-682.5 50.5,-701.5 109.5,-701.5 109.5,-682.5 50.5,-682.5"/>
<text text-anchor="middle" x="80" y="-689.5" font-family="Helvetica,sans-Serif" font-size="10.00">QWidget</text>
</a>
</g>
</g>
<!-- Node12&#45;&gt;Node11 -->
<g id="edge11" class="edge">
<title>Node12&#45;&gt;Node11</title>
<path fill="none" stroke="midnightblue" d="M80,-671.8C80,-662.91 80,-652.78 80,-645.75"/>
<polygon fill="midnightblue" stroke="midnightblue" points="76.5,-672.08 80,-682.08 83.5,-672.08 76.5,-672.08"/>
</g>
<!-- Node13 -->
<g id="node13" class="node">
<title>Node13</title>
<g id="a_node13"><a target="_parent" xlink:href="http://doc.qt.io/qt-5/qobject.html" xlink:title=" ">
<polygon fill="none" stroke="black" points="9,-738.5 9,-757.5 65,-757.5 65,-738.5 9,-738.5"/>
<text text-anchor="middle" x="37" y="-745.5" font-family="Helvetica,sans-Serif" font-size="10.00">QObject</text>
</a>
</g>
</g>
<!-- Node13&#45;&gt;Node12 -->
<g id="edge12" class="edge">
<title>Node13&#45;&gt;Node12</title>
<path fill="none" stroke="midnightblue" d="M50.42,-730.14C57.91,-720.74 66.94,-709.4 73.03,-701.75"/>
<polygon fill="midnightblue" stroke="midnightblue" points="47.59,-728.08 44.1,-738.08 53.07,-732.44 47.59,-728.08"/>
</g>
<!-- Node14 -->
<g id="node14" class="node">
<title>Node14</title>
<g id="a_node14"><a target="_parent" xlink:href="http://doc.qt.io/qt-5/qpaintdevice.html" xlink:title=" ">
<polygon fill="none" stroke="black" points="83,-738.5 83,-757.5 165,-757.5 165,-738.5 83,-738.5"/>
<text text-anchor="middle" x="124" y="-745.5" font-family="Helvetica,sans-Serif" font-size="10.00">QPaintDevice</text>
</a>
</g>
</g>
<!-- Node14&#45;&gt;Node12 -->
<g id="edge13" class="edge">
<title>Node14&#45;&gt;Node12</title>
<path fill="none" stroke="midnightblue" d="M110.27,-730.14C102.6,-720.74 93.37,-709.4 87.13,-701.75"/>
<polygon fill="midnightblue" stroke="midnightblue" points="107.7,-732.54 116.73,-738.08 113.13,-728.12 107.7,-732.54"/>
</g>
<!-- Node15 -->
<g id="node15" class="node">
<title>Node15</title>
<g id="a_node15"><a xlink:href="class_black_gui_1_1_c_enable_for_dock_widget_info_area.html" target="_top" xlink:title="Helper class: If a component is residing in an dockable widget. This class provides access to its inf...">
<polygon fill="none" stroke="black" points="178,-324.5 178,-354.5 324,-354.5 324,-324.5 178,-324.5"/>
<text text-anchor="start" x="186" y="-342.5" font-family="Helvetica,sans-Serif" font-size="10.00">BlackGui::CEnableForDock</text>
<text text-anchor="middle" x="251" y="-331.5" font-family="Helvetica,sans-Serif" font-size="10.00">WidgetInfoArea</text>
</a>
</g>
</g>
<!-- Node15&#45;&gt;Node5 -->
<g id="edge14" class="edge">
<title>Node15&#45;&gt;Node5</title>
<path fill="none" stroke="midnightblue" d="M224.1,-318.17C210.95,-308.23 195.45,-296.51 183.62,-287.58"/>
<polygon fill="midnightblue" stroke="midnightblue" points="222.25,-321.16 232.34,-324.4 226.47,-315.57 222.25,-321.16"/>
</g>
<!-- Node16 -->
<g id="node16" class="node">
<title>Node16</title>
<g id="a_node16"><a xlink:href="class_black_gui_1_1_models_1_1_i_selection_model.html" target="_top" xlink:title=" ">
<polygon fill="none" stroke="black" points="261.5,-257.5 261.5,-287.5 416.5,-287.5 416.5,-257.5 261.5,-257.5"/>
<text text-anchor="start" x="269.5" y="-275.5" font-family="Helvetica,sans-Serif" font-size="10.00">BlackGui::Models::ISelection</text>
<text text-anchor="middle" x="339" y="-264.5" font-family="Helvetica,sans-Serif" font-size="10.00">Model&lt; T::ContainerType &gt;</text>
</a>
</g>
</g>
<!-- Node16&#45;&gt;Node4 -->
<g id="edge15" class="edge">
<title>Node16&#45;&gt;Node4</title>
<path fill="none" stroke="midnightblue" d="M309.73,-251.48C294.41,-241 276.43,-228.71 264.66,-220.66"/>
<polygon fill="midnightblue" stroke="midnightblue" points="308.15,-254.64 318.38,-257.4 312.1,-248.87 308.15,-254.64"/>
</g>
</g>
</svg>
