<?xml version="1.0" encoding="UTF-8" standalone="no"?>
<!DOCTYPE svg PUBLIC "-//W3C//DTD SVG 1.1//EN"
 "http://www.w3.org/Graphics/SVG/1.1/DTD/svg11.dtd">
<!-- Generated by graphviz version 2.43.0 (0)
 -->
<!-- Title: BlackMisc::Simulation::Data::TModelCache Pages: 1 -->
<svg width="490pt" height="529pt"
 viewBox="0.00 0.00 490.00 529.00" xmlns="http://www.w3.org/2000/svg" xmlns:xlink="http://www.w3.org/1999/xlink">
<g id="graph0" class="graph" transform="scale(1 1) rotate(0) translate(4 525)">
<title>BlackMisc::Simulation::Data::TModelCache</title>
<!-- Node1 -->
<g id="node1" class="node">
<title>Node1</title>
<g id="a_node1"><a xlink:title="Trait for model cache.">
<polygon fill="#bfbfbf" stroke="black" points="164,-245.5 164,-275.5 289,-275.5 289,-245.5 164,-245.5"/>
<text text-anchor="start" x="172" y="-263.5" font-family="Helvetica,sans-Serif" font-size="10.00">BlackMisc::Simulation</text>
<text text-anchor="middle" x="226.5" y="-252.5" font-family="Helvetica,sans-Serif" font-size="10.00">::Data::TModelCache</text>
</a>
</g>
</g>
<!-- Node3 -->
<g id="node3" class="node">
<title>Node3</title>
<g id="a_node3"><a xlink:href="struct_black_misc_1_1_simulation_1_1_data_1_1_t_model_cache_f_g.html" target="_top" xlink:title="FG.">
<polygon fill="none" stroke="black" points="338,-490.5 338,-520.5 469,-520.5 469,-490.5 338,-490.5"/>
<text text-anchor="start" x="346" y="-508.5" font-family="Helvetica,sans-Serif" font-size="10.00">BlackMisc::Simulation</text>
<text text-anchor="middle" x="403.5" y="-497.5" font-family="Helvetica,sans-Serif" font-size="10.00">::Data::TModelCacheFG</text>
</a>
</g>
</g>
<!-- Node1&#45;&gt;Node3 -->
<g id="edge2" class="edge">
<title>Node1&#45;&gt;Node3</title>
<path fill="none" stroke="midnightblue" d="M231.57,-285.58C240.31,-331.24 265.14,-428.17 325,-481.5 328.89,-484.97 333.28,-487.93 337.93,-490.47"/>
<polygon fill="midnightblue" stroke="midnightblue" points="235,-284.85 229.77,-275.63 228.11,-286.09 235,-284.85"/>
</g>
<!-- Node4 -->
<g id="node4" class="node">
<title>Node4</title>
<g id="a_node4"><a xlink:href="struct_black_misc_1_1_simulation_1_1_data_1_1_t_model_cache_fs9.html" target="_top" xlink:title="FS9.">
<polygon fill="none" stroke="black" points="336,-441.5 336,-471.5 471,-471.5 471,-441.5 336,-441.5"/>
<text text-anchor="start" x="344" y="-459.5" font-family="Helvetica,sans-Serif" font-size="10.00">BlackMisc::Simulation</text>
<text text-anchor="middle" x="403.5" y="-448.5" font-family="Helvetica,sans-Serif" font-size="10.00">::Data::TModelCacheFs9</text>
</a>
</g>
</g>
<!-- Node1&#45;&gt;Node4 -->
<g id="edge3" class="edge">
<title>Node1&#45;&gt;Node4</title>
<path fill="none" stroke="midnightblue" d="M234.96,-285.27C247.47,-322.65 276.24,-393.25 325,-432.5 329.28,-435.94 334.05,-438.9 339.07,-441.43"/>
<polygon fill="midnightblue" stroke="midnightblue" points="238.26,-284.1 231.86,-275.66 231.6,-286.25 238.26,-284.1"/>
</g>
<!-- Node5 -->
<g id="node5" class="node">
<title>Node5</title>
<g id="a_node5"><a xlink:href="struct_black_misc_1_1_simulation_1_1_data_1_1_t_model_cache_fsx.html" target="_top" xlink:title="FSX.">
<polygon fill="none" stroke="black" points="336,-392.5 336,-422.5 471,-422.5 471,-392.5 336,-392.5"/>
<text text-anchor="start" x="344" y="-410.5" font-family="Helvetica,sans-Serif" font-size="10.00">BlackMisc::Simulation</text>
<text text-anchor="middle" x="403.5" y="-399.5" font-family="Helvetica,sans-Serif" font-size="10.00">::Data::TModelCacheFsx</text>
</a>
</g>
</g>
<!-- Node1&#45;&gt;Node5 -->
<g id="edge4" class="edge">
<title>Node1&#45;&gt;Node5</title>
<path fill="none" stroke="midnightblue" d="M240.49,-284.49C256.72,-312.26 287.02,-357.5 325,-383.5 330,-386.92 335.5,-389.87 341.2,-392.41"/>
<polygon fill="midnightblue" stroke="midnightblue" points="243.53,-282.75 235.54,-275.8 237.45,-286.22 243.53,-282.75"/>
</g>
<!-- Node6 -->
<g id="node6" class="node">
<title>Node6</title>
<g id="a_node6"><a xlink:href="struct_black_misc_1_1_simulation_1_1_data_1_1_t_model_cache_p3_d.html" target="_top" xlink:title="P3D.">
<polygon fill="none" stroke="black" points="335,-343.5 335,-373.5 472,-373.5 472,-343.5 335,-343.5"/>
<text text-anchor="start" x="343" y="-361.5" font-family="Helvetica,sans-Serif" font-size="10.00">BlackMisc::Simulation</text>
<text text-anchor="middle" x="403.5" y="-350.5" font-family="Helvetica,sans-Serif" font-size="10.00">::Data::TModelCacheP3D</text>
</a>
</g>
</g>
<!-- Node1&#45;&gt;Node6 -->
<g id="edge5" class="edge">
<title>Node1&#45;&gt;Node6</title>
<path fill="none" stroke="midnightblue" d="M251.29,-282.36C270.11,-298.66 297.67,-320.45 325,-334.5 331.51,-337.85 338.58,-340.83 345.7,-343.45"/>
<polygon fill="midnightblue" stroke="midnightblue" points="253.36,-279.52 243.55,-275.53 248.73,-284.77 253.36,-279.52"/>
</g>
<!-- Node7 -->
<g id="node7" class="node">
<title>Node7</title>
<g id="a_node7"><a xlink:href="struct_black_misc_1_1_simulation_1_1_data_1_1_t_model_cache_x_p.html" target="_top" xlink:title="XPlane.">
<polygon fill="none" stroke="black" points="338,-294.5 338,-324.5 469,-324.5 469,-294.5 338,-294.5"/>
<text text-anchor="start" x="346" y="-312.5" font-family="Helvetica,sans-Serif" font-size="10.00">BlackMisc::Simulation</text>
<text text-anchor="middle" x="403.5" y="-301.5" font-family="Helvetica,sans-Serif" font-size="10.00">::Data::TModelCacheXP</text>
</a>
</g>
</g>
<!-- Node1&#45;&gt;Node7 -->
<g id="edge6" class="edge">
<title>Node1&#45;&gt;Node7</title>
<path fill="none" stroke="midnightblue" d="M291.15,-278.32C310.04,-283.61 330.54,-289.35 348.74,-294.45"/>
<polygon fill="midnightblue" stroke="midnightblue" points="292.01,-274.93 281.43,-275.6 290.12,-281.67 292.01,-274.93"/>
</g>
<!-- Node8 -->
<g id="node8" class="node">
<title>Node8</title>
<g id="a_node8"><a xlink:href="struct_black_misc_1_1_simulation_1_1_data_1_1_t_model_set_cache_f_g.html" target="_top" xlink:title="FG.">
<polygon fill="none" stroke="black" points="330,-245.5 330,-275.5 477,-275.5 477,-245.5 330,-245.5"/>
<text text-anchor="start" x="338" y="-263.5" font-family="Helvetica,sans-Serif" font-size="10.00">BlackMisc::Simulation</text>
<text text-anchor="middle" x="403.5" y="-252.5" font-family="Helvetica,sans-Serif" font-size="10.00">::Data::TModelSetCacheFG</text>
</a>
</g>
</g>
<!-- Node1&#45;&gt;Node8 -->
<g id="edge7" class="edge">
<title>Node1&#45;&gt;Node8</title>
<path fill="none" stroke="midnightblue" d="M299.23,-260.5C309.38,-260.5 319.82,-260.5 329.98,-260.5"/>
<polygon fill="midnightblue" stroke="midnightblue" points="299.2,-257 289.2,-260.5 299.2,-264 299.2,-257"/>
</g>
<!-- Node9 -->
<g id="node9" class="node">
<title>Node9</title>
<g id="a_node9"><a xlink:href="struct_black_misc_1_1_simulation_1_1_data_1_1_t_model_set_cache_fs9.html" target="_top" xlink:title="FS9.">
<polygon fill="none" stroke="black" points="328,-196.5 328,-226.5 479,-226.5 479,-196.5 328,-196.5"/>
<text text-anchor="start" x="336" y="-214.5" font-family="Helvetica,sans-Serif" font-size="10.00">BlackMisc::Simulation</text>
<text text-anchor="middle" x="403.5" y="-203.5" font-family="Helvetica,sans-Serif" font-size="10.00">::Data::TModelSetCacheFs9</text>
</a>
</g>
</g>
<!-- Node1&#45;&gt;Node9 -->
<g id="edge8" class="edge">
<title>Node1&#45;&gt;Node9</title>
<path fill="none" stroke="midnightblue" d="M291.15,-242.68C310.04,-237.39 330.54,-231.65 348.74,-226.55"/>
<polygon fill="midnightblue" stroke="midnightblue" points="290.12,-239.33 281.43,-245.4 292.01,-246.07 290.12,-239.33"/>
</g>
<!-- Node10 -->
<g id="node10" class="node">
<title>Node10</title>
<g id="a_node10"><a xlink:href="struct_black_misc_1_1_simulation_1_1_data_1_1_t_model_set_cache_fsx.html" target="_top" xlink:title="FSX.">
<polygon fill="none" stroke="black" points="328,-147.5 328,-177.5 479,-177.5 479,-147.5 328,-147.5"/>
<text text-anchor="start" x="336" y="-165.5" font-family="Helvetica,sans-Serif" font-size="10.00">BlackMisc::Simulation</text>
<text text-anchor="middle" x="403.5" y="-154.5" font-family="Helvetica,sans-Serif" font-size="10.00">::Data::TModelSetCacheFsx</text>
</a>
</g>
</g>
<!-- Node1&#45;&gt;Node10 -->
<g id="edge9" class="edge">
<title>Node1&#45;&gt;Node10</title>
<path fill="none" stroke="midnightblue" d="M251.29,-238.64C270.11,-222.34 297.67,-200.55 325,-186.5 331.51,-183.15 338.58,-180.17 345.7,-177.55"/>
<polygon fill="midnightblue" stroke="midnightblue" points="248.73,-236.23 243.55,-245.47 253.36,-241.48 248.73,-236.23"/>
</g>
<!-- Node11 -->
<g id="node11" class="node">
<title>Node11</title>
<g id="a_node11"><a xlink:href="struct_black_misc_1_1_simulation_1_1_data_1_1_t_model_set_cache_p3_d.html" target="_top" xlink:title="P3D.">
<polygon fill="none" stroke="black" points="327,-98.5 327,-128.5 480,-128.5 480,-98.5 327,-98.5"/>
<text text-anchor="start" x="335" y="-116.5" font-family="Helvetica,sans-Serif" font-size="10.00">BlackMisc::Simulation</text>
<text text-anchor="middle" x="403.5" y="-105.5" font-family="Helvetica,sans-Serif" font-size="10.00">::Data::TModelSetCacheP3D</text>
</a>
</g>
</g>
<!-- Node1&#45;&gt;Node11 -->
<g id="edge10" class="edge">
<title>Node1&#45;&gt;Node11</title>
<path fill="none" stroke="midnightblue" d="M240.49,-236.51C256.72,-208.74 287.02,-163.5 325,-137.5 330,-134.08 335.5,-131.13 341.2,-128.59"/>
<polygon fill="midnightblue" stroke="midnightblue" points="237.45,-234.78 235.54,-245.2 243.53,-238.25 237.45,-234.78"/>
</g>
<!-- Node12 -->
<g id="node12" class="node">
<title>Node12</title>
<g id="a_node12"><a xlink:href="struct_black_misc_1_1_simulation_1_1_data_1_1_t_model_set_cache_x_p.html" target="_top" xlink:title="XPlane.">
<polygon fill="none" stroke="black" points="330.5,-49.5 330.5,-79.5 476.5,-79.5 476.5,-49.5 330.5,-49.5"/>
<text text-anchor="start" x="338.5" y="-67.5" font-family="Helvetica,sans-Serif" font-size="10.00">BlackMisc::Simulation</text>
<text text-anchor="middle" x="403.5" y="-56.5" font-family="Helvetica,sans-Serif" font-size="10.00">::Data::TModelSetCacheXP</text>
</a>
</g>
</g>
<!-- Node1&#45;&gt;Node12 -->
<g id="edge11" class="edge">
<title>Node1&#45;&gt;Node12</title>
<path fill="none" stroke="midnightblue" d="M234.96,-235.73C247.47,-198.35 276.24,-127.75 325,-88.5 329.28,-85.06 334.05,-82.1 339.07,-79.57"/>
<polygon fill="midnightblue" stroke="midnightblue" points="231.6,-234.75 231.86,-245.34 238.26,-236.9 231.6,-234.75"/>
</g>
<!-- Node13 -->
<g id="node13" class="node">
<title>Node13</title>
<g id="a_node13"><a xlink:href="struct_black_misc_1_1_simulation_1_1_data_1_1_t_v_pilot_aircraft_models.html" target="_top" xlink:title="Trait for vPilot derived models.">
<polygon fill="none" stroke="black" points="325,-0.5 325,-30.5 482,-30.5 482,-0.5 325,-0.5"/>
<text text-anchor="start" x="333" y="-18.5" font-family="Helvetica,sans-Serif" font-size="10.00">BlackMisc::Simulation</text>
<text text-anchor="middle" x="403.5" y="-7.5" font-family="Helvetica,sans-Serif" font-size="10.00">::Data::TVPilotAircraftModels</text>
</a>
</g>
</g>
<!-- Node1&#45;&gt;Node13 -->
<g id="edge12" class="edge">
<title>Node1&#45;&gt;Node13</title>
<path fill="none" stroke="midnightblue" d="M231.57,-235.42C240.31,-189.76 265.14,-92.83 325,-39.5 328.89,-36.03 333.28,-33.07 337.93,-30.53"/>
<polygon fill="midnightblue" stroke="midnightblue" points="228.11,-234.91 229.77,-245.37 235,-236.15 228.11,-234.91"/>
</g>
<!-- Node2 -->
<g id="node2" class="node">
<title>Node2</title>
<g id="a_node2"><a xlink:href="struct_black_misc_1_1_t_data_trait.html" target="_top" xlink:title=" ">
<polygon fill="none" stroke="black" points="0,-245.5 0,-275.5 128,-275.5 128,-245.5 0,-245.5"/>
<text text-anchor="start" x="8" y="-263.5" font-family="Helvetica,sans-Serif" font-size="10.00">BlackMisc::TDataTrait</text>
<text text-anchor="middle" x="64" y="-252.5" font-family="Helvetica,sans-Serif" font-size="10.00">&lt; CAircraftModelList &gt;</text>
</a>
</g>
</g>
<!-- Node2&#45;&gt;Node1 -->
<g id="edge1" class="edge">
<title>Node2&#45;&gt;Node1</title>
<path fill="none" stroke="midnightblue" d="M138.64,-260.5C147.07,-260.5 155.59,-260.5 163.84,-260.5"/>
<polygon fill="midnightblue" stroke="midnightblue" points="138.43,-257 128.43,-260.5 138.43,-264 138.43,-257"/>
</g>
</g>
</svg>
