<?xml version="1.0" encoding="UTF-8" standalone="no"?>
<!DOCTYPE svg PUBLIC "-//W3C//DTD SVG 1.1//EN"
 "http://www.w3.org/Graphics/SVG/1.1/DTD/svg11.dtd">
<!-- Generated by graphviz version 2.43.0 (0)
 -->
<!-- Title: BlackMisc::Simulation::Data::TModelCacheFsx Pages: 1 -->
<svg width="143pt" height="173pt"
 viewBox="0.00 0.00 143.00 173.00" xmlns="http://www.w3.org/2000/svg" xmlns:xlink="http://www.w3.org/1999/xlink">
<g id="graph0" class="graph" transform="scale(1 1) rotate(0) translate(4 169)">
<title>BlackMisc::Simulation::Data::TModelCacheFsx</title>
<!-- Node1 -->
<g id="node1" class="node">
<title>Node1</title>
<g id="a_node1"><a xlink:title="FSX.">
<polygon fill="#bfbfbf" stroke="black" points="0,-0.5 0,-30.5 135,-30.5 135,-0.5 0,-0.5"/>
<text text-anchor="start" x="8" y="-18.5" font-family="Helvetica,sans-Serif" font-size="10.00">BlackMisc::Simulation</text>
<text text-anchor="middle" x="67.5" y="-7.5" font-family="Helvetica,sans-Serif" font-size="10.00">::Data::TModelCacheFsx</text>
</a>
</g>
</g>
<!-- Node2 -->
<g id="node2" class="node">
<title>Node2</title>
<g id="a_node2"><a xlink:href="struct_black_misc_1_1_simulation_1_1_data_1_1_t_model_cache.html" target="_top" xlink:title="Trait for model cache.">
<polygon fill="none" stroke="black" points="5,-67.5 5,-97.5 130,-97.5 130,-67.5 5,-67.5"/>
<text text-anchor="start" x="13" y="-85.5" font-family="Helvetica,sans-Serif" font-size="10.00">BlackMisc::Simulation</text>
<text text-anchor="middle" x="67.5" y="-74.5" font-family="Helvetica,sans-Serif" font-size="10.00">::Data::TModelCache</text>
</a>
</g>
</g>
<!-- Node2&#45;&gt;Node1 -->
<g id="edge1" class="edge">
<title>Node2&#45;&gt;Node1</title>
<path fill="none" stroke="midnightblue" d="M67.5,-57.11C67.5,-48.15 67.5,-38.32 67.5,-30.58"/>
<polygon fill="midnightblue" stroke="midnightblue" points="64,-57.4 67.5,-67.4 71,-57.4 64,-57.4"/>
</g>
<!-- Node3 -->
<g id="node3" class="node">
<title>Node3</title>
<g id="a_node3"><a xlink:href="struct_black_misc_1_1_t_data_trait.html" target="_top" xlink:title=" ">
<polygon fill="none" stroke="black" points="3.5,-134.5 3.5,-164.5 131.5,-164.5 131.5,-134.5 3.5,-134.5"/>
<text text-anchor="start" x="11.5" y="-152.5" font-family="Helvetica,sans-Serif" font-size="10.00">BlackMisc::TDataTrait</text>
<text text-anchor="middle" x="67.5" y="-141.5" font-family="Helvetica,sans-Serif" font-size="10.00">&lt; CAircraftModelList &gt;</text>
</a>
</g>
</g>
<!-- Node3&#45;&gt;Node2 -->
<g id="edge2" class="edge">
<title>Node3&#45;&gt;Node2</title>
<path fill="none" stroke="midnightblue" d="M67.5,-124.11C67.5,-115.15 67.5,-105.32 67.5,-97.58"/>
<polygon fill="midnightblue" stroke="midnightblue" points="64,-124.4 67.5,-134.4 71,-124.4 64,-124.4"/>
</g>
</g>
</svg>
